# {"id":"ID_5198","idOriginal":"ID_5198","origin":[14.287956910615742,48.33359871845744],"elevation":272.783,"wof":[{"Id":102049853,"Name":"Linz","Placetype":"county","Offset":-1},{"Id":101748071,"Name":"Linz","Placetype":"locality","Offset":-1},{"Id":85681677,"Name":"Oberösterreich","Placetype":"region","Offset":-1},{"Id":85898425,"Name":"Harbach","Placetype":"neighbourhood","Offset":-1},{"Id":85632785,"Name":"Austria","Placetype":"country","Offset":-1}]}

# Attribution: City of Linz <http://geo.data.linz.gv.at/katalog/geodata/3d_geo_daten_lod2/>
# Longitude: 14.287956910615742
# Latitude: 48.33359871845744
# Elevation: 272.783

# File produced by Open Asset Import Library (http://www.assimp.sf.net)
# (assimp v3.1.0)


# 19 vertex positions
v  3.84 2.988 -18.539
v  9.865 4.435 -6.215
v  12.421 4.435 -18.539
v  0 2.989 1.83023e-16
v  1.776 3.301 0.369
v  16.702 2.989 2.185
v  20.997 2.989 -18.539
v  10.991 2.971 2.285
v  16.681 2.971 2.285
v  16.446 2.776 3.419
v  16.446 -2.09353e-16 3.419
v  16.681 -1.39916e-16 2.285
v  16.702 -1.33793e-16 2.185
v  20.997 1.13519e-15 -18.539
v  12.421 1.13519e-15 -18.539
v  3.84 1.13519e-15 -18.539
v  0 0 0
v  1.776 -2.25947e-17 0.369
v  10.991 -1.39916e-16 2.285

# 0 UV coordinates

# 25 vertex normals
vn -0.166182 0.985493 -0.0344662
vn -0.16617 0.985494 -0.0344722
vn -0.166022 0.985528 -0.0342285
vn 0.166165 0.985497 0.0344372
vn 0.166105 0.985506 0.0344502
vn -2.96128e-07 0.98549 0.169736
vn -0.000133704 0.985487 0.169753
vn 0 0.984183 0.177154
vn 0 0.985535 0.16947
vn 0.979195 -0 0.20292
vn 0.978613 0.00110987 0.205707
vn 0.979192 -8.41734e-05 0.202935
vn 0.979195 -0.000200568 0.20292
vn 0.978483 0.0186568 0.205481
vn 0.979192 0 0.202935
vn 0 0 -1
vn -0.979215 0 -0.202826
vn -0.203426 -5.9952e-17 0.97909
vn -0.203426 0 0.97909
vn -0.203568 0 0.979061
vn -0.203568 0 0.979061
vn -0.203531 0 0.979069
vn -0.203531 0 0.979068
vn 0 -1 -6.12323e-17
vn -1.9623e-21 -1 -6.12318e-17

# Mesh 'defaultobject' with 34 faces
g defaultobject
usemtl DefaultMaterial
f  1//1 2//1 3//1
f  2//2 1//2 4//2
f  2//3 4//3 5//3
f  3//4 6//4 7//4
f  6//5 3//5 2//5
f  8//6 2//6 5//6
f  2//7 8//7 6//7
f  6//8 8//8 9//8
f  9//9 8//9 10//9
f  11//10 9//10 10//10
f  9//11 11//11 6//11
f  6//12 11//12 7//12
f  7//13 11//13 12//13
f  7//14 12//14 13//14
f  7//15 13//15 14//15
f  14//16 3//16 7//16
f  3//16 14//16 15//16
f  3//16 15//16 1//16
f  1//16 15//16 16//16
f  1//17 17//17 4//17
f  17//17 1//17 16//17
f  17//18 5//18 4//18
f  5//18 17//18 18//19
f  5//20 18//20 8//20
f  8//20 18//20 19//21
f  8//22 19//22 10//22
f  10//22 19//22 11//23
f  13//24 15//24 14//24
f  15//24 13//24 12//25
f  15//24 12//25 11//24
f  15//24 11//24 19//24
f  15//24 19//24 16//24
f  16//24 19//24 18//24
f  16//24 18//24 17//24

