# {"id":"ID_17693","idOriginal":"ID_17693","origin":[14.305785020352856,48.253051770376985],"elevation":260.423}
# Longitude: 14.305785020352856
# Latitude: 48.253051770376985
# Elevation: 260.423

# File produced by Open Asset Import Library (http://www.assimp.sf.net)
# (assimp v3.1.0)

mtllib ID_17693.obj.mtl

# 22 vertex positions
v  7.188 8.3 -0.515
v  14.995 5.284 7.613
v  14.325 5.294 -1.009
v  12.585 6.296 7.705
v  8.065 8.3 11.212
v  12.796 6.307 10.86
v  0.581 5.518 -0.058
v  0.952 5.303 11.741
v  0.01 5.273 0.121
v  0 5.272 3.22817e-16
v  0.871 5.295 10.911
v  0.581 3.55148e-18 -0.058
v  0 0 0
v  7.188 3.15347e-17 -0.515
v  14.325 6.17834e-17 -1.009
v  0.01 -7.40911e-18 0.121
v  0.871 -6.68106e-16 10.911
v  0.952 -7.18929e-16 11.741
v  8.065 -6.86537e-16 11.212
v  12.796 -6.64983e-16 10.86
v  12.585 -4.71795e-16 7.705
v  14.995 -4.66162e-16 7.613

# 0 UV coordinates

# 38 vertex normals
vn 0.386296 0.921921 -0.0289491
vn 0.386076 0.92202 -0.0287014
vn 0.386325 0.92191 -0.0288911
vn 0.386223 0.921948 -0.0290442
vn -0.38621 0.921959 0.0288826
vn -0.386291 0.921923 0.0289455
vn -0.386465 0.92185 0.0289496
vn -0.387714 0.921456 0.0244277
vn -0.392585 0.919244 0.0294525
vn -0.0993342 0 -0.995054
vn -0.0993342 6.09295e-17 -0.995054
vn -0.0690042 0 -0.997616
vn -0.0690397 2.83684e-05 -0.997614
vn -0.0690042 -6.41522e-05 -0.997616
vn -0.0690515 0 -0.997613
vn -0.996602 -5.04333e-18 0.0823638
vn -0.996831 6.51611e-05 0.0795431
vn -0.996586 -0.00578382 0.082362
vn -0.996831 0 0.0795433
vn -0.995272 0 0.097129
vn -0.995272 0 0.097129
vn 0.0741661 -0 0.997246
vn 0.0741661 0 0.997246
vn 0.0741978 0 0.997244
vn 0.0741978 0 0.997244
vn 0.0381465 -0 0.999272
vn 0.0381465 0 0.999272
vn 0.997771 0 -0.0667287
vn 0.997771 0 -0.0667288
vn 0.996994 0 -0.0774746
vn 0.996994 0 -0.0774746
vn 0 -1 -6.12323e-17
vn -2.0856e-23 -1 -6.12323e-17
vn 2.76933e-23 -1 -6.12323e-17
vn -1.51828e-23 -1 -6.12323e-17
vn 0 -1 -6.12323e-17
vn 0 -1 -6.12323e-17
vn 5.31519e-21 -1 -6.12323e-17

# Mesh 'defaultobject' with 40 faces
g defaultobject
usemtl DefaultMaterial
f  1//1 2//1 3//1
f  2//2 1//2 4//2
f  4//3 1//3 5//3
f  4//4 5//4 6//4
f  7//5 5//5 1//5
f  5//6 7//6 8//6
f  8//7 7//7 9//7
f  9//8 7//8 10//8
f  8//9 9//9 11//9
f  12//10 10//10 7//10
f  10//10 12//10 13//11
f  1//12 12//12 7//12
f  12//13 1//13 3//13
f  12//14 3//14 14//14
f  14//15 3//15 15//15
f  13//16 9//16 10//16
f  9//17 13//17 11//17
f  11//18 13//18 16//18
f  11//19 16//19 17//19
f  11//20 17//20 8//20
f  8//20 17//20 18//21
f  18//22 5//22 8//22
f  5//22 18//22 19//23
f  5//24 19//24 6//24
f  6//24 19//24 20//25
f  21//26 2//26 4//26
f  2//26 21//26 22//27
f  20//28 4//28 6//28
f  4//28 20//28 21//29
f  2//30 15//30 3//30
f  15//30 2//30 22//31
f  22//32 14//32 15//32
f  14//32 22//32 21//33
f  14//32 21//33 20//34
f  14//32 20//34 19//35
f  14//32 19//35 12//36
f  12//36 19//35 18//37
f  12//36 18//37 16//37
f  12//36 16//37 13//37
f  16//37 18//37 17//38

