# {"id":"ID_53644","idOriginal":"ID_53644","origin":[14.296590401656823,48.34042210861786],"elevation":280.184}
# Longitude: 14.296590401656823
# Latitude: 48.34042210861786
# Elevation: 280.184

# File produced by Open Asset Import Library (http://www.assimp.sf.net)
# (assimp v3.1.0)

mtllib ID_53644.obj.mtl

# 8 vertex positions
v  3.569 3.438 5.545
v  0 3.438 2.10517e-16
v  2.332 3.438 6.105
v  1.24 3.438 -0.662
v  2.332 -3.73823e-16 6.105
v  3.569 -3.39533e-16 5.545
v  1.24 4.05358e-17 -0.662
v  0 0 0

# 0 UV coordinates

# 9 vertex normals
vn 0 1 0
vn 0.412415 -0 0.910996
vn 0.936261 0 -0.351305
vn -0.470957 0 -0.882156
vn -0.470957 5.40165e-17 -0.882156
vn -0.934167 -2.18498e-17 0.356835
vn -0.934167 0 0.356835
vn 0 -1 -6.12323e-17
vn -2.29213e-23 -1 -6.12323e-17

# Mesh 'defaultobject' with 12 faces
g defaultobject
usemtl DefaultMaterial
f  1//1 2//1 3//1
f  2//1 1//1 4//1
f  5//2 1//2 3//2
f  1//2 5//2 6//2
f  6//3 4//3 1//3
f  4//3 6//3 7//3
f  7//4 2//4 4//4
f  2//4 7//4 8//5
f  8//6 3//6 2//6
f  3//6 8//6 5//7
f  8//8 6//8 5//8
f  6//8 8//8 7//9

