# {"id":"ID_7954","idOriginal":"ID_7954","origin":[14.289526624553089,48.30706108881825],"elevation":255.657}
# Longitude: 14.289526624553089
# Latitude: 48.30706108881825
# Elevation: 255.657

# File produced by Open Asset Import Library (http://www.assimp.sf.net)
# (assimp v3.1.0)

mtllib ID_7954.obj.mtl

# 107 vertex positions
v  1.66 12.449 23.013
v  4.536 12.921 8.114
v  0.61 12.449 8.462
v  6.065 13.105 7.979
v  7.121 13.105 22.623
v  9.255 12.849 22.471
v  10.303 12.723 22.396
v  10.16 12.723 20.401
v  11.306 12.586 20.362
v  11.116 12.584 17.469
v  10.707 12.579 11.264
v  10.479 12.576 7.796
v  7.594 12.921 7.843
v  10.466 12.576 7.589
v  10.303 -1.37136e-15 22.396
v  10.16 -1.2492e-15 20.401
v  11.306 -1.24681e-15 20.362
v  11.116 -1.06967e-15 17.469
v  10.466 -4.64692e-16 7.589
v  10.707 -6.89721e-16 11.264
v  10.479 -4.77367e-16 7.796
v  7.594 -4.80245e-16 7.843
v  4.536 -4.96839e-16 8.114
v  0.61 -5.18148e-16 8.462
v  6.065 -4.88573e-16 7.979
v  1.66 -1.40914e-15 23.013
v  9.255 -1.37595e-15 22.471
v  7.121 -1.38526e-15 22.623
v  10.47 12.921 1.407
v  10.662 12.921 0.654
v  10.534 12.921 1.06
v  11.037 12.921 0.171
v  0.006 12.921 0.085
v  5.209 12.921 -0.375
v  0 12.921 7.91183e-16
v  0.61 12.921 8.462
v  8.618 12.921 -0.621
v  6.065 12.921 7.979
v  8.619 12.921 -0.603
v  8.785 12.921 1.528
v  9.255 12.921 1.494
v  10.459 12.921 7.489
v  10.466 12.921 7.589
v  11.089 12.921 0.137
v  11.409 12.921 -0.068
v  11.841 12.921 -0.25
v  12.337 12.921 -0.329
v  12.638 12.921 -0.306
v  13.148 12.921 -0.164
v  10.696 12.921 7.467
v  11.612 12.921 7.382
v  13.601 12.921 0.117
v  13.889 12.921 0.513
v  14.816 12.921 7.087
v  14.086 12.921 0.886
v  14.253 12.921 1.754
v  14.227 12.921 1.308
v  14.594 12.921 4.78
v  14.694 12.921 4.773
v  22.19 12.921 4.281
v  14.937 12.921 7.076
v  18.749 12.921 6.741
v  22.134 12.921 6.444
v  22.339 12.921 4.584
v  22.41 12.921 4.238
v  22.341 12.921 4.615
v  22.461 12.921 6.426
v  22.483 12.921 4.336
v  22.514 12.921 4.472
v  22.339 -2.80689e-16 4.584
v  22.514 -2.73831e-16 4.472
v  22.483 -2.65503e-16 4.336
v  14.594 -2.92691e-16 4.78
v  14.253 -1.07402e-16 1.754
v  14.227 -8.00919e-17 1.308
v  14.086 -5.42519e-17 0.886
v  8.785 -9.3563e-17 1.528
v  8.619 3.69231e-17 -0.603
v  8.618 3.80253e-17 -0.621
v  10.459 -4.58569e-16 7.489
v  22.461 -3.93479e-16 6.426
v  22.341 -2.82587e-16 4.615
v  22.41 -2.59503e-16 4.238
v  13.889 -3.14122e-17 0.513
v  13.601 -7.16418e-18 0.117
v  13.148 1.00421e-17 -0.164
v  22.19 -2.62136e-16 4.281
v  14.694 -2.92262e-16 4.773
v  12.638 1.87371e-17 -0.306
v  12.337 2.01454e-17 -0.329
v  11.841 1.53081e-17 -0.25
v  10.47 -8.61539e-17 1.407
v  9.255 -9.14811e-17 1.494
v  0 0 0
v  5.209 2.29621e-17 -0.375
v  11.409 4.1638e-18 -0.068
v  11.037 -1.04707e-17 0.171
v  11.089 -8.38883e-18 0.137
v  10.662 -4.00459e-17 0.654
v  10.534 -6.49063e-17 1.06
v  0.006 -5.20475e-18 0.085
v  10.696 -4.57222e-16 7.467
v  11.612 -4.52017e-16 7.382
v  14.937 -4.3328e-16 7.076
v  18.749 -4.12767e-16 6.741
v  22.134 -3.94581e-16 6.444
v  14.816 -4.33954e-16 7.087

# 0 UV coordinates

# 132 vertex normals
vn -0.118612 0.992904 0.00855905
vn -0.118731 0.99289 0.00853569
vn -0.11866 0.992898 0.00855676
vn 0.118504 0.992917 -0.00854549
vn 0.118758 0.992886 -0.00860206
vn 0.118361 0.992934 -0.00848408
vn 0.118411 0.992928 -0.00850053
vn 0.118308 0.992941 -0.00845671
vn 0.118608 0.992904 -0.00861793
vn 0.118636 0.9929 -0.00865857
vn 0.118565 0.992892 -0.0103354
vn 0.118615 0.992912 -0.00744956
vn 0.997441 0 -0.071496
vn 0.99785 0 -0.0655345
vn 0.997835 -5.48209e-05 -0.0657719
vn 0.997846 6.83664e-05 -0.0656023
vn 0.998029 0.00299995 -0.0626804
vn 0.99785 8.92711e-05 -0.0655344
vn 0.997843 0 -0.0656476
vn -5.52144e-20 -1 -6.12293e-17
vn -9.25055e-20 -1 -6.12263e-17
vn -0.0880963 0 -0.996112
vn -0.0886111 -0.000115325 -0.996066
vn -0.0879634 0.000103901 -0.996124
vn -0.088288 -4.62447e-05 -0.996095
vn -0.0880963 0.000106731 -0.996112
vn -0.0882742 6.15101e-06 -0.996096
vn -0.0882935 -0 -0.996095
vn -2.02888e-21 -1 -6.12558e-17
vn -0.997407 0 0.0719728
vn 0.0712343 -0 0.99746
vn 0.071056 7.46999e-05 0.997472
vn 0.0713697 -0.000111677 0.99745
vn 0.0711817 1.66687e-05 0.997463
vn 0.071383 0 0.997449
vn 3.83697e-20 -1 -6.06993e-17
vn 0.0340113 -0 0.999421
vn 0.0340113 0 0.999421
vn -1.06048e-23 -1 -6.12323e-17
vn -6.47507e-23 -1 -6.12323e-17
vn -6.10431e-24 -1 -6.12323e-17
vn -3.10755e-23 -1 -6.12323e-17
vn 0 1 0
vn 0.539055 -0 0.84227
vn 0.974992 0 -0.222241
vn 0.99371 0 -0.111981
vn 0.998305 0 -0.0581972
vn 0.948458 0 -0.316902
vn 0.99698 0 -0.0776622
vn 0.998459 0 -0.0554924
vn 0.997559 0 -0.0698289
vn 0.997812 0 -0.0661172
vn 0.997927 0.000249077 -0.0643478
vn 0.997814 0 -0.0660874
vn 3.47505e-19 -1 -6.12556e-17
vn 0.80196 0 -0.597378
vn 0.884248 0 -0.467017
vn 0.808736 0 -0.588172
vn 0.527129 0 -0.849785
vn -0.191826 0 -0.981429
vn -0.065494 0 -0.997853
vn -0.0698283 -0.00252582 -0.997556
vn -0.0655511 -0 -0.997849
vn 3.55549e-23 1 6.12329e-17
vn 0.268229 0 -0.963355
vn 0.0761897 0 -0.997093
vn -0.157291 0 -0.987552
vn -0.071422 0 -0.997446
vn -0.0721519 -6.89927e-05 -0.997394
vn -0.0716256 -0 -0.997432
vn -8.61485e-22 1 6.12216e-17
vn -0.0719748 0 -0.997406
vn -0.071805 4.50376e-05 -0.997419
vn -0.0718721 6.1074e-17 -0.997414
vn -5.44355e-22 -1 -6.12334e-17
vn -0.388248 0 -0.921555
vn -0.539426 0 -0.842033
vn -0.547249 -0.000274071 -0.83697
vn -0.540528 -0 -0.841326
vn 2.34978e-22 1 6.12329e-17
vn -0.78988 0 -0.613261
vn -0.953725 0 -0.30068
vn -0.983413 0 -0.181379
vn -0.997518 -4.31156e-18 0.070413
vn -0.997411 -9.93365e-06 0.0719155
vn -0.997412 0 0.0719004
vn 0 1 6.12317e-17
vn 0.0882935 -0 0.996095
vn 0.087951 0.000104892 0.996125
vn 0.0885973 -0.000170121 0.996067
vn 0.0880963 0.000102823 0.996112
vn 0.0882935 -4.87916e-05 0.996095
vn 0.0882742 -3.98464e-05 0.996096
vn 0.0880963 0 0.996112
vn 2.02888e-21 1 6.12548e-17
vn 0.0924288 -0 0.995719
vn 0.0923979 5.71025e-07 0.995722
vn 0.0916846 6.47667e-05 0.995788
vn 0.0905329 0.000456403 0.995893
vn 0.0875429 0.00150116 0.99616
vn 0.0874041 0.0015909 0.996172
vn 0.0924282 -0.00298587 0.995715
vn 0.0923975 -0.00295822 0.995718
vn 0.0916425 -0.00233822 0.995789
vn 0.087543 -3.6637e-05 0.996161
vn 0.0874042 0 0.996173
vn -8.57614e-21 -1 -6.13255e-17
vn 0.0549631 -0 0.998488
vn 0 -1 -6.12323e-17
vn 1.57445e-20 -1 -6.12323e-17
vn -5.90463e-23 -1 -6.12323e-17
vn 0 -1 -6.12323e-17
vn -2.10921e-21 -1 -6.12319e-17
vn 2.86598e-23 -1 -6.12323e-17
vn 0 -1 -6.12323e-17
vn 3.34022e-23 -1 -6.12323e-17
vn 2.17621e-22 -1 -6.12323e-17
vn 0 -1 -6.12324e-17
vn 0 -1 -6.12323e-17
vn -6.11815e-23 -1 -6.12323e-17
vn -1.38747e-22 -1 -6.12323e-17
vn 2.23065e-22 -1 -6.12323e-17
vn -5.26858e-22 -1 -6.12323e-17
vn 9.56022e-23 -1 -6.12324e-17
vn -1.38207e-21 -1 -6.12322e-17
vn 0 -1 -6.12323e-17
vn 4.56224e-24 -1 -6.12323e-17
vn -8.85031e-24 -1 -6.12324e-17
vn 1.13233e-23 -1 -6.12323e-17
vn 0 -1 -6.12323e-17
vn -9.04274e-23 -1 -6.12323e-17
vn -1.80083e-22 -1 -6.12323e-17

# Mesh 'defaultobject' with 220 faces
g defaultobject
usemtl DefaultMaterial
f  1//1 2//1 3//1
f  2//2 1//2 4//2
f  4//3 1//3 5//3
f  6//4 4//4 5//4
f  4//5 6//5 7//5
f  4//6 7//6 8//6
f  4//7 8//7 9//7
f  4//8 9//8 10//8
f  4//9 10//9 11//9
f  4//10 11//10 12//10
f  4//11 12//11 13//11
f  13//12 12//12 14//12
f  15//13 8//13 7//13
f  8//13 15//13 16//13
f  17//14 10//14 9//14
f  10//15 17//15 11//15
f  11//16 17//16 12//16
f  12//17 17//17 14//17
f  14//18 17//18 18//18
f  14//19 18//19 19//19
f  19//20 18//20 20//20
f  19//20 20//20 21//21
f  19//22 13//22 14//22
f  13//23 19//23 4//23
f  4//24 19//24 2//24
f  2//25 19//25 3//25
f  3//26 19//26 22//26
f  3//27 22//27 23//27
f  3//28 23//28 24//28
f  23//29 22//29 25//29
f  24//30 1//30 3//30
f  1//30 24//30 26//30
f  26//31 5//31 1//31
f  5//32 26//32 6//32
f  6//33 26//33 7//33
f  7//34 26//34 27//34
f  7//35 27//35 15//35
f  27//36 26//36 28//36
f  16//37 9//37 8//37
f  9//37 16//37 17//38
f  24//39 28//36 26//36
f  28//36 24//39 27//36
f  27//36 24//39 15//40
f  15//40 24//39 16//41
f  16//41 24//39 17//42
f  17//42 24//39 18//20
f  18//20 24//39 20//20
f  20//20 24//39 21//21
f  21//21 24//39 23//29
f  21//21 23//29 25//29
f  21//21 25//29 22//29
f  21//21 22//29 19//20
f  29//43 30//43 31//43
f  30//43 29//43 32//43
f  33//43 34//43 35//43
f  34//43 33//43 36//43
f  34//43 36//43 2//43
f  34//43 2//43 37//43
f  37//43 2//43 38//43
f  37//43 38//43 13//43
f  37//43 13//43 39//43
f  39//43 13//43 40//43
f  40//43 13//43 41//43
f  41//43 13//43 29//43
f  29//43 13//43 42//43
f  42//43 13//43 43//43
f  29//43 42//43 32//43
f  32//43 42//43 44//43
f  44//43 42//43 45//43
f  45//43 42//43 46//43
f  46//43 42//43 47//43
f  47//43 42//43 48//43
f  42//43 49//43 48//43
f  49//43 42//43 50//43
f  49//43 50//43 51//43
f  49//43 51//43 52//43
f  52//43 51//43 53//43
f  53//43 51//43 54//43
f  53//43 54//43 55//43
f  55//43 54//43 56//43
f  55//43 56//43 57//43
f  56//43 54//43 58//43
f  58//43 54//43 59//43
f  59//43 54//43 60//43
f  60//43 54//43 61//43
f  60//43 61//43 62//43
f  60//43 62//43 63//43
f  60//43 63//43 64//43
f  60//43 64//43 65//43
f  64//43 63//43 66//43
f  66//43 63//43 67//43
f  64//43 68//43 65//43
f  68//43 64//43 69//43
f  70//44 69//44 64//44
f  69//44 70//44 71//44
f  71//45 68//45 69//45
f  68//45 71//45 72//45
f  73//46 56//46 58//46
f  56//46 73//46 74//46
f  74//47 57//47 56//47
f  57//47 74//47 75//47
f  75//48 55//48 57//48
f  55//48 75//48 76//48
f  77//49 39//49 40//49
f  39//49 77//49 78//49
f  78//50 37//50 39//50
f  37//50 78//50 79//50
f  19//51 42//51 43//51
f  42//51 19//51 80//51
f  81//52 66//52 67//52
f  66//53 81//53 64//53
f  64//54 81//54 70//54
f  70//55 81//55 82//55
f  72//56 65//56 68//56
f  65//56 72//56 83//56
f  76//57 53//57 55//57
f  53//57 76//57 84//57
f  84//58 52//58 53//58
f  52//58 84//58 85//58
f  85//59 49//59 52//59
f  49//59 85//59 86//59
f  83//60 60//60 65//60
f  60//60 83//60 87//60
f  87//61 59//61 60//61
f  59//62 87//62 58//62
f  58//63 87//63 73//63
f  73//64 87//64 88//64
f  86//65 48//65 49//65
f  48//65 86//65 89//65
f  89//66 47//66 48//66
f  47//66 89//66 90//66
f  90//67 46//67 47//67
f  46//67 90//67 91//67
f  92//68 41//68 29//68
f  41//69 92//69 40//69
f  40//70 92//70 77//70
f  77//71 92//71 93//71
f  79//72 34//72 37//72
f  34//73 79//73 35//73
f  35//74 79//74 94//74
f  94//75 79//75 95//75
f  91//76 45//76 46//76
f  45//76 91//76 96//76
f  96//77 44//77 45//77
f  44//78 96//78 32//78
f  32//79 96//79 97//79
f  97//80 96//80 98//80
f  97//81 30//81 32//81
f  30//81 97//81 99//81
f  99//82 31//82 30//82
f  31//82 99//82 100//82
f  100//83 29//83 31//83
f  29//83 100//83 92//83
f  94//84 33//84 35//84
f  33//85 94//85 36//85
f  36//86 94//86 24//86
f  24//87 94//87 101//87
f  24//88 2//88 36//88
f  2//89 24//89 38//89
f  38//90 24//90 13//90
f  13//91 24//91 43//91
f  43//92 24//92 23//92
f  43//93 23//93 22//93
f  43//94 22//94 19//94
f  22//95 23//95 25//95
f  80//96 50//96 42//96
f  50//97 80//97 51//97
f  51//98 80//98 54//98
f  54//99 80//99 61//99
f  61//100 80//100 62//100
f  62//101 80//101 63//101
f  63//102 80//102 102//102
f  63//103 102//103 103//103
f  63//104 103//104 104//104
f  63//105 104//105 105//105
f  63//106 105//106 106//106
f  104//107 103//107 107//107
f  106//108 67//108 63//108
f  67//108 106//108 81//108
f  95//75 101//109 94//75
f  101//109 95//75 24//39
f  24//39 95//75 23//29
f  23//29 95//75 25//29
f  25//29 95//75 79//75
f  25//29 79//75 22//29
f  22//29 79//75 78//110
f  22//29 78//110 77//111
f  22//29 77//111 19//20
f  19//20 77//111 93//112
f  19//20 93//112 80//113
f  80//113 93//112 92//114
f  80//113 92//114 100//115
f  99//116 80//113 100//115
f  80//113 99//116 102//117
f  102//117 99//116 97//112
f  102//117 97//112 103//107
f  103//107 97//112 98//118
f  103//107 98//118 96//115
f  103//107 96//115 91//109
f  103//107 91//109 107//107
f  107//107 91//109 90//115
f  107//107 90//115 89//119
f  107//107 89//119 86//120
f  107//107 86//120 85//112
f  107//107 85//112 84//121
f  107//107 84//121 76//122
f  107//107 76//122 74//123
f  74//123 76//122 75//124
f  107//107 74//123 73//125
f  107//107 73//125 88//126
f  107//107 88//126 87//127
f  107//107 87//127 104//107
f  104//107 87//127 105//128
f  105//128 87//127 106//129
f  106//129 87//127 70//55
f  70//55 87//127 83//130
f  70//55 83//130 71//131
f  71//131 83//130 72//132
f  106//129 82//55 81//55
f  82//55 106//129 70//55

