# {"id":"ID_8737","idOriginal":"ID_8737","origin":[14.319961519637879,48.253775882707096],"elevation":256.77}
# Longitude: 14.319961519637879
# Latitude: 48.253775882707096
# Elevation: 256.77

# File produced by Open Asset Import Library (http://www.assimp.sf.net)
# (assimp v3.1.0)

mtllib ID_8737.obj.mtl

# 57 vertex positions
v  13.138 11.18 -1.281
v  12.471 12.749 2.474
v  14.337 11.182 1.815
v  8.341 16.217 3.933
v  5.935 16.217 -2.269
v  11.893 11.179 -4.495
v  0 11.183 6.84761e-16
v  1.47 12.441 -0.6
v  1.095 12.124 -0.46
v  1.693 11.187 4.351
v  2.792 12.126 3.909
v  3.468 12.125 5.654
v  4.211 12.749 5.392
v  3.468 -3.46208e-16 5.654
v  12.471 -1.51489e-16 2.474
v  14.337 -1.11137e-16 1.815
v  4.211 -3.30165e-16 5.392
v  8.341 -2.40827e-16 3.933
v  2.792 -2.39357e-16 3.909
v  1.693 -2.66422e-16 4.351
v  11.893 2.75239e-16 -4.495
v  13.138 7.84386e-17 -1.281
v  1.47 3.67394e-17 -0.6
v  1.095 2.81669e-17 -0.46
v  5.935 1.38936e-16 -2.269
v  0 0 0
v  17.993 11.195 0.622
v  16.535 16.668 7.21
v  19.903 16.668 6.021
v  15.041 12.722 3.359
v  14.464 11.198 1.872
v  21.81 11.203 11.413
v  18.029 12.722 11.062
v  18.604 11.203 12.545
v  21.659 11.634 10.988
v  14.464 -1.14627e-16 1.872
v  18.604 -7.6816e-16 12.545
v  15.041 -2.05679e-16 3.359
v  16.535 -4.41485e-16 7.21
v  18.029 -6.77352e-16 11.062
v  21.81 -6.98845e-16 11.413
v  17.993 -3.80865e-17 0.622
v  21.659 -6.72821e-16 10.988
v  19.903 -3.6868e-16 6.021
v  7.639 12.49 16.418
v  18.604 12.49 12.545
v  7.256 12.645 15.431
v  10.447 13.324 9.361
v  16.535 13.324 7.21
v  14.372 12.489 1.905
v  14.464 12.49 1.872
v  14.337 12.489 1.815
v  8.341 13.324 3.933
v  3.468 12.645 5.654
v  7.639 -1.00531e-15 16.418
v  7.256 -9.44876e-16 15.431
v  14.372 -1.16648e-16 1.905

# 0 UV coordinates

# 111 vertex normals
vn 0.578886 0.783839 -0.224694
vn 0.578837 0.783869 -0.224715
vn 0.578934 0.783833 -0.224591
vn 0.578938 0.783855 -0.224506
vn -0.57479 0.783794 0.235122
vn -0.576787 0.783786 0.230209
vn -0.578971 0.783814 0.22456
vn -0.57939 0.783623 0.224147
vn -0.578884 0.783876 0.224572
vn -0.578867 0.783852 0.224698
vn -0.665948 0.731714 -0.145285
vn 0.333095 3.13909e-08 0.942893
vn 0.333095 -0.000724013 0.942893
vn 0.33305 0 0.942909
vn 0.333022 2.24944e-05 0.942919
vn 0.33305 -8.47229e-06 0.942909
vn 0.333005 0 0.942925
vn -2.67524e-20 1 6.11559e-17
vn 0.25 0 1
vn 0.373137 0 0.927776
vn 0.373137 0 0.927776
vn 0.932512 0 -0.361138
vn 0.932483 -2.42084e-05 -0.361214
vn 0.932497 0 -0.361177
vn 1.13462e-19 1 6.12126e-17
vn -0.349986 0 -0.936755
vn -0.350099 -4.74962e-05 -0.936713
vn -0.349877 0.000165141 -0.936796
vn -0.35005 -1.0414e-05 -0.936731
vn -0.349754 -0 -0.936842
vn -5.50269e-21 1 6.12119e-17
vn -0.387304 0 -0.921952
vn -0.387304 5.64533e-17 -0.921952
vn -0.931936 0 0.362622
vn -0.931936 0 0.362622
vn -0.932475 0 0.361234
vn -0.932475 0 0.361234
vn -6.04583e-24 -1 -6.12323e-17
vn -2.32916e-23 -1 -6.12323e-17
vn 0 -1 -6.12323e-17
vn 0 -1 -6.12323e-17
vn -1.45415e-23 -1 -6.12323e-17
vn 1.68979e-24 -1 -6.12323e-17
vn 0 -1 -6.12324e-17
vn 2.85699e-22 -1 -6.12324e-17
vn -1.91127e-23 -1 -6.12323e-17
vn 1.75265e-24 -1 -6.12323e-17
vn -2.38762e-24 -1 -6.12323e-17
vn -0.229996 0.722951 -0.651494
vn -0.230092 0.722922 -0.651492
vn -0.230164 0.72286 -0.651535
vn 0.230003 0.72303 0.651403
vn 0.229987 0.723 0.651442
vn 0.229922 0.722976 0.651492
vn 0.229979 0.722999 0.651446
vn -0.932316 4.58076e-05 0.361646
vn -0.932316 0.000117395 0.361646
vn -0.932309 0 0.361663
vn -0.932344 7.48808e-05 0.361573
vn -0.932317 0 0.361641
vn 1.97549e-19 -1 -6.13388e-17
vn 7.65143e-20 -1 -6.12497e-17
vn 3.03443e-19 -1 -6.13524e-17
vn 0.332943 -0 0.942947
vn 0.94278 -0.000109653 -0.333415
vn 0.942758 0.00145961 -0.333474
vn 0.942759 0 -0.333473
vn 0.94276 0 -0.333474
vn -5.87731e-20 -1 -6.11828e-17
vn 0 1 6.12214e-17
vn -0.333882 0 -0.942615
vn -0.333882 0 -0.942615
vn -3.37064e-24 -1 -6.12323e-17
vn 0.0480916 0.98952 0.136154
vn 0.0483373 0.989443 0.136627
vn 0.0480663 0.989548 0.135961
vn 0.0480548 0.989541 0.13601
vn -0.05805 0.989566 -0.131866
vn -0.0484016 0.989486 -0.136292
vn -0.0480655 0.989537 -0.13604
vn 0.121312 0.991493 -0.0471766
vn 0.121526 0.991472 -0.0470639
vn 0.1214 0.991485 -0.0471019
vn -0.1214 0.991485 0.0471019
vn -0.121884 0.991389 0.0478763
vn -0.121458 0.99148 0.0470579
vn -0.93246 0 0.361272
vn -0.932291 -0.000388727 0.361709
vn -0.932443 0 0.361317
vn 2.63065e-19 1 6.11308e-17
vn 0.333049 -0 0.942909
vn 0.93237 0 -0.361506
vn 0.932331 -1.35231e-05 -0.361607
vn 0.932302 -4.73156e-05 -0.36168
vn 0.93228 -9.51024e-05 -0.361738
vn 0.932317 0 -0.361641
vn -1.60669e-19 1 6.12952e-17
vn -8.39171e-20 1 6.12595e-17
vn 2.34101e-19 1 6.11588e-17
vn 0.932005 0 -0.362445
vn -0.337632 0 -0.941278
vn -0.337632 -0 -0.941278
vn -0.333005 0 -0.942925
vn -0.333097 -1.50754e-05 -0.942893
vn -0.333093 -1.33169e-05 -0.942894
vn -0.332607 0.000421402 -0.943066
vn -0.333005 3.59765e-05 -0.942925
vn -0.33305 -0 -0.942909
vn -8.49234e-23 -1 -6.12323e-17
vn 3.15641e-24 -1 -6.12323e-17
vn -2.90254e-19 -1 -6.11348e-17

# Mesh 'defaultobject' with 130 faces
g defaultobject
usemtl DefaultMaterial
f  1//1 2//1 3//1
f  2//2 1//2 4//2
f  4//3 1//3 5//3
f  5//4 1//4 6//4
f  7//5 8//5 9//5
f  8//6 7//6 5//6
f  5//7 7//7 10//7
f  5//8 10//8 11//8
f  11//9 4//9 5//9
f  4//10 11//10 12//10
f  4//11 12//11 13//11
f  13//12 2//12 4//12
f  2//13 13//13 12//13
f  2//14 12//14 14//14
f  2//15 14//15 3//15
f  3//16 14//14 15//16
f  3//17 15//17 16//17
f  15//18 14//18 17//18
f  15//19 17//19 18//19
f  10//20 19//20 11//20
f  19//20 10//20 20//21
f  16//22 1//22 3//22
f  1//23 16//23 6//23
f  6//24 16//24 21//24
f  21//25 16//25 22//25
f  21//26 5//26 6//26
f  5//27 21//27 8//27
f  8//28 21//28 9//28
f  9//29 21//29 23//29
f  9//30 23//30 24//30
f  23//31 21//25 25//31
f  24//32 7//32 9//32
f  7//32 24//32 26//33
f  7//34 20//34 10//34
f  20//34 7//34 26//35
f  19//36 12//36 11//36
f  12//36 19//36 14//37
f  15//38 22//38 16//38
f  22//38 15//38 21//39
f  21//39 15//38 25//40
f  25//40 15//38 18//41
f  25//40 18//41 17//42
f  25//40 17//42 23//43
f  23//43 17//42 14//44
f  23//43 14//44 19//45
f  23//43 19//45 20//46
f  23//43 20//46 24//47
f  24//47 20//46 26//48
f  27//49 28//49 29//49
f  28//50 27//50 30//50
f  30//51 27//51 31//51
f  32//52 33//52 34//52
f  33//53 32//53 28//53
f  28//54 32//54 35//54
f  28//53 35//55 29//55
f  30//56 33//56 28//56
f  33//57 30//57 31//57
f  33//58 31//58 36//58
f  33//59 36//59 34//59
f  34//60 36//60 37//60
f  37//61 36//61 38//61
f  37//61 38//61 39//62
f  37//61 39//62 40//63
f  37//64 32//64 34//64
f  32//64 37//64 41//64
f  35//65 27//65 29//65
f  27//66 35//66 32//66
f  27//67 32//67 41//67
f  27//67 41//67 42//68
f  42//69 41//69 43//69
f  42//70 43//70 44//70
f  27//71 36//71 31//71
f  36//71 27//71 42//72
f  37//61 43//69 41//69
f  43//69 37//61 40//63
f  43//69 40//63 44//73
f  44//73 40//63 39//62
f  44//73 39//62 42//69
f  42//69 39//62 38//61
f  42//69 38//61 36//61
f  33//74 45//74 46//74
f  45//75 33//75 47//75
f  47//76 33//76 48//76
f  48//77 33//77 49//77
f  50//78 30//78 51//78
f  30//79 50//79 48//79
f  30//80 48//80 49//80
f  52//81 48//81 50//81
f  48//82 52//82 2//82
f  48//83 2//83 53//83
f  13//84 48//84 53//84
f  48//85 13//85 54//85
f  48//86 54//86 47//86
f  14//87 47//87 54//87
f  47//88 14//88 45//88
f  45//89 14//89 55//89
f  55//90 14//18 56//90
f  55//91 46//91 45//91
f  46//91 55//91 37//91
f  37//92 33//92 46//92
f  33//93 37//93 49//93
f  49//94 37//94 30//94
f  30//95 37//95 51//95
f  51//96 37//96 36//96
f  36//97 37//97 40//97
f  36//97 40//97 39//98
f  36//97 39//98 38//99
f  57//100 52//100 50//100
f  52//100 57//100 16//100
f  36//101 50//101 51//101
f  50//101 36//101 57//102
f  16//103 2//103 52//103
f  2//104 16//104 53//104
f  53//104 16//104 13//105
f  13//106 16//106 54//106
f  54//107 16//107 15//107
f  54//108 15//108 14//108
f  14//44 15//38 18//41
f  14//44 18//41 17//42
f  38//61 57//109 36//61
f  57//109 15//38 16//38
f  15//38 57//109 38//61
f  15//38 38//61 39//62
f  15//38 39//62 18//41
f  18//41 39//62 40//63
f  18//41 40//63 17//42
f  17//42 40//63 37//61
f  17//42 37//61 55//110
f  17//42 55//110 14//44
f  14//44 55//110 56//111

