# {"id":"ID_171","idOriginal":"ID_171","origin":[14.312001975734526,48.317134583042645],"elevation":254.344,"wof":[{"Id":102049853,"Name":"Linz","Placetype":"county","Offset":-1},{"Id":85632785,"Name":"Austria","Placetype":"country","Offset":-1},{"Id":101748071,"Name":"Linz","Placetype":"locality","Offset":-1},{"Id":85681677,"Name":"Oberösterreich","Placetype":"region","Offset":-1},{"Id":85898449,"Name":"Steeg","Placetype":"neighbourhood","Offset":-1}]}

# Attribution: City of Linz <http://geo.data.linz.gv.at/katalog/geodata/3d_geo_daten_lod2/>
# Longitude: 14.312001975734526
# Latitude: 48.317134583042645
# Elevation: 254.344

# File produced by Open Asset Import Library (http://www.assimp.sf.net)
# (assimp v3.1.0)


# 114 vertex positions
v  43.774 8.857 10.634
v  42.162 7.993 7.297
v  41.16 8.001 8.844
v  75.419 8.856 -36.271
v  70.395 8.009 -34.736
v  71.345 8.008 -36.151
v  72.666 8.008 -38.111
v  72.458 7.944 -38.251
v  71.26 7.982 -36.21
v  71.138 7.942 -36.295
v  72.458 2.3422e-15 -38.251
v  71.138 2.22243e-15 -36.295
v  71.345 2.21361e-15 -36.151
v  70.395 2.12697e-15 -34.736
v  42.162 -4.46812e-16 7.297
v  41.16 -5.41539e-16 8.844
v  71.26 2.21722e-15 -36.21
v  43.774 -6.51145e-16 10.634
v  75.419 2.22096e-15 -36.271
v  72.666 2.33363e-15 -38.111
v  30.799 8.879 29.865
v  28.225 7.96 27.962
v  28.145 7.966 28.116
v  32.199 7.954 22.013
v  34.871 8.883 23.829
v  33.67 7.954 19.81
v  36.392 8.882 21.576
v  30.799 -1.8287e-15 29.865
v  36.392 -1.32115e-15 21.576
v  34.871 -1.45911e-15 23.829
v  33.67 -1.21301e-15 19.81
v  28.225 -1.71218e-15 27.962
v  32.199 -1.34791e-15 22.013
v  28.145 -1.72161e-15 28.116
v  43.774 8.839 10.634
v  81.803 10.395 -32.003
v  75.419 8.839 -36.271
v  50.101 10.395 14.986
v  43.925 8.876 10.738
v  42.74 10.395 25.896
v  43.875 8.876 10.813
v  36.583 8.885 21.7
v  41.222 10.395 28.147
v  36.392 8.839 21.576
v  34.871 8.839 23.829
v  37.211 10.395 34.091
v  30.799 8.839 29.865
v  56.396 8.859 19.206
v  88.104 8.859 -27.791
v  49.008 8.859 30.157
v  47.489 8.859 32.408
v  43.593 8.859 38.183
v  43.125 8.96 37.989
v  81.803 1.95962e-15 -32.003
v  88.104 1.70171e-15 -27.791
v  36.583 -1.32874e-15 21.7
v  43.925 -6.57513e-16 10.738
v  43.875 -6.62105e-16 10.813
v  37.211 -2.08747e-15 34.091
v  43.125 -2.32616e-15 37.989
v  43.593 -2.33803e-15 38.183
v  47.489 -1.98442e-15 32.408
v  49.008 -1.84658e-15 30.157
v  56.396 -1.17603e-15 19.206
v  69.004 7.926 -40.569
v  71.138 7.926 -36.295
v  72.458 7.926 -38.251
v  67.726 7.926 -38.674
v  67.726 2.3681e-15 -38.674
v  69.004 2.48413e-15 -40.569
v  40.313 8.817 -59.827
v  22.942 11.801 -3.219
v  54.617 11.801 -50.226
v  39.864 8.821 -59.12
v  8.637 8.818 -12.809
v  15.708 11.801 7.517
v  1.462 8.818 -2.169
v  0 8.817 5.39886e-16
v  14.246 11.801 9.686
v  27.478 9.03 18.682
v  29.828 8.825 17.317
v  28.676 9.062 16.57
v  28.393 8.827 19.425
v  27.423 9.03 18.765
v  27.775 8.828 20.332
v  26.831 9.028 19.66
v  69.004 8.8 -40.569
v  67.726 8.8 -38.674
v  67.642 8.818 -38.733
v  38.703 8.816 4.23
v  36.165 9.066 5.423
v  37.348 8.817 6.233
v  36.062 9.065 5.576
v  28.785 9.062 16.408
v  54.617 3.07546e-15 -50.226
v  40.313 3.66335e-15 -59.827
v  28.676 -1.01462e-15 16.57
v  29.828 -1.06036e-15 17.317
v  39.864 3.62006e-15 -59.12
v  8.637 7.84325e-16 -12.809
v  1.462 1.32813e-16 -2.169
v  0 0 0
v  27.478 -1.14394e-15 18.682
v  26.831 -1.20383e-15 19.66
v  27.423 -1.14902e-15 18.765
v  14.246 -5.93096e-16 9.686
v  27.775 -1.24498e-15 20.332
v  36.165 -3.32063e-16 5.423
v  37.348 -3.81661e-16 6.233
v  67.642 2.37171e-15 -38.733
v  28.393 -1.18944e-15 19.425
v  28.785 -1.0047e-15 16.408
v  36.062 -3.41432e-16 5.576
v  38.703 -2.59013e-16 4.23

# 0 UV coordinates

# 192 vertex normals
vn -0.21663 0.96538 -0.145305
vn -0.215904 0.965486 -0.145683
vn -0.205397 0.968958 -0.137593
vn -0.205726 0.968716 -0.138805
vn -0.205726 0.968737 -0.138655
vn -0.205095 0.968932 -0.138229
vn -0.215821 0.965658 -0.144658
vn -0.201883 0.969843 -0.136555
vn -0.828908 0 -0.559385
vn -0.828908 -0 -0.559385
vn -0.830239 0 -0.557407
vn -0.830122 -0 -0.557582
vn -0.839323 -0 -0.543633
vn -0.570206 0 0.821501
vn -0.571641 -2.26513e-05 0.820504
vn -0.571056 0 0.820911
vn -1.36828e-18 1 6.31977e-17
vn -0.565001 0 0.82509
vn -0.565001 0 0.82509
vn 0.828979 -0 0.55928
vn 0.828979 0 0.55928
vn 0.555676 0 -0.831399
vn 0.558117 0.00121532 -0.829762
vn 0.555866 0 -0.831272
vn -6.00976e-20 -1 -6.11413e-17
vn -2.36266e-24 -1 -6.12323e-17
vn -1.73896e-21 -1 -6.12323e-17
vn 5.8038e-23 -1 -6.12323e-17
vn -9.22227e-24 -1 -6.12325e-17
vn 9.61519e-23 -1 -6.12289e-17
vn -9.61422e-24 -1 -6.12361e-17
vn -0.227928 0.961124 -0.155851
vn -0.229221 0.9611 -0.154092
vn -0.229395 0.961054 -0.154117
vn -0.229836 0.961053 -0.153467
vn -0.227748 0.961436 -0.15418
vn 0.828995 -0 0.559256
vn 0.82881 0.00027077 0.55953
vn 0.828945 0 0.55933
vn 8.09436e-20 -1 -6.11772e-17
vn 0.544273 0 -0.838908
vn -0.831644 0 -0.555309
vn -0.831534 6.62504e-05 -0.555474
vn -0.831564 -0 -0.55543
vn 5.61854e-20 -1 -6.11859e-17
vn -0.887405 0 -0.460991
vn -0.887405 0 -0.460991
vn -0.550264 0 0.834991
vn -0.550264 0 0.834991
vn -1.41725e-22 -1 -6.12322e-17
vn -0.164626 0.980083 -0.111067
vn -0.164631 0.980081 -0.111072
vn -0.164644 0.980078 -0.111086
vn -0.166831 0.979693 -0.111218
vn -0.164653 0.980075 -0.111093
vn -0.164679 0.980075 -0.111054
vn -0.163314 0.980189 -0.112064
vn -0.16458 0.980086 -0.111108
vn -0.164603 0.980086 -0.111074
vn -0.164635 0.980081 -0.111066
vn 0.164655 0.980076 0.111089
vn 0.164666 0.980073 0.111095
vn 0.164668 0.980073 0.111092
vn 0.164652 0.980076 0.111091
vn 0.164644 0.980076 0.111103
vn 0.164695 0.980071 0.111065
vn 0.164675 0.980072 0.111095
vn 0.164645 0.980076 0.111102
vn 0.166943 0.980086 0.107522
vn 0.555782 0 -0.831328
vn 0.555741 3.5881e-05 -0.831355
vn 0.555782 -4.77743e-05 -0.831328
vn 0.555735 0 -0.831359
vn 0.544523 0 -0.838746
vn -0.828979 0 -0.55928
vn -0.832054 0 -0.554695
vn -0.830851 2.1984e-05 -0.556495
vn -0.830859 -0 -0.556483
vn 3.3141e-19 -1 -6.11451e-17
vn -0.82881 0 -0.55953
vn -0.828995 -0.000101624 -0.559256
vn -0.828945 -0 -0.55933
vn -6.47738e-20 1 6.11789e-17
vn -0.567221 0 0.823566
vn -0.567221 0 0.823566
vn -0.550305 0 0.834964
vn -0.550324 1.64713e-05 0.834951
vn -0.550305 -2.02357e-05 0.834964
vn -0.550327 0 0.834949
vn -0.382934 0 0.923776
vn -0.382934 0 0.923776
vn 0.82899 -0 0.559263
vn 0.828921 9.66862e-05 0.559365
vn 0.82899 -3.76899e-05 0.559263
vn 0.828986 -3.57256e-05 0.559269
vn 0.828921 0.000173789 0.559365
vn 0.828986 0 0.559269
vn 0.828971 0 0.559291
vn 1.4159e-22 -1 -6.12322e-17
vn 1.16428e-23 -1 -6.12323e-17
vn 1.28623e-23 -1 -6.12323e-17
vn 1.26897e-23 -1 -6.12323e-17
vn -2.9376e-24 -1 -6.12323e-17
vn -1.38264e-23 -1 -6.12323e-17
vn 0 1 0
vn -0.571945 0 0.820292
vn 0.828908 -0 0.559385
vn 0.557249 0 -0.830345
vn -0.829077 0 -0.559135
vn 5.3942e-24 -1 -6.12322e-17
vn 1.53121e-23 -1 -6.12323e-17
vn -0.141537 0.985328 -0.0953727
vn -0.141273 0.985373 -0.0952941
vn -0.141533 0.985329 -0.0953705
vn -0.141535 0.985329 -0.0953675
vn -0.141462 0.985337 -0.095394
vn -0.141694 0.985336 -0.0950536
vn -0.141528 0.985327 -0.0953961
vn 0.141501 0.985333 0.0953777
vn 0.141067 0.985422 0.0950953
vn 0.141689 0.985328 0.0951492
vn 0.139114 0.985424 0.0979166
vn 0.142131 0.985357 0.0941833
vn 0.1414 0.985359 0.0952581
vn 0.140875 0.985422 0.0953841
vn 0.141484 0.985331 0.0954177
vn 0.154364 0.984717 0.0806421
vn 0.141518 0.985332 0.09536
vn 0.141534 0.985328 0.0953802
vn 0.141715 0.985338 0.0950018
vn 0.14196 0.985251 0.0955416
vn 0.138605 0.985311 0.0997519
vn 0.141548 0.985327 0.0953658
vn 0.141538 0.985328 0.0953691
vn 0.141601 0.985328 0.0952751
vn 0.557321 0 -0.830297
vn 0.557321 0 -0.830297
vn 0.55731 0 -0.830305
vn 0.544067 0 -0.839042
vn 0.544067 0 -0.839042
vn -0.844152 0 -0.536103
vn -0.844152 0 -0.536103
vn -0.829122 0 -0.559068
vn -0.829122 -0 -0.559068
vn -0.829102 -0 -0.559098
vn -0.829216 -0 -0.558928
vn -0.829216 3.42245e-17 -0.558928
vn -0.833591 0 -0.552382
vn -0.834052 -9.1959e-06 -0.551686
vn -0.834013 -0 -0.551745
vn -3.71312e-20 1 6.11922e-17
vn -0.562259 -5.06368e-17 0.826961
vn -0.562259 0 0.826961
vn -0.562235 0 0.826978
vn -0.562235 0 0.826978
vn -0.579932 0 0.814665
vn -0.579932 0 0.814665
vn -0.564959 0 0.825119
vn -0.564959 0 0.825119
vn -0.574783 0 0.818306
vn -0.574784 0 0.818306
vn 0.826401 -0 0.563082
vn 0.826642 -5.3182e-05 0.562728
vn 0.82657 0 0.562835
vn 1.76858e-19 1 6.13474e-17
vn 0.829679 -0 0.558241
vn 0.830076 -1.53491e-05 0.55765
vn 0.829676 0.00102588 0.558244
vn 0.830076 0 0.55765
vn 0.829538 0 0.55845
vn 0.828278 -0 0.560318
vn 0.829394 -0.000547527 0.558663
vn 0.828221 0.0117229 0.560278
vn 0.829395 0 0.558663
vn 0.829077 -0 0.559135
vn 7.22112e-23 -1 -6.12322e-17
vn 4.33674e-23 -1 -6.12324e-17
vn 1.32709e-23 -1 -6.12323e-17
vn -1.10314e-22 -1 -6.12325e-17
vn 1.35042e-24 -1 -6.12323e-17
vn 2.13702e-22 -1 -6.12328e-17
vn 2.02167e-24 -1 -6.12323e-17
vn 1.17704e-24 -1 -6.12323e-17
vn 0 -1 -6.12323e-17
vn 1.99907e-24 -1 -6.12323e-17
vn -1.21706e-22 -1 -6.12322e-17
vn 2.67663e-24 -1 -6.12323e-17
vn -1.89831e-24 -1 -6.12323e-17
vn -1.76185e-24 -1 -6.12323e-17
vn 5.83683e-23 -1 -6.12324e-17
vn 5.87247e-23 -1 -6.12325e-17
vn 0 -1 -6.12323e-17

# Mesh 'defaultobject' with 224 faces
g defaultobject
usemtl DefaultMaterial
f  1//1 2//1 3//1
f  2//2 1//2 4//2
f  2//3 4//3 5//3
f  5//4 4//4 6//4
f  6//5 4//5 7//5
f  6//6 7//6 8//6
f  9//7 8//7 10//7
f  8//8 9//8 6//8
f  11//9 10//9 8//9
f  10//9 11//9 12//10
f  13//11 5//11 6//11
f  5//11 13//11 14//11
f  5//12 14//12 2//12
f  2//12 14//12 15//12
f  2//13 15//13 3//13
f  3//13 15//13 16//13
f  9//14 13//14 6//14
f  13//15 9//15 10//15
f  13//16 10//16 12//16
f  13//17 12//17 17//17
f  3//18 18//18 1//18
f  18//18 3//18 16//19
f  18//20 4//20 1//20
f  4//20 18//20 19//21
f  19//22 7//22 4//22
f  7//23 19//23 8//23
f  8//24 19//24 11//24
f  11//25 19//25 20//25
f  16//26 19//25 18//26
f  19//25 16//26 15//27
f  19//25 15//27 14//28
f  19//25 14//28 13//29
f  19//25 13//29 17//30
f  19//25 17//30 12//31
f  19//25 12//31 20//25
f  20//25 12//31 11//25
f  21//32 22//32 23//32
f  22//33 21//33 24//33
f  24//34 21//34 25//34
f  24//35 25//35 26//35
f  26//36 25//36 27//36
f  28//37 25//37 21//37
f  25//38 28//38 27//38
f  27//39 28//39 29//39
f  29//40 28//40 30//40
f  29//41 26//41 27//41
f  26//41 29//41 31//41
f  31//42 24//42 26//42
f  24//43 31//43 22//43
f  22//44 31//44 32//44
f  32//45 31//45 33//45
f  22//46 34//46 23//46
f  34//46 22//46 32//47
f  23//48 28//48 21//48
f  28//48 23//48 34//49
f  30//40 31//45 29//40
f  31//45 30//40 33//45
f  33//45 30//40 28//40
f  33//45 28//40 32//45
f  32//45 28//40 34//50
f  35//51 36//51 37//51
f  36//51 35//51 38//52
f  39//53 40//53 38//53
f  40//54 39//54 41//54
f  40//55 41//55 42//55
f  40//56 42//56 43//56
f  43//57 42//57 44//57
f  43//58 44//58 45//58
f  43//59 45//59 46//59
f  46//60 45//60 47//60
f  36//61 48//61 49//61
f  48//62 36//62 38//62
f  48//62 38//62 50//63
f  50//64 38//64 40//64
f  50//65 40//65 51//65
f  51//66 40//66 43//66
f  51//67 43//67 52//67
f  52//68 43//68 46//68
f  52//69 46//69 53//69
f  36//70 19//70 37//70
f  19//71 36//71 49//71
f  19//72 49//72 54//72
f  54//73 49//73 55//73
f  56//74 44//74 42//74
f  44//74 56//74 29//74
f  19//75 35//75 37//75
f  35//75 19//75 18//75
f  57//76 41//76 39//76
f  41//77 57//77 42//77
f  42//78 57//78 56//78
f  56//79 57//79 58//79
f  29//80 45//80 44//80
f  45//81 29//81 47//81
f  47//82 29//82 28//82
f  28//83 29//83 30//83
f  35//84 57//84 39//84
f  57//84 35//84 18//85
f  28//86 46//86 47//86
f  46//87 28//87 53//87
f  53//88 28//88 59//88
f  53//89 59//89 60//89
f  60//90 52//90 53//90
f  52//90 60//90 61//91
f  61//92 51//92 52//92
f  51//93 61//93 50//93
f  50//94 61//94 62//94
f  50//94 62//94 48//95
f  48//96 62//96 63//96
f  48//97 63//97 64//97
f  48//98 64//98 49//98
f  49//98 64//98 55//98
f  29//40 56//79 30//40
f  60//99 62//99 61//99
f  62//99 60//99 59//100
f  62//99 59//100 63//101
f  63//101 59//100 64//102
f  64//102 59//100 28//40
f  64//102 28//40 30//40
f  64//102 30//40 55//103
f  55//103 30//40 56//79
f  55//103 56//79 58//79
f  55//103 58//79 57//79
f  55//103 57//79 18//26
f  55//103 18//26 54//104
f  54//104 18//26 19//25
f  65//105 66//105 67//105
f  66//105 65//105 68//105
f  69//106 66//106 68//106
f  66//106 69//106 12//106
f  12//107 67//107 66//107
f  67//107 12//107 11//107
f  11//108 65//108 67//108
f  65//108 11//108 70//108
f  70//109 68//109 65//109
f  68//109 70//109 69//109
f  69//110 11//25 12//31
f  11//25 69//110 70//111
f  71//112 72//112 73//112
f  72//113 71//113 74//113
f  72//112 74//114 75//114
f  72//112 75//114 76//115
f  76//116 75//116 77//116
f  76//117 77//117 78//117
f  76//118 78//118 79//118
f  80//119 76//119 79//119
f  81//120 82//120 83//120
f  76//121 83//121 82//121
f  80//122 83//122 76//122
f  84//123 83//123 80//123
f  85//124 83//124 84//124
f  86//125 85//125 84//125
f  87//126 73//126 88//126
f  89//127 88//127 73//127
f  72//128 89//128 73//128
f  90//129 89//129 72//129
f  91//130 90//130 72//130
f  92//131 90//131 91//131
f  93//132 91//132 72//132
f  94//133 93//133 72//133
f  76//134 94//134 72//134
f  82//135 94//135 76//135
f  70//136 73//136 87//136
f  73//136 70//136 95//137
f  73//138 95//138 71//138
f  71//138 95//138 96//138
f  81//139 97//139 82//139
f  97//139 81//139 98//140
f  71//141 99//141 74//141
f  99//141 71//141 96//142
f  99//143 75//143 74//143
f  75//143 99//143 100//144
f  75//145 100//145 77//145
f  77//145 100//145 101//145
f  77//146 101//146 78//146
f  78//146 101//146 102//147
f  103//148 84//148 80//148
f  84//149 103//149 86//149
f  86//150 103//150 104//150
f  104//151 103//151 105//151
f  102//152 79//152 78//152
f  79//152 102//152 106//153
f  79//154 106//154 80//154
f  80//154 106//154 103//155
f  104//156 85//156 86//156
f  85//156 104//156 107//157
f  108//158 92//158 91//158
f  92//158 108//158 109//159
f  110//160 88//160 89//160
f  88//160 110//160 69//161
f  107//162 83//162 85//162
f  83//163 107//163 81//163
f  81//164 107//164 98//164
f  98//165 107//165 111//165
f  97//166 94//166 82//166
f  94//167 97//167 93//167
f  93//168 97//168 112//168
f  93//169 112//169 113//169
f  93//170 113//170 91//170
f  91//170 113//170 108//170
f  109//171 90//171 92//171
f  90//172 109//172 89//172
f  89//173 109//173 114//173
f  89//174 114//174 110//174
f  69//175 87//175 88//175
f  87//175 69//175 70//175
f  104//176 111//176 107//176
f  111//176 104//176 105//177
f  111//176 105//177 98//178
f  98//178 105//177 103//179
f  98//178 103//179 106//180
f  98//178 106//180 97//181
f  97//181 106//180 113//182
f  113//182 106//180 102//183
f  113//182 102//183 101//184
f  113//182 101//184 100//185
f  113//182 100//185 108//186
f  108//186 100//185 114//187
f  114//187 100//185 110//188
f  110//188 100//185 99//189
f  110//188 99//189 70//111
f  70//111 99//189 95//190
f  95//190 99//189 96//191
f  70//111 69//110 110//188
f  114//187 109//192 108//186

