# {"id":"ID_5179","idOriginal":"ID_5179","origin":[14.336947444346526,48.27292139288084],"elevation":250.973,"wof":[{"Id":102049853,"Name":"Linz","Placetype":"county","Offset":-1},{"Id":85632785,"Name":"Austria","Placetype":"country","Offset":-1},{"Id":101748071,"Name":"Linz","Placetype":"locality","Offset":-1},{"Id":85681677,"Name":"Oberösterreich","Placetype":"region","Offset":-1}]}

# Attribution: City of Linz <http://geo.data.linz.gv.at/katalog/geodata/3d_geo_daten_lod2/>
# Longitude: 14.336947444346526
# Latitude: 48.27292139288084
# Elevation: 250.973

# File produced by Open Asset Import Library (http://www.assimp.sf.net)
# (assimp v3.1.0)


# 47 vertex positions
v  0.768 2.482 3.56
v  16.972 2.482 50.534
v  6.746 2.482 2.291
v  11.125 2.482 51.57
v  0.768 -2.17987e-16 3.56
v  11.125 -3.15775e-15 51.57
v  16.972 -3.09432e-15 50.534
v  6.746 -1.40283e-16 2.291
v  0.941 2.482 3.523
v  0.941 -2.15722e-16 3.523
v  11.044 2.482 -4.571
v  12.292 2.482 1.176
v  11.073 2.482 -4.576
v  12.251 2.482 1.126
v  8.371 2.482 1.948
v  12.292 -7.20092e-17 1.176
v  11.073 2.80199e-16 -4.576
v  11.044 2.79893e-16 -4.571
v  8.371 -1.19281e-16 1.948
v  12.251 -6.89476e-17 1.126
v  0.768 5.881 3.56
v  0.185 5.881 -0.041
v  0 5.881 3.60107e-16
v  7.615 5.881 -1.614
v  0.941 5.881 3.523
v  6.746 5.881 2.291
v  8.371 5.881 1.948
v  7.615 9.8829e-17 -1.614
v  0.185 2.51053e-18 -0.041
v  0 0 0
v  0.185 2.482 -0.041
v  7.615 2.482 -1.614
v  7.603 2.482 -1.674
v  7.603 1.02503e-16 -1.674
v  9.103 6.25 -4.236
v  12.251 6.25 1.126
v  11.044 6.25 -4.571
v  7.353 6.25 -3.934
v  7.364 6.25 -3.868
v  7.735 6.25 -1.703
v  7.603 6.25 -1.674
v  7.615 6.25 -1.614
v  8.371 6.25 1.948
v  7.735 1.04279e-16 -1.703
v  7.364 2.36847e-16 -3.868
v  7.353 2.40888e-16 -3.934
v  9.103 2.5938e-16 -4.236

# 0 UV coordinates

# 50 vertex normals
vn -0 1 0
vn -0.977513 0 0.210875
vn 0.174467 -0 0.984663
vn 0.978264 0 -0.207361
vn -0.209143 0 -0.977885
vn -0.207607 -0.000111934 -0.978212
vn -0.209141 0.00375465 -0.977878
vn -0.207607 0 -0.978212
vn 0 -1 -6.12323e-17
vn -5.7883e-24 -1 -6.12323e-17
vn 0.197102 -0 0.980383
vn 0.978273 0 -0.207322
vn -0.169909 0 -0.98546
vn -0.206526 0 -0.978441
vn -0.207256 0 -0.978287
vn -0.978285 0 0.207265
vn 9.08186e-25 -1 -6.12323e-17
vn 2.41513e-22 -1 -6.12324e-17
vn 0.209143 -0 0.977885
vn 0.207607 4.72402e-05 0.978212
vn 0.206526 0.00119505 0.97844
vn 0.207411 0 0.978254
vn -5.43587e-21 -1 -6.12732e-17
vn 0.97821 0 -0.207616
vn -0.207119 0 -0.978316
vn -0.216372 -0 -0.976311
vn -0.216372 5.97818e-17 -0.976311
vn -0.977512 -1.29126e-17 0.210879
vn -1.9143e-24 -1 -6.12323e-17
vn -0.214992 0 -0.976616
vn 0.207119 -0 0.978316
vn 0.980582 0 -0.19611
vn -5.69641e-23 -1 -6.12326e-17
vn -0.985633 0 0.168901
vn -0.986393 -0.00160617 0.164394
vn -0.985633 4.89263e-05 0.168901
vn -0.986395 0 0.164394
vn -0.980582 0 0.19611
vn -0.97821 -0.000115007 0.207616
vn -0.978251 0 0.207426
vn -2.02263e-20 1 6.12352e-17
vn -0.21458 0 -0.976707
vn -0.170077 0 -0.985431
vn -0.170058 6.11128e-06 -0.985434
vn -0.170068 -0 -0.985432
vn 1.95462e-19 -1 -6.02022e-17
vn 0.207256 -0 0.978287
vn 0.978285 0 -0.207265
vn 7.14045e-23 -1 -6.12325e-17
vn -4.82555e-24 -1 -6.12323e-17

# Mesh 'defaultobject' with 98 faces
g defaultobject
usemtl DefaultMaterial
f  1//1 2//1 3//1
f  2//1 1//1 4//1
f  5//2 4//2 1//2
f  4//2 5//2 6//2
f  6//3 2//3 4//3
f  2//3 6//3 7//3
f  7//4 3//4 2//4
f  3//4 7//4 8//4
f  9//5 5//5 1//5
f  5//6 9//6 3//6
f  5//7 3//7 10//7
f  10//8 3//8 8//8
f  8//9 6//9 5//9
f  6//9 8//9 7//10
f  11//1 12//1 13//1
f  12//1 11//1 14//1
f  12//1 14//1 15//1
f  12//1 15//1 3//1
f  8//11 12//11 3//11
f  12//11 8//11 16//11
f  16//12 13//12 12//12
f  13//12 16//12 17//12
f  17//13 11//13 13//13
f  11//13 17//13 18//13
f  15//14 8//14 3//14
f  8//14 15//14 19//14
f  19//15 15//15 14//15
f  19//15 14//15 20//15
f  18//16 14//16 11//16
f  14//16 18//16 20//16
f  16//17 19//17 20//17
f  19//17 16//17 8//9
f  20//17 17//9 16//17
f  17//9 20//17 18//18
f  21//1 22//1 23//1
f  22//1 21//1 24//1
f  24//1 21//1 25//1
f  24//1 25//1 26//1
f  24//1 26//1 27//1
f  5//19 25//19 21//19
f  25//20 5//20 26//20
f  26//21 5//21 27//21
f  27//22 5//22 19//22
f  19//17 5//9 10//23
f  19//17 10//23 8//9
f  19//24 24//24 27//24
f  24//24 19//24 28//24
f  28//25 22//25 24//25
f  22//25 28//25 29//25
f  22//26 29//26 23//26
f  23//26 29//26 30//27
f  30//28 21//28 23//28
f  21//28 30//28 5//2
f  19//17 29//29 28//29
f  29//29 19//17 8//9
f  29//29 8//9 10//23
f  29//29 10//23 30//9
f  30//9 10//23 5//9
f  31//1 32//1 33//1
f  34//30 31//30 33//30
f  31//30 34//30 29//30
f  29//31 32//31 31//31
f  32//31 29//31 28//31
f  28//32 33//32 32//32
f  33//32 28//32 34//32
f  29//29 34//33 28//29
f  35//1 36//1 37//1
f  36//1 35//1 38//1
f  36//1 38//1 39//1
f  36//1 39//1 40//1
f  36//1 40//1 41//1
f  36//1 41//1 42//1
f  36//1 42//1 43//1
f  39//34 44//34 40//34
f  44//35 39//35 38//35
f  44//36 38//36 45//36
f  45//37 38//37 46//37
f  34//38 42//38 41//38
f  42//39 34//39 43//39
f  43//40 34//40 19//40
f  19//41 34//41 28//41
f  44//42 41//42 40//42
f  41//42 44//42 34//42
f  18//43 35//43 37//43
f  35//44 18//44 38//44
f  38//45 18//43 46//45
f  46//46 18//18 47//46
f  19//47 36//47 43//47
f  36//47 19//47 20//47
f  20//48 37//48 36//48
f  37//48 20//48 18//48
f  28//29 20//17 19//17
f  20//17 28//29 44//49
f  20//17 44//49 18//18
f  44//49 28//29 34//33
f  18//18 44//49 45//50
f  18//18 45//50 47//46
f  47//46 45//50 46//46

