# {"id":"ID_46337","idOriginal":"ID_46337","origin":[14.290232342253436,48.333486291685404],"elevation":271.22}
# Longitude: 14.290232342253436
# Latitude: 48.333486291685404
# Elevation: 271.22

# File produced by Open Asset Import Library (http://www.assimp.sf.net)
# (assimp v3.1.0)

mtllib ID_46337.obj.mtl

# 58 vertex positions
v  0.571 5.29 0.256
v  0.905 5.29 -1.417
v  0 5.29 3.23919e-16
v  1.802 5.29 -1.1
v  1.22 5.29 0.497
v  2.014 5.29 0.703
v  2.555 5.29 -0.922
v  2.856 5.29 0.867
v  3.191 5.29 -0.836
v  3.819 5.29 -0.82
v  2.863 5.29 1.031
v  3.809 5.29 1.069
v  4.423 5.29 -0.85
v  5.658 5.29 0.88
v  5.142 5.29 -0.958
v  5.721 5.29 -1.094
v  6.369 5.29 -1.314
v  7.44 5.29 0.304
v  6.976 5.29 -1.592
v  7.661 5.29 -1.995
v  8.174 5.29 -2.369
v  8.168 5.29 -0.301
v  8.244 5.29 -0.147
v  8.575 5.29 -2.723
v  8.998 5.29 -3.168
v  8.755 5.29 -0.666
v  10.441 5.29 -2.239
v  9.282 5.29 -1.071
v  9.846 5.29 -1.586
v  9.846 9.71145e-17 -1.586
v  10.441 1.37099e-16 -2.239
v  7.44 -1.86146e-17 0.304
v  8.244 9.00115e-18 -0.147
v  9.282 6.55798e-17 -1.071
v  8.168 1.84309e-17 -0.301
v  8.755 4.07807e-17 -0.666
v  8.998 1.93984e-16 -3.168
v  8.575 1.66736e-16 -2.723
v  8.174 1.45059e-16 -2.369
v  7.661 1.22159e-16 -1.995
v  6.976 9.74819e-17 -1.592
v  6.369 8.04593e-17 -1.314
v  0.905 8.67662e-17 -1.417
v  0 0 0
v  5.721 6.69882e-17 -1.094
v  5.142 5.86606e-17 -0.958
v  4.423 5.20475e-17 -0.85
v  3.819 5.02105e-17 -0.82
v  3.191 5.11902e-17 -0.836
v  2.555 5.64562e-17 -0.922
v  1.802 6.73556e-17 -1.1
v  0.571 -1.56755e-17 0.256
v  1.22 -3.04325e-17 0.497
v  2.014 -4.30463e-17 0.703
v  2.856 -5.30884e-17 0.867
v  2.863 -6.31305e-17 1.031
v  3.809 -6.54574e-17 1.069
v  5.658 -5.38845e-17 0.88

# 0 UV coordinates

# 54 vertex normals
vn 0 1 0
vn 0.739171 -0 0.673518
vn 0.489231 -0 0.872154
vn 0.6743 -0 0.738457
vn 0.528047 -0 0.849215
vn 0.609348 -0 0.792903
vn 0.541317 0 -0.840819
vn 0.896744 0 -0.44255
vn -0.724796 0 -0.688964
vn -0.661807 0 -0.749674
vn -0.589108 0 -0.808054
vn -0.507075 0 -0.861902
vn -0.416397 0 -0.909183
vn -0.842779 0 -0.53826
vn -0.842779 3.29589e-17 -0.53826
vn -0.321484 0 -0.946915
vn -0.228664 0 -0.973505
vn -0.148542 0 -0.988906
vn -0.0496078 0 -0.998769
vn 0.0254695 0 -0.999676
vn 0.134001 0 -0.990981
vn 0.230048 0 -0.973179
vn 0.333205 0 -0.942854
vn -0.409102 -5.58738e-17 0.912489
vn -0.409102 0 0.912489
vn -0.348114 0 0.937452
vn -0.251131 0 0.967953
vn -0.191182 0 0.981555
vn -0.0401367 0 0.999194
vn 0.101688 -0 0.994816
vn 0.307564 -0 0.951527
vn -0.99909 0 0.0426439
vn 0 -1 -6.12323e-17
vn 1.4185e-24 -1 -6.12323e-17
vn -5.68577e-24 -1 -6.12323e-17
vn 1.70763e-23 -1 -6.12324e-17
vn -2.23056e-24 -1 -6.12323e-17
vn -2.04631e-23 -1 -6.12323e-17
vn 3.12545e-23 -1 -6.12323e-17
vn -5.46117e-24 -1 -6.12323e-17
vn -7.44724e-23 -1 -6.12323e-17
vn 2.8599e-24 -1 -6.12323e-17
vn 1.30597e-23 -1 -6.12323e-17
vn 0 -1 -6.12323e-17
vn -1.32788e-23 -1 -6.12323e-17
vn 1.33521e-24 -1 -6.12323e-17
vn -1.1155e-23 -1 -6.12323e-17
vn 1.22322e-23 -1 -6.12323e-17
vn -9.60964e-24 -1 -6.12323e-17
vn 1.85231e-24 -1 -6.12323e-17
vn 6.34325e-24 -1 -6.12324e-17
vn 0 -1 -6.12324e-17
vn -2.06817e-23 -1 -6.12323e-17
vn 5.72559e-24 -1 -6.12323e-17

# Mesh 'defaultobject' with 112 faces
g defaultobject
usemtl DefaultMaterial
f  1//1 2//1 3//1
f  2//1 1//1 4//1
f  4//1 1//1 5//1
f  4//1 5//1 6//1
f  4//1 6//1 7//1
f  7//1 6//1 8//1
f  7//1 8//1 9//1
f  9//1 8//1 10//1
f  10//1 8//1 11//1
f  10//1 11//1 12//1
f  10//1 12//1 13//1
f  13//1 12//1 14//1
f  13//1 14//1 15//1
f  15//1 14//1 16//1
f  16//1 14//1 17//1
f  17//1 14//1 18//1
f  17//1 18//1 19//1
f  19//1 18//1 20//1
f  20//1 18//1 21//1
f  21//1 18//1 22//1
f  22//1 18//1 23//1
f  21//1 22//1 24//1
f  22//1 25//1 24//1
f  25//1 22//1 26//1
f  25//1 26//1 27//1
f  27//1 26//1 28//1
f  27//1 28//1 29//1
f  30//2 27//2 29//2
f  27//2 30//2 31//2
f  32//3 23//3 18//3
f  23//3 32//3 33//3
f  34//4 29//4 28//4
f  29//4 34//4 30//4
f  35//5 26//5 22//5
f  26//5 35//5 36//5
f  36//6 28//6 26//6
f  28//6 36//6 34//6
f  31//7 25//7 27//7
f  25//7 31//7 37//7
f  33//8 22//8 23//8
f  22//8 33//8 35//8
f  37//9 24//9 25//9
f  24//9 37//9 38//9
f  38//10 21//10 24//10
f  21//10 38//10 39//10
f  39//11 20//11 21//11
f  20//11 39//11 40//11
f  40//12 19//12 20//12
f  19//12 40//12 41//12
f  41//13 17//13 19//13
f  17//13 41//13 42//13
f  43//14 3//14 2//14
f  3//14 43//14 44//15
f  42//16 16//16 17//16
f  16//16 42//16 45//16
f  45//17 15//17 16//17
f  15//17 45//17 46//17
f  46//18 13//18 15//18
f  13//18 46//18 47//18
f  47//19 10//19 13//19
f  10//19 47//19 48//19
f  48//20 9//20 10//20
f  9//20 48//20 49//20
f  49//21 7//21 9//21
f  7//21 49//21 50//21
f  50//22 4//22 7//22
f  4//22 50//22 51//22
f  51//23 2//23 4//23
f  2//23 51//23 43//23
f  44//24 1//24 3//24
f  1//24 44//24 52//25
f  53//26 1//26 52//26
f  53//26 5//26 1//26
f  53//27 6//27 5//27
f  6//27 53//27 54//27
f  54//28 8//28 6//28
f  8//28 54//28 55//28
f  56//29 12//29 11//29
f  12//29 56//29 57//29
f  57//30 14//30 12//30
f  14//30 57//30 58//30
f  58//31 18//31 14//31
f  18//31 58//31 32//31
f  55//32 11//32 8//32
f  11//32 55//32 56//32
f  43//33 52//33 44//33
f  52//33 43//33 53//34
f  53//34 43//33 54//35
f  54//35 43//33 51//36
f  54//35 51//36 55//37
f  55//37 51//36 50//38
f  39//39 35//39 40//39
f  35//39 39//39 36//40
f  36//40 39//39 38//41
f  36//40 38//41 34//42
f  34//42 38//41 37//43
f  34//42 37//43 30//44
f  30//44 37//43 31//45
f  55//37 57//46 56//46
f  57//46 55//37 50//38
f  57//46 50//38 49//44
f  57//46 49//44 48//47
f  57//46 48//47 58//33
f  58//33 48//47 47//48
f  58//33 47//48 46//49
f  58//33 46//49 32//50
f  32//50 46//49 45//51
f  32//50 45//51 42//52
f  32//50 42//52 41//53
f  32//50 41//53 33//54
f  33//54 41//53 35//39
f  35//39 41//53 40//39

