# {"id":"ID_52770","idOriginal":"ID_52770","origin":[14.334767454160223,48.24336442502939],"elevation":277.962,"wof":[{"Id":102049853,"Name":"Linz","Placetype":"county","Offset":-1},{"Id":85681677,"Name":"Oberösterreich","Placetype":"region","Offset":-1},{"Id":85898451,"Name":"Ufer","Placetype":"neighbourhood","Offset":-1},{"Id":85632785,"Name":"Austria","Placetype":"country","Offset":-1},{"Id":101748071,"Name":"Linz","Placetype":"locality","Offset":-1}]}

# Attribution: City of Linz <http://geo.data.linz.gv.at/katalog/geodata/3d_geo_daten_lod2/>
# Longitude: 14.334767454160223
# Latitude: 48.24336442502939
# Elevation: 277.962

# File produced by Open Asset Import Library (http://www.assimp.sf.net)
# (assimp v3.1.0)


# 8 vertex positions
v  0 10.301 6.30754e-16
v  4.036 10.301 2.073
v  3.416 10.301 -0.751
v  0.62 10.301 2.824
v  3.416 4.59855e-17 -0.751
v  0 0 0
v  0.62 -1.7292e-16 2.824
v  4.036 -1.26935e-16 2.073

# 0 UV coordinates

# 9 vertex normals
vn -0 1 0
vn -0.21472 0 -0.976676
vn -0.21472 5.98041e-17 -0.976676
vn -0.976737 -1.31306e-17 0.21444
vn -0.976737 0 0.21444
vn 0.21472 -0 0.976676
vn 0.976737 0 -0.214439
vn 0 -1 -6.12323e-17
vn 0 -1 -6.12323e-17

# Mesh 'defaultobject' with 12 faces
g defaultobject
usemtl DefaultMaterial
f  1//1 2//1 3//1
f  2//1 1//1 4//1
f  5//2 1//2 3//2
f  1//2 5//2 6//3
f  6//4 4//4 1//4
f  4//4 6//4 7//5
f  7//6 2//6 4//6
f  2//6 7//6 8//6
f  8//7 3//7 2//7
f  3//7 8//7 5//7
f  8//8 6//8 5//8
f  6//8 8//8 7//9

