# {"id":"ID_1698","idOriginal":"ID_1698","origin":[14.287958005908097,48.25602019481391],"elevation":265.31,"wof":[{"Id":101748071,"Name":"Linz","Placetype":"locality","Offset":-1},{"Id":85681677,"Name":"Oberösterreich","Placetype":"region","Offset":-1},{"Id":85898447,"Name":"Scharlinz","Placetype":"neighbourhood","Offset":-1},{"Id":102049853,"Name":"Linz","Placetype":"county","Offset":-1},{"Id":85632785,"Name":"Austria","Placetype":"country","Offset":-1}]}

# Attribution: City of Linz <http://geo.data.linz.gv.at/katalog/geodata/3d_geo_daten_lod2/>
# Longitude: 14.287958005908097
# Latitude: 48.25602019481391
# Elevation: 265.31

# File produced by Open Asset Import Library (http://www.assimp.sf.net)
# (assimp v3.1.0)


# 166 vertex positions
v  27.793 6.877 -19.498
v  30.9 4.077 -15.281
v  31.211 4.077 -15.55
v  27.486 4.088 -12.327
v  27.3 7.28 -20.067
v  25.101 7.28 -18.162
v  22.901 7.28 -16.257
v  27.169 4.088 -12.053
v  23.17 7.073 -15.992
v  26.808 6.877 -20.636
v  23.199 4.033 -24.531
v  22.895 3.786 -24.876
v  23.333 4.031 -24.651
v  20.331 7.28 -23.249
v  22.606 3.77 -25.206
v  18.162 3.68 -21.066
v  17.99 3.669 -21.235
v  22.632 7.073 -16.522
v  18.661 4.054 -20.574
v  18.584 4.053 -20.509
v  27.169 7.38033e-16 -12.053
v  31.211 9.52163e-16 -15.55
v  27.486 7.54811e-16 -12.327
v  30.9 9.35691e-16 -15.281
v  27.793 1.19391e-15 -19.498
v  27.3 1.22875e-15 -20.067
v  26.808 1.26359e-15 -20.636
v  23.333 1.50944e-15 -24.651
v  23.199 1.50209e-15 -24.531
v  22.606 1.54342e-15 -25.206
v  22.895 1.52322e-15 -24.876
v  20.331 1.42359e-15 -23.249
v  17.99 1.30027e-15 -21.235
v  18.661 1.25979e-15 -20.574
v  18.584 1.25581e-15 -20.509
v  18.162 1.28992e-15 -21.066
v  22.632 1.01168e-15 -16.522
v  22.901 9.95454e-16 -16.257
v  23.17 9.79228e-16 -15.992
v  18.013 5.978 -25.721
v  17.99 3.628 -21.235
v  20.331 5.978 -23.249
v  17.917 3.625 -21.307
v  22.606 3.694 -25.206
v  22.479 3.689 -25.35
v  19.375 3.717 -28.878
v  18.304 3.728 -30.091
v  13.305 3.625 -25.85
v  18.211 3.625 -30.197
v  13.305 1.58286e-15 -25.85
v  17.917 1.30468e-15 -21.307
v  22.479 1.55224e-15 -25.35
v  19.375 1.76827e-15 -28.878
v  18.304 1.84254e-15 -30.091
v  18.211 1.84903e-15 -30.197
v  16.239 3.683 -2.595
v  13.011 4.436 -1.426
v  13.85 3.689 -0.527
v  9.782 7.312 -4.886
v  11.979 7.319 -6.791
v  27.169 3.655 -12.053
v  22.901 7.303 -16.257
v  8.126 3.526 -11.668
v  18.584 3.613 -20.509
v  10.696 5.971 -8.6
v  10.39 5.961 -8.356
v  8.186 5.89 -6.596
v  8.186 4.03889e-16 -6.596
v  9.782 2.99181e-16 -4.886
v  13.011 8.73173e-17 -1.426
v  13.85 3.22694e-17 -0.527
v  10.696 5.26598e-16 -8.6
v  8.126 7.14459e-16 -11.668
v  16.239 1.58898e-16 -2.595
v  10.39 5.11657e-16 -8.356
v  31.211 3.549 -15.55
v  32.384 3.546 -16.565
v  27.3 7.364 -20.067
v  43.283 3.551 -26.056
v  45.411 3.551 -27.909
v  43.968 4.959 -29.576
v  41.527 7.342 -32.397
v  26.716 3.446 -27.669
v  23.333 3.493 -24.651
v  33.467 3.452 -33.485
v  37.537 3.474 -36.954
v  39.085 4.959 -35.218
v  37.205 3.125 -37.39
v  37.194 3.125 -37.38
v  37.537 2.26278e-15 -36.954
v  37.194 2.28886e-15 -37.38
v  32.384 1.01431e-15 -16.565
v  43.283 1.59547e-15 -26.056
v  45.411 1.70893e-15 -27.909
v  43.968 1.81101e-15 -29.576
v  41.527 1.98374e-15 -32.397
v  39.085 2.15648e-15 -35.218
v  37.205 2.28948e-15 -37.39
v  33.467 2.05037e-15 -33.485
v  26.716 1.69424e-15 -27.669
v  1.477 7.686 -1.279
v  9.732 9.24 4.509
v  4.484 9.24 -1.114
v  0 6.232 3.816e-16
v  5.538 6.3 5.799
v  10.772 9.24 5.623
v  5.938 4.511 9.746
v  4.979 4.541 8.66
v  3.744 4.579 7.261
v  3.735 4.579 7.251
v  13.3 4.978 -0.051
v  13.85 4.436 -0.527
v  9.782 4.436 -4.886
v  13.957 5.064 0.821
v  14.913 5.188 2.09
v  8.186 4.436 -6.596
v  6.367 6.165 -5.144
v  6.192 6.15 -5.362
v  4.643 7.676 -4.021
v  0 0 0
v  6.192 3.28328e-16 -5.362
v  4.643 2.46215e-16 -4.021
v  1.477 7.83162e-17 -1.279
v  5.538 -3.55086e-16 5.799
v  3.735 -4.43996e-16 7.251
v  6.367 3.14979e-16 -5.144
v  3.744 -4.44608e-16 7.261
v  4.979 -5.30272e-16 8.66
v  5.938 -5.9677e-16 9.746
v  10.772 -3.44309e-16 5.623
v  14.913 -1.27976e-16 2.09
v  13.3 3.12285e-18 -0.051
v  13.957 -5.02717e-17 0.821
v  41.394 7.94 -41.211
v  43.65 6.457 -42.914
v  43.553 6.451 -43.045
v  50.22 7.94 -31.014
v  45.611 5.07 -44.681
v  54.267 5.07 -34.681
v  51.445 5.013 -38.108
v  52.356 6.462 -32.842
v  39.116 6.369 -39.276
v  39.215 6.366 -39.153
v  37.82 5.394 -37.939
v  37.205 4.96 -37.39
v  41.527 4.96 -32.397
v  45.466 4.998 -27.956
v  45.411 4.96 -27.909
v  47.804 6.338 -29.15
v  45.901 4.979 -27.399
v  47.897 6.333 -29.026
v  45.466 1.71181e-15 -27.956
v  45.901 1.6777e-15 -27.399
v  47.804 1.78492e-15 -29.15
v  47.897 1.77733e-15 -29.026
v  39.116 2.40496e-15 -39.276
v  39.215 2.39743e-15 -39.153
v  52.356 2.01099e-15 -32.842
v  50.22 1.89906e-15 -31.014
v  54.267 2.1236e-15 -34.681
v  51.445 2.33344e-15 -38.108
v  45.611 2.73592e-15 -44.681
v  43.65 2.62772e-15 -42.914
v  43.553 2.63575e-15 -43.045
v  41.394 2.52345e-15 -41.211
v  37.82 2.32309e-15 -37.939

# 0 UV coordinates

# 310 vertex normals
vn 0.309136 0.881305 0.357403
vn 0.310911 0.88123 0.356045
vn 0.309637 0.881637 0.356149
vn 0.308655 0.881923 0.356291
vn 0.308557 0.881938 0.356339
vn 0.308272 0.881912 0.356651
vn -0.700115 0.00427785 0.714018
vn -0.309216 0.881466 -0.356937
vn -0.309302 0.881414 -0.356988
vn -0.31173 0.880948 -0.356026
vn -0.30778 0.881384 -0.358376
vn 0.556108 0.649534 -0.518507
vn 0.554765 0.649334 -0.520194
vn -0.5536 0.649562 0.521149
vn -0.554638 0.649537 0.520075
vn -0.310023 0.882492 -0.353686
vn -0.307366 0.881532 -0.358368
vn -0.309347 0.88247 -0.354333
vn -0.315429 0.876247 -0.364275
vn 0.65393 -0 0.756555
vn 0.654323 -5.32657e-05 0.756215
vn 0.654189 0.000161985 0.756331
vn 0.654282 0 0.756251
vn -1.52364e-19 1 6.10978e-17
vn 1.06098e-18 -1 -5.99953e-17
vn 0.75603 0 -0.654537
vn 0.755777 0 -0.654829
vn 0.756401 9.85828e-05 -0.654108
vn 0.756122 5.36439e-06 -0.654431
vn 0.755777 -0.000886171 -0.654829
vn 0.756435 0.000626836 -0.654068
vn 0.756124 0 -0.654428
vn 0.750282 0 -0.661117
vn 0.752286 0.000368671 -0.658837
vn 0.751266 0 -0.66
vn -1.43923e-19 -1 -6.11067e-17
vn -0.66712 0 -0.74495
vn -0.652156 -2.39347e-05 -0.758085
vn -0.652156 0 -0.758085
vn -0.652135 4.72058e-05 -0.758103
vn -0.652177 -0 -0.758067
vn -0.645046 0 -0.764144
vn -0.700858 0 0.713301
vn -0.702096 0 0.712082
vn -0.701779 8.46651e-05 0.712394
vn -8.45605e-20 -1 -6.11429e-17
vn -0.701718 0 0.712454
vn -0.701718 0 0.712454
vn -0.701788 0 0.712386
vn -0.701792 2.68809e-07 0.712382
vn -0.701744 -6.84747e-06 0.712429
vn -0.701788 8.89637e-05 0.712386
vn -0.701792 9.63776e-05 0.712382
vn -0.701742 0 0.712431
vn 0 -1 -6.12324e-17
vn 5.86167e-22 -1 -6.12329e-17
vn 8.42675e-22 -1 -6.12323e-17
vn 2.04513e-23 -1 -6.12323e-17
vn -1.37533e-22 -1 -6.12325e-17
vn 1.88361e-22 -1 -6.12322e-17
vn 3.21807e-24 -1 -6.12323e-17
vn 0 -1 -6.12323e-17
vn 1.0521e-22 -1 -6.12324e-17
vn -0.442004 0.795518 0.414468
vn -0.44158 0.795702 0.414566
vn 0.442049 0.795471 -0.41451
vn 0.441741 0.794252 -0.417167
vn 0.445967 0.807557 -0.385961
vn 0.44565 0.807638 -0.386156
vn -0.391167 0.807523 -0.441469
vn -0.391371 0.80729 -0.441715
vn -0.414713 0.806698 0.421012
vn -0.701758 0 0.712416
vn -0.702207 0 0.711973
vn 0.652177 -0 0.758067
vn 0.652147 2.07771e-05 0.758093
vn 0.652177 -4.54787e-05 0.758067
vn 0.652135 0 0.758103
vn 0.74999 0 -0.661449
vn 0.750781 6.23042e-05 -0.660551
vn 0.749989 -0.00151267 -0.661449
vn 0.750781 0 -0.660551
vn 0.749621 0 -0.661867
vn 0.751199 0.00103619 -0.660075
vn 0.749621 -0.000122309 -0.661867
vn 0.751699 0 -0.659507
vn -0.663179 0 -0.748461
vn 9.18861e-23 -1 -6.12323e-17
vn 1.87734e-23 -1 -6.12323e-17
vn -6.43978e-22 -1 -6.12324e-17
vn 0 -1 -6.12323e-17
vn -7.98644e-23 -1 -6.12325e-17
vn 1.3728e-21 -1 -6.12308e-17
vn 0.341169 0.854527 0.391647
vn 0.341205 0.854443 0.3918
vn 0.339666 0.853643 0.394868
vn 0.341952 0.853756 0.392645
vn 0.342083 0.853424 0.393251
vn 0.342151 0.853357 0.393337
vn -0.340708 0.85334 -0.394625
vn -0.340727 0.853289 -0.39472
vn -0.340713 0.85333 -0.394641
vn -0.340592 0.85348 -0.394423
vn -0.341723 0.853419 -0.393576
vn -0.341756 0.85342 -0.393544
vn -0.341995 0.854366 -0.391277
vn -0.731055 0 0.682318
vn -0.731085 1.37632e-05 0.682287
vn -0.731055 -5.47783e-05 0.682318
vn -0.73109 0 0.682281
vn -0.731082 0 0.68229
vn -0.76658 0 0.642148
vn -0.76658 0 0.642148
vn 0.654485 -0 0.756075
vn 0.654351 0.000151522 0.756191
vn 0.654484 -0.000699596 0.756075
vn 0.654351 0 0.756191
vn 0.701742 0 -0.712431
vn 0.701742 0 -0.712431
vn 0.701792 0 -0.712382
vn 0.701788 -2.67167e-07 -0.712385
vn 0.701723 -1.00938e-05 -0.71245
vn 0.701792 0.000163572 -0.712382
vn 0.701788 0.000153786 -0.712386
vn 0.701718 0 -0.712454
vn -0.645598 0 -0.763677
vn -0.645598 -0 -0.763677
vn -0.623449 0 -0.781864
vn -0.624002 -4.64604e-05 -0.781423
vn -0.623935 -0 -0.781476
vn 1.52224e-19 1 6.13972e-17
vn -7.06758e-24 -1 -6.12323e-17
vn -1.48007e-19 -1 -6.14187e-17
vn 0 -1 -6.12323e-17
vn 4.4908e-23 -1 -6.12323e-17
vn 0.352901 0.843302 0.405342
vn 0.336067 0.839367 0.427226
vn 0.353226 0.842815 0.406072
vn 0.353089 0.843153 0.405489
vn 0.353264 0.842803 0.406063
vn 0.353313 0.842733 0.406167
vn -0.3512 0.843307 -0.406807
vn -0.362772 0.839391 -0.404746
vn -0.351739 0.842816 -0.407358
vn -0.351751 0.842776 -0.40743
vn -0.35177 0.842798 -0.407369
vn -0.345409 0.842743 -0.412887
vn -0.362246 0.842556 -0.398594
vn -0.355647 0.842859 -0.403862
vn -0.75603 0 0.654537
vn -0.755532 0.000577051 0.655111
vn -0.756285 -0.000355325 0.654243
vn -0.756094 -7.08485e-05 0.654463
vn -0.75603 0.000268318 0.654537
vn -0.755776 0.00102275 0.654829
vn -0.756435 -0.000723383 0.654068
vn -0.756124 0 0.654428
vn -0.778906 0 0.627141
vn -0.778906 0 0.627141
vn 0.654342 -0 0.756199
vn 0.654342 0 0.756199
vn 0.656715 0 0.754139
vn 0.656715 0 0.754139
vn 0.656697 0 0.754155
vn 0.756078 0 -0.654482
vn 0.756251 0.000117828 -0.654281
vn 0.756078 -9.64418e-05 -0.654482
vn 0.756102 -7.79971e-05 -0.654454
vn 0.756202 0.000152953 -0.654338
vn 0.756069 0 -0.654492
vn 0.756103 0 -0.654453
vn 0.756103 0 -0.654453
vn -0.648679 0 -0.761062
vn -0.648679 -0 -0.761062
vn -0.652693 -0 -0.757622
vn -0.665705 0 -0.746215
vn -0.665704 0 -0.746215
vn -1.86004e-21 -1 -6.12314e-17
vn -3.82531e-21 -1 -6.12289e-17
vn -2.76713e-23 -1 -6.12324e-17
vn -1.97729e-24 -1 -6.12323e-17
vn 1.0545e-23 -1 -6.12324e-17
vn -1.21055e-24 -1 -6.12324e-17
vn -2.73007e-24 -1 -6.12324e-17
vn -1.55106e-24 -1 -6.12323e-17
vn 4.84524e-24 -1 -6.12323e-17
vn -0.436784 0.801896 0.407655
vn -0.436689 0.802036 0.407482
vn -0.436741 0.801906 0.407681
vn -0.436725 0.801898 0.407715
vn -0.436724 0.801895 0.407722
vn -0.436641 0.801935 0.407732
vn -0.437028 0.801803 0.407576
vn -0.443898 0.802098 0.399492
vn 0.437023 0.801664 -0.407856
vn 0.437033 0.801658 -0.407856
vn 0.436946 0.801873 -0.407528
vn 0.436443 0.801945 -0.407924
vn 0.436796 0.801864 -0.407706
vn 0.436824 0.80185 -0.407702
vn 0.436763 0.801883 -0.407702
vn 0.436696 0.801927 -0.407688
vn 0.439897 0.799931 -0.408168
vn 0.436941 0.801792 -0.40769
vn 0.436709 0.801973 -0.407585
vn -0.389616 0.801986 -0.452788
vn -0.654676 0.000101465 -0.75591
vn -0.654625 -0.000183598 -0.755954
vn -0.654624 4.62889e-17 -0.755955
vn -0.654624 0 -0.755955
vn 4.67659e-20 1 6.12634e-17
vn -4.27338e-20 -1 -6.12802e-17
vn -0.62722 0 -0.778842
vn -0.62722 -0 -0.778842
vn -0.623856 0 -0.781539
vn -0.623856 0 -0.781539
vn -0.723194 0 0.690645
vn -0.723194 0 0.690645
vn -0.743308 0 0.668949
vn -0.749681 2.81398e-05 0.661799
vn -0.749577 -3.71705e-05 0.661918
vn -0.74329 -0.00698475 0.668933
vn -0.749681 5.10932e-05 0.661799
vn -0.749576 0 0.661918
vn 0.648936 -0 0.760843
vn 0.649011 -6.81261e-05 0.760779
vn 0.648936 0.000157278 0.760843
vn 0.64905 0 0.760746
vn 0.654407 -0 0.756143
vn 0.654407 0 0.756143
vn 0.798714 0 -0.601711
vn 0.79868 -1.76746e-05 -0.601756
vn 0.7987 0 -0.60173
vn -1.32169e-19 1 6.12605e-17
vn 0.731082 0 -0.68229
vn 0.73109 3.39559e-06 -0.682281
vn 0.731082 -1.29374e-05 -0.682289
vn 0.73109 0 -0.682281
vn 0.731055 0 -0.682318
vn 0.77982 0 -0.626003
vn 0 -1 -6.12323e-17
vn -1.32891e-21 -1 -6.12321e-17
vn 0 -1 -6.12331e-17
vn -1.14596e-22 -1 -6.12323e-17
vn 1.91542e-24 -1 -6.12323e-17
vn -3.45301e-24 -1 -6.12323e-17
vn 1.70234e-21 -1 -6.12302e-17
vn 9.23134e-20 -1 -6.12961e-17
vn 0.353612 0.885169 -0.302382
vn 0.3519 0.885095 -0.304586
vn 0.349894 0.886479 -0.302868
vn 0.351765 0.885183 -0.304487
vn 0.35174 0.885197 -0.304475
vn 0.35183 0.885135 -0.304553
vn -0.351797 0.885167 0.304498
vn -0.352122 0.884868 0.304989
vn -0.35179 0.885175 0.304483
vn -0.35207 0.884849 0.305104
vn -0.352093 0.884819 0.305165
vn -0.351864 0.885215 0.304278
vn -0.351883 0.885029 0.304797
vn -0.352066 0.885147 0.304244
vn -0.351851 0.885302 0.304041
vn -0.351412 0.885079 0.305196
vn -0.351635 0.885124 0.30481
vn -0.354365 0.885183 0.301458
vn -0.78813 0 0.615508
vn -0.78813 0 0.615508
vn -0.800006 0 0.599992
vn -0.800006 0 0.599992
vn -0.779017 0 0.627002
vn -0.779018 0 0.627002
vn -0.756103 0 0.654453
vn -0.756069 -3.01827e-05 0.654492
vn -0.756103 3.92227e-05 0.654453
vn -0.756069 0 0.654492
vn -0.756202 0 0.654338
vn -0.756202 0 0.654338
vn -0.756078 0 0.654482
vn 0.649642 0 0.76024
vn 0.649642 0 0.76024
vn 0.677107 0 0.735885
vn 0.677107 0 0.735885
vn 0.650202 -8.86454e-06 0.759761
vn 0.650202 0 0.759762
vn 0.650202 0 0.759761
vn 6.93889e-18 1 6.93889e-17
vn 0.693403 -0 0.72055
vn 0.693403 0 0.72055
vn 0.771957 0 -0.635675
vn 0.747899 0 -0.663813
vn 0.747899 0 -0.663813
vn 0.803658 0 -0.595091
vn 0.803658 0 -0.595091
vn -0.669404 0 -0.742899
vn -0.647404 2.14289e-05 -0.762147
vn -0.647404 0 -0.762147
vn -0.647404 -0 -0.762147
vn 2.77556e-18 -1 -5.80092e-17
vn -0.656473 0 -0.754349
vn -0.664499 -0.00366658 -0.74728
vn -0.659405 -0 -0.751788
vn 6.87628e-21 1 6.12398e-17
vn 1.46919e-22 -1 -6.12321e-17
vn -1.34408e-22 -1 -6.12325e-17
vn -9.12818e-24 -1 -6.12323e-17
vn -4.31054e-23 -1 -6.1232e-17
vn -1.54224e-23 -1 -6.12323e-17
vn 1.05656e-23 -1 -6.12323e-17
vn 5.76419e-23 -1 -6.12322e-17

# Mesh 'defaultobject' with 364 faces
g defaultobject
usemtl DefaultMaterial
f  1//1 2//1 3//1
f  2//2 1//2 4//2
f  4//3 1//3 5//3
f  4//4 5//4 6//4
f  4//5 6//5 7//5
f  4//6 7//6 8//6
f  8//7 7//7 9//7
f  10//8 6//8 5//8
f  6//9 10//9 11//9
f  6//10 11//10 12//10
f  11//11 10//11 13//11
f  14//12 12//12 15//12
f  12//13 14//13 6//13
f  16//14 14//14 17//14
f  14//15 16//15 6//15
f  18//16 19//16 20//16
f  19//17 6//17 16//17
f  6//18 19//18 18//18
f  6//19 18//19 7//19
f  21//20 4//20 8//20
f  4//21 21//21 2//21
f  2//22 21//22 3//22
f  3//23 21//23 22//23
f  22//24 21//24 23//24
f  22//25 23//25 24//25
f  22//26 1//26 3//26
f  1//26 22//26 25//26
f  1//27 25//27 5//27
f  5//28 25//28 10//28
f  10//29 25//29 13//29
f  13//30 25//30 26//30
f  13//31 26//31 27//31
f  13//29 27//32 28//32
f  29//33 12//33 11//33
f  12//34 29//34 15//34
f  15//35 29//35 30//35
f  30//36 29//36 31//36
f  13//37 29//37 11//37
f  29//37 13//37 28//37
f  15//38 17//38 14//38
f  17//39 15//39 30//39
f  17//40 30//40 32//40
f  17//41 32//41 33//41
f  34//42 20//42 19//42
f  20//42 34//42 35//42
f  33//43 16//43 17//43
f  16//44 34//44 19//44
f  34//45 16//45 33//45
f  34//46 33//46 36//46
f  35//47 18//47 20//47
f  18//47 35//47 37//48
f  18//49 37//49 7//49
f  7//49 37//49 9//50
f  9//51 37//51 8//51
f  8//52 37//52 38//52
f  8//52 38//52 39//53
f  8//51 39//54 21//54
f  32//55 36//46 33//46
f  36//46 32//55 34//46
f  34//46 37//56 35//56
f  37//56 34//46 32//55
f  37//56 32//55 30//36
f  37//56 30//36 31//36
f  37//56 31//36 29//36
f  37//56 29//36 28//57
f  37//56 28//57 27//58
f  37//56 27//58 38//59
f  38//59 27//58 39//60
f  39//60 27//58 21//61
f  21//61 27//58 26//62
f  21//61 26//62 25//63
f  21//61 25//63 24//25
f  24//25 25//63 22//25
f  21//61 24//25 23//25
f  40//64 41//64 42//64
f  41//65 40//65 43//65
f  44//66 40//66 42//66
f  40//67 44//67 45//67
f  46//68 40//68 45//68
f  40//69 46//69 47//69
f  48//70 47//70 49//70
f  47//71 48//71 40//71
f  40//72 48//72 43//72
f  50//73 43//73 48//73
f  43//73 50//73 51//73
f  43//74 51//74 41//74
f  41//74 51//74 33//74
f  33//75 42//75 41//75
f  42//76 33//76 44//76
f  44//77 33//77 32//77
f  44//78 32//78 30//78
f  30//79 45//79 44//79
f  45//80 30//80 46//80
f  46//81 30//81 52//81
f  46//82 52//82 53//82
f  46//83 53//83 47//83
f  47//84 53//84 49//84
f  49//85 53//85 54//85
f  49//86 54//86 55//86
f  55//87 48//87 49//87
f  48//87 55//87 50//87
f  32//55 52//88 30//36
f  52//88 32//55 53//89
f  53//89 32//55 33//46
f  53//89 33//46 51//90
f  53//89 51//90 50//91
f  53//89 50//91 54//92
f  54//92 50//91 55//93
f  56//94 57//94 58//94
f  57//95 56//95 59//95
f  59//96 56//96 60//96
f  60//97 56//97 61//97
f  60//98 61//98 9//98
f  60//99 9//99 62//99
f  63//100 18//100 64//100
f  18//101 63//101 62//101
f  62//102 63//102 65//102
f  62//103 65//103 60//103
f  60//104 65//104 66//104
f  60//105 66//105 67//105
f  60//106 67//106 59//106
f  68//107 59//107 67//107
f  59//108 68//108 57//108
f  57//109 68//109 69//109
f  57//110 69//110 70//110
f  57//111 70//111 58//111
f  58//111 70//111 71//111
f  63//112 72//112 65//112
f  72//112 63//112 73//113
f  71//114 56//114 58//114
f  56//115 71//115 61//115
f  61//116 71//116 74//116
f  61//117 74//117 21//117
f  21//118 9//118 61//118
f  9//118 21//118 39//119
f  9//120 39//120 62//120
f  62//120 39//120 18//121
f  18//122 39//122 64//122
f  64//123 39//123 38//123
f  64//124 38//124 37//124
f  64//125 37//125 35//125
f  35//126 63//126 64//126
f  63//126 35//126 73//127
f  72//128 66//128 65//128
f  66//129 72//129 67//129
f  67//130 72//130 68//130
f  68//131 72//131 75//131
f  68//132 72//132 69//132
f  72//132 68//132 75//133
f  74//134 39//60 21//61
f  39//60 74//134 38//59
f  38//59 74//134 71//135
f  38//59 71//135 37//56
f  37//56 71//135 35//56
f  35//56 71//135 70//134
f  35//56 70//134 69//132
f  35//56 69//132 72//132
f  35//56 72//132 73//62
f  1//136 76//136 77//136
f  77//137 78//137 1//137
f  79//138 78//138 77//138
f  78//139 79//139 80//139
f  78//140 80//140 81//140
f  78//141 81//141 82//141
f  10//142 83//142 84//142
f  83//143 10//143 78//143
f  83//144 78//144 82//144
f  83//145 82//145 85//145
f  85//146 82//146 86//146
f  86//147 82//147 87//147
f  86//148 88//148 89//148
f  88//149 86//149 87//149
f  1//150 22//150 76//150
f  22//151 1//151 78//151
f  22//152 78//152 10//152
f  22//153 10//153 84//153
f  22//154 84//154 25//154
f  25//155 84//155 26//155
f  26//156 84//156 27//156
f  27//157 84//157 28//157
f  89//158 90//158 86//158
f  90//158 89//158 91//159
f  22//160 77//160 76//160
f  77//160 22//160 92//161
f  77//162 92//162 79//162
f  79//162 92//162 93//163
f  79//164 93//164 80//164
f  80//164 93//164 94//164
f  94//165 81//165 80//165
f  81//166 94//166 82//166
f  82//167 94//167 95//167
f  82//168 95//168 87//168
f  87//169 95//169 96//169
f  87//170 96//170 97//170
f  87//171 97//171 88//171
f  88//171 97//171 98//172
f  90//173 85//173 86//173
f  85//173 90//173 99//174
f  85//175 99//175 83//175
f  83//175 99//175 100//175
f  83//176 28//176 84//176
f  28//176 83//176 100//177
f  97//178 91//178 98//178
f  91//178 97//178 90//179
f  90//179 97//178 99//180
f  99//180 97//178 96//181
f  99//180 96//181 95//182
f  99//180 95//182 100//183
f  100//183 95//182 94//184
f  100//183 94//184 93//185
f  100//183 93//185 92//186
f  100//183 92//186 28//57
f  28//57 92//186 27//58
f  27//58 92//186 26//62
f  26//62 92//186 25//63
f  25//63 92//186 22//25
f  101//187 102//187 103//187
f  102//188 101//188 104//188
f  102//189 104//189 105//189
f  102//190 105//190 106//190
f  106//190 105//190 107//191
f  107//192 105//192 108//192
f  108//193 105//193 109//193
f  109//194 105//194 110//194
f  57//195 111//195 112//195
f  111//196 57//196 113//196
f  114//197 106//197 115//197
f  106//198 114//198 111//198
f  106//199 111//199 113//199
f  106//200 113//200 116//200
f  106//201 116//201 117//201
f  106//202 117//202 102//202
f  102//203 117//203 118//203
f  102//204 118//204 119//204
f  102//205 119//205 103//205
f  103//206 119//206 101//206
f  119//207 104//207 101//207
f  104//208 119//208 118//208
f  104//209 118//209 120//209
f  120//209 118//209 121//210
f  120//211 121//211 122//211
f  120//212 122//212 123//212
f  124//213 110//213 105//213
f  110//213 124//213 125//214
f  116//215 126//215 117//215
f  126//215 116//215 68//216
f  104//217 124//217 105//217
f  124//217 104//217 120//218
f  125//219 109//219 110//219
f  109//220 125//220 108//220
f  108//221 125//221 107//221
f  107//222 125//222 127//222
f  107//223 127//223 128//223
f  107//224 128//224 129//224
f  129//225 106//225 107//225
f  106//226 129//226 115//226
f  115//227 129//227 130//227
f  115//228 130//228 131//228
f  132//229 112//229 111//229
f  112//229 132//229 71//230
f  131//231 114//231 115//231
f  114//232 131//232 111//232
f  111//233 131//233 132//233
f  132//234 131//234 133//234
f  71//235 57//235 112//235
f  57//236 71//236 113//236
f  113//237 71//237 70//237
f  113//236 70//238 69//238
f  113//239 69//239 116//239
f  116//239 69//239 68//239
f  126//240 118//240 117//240
f  118//240 126//240 121//240
f  132//241 70//134 71//135
f  70//134 132//241 69//132
f  69//132 132//241 68//132
f  68//132 132//241 133//242
f  68//132 133//242 131//243
f  68//132 131//243 130//134
f  68//132 130//134 126//241
f  126//241 130//134 121//244
f  121//244 130//134 122//212
f  122//212 130//134 123//212
f  123//212 130//134 124//241
f  124//241 130//134 129//245
f  124//241 129//245 127//246
f  124//241 127//246 125//247
f  127//246 129//245 128//248
f  120//212 123//212 124//241
f  134//249 135//249 136//249
f  135//250 134//250 137//250
f  138//251 139//251 140//251
f  139//252 138//252 141//252
f  141//253 138//253 135//253
f  141//254 135//254 137//254
f  142//255 137//255 134//255
f  137//256 142//256 143//256
f  137//257 143//257 144//257
f  137//258 144//258 145//258
f  137//259 145//259 87//259
f  137//260 87//260 146//260
f  137//261 146//261 81//261
f  137//262 81//262 147//262
f  147//263 81//263 148//263
f  137//264 147//264 149//264
f  150//265 149//265 147//265
f  151//266 137//266 149//266
f  152//267 150//267 147//267
f  150//267 152//267 153//268
f  154//269 151//269 149//269
f  151//269 154//269 155//270
f  156//271 143//271 142//271
f  143//271 156//271 157//272
f  98//273 87//273 145//273
f  87//274 98//274 146//274
f  146//275 98//275 97//275
f  146//276 97//276 96//276
f  146//277 96//277 81//277
f  81//277 96//277 95//278
f  81//279 95//279 148//279
f  148//279 95//279 94//279
f  148//280 152//280 147//280
f  152//280 148//280 94//281
f  150//282 154//282 149//282
f  154//282 150//282 153//283
f  151//284 141//284 137//284
f  141//284 151//284 155//285
f  141//284 155//285 158//286
f  158//287 155//287 159//287
f  158//288 139//288 141//288
f  139//288 158//288 160//289
f  160//290 140//290 139//290
f  140//290 160//290 161//290
f  140//291 162//291 138//291
f  162//291 140//291 161//292
f  163//293 136//293 135//293
f  136//293 163//293 164//294
f  138//295 163//295 135//295
f  163//295 138//295 162//295
f  136//296 142//296 134//296
f  142//297 136//297 164//297
f  142//297 164//297 156//298
f  156//299 164//299 165//299
f  157//300 144//300 143//300
f  144//301 157//301 145//301
f  145//302 157//302 98//302
f  98//303 157//303 166//303
f  155//304 154//304 159//304
f  153//305 152//305 154//304
f  161//306 163//306 162//306
f  163//306 161//306 165//299
f  165//299 161//306 156//299
f  156//299 161//306 157//307
f  157//307 161//306 166//308
f  166//308 161//306 98//178
f  98//178 161//306 97//178
f  97//178 161//306 96//181
f  96//181 161//306 160//309
f  96//181 160//309 95//182
f  95//182 160//309 158//310
f  95//182 158//310 159//304
f  95//182 159//304 152//305
f  95//182 152//305 94//184
f  152//305 159//304 154//304
f  165//299 164//299 163//306

