# {"id":"ID_15299","idOriginal":"ID_15299","origin":[14.285896769349792,48.331198423250655],"elevation":270.535,"wof":[{"Id":102049853,"Name":"Linz","Placetype":"county","Offset":-1},{"Id":101748071,"Name":"Linz","Placetype":"locality","Offset":-1},{"Id":85632785,"Name":"Austria","Placetype":"country","Offset":-1},{"Id":85681677,"Name":"Oberösterreich","Placetype":"region","Offset":-1},{"Id":85898425,"Name":"Harbach","Placetype":"neighbourhood","Offset":-1}]}

# Attribution: City of Linz <http://geo.data.linz.gv.at/katalog/geodata/3d_geo_daten_lod2/>
# Longitude: 14.285896769349792
# Latitude: 48.331198423250655
# Elevation: 270.535

# File produced by Open Asset Import Library (http://www.assimp.sf.net)
# (assimp v3.1.0)


# 23 vertex positions
v  3.355 6.381 -11.091
v  3.911 5.903 -11.396
v  3.486 5.903 -11.526
v  4.344 5.903 -11.264
v  18.552 5.903 -6.917
v  16.43 12.245 -1.26
v  1.741 12.245 -5.754
v  1.79 12.245 -5.739
v  1.513 11.419 -5.002
v  0 5.923 3.62679e-16
v  0.838 5.922 0.257
v  14.305 5.893 4.406
v  3.486 7.05764e-16 -11.526
v  3.911 6.97804e-16 -11.396
v  4.344 6.89721e-16 -11.264
v  18.552 4.23544e-16 -6.917
v  3.355 6.79128e-16 -11.091
v  1.741 3.52331e-16 -5.754
v  1.513 3.06284e-16 -5.002
v  0 0 0
v  14.305 -2.6979e-16 4.406
v  0.838 -1.57367e-17 0.257
v  16.43 7.71528e-17 -1.26

# 0 UV coordinates

# 40 vertex normals
vn 0.212023 0.688904 -0.693151
vn 0.21146 0.68857 -0.693654
vn 0.211961 0.689291 -0.692785
vn 0.212009 0.689074 -0.692986
vn 0.212016 0.689066 -0.692991
vn 0 1 0
vn -0.212081 0.689257 0.692782
vn -0.206616 0.689066 0.694621
vn -0.211726 0.689091 0.693055
vn -0.212014 0.68907 0.692988
vn -0.212016 0.689072 0.692985
vn 0.292505 0 -0.956264
vn 0.291601 7.11228e-05 -0.95654
vn 0.292567 -8.24091e-05 -0.956245
vn 0.292505 9.2695e-05 -0.956264
vn 0.2916 0.00254284 -0.956537
vn 0.292567 0 -0.956245
vn -0.957084 0.00033723 -0.289809
vn -0.956042 0.00480218 -0.293189
vn -0.957186 0 -0.289474
vn -0.957177 1.92142e-05 -0.289505
vn -0.95752 -0.00241714 -0.288356
vn -0.957187 -0.000144098 -0.28947
vn -0.956981 0.000575771 -0.290148
vn -0.957171 1.77282e-17 -0.289524
vn -0.293204 -5.85412e-17 0.95605
vn -0.29443 0.000189793 0.955673
vn -0.294358 0 0.955695
vn 0 -1 -6.12454e-17
vn 0.936305 2.77072e-05 0.351187
vn 0.936305 0 0.351187
vn 0.936316 -5.95357e-05 0.35116
vn 0.936295 0 0.351214
vn -3.10968e-25 -1 -6.12323e-17
vn 0 -1 -6.12323e-17
vn 5.34669e-24 -1 -6.12323e-17
vn 6.0266e-25 -1 -6.12324e-17
vn -4.70074e-23 -1 -6.12322e-17
vn -7.29722e-23 -1 -6.12324e-17
vn -4.09688e-24 -1 -6.12323e-17

# Mesh 'defaultobject' with 42 faces
g defaultobject
usemtl DefaultMaterial
f  1//1 2//1 3//1
f  2//2 1//2 4//2
f  4//3 1//3 5//3
f  5//4 1//4 6//4
f  6//5 1//5 7//5
f  6//6 7//6 8//6
f  9//7 8//7 7//7
f  8//8 9//8 10//8
f  8//9 10//9 11//9
f  8//10 11//10 6//10
f  6//10 11//10 12//11
f  2//12 13//12 3//12
f  13//13 2//13 4//13
f  13//14 4//14 5//14
f  13//15 5//15 14//15
f  14//16 5//16 15//16
f  15//17 5//17 16//17
f  1//18 9//18 7//18
f  9//19 1//19 3//19
f  9//20 3//20 13//20
f  9//21 13//21 10//21
f  10//22 13//22 17//22
f  10//23 17//23 18//23
f  10//24 18//24 19//24
f  10//25 19//25 20//25
f  20//26 11//26 10//26
f  11//27 20//27 12//27
f  12//28 20//28 21//28
f  21//29 20//29 22//29
f  12//30 5//30 6//30
f  5//31 12//31 21//31
f  5//32 21//32 23//32
f  5//33 23//33 16//33
f  22//29 23//34 21//29
f  23//34 22//29 20//29
f  23//34 20//29 19//35
f  23//34 19//35 16//35
f  16//35 19//35 18//36
f  16//35 18//36 17//37
f  16//35 17//37 15//38
f  15//38 17//37 14//39
f  14//39 17//37 13//40

