# {"id":"ID_20113","idOriginal":"ID_20113","origin":[14.295658037922566,48.261679937917314],"elevation":263.061,"wof":[{"Id":102049853,"Name":"Linz","Placetype":"county","Offset":-1},{"Id":101748071,"Name":"Linz","Placetype":"locality","Offset":-1},{"Id":85632785,"Name":"Austria","Placetype":"country","Offset":-1},{"Id":85898435,"Name":"Oed","Placetype":"neighbourhood","Offset":-1},{"Id":85681677,"Name":"Oberösterreich","Placetype":"region","Offset":-1}]}

# Attribution: City of Linz <http://geo.data.linz.gv.at/katalog/geodata/3d_geo_daten_lod2/>
# Longitude: 14.295658037922566
# Latitude: 48.261679937917314
# Elevation: 263.061

# File produced by Open Asset Import Library (http://www.assimp.sf.net)
# (assimp v3.1.0)


# 57 vertex positions
v  13.004 3.978 -0.39
v  9.328 2.647 5.842
v  14.661 2.652 4.14
v  8.543 3.199 3.99
v  5.317 3.978 2.038
v  6.165 3.2 4.735
v  4.695 3.201 5.196
v  1.314 3.819 3.909
v  4.938 3.026 5.785
v  1.13 3.978 3.361
v  0.769 2.647 -1.597
v  1.074 3.002 -0.339
v  3.867 2.648 -2.572
v  11.77 2.99 -3.765
v  8.402 2.993 -2.691
v  8.076 2.649 -3.896
v  0 3.002 1.83819e-16
v  8.501 2.686 12.976
v  2.256 3.924 8.183
v  4.045 3.951 14.196
v  6.682 2.653 6.784
v  1.947 3.92 7.144
v  2.629 3.724 6.932
v  2.334 3.721 5.957
v  5.576 2.887 6.115
v  5.121 3.015 6.23
v  6.649 2.652 6.671
v  2.029 3.807 6.035
v  6.423 2.873 5.902
v  6.423 -3.61393e-16 5.902
v  5.121 -3.81477e-16 6.23
v  5.576 -3.74436e-16 6.115
v  8.402 1.64776e-16 -2.691
v  11.77 2.3054e-16 -3.765
v  8.076 2.38561e-16 -3.896
v  3.867 1.5749e-16 -2.572
v  0.769 9.7788e-17 -1.597
v  1.074 2.07578e-17 -0.339
v  0 0 0
v  1.947 -4.37444e-16 7.144
v  2.629 -4.24463e-16 6.932
v  4.695 -3.18163e-16 5.196
v  4.938 -3.54229e-16 5.785
v  14.661 -2.53502e-16 4.14
v  13.004 2.38806e-17 -0.39
v  8.501 -7.94551e-16 12.976
v  6.682 -4.154e-16 6.784
v  6.649 -4.08481e-16 6.671
v  8.543 -2.44317e-16 3.99
v  6.165 -2.89935e-16 4.735
v  9.328 -3.57719e-16 5.842
v  2.029 -3.69537e-16 6.035
v  2.334 -3.64761e-16 5.957
v  4.045 -8.69254e-16 14.196
v  1.13 -2.05802e-16 3.361
v  1.314 -2.39357e-16 3.909
v  2.256 -5.01064e-16 8.183

# 0 UV coordinates

# 100 vertex normals
vn 0.0798456 0.964161 0.253018
vn 0.0803412 0.964049 0.253287
vn 0.0798556 0.964212 0.252821
vn 0.0796904 0.964159 0.253073
vn 0.0799913 0.964159 0.252979
vn 0.0796976 0.964034 0.253548
vn 0.0799413 0.964166 0.25297
vn 0.0799171 0.964181 0.25292
vn -0.0798535 0.964233 -0.25274
vn -0.0799202 0.964153 -0.253026
vn -0.0797798 0.964203 -0.252878
vn -0.0806256 0.963999 -0.253387
vn -0.0798301 0.964153 -0.253052
vn -0.0799473 0.964153 -0.253015
vn -0.0801594 0.964112 -0.253104
vn -0.0798933 0.964132 -0.253113
vn 0.252076 0.964451 -0.0793287
vn 0.251952 0.964497 -0.0791551
vn 0.252099 0.964497 -0.0786878
vn 0.251855 0.96434 -0.081347
vn 0.251972 0.964488 -0.0792054
vn 0.251673 0.964667 -0.0779649
vn 0.251715 0.964554 -0.0792106
vn 0.252089 0.964441 -0.0794021
vn 0.252159 0.964342 -0.0803772
vn 0.252784 0.964012 -0.0823523
vn 0.252402 0.964313 -0.0799597
vn 0.0797128 0.964014 0.253618
vn -0.243882 0 -0.969805
vn -0.245146 -0.000394309 -0.969486
vn -0.244288 -0 -0.969703
vn -9.28167e-21 1 6.11966e-17
vn -0.303811 0 -0.952732
vn -0.303811 0 -0.952732
vn -0.300068 0 -0.953918
vn -0.300068 -0 -0.953918
vn -0.300203 -0 -0.953875
vn -0.301004 0 -0.953623
vn -0.301004 5.83926e-17 -0.953623
vn -0.29684 0 -0.954927
vn -0.296839 0 -0.954927
vn 0.92485 0 -0.380331
vn 0.924418 0 -0.381381
vn 0.924604 -0.000102933 -0.380929
vn 6.64918e-20 1 6.12009e-17
vn 0.939144 0 -0.343524
vn 0.939144 0 -0.343524
vn 0.939191 0 -0.343396
vn 0.939191 0 -0.343396
vn 0.965298 0 -0.261151
vn 0.965298 0 -0.261151
vn 0.959457 0 -0.281856
vn 0.959457 0 -0.281856
vn 0.959905 0 -0.280326
vn 0.959419 -7.66901e-05 -0.281984
vn 0.959905 0.000476101 -0.280326
vn 0.959425 0 -0.281964
vn 0.299236 -0 0.954179
vn 0.29896 0.000138926 0.954265
vn 0.299066 0 0.954233
vn 2.09048e-20 -1 -6.11734e-17
vn -0.920706 0 0.390256
vn -0.920706 0 0.390256
vn 0.304037 0 0.95266
vn 0.247764 -0 0.96882
vn 0.247764 0 0.96882
vn 0.26407 -0 0.964504
vn 0.26407 0 0.964504
vn -0.971845 0 0.235622
vn -0.971845 0 0.235622
vn -0.947862 -1.95135e-17 0.31868
vn -0.947862 0 0.31868
vn -0.947989 0 0.318303
vn -0.947833 -7.41738e-05 0.318768
vn -0.947989 0.000288937 0.318303
vn -0.947833 0 0.318768
vn -0.957148 0 0.289598
vn -0.957148 0 0.289598
vn -0.958509 0 0.285062
vn -0.958477 -3.06266e-05 0.285168
vn -0.958482 0 0.285153
vn -2.81069e-19 1 6.12731e-17
vn -1.05211e-24 -1 -6.12323e-17
vn -1.63274e-24 -1 -6.12323e-17
vn 0 -1 -6.12323e-17
vn 5.18349e-26 -1 -6.12323e-17
vn 2.9979e-25 -1 -6.12323e-17
vn -1.76452e-24 -1 -6.12323e-17
vn 3.77269e-24 -1 -6.12324e-17
vn -6.34432e-24 -1 -6.12323e-17
vn 3.31118e-23 -1 -6.12323e-17
vn 1.09888e-24 -1 -6.12323e-17
vn 9.90349e-24 -1 -6.12323e-17
vn 1.87093e-23 -1 -6.12322e-17
vn 0 -1 -6.12324e-17
vn 0 -1 -6.12324e-17
vn 7.95404e-24 -1 -6.12323e-17
vn 3.65396e-24 -1 -6.12323e-17
vn -5.2501e-24 -1 -6.12324e-17
vn 4.22314e-24 -1 -6.12323e-17

# Mesh 'defaultobject' with 110 faces
g defaultobject
usemtl DefaultMaterial
f  1//1 2//1 3//1
f  2//2 1//2 4//2
f  4//3 1//3 5//3
f  4//4 5//4 6//4
f  6//5 5//5 7//5
f  7//6 8//6 9//6
f  8//7 7//7 5//7
f  8//8 5//8 10//8
f  11//9 12//9 13//9
f  14//10 5//10 1//10
f  5//11 14//11 15//11
f  5//12 15//12 16//12
f  5//13 16//13 13//13
f  5//14 13//14 10//14
f  10//15 13//15 12//15
f  10//16 12//16 17//16
f  18//17 19//17 20//17
f  19//18 18//18 21//18
f  19//19 21//19 22//19
f  22//20 21//20 23//20
f  23//21 21//21 24//21
f  25//22 26//22 27//22
f  24//23 8//23 28//23
f  8//24 24//24 26//24
f  26//25 24//25 21//25
f  26//26 21//26 27//26
f  8//27 26//27 9//27
f  25//28 27//28 29//28
f  30//29 25//29 29//29
f  25//30 30//30 26//30
f  26//31 30//31 31//31
f  31//32 30//32 32//32
f  14//33 33//33 15//33
f  33//33 14//33 34//34
f  35//35 13//35 16//35
f  13//35 35//35 36//36
f  13//37 36//37 11//37
f  11//37 36//37 37//37
f  38//38 17//38 12//38
f  17//38 38//38 39//39
f  23//40 40//40 22//40
f  40//40 23//40 41//41
f  31//42 9//42 26//42
f  9//43 42//43 7//43
f  42//44 9//44 31//44
f  42//45 31//32 43//45
f  44//46 1//46 3//46
f  1//46 44//46 45//47
f  1//48 45//48 14//48
f  14//48 45//48 34//49
f  33//50 16//50 15//50
f  16//50 33//50 35//51
f  46//52 21//52 18//52
f  21//52 46//52 47//53
f  21//54 47//54 27//54
f  27//55 47//55 29//55
f  29//56 47//56 48//56
f  29//57 48//57 30//57
f  42//58 6//58 7//58
f  6//59 42//59 4//59
f  4//60 42//60 49//60
f  49//61 42//61 50//61
f  49//62 2//62 4//62
f  2//62 49//62 51//63
f  2//64 44//64 3//64
f  44//64 2//64 51//64
f  52//65 24//65 28//65
f  24//65 52//65 53//66
f  54//67 18//67 20//67
f  18//67 54//67 46//68
f  11//69 38//69 12//69
f  38//69 11//69 37//70
f  39//71 10//71 17//71
f  10//71 39//71 55//72
f  10//73 55//73 8//73
f  8//74 55//74 28//74
f  28//75 55//75 56//75
f  28//76 56//76 52//76
f  24//77 41//77 23//77
f  41//77 24//77 53//78
f  40//79 19//79 22//79
f  19//80 40//80 20//80
f  20//81 40//81 54//81
f  54//82 40//82 57//82
f  33//83 36//83 35//83
f  36//83 33//83 37//84
f  45//85 33//83 34//85
f  33//83 45//85 37//84
f  37//84 45//85 38//85
f  38//85 45//85 39//86
f  39//86 45//85 55//87
f  55//87 45//85 44//88
f  55//87 44//88 49//61
f  55//87 49//61 56//89
f  49//61 44//88 51//90
f  48//91 32//91 30//91
f  32//91 48//91 31//92
f  31//92 48//91 41//93
f  41//93 48//91 40//94
f  40//94 48//91 57//95
f  57//95 48//91 47//96
f  57//95 47//96 46//97
f  57//95 46//97 54//98
f  43//99 53//99 42//61
f  53//99 43//99 41//93
f  41//93 43//99 31//92
f  56//89 42//61 52//100
f  42//61 56//89 50//61
f  50//61 56//89 49//61
f  52//100 42//61 53//99

