# File produced by Open Asset Import Library (http://www.assimp.sf.net)
# (assimp v3.1.0)

mtllib ID_21051.obj.mtl

# 12 vertex positions
v  16.373 2.15 16.854
v  11.605 2.15 19.814
v  16.446 2.15 16.979
v  6.396 2.15 10.921
v  4.841 2.15 -2.835
v  0 2.15 1.3165e-16
v  16.446 -1.03966e-15 16.979
v  4.841 1.73594e-16 -2.835
v  16.373 -1.03201e-15 16.854
v  0 0 0
v  6.396 -6.68718e-16 10.921
v  11.605 -1.21326e-15 19.814

# 0 UV coordinates

# 15 vertex normals
vn 0 1 -0
vn 0.863528 0 -0.5043
vn 0.862886 -8.5693e-05 -0.505399
vn 0.86289 0 -0.505392
vn -4.03717e-19 1 6.15669e-17
vn -0.505344 0 -0.862918
vn -0.505344 5.28385e-17 -0.862918
vn -0.862904 -3.09449e-17 0.505369
vn -0.862904 0 0.505369
vn -0.862873 0 0.505421
vn 0.505344 -0 0.862918
vn 1.32341e-23 -1 -6.12323e-17
vn 2.07534e-21 -1 -6.12329e-17
vn 0 -1 -6.12323e-17
vn 0 -1 -6.11162e-17

# Mesh 'defaultobject' with 20 faces
g defaultobject
usemtl DefaultMaterial
f  1//1 2//1 3//1
f  2//1 1//1 4//1
f  4//1 1//1 5//1
f  4//1 5//1 6//1
f  7//2 1//2 3//2
f  1//3 7//3 5//3
f  5//4 7//4 8//4
f  8//5 7//5 9//5
f  8//6 6//6 5//6
f  6//6 8//6 10//7
f  10//8 4//8 6//8
f  4//8 10//8 11//9
f  4//10 11//10 2//10
f  2//10 11//10 12//10
f  12//11 3//11 2//11
f  3//11 12//11 7//11
f  9//12 10//12 8//12
f  10//12 9//12 7//13
f  10//12 7//13 12//14
f  10//12 12//14 11//15

