# File produced by Open Asset Import Library (http://www.assimp.sf.net)
# (assimp v3.1.0)

mtllib ID_28962.obj.mtl

# 43 vertex positions
v  8.557 7.185 2.048
v  10.152 10.409 -3.315
v  7.091 7.223 0.985
v  9.659 7.156 2.846
v  9.687 7.185 2.807
v  11.743 9.298 -0.028
v  11.824 9.296 0.031
v  13.022 9.265 0.899
v  14.135 10.409 -0.636
v  12.907 10.409 -1.462
v  11.743 1.71451e-18 -0.028
v  11.824 -1.8982e-18 0.031
v  13.022 -5.50479e-17 0.899
v  7.091 -6.03139e-17 0.985
v  9.659 -1.74267e-16 2.846
v  8.557 -1.25404e-16 2.048
v  14.135 3.89438e-17 -0.636
v  9.687 -1.71879e-16 2.807
v  10.152 2.02985e-16 -3.315
v  12.907 8.95217e-17 -1.462
v  7.476 10.027 -5.115
v  7.091 7.076 0.985
v  10.152 7.076 -3.315
v  7.037 7.136 0.946
v  6.248 10.027 -3.391
v  4.883 7.168 -6.859
v  1.843 7.168 -2.589
v  6.947 7.076 0.965
v  1.785 7.076 -2.507
v  6.987 7.138 0.91
v  6.987 -5.57214e-17 0.91
v  7.037 -5.79258e-17 0.946
v  1.785 1.53509e-16 -2.507
v  6.947 -5.90892e-17 0.965
v  4.883 4.19993e-16 -6.859
v  7.476 3.13203e-16 -5.115
v  1.843 1.58531e-16 -2.589
v  1.785 4.602 -2.507
v  5.074 3.561 3.549
v  6.947 4.621 0.965
v  0 3.58 2.19212e-16
v  0 0 0
v  5.074 -2.17314e-16 3.549

# 0 UV coordinates

# 71 vertex normals
vn -0.288703 0.856048 0.428756
vn -0.288113 0.856134 0.428983
vn -0.289234 0.85587 0.428754
vn -0.288364 0.856076 0.428929
vn -0.292216 0.854158 0.430144
vn -0.288654 0.855961 0.428964
vn -0.288456 0.856079 0.428862
vn 0 1 0
vn -0.588763 0 0.808306
vn -0.586724 -2.71681e-05 0.809787
vn -0.588764 0.000402651 0.808305
vn -0.586724 0 0.809787
vn -0.587022 0 0.809571
vn -0.586512 -0.000158564 0.80994
vn -0.586802 0 0.80973
vn 8.49314e-21 1 6.1227e-17
vn 0.809579 0 0.587011
vn 0.809579 0 0.587011
vn 0.809526 0 0.587084
vn 0.811689 0.00180157 0.584087
vn 0.809564 0 0.587032
vn -6.58105e-20 -1 -6.12696e-17
vn 0.558126 0 -0.829756
vn 0.558101 -4.17373e-06 -0.829773
vn 0.558109 0 -0.829768
vn 0 1 6.11905e-17
vn -0.814667 0 -0.579929
vn -1.1078e-23 -1 -6.12323e-17
vn 4.79861e-24 -1 -6.12323e-17
vn 5.17552e-24 -1 -6.12323e-17
vn 5.82033e-24 -1 -6.12323e-17
vn 0 -1 -6.12093e-17
vn 0.550059 0.73764 0.391565
vn 0.541295 0.743014 0.393612
vn 0.549903 0.737687 0.391694
vn -0.549908 0.737682 -0.391698
vn -0.550045 0.73763 -0.391601
vn -0.377031 0.737313 0.560551
vn -0.376791 0.73769 0.560216
vn -0.374307 0.738724 0.560519
vn -0.374039 0.738838 0.560547
vn -0.584303 0 0.811536
vn -0.585482 1.2557e-05 0.810685
vn -0.584921 0 0.811091
vn 3.00804e-20 -1 -6.12737e-17
vn -0.558108 0 0.829768
vn 0.814667 -0 0.579929
vn 0.808736 0 0.588172
vn 0.558111 -2.45631e-05 -0.829766
vn 0.558112 0 -0.829766
vn 0.558112 0 -0.829766
vn -2.33731e-19 1 6.15882e-17
vn -0.814635 0 -0.579974
vn -0.815702 -0.00134811 -0.578471
vn -0.814668 -0 -0.579927
vn -1.02078e-21 1 6.12316e-17
vn 0 -1 -6.12323e-17
vn -9.89041e-22 -1 -6.12324e-17
vn 3.18705e-24 -1 -6.12323e-17
vn 6.34476e-24 -1 -6.12323e-17
vn -6.53457e-20 -1 -6.12289e-17
vn -0.178371 0.948991 0.26
vn -0.178268 0.949024 0.25995
vn -0.573159 -5.01765e-17 0.819444
vn -0.573159 0 0.819444
vn 0.80967 0 0.586885
vn 0.80967 0 0.586885
vn 0.558108 0 -0.829768
vn 0.558108 0 -0.829768
vn -0.814611 0 -0.580008
vn -0.814611 3.55153e-17 -0.580008

# Mesh 'defaultobject' with 82 faces
g defaultobject
usemtl DefaultMaterial
f  1//1 2//1 3//1
f  2//2 1//2 4//2
f  2//3 4//3 5//3
f  2//4 5//4 6//4
f  2//5 6//5 7//5
f  2//6 7//6 8//6
f  2//7 8//7 9//7
f  2//8 9//8 10//8
f  11//9 7//9 6//9
f  7//10 11//10 8//10
f  8//11 11//11 12//11
f  8//12 12//12 13//12
f  14//13 1//13 3//13
f  1//14 14//14 4//14
f  4//15 14//15 15//15
f  15//16 14//16 16//16
f  8//17 17//17 9//17
f  17//17 8//17 13//18
f  5//19 11//19 6//19
f  11//20 5//20 4//20
f  11//21 4//21 15//21
f  11//22 15//22 18//22
f  17//23 10//23 9//23
f  10//24 17//24 2//24
f  2//24 17//24 19//25
f  19//26 17//26 20//26
f  19//27 3//27 2//27
f  3//27 19//27 14//27
f  19//28 16//28 14//28
f  16//28 19//28 15//22
f  15//22 19//28 18//22
f  18//22 19//28 11//22
f  11//22 19//28 12//29
f  12//29 19//28 13//30
f  13//30 19//28 17//31
f  17//31 19//28 20//32
f  21//33 22//33 23//33
f  22//34 21//34 24//34
f  24//35 21//35 25//35
f  26//36 25//36 21//36
f  25//37 26//37 27//37
f  28//38 27//38 29//38
f  27//39 28//39 25//39
f  25//40 28//40 30//40
f  25//41 30//41 24//41
f  31//42 24//42 30//42
f  24//43 31//43 22//43
f  22//44 31//44 14//44
f  14//28 31//45 32//45
f  33//46 28//46 29//46
f  28//46 33//46 34//46
f  14//47 23//47 22//47
f  23//47 14//47 19//47
f  28//48 31//48 30//48
f  31//48 28//48 34//48
f  23//49 26//49 21//49
f  26//50 23//50 19//25
f  26//50 19//25 35//51
f  35//52 19//26 36//52
f  35//53 27//53 26//53
f  27//54 35//54 29//54
f  29//55 35//55 33//55
f  33//56 35//52 37//56
f  14//28 36//57 19//28
f  36//57 14//28 32//45
f  36//57 32//45 31//45
f  36//57 31//45 34//58
f  36//57 34//58 33//59
f  36//57 33//59 35//60
f  35//60 33//59 37//61
f  38//62 39//62 40//62
f  39//63 38//63 41//63
f  42//64 39//64 41//64
f  39//64 42//64 43//65
f  39//66 34//66 40//66
f  34//66 39//66 43//67
f  34//68 38//68 40//68
f  38//68 34//68 33//69
f  33//70 41//70 38//70
f  41//70 33//70 42//71
f  33//59 43//57 42//57
f  43//57 33//59 34//58

