# File produced by Open Asset Import Library (http://www.assimp.sf.net)
# (assimp v3.1.0)

mtllib ID_23351.obj.mtl

# 30 vertex positions
v  2.756 18.156 4.795
v  8.508 18.156 -5.082
v  0 18.156 1.11173e-15
v  3.989 18.156 4.087
v  4.685 18.156 5.298
v  5.997 18.156 7.581
v  9.966 18.156 -6.558
v  8.255 18.156 -5.575
v  7.669 18.156 6.16
v  7.88 18.156 6.499
v  11.346 18.156 -4.157
v  14.877 18.156 1.972
v  13.372 18.156 -0.646
v  11.871 18.156 -4.458
v  13.891 18.156 -0.944
v  7.88 -3.97949e-16 6.499
v  7.669 -3.77191e-16 6.16
v  14.877 -1.2075e-16 1.972
v  13.372 3.95561e-17 -0.646
v  13.891 5.78033e-17 -0.944
v  11.871 2.72974e-16 -4.458
v  11.346 2.54543e-16 -4.157
v  9.966 4.01562e-16 -6.558
v  2.756 -2.93609e-16 4.795
v  3.989 -2.50257e-16 4.087
v  5.997 -4.64202e-16 7.581
v  8.255 3.4137e-16 -5.575
v  8.508 3.11183e-16 -5.082
v  0 0 0
v  4.685 -3.24409e-16 5.298

# 0 UV coordinates

# 29 vertex normals
vn 0 1 0
vn 0.848982 0 -0.528422
vn 0.866956 0 -0.498384
vn 0.866965 0 -0.498369
vn 0.866996 0 -0.498315
vn 0.502379 -0 0.864648
vn 0.497937 -0 0.867213
vn 0.497956 -0 0.867202
vn 0.49822 -0 0.867051
vn -0.497384 0 -0.867531
vn -0.498157 0 -0.867087
vn -0.512803 0 -0.858506
vn -0.512803 5.25683e-17 -0.858506
vn -0.889686 0 0.456573
vn -0.866994 -3.05132e-17 0.498318
vn -0.866994 0 0.498318
vn -0.867007 0 0.498296
vn -0.867025 2.84513e-06 0.498264
vn -0.867019 0 0.498275
vn 3.89552e-19 -1 -6.15492e-17
vn 2.15827e-23 -1 -6.12324e-17
vn -2.18221e-23 -1 -6.12323e-17
vn -4.36327e-24 -1 -6.12323e-17
vn -4.84382e-24 -1 -6.12323e-17
vn 3.5422e-23 -1 -6.12323e-17
vn -3.90625e-23 -1 -6.12323e-17
vn 0 -1 -6.12323e-17
vn 2.31726e-24 -1 -6.12323e-17
vn -2.69293e-23 -1 -6.12323e-17

# Mesh 'defaultobject' with 56 faces
g defaultobject
usemtl DefaultMaterial
f  1//1 2//1 3//1
f  2//1 1//1 4//1
f  2//1 4//1 5//1
f  2//1 5//1 6//1
f  2//1 7//1 8//1
f  7//1 2//1 6//1
f  7//1 6//1 9//1
f  9//1 6//1 10//1
f  9//1 11//1 7//1
f  11//1 9//1 12//1
f  11//1 12//1 13//1
f  11//1 13//1 14//1
f  15//1 14//1 13//1
f  16//2 9//2 10//2
f  9//2 16//2 17//2
f  18//3 13//3 12//3
f  13//3 18//3 19//3
f  20//4 14//4 15//4
f  14//4 20//4 21//4
f  22//5 7//5 11//5
f  7//5 22//5 23//5
f  17//6 12//6 9//6
f  12//6 17//6 18//6
f  19//7 15//7 13//7
f  15//7 19//7 20//7
f  24//8 4//8 1//8
f  4//8 24//8 25//8
f  26//9 10//9 6//9
f  10//9 26//9 16//9
f  21//10 11//10 14//10
f  11//10 21//10 22//10
f  23//11 8//11 7//11
f  8//11 23//11 27//11
f  28//12 3//12 2//12
f  3//12 28//12 29//13
f  27//14 2//14 8//14
f  2//14 27//14 28//14
f  29//15 1//15 3//15
f  1//15 29//15 24//16
f  25//17 5//17 4//17
f  5//18 25//18 6//18
f  6//19 25//19 26//19
f  26//20 25//20 30//20
f  20//21 22//21 21//21
f  22//21 20//21 19//22
f  16//23 30//20 25//20
f  30//20 16//23 26//20
f  22//21 27//24 23//24
f  27//24 22//21 19//22
f  27//24 19//22 18//25
f  27//24 18//25 28//26
f  28//26 18//25 17//27
f  28//26 17//27 29//28
f  29//28 17//27 16//23
f  29//28 16//23 25//20
f  29//28 25//20 24//29

