# File produced by Open Asset Import Library (http://www.assimp.sf.net)
# (assimp v3.1.0)

mtllib ID_58425.obj.mtl

# 8 vertex positions
v  0 3.113 1.90616e-16
v  3.111 3.113 0.774
v  2.798 3.113 -0.629
v  0.291 3.113 1.46
v  2.798 3.85151e-17 -0.629
v  0 0 0
v  0.291 -8.93992e-17 1.46
v  3.111 -4.73938e-17 0.774

# 0 UV coordinates

# 9 vertex normals
vn -0 1 0
vn -0.21933 0 -0.975651
vn -0.21933 5.97414e-17 -0.975651
vn -0.98071 -1.19691e-17 0.19547
vn -0.98071 0 0.19547
vn 0.236369 -0 0.971663
vn 0.976007 0 -0.217741
vn -1.60521e-24 -1 -6.12323e-17
vn -1.53294e-24 -1 -6.12323e-17

# Mesh 'defaultobject' with 12 faces
g defaultobject
usemtl DefaultMaterial
f  1//1 2//1 3//1
f  2//1 1//1 4//1
f  5//2 1//2 3//2
f  1//2 5//2 6//3
f  6//4 4//4 1//4
f  4//4 6//4 7//5
f  7//6 2//6 4//6
f  2//6 7//6 8//6
f  8//7 3//7 2//7
f  3//7 8//7 5//7
f  8//8 6//8 5//8
f  6//8 8//8 7//9

