# File produced by Open Asset Import Library (http://www.assimp.sf.net)
# (assimp v3.1.0)

mtllib _1360.obj.mtl

# 130 vertex positions
v  28.137 21.57 -13.802
v  30.697 21.57 -11.369
v  29.479 21.57 -12.65
v  31.779 21.57 -9.971
v  26.686 21.57 -14.812
v  32.715 21.57 -8.47
v  25.14 21.57 -15.67
v  33.493 21.57 -6.883
v  23.516 21.57 -16.367
v  21.829 21.57 -16.897
v  34.107 21.57 -5.225
v  20.097 21.57 -17.252
v  34.55 21.57 -3.513
v  18.338 21.57 -17.431
v  34.818 21.57 -1.766
v  34.908 21.57 1.32078e-15
v  16.806 21.57 -17.431
v  16.57 21.57 -17.431
v  34.818 21.57 1.766
v  14.811 21.57 -17.252
v  13.079 21.57 -16.897
v  34.55 21.57 3.513
v  11.392 21.57 -16.367
v  34.107 21.57 5.225
v  9.768 21.57 -15.67
v  33.493 21.57 6.883
v  8.222 21.57 -14.812
v  32.771 21.57 8.353
v  32.714 21.57 8.47
v  6.771 21.57 -13.802
v  31.779 21.57 9.971
v  5.429 21.57 -12.65
v  30.697 21.57 11.369
v  4.211 21.57 -11.369
v  29.479 21.57 12.65
v  3.129 21.57 -9.971
v  29.377 21.57 12.737
v  28.137 21.57 13.802
v  2.193 21.57 -8.47
v  26.686 21.57 14.812
v  1.415 21.57 -6.883
v  25.14 21.57 15.67
v  0.801 21.57 -5.225
v  23.516 21.57 16.367
v  0.358 21.57 -3.513
v  21.829 21.57 16.896
v  20.097 21.57 17.252
v  0.09 21.57 -1.766
v  0 21.57 1.32078e-15
v  18.338 21.57 17.431
v  16.57 21.57 17.431
v  0.09 21.57 1.766
v  14.811 21.57 17.252
v  0.358 21.57 3.513
v  0.801 21.57 5.225
v  13.079 21.57 16.896
v  1.415 21.57 6.883
v  11.392 21.57 16.367
v  2.193 21.57 8.47
v  9.767 21.57 15.67
v  3.129 21.57 9.971
v  8.222 21.57 14.812
v  6.77 21.57 13.802
v  4.211 21.57 11.369
v  5.429 21.57 12.65
v  33.493 4.21462e-16 -6.883
v  32.715 5.18638e-16 -8.47
v  31.779 6.10548e-16 -9.971
v  30.697 6.9615e-16 -11.369
v  29.479 7.74589e-16 -12.65
v  28.137 8.45129e-16 -13.802
v  26.686 9.06973e-16 -14.812
v  25.14 9.59511e-16 -15.67
v  23.516 1.00219e-15 -16.367
v  21.829 1.03464e-15 -16.897
v  20.097 1.05638e-15 -17.252
v  18.338 1.06734e-15 -17.431
v  16.57 1.06734e-15 -17.431
v  16.806 1.06734e-15 -17.431
v  14.811 1.05638e-15 -17.252
v  13.079 1.03464e-15 -16.897
v  11.392 1.00219e-15 -16.367
v  9.768 9.59511e-16 -15.67
v  8.222 9.06973e-16 -14.812
v  6.771 8.45129e-16 -13.802
v  5.429 7.74589e-16 -12.65
v  4.211 6.9615e-16 -11.369
v  3.129 6.10548e-16 -9.971
v  2.193 5.18638e-16 -8.47
v  1.415 4.21462e-16 -6.883
v  0.801 3.19939e-16 -5.225
v  0.358 2.15109e-16 -3.513
v  0.09 1.08136e-16 -1.766
v  0 0 0
v  0.09 -1.08136e-16 1.766
v  0.358 -2.15109e-16 3.513
v  0.801 -3.19939e-16 5.225
v  1.415 -4.21462e-16 6.883
v  2.193 -5.18638e-16 8.47
v  3.129 -6.10548e-16 9.971
v  4.211 -6.9615e-16 11.369
v  5.429 -7.74589e-16 12.65
v  6.77 -8.45129e-16 13.802
v  8.222 -9.06973e-16 14.812
v  9.767 -9.59511e-16 15.67
v  11.392 -1.00219e-15 16.367
v  13.079 -1.03458e-15 16.896
v  14.811 -1.05638e-15 17.252
v  16.57 -1.06734e-15 17.431
v  18.338 -1.06734e-15 17.431
v  20.097 -1.05638e-15 17.252
v  21.829 -1.03458e-15 16.896
v  23.516 -1.00219e-15 16.367
v  25.14 -9.59511e-16 15.67
v  26.686 -9.06973e-16 14.812
v  28.137 -8.45129e-16 13.802
v  29.479 -7.74589e-16 12.65
v  29.377 -7.79916e-16 12.737
v  30.697 -6.9615e-16 11.369
v  31.779 -6.10548e-16 9.971
v  32.714 -5.18638e-16 8.47
v  33.493 -4.21462e-16 6.883
v  32.771 -5.11474e-16 8.353
v  34.107 3.19939e-16 -5.225
v  34.107 -3.19939e-16 5.225
v  34.55 -2.15109e-16 3.513
v  34.818 -1.08136e-16 1.766
v  34.908 0 0
v  34.818 1.08136e-16 -1.766
v  34.55 2.15109e-16 -3.513

# 0 UV coordinates

# 120 vertex normals
vn 0 1 0
vn 0.897908 0 -0.440184
vn 0.848537 0 -0.529135
vn 0.790812 0 -0.612058
vn 0.724702 0 -0.689062
vn 0.65135 0 -0.758778
vn 0.571297 0 -0.820743
vn 0.485258 0 -0.874371
vn 0.394398 0 -0.91894
vn 0.299723 0 -0.954026
vn 0.200792 0 -0.979634
vn 0.101239 0 -0.994862
vn 0 0 -1
vn -0.101239 0 -0.994862
vn -0.200792 0 -0.979634
vn -0.299723 0 -0.954026
vn -0.394397 0 -0.91894
vn -0.485259 0 -0.874371
vn -0.571297 0 -0.820744
vn -0.65135 0 -0.758777
vn -0.724702 0 -0.689062
vn -0.790812 0 -0.612059
vn -0.848538 0 -0.529135
vn -0.897908 0 -0.440184
vn -0.937762 0 -0.347277
vn -0.968114 0 -0.250511
vn -0.988437 0 -0.151632
vn -0.998704 0 -0.0508966
vn -0.998704 3.11652e-18 -0.0508966
vn -0.998704 -3.11652e-18 0.0508966
vn -0.998704 0 0.0508966
vn -0.988437 0 0.151632
vn -0.968114 0 0.250511
vn -0.937762 0 0.347277
vn -0.897908 0 0.440184
vn -0.848538 0 0.529135
vn -0.790812 0 0.612059
vn -0.724702 0 0.689062
vn -0.65163 0 0.758537
vn -0.571031 0 0.820928
vn -0.485499 0 0.874237
vn -0.394193 0 0.919028
vn -0.299208 0 0.954188
vn -0.201334 0 0.979523
vn -0.101239 0 0.994862
vn 0 0 1
vn 0.101239 -0 0.994862
vn 0.201334 -0 0.979523
vn 0.299208 -0 0.954188
vn 0.394398 -0 0.91894
vn 0.485258 -0 0.874371
vn 0.571297 -0 0.820743
vn 0.651546 -0 0.758609
vn 0.648949 0.000259112 0.760832
vn 0.65135 0 0.758778
vn 3.86391e-21 -1 -6.12275e-17
vn 0.724702 -0 0.689062
vn 0.790812 -0 0.612058
vn 0.848791 -0 0.528728
vn 0.898993 -0 0.437963
vn 0.89758 1.94081e-05 0.440852
vn 0.897684 0 0.44064
vn 1.93049e-20 -1 -6.12157e-17
vn 0.937763 0 -0.347277
vn 0.937763 -0 0.347277
vn 0.968114 -0 0.250511
vn 0.988437 -0 0.151633
vn 0.998704 -0 0.0508967
vn 0.998704 -3.11652e-18 0.0508967
vn 0.998704 3.11652e-18 -0.0508967
vn 0.998704 0 -0.0508967
vn 0.988437 0 -0.151633
vn 0.968114 0 -0.250511
vn 0 -1 -6.12324e-17
vn 5.61567e-23 -1 -6.12324e-17
vn 0 -1 -6.12323e-17
vn 0 -1 -6.12323e-17
vn 1.65068e-23 -1 -6.12324e-17
vn 0 -1 -6.12323e-17
vn -6.91411e-23 -1 -6.12323e-17
vn 1.20356e-22 -1 -6.12324e-17
vn -1.06922e-22 -1 -6.12323e-17
vn -5.67811e-23 -1 -6.12323e-17
vn -7.84975e-23 -1 -6.12324e-17
vn 8.60455e-24 -1 -6.12323e-17
vn -3.78091e-23 -1 -6.12323e-17
vn 3.86054e-23 -1 -6.12324e-17
vn 0 -1 -6.12323e-17
vn 3.57008e-23 -1 -6.12323e-17
vn -7.39981e-23 -1 -6.12323e-17
vn -4.91729e-23 -1 -6.12323e-17
vn 4.5502e-23 -1 -6.12323e-17
vn 0 -1 -6.12323e-17
vn -3.01244e-23 -1 -6.12323e-17
vn -1.11641e-22 -1 -6.12323e-17
vn -2.76209e-23 -1 -6.12323e-17
vn 1.09986e-22 -1 -6.12324e-17
vn 1.0994e-22 -1 -6.12324e-17
vn 2.59111e-23 -1 -6.12324e-17
vn -6.97774e-24 -1 -6.12323e-17
vn -1.13387e-22 -1 -6.12323e-17
vn 3.25678e-23 -1 -6.12323e-17
vn -5.3668e-23 -1 -6.12323e-17
vn 0 -1 -6.12323e-17
vn 3.32755e-23 -1 -6.12324e-17
vn -1.3987e-22 -1 -6.12322e-17
vn -4.62488e-24 -1 -6.12323e-17
vn 0 -1 -6.12324e-17
vn -1.58492e-23 -1 -6.12323e-17
vn 9.98024e-23 -1 -6.12324e-17
vn 7.64604e-24 -1 -6.12323e-17
vn 9.81219e-24 -1 -6.12323e-17
vn -9.07603e-23 -1 -6.12323e-17
vn 1.33667e-23 -1 -6.12323e-17
vn 6.42601e-23 -1 -6.12324e-17
vn -9.87115e-24 -1 -6.12323e-17
vn -1.00203e-22 -1 -6.12323e-17
vn -2.28758e-23 -1 -6.12323e-17
vn 0 -1 -6.12324e-17
vn -2.82003e-23 -1 -6.12323e-17

# Mesh 'defaultobject' with 256 faces
g defaultobject
usemtl DefaultMaterial
f  1//1 2//1 3//1
f  2//1 1//1 4//1
f  4//1 1//1 5//1
f  4//1 5//1 6//1
f  6//1 5//1 7//1
f  6//1 7//1 8//1
f  8//1 7//1 9//1
f  8//1 9//1 10//1
f  8//1 10//1 11//1
f  11//1 10//1 12//1
f  11//1 12//1 13//1
f  13//1 12//1 14//1
f  13//1 14//1 15//1
f  15//1 14//1 16//1
f  16//1 14//1 17//1
f  16//1 17//1 18//1
f  16//1 18//1 19//1
f  19//1 18//1 20//1
f  19//1 20//1 21//1
f  19//1 21//1 22//1
f  22//1 21//1 23//1
f  22//1 23//1 24//1
f  24//1 23//1 25//1
f  24//1 25//1 26//1
f  26//1 25//1 27//1
f  26//1 27//1 28//1
f  28//1 27//1 29//1
f  29//1 27//1 30//1
f  29//1 30//1 31//1
f  31//1 30//1 32//1
f  31//1 32//1 33//1
f  33//1 32//1 34//1
f  33//1 34//1 35//1
f  35//1 34//1 36//1
f  35//1 36//1 37//1
f  37//1 36//1 38//1
f  38//1 36//1 39//1
f  38//1 39//1 40//1
f  40//1 39//1 41//1
f  40//1 41//1 42//1
f  42//1 41//1 43//1
f  42//1 43//1 44//1
f  44//1 43//1 45//1
f  44//1 45//1 46//1
f  46//1 45//1 47//1
f  47//1 45//1 48//1
f  47//1 48//1 49//1
f  47//1 49//1 50//1
f  50//1 49//1 51//1
f  51//1 49//1 52//1
f  51//1 52//1 53//1
f  53//1 52//1 54//1
f  53//1 54//1 55//1
f  53//1 55//1 56//1
f  56//1 55//1 57//1
f  56//1 57//1 58//1
f  58//1 57//1 59//1
f  58//1 59//1 60//1
f  60//1 59//1 61//1
f  60//1 61//1 62//1
f  62//1 61//1 63//1
f  63//1 61//1 64//1
f  63//1 64//1 65//1
f  66//2 6//2 8//2
f  6//2 66//2 67//2
f  67//3 4//3 6//3
f  4//3 67//3 68//3
f  68//4 2//4 4//4
f  2//4 68//4 69//4
f  69//5 3//5 2//5
f  3//5 69//5 70//5
f  70//6 1//6 3//6
f  1//6 70//6 71//6
f  71//7 5//7 1//7
f  5//7 71//7 72//7
f  72//8 7//8 5//8
f  7//8 72//8 73//8
f  73//9 9//9 7//9
f  9//9 73//9 74//9
f  74//10 10//10 9//10
f  10//10 74//10 75//10
f  75//11 12//11 10//11
f  12//11 75//11 76//11
f  76//12 14//12 12//12
f  14//12 76//12 77//12
f  77//13 17//13 14//13
f  17//13 77//13 18//13
f  18//13 77//13 78//13
f  78//13 77//12 79//13
f  78//14 20//14 18//14
f  20//14 78//14 80//14
f  80//15 21//15 20//15
f  21//15 80//15 81//15
f  81//16 23//16 21//16
f  23//16 81//16 82//16
f  82//17 25//17 23//17
f  25//17 82//17 83//17
f  83//18 27//18 25//18
f  27//18 83//18 84//18
f  84//19 30//19 27//19
f  30//19 84//19 85//19
f  85//20 32//20 30//20
f  32//20 85//20 86//20
f  86//21 34//21 32//21
f  34//21 86//21 87//21
f  87//22 36//22 34//22
f  36//22 87//22 88//22
f  88//23 39//23 36//23
f  39//23 88//23 89//23
f  89//24 41//24 39//24
f  41//24 89//24 90//24
f  90//25 43//25 41//25
f  43//25 90//25 91//25
f  91//26 45//26 43//26
f  45//26 91//26 92//26
f  92//27 48//27 45//27
f  48//27 92//27 93//27
f  93//28 49//28 48//28
f  49//28 93//28 94//29
f  94//30 52//30 49//30
f  52//30 94//30 95//31
f  95//32 54//32 52//32
f  54//32 95//32 96//32
f  96//33 55//33 54//33
f  55//33 96//33 97//33
f  97//34 57//34 55//34
f  57//34 97//34 98//34
f  98//35 59//35 57//35
f  59//35 98//35 99//35
f  99//36 61//36 59//36
f  61//36 99//36 100//36
f  100//37 64//37 61//37
f  64//37 100//37 101//37
f  101//38 65//38 64//38
f  65//38 101//38 102//38
f  102//39 63//39 65//39
f  63//39 102//39 103//39
f  103//40 62//40 63//40
f  62//40 103//40 104//40
f  104//41 60//41 62//41
f  60//41 104//41 105//41
f  105//42 58//42 60//42
f  58//42 105//42 106//42
f  106//43 56//43 58//43
f  56//43 106//43 107//43
f  107//44 53//44 56//44
f  53//44 107//44 108//44
f  108//45 51//45 53//45
f  51//45 108//45 109//45
f  109//46 50//46 51//46
f  50//46 109//46 110//46
f  110//47 47//47 50//47
f  47//47 110//47 111//47
f  111//48 46//48 47//48
f  46//48 111//48 112//48
f  112//49 44//49 46//49
f  44//49 112//49 113//49
f  113//50 42//50 44//50
f  42//50 113//50 114//50
f  114//51 40//51 42//51
f  40//51 114//51 115//51
f  115//52 38//52 40//52
f  38//52 115//52 116//52
f  116//53 37//53 38//53
f  37//54 116//54 35//54
f  35//55 116//55 117//55
f  117//56 116//56 118//56
f  117//57 33//57 35//57
f  33//57 117//57 119//57
f  119//58 31//58 33//58
f  31//58 119//58 120//58
f  120//59 29//59 31//59
f  29//59 120//59 121//59
f  121//60 28//60 29//60
f  28//61 121//61 26//61
f  26//62 121//62 122//62
f  122//63 121//63 123//63
f  124//64 8//64 11//64
f  8//64 124//64 66//64
f  122//65 24//65 26//65
f  24//65 122//65 125//65
f  125//66 22//66 24//66
f  22//66 125//66 126//66
f  126//67 19//67 22//67
f  19//67 126//67 127//67
f  127//68 16//68 19//68
f  16//68 127//68 128//69
f  128//70 15//70 16//70
f  15//70 128//70 129//71
f  129//72 13//72 15//72
f  13//72 129//72 130//72
f  130//73 11//73 13//73
f  11//73 130//73 124//73
f  124//74 67//74 66//74
f  67//74 124//74 130//74
f  67//74 130//74 68//75
f  68//75 130//74 129//76
f  68//75 129//76 128//77
f  68//75 128//77 69//78
f  69//78 128//77 127//79
f  69//78 127//79 70//80
f  70//80 127//79 71//81
f  71//81 127//79 126//82
f  71//81 126//82 72//83
f  72//83 126//82 125//84
f  72//83 125//84 73//85
f  73//85 125//84 122//63
f  73//85 122//63 74//86
f  74//86 122//63 123//63
f  74//86 123//63 121//63
f  74//86 121//63 75//87
f  75//87 121//63 120//88
f  75//87 120//88 76//89
f  76//89 120//88 119//90
f  76//89 119//90 77//91
f  77//91 119//90 117//56
f  77//91 117//56 79//30
f  79//30 117//56 118//56
f  79//30 118//56 116//56
f  79//30 116//56 78//79
f  78//79 116//56 80//92
f  80//92 116//56 115//93
f  80//92 115//93 81//94
f  81//94 115//93 114//95
f  81//94 114//95 82//96
f  82//96 114//95 113//97
f  82//96 113//97 112//98
f  82//96 112//98 83//99
f  83//99 112//98 84//100
f  84//100 112//98 111//101
f  84//100 111//101 85//102
f  85//102 111//101 110//93
f  85//102 110//93 86//103
f  86//103 110//93 109//104
f  86//103 109//104 87//105
f  87//105 109//104 108//106
f  87//105 108//106 88//107
f  88//107 108//106 107//108
f  88//107 107//108 89//109
f  89//109 107//108 106//79
f  89//109 106//79 105//110
f  89//109 105//110 90//104
f  90//104 105//110 91//111
f  91//111 105//110 104//79
f  91//111 104//79 92//112
f  92//112 104//79 103//113
f  92//112 103//113 93//114
f  93//114 103//113 102//115
f  93//114 102//115 94//116
f  94//116 102//115 101//117
f  94//116 101//117 100//76
f  94//116 100//76 95//118
f  95//118 100//76 99//119
f  95//118 99//119 96//120
f  96//120 99//119 97//93
f  97//93 99//119 98//93

