# {"id":"ID_17732","idOriginal":"ID_17732","origin":[14.353677142521827,48.2525477175187],"elevation":252.891}
# Longitude: 14.353677142521827
# Latitude: 48.2525477175187
# Elevation: 252.891

# File produced by Open Asset Import Library (http://www.assimp.sf.net)
# (assimp v3.1.0)

mtllib ID_17732.obj.mtl

# 16 vertex positions
v  1.567 11.467 5.652
v  13.384 7.556 -3.71
v  0 7.487 4.58447e-16
v  14.923 11.467 1.844
v  8.619 7.53 9.675
v  3.106 7.558 11.203
v  11.654 7.583 8.728
v  16.462 7.558 7.395
v  0 0 0
v  1.567 -3.46085e-16 5.652
v  3.106 -6.85986e-16 11.203
v  8.619 -5.92423e-16 9.675
v  11.654 -5.34436e-16 8.728
v  16.462 -4.52813e-16 7.395
v  14.923 -1.12912e-16 1.844
v  13.384 2.27172e-16 -3.71

# 0 UV coordinates

# 25 vertex normals
vn -0.153952 0.827466 -0.539999
vn -0.153966 0.827455 -0.540012
vn 0.153879 0.827458 0.540031
vn 0.153948 0.827498 0.53995
vn 0.154045 0.827446 0.540002
vn 0.154014 0.827458 0.539994
vn -0.96365 -1.63594e-17 0.267169
vn -0.96365 -1.28612e-07 0.267169
vn -0.96365 2.58162e-07 0.267169
vn -0.96365 0 0.267169
vn 0.267094 -0 0.963671
vn 0.297863 0 0.954609
vn 0.267168 -0 0.96365
vn 0.267168 0 0.96365
vn 0.96365 0 -0.267169
vn 0.963677 5.20441e-05 -0.267069
vn 0.96365 -0.000106004 -0.267169
vn 0.963687 0 -0.267035
vn -0.267124 0 -0.963662
vn -0.267124 5.90073e-17 -0.963662
vn 0 -1 -6.12323e-17
vn -1.18984e-23 -1 -6.12324e-17
vn -5.29163e-24 -1 -6.12323e-17
vn 1.05873e-23 -1 -6.12323e-17
vn 0 -1 -6.12323e-17

# Mesh 'defaultobject' with 28 faces
g defaultobject
usemtl DefaultMaterial
f  1//1 2//1 3//1
f  2//2 1//2 4//2
f  5//3 1//3 6//3
f  1//4 5//4 4//4
f  4//5 5//5 7//5
f  4//6 7//6 8//6
f  9//7 1//7 3//7
f  1//7 9//7 6//8
f  6//8 9//7 10//9
f  6//8 10//9 11//10
f  11//11 5//11 6//11
f  5//11 11//11 12//11
f  5//12 13//12 7//12
f  13//12 5//12 12//12
f  13//13 8//13 7//13
f  8//13 13//13 14//14
f  14//15 4//15 8//15
f  4//16 14//16 2//16
f  2//17 14//17 15//17
f  2//18 15//18 16//18
f  16//19 3//19 2//19
f  3//19 16//19 9//20
f  13//21 15//21 14//21
f  15//21 13//21 12//22
f  15//21 12//22 11//21
f  15//21 11//21 16//23
f  16//23 11//21 10//24
f  16//23 10//24 9//25

