# {"id":"ID_33172","idOriginal":"ID_33172","origin":[14.30597074537639,48.26859981118198],"elevation":261.498}
# Longitude: 14.30597074537639
# Latitude: 48.26859981118198
# Elevation: 261.498

# File produced by Open Asset Import Library (http://www.assimp.sf.net)
# (assimp v3.1.0)

mtllib ID_33172.obj.mtl

# 14 vertex positions
v  0 2.746 1.68144e-16
v  8.604 4.904 0.285
v  7.565 2.746 -2.655
v  9.71 7.201 3.414
v  2.18 7.236 6.11
v  1.061 4.985 3.056
v  2.06 7.006 5.801
v  2.18 -3.7413e-16 6.11
v  9.71 -2.09047e-16 3.414
v  8.604 -1.74512e-17 0.285
v  7.565 1.62572e-16 -2.655
v  0 0 0
v  2.06 -3.55209e-16 5.801
v  1.061 -1.87126e-16 3.056

# 0 UV coordinates

# 24 vertex normals
vn -0.188453 0.822284 -0.536968
vn -0.188445 0.822258 -0.537011
vn -0.188446 0.822258 -0.537009
vn -0.188638 0.822258 -0.536942
vn -0.271522 0.819557 -0.504581
vn 0.337081 -0 0.941476
vn 0.337081 0 0.941476
vn 0.942834 0 -0.333261
vn 0.942848 2.71087e-05 -0.333224
vn 0.942834 -6.68175e-05 -0.333261
vn 0.942854 0 -0.333206
vn -0.331156 0 -0.943576
vn -0.331156 5.77774e-17 -0.943576
vn -0.932174 0 0.36201
vn -0.932174 0 0.36201
vn -0.944684 -2.0083e-17 0.327981
vn -0.935349 -0.0175042 0.353293
vn -0.944666 0.00619908 0.327975
vn -0.939703 0 0.34199
vn -2.64702e-25 -1 -6.12323e-17
vn -2.48713e-25 -1 -6.12323e-17
vn 0 -1 -6.12323e-17
vn 0 -1 -6.12322e-17
vn -2.55632e-21 -1 -6.12316e-17

# Mesh 'defaultobject' with 24 faces
g defaultobject
usemtl DefaultMaterial
f  1//1 2//1 3//1
f  2//2 1//2 4//2
f  4//2 1//2 5//3
f  5//4 1//4 6//4
f  5//5 6//5 7//5
f  8//6 4//6 5//6
f  4//6 8//6 9//7
f  9//8 2//8 4//8
f  2//9 9//9 3//9
f  3//10 9//10 10//10
f  3//11 10//11 11//11
f  11//12 1//12 3//12
f  1//12 11//12 12//13
f  7//14 8//14 5//14
f  8//14 7//14 13//15
f  12//16 6//16 1//16
f  6//17 12//17 7//17
f  7//18 12//18 14//18
f  7//19 14//19 13//19
f  10//20 12//20 11//20
f  12//20 10//20 9//21
f  12//20 9//21 8//22
f  12//20 8//22 14//23
f  14//23 8//22 13//24

