# {"id":"ID_30515","idOriginal":"ID_30515","origin":[14.280257007238335,48.2471208202716],"elevation":266.493,"wof":[{"Id":85681677,"Name":"Oberösterreich","Placetype":"region","Offset":-1},{"Id":85898447,"Name":"Scharlinz","Placetype":"neighbourhood","Offset":-1},{"Id":102049853,"Name":"Linz","Placetype":"county","Offset":-1},{"Id":101748071,"Name":"Linz","Placetype":"locality","Offset":-1},{"Id":85632785,"Name":"Austria","Placetype":"country","Offset":-1}]}

# Attribution: City of Linz <http://geo.data.linz.gv.at/katalog/geodata/3d_geo_daten_lod2/>
# Longitude: 14.280257007238335
# Latitude: 48.2471208202716
# Elevation: 266.493

# File produced by Open Asset Import Library (http://www.assimp.sf.net)
# (assimp v3.1.0)


# 12 vertex positions
v  8.478 3.044 -4.163
v  7.274 4.865 4.1
v  11.513 3.044 2.019
v  4.239 4.865 -2.082
v  0 3.044 1.86391e-16
v  3.035 3.044 6.181
v  3.035 -3.78477e-16 6.181
v  7.274 -2.51053e-16 4.1
v  11.513 -1.23628e-16 2.019
v  8.478 2.5491e-16 -4.163
v  4.239 1.27486e-16 -2.082
v  0 0 0

# 0 UV coordinates

# 16 vertex normals
vn 0.322973 0.933031 -0.158561
vn 0.322973 0.933031 -0.158561
vn -0.322947 0.933042 0.158548
vn -0.322963 0.933031 0.158582
vn 0.440679 -0 0.897665
vn 0.440679 0 0.897665
vn 0.897656 0 -0.440697
vn -0.440679 0 -0.897665
vn -0.44085 -0 -0.897581
vn -0.44085 5.4961e-17 -0.897581
vn -0.897628 -2.69884e-17 0.440754
vn -0.897628 0 0.440754
vn 3.25568e-24 -1 -6.12323e-17
vn 0 -1 -6.12323e-17
vn -3.25595e-24 -1 -6.12323e-17
vn 0 -1 -6.12046e-17

# Mesh 'defaultobject' with 20 faces
g defaultobject
usemtl DefaultMaterial
f  1//1 2//1 3//1
f  2//1 1//1 4//2
f  5//3 2//3 4//3
f  2//4 5//4 6//4
f  7//5 2//5 6//5
f  2//5 7//5 8//6
f  2//5 8//6 3//6
f  3//6 8//6 9//5
f  9//7 1//7 3//7
f  1//7 9//7 10//7
f  10//8 4//8 1//8
f  4//8 10//8 11//8
f  4//9 11//9 5//9
f  5//9 11//9 12//10
f  12//11 6//11 5//11
f  6//11 12//11 7//12
f  8//13 10//13 9//13
f  10//13 8//13 7//14
f  10//13 7//14 12//15
f  10//13 12//15 11//16

