# File produced by Open Asset Import Library (http://www.assimp.sf.net)
# (assimp v3.1.0)

mtllib ID_26762.obj.mtl

# 14 vertex positions
v  8.322 25.982 16.074
v  0.777 25.41 3.733
v  3.552 25.396 17.067
v  5.341 25.978 2.53
v  0 25.415 1.55622e-15
v  6.22 26.084 2.441
v  5.475 26.088 -1.14
v  8.322 -9.84249e-16 16.074
v  3.552 -1.04505e-15 17.067
v  6.22 -1.49468e-16 2.441
v  5.341 -1.54918e-16 2.53
v  5.475 6.98049e-17 -1.14
v  0 0 0
v  0.777 -2.2858e-16 3.733

# 0 UV coordinates

# 22 vertex normals
vn -0.116699 0.992844 0.0253292
vn -0.116857 0.992823 0.0254268
vn -0.116801 0.992824 0.0256414
vn -0.117066 0.992778 0.0262111
vn -0.116753 0.992836 0.0253985
vn 0.203807 0 0.979011
vn 0.203807 0 0.979011
vn 0.100736 0 0.994913
vn 0.100736 0 0.994913
vn 0.976624 0 -0.214953
vn 0.976625 0 -0.214953
vn 0.979037 0 -0.203681
vn 0.979037 0 -0.203681
vn -0.203847 0 -0.979003
vn -0.203847 5.99466e-17 -0.979003
vn -0.979017 -1.24777e-17 0.203776
vn -0.979023 4.16594e-06 0.203749
vn -0.979022 0 0.203755
vn 0 -1 -6.13853e-17
vn 2.58806e-24 -1 -6.12323e-17
vn 9.80646e-24 -1 -6.12324e-17
vn 1.61892e-24 -1 -6.12323e-17

# Mesh 'defaultobject' with 24 faces
g defaultobject
usemtl DefaultMaterial
f  1//1 2//1 3//1
f  2//2 1//2 4//2
f  2//3 4//3 5//3
f  5//4 4//4 6//4
f  5//5 6//5 7//5
f  3//6 8//6 1//6
f  8//6 3//6 9//7
f  4//8 10//8 6//8
f  10//8 4//8 11//9
f  8//10 4//10 1//10
f  4//10 8//10 11//11
f  6//12 12//12 7//12
f  12//12 6//12 10//13
f  12//14 5//14 7//14
f  5//14 12//14 13//15
f  13//16 2//16 5//16
f  2//17 13//17 3//17
f  3//17 13//17 9//18
f  9//19 13//19 14//19
f  10//20 13//19 12//20
f  13//19 10//20 11//21
f  13//19 11//21 14//19
f  14//19 11//21 8//22
f  14//19 8//22 9//19

