# File produced by Open Asset Import Library (http://www.assimp.sf.net)
# (assimp v3.1.0)

mtllib ID_37769.obj.mtl

# 12 vertex positions
v  0.466 3.141 2.938
v  0.374 3.141 2.477
v  0.444 3.141 2.942
v  11.987 3.141 0.941
v  0 3.141 1.92331e-16
v  11.378 3.141 -2.103
v  0.444 -1.80146e-16 2.942
v  11.987 -5.76196e-17 0.941
v  0.466 -1.79901e-16 2.938
v  11.378 1.28772e-16 -2.103
v  0 0 0
v  0.374 -1.51673e-16 2.477

# 0 UV coordinates

# 15 vertex normals
vn 0 1 0
vn 0.178883 -0 0.98387
vn 0.170789 5.85246e-05 0.985308
vn 0.170804 0 0.985305
vn 0 -1 -6.11705e-17
vn 0.980568 0 -0.196178
vn -0.181752 0 -0.983344
vn -0.181752 6.02125e-17 -0.983344
vn -0.988858 0 0.14886
vn -0.988792 6.60856e-05 0.149297
vn -0.988858 -0.000352054 0.14886
vn -0.988792 0 0.149297
vn -7.87042e-23 -1 -6.12323e-17
vn 0 -1 -6.12323e-17
vn -1.8274e-24 -1 -6.12323e-17

# Mesh 'defaultobject' with 20 faces
g defaultobject
usemtl DefaultMaterial
f  1//1 2//1 3//1
f  2//1 1//1 4//1
f  2//1 4//1 5//1
f  5//1 4//1 6//1
f  7//2 1//2 3//2
f  1//3 7//3 4//3
f  4//4 7//4 8//4
f  8//5 7//5 9//5
f  8//6 6//6 4//6
f  6//6 8//6 10//6
f  10//7 5//7 6//7
f  5//7 10//7 11//8
f  2//9 7//9 3//9
f  7//10 2//10 5//10
f  7//11 5//11 12//11
f  12//12 5//12 11//12
f  12//13 9//5 7//5
f  9//5 12//13 8//5
f  8//5 12//13 10//14
f  10//14 12//13 11//15

