# File produced by Open Asset Import Library (http://www.assimp.sf.net)
# (assimp v3.1.0)

mtllib ID_55062.obj.mtl

# 10 vertex positions
v  1.511 6.962 -0.25
v  0.92 6.962 4.885
v  2.323 6.962 4.652
v  0.749 6.962 4.212
v  0 6.962 4.263e-16
v  0.92 -2.9912e-16 4.885
v  2.323 -2.84853e-16 4.652
v  1.511 1.53081e-17 -0.25
v  0 0 0
v  0.749 -2.57911e-16 4.212

# 0 UV coordinates

# 11 vertex normals
vn 0 1 -0
vn 0.163829 -0 0.986489
vn 0.986557 0 -0.16342
vn -0.163234 0 -0.986587
vn -0.163234 6.04111e-17 -0.986587
vn -0.969203 0 0.246261
vn -0.984554 -1.07205e-17 0.175079
vn -0.984554 0 0.175079
vn -1.40464e-23 -1 -6.12323e-17
vn 8.29885e-23 -1 -6.12323e-17
vn 0 -1 -6.12323e-17

# Mesh 'defaultobject' with 16 faces
g defaultobject
usemtl DefaultMaterial
f  1//1 2//1 3//1
f  2//1 1//1 4//1
f  4//1 1//1 5//1
f  6//2 3//2 2//2
f  3//2 6//2 7//2
f  7//3 1//3 3//3
f  1//3 7//3 8//3
f  8//4 5//4 1//4
f  5//4 8//4 9//5
f  10//6 2//6 4//6
f  2//6 10//6 6//6
f  9//7 4//7 5//7
f  4//7 9//7 10//8
f  6//9 8//9 7//9
f  8//9 6//9 10//10
f  8//9 10//10 9//11

