# {"id":"ID_45327","idOriginal":"ID_45327","origin":[14.331177937243694,48.27760723863848],"elevation":256.035}
# Longitude: 14.331177937243694
# Latitude: 48.27760723863848
# Elevation: 256.035

# File produced by Open Asset Import Library (http://www.assimp.sf.net)
# (assimp v3.1.0)

mtllib ID_45327.obj.mtl

# 8 vertex positions
v  0 3.253 1.99189e-16
v  7.593 5.461 1.071
v  7.062 3.253 -1.594
v  0.553 5.491 2.698
v  7.062 9.76044e-17 -1.594
v  0 0 0
v  0.553 -1.65205e-16 2.698
v  7.593 -6.55798e-17 1.071

# 0 UV coordinates

# 12 vertex normals
vn -0.138873 0.775998 -0.615258
vn -0.13888 0.776012 -0.615239
vn -0.220176 0 -0.97546
vn -0.220176 5.97297e-17 -0.97546
vn -0.979634 0 0.200792
vn -0.979634 0 0.200792
vn 0.225173 -0 0.974319
vn 0.225173 0 0.974319
vn 0.980722 0 -0.195408
vn 0.980722 0 -0.195408
vn 0 -1 -6.12323e-17
vn 6.65282e-25 -1 -6.12323e-17

# Mesh 'defaultobject' with 12 faces
g defaultobject
usemtl DefaultMaterial
f  1//1 2//1 3//1
f  2//2 1//2 4//2
f  5//3 1//3 3//3
f  1//3 5//3 6//4
f  1//5 7//5 4//5
f  7//5 1//5 6//6
f  7//7 2//7 4//7
f  2//7 7//7 8//8
f  8//9 3//9 2//9
f  3//9 8//9 5//10
f  8//11 6//11 5//11
f  6//11 8//11 7//12

