# File produced by Open Asset Import Library (http://www.assimp.sf.net)
# (assimp v3.1.0)

mtllib _11852.obj.mtl

# 20 vertex positions
v  20.045 8.341 6.423
v  4.841 8.41 12.422
v  4.882 8.341 12.532
v  4.66 8.706 11.957
v  2.441 12.33 6.262
v  17.523 12.33 0.185
v  19.894 8.669 5.887
v  19.976 8.543 6.084
v  14.938 8.339 -6.031
v  0 8.346 5.11045e-16
v  0 0 0
v  14.938 3.69292e-16 -6.031
v  2.441 -3.83437e-16 6.262
v  4.66 -7.32155e-16 11.957
v  4.882 -7.67364e-16 12.532
v  4.841 -7.60628e-16 12.422
v  20.045 -3.93295e-16 6.423
v  19.976 -3.72538e-16 6.084
v  19.894 -3.60475e-16 5.887
v  17.523 -1.1328e-17 0.185

# 0 UV coordinates

# 33 vertex normals
vn 0.189411 0.862032 0.470133
vn 0.190638 0.860045 0.473265
vn 0.19058 0.86015 0.473097
vn 0.190591 0.860195 0.473012
vn 0.193169 0.860193 0.471968
vn 0.176948 0.860917 0.476981
vn -0.190596 0.860187 -0.473024
vn -0.190563 0.860209 -0.472997
vn -0.374375 0 -0.927278
vn -0.374375 0 -0.927278
vn -0.931714 -2.22392e-17 0.363193
vn -0.931755 6.13416e-05 0.363088
vn -0.931714 -0.000104539 0.363193
vn -0.931768 0 0.363054
vn -0.931892 0 0.362737
vn -0.936857 0.000827065 0.349711
vn -0.932885 0 0.360175
vn 1.37046e-20 -1 -6.12375e-17
vn 0.373699 -0 0.92755
vn 0.923214 0 -0.384285
vn 0.923357 9.1267e-06 -0.383943
vn 0.923343 -9.94072e-06 -0.383977
vn 0.923214 -0.00053595 -0.384287
vn 0.923355 3.01126e-05 -0.383948
vn 0.92334 0 -0.383983
vn 0.979908 0 -0.199451
vn -5.17421e-23 -1 -6.12325e-17
vn -5.96181e-25 -1 -6.12323e-17
vn -6.62689e-25 -1 -6.12323e-17
vn -1.95315e-24 -1 -6.12323e-17
vn 3.39838e-22 -1 -6.12325e-17
vn 0 -1 -6.12324e-17
vn 0 -1 -6.12466e-17

# Mesh 'defaultobject' with 36 faces
g defaultobject
usemtl DefaultMaterial
f  1//1 2//1 3//1
f  2//2 1//2 4//2
f  4//3 1//3 5//3
f  5//4 1//4 6//4
f  6//5 1//5 7//5
f  7//6 1//6 8//6
f  9//7 5//7 6//7
f  5//8 9//8 10//8
f  9//9 11//9 10//9
f  11//9 9//9 12//10
f  11//11 5//11 10//11
f  5//12 11//12 4//12
f  4//13 11//13 13//13
f  4//14 13//14 14//14
f  4//15 14//15 2//15
f  2//16 14//16 3//16
f  3//17 14//17 15//17
f  15//18 14//18 16//18
f  15//19 1//19 3//19
f  1//19 15//19 17//19
f  18//20 7//20 8//20
f  7//21 18//21 6//21
f  6//22 18//22 9//22
f  9//23 18//23 19//23
f  9//24 19//24 20//24
f  9//25 20//25 12//25
f  1//26 18//26 8//26
f  18//26 1//26 17//26
f  16//18 17//27 15//18
f  17//27 16//18 14//18
f  17//27 14//18 13//28
f  17//27 13//28 11//29
f  17//27 11//29 12//30
f  17//27 12//30 19//31
f  17//27 19//31 18//32
f  19//31 12//30 20//33

