# File produced by Open Asset Import Library (http://www.assimp.sf.net)
# (assimp v3.1.0)

mtllib _12632.obj.mtl

# 12 vertex positions
v  0 5.017 3.07203e-16
v  9.903 5.017 -6.999
v  9.464 5.017 -8.127
v  16.671 5.017 10.388
v  5.892 5.017 14.925
v  0.656 5.017 1.806
v  5.892 -9.13893e-16 14.925
v  16.671 -6.36082e-16 10.388
v  9.903 4.28565e-16 -6.999
v  9.464 4.97635e-16 -8.127
v  0 0 0
v  0.656 -1.10586e-16 1.806

# 0 UV coordinates

# 12 vertex normals
vn 0 1 0
vn 0.387946 -0 0.921682
vn 0.931889 0 -0.362744
vn 0.931912 0 -0.362686
vn -0.651484 0 -0.758662
vn -0.651484 4.64547e-17 -0.758662
vn -0.92876 0 0.370683
vn -0.939915 -2.09053e-17 0.341409
vn -0.939915 0 0.341409
vn -7.43369e-24 -1 -6.12323e-17
vn 1.929e-24 -1 -6.12323e-17
vn 0 -1 -6.12323e-17

# Mesh 'defaultobject' with 20 faces
g defaultobject
usemtl DefaultMaterial
f  1//1 2//1 3//1
f  2//1 1//1 4//1
f  4//1 1//1 5//1
f  5//1 1//1 6//1
f  7//2 4//2 5//2
f  4//2 7//2 8//2
f  8//3 2//3 4//3
f  2//3 8//3 9//3
f  2//4 9//4 3//4
f  3//4 9//4 10//4
f  10//5 1//5 3//5
f  1//5 10//5 11//6
f  12//7 5//7 6//7
f  5//7 12//7 7//7
f  11//8 6//8 1//8
f  6//8 11//8 12//9
f  9//10 11//10 10//10
f  11//10 9//10 8//11
f  11//10 8//11 12//12
f  12//12 8//11 7//12

