# File produced by Open Asset Import Library (http://www.assimp.sf.net)
# (assimp v3.1.0)

mtllib _13278.obj.mtl

# 48 vertex positions
v  14.651 23.892 -8.249
v  8.252 23.257 -9.249
v  9.496 23.899 -6.173
v  7.889 23.096 -9.995
v  8.432 22.93 -11.133
v  12.07 22.935 -12.544
v  14.344 23.735 -9.003
v  13.367 23.249 -11.31
v  13.162 23.104 -12.034
v  7.946 23.126 -9.85
v  8.252 5.66338e-16 -9.249
v  7.881 23.099 -9.979
v  7.881 6.11038e-16 -9.979
v  7.946 6.03139e-16 -9.85
v  9.496 3.77987e-16 -6.173
v  14.651 5.05106e-16 -8.249
v  14.344 5.51275e-16 -9.003
v  13.367 6.92538e-16 -11.31
v  13.162 7.3687e-16 -12.034
v  12.07 7.68098e-16 -12.544
v  8.432 6.817e-16 -11.133
v  7.889 6.12017e-16 -9.995
v  15.778 23.731 -6.261
v  14.997 23.731 -7.401
v  19.347 23.731 2.659
v  15.153 23.731 -7.466
v  13.821 23.731 4.883
v  0 23.731 1.4531e-15
v  3.231 23.731 9.146
v  10.226 23.731 -3.939
v  9.642 23.731 -5.405
v  9.706 23.731 -5.438
v  9.762 23.731 -5.467
v  9.532 23.731 -6.083
v  9.496 23.731 -6.173
v  14.651 23.731 -8.249
v  14.997 4.53181e-16 -7.401
v  19.347 -1.62817e-16 2.659
v  15.778 3.83376e-16 -6.261
v  10.226 2.41194e-16 -3.939
v  0 0 0
v  9.532 3.72476e-16 -6.083
v  9.762 3.34757e-16 -5.467
v  9.642 3.30961e-16 -5.405
v  3.231 -5.60031e-16 9.146
v  9.706 3.32981e-16 -5.438
v  15.153 4.57161e-16 -7.466
v  13.821 -2.98998e-16 4.883

# 0 UV coordinates

# 59 vertex normals
vn -0.0698172 0.98179 -0.176676
vn -0.0695924 0.981571 -0.177976
vn -0.0699732 0.981792 -0.176602
vn -0.0699015 0.98177 -0.17675
vn -0.0739597 0.981904 -0.174341
vn -0.0685075 0.981681 -0.177792
vn -0.0692708 0.981768 -0.177012
vn -0.891142 0 0.453725
vn -0.893028 -0.000121706 0.450002
vn -0.891477 0 0.453065
vn -9.71288e-20 1 6.12822e-17
vn -0.927056 0 0.374922
vn -0.927056 0 0.374922
vn 0.373561 -0 0.927605
vn 0.373561 0 0.927606
vn 0.926172 0 -0.377102
vn 0.926172 0 -0.377102
vn 0.962173 0 -0.272438
vn 0.920829 0 -0.389966
vn 0.920829 0 -0.389966
vn 0.423157 0 -0.906056
vn -0.361605 0 -0.932331
vn -0.894427 0 -0.447214
vn -0.902523 0 -0.430642
vn 3.58877e-24 -1 -6.12323e-17
vn -1.02531e-23 -1 -6.12323e-17
vn -1.17641e-23 -1 -6.12322e-17
vn 4.74959e-24 -1 -6.12323e-17
vn -8.33214e-23 -1 -6.12327e-17
vn 1.71599e-22 -1 -6.12322e-17
vn 7.79239e-24 -1 -6.12323e-17
vn 6.67571e-24 -1 -6.12323e-17
vn 4.8228e-23 -1 -6.12324e-17
vn 0 1 -0
vn 0.925894 0 -0.377782
vn 0.928441 0 -0.37148
vn -0.373561 0 -0.927605
vn -0.35945 0 -0.933164
vn -0.35945 5.71398e-17 -0.933164
vn -0.928479 0 0.371386
vn -0.936828 0 0.34979
vn -0.929 0 0.370079
vn -0.942893 -2.03962e-17 0.333095
vn -0.942893 0 0.333095
vn -0.459853 0 -0.887995
vn -0.458288 4.68155e-06 -0.888804
vn -0.459019 -0 -0.888426
vn -7.10853e-20 -1 -6.13692e-17
vn -0.384615 0 -0.923077
vn 0.373429 -0 0.927659
vn 0.373358 3.66332e-05 0.927687
vn 0.373404 0 0.927669
vn 0 -1 -6.12424e-17
vn 0.887699 0 -0.460425
vn 2.34432e-23 -1 -6.12323e-17
vn 0 -1 -6.12323e-17
vn -1.02399e-24 -1 -6.12323e-17
vn 7.32587e-24 -1 -6.12323e-17
vn 0 -1 -6.12323e-17

# Mesh 'defaultobject' with 90 faces
g defaultobject
usemtl DefaultMaterial
f  1//1 2//1 3//1
f  2//2 1//2 4//2
f  4//3 1//3 5//3
f  5//4 1//4 6//4
f  6//5 1//5 7//5
f  6//6 7//6 8//6
f  6//7 8//7 9//7
f  10//8 11//8 2//8
f  11//9 10//9 12//9
f  11//10 12//10 13//10
f  11//11 13//11 14//11
f  2//12 15//12 3//12
f  15//12 2//12 11//13
f  15//14 1//14 3//14
f  1//14 15//14 16//15
f  16//16 7//16 1//16
f  7//16 16//16 17//17
f  18//18 9//18 8//18
f  9//18 18//18 19//18
f  17//19 8//19 7//19
f  8//19 17//19 18//20
f  19//21 6//21 9//21
f  6//21 19//21 20//21
f  20//22 5//22 6//22
f  5//22 20//22 21//22
f  4//23 13//23 12//23
f  13//23 4//23 22//23
f  5//24 22//24 4//24
f  22//24 5//24 21//24
f  11//25 16//25 15//25
f  16//25 11//25 17//26
f  17//26 11//25 14//27
f  17//26 14//27 18//28
f  18//28 14//27 13//29
f  18//28 13//29 22//30
f  18//28 22//30 21//31
f  18//28 21//31 20//32
f  18//28 20//32 19//33
f  23//34 24//34 25//34
f  24//34 23//34 26//34
f  27//34 28//34 29//34
f  28//34 27//34 30//34
f  30//34 27//34 25//34
f  30//34 25//34 31//34
f  31//34 25//34 32//34
f  32//34 25//34 33//34
f  33//34 25//34 34//34
f  34//34 25//34 35//34
f  35//34 25//34 24//34
f  35//34 24//34 36//34
f  37//35 36//35 24//35
f  36//35 37//35 16//35
f  38//36 23//36 25//36
f  23//36 38//36 39//36
f  16//37 35//37 36//37
f  35//37 16//37 15//37
f  40//38 28//38 30//38
f  28//38 40//38 41//39
f  15//40 34//40 35//40
f  34//40 15//40 42//40
f  42//41 33//41 34//41
f  33//41 42//41 43//41
f  44//42 30//42 31//42
f  30//42 44//42 40//42
f  41//43 29//43 28//43
f  29//43 41//43 45//44
f  43//45 32//45 33//45
f  32//46 43//46 31//46
f  31//47 43//47 44//47
f  44//48 43//48 46//48
f  47//49 24//49 26//49
f  24//49 47//49 37//49
f  45//50 27//50 29//50
f  27//51 45//51 25//51
f  25//52 45//52 38//52
f  38//53 45//53 48//53
f  39//54 26//54 23//54
f  26//54 39//54 47//54
f  42//55 37//55 43//48
f  37//55 42//55 16//25
f  16//25 42//55 15//25
f  41//56 48//53 45//53
f  48//53 41//56 38//53
f  38//53 41//56 40//57
f  38//53 40//57 39//58
f  39//58 40//57 44//48
f  39//58 44//48 37//55
f  39//58 37//55 47//59
f  37//55 44//48 46//48
f  37//55 46//48 43//48

