# File produced by Open Asset Import Library (http://www.assimp.sf.net)
# (assimp v3.1.0)

mtllib _14400.obj.mtl

# 28 vertex positions
v  16.555 17.455 0.269
v  11.16 13.663 9.257
v  18.959 13.633 6.137
v  2.517 17.455 5.981
v  10.611 13.545 9.692
v  7.022 13.648 10.968
v  7.087 13.548 11.12
v  4.856 13.82 11.54
v  4.944 13.673 11.768
v  11.234 13.557 9.416
v  0 13.544 8.29331e-16
v  14.282 13.841 -5.278
v  14.095 13.544 -5.735
v  0.177 13.819 0.42
v  0 0 0
v  0.177 -2.57176e-17 0.42
v  2.517 -3.66231e-16 5.981
v  4.856 -7.06621e-16 11.54
v  7.022 -6.71596e-16 10.968
v  7.087 -6.80904e-16 11.12
v  4.944 -7.20582e-16 11.768
v  10.611 -5.93464e-16 9.692
v  11.234 -5.76564e-16 9.416
v  11.16 -5.66828e-16 9.257
v  18.959 -3.75783e-16 6.137
v  14.282 3.23184e-16 -5.278
v  14.095 3.51167e-16 -5.735
v  16.555 -1.64715e-17 0.269

# 0 UV coordinates

# 49 vertex normals
vn 0.194571 0.856466 0.47813
vn 0.194544 0.856478 0.478119
vn 0.194625 0.856539 0.477978
vn 0.194554 0.856495 0.478085
vn 0.195029 0.8556 0.479492
vn 0.194311 0.856448 0.478268
vn 0.194153 0.856894 0.477533
vn 0.195829 0.855563 0.479233
vn -0.194255 0.856931 -0.477424
vn -0.194549 0.856405 -0.478248
vn -0.194493 0.856198 -0.478641
vn -0.194549 0.856471 -0.47813
vn -0.921727 2.00912e-05 0.387838
vn -0.921727 0.00092227 0.387838
vn -0.92172 0 0.387857
vn -0.921512 -0.00048571 0.38835
vn -0.921723 -1.05685e-05 0.38785
vn -0.921732 0 0.387827
vn -0.919457 0 0.393191
vn -0.919457 0 0.393191
vn -0.932923 0 0.360077
vn -0.932923 0 0.360077
vn 0.35928 -0 0.93323
vn 0.35928 0 0.93323
vn 0.375558 -0 0.926799
vn 0.375558 0 0.926799
vn 0.405049 0 0.914295
vn 0.371432 -0 0.92846
vn 0.371432 0 0.92846
vn 0.405049 -0 0.914295
vn 0.906619 0 -0.42195
vn 0.906619 0 -0.42195
vn 0.925356 0 -0.379099
vn 0.925332 -2.33944e-05 -0.379159
vn 0.925455 0.00026603 -0.378858
vn 0.925342 -1.67171e-05 -0.379135
vn 0.925515 0 -0.37871
vn 2.83945e-19 1 6.119e-17
vn -0.376879 0 -0.926262
vn -0.376879 5.67172e-17 -0.926262
vn 0 -1 -6.12323e-17
vn -3.6481e-23 -1 -6.12326e-17
vn 3.97556e-24 -1 -6.12323e-17
vn -4.20524e-24 -1 -6.12323e-17
vn 1.08567e-22 -1 -6.12323e-17
vn 0 -1 -6.12323e-17
vn -1.56627e-22 -1 -6.12328e-17
vn 5.25244e-23 -1 -6.12324e-17
vn 3.16465e-23 -1 -6.12323e-17

# Mesh 'defaultobject' with 52 faces
g defaultobject
usemtl DefaultMaterial
f  1//1 2//1 3//1
f  2//2 1//2 4//2
f  2//3 4//3 5//3
f  5//4 4//4 6//4
f  5//5 6//5 7//5
f  6//6 4//6 8//6
f  6//7 8//7 9//7
f  5//8 10//8 2//8
f  11//9 12//9 13//9
f  12//10 11//10 1//10
f  1//11 11//11 14//11
f  1//12 14//12 4//12
f  14//13 8//13 4//13
f  8//14 14//14 11//14
f  8//15 11//15 15//15
f  8//16 15//16 16//16
f  8//17 16//17 17//17
f  8//18 17//18 18//18
f  19//19 7//19 6//19
f  7//19 19//19 20//20
f  18//21 9//21 8//21
f  9//21 18//21 21//22
f  21//23 6//23 9//23
f  6//23 21//23 19//24
f  20//25 5//25 7//25
f  5//25 20//25 22//26
f  23//27 5//27 22//27
f  24//28 3//28 2//28
f  3//28 24//28 25//29
f  23//27 10//30 5//27
f  10//31 24//31 2//31
f  24//31 10//31 23//32
f  25//33 1//33 3//33
f  1//34 25//34 12//34
f  12//35 25//35 13//35
f  13//36 25//36 26//36
f  13//37 26//37 27//37
f  26//38 25//38 28//38
f  27//39 11//39 13//39
f  11//39 27//39 15//40
f  22//41 24//41 23//41
f  21//42 18//42 19//42
f  24//41 28//43 25//43
f  28//43 24//41 26//44
f  26//44 24//41 27//45
f  27//45 24//41 15//46
f  15//46 24//41 22//41
f  15//46 22//41 19//42
f  19//42 22//41 20//47
f  15//46 19//42 16//48
f  16//48 19//42 17//49
f  17//49 19//42 18//42

