# File produced by Open Asset Import Library (http://www.assimp.sf.net)
# (assimp v3.1.0)

mtllib _18033.obj.mtl

# 26 vertex positions
v  2.156 12.223 5.253
v  3.824 8.497 -1.585
v  0 8.542 5.23047e-16
v  4.772 8.492 -1.967
v  8.798 8.198 -4.044
v  4.625 8.208 -2.38
v  9.062 8.527 -3.603
v  14.285 12.223 0.465
v  11.985 8.552 -4.715
v  16.808 8.197 6.147
v  4.319 8.53 10.524
v  4.514 8.197 11
v  16.554 8.602 5.575
v  0 0 0
v  2.156 -3.21653e-16 5.253
v  4.319 -6.44409e-16 10.524
v  4.514 -6.73556e-16 11
v  4.772 1.20444e-16 -1.967
v  4.625 1.45733e-16 -2.38
v  16.808 -3.76395e-16 6.147
v  16.554 -3.4137e-16 5.575
v  11.985 2.8871e-16 -4.715
v  14.285 -2.8473e-17 0.465
v  9.062 2.2062e-16 -3.603
v  8.798 2.47624e-16 -4.044
v  3.824 9.70533e-17 -1.585

# 0 UV coordinates

# 45 vertex normals
vn -0.199841 0.839086 -0.505962
vn -0.199439 0.839203 -0.505928
vn -0.199733 0.839128 -0.505935
vn -0.199762 0.83909 -0.505987
vn -0.200044 0.838941 -0.506123
vn -0.199728 0.83912 -0.505951
vn -0.199675 0.839102 -0.506002
vn 0.199545 0.839433 0.505504
vn 0.199698 0.839121 0.505962
vn 0.19978 0.839336 0.505572
vn 0.199721 0.839131 0.505935
vn -0.925112 -2.32496e-17 0.379696
vn -0.92513 2.24602e-05 0.379651
vn -0.925112 -4.20177e-05 0.379696
vn -0.925293 0.000277526 0.379253
vn -0.925135 -3.73509e-05 0.379637
vn -0.925361 0 0.379087
vn -0.942103 0 0.335324
vn -0.942103 0 0.335324
vn 0.367173 -0 0.930152
vn 0.913943 0 -0.405842
vn 0.913952 1.52431e-06 -0.405822
vn 0.913956 5.90233e-06 -0.405815
vn 0.913943 -3.4923e-05 -0.405842
vn 0.913954 0 -0.405817
vn -4.97858e-19 -1 -6.12365e-17
vn 0.858008 0 -0.513637
vn 0.858008 0 -0.513637
vn -0.35557 0 -0.93465
vn -0.35557 -0 -0.93465
vn -0.370393 0 -0.928875
vn -0.370393 0 -0.928875
vn -0.382899 0 -0.92379
vn -0.373769 -0.00480308 -0.92751
vn -0.382899 0.00118946 -0.923789
vn -0.373751 0 -0.927529
vn -1.79469e-23 -1 -6.12323e-17
vn 1.16116e-23 -1 -6.12323e-17
vn 0 -1 -6.12323e-17
vn 3.50304e-24 -1 -6.12323e-17
vn -2.6777e-24 -1 -6.12323e-17
vn -4.34139e-24 -1 -6.12323e-17
vn -3.98485e-22 -1 -6.12323e-17
vn 3.59177e-23 -1 -6.12323e-17
vn -2.25229e-24 -1 -6.12323e-17

# Mesh 'defaultobject' with 48 faces
g defaultobject
usemtl DefaultMaterial
f  1//1 2//1 3//1
f  2//2 1//2 4//2
f  4//3 5//3 6//3
f  5//4 4//4 1//4
f  5//5 1//5 7//5
f  7//6 1//6 8//6
f  7//7 8//7 9//7
f  10//8 11//8 12//8
f  11//9 10//9 1//9
f  1//10 10//10 13//10
f  1//11 13//11 8//11
f  14//12 1//12 3//12
f  1//13 14//13 11//13
f  11//14 14//14 15//14
f  11//15 15//15 12//15
f  12//16 15//16 16//16
f  12//17 16//17 17//17
f  6//18 18//18 4//18
f  18//18 6//18 19//19
f  17//20 10//20 12//20
f  10//20 17//20 20//20
f  20//21 13//21 10//21
f  13//22 20//22 8//22
f  8//22 20//22 9//23
f  9//24 20//24 21//24
f  9//23 21//25 22//25
f  22//26 21//26 23//26
f  24//27 5//27 7//27
f  5//27 24//27 25//28
f  22//29 7//29 9//29
f  7//29 22//29 24//30
f  5//31 19//31 6//31
f  19//31 5//31 25//32
f  2//33 14//33 3//33
f  14//34 2//34 4//34
f  14//35 4//35 26//35
f  26//36 4//36 18//36
f  23//26 24//37 22//26
f  24//37 23//26 21//26
f  24//37 19//38 25//38
f  19//38 24//37 21//26
f  19//38 21//26 20//39
f  19//38 20//39 18//40
f  18//40 20//39 17//41
f  18//40 17//41 26//42
f  26//42 17//41 16//43
f  26//42 16//43 15//44
f  26//42 15//44 14//45

