# File produced by Open Asset Import Library (http://www.assimp.sf.net)
# (assimp v3.1.0)

mtllib _21172.obj.mtl

# 8 vertex positions
v  10.878 3.454 -4.027
v  3.827 3.454 10.336
v  14.705 3.454 6.309
v  0 3.454 2.11496e-16
v  14.705 -3.86315e-16 6.309
v  10.878 2.46583e-16 -4.027
v  0 0 0
v  3.827 -6.32897e-16 10.336

# 0 UV coordinates

# 9 vertex normals
vn 0 1 -0
vn 0.937783 0 -0.347223
vn -0.347171 0 -0.937802
vn -0.347171 5.74238e-17 -0.937802
vn -0.937783 -2.12613e-17 0.347223
vn -0.937783 0 0.347223
vn 0.347171 -0 0.937802
vn 0 -1 -6.12323e-17
vn 1.65635e-24 -1 -6.12323e-17

# Mesh 'defaultobject' with 12 faces
g defaultobject
usemtl DefaultMaterial
f  1//1 2//1 3//1
f  2//1 1//1 4//1
f  5//2 1//2 3//2
f  1//2 5//2 6//2
f  6//3 4//3 1//3
f  4//3 6//3 7//4
f  7//5 2//5 4//5
f  2//5 7//5 8//6
f  8//7 3//7 2//7
f  3//7 8//7 5//7
f  8//8 6//8 5//8
f  6//8 8//8 7//9

