# File produced by Open Asset Import Library (http://www.assimp.sf.net)
# (assimp v3.1.0)

mtllib _2785.obj.mtl

# 28 vertex positions
v  25.997 40.521 23.9
v  25.274 40.521 24.114
v  26.017 40.511 23.969
v  14.731 41.719 17.765
v  11.317 40.52 28.246
v  10.829 40.52 28.391
v  8.648 40.521 29.027
v  8.63 40.529 28.967
v  11.307 41.719 6.12
v  18.986 40.521 0.06
v  17.452 40.521 -5.156
v  1.783 40.519 -0.544
v  0.045 40.521 -0.014
v  0 40.515 2.48083e-15
v  0.018 40.515 0.06
v  8.648 -1.77739e-15 29.027
v  25.274 -1.47656e-15 24.114
v  10.829 -1.73845e-15 28.391
v  11.317 -1.72957e-15 28.246
v  26.017 -1.46768e-15 23.969
v  18.986 -3.67394e-18 0.06
v  17.452 3.15714e-16 -5.156
v  25.997 -1.46345e-15 23.9
v  0 0 0
v  1.783 3.33104e-17 -0.544
v  0.045 8.57253e-19 -0.014
v  8.63 -1.77372e-15 28.967
v  0.018 -3.67394e-18 0.06

# 0 UV coordinates

# 46 vertex normals
vn 0.0391237 0.990453 0.132179
vn 0.037124 0.991409 0.125423
vn 0.0370813 0.991401 0.125493
vn 0.0373093 0.991384 0.125565
vn 0.0370423 0.991406 0.125469
vn 0.0318141 0.991934 0.122701
vn 0.125534 0.991402 -0.0369189
vn 0.125534 0.991402 -0.0369179
vn 0.125522 0.991404 -0.0369075
vn -0.0370762 0.991396 -0.125535
vn -0.0371218 0.991403 -0.125471
vn -0.122548 0.99197 0.0312614
vn -0.12602 0.991307 0.0378047
vn -0.125557 0.991399 0.0369261
vn -0.125577 0.991396 0.0369236
vn 0.279949 -0 0.960015
vn 0.284825 -0.000284964 0.95858
vn 0.283873 -0.000216841 0.958862
vn 0.283387 0 0.959006
vn -1.50054e-21 1 6.12282e-17
vn 1.43886e-20 -1 -6.11803e-17
vn 0.191542 -0 0.981484
vn 0.191542 0 0.981484
vn 0.960465 0 -0.278401
vn 0.959374 -6.90196e-06 -0.282138
vn 0.959371 -1.23285e-05 -0.282146
vn 0.959377 2.6896e-06 -0.282127
vn 0.959371 0 -0.282146
vn 0 1 6.12453e-17
vn -0.282362 0 -0.959308
vn -0.291689 -0.00392591 -0.956505
vn -0.29632 -0.00609731 -0.955069
vn -0.283332 5.87231e-17 -0.959022
vn -4.40079e-23 1 6.12323e-17
vn 0 1 6.12326e-17
vn -0.957826 -1.7595e-17 0.287348
vn -0.958373 2.95078e-06 0.285519
vn -0.957876 -0.0012889 0.287179
vn -0.958372 2.92627e-06 0.285523
vn -0.95783 0 0.287337
vn 0 -1 -6.11564e-17
vn 4.47103e-25 -1 -6.12323e-17
vn 5.2172e-25 -1 -6.12323e-17
vn -1.91404e-24 -1 -6.12323e-17
vn 1.06896e-22 -1 -6.12317e-17
vn -3.56015e-22 -1 -6.12337e-17

# Mesh 'defaultobject' with 52 faces
g defaultobject
usemtl DefaultMaterial
f  1//1 2//1 3//1
f  2//2 1//2 4//2
f  2//3 4//3 5//3
f  5//4 4//4 6//4
f  6//5 4//5 7//5
f  7//6 4//6 8//6
f  9//7 10//7 11//7
f  10//7 9//7 1//8
f  1//9 9//9 4//9
f  12//10 9//10 11//10
f  9//11 12//11 13//11
f  14//12 9//12 13//12
f  9//13 14//13 15//13
f  9//14 15//14 8//14
f  9//15 8//15 4//15
f  16//16 6//16 7//16
f  6//17 16//17 5//17
f  5//18 16//18 2//18
f  2//19 16//19 17//19
f  17//20 16//20 18//20
f  17//21 18//21 19//21
f  17//22 3//22 2//22
f  3//22 17//22 20//23
f  20//24 1//24 3//24
f  1//25 20//25 10//25
f  10//26 20//26 11//26
f  11//27 20//27 21//27
f  11//28 21//28 22//28
f  21//29 20//29 23//29
f  22//30 12//30 11//30
f  12//31 22//31 13//31
f  13//32 22//32 14//32
f  14//33 22//33 24//33
f  24//34 22//34 25//34
f  24//34 25//34 26//35
f  24//36 15//36 14//36
f  15//37 24//37 8//37
f  8//38 24//38 7//38
f  7//39 24//37 27//39
f  7//40 27//40 16//40
f  27//41 24//41 28//41
f  21//42 25//42 22//42
f  25//42 21//42 23//43
f  25//42 23//43 26//44
f  26//44 23//43 24//41
f  24//41 23//43 28//41
f  28//41 23//43 27//41
f  27//41 23//43 17//21
f  17//21 23//43 20//45
f  27//41 17//21 19//21
f  27//41 19//21 18//21
f  27//41 18//21 16//46

