# File produced by Open Asset Import Library (http://www.assimp.sf.net)
# (assimp v3.1.0)

mtllib _31410.obj.mtl

# 28 vertex positions
v  0.393 3.97 1.461
v  5.457 3.97 -2.223
v  0 3.97 2.43092e-16
v  0.953 3.97 3.319
v  2.316 3.97 4.104
v  9.911 3.97 8.674
v  1.432 3.97 4.493
v  1.321 3.97 4.542
v  7.473 3.97 9.625
v  6.503 3.97 10.062
v  6.955 3.97 9.878
v  6.522 3.97 10.09
v  9.112 3.97 8.999
v  9.918 3.97 8.692
v  1.321 -2.78117e-16 4.542
v  2.316 -2.51298e-16 4.104
v  1.432 -2.75117e-16 4.493
v  6.522 -6.17834e-16 10.09
v  7.473 -5.89361e-16 9.625
v  6.955 -6.04853e-16 9.878
v  6.503 -6.1612e-16 10.062
v  9.918 -5.32232e-16 8.692
v  9.112 -5.5103e-16 8.999
v  5.457 1.36119e-16 -2.223
v  9.911 -5.31129e-16 8.674
v  0 0 0
v  0.953 -2.0323e-16 3.319
v  0.393 -8.94605e-17 1.461

# 0 UV coordinates

# 33 vertex normals
vn 0 1 0
vn 0.403841 -0 0.914829
vn 0.402773 3.56766e-05 0.9153
vn 0.402893 0 0.915247
vn -9.07045e-20 -1 -6.14493e-17
vn 0.439731 -0 0.89813
vn 0.438868 0.000116591 0.898551
vn 0.439261 0 0.89836
vn -8.98991e-20 -1 -6.14166e-17
vn -0.818173 0 0.574973
vn -0.82748 0 0.561495
vn 0.356801 -0 0.93418
vn 0.355946 0.000404307 0.934506
vn 0.356519 0 0.934288
vn 1.31452e-20 -1 -6.11971e-17
vn 0.932009 0 -0.362434
vn 0.925662 -8.33637e-05 -0.378352
vn 0.925673 0 -0.378326
vn 2.17265e-19 1 6.116e-17
vn -0.377265 0 -0.926106
vn -0.377265 5.67076e-17 -0.926106
vn -0.957589 0 0.288138
vn -0.957457 0.000147449 0.288577
vn -0.957589 -0.000224037 0.288138
vn -0.957457 0 0.288577
vn -0.965673 -1.59057e-17 0.25976
vn -0.965673 0 0.25976
vn 3.47608e-22 -1 -6.12315e-17
vn 1.17305e-23 -1 -6.12323e-17
vn 0 -1 -6.12322e-17
vn 0 -1 -6.12323e-17
vn 0 -1 -6.12323e-17
vn -5.98436e-24 -1 -6.12323e-17

# Mesh 'defaultobject' with 52 faces
g defaultobject
usemtl DefaultMaterial
f  1//1 2//1 3//1
f  2//1 1//1 4//1
f  2//1 4//1 5//1
f  2//1 5//1 6//1
f  5//1 4//1 7//1
f  7//1 4//1 8//1
f  6//1 5//1 9//1
f  9//1 5//1 10//1
f  9//1 10//1 11//1
f  11//1 10//1 12//1
f  6//1 9//1 13//1
f  6//1 13//1 14//1
f  15//2 7//2 8//2
f  7//3 15//3 5//3
f  5//4 15//4 16//4
f  16//5 15//5 17//5
f  18//6 11//6 12//6
f  11//7 18//7 9//7
f  9//8 18//8 19//8
f  19//9 18//9 20//9
f  16//10 10//10 5//10
f  10//10 16//10 21//10
f  10//11 21//11 12//11
f  12//11 21//11 18//11
f  19//12 13//12 9//12
f  13//13 19//13 14//13
f  14//14 19//14 22//14
f  22//15 19//9 23//15
f  22//16 6//16 14//16
f  6//17 22//17 2//17
f  2//18 22//18 24//18
f  24//19 22//19 25//19
f  24//20 3//20 2//20
f  3//20 24//20 26//21
f  4//22 15//22 8//22
f  15//23 4//23 1//23
f  15//24 1//24 27//24
f  27//25 1//25 28//25
f  26//26 1//26 3//26
f  1//26 26//26 28//27
f  23//15 25//28 22//15
f  25//28 23//15 24//29
f  24//29 23//15 19//9
f  24//29 19//9 20//9
f  24//29 20//9 18//9
f  24//29 18//9 21//30
f  24//29 21//30 16//5
f  24//29 16//5 17//5
f  24//29 17//5 15//5
f  24//29 15//5 27//31
f  24//29 27//31 28//32
f  24//29 28//32 26//33

