# {"id":"_7145","idOriginal":"_7145","origin":[14.290018879994053,48.30486635284961],"elevation":260.06}
# Longitude: 14.290018879994053
# Latitude: 48.30486635284961
# Elevation: 260.06

# File produced by Open Asset Import Library (http://www.assimp.sf.net)
# (assimp v3.1.0)

mtllib _7145.obj.mtl

# 30 vertex positions
v  6.422 7.59 -2.241
v  17.429 7.59 14.291
v  12.411 7.59 -4.702
v  0.097 7.59 -0.034
v  0 7.59 4.64753e-16
v  0.606 7.59 1.863
v  2.311 7.59 4.766
v  1.602 7.59 4.93
v  2.51 7.59 5.466
v  7.093 7.59 21.628
v  18.41 7.59 14.151
v  19.342 7.59 17.373
v  16.79 7.59 18.332
v  19.427 7.59 17.666
v  16.829 7.59 18.483
v  0 0 0
v  1.602 -3.01875e-16 4.93
v  0.606 -1.14076e-16 1.863
v  2.311 -2.91833e-16 4.766
v  7.093 -1.32433e-15 21.628
v  2.51 -3.34696e-16 5.466
v  16.79 -1.12251e-15 18.332
v  16.829 -1.13176e-15 18.483
v  19.427 -1.08173e-15 17.666
v  18.41 -8.66499e-16 14.151
v  19.342 -1.06379e-15 17.373
v  17.429 -8.75071e-16 14.291
v  12.411 2.87914e-16 -4.702
v  0.097 2.0819e-18 -0.034
v  6.422 1.37222e-16 -2.241

# 0 UV coordinates

# 30 vertex normals
vn -0 1 0
vn -0.950955 -1.89409e-17 0.309328
vn -0.951105 0.00012478 0.308869
vn -0.951048 0 0.309042
vn -3.46674e-20 -1 -6.12226e-17
vn -0.961886 0 0.273451
vn -0.962068 6.38295e-05 0.27281
vn -0.96206 0 0.272837
vn 0 -1 -6.1234e-17
vn -0.968228 0 0.250071
vn 0.225361 -0 0.974275
vn 0.321817 -0 0.946802
vn 0.299989 -0 0.953943
vn 0.960402 0 -0.278617
vn 0.960619 3.12779e-05 -0.27787
vn 0.960601 0 -0.277932
vn 6.65003e-19 -1 -6.14297e-17
vn 0.966825 0 -0.255438
vn -0.141281 0 -0.98997
vn -0.330784 0 -0.943707
vn -0.329453 -1.90966e-05 -0.944172
vn -0.330783 0.0012446 -0.943706
vn -0.329453 0 -0.944172
vn -0.380082 0 -0.924953
vn 1.51363e-22 -1 -6.12319e-17
vn -7.79142e-22 -1 -6.12326e-17
vn -1.27733e-22 -1 -6.12325e-17
vn 7.26665e-24 -1 -6.12323e-17
vn 0 -1 -6.12323e-17
vn 0 -1 -6.12323e-17

# Mesh 'defaultobject' with 56 faces
g defaultobject
usemtl DefaultMaterial
f  1//1 2//1 3//1
f  2//1 1//1 4//1
f  2//1 4//1 5//1
f  2//1 5//1 6//1
f  2//1 6//1 7//1
f  7//1 6//1 8//1
f  2//1 7//1 9//1
f  2//1 9//1 10//1
f  2//1 10//1 11//1
f  11//1 10//1 12//1
f  12//1 10//1 13//1
f  13//1 14//1 12//1
f  14//1 13//1 15//1
f  16//2 6//2 5//2
f  6//3 16//3 8//3
f  8//4 16//4 17//4
f  17//5 16//5 18//5
f  19//6 9//6 7//6
f  9//7 19//7 10//7
f  10//8 19//8 20//8
f  20//9 19//9 21//9
f  22//10 15//10 13//10
f  15//10 22//10 23//10
f  17//11 7//11 8//11
f  7//11 17//11 19//11
f  20//12 13//12 10//12
f  13//12 20//12 22//12
f  23//13 14//13 15//13
f  14//13 23//13 24//13
f  24//14 12//14 14//14
f  12//15 24//15 11//15
f  11//16 24//16 25//16
f  25//17 24//17 26//17
f  27//18 3//18 2//18
f  3//18 27//18 28//18
f  25//19 2//19 11//19
f  2//19 25//19 27//19
f  4//20 16//20 5//20
f  16//21 4//21 1//21
f  16//22 1//22 29//22
f  29//23 1//23 30//23
f  28//24 1//24 3//24
f  1//24 28//24 30//24
f  23//25 26//17 24//17
f  26//17 23//25 25//17
f  25//17 23//25 22//26
f  25//17 22//26 20//9
f  25//17 20//9 27//27
f  27//27 20//9 28//28
f  28//28 20//9 21//9
f  28//28 21//9 19//9
f  28//28 19//9 30//29
f  30//29 19//9 17//5
f  30//29 17//5 18//5
f  30//29 18//5 29//30
f  29//30 18//5 16//5

