# {"id":"ID_14667","idOriginal":"ID_14667","origin":[14.283457351870195,48.25247870441143],"elevation":265.998,"wof":[{"Id":102049853,"Name":"Linz","Placetype":"county","Offset":-1},{"Id":85681677,"Name":"Oberösterreich","Placetype":"region","Offset":-1},{"Id":85898447,"Name":"Scharlinz","Placetype":"neighbourhood","Offset":-1},{"Id":101748071,"Name":"Linz","Placetype":"locality","Offset":-1},{"Id":85632785,"Name":"Austria","Placetype":"country","Offset":-1}]}

# Attribution: City of Linz <http://geo.data.linz.gv.at/katalog/geodata/3d_geo_daten_lod2/>
# Longitude: 14.283457351870195
# Latitude: 48.25247870441143
# Elevation: 265.998

# File produced by Open Asset Import Library (http://www.assimp.sf.net)
# (assimp v3.1.0)


# 34 vertex positions
v  9.526 10.585 -3.514
v  11.3 15.54 15.984
v  16.068 10.585 14.233
v  4.76 15.54 -1.756
v  0 10.591 6.48512e-16
v  2.709 10.588 7.355
v  0.051 10.644 -0.019
v  3.027 10.66 8.005
v  2.945 10.599 7.963
v  2.969 10.6 8.026
v  3.1 10.658 8.211
v  3.493 10.638 9.334
v  3.575 10.635 9.567
v  3.547 10.583 9.645
v  3.76 10.587 10.212
v  6.532 10.585 17.735
v  3.537 10.596 9.58
v  3.537 -5.86606e-16 9.58
v  3.547 -5.90586e-16 9.645
v  6.532 -1.08596e-15 17.735
v  3.76 -6.25305e-16 10.212
v  0 0 0
v  2.709 -4.50364e-16 7.355
v  2.969 -4.91451e-16 8.026
v  2.945 -4.87593e-16 7.963
v  3.027 -4.90165e-16 8.005
v  3.1 -5.02779e-16 8.211
v  3.493 -5.71543e-16 9.334
v  3.575 -5.8581e-16 9.567
v  16.068 -8.7152e-16 14.233
v  11.3 -9.78738e-16 15.984
v  9.526 2.1517e-16 -3.514
v  0.051 1.16341e-18 -0.019
v  4.76 1.07524e-16 -1.756

# 0 UV coordinates

# 55 vertex normals
vn 0.655192 0.715815 -0.241521
vn 0.65515 0.715852 -0.241526
vn -0.654585 0.716414 0.24139
vn -0.655147 0.715834 0.241588
vn -0.65521 0.715789 0.241549
vn -0.654976 0.716152 0.241107
vn -0.655808 0.715218 0.241617
vn -0.65528 0.716831 0.238246
vn -0.653744 0.718102 0.238637
vn -0.655428 0.715399 0.242111
vn -0.654378 0.717227 0.239531
vn -0.655284 0.71562 0.241849
vn -0.654957 0.716209 0.24099
vn -0.655164 0.715815 0.241599
vn -0.652728 0.717269 0.243866
vn -0.988372 0 0.152056
vn -0.988372 0 0.152056
vn -0.936125 0 0.351667
vn -0.938328 0.000361409 0.345746
vn -0.938175 0 0.346162
vn -2.76123e-20 -1 -6.12269e-17
vn -0.938374 -2.11633e-17 0.345623
vn -0.938374 0 0.345623
vn -0.932235 0 0.361854
vn -0.93449 0.000386728 0.355988
vn -0.932447 0 0.361306
vn 2.2471e-21 -1 -6.12334e-17
vn -0.942567 0 0.334016
vn -0.943871 8.04672e-05 0.330315
vn -0.94329 -0.000151834 0.33197
vn -0.942567 -0.00048952 0.334016
vn -0.943871 4.08291e-05 0.330313
vn -0.943289 0 0.331972
vn 0.344729 3.7892e-08 0.938702
vn 0.344729 0 0.938702
vn 0.336336 0 0.941742
vn 0.340439 0 0.940266
vn 0.340439 0 0.940266
vn 0.938281 0 -0.345874
vn -0.346072 -2.41577e-06 -0.938208
vn -0.346072 0 -0.938208
vn -0.347651 -0.00159707 -0.937623
vn -0.346072 1.66418e-05 -0.938208
vn -0.349109 5.73797e-17 -0.937082
vn 2.1684e-19 1 6.15827e-17
vn -0.323676 0 -0.946168
vn -0.323676 -0 -0.946168
vn 1.93496e-21 -1 -6.12313e-17
vn -2.20391e-24 -1 -6.12323e-17
vn 1.11529e-24 -1 -6.12323e-17
vn 0 -1 -6.12323e-17
vn -4.24427e-21 -1 -6.12233e-17
vn -7.41266e-23 -1 -6.12322e-17
vn 4.34059e-24 -1 -6.12323e-17
vn 6.49989e-24 -1 -6.12324e-17

# Mesh 'defaultobject' with 64 faces
g defaultobject
usemtl DefaultMaterial
f  1//1 2//1 3//1
f  2//2 1//2 4//2
f  5//3 6//3 7//3
f  4//4 7//4 6//4
f  2//5 4//5 6//5
f  8//6 2//6 6//6
f  9//7 8//7 6//7
f  10//8 8//8 9//8
f  11//9 2//9 8//9
f  12//10 2//10 11//10
f  13//11 2//11 12//11
f  14//12 2//12 13//12
f  15//13 2//13 14//13
f  16//14 2//14 15//14
f  13//15 17//15 14//15
f  18//16 14//16 17//16
f  14//16 18//16 19//17
f  19//18 15//18 14//18
f  15//19 19//19 16//19
f  16//20 19//20 20//20
f  20//21 19//21 21//21
f  22//22 6//22 5//22
f  6//22 22//22 23//23
f  23//24 9//24 6//24
f  9//25 23//25 10//25
f  10//26 23//26 24//26
f  24//27 23//27 25//27
f  26//28 11//28 8//28
f  11//29 26//29 12//29
f  12//30 26//30 13//30
f  13//31 26//31 27//31
f  13//32 27//32 28//32
f  13//33 28//33 29//33
f  16//34 3//34 2//34
f  3//34 16//34 20//35
f  3//34 20//35 30//35
f  30//36 20//36 31//36
f  10//37 26//37 8//37
f  26//37 10//37 24//38
f  30//39 1//39 3//39
f  1//39 30//39 32//39
f  1//40 7//40 4//40
f  7//40 1//40 32//41
f  7//42 32//42 5//42
f  5//43 32//43 33//43
f  5//44 33//44 22//44
f  33//45 32//45 34//45
f  29//46 17//46 13//46
f  17//46 29//46 18//47
f  18//48 29//48 19//21
f  32//49 30//49 34//49
f  33//50 34//49 30//49
f  22//51 33//50 30//49
f  23//27 22//51 30//49
f  25//27 23//27 30//49
f  26//52 25//27 30//49
f  24//27 25//27 26//52
f  27//53 26//52 30//49
f  28//54 27//53 30//49
f  29//48 28//54 30//49
f  19//21 29//48 30//49
f  21//21 19//21 30//49
f  31//55 21//21 30//49
f  20//21 21//21 31//55

