# {"id":"_60889","idOriginal":"_60889","origin":[14.286952690531631,48.299690757085486],"elevation":263.604}
# Longitude: 14.286952690531631
# Latitude: 48.299690757085486
# Elevation: 263.604

# File produced by Open Asset Import Library (http://www.assimp.sf.net)
# (assimp v3.1.0)

mtllib _60889.obj.mtl

# 8 vertex positions
v  0.12 17.78 0.634
v  0.639 17.78 -0.107
v  0 17.78 1.08871e-15
v  0.758 17.78 0.527
v  0.639 6.55186e-18 -0.107
v  0 0 0
v  0.12 -3.88213e-17 0.634
v  0.758 -3.22694e-17 0.527

# 0 UV coordinates

# 9 vertex normals
vn 0 1 0
vn -0.16515 0 -0.986269
vn -0.16515 6.03915e-17 -0.986269
vn -0.982555 -1.13875e-17 0.185973
vn -0.982555 0 0.185973
vn 0.165402 -0 0.986226
vn 0.982837 0 -0.184476
vn 0 -1 -6.12323e-17
vn 4.95644e-24 -1 -6.12323e-17

# Mesh 'defaultobject' with 12 faces
g defaultobject
usemtl DefaultMaterial
f  1//1 2//1 3//1
f  2//1 1//1 4//1
f  5//2 3//2 2//2
f  3//2 5//2 6//3
f  6//4 1//4 3//4
f  1//4 6//4 7//5
f  7//6 4//6 1//6
f  4//6 7//6 8//6
f  8//7 2//7 4//7
f  2//7 8//7 5//7
f  5//8 7//8 6//8
f  7//8 5//8 8//9

