# {"id":"ID_23718","idOriginal":"ID_23718","origin":[14.345696688707676,48.238237484472464],"elevation":326.137}
# Longitude: 14.345696688707676
# Latitude: 48.238237484472464
# Elevation: 326.137

# File produced by Open Asset Import Library (http://www.assimp.sf.net)
# (assimp v3.1.0)

mtllib ID_23718.obj.mtl

# 18 vertex positions
v  6.863 5.273 -5.782
v  11.737 8.436 6.923
v  15.183 5.273 4.038
v  5.003 7.005 -4.17
v  3.441 8.436 -2.868
v  0 5.283 3.2349e-16
v  6.996 5.26 8.308
v  10.431 8.423 5.409
v  11.715 8.415 6.942
v  0 0 0
v  6.996 -5.08718e-16 8.308
v  10.431 -3.31206e-16 5.409
v  11.715 -4.25075e-16 6.942
v  15.183 -2.47256e-16 4.038
v  11.737 -4.23911e-16 6.923
v  6.863 3.54045e-16 -5.782
v  5.003 2.55339e-16 -4.17
v  3.441 1.75614e-16 -2.868

# 0 UV coordinates

# 25 vertex normals
vn 0.439128 0.817768 -0.372051
vn 0.439083 0.817797 -0.372041
vn 0.43909 0.817792 -0.372044
vn -0.43917 0.817732 0.37208
vn -0.439045 0.817808 0.372062
vn -0.451937 0.805678 0.38293
vn -0.446858 0.810587 0.378507
vn -0.764921 -3.94412e-17 0.644124
vn -0.764921 0 0.644124
vn -0.76662 0 0.642101
vn -0.76662 0 0.642101
vn 0.644964 0 0.764213
vn 0.647688 0.0107662 0.76183
vn 0.642009 0 0.766697
vn 0.642009 0 0.766697
vn 0 -1 -6.121e-17
vn 0.762974 0 -0.64643
vn -0.640266 2.85989e-05 -0.768153
vn -0.64026 0 -0.768158
vn -0.640281 -3.41775e-05 -0.76814
vn -0.64025 4.70366e-17 -0.768166
vn -0.654931 0 -0.755689
vn -0.654931 0 -0.755689
vn 2.27712e-22 -1 -6.12325e-17
vn 0 -1 -6.12323e-17

# Mesh 'defaultobject' with 32 faces
g defaultobject
usemtl DefaultMaterial
f  1//1 2//1 3//1
f  2//2 1//2 4//2
f  2//2 4//2 5//3
f  6//4 7//4 5//4
f  8//5 5//5 7//5
f  2//6 5//6 8//6
f  9//7 2//7 8//7
f  10//8 7//8 6//8
f  7//8 10//8 11//9
f  12//10 9//10 8//10
f  9//10 12//10 13//11
f  7//12 12//12 8//12
f  12//12 7//12 11//12
f  9//13 3//13 2//13
f  3//14 9//14 13//14
f  3//14 13//14 14//15
f  14//16 13//16 15//16
f  14//17 1//17 3//17
f  1//17 14//17 16//17
f  4//18 6//18 5//18
f  6//19 4//19 17//19
f  6//20 17//20 18//20
f  6//21 18//21 10//21
f  1//22 17//22 4//22
f  17//22 1//22 16//23
f  12//24 15//16 13//16
f  11//25 18//25 17//25
f  18//25 11//25 10//25
f  15//16 16//25 14//16
f  16//25 15//16 12//24
f  16//25 12//24 11//25
f  16//25 11//25 17//25

