# {"id":"ID_23972","idOriginal":"ID_23972","origin":[14.309180556459935,48.33164595244306],"elevation":259.683,"wof":[{"Id":85898419,"Name":"Furth","Placetype":"neighbourhood","Offset":-1},{"Id":102049853,"Name":"Linz","Placetype":"county","Offset":-1},{"Id":85632785,"Name":"Austria","Placetype":"country","Offset":-1},{"Id":101748071,"Name":"Linz","Placetype":"locality","Offset":-1},{"Id":85681677,"Name":"Oberösterreich","Placetype":"region","Offset":-1}]}

# Attribution: City of Linz <http://geo.data.linz.gv.at/katalog/geodata/3d_geo_daten_lod2/>
# Longitude: 14.309180556459935
# Latitude: 48.33164595244306
# Elevation: 259.683

# File produced by Open Asset Import Library (http://www.assimp.sf.net)
# (assimp v3.1.0)


# 12 vertex positions
v  0 19.113 1.17033e-15
v  7.36 19.502 -4.006
v  5.582 19.047 -4.649
v  13.523 22.244 3.416
v  7.946 22.714 9.861
v  13.753 22.714 5.332
v  13.523 -2.0917e-16 3.416
v  7.36 2.45297e-16 -4.006
v  5.582 2.84669e-16 -4.649
v  0 0 0
v  7.946 -6.03812e-16 9.861
v  13.753 -3.26491e-16 5.332

# 0 UV coordinates

# 16 vertex normals
vn -0.168185 0.96189 -0.215594
vn -0.168224 0.961867 -0.215666
vn -0.168213 0.961861 -0.215702
vn -0.168264 0.961843 -0.215745
vn 0.769342 0 -0.638838
vn 0.769342 0 -0.638838
vn 0.340086 0 -0.940394
vn -0.639968 0 -0.768402
vn -0.778661 0 0.627445
vn -0.778661 0 0.627445
vn 0.614993 -0 0.788533
vn 0.992872 0 -0.119186
vn 0.992872 0 -0.119186
vn 4.46553e-24 -1 -6.12323e-17
vn 0 -1 -6.12323e-17
vn 5.22131e-24 -1 -6.12323e-17

# Mesh 'defaultobject' with 20 faces
g defaultobject
usemtl DefaultMaterial
f  1//1 2//1 3//1
f  2//2 1//2 4//2
f  4//3 1//3 5//3
f  4//4 5//4 6//4
f  7//5 2//5 4//5
f  2//5 7//5 8//6
f  8//7 3//7 2//7
f  3//7 8//7 9//7
f  3//8 10//8 1//8
f  10//8 3//8 9//8
f  1//9 11//9 5//9
f  11//9 1//9 10//10
f  11//11 6//11 5//11
f  6//11 11//11 12//11
f  12//12 4//12 6//12
f  4//12 12//12 7//13
f  8//14 10//14 9//14
f  10//14 8//14 11//15
f  11//15 8//14 7//16
f  11//15 7//16 12//15

