# {"id":"ID_26806","idOriginal":"ID_26806","origin":[14.304405455758097,48.33710572925936],"elevation":326.506,"wof":[{"Id":85681677,"Name":"Oberösterreich","Placetype":"region","Offset":-1},{"Id":85898419,"Name":"Furth","Placetype":"neighbourhood","Offset":-1},{"Id":102049853,"Name":"Linz","Placetype":"county","Offset":-1},{"Id":101748071,"Name":"Linz","Placetype":"locality","Offset":-1},{"Id":85632785,"Name":"Austria","Placetype":"country","Offset":-1}]}

# Attribution: City of Linz <http://geo.data.linz.gv.at/katalog/geodata/3d_geo_daten_lod2/>
# Longitude: 14.304405455758097
# Latitude: 48.33710572925936
# Elevation: 326.506

# File produced by Open Asset Import Library (http://www.assimp.sf.net)
# (assimp v3.1.0)


# 30 vertex positions
v  8.584 6.171 3.765
v  4.299 4.35 11.728
v  10.536 4.348 9.699
v  2.06 6.171 5.895
v  2.769 5.498 8.091
v  2.827 5.442 8.272
v  3.603 4.713 10.644
v  3.652 4.668 10.791
v  3.997 4.354 11.81
v  1.291 5.543 3.881
v  1.405 5.549 3.865
v  1.045 5.315 3.142
v  0 4.349 2.66299e-16
v  7.65 5.298 0.924
v  6.634 4.349 -2.166
v  3.997 -7.23154e-16 11.81
v  4.299 -7.18133e-16 11.728
v  10.536 -5.93892e-16 9.699
v  1.405 -2.36663e-16 3.865
v  1.291 -2.37643e-16 3.881
v  8.584 -2.3054e-16 3.765
v  7.65 -5.65787e-17 0.924
v  6.634 1.32629e-16 -2.166
v  0 0 0
v  1.045 -1.92392e-16 3.142
v  2.06 -3.60965e-16 5.895
v  2.769 -4.95431e-16 8.091
v  2.827 -5.06514e-16 8.272
v  3.603 -6.51757e-16 10.644
v  3.652 -6.60758e-16 10.791

# 0 UV coordinates

# 54 vertex normals
vn 0.0869432 0.959958 0.266311
vn 0.0869478 0.959957 0.266313
vn 0.0900806 0.959997 0.265124
vn 0.0598128 0.958862 0.277499
vn 0.0839289 0.959882 0.267549
vn 0.0894329 0.960323 0.264162
vn 0.0851998 0.959936 0.266954
vn -0.0879567 0.959724 -0.26682
vn -0.0869291 0.959977 -0.266245
vn -0.0869047 0.959936 -0.266404
vn -0.086881 0.959924 -0.266453
vn -0.0868843 0.960017 -0.266119
vn -0.0940809 0.959965 -0.263848
vn 0.262038 -0 0.965058
vn 0.262038 0 0.965058
vn 0.309358 -0 0.950946
vn 0.309358 0 0.950946
vn 0.138989 0 0.990294
vn 0.138989 0 0.990294
vn 0.949925 0 -0.312479
vn 0.949979 0 -0.312313
vn 0.949979 0 -0.312313
vn 0.949967 0 -0.312352
vn 0.949967 0 -0.312352
vn -0.310375 0 -0.950614
vn -0.310375 5.82083e-17 -0.950614
vn -0.948895 -1.93245e-17 0.315594
vn -0.948793 -0.000200048 0.315898
vn -0.948879 0 0.315641
vn -3.90924e-20 1 6.1248e-17
vn -0.951687 0 0.307071
vn -0.951636 -5.68143e-05 0.307228
vn -0.951687 7.59521e-05 0.307071
vn -0.952228 0.00081873 0.305386
vn -0.950579 -0.00163789 0.310479
vn -0.951629 0.00196637 0.307243
vn -0.948949 -0.00293584 0.315417
vn -0.947673 -0.00536416 0.319198
vn -0.952272 0.00793408 0.305147
vn -0.950428 0.00273799 0.310933
vn -0.948683 0.00116221 0.316227
vn -0.947186 0 0.320686
vn 5.83042e-25 -1 -6.12323e-17
vn 0 -1 -6.12323e-17
vn 0 -1 -6.12323e-17
vn -2.3521e-23 -1 -6.12323e-17
vn -3.59774e-24 -1 -6.12323e-17
vn 3.32613e-24 -1 -6.12323e-17
vn 2.05285e-24 -1 -6.12323e-17
vn 5.01438e-22 -1 -6.12326e-17
vn 6.53794e-23 -1 -6.12324e-17
vn -1.56369e-21 -1 -6.12313e-17
vn -2.95397e-22 -1 -6.12322e-17
vn 5.5696e-23 -1 -6.12324e-17

# Mesh 'defaultobject' with 56 faces
g defaultobject
usemtl DefaultMaterial
f  1//1 2//1 3//1
f  2//1 1//1 4//2
f  2//3 4//3 5//3
f  2//4 5//4 6//4
f  7//5 2//5 6//5
f  2//6 7//6 8//6
f  2//7 8//7 9//7
f  10//8 11//8 12//8
f  13//9 14//9 15//9
f  14//10 13//10 1//10
f  1//11 13//11 11//11
f  1//12 11//12 4//12
f  11//13 13//13 12//13
f  16//14 2//14 9//14
f  2//14 16//14 17//15
f  17//16 3//16 2//16
f  3//16 17//16 18//17
f  10//18 19//18 11//18
f  19//18 10//18 20//19
f  18//20 1//20 3//20
f  1//20 18//20 21//20
f  1//21 21//21 14//21
f  14//21 21//21 22//22
f  14//23 22//23 15//23
f  15//23 22//23 23//24
f  23//25 13//25 15//25
f  13//25 23//25 24//26
f  24//27 12//27 13//27
f  12//28 24//28 10//28
f  10//29 24//29 20//29
f  20//30 24//30 25//30
f  19//31 4//31 11//31
f  4//32 19//32 5//32
f  5//33 19//33 26//33
f  5//34 26//34 6//34
f  6//35 26//35 7//35
f  7//36 26//36 27//36
f  7//37 27//37 8//37
f  8//38 27//38 9//38
f  9//39 27//39 28//39
f  9//40 28//40 29//40
f  9//41 29//41 30//41
f  9//42 30//42 16//42
f  22//43 24//43 23//43
f  24//43 22//43 21//44
f  24//43 21//44 25//45
f  25//45 21//44 18//44
f  25//45 18//44 19//46
f  19//46 18//44 26//47
f  26//47 18//44 27//48
f  27//48 18//44 17//49
f  27//48 17//49 28//50
f  28//50 17//49 29//51
f  29//51 17//49 30//52
f  30//52 17//49 16//53
f  20//54 25//45 19//46

