# File produced by Open Asset Import Library (http://www.assimp.sf.net)
# (assimp v3.1.0)

mtllib ID_39786.obj.mtl

# 8 vertex positions
v  1.258 12.121 -5.486
v  5.236 3.25 1.23
v  6.487 12.211 -4.316
v  0 3.25 1.99005e-16
v  1.258 3.35921e-16 -5.486
v  0 0 0
v  5.236 -7.53158e-17 1.23
v  6.487 2.64279e-16 -4.316

# 0 UV coordinates

# 12 vertex normals
vn -0.193148 0.535712 0.822014
vn -0.193101 0.535732 0.822012
vn -0.974702 0 -0.22351
vn -0.974702 1.3686e-17 -0.22351
vn -0.228687 -5.96097e-17 0.9735
vn -0.228687 0 0.9735
vn 0.975491 0 0.22004
vn 0.975491 0 0.220039
vn 0.218353 0 -0.97587
vn 0.218353 0 -0.97587
vn 0 -1 -6.12323e-17
vn 6.95117e-24 -1 -6.12323e-17

# Mesh 'defaultobject' with 12 faces
g defaultobject
usemtl DefaultMaterial
f  1//1 2//1 3//1
f  2//2 1//2 4//2
f  5//3 4//3 1//3
f  4//3 5//3 6//4
f  6//5 2//5 4//5
f  2//5 6//5 7//6
f  2//7 8//7 3//7
f  8//7 2//7 7//8
f  8//9 1//9 3//9
f  1//9 8//9 5//10
f  5//11 7//11 6//11
f  7//11 5//11 8//12

