# {"id":"ID_5109","idOriginal":"ID_5109","origin":[14.292700911879477,48.31873331706192],"elevation":259.59,"wof":[{"Id":101748071,"Name":"Linz","Placetype":"locality","Offset":-1},{"Id":102049853,"Name":"Linz","Placetype":"county","Offset":-1},{"Id":85632785,"Name":"Austria","Placetype":"country","Offset":-1},{"Id":85681677,"Name":"Oberösterreich","Placetype":"region","Offset":-1},{"Id":85898449,"Name":"Steeg","Placetype":"neighbourhood","Offset":-1}]}

# Attribution: City of Linz <http://geo.data.linz.gv.at/katalog/geodata/3d_geo_daten_lod2/>
# Longitude: 14.292700911879477
# Latitude: 48.31873331706192
# Elevation: 259.59

# File produced by Open Asset Import Library (http://www.assimp.sf.net)
# (assimp v3.1.0)


# 56 vertex positions
v  16.218 15.58 2.225
v  7.415 11.879 4.877
v  14.669 11.873 9.678
v  10.575 15.58 -1.498
v  6.857 11.879 4.51
v  0 11.873 7.27012e-16
v  3.841 15.58 -5.94
v  0.292 12.158 -0.46
v  20.162 11.876 8.505
v  19.25 11.873 8.703
v  20.125 11.849 8.564
v  15.334 11.873 9.535
v  14.715 11.852 9.708
v  25.554 11.876 -0.209
v  19.995 15.58 -3.877
v  27.841 11.876 -3.904
v  27.38 12.159 -4.127
v  22.233 15.58 -7.495
v  27.55 12.055 -4.045
v  27.441 12.122 -4.098
v  14.395 11.849 -7.571
v  16.599 11.835 -11.182
v  14.366 11.849 -7.524
v  7.572 12.047 -11.553
v  7.684 12.181 -11.175
v  7.806 12.025 -11.451
v  7.212 12.33 -11.145
v  14.292 11.923 -7.403
v  14.246 11.925 -7.43
v  0 0 0
v  6.857 -2.76158e-16 4.51
v  14.669 -5.92607e-16 9.678
v  14.715 -5.94444e-16 9.708
v  7.415 -2.9863e-16 4.877
v  15.334 -5.8385e-16 9.535
v  19.25 -5.32905e-16 8.703
v  20.125 -5.24394e-16 8.564
v  20.162 -5.20781e-16 8.505
v  25.554 1.27976e-17 -0.209
v  27.841 2.39051e-16 -3.904
v  7.684 6.84271e-16 -11.175
v  7.806 7.01172e-16 -11.451
v  27.38 2.52706e-16 -4.127
v  27.55 2.47685e-16 -4.045
v  27.441 2.5093e-16 -4.098
v  16.599 6.847e-16 -11.182
v  22.233 4.58936e-16 -7.495
v  14.292 4.53303e-16 -7.403
v  14.246 4.54956e-16 -7.43
v  7.572 7.07417e-16 -11.553
v  14.366 4.60712e-16 -7.524
v  14.395 4.6359e-16 -7.571
v  0.055 5.57214e-18 -0.091
v  7.212 6.82434e-16 -11.145
v  3.841 3.6372e-16 -5.94
v  0.292 2.81669e-17 -0.46

# 0 UV coordinates

# 94 vertex normals
vn -0.255675 0.885742 0.387415
vn -0.255645 0.885721 0.387485
vn -0.255056 0.885754 0.387796
vn -0.255609 0.885747 0.387449
vn -0.255599 0.885734 0.387485
vn -0.335319 0.88124 0.333132
vn 0.0978928 0.880283 0.464239
vn 0.0969158 0.88273 0.459777
vn 0.0976234 0.882803 0.459487
vn 0.0984859 0.882684 0.459531
vn 0.102624 0.881966 0.460004
vn 0.413397 0.873882 0.255799
vn 0.413408 0.87385 0.25589
vn 0.413414 0.87385 0.25588
vn 0.413573 0.874195 0.254441
vn 0.413463 0.873863 0.255757
vn -0.0701982 0.544339 0.835923
vn 0.196665 0.784831 0.587676
vn -0.413486 0.873851 -0.255762
vn -0.413485 0.873849 -0.255771
vn -0.413779 0.873843 -0.255315
vn -0.413411 0.873848 -0.255892
vn 0.252834 0.885882 -0.388957
vn 0.2547 0.88521 -0.389271
vn 0.253125 0.886501 -0.387355
vn 0.2663 0.882194 -0.388354
vn 0.255711 0.885689 -0.387515
vn 0.255084 0.886008 -0.387197
vn 0.255663 0.885703 -0.387512
vn 0.25561 0.885724 -0.387501
vn -0.549516 -5.11586e-17 0.835483
vn -0.549506 -8.08387e-06 0.83549
vn -0.551909 0.00214395 0.833902
vn -0.549515 -0.00210221 0.835481
vn -0.547537 -0.00396473 0.836772
vn -0.55174 3.03123e-05 0.834016
vn -0.546273 0 0.837608
vn -6.3239e-21 -1 -6.1228e-17
vn 0.269169 0 0.963093
vn 0.207823 -0 0.978166
vn 0.15689 -0 0.987616
vn 0.15689 0 0.987616
vn 0.847186 -0 0.531296
vn 0.850369 -3.52976e-05 0.526187
vn 0.850305 7.13308e-05 0.526291
vn 0.847162 0.00735179 0.531284
vn 0.850369 -4.49186e-05 0.526187
vn 0.850305 0 0.526291
vn 0.91463 -0 0.404292
vn 0.429352 0 -0.903137
vn 0.437263 -4.89131e-05 -0.899334
vn 0.436032 -2.74809e-05 -0.899931
vn 0.435458 0 -0.900209
vn -1.05262e-20 1 6.12527e-17
vn 3.94457e-21 1 6.1224e-17
vn 0.547569 3.62675e-05 -0.836761
vn 0.547569 0 -0.83676
vn 0.547569 0 -0.83676
vn -1.90107e-19 -1 -6.09609e-17
vn 0.495669 0 -0.868512
vn 0.505945 -0.0075335 -0.862533
vn 0.495743 0 -0.86847
vn 1.07914e-20 1 6.1209e-17
vn 0.399583 0 -0.916697
vn 0.399583 0 -0.916697
vn -0.853568 0 -0.520981
vn -0.851032 0.00173023 -0.525111
vn -0.853107 0 -0.521736
vn -0.853107 0 -0.521736
vn -0.851033 0 -0.525112
vn -0.853568 -2.25874e-05 -0.520981
vn -0.855829 3.1673e-17 -0.517259
vn -0.749837 0 -0.661623
vn -0.749837 0 -0.661623
vn -0.839345 0 -0.543599
vn -0.839351 -4.34405e-06 -0.54359
vn -0.839345 7.08347e-06 -0.543599
vn -0.843188 -0.00381613 -0.537605
vn -0.839352 0.000417716 -0.543588
vn -0.841401 0.000244288 -0.540412
vn 5.9063e-23 -1 -6.12324e-17
vn 0 -1 -6.12323e-17
vn 0 -1 -6.12323e-17
vn -3.94963e-24 -1 -6.12323e-17
vn 0 -1 -6.12323e-17
vn -9.29432e-22 -1 -6.12323e-17
vn 1.05747e-21 -1 -6.12319e-17
vn -1.14679e-22 -1 -6.12324e-17
vn 7.81722e-24 -1 -6.12323e-17
vn 1.70415e-23 -1 -6.12323e-17
vn -2.23076e-21 -1 -6.12337e-17
vn 1.6245e-22 -1 -6.12323e-17
vn 4.78356e-23 -1 -6.12323e-17
vn 9.56957e-21 -1 -6.12529e-17

# Mesh 'defaultobject' with 106 faces
g defaultobject
usemtl DefaultMaterial
f  1//1 2//1 3//1
f  2//2 1//2 4//2
f  2//3 4//3 5//3
f  5//4 4//4 6//4
f  6//5 4//5 7//5
f  6//6 7//6 8//6
f  9//7 10//7 11//7
f  10//8 9//8 1//8
f  10//9 1//9 12//9
f  12//10 1//10 13//10
f  13//11 1//11 3//11
f  14//12 1//12 9//12
f  1//13 14//13 15//13
f  15//14 14//14 16//14
f  15//15 16//15 17//15
f  15//16 17//16 18//16
f  17//17 16//17 19//17
f  17//18 19//18 20//18
f  21//19 18//19 22//19
f  18//19 21//19 15//20
f  15//21 21//21 23//21
f  15//22 23//22 1//22
f  24//23 25//23 26//23
f  25//24 24//24 27//24
f  28//25 1//25 23//25
f  1//26 28//26 29//26
f  1//27 29//27 25//27
f  1//28 25//28 27//28
f  1//29 27//29 4//29
f  4//30 27//30 7//30
f  30//31 5//31 6//31
f  5//32 30//32 2//32
f  2//33 30//33 3//33
f  3//34 30//34 31//34
f  3//35 31//35 13//35
f  13//36 31//36 32//36
f  13//37 32//37 33//37
f  32//38 31//38 34//38
f  13//39 35//39 12//39
f  35//39 13//39 33//39
f  35//40 10//40 12//40
f  10//40 35//40 36//40
f  36//41 11//41 10//41
f  11//41 36//41 37//42
f  37//43 9//43 11//43
f  9//44 37//44 14//44
f  14//45 37//45 16//45
f  16//46 37//46 38//46
f  16//47 38//47 39//47
f  16//48 39//48 40//48
f  41//49 26//49 25//49
f  26//49 41//49 42//49
f  20//50 43//50 17//50
f  43//51 20//51 19//51
f  43//52 19//52 16//52
f  43//53 16//53 40//53
f  43//54 40//54 44//54
f  43//54 44//54 45//55
f  17//56 22//56 18//56
f  22//57 17//57 43//57
f  22//57 43//57 46//58
f  46//59 43//59 47//59
f  29//60 41//60 25//60
f  41//61 29//61 28//61
f  41//62 28//62 48//62
f  41//63 48//63 49//63
f  26//64 50//64 24//64
f  50//64 26//64 42//65
f  46//66 21//66 22//66
f  21//67 46//67 23//67
f  23//68 48//68 28//68
f  48//68 23//68 51//69
f  51//70 23//70 52//70
f  52//71 23//71 46//71
f  6//72 53//72 30//72
f  24//73 54//73 27//73
f  54//73 24//73 50//74
f  54//75 7//75 27//75
f  7//76 54//76 8//76
f  8//77 54//75 55//77
f  8//78 55//78 6//78
f  6//79 55//79 56//79
f  6//80 56//80 53//80
f  42//81 41//81 50//81
f  53//82 31//38 30//82
f  31//38 53//82 56//83
f  31//38 56//83 55//84
f  31//38 55//84 54//82
f  31//38 54//82 50//81
f  31//38 50//81 41//81
f  31//38 41//81 49//82
f  31//38 49//82 34//38
f  34//38 49//82 32//38
f  32//38 49//82 48//85
f  32//38 48//85 52//86
f  32//38 52//86 46//59
f  32//38 46//59 47//59
f  32//38 47//59 33//87
f  33//87 47//59 35//88
f  35//88 47//59 36//89
f  36//89 47//59 43//59
f  36//89 43//59 37//90
f  37//90 43//59 38//91
f  38//91 43//59 39//92
f  39//92 43//59 40//93
f  40//93 43//59 44//94

