# {"id":"ID_38810","idOriginal":"ID_38810","origin":[14.299998535435142,48.288424460227056],"elevation":261.738,"wof":[{"Id":85681677,"Name":"Oberösterreich","Placetype":"region","Offset":-1},{"Id":102049853,"Name":"Linz","Placetype":"county","Offset":-1},{"Id":101748071,"Name":"Linz","Placetype":"locality","Offset":-1},{"Id":85632785,"Name":"Austria","Placetype":"country","Offset":-1},{"Id":85898459,"Name":"Wegscheid","Placetype":"neighbourhood","Offset":-1}]}

# Attribution: City of Linz <http://geo.data.linz.gv.at/katalog/geodata/3d_geo_daten_lod2/>
# Longitude: 14.299998535435142
# Latitude: 48.288424460227056
# Elevation: 261.738

# File produced by Open Asset Import Library (http://www.assimp.sf.net)
# (assimp v3.1.0)


# 18 vertex positions
v  2.07 2.509 3.02
v  2.061 1.872 -1.371
v  0 1.88 1.15117e-16
v  6.383 2.537 0.448
v  4.361 1.523 -5.258
v  5.862 1.993 -2.974
v  7.554 2.537 -0.303
v  7.578 2.545 -0.265
v  0.997 1.516 -3.15
v  4.361 3.2196e-16 -5.258
v  0.997 1.92882e-16 -3.15
v  0 0 0
v  2.061 8.39495e-17 -1.371
v  2.07 -1.84922e-16 3.02
v  6.383 -2.74321e-17 0.448
v  7.578 1.62266e-17 -0.265
v  5.862 1.82105e-16 -2.974
v  7.554 1.85534e-17 -0.303

# 0 UV coordinates

# 31 vertex normals
vn -0.0911572 0.985547 -0.142786
vn -0.0915429 0.985512 -0.14278
vn -0.0915867 0.985522 -0.14268
vn -0.0913607 0.985532 -0.142762
vn -0.0915389 0.985519 -0.142732
vn -0.0946084 0.984524 -0.147519
vn -0.0913869 0.985558 -0.142565
vn -0.530995 0 -0.847375
vn -0.530995 -0 -0.847375
vn -0.553861 0 -0.832609
vn -0.553861 0 -0.832609
vn -0.858216 0 0.513289
vn -0.824838 0 0.565369
vn -0.824838 0 0.565369
vn 0.51218 -0 0.858878
vn 0.51218 0 0.858878
vn 0.51238 0 0.858759
vn 0.512381 0 0.858759
vn 0.835691 0 -0.5492
vn 0.835691 0 -0.5492
vn 0.845487 0 -0.533996
vn 0.844769 -2.38112e-05 -0.535131
vn 0.844777 0 -0.535119
vn 1.37745e-19 1 6.10209e-17
vn 1.05842e-22 -1 -6.12323e-17
vn -3.009e-24 -1 -6.12323e-17
vn -6.57671e-24 -1 -6.12323e-17
vn 0 -1 -6.12323e-17
vn 0 -1 -6.12323e-17
vn -5.84181e-24 -1 -6.12323e-17
vn 0 -1 -6.12323e-17

# Mesh 'defaultobject' with 32 faces
g defaultobject
usemtl DefaultMaterial
f  1//1 2//1 3//1
f  2//2 1//2 4//2
f  2//3 4//3 5//3
f  5//4 4//4 6//4
f  6//5 4//5 7//5
f  7//6 4//6 8//6
f  5//7 9//7 2//7
f  10//8 9//8 5//8
f  9//8 10//8 11//9
f  2//10 12//10 3//10
f  12//10 2//10 13//11
f  9//12 13//12 2//12
f  13//12 9//12 11//12
f  3//13 14//13 1//13
f  14//13 3//13 12//14
f  14//15 4//15 1//15
f  4//15 14//15 15//16
f  4//17 15//17 8//17
f  8//17 15//17 16//18
f  17//19 5//19 6//19
f  5//19 17//19 10//20
f  16//21 7//21 8//21
f  7//22 16//22 6//22
f  6//23 16//23 17//23
f  17//24 16//24 18//24
f  15//25 18//25 16//25
f  18//25 15//25 17//26
f  17//26 15//25 14//27
f  17//26 14//27 10//28
f  10//28 14//27 13//29
f  13//29 14//27 12//30
f  11//31 10//28 13//29

