# {"id":"ID_6248","idOriginal":"ID_6248","origin":[14.317371718768925,48.250638544161156],"elevation":256.92,"wof":[{"Id":85898429,"Name":"Kleinmünchen","Placetype":"neighbourhood","Offset":-1},{"Id":85681677,"Name":"Oberösterreich","Placetype":"region","Offset":-1},{"Id":102049853,"Name":"Linz","Placetype":"county","Offset":-1},{"Id":101748071,"Name":"Linz","Placetype":"locality","Offset":-1},{"Id":85632785,"Name":"Austria","Placetype":"country","Offset":-1}]}

# Attribution: City of Linz <http://geo.data.linz.gv.at/katalog/geodata/3d_geo_daten_lod2/>
# Longitude: 14.317371718768925
# Latitude: 48.250638544161156
# Elevation: 256.92

# File produced by Open Asset Import Library (http://www.assimp.sf.net)
# (assimp v3.1.0)


# 42 vertex positions
v  24.396 3.654 -16.912
v  32.966 2.894 -14.96
v  29.275 2.894 -20.295
v  28.094 3.654 -11.567
v  19.517 2.894 -13.53
v  23.222 2.894 -8.175
v  23.222 5.00574e-16 -8.175
v  28.094 7.08274e-16 -11.567
v  32.966 9.16036e-16 -14.96
v  29.275 1.24271e-15 -20.295
v  24.396 1.03556e-15 -16.912
v  19.517 8.28474e-16 -13.53
v  14.637 3.65 -10.148
v  23.222 2.95 -8.175
v  19.517 2.95 -13.53
v  18.349 3.65 -4.783
v  9.758 2.95 -6.765
v  13.477 2.95 -1.391
v  18.349 2.92874e-16 -4.783
v  13.477 8.51742e-17 -1.391
v  14.637 6.21386e-16 -10.148
v  9.758 4.14237e-16 -6.765
v  39 2.962 -27.037
v  37.875 3.65 -18.377
v  42.711 2.957 -21.744
v  34.19 3.65 -23.702
v  29.275 2.947 -20.295
v  32.966 2.947 -14.96
v  37.875 1.12527e-15 -18.377
v  42.711 1.33144e-15 -21.744
v  39 1.65554e-15 -27.037
v  34.19 1.45133e-15 -23.702
v  4.838 3.755 -3.354
v  13.477 2.739 -1.391
v  9.758 2.739 -6.765
v  8.563 3.755 2.03
v  0 2.756 1.68756e-16
v  3.732 2.756 5.394
v  3.732 -3.30287e-16 5.394
v  8.563 -1.24302e-16 2.03
v  4.838 2.05373e-16 -3.354
v  0 0 0

# 0 UV coordinates

# 62 vertex normals
vn 0.104418 0.991906 -0.0722414
vn 0.104419 0.991906 -0.0722432
vn -0.104427 0.991905 0.0722492
vn -0.104428 0.991905 0.0722511
vn 0.57138 -0 0.820685
vn 0.571494 0 0.820606
vn 0.571494 0 0.820606
vn 0.82237 0 -0.568953
vn -0.569805 0 -0.82178
vn -0.569692 -0 -0.821858
vn -0.569692 -0 -0.821858
vn -0.822358 0 0.56897
vn 2.19919e-23 -1 -6.12323e-17
vn -1.09956e-23 -1 -6.12323e-17
vn 1.6434e-23 -1 -6.12323e-17
vn -1.64335e-23 -1 -6.12323e-17
vn 0.096287 0.993122 -0.0666187
vn 0.0962874 0.993122 -0.0666205
vn -0.0962904 0.993121 0.0666226
vn -0.096294 0.99312 0.0666389
vn 0.571301 0 0.82074
vn 0.571301 0 0.82074
vn 0.57138 -0 0.820685
vn 0.57138 0 0.820685
vn 0.822358 0 -0.56897
vn -0.569613 0 -0.821913
vn -0.569613 -0 -0.821913
vn -0.569805 -0 -0.82178
vn -0.822297 0 0.569059
vn -5.47713e-24 -1 -6.12323e-17
vn 0 -1 -6.12323e-17
vn 1.09123e-23 -1 -6.12323e-17
vn 0 -1 -6.12323e-17
vn 0.0960747 0.993156 -0.0664212
vn 0.095997 0.993162 -0.0664318
vn -0.0960017 0.993162 0.066435
vn -0.0959975 0.993163 0.0664155
vn 0.571295 -0 0.820745
vn 0.571388 0 0.82068
vn 0.571388 0 0.82068
vn 0.818803 0 -0.574075
vn -0.569787 0 -0.821792
vn -0.569787 -0 -0.821792
vn -0.569697 -0 -0.821855
vn -0.82237 0 0.568953
vn 3.8914e-23 -1 -6.12323e-17
vn -3.34646e-23 -1 -6.12323e-17
vn 0.137583 0.985903 -0.0952124
vn 0.137577 0.985907 -0.0951848
vn -0.137587 0.985905 0.0951916
vn -0.137588 0.985905 0.0951941
vn 0.571443 -0 0.820642
vn 0.571443 0 0.820642
vn 0.571353 0 0.820704
vn 0.822297 0 -0.569059
vn -0.569757 0 -0.821813
vn -0.569757 -0 -0.821813
vn -0.56974 -0 -0.821825
vn -0.56974 5.03223e-17 -0.821825
vn -0.822357 -3.48395e-17 0.568972
vn -0.822357 0 0.568972
vn 1.07854e-23 -1 -6.12323e-17

# Mesh 'defaultobject' with 80 faces
g defaultobject
usemtl DefaultMaterial
f  1//1 2//1 3//1
f  2//1 1//1 4//2
f  5//3 4//3 1//3
f  4//3 5//3 6//4
f  7//5 4//5 6//5
f  4//5 7//5 8//5
f  4//6 8//6 2//6
f  2//6 8//6 9//7
f  9//8 3//8 2//8
f  3//8 9//8 10//8
f  10//9 1//9 3//9
f  1//9 10//9 11//9
f  1//10 11//10 5//10
f  5//10 11//10 12//11
f  12//12 6//12 5//12
f  6//12 12//12 7//12
f  8//13 10//13 9//13
f  10//13 8//13 7//14
f  10//13 7//14 11//15
f  11//15 7//14 12//16
f  13//17 14//17 15//17
f  14//17 13//17 16//18
f  17//19 16//19 13//19
f  16//20 17//20 18//20
f  16//21 7//21 14//21
f  7//21 16//21 19//22
f  19//23 16//23 18//23
f  19//23 18//23 20//24
f  7//25 15//25 14//25
f  15//25 7//25 12//25
f  12//26 13//26 15//26
f  13//26 12//26 21//27
f  13//28 21//28 17//28
f  17//28 21//28 22//28
f  22//29 18//29 17//29
f  18//29 22//29 20//29
f  19//30 12//16 7//14
f  12//16 19//30 20//31
f  12//16 20//31 21//32
f  21//32 20//31 22//33
f  23//34 24//34 25//34
f  24//35 23//35 26//35
f  27//36 24//36 26//36
f  24//37 27//37 28//37
f  9//38 24//38 28//38
f  24//38 9//38 29//38
f  24//39 29//39 25//39
f  25//39 29//39 30//40
f  25//41 31//41 23//41
f  31//41 25//41 30//41
f  31//42 26//42 23//42
f  26//42 31//42 32//43
f  26//44 32//44 27//44
f  27//44 32//44 10//44
f  10//45 28//45 27//45
f  28//45 10//45 9//45
f  29//46 31//46 30//46
f  31//46 29//46 9//13
f  31//46 9//13 32//47
f  32//47 9//13 10//13
f  33//48 34//48 35//48
f  34//49 33//49 36//49
f  37//50 36//50 33//50
f  36//50 37//50 38//51
f  39//52 36//52 38//52
f  36//52 39//52 40//53
f  36//54 40//54 34//54
f  34//54 40//54 20//54
f  20//55 35//55 34//55
f  35//55 20//55 22//55
f  22//56 33//56 35//56
f  33//56 22//56 41//57
f  33//58 41//58 37//58
f  37//58 41//58 42//59
f  42//60 38//60 37//60
f  38//60 42//60 39//61
f  40//33 22//33 20//31
f  22//33 40//33 39//33
f  22//33 39//33 41//62
f  41//62 39//33 42//33

