# {"id":"ID_33607","idOriginal":"ID_33607","origin":[14.344449781399948,48.25360705746588],"elevation":253.24}
# Longitude: 14.344449781399948
# Latitude: 48.25360705746588
# Elevation: 253.24

# File produced by Open Asset Import Library (http://www.assimp.sf.net)
# (assimp v3.1.0)

mtllib ID_33607.obj.mtl

# 8 vertex positions
v  0 3.483 2.13272e-16
v  9.743 3.097 4.236
v  9.24 3.483 -1.141
v  0.661 3.097 5.357
v  9.24 6.98661e-17 -1.141
v  0 0 0
v  0.661 -3.28022e-16 5.357
v  9.743 -2.5938e-16 4.236

# 0 UV coordinates

# 10 vertex normals
vn 0.00874108 0.997453 0.0707867
vn 0.00873811 0.997453 0.0707935
vn -0.122554 0 -0.992462
vn -0.122554 6.07708e-17 -0.992462
vn -0.992473 -7.49859e-18 0.122461
vn -0.992473 0 0.122461
vn 0.122501 -0 0.992468
vn 0.995653 0 -0.09314
vn 2.10674e-24 -1 -6.12323e-17
vn -2.14359e-24 -1 -6.12323e-17

# Mesh 'defaultobject' with 12 faces
g defaultobject
usemtl DefaultMaterial
f  1//1 2//1 3//1
f  2//1 1//1 4//2
f  5//3 1//3 3//3
f  1//3 5//3 6//4
f  6//5 4//5 1//5
f  4//5 6//5 7//6
f  7//7 2//7 4//7
f  2//7 7//7 8//7
f  2//8 5//8 3//8
f  5//8 2//8 8//8
f  8//9 6//9 5//9
f  6//9 8//9 7//10

