# {"id":"ID_18673","idOriginal":"ID_18673","origin":[14.29984175409086,48.2471754480728],"elevation":260.468}
# Longitude: 14.29984175409086
# Latitude: 48.2471754480728
# Elevation: 260.468

# File produced by Open Asset Import Library (http://www.assimp.sf.net)
# (assimp v3.1.0)

mtllib ID_18673.obj.mtl

# 29 vertex positions
v  12.269 5.456 -6.302
v  18.175 8.352 -3.112
v  16.698 5.468 -7.716
v  9.261 6.77 -3.013
v  5.424 8.352 1.019
v  8.624 5.514 -5.018
v  2.159 6.737 -0.769
v  2.186 6.791 -0.683
v  2.134 6.791 -0.667
v  1.781 5.464 5.513
v  0 5.457 3.34145e-16
v  3.412 6.493 4.946
v  3.853 6.499 4.793
v  4.361 5.497 6.394
v  19.668 5.438 1.539
v  3.853 -2.93487e-16 4.793
v  1.781 -3.37574e-16 5.513
v  3.412 -3.02855e-16 4.946
v  4.361 -3.9152e-16 6.394
v  19.668 -9.42366e-17 1.539
v  9.261 1.84493e-16 -3.013
v  8.624 3.07264e-16 -5.018
v  2.186 4.18217e-17 -0.683
v  2.159 4.70877e-17 -0.769
v  0 0 0
v  18.175 1.90555e-16 -3.112
v  16.698 4.72469e-16 -7.716
v  12.269 3.85886e-16 -6.302
v  2.134 4.0842e-17 -0.667

# 0 UV coordinates

# 48 vertex normals
vn -0.157909 0.858827 -0.487321
vn -0.157824 0.858778 -0.487434
vn -0.157843 0.858902 -0.487209
vn -0.158112 0.858613 -0.487631
vn -0.157959 0.858833 -0.487293
vn -0.156203 0.85784 -0.489602
vn -0.152282 0.855495 -0.494912
vn -0.487897 0.858752 0.156527
vn -0.487724 0.858845 0.156557
vn -0.487377 0.858976 0.156922
vn 0.157359 0.858968 0.487249
vn 0.15789 0.858794 0.487385
vn 0.157897 0.858792 0.487385
vn 0.157898 0.858797 0.487377
vn 0.327759 0.00107297 0.944761
vn 0.328238 0 0.944595
vn 1.31255e-20 -1 -6.11945e-17
vn 0.302332 -0 0.953203
vn -0.953168 0 0.302442
vn -0.953168 0 0.302442
vn -0.953057 0 0.302792
vn -0.953057 0 0.302792
vn -0.954084 0 0.29954
vn -0.954084 0 0.29954
vn -0.951577 0 0.307411
vn -0.951577 0 0.307411
vn 0.952146 0 -0.305645
vn 0.952186 7.79985e-05 -0.305518
vn 0.952146 -0.000159066 -0.305645
vn 0.952201 0 -0.305473
vn -0.304136 0 -0.952629
vn -0.332251 0 -0.943191
vn -0.332252 0 -0.943191
vn -0.301286 0 -0.953534
vn -0.301286 -0 -0.953534
vn -0.294086 0 -0.955779
vn -0.298306 -3.53933e-05 -0.95447
vn -0.298225 5.8446e-17 -0.954495
vn 0 1 6.12351e-17
vn 9.42002e-24 -1 -6.12323e-17
vn 0 -1 -6.12323e-17
vn 2.71582e-24 -1 -6.12323e-17
vn -1.73855e-23 -1 -6.12324e-17
vn 0 -1 -6.12323e-17
vn -1.92027e-24 -1 -6.12323e-17
vn 0 -1 -6.12322e-17
vn -2.05355e-24 -1 -6.12323e-17
vn 0 -1 -6.12323e-17

# Mesh 'defaultobject' with 54 faces
g defaultobject
usemtl DefaultMaterial
f  1//1 2//1 3//1
f  2//2 1//2 4//2
f  2//3 4//3 5//3
f  4//4 1//4 6//4
f  5//5 4//5 7//5
f  5//6 7//6 8//6
f  5//7 8//7 9//7
f  10//8 9//8 11//8
f  9//9 10//9 5//9
f  5//10 10//10 12//10
f  13//11 5//11 12//11
f  5//12 13//12 14//12
f  5//12 14//12 15//13
f  5//14 15//13 2//14
f  10//15 13//15 12//15
f  13//16 10//16 16//16
f  16//16 10//16 17//16
f  16//17 17//17 18//17
f  19//18 15//18 14//18
f  15//18 19//18 20//18
f  16//19 14//19 13//19
f  14//19 16//19 19//20
f  6//21 21//21 4//21
f  21//21 6//21 22//22
f  7//23 23//23 8//23
f  23//23 7//23 24//24
f  11//25 17//25 10//25
f  17//25 11//25 25//26
f  20//27 2//27 15//27
f  2//28 20//28 3//28
f  3//29 20//29 26//29
f  3//30 26//30 27//30
f  27//31 1//31 3//31
f  1//31 27//31 28//31
f  1//32 22//32 6//32
f  22//32 1//32 28//33
f  21//34 7//34 4//34
f  7//34 21//34 24//35
f  23//36 9//36 8//36
f  9//37 23//37 11//37
f  11//38 23//38 25//38
f  25//39 23//39 29//39
f  26//40 28//40 27//40
f  28//40 26//40 20//41
f  28//40 20//41 19//42
f  28//40 19//42 21//43
f  28//40 21//43 22//44
f  21//43 19//42 23//45
f  21//43 23//45 24//46
f  23//45 19//42 29//47
f  29//47 19//42 16//17
f  16//17 25//48 29//47
f  25//48 16//17 18//17
f  25//48 18//17 17//17

