# {"id":"ID_58838","idOriginal":"ID_58838","origin":[14.279010765835132,48.33954612896591],"elevation":320.644,"wof":[{"Id":85681677,"Name":"Oberösterreich","Placetype":"region","Offset":-1},{"Id":85898425,"Name":"Harbach","Placetype":"neighbourhood","Offset":-1},{"Id":102049853,"Name":"Linz","Placetype":"county","Offset":-1},{"Id":85632785,"Name":"Austria","Placetype":"country","Offset":-1}]}

# Attribution: City of Linz <http://geo.data.linz.gv.at/katalog/geodata/3d_geo_daten_lod2/>
# Longitude: 14.279010765835132
# Latitude: 48.33954612896591
# Elevation: 320.644

# File produced by Open Asset Import Library (http://www.assimp.sf.net)
# (assimp v3.1.0)


# 8 vertex positions
v  1.937 5.27 1.663
v  1.005 5.27 -1.098
v  0 5.27 3.22694e-16
v  2.944 5.27 0.527
v  0 0 0
v  1.937 -1.01829e-16 1.663
v  2.944 -3.22694e-17 0.527
v  1.005 6.72331e-17 -1.098

# 0 UV coordinates

# 9 vertex normals
vn 0 1 0
vn -0.651404 -4.64589e-17 0.758731
vn -0.651404 0 0.758731
vn 0.748317 -0 0.663341
vn 0.64232 0 -0.766436
vn -0.737656 0 -0.675177
vn -0.737656 4.13427e-17 -0.675177
vn -3.48457e-24 -1 -6.12323e-17
vn 1.03422e-23 -1 -6.12323e-17

# Mesh 'defaultobject' with 12 faces
g defaultobject
usemtl DefaultMaterial
f  1//1 2//1 3//1
f  2//1 1//1 4//1
f  5//2 1//2 3//2
f  1//2 5//2 6//3
f  6//4 4//4 1//4
f  4//4 6//4 7//4
f  7//5 2//5 4//5
f  2//5 7//5 8//5
f  8//6 3//6 2//6
f  3//6 8//6 5//7
f  8//8 6//8 5//8
f  6//8 8//8 7//9

