# {"id":"ID_45423","idOriginal":"ID_45423","origin":[14.3031355134606,48.285774869260344],"elevation":261.16}
# Longitude: 14.3031355134606
# Latitude: 48.285774869260344
# Elevation: 261.16

# File produced by Open Asset Import Library (http://www.assimp.sf.net)
# (assimp v3.1.0)

mtllib ID_45423.obj.mtl

# 20 vertex positions
v  6.453 2.152 -0.082
v  4.397 2.148 3.005
v  6.483 2.147 -0.061
v  3.905 2.391 0.392
v  2.735 2.147 -2.699
v  2.471 2.212 -2.274
v  2.256 2.214 -2.409
v  2.61 2.391 -0.504
v  1.782 2.141 -2.705
v  0.013 2.147 -0.02
v  0 2.144 1.31282e-16
v  2.471 1.39242e-16 -2.274
v  2.735 1.65266e-16 -2.699
v  1.782 1.65633e-16 -2.705
v  0.013 1.22465e-18 -0.02
v  0 0 0
v  2.256 1.47509e-16 -2.409
v  6.453 5.02105e-18 -0.082
v  6.483 3.73517e-18 -0.061
v  4.397 -1.84003e-16 3.005

# 0 UV coordinates

# 35 vertex normals
vn 0.112011 0.990805 0.0758855
vn 0.106448 0.991695 0.0721812
vn 0.0732934 0.991659 -0.106023
vn 0.0734061 0.991646 -0.106065
vn 0.0770198 0.991165 -0.107976
vn 0.0731586 0.991699 -0.105737
vn -0.107672 0.991567 -0.0721216
vn -0.106682 0.991646 -0.0725029
vn -0.0710513 0.992177 0.102644
vn -0.0734046 0.991647 0.106054
vn -0.073364 0.991652 0.106034
vn -0.849455 0 -0.527662
vn -0.849455 0 -0.527662
vn -0.835052 0 -0.55017
vn -0.835052 -0 -0.55017
vn -0.838444 -0 -0.544988
vn -0.838444 3.33709e-17 -0.544988
vn 0.531768 0 -0.84689
vn 0.529708 -0.000278721 -0.84818
vn 0.530331 0 -0.847791
vn -2.36328e-21 1 6.1235e-17
vn 0.575586 0 -0.817741
vn 0.573935 0.00425471 -0.81889
vn 0.575586 -4.42561e-05 -0.817741
vn 0.573466 0 -0.819229
vn -0.56424 0 0.825611
vn -0.56424 0 0.825611
vn 0.826786 -0 0.562517
vn 0.826786 0 0.562517
vn -3.25649e-24 -1 -6.12323e-17
vn 0 -1 -6.12323e-17
vn 1.09577e-22 -1 -6.12324e-17
vn -1.21008e-22 -1 -6.12323e-17
vn 0 -1 -6.12323e-17
vn 0 -1 -6.12322e-17

# Mesh 'defaultobject' with 36 faces
g defaultobject
usemtl DefaultMaterial
f  1//1 2//1 3//1
f  2//2 1//2 4//2
f  5//3 4//3 1//3
f  4//4 5//4 6//4
f  4//5 6//5 7//5
f  4//6 7//6 8//6
f  9//7 8//7 7//7
f  8//8 9//8 10//8
f  2//9 10//9 11//9
f  10//10 2//10 8//10
f  8//11 2//11 4//11
f  5//12 12//12 6//12
f  12//12 5//12 13//13
f  14//14 10//14 9//14
f  10//14 14//14 15//15
f  10//16 15//16 11//16
f  11//16 15//16 16//17
f  12//18 7//18 6//18
f  7//19 12//19 9//19
f  9//20 12//20 14//20
f  14//21 12//21 17//21
f  1//22 13//22 5//22
f  13//23 1//23 3//23
f  13//24 3//24 18//24
f  18//25 3//25 19//25
f  11//26 20//26 2//26
f  20//26 11//26 16//27
f  20//28 3//28 2//28
f  3//28 20//28 19//29
f  15//30 20//30 16//30
f  20//30 15//30 14//31
f  20//30 14//31 17//32
f  20//30 17//32 12//33
f  20//30 12//33 13//34
f  20//30 13//34 18//31
f  20//30 18//31 19//35

