# {"id":"_13206","idOriginal":"_13206","origin":[14.28426494050857,48.29570168716525],"elevation":264.901,"wof":[{"Id":85898459,"Name":"Wegscheid","Placetype":"neighbourhood","Offset":-1},{"Id":85681677,"Name":"Oberösterreich","Placetype":"region","Offset":-1},{"Id":102049853,"Name":"Linz","Placetype":"county","Offset":-1},{"Id":101748071,"Name":"Linz","Placetype":"locality","Offset":-1},{"Id":85632785,"Name":"Austria","Placetype":"country","Offset":-1}]}

# Attribution: City of Linz <http://geo.data.linz.gv.at/katalog/geodata/3d_geo_daten_lod2/>
# Longitude: 14.28426494050857
# Latitude: 48.29570168716525
# Elevation: 264.901

# File produced by Open Asset Import Library (http://www.assimp.sf.net)
# (assimp v3.1.0)


# 38 vertex positions
v  7.173 16.601 -0.604
v  14.372 12.34 7.233
v  13.625 12.307 -1.147
v  8.582 16.601 14.208
v  14.985 12.277 12.679
v  15.678 11.813 12.573
v  12.616 13.893 13.5
v  15.058 12.268 13.297
v  11.266 14.811 13.923
v  12.66 13.882 13.787
v  15.151 11.82 7.139
v  5.137 14.304 14.573
v  3.98 13.561 14.228
v  4.017 13.561 14.63
v  2.035 12.264 14.444
v  1.019 11.806 11.048
v  1.381 11.827 14.516
v  0 11.827 7.24195e-16
v  0.553 12.195 -0.047
v  3.98 -8.71214e-16 14.228
v  1.381 -8.88849e-16 14.516
v  2.035 -8.8444e-16 14.444
v  5.137 -8.92339e-16 14.573
v  4.017 -8.95829e-16 14.63
v  8.582 -8.69989e-16 14.208
v  12.66 -8.4421e-16 13.787
v  11.266 -8.52538e-16 13.923
v  12.616 -8.26637e-16 13.5
v  15.058 -8.14206e-16 13.297
v  14.985 -7.76365e-16 12.679
v  15.678 -7.69874e-16 12.573
v  0 0 0
v  1.019 -6.76495e-16 11.048
v  15.151 -4.37138e-16 7.139
v  14.372 -4.42894e-16 7.233
v  13.625 7.02335e-17 -1.147
v  7.173 3.69843e-17 -0.604
v  0.553 2.87792e-18 -0.047

# 0 UV coordinates

# 65 vertex normals
vn 0.55023 0.833372 -0.0523297
vn 0.550239 0.833365 -0.0523418
vn 0.550275 0.833344 -0.0522986
vn 0.550066 0.833483 -0.0522735
vn 0.550165 0.833381 -0.0528631
vn 0.550169 0.833379 -0.0528499
vn 0.550199 0.833373 -0.0526415
vn 0.550254 0.833351 -0.0524195
vn 0.550063 0.833486 -0.0522725
vn -0.550309 0.833423 0.0506506
vn -0.550817 0.832976 0.0524519
vn -0.550029 0.833516 0.0521435
vn -0.550757 0.832974 0.0531205
vn -0.550173 0.833422 0.0521205
vn -0.550232 0.83337 0.0523411
vn -0.55024 0.833365 0.0523348
vn -0.55708 0.825046 -0.0946631
vn 0.110376 0 0.99389
vn 0.109521 -0.000137298 0.993985
vn 0.110138 0 0.993916
vn -6.75088e-22 1 6.12251e-17
vn 0.0508272 0 0.998707
vn 0.0508272 0 0.998707
vn 0.105476 -0.000174591 0.994422
vn 0.105462 0 0.994423
vn 0.0989093 0.00274087 0.995093
vn 0.105361 -0.000792716 0.994434
vn 0.102691 0 0.994713
vn 1.79465e-22 -1 -6.12307e-17
vn 0.0828429 -0 0.996563
vn 0.0828429 0 0.996563
vn 0.1512 -0 0.988503
vn 0.1512 0 0.988503
vn -0.995791 0 0.0916528
vn -0.995773 -5.62383e-18 0.091844
vn -0.994525 -0.0113712 0.10388
vn -0.995767 0.00354735 0.0918435
vn -0.994596 0 0.103819
vn 0.988451 0 -0.151539
vn 0.993096 0 -0.117307
vn 0.993096 0 -0.117307
vn 0.99533 0 -0.096529
vn 0.99533 0 -0.096529
vn 0.99605 0 -0.0887887
vn 0.99605 0 -0.0887887
vn -0.119798 0 -0.992798
vn -0.119798 0 -0.992798
vn -0.0838635 0 -0.996477
vn -0.083847 6.45275e-06 -0.996479
vn -0.0838635 -1.13351e-05 -0.996477
vn -0.084462 -0.000338546 -0.996427
vn -0.0838427 3.96967e-05 -0.996479
vn -0.0846857 6.10124e-17 -0.996408
vn 0 -1 -6.12323e-17
vn -3.08107e-24 -1 -6.12321e-17
vn 4.93731e-23 -1 -6.12323e-17
vn 0 -1 -6.12323e-17
vn 4.73598e-25 -1 -6.12323e-17
vn 3.53849e-25 -1 -6.12323e-17
vn -2.79712e-24 -1 -6.12323e-17
vn 1.52086e-23 -1 -6.12325e-17
vn -3.10973e-24 -1 -6.12323e-17
vn 9.51925e-24 -1 -6.12324e-17
vn -5.80631e-24 -1 -6.12323e-17
vn 5.90724e-22 -1 -6.12273e-17

# Mesh 'defaultobject' with 72 faces
g defaultobject
usemtl DefaultMaterial
f  1//1 2//1 3//1
f  2//2 1//2 4//2
f  2//3 4//3 5//3
f  2//4 5//4 6//4
f  5//5 4//5 7//5
f  5//6 7//6 8//6
f  7//7 4//7 9//7
f  7//8 9//8 10//8
f  6//4 11//9 2//4
f  12//10 13//10 14//10
f  15//11 16//11 17//11
f  16//12 15//12 13//12
f  16//13 13//13 12//13
f  16//14 12//14 4//14
f  16//15 4//15 1//15
f  16//16 1//16 18//16
f  18//17 1//17 19//17
f  15//18 20//18 13//18
f  20//19 15//19 17//19
f  20//20 17//20 21//20
f  20//21 21//21 22//21
f  14//22 23//22 12//22
f  23//22 14//22 24//23
f  12//24 9//24 4//24
f  9//25 12//25 23//25
f  9//26 23//26 10//26
f  10//27 23//27 25//27
f  10//28 25//28 26//28
f  26//29 25//29 27//29
f  28//30 8//30 7//30
f  8//30 28//30 29//31
f  30//32 6//32 5//32
f  6//32 30//32 31//33
f  20//34 14//34 13//34
f  14//34 20//34 24//34
f  32//35 16//35 18//35
f  16//36 32//36 17//36
f  17//37 32//37 33//37
f  17//38 33//38 21//38
f  10//39 28//39 7//39
f  28//39 10//39 26//39
f  8//40 30//40 5//40
f  30//40 8//40 29//41
f  6//42 34//42 11//42
f  34//42 6//42 31//43
f  35//44 3//44 2//44
f  3//44 35//44 36//45
f  11//46 35//46 2//46
f  35//46 11//46 34//47
f  36//48 1//48 3//48
f  1//49 36//49 19//49
f  19//50 36//50 37//50
f  19//51 37//51 18//51
f  18//52 37//52 38//52
f  18//53 38//53 32//53
f  31//54 35//54 34//54
f  23//55 20//55 25//29
f  20//55 23//55 24//56
f  35//54 37//57 36//57
f  37//57 35//54 38//58
f  38//58 35//54 32//59
f  32//59 35//54 33//60
f  33//60 35//54 31//54
f  33//60 31//54 30//61
f  33//60 30//61 29//62
f  33//60 29//62 28//63
f  33//60 28//63 26//29
f  33//60 26//29 27//29
f  33//60 27//29 20//55
f  33//60 20//55 21//64
f  20//55 27//29 25//29
f  21//64 20//55 22//65

