# {"id":"ID_6499","idOriginal":"ID_6499","origin":[14.302784179638723,48.33139823119313],"elevation":260.421}
# Longitude: 14.302784179638723
# Latitude: 48.33139823119313
# Elevation: 260.421

# File produced by Open Asset Import Library (http://www.assimp.sf.net)
# (assimp v3.1.0)

mtllib ID_6499.obj.mtl

# 22 vertex positions
v  6.234 9.983 -1.687
v  6.697 7.63 22.31
v  12.211 9.983 20.878
v  5.997 7.326 22.55
v  0.646 7.592 -0.172
v  0 7.316 4.47976e-16
v  11.895 7.561 -3.221
v  15.669 7.32 8.75
v  12.449 7.32 -3.406
v  18.454 7.32 19.262
v  14.732 8.907 20.223
v  11.895 1.97229e-16 -3.221
v  12.449 2.08557e-16 -3.406
v  6.234 1.03299e-16 -1.687
v  0.646 1.0532e-17 -0.172
v  0 0 0
v  5.997 -1.38079e-15 22.55
v  6.697 -1.36609e-15 22.31
v  12.211 -1.27841e-15 20.878
v  14.732 -1.2383e-15 20.223
v  18.454 -1.17946e-15 19.262
v  15.669 -5.35783e-16 8.75

# 0 UV coordinates

# 37 vertex normals
vn -0.369028 0.924264 0.0977478
vn -0.368044 0.924654 0.097767
vn -0.36899 0.924282 0.097717
vn -0.368899 0.924321 0.097696
vn 0.369342 0.924129 -0.0978349
vn 0.369628 0.924005 -0.0979275
vn 0.368889 0.924324 -0.0977084
vn 0.368969 0.924291 -0.0977163
vn 0.36908 0.924242 -0.0977616
vn -0.316741 0 -0.948512
vn -0.316741 0 -0.948512
vn -0.261544 0 -0.965191
vn -0.261646 -6.15844e-05 -0.965164
vn -0.261545 9.93333e-05 -0.965191
vn -0.26167 -0 -0.965157
vn -0.25729 -0 -0.966334
vn -0.25729 5.91709e-17 -0.966334
vn -0.966409 0 0.257009
vn -0.966409 0 0.257009
vn 0.324324 0 0.945946
vn 0.251364 -0 0.967893
vn 0.251449 -4.99281e-05 0.967871
vn 0.251364 3.16122e-05 0.967893
vn 0.250155 0.000396914 0.968206
vn 0.251469 -0.000798796 0.967865
vn 0.249996 0 0.968247
vn 0.966661 0 -0.256059
vn 0.96665 0 -0.2561
vn 0 -1 -6.12323e-17
vn -1.43941e-24 -1 -6.12323e-17
vn 2.91614e-24 -1 -6.12323e-17
vn -7.92739e-25 -1 -6.12323e-17
vn 2.81535e-24 -1 -6.12323e-17
vn 1.13616e-22 -1 -6.12323e-17
vn -3.52031e-24 -1 -6.12323e-17
vn 6.33217e-24 -1 -6.12323e-17
vn 1.31934e-19 -1 -6.07225e-17

# Mesh 'defaultobject' with 40 faces
g defaultobject
usemtl DefaultMaterial
f  1//1 2//1 3//1
f  2//2 1//2 4//2
f  4//3 1//3 5//3
f  4//4 5//4 6//4
f  7//5 8//5 9//5
f  8//6 7//6 10//6
f  10//7 7//7 11//7
f  11//8 7//8 1//8
f  11//9 1//9 3//9
f  9//10 12//10 7//10
f  12//10 9//10 13//11
f  12//12 1//12 7//12
f  1//13 12//13 5//13
f  5//14 12//14 14//14
f  5//15 14//15 15//15
f  5//16 15//16 6//16
f  6//16 15//16 16//17
f  6//18 17//18 4//18
f  17//18 6//18 16//19
f  4//20 18//20 2//20
f  18//20 4//20 17//20
f  18//21 3//21 2//21
f  3//22 18//22 11//22
f  11//23 18//23 19//23
f  11//24 19//24 10//24
f  10//25 19//25 20//25
f  10//26 20//26 21//26
f  8//27 13//27 9//27
f  13//27 8//27 22//27
f  22//28 8//28 10//28
f  22//28 10//28 21//28
f  22//29 12//29 13//29
f  12//29 22//29 14//30
f  14//30 22//29 15//31
f  15//31 22//29 16//32
f  16//32 22//29 17//33
f  17//33 22//29 18//34
f  18//34 22//29 20//35
f  20//35 22//29 21//36
f  18//34 20//35 19//37

