# {"id":"ID_41615","idOriginal":"ID_41615","origin":[14.30063128110037,48.28611493558795],"elevation":261.181}
# Longitude: 14.30063128110037
# Latitude: 48.28611493558795
# Elevation: 261.181

# File produced by Open Asset Import Library (http://www.assimp.sf.net)
# (assimp v3.1.0)

mtllib ID_41615.obj.mtl

# 12 vertex positions
v  0 2.728 1.67042e-16
v  6.01 2.728 -1.109
v  4.724 2.728 -3.189
v  7.277 2.728 0.848
v  3.969 2.728 2.893
v  2.391 2.728 3.82
v  7.277 -5.1925e-17 0.848
v  6.01 6.79067e-17 -1.109
v  4.724 1.9527e-16 -3.189
v  0 0 0
v  2.391 -2.33908e-16 3.82
v  3.969 -1.77145e-16 2.893

# 0 UV coordinates

# 12 vertex normals
vn 0 1 0
vn 0.839432 0 -0.543465
vn 0.850561 0 -0.525876
vn -0.559509 0 -0.828824
vn -0.559509 5.07509e-17 -0.828824
vn -0.847649 -3.24873e-17 0.530557
vn -0.847649 0 0.530557
vn 0.525832 -0 0.850588
vn 0.506519 -0 0.862229
vn 0 -1 -6.12323e-17
vn -7.48298e-25 -1 -6.12323e-17
vn 0 -1 -6.12324e-17

# Mesh 'defaultobject' with 20 faces
g defaultobject
usemtl DefaultMaterial
f  1//1 2//1 3//1
f  2//1 1//1 4//1
f  4//1 1//1 5//1
f  5//1 1//1 6//1
f  7//2 2//2 4//2
f  2//2 7//2 8//2
f  8//3 3//3 2//3
f  3//3 8//3 9//3
f  9//4 1//4 3//4
f  1//4 9//4 10//5
f  10//6 6//6 1//6
f  6//6 10//6 11//7
f  12//8 4//8 5//8
f  4//8 12//8 7//8
f  11//9 5//9 6//9
f  5//9 11//9 12//9
f  8//10 10//10 9//10
f  10//10 8//10 7//10
f  10//10 7//10 12//11
f  10//10 12//11 11//12

