# File produced by Open Asset Import Library (http://www.assimp.sf.net)
# (assimp v3.1.0)

mtllib ID_15442.obj.mtl

# 16 vertex positions
v  0 3.794 2.32315e-16
v  2.739 3.932 0.336
v  2.553 3.794 -0.54
v  18.207 5.649 8.514
v  15.914 3.949 -2.335
v  2.265 5.649 11.883
v  0.424 4.109 2.007
v  0.189 4.109 2.057
v  2.265 -7.27624e-16 11.883
v  0.189 -1.25955e-16 2.057
v  0.424 -1.22893e-16 2.007
v  0 0 0
v  18.207 -5.21332e-16 8.514
v  15.914 1.42978e-16 -2.335
v  2.739 -2.05741e-17 0.336
v  2.553 3.30655e-17 -0.54

# 0 UV coordinates

# 23 vertex normals
vn -0.0315168 0.988334 -0.149004
vn -0.0313334 0.988451 -0.148264
vn -0.0313327 0.988451 -0.148266
vn -0.0314485 0.988447 -0.14827
vn -0.0315877 0.988414 -0.148459
vn -0.0315432 0.988446 -0.148252
vn -0.978402 0 0.206713
vn -0.978405 0 0.206698
vn -0.978405 0 0.206698
vn 0.206762 -0 0.978391
vn 0.978386 0 -0.206788
vn 0.978386 0 -0.206788
vn 0.978193 0 -0.207699
vn -0.19869 0 -0.980062
vn -0.19869 -0 -0.980062
vn -0.206937 0 -0.978354
vn -0.206937 5.99069e-17 -0.978354
vn -0.208107 0 -0.978106
vn -2.84125e-24 -1 -6.12323e-17
vn 1.18224e-24 -1 -6.12323e-17
vn 0 -1 -6.12323e-17
vn 2.5881e-24 -1 -6.12323e-17
vn -7.07939e-25 -1 -6.12323e-17

# Mesh 'defaultobject' with 28 faces
g defaultobject
usemtl DefaultMaterial
f  1//1 2//1 3//1
f  2//2 4//2 5//2
f  4//2 2//2 6//3
f  6//4 2//4 7//4
f  7//5 2//5 1//5
f  6//6 7//6 8//6
f  8//7 9//7 6//7
f  9//7 8//7 10//7
f  1//8 11//8 7//8
f  11//8 1//8 12//9
f  9//10 4//10 6//10
f  4//10 9//10 13//10
f  13//11 5//11 4//11
f  5//11 13//11 14//12
f  15//13 3//13 2//13
f  3//13 15//13 16//13
f  14//14 2//14 5//14
f  2//14 14//14 15//15
f  16//16 1//16 3//16
f  1//16 16//16 12//17
f  11//18 8//18 7//18
f  8//18 11//18 10//18
f  13//19 15//19 14//19
f  15//19 13//19 11//20
f  11//20 13//19 10//21
f  10//21 13//19 9//22
f  15//19 12//23 16//23
f  12//23 15//19 11//20

