# File produced by Open Asset Import Library (http://www.assimp.sf.net)
# (assimp v3.1.0)

mtllib ID_24780.obj.mtl

# 132 vertex positions
v  6.266 12.804 5.576
v  5.335 12.804 5.613
v  5.905 12.804 5.613
v  4.769 12.804 5.555
v  6.471 12.804 5.555
v  7.029 12.804 5.441
v  4.211 12.804 5.44
v  7.393 12.804 5.326
v  3.668 12.804 5.27
v  7.572 12.804 5.27
v  8.095 12.804 5.046
v  3.145 12.804 5.046
v  8.593 12.804 4.769
v  2.647 12.804 4.769
v  9.06 12.804 4.444
v  2.18 12.804 4.444
v  9.492 12.804 4.073
v  1.748 12.804 4.073
v  9.884 12.804 3.661
v  1.356 12.804 3.661
v  10.233 12.804 3.211
v  1.007 12.804 3.21
v  10.534 12.804 2.727
v  0.706 12.804 2.727
v  10.784 12.804 2.216
v  0.455 12.804 2.216
v  10.982 12.804 1.682
v  0.258 12.804 1.682
v  11.125 12.804 1.131
v  0.115 12.804 1.131
v  11.211 12.804 0.569
v  0.029 12.804 0.568
v  11.24 12.804 7.84019e-16
v  0 12.804 7.84019e-16
v  11.211 12.804 -0.569
v  0.029 12.804 -0.569
v  11.125 12.804 -1.131
v  0.115 12.804 -1.131
v  10.982 12.804 -1.682
v  0.258 12.804 -1.682
v  10.784 12.804 -2.216
v  0.456 12.804 -2.216
v  10.756 12.804 -2.273
v  0.706 12.804 -2.727
v  10.534 12.804 -2.727
v  10.233 12.804 -3.211
v  1.007 12.804 -3.211
v  9.884 12.804 -3.661
v  1.356 12.804 -3.661
v  9.492 12.804 -4.073
v  1.748 12.804 -4.073
v  9.106 12.804 -4.405
v  2.18 12.804 -4.444
v  9.06 12.804 -4.444
v  8.593 12.804 -4.769
v  2.647 12.804 -4.769
v  8.095 12.804 -5.046
v  3.145 12.804 -5.046
v  7.572 12.804 -5.27
v  3.668 12.804 -5.27
v  7.029 12.804 -5.441
v  4.211 12.804 -5.441
v  6.471 12.804 -5.555
v  4.769 12.804 -5.555
v  5.905 12.804 -5.613
v  5.335 12.804 -5.613
v  5.905 -3.43697e-16 5.613
v  6.471 -3.40146e-16 5.555
v  6.266 -3.41432e-16 5.576
v  7.029 -3.33165e-16 5.441
v  7.572 -3.22694e-16 5.27
v  7.393 -3.26123e-16 5.326
v  8.095 -3.08978e-16 5.046
v  8.593 -2.92017e-16 4.769
v  9.06 -2.72117e-16 4.444
v  9.492 -2.49399e-16 4.073
v  9.884 -2.24172e-16 3.661
v  10.233 -1.96617e-16 3.211
v  10.534 -1.66981e-16 2.727
v  10.784 -1.35691e-16 2.216
v  5.335 -3.43697e-16 5.613
v  3.668 -3.22694e-16 5.27
v  4.211 -3.33104e-16 5.44
v  4.769 -3.40146e-16 5.555
v  10.982 -1.02993e-16 1.682
v  11.125 -6.92538e-17 1.131
v  11.211 -3.48412e-17 0.569
v  11.24 0 0
v  11.211 3.48412e-17 -0.569
v  11.125 6.92538e-17 -1.131
v  10.982 1.02993e-16 -1.682
v  10.784 1.35691e-16 -2.216
v  10.534 1.66981e-16 -2.727
v  10.756 1.39181e-16 -2.273
v  10.233 1.96617e-16 -3.211
v  9.884 2.24172e-16 -3.661
v  9.492 2.49399e-16 -4.073
v  9.06 2.72117e-16 -4.444
v  9.106 2.69728e-16 -4.405
v  8.593 2.92017e-16 -4.769
v  8.095 3.08978e-16 -5.046
v  7.572 3.22694e-16 -5.27
v  7.029 3.33165e-16 -5.441
v  6.471 3.40146e-16 -5.555
v  5.905 3.43697e-16 -5.613
v  5.335 3.43697e-16 -5.613
v  4.769 3.40146e-16 -5.555
v  4.211 3.33165e-16 -5.441
v  3.668 3.22694e-16 -5.27
v  3.145 3.08978e-16 -5.046
v  2.647 2.92017e-16 -4.769
v  2.18 2.72117e-16 -4.444
v  1.748 2.49399e-16 -4.073
v  1.356 2.24172e-16 -3.661
v  1.007 1.96617e-16 -3.211
v  0.706 1.66981e-16 -2.727
v  0.456 1.35691e-16 -2.216
v  0.258 1.02993e-16 -1.682
v  0.115 6.92538e-17 -1.131
v  0.029 3.48412e-17 -0.569
v  0 0 0
v  0.029 -3.478e-17 0.568
v  0.115 -6.92538e-17 1.131
v  0.258 -1.02993e-16 1.682
v  0.455 -1.35691e-16 2.216
v  0.706 -1.66981e-16 2.727
v  1.007 -1.96556e-16 3.21
v  1.356 -2.24172e-16 3.661
v  1.748 -2.49399e-16 4.073
v  2.18 -2.72117e-16 4.444
v  2.647 -2.92017e-16 4.769
v  3.145 -3.08978e-16 5.046

# 0 UV coordinates

# 126 vertex normals
vn 0 1 0
vn 0.101958 -0 0.994789
vn 0.101907 1.44522e-06 0.994794
vn 0.10194 0 0.994791
vn -3.91425e-19 -1 -6.50545e-17
vn 0.200166 -0 0.979762
vn 0.301256 -0 0.953543
vn 0.29858 8.36347e-05 0.954385
vn 0.300375 0 0.953821
vn 2.05925e-21 -1 -6.12266e-17
vn 0.393707 -0 0.919236
vn 0.48609 -0 0.873909
vn 0.571219 -0 0.820798
vn 0.651515 -0 0.758636
vn 0.724472 -0 0.689304
vn 0.790202 -0 0.612846
vn 0.849178 -0 0.528106
vn 0.898261 -0 0.439462
vn 0 0 1
vn -0.298775 0 0.954323
vn -0.201851 0 0.979416
vn -0.10194 0 0.994791
vn 0.937622 -0 0.347657
vn 0.967934 -0 0.251206
vn 0.988493 -0 0.151265
vn 0.998704 -0 0.0508994
vn 0.998704 -3.11669e-18 0.0508994
vn 0.998704 3.11669e-18 -0.0508994
vn 0.998704 0 -0.0508994
vn 0.988493 0 -0.151265
vn 0.967934 0 -0.251206
vn 0.937622 0 -0.347657
vn 0.897549 0 -0.440915
vn 0.89835 9.03161e-06 -0.43928
vn 0.898261 0 -0.439462
vn -1.1323e-19 -1 -6.11727e-17
vn 0.849178 0 -0.528106
vn 0.790202 0 -0.612846
vn 0.724472 0 -0.689304
vn 0.652085 0 -0.758146
vn 0.646689 -0.000282131 -0.762753
vn 0.651515 0 -0.758636
vn -1.66116e-20 1 6.12507e-17
vn 0.571219 0 -0.820798
vn 0.48609 0 -0.873909
vn 0.393707 0 -0.919236
vn 0.300375 0 -0.953821
vn 0.200166 0 -0.979762
vn 0.10194 0 -0.994791
vn 0 0 -1
vn -0.10194 0 -0.994791
vn -0.200166 0 -0.979762
vn -0.300375 0 -0.953821
vn -0.393707 0 -0.919236
vn -0.48609 0 -0.873909
vn -0.571219 0 -0.820798
vn -0.651514 0 -0.758636
vn -0.724472 0 -0.689304
vn -0.790202 0 -0.612846
vn -0.849179 0 -0.528105
vn -0.898261 0 -0.439462
vn -0.937622 0 -0.347657
vn -0.967934 0 -0.251206
vn -0.988493 0 -0.151264
vn -0.998704 0 -0.0509005
vn -0.998704 3.11676e-18 -0.0509005
vn -0.998699 -3.12223e-18 0.0509899
vn -0.998699 0 0.0509899
vn -0.988533 0 0.151002
vn -0.967934 0 0.251206
vn -0.938193 0 0.346112
vn -0.897566 0 0.440879
vn -0.848689 0 0.528893
vn -0.790861 0 0.611996
vn -0.724472 0 0.689304
vn -0.651514 0 0.758636
vn -0.571219 0 0.820798
vn -0.48609 0 0.873909
vn -0.393707 0 0.919236
vn 5.68712e-23 -1 -6.12328e-17
vn -7.66372e-23 -1 -6.1232e-17
vn -1.02852e-23 -1 -6.12323e-17
vn 1.37248e-23 -1 -6.12324e-17
vn 2.38397e-23 -1 -6.12325e-17
vn -2.55664e-23 -1 -6.12322e-17
vn -6.8553e-24 -1 -6.12323e-17
vn 5.9255e-24 -1 -6.12324e-17
vn -1.29427e-24 -1 -6.12323e-17
vn -6.89989e-24 -1 -6.12323e-17
vn 1.65773e-23 -1 -6.12324e-17
vn 0 -1 -6.12323e-17
vn -1.03369e-23 -1 -6.12323e-17
vn 3.18775e-24 -1 -6.12324e-17
vn 6.69001e-24 -1 -6.12324e-17
vn -2.78604e-24 -1 -6.12323e-17
vn -5.27037e-24 -1 -6.12323e-17
vn 0 -1 -6.12324e-17
vn 0 -1 -6.12323e-17
vn 2.3103e-24 -1 -6.12323e-17
vn 1.12012e-24 -1 -6.12323e-17
vn -2.13555e-24 -1 -6.12323e-17
vn -4.2032e-24 -1 -6.12323e-17
vn 1.04097e-24 -1 -6.12323e-17
vn 4.14239e-24 -1 -6.12323e-17
vn 0 -1 -6.12323e-17
vn -4.27109e-24 -1 -6.12323e-17
vn 2.24033e-24 -1 -6.12324e-17
vn 1.25388e-24 -1 -6.12323e-17
vn -7.90556e-24 -1 -6.12323e-17
vn 5.94723e-24 -1 -6.12324e-17
vn -1.28507e-23 -1 -6.12322e-17
vn 4.6912e-24 -1 -6.12323e-17
vn 1.65797e-23 -1 -6.12324e-17
vn -1.55754e-23 -1 -6.12323e-17
vn 5.9255e-24 -1 -6.12324e-17
vn -6.8553e-24 -1 -6.12323e-17
vn -1.46152e-23 -1 -6.12323e-17
vn -2.36406e-24 -1 -6.12323e-17
vn -9.67212e-23 -1 -6.12319e-17
vn 2.38397e-23 -1 -6.12325e-17
vn 3.78346e-24 -1 -6.12323e-17
vn 6.19314e-24 -1 -6.12324e-17
vn -3.4394e-24 -1 -6.12323e-17
vn -1.70536e-23 -1 -6.12322e-17
vn 8.37159e-24 -1 -6.12324e-17
vn 1.60755e-23 -1 -6.12324e-17

# Mesh 'defaultobject' with 260 faces
g defaultobject
usemtl DefaultMaterial
f  1//1 2//1 3//1
f  2//1 1//1 4//1
f  4//1 1//1 5//1
f  4//1 5//1 6//1
f  4//1 6//1 7//1
f  7//1 6//1 8//1
f  7//1 8//1 9//1
f  9//1 8//1 10//1
f  9//1 10//1 11//1
f  9//1 11//1 12//1
f  12//1 11//1 13//1
f  12//1 13//1 14//1
f  14//1 13//1 15//1
f  14//1 15//1 16//1
f  16//1 15//1 17//1
f  16//1 17//1 18//1
f  18//1 17//1 19//1
f  18//1 19//1 20//1
f  20//1 19//1 21//1
f  20//1 21//1 22//1
f  22//1 21//1 23//1
f  22//1 23//1 24//1
f  24//1 23//1 25//1
f  24//1 25//1 26//1
f  26//1 25//1 27//1
f  26//1 27//1 28//1
f  28//1 27//1 29//1
f  28//1 29//1 30//1
f  30//1 29//1 31//1
f  30//1 31//1 32//1
f  32//1 31//1 33//1
f  32//1 33//1 34//1
f  34//1 33//1 35//1
f  34//1 35//1 36//1
f  36//1 35//1 37//1
f  36//1 37//1 38//1
f  38//1 37//1 39//1
f  38//1 39//1 40//1
f  40//1 39//1 41//1
f  40//1 41//1 42//1
f  42//1 41//1 43//1
f  42//1 43//1 44//1
f  44//1 43//1 45//1
f  44//1 45//1 46//1
f  44//1 46//1 47//1
f  47//1 46//1 48//1
f  47//1 48//1 49//1
f  49//1 48//1 50//1
f  49//1 50//1 51//1
f  51//1 50//1 52//1
f  51//1 52//1 53//1
f  53//1 52//1 54//1
f  53//1 54//1 55//1
f  53//1 55//1 56//1
f  56//1 55//1 57//1
f  56//1 57//1 58//1
f  58//1 57//1 59//1
f  58//1 59//1 60//1
f  60//1 59//1 61//1
f  60//1 61//1 62//1
f  62//1 61//1 63//1
f  62//1 63//1 64//1
f  64//1 63//1 65//1
f  64//1 65//1 66//1
f  67//2 1//2 3//2
f  1//3 67//3 5//3
f  5//4 67//4 68//4
f  68//5 67//5 69//5
f  68//6 6//6 5//6
f  6//6 68//6 70//6
f  70//7 8//7 6//7
f  8//8 70//8 10//8
f  10//9 70//9 71//9
f  71//10 70//10 72//10
f  71//11 11//11 10//11
f  11//11 71//11 73//11
f  73//12 13//12 11//12
f  13//12 73//12 74//12
f  74//13 15//13 13//13
f  15//13 74//13 75//13
f  75//14 17//14 15//14
f  17//14 75//14 76//14
f  76//15 19//15 17//15
f  19//15 76//15 77//15
f  77//16 21//16 19//16
f  21//16 77//16 78//16
f  78//17 23//17 21//17
f  23//17 78//17 79//17
f  79//18 25//18 23//18
f  25//18 79//18 80//18
f  81//19 3//19 2//19
f  3//19 81//19 67//19
f  82//20 7//20 9//20
f  7//20 82//20 83//20
f  83//21 4//21 7//21
f  4//21 83//21 84//21
f  84//22 2//22 4//22
f  2//22 84//22 81//22
f  80//23 27//23 25//23
f  27//23 80//23 85//23
f  85//24 29//24 27//24
f  29//24 85//24 86//24
f  86//25 31//25 29//25
f  31//25 86//25 87//25
f  87//26 33//26 31//26
f  33//26 87//26 88//27
f  88//28 35//28 33//28
f  35//28 88//28 89//29
f  89//30 37//30 35//30
f  37//30 89//30 90//30
f  90//31 39//31 37//31
f  39//31 90//31 91//31
f  91//32 41//32 39//32
f  41//32 91//32 92//32
f  92//33 43//33 41//33
f  43//34 92//34 45//34
f  45//35 92//35 93//35
f  93//36 92//36 94//36
f  93//37 46//37 45//37
f  46//37 93//37 95//37
f  95//38 48//38 46//38
f  48//38 95//38 96//38
f  96//39 50//39 48//39
f  50//39 96//39 97//39
f  97//40 52//40 50//40
f  52//41 97//41 54//41
f  54//42 97//42 98//42
f  98//43 97//43 99//43
f  98//44 55//44 54//44
f  55//44 98//44 100//44
f  100//45 57//45 55//45
f  57//45 100//45 101//45
f  101//46 59//46 57//46
f  59//46 101//46 102//46
f  102//47 61//47 59//47
f  61//47 102//47 103//47
f  103//48 63//48 61//48
f  63//48 103//48 104//48
f  104//49 65//49 63//49
f  65//49 104//49 105//49
f  105//50 66//50 65//50
f  66//50 105//50 106//50
f  106//51 64//51 66//51
f  64//51 106//51 107//51
f  107//52 62//52 64//52
f  62//52 107//52 108//52
f  108//53 60//53 62//53
f  60//53 108//53 109//53
f  109//54 58//54 60//54
f  58//54 109//54 110//54
f  110//55 56//55 58//55
f  56//55 110//55 111//55
f  111//56 53//56 56//56
f  53//56 111//56 112//56
f  112//57 51//57 53//57
f  51//57 112//57 113//57
f  113//58 49//58 51//58
f  49//58 113//58 114//58
f  114//59 47//59 49//59
f  47//59 114//59 115//59
f  115//60 44//60 47//60
f  44//60 115//60 116//60
f  116//61 42//61 44//61
f  42//61 116//61 117//61
f  117//62 40//62 42//62
f  40//62 117//62 118//62
f  118//63 38//63 40//63
f  38//63 118//63 119//63
f  119//64 36//64 38//64
f  36//64 119//64 120//64
f  120//65 34//65 36//65
f  34//65 120//65 121//66
f  121//67 32//67 34//67
f  32//67 121//67 122//68
f  122//69 30//69 32//69
f  30//69 122//69 123//69
f  123//70 28//70 30//70
f  28//70 123//70 124//70
f  124//71 26//71 28//71
f  26//71 124//71 125//71
f  125//72 24//72 26//72
f  24//72 125//72 126//72
f  126//73 22//73 24//73
f  22//73 126//73 127//73
f  127//74 20//74 22//74
f  20//74 127//74 128//74
f  128//75 18//75 20//75
f  18//75 128//75 129//75
f  129//76 16//76 18//76
f  16//76 129//76 130//76
f  130//77 14//77 16//77
f  14//77 130//77 131//77
f  131//78 12//78 14//78
f  12//78 131//78 132//78
f  132//79 9//79 12//79
f  9//79 132//79 82//79
f  83//80 81//80 84//80
f  81//80 83//80 82//81
f  81//80 82//81 67//5
f  67//5 82//81 132//82
f  67//5 132//82 131//83
f  67//5 131//83 69//5
f  69//5 131//83 68//5
f  68//5 131//83 70//10
f  70//10 131//83 130//84
f  70//10 130//84 72//10
f  72//10 130//84 129//85
f  72//10 129//85 71//10
f  71//10 129//85 73//86
f  73//86 129//85 128//87
f  73//86 128//87 74//88
f  74//88 128//87 127//89
f  74//88 127//89 75//90
f  75//90 127//89 126//91
f  75//90 126//91 76//92
f  76//92 126//91 125//93
f  76//92 125//93 77//94
f  77//94 125//93 124//95
f  77//94 124//95 78//96
f  78//96 124//95 123//97
f  78//96 123//97 79//98
f  79//98 123//97 122//99
f  79//98 122//99 80//100
f  80//100 122//99 121//98
f  80//100 121//98 85//101
f  85//101 121//98 120//102
f  85//101 120//102 86//103
f  86//103 120//102 119//97
f  86//103 119//97 118//104
f  86//103 118//104 87//105
f  87//105 118//104 88//105
f  88//105 118//104 117//106
f  88//105 117//106 89//105
f  89//105 117//106 116//107
f  89//105 116//107 115//97
f  89//105 115//97 90//98
f  90//98 115//97 91//108
f  91//108 115//97 114//109
f  91//108 114//109 92//36
f  92//36 114//109 113//110
f  92//36 113//110 94//36
f  94//36 113//110 112//111
f  94//36 112//111 93//36
f  93//36 112//111 95//112
f  95//112 112//111 111//113
f  95//112 111//113 110//98
f  95//112 110//98 96//114
f  96//114 110//98 97//115
f  97//115 110//98 109//116
f  97//115 109//116 99//117
f  99//117 109//116 108//118
f  99//117 108//118 98//119
f  98//119 108//118 100//120
f  100//120 108//118 107//121
f  100//120 107//121 101//122
f  101//122 107//121 106//123
f  101//122 106//123 105//91
f  101//122 105//91 102//124
f  102//124 105//91 103//125
f  103//125 105//91 104//126

