# File produced by Open Asset Import Library (http://www.assimp.sf.net)
# (assimp v3.1.0)

mtllib _19822.obj.mtl

# 22 vertex positions
v  11.959 6.24 13.634
v  4.845 7.39 -0.741
v  7.154 7.39 14.369
v  9.65 6.24 -1.475
v  0.325 6.23 2.126
v  0 6.23 3.81477e-16
v  0.65 6.236 4.091
v  3.987 6.765 11.141
v  1.831 6.258 11.217
v  1.869 6.258 11.464
v  4.541 6.765 14.768
v  0 0 0
v  0.325 -1.3018e-16 2.126
v  0.65 -2.50501e-16 4.091
v  1.831 -6.86843e-16 11.217
v  1.869 -7.01968e-16 11.464
v  3.987 -6.8219e-16 11.141
v  4.541 -9.04279e-16 14.768
v  11.959 -8.34842e-16 13.634
v  7.154 -8.79848e-16 14.369
v  9.65 9.03177e-17 -1.475
v  4.845 4.53732e-17 -0.741

# 0 UV coordinates

# 37 vertex normals
vn 0.227585 0.973137 -0.0347779
vn 0.227591 0.973135 -0.0347812
vn -0.227663 0.973118 0.0348027
vn -0.22767 0.973117 0.0347909
vn -0.227413 0.973182 0.0346413
vn -0.227282 0.973216 0.0345544
vn -0.227616 0.973132 0.0347187
vn -0.227603 0.973124 0.0350159
vn -0.227465 0.973166 0.0347438
vn -0.988516 -9.25305e-18 0.151114
vn -0.986586 -0.0042213 0.163189
vn -0.986531 -0.00443953 0.163513
vn -0.98835 0.0183624 0.151088
vn -0.98823 0.0169574 0.152035
vn -0.986597 -7.13877e-05 0.163178
vn -0.986543 -0.000462776 0.163501
vn -0.988372 0 0.152057
vn -0.988535 0 0.150992
vn 0.150759 0 0.988571
vn 0.150948 -0 0.988542
vn 0.151187 -8.63769e-05 0.988505
vn 0.151116 0 0.988516
vn -1.08144e-20 1 6.11582e-17
vn 0.988523 0 -0.151069
vn -0.151183 0 -0.988506
vn -0.15103 -0.000102843 -0.988529
vn -0.151183 0.000139741 -0.988506
vn -0.151006 0 -0.988533
vn 2.8502e-24 -1 -6.12323e-17
vn 4.19277e-23 -1 -6.12323e-17
vn -3.07688e-23 -1 -6.12323e-17
vn 0 -1 -6.12324e-17
vn -3.50944e-22 -1 -6.12326e-17
vn 5.9897e-24 -1 -6.12323e-17
vn 5.43138e-24 -1 -6.12323e-17
vn -1.2655e-24 -1 -6.12324e-17
vn -1.25553e-24 -1 -6.12323e-17

# Mesh 'defaultobject' with 40 faces
g defaultobject
usemtl DefaultMaterial
f  1//1 2//1 3//1
f  2//1 1//1 4//2
f  5//3 2//3 6//3
f  2//4 5//4 3//4
f  3//5 5//5 7//5
f  3//6 7//6 8//6
f  8//7 7//7 9//7
f  8//8 9//8 10//8
f  3//9 8//9 11//9
f  12//10 5//10 6//10
f  5//11 12//11 7//11
f  7//12 12//12 9//12
f  9//13 12//13 13//13
f  9//14 13//14 10//14
f  10//15 13//15 14//15
f  10//16 14//16 15//16
f  10//17 15//17 16//17
f  17//18 11//18 8//18
f  11//18 17//18 18//18
f  10//19 17//19 8//19
f  17//19 10//19 16//19
f  18//20 3//20 11//20
f  3//21 18//21 1//21
f  1//22 18//22 19//22
f  19//23 18//23 20//23
f  19//24 4//24 1//24
f  4//24 19//24 21//24
f  2//25 12//25 6//25
f  12//26 2//26 4//26
f  12//27 4//27 22//27
f  22//28 4//28 21//28
f  20//29 21//29 19//29
f  21//29 20//29 18//30
f  21//29 18//30 17//31
f  21//29 17//31 16//32
f  21//29 16//32 15//33
f  21//29 15//33 14//34
f  21//29 14//34 13//35
f  21//29 13//35 22//36
f  22//36 13//35 12//37

