# File produced by Open Asset Import Library (http://www.assimp.sf.net)
# (assimp v3.1.0)

mtllib _35228.obj.mtl

# 18 vertex positions
v  0 3.227 1.97597e-16
v  3.023 3.227 0.836
v  2.951 3.227 -0.204
v  7.108 3.227 5.655
v  6.757 3.227 0.577
v  3.554 3.227 5.901
v  0.43 3.227 6.218
v  3.69 3.227 7.864
v  0.536 3.227 7.953
v  3.69 -4.81531e-16 7.864
v  3.554 -3.61332e-16 5.901
v  7.108 -3.46269e-16 5.655
v  6.757 -3.53311e-17 0.577
v  3.023 -5.11902e-17 0.836
v  2.951 1.24914e-17 -0.204
v  0.536 -4.86981e-16 7.953
v  0 0 0
v  0.43 -3.80743e-16 6.218

# 0 UV coordinates

# 19 vertex normals
vn -0 1 0
vn 0.997609 0 -0.0691161
vn 0.99762 0 -0.0689571
vn 0.997612 0 -0.0690655
vn 0.0690526 -0 0.997613
vn 0.028207 -0 0.999602
vn -0.0691964 0 -0.997603
vn -0.0689645 0 -0.997619
vn -0.0689645 6.10866e-17 -0.997619
vn -0.997617 -4.22438e-18 0.0689893
vn -0.997617 0 0.0689893
vn -0.998139 0 0.0609814
vn 0 -1 -6.12323e-17
vn 0 -1 -6.12323e-17
vn -1.09014e-23 -1 -6.12323e-17
vn 4.66112e-24 -1 -6.12323e-17
vn -1.24076e-23 -1 -6.12323e-17
vn 2.42675e-24 -1 -6.12324e-17
vn 3.20023e-24 -1 -6.12324e-17

# Mesh 'defaultobject' with 32 faces
g defaultobject
usemtl DefaultMaterial
f  1//1 2//1 3//1
f  2//1 4//1 5//1
f  4//1 2//1 1//1
f  4//1 1//1 6//1
f  6//1 1//1 7//1
f  6//1 7//1 8//1
f  8//1 7//1 9//1
f  10//2 6//2 8//2
f  6//2 10//2 11//2
f  12//3 5//3 4//3
f  5//3 12//3 13//3
f  14//4 3//4 2//4
f  3//4 14//4 15//4
f  11//5 4//5 6//5
f  4//5 11//5 12//5
f  16//6 8//6 9//6
f  8//6 16//6 10//6
f  13//7 2//7 5//7
f  2//7 13//7 14//7
f  15//8 1//8 3//8
f  1//8 15//8 17//9
f  17//10 7//10 1//10
f  7//10 17//10 18//11
f  7//12 18//12 9//12
f  9//12 18//12 16//12
f  15//13 18//13 17//13
f  18//13 15//13 14//14
f  18//13 14//14 13//15
f  18//13 13//15 11//16
f  11//16 13//15 12//17
f  11//16 16//18 18//13
f  16//18 11//16 10//19

