# File produced by Open Asset Import Library (http://www.assimp.sf.net)
# (assimp v3.1.0)

mtllib _40586.obj.mtl

# 12 vertex positions
v  1.315 2.563 -3.092
v  6.55 1.364 -4.517
v  2.629 1.364 -6.184
v  5.236 2.563 -1.425
v  3.921 1.364 1.667
v  0 1.364 8.35209e-17
v  2.629 3.78661e-16 -6.184
v  1.315 1.8933e-16 -3.092
v  0 0 0
v  3.921 -1.02074e-16 1.667
v  5.236 8.72561e-17 -1.425
v  6.55 2.76586e-16 -4.517

# 0 UV coordinates

# 15 vertex normals
vn 0.131509 0.941819 -0.309327
vn 0.131509 0.941819 -0.309326
vn -0.131496 0.941831 0.309295
vn -0.920342 0 -0.391115
vn -0.920342 -0 -0.391115
vn -0.920234 -0 -0.391367
vn -0.920234 2.39643e-17 -0.391368
vn -0.391255 -5.6351e-17 0.920282
vn -0.391255 0 0.920282
vn 0.920234 -0 0.391368
vn 0.920234 0 0.391367
vn 0.920342 0 0.391115
vn 0.391255 0 -0.920282
vn 0 -1 -6.12323e-17
vn 0 -1 -6.12323e-17

# Mesh 'defaultobject' with 20 faces
g defaultobject
usemtl DefaultMaterial
f  1//1 2//1 3//1
f  2//1 1//1 4//2
f  5//3 1//3 6//3
f  1//3 5//3 4//3
f  7//4 1//4 3//4
f  1//4 7//4 8//5
f  1//6 8//6 6//6
f  6//6 8//6 9//7
f  9//8 5//8 6//8
f  5//8 9//8 10//9
f  10//10 4//10 5//10
f  4//10 10//10 11//11
f  4//12 11//12 2//12
f  2//12 11//12 12//12
f  12//13 3//13 2//13
f  3//13 12//13 7//13
f  8//14 10//14 9//14
f  10//14 8//14 7//15
f  10//14 7//15 11//15
f  11//15 7//15 12//14

