# File produced by Open Asset Import Library (http://www.assimp.sf.net)
# (assimp v3.1.0)

mtllib _42947.obj.mtl

# 10 vertex positions
v  0 5.483 3.35737e-16
v  1.979 5.23 -6.794
v  1.465 5.62 -6.919
v  4.807 3.085 -6.106
v  3.127 3.085 0.916
v  1.465 4.23667e-16 -6.919
v  0 0 0
v  3.127 -5.60888e-17 0.916
v  4.807 3.73885e-16 -6.106
v  1.979 4.16013e-16 -6.794

# 0 UV coordinates

# 15 vertex normals
vn 0.577122 0.804891 0.138135
vn 0.576984 0.804997 0.138091
vn 0.576931 0.805045 0.13803
vn -0.978311 0 -0.207143
vn -0.978311 1.26839e-17 -0.207143
vn -0.281119 -5.8763e-17 0.959673
vn -0.281119 0 0.959673
vn 0.972553 -0 0.232681
vn 0.236303 0 -0.971679
vn 0.236381 -8.07349e-06 -0.97166
vn 0.236303 8.09201e-05 -0.971679
vn 0.236387 0 -0.971659
vn 1.12653e-24 -1 -6.12323e-17
vn 2.1773e-24 -1 -6.12323e-17
vn -7.51505e-20 -1 -6.0922e-17

# Mesh 'defaultobject' with 16 faces
g defaultobject
usemtl DefaultMaterial
f  1//1 2//1 3//1
f  2//2 1//2 4//2
f  4//3 1//3 5//3
f  6//4 1//4 3//4
f  1//4 6//4 7//5
f  7//6 5//6 1//6
f  5//6 7//6 8//7
f  8//8 4//8 5//8
f  4//8 8//8 9//8
f  2//9 6//9 3//9
f  6//10 2//10 4//10
f  6//11 4//11 10//11
f  10//12 4//12 9//12
f  7//13 9//13 8//13
f  9//13 7//13 6//14
f  9//13 6//14 10//15

