# File produced by Open Asset Import Library (http://www.assimp.sf.net)
# (assimp v3.1.0)

mtllib _47738.obj.mtl

# 11 vertex positions
v  2.355 3.499 -0.8
v  4.223 2.937 2.081
v  5.001 3.499 0.503
v  0 2.937 1.79839e-16
v  5.778 2.937 -1.074
v  1.555 2.937 -3.155
v  4.223 -1.27424e-16 2.081
v  5.778 6.57635e-17 -1.074
v  5.001 -3.07999e-17 0.503
v  1.555 1.93188e-16 -3.155
v  0 0 0

# 0 UV coordinates

# 17 vertex normals
vn -0.134428 0.952581 0.272982
vn -0.134557 0.952541 0.273058
vn 0.134521 0.952514 -0.273171
vn 0.134539 0.952554 -0.273022
vn -0.27303 0.952547 -0.134568
vn 0.896914 -0 0.442205
vn 0.897013 -0.000112028 0.442005
vn 0.896971 0 0.442089
vn 0 1 6.12543e-17
vn 0.442023 0 -0.897004
vn -0.896971 0 -0.442089
vn -0.896971 2.70701e-17 -0.442089
vn -0.442023 -5.49256e-17 0.897004
vn -0.442023 0 0.897004
vn -3.19814e-24 -1 -6.12323e-17
vn -1.27816e-23 -1 -6.12323e-17
vn 0 -1 -6.12323e-17

# Mesh 'defaultobject' with 18 faces
g defaultobject
usemtl DefaultMaterial
f  1//1 2//1 3//1
f  2//2 1//2 4//2
f  5//3 1//3 3//3
f  1//4 5//4 6//4
f  1//5 6//5 4//5
f  7//6 3//6 2//6
f  3//7 7//7 5//7
f  5//8 7//8 8//8
f  8//9 7//9 9//9
f  8//10 6//10 5//10
f  6//10 8//10 10//10
f  10//11 4//11 6//11
f  4//11 10//11 11//12
f  11//13 2//13 4//13
f  2//13 11//13 7//14
f  9//15 10//15 8//15
f  10//15 9//15 7//16
f  10//15 7//16 11//17

