# File produced by Open Asset Import Library (http://www.assimp.sf.net)
# (assimp v3.1.0)

mtllib _49439.obj.mtl

# 8 vertex positions
v  0 5.227 3.20061e-16
v  6.086 5.629 -0.187
v  0.892 5.629 -2.363
v  5.151 5.219 2.216
v  0.892 1.44692e-16 -2.363
v  0 0 0
v  5.151 -1.35691e-16 2.216
v  6.086 1.14504e-17 -0.187

# 0 UV coordinates

# 11 vertex normals
vn -0.0607739 0.987554 0.145064
vn -0.0607824 0.987585 0.144852
vn -0.935562 0 -0.353162
vn -0.935562 2.16249e-17 -0.353162
vn -0.395189 -5.6248e-17 0.9186
vn -0.395189 0 0.9186
vn 0.931939 0 0.362615
vn 0.931939 0 0.362615
vn 0.386405 0 -0.922329
vn -2.32772e-25 -1 -6.12323e-17
vn 1.1449e-25 -1 -6.12323e-17

# Mesh 'defaultobject' with 12 faces
g defaultobject
usemtl DefaultMaterial
f  1//1 2//1 3//1
f  2//2 1//2 4//2
f  5//3 1//3 3//3
f  1//3 5//3 6//4
f  6//5 4//5 1//5
f  4//5 6//5 7//6
f  4//7 8//7 2//7
f  8//7 4//7 7//8
f  8//9 3//9 2//9
f  3//9 8//9 5//9
f  8//10 6//10 5//10
f  6//10 8//10 7//11

