# File produced by Open Asset Import Library (http://www.assimp.sf.net)
# (assimp v3.1.0)

mtllib _54625.obj.mtl

# 10 vertex positions
v  0 1.888 1.15607e-16
v  3.616 1.888 1.38
v  2.731 1.888 -1.156
v  1.471 1.888 2.086
v  0.54 1.888 2.404
v  3.616 -8.45006e-17 1.38
v  2.731 7.07846e-17 -1.156
v  0 0 0
v  0.54 -1.47203e-16 2.404
v  1.471 -1.27731e-16 2.086

# 0 UV coordinates

# 13 vertex normals
vn -0 1 0
vn 0.94416 0 -0.329488
vn -0.389805 0 -0.920897
vn -0.389805 5.63887e-17 -0.920897
vn -0.975688 -1.342e-17 0.219165
vn -0.975688 0 0.219165
vn 0.312639 0 0.949872
vn 0.323204 0.0133635 0.946235
vn 0.312633 -0.00582241 0.949856
vn 0.323233 0 0.94632
vn -4.36469e-24 -1 -6.12323e-17
vn 0 -1 -6.12323e-17
vn 0 -1 -6.12323e-17

# Mesh 'defaultobject' with 16 faces
g defaultobject
usemtl DefaultMaterial
f  1//1 2//1 3//1
f  2//1 1//1 4//1
f  4//1 1//1 5//1
f  6//2 3//2 2//2
f  3//2 6//2 7//2
f  7//3 1//3 3//3
f  1//3 7//3 8//4
f  8//5 5//5 1//5
f  5//5 8//5 9//6
f  4//7 6//7 2//7
f  6//8 4//8 5//8
f  6//9 5//9 10//9
f  10//10 5//10 9//10
f  10//11 7//11 6//11
f  7//11 10//11 8//12
f  8//12 10//11 9//13

