# {"id":"ID_26708","idOriginal":"ID_26708","origin":[14.304116104350284,48.327787090226124],"elevation":256.596,"wof":[{"Id":85681677,"Name":"Oberösterreich","Placetype":"region","Offset":-1},{"Id":85898419,"Name":"Furth","Placetype":"neighbourhood","Offset":-1},{"Id":102049853,"Name":"Linz","Placetype":"county","Offset":-1},{"Id":101748071,"Name":"Linz","Placetype":"locality","Offset":-1},{"Id":85632785,"Name":"Austria","Placetype":"country","Offset":-1}]}

# Attribution: City of Linz <http://geo.data.linz.gv.at/katalog/geodata/3d_geo_daten_lod2/>
# Longitude: 14.304116104350284
# Latitude: 48.327787090226124
# Elevation: 256.596

# File produced by Open Asset Import Library (http://www.assimp.sf.net)
# (assimp v3.1.0)


# 22 vertex positions
v  7.044 3.856 -3.749
v  14.949 5.333 -4.782
v  13.64 3.856 -7.26
v  1.309 5.333 2.478
v  2.778 3.856 -1.478
v  0.352 3.856 -0.187
v  0 3.856 2.36112e-16
v  2.61 3.866 4.94
v  4.767 3.862 3.8
v  15.841 3.843 -2.053
v  16.27 3.842 -2.28
v  0 0 0
v  1.309 -1.51734e-16 2.478
v  2.61 -3.02488e-16 4.94
v  4.767 -2.32683e-16 3.8
v  15.841 1.2571e-16 -2.053
v  16.27 1.3961e-16 -2.28
v  14.949 2.92813e-16 -4.782
v  13.64 4.44547e-16 -7.26
v  7.044 2.2956e-16 -3.749
v  2.778 9.05014e-17 -1.478
v  0.352 1.14504e-17 -0.187

# 0 UV coordinates

# 35 vertex normals
vn -0.219075 0.884656 -0.411569
vn -0.219076 0.884643 -0.411598
vn -0.21914 0.884604 -0.411647
vn -0.219047 0.884637 -0.411625
vn -0.21874 0.884657 -0.411746
vn 0.218997 0.884732 0.411449
vn 0.219249 0.884534 0.41174
vn 0.218993 0.884724 0.411468
vn 0.219656 0.884673 0.411224
vn -0.884213 -2.86007e-17 0.467084
vn -0.88416 -5.9059e-05 0.467184
vn -0.884213 0.000103338 0.467084
vn -0.884146 0 0.467211
vn 0.467266 -0 0.884117
vn 0.467282 0 0.884108
vn 0.467282 0 0.884108
vn 0.467698 0 0.883889
vn 0.884312 0 -0.466897
vn 0.884235 -8.78271e-05 -0.467043
vn 0.884312 0.00015398 -0.466897
vn 0.884213 0 -0.467084
vn -0.469873 0 -0.882734
vn -0.469911 -0 -0.882714
vn -0.469776 -0 -0.882786
vn -0.469155 -0 -0.883116
vn -0.469155 5.40752e-17 -0.883116
vn 3.13229e-23 -1 -6.12324e-17
vn -2.98741e-24 -1 -6.12323e-17
vn 2.9036e-24 -1 -6.12323e-17
vn 5.06615e-24 -1 -6.12323e-17
vn -3.91667e-24 -1 -6.12323e-17
vn 0 -1 -6.12323e-17
vn 3.44812e-24 -1 -6.12323e-17
vn -4.7649e-23 -1 -6.12323e-17
vn 0 -1 -6.12323e-17

# Mesh 'defaultobject' with 40 faces
g defaultobject
usemtl DefaultMaterial
f  1//1 2//1 3//1
f  2//2 1//2 4//2
f  4//3 1//3 5//3
f  4//4 5//4 6//4
f  4//5 6//5 7//5
f  8//6 2//6 4//6
f  2//7 8//7 9//7
f  2//8 9//8 10//8
f  2//9 10//9 11//9
f  12//10 4//10 7//10
f  4//11 12//11 8//11
f  8//12 12//12 13//12
f  8//13 13//13 14//13
f  14//14 9//14 8//14
f  9//14 14//14 15//14
f  9//15 15//15 10//15
f  10//15 15//15 16//16
f  10//17 16//17 11//17
f  11//17 16//17 17//17
f  17//18 2//18 11//18
f  2//19 17//19 3//19
f  3//20 17//20 18//20
f  3//21 18//21 19//21
f  19//22 1//22 3//22
f  1//22 19//22 20//22
f  1//23 20//23 5//23
f  5//23 20//23 21//23
f  5//24 21//24 6//24
f  6//24 21//24 22//24
f  6//25 22//25 7//25
f  7//25 22//25 12//26
f  16//27 18//27 17//27
f  18//27 16//27 15//28
f  18//27 15//28 19//29
f  19//29 15//28 20//30
f  20//30 15//28 21//31
f  21//31 15//28 14//32
f  21//31 14//32 22//33
f  22//33 14//32 13//34
f  22//33 13//34 12//35

