# {"id":"ID_46676","idOriginal":"ID_46676","origin":[14.283242024892013,48.277646162747665],"elevation":278.801}
# Longitude: 14.283242024892013
# Latitude: 48.277646162747665
# Elevation: 278.801

# File produced by Open Asset Import Library (http://www.assimp.sf.net)
# (assimp v3.1.0)

mtllib ID_46676.obj.mtl

# 25 vertex positions
v  0.236 1.941 0.227
v  3.099 2.911 -0.045
v  0.018 1.941 0.017
v  2.344 1.925 2.301
v  2.617 1.925 2.563
v  3.868 2.729 1.26
v  4.878 2.911 1.664
v  4.595 2.729 1.958
v  5.825 2.302 0.677
v  5.116 2.302 -0.004
v  5.695 1.93 -0.607
v  3.036 1.93 -3.161
v  0 1.93 1.18178e-16
v  0.236 -1.38997e-17 0.227
v  0 0 0
v  0.018 -1.04095e-18 0.017
v  2.344 -1.40896e-16 2.301
v  2.617 -1.56938e-16 2.563
v  3.868 -7.71528e-17 1.26
v  4.595 -1.19893e-16 1.958
v  5.825 -4.14543e-17 0.677
v  4.878 -1.01891e-16 1.664
v  5.116 2.44929e-19 -0.004
v  5.695 3.7168e-17 -0.607
v  3.036 1.93555e-16 -3.161

# 0 UV coordinates

# 35 vertex normals
vn -0.281804 0.913788 0.292539
vn -0.281659 0.913581 0.293324
vn -0.281547 0.913601 0.293368
vn -0.281603 0.913588 0.293353
vn -0.282019 0.91339 0.293571
vn -0.2821 0.913285 0.293821
vn 0.281778 0.913545 -0.293319
vn 0.281787 0.913525 -0.293373
vn 0.281811 0.913626 -0.293035
vn 0.281728 0.913564 -0.29331
vn -0.292836 0.913861 -0.281256
vn -0.293294 0.913581 -0.28169
vn -0.693597 0.0222193 0.72002
vn -0.693231 0 0.720716
vn -0.693231 0 0.720716
vn 0 -1 -6.12344e-17
vn -0.701335 0 0.712832
vn -0.701335 0 0.712832
vn -0.692422 0 0.721493
vn -0.692573 0 0.721348
vn 0.721354 0 0.692566
vn 0.721354 0 0.692566
vn 0.721016 -0.00181565 0.692916
vn 0.72132 0 0.692602
vn -1.46506e-20 1 6.12176e-17
vn 0.721316 -0 0.692607
vn 0.721316 0 0.692607
vn 0.692723 0 -0.721204
vn 0.692724 0 -0.721203
vn -0.721223 0 -0.692703
vn -0.721223 4.24158e-17 -0.692703
vn -9.84234e-24 -1 -6.12323e-17
vn 0 -1 -6.12323e-17
vn 7.39366e-24 -1 -6.12323e-17
vn 0 -1 -6.12323e-17

# Mesh 'defaultobject' with 46 faces
g defaultobject
usemtl DefaultMaterial
f  1//1 2//1 3//1
f  2//2 1//2 4//2
f  2//3 4//3 5//3
f  2//4 5//4 6//4
f  2//5 6//5 7//5
f  7//6 6//6 8//6
f  9//7 2//7 7//7
f  2//8 9//8 10//8
f  2//9 10//9 11//9
f  2//10 11//10 12//10
f  3//11 12//11 13//11
f  12//12 3//12 2//12
f  13//13 1//13 3//13
f  1//14 13//14 14//14
f  14//14 13//14 15//15
f  14//16 15//16 16//16
f  14//17 4//17 1//17
f  4//17 14//17 17//18
f  4//19 17//19 5//19
f  5//19 17//19 18//19
f  19//20 8//20 6//20
f  8//20 19//20 20//20
f  5//21 19//21 6//21
f  19//21 5//21 18//22
f  8//23 9//23 7//23
f  9//24 8//24 20//24
f  9//24 20//24 21//24
f  21//25 20//25 22//25
f  23//26 11//26 10//26
f  11//26 23//26 24//27
f  21//28 10//28 9//28
f  10//28 21//28 23//28
f  24//29 12//29 11//29
f  12//29 24//29 25//29
f  25//30 13//30 12//30
f  13//30 25//30 15//31
f  22//32 23//32 21//32
f  23//32 22//32 20//33
f  23//32 20//33 19//34
f  23//32 25//35 24//35
f  25//35 23//32 19//34
f  25//35 19//34 18//33
f  25//35 18//33 17//33
f  25//35 17//33 14//16
f  25//35 14//16 16//16
f  25//35 16//16 15//16

