# {"id":"ID_32390","idOriginal":"ID_32390","origin":[14.305648688597655,48.31204966877479],"elevation":256.798}
# Longitude: 14.305648688597655
# Latitude: 48.31204966877479
# Elevation: 256.798

# File produced by Open Asset Import Library (http://www.assimp.sf.net)
# (assimp v3.1.0)

mtllib ID_32390.obj.mtl

# 26 vertex positions
v  4.273 -4.2134e-16 6.881
v  4.164 8.231 6.845
v  4.273 8.231 6.881
v  4.164 -4.19135e-16 6.845
v  4.212 8.231 6.915
v  4.212 -4.23422e-16 6.915
v  0 8.231 5.04003e-16
v  0.116 8.231 -0.024
v  0.094 8.231 -0.06
v  0.023 8.231 0.037
v  5.74 8.231 -3.674
v  5.725 8.231 -3.698
v  10.047 8.231 2.891
v  7.651 8.231 4.428
v  7.734 8.231 4.65
v  4.294 8.231 6.87
v  4.294 -4.20666e-16 6.87
v  7.734 -2.8473e-16 4.65
v  7.651 -2.71137e-16 4.428
v  10.047 -1.77023e-16 2.891
v  5.74 2.24968e-16 -3.674
v  5.725 2.26437e-16 -3.698
v  0.116 1.46958e-18 -0.024
v  0.094 3.67394e-18 -0.06
v  0 0 0
v  0.023 -2.2656e-18 0.037

# 0 UV coordinates

# 25 vertex normals
vn 0.313612 0 -0.949551
vn -0.824728 0 0.565529
vn 0.486858 -0 0.873481
vn 0 1 0
vn -0.188844 0 0.982007
vn 0.542238 -0 0.840225
vn 0.539941 -0 0.841703
vn 0.936675 0 -0.350199
vn 0.836123 0 -0.548542
vn 0.848 0 -0.529997
vn 0.853282 0 -0.52145
vn -0.547936 0 -0.83652
vn -0.538035 0 -0.842922
vn -0.538035 5.16141e-17 -0.842922
vn -0.854366 0 0.519672
vn -0.849252 0.00938223 0.527905
vn -0.854366 -5.1298e-05 0.519672
vn -0.849285 0 0.527934
vn 0 -1 -6.12323e-17
vn 0 -1 -6.12323e-17
vn -3.92721e-20 -1 -6.12252e-17
vn 2.16513e-21 -1 -6.1232e-17
vn -6.44219e-24 -1 -6.12323e-17
vn -9.27369e-23 -1 -6.12325e-17
vn 1.39617e-23 -1 -6.12323e-17

# Mesh 'defaultobject' with 46 faces
g defaultobject
usemtl DefaultMaterial
f  1//1 2//1 3//1
f  2//1 1//1 4//1
f  4//2 5//2 2//2
f  5//2 4//2 6//2
f  6//3 3//3 5//3
f  3//3 6//3 1//3
f  7//4 8//4 9//4
f  8//4 7//4 10//4
f  8//4 11//4 12//4
f  11//4 8//4 13//4
f  13//4 8//4 10//4
f  13//4 10//4 14//4
f  14//4 10//4 2//4
f  14//4 2//4 15//4
f  15//4 2//4 16//4
f  4//5 16//5 2//5
f  16//5 4//5 17//5
f  17//6 15//6 16//6
f  15//6 17//6 18//6
f  19//7 13//7 14//7
f  13//7 19//7 20//7
f  18//8 14//8 15//8
f  14//8 18//8 19//8
f  20//9 11//9 13//9
f  11//9 20//9 21//9
f  21//10 12//10 11//10
f  12//10 21//10 22//10
f  23//11 9//11 8//11
f  9//11 23//11 24//11
f  22//12 8//12 12//12
f  8//12 22//12 23//12
f  24//13 7//13 9//13
f  7//13 24//13 25//14
f  10//15 4//15 2//15
f  4//16 10//16 7//16
f  4//17 7//17 26//17
f  26//18 7//18 25//18
f  24//19 26//19 25//19
f  26//19 24//19 4//20
f  4//20 24//19 23//21
f  4//20 23//21 22//20
f  4//20 22//20 21//22
f  4//20 21//22 19//23
f  19//23 21//22 20//20
f  4//20 19//23 17//24
f  18//25 17//24 19//23

