# {"id":"ID_44691","idOriginal":"ID_44691","origin":[14.363853065502452,48.25425216592005],"elevation":250.706,"wof":[{"Id":85681677,"Name":"Oberösterreich","Placetype":"region","Offset":-1},{"Id":85898441,"Name":"Posch","Placetype":"neighbourhood","Offset":-1},{"Id":102049853,"Name":"Linz","Placetype":"county","Offset":-1},{"Id":85632785,"Name":"Austria","Placetype":"country","Offset":-1},{"Id":101748071,"Name":"Linz","Placetype":"locality","Offset":-1}]}

# Attribution: City of Linz <http://geo.data.linz.gv.at/katalog/geodata/3d_geo_daten_lod2/>
# Longitude: 14.363853065502452
# Latitude: 48.25425216592005
# Elevation: 250.706

# File produced by Open Asset Import Library (http://www.assimp.sf.net)
# (assimp v3.1.0)


# 8 vertex positions
v  0 2.937 1.79839e-16
v  6.754 2.937 3.464
v  2.304 2.937 -1.909
v  4.449 2.937 5.372
v  6.754 -2.12109e-16 3.464
v  2.304 1.16893e-16 -1.909
v  0 0 0
v  4.449 -3.2894e-16 5.372

# 0 UV coordinates

# 9 vertex normals
vn -0 1 0
vn 0.770156 0 -0.637855
vn -0.638012 0 -0.770026
vn -0.638012 4.71505e-17 -0.770026
vn -0.770169 -3.90565e-17 0.637841
vn -0.770169 0 0.637841
vn 0.63765 -0 0.770326
vn -2.53598e-24 -1 -6.12323e-17
vn 5.07321e-24 -1 -6.12323e-17

# Mesh 'defaultobject' with 12 faces
g defaultobject
usemtl DefaultMaterial
f  1//1 2//1 3//1
f  2//1 1//1 4//1
f  5//2 3//2 2//2
f  3//2 5//2 6//2
f  6//3 1//3 3//3
f  1//3 6//3 7//4
f  7//5 4//5 1//5
f  4//5 7//5 8//6
f  8//7 2//7 4//7
f  2//7 8//7 5//7
f  8//8 6//8 5//8
f  6//8 8//8 7//9

