# {"id":"ID_56551","idOriginal":"ID_56551","origin":[14.342595090582476,48.340327799276395],"elevation":329.3,"wof":[{"Id":101758517,"Name":"Plesching","Placetype":"locality","Offset":-1},{"Id":102049853,"Name":"Linz","Placetype":"county","Offset":-1},{"Id":85681677,"Name":"Oberösterreich","Placetype":"region","Offset":-1},{"Id":85898427,"Name":"Katzbach","Placetype":"neighbourhood","Offset":-1},{"Id":85632785,"Name":"Austria","Placetype":"country","Offset":-1}]}

# Attribution: City of Linz <http://geo.data.linz.gv.at/katalog/geodata/3d_geo_daten_lod2/>
# Longitude: 14.342595090582476
# Latitude: 48.340327799276395
# Elevation: 329.3

# File produced by Open Asset Import Library (http://www.assimp.sf.net)
# (assimp v3.1.0)


# 8 vertex positions
v  0 8.39 5.13739e-16
v  2.431 8.39 -2.774
v  0.892 8.39 -3.683
v  1.68 8.39 0.391
v  0.892 2.25519e-16 -3.683
v  0 0 0
v  1.68 -2.39418e-17 0.391
v  2.431 1.69859e-16 -2.774

# 0 UV coordinates

# 9 vertex normals
vn 0 1 0
vn -0.971901 0 -0.235389
vn -0.971901 1.44134e-17 -0.235389
vn -0.22668 -5.96384e-17 0.973969
vn -0.22668 0 0.973969
vn 0.972984 -0 0.230872
vn 0.50856 0 -0.861027
vn 2.04275e-24 -1 -6.12323e-17
vn -1.1794e-24 -1 -6.12323e-17

# Mesh 'defaultobject' with 12 faces
g defaultobject
usemtl DefaultMaterial
f  1//1 2//1 3//1
f  2//1 1//1 4//1
f  5//2 1//2 3//2
f  1//2 5//2 6//3
f  6//4 4//4 1//4
f  4//4 6//4 7//5
f  7//6 2//6 4//6
f  2//6 7//6 8//6
f  8//7 3//7 2//7
f  3//7 8//7 5//7
f  8//8 6//8 5//8
f  6//8 8//8 7//9

