# {"id":"ID_2831","idOriginal":"ID_2831","origin":[14.314379068952404,48.25564050903108],"elevation":258.322,"wof":[{"Id":85898429,"Name":"Kleinmünchen","Placetype":"neighbourhood","Offset":-1},{"Id":85681677,"Name":"Oberösterreich","Placetype":"region","Offset":-1},{"Id":102049853,"Name":"Linz","Placetype":"county","Offset":-1},{"Id":101748071,"Name":"Linz","Placetype":"locality","Offset":-1},{"Id":85632785,"Name":"Austria","Placetype":"country","Offset":-1}]}

# Attribution: City of Linz <http://geo.data.linz.gv.at/katalog/geodata/3d_geo_daten_lod2/>
# Longitude: 14.314379068952404
# Latitude: 48.25564050903108
# Elevation: 258.322

# File produced by Open Asset Import Library (http://www.assimp.sf.net)
# (assimp v3.1.0)


# 72 vertex positions
v  18.135 5.529 20.44
v  13.279 5.529 22.532
v  13.612 5.529 23.113
v  12.121 5.529 20.51
v  5.287 5.529 9.179
v  11.873 5.529 20.612
v  18.619 5.529 16.332
v  22.491 5.529 17.866
v  22.895 5.529 17.627
v  16.63 5.529 11.606
v  18.849 5.529 10.655
v  17.518 5.529 7.429
v  0 5.529 3.38554e-16
v  16.231 5.529 4.311
v  16.193 5.529 4.219
v  16.343 5.529 4.152
v  27.372 5.529 -0.753
v  0.165 5.529 -0.11
v  4.389 5.529 -2.958
v  27.113 5.529 -1.323
v  25.288 5.529 -5.395
v  10.112 5.529 -5.436
v  12.19 5.529 -6.336
v  22.725 5.529 -11.113
v  11.73 5.529 -6.137
v  12.155 5.529 -6.412
v  10.052 5.529 -10.95
v  8.532 5.529 -14.494
v  20.557 5.529 -15.95
v  19.166 5.529 -19.054
v  19.169 5.529 -19.077
v  20.724 5.529 15.871
v  21.942 5.529 15.273
v  21.422 5.529 15.48
v  21.549 5.529 15.409
v  20.535 5.529 15.411
v  22.895 -1.07934e-15 17.627
v  21.942 -9.35202e-16 15.273
v  20.724 -9.71818e-16 15.871
v  20.535 -9.43652e-16 15.411
v  18.849 -6.52431e-16 10.655
v  17.518 -4.54895e-16 7.429
v  16.231 -2.63973e-16 4.311
v  16.193 -2.58339e-16 4.219
v  19.166 1.16672e-15 -19.054
v  19.169 1.16813e-15 -19.077
v  21.549 -9.43529e-16 15.409
v  18.619 -1.00005e-15 16.332
v  16.63 -7.10663e-16 11.606
v  27.372 4.6108e-17 -0.753
v  27.113 8.10104e-17 -1.323
v  25.288 3.30348e-16 -5.395
v  22.725 6.80475e-16 -11.113
v  20.557 9.76656e-16 -15.95
v  21.422 -9.47877e-16 15.48
v  8.532 8.87502e-16 -14.494
v  12.19 3.87968e-16 -6.336
v  4.389 1.81125e-16 -2.958
v  11.73 3.75783e-16 -6.137
v  10.112 3.32859e-16 -5.436
v  0 0 0
v  0.165 6.73556e-18 -0.11
v  16.343 -2.54237e-16 4.152
v  13.612 -1.41526e-15 23.113
v  18.135 -1.25159e-15 20.44
v  22.491 -1.09398e-15 17.866
v  10.052 6.70494e-16 -10.95
v  12.155 3.92622e-16 -6.412
v  5.287 -5.62052e-16 9.179
v  11.873 -1.26212e-15 20.612
v  12.121 -1.25588e-15 20.51
v  13.279 -1.37969e-15 22.532

# 0 UV coordinates

# 75 vertex normals
vn 0 1 0
vn 0.926921 0 -0.375257
vn 0.92497 0 -0.38004
vn 0.924411 0 -0.381398
vn 0.924352 -9.66189e-05 -0.38154
vn 0.924411 9.33655e-05 -0.381398
vn 0.924261 -0.000146155 -0.381761
vn 0.924352 4.31328e-06 -0.38154
vn 0.924261 0 -0.381761
vn 0.991598 -0 0.129357
vn -0.32703 0 -0.945014
vn 0.921698 0 -0.387909
vn 0.910422 0 -0.413681
vn 0.912541 0.000583381 -0.408985
vn 0.910414 -0.00415781 -0.413677
vn 0.912541 0 -0.408985
vn 0.912524 0 -0.409024
vn 0.912531 0 -0.409007
vn 0.912559 0 -0.408946
vn -0.487974 0 -0.872858
vn -0.488717 -2.24098e-05 -0.872442
vn -0.488603 -0 -0.872506
vn -2.83646e-19 1 6.07002e-17
vn -0.433236 0 -0.901281
vn -0.39569 0 -0.918384
vn -0.397047 0 -0.917798
vn -0.397544 -4.90773e-05 -0.917583
vn -0.397342 4.11685e-05 -0.917671
vn -0.397366 -0 -0.91766
vn -7.14429e-20 1 6.10837e-17
vn 2.18376e-20 -1 -6.11889e-17
vn -0.559041 0 -0.82914
vn -0.554694 0.00481562 -0.832041
vn -0.558879 5.07769e-17 -0.829249
vn 0 -1 -6.12318e-17
vn 0.393919 -0 0.919145
vn 0.407833 -0 0.913057
vn 0.406361 4.78566e-05 0.913713
vn 0.406381 0 0.913704
vn 6.62424e-20 -1 -6.11418e-17
vn 0.508774 -0 0.8609
vn 0.50873 0 0.860926
vn 0.509156 0 0.860674
vn -0.919038 0 0.39417
vn -0.907309 0 0.420465
vn -0.908308 0.00215969 0.418297
vn -0.907325 0 0.420429
vn -8.77581e-20 -1 -6.11914e-17
vn -0.866536 -3.0562e-17 0.499115
vn -0.866536 0 0.499115
vn -0.866512 0 0.499156
vn -0.867767 0 0.496971
vn -0.8676 -0.000141728 0.497263
vn -0.86773 0 0.497036
vn -2.01767e-19 1 6.13435e-17
vn 0.380372 -0 0.924833
vn 9.48234e-24 -1 -6.12323e-17
vn -1.30644e-23 -1 -6.12323e-17
vn 0 -1 -6.12323e-17
vn 0 -1 -6.12506e-17
vn 6.28417e-24 -1 -6.12323e-17
vn 0 -1 -6.12501e-17
vn 0 -1 -6.12323e-17
vn -2.80067e-22 -1 -6.12324e-17
vn -4.06282e-24 -1 -6.12323e-17
vn 9.8924e-23 -1 -6.12323e-17
vn 1.14e-23 -1 -6.12323e-17
vn 6.12487e-24 -1 -6.12323e-17
vn 1.42595e-23 -1 -6.12323e-17
vn -1.03072e-22 -1 -6.12324e-17
vn -7.99783e-24 -1 -6.12323e-17
vn -7.62301e-23 -1 -6.12323e-17
vn 4.19138e-22 -1 -6.12325e-17
vn -7.26053e-23 -1 -6.12323e-17
vn -6.17516e-23 -1 -6.12323e-17

# Mesh 'defaultobject' with 140 faces
g defaultobject
usemtl DefaultMaterial
f  1//1 2//1 3//1
f  2//1 1//1 4//1
f  4//1 5//1 6//1
f  5//1 4//1 1//1
f  5//1 1//1 7//1
f  7//1 1//1 8//1
f  7//1 8//1 9//1
f  5//1 7//1 10//1
f  5//1 10//1 11//1
f  5//1 11//1 12//1
f  5//1 12//1 13//1
f  13//1 12//1 14//1
f  13//1 14//1 15//1
f  13//1 15//1 16//1
f  13//1 16//1 17//1
f  13//1 17//1 18//1
f  18//1 17//1 19//1
f  19//1 17//1 20//1
f  19//1 20//1 21//1
f  19//1 21//1 22//1
f  22//1 21//1 23//1
f  23//1 21//1 24//1
f  22//1 23//1 25//1
f  23//1 24//1 26//1
f  26//1 24//1 27//1
f  27//1 24//1 28//1
f  28//1 24//1 29//1
f  28//1 29//1 30//1
f  28//1 30//1 31//1
f  9//1 32//1 7//1
f  32//1 9//1 33//1
f  32//1 33//1 34//1
f  34//1 33//1 35//1
f  36//1 7//1 32//1
f  37//2 33//2 9//2
f  33//2 37//2 38//2
f  39//3 36//3 32//3
f  36//3 39//3 40//3
f  41//4 12//4 11//4
f  12//5 41//5 14//5
f  14//6 41//6 42//6
f  14//7 42//7 15//7
f  15//8 42//8 43//8
f  15//9 43//9 44//9
f  45//10 31//10 30//10
f  31//10 45//10 46//10
f  38//11 35//11 33//11
f  35//11 38//11 47//11
f  48//12 10//12 7//12
f  10//12 48//12 49//12
f  50//13 20//13 17//13
f  20//14 50//14 21//14
f  21//15 50//15 51//15
f  21//16 51//16 52//16
f  21//17 52//17 24//17
f  24//17 52//17 53//17
f  24//18 53//18 29//18
f  29//18 53//18 54//18
f  29//19 54//19 30//19
f  30//19 54//19 45//19
f  47//20 34//20 35//20
f  34//21 47//21 32//21
f  32//22 47//22 39//22
f  39//23 47//23 55//23
f  40//24 7//24 36//24
f  7//24 40//24 48//24
f  46//25 28//25 31//25
f  28//25 46//25 56//25
f  57//26 25//26 23//26
f  25//27 57//27 22//27
f  22//28 57//28 19//28
f  19//29 57//29 58//29
f  58//30 57//30 59//30
f  58//31 59//31 60//31
f  58//32 18//32 19//32
f  18//33 58//33 13//33
f  13//34 58//34 61//34
f  61//35 58//31 62//35
f  49//36 11//36 10//36
f  11//36 49//36 41//36
f  44//37 16//37 15//37
f  16//38 44//38 17//38
f  17//39 44//39 50//39
f  50//40 44//40 63//40
f  64//41 1//41 3//41
f  1//41 64//41 65//41
f  1//42 65//42 8//42
f  8//42 65//42 66//42
f  8//43 66//43 9//43
f  9//43 66//43 37//43
f  56//44 27//44 28//44
f  27//44 56//44 67//44
f  67//45 26//45 27//45
f  26//46 67//46 23//46
f  23//47 67//47 57//47
f  57//48 67//48 68//48
f  61//49 5//49 13//49
f  5//49 61//49 69//50
f  5//51 69//51 6//51
f  6//51 69//51 70//51
f  71//52 2//52 4//52
f  2//53 71//53 3//53
f  3//54 71//54 64//54
f  64//55 71//55 72//55
f  70//56 4//56 6//56
f  4//56 70//56 71//56
f  46//57 67//48 56//57
f  67//48 46//57 68//48
f  68//48 46//57 57//48
f  53//58 44//40 54//58
f  44//40 53//58 63//40
f  63//40 53//58 51//59
f  63//40 51//59 50//40
f  51//59 53//58 52//60
f  41//61 49//61 42//61
f  62//35 69//59 61//35
f  69//59 62//35 58//31
f  69//59 58//31 60//31
f  69//59 60//31 70//59
f  70//59 60//31 59//31
f  70//59 59//31 57//48
f  70//59 57//48 46//57
f  70//59 46//57 45//62
f  70//59 45//62 54//58
f  70//59 54//58 44//40
f  70//59 44//40 43//63
f  70//59 43//63 42//61
f  70//59 42//61 71//64
f  71//64 42//61 72//65
f  72//65 42//61 64//66
f  64//66 42//61 49//61
f  64//66 49//61 48//67
f  64//66 48//67 65//68
f  65//68 48//67 40//69
f  65//68 40//69 39//70
f  65//68 39//70 66//71
f  66//71 39//70 55//72
f  66//71 55//72 47//73
f  66//71 47//73 38//74
f  66//71 38//74 37//75

