# {"id":"ID_20086","idOriginal":"ID_20086","origin":[14.283610973971788,48.30469221906192],"elevation":266.089,"wof":[{"Id":85681677,"Name":"Oberösterreich","Placetype":"region","Offset":-1},{"Id":85898449,"Name":"Steeg","Placetype":"neighbourhood","Offset":-1},{"Id":102049853,"Name":"Linz","Placetype":"county","Offset":-1},{"Id":101748071,"Name":"Linz","Placetype":"locality","Offset":-1},{"Id":85632785,"Name":"Austria","Placetype":"country","Offset":-1}]}

# Attribution: City of Linz <http://geo.data.linz.gv.at/katalog/geodata/3d_geo_daten_lod2/>
# Longitude: 14.283610973971788
# Latitude: 48.30469221906192
# Elevation: 266.089

# File produced by Open Asset Import Library (http://www.assimp.sf.net)
# (assimp v3.1.0)


# 21 vertex positions
v  12.128 19.086 -5.635
v  7.633 19.287 -0.314
v  12.285 19.287 -5.486
v  8.738 14.23 -9.715
v  0.208 14.23 -0.23
v  16.253 14.233 -1.729
v  7.921 14.226 7.545
v  7.72 14.484 7.353
v  0.125 14.116 -0.138
v  0 13.945 8.53885e-16
v  2.759 14.137 2.628
v  8.738 5.94872e-16 -9.715
v  0.208 1.40834e-17 -0.23
v  0 0 0
v  0.125 8.45006e-18 -0.138
v  7.921 -4.61998e-16 7.545
v  2.759 -1.60919e-16 2.628
v  7.72 -4.50241e-16 7.353
v  16.253 1.05871e-16 -1.729
v  12.128 3.45044e-16 -5.635
v  12.285 3.35921e-16 -5.486

# 0 UV coordinates

# 30 vertex normals
vn -0.506025 0.732651 -0.455149
vn -0.504843 0.734053 -0.454203
vn -0.505017 0.733953 -0.454169
vn 0.50492 0.734029 0.454155
vn 0.504916 0.734014 0.454184
vn 0.507569 0.732748 0.453271
vn -0.495155 0.734719 0.463692
vn -0.495606 0.735324 0.462248
vn -0.494522 0.73397 0.465549
vn -0.494618 0.733987 0.46542
vn -0.743547 0 -0.668683
vn -0.742969 0.000775481 -0.669326
vn -0.742241 0.00176595 -0.670131
vn -0.743547 -6.17235e-05 -0.668683
vn -0.741689 4.10713e-17 -0.670744
vn 0 -1 -6.1234e-17
vn -0.689708 -4.43376e-17 0.724088
vn -0.689673 -1.28978e-05 0.724121
vn -0.690308 0.000632804 0.723516
vn -0.689712 0 0.724084
vn 7.93016e-19 -1 -6.18553e-17
vn 2.37369e-21 -1 -6.12365e-17
vn 0.743876 0 0.668317
vn 0.743876 0 0.668317
vn 0.687961 0.00063164 -0.725748
vn 0.687569 0 -0.726119
vn 4.777e-21 -1 -6.12364e-17
vn 0.769148 0 -0.639071
vn 0.769148 0 -0.639071
vn 0 -1 -6.12323e-17

# Mesh 'defaultobject' with 38 faces
g defaultobject
usemtl DefaultMaterial
f  1//1 2//1 3//1
f  2//2 1//2 4//2
f  2//3 4//3 5//3
f  2//4 6//4 3//4
f  6//5 2//5 7//5
f  7//6 2//6 8//6
f  9//7 2//7 5//7
f  2//8 9//8 10//8
f  2//9 10//9 11//9
f  2//10 11//10 8//10
f  12//11 5//11 4//11
f  5//12 12//12 9//12
f  9//13 12//13 10//13
f  10//14 12//14 13//14
f  10//15 13//15 14//15
f  14//16 13//16 15//16
f  14//17 11//17 10//17
f  11//18 14//18 8//18
f  8//19 14//19 7//19
f  7//20 14//17 16//20
f  16//21 14//16 17//21
f  16//21 17//21 18//22
f  7//23 19//23 6//23
f  19//23 7//23 16//24
f  6//25 1//25 3//25
f  1//26 6//26 20//26
f  20//26 6//26 19//26
f  20//27 19//27 21//27
f  20//28 4//28 1//28
f  4//28 20//28 12//29
f  18//22 19//27 16//21
f  19//27 18//22 17//21
f  19//27 17//21 21//27
f  21//27 17//21 20//27
f  20//27 17//21 12//30
f  12//30 17//21 13//16
f  13//16 17//21 15//16
f  15//16 17//21 14//16

