# {"id":"ID_52569","idOriginal":"ID_52569","origin":[14.305974360611025,48.314607132718606],"elevation":254.42}
# Longitude: 14.305974360611025
# Latitude: 48.314607132718606
# Elevation: 254.42

# File produced by Open Asset Import Library (http://www.assimp.sf.net)
# (assimp v3.1.0)

mtllib ID_52569.obj.mtl

# 12 vertex positions
v  0 3.131 1.91718e-16
v  1.958 3.131 -0.387
v  1.397 3.131 -1.086
v  5.199 3.131 -0.355
v  3.934 3.131 -1.981
v  1.787 3.131 2.298
v  5.199 2.17375e-17 -0.355
v  3.934 1.21301e-16 -1.981
v  1.958 2.36969e-17 -0.387
v  1.397 6.64983e-17 -1.086
v  0 0 0
v  1.787 -1.40712e-16 2.298

# 0 UV coordinates

# 12 vertex normals
vn 0 1 0
vn 0.789274 0 -0.614041
vn 0.779888 0 -0.625919
vn -0.62786 0 -0.778326
vn -0.613745 0 -0.789504
vn -0.613745 4.83432e-17 -0.789504
vn -0.789408 -3.75887e-17 0.613869
vn -0.789408 0 0.613869
vn 0.613828 -0 0.789439
vn 0 -1 -6.12323e-17
vn 3.03986e-24 -1 -6.12323e-17
vn 0 -1 -6.12324e-17

# Mesh 'defaultobject' with 20 faces
g defaultobject
usemtl DefaultMaterial
f  1//1 2//1 3//1
f  2//1 4//1 5//1
f  4//1 2//1 1//1
f  4//1 1//1 6//1
f  7//2 5//2 4//2
f  5//2 7//2 8//2
f  9//3 3//3 2//3
f  3//3 9//3 10//3
f  8//4 2//4 5//4
f  2//4 8//4 9//4
f  10//5 1//5 3//5
f  1//5 10//5 11//6
f  11//7 6//7 1//7
f  6//7 11//7 12//8
f  12//9 4//9 6//9
f  4//9 12//9 7//9
f  10//10 12//10 11//10
f  12//10 10//10 9//10
f  12//10 9//10 7//11
f  7//11 9//10 8//12

