# {"id":"ID_32475","idOriginal":"ID_32475","origin":[14.29777405276156,48.253263239930455],"elevation":262.162,"wof":[{"Id":85681677,"Name":"Oberösterreich","Placetype":"region","Offset":-1},{"Id":85898447,"Name":"Scharlinz","Placetype":"neighbourhood","Offset":-1},{"Id":102049853,"Name":"Linz","Placetype":"county","Offset":-1},{"Id":101748071,"Name":"Linz","Placetype":"locality","Offset":-1},{"Id":85632785,"Name":"Austria","Placetype":"country","Offset":-1}]}

# Attribution: City of Linz <http://geo.data.linz.gv.at/katalog/geodata/3d_geo_daten_lod2/>
# Longitude: 14.29777405276156
# Latitude: 48.253263239930455
# Elevation: 262.162

# File produced by Open Asset Import Library (http://www.assimp.sf.net)
# (assimp v3.1.0)


# 10 vertex positions
v  5.977 6.976 -0.915
v  1.374 2.653 8.856
v  7.569 7.135 7.895
v  0.216 2.809 -0.034
v  0 2.653 1.62449e-16
v  0 0 0
v  1.374 -5.42274e-16 8.856
v  7.569 -4.83429e-16 7.895
v  5.977 5.60276e-17 -0.915
v  0.216 2.0819e-18 -0.034

# 0 UV coordinates

# 15 vertex normals
vn -0.574712 0.813483 0.089171
vn -0.574752 0.813458 0.0891409
vn -0.573916 0.814059 0.0890425
vn -0.988177 -9.38782e-18 0.153315
vn -0.988177 0 0.153315
vn 0.153292 0 0.988181
vn 0.153292 0 0.988181
vn 0.984062 0 -0.177824
vn 0.984062 0 -0.177824
vn -0.151167 0 -0.988508
vn -0.151167 -0 -0.988508
vn -0.155493 -0 -0.987837
vn -0.155493 6.04876e-17 -0.987837
vn 0 -1 -6.12323e-17
vn -5.9322e-22 -1 -6.12345e-17

# Mesh 'defaultobject' with 16 faces
g defaultobject
usemtl DefaultMaterial
f  1//1 2//1 3//1
f  2//2 1//2 4//2
f  2//3 4//3 5//3
f  6//4 2//4 5//4
f  2//4 6//4 7//5
f  2//6 8//6 3//6
f  8//6 2//6 7//7
f  8//8 1//8 3//8
f  1//8 8//8 9//9
f  9//10 4//10 1//10
f  4//10 9//10 10//11
f  4//12 10//12 5//12
f  5//12 10//12 6//13
f  6//14 8//14 7//14
f  8//14 6//14 9//14
f  9//14 6//14 10//15

