# {"id":"_53792","idOriginal":"_53792","origin":[14.293737515244693,48.29973343949598],"elevation":260.383}
# Longitude: 14.293737515244693
# Latitude: 48.29973343949598
# Elevation: 260.383

# File produced by Open Asset Import Library (http://www.assimp.sf.net)
# (assimp v3.1.0)

mtllib _53792.obj.mtl

# 12 vertex positions
v  0.714 7.638 2.098
v  3.488 7.638 -1.406
v  0 7.638 4.67693e-16
v  3.869 7.638 -0.372
v  4.697 7.638 0.477
v  4.191 7.638 -0.636
v  3.488 8.60927e-17 -1.406
v  0 0 0
v  0.714 -1.28465e-16 2.098
v  4.697 -2.92078e-17 0.477
v  4.191 3.89438e-17 -0.636
v  3.869 2.27784e-17 -0.372

# 0 UV coordinates

# 13 vertex normals
vn 0 1 0
vn -0.373865 0 -0.927483
vn -0.373865 5.6792e-17 -0.927483
vn -0.946679 -1.97277e-17 0.322178
vn -0.946679 0 0.322178
vn 0.376957 -0 0.926231
vn 0.910338 0 -0.413865
vn -0.634022 0 -0.773315
vn 0.938328 0 -0.345747
vn 0 -1 -6.12323e-17
vn -1.25946e-23 -1 -6.12323e-17
vn 0 -1 -6.12323e-17
vn 0 -1 -6.12323e-17

# Mesh 'defaultobject' with 20 faces
g defaultobject
usemtl DefaultMaterial
f  1//1 2//1 3//1
f  2//1 1//1 4//1
f  4//1 1//1 5//1
f  4//1 5//1 6//1
f  7//2 3//2 2//2
f  3//2 7//2 8//3
f  8//4 1//4 3//4
f  1//4 8//4 9//5
f  9//6 5//6 1//6
f  5//6 9//6 10//6
f  10//7 6//7 5//7
f  6//7 10//7 11//7
f  11//8 4//8 6//8
f  4//8 11//8 12//8
f  12//9 2//9 4//9
f  2//9 12//9 7//9
f  7//10 9//10 8//10
f  9//10 7//10 12//11
f  9//10 12//11 10//12
f  10//12 12//11 11//13

