# {"id":"_42114","idOriginal":"_42114","origin":[14.279042642783834,48.29903636534086],"elevation":282.212,"wof":[{"Id":102049853,"Name":"Linz","Placetype":"county","Offset":-1},{"Id":101748071,"Name":"Linz","Placetype":"locality","Offset":-1},{"Id":85681677,"Name":"Oberösterreich","Placetype":"region","Offset":-1},{"Id":85898459,"Name":"Wegscheid","Placetype":"neighbourhood","Offset":-1},{"Id":85632785,"Name":"Austria","Placetype":"country","Offset":-1}]}

# Attribution: City of Linz <http://geo.data.linz.gv.at/katalog/geodata/3d_geo_daten_lod2/>
# Longitude: 14.279042642783834
# Latitude: 48.29903636534086
# Elevation: 282.212

# File produced by Open Asset Import Library (http://www.assimp.sf.net)
# (assimp v3.1.0)


# 16 vertex positions
v  0 5.571 3.41125e-16
v  4.623 5.571 0.333
v  3.738 5.571 -1.846
v  3.743 5.571 0.727
v  5.835 5.571 5.454
v  3.018 5.571 6.74
v  5.844 5.571 5.475
v  5.293 5.571 5.722
v  4.623 -2.03904e-17 0.333
v  3.738 1.13035e-16 -1.846
v  0 0 0
v  3.018 -4.12706e-16 6.74
v  5.844 -3.35247e-16 5.475
v  5.293 -3.50371e-16 5.722
v  3.743 -4.45159e-17 0.727
v  5.835 -3.33961e-16 5.454

# 0 UV coordinates

# 21 vertex normals
vn -0 1 0
vn 0.926499 0 -0.376297
vn -0.442795 0 -0.896623
vn -0.442795 5.49023e-17 -0.896623
vn -0.91268 -2.50241e-17 0.408675
vn -0.91268 0 0.408675
vn 0.408445 -0 0.912783
vn 0.409056 -0.000299695 0.912509
vn 0.408564 0 0.91273
vn -3.28196e-20 1 6.11561e-17
vn 0.408639 -0 0.912696
vn 0.919147 0 -0.393914
vn 0.914449 -4.82548e-05 -0.404702
vn 0.91447 0 -0.404655
vn 7.61992e-20 1 6.12261e-17
vn 1.1505e-23 -1 -6.12323e-17
vn -2.52224e-23 -1 -6.12323e-17
vn 1.46405e-22 -1 -6.12325e-17
vn 0 -1 -6.12323e-17
vn 0 -1 -6.12323e-17
vn 3.38356e-25 -1 -6.12323e-17

# Mesh 'defaultobject' with 28 faces
g defaultobject
usemtl DefaultMaterial
f  1//1 2//1 3//1
f  2//1 1//1 4//1
f  4//1 1//1 5//1
f  5//1 1//1 6//1
f  5//1 6//1 7//1
f  7//1 6//1 8//1
f  9//2 3//2 2//2
f  3//2 9//2 10//2
f  10//3 1//3 3//3
f  1//3 10//3 11//4
f  11//5 6//5 1//5
f  6//5 11//5 12//6
f  12//7 8//7 6//7
f  8//8 12//8 7//8
f  7//9 12//9 13//9
f  13//10 12//10 14//10
f  15//11 2//11 4//11
f  2//11 15//11 9//11
f  13//12 5//12 7//12
f  5//13 13//13 4//13
f  4//14 13//14 15//14
f  15//15 13//10 16//15
f  11//16 14//16 12//16
f  14//16 11//16 13//17
f  13//17 11//16 16//18
f  16//18 11//16 15//19
f  15//19 11//16 9//20
f  9//20 11//16 10//21

