# {"id":"ID_54220","idOriginal":"ID_54220","origin":[14.298006290031537,48.315603856392194],"elevation":254.143}
# Longitude: 14.298006290031537
# Latitude: 48.315603856392194
# Elevation: 254.143

# File produced by Open Asset Import Library (http://www.assimp.sf.net)
# (assimp v3.1.0)

mtllib ID_54220.obj.mtl

# 8 vertex positions
v  4.22 1.762 -0.702
v  0.303 1.762 1.873
v  4.614 1.762 1.24
v  0 1.762 1.07891e-16
v  4.614 -7.59281e-17 1.24
v  4.22 4.29851e-17 -0.702
v  0 0 0
v  0.303 -1.14688e-16 1.873

# 0 UV coordinates

# 9 vertex normals
vn 0 1 -0
vn 0.980033 0 -0.198833
vn -0.164096 0 -0.986444
vn -0.164096 6.04023e-17 -0.986444
vn -0.987166 -9.77858e-18 0.159696
vn -0.987166 0 0.159696
vn 0.145276 -0 0.989391
vn -1.53513e-24 -1 -6.12323e-17
vn -8.15281e-25 -1 -6.12323e-17

# Mesh 'defaultobject' with 12 faces
g defaultobject
usemtl DefaultMaterial
f  1//1 2//1 3//1
f  2//1 1//1 4//1
f  5//2 1//2 3//2
f  1//2 5//2 6//2
f  6//3 4//3 1//3
f  4//3 6//3 7//4
f  7//5 2//5 4//5
f  2//5 7//5 8//6
f  8//7 3//7 2//7
f  3//7 8//7 5//7
f  8//8 6//8 5//8
f  6//8 8//8 7//9

