# {"id":"ID_50237","idOriginal":"ID_50237","origin":[14.341359370004836,48.25592845139729],"elevation":252.565,"wof":[{"Id":102049853,"Name":"Linz","Placetype":"county","Offset":-1},{"Id":85632785,"Name":"Austria","Placetype":"country","Offset":-1},{"Id":101748071,"Name":"Linz","Placetype":"locality","Offset":-1},{"Id":85681677,"Name":"Oberösterreich","Placetype":"region","Offset":-1},{"Id":85898451,"Name":"Ufer","Placetype":"neighbourhood","Offset":-1}]}

# Attribution: City of Linz <http://geo.data.linz.gv.at/katalog/geodata/3d_geo_daten_lod2/>
# Longitude: 14.341359370004836
# Latitude: 48.25592845139729
# Elevation: 252.565

# File produced by Open Asset Import Library (http://www.assimp.sf.net)
# (assimp v3.1.0)


# 11 vertex positions
v  3.052 1.972 -2.073
v  2.504 2.775 0.478
v  4.065 2.775 -0.582
v  0 1.973 1.20811e-16
v  5.078 1.972 0.91
v  2.025 1.972 2.983
v  3.052 1.26935e-16 -2.073
v  4.065 3.56372e-17 -0.582
v  5.078 -5.57214e-17 0.91
v  0 0 0
v  2.025 -1.82656e-16 2.983

# 0 UV coordinates

# 16 vertex normals
vn -0.2286 0.913462 -0.336645
vn -0.228338 0.913539 -0.336613
vn 0.228512 0.913531 0.336516
vn 0.228508 0.913526 0.336534
vn -0.336252 0.913614 0.22857
vn 0.827153 0 -0.561976
vn 0.827289 -0.000157015 -0.561776
vn 0.827153 0.000284989 -0.561976
vn 0.827329 0 -0.561718
vn -0.561873 0 -0.827224
vn -0.82737 -3.43916e-17 0.561657
vn -0.82737 0 0.561657
vn 0.561747 -0 0.827309
vn -1.99006e-24 -1 -6.12323e-17
vn -4.97212e-25 -1 -6.12323e-17
vn 0 -1 -6.12323e-17

# Mesh 'defaultobject' with 18 faces
g defaultobject
usemtl DefaultMaterial
f  1//1 2//1 3//1
f  2//2 1//2 4//2
f  2//3 5//3 3//3
f  5//4 2//4 6//4
f  2//5 4//5 6//5
f  3//6 7//6 1//6
f  7//7 3//7 5//7
f  7//8 5//8 8//8
f  8//9 5//9 9//9
f  1//10 10//10 4//10
f  10//10 1//10 7//10
f  10//11 6//11 4//11
f  6//11 10//11 11//12
f  11//13 5//13 6//13
f  5//13 11//13 9//13
f  8//14 10//14 7//14
f  10//14 8//14 9//15
f  10//14 9//15 11//16

