# {"id":"ID_6203","idOriginal":"ID_6203","origin":[14.308142760155567,48.274754318449084],"elevation":273.427,"wof":[{"Id":102049853,"Name":"Linz","Placetype":"county","Offset":-1},{"Id":85632785,"Name":"Austria","Placetype":"country","Offset":-1},{"Id":101748071,"Name":"Linz","Placetype":"locality","Offset":-1},{"Id":85681677,"Name":"Oberösterreich","Placetype":"region","Offset":-1},{"Id":85898435,"Name":"Oed","Placetype":"neighbourhood","Offset":-1}]}

# Attribution: City of Linz <http://geo.data.linz.gv.at/katalog/geodata/3d_geo_daten_lod2/>
# Longitude: 14.308142760155567
# Latitude: 48.274754318449084
# Elevation: 273.427

# File produced by Open Asset Import Library (http://www.assimp.sf.net)
# (assimp v3.1.0)


# 40 vertex positions
v  10.584 20.803 12.03
v  8.38 20.803 7.272
v  7.267 20.803 8.249
v  18.759 20.803 4.857
v  7.862 20.803 -6.897
v  8.509 20.803 -6.358
v  7.961 20.803 -6.984
v  18.045 20.803 3.902
v  10.681 20.803 -8.263
v  18.829 20.803 4.796
v  16.228 20.803 -13.218
v  10.637 20.803 -8.314
v  19.928 20.803 2.25
v  20.327 20.803 2.705
v  25.567 20.803 -1.892
v  22.661 20.803 -5.885
v  25.945 20.803 -2.222
v  3.329 20.803 3.796
v  0 20.803 1.27382e-15
v  4.46 20.803 2.804
v  25.945 1.36058e-16 -2.222
v  16.228 8.09369e-16 -13.218
v  22.661 3.60352e-16 -5.885
v  8.509 3.89315e-16 -6.358
v  7.961 4.27647e-16 -6.984
v  18.829 -2.9367e-16 4.796
v  18.045 -2.38929e-16 3.902
v  10.637 5.09086e-16 -8.314
v  10.681 5.05963e-16 -8.263
v  0 0 0
v  7.862 4.22319e-16 -6.897
v  8.38 -4.45282e-16 7.272
v  7.267 -5.05106e-16 8.249
v  3.329 -2.32438e-16 3.796
v  4.46 -1.71695e-16 2.804
v  10.584 -7.36625e-16 12.03
v  19.928 -1.37773e-16 2.25
v  20.327 -1.65633e-16 2.705
v  18.759 -2.97405e-16 4.857
v  25.567 1.15852e-16 -1.892

# 0 UV coordinates

# 39 vertex normals
vn 0 1 0
vn 0.744576 0 -0.667537
vn 0.751729 0.00255014 -0.659467
vn 0.749343 0 -0.662183
vn 0 -1 -6.12334e-17
vn 0.752428 0 -0.658674
vn 0.751847 0 -0.659338
vn -0.659408 0 -0.751785
vn -0.659387 0 -0.751804
vn -0.660116 0 -0.751163
vn -0.659465 5.4885e-06 -0.751735
vn -0.659473 4.60301e-17 -0.751728
vn 3.54704e-19 -1 -6.08317e-17
vn -0.659699 0 -0.75153
vn -0.757157 0 0.653233
vn -0.75184 -4.03733e-17 0.659346
vn -0.75184 0 0.659346
vn -0.751701 0 0.659505
vn -0.751726 0 0.659475
vn -0.751859 0 0.659323
vn 0.659398 -0 0.751794
vn 0.659539 -0 0.75167
vn 0.656978 0.00177775 0.753908
vn 0.659517 0 0.751689
vn 2.50532e-20 -1 -6.1204e-17
vn 0.659493 -0 0.75171
vn 0.657658 0 0.753317
vn 0.659479 5.83845e-05 0.751723
vn 0.657657 -0.000811067 0.753317
vn 0.659479 0 0.751723
vn 0 -1 -6.12324e-17
vn 4.83886e-24 -1 -6.12323e-17
vn 7.10371e-24 -1 -6.12323e-17
vn 2.37014e-24 -1 -6.12324e-17
vn -6.96973e-24 -1 -6.12323e-17
vn -4.04951e-24 -1 -6.12323e-17
vn -7.25958e-25 -1 -6.12323e-17
vn -1.41869e-24 -1 -6.12323e-17
vn 2.11372e-22 -1 -6.12319e-17

# Mesh 'defaultobject' with 76 faces
g defaultobject
usemtl DefaultMaterial
f  1//1 2//1 3//1
f  2//1 1//1 4//1
f  2//1 4//1 5//1
f  5//1 4//1 6//1
f  5//1 6//1 7//1
f  6//1 4//1 8//1
f  6//1 8//1 9//1
f  8//1 4//1 10//1
f  9//1 11//1 12//1
f  11//1 9//1 8//1
f  11//1 8//1 13//1
f  11//1 13//1 14//1
f  11//1 14//1 15//1
f  11//1 15//1 16//1
f  16//1 15//1 17//1
f  18//1 5//1 19//1
f  5//1 18//1 20//1
f  5//1 20//1 2//1
f  21//2 16//2 17//2
f  16//3 21//3 11//3
f  11//4 21//4 22//4
f  22//5 21//5 23//5
f  24//6 7//6 6//6
f  7//6 24//6 25//6
f  26//7 8//7 10//7
f  8//7 26//7 27//7
f  22//8 12//8 11//8
f  12//8 22//8 28//8
f  29//9 6//9 9//9
f  6//9 29//9 24//9
f  25//10 5//10 7//10
f  5//11 25//11 19//11
f  19//12 25//12 30//12
f  30//13 25//13 31//13
f  32//14 3//14 2//14
f  3//14 32//14 33//14
f  28//15 9//15 12//15
f  9//15 28//15 29//15
f  30//16 18//16 19//16
f  18//16 30//16 34//17
f  35//18 2//18 20//18
f  2//18 35//18 32//18
f  33//19 1//19 3//19
f  1//19 33//19 36//19
f  37//20 14//20 13//20
f  14//20 37//20 38//20
f  34//21 20//21 18//21
f  20//21 34//21 35//21
f  36//22 4//22 1//22
f  4//23 36//23 10//23
f  10//24 36//24 26//24
f  26//25 36//25 39//25
f  27//26 13//26 8//26
f  13//26 27//26 37//26
f  15//27 21//27 17//27
f  21//28 15//28 14//28
f  21//29 14//29 40//29
f  40//30 14//30 38//30
f  40//31 38//31 37//31
f  33//32 39//25 36//25
f  39//25 33//32 32//33
f  39//25 32//33 35//34
f  30//13 35//34 34//35
f  35//34 30//13 39//25
f  39//25 30//13 26//25
f  26//25 30//13 27//36
f  27//36 30//13 37//31
f  37//31 30//13 24//37
f  24//37 30//13 31//13
f  37//31 24//37 40//31
f  40//31 24//37 21//5
f  24//37 31//13 25//13
f  24//37 23//5 21//5
f  23//5 24//37 29//38
f  23//5 29//38 22//5
f  22//5 29//38 28//39

