# {"id":"ID_10317","idOriginal":"ID_10317","origin":[14.28091170490072,48.3270736670367],"elevation":273.45,"wof":[{"Id":102049853,"Name":"Linz","Placetype":"county","Offset":-1},{"Id":85681677,"Name":"Oberösterreich","Placetype":"region","Offset":-1},{"Id":85898415,"Name":"Bachl","Placetype":"neighbourhood","Offset":-1},{"Id":85632785,"Name":"Austria","Placetype":"country","Offset":-1},{"Id":101748071,"Name":"Linz","Placetype":"locality","Offset":-1}]}

# Attribution: City of Linz <http://geo.data.linz.gv.at/katalog/geodata/3d_geo_daten_lod2/>
# Longitude: 14.28091170490072
# Latitude: 48.3270736670367
# Elevation: 273.45

# File produced by Open Asset Import Library (http://www.assimp.sf.net)
# (assimp v3.1.0)


# 27 vertex positions
v  8.809 7.711 2.336
v  14.237 4.66 -8.24
v  0 4.706 2.88159e-16
v  11.827 7.709 0.583
v  16.27 5.57 -4.778
v  17.081 4.624 -9.886
v  17.092 4.629 -9.867
v  6.501 4.707 11.135
v  20.529 4.739 2.869
v  20.562 4.708 2.927
v  18.152 4.706 -1.341
v  18.236 4.66 -1.391
v  16.27 4.644 -4.778
v  20.962 4.655 -3.009
v  21.04 4.629 -3.055
v  20.562 -1.79227e-16 2.927
v  6.501 -6.81822e-16 11.135
v  18.152 8.21126e-17 -1.341
v  21.04 1.87065e-16 -3.055
v  18.236 8.51742e-17 -1.391
v  20.962 1.84248e-16 -3.009
v  20.529 -1.75676e-16 2.869
v  17.092 6.04179e-16 -9.867
v  17.081 6.05343e-16 -9.886
v  14.237 5.04554e-16 -8.24
v  14.15 5.01493e-16 -8.19
v  0 0 0

# 0 UV coordinates

# 42 vertex normals
vn -0.210817 0.905082 -0.3693
vn -0.214839 0.90348 -0.370903
vn -0.101511 0.97519 -0.196722
vn -0.103041 0.974988 -0.196927
vn -0.365638 0.905965 0.213391
vn 0.212356 0.90691 0.363895
vn 0.213254 0.906087 0.365416
vn 0.212733 0.906292 0.365211
vn 0.365304 0.906108 -0.213356
vn 0.360693 0.90478 -0.226438
vn 0.364471 0.905856 -0.215838
vn 0.368409 0.905132 -0.212159
vn 0.116857 0.974043 0.19387
vn 0.239284 0.961163 -0.137509
vn 0.239739 0.960843 -0.138944
vn -0.862312 0 0.506378
vn -0.864861 0 0.502012
vn 0.504135 0 0.863625
vn 0.504134 0 0.863625
vn 0.511486 -0 0.859292
vn 0.510408 2.63178e-05 0.859933
vn 0.508392 0.00166978 0.861124
vn 0.510374 0 0.859953
vn 3.1151e-20 -1 -6.11806e-17
vn -2.45195e-20 -1 -6.12732e-17
vn 0.870745 0.00702153 -0.491684
vn 0.870768 0 -0.491694
vn 0.870768 0 -0.491694
vn 0 -1 -6.12657e-17
vn 0.865194 0 -0.501437
vn 0.865433 0 -0.501024
vn 0.865433 0 -0.501024
vn -0.500916 0 -0.865496
vn -0.500924 -5.8838e-06 -0.865492
vn -0.500916 2.96023e-05 -0.865496
vn -0.498257 0.0106626 -0.866964
vn -0.50094 5.29955e-17 -0.865482
vn -0.86359 0 0.504194
vn 4.15645e-22 -1 -6.12316e-17
vn -5.31068e-22 -1 -6.12316e-17
vn -3.2808e-24 -1 -6.12323e-17
vn 0 -1 -6.12323e-17

# Mesh 'defaultobject' with 50 faces
g defaultobject
usemtl DefaultMaterial
f  1//1 2//1 3//1
f  2//2 1//2 4//2
f  5//3 6//3 2//3
f  6//4 5//4 7//4
f  1//5 3//5 8//5
f  9//6 8//6 10//6
f  8//7 9//7 4//7
f  8//8 4//8 1//8
f  11//9 4//9 9//9
f  4//10 11//10 12//10
f  4//11 12//11 13//11
f  4//12 13//12 2//12
f  5//13 12//13 14//13
f  15//14 5//14 14//14
f  5//15 15//15 7//15
f  13//16 5//16 2//16
f  5//17 13//17 12//17
f  8//18 16//18 10//18
f  16//18 8//18 17//19
f  18//20 12//20 11//20
f  12//21 18//21 14//21
f  14//22 18//22 15//22
f  15//23 18//23 19//23
f  19//24 18//24 20//24
f  19//24 20//24 21//25
f  10//26 11//26 9//26
f  11//27 10//27 16//27
f  11//27 16//27 18//28
f  18//24 16//29 22//29
f  19//30 7//30 15//30
f  7//30 19//30 23//30
f  7//31 23//31 6//31
f  6//31 23//31 24//32
f  24//33 2//33 6//33
f  2//34 24//34 3//34
f  3//35 24//35 25//35
f  3//36 25//36 26//36
f  3//37 26//37 27//37
f  3//38 17//38 8//38
f  17//38 3//38 27//38
f  23//39 25//39 24//39
f  25//39 23//39 19//24
f  25//39 19//24 26//40
f  26//40 19//24 27//41
f  27//41 19//24 21//25
f  27//41 21//25 20//24
f  27//41 20//24 18//24
f  27//41 18//24 22//29
f  27//41 22//29 17//42
f  17//42 22//29 16//29

