# {"id":"ID_27758","idOriginal":"ID_27758","origin":[14.332973919402493,48.34338297130707],"elevation":327.137,"wof":[{"Id":102049853,"Name":"Linz","Placetype":"county","Offset":-1},{"Id":85632785,"Name":"Austria","Placetype":"country","Offset":-1},{"Id":85681677,"Name":"Oberösterreich","Placetype":"region","Offset":-1},{"Id":85898419,"Name":"Furth","Placetype":"neighbourhood","Offset":-1}]}

# Attribution: City of Linz <http://geo.data.linz.gv.at/katalog/geodata/3d_geo_daten_lod2/>
# Longitude: 14.332973919402493
# Latitude: 48.34338297130707
# Elevation: 327.137

# File produced by Open Asset Import Library (http://www.assimp.sf.net)
# (assimp v3.1.0)


# 16 vertex positions
v  5.515 5.109 -0.28
v  0.333 3.514 7.147
v  5.973 5.109 6.871
v  0 3.55 2.17375e-16
v  11.567 3.533 6.935
v  11.031 3.679 6.623
v  11.055 3.679 6.98
v  11.087 3.533 -0.562
v  0 0 0
v  0.333 -4.37628e-16 7.147
v  11.031 -4.05542e-16 6.623
v  11.055 -4.27402e-16 6.98
v  5.973 -4.20727e-16 6.871
v  11.567 -4.24646e-16 6.935
v  11.087 3.44126e-17 -0.562
v  5.515 1.71451e-17 -0.28

# 0 UV coordinates

# 26 vertex normals
vn -0.2713 0.962338 0.017376
vn -0.27116 0.962375 0.0174817
vn 0.272688 0.961928 -0.0183321
vn 0.272204 0.962082 -0.017428
vn 0.271307 0.962335 -0.0174402
vn 0.271227 0.962359 -0.0173713
vn -0.998916 -2.84991e-18 0.0465425
vn -0.998916 0 0.0465425
vn -0.997748 0 0.067076
vn 0.0488777 -0 0.998805
vn 0.0488777 0 0.998805
vn 0.0489723 0 0.9988
vn 0.0489723 0 0.9988
vn 0.0875532 -0 0.99616
vn 0.0875532 0 0.99616
vn 0.997957 0 -0.0638949
vn -0.0507053 0 -0.998714
vn -0.0507053 0 -0.998714
vn -0.0505455 0 -0.998722
vn -0.0505455 0 -0.998722
vn -1.75719e-23 -1 -6.12323e-17
vn -1.10043e-21 -1 -6.12323e-17
vn 5.82909e-24 -1 -6.12323e-17
vn 6.62166e-25 -1 -6.12323e-17
vn 5.23402e-24 -1 -6.12323e-17
vn -3.34985e-25 -1 -6.12323e-17

# Mesh 'defaultobject' with 28 faces
g defaultobject
usemtl DefaultMaterial
f  1//1 2//1 3//1
f  2//2 1//2 4//2
f  5//3 6//3 7//3
f  6//4 5//4 8//4
f  6//5 8//5 1//5
f  1//6 3//6 6//6
f  9//7 2//7 4//7
f  2//7 9//7 10//8
f  11//9 7//9 6//9
f  7//9 11//9 12//9
f  10//10 3//10 2//10
f  3//10 10//10 13//11
f  3//12 13//12 6//12
f  6//12 13//12 11//13
f  12//14 5//14 7//14
f  5//14 12//14 14//15
f  14//16 8//16 5//16
f  8//16 14//16 15//16
f  1//17 9//17 4//17
f  9//17 1//17 16//18
f  16//19 1//19 8//19
f  16//19 8//19 15//20
f  12//21 15//21 14//21
f  15//21 12//21 11//22
f  15//21 11//22 13//23
f  15//21 13//23 16//24
f  16//24 13//23 10//25
f  16//24 10//25 9//26

