# {"id":"ID_4109","idOriginal":"ID_4109","origin":[14.300770488267467,48.24372141921493],"elevation":259.592,"wof":[{"Id":101748071,"Name":"Linz","Placetype":"locality","Offset":-1},{"Id":85681677,"Name":"Oberösterreich","Placetype":"region","Offset":-1},{"Id":85898447,"Name":"Scharlinz","Placetype":"neighbourhood","Offset":-1},{"Id":102049853,"Name":"Linz","Placetype":"county","Offset":-1},{"Id":85632785,"Name":"Austria","Placetype":"country","Offset":-1}]}

# Attribution: City of Linz <http://geo.data.linz.gv.at/katalog/geodata/3d_geo_daten_lod2/>
# Longitude: 14.300770488267467
# Latitude: 48.24372141921493
# Elevation: 259.592

# File produced by Open Asset Import Library (http://www.assimp.sf.net)
# (assimp v3.1.0)


# 22 vertex positions
v  15.209 4.131 33.669
v  3.726 4.131 9.847
v  13.042 4.131 34.491
v  23.528 4.131 30.515
v  23.379 4.131 30.121
v  11.749 4.131 -0.551
v  0.668 4.131 1.768
v  0 4.131 2.52951e-16
v  1.452 4.131 -0.551
v  10.618 4.131 -3.533
v  10.454 4.131 -3.966
v  10.454 2.42847e-16 -3.966
v  1.452 3.3739e-17 -0.551
v  0 0 0
v  0.668 -1.08259e-16 1.768
v  3.726 -6.02955e-16 9.847
v  13.042 -2.11196e-15 34.491
v  15.209 -2.06163e-15 33.669
v  23.528 -1.8685e-15 30.515
v  23.379 -1.84438e-15 30.121
v  11.749 3.3739e-17 -0.551
v  10.618 2.16334e-16 -3.533

# 0 UV coordinates

# 25 vertex normals
vn 0 1 0
vn -0.354695 0 -0.934982
vn -0.35479 -0 -0.934946
vn -0.35479 5.72489e-17 -0.934946
vn -0.935457 -2.16421e-17 0.353442
vn -0.935457 0 0.353442
vn -0.935245 0 0.354002
vn -0.935396 0 0.353601
vn 0.354668 -0 0.934992
vn 0.354508 9.58403e-05 0.935053
vn 0.354668 -0.000367753 0.934992
vn 0.354508 0 0.935053
vn 0.93535 0 -0.353725
vn 0.93504 -8.91188e-05 -0.354542
vn 0.935327 0.00694478 -0.353717
vn 0.93504 0 -0.354542
vn 0.935008 0 -0.354626
vn 0.935171 0 -0.354198
vn -5.54874e-23 -1 -6.12323e-17
vn -7.22747e-24 -1 -6.12323e-17
vn 5.60511e-22 -1 -6.12329e-17
vn 0 -1 -6.12323e-17
vn -1.09589e-24 -1 -6.12323e-17
vn -0 -1 -6.12323e-17
vn 8.90653e-24 -1 -6.12323e-17

# Mesh 'defaultobject' with 40 faces
g defaultobject
usemtl DefaultMaterial
f  1//1 2//1 3//1
f  2//1 1//1 4//1
f  2//1 4//1 5//1
f  2//1 5//1 6//1
f  2//1 6//1 7//1
f  7//1 6//1 8//1
f  8//1 6//1 9//1
f  9//1 6//1 10//1
f  9//1 10//1 11//1
f  12//2 9//2 11//2
f  9//2 12//2 13//2
f  9//3 13//3 8//3
f  8//3 13//3 14//4
f  14//5 7//5 8//5
f  7//5 14//5 15//6
f  7//7 15//7 2//7
f  2//7 15//7 16//7
f  2//8 16//8 3//8
f  3//8 16//8 17//8
f  17//9 1//9 3//9
f  1//10 17//10 4//10
f  4//11 17//11 18//11
f  4//12 18//12 19//12
f  19//13 5//13 4//13
f  5//14 19//14 6//14
f  6//15 19//15 20//15
f  6//16 20//16 21//16
f  6//17 21//17 10//17
f  10//17 21//17 22//17
f  10//18 22//18 11//18
f  11//18 22//18 12//18
f  16//19 18//19 17//19
f  18//19 16//19 19//20
f  19//20 16//19 20//21
f  20//21 16//19 21//22
f  21//22 16//19 15//23
f  21//22 15//23 14//22
f  21//22 14//22 13//22
f  21//22 13//22 22//24
f  22//24 13//22 12//25

