# {"id":"ID_14368","idOriginal":"ID_14368","origin":[14.301818433829961,48.27136543621205],"elevation":278.767}
# Longitude: 14.301818433829961
# Latitude: 48.27136543621205
# Elevation: 278.767

# File produced by Open Asset Import Library (http://www.assimp.sf.net)
# (assimp v3.1.0)

mtllib ID_14368.obj.mtl

# 21 vertex positions
v  19.473 6.892 10.288
v  11.629 6.941 16.1
v  19.509 6.813 10.338
v  12.687 13.113 9.241
v  0 6.881 4.2134e-16
v  11.607 6.906 16.116
v  3.933 13.113 -2.939
v  14.716 6.891 3.668
v  12.419 6.891 0.472
v  7.859 6.892 -5.872
v  7.608 7.289 -5.685
v  7.859 3.59556e-16 -5.872
v  7.608 3.48106e-16 -5.685
v  0 0 0
v  3.933 1.79962e-16 -2.939
v  11.607 -9.8682e-16 16.116
v  19.509 -6.3302e-16 10.338
v  11.629 -9.85841e-16 16.1
v  19.473 -6.29958e-16 10.288
v  14.716 -2.246e-16 3.668
v  12.419 -2.89017e-17 0.472

# 0 UV coordinates

# 37 vertex normals
vn 0.471948 0.614927 0.631767
vn 0.470165 0.618782 0.629328
vn -0.641156 0.613648 0.460819
vn -0.637888 0.618815 0.458439
vn -0.637895 0.618787 0.458468
vn 0.637941 0.618712 -0.458505
vn 0.637944 0.618711 -0.458502
vn 0.637943 0.618716 -0.458496
vn 0.637947 0.618746 -0.458452
vn 0.294052 0.553172 -0.779445
vn -0.598584 -1.41422e-05 -0.80106
vn -0.598546 -0.00108916 -0.801088
vn -0.598547 0 -0.801087
vn -0.597439 0.00197131 -0.801912
vn -0.598584 4.90508e-17 -0.80106
vn -1.31232e-19 1 6.11541e-17
vn -0.811451 0 0.58442
vn 0.590231 -0.0019975 0.807232
vn 0.590247 0 0.807223
vn 0.590247 0 0.807223
vn -6.13383e-19 1 6.04182e-17
vn 0.812081 0.000740706 -0.583545
vn 0.812077 0 -0.583551
vn 0.811529 -0.00112311 -0.584311
vn 0.812081 0 -0.583545
vn 0.81203 0 -0.583615
vn 0.812 -2.95664e-05 -0.583657
vn 0.81203 5.8643e-05 -0.583615
vn 0.812 0 -0.583657
vn 3.13578e-21 -1 -6.1234e-17
vn 2.18449e-24 -1 -6.12323e-17
vn -4.77162e-22 -1 -6.12314e-17
vn 5.29586e-24 -1 -6.12323e-17
vn -1.37124e-24 -1 -6.12323e-17
vn 1.72703e-25 -1 -6.12323e-17
vn 3.49566e-20 -1 -6.11741e-17
vn -9.81427e-21 -1 -6.12476e-17

# Mesh 'defaultobject' with 38 faces
g defaultobject
usemtl DefaultMaterial
f  1//1 2//1 3//1
f  2//2 1//2 4//2
f  2//3 5//3 6//3
f  5//4 2//4 4//4
f  5//5 4//5 7//5
f  8//6 4//6 1//6
f  4//6 8//6 7//7
f  7//7 8//6 9//8
f  7//9 9//9 10//9
f  7//10 10//10 11//10
f  11//11 5//11 7//11
f  5//12 11//12 10//12
f  5//13 10//13 12//13
f  5//14 12//14 13//14
f  5//15 13//15 14//15
f  14//16 13//16 15//16
f  5//17 16//17 6//17
f  16//17 5//17 14//17
f  6//18 3//18 2//18
f  3//19 6//19 16//19
f  3//19 16//19 17//20
f  17//21 16//21 18//21
f  3//22 8//22 1//22
f  8//23 3//23 17//23
f  8//24 17//24 19//24
f  8//23 19//25 20//25
f  8//26 20//26 9//26
f  9//27 20//27 10//27
f  10//28 20//28 21//28
f  10//29 21//29 12//29
f  14//30 18//30 16//30
f  18//30 14//30 17//31
f  17//31 14//30 19//32
f  19//32 14//30 20//33
f  20//33 14//30 21//34
f  21//34 14//30 12//35
f  12//35 14//30 15//36
f  12//35 15//36 13//37

