# {"id":"_27567","idOriginal":"_27567","origin":[14.292760007830426,48.308391420095724],"elevation":254.303}
# Longitude: 14.292760007830426
# Latitude: 48.308391420095724
# Elevation: 254.303

# File produced by Open Asset Import Library (http://www.assimp.sf.net)
# (assimp v3.1.0)

mtllib _27567.obj.mtl

# 18 vertex positions
v  6.398 8.713 -1.824
v  7.897 8.713 2.261
v  6.554 8.661 -1.868
v  0 10.861 6.65044e-16
v  4.084 10.861 11.13
v  9.472 8.775 7.106
v  10.205 8.827 9.574
v  4.627 10.786 11.937
v  4.407 10.861 12.011
v  0 0 0
v  6.554 1.14382e-16 -1.868
v  6.398 1.11688e-16 -1.824
v  4.084 -6.81516e-16 11.13
v  4.407 -7.35462e-16 12.011
v  4.627 -7.3093e-16 11.937
v  10.205 -5.86238e-16 9.574
v  9.472 -4.35117e-16 7.106
v  7.897 -1.38446e-16 2.261

# 0 UV coordinates

# 29 vertex normals
vn 0.28755 0.951935 -0.105517
vn 0.289158 0.951383 -0.106107
vn 0.289156 0.951384 -0.106102
vn 0.289069 0.951405 -0.106145
vn 0.289213 0.951384 -0.105942
vn 0.289159 0.951378 -0.106146
vn 0.288772 0.951526 -0.105872
vn -0.274165 0 -0.961683
vn -0.271992 -0.00172432 -0.962298
vn -0.274101 0 -0.961701
vn 8.73091e-21 1 6.12736e-17
vn -0.938794 -2.10932e-17 0.344478
vn -0.938794 0 0.344478
vn -0.938888 0 0.344223
vn 0.31881 -0 0.947819
vn 0.318809 0 0.947819
vn 0.390071 -0 0.920785
vn 0.390071 0 0.920785
vn 0.958614 0 -0.28471
vn 0.951012 0 -0.309153
vn 0.950962 -9.60531e-05 -0.309309
vn 0.950989 0 -0.309225
vn 0 1 6.12257e-17
vn 1.82364e-22 -1 -6.12324e-17
vn 9.15188e-24 -1 -6.12323e-17
vn -1.42155e-24 -1 -6.12323e-17
vn -5.82772e-24 -1 -6.12323e-17
vn 0 -1 -6.12323e-17
vn -6.95663e-21 -1 -6.12565e-17

# Mesh 'defaultobject' with 32 faces
g defaultobject
usemtl DefaultMaterial
f  1//1 2//1 3//1
f  2//2 1//2 4//2
f  2//2 4//2 5//3
f  2//4 5//4 6//4
f  6//5 5//5 7//5
f  7//6 5//6 8//6
f  8//7 5//7 9//7
f  1//8 10//8 4//8
f  10//9 1//9 3//9
f  10//10 3//10 11//10
f  10//11 11//11 12//11
f  10//12 5//12 4//12
f  5//12 10//12 13//13
f  5//14 13//14 9//14
f  9//14 13//14 14//14
f  14//15 8//15 9//15
f  8//15 14//15 15//16
f  15//17 7//17 8//17
f  7//17 15//17 16//18
f  16//19 6//19 7//19
f  6//19 16//19 17//19
f  17//20 2//20 6//20
f  2//21 17//21 3//21
f  3//22 17//22 11//22
f  11//11 17//23 18//23
f  13//24 15//24 14//24
f  15//24 13//24 16//25
f  16//25 13//24 10//26
f  16//25 10//26 17//27
f  17//27 10//26 18//28
f  18//28 10//26 11//28
f  11//28 10//26 12//29

