# {"id":"ID_13262","idOriginal":"ID_13262","origin":[14.286592731335652,48.29286082222338],"elevation":262.695,"wof":[{"Id":85681677,"Name":"Oberösterreich","Placetype":"region","Offset":-1},{"Id":102049853,"Name":"Linz","Placetype":"county","Offset":-1},{"Id":101748071,"Name":"Linz","Placetype":"locality","Offset":-1},{"Id":85898459,"Name":"Wegscheid","Placetype":"neighbourhood","Offset":-1},{"Id":85632785,"Name":"Austria","Placetype":"country","Offset":-1}]}

# Attribution: City of Linz <http://geo.data.linz.gv.at/katalog/geodata/3d_geo_daten_lod2/>
# Longitude: 14.286592731335652
# Latitude: 48.29286082222338
# Elevation: 262.695

# File produced by Open Asset Import Library (http://www.assimp.sf.net)
# (assimp v3.1.0)


# 26 vertex positions
v  6.44 20.721 -11.241
v  19.486 20.955 -3.474
v  19.667 20.721 -3.788
v  16.137 25.3 2.348
v  6.226 21 -10.867
v  2.921 25.3 -5.099
v  3.075 21.488 1.751
v  0 21.499 1.31643e-15
v  3.859 20.71 3.574
v  8.762 20.732 6.298
v  10.75 21.463 6.12
v  13.234 21.534 7.395
v  13.322 21.647 7.243
v  13.234 -4.52813e-16 7.395
v  10.75 -3.74742e-16 6.12
v  0 0 0
v  3.075 -1.07218e-16 1.751
v  3.859 -2.18844e-16 3.574
v  8.762 -3.85641e-16 6.298
v  13.322 -4.43506e-16 7.243
v  19.667 2.31948e-16 -3.788
v  16.137 -1.43774e-16 2.348
v  19.486 2.12721e-16 -3.474
v  6.44 6.88313e-16 -11.241
v  2.921 3.12224e-16 -5.099
v  6.226 6.65412e-16 -10.867

# 0 UV coordinates

# 40 vertex normals
vn 0.266278 0.840103 -0.47257
vn 0.266671 0.839616 -0.473214
vn 0.267024 0.839402 -0.473394
vn 0.266628 0.83965 -0.473178
vn -0.266482 0.839653 0.473255
vn -0.26666 0.839608 0.473234
vn -0.26668 0.839706 0.47305
vn -0.266648 0.839651 0.473165
vn -0.266272 0.839484 0.473673
vn -0.266818 0.839653 0.473066
vn 0.43246 0.585412 0.685763
vn -0.456644 0 0.88965
vn -0.456644 0 0.88965
vn -0.49483 -5.32103e-17 0.86899
vn -0.49483 0 0.86899
vn -0.918649 0 0.395074
vn -0.918649 0 0.395074
vn -0.485658 0 0.874149
vn 0.866849 9.03332e-05 0.498572
vn 0.866726 -0.00405941 0.498769
vn 0.866826 0 0.49861
vn 0.866497 0.00039486 0.499182
vn 0.865428 0.00172531 0.50103
vn 0.866832 0 0.4986
vn 0 -1 -6.12638e-17
vn -6.03284e-21 -1 -6.12363e-17
vn 0.490902 0 -0.871215
vn -0.867684 -7.65405e-05 -0.497116
vn -0.867664 0.000912023 -0.49715
vn -0.867692 0 -0.497103
vn -0.867678 1.70702e-05 -0.497127
vn -0.867709 3.0437e-17 -0.497073
vn 2.46442e-19 -1 -6.10561e-17
vn 0.0891805 0 0.996015
vn 0.0891805 0 0.996015
vn 0 -1 -6.12323e-17
vn -1.35423e-23 -1 -6.12323e-17
vn 2.74114e-24 -1 -6.12323e-17
vn 1.49816e-23 -1 -6.12323e-17
vn -6.52042e-24 -1 -6.12323e-17

# Mesh 'defaultobject' with 48 faces
g defaultobject
usemtl DefaultMaterial
f  1//1 2//1 3//1
f  2//2 1//2 4//2
f  4//3 1//3 5//3
f  4//4 5//4 6//4
f  7//5 6//5 8//5
f  6//6 7//6 4//6
f  4//7 7//7 9//7
f  4//8 9//8 10//8
f  4//9 10//9 11//9
f  4//10 11//10 12//10
f  4//11 12//11 13//11
f  11//12 14//12 12//12
f  14//12 11//12 15//13
f  16//14 7//14 8//14
f  7//14 16//14 17//15
f  17//16 9//16 7//16
f  9//16 17//16 18//17
f  9//18 19//18 10//18
f  19//18 9//18 18//18
f  13//19 2//19 4//19
f  2//20 13//20 12//20
f  2//21 12//21 14//21
f  2//22 14//22 3//22
f  3//23 14//23 20//23
f  3//24 20//24 21//24
f  21//25 20//25 22//25
f  21//25 22//25 23//26
f  21//27 1//27 3//27
f  1//27 21//27 24//27
f  5//28 8//28 6//28
f  8//29 5//29 1//29
f  8//30 1//30 24//30
f  8//31 24//31 25//31
f  8//32 25//32 16//32
f  25//33 24//33 26//33
f  10//34 15//34 11//34
f  15//34 10//34 19//35
f  25//33 17//36 16//36
f  17//36 25//33 26//33
f  17//36 26//33 18//37
f  18//37 26//33 19//38
f  19//38 26//33 24//33
f  19//38 24//33 21//25
f  19//38 21//25 15//39
f  15//39 21//25 23//26
f  15//39 23//26 22//25
f  15//39 22//25 14//40
f  14//40 22//25 20//25

