# {"id":"ID_55849","idOriginal":"ID_55849","origin":[14.344886726302812,48.255296959362184],"elevation":252.902,"wof":[{"Id":102049853,"Name":"Linz","Placetype":"county","Offset":-1},{"Id":101748071,"Name":"Linz","Placetype":"locality","Offset":-1},{"Id":85632785,"Name":"Austria","Placetype":"country","Offset":-1},{"Id":85681677,"Name":"Oberösterreich","Placetype":"region","Offset":-1},{"Id":85898451,"Name":"Ufer","Placetype":"neighbourhood","Offset":-1}]}

# Attribution: City of Linz <http://geo.data.linz.gv.at/katalog/geodata/3d_geo_daten_lod2/>
# Longitude: 14.344886726302812
# Latitude: 48.255296959362184
# Elevation: 252.902

# File produced by Open Asset Import Library (http://www.assimp.sf.net)
# (assimp v3.1.0)


# 24 vertex positions
v  0.275 5.607 0.757
v  4.545 5.607 -0.804
v  0.067 5.607 0.188
v  0 5.607 3.4333e-16
v  4.61 5.607 -1.714
v  5.33 5.607 0.156
v  9.989 5.607 -1.271
v  5.036 5.607 0.54
v  9.57 5.607 -1.464
v  8.87 5.607 -3.294
v  9.201 5.607 -3.417
v  9.234 5.607 -3.336
v  9.201 2.09231e-16 -3.417
v  8.87 2.01699e-16 -3.294
v  9.57 8.96441e-17 -1.464
v  5.33 -9.55225e-18 0.156
v  4.61 1.04952e-16 -1.714
v  0 0 0
v  0.275 -4.63529e-17 0.757
v  0.067 -1.15117e-17 0.188
v  4.545 4.92308e-17 -0.804
v  5.036 -3.30655e-17 0.54
v  9.234 2.04271e-16 -3.336
v  9.989 7.78263e-17 -1.271

# 0 UV coordinates

# 25 vertex normals
vn 0 1 0
vn -0.348329 0 -0.937372
vn -0.356911 0 -0.934138
vn -0.348493 0 -0.937311
vn -0.348493 5.73938e-17 -0.937311
vn -0.934002 0 0.357268
vn -0.941968 -2.05558e-17 0.335702
vn -0.939214 -0.000288795 0.343333
vn -0.939902 0 0.341444
vn 1.6864e-21 1 6.12323e-17
vn -0.939282 0 0.343145
vn 0.933217 0 -0.359313
vn 0.926093 0 -0.377296
vn 0.939194 0 -0.343386
vn 0.34335 -0 0.939208
vn 0.343402 -0 0.939188
vn 0 -1 -6.12323e-17
vn 8.5194e-24 -1 -6.12323e-17
vn -1.20129e-24 -1 -6.12323e-17
vn -9.10663e-25 -1 -6.12323e-17
vn -2.41598e-24 -1 -6.12323e-17
vn 2.21009e-24 -1 -6.12323e-17
vn 0 -1 -6.12323e-17
vn -2.69261e-23 -1 -6.12323e-17
vn -3.18197e-23 -1 -6.12324e-17

# Mesh 'defaultobject' with 44 faces
g defaultobject
usemtl DefaultMaterial
f  1//1 2//1 3//1
f  4//1 3//1 2//1
f  5//1 4//1 2//1
f  6//1 5//1 2//1
f  7//1 6//1 8//1
f  2//1 8//1 6//1
f  9//1 6//1 7//1
f  10//1 9//1 7//1
f  11//1 10//1 7//1
f  12//1 11//1 7//1
f  13//2 10//2 11//2
f  10//2 13//2 14//2
f  15//3 6//3 9//3
f  6//3 15//3 16//3
f  17//4 4//4 5//4
f  4//4 17//4 18//5
f  14//6 9//6 10//6
f  9//6 14//6 15//6
f  18//7 3//7 4//7
f  3//8 18//8 1//8
f  1//9 18//9 19//9
f  19//10 18//10 20//10
f  21//11 8//11 2//11
f  8//11 21//11 22//11
f  16//12 5//12 6//12
f  5//12 16//12 17//12
f  23//13 11//13 12//13
f  11//13 23//13 13//13
f  24//14 12//14 7//14
f  12//14 24//14 23//14
f  19//15 2//15 1//15
f  2//15 19//15 21//15
f  22//16 7//16 8//16
f  7//16 22//16 24//16
f  22//17 21//17 16//17
f  17//18 16//17 21//17
f  19//19 20//19 21//17
f  18//20 21//17 20//19
f  17//18 21//17 18//20
f  22//17 16//17 24//21
f  15//22 24//21 16//17
f  14//23 24//21 15//22
f  23//24 24//21 14//23
f  13//25 23//24 14//23

