# {"id":"ID_33308","idOriginal":"ID_33308","origin":[14.295767800927848,48.25672485151451],"elevation":264.081}
# Longitude: 14.295767800927848
# Latitude: 48.25672485151451
# Elevation: 264.081

# File produced by Open Asset Import Library (http://www.assimp.sf.net)
# (assimp v3.1.0)

mtllib ID_33308.obj.mtl

# 12 vertex positions
v  0 3.296 2.01822e-16
v  4.208 3.296 -7.202
v  4.199 3.296 -7.207
v  9.478 3.296 -4.407
v  1.23 3.296 0.652
v  5.549 3.296 2.957
v  5.549 -1.81064e-16 2.957
v  9.478 2.69851e-16 -4.407
v  4.208 4.40995e-16 -7.202
v  4.199 4.41301e-16 -7.207
v  0 0 0
v  1.23 -3.99235e-17 0.652

# 0 UV coordinates

# 13 vertex normals
vn 0 1 0
vn 0.882277 -0 0.470731
vn 0.468542 0 -0.883441
vn -0.864044 0 -0.503416
vn -0.864044 3.08254e-17 -0.503416
vn -0.470832 0 0.882223
vn -0.468346 0.00417636 0.883536
vn -0.470832 -0.00118761 0.882222
vn -0.46835 0 0.883543
vn -3.05645e-21 -1 -6.12341e-17
vn 0 -1 -6.12323e-17
vn 1.14091e-24 -1 -6.12323e-17
vn 0 -1 -6.12323e-17

# Mesh 'defaultobject' with 18 faces
g defaultobject
usemtl DefaultMaterial
f  1//1 2//1 3//1
f  2//1 1//1 4//1
f  4//1 1//1 5//1
f  4//1 5//1 6//1
f  7//2 4//2 6//2
f  4//2 7//2 8//2
f  8//3 2//3 4//3
f  2//3 8//3 9//3
f  10//4 1//4 3//4
f  1//4 10//4 11//5
f  5//6 7//6 6//6
f  7//7 5//7 1//7
f  7//8 1//8 12//8
f  12//9 1//9 11//9
f  9//10 11//10 10//10
f  11//10 9//10 8//11
f  11//10 8//11 12//12
f  12//12 8//11 7//13

