# {"id":"ID_60629","idOriginal":"ID_60629","origin":[14.285786205925943,48.31071864173148],"elevation":255.782,"wof":[{"Id":102049853,"Name":"Linz","Placetype":"county","Offset":-1},{"Id":85632785,"Name":"Austria","Placetype":"country","Offset":-1},{"Id":101748071,"Name":"Linz","Placetype":"locality","Offset":-1},{"Id":85681677,"Name":"Oberösterreich","Placetype":"region","Offset":-1},{"Id":85898449,"Name":"Steeg","Placetype":"neighbourhood","Offset":-1}]}

# Attribution: City of Linz <http://geo.data.linz.gv.at/katalog/geodata/3d_geo_daten_lod2/>
# Longitude: 14.285786205925943
# Latitude: 48.31071864173148
# Elevation: 255.782

# File produced by Open Asset Import Library (http://www.assimp.sf.net)
# (assimp v3.1.0)


# 8 vertex positions
v  0.518 10.853 0.375
v  0.866 10.853 -1.194
v  0 10.853 6.64555e-16
v  1.384 10.853 -0.819
v  0.866 7.31114e-17 -1.194
v  0 0 0
v  0.518 -2.29621e-17 0.375
v  1.384 5.01493e-17 -0.819

# 0 UV coordinates

# 9 vertex normals
vn 0 1 0
vn -0.809498 0 -0.587123
vn -0.809498 3.59509e-17 -0.587123
vn -0.586404 -4.95994e-17 0.810019
vn -0.586404 0 0.810019
vn 0.809498 -0 0.587123
vn 0.586404 0 -0.810019
vn 0 -1 -6.12323e-17
vn -1.40313e-23 -1 -6.12323e-17

# Mesh 'defaultobject' with 12 faces
g defaultobject
usemtl DefaultMaterial
f  1//1 2//1 3//1
f  2//1 1//1 4//1
f  5//2 3//2 2//2
f  3//2 5//2 6//3
f  6//4 1//4 3//4
f  1//4 6//4 7//5
f  7//6 4//6 1//6
f  4//6 7//6 8//6
f  8//7 2//7 4//7
f  2//7 8//7 5//7
f  5//8 7//8 6//8
f  7//8 5//8 8//9

