# {"id":"_36062","idOriginal":"_36062","origin":[14.262942188207388,48.30046343921173],"elevation":341.917}
# Longitude: 14.262942188207388
# Latitude: 48.30046343921173
# Elevation: 341.917

# File produced by Open Asset Import Library (http://www.assimp.sf.net)
# (assimp v3.1.0)

mtllib _36062.obj.mtl

# 16 vertex positions
v  0.812 3.697 0.052
v  0.004 3.697 -0.029
v  0 3.697 2.26376e-16
v  0.065 3.697 -0.48
v  0.634 3.697 -6.139
v  7.159 3.697 -5.484
v  5.983 3.697 0.384
v  6.678 3.697 0.501
v  0 0 0
v  0.004 1.77574e-18 -0.029
v  0.065 2.93915e-17 -0.48
v  0.634 3.75905e-16 -6.139
v  5.983 -2.35132e-17 0.384
v  0.812 -3.18408e-18 0.052
v  6.678 -3.06774e-17 0.501
v  7.159 3.35798e-16 -5.484

# 0 UV coordinates

# 15 vertex normals
vn 0 1 0
vn -0.990621 0 -0.136637
vn -0.990977 2.08021e-05 -0.134035
vn -0.990621 -0.000323393 -0.136637
vn -0.990977 0 -0.134035
vn -0.994983 0 -0.100043
vn -0.0639085 -6.11072e-17 0.997956
vn -0.0640723 3.61224e-05 0.997945
vn -0.0640501 0 0.997947
vn -1.19533e-21 -1 -6.12392e-17
vn -0.166009 0 0.986124
vn 0.996786 -0 0.0801093
vn 0.0998811 0 -0.994999
vn -5.37906e-24 -1 -6.12323e-17
vn 0 -1 -6.12323e-17

# Mesh 'defaultobject' with 28 faces
g defaultobject
usemtl DefaultMaterial
f  1//1 2//1 3//1
f  2//1 1//1 4//1
f  4//1 1//1 5//1
f  5//1 1//1 6//1
f  6//1 1//1 7//1
f  6//1 7//1 8//1
f  2//2 9//2 3//2
f  9//3 2//3 4//3
f  9//4 4//4 10//4
f  10//5 4//5 11//5
f  12//6 4//6 5//6
f  4//6 12//6 11//6
f  9//7 1//7 3//7
f  1//8 9//8 7//8
f  7//9 9//9 13//9
f  13//10 9//10 14//10
f  13//11 8//11 7//11
f  8//11 13//11 15//11
f  15//12 6//12 8//12
f  6//12 15//12 16//12
f  16//13 5//13 6//13
f  5//13 16//13 12//13
f  15//14 12//14 16//14
f  12//14 15//14 13//10
f  12//14 13//10 14//10
f  12//14 14//10 11//15
f  11//15 14//10 10//15
f  10//15 14//10 9//10

