# {"id":"ID_15806","idOriginal":"ID_15806","origin":[14.307747709843012,48.312164352431076],"elevation":256.266,"wof":[{"Id":102049853,"Name":"Linz","Placetype":"county","Offset":-1},{"Id":101748071,"Name":"Linz","Placetype":"locality","Offset":-1},{"Id":85681677,"Name":"Oberösterreich","Placetype":"region","Offset":-1},{"Id":85898449,"Name":"Steeg","Placetype":"neighbourhood","Offset":-1},{"Id":85632785,"Name":"Austria","Placetype":"country","Offset":-1}]}

# Attribution: City of Linz <http://geo.data.linz.gv.at/katalog/geodata/3d_geo_daten_lod2/>
# Longitude: 14.307747709843012
# Latitude: 48.312164352431076
# Elevation: 256.266

# File produced by Open Asset Import Library (http://www.assimp.sf.net)
# (assimp v3.1.0)


# 8 vertex positions
v  0 4.356 2.66728e-16
v  26.75 5.389 -11.45
v  23.04 4.356 -16.6
v  3.71 5.389 5.15
v  23.04 1.01646e-15 -16.6
v  0 0 0
v  3.71 -3.15347e-16 5.15
v  26.75 7.0111e-16 -11.45

# 0 UV coordinates

# 8 vertex normals
vn -0.0939022 0.987014 -0.130332
vn -0.584564 0 -0.811347
vn -0.584564 4.96807e-17 -0.811347
vn -0.811385 0 0.584512
vn 0.584564 -0 0.811347
vn 0.811385 0 -0.584512
vn 7.04913e-24 -1 -6.12323e-17
vn 0 -1 -6.12323e-17

# Mesh 'defaultobject' with 12 faces
g defaultobject
usemtl DefaultMaterial
f  1//1 2//1 3//1
f  2//1 1//1 4//1
f  5//2 1//2 3//2
f  1//2 5//2 6//3
f  1//4 7//4 4//4
f  7//4 1//4 6//4
f  7//5 2//5 4//5
f  2//5 7//5 8//5
f  8//6 3//6 2//6
f  3//6 8//6 5//6
f  8//7 6//7 5//7
f  6//7 8//7 7//8

