# {"id":"ID_32508","idOriginal":"ID_32508","origin":[14.28091457458183,48.25149264885938],"elevation":266.486,"wof":[{"Id":85681677,"Name":"Oberösterreich","Placetype":"region","Offset":-1},{"Id":85898447,"Name":"Scharlinz","Placetype":"neighbourhood","Offset":-1},{"Id":102049853,"Name":"Linz","Placetype":"county","Offset":-1},{"Id":101748071,"Name":"Linz","Placetype":"locality","Offset":-1},{"Id":85632785,"Name":"Austria","Placetype":"country","Offset":-1}]}

# Attribution: City of Linz <http://geo.data.linz.gv.at/katalog/geodata/3d_geo_daten_lod2/>
# Longitude: 14.28091457458183
# Latitude: 48.25149264885938
# Elevation: 266.486

# File produced by Open Asset Import Library (http://www.assimp.sf.net)
# (assimp v3.1.0)


# 8 vertex positions
v  9.43 3.006 -4.636
v  2.252 3.527 4.688
v  11.787 3.527 0.017
v  0 3.008 1.84187e-16
v  0 0 0
v  9.43 2.83873e-16 -4.636
v  2.252 -2.87057e-16 4.688
v  11.787 -1.04095e-18 0.017

# 0 UV coordinates

# 9 vertex normals
vn -0.0437291 0.995047 -0.089265
vn -0.0436404 0.995057 -0.0891973
vn -0.441189 0 -0.897414
vn -0.901391 0 0.433006
vn 0.439928 -0 0.898033
vn 0.892076 0 -0.451885
vn 0.892076 0 -0.451885
vn 0 -1 -6.12323e-17
vn -3.82401e-24 -1 -6.12323e-17

# Mesh 'defaultobject' with 12 faces
g defaultobject
usemtl DefaultMaterial
f  1//1 2//1 3//1
f  2//2 1//2 4//2
f  1//3 5//3 4//3
f  5//3 1//3 6//3
f  4//4 7//4 2//4
f  7//4 4//4 5//4
f  7//5 3//5 2//5
f  3//5 7//5 8//5
f  8//6 1//6 3//6
f  1//6 8//6 6//7
f  6//8 7//8 5//8
f  7//8 6//8 8//9

