# File produced by Open Asset Import Library (http://www.assimp.sf.net)
# (assimp v3.1.0)

mtllib ID_48557.obj.mtl

# 13 vertex positions
v  3.174 3.439 -0.162
v  0 2.66 1.62878e-16
v  3.846 2.66 2.252
v  0.833 3.439 -1.532
v  5.511 2.66 -0.813
v  1.664 2.663 -3.059
v  5.519 2.653 -0.827
v  1.664 1.8731e-16 -3.059
v  0 0 0
v  0.833 9.38079e-17 -1.532
v  3.846 -1.37895e-16 2.252
v  5.511 4.97819e-17 -0.813
v  5.519 5.06391e-17 -0.827

# 0 UV coordinates

# 19 vertex normals
vn -0.206117 0.913019 0.35201
vn -0.206096 0.912964 0.352168
vn 0.358578 0.91295 0.19479
vn 0.201326 0.917279 -0.34361
vn 0.206254 0.912971 -0.352057
vn 0.205958 0.913085 -0.351933
vn -0.878357 0 -0.478006
vn -0.878498 -0.000149789 -0.477745
vn -0.878444 2.92596e-17 -0.477846
vn 0 1 6.12197e-17
vn -0.505293 -5.28403e-17 0.862948
vn -0.505293 0 0.862948
vn 0.878716 -0 0.477345
vn 0.501063 0 -0.865411
vn 0.501063 0 -0.865411
vn 0 -1 -6.12323e-17
vn 1.367e-23 -1 -6.12323e-17
vn -6.81743e-24 -1 -6.12323e-17
vn -7.48572e-23 -1 -6.12322e-17

# Mesh 'defaultobject' with 20 faces
g defaultobject
usemtl DefaultMaterial
f  1//1 2//1 3//1
f  2//2 1//2 4//2
f  1//3 3//3 5//3
f  6//4 5//4 7//4
f  5//5 6//5 1//5
f  1//6 6//6 4//6
f  8//7 4//7 6//7
f  4//8 8//8 2//8
f  2//9 8//9 9//9
f  9//10 8//10 10//10
f  9//11 3//11 2//11
f  3//11 9//11 11//12
f  11//13 5//13 3//13
f  5//13 11//13 12//13
f  7//14 8//14 6//14
f  8//14 7//14 13//15
f  10//16 11//16 9//16
f  11//16 10//16 8//17
f  11//16 8//17 12//18
f  12//18 8//17 13//19

