# {"id":"_38371","idOriginal":"_38371","origin":[14.267704711282736,48.30125817912584],"elevation":360.26}
# Longitude: 14.267704711282736
# Latitude: 48.30125817912584
# Elevation: 360.26

# File produced by Open Asset Import Library (http://www.assimp.sf.net)
# (assimp v3.1.0)

mtllib _38371.obj.mtl

# 22 vertex positions
v  7.887 3.204 -6.399
v  4.263 2.796 -4.429
v  7.482 2.797 -3.94
v  4.666 3.204 -6.896
v  4.176 2.796 -4.442
v  0.795 2.78 -4.862
v  4.159 2.779 -4.343
v  1.214 3.204 -7.429
v  3.302 3.212 0.525
v  0 3.211 1.96617e-16
v  3.318 3.204 0.437
v  3.302 -3.2147e-17 0.525
v  3.318 -2.67585e-17 0.437
v  4.159 2.65932e-16 -4.343
v  4.176 2.71994e-16 -4.442
v  7.887 3.91826e-16 -6.399
v  7.482 2.41255e-16 -3.94
v  4.263 2.71198e-16 -4.429
v  0 0 0
v  4.666 4.22258e-16 -6.896
v  1.214 4.54895e-16 -7.429
v  0.795 2.97712e-16 -4.862

# 0 UV coordinates

# 33 vertex normals
vn -0.024508 0.986924 0.159314
vn -0.0245661 0.986939 0.15921
vn -0.0238085 0.986938 0.159333
vn -0.0251613 0.985975 0.164988
vn -0.0244478 0.986942 0.159207
vn -0.0245522 0.986971 0.159014
vn 0.0133909 0.996195 -0.0861197
vn 0.0135974 0.996184 -0.086215
vn 0.321361 0.946554 -0.0276056
vn 0.98387 -0 0.178886
vn 0.98487 -0.000158592 0.173294
vn 0.983821 0.00994441 0.178877
vn 0.984873 0 0.17328
vn 0.985574 0 0.169242
vn 0.985574 0 0.169242
vn 0.986707 0 0.162512
vn -0.147785 0 0.98902
vn -0.150187 7.64431e-05 0.988658
vn -0.150124 0 0.988667
vn -2.37715e-21 -1 -6.12068e-17
vn -0.157022 0 0.987595
vn 0.152495 0 -0.988304
vn 0.152595 0 -0.988289
vn -0.986939 0 -0.161094
vn -0.98689 0.000285272 -0.161395
vn -0.986939 -0.000429522 -0.161094
vn -0.986894 9.88106e-18 -0.16137
vn -1.1407e-23 -1 -6.12323e-17
vn 0 -1 -6.12323e-17
vn 7.47311e-25 -1 -6.12323e-17
vn 3.02457e-24 -1 -6.12324e-17
vn 0 -1 -6.12323e-17
vn 4.15007e-24 -1 -6.12324e-17

# Mesh 'defaultobject' with 40 faces
g defaultobject
usemtl DefaultMaterial
f  1//1 2//1 3//1
f  2//2 1//2 4//2
f  2//3 4//3 5//3
f  5//4 6//4 7//4
f  6//5 5//5 4//5
f  6//6 4//6 8//6
f  9//7 6//7 10//7
f  6//8 9//8 7//8
f  7//9 9//9 11//9
f  12//10 11//10 9//10
f  11//11 12//11 7//11
f  7//12 12//12 13//12
f  7//13 13//13 14//13
f  7//14 14//14 5//14
f  5//14 14//14 15//15
f  3//16 16//16 1//16
f  16//16 3//16 17//16
f  15//17 2//17 5//17
f  2//18 15//18 3//18
f  3//19 15//19 17//19
f  17//20 15//20 18//20
f  10//21 12//21 9//21
f  12//21 10//21 19//21
f  16//22 4//22 1//22
f  4//22 16//22 20//22
f  4//23 20//23 8//23
f  8//23 20//23 21//23
f  21//24 6//24 8//24
f  6//25 21//25 10//25
f  10//26 21//26 22//26
f  10//27 22//27 19//27
f  16//28 17//20 20//28
f  21//29 20//28 17//20
f  18//20 21//29 17//20
f  15//20 21//29 18//20
f  22//30 21//29 15//20
f  14//31 22//30 15//20
f  13//29 22//30 14//31
f  19//32 22//30 13//29
f  12//33 19//32 13//29

