# {"id":"_43470","idOriginal":"_43470","origin":[14.29545581264634,48.29692134716667],"elevation":260.518,"wof":[{"Id":102049853,"Name":"Linz","Placetype":"county","Offset":-1},{"Id":85632785,"Name":"Austria","Placetype":"country","Offset":-1},{"Id":85681677,"Name":"Oberösterreich","Placetype":"region","Offset":-1},{"Id":85898459,"Name":"Wegscheid","Placetype":"neighbourhood","Offset":-1},{"Id":101748071,"Name":"Linz","Placetype":"locality","Offset":-1}]}

# Attribution: City of Linz <http://geo.data.linz.gv.at/katalog/geodata/3d_geo_daten_lod2/>
# Longitude: 14.29545581264634
# Latitude: 48.29692134716667
# Elevation: 260.518

# File produced by Open Asset Import Library (http://www.assimp.sf.net)
# (assimp v3.1.0)


# 10 vertex positions
v  1.454 2.863 -0.605
v  5.709 3.134 6.093
v  2.649 3.134 -1.222
v  3.051 2.545 7.286
v  0 2.544 1.55775e-16
v  5.709 -3.73089e-16 6.093
v  2.649 7.48259e-17 -1.222
v  1.454 3.70456e-17 -0.605
v  0 0 0
v  3.051 -4.46139e-16 7.286

# 0 UV coordinates

# 14 vertex normals
vn -0.1828 0.980172 0.0764685
vn -0.182859 0.980158 0.0765069
vn -0.183169 0.980095 0.076567
vn 0.922535 0 -0.385913
vn -0.458776 0 -0.888552
vn -0.458776 -0 -0.888552
vn -0.384164 0 -0.923265
vn -0.384164 5.65336e-17 -0.923265
vn -0.922394 0 0.386251
vn -0.922394 0 0.386251
vn 0.40948 0 0.912319
vn -1.37542e-23 -1 -6.12323e-17
vn 2.54148e-24 -1 -6.12323e-17
vn 0 -1 -6.12323e-17

# Mesh 'defaultobject' with 16 faces
g defaultobject
usemtl DefaultMaterial
f  1//1 2//1 3//1
f  2//2 1//2 4//2
f  4//3 1//3 5//3
f  6//4 3//4 2//4
f  3//4 6//4 7//4
f  7//5 1//5 3//5
f  1//5 7//5 8//6
f  8//7 5//7 1//7
f  5//7 8//7 9//8
f  5//9 10//9 4//9
f  10//9 5//9 9//10
f  4//11 6//11 2//11
f  6//11 4//11 10//11
f  10//12 7//12 6//12
f  7//12 10//12 8//13
f  8//13 10//12 9//14

