# {"id":"_22172","idOriginal":"_22172","origin":[14.3120303655214,48.299983302804655],"elevation":259.036,"wof":[{"Id":85632785,"Name":"Austria","Placetype":"country","Offset":-1},{"Id":101748071,"Name":"Linz","Placetype":"locality","Offset":-1},{"Id":85681677,"Name":"Oberösterreich","Placetype":"region","Offset":-1},{"Id":85898449,"Name":"Steeg","Placetype":"neighbourhood","Offset":-1},{"Id":102049853,"Name":"Linz","Placetype":"county","Offset":-1}]}

# Attribution: City of Linz <http://geo.data.linz.gv.at/katalog/geodata/3d_geo_daten_lod2/>
# Longitude: 14.3120303655214
# Latitude: 48.299983302804655
# Elevation: 259.036

# File produced by Open Asset Import Library (http://www.assimp.sf.net)
# (assimp v3.1.0)


# 19 vertex positions
v  6.86 14.152 2.747
v  14.009 10.193 6.376
v  13.973 10.272 6.267
v  13.131 10.203 6.666
v  3.316 10.312 9.909
v  5.348 14.152 -1.859
v  10.695 10.272 -3.718
v  0 10.271 6.28917e-16
v  3.26 10.272 9.928
v  3.26 -6.07915e-16 9.928
v  3.316 -6.06751e-16 9.909
v  13.131 -4.08175e-16 6.666
v  14.009 -3.90417e-16 6.376
v  14.005 -3.8956e-16 6.362
v  14.005 10.203 6.362
v  10.695 2.27662e-16 -3.718
v  13.973 -3.83743e-16 6.267
v  0 0 0
v  5.348 1.13831e-16 -1.859

# 0 UV coordinates

# 29 vertex normals
vn 0.183951 0.82375 0.536282
vn 0.185754 0.824864 0.533943
vn 0.185628 0.824802 0.534083
vn 0.537201 0.824811 -0.176359
vn 0.53719 0.824822 -0.176342
vn -0.537238 0.824787 0.176358
vn -0.537231 0.824798 0.176324
vn -0.529939 0.828303 0.181874
vn 0.321283 -0 0.946983
vn 0.313731 4.56673e-05 0.949512
vn 0.321273 -0.00806724 0.946952
vn 0.313731 0 0.949512
vn 0.313631 0 0.949545
vn 0.313631 0 0.949545
vn 0.961529 0 -0.274704
vn 0.961529 0 -0.274704
vn 0.950051 0.0111917 -0.311895
vn 0.950088 0 -0.311983
vn 0.950088 0 -0.311983
vn -1.04344e-19 -1 -6.11979e-17
vn -0.328363 4.23245e-05 -0.944552
vn -0.328363 0 -0.944552
vn -0.328363 5.78371e-17 -0.944552
vn 0 -1 -6.12615e-17
vn -0.95009 0 0.311976
vn -0.95009 0 0.311976
vn -1.55863e-23 -1 -6.12325e-17
vn 0 -1 -6.12323e-17
vn 1.36529e-21 -1 -6.12319e-17

# Mesh 'defaultobject' with 32 faces
g defaultobject
usemtl DefaultMaterial
f  1//1 2//1 3//1
f  2//2 1//2 4//2
f  4//3 1//3 5//3
f  6//4 3//4 7//4
f  3//5 6//5 1//5
f  8//6 1//6 6//6
f  1//7 8//7 9//7
f  1//8 9//8 5//8
f  10//9 5//9 9//9
f  5//10 10//10 4//10
f  4//11 10//11 11//11
f  4//12 11//12 12//12
f  4//13 12//13 2//13
f  2//13 12//13 13//14
f  2//15 14//15 15//15
f  14//15 2//15 13//16
f  15//17 7//17 3//17
f  7//18 15//18 14//18
f  7//18 14//18 16//19
f  16//20 14//20 17//20
f  7//21 8//21 6//21
f  8//22 7//22 16//22
f  8//22 16//22 18//23
f  18//24 16//20 19//24
f  8//25 10//25 9//25
f  10//25 8//25 18//26
f  12//27 17//20 13//27
f  17//20 12//27 16//20
f  16//20 12//27 11//28
f  16//20 11//28 19//24
f  19//24 11//28 10//29
f  19//24 10//29 18//24

