# {"id":"ID_20116","idOriginal":"ID_20116","origin":[14.291237952125226,48.334870023522136],"elevation":285.977}
# Longitude: 14.291237952125226
# Latitude: 48.334870023522136
# Elevation: 285.977

# File produced by Open Asset Import Library (http://www.assimp.sf.net)
# (assimp v3.1.0)

mtllib ID_20116.obj.mtl

# 20 vertex positions
v  5.008 9.119 2.192
v  12.159 8.1 -8.614
v  9.94 9.119 -9.552
v  14.918 6.83 -7.426
v  9.967 6.83 4.363
v  0 6.807 4.16809e-16
v  6.023 7.321 -11.207
v  5.685 7.16 -11.386
v  4.846 6.877 -11.117
v  5.099 6.88 -11.698
v  6.023 6.86231e-16 -11.207
v  5.099 7.16296e-16 -11.698
v  5.685 6.97191e-16 -11.386
v  14.918 4.54711e-16 -7.426
v  12.159 5.27455e-16 -8.614
v  9.94 5.84891e-16 -9.552
v  0 0 0
v  4.846 6.8072e-16 -11.117
v  5.008 -1.34221e-16 2.192
v  9.967 -2.67157e-16 4.363

# 0 UV coordinates

# 32 vertex normals
vn 0.359176 0.921 0.150839
vn 0.35906 0.921058 0.150757
vn 0.359109 0.92103 0.150814
vn -0.35917 0.921002 -0.150837
vn -0.359092 0.921048 -0.150744
vn -0.358961 0.921111 -0.150671
vn -0.359005 0.92109 -0.150694
vn -0.359235 0.920839 -0.151676
vn 0.468008 0 -0.883724
vn 0.46992 0.000115647 -0.882709
vn 0.469249 0 -0.883066
vn -2.94317e-20 -1 -6.11768e-17
vn 0.395486 0 -0.918472
vn 0.388211 -0.00293153 -0.921566
vn 0.389916 -0.00183372 -0.920849
vn 0.395478 0.00616064 -0.918455
vn 0.389355 9.63024e-05 -0.921088
vn 0.389203 0 -0.921152
vn -0.916844 0 -0.399245
vn -0.916692 3.5104e-05 -0.399594
vn -0.9167 2.4467e-17 -0.399577
vn 2.89121e-19 -1 -6.1149e-17
vn -0.400972 -5.60943e-17 0.91609
vn -0.401028 3.62031e-05 0.916066
vn -0.400972 -5.99724e-05 0.91609
vn -0.401042 0 0.91606
vn 0.921993 -0 0.387207
vn 1.27765e-23 -1 -6.12323e-17
vn -1.61284e-24 -1 -6.12323e-17
vn 0 -1 -6.12323e-17
vn 1.22383e-23 -1 -6.12323e-17
vn -1.372e-21 -1 -6.12296e-17

# Mesh 'defaultobject' with 36 faces
g defaultobject
usemtl DefaultMaterial
f  1//1 2//1 3//1
f  2//2 1//2 4//2
f  4//3 1//3 5//3
f  3//4 6//4 1//4
f  6//5 3//5 7//5
f  6//6 7//6 8//6
f  6//7 8//7 9//7
f  9//8 8//8 10//8
f  11//9 8//9 7//9
f  8//10 11//10 10//10
f  10//11 11//11 12//11
f  12//12 11//12 13//12
f  14//13 2//13 4//13
f  2//14 14//14 3//14
f  3//15 14//15 7//15
f  7//16 14//16 15//16
f  7//17 15//17 16//17
f  7//18 16//18 11//18
f  12//19 9//19 10//19
f  9//20 12//20 6//20
f  6//21 12//21 17//21
f  17//22 12//12 18//22
f  17//23 1//23 6//23
f  1//24 17//24 5//24
f  5//25 17//25 19//25
f  5//26 19//26 20//26
f  20//27 4//27 5//27
f  4//27 20//27 14//27
f  18//22 19//28 17//22
f  19//28 18//22 20//29
f  20//29 18//22 12//12
f  20//29 12//12 13//12
f  20//29 13//12 11//12
f  20//29 11//12 16//30
f  20//29 16//30 14//31
f  14//31 16//30 15//32

