# {"id":"ID_43388","idOriginal":"ID_43388","origin":[14.304058506924177,48.32770807531842],"elevation":256.155}
# Longitude: 14.304058506924177
# Latitude: 48.32770807531842
# Elevation: 256.155

# File produced by Open Asset Import Library (http://www.assimp.sf.net)
# (assimp v3.1.0)

mtllib ID_43388.obj.mtl

# 8 vertex positions
v  4.03 3.026 -1.91
v  2.25 3.026 4.69
v  6.26 3.026 2.79
v  0 3.026 1.85289e-16
v  6.26 -1.70838e-16 2.79
v  4.03 1.16954e-16 -1.91
v  0 0 0
v  2.25 -2.8718e-16 4.69

# 0 UV coordinates

# 9 vertex normals
vn 0 1 -0
vn 0.903464 0 -0.428665
vn -0.428279 0 -0.903647
vn -0.428279 5.53324e-17 -0.903647
vn -0.901613 -2.64857e-17 0.432544
vn -0.901613 0 0.432544
vn 0.428183 -0 0.903692
vn -4.58669e-24 -1 -6.12323e-17
vn 0 -1 -6.12323e-17

# Mesh 'defaultobject' with 12 faces
g defaultobject
usemtl DefaultMaterial
f  1//1 2//1 3//1
f  2//1 1//1 4//1
f  5//2 1//2 3//2
f  1//2 5//2 6//2
f  6//3 4//3 1//3
f  4//3 6//3 7//4
f  7//5 2//5 4//5
f  2//5 7//5 8//6
f  8//7 3//7 2//7
f  3//7 8//7 5//7
f  8//8 6//8 5//8
f  6//8 8//8 7//9

