# {"id":"ID_51366","idOriginal":"ID_51366","origin":[14.281966233027488,48.27358419812294],"elevation":279.403,"wof":[{"Id":102049853,"Name":"Linz","Placetype":"county","Offset":-1},{"Id":101748071,"Name":"Linz","Placetype":"locality","Offset":-1},{"Id":85681677,"Name":"Oberösterreich","Placetype":"region","Offset":-1},{"Id":85898459,"Name":"Wegscheid","Placetype":"neighbourhood","Offset":-1},{"Id":85632785,"Name":"Austria","Placetype":"country","Offset":-1}]}

# Attribution: City of Linz <http://geo.data.linz.gv.at/katalog/geodata/3d_geo_daten_lod2/>
# Longitude: 14.281966233027488
# Latitude: 48.27358419812294
# Elevation: 279.403

# File produced by Open Asset Import Library (http://www.assimp.sf.net)
# (assimp v3.1.0)


# 8 vertex positions
v  1.743 2.225 -1.345
v  3.225 2.225 4.234
v  5 2.225 2.843
v  0 2.225 1.36242e-16
v  5 -1.74084e-16 2.843
v  1.743 8.23575e-17 -1.345
v  0 0 0
v  3.225 -2.59258e-16 4.234

# 0 UV coordinates

# 9 vertex normals
vn 0 1 0
vn 0.789383 0 -0.613901
vn -0.610917 0 -0.791694
vn -0.610917 4.84773e-17 -0.791694
vn -0.795514 -3.71029e-17 0.605936
vn -0.795514 0 0.605936
vn 0.616822 -0 0.787102
vn 4.53236e-24 -1 -6.12323e-17
vn -4.41114e-24 -1 -6.12323e-17

# Mesh 'defaultobject' with 12 faces
g defaultobject
usemtl DefaultMaterial
f  1//1 2//1 3//1
f  2//1 1//1 4//1
f  5//2 1//2 3//2
f  1//2 5//2 6//2
f  6//3 4//3 1//3
f  4//3 6//3 7//4
f  7//5 2//5 4//5
f  2//5 7//5 8//6
f  8//7 3//7 2//7
f  3//7 8//7 5//7
f  5//8 7//8 6//8
f  7//8 5//8 8//9

