# {"id":"_3361","idOriginal":"_3361","origin":[14.322834661775726,48.30736580217788],"elevation":254.683,"wof":[{"Id":102049853,"Name":"Linz","Placetype":"county","Offset":-1},{"Id":101748071,"Name":"Linz","Placetype":"locality","Offset":-1},{"Id":85681677,"Name":"Oberösterreich","Placetype":"region","Offset":-1},{"Id":85898449,"Name":"Steeg","Placetype":"neighbourhood","Offset":-1},{"Id":85632785,"Name":"Austria","Placetype":"country","Offset":-1}]}

# Attribution: City of Linz <http://geo.data.linz.gv.at/katalog/geodata/3d_geo_daten_lod2/>
# Longitude: 14.322834661775726
# Latitude: 48.30736580217788
# Elevation: 254.683

# File produced by Open Asset Import Library (http://www.assimp.sf.net)
# (assimp v3.1.0)


# 28 vertex positions
v  4.114 8.233 12.117
v  17.523 8.233 -5.752
v  0 8.233 5.04126e-16
v  4.287 8.233 12.094
v  21.388 8.233 6.46
v  17.49 8.233 -5.849
v  15.596 8.233 -11.851
v  15.443 8.233 -11.801
v  27.454 8.233 -15.691
v  23.799 8.233 5.666
v  33.472 8.233 2.423
v  27.716 8.233 -15.776
v  29.588 8.233 -9.858
v  32.912 8.233 0.652
v  27.716 9.66001e-16 -15.776
v  27.454 9.60797e-16 -15.691
v  15.596 7.25664e-16 -11.851
v  15.443 7.22603e-16 -11.801
v  17.523 3.52208e-16 -5.752
v  0 0 0
v  17.49 3.58148e-16 -5.849
v  4.114 -7.41952e-16 12.117
v  4.287 -7.40544e-16 12.094
v  21.388 -3.95561e-16 6.46
v  23.799 -3.46942e-16 5.666
v  33.472 -1.48366e-16 2.423
v  32.912 -3.99235e-17 0.652
v  29.588 6.03628e-16 -9.858

# 0 UV coordinates

# 33 vertex normals
vn 0 1 0
vn -0.308595 0 -0.951194
vn -0.308081 1.80652e-05 -0.95136
vn -0.308593 -0.000817535 -0.951194
vn -0.308081 -0 -0.95136
vn -0.310632 -0 -0.95053
vn -0.311881 0 -0.950121
vn -0.311881 5.81781e-17 -0.950121
vn -0.945638 0 0.325222
vn -0.946708 0.00253405 0.322085
vn -0.945655 0 0.325172
vn -4.95314e-20 -1 -6.12154e-17
vn -0.94691 -1.96861e-17 0.321498
vn -0.94691 0 0.321498
vn 0.131787 -0 0.991278
vn 0.31291 -0 0.949783
vn 0.312798 0 0.94982
vn 0.317874 -0.00164899 0.948132
vn 0.312792 0.00662752 0.949799
vn 0.317874 0 0.948133
vn 0.953468 0 -0.301493
vn 0.953451 -1.3104e-05 -0.301548
vn 0.953469 7.75801e-05 -0.301493
vn 0.953451 0 -0.301548
vn 0.953436 0 -0.301594
vn 0 -1 -6.12325e-17
vn 0 -1 -6.12323e-17
vn -6.51325e-24 -1 -6.12323e-17
vn 1.61895e-24 -1 -6.12323e-17
vn 0 -1 -6.12323e-17
vn -4.1197e-22 -1 -6.12323e-17
vn -2.78681e-22 -1 -6.12323e-17
vn -2.47724e-22 -1 -6.12323e-17

# Mesh 'defaultobject' with 52 faces
g defaultobject
usemtl DefaultMaterial
f  1//1 2//1 3//1
f  2//1 1//1 4//1
f  2//1 4//1 5//1
f  6//1 7//1 8//1
f  7//1 6//1 9//1
f  9//1 6//1 2//1
f  9//1 2//1 5//1
f  9//1 5//1 10//1
f  9//1 10//1 11//1
f  9//1 11//1 12//1
f  12//1 11//1 13//1
f  13//1 11//1 14//1
f  15//2 9//2 12//2
f  9//3 15//3 7//3
f  7//4 15//4 16//4
f  7//5 16//5 17//5
f  7//6 17//6 8//6
f  8//6 17//6 18//6
f  19//7 3//7 2//7
f  3//7 19//7 20//8
f  18//9 6//9 8//9
f  6//10 18//10 2//10
f  2//11 18//11 19//11
f  19//12 18//12 21//12
f  20//13 1//13 3//13
f  1//13 20//13 22//14
f  22//15 4//15 1//15
f  4//15 22//15 23//15
f  23//16 5//16 4//16
f  5//16 23//16 24//16
f  5//17 24//17 10//17
f  10//18 24//18 11//18
f  11//19 24//19 25//19
f  11//20 25//20 26//20
f  26//21 14//21 11//21
f  14//22 26//22 13//22
f  13//23 26//23 27//23
f  13//24 27//24 28//24
f  13//25 28//25 12//25
f  12//25 28//25 15//25
f  20//26 23//26 22//26
f  23//26 20//26 24//27
f  24//27 20//26 19//12
f  24//27 19//12 25//28
f  25//28 19//12 26//29
f  26//29 19//12 21//12
f  26//29 21//12 18//12
f  26//29 18//12 17//30
f  26//29 17//30 16//27
f  26//29 16//27 27//31
f  27//31 16//27 28//32
f  28//32 16//27 15//33

