# {"id":"_51783","idOriginal":"_51783","origin":[14.31518543788175,48.29982015717288],"elevation":253.528,"wof":[{"Id":102049853,"Name":"Linz","Placetype":"county","Offset":-1},{"Id":85681677,"Name":"Oberösterreich","Placetype":"region","Offset":-1},{"Id":85898449,"Name":"Steeg","Placetype":"neighbourhood","Offset":-1},{"Id":101748071,"Name":"Linz","Placetype":"locality","Offset":-1},{"Id":85632785,"Name":"Austria","Placetype":"country","Offset":-1}]}

# Attribution: City of Linz <http://geo.data.linz.gv.at/katalog/geodata/3d_geo_daten_lod2/>
# Longitude: 14.31518543788175
# Latitude: 48.29982015717288
# Elevation: 253.528

# File produced by Open Asset Import Library (http://www.assimp.sf.net)
# (assimp v3.1.0)


# 8 vertex positions
v  0 2.197 1.34527e-16
v  3.051 2.197 3.858
v  2.809 2.197 -0.169
v  0.242 2.197 4.027
v  2.809 1.03483e-17 -0.169
v  0 0 0
v  0.242 -2.46583e-16 4.027
v  3.051 -2.36234e-16 3.858

# 0 UV coordinates

# 9 vertex normals
vn -0 1 0
vn -0.0600552 0 -0.998195
vn -0.0600552 6.11218e-17 -0.998195
vn -0.998199 -3.67309e-18 0.0599862
vn -0.998199 0 0.0599862
vn 0.0600551 -0 0.998195
vn 0.998199 0 -0.0599862
vn 0 -1 -6.12323e-17
vn -9.3263e-24 -1 -6.12323e-17

# Mesh 'defaultobject' with 12 faces
g defaultobject
usemtl DefaultMaterial
f  1//1 2//1 3//1
f  2//1 1//1 4//1
f  5//2 1//2 3//2
f  1//2 5//2 6//3
f  6//4 4//4 1//4
f  4//4 6//4 7//5
f  7//6 2//6 4//6
f  2//6 7//6 8//6
f  8//7 3//7 2//7
f  3//7 8//7 5//7
f  8//8 6//8 5//8
f  6//8 8//8 7//9

