# {"id":"ID_32240","idOriginal":"ID_32240","origin":[14.284540120622617,48.287661204128874],"elevation":292.092,"wof":[{"Id":85681677,"Name":"Oberösterreich","Placetype":"region","Offset":-1},{"Id":85898459,"Name":"Wegscheid","Placetype":"neighbourhood","Offset":-1},{"Id":102049853,"Name":"Linz","Placetype":"county","Offset":-1},{"Id":101748071,"Name":"Linz","Placetype":"locality","Offset":-1},{"Id":85632785,"Name":"Austria","Placetype":"country","Offset":-1}]}

# Attribution: City of Linz <http://geo.data.linz.gv.at/katalog/geodata/3d_geo_daten_lod2/>
# Longitude: 14.284540120622617
# Latitude: 48.287661204128874
# Elevation: 292.092

# File produced by Open Asset Import Library (http://www.assimp.sf.net)
# (assimp v3.1.0)


# 13 vertex positions
v  10.309 4.952 4.519
v  6.692 5.497 1.177
v  5.517 4.952 7.922
v  7.533 5.497 0.579
v  0.009 4.952 0.012
v  4.761 4.953 -3.355
v  0 4.951 3.03161e-16
v  4.761 2.05434e-16 -3.355
v  0 0 0
v  0.009 -7.34788e-19 0.012
v  5.517 -4.85083e-16 7.922
v  10.309 -2.76709e-16 4.519
v  7.533 -3.54535e-17 0.579

# 0 UV coordinates

# 18 vertex normals
vn 0.0650656 0.993666 0.0916234
vn 0.0651132 0.993667 0.0915722
vn -0.0922289 0.993665 0.0642221
vn -0.0650773 0.993672 -0.0915514
vn -0.0650795 0.993674 -0.0915248
vn -0.0386047 0.997784 -0.0541882
vn -0.576029 0 -0.817429
vn -0.576029 5.00531e-17 -0.817429
vn -0.8 0 0.6
vn -0.820643 0 0.571441
vn 0.578999 -0 0.815328
vn 0.817451 0 -0.575998
vn 0.817472 -3.07226e-05 -0.575969
vn 0.817451 3.75362e-05 -0.575998
vn 0.817474 0 -0.575966
vn 0 -1 -6.12323e-17
vn 3.0345e-25 -1 -6.12323e-17
vn 3.73772e-24 -1 -6.12323e-17

# Mesh 'defaultobject' with 22 faces
g defaultobject
usemtl DefaultMaterial
f  1//1 2//1 3//1
f  2//2 1//2 4//2
f  2//3 5//3 3//3
f  5//4 4//4 6//4
f  4//5 5//5 2//5
f  6//6 7//6 5//6
f  8//7 7//7 6//7
f  7//7 8//7 9//8
f  7//9 10//9 5//9
f  10//9 7//9 9//9
f  10//10 3//10 5//10
f  3//10 10//10 11//10
f  11//11 1//11 3//11
f  1//11 11//11 12//11
f  4//12 8//12 6//12
f  8//13 4//13 1//13
f  8//14 1//14 13//14
f  13//15 1//15 12//15
f  13//16 9//16 8//16
f  9//16 13//16 10//17
f  10//17 13//16 11//16
f  11//16 13//16 12//18

