# {"id":"ID_12125","idOriginal":"ID_12125","origin":[14.282393462036636,48.25356227898109],"elevation":266.46,"wof":[{"Id":102049853,"Name":"Linz","Placetype":"county","Offset":-1},{"Id":101748071,"Name":"Linz","Placetype":"locality","Offset":-1},{"Id":85681677,"Name":"Oberösterreich","Placetype":"region","Offset":-1},{"Id":85898447,"Name":"Scharlinz","Placetype":"neighbourhood","Offset":-1},{"Id":85632785,"Name":"Austria","Placetype":"country","Offset":-1}]}

# Attribution: City of Linz <http://geo.data.linz.gv.at/katalog/geodata/3d_geo_daten_lod2/>
# Longitude: 14.282393462036636
# Latitude: 48.25356227898109
# Elevation: 266.46

# File produced by Open Asset Import Library (http://www.assimp.sf.net)
# (assimp v3.1.0)


# 40 vertex positions
v  5.084 24.23 -2.045
v  11.458 24.624 -0.798
v  10.167 24.627 -4.089
v  7.691 24.23 4.375
v  12.374 24.625 1.449
v  12.702 24.624 2.258
v  13.424 24.624 4.068
v  9.583 24.23 9.033
v  17.536 24.62 14.325
v  12.569 24.23 16.384
v  17.382 24.608 14.39
v  0.023 24.525 0.054
v  0 24.525 1.50172e-15
v  0.066 24.525 0.159
v  2.638 24.523 6.407
v  4.547 24.522 11.058
v  7.507 24.525 18.481
v  7.507 -1.13163e-15 18.481
v  17.536 -8.77153e-16 14.325
v  12.569 -1.00323e-15 16.384
v  17.382 -8.81133e-16 14.39
v  11.458 4.88634e-17 -0.798
v  10.167 2.50379e-16 -4.089
v  13.424 -2.49093e-16 4.068
v  12.702 -1.38263e-16 2.258
v  12.374 -8.87257e-17 1.449
v  0 0 0
v  5.084 1.2522e-16 -2.045
v  4.547 -6.77107e-16 11.058
v  9.583 -5.53112e-16 9.033
v  0.066 -9.73594e-18 0.159
v  0.023 -3.30655e-18 0.054
v  2.638 -3.92316e-16 6.407
v  7.691 -2.67891e-16 4.375
v  7.691 26.25 4.375
v  4.547 26.25 11.058
v  9.583 26.25 9.033
v  4.345 26.25 10.553
v  2.638 26.25 6.407
v  4.345 -6.46185e-16 10.553

# 0 UV coordinates

# 69 vertex normals
vn -0.0669696 0.997385 0.0271803
vn -0.0669727 0.997384 0.0271959
vn -0.0672691 0.99737 0.0269789
vn -0.0665091 0.997387 0.0281976
vn -0.0671119 0.997386 0.0267706
vn -0.0670855 0.997375 0.027249
vn -0.0670564 0.997376 0.0272716
vn -0.0670264 0.99738 0.0272264
vn -0.109883 0.990928 -0.0773811
vn 0.0494664 0.998554 -0.021069
vn 0.049754 0.998554 -0.0203756
vn 0.049818 0.998553 -0.0202298
vn 0.0497883 0.998556 -0.020176
vn 0.0497696 0.998556 -0.0202166
vn 0.0497994 0.998554 -0.0202616
vn 0.382723 -0 0.923863
vn 0.382748 -6.19858e-06 0.923853
vn 0.389059 -0.00297833 0.921208
vn 0.382829 0 0.923819
vn 7.70988e-21 1 6.12473e-17
vn -1.13198e-20 1 6.12052e-17
vn 0.928189 0 -0.372108
vn 0.92883 0.000774495 -0.370506
vn 0.926725 -0.00220042 -0.375733
vn 0.926008 -0.00326924 -0.37749
vn 0.930921 0.00550444 -0.365179
vn 0.927865 -0.00119311 -0.372913
vn 0.930934 0 -0.365189
vn 0 1 6.12337e-17
vn 2.34209e-21 1 6.12305e-17
vn -1.31457e-20 1 6.12394e-17
vn -0.373089 0 -0.927795
vn -0.373185 -2.31581e-05 -0.927757
vn -0.373136 5.68099e-17 -0.927776
vn 0 1 6.11912e-17
vn -0.373073 0 -0.927802
vn -0.373073 0 -0.927802
vn -0.920024 -2.39946e-17 0.391862
vn -0.925407 3.34208e-05 0.378976
vn -0.923592 0 0.383378
vn 0 -1 -6.12325e-17
vn -0.924715 0 0.38066
vn -0.924715 0 0.38066
vn -0.926488 0 0.376324
vn -0.928873 0 0.370398
vn 0.3731 -0 0.927791
vn 0.3731 0 0.927791
vn 0 -1 -6.12325e-17
vn 1.42998e-24 -1 -6.12323e-17
vn -2.23127e-23 -1 -6.12323e-17
vn 0 -1 -6.12323e-17
vn -8.01558e-24 -1 -6.12323e-17
vn 1.00469e-23 -1 -6.12323e-17
vn -3.87135e-24 -1 -6.12323e-17
vn -4.46232e-23 -1 -6.12323e-17
vn 0 -1 -6.12323e-17
vn -1.77016e-24 -1 -6.12323e-17
vn -7.3761e-24 -1 -6.12323e-17
vn -1.5424e-20 -1 -6.12643e-17
vn 9.17085e-21 -1 -6.12063e-17
vn 9.76379e-24 -1 -6.12323e-17
vn 0 1 -0
vn -0.924692 0 0.380716
vn -0.928475 0.00171898 0.37139
vn -0.925106 0 0.379709
vn 4.31409e-21 -1 -6.12342e-17
vn 0.373073 -0 0.927802
vn 0.926488 0 -0.376324
vn -0.3731 0 -0.927791

# Mesh 'defaultobject' with 80 faces
g defaultobject
usemtl DefaultMaterial
f  1//1 2//1 3//1
f  2//2 1//2 4//2
f  2//3 4//3 5//3
f  5//4 4//4 6//4
f  6//5 4//5 7//5
f  7//6 4//6 8//6
f  7//7 8//7 9//7
f  9//8 8//8 10//8
f  9//9 10//9 11//9
f  12//10 1//10 13//10
f  1//11 12//11 14//11
f  1//12 14//12 4//12
f  4//13 14//13 15//13
f  16//14 10//14 8//14
f  10//15 16//15 17//15
f  18//16 10//16 17//16
f  10//17 18//17 11//17
f  11//18 18//18 9//18
f  9//19 18//19 19//19
f  19//20 18//20 20//20
f  19//20 20//20 21//21
f  19//22 7//22 9//22
f  7//23 19//23 6//23
f  6//24 19//24 5//24
f  5//25 19//25 2//25
f  2//26 19//26 3//26
f  3//27 19//27 22//27
f  3//28 22//28 23//28
f  22//29 19//20 24//29
f  22//29 24//29 25//30
f  22//29 25//30 26//31
f  23//32 1//32 3//32
f  1//33 23//33 13//33
f  13//34 23//34 27//34
f  27//35 23//35 28//35
f  8//36 29//36 16//36
f  29//36 8//36 30//37
f  27//38 12//38 13//38
f  12//39 27//39 14//39
f  14//40 27//40 31//40
f  31//41 27//41 32//41
f  31//42 15//42 14//42
f  15//42 31//42 33//43
f  34//44 8//44 4//44
f  8//44 34//44 30//44
f  16//45 18//45 17//45
f  18//45 16//45 29//45
f  33//46 4//46 15//46
f  4//46 33//46 34//47
f  28//48 32//41 27//41
f  32//41 28//48 31//41
f  31//41 28//48 33//49
f  33//49 28//48 23//50
f  33//49 23//50 22//51
f  33//49 22//51 26//52
f  33//49 26//52 34//53
f  34//53 26//52 30//54
f  30//54 26//52 25//55
f  30//54 25//55 24//56
f  30//54 24//56 19//57
f  30//54 19//57 18//58
f  18//58 19//57 20//59
f  20//59 19//57 21//60
f  18//58 29//61 30//54
f  35//62 36//62 37//62
f  36//62 35//62 38//62
f  38//62 35//62 39//62
f  33//63 38//63 39//63
f  38//64 33//64 36//64
f  36//65 33//65 29//65
f  29//61 33//49 40//66
f  29//67 37//67 36//67
f  37//67 29//67 30//67
f  30//68 35//68 37//68
f  35//68 30//68 34//68
f  34//69 39//69 35//69
f  39//69 34//69 33//69
f  40//66 30//54 29//61
f  30//54 40//66 33//49
f  30//54 33//49 34//53

