# File produced by Open Asset Import Library (http://www.assimp.sf.net)
# (assimp v3.1.0)

mtllib ID_7119.obj.mtl

# 20 vertex positions
v  1.184 10.124 6.368
v  9.186 7.895 -1.664
v  0 7.879 4.8245e-16
v  22.121 10.124 2.469
v  9.136 7.733 -2.131
v  13.846 7.899 -2.523
v  13.739 7.733 -2.99
v  20.942 7.903 -3.831
v  23.391 7.731 9.258
v  2.447 7.731 13.159
v  9.186 1.01891e-16 -1.664
v  9.136 1.30486e-16 -2.131
v  0 0 0
v  1.184 -3.89928e-16 6.368
v  2.447 -8.05756e-16 13.159
v  23.391 -5.66889e-16 9.258
v  22.121 -1.51183e-16 2.469
v  20.942 2.34581e-16 -3.831
v  13.846 1.54489e-16 -2.523
v  13.739 1.83085e-16 -2.99

# 0 UV coordinates

# 33 vertex normals
vn -0.059966 0.944855 -0.321953
vn -0.0599538 0.944859 -0.321942
vn -0.0601616 0.945035 -0.321387
vn -0.060071 0.944966 -0.321607
vn -0.060104 0.944806 -0.322071
vn -0.0598687 0.944878 -0.321903
vn 0.0599409 0.944903 0.321815
vn 0.0599358 0.944893 0.321846
vn -0.994317 0 0.106458
vn -0.983151 -1.11931e-17 0.182797
vn -0.983143 -2.6211e-05 0.182837
vn -0.983151 4.47177e-05 0.182797
vn -0.983142 0 0.182846
vn 0.183109 -0 0.983092
vn 0.982949 0 -0.183878
vn 0.982949 0 -0.183878
vn 0.982936 0 -0.18395
vn 0.982936 0 -0.18395
vn 0.974742 0 -0.223334
vn 0.974742 0 -0.223334
vn -0.181275 0 -0.983432
vn -0.181275 -0 -0.983432
vn -0.18345 0 -0.983029
vn -0.178244 0 -0.983986
vn -0.178244 6.02518e-17 -0.983986
vn 3.01815e-24 -1 -6.12323e-17
vn 2.03935e-24 -1 -6.12323e-17
vn -4.36254e-24 -1 -6.12323e-17
vn 0 -1 -6.12323e-17
vn 0 -1 -6.12323e-17
vn -1.24062e-23 -1 -6.12324e-17
vn 4.31739e-24 -1 -6.12323e-17
vn 3.50207e-24 -1 -6.12323e-17

# Mesh 'defaultobject' with 36 faces
g defaultobject
usemtl DefaultMaterial
f  1//1 2//1 3//1
f  2//2 1//2 4//2
f  2//3 4//3 5//3
f  5//4 4//4 6//4
f  5//5 6//5 7//5
f  6//6 4//6 8//6
f  9//7 1//7 10//7
f  1//8 9//8 4//8
f  5//9 11//9 2//9
f  11//9 5//9 12//9
f  13//10 1//10 3//10
f  1//11 13//11 10//11
f  10//12 13//12 14//12
f  10//13 14//13 15//13
f  15//14 9//14 10//14
f  9//14 15//14 16//14
f  17//15 9//15 16//15
f  9//15 17//15 4//16
f  4//17 17//17 18//17
f  4//17 18//17 8//18
f  19//19 7//19 6//19
f  7//19 19//19 20//20
f  18//21 6//21 8//21
f  6//21 18//21 19//22
f  20//23 5//23 7//23
f  5//23 20//23 12//23
f  11//24 3//24 2//24
f  3//24 11//24 13//25
f  20//26 11//26 12//26
f  11//26 20//26 14//27
f  14//27 20//26 15//28
f  15//28 20//26 19//29
f  15//28 19//29 18//30
f  15//28 18//30 17//31
f  15//28 17//31 16//32
f  14//27 13//33 11//26

