# {"id":"ID_9149","idOriginal":"ID_9149","origin":[14.31960307895333,48.25444923707802],"elevation":256.774}
# Longitude: 14.31960307895333
# Latitude: 48.25444923707802
# Elevation: 256.774

# File produced by Open Asset Import Library (http://www.assimp.sf.net)
# (assimp v3.1.0)

mtllib ID_9149.obj.mtl

# 46 vertex positions
v  5.356 11.226 17.285
v  4.778 12.16 12.534
v  3.695 11.218 12.968
v  8.991 16.36 8.989
v  11.248 16.36 14.896
v  6.882 12.544 16.709
v  6.5 12.21 16.868
v  4.12 12.161 10.808
v  6.908 16.36 3.54
v  0.375 12.168 0.983
v  17.159 11.192 12.442
v  16.142 11.202 9.815
v  14.959 11.215 6.761
v  14.927 11.215 6.68
v  15.018 11.215 6.646
v  18.118 11.209 5.496
v  12.967 16.36 1.279
v  16.09 16.36 0.113
v  14.179 11.507 -4.959
v  14.068 11.226 -5.252
v  10.92 11.226 -4.077
v  0 11.226 6.87394e-16
v  0.122 11.532 0.319
v  0.177 11.67 0.463
v  0 0 0
v  4.12 -6.61799e-16 10.808
v  4.778 -7.67486e-16 12.534
v  0.375 -6.01914e-17 0.983
v  0.122 -1.95331e-17 0.319
v  0.177 -2.83506e-17 0.463
v  5.356 -1.0584e-15 17.285
v  3.695 -7.94061e-16 12.968
v  10.92 2.49644e-16 -4.077
v  14.068 3.21592e-16 -5.252
v  6.5 -1.03287e-15 16.868
v  6.882 -1.02313e-15 16.709
v  14.927 -4.09032e-16 6.68
v  18.118 -3.36533e-16 5.496
v  15.018 -4.0695e-16 6.646
v  17.159 -7.61853e-16 12.442
v  11.248 -9.12117e-16 14.896
v  14.959 11.214 6.761
v  16.142 -6.00995e-16 9.815
v  14.959 -4.13992e-16 6.761
v  16.09 -6.91925e-18 0.113
v  14.179 3.03651e-16 -4.959

# 0 UV coordinates

# 73 vertex normals
vn -0.586821 0.778018 0.224342
vn -0.586835 0.778007 0.224342
vn -0.586939 0.777952 0.224263
vn -0.591511 0.777767 0.212588
vn -0.591133 0.777775 0.213607
vn -0.586957 0.777932 0.224285
vn -0.586872 0.777979 0.224345
vn -0.586925 0.77798 0.224203
vn 0.587002 0.777897 -0.224287
vn 0.587002 0.777897 -0.224287
vn 0.587015 0.777948 -0.224075
vn 0.584433 0.777902 -0.230884
vn 0.586962 0.777901 -0.224379
vn 0.233427 0.74511 0.624759
vn 0.233279 0.744994 0.624952
vn 0.23324 0.744939 0.625033
vn 0.233334 0.744972 0.624958
vn -0.233321 0.745003 -0.624925
vn -0.235199 0.744461 -0.624868
vn -0.233268 0.744991 -0.62496
vn -0.233219 0.744991 -0.624978
vn -0.233346 0.744929 -0.625004
vn -0.233092 0.744776 -0.625281
vn -0.233498 0.745039 -0.624817
vn -0.233643 0.745136 -0.624647
vn -0.93442 -0.000391196 0.356173
vn -0.934439 0.000814369 0.356123
vn -0.934449 0.00133393 0.356096
vn -0.934411 0 0.356197
vn -0.934402 -2.40593e-05 0.35622
vn -0.934411 3.84452e-06 0.356197
vn -0.934402 0 0.35622
vn 0 -1 -6.12225e-17
vn 0 -1 -6.12326e-17
vn -1.87982e-20 -1 -6.12164e-17
vn -0.933301 0 0.359095
vn -0.933301 0 0.359095
vn -0.371982 0 -0.92824
vn -0.349769 0 -0.936836
vn -0.349688 -9.01064e-05 -0.936866
vn -0.349769 2.59749e-05 -0.936836
vn -0.349688 0 -0.936866
vn 0.342468 0 0.939529
vn 0.384273 0 0.92322
vn 0.349996 -0 0.936751
vn 0.347807 2.02311e-05 0.937566
vn 0.347869 0 0.937543
vn 7.058e-20 -1 -6.10517e-17
vn 0.383466 5.07538e-05 0.923555
vn 0.383566 0.000948313 0.923513
vn 0.383487 -2.88615e-05 0.923546
vn 0.38346 0 0.923557
vn 8.54018e-20 -1 -6.10196e-17
vn 0.932557 0 -0.361024
vn 0.932485 -4.98054e-05 -0.361209
vn 0.930032 -0.00369774 -0.36746
vn 0.932557 0.000111132 -0.361024
vn 0.932423 0 -0.36137
vn -1.99919e-20 1 6.12403e-17
vn 0.935792 0 -0.352552
vn 0.935785 -7.70541e-06 -0.352572
vn 0.935443 -0.000945851 -0.353476
vn 0.935792 6.51577e-05 -0.352552
vn 0.935747 0 -0.352671
vn 4.09581e-20 1 6.12162e-17
vn -1.88569e-23 -1 -6.12324e-17
vn 1.45317e-24 -1 -6.12323e-17
vn 0 -1 -6.12325e-17
vn 1.12379e-23 -1 -6.12324e-17
vn -3.59174e-22 -1 -6.12322e-17
vn 2.19175e-23 -1 -6.12323e-17
vn 4.2102e-23 -1 -6.12324e-17
vn -5.12356e-22 -1 -6.12339e-17

# Mesh 'defaultobject' with 86 faces
g defaultobject
usemtl DefaultMaterial
f  1//1 2//1 3//1
f  2//2 1//2 4//2
f  4//3 1//3 5//3
f  5//4 1//4 6//4
f  6//5 1//5 7//5
f  8//6 9//6 10//6
f  9//7 8//7 4//7
f  4//8 8//8 2//8
f  11//9 4//9 5//9
f  4//9 11//9 12//10
f  4//11 12//11 13//11
f  4//12 13//12 14//12
f  4//13 14//13 9//13
f  15//14 9//14 14//14
f  9//15 15//15 16//15
f  9//16 16//16 17//16
f  17//17 16//17 18//17
f  19//18 17//18 18//18
f  17//19 19//19 20//19
f  17//20 20//20 21//20
f  17//21 21//21 9//21
f  9//22 21//22 22//22
f  9//23 22//23 23//23
f  9//24 23//24 24//24
f  9//25 24//25 10//25
f  24//26 8//26 10//26
f  8//27 24//27 23//27
f  8//28 23//28 22//28
f  8//29 22//29 25//29
f  8//30 25//30 2//30
f  2//31 25//29 26//31
f  2//32 26//32 27//32
f  26//33 25//33 28//33
f  28//33 25//33 29//34
f  28//33 29//34 30//35
f  3//36 31//36 1//36
f  31//36 3//36 32//37
f  27//38 3//38 2//38
f  3//38 27//38 32//38
f  21//39 25//39 22//39
f  25//40 21//40 20//40
f  25//41 20//41 33//41
f  33//42 20//42 34//42
f  1//43 35//43 7//43
f  35//43 1//43 31//43
f  36//44 7//44 35//44
f  37//45 15//45 14//45
f  15//46 37//46 16//46
f  16//47 37//47 38//47
f  38//48 37//48 39//48
f  6//49 11//49 5//49
f  11//50 6//50 7//50
f  11//51 7//51 36//51
f  11//52 36//52 40//52
f  40//53 36//53 41//53
f  40//54 12//54 11//54
f  12//55 40//55 42//55
f  42//56 40//56 14//56
f  14//57 40//57 43//57
f  14//58 43//58 37//58
f  37//59 43//59 44//59
f  38//60 18//60 16//60
f  18//61 38//61 19//61
f  19//62 38//62 20//62
f  20//63 38//63 45//63
f  20//64 45//64 34//64
f  34//65 45//65 46//65
f  46//66 33//66 34//66
f  33//66 46//66 45//67
f  33//66 45//67 38//48
f  33//66 38//48 25//33
f  25//33 38//48 39//48
f  25//33 39//48 37//48
f  25//33 37//48 44//68
f  25//33 44//68 43//69
f  25//33 43//69 40//53
f  25//33 40//53 41//53
f  25//33 41//53 29//34
f  29//34 41//53 30//35
f  30//35 41//53 28//33
f  28//33 41//53 26//33
f  26//33 41//53 36//53
f  26//33 36//53 27//70
f  27//70 36//53 32//71
f  32//71 36//53 31//72
f  31//72 36//53 35//73

