# {"id":"ID_17384","idOriginal":"ID_17384","origin":[14.308077653382822,48.316222297678216],"elevation":253.165,"wof":[{"Id":102049853,"Name":"Linz","Placetype":"county","Offset":-1},{"Id":101748071,"Name":"Linz","Placetype":"locality","Offset":-1},{"Id":85681677,"Name":"Oberösterreich","Placetype":"region","Offset":-1},{"Id":85898449,"Name":"Steeg","Placetype":"neighbourhood","Offset":-1},{"Id":85632785,"Name":"Austria","Placetype":"country","Offset":-1}]}

# Attribution: City of Linz <http://geo.data.linz.gv.at/katalog/geodata/3d_geo_daten_lod2/>
# Longitude: 14.308077653382822
# Latitude: 48.316222297678216
# Elevation: 253.165

# File produced by Open Asset Import Library (http://www.assimp.sf.net)
# (assimp v3.1.0)


# 47 vertex positions
v  15.947 7.503 -3.6
v  12.567 12.459 0.086
v  19.553 7.503 0.694
v  13.048 11.287 -1.166
v  12.15 12.459 -0.412
v  11.958 7.502 7.072
v  11.251 11.287 0.343
v  8.352 7.503 2.777
v  8.352 -1.70042e-16 2.777
v  11.958 -4.33035e-16 7.072
v  19.553 -4.24952e-17 0.694
v  15.947 2.20436e-16 -3.6
v  11.251 -2.10027e-17 0.343
v  13.048 7.13969e-17 -1.166
v  12.15 2.52277e-17 -0.412
v  2.809 4.41 2.365
v  4.758 3.694 5.666
v  8.135 3.694 2.829
v  2.327 4.41 2.771
v  3.454 3.675 -2.901
v  8.212 3.675 2.765
v  3.253 3.725 -2.732
v  0 3.725 2.2809e-16
v  0 0 0
v  2.327 -1.69675e-16 2.771
v  4.758 -3.46942e-16 5.666
v  8.135 -1.73226e-16 2.829
v  8.212 -1.69307e-16 2.765
v  3.454 1.77635e-16 -2.901
v  3.253 1.67287e-16 -2.732
v  8.212 11.189 2.765
v  3.816 3.879 -3.205
v  3.454 3.879 -2.901
v  10.625 3.72 -9.134
v  12.735 6.961 -6.621
v  13.131 6.962 -6.953
v  8.288 11.189 2.701
v  15.947 11.287 -3.6
v  12.15 11.287 -0.412
v  8.352 11.287 2.777
v  3.712 3.719 -3.329
v  8.288 -1.65389e-16 2.701
v  13.131 4.25748e-16 -6.953
v  12.735 4.05419e-16 -6.621
v  10.625 5.59296e-16 -9.134
v  3.712 2.03842e-16 -3.329
v  3.816 1.9625e-16 -3.205

# 0 UV coordinates

# 85 vertex normals
vn 0.541342 0.707307 -0.454606
vn 0.542164 0.707229 -0.453747
vn 0.54201 0.707278 -0.453853
vn 0.454598 0.707228 0.541451
vn -0.541685 0.707702 0.45358
vn -0.541155 0.707362 0.454742
vn -0.541372 0.707229 0.45469
vn -0.765863 0 0.643004
vn 0.643086 0 0.765794
vn 0.643086 0 0.765794
vn 0.765789 0 -0.643092
vn -0.643072 -5.27959e-05 -0.765806
vn -0.643072 -7.81899e-05 -0.765806
vn -0.643035 0 -0.765837
vn -0.64302 1.05164e-05 -0.765849
vn -0.643035 -1.50491e-05 -0.765837
vn -0.643012 -0 -0.765856
vn -3.81258e-20 1 6.11538e-17
vn 0 1 6.12128e-17
vn -7.61556e-24 -1 -6.12323e-17
vn 4.9875e-24 -1 -6.12323e-17
vn 4.02529e-24 -1 -6.12323e-17
vn 4.02084e-24 -1 -6.12323e-17
vn 0 -1 -6.12323e-17
vn 0.119677 0.982539 0.142456
vn 0.119888 0.982532 0.14233
vn 0.142775 0.982467 -0.119895
vn 0.142513 0.982531 -0.119681
vn 0.143903 0.982352 -0.119486
vn -0.119651 0.982541 -0.142469
vn -0.119829 0.982549 -0.14226
vn -0.765792 -3.93778e-17 0.643088
vn -0.765807 1.88883e-05 0.643071
vn -0.765792 -2.71833e-05 0.643088
vn -0.765809 0 0.643068
vn 0.643235 -0 0.765669
vn 0.639204 0 0.769037
vn 0.639204 0 0.769037
vn 0.765801 0 -0.643078
vn -0.64312 0 -0.765765
vn -0.643473 0.000525453 -0.765469
vn -0.64312 -4.00736e-05 -0.765765
vn -0.64355 0 -0.765404
vn 7.93784e-25 -1 -6.12324e-17
vn 7.77474e-25 -1 -6.12323e-17
vn -5.15257e-23 -1 -6.12322e-17
vn 0 -1 -6.12324e-17
vn -0.451982 0.711362 -0.538216
vn -0.452019 0.711361 -0.538186
vn -0.451819 0.711468 -0.538213
vn -0.453191 0.710444 -0.538412
vn -0.453437 0.710257 -0.538452
vn -0.45187 0.711451 -0.538192
vn -0.45196 0.71131 -0.538304
vn -0.451616 0.711858 -0.537867
vn -0.451555 0.711957 -0.537788
vn 0 1 0
vn -0.452171 0.711137 -0.538355
vn 0.643012 0 0.765856
vn 0.643032 8.4308e-06 0.765839
vn 0.643112 5.47704e-05 0.765772
vn 0.643012 -1.62053e-05 0.765856
vn 0.643012 -1.62053e-05 0.765856
vn 0.643032 -2.46799e-06 0.76584
vn 0.643036 0 0.765836
vn 0 1 6.12034e-17
vn 0.644134 -0 0.764913
vn 0.765763 0 -0.643123
vn 0.765763 0 -0.643123
vn 0.765843 0 -0.643028
vn 0.765843 0 -0.643028
vn -0.642466 0 -0.766314
vn -0.642466 -0 -0.766314
vn -0.643067 0 -0.76581
vn -0.643067 -0 -0.76581
vn -0.643093 0 -0.765788
vn -0.766191 0 0.642612
vn -0.766191 0 0.642612
vn -0.765801 0 0.643078
vn -0.765801 0 0.643078
vn -0.76491 0 0.644137
vn -0.764911 0 0.644137
vn 0 -1 -6.12322e-17
vn 2.29437e-22 -1 -6.12323e-17
vn 0 -1 -6.12323e-17

# Mesh 'defaultobject' with 100 faces
g defaultobject
usemtl DefaultMaterial
f  1//1 2//1 3//1
f  2//2 1//2 4//2
f  2//3 4//3 5//3
f  2//4 6//4 3//4
f  7//5 2//5 5//5
f  2//6 7//6 6//6
f  6//7 7//7 8//7
f  9//8 6//8 8//8
f  6//8 9//8 10//8
f  6//9 11//9 3//9
f  11//9 6//9 10//10
f  11//11 1//11 3//11
f  1//11 11//11 12//11
f  4//12 7//12 5//12
f  7//13 4//13 1//13
f  7//14 1//14 12//14
f  7//15 12//15 8//15
f  8//16 12//16 13//16
f  8//17 13//17 9//17
f  13//18 12//18 14//18
f  13//18 14//18 15//19
f  10//20 12//20 11//20
f  12//20 10//20 14//21
f  14//21 10//20 15//22
f  15//22 10//20 13//23
f  13//23 10//20 9//24
f  16//25 17//25 18//25
f  17//26 16//26 19//26
f  20//27 18//27 21//27
f  18//28 20//28 16//28
f  16//29 20//29 22//29
f  23//30 16//30 22//30
f  16//31 23//31 19//31
f  24//32 19//32 23//32
f  19//33 24//33 17//33
f  17//34 24//34 25//34
f  17//35 25//35 26//35
f  26//36 18//36 17//36
f  18//36 26//36 27//36
f  18//37 27//37 21//37
f  21//37 27//37 28//38
f  28//39 20//39 21//39
f  20//39 28//39 29//39
f  22//40 24//40 23//40
f  24//41 22//41 20//41
f  24//42 20//42 30//42
f  30//43 20//43 29//43
f  25//44 27//44 26//44
f  27//44 25//44 24//45
f  27//44 24//45 28//46
f  28//46 24//45 30//24
f  28//46 30//24 29//47
f  31//48 32//48 33//48
f  32//49 31//49 34//49
f  34//50 31//50 35//50
f  35//51 31//51 36//51
f  36//52 31//52 37//52
f  36//53 37//53 38//53
f  38//54 37//54 4//54
f  4//55 37//55 39//55
f  39//56 37//56 40//56
f  39//57 40//57 7//57
f  34//58 41//58 32//58
f  4//59 12//59 38//59
f  12//60 4//60 39//60
f  12//61 39//61 7//61
f  12//62 7//62 40//62
f  12//62 40//62 14//63
f  14//64 40//64 15//64
f  15//64 40//64 9//65
f  15//19 9//66 13//18
f  28//67 37//67 31//67
f  37//67 28//67 42//67
f  12//68 36//68 38//68
f  36//68 12//68 43//69
f  44//70 34//70 35//70
f  34//70 44//70 45//71
f  43//72 35//72 36//72
f  35//72 43//72 44//73
f  45//74 41//74 34//74
f  41//74 45//74 46//75
f  47//76 33//76 32//76
f  33//76 47//76 29//76
f  41//77 47//77 32//77
f  47//77 41//77 46//78
f  33//79 28//79 31//79
f  28//79 33//79 29//80
f  37//81 9//81 40//81
f  9//81 37//81 42//82
f  45//83 47//83 46//83
f  47//83 45//83 28//46
f  28//46 45//83 42//84
f  42//84 45//83 9//24
f  9//24 45//83 13//23
f  13//23 45//83 15//22
f  15//22 45//83 14//21
f  14//21 45//83 44//24
f  14//21 44//24 12//20
f  12//20 44//24 43//85
f  28//46 29//47 47//83

