# {"id":"ID_39952","idOriginal":"ID_39952","origin":[14.285549972157837,48.30480983983342],"elevation":262.522}
# Longitude: 14.285549972157837
# Latitude: 48.30480983983342
# Elevation: 262.522

# File produced by Open Asset Import Library (http://www.assimp.sf.net)
# (assimp v3.1.0)

mtllib ID_39952.obj.mtl

# 18 vertex positions
v  0.97 14.067 1.654
v  3.132 14.072 0.428
v  0 13.414 8.21371e-16
v  4.037 13.963 -0.464
v  16.165 13.414 -9.291
v  4.172 14.068 -0.183
v  6.356 13.958 -1.813
v  13.449 13.905 -6.069
v  17.021 13.942 -7.996
v  17.021 4.89614e-16 -7.996
v  13.449 3.71619e-16 -6.069
v  0.97 -1.01278e-16 1.654
v  4.172 1.12055e-17 -0.183
v  3.132 -2.62074e-17 0.428
v  4.037 2.84118e-17 -0.464
v  6.356 1.11014e-16 -1.813
v  16.165 5.6891e-16 -9.291
v  0 0 0

# 0 UV coordinates

# 32 vertex normals
vn -0.160679 0.946608 -0.279491
vn -0.160804 0.946779 -0.27884
vn -0.160882 0.94645 -0.279911
vn -0.159363 0.947429 -0.277458
vn -0.160456 0.94669 -0.279341
vn -0.160811 0.946496 -0.279793
vn -0.160698 0.946542 -0.279705
vn 0.47479 0 0.880099
vn 0.47479 0 0.880099
vn 0.493277 -0 0.869873
vn 0.50654 -0.00270507 0.862213
vn 0.497626 0 0.867392
vn 1.44039e-22 1 6.12327e-17
vn 0.502828 -0 0.864387
vn 0.514497 -0.00260554 0.857488
vn 0.51166 0 0.859188
vn 3.51514e-22 1 6.12324e-17
vn 0.834225 0 -0.551425
vn 0.834225 0 -0.551425
vn 0.901373 0 -0.433043
vn 0.901373 0 -0.433043
vn -0.498315 0 -0.866996
vn -0.498315 5.30882e-17 -0.866996
vn -0.862604 0 0.50588
vn -0.862604 0 0.50588
vn 0 -1 -6.12323e-17
vn 1.5286e-22 -1 -6.12321e-17
vn -1.61603e-23 -1 -6.12324e-17
vn 3.86501e-23 -1 -6.12323e-17
vn 5.62471e-23 -1 -6.12322e-17
vn 2.10906e-23 -1 -6.12323e-17
vn 2.20743e-24 -1 -6.12323e-17

# Mesh 'defaultobject' with 32 faces
g defaultobject
usemtl DefaultMaterial
f  1//1 2//1 3//1
f  4//2 3//2 2//2
f  5//3 3//3 4//3
f  6//4 4//4 2//4
f  7//5 5//5 4//5
f  8//6 5//6 7//6
f  9//7 5//7 8//7
f  8//8 10//8 9//8
f  10//8 8//8 11//9
f  12//10 2//10 1//10
f  2//11 12//11 6//11
f  6//12 12//12 13//12
f  13//13 12//13 14//13
f  15//14 7//14 4//14
f  7//15 15//15 8//15
f  8//16 15//16 11//16
f  11//17 15//17 16//17
f  10//18 5//18 9//18
f  5//18 10//18 17//19
f  13//20 4//20 6//20
f  4//20 13//20 15//21
f  17//22 3//22 5//22
f  3//22 17//22 18//23
f  3//24 12//24 1//24
f  12//24 3//24 18//25
f  17//26 12//26 18//26
f  12//26 17//26 15//27
f  12//26 15//27 14//28
f  15//27 17//26 16//29
f  16//29 17//26 11//30
f  11//30 17//26 10//31
f  13//32 14//28 15//27

