# {"id":"ID_43684","idOriginal":"ID_43684","origin":[14.290982364999296,48.266061925412984],"elevation":280.77}
# Longitude: 14.290982364999296
# Latitude: 48.266061925412984
# Elevation: 280.77

# File produced by Open Asset Import Library (http://www.assimp.sf.net)
# (assimp v3.1.0)

mtllib ID_43684.obj.mtl

# 8 vertex positions
v  0 2.965 1.81554e-16
v  7.162 1.039 -0.945
v  4.951 3.043 -3.859
v  2.097 1.039 2.821
v  4.951 2.36296e-16 -3.859
v  7.162 5.78646e-17 -0.945
v  0 0 0
v  2.097 -1.72736e-16 2.821

# 0 UV coordinates

# 10 vertex normals
vn 0.286717 0.876997 0.385577
vn 0.286717 0.87698 0.385614
vn 0.796641 0 -0.604452
vn -0.614756 0 -0.788717
vn -0.614756 4.8295e-17 -0.788717
vn -0.802553 -3.653e-17 0.596581
vn -0.802553 0 0.596581
vn 0.596674 -0 0.802484
vn -4.58628e-24 -1 -6.12323e-17
vn 4.79979e-24 -1 -6.12323e-17

# Mesh 'defaultobject' with 12 faces
g defaultobject
usemtl DefaultMaterial
f  1//1 2//1 3//1
f  2//2 1//2 4//2
f  2//3 5//3 3//3
f  5//3 2//3 6//3
f  5//4 1//4 3//4
f  1//4 5//4 7//5
f  7//6 4//6 1//6
f  4//6 7//6 8//7
f  8//8 2//8 4//8
f  2//8 8//8 6//8
f  8//9 5//9 6//9
f  5//9 8//9 7//10

