# {"id":"ID_45469","idOriginal":"ID_45469","origin":[14.308251829188793,48.318361276757194],"elevation":253.669,"wof":[{"Id":102049853,"Name":"Linz","Placetype":"county","Offset":-1},{"Id":101748071,"Name":"Linz","Placetype":"locality","Offset":-1},{"Id":85681677,"Name":"Oberösterreich","Placetype":"region","Offset":-1},{"Id":85898449,"Name":"Steeg","Placetype":"neighbourhood","Offset":-1},{"Id":85632785,"Name":"Austria","Placetype":"country","Offset":-1}]}

# Attribution: City of Linz <http://geo.data.linz.gv.at/katalog/geodata/3d_geo_daten_lod2/>
# Longitude: 14.308251829188793
# Latitude: 48.318361276757194
# Elevation: 253.669

# File produced by Open Asset Import Library (http://www.assimp.sf.net)
# (assimp v3.1.0)


# 10 vertex positions
v  0 3.131 1.91718e-16
v  2.601 3.131 -0.976
v  2.576 3.131 -1.037
v  5.262 3.131 5.631
v  2.794 3.131 6.624
v  2.576 6.34979e-17 -1.037
v  0 0 0
v  2.794 -4.05603e-16 6.624
v  5.262 -3.44799e-16 5.631
v  2.601 5.97628e-17 -0.976

# 0 UV coordinates

# 13 vertex normals
vn 0 1 0
vn -0.373439 0 -0.927655
vn -0.373439 5.68025e-17 -0.927655
vn -0.921389 -2.37974e-17 0.388641
vn -0.921389 0 0.388641
vn 0.373269 -0 0.927723
vn 0.925304 0 -0.379225
vn 0.927593 -0.000128012 -0.373592
vn 0.925216 0.0138296 -0.379189
vn 0.927593 0 -0.373592
vn 0 -1 -6.12323e-17
vn -2.37627e-21 -1 -6.12323e-17
vn 5.58775e-24 -1 -6.12323e-17

# Mesh 'defaultobject' with 16 faces
g defaultobject
usemtl DefaultMaterial
f  1//1 2//1 3//1
f  2//1 1//1 4//1
f  4//1 1//1 5//1
f  6//2 1//2 3//2
f  1//2 6//2 7//3
f  7//4 5//4 1//4
f  5//4 7//4 8//5
f  8//6 4//6 5//6
f  4//6 8//6 9//6
f  2//7 6//7 3//7
f  6//8 2//8 4//8
f  6//9 4//9 10//9
f  10//10 4//10 9//10
f  6//11 8//11 7//11
f  8//11 6//11 10//12
f  8//11 10//12 9//13

