# File produced by Open Asset Import Library (http://www.assimp.sf.net)
# (assimp v3.1.0)

mtllib ID_15457.obj.mtl

# 14 vertex positions
v  13.324 10.487 -4.325
v  20.449 6.828 -3.598
v  14.05 6.828 -11.45
v  19.657 6.828 -2.953
v  6.398 6.828 7.852
v  7.125 10.487 0.727
v  0 6.828 4.18094e-16
v  6.192 6.828 7.599
v  6.398 -4.80796e-16 7.852
v  6.192 -4.65305e-16 7.599
v  0 0 0
v  19.657 1.80819e-16 -2.953
v  20.449 2.20314e-16 -3.598
v  14.05 7.0111e-16 -11.45

# 0 UV coordinates

# 21 vertex normals
vn 0.454004 0.810547 -0.369991
vn 0.369883 0.810497 0.454182
vn 0.369965 0.810567 0.45399
vn 0.369999 0.810544 0.454003
vn -0.369953 0.810589 -0.45396
vn -0.369968 0.810579 -0.453966
vn -0.454008 0.810565 0.369946
vn -0.454249 0.810469 0.369862
vn -0.775458 0 0.631399
vn -0.775224 1.77005e-05 0.631687
vn -0.775458 -0.000531805 0.631399
vn -0.775224 0 0.631687
vn 0.631721 -0 0.775196
vn 0.631477 0 0.775395
vn 0.775183 0 -0.631737
vn -0.631734 0 -0.775185
vn -0.631734 4.74664e-17 -0.775185
vn -2.55842e-24 -1 -6.12323e-17
vn -2.30695e-24 -1 -6.12323e-17
vn -6.31517e-25 -1 -6.12323e-17
vn 8.06375e-23 -1 -6.12322e-17

# Mesh 'defaultobject' with 24 faces
g defaultobject
usemtl DefaultMaterial
f  1//1 2//1 3//1
f  1//2 4//2 2//2
f  4//3 1//3 5//3
f  5//4 1//4 6//4
f  6//5 3//5 7//5
f  3//6 6//6 1//6
f  8//7 6//7 7//7
f  6//8 8//8 5//8
f  8//9 9//9 5//9
f  9//10 8//10 7//10
f  9//11 7//11 10//11
f  10//12 7//12 11//12
f  9//13 4//13 5//13
f  4//13 9//13 12//13
f  4//14 12//14 2//14
f  2//14 12//14 13//14
f  13//15 3//15 2//15
f  3//15 13//15 14//15
f  14//16 7//16 3//16
f  7//16 14//16 11//17
f  12//18 14//18 13//18
f  14//18 12//18 11//19
f  11//19 12//18 10//20
f  10//20 12//18 9//21

