# File produced by Open Asset Import Library (http://www.assimp.sf.net)
# (assimp v3.1.0)

mtllib ID_16448.obj.mtl

# 8 vertex positions
v  19.121 3.213 10.758
v  3.895 4.409 -6.923
v  0 3.203 1.96127e-16
v  22.985 4.409 3.89
v  22.985 -2.38194e-16 3.89
v  3.895 4.23911e-16 -6.923
v  0 0 0
v  19.121 -6.58738e-16 10.758

# 0 UV coordinates

# 11 vertex normals
vn -0.0739948 0.98867 0.130598
vn -0.0739535 0.988678 0.130562
vn 0.492852 0 -0.870113
vn -0.871532 0 -0.490339
vn -0.871532 3.00246e-17 -0.490339
vn -0.490346 0 0.871528
vn -0.490346 0 0.871528
vn 0.871535 0 0.490334
vn 0.871535 0 0.490334
vn 0 -1 -6.12323e-17
vn 0 -1 -6.12323e-17

# Mesh 'defaultobject' with 12 faces
g defaultobject
usemtl DefaultMaterial
f  1//1 2//1 3//1
f  2//2 1//2 4//2
f  5//3 2//3 4//3
f  2//3 5//3 6//3
f  6//4 3//4 2//4
f  3//4 6//4 7//5
f  3//6 8//6 1//6
f  8//6 3//6 7//7
f  1//8 5//8 4//8
f  5//8 1//8 8//9
f  5//10 7//10 6//10
f  7//10 5//10 8//11

