# File produced by Open Asset Import Library (http://www.assimp.sf.net)
# (assimp v3.1.0)

mtllib ID_12609.obj.mtl

# 38 vertex positions
v  0 11.933 7.30686e-16
v  0.083 11.933 0.296
v  4.012 11.933 -1.137
v  2.516 11.933 -0.39
v  2.802 11.933 0.645
v  3.983 11.933 0.301
v  8.305 11.933 -2.354
v  4.386 11.933 0.199
v  4.473 11.933 0.177
v  7.159 11.933 9.702
v  7.643 11.933 11.863
v  11.981 11.933 10.638
v  18.284 11.933 -5.173
v  21.914 11.933 7.827
v  3.054 11.933 10.877
v  3.648 11.933 12.992
v  5.423 11.933 10.207
v  6.676 11.933 9.852
v  7.049 11.933 9.736
v  0.083 -1.81248e-17 0.296
v  2.516 2.38806e-17 -0.39
v  2.802 -3.94949e-17 0.645
v  3.983 -1.84309e-17 0.301
v  4.473 -1.08381e-17 0.177
v  4.386 -1.21852e-17 0.199
v  3.648 -7.95531e-16 12.992
v  7.643 -7.26399e-16 11.863
v  21.914 -4.79265e-16 7.827
v  11.981 -6.5139e-16 10.638
v  7.159 -5.94076e-16 9.702
v  3.054 -6.66024e-16 10.877
v  0 0 0
v  6.676 -6.03261e-16 9.852
v  7.049 -5.96158e-16 9.736
v  5.423 -6.24998e-16 10.207
v  18.284 3.16755e-16 -5.173
v  8.305 1.44141e-16 -2.354
v  4.012 6.96212e-17 -1.137

# 0 UV coordinates

# 40 vertex normals
vn -0 1 0
vn 0.271376 -0 0.962474
vn 0.279657 -0 0.9601
vn 0.245365 -0 0.969431
vn 0.245157 7.45772e-06 0.969483
vn 0.245328 0 0.96944
vn -2.10392e-20 -1 -6.1318e-17
vn 0.271952 -0 0.962311
vn 0.27176 6.93053e-05 0.962365
vn 0.272302 -0.000339276 0.962212
vn 0.271952 0.000239326 0.962311
vn 0.272138 0 0.962258
vn 2.02035e-21 1 6.12409e-17
vn -0.963877 0 0.266347
vn -0.962464 0 0.27141
vn -0.962751 0 0.27039
vn -0.962863 -1.65322e-17 0.269992
vn -0.962863 0 0.269992
vn -0.295309 0 -0.955402
vn -0.296963 -1.67116e-05 -0.954889
vn -0.296587 -0 -0.955006
vn -7.16787e-20 1 6.10012e-17
vn -0.27259 0 -0.96213
vn -0.272145 5.05008e-05 -0.962256
vn -0.272299 -0 -0.962213
vn 8.92032e-21 -1 -6.12023e-17
vn -0.271854 0 -0.962338
vn -0.272737 -0 -0.962089
vn -0.272662 2.94091e-05 -0.96211
vn -0.272701 5.89116e-17 -0.962099
vn 9.0468e-21 -1 -6.12287e-17
vn 0.963156 0 -0.268943
vn 0 -1 -6.12323e-17
vn 1.06444e-24 -1 -6.12323e-17
vn 0 -1 -6.12323e-17
vn 2.00553e-24 -1 -6.12323e-17
vn 1.31068e-24 -1 -6.12324e-17
vn 4.0485e-23 -1 -6.1232e-17
vn 3.73149e-24 -1 -6.12323e-17
vn 7.16752e-20 -1 -6.09996e-17

# Mesh 'defaultobject' with 72 faces
g defaultobject
usemtl DefaultMaterial
f  1//1 2//1 3//1
f  4//1 3//1 2//1
f  5//1 3//1 4//1
f  6//1 3//1 5//1
f  7//1 3//1 6//1
f  8//1 7//1 6//1
f  9//1 7//1 8//1
f  10//1 7//1 9//1
f  11//1 7//1 10//1
f  12//1 7//1 11//1
f  13//1 7//1 12//1
f  14//1 13//1 12//1
f  15//1 16//1 17//1
f  11//1 17//1 16//1
f  18//1 17//1 11//1
f  19//1 18//1 11//1
f  10//1 19//1 11//1
f  20//2 4//2 2//2
f  4//2 20//2 21//2
f  22//3 6//3 5//3
f  6//3 22//3 23//3
f  23//4 8//4 6//4
f  8//5 23//5 9//5
f  9//6 23//6 24//6
f  24//7 23//7 25//7
f  26//8 11//8 16//8
f  11//9 26//9 12//9
f  12//10 26//10 14//10
f  14//11 26//11 27//11
f  14//12 27//12 28//12
f  28//13 27//13 29//13
f  21//14 5//14 4//14
f  5//14 21//14 22//14
f  24//15 10//15 9//15
f  10//15 24//15 30//15
f  31//16 16//16 15//16
f  16//16 31//16 26//16
f  32//17 2//17 1//17
f  2//17 32//17 20//18
f  30//19 19//19 10//19
f  19//20 30//20 18//20
f  18//21 30//21 33//21
f  33//22 30//22 34//22
f  33//23 17//23 18//23
f  17//24 33//24 15//24
f  15//25 33//25 31//25
f  31//26 33//26 35//26
f  36//27 7//27 13//27
f  7//27 36//27 37//27
f  7//28 37//28 3//28
f  3//29 37//29 1//29
f  1//30 37//30 32//30
f  32//31 37//31 38//31
f  28//32 13//32 14//32
f  13//32 28//32 36//32
f  21//33 23//7 22//33
f  23//7 21//33 25//7
f  25//7 21//33 24//7
f  32//31 21//33 20//34
f  21//33 32//31 38//31
f  31//26 27//35 26//35
f  27//35 31//26 29//36
f  29//36 31//26 28//37
f  28//37 31//26 35//26
f  28//37 35//26 33//26
f  28//37 33//26 30//38
f  28//37 30//38 36//39
f  30//38 33//26 34//40
f  36//39 30//38 24//7
f  36//39 24//7 21//33
f  36//39 21//33 38//31
f  36//39 38//31 37//31

