# File produced by Open Asset Import Library (http://www.assimp.sf.net)
# (assimp v3.1.0)

mtllib ID_26383.obj.mtl

# 10 vertex positions
v  4.242 5.7 -6.131
v  9.849 5.7 6.737
v  13.982 5.7 0.498
v  9.639 5.7 6.59
v  0 5.7 3.49024e-16
v  9.849 -4.12522e-16 6.737
v  13.982 -3.04937e-17 0.498
v  4.242 3.75415e-16 -6.131
v  0 0 0
v  9.639 -4.03521e-16 6.59

# 0 UV coordinates

# 12 vertex normals
vn 0 1 0
vn 0.833671 -0 0.552262
vn 0.562647 0 -0.826697
vn -0.822351 0 -0.56898
vn -0.822351 3.484e-17 -0.56898
vn -0.573462 0 0.819232
vn -0.564386 0.000496294 0.825511
vn -0.573315 -0.0226009 0.819023
vn -0.564386 0 0.825511
vn -1.20773e-22 -1 -6.12324e-17
vn -2.40291e-24 -1 -6.12323e-17
vn 0 -1 -6.12323e-17

# Mesh 'defaultobject' with 16 faces
g defaultobject
usemtl DefaultMaterial
f  1//1 2//1 3//1
f  2//1 1//1 4//1
f  4//1 1//1 5//1
f  6//2 3//2 2//2
f  3//2 6//2 7//2
f  7//3 1//3 3//3
f  1//3 7//3 8//3
f  8//4 5//4 1//4
f  5//4 8//4 9//5
f  4//6 6//6 2//6
f  6//7 4//7 5//7
f  6//8 5//8 10//8
f  10//9 5//9 9//9
f  10//10 7//10 6//10
f  7//10 10//10 8//11
f  8//11 10//10 9//12

