# File produced by Open Asset Import Library (http://www.assimp.sf.net)
# (assimp v3.1.0)

mtllib ID_39822.obj.mtl

# 14 vertex positions
v  3.649 3.051 -1.382
v  4.605 3.467 6.582
v  6.436 3.051 5.929
v  1.827 3.467 -0.704
v  2.087 3.407 -0.804
v  0 3.049 1.86697e-16
v  2.793 3.056 7.229
v  0 0 0
v  1.827 4.31076e-17 -0.704
v  2.087 4.92308e-17 -0.804
v  3.649 8.46231e-17 -1.382
v  2.793 -4.42649e-16 7.229
v  6.436 -3.63047e-16 5.929
v  4.605 -4.03031e-16 6.582

# 0 UV coordinates

# 21 vertex normals
vn 0.195577 0.97785 -0.0745551
vn 0.195525 0.977861 -0.0745494
vn 0.150765 0.970123 -0.190083
vn -0.195086 0.977961 0.0743823
vn -0.195221 0.977927 0.0744787
vn -0.359561 0 -0.933122
vn -0.359042 -0.00031374 -0.933321
vn -0.348565 -0.00765945 -0.937253
vn -0.359551 0.00736243 -0.933096
vn -0.358971 0.00696542 -0.933323
vn -0.347041 0 -0.93785
vn -0.932799 0 0.360397
vn -0.932799 0 0.360397
vn 0.336271 -0 0.941765
vn 0.335951 0.000188551 0.94188
vn 0.336091 0 0.94183
vn -9.31083e-21 -1 -6.12652e-17
vn 0.934409 0 -0.356203
vn 1.74446e-24 -1 -6.12323e-17
vn -9.74874e-23 -1 -6.12323e-17
vn 0 -1 -6.12323e-17

# Mesh 'defaultobject' with 24 faces
g defaultobject
usemtl DefaultMaterial
f  1//1 2//1 3//1
f  2//2 1//2 4//2
f  4//3 1//3 5//3
f  6//4 2//4 4//4
f  2//5 6//5 7//5
f  4//6 8//6 6//6
f  8//7 4//7 5//7
f  8//8 5//8 1//8
f  8//9 1//9 9//9
f  9//10 1//10 10//10
f  10//11 1//11 11//11
f  6//12 12//12 7//12
f  12//12 6//12 8//13
f  12//14 2//14 7//14
f  2//15 12//15 3//15
f  3//16 12//16 13//16
f  13//17 12//17 14//17
f  13//18 1//18 3//18
f  1//18 13//18 11//18
f  9//19 12//17 8//19
f  12//17 9//19 14//17
f  14//17 9//19 10//20
f  14//17 10//20 13//17
f  13//17 10//20 11//21

