# File produced by Open Asset Import Library (http://www.assimp.sf.net)
# (assimp v3.1.0)

mtllib ID_55499.obj.mtl

# 12 vertex positions
v  0 4.084 2.50073e-16
v  2.929 4.084 2.98
v  1.781 4.084 -0.511
v  2.723 4.084 3.049
v  1.168 4.084 3.639
v  2.757 4.084 3.15
v  2.929 -1.82472e-16 2.98
v  1.781 3.12897e-17 -0.511
v  2.757 -1.92882e-16 3.15
v  2.723 -1.86697e-16 3.049
v  0 0 0
v  1.168 -2.22824e-16 3.639

# 0 UV coordinates

# 13 vertex normals
vn -0 1 0
vn 0.949954 0 -0.312388
vn 0.947741 0 -0.319041
vn -0.27579 0 -0.961218
vn -0.27579 5.88576e-17 -0.961218
vn -0.952156 -1.87133e-17 0.305611
vn -0.952156 0 0.305611
vn 0.294128 -0 0.955766
vn 0.317609 -0 0.948222
vn 0 -1 -6.12323e-17
vn 0 -1 -6.12324e-17
vn -8.33987e-24 -1 -6.12323e-17
vn 5.60436e-23 -1 -6.12322e-17

# Mesh 'defaultobject' with 20 faces
g defaultobject
usemtl DefaultMaterial
f  1//1 2//1 3//1
f  2//1 1//1 4//1
f  4//1 1//1 5//1
f  4//1 5//1 6//1
f  7//2 3//2 2//2
f  3//2 7//2 8//2
f  9//3 4//3 6//3
f  4//3 9//3 10//3
f  8//4 1//4 3//4
f  1//4 8//4 11//5
f  11//6 5//6 1//6
f  5//6 11//6 12//7
f  12//8 6//8 5//8
f  6//8 12//8 9//8
f  10//9 2//9 4//9
f  2//9 10//9 7//9
f  7//10 11//10 8//10
f  11//10 7//10 10//11
f  11//10 10//11 12//12
f  12//12 10//11 9//13

