# {"id":"ID_7316","idOriginal":"ID_7316","origin":[14.355060361523549,48.25854273026586],"elevation":252.08,"wof":[{"Id":85681677,"Name":"Oberösterreich","Placetype":"region","Offset":-1},{"Id":85898441,"Name":"Posch","Placetype":"neighbourhood","Offset":-1},{"Id":102049853,"Name":"Linz","Placetype":"county","Offset":-1},{"Id":101748071,"Name":"Linz","Placetype":"locality","Offset":-1},{"Id":85632785,"Name":"Austria","Placetype":"country","Offset":-1}]}

# Attribution: City of Linz <http://geo.data.linz.gv.at/katalog/geodata/3d_geo_daten_lod2/>
# Longitude: 14.355060361523549
# Latitude: 48.25854273026586
# Elevation: 252.08

# File produced by Open Asset Import Library (http://www.assimp.sf.net)
# (assimp v3.1.0)


# 40 vertex positions
v  0.356 9.09 10.059
v  0.518 9.09 10.057
v  0 9.09 5.56602e-16
v  0.441 9.09 7.591
v  4.541 9.09 7.451
v  28.29 9.09 -1.018
v  9.051 9.09 7.301
v  9.121 9.09 9.551
v  15.301 9.09 7.091
v  19.841 9.09 6.921
v  19.921 9.09 9.171
v  26.121 9.09 6.691
v  26.191 9.09 8.941
v  30.867 9.09 8.974
v  30.271 9.09 -1.09
v  30.81 9.09 6.758
v  33.043 9.09 6.651
v  32.757 9.09 -1.179
v  15.381 9.09 9.341
v  4.611 9.09 9.701
v  4.611 -5.94015e-16 9.701
v  9.121 -5.8483e-16 9.551
v  9.051 -4.47057e-16 7.301
v  15.301 -4.34199e-16 7.091
v  15.381 -5.71971e-16 9.341
v  19.921 -5.61562e-16 9.171
v  19.841 -4.23789e-16 6.921
v  26.121 -4.09706e-16 6.691
v  26.191 -5.47478e-16 8.941
v  30.867 -5.49499e-16 8.974
v  30.81 -4.13808e-16 6.758
v  33.043 -4.07256e-16 6.651
v  0.356 -6.15936e-16 10.059
v  0.518 -6.15814e-16 10.057
v  0.441 -4.64815e-16 7.591
v  4.541 -4.56242e-16 7.451
v  32.757 7.21929e-17 -1.179
v  0 0 0
v  30.271 6.67433e-17 -1.09
v  28.29 6.23345e-17 -1.018

# 0 UV coordinates

# 40 vertex normals
vn 0 1 0
vn 0.0332412 -0 0.999447
vn 0.0335811 -0 0.999436
vn 0.0374187 -0 0.9993
vn 0.0365997 -0 0.99933
vn -0.00705714 0 0.999975
vn 0.0478626 -0 0.998854
vn 0.0123438 -0 0.999924
vn 0.0341264 -0 0.999418
vn 0.999516 0 -0.0310964
vn 0.999368 0 -0.0355331
vn 0.999669 0 -0.025714
vn 0.999334 0 -0.0365018
vn 0.999513 0 -0.0312094
vn -0.999368 0 0.0355331
vn -0.999516 0 0.0310959
vn -0.999374 -2.16573e-18 0.035369
vn -0.999374 0 0.035369
vn -0.999516 0 0.0310961
vn -0.0357776 0 -0.99936
vn -0.0363213 -0.000148908 -0.99934
vn -0.0359612 2.83112e-05 -0.999353
vn -0.0357776 0.000690829 -0.99936
vn -0.0363213 -0.00112234 -0.999339
vn -0.0359612 6.11927e-17 -0.999353
vn -1.19012e-23 -1 -6.12323e-17
vn 0 -1 -6.12323e-17
vn 9.69495e-24 -1 -6.12323e-17
vn -5.73223e-25 -1 -6.12323e-17
vn -4.88589e-25 -1 -6.12323e-17
vn 2.34595e-24 -1 -6.12323e-17
vn -1.06326e-23 -1 -6.12324e-17
vn -1.38112e-24 -1 -6.12323e-17
vn -2.8019e-23 -1 -6.12323e-17
vn 3.21425e-23 -1 -6.12323e-17
vn -7.77247e-24 -1 -6.12323e-17
vn 6.46955e-25 -1 -6.12323e-17
vn -7.49169e-24 -1 -6.12324e-17
vn -2.44296e-22 -1 -6.12323e-17
vn -4.05548e-23 -1 -6.12323e-17

# Mesh 'defaultobject' with 76 faces
g defaultobject
usemtl DefaultMaterial
f  1//1 2//1 3//1
f  4//1 3//1 2//1
f  5//1 3//1 4//1
f  6//1 3//1 5//1
f  7//1 6//1 5//1
f  8//1 7//1 5//1
f  9//1 6//1 7//1
f  10//1 6//1 9//1
f  11//1 10//1 9//1
f  12//1 6//1 10//1
f  13//1 14//1 12//1
f  6//1 12//1 14//1
f  15//1 6//1 14//1
f  16//1 15//1 14//1
f  17//1 15//1 16//1
f  18//1 15//1 17//1
f  9//1 19//1 11//1
f  5//1 20//1 8//1
f  21//2 8//2 20//2
f  8//2 21//2 22//2
f  23//3 9//3 7//3
f  9//3 23//3 24//3
f  25//4 11//4 19//4
f  11//4 25//4 26//4
f  27//5 12//5 10//5
f  12//5 27//5 28//5
f  29//6 14//6 13//6
f  14//6 29//6 30//6
f  31//7 17//7 16//7
f  17//7 31//7 32//7
f  33//8 2//8 1//8
f  2//8 33//8 34//8
f  35//9 5//9 4//9
f  5//9 35//9 36//9
f  22//10 7//10 8//10
f  7//10 22//10 23//10
f  26//11 10//11 11//11
f  10//11 26//11 27//11
f  30//12 16//12 14//12
f  16//12 30//12 31//12
f  32//13 18//13 17//13
f  18//13 32//13 37//13
f  34//14 4//14 2//14
f  4//14 34//14 35//14
f  24//15 19//15 9//15
f  19//15 24//15 25//15
f  28//16 13//16 12//16
f  13//16 28//16 29//16
f  38//17 1//17 3//17
f  1//17 38//17 33//18
f  36//19 20//19 5//19
f  20//19 36//19 21//19
f  37//20 15//20 18//20
f  15//21 37//21 6//21
f  6//22 37//22 3//22
f  3//23 37//23 39//23
f  3//24 39//24 40//24
f  3//25 40//25 38//25
f  32//26 31//26 37//26
f  40//27 35//27 38//27
f  35//27 40//27 36//28
f  36//28 40//27 23//29
f  36//28 23//29 21//30
f  23//29 40//27 24//31
f  24//31 40//27 25//32
f  25//32 40//27 27//27
f  27//27 40//27 28//33
f  28//33 40//27 39//34
f  28//33 39//34 29//35
f  29//35 39//34 30//36
f  30//36 39//34 31//26
f  31//26 39//34 37//26
f  26//37 25//32 27//27
f  22//38 21//30 23//29
f  35//27 33//39 38//27
f  33//39 35//27 34//40

