# {"id":"ID_29977","idOriginal":"ID_29977","origin":[14.307978446557078,48.31437032243561],"elevation":254.547,"wof":[{"Id":85681677,"Name":"Oberösterreich","Placetype":"region","Offset":-1},{"Id":85898449,"Name":"Steeg","Placetype":"neighbourhood","Offset":-1},{"Id":102049853,"Name":"Linz","Placetype":"county","Offset":-1},{"Id":101748071,"Name":"Linz","Placetype":"locality","Offset":-1},{"Id":85632785,"Name":"Austria","Placetype":"country","Offset":-1}]}

# Attribution: City of Linz <http://geo.data.linz.gv.at/katalog/geodata/3d_geo_daten_lod2/>
# Longitude: 14.307978446557078
# Latitude: 48.31437032243561
# Elevation: 254.547

# File produced by Open Asset Import Library (http://www.assimp.sf.net)
# (assimp v3.1.0)


# 14 vertex positions
v  11.691 6.658 0.617
v  3.552 9.523 -2.717
v  8.159 9.523 3.34
v  8.926 6.656 -3.025
v  7.091 6.661 -5.425
v  0 6.651 4.07256e-16
v  4.634 6.665 6.057
v  7.091 3.32185e-16 -5.425
v  8.926 1.85228e-16 -3.025
v  11.691 -3.77804e-17 0.617
v  0 0 0
v  3.552 1.66368e-16 -2.717
v  4.634 -3.70884e-16 6.057
v  8.159 -2.04516e-16 3.34

# 0 UV coordinates

# 23 vertex normals
vn 0.430198 0.841346 -0.327212
vn 0.430157 0.841434 -0.327037
vn 0.430139 0.84141 -0.327124
vn -0.430103 0.841422 0.32714
vn -0.430095 0.841439 0.327106
vn 0.794405 0 -0.607389
vn 0.796469 -0.00154676 -0.604677
vn 0.794403 0.00233996 -0.607387
vn 0.79647 0 -0.604678
vn -0.607692 0 -0.794173
vn -0.607589 6.05419e-05 -0.794252
vn -0.607625 4.86322e-17 -0.794224
vn 3.15584e-20 -1 -6.11917e-17
vn -0.79422 0 0.60763
vn -0.79422 0 0.60763
vn 0.610481 -0 0.792031
vn 0.610547 -3.86157e-05 0.79198
vn 0.610524 0 0.791998
vn -4.96522e-20 1 6.12212e-17
vn -9.83073e-25 -1 -6.12323e-17
vn -1.29603e-24 -1 -6.12323e-17
vn -3.89103e-25 -1 -6.12323e-17
vn 3.11946e-24 -1 -6.12323e-17

# Mesh 'defaultobject' with 24 faces
g defaultobject
usemtl DefaultMaterial
f  1//1 2//1 3//1
f  2//2 1//2 4//2
f  2//3 4//3 5//3
f  6//4 3//4 2//4
f  3//5 6//5 7//5
f  4//6 8//6 5//6
f  8//7 4//7 1//7
f  8//8 1//8 9//8
f  9//9 1//9 10//9
f  8//10 2//10 5//10
f  2//11 8//11 6//11
f  6//12 8//12 11//12
f  11//13 8//13 12//13
f  6//14 13//14 7//14
f  13//14 6//14 11//15
f  13//16 3//16 7//16
f  3//17 13//17 1//17
f  1//18 13//18 10//18
f  10//19 13//19 14//19
f  9//20 12//13 8//13
f  12//13 9//20 10//21
f  12//13 10//21 11//13
f  11//13 10//21 14//22
f  11//13 14//22 13//23

