# {"id":"ID_34592","idOriginal":"ID_34592","origin":[14.275928236948939,48.272797036123166],"elevation":280.751}
# Longitude: 14.275928236948939
# Latitude: 48.272797036123166
# Elevation: 280.751

# File produced by Open Asset Import Library (http://www.assimp.sf.net)
# (assimp v3.1.0)

mtllib ID_34592.obj.mtl

# 16 vertex positions
v  6.908 2.851 -4.204
v  1.325 2.851 3.38
v  9.273 2.851 1.623
v  1.91 2.851 -0.42
v  1.384 2.851 -2.964
v  0.691 2.851 3.52
v  0 2.851 1.74573e-16
v  0.044 2.851 0.225
v  6.908 2.57421e-16 -4.204
v  1.384 1.81493e-16 -2.964
v  1.91 2.57176e-17 -0.42
v  0 0 0
v  0.691 -2.15538e-16 3.52
v  0.044 -1.37773e-17 0.225
v  9.273 -9.93801e-17 1.623
v  1.325 -2.06965e-16 3.38

# 0 UV coordinates

# 19 vertex normals
vn 0 1 -0
vn -0.219025 0 -0.975719
vn -0.214764 0 -0.976666
vn -0.214764 5.98035e-17 -0.976666
vn -0.979287 0 0.202478
vn -0.981411 -1.17517e-17 0.19192
vn -0.981262 -6.21499e-05 0.192679
vn -0.981271 0 0.19263
vn -8.89958e-20 1 6.12291e-17
vn 0.215625 -0 0.976476
vn 0.215851 -5.25394e-05 0.976426
vn 0.215834 0 0.97643
vn -1.0859e-20 1 6.11578e-17
vn 0.92659 0 -0.376074
vn -3.60003e-24 -1 -6.12323e-17
vn 3.15515e-24 -1 -6.12323e-17
vn -1.04897e-24 -1 -6.12323e-17
vn 0 -1 -6.12323e-17
vn 2.01574e-24 -1 -6.12323e-17

# Mesh 'defaultobject' with 28 faces
g defaultobject
usemtl DefaultMaterial
f  1//1 2//1 3//1
f  2//1 1//1 4//1
f  4//1 1//1 5//1
f  4//1 6//1 2//1
f  6//1 4//1 7//1
f  6//1 7//1 8//1
f  9//2 5//2 1//2
f  5//2 9//2 10//2
f  11//3 7//3 4//3
f  7//3 11//3 12//4
f  10//5 4//5 5//5
f  4//5 10//5 11//5
f  12//6 8//6 7//6
f  8//7 12//7 6//7
f  6//8 12//8 13//8
f  13//9 12//9 14//9
f  13//10 2//10 6//10
f  2//11 13//11 3//11
f  3//12 13//12 15//12
f  15//13 13//9 16//13
f  15//14 1//14 3//14
f  1//14 15//14 9//14
f  9//15 11//15 10//15
f  11//15 9//15 16//16
f  16//16 9//15 15//17
f  11//15 14//18 12//18
f  14//18 11//15 13//19
f  13//19 11//15 16//16

