# {"id":"ID_23984","idOriginal":"ID_23984","origin":[14.273424321344212,48.257971428131455],"elevation":267.611,"wof":[{"Id":102049853,"Name":"Linz","Placetype":"county","Offset":-1},{"Id":101754219,"Name":"Langholzfeld","Placetype":"locality","Offset":-1},{"Id":85681677,"Name":"Oberösterreich","Placetype":"region","Offset":-1},{"Id":85898435,"Name":"Oed","Placetype":"neighbourhood","Offset":-1},{"Id":85632785,"Name":"Austria","Placetype":"country","Offset":-1}]}

# Attribution: City of Linz <http://geo.data.linz.gv.at/katalog/geodata/3d_geo_daten_lod2/>
# Longitude: 14.273424321344212
# Latitude: 48.257971428131455
# Elevation: 267.611

# File produced by Open Asset Import Library (http://www.assimp.sf.net)
# (assimp v3.1.0)


# 20 vertex positions
v  3.602 9.381 -4.168
v  7.976 5.971 -5.58
v  6.17 5.971 -7.141
v  11.381 9.381 2.553
v  11.718 6.082 -2.179
v  12.835 4.6 -3.471
v  13.866 6.082 -0.323
v  9.009 4.6 -6.776
v  7.78 4.6 6.721
v  0 4.6 2.81669e-16
v  7.976 3.41676e-16 -5.58
v  9.009 4.1491e-16 -6.776
v  6.17 4.3726e-16 -7.141
v  3.602 2.55216e-16 -4.168
v  0 0 0
v  13.866 1.9778e-17 -0.323
v  11.718 1.33425e-16 -2.179
v  12.835 2.12537e-16 -3.471
v  7.78 -4.11543e-16 6.721
v  11.381 -1.56326e-16 2.553

# 0 UV coordinates

# 29 vertex normals
vn 0.428654 0.755187 -0.495931
vn 0.428585 0.755148 -0.496051
vn 0.428423 0.755255 -0.496028
vn 0.428393 0.755292 -0.495997
vn 0.42856 0.755206 -0.495984
vn 0.428373 0.755366 -0.495902
vn -0.428489 0.755233 0.496005
vn -0.42855 0.755194 0.496011
vn -0.756795 0 -0.653653
vn -0.756691 0.000141602 -0.653773
vn -0.756678 0 -0.653788
vn -0.756771 -0.000294368 -0.653679
vn -0.756611 4.00377e-17 -0.653866
vn 0.653925 0 -0.756559
vn 0.653803 0 -0.756665
vn 0.653702 0 -0.756752
vn -0.653726 -4.63364e-17 0.756731
vn -0.653726 0 0.756731
vn 0.756701 -0 0.653762
vn 0.75668 1.87272e-05 0.653786
vn 0.756701 -3.01187e-05 0.653762
vn 0.756669 0 0.653798
vn 0.756481 -0 0.654016
vn 0.756481 0 0.654016
vn 3.06545e-24 -1 -6.12323e-17
vn 0 -1 -6.12323e-17
vn -3.73965e-24 -1 -6.12323e-17
vn 4.51848e-23 -1 -6.12324e-17
vn -4.90644e-24 -1 -6.12323e-17

# Mesh 'defaultobject' with 36 faces
g defaultobject
usemtl DefaultMaterial
f  1//1 2//1 3//1
f  2//2 1//2 4//2
f  2//3 4//3 5//3
f  2//4 5//4 6//4
f  5//5 4//5 7//5
f  6//6 8//6 2//6
f  9//7 1//7 10//7
f  1//8 9//8 4//8
f  8//9 11//9 2//9
f  11//9 8//9 12//9
f  3//10 10//10 1//10
f  10//11 3//11 13//11
f  10//12 13//12 14//12
f  10//13 14//13 15//13
f  11//14 3//14 2//14
f  3//14 11//14 13//14
f  16//15 5//15 7//15
f  5//15 16//15 17//15
f  18//16 8//16 6//16
f  8//16 18//16 12//16
f  15//17 9//17 10//17
f  9//17 15//17 19//18
f  19//19 4//19 9//19
f  4//20 19//20 7//20
f  7//21 19//21 20//21
f  7//22 20//22 16//22
f  17//23 6//23 5//23
f  6//23 17//23 18//24
f  18//25 17//25 12//25
f  14//26 19//26 15//26
f  19//26 14//26 20//27
f  20//27 14//26 13//26
f  20//27 13//26 11//28
f  20//27 11//28 17//25
f  20//27 17//25 16//29
f  17//25 11//28 12//25

