# File produced by Open Asset Import Library (http://www.assimp.sf.net)
# (assimp v3.1.0)

mtllib _19528.obj.mtl

# 34 vertex positions
v  7.165 2.658 0.619
v  0 2.658 1.62756e-16
v  0.471 2.658 2.122
v  3.303 2.658 -0.771
v  14.072 2.658 -3.286
v  27.633 2.658 -4.058
v  24.373 2.658 -5.417
v  24.015 2.658 -7.332
v  27.33 2.658 -6.199
v  34.8 2.658 -9.929
v  38.074 2.658 -8.473
v  36.883 2.658 -10.43
v  55.391 2.658 -14.661
v  63.748 2.658 -14.606
v  59.299 2.658 -15.538
v  61.515 2.658 -16.035
v  63.416 2.658 -16.462
v  63.416 1.00801e-15 -16.462
v  61.515 9.81861e-16 -16.035
v  59.299 9.51428e-16 -15.538
v  55.391 8.97727e-16 -14.661
v  36.883 6.38653e-16 -10.43
v  34.8 6.07976e-16 -9.929
v  24.015 4.48956e-16 -7.332
v  24.373 3.31696e-16 -5.417
v  14.072 2.01209e-16 -3.286
v  3.303 4.72101e-17 -0.771
v  0 0 0
v  0.471 -1.29935e-16 2.122
v  7.165 -3.79028e-17 0.619
v  27.633 2.48481e-16 -4.058
v  27.33 3.79579e-16 -6.199
v  38.074 5.18822e-16 -8.473
v  63.748 8.9436e-16 -14.606

# 0 UV coordinates

# 32 vertex normals
vn 0 1 0
vn -0.219158 0 -0.975689
vn -0.218841 -0 -0.97576
vn -0.218965 -0 -0.975733
vn -0.222855 -0 -0.974852
vn -0.23385 -0 -0.972273
vn -0.234106 -0 -0.972211
vn -0.202584 0 -0.979265
vn -0.227421 0 -0.973796
vn -0.227314 -0 -0.973822
vn -0.227314 5.96294e-17 -0.973822
vn -0.982971 0 0.183762
vn -0.976241 -1.32682e-17 0.216687
vn -0.976241 0 0.216687
vn 0.219075 -0 0.975708
vn 0.222761 0 0.974873
vn 0.207066 -0 0.978327
vn 0.232343 -0 0.972634
vn 0.990134 0 -0.140126
vn 0.984375 0 -0.176085
vn 0 -1 -6.12323e-17
vn -4.37154e-25 -1 -6.12323e-17
vn 1.07244e-24 -1 -6.12323e-17
vn 0 -1 -6.12323e-17
vn 0 -1 -6.12323e-17
vn -1.27085e-24 -1 -6.12323e-17
vn 2.29291e-24 -1 -6.12323e-17
vn -2.83213e-24 -1 -6.12323e-17
vn 2.56619e-24 -1 -6.12323e-17
vn -8.22353e-26 -1 -6.12324e-17
vn -1.85689e-23 -1 -6.12323e-17
vn -3.60622e-24 -1 -6.12324e-17

# Mesh 'defaultobject' with 64 faces
g defaultobject
usemtl DefaultMaterial
f  1//1 2//1 3//1
f  2//1 1//1 4//1
f  4//1 1//1 5//1
f  5//1 1//1 6//1
f  5//1 6//1 7//1
f  7//1 6//1 8//1
f  8//1 6//1 9//1
f  8//1 9//1 10//1
f  10//1 9//1 11//1
f  10//1 11//1 12//1
f  12//1 11//1 13//1
f  13//1 11//1 14//1
f  13//1 14//1 15//1
f  15//1 14//1 16//1
f  16//1 14//1 17//1
f  18//2 16//2 17//2
f  16//2 18//2 19//2
f  16//3 19//3 15//3
f  15//3 19//3 20//3
f  15//4 20//4 13//4
f  13//4 20//4 21//4
f  13//5 21//5 12//5
f  12//5 21//5 22//5
f  12//6 22//6 10//6
f  10//6 22//6 23//6
f  10//7 23//7 8//7
f  8//7 23//7 24//7
f  25//8 5//8 7//8
f  5//8 25//8 26//8
f  26//9 4//9 5//9
f  4//9 26//9 27//9
f  4//10 27//10 2//10
f  2//10 27//10 28//11
f  24//12 7//12 8//12
f  7//12 24//12 25//12
f  28//13 3//13 2//13
f  3//13 28//13 29//14
f  29//15 1//15 3//15
f  1//15 29//15 30//15
f  1//16 30//16 6//16
f  6//16 30//16 31//16
f  32//17 11//17 9//17
f  11//17 32//17 33//17
f  33//18 14//18 11//18
f  14//18 33//18 34//18
f  31//19 9//19 6//19
f  9//19 31//19 32//19
f  34//20 17//20 14//20
f  17//20 34//20 18//20
f  28//21 30//21 29//21
f  30//21 28//21 27//22
f  30//21 27//22 26//23
f  30//21 26//23 31//21
f  31//21 26//23 25//24
f  31//21 25//24 24//25
f  31//21 24//25 32//25
f  32//25 24//25 23//26
f  32//25 23//26 33//27
f  33//27 23//26 22//28
f  33//27 22//28 21//29
f  33//27 21//29 34//25
f  34//25 21//29 20//30
f  34//25 20//30 19//31
f  34//25 19//31 18//32

