# File produced by Open Asset Import Library (http://www.assimp.sf.net)
# (assimp v3.1.0)

mtllib _27628.obj.mtl

# 20 vertex positions
v  11.211 9.826 1.916
v  11.211 7.477 4.792
v  12.606 7.476 3.654
v  6.829 7.476 8.368
v  9.226 13.17 -0.557
v  3.415 13.17 4.184
v  0.447 8.222 0.548
v  5.845 7.476 -4.769
v  0 7.476 4.57773e-16
v  1.418 9.84 1.737
v  0 0 0
v  0.447 -3.35553e-17 0.548
v  6.829 -5.12392e-16 8.368
v  1.418 -1.06361e-16 1.737
v  3.415 -2.56196e-16 4.184
v  12.606 -2.23743e-16 3.654
v  11.211 -2.93425e-16 4.792
v  11.211 -1.17321e-16 1.916
v  5.845 2.92017e-16 -4.769
v  9.226 3.41064e-17 -0.557

# 0 UV coordinates

# 32 vertex normals
vn 0.458969 0.688104 0.562015
vn 0.458586 0.688257 0.56214
vn 0.458765 0.688089 0.5622
vn 0.458687 0.688134 0.562208
vn -0.458797 0.687975 -0.562313
vn -0.458637 0.68819 -0.56218
vn -0.45867 0.68828 -0.562042
vn -0.458665 0.688171 -0.562181
vn -0.774772 3.86331e-05 0.63224
vn -0.774729 0.000287247 0.632293
vn -0.774753 -0.000222516 0.632264
vn -0.774753 0 0.632264
vn -0.774901 0.000339121 0.632082
vn -0.774742 0 0.632277
vn 0 -1 -6.12479e-17
vn 0 -1 -6.12222e-17
vn 0.632255 -0 0.77476
vn 0.632118 0.000133918 0.774872
vn 0.632222 0 0.774787
vn 2.93632e-20 -1 -6.12076e-17
vn 0.779845 -1.07995e-05 -0.625972
vn 0.779847 -2.13414e-05 -0.62597
vn 0.779847 0 -0.62597
vn 0.779861 3.25122e-05 -0.625953
vn 0.779843 0 -0.625975
vn 0 1 6.12255e-17
vn -0.632183 0 -0.774819
vn -0.632183 4.7444e-17 -0.774819
vn 1.31952e-23 -1 -6.12323e-17
vn 4.47807e-24 -1 -6.12323e-17
vn 0 -1 -6.12323e-17
vn 0 -1 -6.12323e-17

# Mesh 'defaultobject' with 36 faces
g defaultobject
usemtl DefaultMaterial
f  1//1 2//1 3//1
f  2//2 1//2 4//2
f  4//3 1//3 5//3
f  4//4 5//4 6//4
f  7//5 8//5 9//5
f  8//6 7//6 5//6
f  5//7 7//7 10//7
f  5//8 10//8 6//8
f  10//9 4//9 6//9
f  4//10 10//10 7//10
f  4//11 7//11 9//11
f  4//12 9//12 11//12
f  4//13 11//13 12//13
f  4//14 12//14 13//14
f  13//15 12//15 14//15
f  13//15 14//15 15//16
f  13//17 2//17 4//17
f  2//18 13//18 3//18
f  3//19 13//19 16//19
f  16//20 13//15 17//20
f  1//21 8//21 5//21
f  8//22 1//22 3//22
f  8//23 3//23 16//23
f  8//24 16//24 18//24
f  8//23 18//25 19//25
f  19//26 18//26 20//26
f  19//27 9//27 8//27
f  9//27 19//27 11//28
f  17//20 18//29 16//20
f  18//29 17//20 13//15
f  18//29 13//15 20//30
f  20//30 13//15 15//16
f  20//30 15//16 19//31
f  19//31 15//16 14//15
f  19//31 14//15 11//32
f  11//32 14//15 12//15

