# File produced by Open Asset Import Library (http://www.assimp.sf.net)
# (assimp v3.1.0)

mtllib _41389.obj.mtl

# 8 vertex positions
v  6.933 1.002 -2.177
v  1.21 1.692 3.51
v  8.14 1.691 1.329
v  0 1.002 6.13548e-17
v  8.14 -8.13778e-17 1.329
v  6.933 1.33303e-16 -2.177
v  0 0 0
v  1.21 -2.14926e-16 3.51

# 0 UV coordinates

# 11 vertex normals
vn -0.0547347 0.983158 -0.174367
vn -0.05476 0.983153 -0.174392
vn 0.945536 0 -0.325517
vn 0.945536 0 -0.325517
vn -0.299583 0 -0.95407
vn -0.299583 5.84199e-17 -0.95407
vn -0.945402 0 0.325908
vn -0.945402 0 0.325908
vn 0.300202 -0 0.953876
vn -1.96589e-24 -1 -6.12323e-17
vn 0 -1 -6.12323e-17

# Mesh 'defaultobject' with 12 faces
g defaultobject
usemtl DefaultMaterial
f  1//1 2//1 3//1
f  2//2 1//2 4//2
f  5//3 1//3 3//3
f  1//3 5//3 6//4
f  6//5 4//5 1//5
f  4//5 6//5 7//6
f  4//7 8//7 2//7
f  8//7 4//7 7//8
f  8//9 3//9 2//9
f  3//9 8//9 5//9
f  8//10 6//10 5//10
f  6//10 8//10 7//11

