# File produced by Open Asset Import Library (http://www.assimp.sf.net)
# (assimp v3.1.0)

mtllib _43980.obj.mtl

# 8 vertex positions
v  1.965 9.175 -0.346
v  1.858 9.175 10.609
v  3.92 9.175 10.293
v  0 9.175 5.61807e-16
v  3.92 -6.30264e-16 10.293
v  1.965 2.11864e-17 -0.346
v  0 0 0
v  1.858 -6.49614e-16 10.609

# 0 UV coordinates

# 9 vertex normals
vn 0 1 -0
vn 0.983532 0 -0.180732
vn -0.173414 0 -0.984849
vn -0.173414 6.03046e-17 -0.984849
vn -0.985008 -1.05631e-17 0.172509
vn -0.985008 0 0.172509
vn 0.151481 -0 0.98846
vn 2.0537e-23 -1 -6.12323e-17
vn 0 -1 -6.12323e-17

# Mesh 'defaultobject' with 12 faces
g defaultobject
usemtl DefaultMaterial
f  1//1 2//1 3//1
f  2//1 1//1 4//1
f  5//2 1//2 3//2
f  1//2 5//2 6//2
f  6//3 4//3 1//3
f  4//3 6//3 7//4
f  7//5 2//5 4//5
f  2//5 7//5 8//6
f  8//7 3//7 2//7
f  3//7 8//7 5//7
f  8//8 6//8 5//8
f  6//8 8//8 7//9

