# File produced by Open Asset Import Library (http://www.assimp.sf.net)
# (assimp v3.1.0)

mtllib _55581.obj.mtl

# 8 vertex positions
v  3.002 3.013 2.684
v  0 3.013 1.84493e-16
v  0.22 3.013 3.09
v  1.753 3.013 -0.189
v  0 0 0
v  0.22 -1.89208e-16 3.09
v  3.002 -1.64348e-16 2.684
v  1.753 1.15729e-17 -0.189

# 0 UV coordinates

# 9 vertex normals
vn 0 1 0
vn -0.997475 -4.34858e-18 0.0710176
vn -0.997475 0 0.0710176
vn 0.144408 -0 0.989518
vn 0.917085 0 -0.398691
vn -0.107194 0 -0.994238
vn -0.107194 6.08795e-17 -0.994238
vn 0 -1 -6.12323e-17
vn -1.00408e-23 -1 -6.12323e-17

# Mesh 'defaultobject' with 12 faces
g defaultobject
usemtl DefaultMaterial
f  1//1 2//1 3//1
f  2//1 1//1 4//1
f  5//2 3//2 2//2
f  3//2 5//2 6//3
f  6//4 1//4 3//4
f  1//4 6//4 7//4
f  7//5 4//5 1//5
f  4//5 7//5 8//5
f  8//6 2//6 4//6
f  2//6 8//6 5//7
f  5//8 7//8 6//8
f  7//8 5//8 8//9

