# File produced by Open Asset Import Library (http://www.assimp.sf.net)
# (assimp v3.1.0)

mtllib ID_17652.obj.mtl

# 14 vertex positions
v  4.797 4.031 -1.959
v  15.306 2.768 10.071
v  9.594 2.768 -3.917
v  10.691 4.031 12.475
v  15.488 2.768 10.516
v  0 2.768 1.69491e-16
v  5.894 2.768 14.434
v  9.594 2.39847e-16 -3.917
v  4.797 1.19954e-16 -1.959
v  0 0 0
v  5.894 -8.83828e-16 14.434
v  10.691 -7.63873e-16 12.475
v  15.488 -6.43919e-16 10.516
v  15.306 -6.16671e-16 10.071

# 0 UV coordinates

# 24 vertex normals
vn 0.219255 0.971551 -0.0895326
vn 0.219251 0.971552 -0.0895292
vn 0.21919 0.971555 -0.0896465
vn -0.21924 0.971555 0.0895248
vn -0.21924 0.971555 0.0895248
vn -0.377904 0 -0.925845
vn -0.377904 -0 -0.925845
vn -0.378069 -0 -0.925777
vn -0.378069 5.66875e-17 -0.925777
vn -0.92579 -2.31482e-17 0.378038
vn -0.92579 0 0.378038
vn 0.378069 -0 0.925777
vn 0.378069 0 0.925777
vn 0.378069 0 0.925777
vn 0.378069 0 0.925777
vn 0.925787 0 -0.378045
vn 0.925576 0.00299258 -0.378549
vn 0.925787 -9.52248e-05 -0.378045
vn 0.92558 0 -0.378552
vn 2.62122e-24 -1 -6.12323e-17
vn 0 -1 -6.12323e-17
vn 0 -1 -6.12323e-17
vn 6.37517e-23 -1 -6.12322e-17
vn 0 -1 -6.12323e-17

# Mesh 'defaultobject' with 24 faces
g defaultobject
usemtl DefaultMaterial
f  1//1 2//1 3//1
f  2//1 1//1 4//2
f  2//3 4//3 5//3
f  6//4 4//4 1//4
f  4//4 6//4 7//5
f  8//6 1//6 3//6
f  1//6 8//6 9//7
f  1//8 9//8 6//8
f  6//8 9//8 10//9
f  10//10 7//10 6//10
f  7//10 10//10 11//11
f  11//12 4//12 7//12
f  4//12 11//12 12//13
f  4//12 12//13 5//14
f  5//14 12//13 13//15
f  2//16 8//16 3//16
f  8//17 2//17 5//17
f  8//18 5//18 14//18
f  14//19 5//19 13//19
f  9//20 11//20 10//20
f  11//20 9//20 8//21
f  11//20 8//21 14//22
f  11//20 14//22 12//23
f  12//23 14//22 13//24

