# {"id":"ID_51099","idOriginal":"ID_51099","origin":[14.265970877840333,48.3136816027966],"elevation":335.359,"wof":[{"Id":101748071,"Name":"Linz","Placetype":"locality","Offset":-1},{"Id":102049853,"Name":"Linz","Placetype":"county","Offset":-1},{"Id":85632785,"Name":"Austria","Placetype":"country","Offset":-1},{"Id":85681677,"Name":"Oberösterreich","Placetype":"region","Offset":-1},{"Id":85898453,"Name":"Urfahr","Placetype":"neighbourhood","Offset":-1}]}

# Attribution: City of Linz <http://geo.data.linz.gv.at/katalog/geodata/3d_geo_daten_lod2/>
# Longitude: 14.265970877840333
# Latitude: 48.3136816027966
# Elevation: 335.359

# File produced by Open Asset Import Library (http://www.assimp.sf.net)
# (assimp v3.1.0)


# 16 vertex positions
v  0 2.981 1.82534e-16
v  4.808 2.981 0.211
v  2.612 2.981 -2.327
v  2.508 2.981 2.419
v  2.554 2.981 2.472
v  3.15 2.981 3.155
v  2.358 2.981 2.646
v  2.955 2.981 3.316
v  2.955 -2.03046e-16 3.316
v  3.15 -1.93188e-16 3.155
v  2.508 -1.48121e-16 2.419
v  4.808 -1.292e-17 0.211
v  2.554 -1.51366e-16 2.472
v  2.612 1.42488e-16 -2.327
v  0 0 0
v  2.358 -1.62021e-16 2.646

# 0 UV coordinates

# 17 vertex normals
vn -0 1 0
vn 0.636677 -0 0.771131
vn 0.692532 -0 0.721387
vn 0.753464 0 -0.657489
vn 0.75522 0.000813287 -0.655471
vn 0.753591 0 -0.657344
vn 0 -1 -6.12334e-17
vn 0.75622 0 -0.654318
vn -0.665197 0 -0.746668
vn -0.665197 4.57202e-17 -0.746668
vn -0.74661 0 0.665262
vn -0.746568 1.87976e-05 0.665309
vn -0.74661 -7.42407e-05 0.665262
vn -0.746568 0 0.665309
vn 0 -1 -6.12323e-17
vn 4.2594e-23 -1 -6.12324e-17
vn 1.82385e-24 -1 -6.12323e-17

# Mesh 'defaultobject' with 28 faces
g defaultobject
usemtl DefaultMaterial
f  1//1 2//1 3//1
f  2//1 1//1 4//1
f  4//1 1//1 5//1
f  5//1 1//1 6//1
f  6//1 1//1 7//1
f  6//1 7//1 8//1
f  9//2 6//2 8//2
f  6//2 9//2 10//2
f  11//3 2//3 4//3
f  2//3 11//3 12//3
f  10//4 5//4 6//4
f  5//5 10//5 4//5
f  4//6 10//6 11//6
f  11//7 10//7 13//7
f  12//8 3//8 2//8
f  3//8 12//8 14//8
f  14//9 1//9 3//9
f  1//9 14//9 15//10
f  7//11 9//11 8//11
f  9//12 7//12 1//12
f  9//13 1//13 16//13
f  16//14 1//14 15//14
f  14//15 12//15 15//15
f  11//7 15//15 12//15
f  16//16 15//15 11//7
f  13//7 16//16 11//7
f  10//7 16//16 13//7
f  9//17 16//16 10//7

