# {"id":"ID_59162","idOriginal":"ID_59162","origin":[14.299607931336181,48.276447720692616],"elevation":274.866}
# Longitude: 14.299607931336181
# Latitude: 48.276447720692616
# Elevation: 274.866

# File produced by Open Asset Import Library (http://www.assimp.sf.net)
# (assimp v3.1.0)

mtllib ID_59162.obj.mtl

# 12 vertex positions
v  0.408 20.946 0.546
v  1.426 20.946 -1.082
v  0 20.946 1.28257e-15
v  1.836 20.946 -0.521
v  4.315 20.946 -2.373
v  3.885 20.946 -2.949
v  0 0 0
v  0.408 -3.34329e-17 0.546
v  4.315 1.45304e-16 -2.373
v  1.836 3.19021e-17 -0.521
v  3.885 1.80574e-16 -2.949
v  1.426 6.62534e-17 -1.082

# 0 UV coordinates

# 15 vertex normals
vn 0 1 0
vn -0.801055 -3.66531e-17 0.598591
vn -0.801055 0 0.598591
vn 0.598563 -0 0.801076
vn 0.598499 6.74991e-06 0.801123
vn 0.598523 0 0.801106
vn 0 -1 -6.12015e-17
vn 0.801333 0 -0.598218
vn -0.60446 0 -0.796636
vn -0.604705 2.63452e-05 -0.796449
vn -0.60446 -4.54404e-05 -0.796636
vn -0.604705 0 -0.796449
vn 0 -1 -6.12323e-17
vn 1.33029e-24 -1 -6.12323e-17
vn 1.49096e-24 -1 -6.12323e-17

# Mesh 'defaultobject' with 20 faces
g defaultobject
usemtl DefaultMaterial
f  1//1 2//1 3//1
f  2//1 1//1 4//1
f  2//1 4//1 5//1
f  2//1 5//1 6//1
f  7//2 1//2 3//2
f  1//2 7//2 8//3
f  8//4 4//4 1//4
f  4//5 8//5 5//5
f  5//6 8//6 9//6
f  9//7 8//7 10//7
f  9//8 6//8 5//8
f  6//8 9//8 11//8
f  2//9 7//9 3//9
f  7//10 2//10 6//10
f  7//11 6//11 12//11
f  12//12 6//12 11//12
f  7//13 10//7 8//7
f  10//7 7//13 12//14
f  10//7 12//14 9//7
f  9//7 12//14 11//15

