# {"id":"ID_53833","idOriginal":"ID_53833","origin":[14.316602646767375,48.337545830685265],"elevation":258.158}
# Longitude: 14.316602646767375
# Latitude: 48.337545830685265
# Elevation: 258.158

# File produced by Open Asset Import Library (http://www.assimp.sf.net)
# (assimp v3.1.0)

mtllib ID_53833.obj.mtl

# 14 vertex positions
v  0.136 41.09 -1.318
v  2.287 41.09 -2.34
v  0.264 41.09 -2.551
v  3.715 41.09 -2.176
v  3.449 41.09 0.299
v  0 41.09 2.51604e-15
v  2.042 41.09 0.203
v  3.449 -1.83085e-17 0.299
v  3.715 1.33242e-16 -2.176
v  0.264 1.56204e-16 -2.551
v  2.287 1.43284e-16 -2.34
v  0 0 0
v  0.136 8.07042e-17 -1.318
v  2.042 -1.24302e-17 0.203

# 0 UV coordinates

# 18 vertex normals
vn 0 1 0
vn 0.994274 -0 0.106859
vn 0.114096 0 -0.99347
vn 0.103738 -0.000364498 -0.994605
vn 0.108028 0 -0.994148
vn -2.8511e-22 1 6.12349e-17
vn -0.994655 0 -0.103257
vn -0.994718 -1.86606e-05 -0.102642
vn -0.994688 6.3032e-18 -0.102939
vn 1.30273e-20 1 6.1235e-17
vn -0.068072 0 0.99768
vn -0.0989247 -6.0932e-17 0.995095
vn -0.0989247 0 0.995095
vn 8.20171e-24 -1 -6.12323e-17
vn -1.46066e-23 -1 -6.12324e-17
vn -4.31532e-24 -1 -6.12323e-17
vn -3.84029e-25 -1 -6.12323e-17
vn 0 -1 -6.12323e-17

# Mesh 'defaultobject' with 24 faces
g defaultobject
usemtl DefaultMaterial
f  1//1 2//1 3//1
f  2//1 1//1 4//1
f  4//1 1//1 5//1
f  5//1 1//1 6//1
f  5//1 6//1 7//1
f  8//2 4//2 5//2
f  4//2 8//2 9//2
f  9//3 2//3 4//3
f  2//4 9//4 3//4
f  3//5 9//5 10//5
f  10//6 9//6 11//6
f  10//7 1//7 3//7
f  1//8 10//8 6//8
f  6//9 10//9 12//9
f  12//10 10//6 13//10
f  14//11 5//11 7//11
f  5//11 14//11 8//11
f  12//12 7//12 6//12
f  7//12 12//12 14//13
f  11//14 13//14 10//14
f  13//14 11//14 9//15
f  13//14 9//15 12//16
f  12//16 9//15 8//17
f  12//16 8//17 14//18

