# {"id":"ID_26630","idOriginal":"ID_26630","origin":[14.307041745312967,48.26742163947578],"elevation":261.138,"wof":[{"Id":85632785,"Name":"Austria","Placetype":"country","Offset":-1},{"Id":102049853,"Name":"Linz","Placetype":"county","Offset":-1},{"Id":85681677,"Name":"Oberösterreich","Placetype":"region","Offset":-1},{"Id":85898435,"Name":"Oed","Placetype":"neighbourhood","Offset":-1},{"Id":101748071,"Name":"Linz","Placetype":"locality","Offset":-1}]}

# Attribution: City of Linz <http://geo.data.linz.gv.at/katalog/geodata/3d_geo_daten_lod2/>
# Longitude: 14.307041745312967
# Latitude: 48.26742163947578
# Elevation: 261.138

# File produced by Open Asset Import Library (http://www.assimp.sf.net)
# (assimp v3.1.0)


# 16 vertex positions
v  12.225 3.834 4.881
v  4.052 3.847 8.348
v  12.237 3.791 4.909
v  6.093 10.506 2.393
v  3.589 3.851 8.542
v  4.316 10.506 -1.836
v  8.632 3.834 -3.672
v  0 3.834 2.34765e-16
v  3.589 3.834 8.542
v  8.632 2.24845e-16 -3.672
v  4.316 1.12423e-16 -1.836
v  0 0 0
v  3.589 -5.23047e-16 8.542
v  12.237 -3.0059e-16 4.909
v  4.052 -5.11168e-16 8.348
v  12.225 -2.98875e-16 4.881

# 0 UV coordinates

# 25 vertex normals
vn 0.319436 0.578073 0.750861
vn 0.32026 0.575066 0.752816
vn 0.320396 0.575011 0.7528
vn 0.754239 0.575094 -0.316846
vn 0.754255 0.575024 -0.316933
vn -0.75421 0.575094 0.316914
vn -0.754212 0.575105 0.316889
vn -0.926153 0 -0.377149
vn -0.391448 0 -0.9202
vn -0.391448 5.6346e-17 -0.9202
vn -0.92193 -2.37188e-17 0.387357
vn -0.92193 0 0.387357
vn 0.386454 -0 0.922309
vn 0.387356 -0.000127697 0.92193
vn 0.387309 0 0.92195
vn -1.21256e-20 1 6.12102e-17
vn 0.921954 0 -0.3873
vn 0.921314 0.00394258 -0.388799
vn 0.921954 -5.78128e-05 -0.3873
vn 0.919143 0 -0.393923
vn -2.43643e-24 -1 -6.12323e-17
vn 1.94914e-23 -1 -6.12323e-17
vn 4.86702e-24 -1 -6.12323e-17
vn 3.19815e-21 -1 -6.12247e-17
vn -3.91497e-22 -1 -6.12333e-17

# Mesh 'defaultobject' with 27 faces
g defaultobject
usemtl DefaultMaterial
f  1//1 2//1 3//1
f  2//2 1//2 4//2
f  2//3 4//3 5//3
f  6//4 1//4 7//4
f  1//5 6//5 4//5
f  8//6 4//6 6//6
f  4//7 8//7 9//7
f  9//8 5//8 4//8
f  7//9 8//9 6//9
f  8//9 7//9 10//9
f  8//9 10//9 11//9
f  8//9 11//9 12//10
f  12//11 9//11 8//11
f  9//11 12//11 13//12
f  13//13 2//13 9//13
f  2//14 13//14 3//14
f  3//15 13//15 14//15
f  14//16 13//16 15//16
f  1//17 10//17 7//17
f  10//18 1//18 3//18
f  10//19 3//19 16//19
f  16//20 3//20 14//20
f  11//21 13//21 12//21
f  13//21 11//21 10//22
f  13//21 10//22 16//23
f  13//21 16//23 15//24
f  15//24 16//23 14//25

