# File produced by Open Asset Import Library (http://www.assimp.sf.net)
# (assimp v3.1.0)

mtllib _52505.obj.mtl

# 8 vertex positions
v  4.637 2.609 0.734
v  0.322 2.609 -2.178
v  0 2.609 1.59755e-16
v  5.01 2.609 -1.45
v  0 0 0
v  4.637 -4.49445e-17 0.734
v  5.01 8.87869e-17 -1.45
v  0.322 1.33364e-16 -2.178

# 0 UV coordinates

# 9 vertex normals
vn 0 1 0
vn -0.156345 -6.04793e-17 0.987702
vn -0.156345 0 0.987702
vn 0.985727 -0 0.16835
vn 0.153451 0 -0.988156
vn -0.989247 0 -0.146252
vn -0.989247 8.95537e-18 -0.146252
vn -6.36232e-25 -1 -6.12323e-17
vn -6.33559e-25 -1 -6.12323e-17

# Mesh 'defaultobject' with 12 faces
g defaultobject
usemtl DefaultMaterial
f  1//1 2//1 3//1
f  2//1 1//1 4//1
f  5//2 1//2 3//2
f  1//2 5//2 6//3
f  6//4 4//4 1//4
f  4//4 6//4 7//4
f  7//5 2//5 4//5
f  2//5 7//5 8//5
f  8//6 3//6 2//6
f  3//6 8//6 5//7
f  5//8 7//8 6//8
f  7//8 5//8 8//9

