# File produced by Open Asset Import Library (http://www.assimp.sf.net)
# (assimp v3.1.0)

mtllib _6779.obj.mtl

# 37 vertex positions
v  10.662 17.503 -1.09
v  22.653 11.725 -6.887
v  16.851 17.503 -10.627
v  18.261 11.725 -0.119
v  12.651 11.849 8.254
v  19.474 10.514 0.669
v  13.988 10.515 9.122
v  11.917 12.59 -13.807
v  11.242 11.918 -14.242
v  6.812 11.918 -7.416
v  1.368 11.879 0.888
v  5.405 10.514 -8.329
v  0.738 11.251 0.479
v  0 10.515 6.43858e-16
v  10.628 10.515 8.841
v  11.496 11.849 7.504
v  7.964 10.515 7.112
v  2.512 11.879 1.631
v  1.625 10.514 2.999
v  11.242 8.72071e-16 -14.242
v  6.812 4.54099e-16 -7.416
v  0 0 0
v  5.405 5.10004e-16 -8.329
v  2.512 -9.98699e-17 1.631
v  1.625 -1.83636e-16 2.999
v  18.261 7.28665e-18 -0.119
v  19.474 -4.09644e-17 0.669
v  22.653 4.21707e-16 -6.887
v  16.851 6.50716e-16 -10.627
v  11.917 8.45435e-16 -13.807
v  1.368 -5.43743e-17 0.888
v  0.738 -2.93303e-17 0.479
v  10.628 -5.41355e-16 8.841
v  7.964 -4.35484e-16 7.112
v  11.496 -4.59487e-16 7.504
v  13.988 -5.58561e-16 9.122
v  12.651 -5.05412e-16 8.254

# 0 UV coordinates

# 64 vertex normals
vn 0.538422 0.766823 0.349407
vn 0.53842 0.766827 0.3494
vn 0.538423 0.766828 0.349393
vn 0.53849 0.76676 0.349439
vn 0.538384 0.766889 0.34932
vn -0.538398 0.766847 -0.349391
vn -0.538318 0.766897 -0.349403
vn -0.538365 0.766869 -0.349393
vn -0.538397 0.766859 -0.349365
vn -0.538448 0.766808 -0.349399
vn -0.538004 0.767182 -0.34926
vn -0.538191 0.767013 -0.349345
vn -0.349393 0.766889 0.538337
vn -0.349541 0.766924 0.53819
vn -0.349289 0.766754 0.538596
vn -0.349446 0.766832 0.538383
vn -0.349384 0.766841 0.538411
vn -0.349598 0.766764 0.538381
vn -0.838831 0 -0.544392
vn -0.838851 0 -0.544362
vn -0.838851 0 -0.544362
vn -0.83906 0 -0.544039
vn 0.544339 0 -0.838865
vn 0.544339 0 -0.838865
vn 0.544769 0 -0.838586
vn 0.544769 0 -0.838586
vn 0.541797 0 -0.840509
vn 0.541753 -2.04753e-05 -0.840538
vn 0.541797 3.21739e-05 -0.840509
vn 0.541711 -1.51824e-05 -0.840564
vn 0.541734 0 -0.84055
vn -4.65177e-19 1 6.19616e-17
vn -0.544679 0.000226477 0.838645
vn -0.544623 0 0.838681
vn -0.544455 3.75453e-05 0.83879
vn -0.544679 -3.84799e-05 0.838645
vn -0.54452 -9.10896e-06 0.838748
vn -0.544429 0 0.838807
vn -0.544304 0 0.838888
vn -0.544413 9.26414e-05 0.838818
vn -0.544336 0 0.838867
vn 0 -1 -6.12419e-17
vn -0.544605 0 0.838692
vn -0.544532 -1.01119e-05 0.83874
vn -0.544562 0 0.83872
vn 2.21034e-19 1 6.08791e-17
vn 0.838744 0 0.544525
vn 0.838744 0 0.544525
vn 0.838826 -0 0.544399
vn 0.838827 0 0.544399
vn 0.838851 -0 0.544361
vn 1.04571e-23 -1 -6.12324e-17
vn 6.05042e-24 -1 -6.12323e-17
vn -2.63651e-23 -1 -6.12324e-17
vn -6.03636e-26 -1 -6.12323e-17
vn 8.2243e-26 -1 -6.12323e-17
vn 2.80898e-25 -1 -6.12323e-17
vn 0 -1 -6.12323e-17
vn 1.43048e-23 -1 -6.12323e-17
vn -1.5521e-22 -1 -6.12322e-17
vn -1.44993e-24 -1 -6.12323e-17
vn -1.19801e-24 -1 -6.12323e-17
vn 0 -1 -6.11856e-17
vn 4.95635e-19 -1 -6.19544e-17

# Mesh 'defaultobject' with 70 faces
g defaultobject
usemtl DefaultMaterial
f  1//1 2//1 3//1
f  2//1 1//1 4//2
f  4//2 1//3 5//3
f  4//4 5//4 6//4
f  6//5 5//5 7//5
f  8//6 1//6 3//6
f  1//7 8//7 9//7
f  1//8 9//8 10//8
f  1//9 10//9 11//9
f  11//10 10//10 12//10
f  11//11 12//11 13//11
f  13//12 12//12 14//12
f  15//13 16//13 17//13
f  18//14 1//14 11//14
f  1//15 18//15 19//15
f  1//16 19//16 17//16
f  1//17 17//17 16//17
f  1//18 16//18 5//18
f  20//19 10//19 9//19
f  10//19 20//19 21//19
f  12//20 22//20 14//20
f  22//20 12//20 23//21
f  24//22 19//22 18//22
f  19//22 24//22 25//22
f  21//23 12//23 10//23
f  12//23 21//23 23//24
f  6//25 26//25 4//25
f  26//25 6//25 27//26
f  28//27 3//27 2//27
f  3//28 28//28 8//28
f  8//29 28//29 29//29
f  8//30 29//30 9//30
f  9//31 29//31 20//31
f  20//32 29//32 30//32
f  13//33 18//33 11//33
f  18//34 13//34 24//34
f  24//35 13//35 14//35
f  24//36 14//36 31//36
f  31//37 14//37 32//37
f  32//38 14//38 22//38
f  25//39 17//39 19//39
f  17//40 25//40 15//40
f  15//41 25//41 33//41
f  33//42 25//42 34//42
f  35//43 5//43 16//43
f  5//44 35//44 7//44
f  7//45 35//45 36//45
f  36//46 35//46 37//46
f  15//47 35//47 16//47
f  35//47 15//47 33//48
f  36//49 6//49 7//49
f  6//49 36//49 27//50
f  26//51 2//51 4//51
f  2//51 26//51 28//51
f  34//42 35//52 33//42
f  35//52 34//42 25//42
f  35//52 25//42 24//53
f  37//54 27//54 36//54
f  27//54 37//54 35//52
f  27//54 35//52 24//53
f  27//54 24//53 31//55
f  27//54 31//55 32//56
f  27//54 32//56 22//57
f  27//54 22//57 21//58
f  21//58 22//57 23//59
f  27//54 21//58 26//60
f  21//58 28//61 26//60
f  28//61 21//58 20//62
f  28//61 20//62 29//63
f  29//63 20//62 30//64

