# {"id":"ID_50317","idOriginal":"ID_50317","origin":[14.277496496775774,48.32736207665564],"elevation":284.696,"wof":[{"Id":102049853,"Name":"Linz","Placetype":"county","Offset":-1},{"Id":85632785,"Name":"Austria","Placetype":"country","Offset":-1},{"Id":101748071,"Name":"Linz","Placetype":"locality","Offset":-1},{"Id":85681677,"Name":"Oberösterreich","Placetype":"region","Offset":-1},{"Id":85898415,"Name":"Bachl","Placetype":"neighbourhood","Offset":-1}]}

# Attribution: City of Linz <http://geo.data.linz.gv.at/katalog/geodata/3d_geo_daten_lod2/>
# Longitude: 14.277496496775774
# Latitude: 48.32736207665564
# Elevation: 284.696

# File produced by Open Asset Import Library (http://www.assimp.sf.net)
# (assimp v3.1.0)


# 15 vertex positions
v  2.62 3.598 0.499
v  2.341 2.619 2.992
v  4.999 2.666 0.784
v  2.324 2.634 2.97
v  5.041 2.635 0.749
v  1.378 3.598 -1.088
v  2.761 2.63 -2.181
v  0 2.634 1.61286e-16
v  0 0 0
v  2.324 -1.8186e-16 2.97
v  2.341 -1.83207e-16 2.992
v  4.999 -4.80062e-17 0.784
v  5.041 -4.5863e-17 0.749
v  2.761 1.33548e-16 -2.181
v  1.378 6.66208e-17 -1.088

# 0 UV coordinates

# 24 vertex normals
vn 0.298191 0.876631 0.377624
vn 0.287628 0.88008 0.377796
vn 0.378656 0.869891 -0.316086
vn 0.379153 0.876532 -0.296536
vn 0.379253 0.876397 -0.296807
vn -0.379016 0.876563 0.296621
vn -0.379013 0.87658 0.296574
vn -0.78755 -3.77345e-17 0.616251
vn -0.78755 0 0.616251
vn -0.791283 0 0.611451
vn -0.791283 0 0.611451
vn 0.638988 -0 0.769217
vn 0.638988 0 0.769217
vn 0.640186 0 0.76822
vn 0.640186 0 0.76822
vn 0.789207 0 -0.614127
vn -0.619865 0.000426561 -0.784708
vn -0.619865 4.80495e-17 -0.784708
vn -0.619681 -0.000314029 -0.784854
vn -0.620049 0 -0.784563
vn 8.0895e-24 -1 -6.12323e-17
vn 6.44479e-23 -1 -6.12324e-17
vn 0 -1 -6.12323e-17
vn 0 -1 -6.12326e-17

# Mesh 'defaultobject' with 26 faces
g defaultobject
usemtl DefaultMaterial
f  1//1 2//1 3//1
f  2//2 1//2 4//2
f  1//3 3//3 5//3
f  6//4 5//4 7//4
f  5//5 6//5 1//5
f  8//6 1//6 6//6
f  1//7 8//7 4//7
f  9//8 4//8 8//8
f  4//8 9//8 10//9
f  4//10 10//10 2//10
f  2//10 10//10 11//11
f  11//12 3//12 2//12
f  3//12 11//12 12//13
f  3//14 12//14 5//14
f  5//14 12//14 13//15
f  13//16 7//16 5//16
f  7//16 13//16 14//16
f  7//17 8//17 6//17
f  8//18 7//18 9//18
f  9//19 7//19 15//19
f  15//20 7//20 14//20
f  13//21 15//21 14//21
f  15//21 13//21 12//22
f  15//21 12//22 11//23
f  15//21 11//23 10//24
f  15//21 10//24 9//23

