# File produced by Open Asset Import Library (http://www.assimp.sf.net)
# (assimp v3.1.0)

mtllib ID_4333.obj.mtl

# 64 vertex positions
v  0.43 9.555 0.246
v  2.81 9.506 -4.931
v  0 9.493 5.81279e-16
v  2.058 9.792 1.178
v  6.561 10.437 3.615
v  12.041 10.442 -6.326
v  7.977 9.863 -8.482
v  5.918 9.502 -10.685
v  8.902 9.859 -10.243
v  8.416 9.788 -10.528
v  6.442 9.498 -11.72
v  7.986 9.484 -14.77
v  8.469 9.788 -10.628
v  10.114 9.783 -13.719
v  8.416 6.44654e-16 -10.528
v  10.114 8.40047e-16 -13.719
v  8.469 6.50777e-16 -10.628
v  12.041 3.87356e-16 -6.326
v  6.561 -2.21355e-16 3.615
v  7.977 5.19373e-16 -8.482
v  8.902 6.27203e-16 -10.243
v  7.986 9.04402e-16 -14.77
v  5.918 6.54268e-16 -10.685
v  6.442 7.17643e-16 -11.72
v  2.81 3.01937e-16 -4.931
v  0 0 0
v  2.058 -7.21317e-17 1.178
v  0.43 -1.50632e-17 0.246
v  7.295 9.638 4.012
v  12.041 9.638 -6.326
v  6.561 9.638 3.615
v  12.129 9.638 -6.279
v  13.101 9.638 -7.991
v  13.598 9.638 -7.746
v  13.648 9.638 -7.838
v  15.605 9.638 -6.784
v  16.193 9.638 8.723
v  21.644 9.638 -1.168
v  22.649 9.638 -2.989
v  16.193 -5.3413e-16 8.723
v  7.295 -2.45664e-16 4.012
v  21.644 7.15194e-17 -1.168
v  22.649 1.83023e-16 -2.989
v  13.648 4.79939e-16 -7.838
v  15.605 4.154e-16 -6.784
v  13.598 4.74306e-16 -7.746
v  13.101 4.89308e-16 -7.991
v  12.129 3.84478e-16 -6.279
v  18.161 9.336 -16.084
v  13.648 9.34 -7.838
v  22.649 10.709 -2.989
v  29.681 10.71 -15.729
v  20.854 9.335 -20.987
v  29.636 10.703 -15.761
v  27.519 10.353 -17.332
v  27.752 10.389 -17.201
v  29.792 10.702 -16.058
v  29.681 9.63123e-16 -15.729
v  29.636 9.65083e-16 -15.761
v  29.792 9.83269e-16 -16.058
v  27.752 1.05326e-15 -17.201
v  20.854 1.28508e-15 -20.987
v  27.519 1.06128e-15 -17.332
v  18.161 9.84861e-16 -16.084

# 0 UV coordinates

# 94 vertex normals
vn -0.109023 0.992256 -0.0595126
vn -0.110081 0.99211 -0.0599975
vn -0.109671 0.992159 -0.0599492
vn -0.109663 0.992159 -0.0599528
vn -0.109639 0.992172 -0.0597851
vn -0.109773 0.992145 -0.059983
vn -0.10982 0.992143 -0.0599385
vn -0.109829 0.992145 -0.0598791
vn -0.109858 0.992168 -0.0594532
vn -0.109528 0.992171 -0.0600006
vn -0.112582 0.991849 -0.059668
vn -0.109761 0.992144 -0.0600186
vn 0.883575 -0 0.468289
vn 0.882771 1.98185e-05 0.469803
vn 0.882797 0 0.469755
vn 2.33731e-19 -1 -6.10428e-17
vn 0.875752 0 0.482761
vn 0.8853 -0 0.465021
vn 0.8853 0 0.465021
vn 0.442826 0 -0.896607
vn 0.442826 0 -0.896607
vn 0.468647 0 -0.883386
vn 0.505856 0 -0.862618
vn -0.892193 0 -0.451654
vn -0.892175 1.44722e-05 -0.45169
vn -0.892188 -0 -0.451664
vn -4.98603e-19 -1 -6.14944e-17
vn -0.879852 0 -0.475248
vn -0.879852 0 -0.475248
vn -0.868828 0 -0.495114
vn -0.868828 3.0317e-17 -0.495114
vn -0.496828 0 0.867849
vn -0.49658 5.60921e-05 0.867991
vn -0.496775 0 0.86788
vn 0 -1 -6.12034e-17
vn -0.475962 0 0.879466
vn -0.475962 0 0.879466
vn -8.49552e-24 -1 -6.12323e-17
vn 4.67361e-24 -1 -6.12323e-17
vn 3.60852e-24 -1 -6.12323e-17
vn 0 -1 -6.12323e-17
vn 0 1 0
vn -0.475743 0 0.879585
vn -0.46791 -0.000769113 0.883776
vn -0.468511 0 0.883458
vn 2.83727e-21 1 6.12311e-17
vn 0.875806 -0 0.482663
vn 0.875514 0 0.483192
vn 0.474301 0 -0.880363
vn 0.47418 -0.000113805 -0.880428
vn 0.474275 0 -0.880377
vn 5.42949e-20 1 6.11578e-17
vn 0.442154 0 -0.896939
vn 0.471114 0 -0.882072
vn -0.878624 0 -0.477515
vn -0.869615 0 -0.49373
vn -0.875752 0 -0.482761
vn -3.43362e-23 -1 -6.12323e-17
vn -1.51644e-22 -1 -6.12322e-17
vn 1.98831e-22 -1 -6.12326e-17
vn -2.49039e-24 -1 -6.12323e-17
vn 0 -1 -6.12323e-17
vn -5.32005e-22 -1 -6.12313e-17
vn -0.116365 0.991132 -0.0641667
vn -0.11616 0.991159 -0.0641112
vn -0.116241 0.991152 -0.0640826
vn -0.116242 0.991154 -0.0640488
vn -0.155001 0.987913 0.00184941
vn -0.116058 0.991151 -0.0644234
vn -0.119595 0.991031 -0.0596301
vn -0.116051 0.99116 -0.0642946
vn 0.579518 0 -0.814959
vn 0.579518 0 -0.814959
vn 0.488799 0 -0.872397
vn 0.490045 0.000321564 -0.871697
vn 0.481096 -0.0022544 -0.876665
vn 0.488786 0.00737429 -0.872373
vn 0.481148 0 -0.87664
vn 9.85114e-21 1 6.1215e-17
vn 0.885306 -0 0.465008
vn 0.885306 0 0.465008
vn 0.875489 0 0.483237
vn 0.87549 0 0.483237
vn -0.876491 0 -0.481418
vn -0.877216 -0.000903262 -0.480096
vn -0.876946 -0 -0.48059
vn 1.60321e-20 1 6.12373e-17
vn -0.47418 0 0.880428
vn -0.474305 3.26227e-05 0.880361
vn -0.474275 0 0.880377
vn -2.63706e-22 -1 -6.1232e-17
vn -2.02697e-23 -1 -6.12323e-17
vn -2.95806e-23 -1 -6.12323e-17
vn -1.54959e-22 -1 -6.12321e-17

# Mesh 'defaultobject' with 128 faces
g defaultobject
usemtl DefaultMaterial
f  1//1 2//1 3//1
f  2//2 1//2 4//2
f  2//3 4//3 5//3
f  2//3 5//3 6//4
f  2//5 6//5 7//5
f  7//6 8//6 2//6
f  8//7 7//7 9//7
f  8//8 9//8 10//8
f  8//9 10//9 11//9
f  10//10 12//10 11//10
f  12//11 10//11 13//11
f  12//12 13//12 14//12
f  15//13 13//13 10//13
f  13//14 15//14 14//14
f  14//15 15//15 16//15
f  16//16 15//16 17//16
f  5//17 18//17 6//17
f  18//17 5//17 19//17
f  20//18 9//18 7//18
f  9//18 20//18 21//19
f  16//20 12//20 14//20
f  12//20 16//20 22//21
f  18//22 7//22 6//22
f  7//22 18//22 20//22
f  21//23 10//23 9//23
f  10//23 21//23 15//23
f  22//24 11//24 12//24
f  11//25 22//25 8//25
f  8//26 22//26 23//26
f  23//27 22//27 24//27
f  8//28 25//28 2//28
f  25//28 8//28 23//29
f  25//30 3//30 2//30
f  3//30 25//30 26//31
f  1//32 27//32 4//32
f  27//33 1//33 3//33
f  27//34 3//34 26//34
f  27//35 26//35 28//35
f  4//36 19//36 5//36
f  19//36 4//36 27//37
f  22//27 15//16 24//27
f  15//16 22//27 17//16
f  17//16 22//27 16//16
f  23//27 20//38 25//38
f  20//38 23//27 21//39
f  21//39 23//27 15//16
f  15//16 23//27 24//27
f  25//38 28//35 26//35
f  28//35 25//38 27//35
f  27//35 25//38 19//40
f  19//40 25//38 18//41
f  18//41 25//38 20//38
f  29//42 30//42 31//42
f  30//42 29//42 32//42
f  32//42 29//42 33//42
f  33//42 29//42 34//42
f  34//42 29//42 35//42
f  35//42 29//42 36//42
f  36//42 29//42 37//42
f  36//42 37//42 38//42
f  36//42 38//42 39//42
f  19//43 29//43 31//43
f  29//44 19//44 37//44
f  37//45 19//45 40//45
f  40//46 19//46 41//46
f  40//47 38//47 37//47
f  38//47 40//47 42//47
f  38//48 42//48 39//48
f  39//48 42//48 43//48
f  43//49 36//49 39//49
f  36//50 43//50 35//50
f  35//51 43//51 44//51
f  44//52 43//52 45//52
f  46//53 33//53 34//53
f  33//53 46//53 47//53
f  48//54 30//54 32//54
f  30//54 48//54 18//54
f  44//55 34//55 35//55
f  34//55 44//55 46//55
f  47//56 32//56 33//56
f  32//56 47//56 48//56
f  18//57 31//57 30//57
f  31//57 18//57 19//57
f  42//41 45//41 43//41
f  45//41 42//41 44//58
f  44//58 42//41 46//59
f  46//59 42//41 47//60
f  47//60 42//41 48//61
f  48//61 42//41 40//62
f  48//61 40//62 18//41
f  18//41 40//62 19//40
f  19//40 40//62 41//63
f  36//64 49//64 50//64
f  49//65 36//65 51//65
f  49//66 51//66 52//66
f  49//67 52//67 53//67
f  53//68 52//68 54//68
f  53//69 54//69 55//69
f  55//70 54//70 56//70
f  57//71 56//71 54//71
f  58//72 54//72 52//72
f  54//72 58//72 59//73
f  60//74 56//74 57//74
f  56//75 60//75 55//75
f  55//76 60//76 53//76
f  53//77 60//77 61//77
f  53//78 61//78 62//78
f  62//79 61//79 63//79
f  59//80 57//80 54//80
f  57//80 59//80 60//81
f  51//82 58//82 52//82
f  58//82 51//82 43//83
f  62//84 49//84 53//84
f  49//85 62//85 50//85
f  50//86 62//86 44//86
f  44//52 62//79 64//87
f  44//88 36//88 50//88
f  36//89 44//89 51//89
f  51//90 44//90 43//90
f  43//41 44//58 45//41
f  60//91 59//91 61//91
f  64//92 45//41 44//58
f  45//41 64//92 43//41
f  43//41 64//92 62//93
f  43//41 62//93 58//41
f  58//41 62//93 59//91
f  59//91 62//93 63//94
f  59//91 63//94 61//91

