# {"id":"ID_18060","idOriginal":"ID_18060","origin":[14.282784466900639,48.32751405968832],"elevation":271.683}
# Longitude: 14.282784466900639
# Latitude: 48.32751405968832
# Elevation: 271.683

# File produced by Open Asset Import Library (http://www.assimp.sf.net)
# (assimp v3.1.0)

mtllib ID_18060.obj.mtl

# 26 vertex positions
v  14.727 7.999 2.732
v  1.034 11.329 -5.185
v  0 8.03 4.91696e-16
v  15.737 11.329 -2.508
v  4.931 8.069 -9.786
v  8.641 8.187 -8.918
v  8.715 8.015 -9.184
v  11.008 8.011 -8.773
v  17.634 8.189 -7.278
v  17.672 8.076 -7.454
v  16.682 8.212 -7.414
v  10.891 8.216 -8.461
v  2.043 8.109 -10.246
v  8.715 5.62358e-16 -9.184
v  2.043 6.27387e-16 -10.246
v  4.931 5.9922e-16 -9.786
v  17.672 4.56426e-16 -7.454
v  11.008 5.37191e-16 -8.773
v  10.891 5.18087e-16 -8.461
v  8.641 5.4607e-16 -8.918
v  0 0 0
v  1.034 3.1749e-16 -5.185
v  14.727 -1.67287e-16 2.732
v  16.682 4.53977e-16 -7.414
v  17.634 4.45649e-16 -7.278
v  15.737 1.53571e-16 -2.508

# 0 UV coordinates

# 42 vertex normals
vn -0.094839 0.848357 0.520861
vn -0.0948325 0.848363 0.520853
vn 0.0951021 0.847789 -0.521737
vn 0.0952891 0.846887 -0.523165
vn 0.095098 0.847394 -0.522379
vn 0.0946831 0.848414 -0.520797
vn 0.0956519 0.847992 -0.521306
vn 0.0948293 0.848374 -0.520835
vn 0.0948461 0.848392 -0.520802
vn 0.0948594 0.848402 -0.520783
vn 0.0947153 0.848361 -0.520876
vn 0.157115 0 -0.98758
vn 0.157298 8.80299e-05 -0.987551
vn 0.157194 0 -0.987568
vn -1.60344e-21 -1 -6.12258e-17
vn 0.194162 0 -0.980969
vn 0.194162 0 -0.980969
vn 0.199047 0 -0.97999
vn 0.199047 0 -0.97999
vn -0.9807 0 -0.19552
vn -0.980692 1.83303e-05 -0.195559
vn -0.980695 1.19737e-17 -0.195545
vn 0 -1 -6.11786e-17
vn -0.936328 0 -0.351126
vn -0.936328 0 -0.351126
vn -0.182398 -6.02052e-17 0.983225
vn -0.182398 0 0.983225
vn -0.141421 0 0.989949
vn 0.981926 -0 0.189264
vn 0.981944 -4.44963e-05 0.189172
vn 0.981937 0 0.189206
vn 6.49823e-20 1 6.12296e-17
vn 0.977476 -0 0.211046
vn 0.977476 0 0.211046
vn 0.963414 -0 0.268019
vn 0.963414 0 0.268019
vn 8.11633e-24 -1 -6.12324e-17
vn 2.53491e-23 -1 -6.12324e-17
vn -1.81792e-24 -1 -6.12323e-17
vn 0 -1 -6.12323e-17
vn 2.79861e-22 -1 -6.12324e-17
vn -1.87382e-23 -1 -6.12324e-17

# Mesh 'defaultobject' with 48 faces
g defaultobject
usemtl DefaultMaterial
f  1//1 2//1 3//1
f  2//2 1//2 4//2
f  5//3 6//3 7//3
f  8//4 9//4 10//4
f  9//5 8//5 11//5
f  11//6 8//6 4//6
f  4//7 8//7 12//7
f  4//8 12//8 2//8
f  2//9 12//9 6//9
f  2//10 6//10 5//10
f  2//11 5//11 13//11
f  14//12 5//12 7//12
f  5//13 14//13 13//13
f  13//14 14//14 15//14
f  15//15 14//15 16//15
f  17//16 8//16 10//16
f  8//16 17//16 18//17
f  19//18 6//18 12//18
f  6//18 19//18 20//19
f  15//20 2//20 13//20
f  2//21 15//21 3//21
f  3//22 15//22 21//22
f  21//23 15//15 22//23
f  8//24 19//24 12//24
f  19//24 8//24 18//25
f  21//26 1//26 3//26
f  1//26 21//26 23//27
f  24//28 9//28 11//28
f  9//28 24//28 25//28
f  23//29 4//29 1//29
f  4//30 23//30 11//30
f  11//31 23//31 24//31
f  24//32 23//32 26//32
f  25//33 10//33 9//33
f  10//33 25//33 17//34
f  20//35 7//35 6//35
f  7//35 20//35 14//36
f  25//37 18//37 17//37
f  18//37 25//37 24//38
f  18//37 24//38 26//39
f  18//37 26//39 23//40
f  18//37 23//40 19//41
f  19//41 23//40 21//23
f  19//41 21//23 20//42
f  20//42 21//23 16//15
f  16//15 21//23 22//23
f  16//15 22//23 15//15
f  16//15 14//15 20//42

