# {"id":"ID_30328","idOriginal":"ID_30328","origin":[14.287554046586266,48.234798384743875],"elevation":263.428,"wof":[{"Id":102049853,"Name":"Linz","Placetype":"county","Offset":-1},{"Id":85632785,"Name":"Austria","Placetype":"country","Offset":-1},{"Id":85681677,"Name":"Oberösterreich","Placetype":"region","Offset":-1},{"Id":85898447,"Name":"Scharlinz","Placetype":"neighbourhood","Offset":-1}]}

# Attribution: City of Linz <http://geo.data.linz.gv.at/katalog/geodata/3d_geo_daten_lod2/>
# Longitude: 14.287554046586266
# Latitude: 48.234798384743875
# Elevation: 263.428

# File produced by Open Asset Import Library (http://www.assimp.sf.net)
# (assimp v3.1.0)


# 18 vertex positions
v  3.762 12.68 3.189
v  6.951 10.544 -0.573
v  0 10.544 6.45634e-16
v  6.997 10.544 -0.017
v  7.728 10.544 8.85
v  3.966 12.68 5.661
v  0.307 10.544 3.721
v  0.777 10.544 9.424
v  1.835 10.544 9.337
v  4.423 10.544 9.123
v  0.777 -5.77054e-16 9.424
v  4.423 -5.58623e-16 9.123
v  7.728 -5.41906e-16 8.85
v  1.835 -5.71726e-16 9.337
v  6.951 3.50861e-17 -0.573
v  6.997 1.04095e-18 -0.017
v  0 0 0
v  0.307 -2.27846e-16 3.721

# 0 UV coordinates

# 32 vertex normals
vn -0.0429114 0.85275 -0.520553
vn 0.520428 0.852819 -0.0430566
vn 0.520533 0.852763 -0.042913
vn 0.520583 0.85273 -0.0429606
vn -0.520576 0.852734 0.04295
vn -0.520583 0.852733 0.0429027
vn -0.520506 0.852777 0.0429544
vn 0.0427909 0.852864 0.520377
vn 0.0430379 0.85279 0.520477
vn 0.0429929 0.852789 0.520483
vn 0.0819539 -0 0.996636
vn 0.082408 -4.5873e-05 0.996599
vn 0.0823217 -1.58205e-05 0.996606
vn 0.0822762 1.43394e-05 0.99661
vn 0.0823217 0 0.996606
vn 1.35004e-20 1 6.1396e-17
vn 0.996619 0 -0.0821618
vn 0.996595 -0.000245066 -0.0824513
vn 0.996618 0 -0.0821789
vn 1.83614e-20 1 6.12319e-17
vn -0.0821555 0 -0.996619
vn -0.0821555 6.10253e-17 -0.996619
vn -0.996621 0 0.0821343
vn -0.996614 4.95641e-05 0.0822253
vn -0.996621 -3.2339e-05 0.0821343
vn -0.996614 0 0.0822253
vn 2.65727e-26 -1 -6.12323e-17
vn 2.66597e-26 -1 -6.12323e-17
vn 0 -1 -6.12323e-17
vn 0 -1 -6.12323e-17
vn 1.49545e-21 -1 -6.12298e-17
vn -1.35831e-20 -1 -6.13975e-17

# Mesh 'defaultobject' with 32 faces
g defaultobject
usemtl DefaultMaterial
f  1//1 2//1 3//1
f  1//2 4//2 2//2
f  4//3 1//3 5//3
f  5//4 1//4 6//4
f  7//5 1//5 3//5
f  1//6 7//6 8//6
f  1//7 8//7 6//7
f  9//8 6//8 8//8
f  6//9 9//9 10//9
f  6//10 10//10 5//10
f  11//11 9//11 8//11
f  9//12 11//12 10//12
f  10//13 11//13 5//13
f  5//14 11//14 12//14
f  5//15 12//15 13//15
f  12//16 11//16 14//16
f  13//17 4//17 5//17
f  4//18 13//18 2//18
f  2//19 13//19 15//19
f  15//20 13//20 16//20
f  15//21 3//21 2//21
f  3//21 15//21 17//22
f  7//23 11//23 8//23
f  11//24 7//24 3//24
f  11//25 3//25 18//25
f  18//26 3//26 17//26
f  16//27 17//27 15//27
f  17//27 16//27 13//28
f  17//27 13//28 18//29
f  18//29 13//28 11//30
f  11//30 13//28 12//31
f  11//30 12//31 14//32

