# {"id":"ID_42273","idOriginal":"ID_42273","origin":[14.367557867027616,48.242681748443935],"elevation":255.183,"wof":[{"Id":102049853,"Name":"Linz","Placetype":"county","Offset":-1},{"Id":101748071,"Name":"Linz","Placetype":"locality","Offset":-1},{"Id":85681677,"Name":"Oberösterreich","Placetype":"region","Offset":-1},{"Id":85898441,"Name":"Posch","Placetype":"neighbourhood","Offset":-1},{"Id":85632785,"Name":"Austria","Placetype":"country","Offset":-1}]}

# Attribution: City of Linz <http://geo.data.linz.gv.at/katalog/geodata/3d_geo_daten_lod2/>
# Longitude: 14.367557867027616
# Latitude: 48.242681748443935
# Elevation: 255.183

# File produced by Open Asset Import Library (http://www.assimp.sf.net)
# (assimp v3.1.0)


# 20 vertex positions
v  0.74 2.587 0.807
v  2.464 2.587 -2.229
v  0 2.587 1.58408e-16
v  3.521 2.587 -1.785
v  4.335 2.587 -5.961
v  1.471 2.587 -3.185
v  4.402 2.587 -0.843
v  8.354 2.587 -4.508
v  5.63 2.587 -7.242
v  6.538 2.587 -6.543
v  6.538 4.00643e-16 -6.543
v  5.63 4.43445e-16 -7.242
v  8.354 2.76035e-16 -4.508
v  4.335 3.65006e-16 -5.961
v  1.471 1.95025e-16 -3.185
v  2.464 1.36487e-16 -2.229
v  0 0 0
v  0.74 -4.94145e-17 0.807
v  3.521 1.093e-16 -1.785
v  4.402 5.16189e-17 -0.843

# 0 UV coordinates

# 21 vertex normals
vn 0 1 0
vn 0.610006 0 -0.792397
vn 0.746113 0 -0.665819
vn -0.703253 0 -0.710939
vn -0.695971 0.0071583 -0.718034
vn -0.703167 -0.0156726 -0.710852
vn -0.695989 -0 -0.718052
vn -0.670858 0 -0.741586
vn -0.670858 4.5409e-17 -0.741586
vn -0.693558 0 0.720401
vn -0.73704 -4.13838e-17 0.675849
vn -0.73704 0 0.675849
vn -0.730359 0 0.683064
vn 0.681812 -0 0.731527
vn 0.679981 -0 0.73323
vn -1.58984e-24 -1 -6.12323e-17
vn -2.87709e-24 -1 -6.12323e-17
vn 0 -1 -6.12323e-17
vn 1.90385e-24 -1 -6.12323e-17
vn -8.64001e-25 -1 -6.12323e-17
vn -3.76527e-24 -1 -6.12323e-17

# Mesh 'defaultobject' with 36 faces
g defaultobject
usemtl DefaultMaterial
f  1//1 2//1 3//1
f  2//1 1//1 4//1
f  2//1 5//1 6//1
f  5//1 2//1 4//1
f  5//1 4//1 7//1
f  5//1 7//1 8//1
f  5//1 8//1 9//1
f  9//1 8//1 10//1
f  11//2 9//2 10//2
f  9//2 11//2 12//2
f  13//3 10//3 8//3
f  10//3 13//3 11//3
f  12//4 5//4 9//4
f  5//5 12//5 6//5
f  6//6 12//6 14//6
f  6//7 14//7 15//7
f  16//8 3//8 2//8
f  3//8 16//8 17//9
f  15//10 2//10 6//10
f  2//10 15//10 16//10
f  17//11 1//11 3//11
f  1//11 17//11 18//12
f  19//13 7//13 4//13
f  7//13 19//13 20//13
f  18//14 4//14 1//14
f  4//14 18//14 19//14
f  20//15 8//15 7//15
f  8//15 20//15 13//15
f  17//16 19//16 18//16
f  19//16 17//16 16//17
f  19//16 16//17 15//18
f  19//16 13//19 20//19
f  13//19 19//16 15//18
f  13//19 15//18 14//20
f  13//19 14//20 12//21
f  13//19 12//21 11//18

