# File produced by Open Asset Import Library (http://www.assimp.sf.net)
# (assimp v3.1.0)

mtllib ID_10569.obj.mtl

# 35 vertex positions
v  15.28 14.498 11.147
v  0.309 14.979 -0.408
v  0 14.498 8.87746e-16
v  3.782 20.373 -4.99
v  14.004 20.373 2.467
v  22.151 14.925 1.327
v  22.374 14.538 1.717
v  22.472 14.539 1.585
v  15.574 14.444 10.855
v  22.09 14.999 1.278
v  15.33 14.441 11.183
v  11.234 14.444 -7.374
v  13.314 14.524 -5.751
v  13.358 14.458 -5.806
v  13.749 14.547 -5.403
v  13.66 14.542 -5.474
v  7.239 15.002 -9.552
v  7.614 14.419 -10.047
v  7.614 6.15201e-16 -10.047
v  0.309 2.49828e-17 -0.408
v  0 0 0
v  7.239 5.84891e-16 -9.552
v  3.782 3.05549e-16 -4.99
v  15.28 -6.82557e-16 11.147
v  15.33 -6.84761e-16 11.183
v  22.374 -1.05136e-16 1.717
v  22.472 -9.70533e-17 1.585
v  15.574 -6.64677e-16 10.855
v  13.314 3.52147e-16 -5.751
v  13.358 3.55515e-16 -5.806
v  22.151 -8.12553e-17 1.327
v  22.09 -7.82549e-17 1.278
v  13.66 3.35186e-16 -5.474
v  13.749 3.30838e-16 -5.403
v  11.234 4.51527e-16 -7.374

# 0 UV coordinates

# 57 vertex normals
vn -0.403647 0.728641 0.553309
vn -0.403249 0.729235 0.552817
vn -0.403297 0.729194 0.552836
vn 0.546568 0.729445 0.411307
vn 0.544722 0.729948 0.412861
vn 0.547925 0.72639 0.414892
vn 0.545394 0.729179 0.413332
vn 0.546147 0.728833 0.412947
vn 0.535624 0.733791 0.417922
vn 0.403199 0.729364 -0.552682
vn 0.403315 0.729169 -0.552856
vn 0.403312 0.72917 -0.552857
vn 0.402321 0.727665 -0.555556
vn 0.40375 0.72977 -0.551744
vn 0.403313 0.729197 -0.55282
vn 0.40327 0.72917 -0.552887
vn 0.403337 0.729008 -0.553052
vn -0.796978 6.24201e-05 -0.604009
vn -0.796978 0.000201455 -0.604008
vn -0.796984 0 -0.604001
vn -0.797094 -0.000147521 -0.603855
vn -0.796984 1.13428e-05 -0.604001
vn -0.797178 3.69687e-17 -0.603745
vn -3.13622e-19 -1 -6.147e-17
vn 0 -1 -6.11969e-17
vn -0.589356 -4.9468e-17 0.807873
vn -0.589356 0 0.807873
vn -0.584296 0 0.811541
vn 0.802342 -0 0.596865
vn 0.802249 4.40642e-06 0.59699
vn 0.802914 -0.000901458 0.596094
vn 0.802252 1.24977e-05 0.596985
vn 0.802911 0 0.596098
vn 0 -1 -6.07701e-17
vn 0.78087 -0 0.624693
vn 0.78087 0 0.624693
vn 0.625209 -0.0014228 -0.780456
vn 0.625217 -0.00171135 -0.780449
vn 0.625219 0 -0.78045
vn 0.623676 -0.00151648 -0.781681
vn 0.624977 -0.00022384 -0.780643
vn 0.625194 0 -0.78047
vn 0 1 6.125e-17
vn 0 1 6.13809e-17
vn 1.22514e-20 1 6.12081e-17
vn 7.59689e-20 1 6.11384e-17
vn 0.593923 0 -0.804522
vn 0.59401 1.98099e-05 -0.804458
vn 0.593978 0 -0.804482
vn 8.21171e-20 -1 -6.12593e-17
vn -3.05657e-24 -1 -6.12323e-17
vn -3.66224e-23 -1 -6.12324e-17
vn -3.43164e-24 -1 -6.12323e-17
vn 2.19328e-21 -1 -6.12326e-17
vn -3.59189e-24 -1 -6.12323e-17
vn -9.99171e-23 -1 -6.12326e-17
vn -3.49647e-24 -1 -6.12323e-17

# Mesh 'defaultobject' with 66 faces
g defaultobject
usemtl DefaultMaterial
f  1//1 2//1 3//1
f  2//2 1//2 4//2
f  4//3 1//3 5//3
f  6//4 7//4 8//4
f  7//5 6//5 9//5
f  9//6 6//6 10//6
f  9//7 10//7 5//7
f  9//8 5//8 11//8
f  11//9 5//9 1//9
f  12//10 13//10 14//10
f  15//11 5//11 10//11
f  5//11 15//11 4//12
f  4//13 15//13 16//13
f  4//14 16//14 13//14
f  4//15 13//15 12//15
f  4//16 12//16 17//16
f  17//17 12//17 18//17
f  17//18 2//18 4//18
f  2//19 17//19 18//19
f  2//20 18//20 19//20
f  2//21 19//21 3//21
f  3//22 19//22 20//22
f  3//23 20//23 21//23
f  20//24 19//24 22//24
f  20//24 22//24 23//25
f  21//26 1//26 3//26
f  1//26 21//26 24//27
f  1//28 24//28 11//28
f  11//28 24//28 25//28
f  25//29 9//29 11//29
f  9//30 25//30 7//30
f  7//31 25//31 8//31
f  8//32 25//30 26//32
f  8//33 26//33 27//33
f  26//34 25//34 28//34
f  29//35 14//35 13//35
f  14//35 29//35 30//36
f  6//37 15//37 10//37
f  15//38 6//38 8//38
f  15//39 8//39 27//39
f  15//40 27//40 16//40
f  16//41 27//41 13//41
f  13//42 27//42 29//42
f  29//43 27//43 31//43
f  29//43 31//43 32//44
f  29//43 32//44 33//45
f  33//45 32//44 34//46
f  30//47 12//47 14//47
f  12//48 30//48 18//48
f  18//49 30//49 19//49
f  19//24 30//50 35//50
f  26//34 31//51 27//51
f  31//51 26//34 28//34
f  31//51 28//34 32//52
f  32//52 28//34 34//53
f  34//53 28//34 25//34
f  34//53 25//34 24//54
f  34//53 24//54 21//55
f  34//53 21//55 33//56
f  33//56 21//55 29//57
f  29//57 21//55 35//50
f  35//50 21//55 23//25
f  35//50 23//25 22//24
f  35//50 22//24 19//24
f  23//25 21//55 20//24
f  35//50 30//50 29//57

