# {"id":"ID_6443","idOriginal":"ID_6443","origin":[14.28573811372654,48.30590780428446],"elevation":260.247,"wof":[{"Id":85898449,"Name":"Steeg","Placetype":"neighbourhood","Offset":-1},{"Id":102049853,"Name":"Linz","Placetype":"county","Offset":-1},{"Id":85632785,"Name":"Austria","Placetype":"country","Offset":-1},{"Id":101748071,"Name":"Linz","Placetype":"locality","Offset":-1},{"Id":85681677,"Name":"Oberösterreich","Placetype":"region","Offset":-1}]}

# Attribution: City of Linz <http://geo.data.linz.gv.at/katalog/geodata/3d_geo_daten_lod2/>
# Longitude: 14.28573811372654
# Latitude: 48.30590780428446
# Elevation: 260.247

# File produced by Open Asset Import Library (http://www.assimp.sf.net)
# (assimp v3.1.0)


# 75 vertex positions
v  6.204 14.502 2.577
v  21.525 16.06 -0.079
v  20.443 14.502 -3.121
v  7.317 16.146 5.8
v  7.439 16.147 5.753
v  21.903 16.061 -0.228
v  22.296 16.158 -0.168
v  22.233 16.058 -0.366
v  21.811 16.062 -0.189
v  7.445 16.158 5.776
v  7.867 15.359 7.392
v  8.446 14.502 9.07
v  22.703 14.51 3.348
v  23.34 14.508 3.098
v  22.708 14.502 3.362
v  22.703 -2.05006e-16 3.348
v  22.708 -2.05863e-16 3.362
v  22.233 2.2411e-17 -0.366
v  23.34 -1.89698e-16 3.098
v  22.296 1.0287e-17 -0.168
v  21.525 4.83735e-18 -0.079
v  20.443 1.91106e-16 -3.121
v  23.031 14.502 3.233
v  23.031 -1.97964e-16 3.233
v  7.439 -3.5227e-16 5.753
v  7.317 -3.55148e-16 5.8
v  8.446 -5.55377e-16 9.07
v  21.811 1.15729e-17 -0.189
v  21.903 1.3961e-17 -0.228
v  6.204 -1.57796e-16 2.577
v  7.867 -4.52629e-16 7.392
v  7.445 -3.53678e-16 5.776
v  8.94 14.765 10.5
v  22.708 14.068 3.362
v  8.446 14.068 9.07
v  9.119 14.763 10.419
v  10.379 16.583 14.163
v  21.124 16.525 9.572
v  21.273 16.701 9.922
v  24.245 16.761 8.83
v  24.476 16.64 8.452
v  24.437 16.765 8.759
v  24.571 16.759 8.689
v  24.497 16.666 8.503
v  24.437 -5.36334e-16 8.759
v  24.245 -5.40682e-16 8.83
v  21.273 -6.07547e-16 9.922
v  24.571 -5.32048e-16 8.689
v  8.94 -6.4294e-16 10.5
v  9.119 -6.3798e-16 10.419
v  10.379 -8.67234e-16 14.163
v  21.124 -5.86116e-16 9.572
v  24.476 -5.17536e-16 8.452
v  24.497 -5.20659e-16 8.503
v  8.705 14.068 10.606
v  7.867 14.068 7.392
v  8.94 14.068 10.5
v  8.705 -6.4943e-16 10.606
v  1.672 14.068 4.391
v  7.317 14.068 5.8
v  6.204 14.068 2.577
v  2.857 14.068 7.505
v  1.672 -2.68871e-16 4.391
v  2.857 -4.59549e-16 7.505
v  16.599 15.524 -6.715
v  20.443 14.215 -3.121
v  18.867 15.505 -7.551
v  4.663 15.511 -1.886
v  6.204 14.215 2.577
v  0 15.505 9.49407e-16
v  1.672 14.215 4.391
v  18.867 4.62365e-16 -7.551
v  16.599 4.11175e-16 -6.715
v  0 0 0
v  4.663 1.15484e-16 -1.886

# 0 UV coordinates

# 127 vertex normals
vn -0.161562 0.900497 -0.403736
vn -0.162697 0.900546 -0.40317
vn -0.160656 0.900649 -0.403758
vn -0.160922 0.901075 -0.4027
vn -0.160984 0.90128 -0.402216
vn -0.161201 0.90101 -0.402734
vn -0.156929 0.906244 -0.392549
vn -0.161548 0.900552 -0.40362
vn 0.161386 0.90076 0.40322
vn 0.161814 0.900337 0.403992
vn 0.161422 0.900646 0.40346
vn 0.161187 0.900671 0.403499
vn 0.17618 0.880445 0.440202
vn 0.941719 0 -0.336401
vn 0.952722 0.0013925 -0.303841
vn 0.952542 0 -0.304407
vn 0.952542 0 -0.304407
vn -3.46457e-21 -1 -6.1232e-17
vn 0.942176 0 -0.335119
vn 0.942176 0 -0.335119
vn 0.330862 -0 0.943679
vn 0.330862 0 0.943679
vn 0.400352 0 0.916361
vn 0.359491 0 0.933149
vn 0.359491 0 0.933149
vn 0.37157 -0 0.928405
vn -0.385806 0 -0.92258
vn -0.390297 -0.000108524 -0.920689
vn -0.386787 -0 -0.922169
vn 5.93797e-22 1 6.12342e-17
vn -0.358978 0 -0.933346
vn -0.358978 -0 -0.933346
vn -0.371526 0 -0.928423
vn -0.945226 0 0.326415
vn -0.945226 0 0.326415
vn -0.967585 -0.000263047 0.252544
vn -0.967555 0 0.252662
vn -0.967555 0 0.252662
vn -2.69145e-18 1 6.22398e-17
vn -0.945307 0 0.326182
vn -0.945307 0 0.326182
vn 4.05402e-24 -1 -6.12323e-17
vn 0 -1 -6.12323e-17
vn 1.33782e-21 -1 -6.12291e-17
vn -3.54868e-22 -1 -6.12332e-17
vn -2.09877e-24 -1 -6.12323e-17
vn -3.88635e-24 -1 -6.12323e-17
vn 0 -1 -6.12329e-17
vn 1.2811e-21 -1 -6.12338e-17
vn -4.03684e-24 -1 -6.12323e-17
vn 1.18234e-22 -1 -6.1232e-17
vn 6.32492e-22 -1 -6.12308e-17
vn -0.155624 0.908066 -0.388842
vn -0.217434 0.837578 -0.501183
vn -0.155588 0.907994 -0.389024
vn -0.165639 0.901838 -0.399064
vn -0.14288 0.907317 -0.395426
vn -0.164528 0.902424 -0.398198
vn -0.174272 0.90191 -0.395206
vn -0.16301 0.906377 -0.389754
vn -0.163029 0.906373 -0.389755
vn -0.567432 0.804303 -0.176402
vn 0.346838 0 0.937925
vn 0.344886 -2.54121e-05 0.938645
vn 0.346838 0.000394561 0.937925
vn 0.344886 0 0.938645
vn 0.46302 -0 0.886348
vn 0.463019 0 0.886348
vn 0.412268 -0 0.911063
vn 0.412268 0 0.911062
vn 0.392907 -0 0.919578
vn 0.392907 0 0.919578
vn 0.929165 0 -0.369665
vn 0.924706 -0.000142757 -0.380682
vn 0.928208 0 -0.372063
vn -4.70106e-20 1 6.1251e-17
vn 0.944637 0 -0.328117
vn 0.944637 0 -0.328117
vn -0.37157 0 -0.928405
vn -0.94519 0 0.32652
vn -0.94519 0 0.32652
vn -0.947768 0 0.31896
vn -0.947768 0 0.31896
vn -0.920094 0 0.391698
vn 0 -1 -6.12323e-17
vn -1.69004e-21 -1 -6.12356e-17
vn 3.54294e-24 -1 -6.12323e-17
vn 1.42468e-23 -1 -6.12323e-17
vn -3.39886e-22 -1 -6.12324e-17
vn 2.95268e-24 -1 -6.12323e-17
vn -9.33e-23 -1 -6.12323e-17
vn 3.86534e-23 -1 -6.12322e-17
vn 1.04992e-22 -1 -6.12322e-17
vn 4.70108e-20 -1 -6.12512e-17
vn 0 1 0
vn -0.967649 0 0.252299
vn 0.411171 -0 0.911558
vn 0.945307 0 -0.326182
vn 0.94519 4.5138e-05 -0.32652
vn 0.945307 -3.84716e-05 -0.326182
vn 0.94519 0 -0.32652
vn -2.32833e-22 -1 -6.12323e-17
vn -0.934616 0 0.355658
vn 0.357084 -0 0.934072
vn 0.945226 0 -0.326415
vn -0.371603 0 -0.928392
vn 3.32768e-24 -1 -6.12323e-17
vn 0.0986484 0.964311 0.245709
vn 0.0984419 0.964279 0.245918
vn 0.0984474 0.964253 0.246015
vn 0.0982856 0.964256 0.246071
vn 0.0983967 0.964306 0.245829
vn 0.371526 0 0.928423
vn 0.371603 8.96071e-05 0.928392
vn 0.371526 -2.85212e-05 0.928423
vn 0.371603 0 0.928392
vn 0.942155 0 -0.335178
vn 0.942155 0 -0.335178
vn -0.345859 0 -0.938287
vn -0.345859 0 -0.938287
vn -0.375043 0 -0.927007
vn -0.374953 8.11325e-05 -0.927044
vn -0.375018 5.67634e-17 -0.927018
vn 1.67152e-20 -1 -6.1211e-17
vn -0.934542 -2.17898e-17 0.355854
vn -0.934542 0 0.355854
vn 5.87737e-24 -1 -6.12323e-17

# Mesh 'defaultobject' with 151 faces
g defaultobject
usemtl DefaultMaterial
f  1//1 2//1 3//1
f  4//2 5//2 1//2
f  6//3 7//3 8//3
f  7//4 6//4 9//4
f  7//5 9//5 10//5
f  10//6 9//6 2//6
f  10//7 2//7 5//7
f  5//8 2//8 1//8
f  11//9 7//9 10//9
f  7//10 11//10 12//10
f  7//11 12//11 13//11
f  7//12 13//12 14//12
f  13//13 12//13 15//13
f  15//14 16//14 13//14
f  16//14 15//14 17//14
f  14//15 8//15 7//15
f  8//16 14//16 18//16
f  18//16 14//16 19//17
f  18//18 19//18 20//18
f  21//19 3//19 2//19
f  3//19 21//19 22//20
f  16//21 23//21 13//21
f  23//21 16//21 24//22
f  19//23 23//23 24//23
f  4//24 25//24 5//24
f  25//24 4//24 26//25
f  27//26 15//26 12//26
f  15//26 27//26 17//26
f  19//23 14//23 23//23
f  18//27 6//27 8//27
f  6//28 18//28 9//28
f  9//29 18//29 28//29
f  28//30 18//30 29//30
f  28//31 2//31 9//31
f  2//31 28//31 21//32
f  22//33 1//33 3//33
f  1//33 22//33 30//33
f  1//34 26//34 4//34
f  26//34 1//34 30//35
f  5//36 11//36 10//36
f  11//37 5//37 25//37
f  11//37 25//37 31//38
f  31//39 25//39 32//39
f  31//40 12//40 11//40
f  12//40 31//40 27//41
f  22//42 26//42 30//42
f  26//42 22//42 21//43
f  26//42 21//43 25//44
f  25//44 21//43 32//45
f  32//45 21//43 31//46
f  31//46 21//43 27//47
f  27//47 21//43 28//48
f  27//47 28//48 29//49
f  27//47 29//49 18//18
f  27//47 18//18 20//18
f  27//47 20//18 16//50
f  16//50 20//18 19//18
f  16//50 19//18 24//51
f  17//52 27//47 16//50
f  33//53 34//53 35//53
f  34//54 33//54 36//54
f  34//55 36//55 37//55
f  34//56 37//56 38//56
f  34//57 38//57 39//57
f  34//58 39//58 40//58
f  34//59 40//59 41//59
f  41//60 40//60 42//60
f  41//61 42//61 43//61
f  41//62 43//62 44//62
f  40//63 45//63 42//63
f  45//64 40//64 39//64
f  45//65 39//65 46//65
f  46//66 39//66 47//66
f  45//67 43//67 42//67
f  43//67 45//67 48//68
f  49//69 36//69 33//69
f  36//69 49//69 50//70
f  51//71 38//71 37//71
f  38//71 51//71 52//72
f  48//73 44//73 43//73
f  44//74 48//74 41//74
f  41//75 48//75 53//75
f  53//76 48//76 54//76
f  53//77 34//77 41//77
f  34//77 53//77 17//78
f  17//79 35//79 34//79
f  35//79 17//79 27//79
f  35//80 49//80 33//80
f  49//80 35//80 27//81
f  36//82 51//82 37//82
f  51//82 36//82 50//83
f  38//84 47//84 39//84
f  47//84 38//84 52//84
f  17//52 49//85 27//47
f  49//85 17//52 50//86
f  50//86 17//52 51//87
f  51//87 17//52 52//88
f  52//88 17//52 47//89
f  47//89 17//52 46//90
f  46//90 17//52 53//91
f  46//90 53//91 45//92
f  45//92 53//91 48//93
f  48//93 53//91 54//94
f  55//95 35//95 56//95
f  35//95 55//95 57//95
f  31//96 55//96 56//96
f  55//96 31//96 58//96
f  58//97 57//97 55//97
f  57//97 58//97 49//97
f  35//98 31//98 56//98
f  31//99 35//99 57//99
f  31//100 57//100 27//100
f  27//101 57//101 49//101
f  27//47 58//102 31//46
f  58//102 27//47 49//85
f  59//95 60//95 61//95
f  60//95 59//95 62//95
f  63//103 62//103 59//103
f  62//103 63//103 64//103
f  64//104 60//104 62//104
f  60//104 64//104 26//104
f  26//105 61//105 60//105
f  61//105 26//105 30//105
f  30//106 59//106 61//106
f  59//106 30//106 63//106
f  63//107 26//42 64//107
f  26//42 63//107 30//42
f  65//108 66//108 67//108
f  66//109 65//109 68//109
f  66//110 68//110 69//110
f  69//111 68//111 70//111
f  69//112 70//112 71//112
f  69//113 22//113 66//113
f  22//114 69//114 71//114
f  22//115 71//115 30//115
f  30//116 71//116 63//116
f  66//117 72//117 67//117
f  72//117 66//117 22//118
f  67//119 73//119 65//119
f  73//119 67//119 72//120
f  73//121 68//121 65//121
f  68//122 73//122 70//122
f  70//123 73//123 74//123
f  74//124 73//124 75//124
f  74//125 71//125 70//125
f  71//125 74//125 63//126
f  30//42 72//127 22//42
f  72//127 30//42 73//124
f  73//124 30//42 75//124
f  75//124 30//42 63//107
f  75//124 63//107 74//124

