# {"id":"_41761","idOriginal":"_41761","origin":[14.320432143516111,48.307859190082134],"elevation":254.803}
# Longitude: 14.320432143516111
# Latitude: 48.307859190082134
# Elevation: 254.803

# File produced by Open Asset Import Library (http://www.assimp.sf.net)
# (assimp v3.1.0)

mtllib _41761.obj.mtl

# 15 vertex positions
v  5.234 26.101 -1.704
v  6.727 26.128 2.779
v  6.784 26.109 2.759
v  5.218 26.106 -1.699
v  0.798 26.872 2.26
v  0 26.106 1.59853e-15
v  3.737 26.872 1.303
v  1.607 26.095 4.554
v  0 0 0
v  1.607 -2.78852e-16 4.554
v  0.798 -1.38385e-16 2.26
v  6.784 -1.6894e-16 2.759
v  6.727 -1.70165e-16 2.779
v  5.234 1.0434e-16 -1.704
v  5.218 1.04034e-16 -1.699

# 0 UV coordinates

# 23 vertex normals
vn 0.282917 0.953921 -0.0999667
vn 0.269635 0.958209 -0.0955692
vn -0.0942789 0.952508 -0.289551
vn -0.0942865 0.952505 -0.289559
vn 0.287081 0.952522 -0.10142
vn 0.0942369 0.952556 0.289407
vn 0.09418 0.952572 0.289373
vn -0.943009 0.000609814 0.332767
vn -0.943009 0 0.332766
vn 4.6604e-20 -1 -6.12376e-17
vn 0.327554 -0 0.944832
vn 0.330873 -0.000728901 0.943675
vn 0.327593 0 0.944819
vn 2.64932e-20 1 6.13089e-17
vn 0.944651 0 -0.328077
vn -0.309605 0 -0.950865
vn -0.298947 -0.00235417 -0.954267
vn -0.309605 7.64363e-06 -0.950865
vn -0.29827 0 -0.954482
vn -2.00814e-24 -1 -6.12323e-17
vn 0 -1 -6.12323e-17
vn 2.88358e-22 -1 -6.12324e-17
vn 0 -1 -6.12328e-17

# Mesh 'defaultobject' with 26 faces
g defaultobject
usemtl DefaultMaterial
f  1//1 2//1 3//1
f  2//2 1//2 4//2
f  5//3 4//3 6//3
f  4//4 5//4 7//4
f  7//5 2//5 4//5
f  8//6 7//6 5//6
f  7//7 8//7 2//7
f  6//8 8//8 5//8
f  8//9 6//9 9//9
f  8//9 9//9 10//9
f  10//10 9//10 11//10
f  10//11 2//11 8//11
f  2//12 10//12 3//12
f  3//13 10//13 12//13
f  12//14 10//14 13//14
f  12//15 1//15 3//15
f  1//15 12//15 14//15
f  4//16 9//16 6//16
f  9//17 4//17 1//17
f  9//16 1//18 15//18
f  15//19 1//19 14//19
f  11//10 13//20 10//10
f  13//20 11//10 9//10
f  13//20 9//10 15//21
f  13//20 15//21 12//22
f  12//22 15//21 14//23

