# {"id":"ID_7876","idOriginal":"ID_7876","origin":[14.2797626870441,48.25270927636409],"elevation":266.497}
# Longitude: 14.2797626870441
# Latitude: 48.25270927636409
# Elevation: 266.497

# File produced by Open Asset Import Library (http://www.assimp.sf.net)
# (assimp v3.1.0)

mtllib ID_7876.obj.mtl

# 28 vertex positions
v  8.953 12.887 18.146
v  0.627 13.065 -0.292
v  0 12.887 7.89101e-16
v  9.553 13.06 17.843
v  0.605 13.065 -0.335
v  1.09 13.205 -0.579
v  0.599 13.065 -0.347
v  14.963 14.625 15.108
v  2.07 13.476 -0.964
v  6.042 14.625 -2.972
v  2.045 13.478 -1.032
v  12.051 12.893 -5.96
v  20.984 12.883 12.064
v  8.254 13.985 -4.09
v  0 0 0
v  8.953 -1.11112e-15 18.146
v  0.599 2.12476e-17 -0.347
v  0.627 1.78798e-17 -0.292
v  0.605 2.05128e-17 -0.335
v  20.984 -7.38707e-16 12.064
v  9.553 -1.09257e-15 17.843
v  14.963 -9.25098e-16 15.108
v  12.051 3.64945e-16 -5.96
v  6.042 1.81983e-16 -2.972
v  2.07 5.9028e-17 -0.964
v  8.254 2.5044e-16 -4.09
v  2.045 6.31918e-17 -1.032
v  1.09 3.54535e-17 -0.579

# 0 UV coordinates

# 50 vertex normals
vn -0.22356 0.968429 0.110301
vn -0.223536 0.968436 0.110291
vn -0.223337 0.968324 0.111669
vn -0.222298 0.968322 0.113733
vn -0.224204 0.968244 0.11062
vn -0.224178 0.968251 0.110607
vn -0.224261 0.968223 0.110683
vn -0.224173 0.968252 0.110611
vn -0.224177 0.968219 0.110893
vn 0.224222 0.968243 -0.110591
vn 0.224104 0.968272 -0.110577
vn 0.214418 0.968061 -0.129935
vn -0.896787 -2.7093e-17 0.442463
vn -0.896787 0 0.442463
vn -0.894426 0 0.447216
vn -0.890249 -9.50387e-06 0.455475
vn -0.891163 0 0.453683
vn -1.50851e-20 1 6.12403e-17
vn 0.45078 -0 0.892635
vn 0.451174 -2.2675e-05 0.892436
vn 0.451176 -2.39451e-05 0.892435
vn 0.451156 0 0.892445
vn -5.56224e-20 1 6.11846e-17
vn 8.72817e-19 1 6.24937e-17
vn 0.895993 0 -0.444069
vn 0.895993 0 -0.444069
vn -0.441819 0 -0.897104
vn -0.451863 -0.00339895 -0.892081
vn -0.450536 -0.00271607 -0.892754
vn -0.445245 0.00218647 -0.895406
vn -0.451164 -0 -0.892441
vn -1.21861e-22 1 6.12323e-17
vn -0.428574 0 -0.903507
vn -0.427243 0.000117913 -0.904137
vn -0.428113 -0 -0.903725
vn -1.91702e-21 -1 -6.12373e-17
vn -0.422173 0 -0.906515
vn -0.422173 5.55081e-17 -0.906515
vn 0.938579 0 -0.345064
vn 0.938579 0 -0.345064
vn 8.13461e-24 -1 -6.12323e-17
vn -5.67806e-23 -1 -6.12324e-17
vn 9.85753e-24 -1 -6.12323e-17
vn -2.41551e-24 -1 -6.12323e-17
vn -1.55186e-23 -1 -6.12323e-17
vn 0 -1 -6.12323e-17
vn 3.39039e-23 -1 -6.12323e-17
vn 9.34136e-24 -1 -6.12323e-17
vn 0 -1 -6.12323e-17
vn 0 -1 -6.12323e-17

# Mesh 'defaultobject' with 52 faces
g defaultobject
usemtl DefaultMaterial
f  1//1 2//1 3//1
f  2//2 1//2 4//2
f  5//3 6//3 7//3
f  6//4 5//4 2//4
f  6//5 2//5 4//5
f  6//6 4//6 8//6
f  6//7 8//7 9//7
f  9//8 8//6 10//8
f  11//9 6//9 9//9
f  12//10 8//10 13//10
f  8//11 12//11 10//11
f  10//12 12//12 14//12
f  15//13 1//13 3//13
f  1//13 15//13 16//14
f  17//15 5//15 7//15
f  5//16 17//16 2//16
f  2//17 17//17 18//17
f  18//18 17//18 19//18
f  16//19 4//19 1//19
f  4//20 16//20 8//20
f  8//20 16//20 13//21
f  13//22 16//22 20//22
f  20//23 16//23 21//23
f  20//23 21//23 22//24
f  13//25 23//25 12//25
f  23//25 13//25 20//26
f  23//27 14//27 12//27
f  14//28 23//28 10//28
f  10//29 23//29 9//29
f  9//30 23//30 24//30
f  9//31 24//31 25//31
f  24//32 23//32 26//32
f  27//33 6//33 11//33
f  6//34 27//34 7//34
f  7//35 27//35 17//35
f  17//36 27//36 28//36
f  18//37 3//37 2//37
f  3//37 18//37 15//38
f  9//39 27//39 11//39
f  27//39 9//39 25//40
f  27//36 25//41 28//36
f  28//36 19//42 17//36
f  19//42 28//36 18//43
f  18//43 28//36 21//44
f  21//44 28//36 22//45
f  22//45 28//36 25//41
f  22//45 25//41 24//46
f  22//45 24//46 26//47
f  22//45 26//47 20//48
f  20//48 26//47 23//49
f  18//43 16//50 15//50
f  16//50 18//43 21//44

