# {"id":"ID_9614","idOriginal":"ID_9614","origin":[14.291892375269475,48.321224054617296],"elevation":258.298}
# Longitude: 14.291892375269475
# Latitude: 48.321224054617296
# Elevation: 258.298

# File produced by Open Asset Import Library (http://www.assimp.sf.net)
# (assimp v3.1.0)

mtllib ID_9614.obj.mtl

# 32 vertex positions
v  0.314 16.858 0.752
v  6.24 16.582 -2.474
v  0 16.586 1.0156e-15
v  0.378 16.913 0.906
v  2.47 18.721 5.924
v  20.26 18.721 -1.092
v  7.936 16.583 -3.141
v  8.163 16.583 -3.23
v  10.215 16.584 -4.037
v  10.385 16.584 -4.104
v  18.164 16.91 -6.118
v  17.79 16.586 -7.016
v  18.131 16.881 -6.199
v  4.941 16.586 11.849
v  19.595 16.586 6.069
v  22.729 16.587 4.829
v  17.79 4.29606e-16 -7.016
v  0 0 0
v  7.936 1.92331e-16 -3.141
v  10.215 2.47195e-16 -4.037
v  10.385 2.51298e-16 -4.104
v  8.163 1.9778e-16 -3.23
v  6.24 1.51489e-16 -2.474
v  2.47 -3.6274e-16 5.924
v  4.941 -7.25542e-16 11.849
v  0.378 -5.54765e-17 0.906
v  0.314 -4.60467e-17 0.752
v  19.595 -3.71619e-16 6.069
v  22.729 -2.95691e-16 4.829
v  18.131 3.79579e-16 -6.199
v  18.164 3.74619e-16 -6.118
v  20.26 6.68657e-17 -1.092

# 0 UV coordinates

# 51 vertex normals
vn -0.116183 0.948539 -0.294575
vn -0.114502 0.949668 -0.291583
vn -0.115731 0.948885 -0.293638
vn -0.115818 0.948864 -0.293672
vn -0.115881 0.948993 -0.293231
vn -0.115557 0.948566 -0.294735
vn -0.115856 0.948938 -0.293417
vn -0.115754 0.948861 -0.293706
vn -0.115785 0.948884 -0.293622
vn -0.115888 0.948741 -0.294042
vn -0.28607 0.93318 -0.217573
vn 0.115799 0.948881 0.293624
vn 0.115827 0.948868 0.293654
vn 0.115886 0.94886 0.293657
vn -0.365967 0 -0.930628
vn -0.366668 -0.000361089 -0.930352
vn -0.365989 -3.25926e-06 -0.930619
vn -0.365017 0.000647961 -0.931
vn -0.365992 -2.04885e-05 -0.930618
vn -0.368564 -0.00209087 -0.9296
vn -0.366878 5.69625e-17 -0.930269
vn -5.30933e-22 1 6.12314e-17
vn -4.77838e-20 -1 -6.13544e-17
vn 4.08215e-20 1 6.1338e-17
vn 2.43179e-20 -1 -6.11676e-17
vn -1.56519e-21 1 6.12304e-17
vn -0.922977 -0.000188567 0.384856
vn -0.923005 -0.00333082 0.384774
vn -0.922968 0.00141908 0.384875
vn -0.922969 0 0.384875
vn -0.922985 3.24479e-05 0.384837
vn -0.922952 0 0.384914
vn 0 -1 -6.12336e-17
vn -1.45099e-20 -1 -6.12262e-17
vn 0.366921 -0 0.930252
vn 0.367909 -0.00100975 0.929861
vn 0.366921 0.00021597 0.930252
vn 0.367909 0 0.929862
vn 0.922843 0 -0.385176
vn 0.922843 0 -0.385176
vn 0.922971 0 -0.38487
vn 0.922959 -1.08078e-05 -0.384899
vn 0.922965 0 -0.384885
vn 1.72663e-19 1 6.1209e-17
vn 0.926096 0 -0.377288
vn 7.3466e-24 -1 -6.12323e-17
vn -4.18935e-24 -1 -6.12323e-17
vn -4.06767e-24 -1 -6.12323e-17
vn -1.86916e-22 -1 -6.12325e-17
vn 6.21119e-24 -1 -6.12323e-17
vn 6.77068e-24 -1 -6.12323e-17

# Mesh 'defaultobject' with 60 faces
g defaultobject
usemtl DefaultMaterial
f  1//1 2//1 3//1
f  2//2 1//2 4//2
f  2//3 4//3 5//3
f  2//4 5//4 6//4
f  2//5 6//5 7//5
f  7//6 6//6 8//6
f  8//7 6//7 9//7
f  9//8 6//8 10//8
f  10//9 6//9 11//9
f  10//10 11//10 12//10
f  12//11 11//11 13//11
f  14//12 6//12 5//12
f  6//13 14//13 15//13
f  6//14 15//14 16//14
f  17//15 10//15 12//15
f  10//16 17//16 9//16
f  9//17 17//17 8//17
f  8//18 17//18 7//18
f  7//19 17//19 2//19
f  2//20 17//20 3//20
f  3//21 17//21 18//21
f  18//22 17//22 19//22
f  19//23 17//23 20//23
f  20//24 17//22 21//24
f  19//23 20//23 22//25
f  18//22 19//22 23//26
f  4//27 14//27 5//27
f  14//28 4//28 1//28
f  14//29 1//29 3//29
f  14//30 3//30 18//30
f  14//31 18//31 24//31
f  14//32 24//32 25//32
f  24//33 18//33 26//33
f  26//33 18//33 27//34
f  25//35 15//35 14//35
f  15//36 25//36 16//36
f  16//37 25//37 28//37
f  16//38 28//38 29//38
f  30//39 12//39 13//39
f  12//39 30//39 17//40
f  29//41 6//41 16//41
f  6//42 29//42 11//42
f  11//43 29//43 31//43
f  31//44 29//44 32//44
f  31//45 13//45 11//45
f  13//45 31//45 30//45
f  28//46 32//46 29//46
f  32//46 28//46 25//47
f  32//46 25//47 31//48
f  31//48 25//47 30//49
f  30//49 25//47 17//23
f  17//23 25//47 21//50
f  21//50 25//47 20//23
f  20//23 25//47 22//25
f  22//25 25//47 24//33
f  22//25 24//33 19//23
f  19//23 24//33 23//51
f  23//51 24//33 27//34
f  23//51 27//34 18//33
f  27//34 24//33 26//33

