# {"id":"ID_48800","idOriginal":"ID_48800","origin":[14.325276329486371,48.23765545280585],"elevation":260.409}
# Longitude: 14.325276329486371
# Latitude: 48.23765545280585
# Elevation: 260.409

# File produced by Open Asset Import Library (http://www.assimp.sf.net)
# (assimp v3.1.0)

mtllib ID_48800.obj.mtl

# 11 vertex positions
v  2.89 2.278 1.113
v  4.957 1.139 2.591
v  4.068 2.278 0.589
v  1.777 1.14 4.002
v  0 1.14 6.98049e-17
v  3.18 1.14 -1.412
v  3.18 8.64601e-17 -1.412
v  0 0 0
v  1.777 -2.45052e-16 4.002
v  4.957 -1.58653e-16 2.591
v  4.068 -3.60658e-17 0.589

# 0 UV coordinates

# 18 vertex normals
vn 0.187498 0.887227 0.421512
vn 0.187372 0.887186 0.421655
vn -0.187177 0.88728 -0.421545
vn -0.187301 0.887479 -0.42107
vn -0.421475 0.887319 0.187147
vn -0.405818 0 -0.913954
vn -0.405818 5.59635e-17 -0.913954
vn -0.913953 -2.48493e-17 0.405821
vn -0.913953 0 0.405821
vn 0.405578 -0 0.91406
vn 0.405578 0 0.91406
vn 0.914037 0 -0.40563
vn 0.913975 0.00014872 -0.405771
vn 0.914037 -0.000446338 -0.40563
vn 0.913943 0 -0.405842
vn -8.68769e-25 -1 -6.12323e-17
vn -8.68803e-25 -1 -6.12323e-17
vn -3.47339e-24 -1 -6.12323e-17

# Mesh 'defaultobject' with 18 faces
g defaultobject
usemtl DefaultMaterial
f  1//1 2//1 3//1
f  2//2 1//2 4//2
f  5//3 3//3 6//3
f  3//4 5//4 1//4
f  1//5 5//5 4//5
f  7//6 5//6 6//6
f  5//6 7//6 8//7
f  8//8 4//8 5//8
f  4//8 8//8 9//9
f  9//10 2//10 4//10
f  2//10 9//10 10//11
f  3//12 7//12 6//12
f  7//13 3//13 2//13
f  7//14 2//14 11//14
f  11//15 2//15 10//15
f  11//16 8//16 7//16
f  8//16 11//16 9//17
f  9//17 11//16 10//18

