# {"id":"ID_30222","idOriginal":"ID_30222","origin":[14.35975255293141,48.258827347927706],"elevation":252.083,"wof":[{"Id":102049853,"Name":"Linz","Placetype":"county","Offset":-1},{"Id":85632785,"Name":"Austria","Placetype":"country","Offset":-1},{"Id":85681677,"Name":"Oberösterreich","Placetype":"region","Offset":-1},{"Id":85898441,"Name":"Posch","Placetype":"neighbourhood","Offset":-1},{"Id":101748071,"Name":"Linz","Placetype":"locality","Offset":-1}]}

# Attribution: City of Linz <http://geo.data.linz.gv.at/katalog/geodata/3d_geo_daten_lod2/>
# Longitude: 14.35975255293141
# Latitude: 48.258827347927706
# Elevation: 252.083

# File produced by Open Asset Import Library (http://www.assimp.sf.net)
# (assimp v3.1.0)


# 20 vertex positions
v  5.713 5.749 -2.002
v  7.53 5.749 2.652
v  6.013 5.749 -2.119
v  9.369 5.749 8.44
v  5.353 5.749 -1.862
v  5.916 5.749 9.666
v  0 5.749 3.52025e-16
v  5.811 5.749 9.703
v  4.821 5.749 10.057
v  4.028 5.749 10.322
v  6.013 1.29751e-16 -2.119
v  5.353 1.14015e-16 -1.862
v  5.713 1.22587e-16 -2.002
v  0 0 0
v  4.028 -6.3204e-16 10.322
v  4.821 -6.15814e-16 10.057
v  5.916 -5.91872e-16 9.666
v  9.369 -5.16801e-16 8.44
v  5.811 -5.94137e-16 9.703
v  7.53 -1.62388e-16 2.652

# 0 UV coordinates

# 24 vertex normals
vn -0 1 0
vn -0.363345 0 -0.931655
vn -0.362447 5.39728e-05 -0.932005
vn -0.362855 -0 -0.931846
vn -8.62671e-21 -1 -6.12531e-17
vn -0.328534 0 -0.944492
vn -0.328534 5.78335e-17 -0.944492
vn -0.931581 -2.22601e-17 0.363535
vn -0.931581 0 0.363535
vn 0.316945 -0 0.948444
vn 0.336698 -0 0.941613
vn 0.332348 0.000844215 0.943157
vn 0.33459 0.00036324 0.942364
vn 0.336282 -0.00114472 0.941761
vn 0.33459 0 0.942364
vn 1.45436e-20 -1 -6.11916e-17
vn 0.952986 0 -0.303014
vn 0.953051 -0.000186777 -0.302809
vn 0.952986 0.000226576 -0.303014
vn 0.953051 0 -0.30281
vn 1.31626e-22 -1 -6.12324e-17
vn 0 -1 -6.12323e-17
vn 3.15857e-24 -1 -6.12323e-17
vn -3.08015e-24 -1 -6.12323e-17

# Mesh 'defaultobject' with 36 faces
g defaultobject
usemtl DefaultMaterial
f  1//1 2//1 3//1
f  2//1 1//1 4//1
f  4//1 1//1 5//1
f  4//1 5//1 6//1
f  6//1 5//1 7//1
f  6//1 7//1 8//1
f  8//1 7//1 9//1
f  9//1 7//1 10//1
f  11//2 1//2 3//2
f  1//3 11//3 5//3
f  5//4 11//4 12//4
f  12//5 11//5 13//5
f  12//6 7//6 5//6
f  7//6 12//6 14//7
f  14//8 10//8 7//8
f  10//8 14//8 15//9
f  15//10 9//10 10//10
f  9//10 15//10 16//10
f  16//11 8//11 9//11
f  8//12 16//12 6//12
f  6//13 16//13 4//13
f  4//14 16//14 17//14
f  4//15 17//15 18//15
f  17//16 16//16 19//16
f  2//17 11//17 3//17
f  11//18 2//18 4//18
f  11//19 4//19 20//19
f  20//20 4//20 18//20
f  20//21 13//5 11//5
f  13//5 20//21 12//5
f  12//5 20//21 14//22
f  14//22 20//21 15//23
f  15//23 20//21 18//24
f  15//23 18//24 17//16
f  15//23 17//16 19//16
f  15//23 19//16 16//16

