# {"id":"_16127","idOriginal":"_16127","origin":[14.290138878410783,48.29871250107129],"elevation":261.855}
# Longitude: 14.290138878410783
# Latitude: 48.29871250107129
# Elevation: 261.855

# File produced by Open Asset Import Library (http://www.assimp.sf.net)
# (assimp v3.1.0)

mtllib _16127.obj.mtl

# 26 vertex positions
v  1.21 14.793 -5.655
v  14.977 11.068 2.89
v  16.125 14.793 -2.312
v  14.879 10.749 3.335
v  0 10.749 6.58186e-16
v  0.051 10.92 -0.239
v  17.182 10.705 -8.066
v  17.164 11.422 -7.019
v  17.033 10.706 -8.098
v  12.857 10.735 -8.992
v  9.796 10.756 -9.647
v  5.659 10.768 -10.556
v  2.405 10.801 -11.238
v  2.405 6.88129e-16 -11.238
v  1.21 3.46269e-16 -5.655
v  0 0 0
v  0.051 1.46345e-17 -0.239
v  14.879 -2.0421e-16 3.335
v  16.125 1.41569e-16 -2.312
v  17.164 4.2979e-16 -7.019
v  14.977 -1.76961e-16 2.89
v  17.182 4.939e-16 -8.066
v  5.659 6.46369e-16 -10.556
v  9.796 5.90708e-16 -9.647
v  12.857 5.50601e-16 -8.992
v  17.033 4.95859e-16 -8.098

# 0 UV coordinates

# 44 vertex normals
vn -0.125332 0.819521 0.559176
vn -0.125665 0.819199 0.559572
vn -0.125343 0.819492 0.559215
vn 0.43076 0.687926 0.584127
vn 0.126233 0.819485 -0.559025
vn 0.125338 0.819503 -0.559201
vn 0.125494 0.819821 -0.5587
vn 0.125377 0.819587 -0.559069
vn 0.12529 0.819481 -0.559244
vn 0.125264 0.81946 -0.559279
vn 0.125497 0.81953 -0.559125
vn -0.977851 0 -0.209302
vn -0.977859 -1.36664e-05 -0.209267
vn -0.977851 2.28219e-05 -0.209302
vn -0.97795 -0.000217104 -0.208839
vn -0.977866 1.28119e-17 -0.209234
vn -8.42962e-21 1 6.12306e-17
vn -0.218715 -5.97498e-17 0.975789
vn -0.218715 0 0.975789
vn 0.976499 3.45212e-05 0.215523
vn 0.976494 0.000691441 0.215545
vn 0.976503 0 0.215502
vn 0.976511 -3.49264e-05 0.215465
vn 0.976494 0 0.215546
vn 1.99411e-19 -1 -6.11695e-17
vn 0.999852 -0 0.0171891
vn 0.999852 0 0.0171891
vn 0.205131 0 -0.978735
vn 0.205131 0 -0.978734
vn 0.214605 0 -0.976701
vn 0.214605 0 -0.976701
vn 0.209246 0 -0.977863
vn 0.209246 0 -0.977863
vn 0.209337 0 -0.977844
vn 0.209337 0 -0.977844
vn 0.209977 0 -0.977706
vn -2.53579e-22 -1 -6.12323e-17
vn 4.52342e-24 -1 -6.12324e-17
vn 1.96733e-23 -1 -6.12323e-17
vn -1.72561e-23 -1 -6.12323e-17
vn 0 -1 -6.12323e-17
vn 1.38554e-23 -1 -6.12323e-17
vn -1.84652e-19 -1 -6.12585e-17
vn -2.69799e-19 -1 -6.12444e-17

# Mesh 'defaultobject' with 48 faces
g defaultobject
usemtl DefaultMaterial
f  1//1 2//1 3//1
f  2//2 1//2 4//2
f  4//3 1//3 5//3
f  5//4 1//4 6//4
f  7//5 3//5 8//5
f  3//6 7//6 1//6
f  1//7 7//7 9//7
f  1//8 9//8 10//8
f  1//9 10//9 11//9
f  1//10 11//10 12//10
f  1//11 12//11 13//11
f  14//12 1//12 13//12
f  1//13 14//13 6//13
f  6//14 14//14 15//14
f  6//15 15//15 5//15
f  5//16 15//16 16//16
f  16//17 15//17 17//17
f  16//18 4//18 5//18
f  4//18 16//18 18//19
f  2//20 8//20 3//20
f  8//21 2//21 4//21
f  8//22 4//22 18//22
f  8//23 18//23 19//23
f  8//24 19//24 20//24
f  19//25 18//25 21//25
f  20//26 7//26 8//26
f  7//26 20//26 22//27
f  12//28 14//28 13//28
f  14//28 12//28 23//29
f  23//30 12//30 11//30
f  23//30 11//30 24//31
f  24//32 11//32 10//32
f  24//32 10//32 25//33
f  25//34 10//34 9//34
f  25//34 9//34 26//35
f  26//36 9//36 7//36
f  26//36 7//36 22//36
f  20//37 26//37 22//37
f  26//37 20//37 25//38
f  25//38 20//37 19//25
f  25//38 19//25 21//25
f  25//38 21//25 24//39
f  24//39 21//25 18//25
f  24//39 18//25 23//40
f  23//40 18//25 16//41
f  23//40 16//41 14//42
f  14//42 16//41 15//43
f  15//43 16//41 17//44

