# {"id":"ID_55851","idOriginal":"ID_55851","origin":[14.361475501938695,48.24574650421876],"elevation":256.441,"wof":[{"Id":102049853,"Name":"Linz","Placetype":"county","Offset":-1},{"Id":85681677,"Name":"Oberösterreich","Placetype":"region","Offset":-1},{"Id":85898441,"Name":"Posch","Placetype":"neighbourhood","Offset":-1},{"Id":85632785,"Name":"Austria","Placetype":"country","Offset":-1},{"Id":101748071,"Name":"Linz","Placetype":"locality","Offset":-1}]}

# Attribution: City of Linz <http://geo.data.linz.gv.at/katalog/geodata/3d_geo_daten_lod2/>
# Longitude: 14.361475501938695
# Latitude: 48.24574650421876
# Elevation: 256.441

# File produced by Open Asset Import Library (http://www.assimp.sf.net)
# (assimp v3.1.0)


# 8 vertex positions
v  0 0.506 3.09836e-17
v  3.091 0.506 1.979
v  2.391 0.506 -0.64
v  0.7 0.506 2.618
v  2.391 3.91887e-17 -0.64
v  0 0 0
v  0.7 -1.60306e-16 2.618
v  3.091 -1.21179e-16 1.979

# 0 UV coordinates

# 9 vertex normals
vn -0 1 0
vn -0.258568 0 -0.965993
vn -0.258568 5.915e-17 -0.965993
vn -0.966063 -1.58167e-17 0.258306
vn -0.966063 0 0.258306
vn 0.258191 -0 0.966094
vn 0.966088 0 -0.258214
vn -3.94481e-24 -1 -6.12323e-17
vn -3.94663e-24 -1 -6.12323e-17

# Mesh 'defaultobject' with 12 faces
g defaultobject
usemtl DefaultMaterial
f  1//1 2//1 3//1
f  2//1 1//1 4//1
f  5//2 1//2 3//2
f  1//2 5//2 6//3
f  6//4 4//4 1//4
f  4//4 6//4 7//5
f  7//6 2//6 4//6
f  2//6 7//6 8//6
f  8//7 3//7 2//7
f  3//7 8//7 5//7
f  8//8 6//8 5//8
f  6//8 8//8 7//9

