# {"id":"ID_19878","idOriginal":"ID_19878","origin":[14.277811662494832,48.255937346762686],"elevation":266.216,"wof":[{"Id":102049853,"Name":"Linz","Placetype":"county","Offset":-1},{"Id":85632785,"Name":"Austria","Placetype":"country","Offset":-1},{"Id":101748071,"Name":"Linz","Placetype":"locality","Offset":-1},{"Id":85681677,"Name":"Oberösterreich","Placetype":"region","Offset":-1},{"Id":85898447,"Name":"Scharlinz","Placetype":"neighbourhood","Offset":-1}]}

# Attribution: City of Linz <http://geo.data.linz.gv.at/katalog/geodata/3d_geo_daten_lod2/>
# Longitude: 14.277811662494832
# Latitude: 48.255937346762686
# Elevation: 266.216

# File produced by Open Asset Import Library (http://www.assimp.sf.net)
# (assimp v3.1.0)


# 16 vertex positions
v  16.848 5.506 -2.085
v  17.757 5.506 4.207
v  18.22 5.506 4.075
v  16.703 5.506 -2.738
v  16.379 5.506 -4.083
v  1.988 5.506 8.018
v  16.355 5.506 -4.077
v  0 5.506 3.37145e-16
v  16.379 2.50012e-16 -4.083
v  0 0 0
v  16.355 2.49644e-16 -4.077
v  1.988 -4.90961e-16 8.018
v  17.757 -2.57604e-16 4.207
v  18.22 -2.49522e-16 4.075
v  16.703 1.67654e-16 -2.738
v  16.848 1.27669e-16 -2.085

# 0 UV coordinates

# 17 vertex normals
vn 0 1 0
vn -0.242536 0 -0.970143
vn -0.24188 3.03847e-06 -0.970306
vn -0.24188 5.94141e-17 -0.970306
vn 0 -1 -6.15124e-17
vn -0.970611 -1.47359e-17 0.240655
vn -0.970611 0 0.240655
vn 0.234914 -0 0.972016
vn 0.274173 -0 0.96168
vn 0.97219 0 -0.234193
vn 0.976083 0 -0.2174
vn 0.976222 0 -0.216773
vn 1.93355e-22 -1 -6.12323e-17
vn 0 -1 -6.12323e-17
vn 0 -1 -6.12324e-17
vn 2.00911e-24 -1 -6.12323e-17
vn -3.33982e-22 -1 -6.12323e-17

# Mesh 'defaultobject' with 28 faces
g defaultobject
usemtl DefaultMaterial
f  1//1 2//1 3//1
f  2//1 1//1 4//1
f  2//1 4//1 5//1
f  2//1 5//1 6//1
f  6//1 5//1 7//1
f  6//1 7//1 8//1
f  9//2 7//2 5//2
f  7//3 9//3 8//3
f  8//3 9//3 10//4
f  10//5 9//5 11//5
f  10//6 6//6 8//6
f  6//6 10//6 12//7
f  12//8 2//8 6//8
f  2//8 12//8 13//8
f  13//9 3//9 2//9
f  3//9 13//9 14//9
f  15//10 5//10 4//10
f  5//10 15//10 9//10
f  14//11 1//11 3//11
f  1//11 14//11 16//11
f  1//12 16//12 4//12
f  4//12 16//12 15//12
f  15//13 11//5 9//5
f  11//5 15//13 10//5
f  10//5 15//13 12//14
f  12//14 15//13 16//15
f  12//14 16//15 14//16
f  12//14 14//16 13//17

