# {"id":"ID_31049","idOriginal":"ID_31049","origin":[14.36271253428201,48.25873366140513],"elevation":251.225,"wof":[{"Id":85681677,"Name":"Oberösterreich","Placetype":"region","Offset":-1},{"Id":85898441,"Name":"Posch","Placetype":"neighbourhood","Offset":-1},{"Id":102049853,"Name":"Linz","Placetype":"county","Offset":-1},{"Id":85632785,"Name":"Austria","Placetype":"country","Offset":-1}]}

# Attribution: City of Linz <http://geo.data.linz.gv.at/katalog/geodata/3d_geo_daten_lod2/>
# Longitude: 14.36271253428201
# Latitude: 48.25873366140513
# Elevation: 251.225

# File produced by Open Asset Import Library (http://www.assimp.sf.net)
# (assimp v3.1.0)


# 12 vertex positions
v  0 3.311 2.0274e-16
v  8.405 3.311 -0.262
v  3.013 3.311 -4.165
v  8.405 3.311 6.084
v  12.857 3.311 2.96
v  9.844 3.311 7.126
v  9.844 -4.36342e-16 7.126
v  12.857 -1.81248e-16 2.96
v  8.405 1.60429e-17 -0.262
v  3.013 2.55033e-16 -4.165
v  0 0 0
v  8.405 -3.72538e-16 6.084

# 0 UV coordinates

# 13 vertex normals
vn 0 1 0
vn 0.810289 -0 0.58603
vn 0.586287 0 -0.810103
vn 0.586357 0 -0.810053
vn -0.810222 0 -0.586122
vn -0.810222 3.58897e-17 -0.586122
vn -0.586359 -4.96013e-17 0.810051
vn -0.586359 0 0.810051
vn -0.586497 0 0.809951
vn 3.86788e-25 -1 -6.12323e-17
vn 1.24066e-25 -1 -6.12323e-17
vn -3.74762e-24 -1 -6.12323e-17
vn -8.69342e-24 -1 -6.12323e-17

# Mesh 'defaultobject' with 20 faces
g defaultobject
usemtl DefaultMaterial
f  1//1 2//1 3//1
f  2//1 1//1 4//1
f  2//1 4//1 5//1
f  5//1 4//1 6//1
f  7//2 5//2 6//2
f  5//2 7//2 8//2
f  8//3 2//3 5//3
f  2//3 8//3 9//3
f  2//4 9//4 3//4
f  3//4 9//4 10//4
f  10//5 1//5 3//5
f  1//5 10//5 11//6
f  11//7 4//7 1//7
f  4//7 11//7 12//8
f  4//9 12//9 6//9
f  6//9 12//9 7//9
f  9//10 11//10 10//10
f  11//10 9//10 12//11
f  12//11 9//10 8//12
f  12//11 8//12 7//13

