# {"id":"ID_51481","idOriginal":"ID_51481","origin":[14.299945051887795,48.254252930330956],"elevation":263.968}
# Longitude: 14.299945051887795
# Latitude: 48.254252930330956
# Elevation: 263.968

# File produced by Open Asset Import Library (http://www.assimp.sf.net)
# (assimp v3.1.0)

mtllib ID_51481.obj.mtl

# 12 vertex positions
v  0.416 2.473 4.094
v  0.384 2.473 -0.004
v  0 2.473 1.51428e-16
v  2.714 2.473 -0.453
v  3.148 2.473 3.816
v  0.383 2.473 -0.216
v  2.714 2.77382e-17 -0.453
v  0.383 1.32262e-17 -0.216
v  0.384 2.44929e-19 -0.004
v  0 0 0
v  0.416 -2.50685e-16 4.094
v  3.148 -2.33663e-16 3.816

# 0 UV coordinates

# 13 vertex normals
vn 0 1 0
vn -0.101152 0 -0.994871
vn -0.0104161 0 -0.999946
vn -0.0104161 6.1229e-17 -0.999946
vn -0.999989 0 0.00471701
vn -0.994877 -6.19007e-18 0.101092
vn -0.994877 0 0.101092
vn 0.101234 -0 0.994863
vn 0.994872 0 -0.101142
vn -9.36946e-24 -1 -6.12323e-17
vn 0 -1 -6.12323e-17
vn 0 -1 -6.12323e-17
vn 0 -1 -6.12323e-17

# Mesh 'defaultobject' with 20 faces
g defaultobject
usemtl DefaultMaterial
f  1//1 2//1 3//1
f  2//1 1//1 4//1
f  4//1 1//1 5//1
f  4//1 6//1 2//1
f  7//2 6//2 4//2
f  6//2 7//2 8//2
f  9//3 3//3 2//3
f  3//3 9//3 10//4
f  8//5 2//5 6//5
f  2//5 8//5 9//5
f  10//6 1//6 3//6
f  1//6 10//6 11//7
f  11//8 5//8 1//8
f  5//8 11//8 12//8
f  12//9 4//9 5//9
f  4//9 12//9 7//9
f  10//10 12//10 11//10
f  12//10 10//10 9//11
f  12//10 9//11 8//12
f  12//10 8//12 7//13

