# {"id":"ID_47211","idOriginal":"ID_47211","origin":[14.3074882085898,48.33339399618096],"elevation":259.923}
# Longitude: 14.3074882085898
# Latitude: 48.33339399618096
# Elevation: 259.923

# File produced by Open Asset Import Library (http://www.assimp.sf.net)
# (assimp v3.1.0)

mtllib ID_47211.obj.mtl

# 8 vertex positions
v  0.816 2.443 -2.878
v  5.567 2.443 1.506
v  6.389 2.443 -1.364
v  0 2.443 1.49591e-16
v  6.389 8.35209e-17 -1.364
v  0.816 1.76227e-16 -2.878
v  0 0 0
v  5.567 -9.22159e-17 1.506

# 0 UV coordinates

# 9 vertex normals
vn 0 1 0
vn 0.262165 0 -0.965023
vn -0.962077 0 -0.272778
vn -0.962077 1.67028e-17 -0.272778
vn -0.261136 -5.91077e-17 0.965302
vn -0.261136 0 0.965302
vn 0.961347 -0 0.27534
vn -3.07092e-24 -1 -6.12323e-17
vn -3.06883e-24 -1 -6.12323e-17

# Mesh 'defaultobject' with 12 faces
g defaultobject
usemtl DefaultMaterial
f  1//1 2//1 3//1
f  2//1 1//1 4//1
f  5//2 1//2 3//2
f  1//2 5//2 6//2
f  6//3 4//3 1//3
f  4//3 6//3 7//4
f  7//5 2//5 4//5
f  2//5 7//5 8//6
f  8//7 3//7 2//7
f  3//7 8//7 5//7
f  8//8 6//8 5//8
f  6//8 8//8 7//9

