# {"id":"ID_28281","idOriginal":"ID_28281","origin":[14.283095031510573,48.27342366819953],"elevation":277.562}
# Longitude: 14.283095031510573
# Latitude: 48.27342366819953
# Elevation: 277.562

# File produced by Open Asset Import Library (http://www.assimp.sf.net)
# (assimp v3.1.0)

mtllib ID_28281.obj.mtl

# 18 vertex positions
v  3.861 10.275 -2.187
v  4.256 4.602 7.556
v  8.119 10.275 5.368
v  3.923 4.629 6.923
v  0 4.605 2.81975e-16
v  11.975 4.612 3.183
v  10.391 4.621 0.388
v  9.116 4.604 -1.902
v  7.717 4.612 -4.372
v  7.717 2.67708e-16 -4.372
v  9.116 1.16464e-16 -1.902
v  10.391 -2.37581e-17 0.388
v  11.975 -1.94903e-16 3.183
v  3.861 1.33915e-16 -2.187
v  0 0 0
v  3.923 -4.23911e-16 6.923
v  4.256 -4.62672e-16 7.556
v  8.119 -3.28695e-16 5.368

# 0 UV coordinates

# 32 vertex normals
vn -0.686056 0.616296 0.386661
vn -0.685481 0.616775 0.386917
vn -0.686064 0.616306 0.38663
vn 0.686041 0.616318 -0.386653
vn 0.686062 0.616185 -0.386826
vn 0.686082 0.616327 -0.386564
vn 0.686074 0.616318 -0.386594
vn 0.870123 0 -0.492835
vn 0.873712 -0.00453123 -0.486422
vn 0.870115 0.00415173 -0.492831
vn 0.869998 0.00428649 -0.493037
vn 0.873695 -0.00527265 -0.486446
vn 0.87 0 -0.493052
vn -0.49293 6.3947e-05 -0.870069
vn -0.49293 0 -0.870069
vn -0.493001 -0.00015747 -0.870029
vn -0.492859 5.32788e-17 -0.870109
vn -0.870024 0 0.493009
vn -0.870024 0 0.493009
vn -0.885009 0 0.465574
vn -0.885009 0 0.465574
vn 0.492919 -7.41555e-05 0.870075
vn 0.492919 0 0.870075
vn 0.492836 0.000182114 0.870122
vn 0.493001 0 0.870029
vn -2.99862e-24 -1 -6.12323e-17
vn -1.201e-23 -1 -6.12323e-17
vn 1.68243e-23 -1 -6.12323e-17
vn -4.67672e-23 -1 -6.12324e-17
vn 8.17518e-24 -1 -6.12323e-17
vn 0 -1 -6.12323e-17
vn 3.71804e-24 -1 -6.12323e-17

# Mesh 'defaultobject' with 32 faces
g defaultobject
usemtl DefaultMaterial
f  1//1 2//1 3//1
f  2//2 1//2 4//2
f  4//3 1//3 5//3
f  6//4 1//4 3//4
f  1//5 6//5 7//5
f  1//6 7//6 8//6
f  1//7 8//7 9//7
f  8//8 10//8 9//8
f  10//9 8//9 7//9
f  10//10 7//10 11//10
f  11//11 7//11 6//11
f  11//12 6//12 12//12
f  12//13 6//13 13//13
f  9//14 5//14 1//14
f  5//15 9//15 10//15
f  5//16 10//16 14//16
f  5//17 14//17 15//17
f  5//18 16//18 4//18
f  16//18 5//18 15//19
f  16//20 2//20 4//20
f  2//20 16//20 17//21
f  2//22 6//22 3//22
f  6//23 2//23 17//23
f  6//24 17//24 18//24
f  6//25 18//25 13//25
f  14//26 16//26 15//26
f  16//26 14//26 10//27
f  16//26 10//27 11//28
f  16//26 11//28 17//29
f  17//29 11//28 18//30
f  18//30 11//28 12//31
f  18//30 12//31 13//32

