# {"id":"_5241","idOriginal":"_5241","origin":[14.320667618003643,48.297922746657314],"elevation":252.662,"wof":[{"Id":85681677,"Name":"Oberösterreich","Placetype":"region","Offset":-1},{"Id":85898449,"Name":"Steeg","Placetype":"neighbourhood","Offset":-1},{"Id":102049853,"Name":"Linz","Placetype":"county","Offset":-1},{"Id":101748071,"Name":"Linz","Placetype":"locality","Offset":-1},{"Id":85632785,"Name":"Austria","Placetype":"country","Offset":-1}]}

# Attribution: City of Linz <http://geo.data.linz.gv.at/katalog/geodata/3d_geo_daten_lod2/>
# Longitude: 14.320667618003643
# Latitude: 48.297922746657314
# Elevation: 252.662

# File produced by Open Asset Import Library (http://www.assimp.sf.net)
# (assimp v3.1.0)


# 30 vertex positions
v  15.589 15.545 -6.515
v  25.468 15.545 -1.201
v  22.078 15.545 -9.227
v  19.011 15.545 1.676
v  19.011 -1.02625e-16 1.676
v  25.468 7.354e-17 -1.201
v  22.078 5.64991e-16 -9.227
v  15.589 3.98929e-16 -6.515
v  17.027 12.253 7.006
v  21.949 11.646 9.038
v  19.061 11.641 2.041
v  8.511 12.252 10.553
v  21.959 11.641 9.063
v  3.523 11.626 8.432
v  19.025 11.626 1.953
v  3.561 11.642 8.524
v  15.589 11.626 -6.515
v  18.926 11.626 1.714
v  19.011 11.626 1.676
v  0 11.626 7.11887e-16
v  6.472 11.642 15.493
v  6.472 -9.48673e-16 15.493
v  21.959 -5.54949e-16 9.063
v  18.926 -1.04952e-16 1.714
v  21.949 -5.53418e-16 9.038
v  19.025 -1.19587e-16 1.953
v  19.061 -1.24975e-16 2.041
v  0 0 0
v  3.523 -5.16311e-16 8.432
v  3.561 -5.21944e-16 8.524

# 0 UV coordinates

# 40 vertex normals
vn -0 1 0
vn 0.406991 -0 0.913432
vn 0.921198 0 -0.389093
vn -0.385615 0 -0.92266
vn -0.922713 0 0.385487
vn 3.37547e-24 -1 -6.12323e-17
vn 3.4559e-24 -1 -6.12323e-17
vn 0.147105 0.987212 -0.0614226
vn 0.0636372 0.983181 0.171188
vn 0.0610878 0.987257 0.146944
vn -0.060093 0.987783 -0.143782
vn -0.0613433 0.987259 -0.146823
vn -0.0613663 0.987223 -0.147056
vn -0.0617411 0.987326 -0.146205
vn -0.146797 0.987264 0.0613182
vn 0.0611572 0.987222 0.147147
vn 0.383451 -0 0.923561
vn 0.408134 -0 0.912922
vn 0.928472 0 -0.371403
vn 0.924358 -2.52651e-05 -0.381527
vn 0.925432 0.00182093 -0.37891
vn 0.928444 0.0071775 -0.371402
vn 0.924372 0 -0.381491
vn 0.923877 0 -0.38269
vn 1.6227e-20 -1 -6.12393e-17
vn 0.922713 0 -0.385487
vn -0.385603 0 -0.922665
vn -0.385603 5.64969e-17 -0.922665
vn -0.922701 -2.36061e-17 0.385517
vn -0.92448 0.00366072 0.381213
vn -0.922736 3.68772e-05 0.385433
vn -0.922701 -9.33692e-05 0.385516
vn -0.924259 0.00258079 0.381756
vn -0.922736 0 0.385433
vn -3.52968e-25 -1 -6.12323e-17
vn -6.85762e-25 -1 -6.12323e-17
vn 0 -1 -6.12639e-17
vn -1.12774e-22 -1 -6.12326e-17
vn 3.135e-25 -1 -6.12323e-17
vn -9.38085e-22 -1 -6.12353e-17

# Mesh 'defaultobject' with 55 faces
g defaultobject
usemtl DefaultMaterial
f  1//1 2//1 3//1
f  2//1 1//1 4//1
f  5//2 2//2 4//2
f  2//2 5//2 6//2
f  6//3 3//3 2//3
f  3//3 6//3 7//3
f  7//4 1//4 3//4
f  1//4 7//4 8//4
f  8//5 4//5 1//5
f  4//5 8//5 5//5
f  8//6 6//6 5//6
f  6//6 8//6 7//7
f  9//8 10//8 11//8
f  12//9 13//9 10//9
f  12//10 10//10 9//10
f  14//11 11//11 15//11
f  11//12 14//12 9//12
f  9//13 14//13 12//13
f  12//14 14//14 16//14
f  17//1 18//1 19//1
f  18//1 14//1 15//1
f  14//1 18//1 17//1
f  14//1 17//1 20//1
f  12//15 16//15 21//15
f  21//16 13//16 12//16
f  22//17 13//17 21//17
f  13//17 22//17 23//17
f  24//18 19//18 18//18
f  19//18 24//18 5//18
f  23//19 10//19 13//19
f  10//20 23//20 11//20
f  11//21 23//21 15//21
f  15//22 23//22 25//22
f  15//23 25//23 26//23
f  15//24 26//24 24//24
f  26//25 25//25 27//25
f  24//24 18//24 15//24
f  5//26 17//26 19//26
f  17//26 5//26 8//26
f  8//27 20//27 17//27
f  20//27 8//27 28//28
f  28//29 14//29 20//29
f  14//30 28//30 16//30
f  16//31 28//31 21//31
f  21//32 28//32 29//32
f  21//33 29//33 30//33
f  21//34 30//34 22//34
f  5//6 28//35 8//6
f  28//35 5//6 29//36
f  29//36 5//6 24//37
f  29//36 24//37 27//25
f  29//36 27//25 30//38
f  30//38 27//25 25//25
f  30//38 25//25 22//39
f  22//39 25//25 23//40

