# {"id":"_21498","idOriginal":"_21498","origin":[14.265127260978028,48.31005224155426],"elevation":346.06}
# Longitude: 14.265127260978028
# Latitude: 48.31005224155426
# Elevation: 346.06

# File produced by Open Asset Import Library (http://www.assimp.sf.net)
# (assimp v3.1.0)

mtllib _21498.obj.mtl

# 14 vertex positions
v  9.429 7.17 7.628
v  0.637 7.17 -0.801
v  0 7.17 4.39036e-16
v  6.423 7.17 -8.087
v  11.742 7.17 4.658
v  15.758 7.17 -0.269
v  15.912 7.17 -0.435
v  15.912 2.66361e-17 -0.435
v  6.423 4.95186e-16 -8.087
v  0.637 4.90471e-17 -0.801
v  0 0 0
v  9.429 -4.6708e-16 7.628
v  15.758 1.64715e-17 -0.269
v  11.742 -2.8522e-16 4.658

# 0 UV coordinates

# 14 vertex normals
vn 0 1 0
vn 0.627732 0 -0.77843
vn -0.783108 0 -0.621886
vn -0.782677 -0 -0.622428
vn -0.782677 3.81127e-17 -0.622428
vn -0.628949 -4.76049e-17 0.777446
vn -0.628949 0 0.777446
vn 0.733109 -0 0.680111
vn 0.788966 -0 0.614437
vn 0.775127 -0 0.631806
vn -6.39796e-24 -1 -6.12323e-17
vn 0 -1 -6.12323e-17
vn 4.67699e-24 -1 -6.12323e-17
vn -4.80644e-24 -1 -6.12323e-17

# Mesh 'defaultobject' with 24 faces
g defaultobject
usemtl DefaultMaterial
f  1//1 2//1 3//1
f  2//1 1//1 4//1
f  4//1 1//1 5//1
f  4//1 5//1 6//1
f  4//1 6//1 7//1
f  8//2 4//2 7//2
f  4//2 8//2 9//2
f  9//3 2//3 4//3
f  2//3 9//3 10//3
f  2//4 10//4 3//4
f  3//4 10//4 11//5
f  11//6 1//6 3//6
f  1//6 11//6 12//7
f  13//8 7//8 6//8
f  7//8 13//8 8//8
f  12//9 5//9 1//9
f  5//9 12//9 14//9
f  14//10 6//10 5//10
f  6//10 14//10 13//10
f  10//11 12//11 11//11
f  12//11 10//11 9//12
f  12//11 9//12 14//13
f  14//13 9//12 13//12
f  13//12 9//12 8//14

