# {"id":"ID_37816","idOriginal":"ID_37816","origin":[14.296820701022087,48.340227300185184],"elevation":280.225,"wof":[{"Id":85681677,"Name":"Oberösterreich","Placetype":"region","Offset":-1},{"Id":85898425,"Name":"Harbach","Placetype":"neighbourhood","Offset":-1},{"Id":102049853,"Name":"Linz","Placetype":"county","Offset":-1},{"Id":101748071,"Name":"Linz","Placetype":"locality","Offset":-1},{"Id":85632785,"Name":"Austria","Placetype":"country","Offset":-1}]}

# Attribution: City of Linz <http://geo.data.linz.gv.at/katalog/geodata/3d_geo_daten_lod2/>
# Longitude: 14.296820701022087
# Latitude: 48.340227300185184
# Elevation: 280.225

# File produced by Open Asset Import Library (http://www.assimp.sf.net)
# (assimp v3.1.0)


# 14 vertex positions
v  0 3.958 2.42358e-16
v  9.978 3.958 0.112
v  8.626 3.958 -3.306
v  10.072 3.958 0.152
v  10.045 3.958 0.079
v  1.284 3.958 3.606
v  1.231 3.958 3.477
v  1.284 -2.20804e-16 3.606
v  10.072 -9.30732e-18 0.152
v  10.045 -4.83735e-18 0.079
v  9.978 -6.85802e-18 0.112
v  8.626 2.02434e-16 -3.306
v  0 0 0
v  1.231 -2.12905e-16 3.477

# 0 UV coordinates

# 15 vertex normals
vn -0 1 0
vn 0.365797 -0 0.930695
vn 0.937906 0 -0.34689
vn 0.929896 0 -0.367823
vn -0.441848 0 -0.89709
vn -0.357876 0 -0.933769
vn -0.357876 5.71769e-17 -0.933769
vn -0.924975 0 0.380029
vn -0.942665 -2.04358e-17 0.333742
vn -0.942665 0 0.333742
vn 0 -1 -6.12323e-17
vn -5.54202e-23 -1 -6.12324e-17
vn 0 -1 -6.12323e-17
vn 7.82904e-23 -1 -6.12321e-17
vn 0 -1 -6.12323e-17

# Mesh 'defaultobject' with 24 faces
g defaultobject
usemtl DefaultMaterial
f  1//1 2//1 3//1
f  2//1 4//1 5//1
f  4//1 2//1 6//1
f  6//1 2//1 1//1
f  6//1 1//1 7//1
f  8//2 4//2 6//2
f  4//2 8//2 9//2
f  9//3 5//3 4//3
f  5//3 9//3 10//3
f  11//4 3//4 2//4
f  3//4 11//4 12//4
f  10//5 2//5 5//5
f  2//5 10//5 11//5
f  12//6 1//6 3//6
f  1//6 12//6 13//7
f  14//8 6//8 7//8
f  6//8 14//8 8//8
f  13//9 7//9 1//9
f  7//9 13//9 14//10
f  12//11 14//11 13//11
f  14//11 12//11 8//12
f  8//12 12//11 11//13
f  8//12 11//13 9//14
f  9//14 11//13 10//15

