# {"id":"ID_60943","idOriginal":"ID_60943","origin":[14.3240871319907,48.337029033702215],"elevation":270.011,"wof":[{"Id":85681677,"Name":"Oberösterreich","Placetype":"region","Offset":-1},{"Id":102049853,"Name":"Linz","Placetype":"county","Offset":-1},{"Id":85632785,"Name":"Austria","Placetype":"country","Offset":-1},{"Id":85898419,"Name":"Furth","Placetype":"neighbourhood","Offset":-1},{"Id":101748071,"Name":"Linz","Placetype":"locality","Offset":-1}]}

# Attribution: City of Linz <http://geo.data.linz.gv.at/katalog/geodata/3d_geo_daten_lod2/>
# Longitude: 14.3240871319907
# Latitude: 48.337029033702215
# Elevation: 270.011

# File produced by Open Asset Import Library (http://www.assimp.sf.net)
# (assimp v3.1.0)


# 52 vertex positions
v  1.377 14.941 1.011
v  1.713 14.941 0.879
v  1.655 14.941 0.82
v  1.408 14.941 1.084
v  0.949 14.941 1.127
v  0.959 14.941 1.04
v  0.465 14.941 0.994
v  0.493 14.941 0.923
v  0.105 14.941 0.558
v  0.173 14.941 0.524
v  0.077 14.941 -0.003
v  0 14.941 9.14872e-16
v  0.229 14.941 -0.446
v  0.153 14.941 -0.466
v  0.502 14.941 -0.671
v  0.431 14.941 -0.721
v  0.739 14.941 -0.822
v  1.782 14.941 -0.55
v  1.834 14.941 -0.593
v  1.576 14.941 -0.728
v  1.622 14.941 -0.793
v  1.361 14.941 -0.808
v  1.379 14.941 -0.871
v  1.09 14.941 -0.851
v  1.084 14.941 -0.921
v  0.689 14.941 -0.878
v  1.834 3.63108e-17 -0.593
v  1.622 4.85572e-17 -0.793
v  1.713 -5.38232e-17 0.879
v  1.655 -5.02105e-17 0.82
v  0.493 -5.65174e-17 0.923
v  0.173 -3.20857e-17 0.524
v  1.379 5.33334e-17 -0.871
v  1.084 5.6395e-17 -0.921
v  0.689 5.3762e-17 -0.878
v  1.377 -6.19059e-17 1.011
v  0.959 -6.36816e-17 1.04
v  0.431 4.41485e-17 -0.721
v  0.153 2.85343e-17 -0.466
v  0 0 0
v  0.105 -3.41676e-17 0.558
v  0.465 -6.08649e-17 0.994
v  1.576 4.45771e-17 -0.728
v  1.782 3.36778e-17 -0.55
v  0.949 -6.90088e-17 1.127
v  1.408 -6.63759e-17 1.084
v  0.739 5.0333e-17 -0.822
v  1.09 5.21087e-17 -0.851
v  1.361 4.94757e-17 -0.808
v  0.229 2.73096e-17 -0.446
v  0.502 4.10869e-17 -0.671
v  0.077 1.83697e-19 -0.003

# 0 UV coordinates

# 50 vertex normals
vn 0 1 0
vn 0.68622 0 -0.727394
vn 0.713124 0 -0.701038
vn 0.780105 0 -0.625648
vn 0.305629 0 -0.952151
vn 0.167108 0 -0.985938
vn -0.108221 0 -0.994127
vn -0.0692114 0 -0.997602
vn 0.243515 0 -0.969897
vn -0.519842 0 -0.854262
vn -0.675965 0 -0.736934
vn -0.566277 0 -0.824215
vn -0.950101 0 -0.311943
vn -0.950101 1.9101e-17 -0.311943
vn -0.982752 -1.13235e-17 0.184926
vn -0.982752 0 0.184926
vn -0.771113 0 0.636699
vn -0.653811 0 0.756658
vn -0.264971 0 0.964256
vn 0.0932735 -0 0.995641
vn 0.0823405 -0 0.996604
vn -0.156711 0 0.987644
vn -0.348734 0 0.937222
vn 0.557836 -0 0.829951
vn 0.637265 -0 0.770645
vn 0.636004 -0 0.771685
vn 0.537336 -0 0.843368
vn 0.98381 0 -0.179214
vn 0.945871 -0 0.324543
vn -2.47884e-24 -1 -6.12323e-17
vn -2.94464e-24 -1 -6.12323e-17
vn 5.34878e-24 -1 -6.12324e-17
vn -4.33533e-23 -1 -6.12324e-17
vn -5.64397e-24 -1 -6.12323e-17
vn -1.71245e-23 -1 -6.12323e-17
vn -5.17438e-23 -1 -6.12323e-17
vn -6.58863e-24 -1 -6.12322e-17
vn 0 -1 -6.12324e-17
vn -3.80838e-23 -1 -6.12322e-17
vn -4.38032e-23 -1 -6.12323e-17
vn -9.52045e-24 -1 -6.12323e-17
vn 0 -1 -6.12323e-17
vn 1.58131e-25 -1 -6.12323e-17
vn 0 -1 -6.12323e-17
vn -2.39424e-23 -1 -6.12323e-17
vn -3.31668e-23 -1 -6.12324e-17
vn 3.49021e-24 -1 -6.12323e-17
vn 9.16198e-24 -1 -6.12323e-17
vn 1.85483e-23 -1 -6.12323e-17
vn 8.11391e-24 -1 -6.12323e-17

# Mesh 'defaultobject' with 100 faces
g defaultobject
usemtl DefaultMaterial
f  1//1 2//1 3//1
f  2//1 1//1 4//1
f  5//1 4//1 1//1
f  6//1 5//1 1//1
f  7//1 5//1 6//1
f  8//1 7//1 6//1
f  9//1 7//1 8//1
f  10//1 9//1 8//1
f  11//1 9//1 10//1
f  12//1 9//1 11//1
f  13//1 12//1 11//1
f  14//1 12//1 13//1
f  15//1 14//1 13//1
f  16//1 14//1 15//1
f  17//1 16//1 15//1
f  18//1 19//1 20//1
f  21//1 20//1 19//1
f  22//1 20//1 21//1
f  23//1 22//1 21//1
f  24//1 22//1 23//1
f  25//1 24//1 23//1
f  17//1 24//1 25//1
f  26//1 17//1 25//1
f  16//1 17//1 26//1
f  27//2 21//2 19//2
f  21//2 27//2 28//2
f  29//3 3//3 2//3
f  3//3 29//3 30//3
f  31//4 10//4 8//4
f  10//4 31//4 32//4
f  28//5 23//5 21//5
f  23//5 28//5 33//5
f  33//6 25//6 23//6
f  25//6 33//6 34//6
f  34//7 26//7 25//7
f  26//7 34//7 35//7
f  36//8 6//8 1//8
f  6//8 36//8 37//8
f  37//9 8//9 6//9
f  8//9 37//9 31//9
f  35//10 16//10 26//10
f  16//10 35//10 38//10
f  38//11 14//11 16//11
f  14//11 38//11 39//11
f  30//12 1//12 3//12
f  1//12 30//12 36//12
f  39//13 12//13 14//13
f  12//13 39//13 40//14
f  40//15 9//15 12//15
f  9//15 40//15 41//16
f  41//17 7//17 9//17
f  7//17 41//17 42//17
f  43//18 18//18 20//18
f  18//18 43//18 44//18
f  42//19 5//19 7//19
f  5//19 42//19 45//19
f  45//20 4//20 5//20
f  4//20 45//20 46//20
f  47//21 24//21 17//21
f  24//21 47//21 48//21
f  48//22 22//22 24//22
f  22//22 48//22 49//22
f  49//23 20//23 22//23
f  20//23 49//23 43//23
f  46//24 2//24 4//24
f  2//24 46//24 29//24
f  44//25 19//25 18//25
f  19//25 44//25 27//25
f  50//26 15//26 13//26
f  15//26 50//26 51//26
f  51//27 17//27 15//27
f  17//27 51//27 47//27
f  32//28 11//28 10//28
f  11//28 32//28 52//28
f  52//29 13//29 11//29
f  13//29 52//29 50//29
f  31//30 37//30 45//30
f  46//31 45//30 37//30
f  36//32 46//31 37//30
f  29//33 46//31 36//32
f  30//34 29//33 36//32
f  44//35 43//35 27//35
f  28//36 27//35 43//35
f  49//37 28//36 43//35
f  34//38 28//36 49//37
f  33//39 28//36 34//38
f  41//40 31//30 42//40
f  45//30 42//40 31//30
f  32//41 31//30 41//40
f  40//42 32//41 41//40
f  52//43 32//41 40//42
f  39//44 52//43 40//42
f  50//45 52//43 39//44
f  38//46 50//45 39//44
f  51//47 50//45 38//46
f  47//48 51//47 38//46
f  35//49 47//48 38//46
f  48//50 47//48 35//49
f  34//38 48//50 35//49
f  49//37 48//50 34//38

