# {"id":"ID_24158","idOriginal":"ID_24158","origin":[14.310568896146567,48.33182105853201],"elevation":259.75}
# Longitude: 14.310568896146567
# Latitude: 48.33182105853201
# Elevation: 259.75

# File produced by Open Asset Import Library (http://www.assimp.sf.net)
# (assimp v3.1.0)

mtllib ID_24158.obj.mtl

# 26 vertex positions
v  4.285 22.475 -10.805
v  4.709 22.475 -10.996
v  4.555 22.475 -11.486
v  0.98 22.475 -2.472
v  5.062 22.475 -10.509
v  5.15 22.475 -10.388
v  5.591 22.475 -10.201
v  0 22.475 1.3762e-15
v  11.336 22.475 -7.997
v  0.25 22.475 -0.05
v  0.413 22.475 -0.083
v  0.628 22.475 1.615
v  7.635 22.475 4.279
v  4.555 7.03315e-16 -11.486
v  0.98 1.51366e-16 -2.472
v  0 0 0
v  4.285 6.61615e-16 -10.805
v  0.413 5.08228e-18 -0.083
v  0.628 -9.88902e-17 1.615
v  0.25 3.06162e-18 -0.05
v  7.635 -2.62013e-16 4.279
v  11.336 4.89675e-16 -7.997
v  4.709 6.73311e-16 -10.996
v  5.591 6.24631e-16 -10.201
v  5.15 6.36082e-16 -10.388
v  5.062 6.43491e-16 -10.509

# 0 UV coordinates

# 26 vertex normals
vn 0 1 0
vn -0.929602 0 -0.368565
vn -0.929558 3.94176e-06 -0.368677
vn -0.929613 -6.15785e-05 -0.368536
vn -0.929561 1.68863e-05 -0.368669
vn -0.929613 2.25663e-17 -0.368536
vn 0 -1 -6.13825e-17
vn -0.992079 0 0.125617
vn 0.196116 -6.00432e-17 0.980581
vn 0.198428 -2.6754e-05 0.980115
vn 0.197029 0 0.980398
vn 1.29247e-22 1 6.12332e-17
vn -0.355374 0 0.934724
vn 0.957435 -0 0.28865
vn 0.953994 0 -0.299827
vn 0.358184 0 -0.933651
vn 0.39039 0 -0.92065
vn 0.808734 0 -0.588175
vn 0.80967 1.06121e-05 -0.586885
vn 0.809484 0 -0.587142
vn -1.15312e-19 -1 -6.11441e-17
vn 0 -1 -6.12323e-17
vn 1.11571e-24 -1 -6.12323e-17
vn 0 -1 -6.12323e-17
vn 4.04115e-24 -1 -6.12323e-17
vn 5.82118e-24 -1 -6.12323e-17

# Mesh 'defaultobject' with 48 faces
g defaultobject
usemtl DefaultMaterial
f  1//1 2//1 3//1
f  2//1 1//1 4//1
f  2//1 4//1 5//1
f  5//1 4//1 6//1
f  6//1 4//1 7//1
f  7//1 4//1 8//1
f  7//1 8//1 9//1
f  9//1 8//1 10//1
f  9//1 10//1 11//1
f  9//1 11//1 12//1
f  9//1 12//1 13//1
f  14//2 1//2 3//2
f  1//3 14//3 4//3
f  4//4 14//4 8//4
f  8//5 14//5 15//5
f  8//6 15//6 16//6
f  15//7 14//7 17//7
f  18//8 12//8 11//8
f  12//8 18//8 19//8
f  16//9 10//9 8//9
f  10//10 16//10 11//10
f  11//11 16//11 18//11
f  18//12 16//12 20//12
f  19//13 13//13 12//13
f  13//13 19//13 21//13
f  21//14 9//14 13//14
f  9//14 21//14 22//14
f  23//15 3//15 2//15
f  3//15 23//15 14//15
f  22//16 7//16 9//16
f  7//16 22//16 24//16
f  25//17 7//17 24//17
f  25//17 6//17 7//17
f  25//18 5//18 6//18
f  5//19 25//19 2//19
f  2//20 25//20 23//20
f  23//21 25//21 26//21
f  15//7 20//22 16//22
f  20//22 15//7 18//23
f  17//7 26//21 25//21
f  26//21 17//7 23//21
f  23//21 17//7 14//7
f  18//23 21//24 19//24
f  21//24 18//23 22//25
f  22//25 18//23 15//7
f  22//25 15//7 24//26
f  24//26 15//7 25//21
f  25//21 15//7 17//7

