# {"id":"ID_10542","idOriginal":"ID_10542","origin":[14.277769423257782,48.249852273227724],"elevation":267.56,"wof":[{"Id":102049853,"Name":"Linz","Placetype":"county","Offset":-1},{"Id":85681677,"Name":"Oberösterreich","Placetype":"region","Offset":-1},{"Id":85898447,"Name":"Scharlinz","Placetype":"neighbourhood","Offset":-1},{"Id":101748071,"Name":"Linz","Placetype":"locality","Offset":-1},{"Id":85632785,"Name":"Austria","Placetype":"country","Offset":-1}]}

# Attribution: City of Linz <http://geo.data.linz.gv.at/katalog/geodata/3d_geo_daten_lod2/>
# Longitude: 14.277769423257782
# Latitude: 48.249852273227724
# Elevation: 267.56

# File produced by Open Asset Import Library (http://www.assimp.sf.net)
# (assimp v3.1.0)


# 42 vertex positions
v  4.389 14.469 7.418
v  0.168 14.01 0.778
v  0.614 14.473 7.668
v  17.357 14.01 -0.118
v  4.469 14.502 7.909
v  13.973 14.461 6.794
v  14.024 14.503 7.428
v  17.802 14.463 6.63
v  11.92 14.502 -7.194
v  16.793 14.102 -1.461
v  16.456 14.496 -7.333
v  11.927 14.468 -6.675
v  11.761 14.468 -6.665
v  7.346 14.466 -6.412
v  1.044 14.494 -6.499
v  4.77 14.465 -6.265
v  4.713 14.494 -6.685
v  17.269 14.1 -1.455
v  1.03 14.065 -0.084
v  0.149 14.03 0.487
v  0 14.063 8.6111e-16
v  16.793 8.94605e-17 -1.461
v  17.269 8.90931e-17 -1.455
v  11.92 4.40505e-16 -7.194
v  16.456 4.49017e-16 -7.333
v  11.927 4.08726e-16 -6.675
v  4.77 3.83621e-16 -6.265
v  11.761 4.08114e-16 -6.665
v  7.346 3.92622e-16 -6.412
v  4.713 4.09338e-16 -6.685
v  1.044 3.97949e-16 -6.499
v  1.03 5.14352e-18 -0.084
v  0 0 0
v  14.024 -4.54834e-16 7.428
v  13.973 -4.16013e-16 6.794
v  17.802 -4.0597e-16 6.63
v  17.357 7.22542e-18 -0.118
v  0.149 -2.98201e-17 0.487
v  0.614 -4.6953e-16 7.668
v  0.168 -4.76388e-17 0.778
v  4.469 -4.84287e-16 7.909
v  4.389 -4.54221e-16 7.418

# 0 UV coordinates

# 65 vertex normals
vn -0.00336868 0.997759 -0.0668301
vn -0.00347994 0.997763 -0.0667596
vn -0.00333819 0.99778 -0.0665168
vn -0.00353666 0.997758 -0.0668341
vn -0.0034182 0.997825 -0.0658268
vn -0.00338044 0.997763 -0.0667579
vn 0.00336532 0.997764 0.0667549
vn 0.00508397 0.997853 0.0653003
vn 0.00399481 0.997791 0.0663124
vn 0.00338166 0.997754 0.0669027
vn 0.00346832 0.997651 0.0684154
vn 0.00334812 0.997751 0.0669432
vn 0.00336375 0.997752 0.0669367
vn 0.00342694 0.997758 0.0668367
vn 0.00349997 0.997768 0.0666878
vn 0.00350085 0.997736 0.0671608
vn 0.00357487 0.997765 0.066733
vn 0.00460994 0.997657 0.0682648
vn 0.00348956 0.997777 0.0665435
vn 0.0126039 0 -0.999921
vn 0.0126039 0 -0.999921
vn -0.0306294 0 -0.999531
vn -0.0306294 0 -0.999531
vn -0.0601332 0 -0.99819
vn -0.0572108 3.36496e-05 -0.998362
vn -0.0569727 0.000109288 -0.998376
vn -0.0571928 -0 -0.998363
vn -1.64898e-21 -1 -6.1259e-17
vn 1.3679e-21 -1 -6.12065e-17
vn -0.05063 0 -0.998717
vn -0.0812835 0 -0.996691
vn -0.0812835 6.10297e-17 -0.996691
vn 0.998357 0 -0.0572967
vn 0.998357 0 -0.0572967
vn 0.990916 0 -0.134482
vn 0.99678 0 -0.0801836
vn 0.99678 0 -0.0801836
vn 0.997833 0 -0.0658025
vn 0.997841 6.23341e-05 -0.0656736
vn 0.997834 0 -0.0657819
vn -4.67585e-20 -1 -6.12303e-17
vn -0.999909 0 0.0134862
vn -0.999909 0 0.0134862
vn -0.999998 0 -0.00218239
vn -0.956245 -1.79146e-17 0.292568
vn -0.956245 0 0.292568
vn -0.997875 0 0.0651533
vn -0.997912 0 0.0645963
vn -0.99791 1.11504e-05 0.0646189
vn -1.88373e-19 -1 -6.12094e-17
vn -0.986985 0 0.160812
vn -0.986985 0 0.160812
vn 0.0660804 -0 0.997814
vn 0.0502765 0 0.998735
vn 0.0502765 0 0.998735
vn 0.0427918 0 0.999084
vn 0.0427918 0 0.999084
vn 0 -1 -6.12323e-17
vn 3.19872e-24 -1 -6.12324e-17
vn -4.41573e-24 -1 -6.12325e-17
vn -3.70018e-23 -1 -6.12323e-17
vn -2.39848e-23 -1 -6.12323e-17
vn 7.63844e-23 -1 -6.12324e-17
vn 0 -1 -6.12323e-17
vn 7.9363e-24 -1 -6.12323e-17

# Mesh 'defaultobject' with 80 faces
g defaultobject
usemtl DefaultMaterial
f  1//1 2//1 3//1
f  2//2 1//2 4//2
f  4//3 1//3 5//3
f  4//4 5//4 6//4
f  6//5 5//5 7//5
f  4//6 6//6 8//6
f  9//7 10//7 11//7
f  10//8 9//8 12//8
f  10//9 12//9 13//9
f  10//10 13//10 14//10
f  15//11 16//11 17//11
f  10//12 4//12 18//12
f  4//13 10//13 14//13
f  4//14 14//14 16//14
f  4//15 16//15 19//15
f  4//16 19//16 2//16
f  19//17 16//17 15//17
f  2//18 19//18 20//18
f  20//19 19//19 21//19
f  18//20 22//20 10//20
f  22//20 18//20 23//21
f  11//22 24//22 9//22
f  24//22 11//22 25//23
f  26//24 13//24 12//24
f  13//25 26//25 14//25
f  14//26 26//26 16//26
f  16//27 26//27 27//27
f  27//28 26//28 28//28
f  27//28 28//28 29//29
f  30//30 15//30 17//30
f  15//30 30//30 31//30
f  32//31 21//31 19//31
f  21//31 32//31 33//32
f  10//33 25//33 11//33
f  25//33 10//33 22//34
f  16//35 30//35 17//35
f  30//35 16//35 27//35
f  34//36 6//36 7//36
f  6//36 34//36 35//37
f  36//38 4//38 8//38
f  4//39 36//39 18//39
f  18//40 36//40 23//40
f  23//41 36//41 37//41
f  24//42 12//42 9//42
f  12//42 24//42 26//43
f  31//44 19//44 15//44
f  19//44 31//44 32//44
f  33//45 20//45 21//45
f  20//45 33//45 38//46
f  38//47 2//47 20//47
f  2//48 39//48 3//48
f  39//49 2//49 38//49
f  39//50 38//50 40//50
f  1//51 41//51 5//51
f  41//51 1//51 42//52
f  39//53 1//53 3//53
f  1//53 39//53 42//53
f  5//54 34//54 7//54
f  34//54 5//54 41//55
f  6//56 36//56 8//56
f  36//56 6//56 35//57
f  40//50 42//58 39//50
f  30//59 27//28 31//59
f  42//58 34//60 41//60
f  34//60 42//58 40//50
f  34//60 40//50 38//50
f  34//60 38//50 33//61
f  34//60 33//61 32//62
f  34//60 32//62 31//59
f  34//60 31//59 27//28
f  34//60 27//28 29//29
f  34//60 29//29 35//58
f  35//58 29//29 36//41
f  36//41 29//29 28//28
f  36//41 28//28 37//41
f  37//41 28//28 26//28
f  37//41 26//28 24//63
f  37//41 24//63 22//64
f  22//64 24//63 25//65
f  23//41 37//41 22//64

