# {"id":"ID_61057","idOriginal":"ID_61057","origin":[14.346982967185902,48.268284747810355],"elevation":252.408,"wof":[{"Id":102049853,"Name":"Linz","Placetype":"county","Offset":-1},{"Id":101748071,"Name":"Linz","Placetype":"locality","Offset":-1},{"Id":85632785,"Name":"Austria","Placetype":"country","Offset":-1},{"Id":85681677,"Name":"Oberösterreich","Placetype":"region","Offset":-1},{"Id":85898451,"Name":"Ufer","Placetype":"neighbourhood","Offset":-1}]}

# Attribution: City of Linz <http://geo.data.linz.gv.at/katalog/geodata/3d_geo_daten_lod2/>
# Longitude: 14.346982967185902
# Latitude: 48.268284747810355
# Elevation: 252.408

# File produced by Open Asset Import Library (http://www.assimp.sf.net)
# (assimp v3.1.0)


# 8 vertex positions
v  0.417 16.19 -0.292
v  0.879 16.19 0.409
v  0.96 16.19 0.48
v  0 16.19 9.91352e-16
v  0 0 0
v  0.879 -2.5044e-17 0.409
v  0.96 -2.93915e-17 0.48
v  0.417 1.78798e-17 -0.292

# 0 UV coordinates

# 9 vertex normals
vn 0 1 0
vn -0.421869 -5.55167e-17 0.906657
vn -0.421869 0 0.906657
vn -0.659162 0 0.752001
vn 0.817936 0 -0.57531
vn -0.573594 0 -0.81914
vn -0.573594 5.01578e-17 -0.81914
vn 0 -1 -6.12323e-17
vn -6.89921e-23 -1 -6.12323e-17

# Mesh 'defaultobject' with 12 faces
g defaultobject
usemtl DefaultMaterial
f  1//1 2//1 3//1
f  2//1 1//1 4//1
f  5//2 2//2 4//2
f  2//2 5//2 6//3
f  6//4 3//4 2//4
f  3//4 6//4 7//4
f  7//5 1//5 3//5
f  1//5 7//5 8//5
f  8//6 4//6 1//6
f  4//6 8//6 5//7
f  8//8 6//8 5//8
f  6//8 8//8 7//9

