# {"id":"ID_4846","idOriginal":"ID_4846","origin":[14.35898230519089,48.25553889661486],"elevation":251.62}
# Longitude: 14.35898230519089
# Latitude: 48.25553889661486
# Elevation: 251.62

# File produced by Open Asset Import Library (http://www.assimp.sf.net)
# (assimp v3.1.0)

mtllib ID_4846.obj.mtl

# 32 vertex positions
v  0.617 9.58 -2.076
v  7.067 9.58 -7.988
v  2.71 9.58 -9.249
v  0 9.58 5.86606e-16
v  4.807 9.58 1.422
v  4.95 9.58 0.927
v  14.846 9.58 -7.601
v  7.57 9.58 -9.692
v  18.235 9.58 4.745
v  17.245 9.58 -6.897
v  17.666 9.58 -6.775
v  35.317 9.58 -1.666
v  18.092 9.58 5.24
v  27.271 9.58 7.382
v  27.128 9.58 7.877
v  32.279 9.58 8.83
v  18.092 -3.20857e-16 5.24
v  27.128 -4.82327e-16 7.877
v  27.271 -4.52017e-16 7.382
v  32.279 -5.40682e-16 8.83
v  0 0 0
v  4.807 -8.70724e-17 1.422
v  4.95 -5.67624e-17 0.927
v  18.235 -2.90547e-16 4.745
v  35.317 1.02013e-16 -1.666
v  17.666 4.14849e-16 -6.775
v  17.245 4.22319e-16 -6.897
v  14.846 4.65427e-16 -7.601
v  7.57 5.93464e-16 -9.692
v  7.067 4.89124e-16 -7.988
v  2.71 5.66338e-16 -9.249
v  0.617 1.27118e-16 -2.076

# 0 UV coordinates

# 34 vertex normals
vn 0 1 0
vn -0.280147 0 0.959957
vn -0.27776 0 0.96065
vn -0.283667 -5.87171e-17 0.958923
vn -0.283667 0 0.958923
vn -0.276211 0 0.961097
vn 0.960714 -0 0.277539
vn 0.960572 -0 0.278032
vn 0.960714 -0 0.277539
vn 0.278033 0 -0.960572
vn 0.278335 0 -0.960484
vn 0.281581 0.000154735 -0.959537
vn 0.276203 -0.0015629 -0.961098
vn 0.278334 0.000870298 -0.960484
vn 0.281579 0.00442511 -0.959528
vn 0.276204 0 -0.961099
vn 0.27801 0 -0.960578
vn -0.959087 0 -0.283111
vn -0.959969 0 -0.280108
vn -0.958553 0.00388821 -0.284888
vn -0.959654 1.72175e-17 -0.281183
vn -1.31245e-21 -1 -6.12325e-17
vn -0.960713 0 -0.277543
vn 0 -1 -6.12323e-17
vn 0 -1 -6.12323e-17
vn 4.66578e-22 -1 -6.12322e-17
vn -1.67373e-24 -1 -6.12323e-17
vn 0 -1 -6.12323e-17
vn -1.77185e-22 -1 -6.12323e-17
vn 2.11301e-24 -1 -6.12323e-17
vn 2.0564e-24 -1 -6.12323e-17
vn 1.09156e-23 -1 -6.12324e-17
vn -4.64684e-24 -1 -6.12323e-17
vn -1.09156e-23 -1 -6.12323e-17

# Mesh 'defaultobject' with 60 faces
g defaultobject
usemtl DefaultMaterial
f  1//1 2//1 3//1
f  2//1 1//1 4//1
f  5//1 6//1 4//1
f  2//1 7//1 8//1
f  7//1 2//1 4//1
f  7//1 4//1 6//1
f  7//1 6//1 9//1
f  7//1 9//1 10//1
f  10//1 9//1 11//1
f  11//1 9//1 12//1
f  12//1 9//1 13//1
f  12//1 13//1 14//1
f  14//1 13//1 15//1
f  16//1 12//1 14//1
f  17//2 15//2 13//2
f  15//2 17//2 18//2
f  19//3 16//3 14//3
f  16//3 19//3 20//3
f  21//4 5//4 4//4
f  5//4 21//4 22//5
f  23//6 9//6 6//6
f  9//6 23//6 24//6
f  18//7 14//7 15//7
f  14//7 18//7 19//7
f  20//8 12//8 16//8
f  12//8 20//8 25//8
f  22//9 6//9 5//9
f  6//9 22//9 23//9
f  25//10 11//10 12//10
f  11//10 25//10 26//10
f  11//11 26//11 10//11
f  10//12 26//12 7//12
f  7//13 26//13 8//13
f  8//14 26//14 27//14
f  8//15 27//15 28//15
f  8//16 28//16 29//16
f  30//17 3//17 2//17
f  3//17 30//17 31//17
f  29//18 2//18 8//18
f  2//18 29//18 30//18
f  31//19 1//19 3//19
f  1//20 31//20 4//20
f  4//21 31//21 21//21
f  21//22 31//22 32//22
f  24//23 13//23 9//23
f  13//23 24//23 17//23
f  32//22 22//24 21//22
f  22//24 32//22 31//22
f  22//24 31//22 30//25
f  22//24 30//25 23//26
f  23//26 30//25 24//27
f  24//27 30//25 29//25
f  24//27 29//25 28//28
f  24//27 28//28 27//24
f  24//27 27//24 26//29
f  24//27 26//29 25//30
f  24//27 25//30 19//31
f  24//27 19//31 18//32
f  19//31 25//30 20//33
f  18//32 17//34 24//27

