# {"id":"ID_10350","idOriginal":"ID_10350","origin":[14.30550263910722,48.32932993618132],"elevation":258.81,"wof":[{"Id":102049853,"Name":"Linz","Placetype":"county","Offset":-1},{"Id":101748071,"Name":"Linz","Placetype":"locality","Offset":-1},{"Id":85681677,"Name":"Oberösterreich","Placetype":"region","Offset":-1},{"Id":85898419,"Name":"Furth","Placetype":"neighbourhood","Offset":-1},{"Id":85632785,"Name":"Austria","Placetype":"country","Offset":-1}]}

# Attribution: City of Linz <http://geo.data.linz.gv.at/katalog/geodata/3d_geo_daten_lod2/>
# Longitude: 14.30550263910722
# Latitude: 48.32932993618132
# Elevation: 258.81

# File produced by Open Asset Import Library (http://www.assimp.sf.net)
# (assimp v3.1.0)


# 58 vertex positions
v  12.353 9.978 10.243
v  9.751 9.978 -1.07
v  8.147 9.978 -0.437
v  10.829 9.978 -1.496
v  14.816 9.978 9.272
v  10.81 9.978 -1.596
v  13.737 9.978 9.697
v  14.816 -5.67746e-16 9.272
v  13.737 -5.9377e-16 9.697
v  12.353 -6.27203e-16 10.243
v  10.81 9.77268e-17 -1.596
v  10.829 9.16036e-17 -1.496
v  8.147 2.67585e-17 -0.437
v  9.751 6.55186e-17 -1.07
v  0.91 9.58 2.31
v  8.05 9.58 -0.399
v  8.013 9.58 -0.493
v  12.353 9.58 10.243
v  8.147 9.58 -0.437
v  5.152 9.58 13.084
v  12.111 9.58 10.339
v  5.596 9.58 12.909
v  12.111 -6.33081e-16 10.339
v  5.596 -7.90448e-16 12.909
v  5.152 -8.01164e-16 13.084
v  8.05 2.44317e-17 -0.399
v  8.013 3.01875e-17 -0.493
v  0.91 -1.41447e-16 2.31
v  9.874 6.648 -3.916
v  10.81 6.648 -1.596
v  9.944 6.648 -3.944
v  10.792 6.648 -1.589
v  9.874 2.39786e-16 -3.916
v  10.792 9.72982e-17 -1.589
v  9.944 2.415e-16 -3.944
v  14.881 7.089 9.246
v  10.81 7.089 -1.596
v  14.816 7.089 9.272
v  15.134 7.089 9.146
v  17.142 7.089 -4.094
v  20.91 7.089 6.867
v  21.149 7.089 6.773
v  21.149 -4.14727e-16 6.773
v  14.881 -5.66154e-16 9.246
v  15.134 -5.60031e-16 9.146
v  20.91 -4.20482e-16 6.867
v  17.142 2.50685e-16 -4.094
v  0 9.996 6.12079e-16
v  8.013 9.687 -0.493
v  7.099 9.996 -2.806
v  0.91 9.687 2.31
v  0 0 0
v  7.099 1.71818e-16 -2.806
v  9.944 6.678 -3.944
v  17.142 7.416 -4.094
v  16.275 6.677 -6.447
v  10.81 7.415 -1.596
v  16.275 3.94765e-16 -6.447

# 0 UV coordinates

# 70 vertex normals
vn 0 1 0
vn 0.366479 0 0.930426
vn 0.366983 6.28836e-05 0.930228
vn 0.366479 -8.0676e-05 0.930426
vn 0.366983 0 0.930228
vn 0.938287 0 -0.345857
vn -0.982424 0 0.186661
vn -0.930446 0 0.366428
vn -0.36752 0 -0.930016
vn -0.367087 5.40484e-05 -0.930186
vn -0.367261 -0 -0.930118
vn -7.11499e-21 -1 -6.12387e-17
vn 0 -1 -6.1232e-17
vn 0 -1 -6.12323e-17
vn 0 -1 -6.12323e-17
vn 0.36874 0 0.929533
vn 0.366955 -5.21492e-05 0.930239
vn 0.366688 -0.000270333 0.930344
vn 0.368739 0.0015128 0.929532
vn 0.366955 1.42992e-05 0.930239
vn 0.366688 0 0.930344
vn 0.930446 0 -0.366428
vn 0.930508 0 -0.36627
vn -0.364761 0 -0.931101
vn -0.367074 0 -0.930192
vn -0.930476 0 0.366352
vn -3.54173e-22 -1 -6.12323e-17
vn 1.2081e-24 -1 -6.12323e-17
vn 0 -1 -6.12614e-17
vn 1.20512e-19 -1 -6.09307e-17
vn 6.86284e-23 -1 -6.12323e-17
vn -0.930231 0 0.366975
vn 0.362434 -0 0.932009
vn 0.93822 0 -0.346039
vn -0.371389 0 -0.928477
vn 0 -1 -6.12324e-17
vn -1.40342e-22 -1 -6.12323e-17
vn 0.371393 -0 0.928476
vn 0.367586 4.04605e-05 0.92999
vn 0.367027 6.94434e-05 0.93021
vn 0.366014 0.00107534 0.930609
vn 0.367056 0 0.930199
vn -7.13817e-20 -1 -6.13882e-17
vn 1.16816e-19 -1 -6.09314e-17
vn -9.53145e-21 -1 -6.12567e-17
vn 0.938249 0 -0.345961
vn -0.366979 0 -0.930229
vn -0.938287 0 0.345857
vn -5.37326e-24 -1 -6.12323e-17
vn 0.0453228 0.99237 0.114664
vn 0.0453353 0.992344 0.114883
vn -0.930408 -2.24432e-17 0.366525
vn -0.930408 0 0.366525
vn 0.367074 -0 0.930192
vn 0.930022 0 -0.367505
vn 0.930021 0 -0.367505
vn -0.367593 0 -0.929987
vn -0.367593 5.69453e-17 -0.929987
vn 0 -1 -6.12323e-17
vn -3.48568e-25 -1 -6.12323e-17
vn -0.103825 0.959194 -0.262995
vn -0.103827 0.959248 -0.262799
vn 0.366979 0 0.930229
vn 0.938329 0 -0.345743
vn 0.93833 0 -0.345743
vn -0.367665 0 -0.929958
vn -0.367665 0 -0.929958
vn -0.93822 0 0.346039
vn -0.93822 0 0.346039
vn 1.84174e-24 -1 -6.12323e-17

# Mesh 'defaultobject' with 112 faces
g defaultobject
usemtl DefaultMaterial
f  1//1 2//1 3//1
f  2//1 1//1 4//1
f  4//1 5//1 6//1
f  5//1 4//1 7//1
f  7//1 4//1 1//1
f  7//2 8//2 5//2
f  8//3 7//3 1//3
f  8//4 1//4 9//4
f  9//5 1//5 10//5
f  8//6 6//6 5//6
f  6//6 8//6 11//6
f  11//7 4//7 6//7
f  4//7 11//7 12//7
f  13//8 1//8 3//8
f  1//8 13//8 10//8
f  12//9 2//9 4//9
f  2//10 12//10 3//10
f  3//11 12//11 13//11
f  13//12 12//12 14//12
f  8//13 12//12 11//13
f  12//12 8//13 14//12
f  14//12 8//13 9//14
f  14//12 9//14 13//12
f  13//12 9//14 10//15
f  15//1 16//1 17//1
f  16//1 18//1 19//1
f  18//1 16//1 15//1
f  18//1 15//1 20//1
f  18//1 20//1 21//1
f  21//1 20//1 22//1
f  21//16 10//16 18//16
f  10//17 21//17 22//17
f  10//18 22//18 20//18
f  10//19 20//19 23//19
f  23//20 20//20 24//20
f  24//21 20//21 25//21
f  10//22 19//22 18//22
f  19//22 10//22 13//22
f  26//23 17//23 16//23
f  17//23 26//23 27//23
f  13//24 16//24 19//24
f  16//24 13//24 26//24
f  27//25 15//25 17//25
f  15//25 27//25 28//25
f  28//26 20//26 15//26
f  20//26 28//26 25//26
f  10//15 26//27 13//12
f  26//27 10//15 28//28
f  28//28 10//15 25//14
f  25//14 10//15 23//29
f  25//14 23//29 24//30
f  28//28 27//31 26//27
f  29//1 30//1 31//1
f  30//1 29//1 32//1
f  33//32 32//32 29//32
f  32//32 33//32 34//32
f  34//33 30//33 32//33
f  30//33 34//33 11//33
f  11//34 31//34 30//34
f  31//34 11//34 35//34
f  35//35 29//35 31//35
f  29//35 35//35 33//35
f  33//36 11//13 34//36
f  11//13 33//36 35//37
f  36//1 37//1 38//1
f  37//1 36//1 39//1
f  37//1 39//1 40//1
f  40//1 39//1 41//1
f  40//1 41//1 42//1
f  8//38 36//38 38//38
f  36//39 8//39 39//39
f  39//40 8//40 41//40
f  41//41 8//41 42//41
f  42//42 8//42 43//42
f  43//43 8//13 44//43
f  43//43 44//43 45//44
f  43//43 45//44 46//45
f  43//46 40//46 42//46
f  40//46 43//46 47//46
f  47//47 37//47 40//47
f  37//47 47//47 11//47
f  11//48 38//48 37//48
f  38//48 11//48 8//48
f  43//43 11//13 47//49
f  11//13 43//43 46//45
f  11//13 46//45 45//44
f  11//13 45//44 44//43
f  11//13 44//43 8//13
f  48//50 49//50 50//50
f  49//51 48//51 51//51
f  52//52 51//52 48//52
f  51//52 52//52 28//53
f  28//54 49//54 51//54
f  49//54 28//54 27//54
f  49//55 53//55 50//55
f  53//55 49//55 27//56
f  53//57 48//57 50//57
f  48//57 53//57 52//58
f  52//59 27//31 28//28
f  27//31 52//59 53//60
f  54//61 55//61 56//61
f  55//62 54//62 57//62
f  57//63 47//63 55//63
f  47//63 57//63 11//63
f  47//64 56//64 55//64
f  56//64 47//64 58//65
f  56//66 35//66 54//66
f  35//66 56//66 58//67
f  54//68 11//68 57//68
f  11//68 54//68 35//69
f  35//37 47//49 11//13
f  47//49 35//37 58//70

