# {"id":"ID_22884","idOriginal":"ID_22884","origin":[14.370526259106285,48.2408258921808],"elevation":254.561,"wof":[{"Id":102049853,"Name":"Linz","Placetype":"county","Offset":-1},{"Id":101748071,"Name":"Linz","Placetype":"locality","Offset":-1},{"Id":85632785,"Name":"Austria","Placetype":"country","Offset":-1},{"Id":85681677,"Name":"Oberösterreich","Placetype":"region","Offset":-1},{"Id":85898441,"Name":"Posch","Placetype":"neighbourhood","Offset":-1}]}

# Attribution: City of Linz <http://geo.data.linz.gv.at/katalog/geodata/3d_geo_daten_lod2/>
# Longitude: 14.370526259106285
# Latitude: 48.2408258921808
# Elevation: 254.561

# File produced by Open Asset Import Library (http://www.assimp.sf.net)
# (assimp v3.1.0)


# 12 vertex positions
v  12.072 5.73 -4.767
v  6.339 2.867 6.877
v  15.242 2.867 -1.328
v  3.169 5.73 3.438
v  0 2.868 1.75614e-16
v  8.902 2.867 -8.206
v  0 0 0
v  8.902 5.02473e-16 -8.206
v  3.169 -2.10517e-16 3.438
v  6.339 -4.21095e-16 6.877
v  15.242 8.13165e-17 -1.328
v  12.072 2.91895e-16 -4.767

# 0 UV coordinates

# 18 vertex normals
vn 0.35381 0.852896 0.383909
vn -0.353803 0.852896 -0.383916
vn -0.353798 0.852907 -0.383896
vn -0.677779 0 -0.735266
vn -0.677779 0 -0.735266
vn -0.735287 -4.15006e-17 0.677756
vn -0.735287 0 0.677756
vn -0.735279 0 0.677765
vn -0.735279 0 0.677765
vn 0.677693 -0 0.735345
vn 0.735279 0 -0.677765
vn 0.735279 9.49151e-08 -0.677765
vn 0.735279 -2.8448e-07 -0.677765
vn 0.735279 0 -0.677765
vn -1.86976e-24 -1 -6.12323e-17
vn -1.87032e-24 -1 -6.12323e-17
vn -1.86976e-24 -1 -6.12323e-17
vn 7.47902e-24 -1 -6.12323e-17

# Mesh 'defaultobject' with 20 faces
g defaultobject
usemtl DefaultMaterial
f  1//1 2//1 3//1
f  2//1 1//1 4//1
f  5//2 1//2 6//2
f  1//3 5//3 4//3
f  6//4 7//4 5//4
f  7//4 6//4 8//5
f  7//6 4//6 5//6
f  4//6 7//6 9//7
f  4//8 9//8 2//8
f  2//8 9//8 10//9
f  10//10 3//10 2//10
f  3//10 10//10 11//10
f  1//11 8//11 6//11
f  8//11 1//11 3//12
f  8//11 3//12 12//13
f  12//13 3//12 11//14
f  12//15 7//15 8//15
f  7//15 12//15 9//16
f  9//16 12//15 10//17
f  10//17 12//15 11//18

