# {"id":"ID_45852","idOriginal":"ID_45852","origin":[14.343523010067717,48.255760010413454],"elevation":252.381}
# Longitude: 14.343523010067717
# Latitude: 48.255760010413454
# Elevation: 252.381

# File produced by Open Asset Import Library (http://www.assimp.sf.net)
# (assimp v3.1.0)

mtllib ID_45852.obj.mtl

# 11 vertex positions
v  4.188 1.379 -2.986
v  2.564 2.48 0.429
v  5.256 2.48 -1.489
v  0 1.38 8.45006e-17
v  2.134 1.379 2.993
v  6.323 1.379 0.007
v  0 0 0
v  4.188 1.8284e-16 -2.986
v  2.134 -1.83268e-16 2.993
v  6.323 -4.28626e-19 0.007
v  5.256 9.1175e-17 -1.489

# 0 UV coordinates

# 16 vertex normals
vn -0.298075 0.857977 -0.418362
vn -0.298085 0.857972 -0.418365
vn 0.298336 0.857805 0.418529
vn 0.298104 0.857947 0.418403
vn -0.418033 0.858044 0.298343
vn -0.580539 0 -0.814232
vn -0.814229 -3.5548e-17 0.580543
vn -0.814229 0 0.580543
vn 0.580447 -0 0.814298
vn 0.814064 0 -0.580775
vn 0.814115 -6.51676e-05 -0.580704
vn 0.814064 0.000169139 -0.580775
vn 0.814138 0 -0.580672
vn 0 -1 -6.12323e-17
vn -1.11918e-23 -1 -6.12323e-17
vn 0 -1 -6.12323e-17

# Mesh 'defaultobject' with 18 faces
g defaultobject
usemtl DefaultMaterial
f  1//1 2//1 3//1
f  2//2 1//2 4//2
f  3//3 5//3 6//3
f  5//4 3//4 2//4
f  2//5 4//5 5//5
f  1//6 7//6 4//6
f  7//6 1//6 8//6
f  7//7 5//7 4//7
f  5//7 7//7 9//8
f  9//9 6//9 5//9
f  6//9 9//9 10//9
f  3//10 8//10 1//10
f  8//11 3//11 6//11
f  8//12 6//12 11//12
f  11//13 6//13 10//13
f  8//14 9//14 7//14
f  9//14 8//14 11//15
f  9//14 11//15 10//16

