# File produced by Open Asset Import Library (http://www.assimp.sf.net)
# (assimp v3.1.0)

mtllib ID_19143.obj.mtl

# 42 vertex positions
v  0.089 9.989 1.174
v  1.075 10.057 0.094
v  0 9.625 5.89361e-16
v  0.179 10.359 2.37
v  0.455 10.391 2.114
v  0.769 10.428 1.823
v  1.732 10.35 0.255
v  0.928 10.483 1.805
v  1.65 10.732 1.723
v  2.367 10.653 0.481
v  2.503 11.181 2.177
v  2.38 10.653 0.464
v  9.438 10.633 -9.069
v  2.887 11.555 2.993
v  4.679 12.619 4.372
v  12.829 12.619 -6.554
v  9.816 10.854 -8.789
v  12.513 12.432 -6.793
v  17.917 9.617 -2.702
v  9.737 9.617 8.263
v  17.856 9.653 -2.748
v  0.769 -1.11627e-16 1.823
v  0.179 -1.45121e-16 2.37
v  0.455 -1.29445e-16 2.114
v  9.737 -5.05963e-16 8.263
v  17.917 1.6545e-16 -2.702
v  1.65 -1.05503e-16 1.723
v  0.928 -1.10524e-16 1.805
v  2.503 -1.33303e-16 2.177
v  2.887 -1.83268e-16 2.993
v  4.679 -2.67708e-16 4.372
v  9.438 5.55316e-16 -9.069
v  17.856 1.68266e-16 -2.748
v  12.829 4.01317e-16 -6.554
v  9.816 5.38171e-16 -8.789
v  12.513 4.15951e-16 -6.793
v  2.367 -2.94528e-17 0.481
v  1.732 -1.56142e-17 0.255
v  1.075 -5.75584e-18 0.094
v  0 0 0
v  2.38 -2.84118e-17 0.464
v  0.089 -7.18868e-17 1.174

# 0 UV coordinates

# 71 vertex normals
vn -0.341332 0.904789 -0.254655
vn -0.340981 0.905015 -0.254321
vn -0.340765 0.905117 -0.254249
vn -0.34258 0.904312 -0.254673
vn -0.34117 0.904881 -0.254545
vn -0.341751 0.904566 -0.254887
vn -0.341003 0.904948 -0.254532
vn -0.34119 0.904879 -0.254524
vn -0.340967 0.904998 -0.254403
vn -0.334262 0.907156 -0.255612
vn -0.341097 0.904939 -0.254438
vn -0.340952 0.905017 -0.254353
vn -0.341347 0.904812 -0.254552
vn -0.341198 0.904881 -0.254509
vn 0.149975 0.667503 -0.729348
vn -0.251482 0.895205 -0.367921
vn 0.341223 0.904858 0.254556
vn 0.341475 0.904599 0.255137
vn 0.341199 0.90488 0.25451
vn 0.679734 0 0.733459
vn 0.680042 1.7299e-05 0.733173
vn 0.679879 0 0.733325
vn 0 -1 -6.12243e-17
vn 0.801532 -0 0.597951
vn 0.112848 0 0.993612
vn 0.112497 -2.45026e-05 0.993652
vn 0.112783 0 0.99362
vn -2.82568e-20 1 6.09856e-17
vn -0.469836 0 0.882754
vn -0.904819 0 0.425797
vn -0.609797 -0.000170184 0.792558
vn -0.609767 0 0.792581
vn -0.609767 0 0.792581
vn 4.58013e-20 1 6.11447e-17
vn 0.602099 0 -0.798421
vn 0.603628 1.5169e-05 -0.797266
vn 0.603299 -0.000193509 -0.797515
vn 0.596659 -0.00471396 -0.802481
vn 0.596897 -0.00443849 -0.802306
vn 0.600468 0 -0.799649
vn -1.27906e-19 1 6.1139e-17
vn -4.02214e-22 1 6.1233e-17
vn -1.86569e-19 1 6.14841e-17
vn -1.91141e-21 1 6.1232e-17
vn 0.335302 0 -0.942111
vn 0.238011 0 -0.971262
vn 0.238011 0 -0.971262
vn 0.0871095 0 -0.996199
vn 0.0871095 6.09996e-17 -0.996199
vn -0.803698 0 -0.595038
vn -0.803698 -0 -0.595038
vn -0.794358 -0 -0.60745
vn -0.997181 0 0.0750387
vn -0.99714 6.42748e-05 0.0755725
vn -0.997181 -6.79121e-05 0.0750387
vn -0.997139 0 0.0755923
vn 0 -1 -6.12321e-17
vn 0 -1 -6.12323e-17
vn -1.94775e-23 -1 -6.12323e-17
vn -2.45069e-23 -1 -6.12323e-17
vn -1.38862e-23 -1 -6.12323e-17
vn 0 -1 -6.12323e-17
vn 0 -1 -6.12324e-17
vn 1.6456e-22 -1 -6.12322e-17
vn 0 -1 -6.12323e-17
vn 0 -1 -6.12325e-17
vn -1.04521e-22 -1 -6.12324e-17
vn 0 -1 -6.12323e-17
vn 1.15936e-24 -1 -6.12323e-17
vn -2.07369e-23 -1 -6.12324e-17
vn -3.299e-25 -1 -6.12323e-17

# Mesh 'defaultobject' with 80 faces
g defaultobject
usemtl DefaultMaterial
f  1//1 2//1 3//1
f  2//2 1//2 4//2
f  2//3 4//3 5//3
f  2//4 5//4 6//4
f  2//5 6//5 7//5
f  7//6 6//6 8//6
f  7//7 8//7 9//7
f  7//8 9//8 10//8
f  10//9 9//9 11//9
f  10//10 11//10 12//10
f  12//11 11//11 13//11
f  13//12 11//12 14//12
f  13//13 14//13 15//13
f  13//14 15//14 16//14
f  13//15 16//15 17//15
f  17//16 16//16 18//16
f  19//17 15//17 20//17
f  15//18 19//18 21//18
f  15//19 21//19 16//19
f  5//20 22//20 6//20
f  22//21 5//21 4//21
f  22//22 4//22 23//22
f  22//23 23//23 24//23
f  25//24 19//24 20//24
f  19//24 25//24 26//24
f  8//25 27//25 9//25
f  27//26 8//26 6//26
f  27//27 6//27 22//27
f  27//28 22//28 28//28
f  9//29 29//29 11//29
f  29//29 9//29 27//29
f  11//30 30//30 14//30
f  30//30 11//30 29//30
f  14//31 20//31 15//31
f  20//32 14//32 30//32
f  20//32 30//32 25//33
f  25//34 30//34 31//34
f  26//35 21//35 19//35
f  21//36 26//36 16//36
f  16//37 26//37 18//37
f  18//38 26//38 17//38
f  17//39 26//39 13//39
f  13//40 26//40 32//40
f  32//41 26//41 33//41
f  32//41 33//41 34//42
f  32//41 34//42 35//43
f  35//43 34//42 36//44
f  37//45 7//45 10//45
f  7//45 37//45 38//45
f  38//46 2//46 7//46
f  2//46 38//46 39//47
f  39//48 3//48 2//48
f  3//48 39//48 40//49
f  32//50 12//50 13//50
f  12//50 32//50 41//51
f  12//52 41//52 10//52
f  10//52 41//52 37//52
f  1//53 23//53 4//53
f  23//54 1//54 3//54
f  23//55 3//55 42//55
f  42//56 3//56 40//56
f  25//57 33//57 26//57
f  33//57 25//57 34//58
f  34//58 25//57 31//59
f  34//58 31//59 36//60
f  36//60 31//59 35//61
f  35//61 31//59 30//62
f  35//61 30//62 29//63
f  35//61 29//63 32//64
f  32//64 29//63 27//65
f  32//64 27//65 41//66
f  41//66 27//65 37//67
f  37//67 27//65 28//62
f  37//67 28//62 38//68
f  38//68 28//62 22//23
f  38//68 22//23 24//23
f  38//68 24//23 39//69
f  39//69 24//23 23//23
f  39//69 23//23 42//70
f  39//69 42//70 40//71

