# File produced by Open Asset Import Library (http://www.assimp.sf.net)
# (assimp v3.1.0)

mtllib ID_15947.obj.mtl

# 10 vertex positions
v  17.17 5.566 25.739
v  1.315 5.185 -0.879
v  0 5.566 3.40819e-16
v  4.792 4.177 -3.203
v  21.985 4.17 22.52
v  4.792 1.96127e-16 -3.203
v  21.985 -1.37895e-15 22.52
v  1.315 5.38232e-17 -0.879
v  0 0 0
v  17.17 -1.57606e-15 25.739

# 0 UV coordinates

# 15 vertex normals
vn 0.19481 0.972194 -0.129954
vn 0.194928 0.972161 -0.130024
vn 0.19493 0.97216 -0.130025
vn 0.831388 0 -0.555692
vn -0.555693 0 -0.831387
vn -0.555728 -3.36636e-05 -0.831364
vn -0.555693 9.56627e-06 -0.831388
vn -0.555721 5.09067e-17 -0.831369
vn -0.831891 -3.39802e-17 0.554939
vn -0.831891 0 0.554939
vn 0.555775 -0 0.831333
vn 0.555775 0 0.831332
vn 2.36337e-24 -1 -6.12323e-17
vn 0 -1 -6.12323e-17
vn 0 -1 -6.1229e-17

# Mesh 'defaultobject' with 16 faces
g defaultobject
usemtl DefaultMaterial
f  1//1 2//1 3//1
f  2//2 1//2 4//2
f  4//2 1//2 5//3
f  5//4 6//4 4//4
f  6//4 5//4 7//4
f  6//5 2//5 4//5
f  2//6 6//6 3//6
f  3//7 6//5 8//7
f  3//8 8//8 9//8
f  9//9 1//9 3//9
f  1//9 9//9 10//10
f  10//11 5//11 1//11
f  5//11 10//11 7//12
f  10//13 6//13 7//13
f  6//13 10//13 9//14
f  6//13 9//14 8//15

