# File produced by Open Asset Import Library (http://www.assimp.sf.net)
# (assimp v3.1.0)

mtllib ID_2364.obj.mtl

# 18 vertex positions
v  31.929 8.547 -13.081
v  37.362 5.534 -5.277
v  37.807 5.534 -5.628
v  12.184 5.534 14.556
v  5.873 8.547 7.446
v  11.75 5.534 14.899
v  0 5.537 3.39043e-16
v  26.697 5.865 -19.716
v  26.047 5.531 -20.541
v  0 0 0
v  26.047 1.25777e-15 -20.541
v  5.873 -4.55936e-16 7.446
v  11.75 -9.12301e-16 14.899
v  12.184 -8.91298e-16 14.556
v  37.362 3.23123e-16 -5.277
v  37.807 3.44616e-16 -5.628
v  31.929 8.0098e-16 -13.081
v  26.697 1.20726e-15 -19.716

# 0 UV coordinates

# 29 vertex normals
vn 0.187369 0.953134 0.237547
vn 0.187208 0.953137 0.23766
vn 0.187254 0.95312 0.237692
vn 0.187608 0.953128 0.237381
vn -0.187522 0.952975 -0.238065
vn -0.187216 0.953139 -0.237649
vn -0.187212 0.953142 -0.237639
vn -0.619228 0 -0.785211
vn -0.619228 0 -0.785211
vn -0.785161 -3.79207e-17 0.619292
vn -0.785161 0 0.619292
vn -0.785239 0 0.619193
vn -0.785239 0 0.619193
vn 0.620055 -0 0.784558
vn 0.618791 0.00016092 0.785556
vn 0.620029 -0.00932052 0.784524
vn 0.618791 0 0.785556
vn 0.619302 0 0.785153
vn 0.785187 0 -0.619258
vn 0.785237 0 -0.619195
vn 0.785492 0 -0.618872
vn 0.785492 0 -0.618872
vn -5.41228e-23 -1 -6.12323e-17
vn -5.56816e-24 -1 -6.12323e-17
vn 3.07336e-24 -1 -6.12323e-17
vn -3.09136e-24 -1 -6.12323e-17
vn 0 -1 -6.12323e-17
vn 8.09059e-23 -1 -6.12323e-17
vn -1.61327e-22 -1 -6.12322e-17

# Mesh 'defaultobject' with 32 faces
g defaultobject
usemtl DefaultMaterial
f  1//1 2//1 3//1
f  2//2 1//2 4//2
f  4//3 1//3 5//3
f  4//4 5//4 6//4
f  7//5 8//5 9//5
f  8//6 7//6 1//6
f  1//7 7//7 5//7
f  9//8 10//8 7//8
f  10//8 9//8 11//9
f  10//10 5//10 7//10
f  5//10 10//10 12//11
f  5//12 12//12 6//12
f  6//12 12//12 13//13
f  13//14 4//14 6//14
f  4//15 13//15 2//15
f  2//16 13//16 14//16
f  2//17 14//17 15//17
f  2//18 15//18 3//18
f  3//18 15//18 16//18
f  16//19 1//19 3//19
f  1//19 16//19 17//19
f  1//20 17//20 8//20
f  8//20 17//20 18//20
f  8//21 18//21 9//21
f  9//21 18//21 11//22
f  15//23 17//23 16//23
f  17//23 15//23 14//24
f  17//23 14//24 18//25
f  18//25 14//24 11//26
f  11//26 14//24 10//27
f  10//27 14//24 12//28
f  12//28 14//24 13//29

