# File produced by Open Asset Import Library (http://www.assimp.sf.net)
# (assimp v3.1.0)

mtllib ID_51841.obj.mtl

# 8 vertex positions
v  4.611 2.838 -1.141
v  0 2.838 1.73777e-16
v  2.868 2.838 1.737
v  1.744 2.838 -2.878
v  2.868 -1.06361e-16 1.737
v  4.611 6.98661e-17 -1.141
v  1.744 1.76227e-16 -2.878
v  0 0 0

# 0 UV coordinates

# 9 vertex normals
vn 0 1 0
vn 0.855361 -0 0.518032
vn 0.518176 0 -0.855274
vn -0.85523 0 -0.518249
vn -0.85523 3.17336e-17 -0.518249
vn -0.518044 -5.23753e-17 0.855354
vn -0.518044 0 0.855354
vn -1.17313e-24 -1 -6.12323e-17
vn -1.17325e-24 -1 -6.12323e-17

# Mesh 'defaultobject' with 12 faces
g defaultobject
usemtl DefaultMaterial
f  1//1 2//1 3//1
f  2//1 1//1 4//1
f  5//2 1//2 3//2
f  1//2 5//2 6//2
f  6//3 4//3 1//3
f  4//3 6//3 7//3
f  7//4 2//4 4//4
f  2//4 7//4 8//5
f  8//6 3//6 2//6
f  3//6 8//6 5//7
f  8//8 6//8 5//8
f  6//8 8//8 7//9

