# File produced by Open Asset Import Library (http://www.assimp.sf.net)
# (assimp v3.1.0)

mtllib ID_56785.obj.mtl

# 8 vertex positions
v  0 2.869 1.75676e-16
v  2.539 2.869 -2.994
v  0.998 2.869 -3.441
v  1.573 2.869 0.457
v  0.998 2.107e-16 -3.441
v  0 0 0
v  1.573 -2.79832e-17 0.457
v  2.539 1.8333e-16 -2.994

# 0 UV coordinates

# 9 vertex normals
vn 0 1 0
vn -0.960421 0 -0.278553
vn -0.960421 1.70564e-17 -0.278553
vn -0.278992 -5.8801e-17 0.960293
vn -0.278992 0 0.960293
vn 0.962984 -0 0.269557
vn 0.278588 0 -0.960411
vn -3.45337e-24 -1 -6.12323e-17
vn 0 -1 -6.12323e-17

# Mesh 'defaultobject' with 12 faces
g defaultobject
usemtl DefaultMaterial
f  1//1 2//1 3//1
f  2//1 1//1 4//1
f  5//2 1//2 3//2
f  1//2 5//2 6//3
f  6//4 4//4 1//4
f  4//4 6//4 7//5
f  7//6 2//6 4//6
f  2//6 7//6 8//6
f  8//7 3//7 2//7
f  3//7 8//7 5//7
f  8//8 6//8 5//8
f  6//8 8//8 7//9

