# File produced by Open Asset Import Library (http://www.assimp.sf.net)
# (assimp v3.1.0)

mtllib ID_8766.obj.mtl

# 36 vertex positions
v  9.085 15.584 8.239
v  22.425 15.593 7.477
v  21.916 17.042 -1.15
v  21.915 17.045 -1.165
v  0.011 17.018 0.158
v  5.544 17.038 -0.256
v  0 17.045 1.04371e-15
v  8.991 15.584 8.244
v  7.625 17.046 -0.413
v  8.514 17.046 -0.46
v  9.486 15.588 16.036
v  0.465 17.037 8.789
v  0.911 17.046 16.356
v  0.399 17.036 7.678
v  0.556 17.008 7.598
v  0.386 17.015 5.601
v  9.398 15.576 13.676
v  9.486 -9.81922e-16 16.036
v  9.398 -8.37414e-16 13.676
v  8.998 15.585 8.335
v  8.991 -5.04799e-16 8.244
v  8.998 -5.10372e-16 8.335
v  22.425 -4.57834e-16 7.477
v  21.915 7.13357e-17 -1.165
v  21.916 7.04172e-17 -1.15
v  9.085 -5.04493e-16 8.239
v  0.911 -1.00152e-15 16.356
v  7.625 2.5289e-17 -0.413
v  8.514 2.81669e-17 -0.46
v  5.544 1.56755e-17 -0.256
v  0 0 0
v  0.011 -9.67471e-18 0.158
v  0.386 -3.42962e-16 5.601
v  0.556 -4.65243e-16 7.598
v  0.399 -4.70142e-16 7.678
v  0.465 -5.38171e-16 8.789

# 0 UV coordinates

# 62 vertex normals
vn 0.00876711 0.986233 0.165131
vn 0.0305981 0.980509 0.194076
vn 0.00899446 0.985775 0.167832
vn 0.0087913 0.986231 0.165138
vn 0.0086713 0.986224 0.165186
vn 0.00873262 0.986225 0.165176
vn 0.00876307 0.986225 0.165175
vn 0.00878783 0.986219 0.165209
vn 0.167213 0.985859 -0.011028
vn 0.167045 0.98589 -0.010812
vn 0.169086 0.985514 -0.0130968
vn 0.166936 0.985909 -0.010755
vn 0.167498 0.985808 -0.0112583
vn 0.167255 0.985852 -0.0109798
vn 0.167412 0.985825 -0.0110918
vn 0.999306 0 -0.0372624
vn 0.999305 0 -0.0372624
vn 0.997207 0 -0.0746831
vn 0.997055 -0.000691303 -0.0766889
vn 0.997205 0 -0.0747169
vn 1.81019e-19 1 6.12187e-17
vn 0.998264 0 -0.0588983
vn 0.997721 -0.00428749 -0.0673358
vn 0.998263 0 -0.0589114
vn 3.5189e-20 1 6.12303e-17
vn 0.0531177 -0 0.998588
vn 0.0570285 -2.36585e-05 0.998373
vn 0.0570011 0 0.998374
vn 2.68637e-21 1 6.12815e-17
vn 0.037292 -0 0.999304
vn 0.037292 0 0.999304
vn -0.0525354 0 -0.998619
vn -0.0527947 -0.000204446 -0.998605
vn -0.0525515 -0 -0.998618
vn -3.33287e-22 1 6.12266e-17
vn -0.0752307 0 -0.997166
vn -0.0752307 -0 -0.997166
vn -0.0461269 0 -0.998936
vn -0.0461269 0 -0.998936
vn -0.997585 -4.25272e-18 0.0694521
vn -0.997635 6.70973e-06 0.0687329
vn -0.996384 -0.00531105 0.0848012
vn -0.997584 0.00158517 0.0694523
vn -0.997633 0.00190136 0.0687328
vn -0.996396 0 0.0848209
vn -0.99824 0 0.0593014
vn -0.998267 3.03281e-05 0.058838
vn -0.998264 0 0.0588973
vn -2.16299e-19 -1 -6.12262e-17
vn -0.45401 0 -0.890996
vn 4.70648e-25 -1 -6.12323e-17
vn -8.74416e-25 -1 -6.12323e-17
vn 0 -1 -6.12323e-17
vn 0 -1 -6.12323e-17
vn 0 -1 -6.12323e-17
vn 2.39851e-24 -1 -6.12323e-17
vn 1.27682e-21 -1 -6.12339e-17
vn 1.26825e-23 -1 -6.12323e-17
vn 9.1051e-25 -1 -6.12323e-17
vn -3.00137e-21 -1 -6.12849e-17
vn -2.46793e-23 -1 -6.12324e-17
vn -1.58373e-23 -1 -6.12323e-17

# Mesh 'defaultobject' with 66 faces
g defaultobject
usemtl DefaultMaterial
f  1//1 2//1 3//1
f  1//2 3//2 4//2
f  5//3 6//3 7//3
f  6//4 5//4 8//4
f  6//5 8//5 9//5
f  9//6 8//6 10//6
f  10//7 8//7 4//7
f  4//8 8//8 1//8
f  11//9 12//9 13//9
f  12//10 11//10 14//10
f  14//11 11//11 15//11
f  15//12 11//12 16//12
f  16//13 11//13 17//13
f  16//14 17//14 5//14
f  5//15 17//15 8//15
f  18//16 17//16 11//16
f  17//16 18//16 19//17
f  19//18 20//18 17//18
f  20//19 19//19 8//19
f  8//20 19//20 21//20
f  21//21 19//21 22//21
f  23//22 3//22 2//22
f  3//23 23//23 4//23
f  4//24 23//24 24//24
f  24//25 23//25 25//25
f  21//26 1//26 8//26
f  1//27 21//27 2//27
f  2//28 21//28 23//28
f  23//25 21//21 26//29
f  27//30 11//30 13//30
f  11//30 27//30 18//31
f  24//32 10//32 4//32
f  10//33 24//33 9//33
f  9//34 24//34 28//34
f  28//35 24//25 29//35
f  28//36 6//36 9//36
f  6//36 28//36 30//37
f  6//38 31//38 7//38
f  31//38 6//38 30//39
f  31//40 5//40 7//40
f  5//41 31//41 16//41
f  16//42 31//42 15//42
f  15//43 31//43 32//43
f  15//44 32//44 33//44
f  15//45 33//45 34//45
f  35//46 12//46 14//46
f  12//47 35//47 13//47
f  13//48 35//48 27//48
f  27//49 35//49 36//49
f  15//50 35//50 14//50
f  35//50 15//50 34//50
f  30//51 32//51 31//51
f  32//51 30//51 33//52
f  33//52 30//51 28//53
f  33//52 28//53 29//54
f  33//52 29//54 24//55
f  33//52 24//55 34//56
f  34//56 24//55 35//49
f  35//49 24//55 36//49
f  36//49 24//55 25//57
f  36//49 25//57 21//58
f  21//58 25//57 23//59
f  21//58 23//59 26//60
f  21//58 27//49 36//49
f  27//49 21//58 19//61
f  27//49 19//61 18//62

