# {"id":"ID_9457","idOriginal":"ID_9457","origin":[14.324934990095654,48.25792748190438],"elevation":256.722,"wof":[{"Id":85898429,"Name":"Kleinmünchen","Placetype":"neighbourhood","Offset":-1},{"Id":85681677,"Name":"Oberösterreich","Placetype":"region","Offset":-1},{"Id":102049853,"Name":"Linz","Placetype":"county","Offset":-1},{"Id":101748071,"Name":"Linz","Placetype":"locality","Offset":-1},{"Id":85632785,"Name":"Austria","Placetype":"country","Offset":-1}]}

# Attribution: City of Linz <http://geo.data.linz.gv.at/katalog/geodata/3d_geo_daten_lod2/>
# Longitude: 14.324934990095654
# Latitude: 48.25792748190438
# Elevation: 256.722

# File produced by Open Asset Import Library (http://www.assimp.sf.net)
# (assimp v3.1.0)


# 35 vertex positions
v  2.568 6.267 10.697
v  2.452 6.698 6.662
v  1.441 6.327 6.928
v  1.862 6.677 5.139
v  5.652 8.788 -2.048
v  0 6.65 4.07195e-16
v  9.534 8.788 9.15
v  3.631 6.678 10.236
v  4.991 6.67 14.221
v  5.641 6.804 14.951
v  6.128 6.811 16.295
v  5.3 6.675 15.074
v  18.065 6.267 13.597
v  6.65 6.267 17.734
v  17.898 6.441 13.136
v  17.025 6.454 10.728
v  17.574 6.246 10.529
v  12.161 6.326 -4.407
v  1.862 -3.14673e-16 5.139
v  0 0 0
v  2.452 -4.0793e-16 6.662
v  1.441 -4.24218e-16 6.928
v  2.568 -6.55002e-16 10.697
v  3.631 -6.26774e-16 10.236
v  4.991 -8.70785e-16 14.221
v  5.3 -9.23016e-16 15.074
v  5.641 -9.15485e-16 14.951
v  6.65 -1.08589e-15 17.734
v  6.128 -9.97781e-16 16.295
v  5.652 1.25404e-16 -2.048
v  12.161 2.69851e-16 -4.407
v  18.065 -8.32576e-16 13.597
v  17.025 -6.56901e-16 10.728
v  17.574 -6.44715e-16 10.529
v  17.898 -8.04348e-16 13.136

# 0 UV coordinates

# 60 vertex normals
vn -0.316845 0.942107 0.10974
vn -0.316625 0.942178 0.109772
vn -0.316633 0.942176 0.109767
vn -0.31658 0.942207 0.109649
vn -0.316598 0.942194 0.109713
vn -0.316686 0.942161 0.109741
vn -0.316556 0.942183 0.109925
vn -0.317082 0.942067 0.109406
vn -0.316561 0.942196 0.109799
vn -0.316975 0.942115 0.109302
vn 0.114098 0.942267 0.314825
vn 0.114159 0.942163 0.315113
vn 0.114741 0.942418 0.31414
vn 0.316668 0.942169 -0.109719
vn 0.316809 0.942018 -0.110612
vn 0.316702 0.942157 -0.10973
vn 0.316601 0.942188 -0.109756
vn -0.940188 0 0.340656
vn -0.940188 0 0.340656
vn -0.932475 0 0.361234
vn -0.932475 0 0.361234
vn -0.958085 0 0.286485
vn -0.958085 0 0.286485
vn -0.946403 0 0.322988
vn -0.946403 0 0.322988
vn -0.940211 0 0.340592
vn -0.940211 0 0.340592
vn -0.940181 0 0.340676
vn -0.940068 -6.92415e-05 0.340986
vn -0.940118 0 0.340848
vn 1.36475e-19 1 6.11834e-17
vn -0.254446 0 -0.967087
vn -0.254446 -0 -0.967087
vn -0.340674 0 -0.940181
vn -0.340722 3.48224e-05 -0.940164
vn -0.340674 -6.92634e-05 -0.940181
vn -0.340734 0 -0.94016
vn 0.397874 0 0.91744
vn 0.397874 0 0.91744
vn 0.339306 0 0.940676
vn 0.339306 0 0.940676
vn 0.340731 -0 0.940161
vn 0.34078 -0 0.940143
vn 0.940122 -0.000724599 -0.340838
vn 0.940137 0 -0.340796
vn 0.940137 0 -0.340796
vn 8.31628e-20 1 6.12078e-17
vn 0.940162 0 -0.340727
vn 3.55705e-23 -1 -6.12323e-17
vn 1.36182e-23 -1 -6.12323e-17
vn -1.1393e-23 -1 -6.12324e-17
vn 0 -1 -6.12323e-17
vn 1.77099e-23 -1 -6.12323e-17
vn 9.55841e-23 -1 -6.12324e-17
vn -5.84252e-22 -1 -6.12325e-17
vn 1.42693e-22 -1 -6.12323e-17
vn 0 -1 -6.12323e-17
vn 1.98671e-23 -1 -6.12323e-17
vn 0 -1 -6.12323e-17
vn -3.22223e-24 -1 -6.12323e-17

# Mesh 'defaultobject' with 66 faces
g defaultobject
usemtl DefaultMaterial
f  1//1 2//1 3//1
f  4//2 5//2 6//2
f  5//2 4//2 7//3
f  7//4 4//4 2//4
f  7//5 2//5 8//5
f  8//6 2//6 1//6
f  7//7 8//7 9//7
f  7//8 9//8 10//8
f  7//9 10//9 11//9
f  10//10 9//10 12//10
f  13//11 11//11 14//11
f  11//12 13//12 7//12
f  7//13 13//13 15//13
f  16//14 7//14 15//14
f  7//15 16//15 17//15
f  7//16 17//16 18//16
f  7//17 18//17 5//17
f  6//18 19//18 4//18
f  19//18 6//18 20//19
f  4//20 21//20 2//20
f  21//20 4//20 19//21
f  22//22 1//22 3//22
f  1//22 22//22 23//23
f  24//24 9//24 8//24
f  9//24 24//24 25//25
f  9//26 26//26 12//26
f  26//26 9//26 25//27
f  27//28 11//28 10//28
f  11//29 27//29 14//29
f  14//30 27//30 28//30
f  28//31 27//31 29//31
f  21//32 3//32 2//32
f  3//32 21//32 22//33
f  5//34 20//34 6//34
f  20//35 5//35 18//35
f  20//36 18//36 30//36
f  30//37 18//37 31//37
f  1//38 24//38 8//38
f  24//38 1//38 23//39
f  12//40 27//40 10//40
f  27//40 12//40 26//41
f  28//42 13//42 14//42
f  13//42 28//42 32//42
f  33//43 17//43 16//43
f  17//43 33//43 34//43
f  13//44 16//44 15//44
f  16//45 13//45 32//45
f  16//45 32//45 33//46
f  33//47 32//47 35//47
f  17//48 31//48 18//48
f  31//48 17//48 34//48
f  28//49 35//49 32//49
f  35//49 28//49 33//50
f  33//50 28//49 29//51
f  33//50 29//51 27//52
f  22//53 21//53 23//53
f  33//50 31//54 34//54
f  31//54 33//50 27//52
f  31//54 27//52 26//55
f  31//54 26//55 25//56
f  31//54 25//56 24//57
f  31//54 24//57 23//53
f  31//54 23//53 21//53
f  31//54 21//53 19//58
f  31//54 19//58 30//59
f  30//59 19//58 20//60

