# {"id":"_42088","idOriginal":"_42088","origin":[14.324486291553772,48.304267658280146],"elevation":254.741,"wof":[{"Id":85898449,"Name":"Steeg","Placetype":"neighbourhood","Offset":-1},{"Id":85681677,"Name":"Oberösterreich","Placetype":"region","Offset":-1},{"Id":102049853,"Name":"Linz","Placetype":"county","Offset":-1},{"Id":101748071,"Name":"Linz","Placetype":"locality","Offset":-1},{"Id":85632785,"Name":"Austria","Placetype":"country","Offset":-1}]}

# Attribution: City of Linz <http://geo.data.linz.gv.at/katalog/geodata/3d_geo_daten_lod2/>
# Longitude: 14.324486291553772
# Latitude: 48.304267658280146
# Elevation: 254.741

# File produced by Open Asset Import Library (http://www.assimp.sf.net)
# (assimp v3.1.0)


# 12 vertex positions
v  16.109 3.69 -5.314
v  0 3.69 2.25947e-16
v  16.459 3.618 -4.199
v  6.803 3.62 -1.047
v  7.075 3.571 -0.314
v  0.639 3.557 2.048
v  6.803 6.41103e-17 -1.047
v  7.075 1.9227e-17 -0.314
v  16.109 3.25389e-16 -5.314
v  16.459 2.57115e-16 -4.199
v  0.639 -1.25404e-16 2.048
v  0 0 0

# 0 UV coordinates

# 18 vertex normals
vn 0.0192662 0.998107 0.0584041
vn 0.0192473 0.998112 0.0583299
vn 0.0194279 0.998039 0.0595079
vn 0.0193956 0.998083 0.0587653
vn 0.937533 0 -0.347897
vn 0.937533 0 -0.347897
vn 0.954098 0 -0.299493
vn 0.310315 -0 0.950634
vn 0.310315 0 0.950634
vn 0.344529 0 0.938776
vn -0.313273 0 -0.949663
vn -0.313273 5.81501e-17 -0.949663
vn -0.954613 -1.82381e-17 0.29785
vn -0.954613 0 0.29785
vn 9.34788e-24 -1 -6.12323e-17
vn -1.1678e-24 -1 -6.12323e-17
vn 0 -1 -6.12323e-17
vn 1.80186e-24 -1 -6.12323e-17

# Mesh 'defaultobject' with 20 faces
g defaultobject
usemtl DefaultMaterial
f  1//1 2//1 3//1
f  4//2 3//2 2//2
f  5//3 4//3 2//3
f  6//4 5//4 2//4
f  5//5 7//5 4//5
f  7//5 5//5 8//6
f  3//7 9//7 1//7
f  9//7 3//7 10//7
f  7//8 3//8 4//8
f  3//8 7//8 10//9
f  6//10 8//10 5//10
f  8//10 6//10 11//10
f  9//11 2//11 1//11
f  2//11 9//11 12//12
f  12//13 6//13 2//13
f  6//13 12//13 11//14
f  9//15 10//15 12//15
f  7//16 12//15 10//15
f  8//17 12//15 7//16
f  11//18 12//15 8//17

