# {"id":"ID_56010","idOriginal":"ID_56010","origin":[14.2856210751536,48.279665023502346],"elevation":272.76}
# Longitude: 14.2856210751536
# Latitude: 48.279665023502346
# Elevation: 272.76

# File produced by Open Asset Import Library (http://www.assimp.sf.net)
# (assimp v3.1.0)

mtllib ID_56010.obj.mtl

# 8 vertex positions
v  0 2.327 1.42488e-16
v  3.345 2.327 -1.384
v  0.97 2.327 -2.361
v  2.374 2.327 0.976
v  3.345 8.47456e-17 -1.384
v  0.97 1.4457e-16 -2.361
v  0 0 0
v  2.374 -5.97628e-17 0.976

# 0 UV coordinates

# 9 vertex normals
vn 0 1 0
vn 0.380436 0 -0.924807
vn -0.924978 0 -0.380021
vn -0.924978 2.32696e-17 -0.380021
vn -0.38024 -5.6633e-17 0.924888
vn -0.38024 0 0.924888
vn 0.924784 -0 0.380493
vn -8.07785e-24 -1 -6.12323e-17
vn 0 -1 -6.12323e-17

# Mesh 'defaultobject' with 12 faces
g defaultobject
usemtl DefaultMaterial
f  1//1 2//1 3//1
f  2//1 1//1 4//1
f  5//2 3//2 2//2
f  3//2 5//2 6//2
f  6//3 1//3 3//3
f  1//3 6//3 7//4
f  7//5 4//5 1//5
f  4//5 7//5 8//6
f  8//7 2//7 4//7
f  2//7 8//7 5//7
f  8//8 6//8 5//8
f  6//8 8//8 7//9

