# {"id":"ID_43507","idOriginal":"ID_43507","origin":[14.280536449161792,48.316098429104905],"elevation":268.593}
# Longitude: 14.280536449161792
# Latitude: 48.316098429104905
# Elevation: 268.593

# File produced by Open Asset Import Library (http://www.assimp.sf.net)
# (assimp v3.1.0)

mtllib ID_43507.obj.mtl

# 14 vertex positions
v  6.566 1.095 2.526
v  5.829 1.095 2.715
v  6.573 1.067 2.554
v  1.056 1.271 3.751
v  5.79 4.258 -0.714
v  0 4.972 3.04447e-16
v  5.61 4.972 -1.443
v  1.056 -2.29683e-16 3.751
v  5.829 -1.66246e-16 2.715
v  6.573 -1.56387e-16 2.554
v  6.566 -1.54673e-16 2.526
v  5.79 4.37199e-17 -0.714
v  5.61 8.83583e-17 -1.443
v  0 0 0

# 0 UV coordinates

# 23 vertex normals
vn 0.17297 0.717733 0.674493
vn 0.172624 0.719083 0.673143
vn 0.171427 0.725175 0.666883
vn 0.171658 0.725002 0.667012
vn 0.171661 0.724669 0.667373
vn 0.212115 -0 0.977245
vn 0.212115 0 0.977245
vn 0.211502 0 0.977377
vn 0.211502 0 0.977377
vn 0.970142 0 -0.242536
vn 0.972555 0.000267651 -0.232672
vn 0.970113 -0.0077464 -0.242528
vn 0.972496 0 -0.232919
vn 0.970843 0 -0.239714
vn -0.24911 0 -0.968475
vn -0.24911 5.9302e-17 -0.968475
vn -0.962582 -1.65934e-17 0.270991
vn -0.962582 0 0.270991
vn -1.41261e-22 -1 -6.12329e-17
vn -1.30545e-24 -1 -6.12323e-17
vn 0 -1 -6.12323e-17
vn 0 -1 -6.12323e-17
vn 0 -1 -6.12323e-17

# Mesh 'defaultobject' with 24 faces
g defaultobject
usemtl DefaultMaterial
f  1//1 2//1 3//1
f  2//2 1//2 4//2
f  4//3 1//3 5//3
f  4//4 5//4 6//4
f  6//5 5//5 7//5
f  8//6 2//6 4//6
f  2//6 8//6 9//7
f  2//8 9//8 3//8
f  3//8 9//8 10//9
f  10//10 1//10 3//10
f  1//11 10//11 5//11
f  5//12 10//12 11//12
f  5//13 11//13 12//13
f  5//14 12//14 7//14
f  7//14 12//14 13//14
f  13//15 6//15 7//15
f  6//15 13//15 14//16
f  14//17 4//17 6//17
f  4//17 14//17 8//18
f  9//19 11//19 10//19
f  11//19 9//19 12//20
f  12//20 9//19 8//21
f  12//20 8//21 13//22
f  13//22 8//21 14//23

