# {"id":"ID_11936","idOriginal":"ID_11936","origin":[14.287103223454732,48.31923712270526],"elevation":259.842}
# Longitude: 14.287103223454732
# Latitude: 48.31923712270526
# Elevation: 259.842

# File produced by Open Asset Import Library (http://www.assimp.sf.net)
# (assimp v3.1.0)

mtllib ID_11936.obj.mtl

# 25 vertex positions
v  7.218 17.066 1.32
v  22.893 11.809 -3.662
v  20.207 17.066 -7.67
v  23.141 11.323 -3.291
v  15.685 11.388 1.797
v  15.522 11.389 1.908
v  13.998 11.403 2.948
v  6.147 11.471 8.306
v  5.868 11.531 8.432
v  5.898 11.474 8.475
v  0.056 11.407 -0.039
v  17.316 11.407 -11.985
v  0 11.333 6.93946e-16
v  0 0 0
v  5.898 -5.18944e-16 8.475
v  5.868 -5.16311e-16 8.432
v  6.147 -5.08596e-16 8.306
v  13.998 -1.80513e-16 2.948
v  15.685 -1.10035e-16 1.797
v  23.141 2.01516e-16 -3.291
v  15.522 -1.16831e-16 1.908
v  22.893 2.24233e-16 -3.662
v  20.207 4.69652e-16 -7.67
v  17.316 7.3387e-16 -11.985
v  0.056 2.38806e-18 -0.039

# 0 UV coordinates

# 43 vertex normals
vn 0.419308 0.676131 0.605828
vn 0.419306 0.676299 0.605642
vn 0.419301 0.676152 0.605809
vn 0.418238 0.674759 0.608093
vn 0.419456 0.676279 0.605561
vn 0.419296 0.676157 0.605807
vn 0.419048 0.676267 0.605856
vn 0.418889 0.67699 0.605159
vn -0.4193 0.676145 -0.605819
vn -0.419299 0.676148 -0.605815
vn -0.610806 0.677871 0.409154
vn -0.612082 0.676174 0.410055
vn -0.820802 -3.49767e-17 0.571213
vn -0.820461 -0.000531422 0.571702
vn -0.820799 0 0.571218
vn -2.61574e-20 1 6.12501e-17
vn 0.561584 -0 0.82742
vn 0.563699 -6.71084e-05 0.82598
vn 0.563673 -4.01712e-05 0.825998
vn 0.56158 0.00254545 0.827418
vn 0.563699 -5.1096e-06 0.82598
vn 0.562865 0.000158377 0.826549
vn 0.563667 -1.55475e-05 0.826002
vn 0.563595 6.91201e-05 0.826051
vn 0.563667 0 0.826002
vn -9.29446e-21 -1 -6.12435e-17
vn 0.830742 5.40335e-05 -0.556658
vn 0.830764 -0.000981536 -0.556623
vn 0.830769 0 -0.556617
vn 0.831359 0.000973448 -0.555735
vn 0.830709 -5.3613e-05 -0.556707
vn 0.830774 0 -0.556609
vn -0.571494 0 -0.820606
vn -0.569106 -1.73906e-05 -0.822264
vn -0.571486 0.00534914 -0.820595
vn -0.569106 0 -0.822264
vn -5.82752e-24 -1 -6.12323e-17
vn 0 -1 -6.12323e-17
vn 5.64928e-24 -1 -6.12323e-17
vn 1.07872e-24 -1 -6.12323e-17
vn -1.36298e-22 -1 -6.12323e-17
vn 0 -1 -6.1193e-17
vn 2.35985e-24 -1 -6.12323e-17

# Mesh 'defaultobject' with 46 faces
g defaultobject
usemtl DefaultMaterial
f  1//1 2//1 3//1
f  2//2 1//2 4//2
f  4//3 1//3 5//3
f  5//4 1//4 6//4
f  6//5 1//5 7//5
f  7//6 1//3 8//6
f  8//7 1//7 9//7
f  8//8 9//8 10//8
f  11//9 3//9 12//9
f  3//9 11//9 1//10
f  9//11 11//11 13//11
f  11//12 9//12 1//12
f  14//13 9//13 13//13
f  9//14 14//14 10//14
f  10//15 14//13 15//15
f  15//16 14//16 16//16
f  15//17 8//17 10//17
f  8//18 15//18 7//18
f  7//19 15//19 6//19
f  6//20 15//20 17//20
f  6//21 17//21 18//21
f  6//22 18//22 5//22
f  5//23 18//23 4//23
f  4//24 18//24 19//24
f  4//25 19//25 20//25
f  19//26 18//26 21//26
f  2//27 12//27 3//27
f  12//28 2//28 4//28
f  12//29 4//29 20//29
f  12//30 20//30 22//30
f  12//31 22//31 23//31
f  12//29 23//32 24//32
f  11//33 14//33 13//33
f  14//34 11//34 12//34
f  14//35 12//35 25//35
f  25//36 12//36 24//36
f  23//37 25//37 24//37
f  25//37 23//37 22//38
f  25//37 22//38 20//39
f  25//37 20//39 19//26
f  25//37 19//26 21//26
f  25//37 21//26 18//26
f  25//37 18//26 17//40
f  25//37 17//40 15//41
f  25//37 15//41 16//42
f  25//37 16//42 14//43

