# {"id":"ID_34009","idOriginal":"ID_34009","origin":[14.327417735500804,48.239435771490136],"elevation":259.83}
# Longitude: 14.327417735500804
# Latitude: 48.239435771490136
# Elevation: 259.83

# File produced by Open Asset Import Library (http://www.assimp.sf.net)
# (assimp v3.1.0)

mtllib ID_34009.obj.mtl

# 14 vertex positions
v  0.022 2.876 0.06
v  1.245 2.827 -0.412
v  0 2.876 1.76104e-16
v  1.633 2.811 -0.54
v  7.251 2.586 -2.554
v  2.19 2.876 5.963
v  9.434 2.583 3.167
v  0 0 0
v  2.19 -3.65128e-16 5.963
v  0.022 -3.67394e-18 0.06
v  9.434 -1.93923e-16 3.167
v  7.251 1.56387e-16 -2.554
v  1.245 2.52277e-17 -0.412
v  1.633 3.30655e-17 -0.54

# 0 UV coordinates

# 24 vertex normals
vn 0.035074 0.999302 -0.0128605
vn 0.0480744 0.998625 0.0208953
vn 0.0323713 0.999248 -0.0213349
vn 0.035388 0.999289 -0.012997
vn 0.0354062 0.999289 -0.0129862
vn -0.938876 -2.10795e-17 0.344255
vn -0.938693 -1.18322e-05 0.344755
vn -0.938695 0 0.34475
vn -9.91271e-19 1 6.14588e-17
vn 0.360083 -0 0.93292
vn 0.360083 0 0.93292
vn 0.934294 0 -0.356505
vn 0.934294 0 -0.356505
vn -0.314168 0 -0.949367
vn -0.313305 -0.000421741 -0.949653
vn -0.314168 0.000134543 -0.949367
vn -0.313289 0 -0.949658
vn -0.337461 0 -0.941339
vn -0.337461 0 -0.941339
vn 0 -1 -6.12323e-17
vn 2.24971e-24 -1 -6.12323e-17
vn -2.09669e-22 -1 -6.12326e-17
vn 0 -1 -6.12323e-17
vn -8.33901e-22 -1 -6.1235e-17

# Mesh 'defaultobject' with 24 faces
g defaultobject
usemtl DefaultMaterial
f  1//1 2//1 3//1
f  2//2 1//2 4//2
f  4//3 1//3 5//3
f  5//4 1//4 6//4
f  5//5 6//5 7//5
f  8//6 1//6 3//6
f  1//7 8//7 6//7
f  6//8 8//8 9//8
f  9//9 8//9 10//9
f  9//10 7//10 6//10
f  7//10 9//10 11//11
f  7//12 12//12 5//12
f  12//12 7//12 11//13
f  2//14 8//14 3//14
f  8//15 2//15 4//15
f  8//16 4//16 13//16
f  13//17 4//17 14//17
f  5//18 14//18 4//18
f  14//18 5//18 12//19
f  10//20 11//20 9//20
f  11//20 10//20 12//21
f  12//21 10//20 14//22
f  14//22 10//20 8//23
f  14//22 8//23 13//24

