# {"id":"ID_55957","idOriginal":"ID_55957","origin":[14.29987531102837,48.244199446749604],"elevation":260.132,"wof":[{"Id":85681677,"Name":"Oberösterreich","Placetype":"region","Offset":-1},{"Id":85898447,"Name":"Scharlinz","Placetype":"neighbourhood","Offset":-1},{"Id":102049853,"Name":"Linz","Placetype":"county","Offset":-1},{"Id":101748071,"Name":"Linz","Placetype":"locality","Offset":-1},{"Id":85632785,"Name":"Austria","Placetype":"country","Offset":-1}]}

# Attribution: City of Linz <http://geo.data.linz.gv.at/katalog/geodata/3d_geo_daten_lod2/>
# Longitude: 14.29987531102837
# Latitude: 48.244199446749604
# Elevation: 260.132

# File produced by Open Asset Import Library (http://www.assimp.sf.net)
# (assimp v3.1.0)


# 8 vertex positions
v  3.632 1.89 0.229
v  0 1.89 1.15729e-16
v  1.566 1.89 1.917
v  2.066 1.89 -1.687
v  0 0 0
v  1.566 -1.17382e-16 1.917
v  3.632 -1.40222e-17 0.229
v  2.066 1.03299e-16 -1.687

# 0 UV coordinates

# 9 vertex normals
vn 0 1 0
vn -0.774443 -3.87382e-17 0.632644
vn -0.774443 0 0.632644
vn 0.632707 -0 0.774391
vn 0.774281 0 -0.632842
vn -0.632482 0 -0.774575
vn -0.632482 4.7429e-17 -0.774575
vn 4.00914e-24 -1 -6.12323e-17
vn -4.00944e-24 -1 -6.12323e-17

# Mesh 'defaultobject' with 12 faces
g defaultobject
usemtl DefaultMaterial
f  1//1 2//1 3//1
f  2//1 1//1 4//1
f  5//2 3//2 2//2
f  3//2 5//2 6//3
f  6//4 1//4 3//4
f  1//4 6//4 7//4
f  7//5 4//5 1//5
f  4//5 7//5 8//5
f  8//6 2//6 4//6
f  2//6 8//6 5//7
f  8//8 6//8 5//8
f  6//8 8//8 7//9

