# {"id":"ID_35731","idOriginal":"ID_35731","origin":[14.278929038862644,48.31910231760143],"elevation":283.954}
# Longitude: 14.278929038862644
# Latitude: 48.31910231760143
# Elevation: 283.954

# File produced by Open Asset Import Library (http://www.assimp.sf.net)
# (assimp v3.1.0)

mtllib ID_35731.obj.mtl

# 12 vertex positions
v  0 2.426 1.4855e-16
v  9.998 2.426 -2.844
v  7.948 2.426 -5.77
v  6.574 2.426 -0.197
v  7.097 2.426 0.519
v  2.804 2.426 3.843
v  9.998 1.74145e-16 -2.844
v  7.948 3.53311e-16 -5.77
v  7.097 -3.17796e-17 0.519
v  6.574 1.20628e-17 -0.197
v  0 0 0
v  2.804 -2.35316e-16 3.843

# 0 UV coordinates

# 13 vertex normals
vn 0 1 0
vn 0.818995 0 -0.5738
vn 0.807515 0 -0.589847
vn -0.587481 0 -0.809238
vn -0.587481 4.95515e-17 -0.809238
vn -0.807826 -3.60916e-17 0.589421
vn -0.807826 0 0.589421
vn 0.612218 -0 0.790689
vn 0.611618 -0 0.791153
vn 1.50892e-24 -1 -6.12323e-17
vn 1.97809e-25 -1 -6.12323e-17
vn 8.59852e-26 -1 -6.12323e-17
vn 0 -1 -6.12323e-17

# Mesh 'defaultobject' with 20 faces
g defaultobject
usemtl DefaultMaterial
f  1//1 2//1 3//1
f  2//1 1//1 4//1
f  4//1 1//1 5//1
f  5//1 1//1 6//1
f  7//2 3//2 2//2
f  3//2 7//2 8//2
f  9//3 4//3 5//3
f  4//3 9//3 10//3
f  8//4 1//4 3//4
f  1//4 8//4 11//5
f  11//6 6//6 1//6
f  6//6 11//6 12//7
f  12//8 5//8 6//8
f  5//8 12//8 9//8
f  10//9 2//9 4//9
f  2//9 10//9 7//9
f  7//10 11//10 8//10
f  11//10 7//10 10//11
f  11//10 10//11 9//12
f  11//10 9//12 12//13

