# {"id":"ID_31107","idOriginal":"ID_31107","origin":[14.285192869974582,48.31219733497797],"elevation":260.62}
# Longitude: 14.285192869974582
# Latitude: 48.31219733497797
# Elevation: 260.62

# File produced by Open Asset Import Library (http://www.assimp.sf.net)
# (assimp v3.1.0)

mtllib ID_31107.obj.mtl

# 29 vertex positions
v  3.144 13.991 4.356
v  5.936 12.032 8.225
v  6.933 12.032 7.016
v  4.135 14.12 3.083
v  6.954 12.035 6.99
v  2.969 14.12 4.114
v  0.117 12.12 0.161
v  0.056 12.075 0.077
v  1.313 12.033 -0.826
v  0 12.033 7.36809e-16
v  5.936 -5.03636e-16 8.225
v  2.969 -2.5191e-16 4.114
v  0 0 0
v  3.144 -2.66728e-16 4.356
v  0.117 -9.85841e-18 0.161
v  0.056 -4.71489e-18 0.077
v  6.954 -4.28014e-16 6.99
v  6.933 -4.29606e-16 7.016
v  1.313 5.05779e-17 -0.826
v  4.135 -1.88779e-16 3.083
v  10.938 10.93 2.156
v  4.135 10.93 3.083
v  6.954 10.93 6.99
v  5.22 10.93 -3.284
v  1.313 10.93 -0.826
v  5.189 10.93 -3.265
v  10.938 -1.32017e-16 2.156
v  5.189 1.99924e-16 -3.265
v  5.22 2.01087e-16 -3.284

# 0 UV coordinates

# 45 vertex normals
vn 0.301426 0.920519 0.24857
vn 0.250951 0.917504 0.308563
vn 0.26438 0.916984 0.298736
vn 0.263734 0.917323 0.298268
vn -0.252504 0.924496 -0.285568
vn -0.215321 0.914597 -0.342272
vn -0.211513 0.917401 -0.337101
vn -0.210234 0.917127 -0.338645
vn -0.810654 -0.0012974 0.585525
vn -0.810918 -5.11835e-05 0.58516
vn -0.810918 0 0.58516
vn -0.809616 0.00181822 0.586957
vn -0.809314 0.00224753 0.587372
vn -0.810872 1.10991e-05 0.585224
vn -0.810887 0 0.585203
vn 7.50151e-20 -1 -6.12873e-17
vn 0 -1 -6.12356e-17
vn 7.38573e-21 -1 -6.12425e-17
vn 0.771507 -0 0.636221
vn 0.778018 -0.00134145 0.628241
vn 0.771642 0 0.636057
vn 8.30085e-20 1 6.13006e-17
vn 0.810871 -0.000302508 -0.585225
vn 0.810871 0 -0.585225
vn 0.810871 0 -0.585225
vn 3.47923e-20 1 6.11997e-17
vn -0.532488 0 -0.846437
vn -0.532488 5.18293e-17 -0.846437
vn 0 -1 -6.12323e-17
vn 0 -1 -6.12323e-17
vn 7.0946e-24 -1 -6.12323e-17
vn -7.44783e-20 -1 -6.12956e-17
vn 0 1 0
vn -0.810794 0 0.585332
vn -0.810947 0.000115545 0.585119
vn -0.810871 0 0.585225
vn 0.771691 -0 0.635998
vn -0.532587 0 -0.846375
vn -0.522557 -0.00494101 -0.85259
vn -0.532587 3.92297e-05 -0.846375
vn -0.522567 0 -0.852598
vn 0.689275 0 -0.724499
vn 4.53366e-25 -1 -6.12323e-17
vn 0 -1 -6.12323e-17
vn -5.89653e-21 -1 -6.12417e-17

# Mesh 'defaultobject' with 56 faces
g defaultobject
usemtl DefaultMaterial
f  1//1 2//1 3//1
f  4//2 3//2 5//2
f  3//3 4//3 1//3
f  1//4 4//4 6//4
f  6//5 4//5 7//5
f  8//6 9//6 10//6
f  9//7 8//7 4//7
f  4//8 8//8 7//8
f  7//9 1//9 6//9
f  1//10 7//10 2//10
f  2//11 7//11 11//11
f  11//12 7//12 8//12
f  11//13 8//13 10//13
f  11//14 10//14 12//14
f  12//15 10//15 13//15
f  11//16 12//16 14//16
f  12//16 13//17 15//17
f  15//17 13//17 16//18
f  11//19 3//19 2//19
f  3//20 11//20 5//20
f  5//21 11//21 17//21
f  17//22 11//22 18//22
f  5//23 9//23 4//23
f  9//24 5//24 17//24
f  9//24 17//24 19//25
f  19//26 17//22 20//26
f  19//27 10//27 9//27
f  10//27 19//27 13//28
f  19//29 16//18 13//17
f  16//18 19//29 20//30
f  16//18 20//30 15//17
f  15//17 20//30 12//16
f  12//16 20//30 17//31
f  12//16 17//31 14//16
f  14//16 17//31 11//16
f  11//16 17//31 18//32
f  21//33 22//33 23//33
f  22//33 21//33 24//33
f  22//33 24//33 25//33
f  25//33 24//33 26//33
f  19//34 22//34 25//34
f  22//35 19//35 23//35
f  23//36 19//36 17//36
f  17//31 19//29 20//30
f  17//37 21//37 23//37
f  21//37 17//37 27//37
f  26//38 19//38 25//38
f  19//39 26//39 24//39
f  19//40 24//40 28//40
f  28//41 24//41 29//41
f  27//42 24//42 21//42
f  24//42 27//42 29//42
f  20//30 27//43 17//31
f  27//43 20//30 19//29
f  27//43 19//29 29//44
f  29//44 19//29 28//45

