# {"id":"_43203","idOriginal":"_43203","origin":[14.294246082660633,48.30373503993426],"elevation":260.868}
# Longitude: 14.294246082660633
# Latitude: 48.30373503993426
# Elevation: 260.868

# File produced by Open Asset Import Library (http://www.assimp.sf.net)
# (assimp v3.1.0)

mtllib _43203.obj.mtl

# 17 vertex positions
v  6.742 5.033 -0.808
v  6.662 5.033 0.017
v  6.744 4.956 0.017
v  6.562 5.127 0.016
v  3.599 8.205 -3.257
v  6.737 5.282 -3.478
v  3.628 8.205 -3.558
v  0.355 5.127 -3.643
v  0 5.127 3.13938e-16
v  0.355 2.23069e-16 -3.643
v  0 0 0
v  6.562 -9.79717e-19 0.016
v  6.662 -1.04095e-18 0.017
v  6.744 -1.04095e-18 0.017
v  6.737 2.12966e-16 -3.478
v  6.742 4.94757e-17 -0.808
v  3.628 2.17865e-16 -3.558

# 0 UV coordinates

# 29 vertex normals
vn 0.683031 0.72738 0.0662332
vn 0.683052 0.72736 0.0662353
vn 0.682788 0.727616 0.0661483
vn 0.682589 0.727762 0.0665917
vn 0.682595 0.727831 0.0657651
vn -0.682683 0.727749 -0.0657734
vn -0.682602 0.727757 -0.0665176
vn -0.00167235 0.727717 0.685875
vn -0.995286 0 -0.0969877
vn -0.995286 5.93879e-18 -0.0969877
vn -0.00243827 -6.12322e-17 0.999997
vn -0.00243827 0 0.999997
vn -0.00999945 0 0.99995
vn -0.000183157 -0.000195049 1
vn -0.00999945 0.000165446 0.99995
vn 0 0 1
vn 0.999997 0 -0.00242406
vn 0.999998 9.17815e-05 -0.00186414
vn 0.999998 0 -0.00200285
vn 4.3589e-20 -1 -6.12325e-17
vn 0.0258423 0.000126658 -0.999666
vn 0.0258454 0 -0.999666
vn 0.0259613 -0.000140197 -0.999663
vn 0.0257233 0 -0.999669
vn 0 -1 -6.12323e-17
vn 0 -1 -6.12323e-17
vn 0 -1 -6.12323e-17
vn 6.26649e-24 -1 -6.12323e-17
vn -5.53589e-25 -1 -6.12323e-17

# Mesh 'defaultobject' with 30 faces
g defaultobject
usemtl DefaultMaterial
f  1//1 2//1 3//1
f  2//2 1//2 4//2
f  4//3 1//3 5//3
f  5//4 1//4 6//4
f  5//5 6//5 7//5
f  8//6 5//6 7//6
f  5//7 8//7 9//7
f  5//8 9//8 4//8
f  10//9 9//9 8//9
f  9//9 10//9 11//10
f  11//11 4//11 9//11
f  4//11 11//11 12//12
f  4//13 12//13 2//13
f  2//14 12//14 3//14
f  3//15 12//15 13//15
f  3//16 13//16 14//16
f  14//17 1//17 3//17
f  1//18 14//18 6//18
f  6//19 14//19 15//19
f  15//20 14//20 16//20
f  6//21 8//21 7//21
f  8//22 6//22 10//22
f  10//23 6//23 17//23
f  17//24 6//24 15//24
f  13//25 16//20 14//20
f  16//20 13//25 12//26
f  16//20 12//26 11//27
f  16//20 11//27 15//20
f  15//20 11//27 17//28
f  17//28 11//27 10//29

