# {"id":"_23794","idOriginal":"_23794","origin":[14.315996881339426,48.2939634329532],"elevation":258.369}
# Longitude: 14.315996881339426
# Latitude: 48.2939634329532
# Elevation: 258.369

# File produced by Open Asset Import Library (http://www.assimp.sf.net)
# (assimp v3.1.0)

mtllib _23794.obj.mtl

# 21 vertex positions
v  0.474 10.841 1.329
v  2.008 10.44 -0.716
v  0 10.44 6.39266e-16
v  6.466 10.841 -0.808
v  1.489 10.001 -2.171
v  13.901 9.586 1.228
v  1.957 9.586 5.488
v  10.979 9.579 -7.073
v  13.943 9.577 1.213
v  4.978 10.841 -4.982
v  0.983 10.001 -3.59
v  0 0 0
v  1.957 -3.36043e-16 5.488
v  0.474 -8.13778e-17 1.329
v  0.983 2.19824e-16 -3.59
v  2.008 4.38424e-17 -0.716
v  1.489 1.32935e-16 -2.171
v  13.901 -7.51933e-17 1.228
v  13.943 -7.42748e-17 1.213
v  10.979 4.33096e-16 -7.073
v  4.978 3.0506e-16 -4.982

# 0 UV coordinates

# 33 vertex normals
vn -0.0918145 0.961909 -0.257491
vn -0.0918379 0.961902 -0.257507
vn -0.0918381 0.961913 -0.257467
vn 0.0918443 0.961901 0.257509
vn 0.091844 0.961897 0.257524
vn 0.186349 0.980236 -0.0664225
vn 0.183475 0.980846 -0.0654114
vn 0.183479 0.980845 -0.0654088
vn -0.183444 0.980851 0.0654141
vn -0.183455 0.98085 0.0654002
vn -0.941899 0.000129597 0.335898
vn -0.941905 0 0.33588
vn -0.941905 0 0.33588
vn -2.30816e-19 -1 -6.11661e-17
vn -0.941907 0 0.335874
vn -0.941874 0 0.335967
vn -0.94189 -7.57066e-06 0.335921
vn 0 1 6.12399e-17
vn 0.335937 -0 0.941885
vn 0.336337 0 0.941742
vn 0.336337 0 0.941742
vn 0.941572 0 -0.336811
vn 0.941572 0 -0.336811
vn -0.329039 0 -0.944316
vn -0.329035 2.99876e-06 -0.944318
vn -0.329037 -0 -0.944317
vn 1.71331e-19 -1 -6.06511e-17
vn -0.335861 0 -0.941912
vn -0.335861 5.76755e-17 -0.941912
vn 4.15326e-24 -1 -6.12323e-17
vn 4.05021e-24 -1 -6.12323e-17
vn 0 -1 -6.12323e-17
vn 8.21974e-23 -1 -6.12324e-17

# Mesh 'defaultobject' with 38 faces
g defaultobject
usemtl DefaultMaterial
f  1//1 2//1 3//1
f  2//2 1//2 4//2
f  4//3 5//3 2//3
f  6//4 1//4 7//4
f  1//5 6//5 4//5
f  8//6 6//6 9//6
f  6//7 8//7 4//7
f  4//7 8//7 10//8
f  5//9 10//9 11//9
f  10//10 5//10 4//10
f  3//11 7//11 1//11
f  7//12 3//12 12//12
f  7//12 12//12 13//13
f  13//14 12//14 14//14
f  15//15 5//15 11//15
f  5//16 16//16 2//16
f  16//17 5//17 15//17
f  16//18 15//18 17//18
f  13//19 6//19 7//19
f  6//19 13//19 18//19
f  6//20 18//20 9//20
f  9//20 18//20 19//21
f  9//22 20//22 8//22
f  20//22 9//22 19//23
f  20//24 10//24 8//24
f  10//24 20//24 11//25
f  11//25 20//24 15//26
f  15//27 20//27 21//27
f  16//28 3//28 2//28
f  3//28 16//28 12//29
f  21//27 17//30 15//27
f  17//30 21//27 16//31
f  16//31 14//14 12//14
f  14//14 16//31 13//14
f  13//14 16//31 21//27
f  13//14 21//27 20//27
f  13//14 20//27 18//32
f  18//32 20//27 19//33

