# {"id":"ID_19543","idOriginal":"ID_19543","origin":[14.319147615797469,48.31201101711839],"elevation":253.878,"wof":[{"Id":102049853,"Name":"Linz","Placetype":"county","Offset":-1},{"Id":101748071,"Name":"Linz","Placetype":"locality","Offset":-1},{"Id":85632785,"Name":"Austria","Placetype":"country","Offset":-1},{"Id":85681677,"Name":"Oberösterreich","Placetype":"region","Offset":-1},{"Id":85898449,"Name":"Steeg","Placetype":"neighbourhood","Offset":-1}]}

# Attribution: City of Linz <http://geo.data.linz.gv.at/katalog/geodata/3d_geo_daten_lod2/>
# Longitude: 14.319147615797469
# Latitude: 48.31201101711839
# Elevation: 253.878

# File produced by Open Asset Import Library (http://www.assimp.sf.net)
# (assimp v3.1.0)


# 26 vertex positions
v  16.146 5.308 -10.441
v  26.34 6.022 -8.753
v  24.973 5.314 -13.264
v  17.586 6.029 -5.865
v  17.586 3.59128e-16 -5.865
v  16.146 6.39327e-16 -10.441
v  26.34 5.35967e-16 -8.753
v  24.973 8.12186e-16 -13.264
v  0.842 5.56 2.655
v  17.533 6.094 -5.73
v  0 6.104 3.73762e-16
v  1.079 5.406 3.403
v  18.554 5.406 -2.363
v  17.62 6.094 -5.758
v  26.34 6.115 -8.753
v  17.586 6.115 -5.865
v  24.999 5.406 -4.49
v  27.393 5.406 -5.28
v  1.079 -2.08374e-16 3.403
v  27.393 3.23307e-16 -5.28
v  18.554 1.44692e-16 -2.363
v  24.999 2.74933e-16 -4.49
v  17.62 3.52576e-16 -5.758
v  0 0 0
v  17.533 3.50861e-16 -5.73
v  0.842 -1.62572e-16 2.655

# 0 UV coordinates

# 37 vertex normals
vn -0.0458649 0.988903 -0.141309
vn -0.0458521 0.988893 -0.141382
vn -0.953885 0 0.300174
vn -0.953885 0 0.300174
vn 0.313297 -0 0.949655
vn 0.957023 0 -0.290013
vn 0.957023 0 -0.290013
vn -0.304615 0 -0.952475
vn -3.5918e-24 -1 -6.12323e-17
vn -1.21205e-24 -1 -6.12323e-17
vn 0.0600561 0.981453 0.18205
vn 0.0604721 0.981276 0.182867
vn 0.0601499 0.981402 0.182296
vn 0.0588018 0.981408 0.182706
vn 0.0576051 0.982951 0.17461
vn 0.0602515 0.981394 0.182305
vn 0.0601089 0.981434 0.182135
vn 0.0601025 0.981435 0.182133
vn 0.313341 -0 0.949641
vn 0.313397 -0.000203263 0.949622
vn 0.313371 -7.16564e-05 0.949631
vn 0.313357 0 0.949635
vn -1.18817e-20 1 6.12143e-17
vn 2.73994e-20 -1 -6.11554e-17
vn 0.95698 0 -0.290153
vn -0.313297 0 -0.949655
vn -0.306362 0 -0.951915
vn -0.310644 -6.75005e-05 -0.950526
vn -0.310623 5.82034e-17 -0.950533
vn 0 1 6.12017e-17
vn -0.953042 0 0.30284
vn -0.953213 -1.85105e-17 0.3023
vn -0.953286 0.000121247 0.302069
vn -0.953231 0 0.302244
vn 2.27808e-20 -1 -6.12348e-17
vn -3.32711e-24 -1 -6.12323e-17
vn 2.57275e-23 -1 -6.12323e-17

# Mesh 'defaultobject' with 48 faces
g defaultobject
usemtl DefaultMaterial
f  1//1 2//1 3//1
f  2//2 1//2 4//2
f  1//3 5//3 4//3
f  5//3 1//3 6//4
f  5//5 2//5 4//5
f  2//5 5//5 7//5
f  7//6 3//6 2//6
f  3//6 7//6 8//7
f  8//8 1//8 3//8
f  1//8 8//8 6//8
f  6//9 7//9 5//9
f  7//9 6//9 8//10
f  9//11 10//11 11//11
f  10//12 9//12 12//12
f  10//13 12//13 13//13
f  10//14 13//14 14//14
f  14//15 15//15 16//15
f  15//16 14//16 13//16
f  15//17 13//17 17//17
f  15//17 17//17 18//18
f  19//19 13//19 12//19
f  13//20 19//20 17//20
f  17//21 19//21 18//21
f  18//22 19//22 20//22
f  20//23 19//23 21//23
f  20//24 21//24 22//24
f  18//25 7//25 15//25
f  7//25 18//25 20//25
f  7//26 16//26 15//26
f  16//26 7//26 5//26
f  23//27 10//27 14//27
f  10//28 23//28 11//28
f  11//29 23//29 24//29
f  24//30 23//30 25//30
f  5//31 14//31 16//31
f  14//31 5//31 23//31
f  24//32 9//32 11//32
f  9//33 24//33 12//33
f  12//34 24//34 19//34
f  19//35 24//35 26//35
f  21//24 23//36 22//24
f  23//36 21//24 25//37
f  25//37 21//24 19//35
f  25//37 19//35 26//35
f  25//37 26//35 24//35
f  22//24 7//9 20//24
f  7//9 22//24 5//9
f  5//9 22//24 23//36

