# {"id":"ID_14681","idOriginal":"ID_14681","origin":[14.328420118211865,48.32853629849851],"elevation":256.415,"wof":[{"Id":102049853,"Name":"Linz","Placetype":"county","Offset":-1},{"Id":85632785,"Name":"Austria","Placetype":"country","Offset":-1},{"Id":101758517,"Name":"Plesching","Placetype":"locality","Offset":-1},{"Id":85681677,"Name":"Oberösterreich","Placetype":"region","Offset":-1},{"Id":85898419,"Name":"Furth","Placetype":"neighbourhood","Offset":-1}]}

# Attribution: City of Linz <http://geo.data.linz.gv.at/katalog/geodata/3d_geo_daten_lod2/>
# Longitude: 14.328420118211865
# Latitude: 48.32853629849851
# Elevation: 256.415

# File produced by Open Asset Import Library (http://www.assimp.sf.net)
# (assimp v3.1.0)


# 32 vertex positions
v  5.998 6.862 -3.43
v  9.556 6.909 -5.125
v  7.847 6.74 -4.487
v  14.326 7.382 -6.905
v  4.724 6.947 -2.701
v  0.564 7.222 -0.322
v  16.454 12.975 -1.226
v  0 7.259 4.44486e-16
v  1.927 10.803 3.313
v  3.108 12.975 5.343
v  6.481 6.77 11.144
v  11.116 7.094 8.474
v  13.271 7.162 7.331
v  15.563 7.014 6.381
v  18.833 6.72 5.124
v  18.854 6.665 5.18
v  14.326 4.22809e-16 -6.905
v  7.847 2.7475e-16 -4.487
v  9.556 3.13816e-16 -5.125
v  5.998 2.10027e-16 -3.43
v  0 0 0
v  4.724 1.65389e-16 -2.701
v  0.564 1.97168e-17 -0.322
v  1.927 -2.02863e-16 3.313
v  3.108 -3.27164e-16 5.343
v  6.481 -6.82373e-16 11.144
v  11.116 -5.18883e-16 8.474
v  13.271 -4.48894e-16 7.331
v  15.563 -3.90724e-16 6.381
v  18.854 -3.17184e-16 5.18
v  18.833 -3.13755e-16 5.124
v  16.454 7.50708e-17 -1.226

# 0 UV coordinates

# 55 vertex normals
vn -0.300172 0.73355 -0.609755
vn -0.300432 0.732975 -0.610318
vn -0.300564 0.732614 -0.610686
vn -0.300174 0.733599 -0.609695
vn -0.300242 0.733451 -0.60984
vn -0.300194 0.733284 -0.610064
vn -0.300223 0.733399 -0.609912
vn -0.300233 0.733343 -0.609974
vn 0.300207 0.733399 0.609919
vn 0.300024 0.733538 0.609842
vn 0.300351 0.73335 0.609908
vn 0.300153 0.733441 0.609896
vn 0.300372 0.733374 0.609869
vn 0.300048 0.734408 0.608783
vn -0.349616 0 -0.936893
vn -0.349733 -9.22058e-05 -0.936849
vn -0.349649 -0 -0.936881
vn -3.73059e-20 1 6.11177e-17
vn -0.496291 0 -0.868156
vn -0.496659 -0.000131741 -0.867946
vn -0.496431 4.41378e-06 -0.868076
vn -0.495763 0.000898231 -0.868458
vn -0.496291 0.00014126 -0.868156
vn -0.496419 5.31547e-17 -0.868083
vn -1.94503e-20 -1 -6.12295e-17
vn 1.47967e-21 -1 -6.12286e-17
vn -0.864426 0.00013009 0.502761
vn -0.864441 6.17579e-05 0.502734
vn -0.864442 0 0.502732
vn -0.864412 -0.000113204 0.502784
vn -0.864365 -0.000238364 0.502865
vn -0.864486 0 0.502657
vn 0.499156 0 0.866512
vn 0.468566 0 0.883429
vn 0.468566 0 0.883429
vn 0.382898 -0 0.923791
vn 0.382898 0 0.923791
vn 0.34282 -0 0.939401
vn 0.34282 0 0.939401
vn 0.936329 0 -0.351123
vn 0.936439 2.78838e-06 -0.35083
vn 0.936424 -2.02724e-05 -0.350871
vn 0.936329 -0.000492496 -0.351123
vn 0.936438 4.91531e-05 -0.350833
vn 0.936417 0 -0.350889
vn -1.89507e-22 -1 -6.12327e-17
vn 4.45715e-24 -1 -6.12323e-17
vn -2.55303e-23 -1 -6.12323e-17
vn -1.16718e-23 -1 -6.12323e-17
vn 2.87396e-23 -1 -6.12323e-17
vn 0 -1 -6.12323e-17
vn 5.8716e-24 -1 -6.12323e-17
vn 1.16489e-23 -1 -6.12323e-17
vn -9.60722e-24 -1 -6.12323e-17
vn -1.65689e-23 -1 -6.12323e-17

# Mesh 'defaultobject' with 60 faces
g defaultobject
usemtl DefaultMaterial
f  1//1 2//1 3//1
f  2//2 1//2 4//2
f  4//3 1//3 5//3
f  4//4 5//4 6//4
f  4//5 6//5 7//5
f  7//6 6//6 8//6
f  7//7 8//7 9//7
f  7//8 9//8 10//8
f  11//9 7//9 10//9
f  7//10 11//10 12//10
f  7//11 12//11 13//11
f  7//12 13//12 14//12
f  7//13 14//13 15//13
f  15//14 14//14 16//14
f  17//15 2//15 4//15
f  2//16 17//16 3//16
f  3//17 17//17 18//17
f  18//18 17//18 19//18
f  18//19 1//19 3//19
f  1//20 18//20 5//20
f  5//21 18//21 6//21
f  6//22 18//22 8//22
f  8//23 18//23 20//23
f  8//24 20//24 21//24
f  21//25 20//25 22//25
f  21//25 22//25 23//26
f  9//27 11//27 10//27
f  11//28 9//28 8//28
f  11//29 8//29 21//29
f  11//30 21//30 24//30
f  11//31 24//31 25//31
f  11//32 25//32 26//32
f  11//33 27//33 12//33
f  27//33 11//33 26//33
f  12//34 28//34 13//34
f  28//34 12//34 27//35
f  28//36 14//36 13//36
f  14//36 28//36 29//37
f  29//38 16//38 14//38
f  16//38 29//38 30//39
f  30//40 15//40 16//40
f  15//41 30//41 7//41
f  7//42 30//42 4//42
f  4//43 30//43 31//43
f  4//44 31//44 32//44
f  4//45 32//45 17//45
f  29//46 31//46 30//46
f  31//46 29//46 32//47
f  32//47 29//46 28//48
f  32//47 28//48 17//49
f  17//49 28//48 27//50
f  17//49 27//50 26//51
f  17//49 26//51 19//52
f  19//52 26//51 25//53
f  19//52 25//53 18//54
f  18//54 25//53 20//25
f  20//25 25//53 22//25
f  22//25 25//53 24//55
f  22//25 24//55 23//26
f  23//26 24//55 21//25

