# {"id":"ID_20109","idOriginal":"ID_20109","origin":[14.297785678688761,48.25518219242019],"elevation":264.113}
# Longitude: 14.297785678688761
# Latitude: 48.25518219242019
# Elevation: 264.113

# File produced by Open Asset Import Library (http://www.assimp.sf.net)
# (assimp v3.1.0)

mtllib ID_20109.obj.mtl

# 20 vertex positions
v  4.702 7.785 -1.064
v  11.413 5.265 6.506
v  9.211 5.283 -2.084
v  9.53 6.303 6.883
v  8.567 7.785 14.255
v  11.522 6.13 13.467
v  0.034 5.172 0.167
v  0 5.176 3.16939e-16
v  3.851 5.181 15.221
v  3.91 5.176 15.496
v  9.211 1.27608e-16 -2.084
v  11.413 -3.98378e-16 6.506
v  9.53 -4.21462e-16 6.883
v  11.522 -8.24616e-16 13.467
v  4.702 6.51512e-17 -1.064
v  0 0 0
v  0.034 -1.02258e-17 0.167
v  3.851 -9.32017e-16 15.221
v  3.91 -9.48856e-16 15.496
v  8.567 -8.72867e-16 14.255

# 0 UV coordinates

# 35 vertex normals
vn 0.461617 0.879397 -0.11649
vn 0.461508 0.879471 -0.116369
vn 0.461656 0.879379 -0.116476
vn 0.461487 0.879462 -0.116515
vn -0.461917 0.879422 0.115108
vn -0.461567 0.879429 0.116454
vn -0.461679 0.879359 0.116535
vn -0.461987 0.879386 0.115104
vn 0.968679 0 -0.248316
vn 0.957151 0 -0.289588
vn 0.957151 0 -0.289588
vn -0.220639 0 -0.975355
vn -0.22069 -3.09707e-05 -0.975344
vn -0.220639 6.41674e-05 -0.975356
vn -0.220707 5.97224e-17 -0.97534
vn -0.979898 -1.22159e-17 0.1995
vn -0.979898 0 0.1995
vn -0.969326 0 0.245777
vn -0.969327 0 0.245777
vn -0.977751 0 0.209772
vn -0.97775 0 0.209772
vn 0.257495 -0 0.96628
vn 0.257621 -8.05833e-05 0.966246
vn 0.257495 8.67046e-05 0.96628
vn 0.257663 0 0.966235
vn 0.196316 -0 0.980541
vn 0.196316 0 0.980541
vn 1.5885e-23 -1 -6.12323e-17
vn 2.1266e-24 -1 -6.12323e-17
vn -4.37933e-24 -1 -6.12323e-17
vn 8.61797e-24 -1 -6.12323e-17
vn 8.15648e-25 -1 -6.12323e-17
vn 0 -1 -6.12323e-17
vn 0 -1 -6.12324e-17
vn 0 -1 -6.12347e-17

# Mesh 'defaultobject' with 36 faces
g defaultobject
usemtl DefaultMaterial
f  1//1 2//1 3//1
f  2//2 1//2 4//2
f  4//3 1//3 5//3
f  4//4 5//4 6//4
f  7//5 1//5 8//5
f  1//6 7//6 5//6
f  5//7 7//7 9//7
f  5//8 9//8 10//8
f  2//9 11//9 3//9
f  11//9 2//9 12//9
f  6//10 13//10 4//10
f  13//10 6//10 14//11
f  11//12 1//12 3//12
f  1//13 11//13 8//13
f  8//14 11//14 15//14
f  8//15 15//15 16//15
f  16//16 7//16 8//16
f  7//16 16//16 17//17
f  7//18 18//18 9//18
f  18//18 7//18 17//19
f  18//20 10//20 9//20
f  10//20 18//20 19//21
f  19//22 5//22 10//22
f  5//23 19//23 6//23
f  6//24 19//24 20//24
f  6//25 20//25 14//25
f  13//26 2//26 4//26
f  2//26 13//26 12//27
f  18//28 20//28 19//28
f  20//28 18//28 17//29
f  20//28 17//29 14//30
f  14//30 17//29 13//31
f  13//31 17//29 12//32
f  12//32 17//29 11//33
f  11//33 17//29 16//34
f  11//33 16//34 15//35

