# {"id":"ID_26266","idOriginal":"ID_26266","origin":[14.288503081931234,48.32011988413116],"elevation":259.407,"wof":[{"Id":85681677,"Name":"Oberösterreich","Placetype":"region","Offset":-1},{"Id":85898449,"Name":"Steeg","Placetype":"neighbourhood","Offset":-1},{"Id":102049853,"Name":"Linz","Placetype":"county","Offset":-1},{"Id":85632785,"Name":"Austria","Placetype":"country","Offset":-1},{"Id":101748071,"Name":"Linz","Placetype":"locality","Offset":-1}]}

# Attribution: City of Linz <http://geo.data.linz.gv.at/katalog/geodata/3d_geo_daten_lod2/>
# Longitude: 14.288503081931234
# Latitude: 48.32011988413116
# Elevation: 259.407

# File produced by Open Asset Import Library (http://www.assimp.sf.net)
# (assimp v3.1.0)


# 20 vertex positions
v  2.543 19.258 -2.951
v  8.877 18.52 7.341
v  11.37 19.258 4.349
v  0 18.52 1.13402e-15
v  4.539 18.679 -5.267
v  12.342 18.524 0.127
v  5.102 18.515 -5.921
v  13.322 18.68 2.006
v  13.843 18.526 1.381
v  13.336 18.676 1.99
v  5.102 3.62557e-16 -5.921
v  0 0 0
v  4.539 3.22511e-16 -5.267
v  2.543 1.80697e-16 -2.951
v  8.877 -4.49507e-16 7.341
v  13.322 -1.22832e-16 2.006
v  11.37 -2.66299e-16 4.349
v  13.336 -1.21852e-16 1.99
v  13.843 -8.45619e-17 1.381
v  12.342 -7.77651e-18 0.127

# 0 UV coordinates

# 32 vertex normals
vn -0.118657 0.982515 0.143477
vn -0.118645 0.982517 0.14347
vn 0.118999 0.982409 -0.143915
vn 0.118637 0.98253 -0.143387
vn 0.118668 0.982511 -0.143491
vn 0.118705 0.982508 -0.143482
vn 0.118456 0.982557 -0.143356
vn 0.0848275 0.981586 -0.171155
vn -0.757864 0 -0.652413
vn -0.757496 2.60571e-05 -0.65284
vn -0.757534 1.41251e-05 -0.652795
vn -0.757556 3.99706e-17 -0.65277
vn -6.65203e-20 -1 -6.12984e-17
vn 0 1 6.11667e-17
vn -0.637285 -4.71874e-17 0.770628
vn -0.637285 0 0.770628
vn 0.768263 -0 0.640134
vn 0.7683 -1.17372e-05 0.640089
vn 0.76828 0 0.640114
vn -1.4803e-19 1 6.11363e-17
vn 0.752557 -0 0.658528
vn 0.752557 0 0.658528
vn 0.768532 -0 0.639812
vn 0.641139 0 -0.767425
vn 0.641102 -5.20577e-06 -0.767456
vn 0.641108 0 -0.767451
vn 0 1 6.10855e-17
vn -4.71998e-24 -1 -6.12323e-17
vn 0 -1 -6.12323e-17
vn 2.77999e-23 -1 -6.12323e-17
vn 0 -1 -6.12323e-17
vn 9.85269e-21 -1 -6.12242e-17

# Mesh 'defaultobject' with 36 faces
g defaultobject
usemtl DefaultMaterial
f  1//1 2//1 3//1
f  2//2 1//2 4//2
f  5//3 6//3 7//3
f  6//4 5//4 1//4
f  6//5 1//5 3//5
f  6//6 3//6 8//6
f  6//7 8//7 9//7
f  9//8 8//8 10//8
f  11//9 5//9 7//9
f  5//10 11//10 1//10
f  1//11 11//11 4//11
f  4//12 11//12 12//12
f  12//13 11//13 13//13
f  12//14 13//14 14//14
f  12//15 2//15 4//15
f  2//15 12//15 15//16
f  15//17 3//17 2//17
f  3//18 15//18 8//18
f  8//19 15//19 16//19
f  16//20 15//20 17//20
f  16//21 10//21 8//21
f  10//21 16//21 18//22
f  18//23 9//23 10//23
f  9//23 18//23 19//23
f  19//24 6//24 9//24
f  6//25 19//25 7//25
f  7//25 19//25 11//26
f  11//27 19//27 20//27
f  14//28 15//28 12//13
f  15//28 14//28 13//13
f  15//28 13//13 11//13
f  15//28 11//13 20//29
f  15//28 20//29 17//30
f  17//30 20//29 16//31
f  16//31 20//29 19//31
f  16//31 19//31 18//32

