# {"id":"ID_31399","idOriginal":"ID_31399","origin":[14.297208005206263,48.331217820885016],"elevation":260.696}
# Longitude: 14.297208005206263
# Latitude: 48.331217820885016
# Elevation: 260.696

# File produced by Open Asset Import Library (http://www.assimp.sf.net)
# (assimp v3.1.0)

mtllib ID_31399.obj.mtl

# 15 vertex positions
v  0.01 3.17 0.027
v  3.666 5.472 -1.33
v  0 3.17 1.94107e-16
v  5.01 5.472 2.328
v  1.352 5.472 3.678
v  10.012 3.17 4.628
v  2.693 3.17 7.328
v  7.325 3.174 -2.657
v  7.325 1.62694e-16 -2.657
v  3.666 8.1439e-17 -1.33
v  0 0 0
v  0.01 -1.65327e-18 0.027
v  1.352 -2.25213e-16 3.678
v  2.693 -4.48711e-16 7.328
v  10.012 -2.83383e-16 4.628

# 0 UV coordinates

# 24 vertex normals
vn -0.476695 0.861156 0.176554
vn -0.477155 0.861155 0.175313
vn -0.176333 0.86059 -0.477798
vn 0.176313 0.860517 0.477938
vn 0.176342 0.860576 0.47782
vn 0.477021 0.861197 -0.175472
vn 0.477224 0.861112 -0.175339
vn -0.340938 0 -0.940086
vn -0.341012 -5.57105e-05 -0.940059
vn -0.340938 0.000136888 -0.940086
vn -0.341043 5.75613e-17 -0.940048
vn -0.937749 -2.12669e-17 0.347314
vn -0.938606 2.25037e-05 0.34499
vn -0.938637 8.58814e-05 0.344907
vn -0.93773 -0.00624819 0.347308
vn -0.938602 -0.000187243 0.345002
vn -0.938654 0 0.344859
vn 0.346103 -0 0.938196
vn 0.938216 0 -0.346051
vn -5.8936e-23 -1 -6.12327e-17
vn -1.74497e-24 -1 -6.12323e-17
vn 0 -1 -6.12323e-17
vn 6.98949e-24 -1 -6.12323e-17
vn 1.74794e-24 -1 -6.12323e-17

# Mesh 'defaultobject' with 26 faces
g defaultobject
usemtl DefaultMaterial
f  1//1 2//1 3//1
f  2//2 1//2 4//2
f  4//3 1//3 5//3
f  6//4 5//4 7//4
f  5//5 6//5 4//5
f  8//6 4//6 6//6
f  4//7 8//7 2//7
f  9//8 2//8 8//8
f  2//9 9//9 3//9
f  3//10 9//10 10//10
f  3//11 10//11 11//11
f  11//12 1//12 3//12
f  1//13 11//13 5//13
f  5//14 11//14 7//14
f  7//15 11//15 12//15
f  7//16 12//16 13//16
f  7//17 13//17 14//17
f  14//18 6//18 7//18
f  6//18 14//18 15//18
f  6//19 9//19 8//19
f  9//19 6//19 15//19
f  10//20 12//20 11//20
f  12//20 10//20 13//21
f  13//21 10//20 9//22
f  13//21 9//22 14//23
f  14//23 9//22 15//24

