# {"id":"ID_26705","idOriginal":"ID_26705","origin":[14.369763039929333,48.24343909338689],"elevation":254.647,"wof":[{"Id":102049853,"Name":"Linz","Placetype":"county","Offset":-1},{"Id":101748071,"Name":"Linz","Placetype":"locality","Offset":-1},{"Id":85632785,"Name":"Austria","Placetype":"country","Offset":-1},{"Id":85681677,"Name":"Oberösterreich","Placetype":"region","Offset":-1},{"Id":85898441,"Name":"Posch","Placetype":"neighbourhood","Offset":-1}]}

# Attribution: City of Linz <http://geo.data.linz.gv.at/katalog/geodata/3d_geo_daten_lod2/>
# Longitude: 14.369763039929333
# Latitude: 48.24343909338689
# Elevation: 254.647

# File produced by Open Asset Import Library (http://www.assimp.sf.net)
# (assimp v3.1.0)


# 20 vertex positions
v  3.902 7.049 -1.729
v  11.836 6.076 5.642
v  7.804 6.076 -3.458
v  8.006 7.049 7.534
v  11.912 6.091 5.977
v  0 6.076 3.72048e-16
v  3.05 6.076 6.885
v  3.508 6.053 8.164
v  3.872 6.035 9.182
v  3.946 6.053 9.153
v  0 0 0
v  3.05 -4.21585e-16 6.885
v  3.872 -5.62235e-16 9.182
v  3.508 -4.99901e-16 8.164
v  3.946 -5.6046e-16 9.153
v  8.006 -4.61324e-16 7.534
v  11.912 -3.65986e-16 5.977
v  11.836 -3.45473e-16 5.642
v  7.804 2.11741e-16 -3.458
v  3.902 1.05871e-16 -1.729

# 0 UV coordinates

# 31 vertex normals
vn 0.203222 0.974984 -0.0900432
vn 0.203215 0.974986 -0.0900351
vn 0.203338 0.974983 -0.0897855
vn -0.203224 0.974983 0.0900391
vn -0.203205 0.974989 0.0900184
vn -0.203237 0.974956 0.0903103
vn -0.203295 0.974979 0.0899304
vn -0.118679 0.95053 0.287068
vn -0.914304 -2.48009e-17 0.405029
vn -0.914304 0 0.405029
vn -0.941458 0 0.337129
vn -0.941616 0.0001048 0.336689
vn -0.941528 0 0.336934
vn 1.92263e-20 -1 -6.12358e-17
vn 0.364876 -0 0.931056
vn 0.370421 -7.82876e-05 0.928864
vn 0.370286 1.33472e-05 0.928918
vn 0.36486 0.00827741 0.931026
vn 0.370404 -8.9983e-05 0.928871
vn 0.370283 0 0.928919
vn 0.975219 0 -0.221242
vn 0.975219 0 -0.221242
vn 0.914275 0 -0.405094
vn -0.405116 0 -0.914265
vn -0.405116 0 -0.914265
vn -7.70471e-23 -1 -6.12323e-17
vn -1.12054e-23 -1 -6.12324e-17
vn -1.15292e-23 -1 -6.12323e-17
vn 5.05472e-24 -1 -6.12323e-17
vn 0 -1 -6.12323e-17
vn 0 -1 -6.12323e-17

# Mesh 'defaultobject' with 36 faces
g defaultobject
usemtl DefaultMaterial
f  1//1 2//1 3//1
f  2//2 1//2 4//2
f  2//3 4//3 5//3
f  6//4 4//4 1//4
f  4//5 6//5 7//5
f  4//6 7//6 8//6
f  4//7 8//7 9//7
f  4//8 9//8 10//8
f  11//9 7//9 6//9
f  7//9 11//9 12//10
f  12//11 8//11 7//11
f  8//12 12//12 9//12
f  9//13 12//13 13//13
f  13//14 12//14 14//14
f  13//15 10//15 9//15
f  10//16 13//16 4//16
f  4//17 13//17 5//17
f  5//18 13//18 15//18
f  5//19 15//19 16//19
f  5//20 16//20 17//20
f  17//21 2//21 5//21
f  2//21 17//21 18//22
f  18//23 3//23 2//23
f  3//23 18//23 19//23
f  1//24 11//24 6//24
f  11//24 1//24 3//25
f  11//24 3//25 19//24
f  11//24 19//23 20//12
f  14//14 15//26 13//14
f  15//26 14//14 16//27
f  16//27 14//14 12//14
f  16//27 12//14 11//28
f  16//27 11//28 17//29
f  17//29 11//28 18//30
f  18//30 11//28 20//12
f  18//30 20//12 19//31

