# {"id":"ID_16088","idOriginal":"ID_16088","origin":[14.27973460629316,48.310149307937664],"elevation":262.784}
# Longitude: 14.27973460629316
# Latitude: 48.310149307937664
# Elevation: 262.784

# File produced by Open Asset Import Library (http://www.assimp.sf.net)
# (assimp v3.1.0)

mtllib ID_16088.obj.mtl

# 30 vertex positions
v  10.81 6.607 10.181
v  10.386 7.324 9.388
v  9.125 6.603 11.19
v  6.608 7.549 11.309
v  14.849 12.31 -0.535
v  3.579 12.31 6.172
v  6.774 7.327 11.533
v  8.583 7.339 10.439
v  12.293 7.304 8.283
v  17.87 7.399 4.826
v  11.222 6.615 -6.678
v  13.903 10.772 -2.214
v  11.346 6.615 -6.752
v  0 6.615 4.05052e-16
v  0.076 6.804 0.231
v  8.583 -6.39204e-16 10.439
v  6.774 -7.06193e-16 11.533
v  10.81 -6.23406e-16 10.181
v  9.125 -6.8519e-16 11.19
v  10.386 -5.74849e-16 9.388
v  12.293 -5.07187e-16 8.283
v  17.87 -2.95507e-16 4.826
v  6.608 -6.92477e-16 11.309
v  0.076 -1.41447e-17 0.231
v  3.579 -3.77926e-16 6.172
v  14.849 3.27593e-17 -0.535
v  13.903 1.35568e-16 -2.214
v  11.346 4.13441e-16 -6.752
v  0 0 0
v  11.222 4.0891e-16 -6.678

# 0 UV coordinates

# 51 vertex normals
vn 0.319125 0.781559 0.536027
vn 0.319075 0.781494 0.536152
vn 0.320106 0.780777 0.536582
vn 0.319073 0.781476 0.536179
vn 0.318709 0.781698 0.536072
vn 0.319787 0.781097 0.536305
vn 0.318858 0.781592 0.536137
vn 0.319025 0.78152 0.536144
vn -0.319719 0.781509 -0.535745
vn -0.319872 0.781509 -0.535654
vn -0.319048 0.781511 -0.536142
vn -0.319053 0.781527 -0.536116
vn -0.325619 0.781464 -0.532247
vn 0.517484 0 0.855693
vn 0.517484 0 0.855693
vn 0.513747 0 0.857942
vn 0.513747 0 0.857942
vn 0.501358 -0 0.86524
vn 0.501358 0 0.86524
vn 0.526858 0 0.849953
vn 0.526858 0 0.849953
vn -0.810878 0 0.585215
vn -0.803429 0 0.5954
vn -0.803429 0 0.5954
vn -0.861408 0 0.507913
vn -0.861405 -3.53655e-06 0.507919
vn -0.861408 7.25363e-06 0.507913
vn -0.861404 0 0.507921
vn 0.881859 0 -0.471512
vn 0.871198 0 -0.490932
vn 0.87122 2.27157e-05 -0.490893
vn 0.871212 1.08018e-05 -0.490907
vn 0.871198 -4.86372e-05 -0.490932
vn 0.871229 1.98991e-05 -0.490877
vn 0.871216 0 -0.490899
vn -0.512458 0 -0.858712
vn -0.511384 2.72903e-05 -0.859352
vn -0.511396 5.26197e-17 -0.859345
vn 0 -1 -6.14395e-17
vn -0.94991 0 0.312524
vn -0.94991 0 0.312524
vn -5.47707e-24 -1 -6.12324e-17
vn 0 -1 -6.12323e-17
vn -5.20289e-25 -1 -6.12323e-17
vn 0 -1 -6.12323e-17
vn 1.7594e-24 -1 -6.12323e-17
vn 1.18145e-24 -1 -6.12323e-17
vn 2.52711e-24 -1 -6.12323e-17
vn 5.81555e-24 -1 -6.12323e-17
vn 4.19717e-24 -1 -6.12323e-17
vn -2.39632e-23 -1 -6.12324e-17

# Mesh 'defaultobject' with 56 faces
g defaultobject
usemtl DefaultMaterial
f  1//1 2//1 3//1
f  4//2 5//2 6//2
f  5//3 4//3 7//3
f  5//4 7//4 8//4
f  5//5 8//5 3//5
f  5//6 3//6 2//6
f  5//7 2//7 9//7
f  5//8 9//8 10//8
f  11//9 12//9 13//9
f  12//10 11//10 5//10
f  5//11 11//11 14//11
f  5//12 14//12 6//12
f  6//13 14//13 15//13
f  7//14 16//14 8//14
f  16//14 7//14 17//15
f  3//16 18//16 1//16
f  18//16 3//16 19//17
f  20//18 9//18 2//18
f  9//18 20//18 21//19
f  9//20 22//20 10//20
f  22//20 9//20 21//21
f  16//22 3//22 8//22
f  3//22 16//22 19//22
f  23//23 7//23 4//23
f  7//23 23//23 17//24
f  24//25 6//25 15//25
f  6//25 24//25 4//26
f  4//27 24//25 25//27
f  4//26 25//28 23//28
f  1//29 20//29 2//29
f  20//29 1//29 18//29
f  22//30 5//30 10//30
f  5//31 22//31 12//31
f  12//32 22//32 13//32
f  13//33 22//33 26//33
f  13//34 26//34 27//34
f  13//35 27//35 28//35
f  28//36 11//36 13//36
f  11//37 28//37 14//37
f  14//38 28//38 29//38
f  29//39 28//39 30//39
f  14//40 24//40 15//40
f  24//40 14//40 29//41
f  19//42 16//42 18//42
f  27//43 30//39 28//39
f  30//39 27//43 29//39
f  29//39 27//43 26//44
f  29//39 26//44 22//45
f  29//39 22//45 24//46
f  24//46 22//45 25//47
f  25//47 22//45 21//48
f  25//47 21//48 20//49
f  25//47 20//49 23//50
f  23//50 20//49 16//42
f  16//42 20//49 18//42
f  23//50 16//42 17//51

