# File produced by Open Asset Import Library (http://www.assimp.sf.net)
# (assimp v3.1.0)

mtllib ID_12327.obj.mtl

# 44 vertex positions
v  13.98 7.47 0.397
v  0.063 7.785 -0.472
v  0.052 7.483 0.001
v  0.163 7.785 -0.469
v  0.257 9.201 -2.689
v  0.399 11.311 -5.998
v  14.034 8.433 -1.114
v  20.508 11.311 -5.458
v  20.381 8.447 -0.965
v  20.677 7.5 -11.436
v  13.492 7.477 -11.665
v  13.361 8.333 -10.325
v  8.172 8.506 -10.192
v  8.236 8.316 -10.489
v  5.335 8.467 -10.33
v  0.761 10.597 -7.109
v  1.037 8.318 -10.68
v  0.636 8.33 -10.671
v  0.447 10.597 -7.117
v  5.361 8.297 -10.597
v  1.037 6.53961e-16 -10.68
v  5.361 6.48879e-16 -10.597
v  0.636 6.5341e-16 -10.671
v  0.761 4.35301e-16 -7.109
v  0.447 4.35791e-16 -7.117
v  0.163 2.8718e-17 -0.469
v  0.004 7.785 -0.473
v  0.004 2.89629e-17 -0.473
v  0.063 2.89017e-17 -0.472
v  20.677 7.00253e-16 -11.436
v  13.492 7.14275e-16 -11.665
v  13.361 6.32224e-16 -10.325
v  8.236 6.42266e-16 -10.489
v  8.172 6.2408e-16 -10.192
v  5.335 6.3253e-16 -10.33
v  0.257 1.64654e-16 -2.689
v  0.399 3.67272e-16 -5.998
v  0 7.484 4.58263e-16
v  0 0 0
v  13.98 -2.43092e-17 0.397
v  0.052 -6.12323e-20 0.001
v  20.381 5.90892e-17 -0.965
v  14.034 6.82128e-17 -1.114
v  20.508 3.34206e-16 -5.458

# 0 UV coordinates

# 68 vertex normals
vn -0.0145053 0.842918 0.537847
vn -0.0171631 0.820001 0.572105
vn -0.0144488 0.843287 0.537269
vn -0.0144138 0.843361 0.537154
vn -0.0143347 0.843439 0.537034
vn -0.0144263 0.84332 0.537219
vn -0.0144706 0.843349 0.537172
vn 0.0144225 0.843323 -0.537214
vn 0.0144996 0.843282 -0.537276
vn 0.0144257 0.843333 -0.537198
vn 0.014339 0.843219 -0.53738
vn 0.0143738 0.843691 -0.536637
vn 0.0145336 0.843377 -0.537125
vn 0.014351 0.843286 -0.537273
vn 0.0145019 0.84338 -0.537122
vn 0.0131796 0.843349 -0.537204
vn 0.0136923 0.843197 -0.537431
vn 0.0143885 0.844078 -0.536027
vn 0.0191917 0 -0.999816
vn 0.0191917 0 -0.999816
vn -0.0224402 0 -0.999748
vn 0.0254691 0 -0.999676
vn 0.0299864 0 -0.99955
vn 0.0169465 -0.000167619 -0.999856
vn 0.0251491 0 -0.999684
vn 1.09497e-22 1 6.12288e-17
vn 0.0318558 0 -0.999492
vn 0.0318558 0 -0.999492
vn 0.0319837 0 -0.999488
vn 0.0319837 0 -0.999488
vn 0.0485853 0 -0.998819
vn -0.999385 0 0.0350711
vn -0.999081 1.39492e-05 -0.0428649
vn -0.999081 0 -0.0428693
vn -0.999099 -0.00020838 -0.0424371
vn -0.999081 0.000161373 -0.0428693
vn -0.999105 -0 -0.0423044
vn 0 -1 -6.11776e-17
vn -0.999964 0 -0.00845636
vn -0.999964 5.17803e-19 -0.00845636
vn -0.995255 0 -0.097297
vn -0.995255 0 -0.097297
vn -0.977561 0 -0.210653
vn -0.0192272 -6.1221e-17 0.999815
vn -0.0284204 6.39135e-05 0.999596
vn -0.0283863 0 0.999597
vn -1.24122e-22 -1 -6.12307e-17
vn -0.0234692 0 0.999725
vn -0.0234692 0 0.999725
vn 0.999362 0 0.0357157
vn 0.999601 3.5146e-06 0.0282569
vn 0.999601 0 0.0282572
vn 3.51754e-18 -1 -6.12271e-17
vn 0.995292 -0 0.0969198
vn 0.995292 0 0.0969199
vn 0 -1 -6.12323e-17
vn -4.08678e-25 -1 -6.12323e-17
vn 7.66329e-24 -1 -6.12323e-17
vn 6.74646e-24 -1 -6.12324e-17
vn -6.82935e-24 -1 -6.12323e-17
vn -1.15897e-22 -1 -6.12324e-17
vn 0 -1 -6.12325e-17
vn -4.91506e-24 -1 -6.12323e-17
vn -5.02429e-23 -1 -6.12323e-17
vn 2.54494e-23 -1 -6.12323e-17
vn 1.03773e-23 -1 -6.12323e-17
vn -9.46102e-23 -1 -6.12323e-17
vn 6.99474e-25 -1 -6.12323e-17

# Mesh 'defaultobject' with 82 faces
g defaultobject
usemtl DefaultMaterial
f  1//1 2//1 3//1
f  2//2 1//2 4//2
f  4//3 1//3 5//3
f  5//4 1//4 6//4
f  6//5 1//5 7//5
f  6//6 7//6 8//6
f  8//7 7//7 9//7
f  10//8 11//8 8//8
f  12//9 8//9 11//9
f  6//10 8//10 12//10
f  13//11 6//11 12//11
f  14//12 13//12 12//12
f  15//13 6//13 13//13
f  16//14 6//14 15//14
f  17//15 16//15 15//15
f  18//16 16//16 17//16
f  19//17 6//17 16//17
f  15//18 20//18 17//18
f  20//19 21//19 17//19
f  21//19 20//19 22//20
f  17//21 23//21 18//21
f  23//21 17//21 21//21
f  24//22 19//22 16//22
f  19//22 24//22 25//22
f  26//23 2//23 4//23
f  2//24 26//24 27//24
f  27//25 26//25 28//25
f  28//26 26//26 29//26
f  30//27 11//27 10//27
f  11//27 30//27 31//28
f  32//29 14//29 12//29
f  14//29 32//29 33//30
f  34//31 15//31 13//31
f  15//31 34//31 35//31
f  18//32 24//32 16//32
f  24//32 18//32 23//32
f  19//33 5//33 6//33
f  5//34 19//34 25//34
f  5//35 25//35 4//35
f  4//36 25//36 36//36
f  4//37 36//37 26//37
f  36//38 25//38 37//38
f  28//39 38//39 27//39
f  38//39 28//39 39//40
f  11//41 32//41 12//41
f  32//41 11//41 31//42
f  14//43 34//43 13//43
f  34//43 14//43 33//43
f  39//44 3//44 38//44
f  3//45 39//45 1//45
f  1//46 39//46 40//46
f  40//47 39//47 41//47
f  7//48 42//48 9//48
f  42//48 7//48 43//49
f  1//50 43//50 7//50
f  43//50 1//50 40//50
f  9//51 10//51 8//51
f  10//51 9//51 42//52
f  10//51 42//52 30//52
f  30//53 42//53 44//53
f  35//54 20//54 15//54
f  20//54 35//54 22//55
f  41//47 43//56 40//47
f  43//56 41//47 32//57
f  32//57 41//47 34//58
f  32//57 34//58 33//59
f  34//58 41//47 35//60
f  35//60 41//47 22//61
f  22//61 41//47 26//62
f  26//62 41//47 29//63
f  29//63 41//47 39//47
f  29//63 39//47 28//64
f  37//38 24//65 36//38
f  24//65 37//38 25//38
f  22//61 24//65 21//66
f  24//65 22//61 26//62
f  24//65 26//62 36//38
f  21//66 24//65 23//67
f  43//56 44//53 42//53
f  44//53 43//56 30//53
f  30//53 43//56 31//68
f  31//68 43//56 32//57

