# File produced by Open Asset Import Library (http://www.assimp.sf.net)
# (assimp v3.1.0)

mtllib ID_12062.obj.mtl

# 18 vertex positions
v  6.672 12.547 -0.861
v  15.55 12.547 12.633
v  15.374 12.547 -1.093
v  6.539 12.547 -0.855
v  0.068 12.547 -0.577
v  0 12.547 7.68282e-16
v  8.919 12.547 12.867
v  0.188 12.547 13.676
v  8.831 12.547 13.539
v  0.068 3.53311e-17 -0.577
v  0 0 0
v  0.188 -8.37414e-16 13.676
v  8.831 -8.29025e-16 13.539
v  8.919 -7.87877e-16 12.867
v  15.55 -7.73548e-16 12.633
v  15.374 6.69269e-17 -1.093
v  6.539 5.23537e-17 -0.855
v  6.672 5.2721e-17 -0.861

# 0 UV coordinates

# 20 vertex normals
vn -0 1 0
vn -0.993127 0 -0.117041
vn -0.993127 7.16669e-18 -0.117041
vn -0.999905 -8.41664e-19 0.0137454
vn -0.999905 0 0.0137454
vn 0.015849 -0 0.999874
vn 0.0352667 -0 0.999378
vn 0.991535 -0 0.129843
vn 0.999918 0 -0.0128214
vn -0.0429213 0 -0.999078
vn -0.0450669 0.00110864 -0.998983
vn -0.0429213 -2.27882e-05 -0.999078
vn -0.0450668 0 -0.998984
vn -0.0266511 0 -0.999645
vn -4.92366e-24 -1 -6.12324e-17
vn 1.33718e-23 -1 -6.12323e-17
vn -5.03084e-25 -1 -6.12323e-17
vn -2.783e-25 -1 -6.12323e-17
vn -2.67236e-23 -1 -6.12325e-17
vn 0 -1 -6.12323e-17

# Mesh 'defaultobject' with 32 faces
g defaultobject
usemtl DefaultMaterial
f  1//1 2//1 3//1
f  2//1 1//1 4//1
f  2//1 4//1 5//1
f  2//1 5//1 6//1
f  2//1 6//1 7//1
f  7//1 6//1 8//1
f  7//1 8//1 9//1
f  10//2 6//2 5//2
f  6//2 10//2 11//3
f  11//4 8//4 6//4
f  8//4 11//4 12//5
f  12//6 9//6 8//6
f  9//6 12//6 13//6
f  14//7 2//7 7//7
f  2//7 14//7 15//7
f  13//8 7//8 9//8
f  7//8 13//8 14//8
f  15//9 3//9 2//9
f  3//9 15//9 16//9
f  4//10 10//10 5//10
f  10//11 4//11 1//11
f  10//12 1//12 17//12
f  17//13 1//13 18//13
f  16//14 1//14 3//14
f  1//14 16//14 18//14
f  12//15 14//15 13//15
f  14//15 16//16 15//16
f  16//16 14//15 12//15
f  16//16 12//15 11//17
f  16//16 11//17 18//18
f  18//18 11//17 17//19
f  17//19 11//17 10//20

