# File produced by Open Asset Import Library (http://www.assimp.sf.net)
# (assimp v3.1.0)

mtllib ID_55737.obj.mtl

# 10 vertex positions
v  1.153 6.095 0.209
v  0.171 6.095 -0.975
v  0 6.095 3.73211e-16
v  2.073 6.095 -5.742
v  0.943 6.095 -5.832
v  0.943 3.57107e-16 -5.832
v  0 0 0
v  0.171 5.97015e-17 -0.975
v  1.153 -1.27976e-17 0.209
v  2.073 3.51596e-16 -5.742

# 0 UV coordinates

# 11 vertex normals
vn 0 1 0
vn -0.987603 0 -0.156975
vn -0.984884 0.0129017 -0.172734
vn -0.987178 9.77396e-18 -0.159621
vn 0 -1 -6.12325e-17
vn -0.17836 -6.02505e-17 0.983965
vn -0.17836 0 0.983965
vn 0.98826 -0 0.152781
vn 0.0793943 0 -0.996843
vn 5.70512e-24 -1 -6.12323e-17
vn -3.81785e-24 -1 -6.12323e-17

# Mesh 'defaultobject' with 16 faces
g defaultobject
usemtl DefaultMaterial
f  1//1 2//1 3//1
f  2//1 1//1 4//1
f  2//1 4//1 5//1
f  6//2 2//2 5//2
f  2//3 6//3 3//3
f  3//4 6//4 7//4
f  7//5 6//5 8//5
f  7//6 1//6 3//6
f  1//6 7//6 9//7
f  9//8 4//8 1//8
f  4//8 9//8 10//8
f  10//9 5//9 4//9
f  5//9 10//9 6//9
f  8//5 9//10 7//5
f  9//10 8//5 10//11
f  10//11 8//5 6//5

