# {"id":"ID_32834","idOriginal":"ID_32834","origin":[14.29968965885057,48.326882629070994],"elevation":259.193,"wof":[{"Id":85681677,"Name":"Oberösterreich","Placetype":"region","Offset":-1},{"Id":85898449,"Name":"Steeg","Placetype":"neighbourhood","Offset":-1},{"Id":102049853,"Name":"Linz","Placetype":"county","Offset":-1},{"Id":101748071,"Name":"Linz","Placetype":"locality","Offset":-1},{"Id":85632785,"Name":"Austria","Placetype":"country","Offset":-1}]}

# Attribution: City of Linz <http://geo.data.linz.gv.at/katalog/geodata/3d_geo_daten_lod2/>
# Longitude: 14.29968965885057
# Latitude: 48.326882629070994
# Elevation: 259.193

# File produced by Open Asset Import Library (http://www.assimp.sf.net)
# (assimp v3.1.0)


# 18 vertex positions
v  4.359 4.466 -1.899
v  9.376 3.205 2.785
v  6.859 3.205 -2.989
v  9.708 3.205 3.548
v  6.742 4.703 4.855
v  3.43 4.934 -1.494
v  6.285 4.934 5.057
v  2.862 3.205 6.566
v  0 3.205 1.9625e-16
v  6.859 1.83023e-16 -2.989
v  4.359 1.1628e-16 -1.899
v  3.43 9.14811e-17 -1.494
v  0 0 0
v  2.862 -4.02052e-16 6.566
v  6.285 -3.09652e-16 5.057
v  6.742 -2.97283e-16 4.855
v  9.708 -2.17252e-16 3.548
v  9.376 -1.70532e-16 2.785

# 0 UV coordinates

# 32 vertex normals
vn 0.384712 0.907674 -0.167704
vn 0.384335 0.90792 -0.167234
vn 0.384623 0.907738 -0.167559
vn 0.384349 0.907872 -0.167466
vn 0.384702 0.907687 -0.167657
vn -0.384567 0.90775 0.167626
vn -0.384613 0.907732 0.167619
vn -0.399664 0 -0.916662
vn -0.399613 3.3969e-05 -0.916684
vn -0.399416 0.000197548 -0.91677
vn -0.399664 -0.00043598 -0.916662
vn -0.399628 -0.000376703 -0.916677
vn -0.399332 5.61382e-17 -0.916806
vn -0.916701 -2.44668e-17 0.399573
vn -0.916701 0 0.399573
vn 0.403383 -0 0.915031
vn 0.403383 0 0.915031
vn 0.404281 0 0.914635
vn 0.403294 0.000114622 0.915071
vn 0.40428 -0.00114461 0.914634
vn 0.403245 0 0.915092
vn 0.916955 0 -0.39899
vn 0.916689 -0.000173563 -0.399603
vn 0.91672 0 -0.399531
vn -6.04367e-20 1 6.12224e-17
vn 0 -1 -6.12323e-17
vn 0 -1 -6.12323e-17
vn -2.16846e-23 -1 -6.12323e-17
vn 8.9864e-24 -1 -6.12323e-17
vn 0 -1 -6.12323e-17
vn 8.79295e-23 -1 -6.12322e-17
vn -1.96292e-23 -1 -6.12324e-17

# Mesh 'defaultobject' with 32 faces
g defaultobject
usemtl DefaultMaterial
f  1//1 2//1 3//1
f  2//2 1//2 4//2
f  4//3 1//3 5//3
f  5//4 1//4 6//4
f  5//5 6//5 7//5
f  8//6 6//6 9//6
f  6//7 8//7 7//7
f  10//8 1//8 3//8
f  1//9 10//9 6//9
f  6//10 10//10 9//10
f  9//11 10//11 11//11
f  9//12 11//12 12//12
f  9//13 12//13 13//13
f  13//14 8//14 9//14
f  8//14 13//14 14//15
f  14//16 7//16 8//16
f  7//16 14//16 15//17
f  7//18 15//18 5//18
f  5//19 15//19 4//19
f  4//20 15//20 16//20
f  4//21 16//21 17//21
f  17//22 2//22 4//22
f  2//23 17//23 3//23
f  3//24 17//24 10//24
f  10//25 17//25 18//25
f  12//26 14//26 13//26
f  14//26 12//26 11//27
f  14//26 11//27 10//28
f  14//26 10//28 18//29
f  14//26 18//29 15//30
f  15//30 18//29 16//31
f  16//31 18//29 17//32

