# {"id":"ID_4150","idOriginal":"ID_4150","origin":[14.290633424390995,48.29274618179705],"elevation":261.5,"wof":[{"Id":102049853,"Name":"Linz","Placetype":"county","Offset":-1},{"Id":101748071,"Name":"Linz","Placetype":"locality","Offset":-1},{"Id":85681677,"Name":"Oberösterreich","Placetype":"region","Offset":-1},{"Id":85632785,"Name":"Austria","Placetype":"country","Offset":-1},{"Id":85898459,"Name":"Wegscheid","Placetype":"neighbourhood","Offset":-1}]}

# Attribution: City of Linz <http://geo.data.linz.gv.at/katalog/geodata/3d_geo_daten_lod2/>
# Longitude: 14.290633424390995
# Latitude: 48.29274618179705
# Elevation: 261.5

# File produced by Open Asset Import Library (http://www.assimp.sf.net)
# (assimp v3.1.0)


# 51 vertex positions
v  8.87 23.164 -1.835
v  0 19.111 1.17021e-15
v  0.208 19.418 0.716
v  4.256 19.083 -7.953
v  6.371 19.045 -11.991
v  4.175 19.033 -7.984
v  18.477 23.164 -19.559
v  7.26 19.041 -13.647
v  9.586 19.12 -17.653
v  9.465 19.044 -17.702
v  12.453 19.137 -22.883
v  12.594 19.231 -22.806
v  0.467 19.033 1.609
v  7.998 19.017 5.765
v  11.7 19.028 7.772
v  20.424 18.974 -8.129
v  11.781 18.974 7.816
v  20.294 19.061 -8.203
v  21.562 19.689 -12.793
v  22.562 19.021 -12.244
v  23.683 19.683 -16.685
v  23.211 19.999 -16.946
v  9.465 1.08393e-15 -17.702
v  4.175 4.88879e-16 -7.984
v  7.26 8.35638e-16 -13.647
v  6.371 7.34237e-16 -11.991
v  0 0 0
v  4.256 4.86981e-16 -7.953
v  12.453 1.40118e-15 -22.883
v  9.586 1.08093e-15 -17.653
v  0.467 -9.85228e-17 1.609
v  0.208 -4.38424e-17 0.716
v  11.781 -4.78592e-16 7.816
v  7.998 -3.53004e-16 5.765
v  11.7 -4.75898e-16 7.772
v  20.424 4.97758e-16 -8.129
v  20.294 5.02289e-16 -8.203
v  22.562 7.49729e-16 -12.244
v  21.562 7.83345e-16 -12.793
v  23.683 1.02166e-15 -16.685
v  23.211 1.03764e-15 -16.946
v  18.477 1.19764e-15 -19.559
v  12.594 1.39646e-15 -22.806
v  11.781 21.143 7.816
v  21.939 21.143 -7.262
v  20.424 21.143 -8.129
v  19.893 21.143 -3.505
v  13.332 21.143 8.657
v  13.332 -5.30088e-16 8.657
v  21.939 4.44669e-16 -7.262
v  19.893 2.14619e-16 -3.505

# 0 UV coordinates

# 75 vertex normals
vn -0.444156 0.862936 -0.240972
vn -0.444139 0.863015 -0.240717
vn -0.441915 0.864467 -0.239599
vn -0.444116 0.863021 -0.240738
vn -0.444129 0.863016 -0.240733
vn -0.443996 0.863167 -0.240438
vn -0.44415 0.862968 -0.240868
vn -0.444353 0.86283 -0.240989
vn -0.444135 0.863033 -0.240663
vn -0.425102 0.862511 -0.274524
vn -0.242945 0.86318 0.442604
vn -0.242675 0.863017 0.443069
vn -0.24276 0.863003 0.443051
vn 0.444387 0.862843 0.24088
vn 0.444108 0.863029 0.240727
vn 0.443048 0.864357 0.237898
vn 0.444149 0.863003 0.240743
vn 0.444094 0.863026 0.24076
vn 0.444248 0.862939 0.240791
vn 0.444158 0.863005 0.24072
vn 0.115797 0.729956 0.673614
vn -0.878516 0 -0.477713
vn -0.87815 0.000185287 -0.478385
vn -0.878303 -0 -0.478105
vn -9.30458e-21 -1 -6.12428e-17
vn 1.42404e-21 -1 -6.12315e-17
vn -0.4232 0.876539 -0.229306
vn -0.881689 0 -0.471831
vn -0.881689 0 -0.471831
vn -0.876888 0 -0.480695
vn -0.876888 -0 -0.480695
vn -0.357435 0 0.933938
vn -0.96036 0.000523997 0.278763
vn -0.960367 0 0.278739
vn -0.960367 0 0.278739
vn 2.20589e-20 -1 -6.12409e-17
vn -0.483163 0 0.87553
vn -0.476594 -0.00338547 0.879117
vn -0.478372 -0.00202436 0.878155
vn -0.480984 0 0.876729
vn 5.75293e-22 1 6.12315e-17
vn 1.30181e-19 -1 -6.14711e-17
vn 0.879151 -0 0.476544
vn 0.872042 -0 0.489431
vn 0.872042 0 0.489431
vn 0.878077 -0 0.47852
vn 0.878076 0 0.47852
vn 0.494703 0 -0.869062
vn 0.481245 0 -0.876586
vn 0.483227 -2.3094e-05 -0.875495
vn 0.483292 -0.0012038 -0.875458
vn 0.483255 0 -0.87548
vn 0.480391 -0.00215187 -0.877052
vn 0.483205 0 -0.875507
vn 3.80213e-20 1 6.12143e-17
vn 1.29699e-19 1 6.10017e-17
vn 9.33656e-20 1 6.10632e-17
vn 0.375347 0 -0.926884
vn 0.375347 0 -0.926884
vn -2.00296e-23 -1 -6.12323e-17
vn 1.1795e-23 -1 -6.12323e-17
vn -1.39018e-21 -1 -6.12316e-17
vn 0 -1 -6.12324e-17
vn 4.42897e-23 -1 -6.12323e-17
vn 1.76692e-23 -1 -6.12323e-17
vn 6.24556e-22 -1 -6.12321e-17
vn -1.32894e-23 -1 -6.12323e-17
vn 0 1 0
vn 0.880101 -0 0.474786
vn 0.878214 0.00258453 0.478261
vn 0.879657 0 0.475608
vn -1.81169e-21 -1 -6.12325e-17
vn 0.496694 0 -0.867926
vn -0.87915 0 -0.476544
vn -0.476666 0 0.879084

# Mesh 'defaultobject' with 98 faces
g defaultobject
usemtl DefaultMaterial
f  1//1 2//1 3//1
f  2//2 1//2 4//2
f  4//3 5//3 6//3
f  5//4 4//4 1//4
f  5//5 1//5 7//5
f  5//6 7//6 8//6
f  8//7 7//7 9//7
f  8//8 9//8 10//8
f  9//9 7//9 11//9
f  11//10 7//10 12//10
f  13//11 1//11 3//11
f  1//12 13//12 14//12
f  1//13 14//13 15//13
f  16//14 15//14 17//14
f  15//15 16//15 1//15
f  1//16 16//16 18//16
f  1//17 18//17 7//17
f  7//18 18//18 19//18
f  19//19 18//19 20//19
f  7//20 19//20 21//20
f  7//21 21//21 22//21
f  23//22 8//22 10//22
f  8//23 23//23 6//23
f  6//24 23//24 24//24
f  24//25 23//25 25//25
f  24//25 25//25 26//26
f  6//27 5//27 8//27
f  4//28 27//28 2//28
f  27//28 4//28 28//29
f  29//30 9//30 11//30
f  9//30 29//30 30//31
f  6//32 28//32 4//32
f  28//32 6//32 24//32
f  2//33 13//33 3//33
f  13//34 2//34 27//34
f  13//34 27//34 31//35
f  31//36 27//36 32//36
f  31//37 14//37 13//37
f  14//38 31//38 15//38
f  15//39 31//39 17//39
f  17//40 31//40 33//40
f  33//41 31//41 34//41
f  33//42 34//42 35//42
f  33//43 16//43 17//43
f  16//43 33//43 36//43
f  37//44 20//44 18//44
f  20//44 37//44 38//45
f  39//46 21//46 19//46
f  21//46 39//46 40//47
f  16//48 37//48 18//48
f  37//48 16//48 36//48
f  20//49 39//49 19//49
f  39//49 20//49 38//49
f  22//50 12//50 7//50
f  12//51 22//51 21//51
f  12//52 21//52 40//52
f  12//53 40//53 11//53
f  11//54 40//54 29//54
f  29//55 40//55 41//55
f  29//55 41//55 42//56
f  29//55 42//56 43//57
f  30//58 10//58 9//58
f  10//58 30//58 23//59
f  37//60 39//60 38//60
f  39//60 37//60 43//61
f  43//61 37//60 29//62
f  29//62 37//60 30//63
f  39//60 41//64 40//64
f  41//64 39//60 42//65
f  42//65 39//60 43//61
f  33//42 37//60 36//66
f  37//60 33//42 30//63
f  30//63 33//42 23//25
f  23//25 33//42 25//25
f  25//25 33//42 26//26
f  26//26 33//42 28//67
f  28//67 33//42 27//36
f  27//36 33//42 35//42
f  27//36 35//42 34//42
f  27//36 34//42 32//36
f  32//36 34//42 31//36
f  24//25 26//26 28//67
f  44//68 45//68 46//68
f  45//68 44//68 47//68
f  47//68 44//68 48//68
f  49//69 47//69 48//69
f  47//70 49//70 45//70
f  45//71 49//71 50//71
f  50//72 49//72 51//72
f  50//73 46//73 45//73
f  46//73 50//73 36//73
f  36//74 44//74 46//74
f  44//74 36//74 33//74
f  33//75 48//75 44//75
f  48//75 33//75 49//75
f  51//72 36//66 50//72
f  36//66 51//72 33//42
f  33//42 51//72 49//72

