# {"id":"ID_3150","idOriginal":"ID_3150","origin":[14.28408716145914,48.31553712642697],"elevation":262.919,"wof":[{"Id":102049853,"Name":"Linz","Placetype":"county","Offset":-1},{"Id":85681677,"Name":"Oberösterreich","Placetype":"region","Offset":-1},{"Id":101748071,"Name":"Linz","Placetype":"locality","Offset":-1},{"Id":85632785,"Name":"Austria","Placetype":"country","Offset":-1},{"Id":85898453,"Name":"Urfahr","Placetype":"neighbourhood","Offset":-1}]}

# Attribution: City of Linz <http://geo.data.linz.gv.at/katalog/geodata/3d_geo_daten_lod2/>
# Longitude: 14.28408716145914
# Latitude: 48.31553712642697
# Elevation: 262.919

# File produced by Open Asset Import Library (http://www.assimp.sf.net)
# (assimp v3.1.0)


# 131 vertex positions
v  14.959 49.214 15.244
v  17.579 48.136 8.105
v  12.703 48.136 12.945
v  19.842 49.217 10.411
v  22.805 48.136 2.919
v  25.074 49.22 5.232
v  27.864 48.136 -2.101
v  26.646 49.221 3.676
v  30.097 49.214 0.222
v  30.097 -1.35936e-17 0.222
v  26.646 -2.2509e-16 3.676
v  19.842 -6.3749e-16 10.411
v  14.959 -9.33426e-16 15.244
v  25.074 -3.20368e-16 5.232
v  27.864 1.28649e-16 -2.101
v  22.805 -1.78737e-16 2.919
v  12.703 -7.92653e-16 12.945
v  17.579 -4.96288e-16 8.105
v  33.35 55.805 -13.811
v  34.844 55.805 -9.634
v  36.171 55.805 -11.014
v  34.372 55.805 -10.014
v  33.721 55.805 -10.181
v  33.239 55.805 -10.125
v  32.741 55.805 -9.772
v  28.929 55.805 -5.951
v  31.74 55.805 -11.459
v  31.566 55.805 -11.206
v  31.863 55.805 -11.738
v  31.919 55.805 -12.172
v  31.892 55.805 -12.375
v  32.571 55.805 -14.584
v  31.863 55.805 -12.594
v  31.646 55.805 -12.918
v  31.329 55.805 -13.244
v  28.523 55.805 -5.148
v  26.424 55.805 -6.992
v  28.544 55.805 -4.832
v  28.652 55.805 -5.554
v  27.099 55.805 -7.076
v  27.575 55.805 -7.382
v  26.52 55.805 -7.042
v  26.489 55.805 -7.056
v  26.52 4.31198e-16 -7.042
v  26.489 4.32055e-16 -7.056
v  36.171 6.74413e-16 -11.014
v  32.571 8.93012e-16 -14.584
v  33.35 8.4568e-16 -13.811
v  31.74 7.01661e-16 -11.459
v  31.863 7.18745e-16 -11.738
v  31.566 6.8617e-16 -11.206
v  27.575 4.52017e-16 -7.382
v  27.099 4.3328e-16 -7.076
v  26.424 4.28137e-16 -6.992
v  31.329 8.10961e-16 -13.244
v  28.544 2.95875e-16 -4.832
v  34.372 6.13181e-16 -10.014
v  34.844 5.89912e-16 -9.634
v  31.646 7.90999e-16 -12.918
v  31.863 7.7116e-16 -12.594
v  31.919 7.4532e-16 -12.172
v  31.892 7.5775e-16 -12.375
v  28.523 3.15224e-16 -5.148
v  28.652 3.40084e-16 -5.554
v  28.929 3.64394e-16 -5.951
v  32.741 5.98362e-16 -9.772
v  33.239 6.19977e-16 -10.125
v  33.721 6.23406e-16 -10.181
v  26.262 48.136 -7.157
v  26.489 48.136 -7.056
v  26.262 4.3824e-16 -7.157
v  26.424 48.136 -6.992
v  9.624 51.951 -0.002
v  18.815 51.951 -1.147
v  14.87 51.951 -5.167
v  19.637 51.951 -0.309
v  13.569 51.951 4.018
v  14.391 51.951 4.856
v  9.624 1.22465e-19 -0.002
v  14.391 -2.97344e-16 4.856
v  13.569 -2.46032e-16 4.018
v  19.637 1.89208e-17 -0.309
v  14.87 3.16388e-16 -5.167
v  18.815 7.02335e-17 -1.147
v  25.47 48.375 -7.7
v  22.11 48.375 -9.446
v  21.344 48.375 -8.779
v  22.945 48.375 -10.224
v  17.579 48.375 8.105
v  9.495 48.375 9.676
v  12.703 48.375 12.945
v  22.805 48.375 2.919
v  8.673 48.375 8.838
v  27.864 48.375 -2.101
v  4.728 48.371 4.818
v  27.581 48.375 -2.395
v  29.063 48.375 -3.932
v  28.553 48.375 -4.685
v  28.544 48.375 -4.832
v  26.424 48.375 -6.992
v  0 48.371 2.96187e-15
v  26.262 48.375 -7.157
v  25.938 48.375 -7.302
v  25.498 48.375 -7.672
v  19.968 48.375 -10.187
v  4.895 48.371 -4.82
v  10.142 48.375 -9.985
v  15.25 48.375 -15.015
v  29.063 2.40766e-16 -3.932
v  28.553 2.86874e-16 -4.685
v  25.938 4.47119e-16 -7.302
v  25.498 4.69775e-16 -7.672
v  22.945 6.26039e-16 -10.224
v  25.47 4.71489e-16 -7.7
v  21.344 5.37559e-16 -8.779
v  15.25 9.19404e-16 -15.015
v  19.968 6.23774e-16 -10.187
v  27.581 1.46651e-16 -2.395
v  22.11 5.78401e-16 -9.446
v  0 0 0
v  10.142 6.11405e-16 -9.985
v  4.895 2.9514e-16 -4.82
v  9.495 -5.92484e-16 9.676
v  4.728 -2.95017e-16 4.818
v  8.673 -5.41171e-16 8.838
v  9.624 48.371 -0.002
v  14.87 48.375 -5.167
v  13.569 48.375 4.018
v  14.391 48.375 4.856
v  19.637 48.375 -0.309
v  18.815 48.375 -1.147

# 0 UV coordinates

# 164 vertex normals
vn -0.223588 0.948299 -0.225251
vn -0.223498 0.948327 -0.225222
vn -0.223498 0.948327 -0.225222
vn -0.223478 0.948333 -0.225215
vn -0.223478 0.948333 -0.225214
vn -0.223548 0.948311 -0.225238
vn -0.223503 0.948324 -0.225231
vn 0.707414 0 0.7068
vn 0.703481 -0.000550491 0.710714
vn 0.703498 -0.000546947 0.710697
vn 0.703459 -0.00056319 0.710736
vn 0.707413 0.00185495 0.706798
vn 0.703494 6.93055e-06 0.710701
vn 0.703459 0 0.710736
vn 1.32485e-19 -1 -6.10755e-17
vn 0.720935 0 -0.693003
vn 0.720935 0 -0.693003
vn -0.704365 0 -0.709838
vn -0.704385 -4.09026e-06 -0.709818
vn -0.704482 -4.51823e-05 -0.709722
vn -0.704365 2.76653e-05 -0.709837
vn -0.704432 -0 -0.709772
vn -3.06522e-20 1 6.12125e-17
vn -0.71375 0 0.7004
vn -0.71375 0 0.7004
vn 0 -1 -6.12323e-17
vn -2.21924e-24 -1 -6.12323e-17
vn 0 -1 -6.12323e-17
vn 9.56915e-24 -1 -6.12323e-17
vn 0 1 0
vn 0.411595 0 -0.911367
vn 0.704079 0 -0.710121
vn 0.704368 2.89602e-05 -0.709835
vn 0.704142 0 -0.710059
vn -1.49244e-20 -1 -6.12197e-17
vn -0.915023 0 -0.403401
vn -0.823946 0 -0.566668
vn -0.691839 0 -0.722052
vn -0.540757 0 -0.841179
vn -0.701602 0 -0.712569
vn -0.733417 0 -0.679779
vn -0.713684 0 0.700468
vn -0.627107 0 0.778933
vn -0.716935 0 0.69714
vn -0.830864 0 0.556476
vn -0.991347 0 0.131271
vn -0.99127 -2.29469e-06 0.131846
vn -0.99131 0 0.131548
vn 4.7314e-19 1 6.11711e-17
vn -0.991778 0 -0.127971
vn -0.0586216 0 -0.99828
vn 0.997799 0 -0.0663092
vn 0.953049 -0 0.302815
vn 0.820104 -0 0.572214
vn 0.70794 -0 0.706273
vn 0.578292 -0 0.81583
vn 0.720813 -0 0.693129
vn 0.115405 -0 0.993318
vn -0.248482 0 0.968636
vn 0 -1 -6.12323e-17
vn -1.68195e-22 -1 -6.1232e-17
vn 0 -1 -6.12321e-17
vn -2.23102e-23 -1 -6.12323e-17
vn 0 -1 -6.12323e-17
vn -2.59094e-24 -1 -6.12323e-17
vn -5.56874e-23 -1 -6.12323e-17
vn 1.08241e-23 -1 -6.12324e-17
vn 1.00704e-22 -1 -6.12325e-17
vn -5.59303e-23 -1 -6.12322e-17
vn -3.99875e-23 -1 -6.12323e-17
vn -2.23289e-23 -1 -6.12323e-17
vn 4.58105e-23 -1 -6.12323e-17
vn 7.15924e-23 -1 -6.12325e-17
vn -2.94884e-23 -1 -6.12323e-17
vn 3.77087e-23 -1 -6.12324e-17
vn 3.03697e-23 -1 -6.12324e-17
vn 0.40651 0 -0.913647
vn -0.713562 0 0.700592
vn 0.701602 -0 0.712569
vn -0.713733 0 0.700418
vn -0.713889 2.4134e-05 0.700259
vn -0.71376 0 0.70039
vn 1.79881e-20 -1 -6.12673e-17
vn 0.701584 -0 0.712587
vn 0.71389 0 -0.700258
vn 0.713733 -5.04449e-06 -0.700418
vn 0.71376 0 -0.70039
vn 0 1 6.1328e-17
vn -0.701584 0 -0.712587
vn -6.12601e-24 -1 -6.12323e-17
vn 1.32067e-25 -1 -6.12323e-17
vn -1.79329e-20 -1 -6.12048e-17
vn -0.000363864 1 -0.000638351
vn -0.0001343 1 0.000129276
vn -0.000251704 1 -0.000242697
vn -0.000132235 1 8.95619e-05
vn -0.000163956 1 1.00365e-05
vn -0.000120215 1 0.000117988
vn -0.000120221 1 0.000117976
vn -0.000120209 1 0.000118023
vn -9.47034e-05 1 0.000211614
vn -0.000115582 1 0.000137449
vn -0.00012064 1 0.000120636
vn -7.28705e-05 1 0.00027865
vn -0.000133728 1 0.000130689
vn -0.000415861 1 -0.000422332
vn 1.6267e-05 1 0.000791282
vn 0.827968 0 -0.560775
vn 0.713684 0 -0.700468
vn 0.713562 -1.08542e-05 -0.700592
vn 0.713675 0 -0.700477
vn -6.81286e-20 1 6.12885e-17
vn 0.40849 0 -0.912763
vn 0.643599 0 -0.765363
vn 0.707107 0 -0.707107
vn 0.706967 -1.62033e-07 -0.707247
vn 0.706968 0 -0.707245
vn 3.82836e-18 1 5.74253e-17
vn 0.715187 0 -0.698933
vn 0.715207 1.1667e-06 -0.698912
vn 0.715203 0 -0.698917
vn 0 -1 -6.13691e-17
vn 0.720455 0 -0.693502
vn 0.998132 0 -0.0611025
vn -0.681694 0 -0.731637
vn -0.65669 0 -0.754161
vn -0.701646 0 -0.712526
vn -0.701516 2.69452e-05 -0.712654
vn -0.701627 -1.97912e-05 -0.712544
vn -0.701595 4.36327e-17 -0.712576
vn 7.77467e-20 -1 -6.11867e-17
vn 2.6908e-20 1 6.12425e-17
vn -0.713742 -4.28877e-17 0.700409
vn -0.713733 -1.63838e-06 0.700417
vn -0.713889 5.52286e-05 0.700259
vn -0.713735 -6.55973e-06 0.700416
vn -0.713751 2.21623e-06 0.7004
vn -0.713735 0 0.700416
vn 0 -1 -6.12357e-17
vn 1.98222e-19 -1 -6.14488e-17
vn 0.704482 -0 0.709722
vn 0.704385 1.93863e-05 0.709818
vn 0.704365 2.75064e-05 0.709838
vn 0.704432 -1.37737e-05 0.709772
vn 0.704365 0 0.709838
vn 0.719869 -0 0.69411
vn 0.701584 0 0.712587
vn 0.713733 0 -0.700418
vn 0.713889 -2.58971e-05 -0.700259
vn 0.713733 5.39726e-06 -0.700418
vn 0.713889 0 -0.700259
vn -0.701584 0 -0.712587
vn -0.713733 0 0.700418
vn -0.71389 2.59936e-05 0.700258
vn -0.71376 0 0.70039
vn -3.64095e-23 -1 -6.12324e-17
vn 3.37472e-24 -1 -6.12323e-17
vn 3.17644e-24 -1 -6.12323e-17
vn 7.92638e-23 -1 -6.12324e-17
vn -6.20532e-23 -1 -6.12323e-17
vn 4.18211e-23 -1 -6.12324e-17
vn -6.11987e-23 -1 -6.12323e-17
vn 2.97828e-21 -1 -6.12335e-17
vn -3.93751e-23 -1 -6.12323e-17

# Mesh 'defaultobject' with 258 faces
g defaultobject
usemtl DefaultMaterial
f  1//1 2//1 3//1
f  2//2 1//2 4//2
f  2//2 4//2 5//3
f  5//4 4//4 6//4
f  5//4 6//4 7//5
f  7//6 6//6 8//6
f  7//7 8//7 9//7
f  8//8 10//8 9//8
f  10//9 8//9 6//9
f  10//10 6//10 4//10
f  10//11 4//11 1//11
f  10//12 1//12 11//12
f  11//13 1//13 12//13
f  12//14 1//14 13//14
f  11//15 12//15 14//15
f  10//16 7//16 9//16
f  7//16 10//16 15//17
f  15//18 5//18 7//18
f  5//19 15//19 2//19
f  2//20 15//20 3//20
f  3//21 15//21 16//21
f  3//22 16//22 17//22
f  17//23 16//23 18//23
f  3//24 13//24 1//24
f  13//24 3//24 17//25
f  10//26 16//26 15//26
f  16//26 10//26 11//15
f  16//26 11//15 14//15
f  16//26 14//15 18//27
f  18//27 14//15 12//15
f  18//27 12//15 17//28
f  17//28 12//15 13//29
f  19//30 20//30 21//30
f  20//30 19//30 22//30
f  22//30 19//30 23//30
f  23//30 19//30 24//30
f  24//30 19//30 25//30
f  25//30 19//30 26//30
f  26//30 19//30 27//30
f  26//30 27//30 28//30
f  27//30 19//30 29//30
f  29//30 19//30 30//30
f  30//30 19//30 31//30
f  31//30 19//30 32//30
f  31//30 32//30 33//30
f  33//30 32//30 34//30
f  34//30 32//30 35//30
f  36//30 37//30 38//30
f  37//30 36//30 39//30
f  37//30 39//30 26//30
f  37//30 26//30 40//30
f  40//30 26//30 41//30
f  41//30 26//30 28//30
f  37//30 40//30 42//30
f  37//30 42//30 43//30
f  44//31 43//31 42//31
f  43//31 44//31 45//31
f  46//32 19//32 21//32
f  19//33 46//33 32//33
f  32//34 46//34 47//34
f  47//35 46//35 48//35
f  49//36 29//36 50//36
f  29//36 49//36 27//36
f  49//37 28//37 27//37
f  28//37 49//37 51//37
f  51//38 41//38 28//38
f  41//38 51//38 52//38
f  52//39 40//39 41//39
f  40//39 52//39 53//39
f  45//40 37//40 43//40
f  37//40 45//40 54//40
f  47//41 35//41 32//41
f  35//41 47//41 55//41
f  54//42 38//42 37//42
f  38//42 54//42 56//42
f  57//43 20//43 22//43
f  20//43 57//43 58//43
f  55//44 34//44 35//44
f  34//44 55//44 59//44
f  59//45 33//45 34//45
f  33//45 59//45 60//45
f  60//46 31//46 33//46
f  31//47 60//47 30//47
f  30//48 60//48 61//48
f  61//49 60//49 62//49
f  61//50 29//50 30//50
f  29//50 61//50 50//50
f  53//51 42//51 40//51
f  42//51 53//51 44//51
f  56//52 36//52 38//52
f  36//52 56//52 63//52
f  63//53 39//53 36//53
f  39//53 63//53 64//53
f  64//54 26//54 39//54
f  26//54 64//54 65//54
f  65//55 25//55 26//55
f  25//55 65//55 66//55
f  66//56 24//56 25//56
f  24//56 66//56 67//56
f  58//57 21//57 20//57
f  21//57 58//57 46//57
f  67//58 23//58 24//58
f  23//58 67//58 68//58
f  68//59 22//59 23//59
f  22//59 68//59 57//59
f  54//60 63//60 56//60
f  63//60 54//60 64//28
f  64//28 54//60 45//61
f  64//28 45//61 44//62
f  64//28 44//62 53//26
f  64//28 53//26 65//63
f  65//63 53//26 52//28
f  65//63 52//28 66//64
f  66//64 52//28 51//65
f  66//64 51//65 67//66
f  67//66 51//65 49//67
f  67//66 49//67 68//68
f  68//68 49//67 50//69
f  68//68 50//69 57//70
f  57//70 50//69 61//71
f  57//70 46//35 58//72
f  46//35 57//70 61//71
f  46//35 61//71 62//73
f  46//35 62//73 60//74
f  46//35 60//74 59//75
f  46//35 59//75 55//76
f  46//35 55//76 48//35
f  48//35 55//76 47//35
f  45//77 69//77 70//77
f  69//77 45//77 71//77
f  71//78 72//78 69//78
f  72//78 71//78 54//78
f  54//79 70//79 72//79
f  70//79 54//79 45//79
f  73//30 74//30 75//30
f  74//30 73//30 76//30
f  76//30 73//30 77//30
f  76//30 77//30 78//30
f  79//80 77//80 73//80
f  77//81 79//81 78//81
f  78//82 79//82 80//82
f  80//83 79//83 81//83
f  80//84 76//84 78//84
f  76//84 80//84 82//84
f  82//85 74//85 76//85
f  74//86 82//86 75//86
f  75//87 82//87 83//87
f  83//88 82//88 84//88
f  83//89 73//89 75//89
f  73//89 83//89 79//89
f  81//83 82//90 80//83
f  82//90 81//83 79//83
f  82//90 79//83 83//91
f  82//90 83//91 84//92
f  85//30 86//30 87//30
f  86//30 85//30 88//30
f  89//30 90//30 91//30
f  90//30 89//30 92//30
f  90//30 92//30 93//30
f  93//30 92//30 94//30
f  93//93 94//93 95//93
f  95//94 94//94 96//94
f  95//95 96//95 97//95
f  95//96 97//96 98//96
f  95//97 98//97 99//97
f  95//98 99//98 100//98
f  95//98 100//98 101//99
f  101//99 100//98 102//100
f  101//101 102//101 103//101
f  101//102 103//102 104//102
f  101//99 104//103 85//103
f  101//104 85//104 87//104
f  101//105 87//105 105//105
f  101//106 105//106 106//106
f  106//107 105//107 107//107
f  107//30 105//30 108//30
f  109//108 98//108 97//108
f  98//108 109//108 110//108
f  56//109 100//109 99//109
f  100//110 56//110 102//110
f  102//111 56//111 71//111
f  71//112 56//112 54//112
f  71//113 103//113 102//113
f  103//113 71//113 111//113
f  111//114 104//114 103//114
f  104//114 111//114 112//114
f  112//115 85//115 104//115
f  85//116 112//116 88//116
f  88//116 112//116 113//117
f  113//118 112//118 114//118
f  115//119 105//119 87//119
f  105//120 115//120 108//120
f  108//120 115//120 116//121
f  116//122 115//122 117//122
f  15//123 96//123 94//123
f  96//123 15//123 118//123
f  110//124 99//124 98//124
f  99//124 110//124 56//124
f  113//125 86//125 88//125
f  86//125 113//125 119//125
f  119//126 87//126 86//126
f  87//126 119//126 115//126
f  116//127 107//127 108//127
f  107//128 116//128 106//128
f  106//129 116//129 101//129
f  101//130 116//130 120//130
f  120//131 116//122 121//131
f  120//132 121//132 122//132
f  120//133 95//133 101//133
f  95//134 120//134 93//134
f  93//135 120//135 90//135
f  90//136 120//134 91//136
f  91//137 120//137 123//137
f  91//136 123//138 17//138
f  123//139 120//131 124//139
f  123//139 124//139 125//140
f  17//141 89//141 91//141
f  89//142 17//142 92//142
f  92//143 17//143 94//143
f  94//144 17//144 16//144
f  94//145 16//145 15//145
f  16//26 17//28 18//27
f  118//146 97//146 96//146
f  97//146 118//146 109//146
f  126//147 83//147 127//147
f  83//147 126//147 79//147
f  128//148 79//148 126//148
f  79//149 128//149 129//149
f  79//148 129//150 81//150
f  81//151 129//151 80//151
f  82//152 129//152 130//152
f  129//152 82//152 80//152
f  83//153 131//153 127//153
f  131//154 83//154 130//154
f  130//155 83//155 82//155
f  82//90 83//91 84//92
f  16//26 118//156 15//26
f  118//156 16//26 119//157
f  119//157 16//26 115//122
f  115//122 16//26 117//122
f  117//122 16//26 116//122
f  116//122 16//26 121//131
f  121//131 16//26 18//27
f  121//131 18//27 122//158
f  122//158 18//27 17//28
f  122//158 17//28 125//140
f  122//158 125//140 120//131
f  125//140 17//28 123//139
f  120//131 125//140 124//139
f  110//159 54//60 56//60
f  54//60 110//159 109//160
f  54//60 109//160 118//156
f  54//60 118//156 71//161
f  71//161 118//156 111//162
f  111//162 118//156 112//26
f  112//26 118//156 114//163
f  114//163 118//156 113//164
f  113//164 118//156 119//157

