# File produced by Open Asset Import Library (http://www.assimp.sf.net)
# (assimp v3.1.0)

mtllib ID_18728.obj.mtl

# 23 vertex positions
v  13.952 8.16 -0.486
v  15.646 7.382 0.731
v  15.312 7.61 0.298
v  17.14 5.796 4.153
v  7.427 8.16 2.643
v  4.81 5.796 10.067
v  0.015 5.796 0.03
v  13.855 8.121 -0.542
v  14.129 7.565 -2.123
v  13.867 7.283 -2.734
v  12.253 5.802 -5.824
v  0 5.782 3.54045e-16
v  14.129 1.29996e-16 -2.123
v  13.867 1.67409e-16 -2.734
v  12.253 3.56617e-16 -5.824
v  15.646 -4.47608e-17 0.731
v  17.14 -2.54298e-16 4.153
v  15.312 -1.82472e-17 0.298
v  13.855 3.31879e-17 -0.542
v  13.952 2.97589e-17 -0.486
v  0 0 0
v  0.015 -1.83697e-18 0.03
v  4.81 -6.16426e-16 10.067

# 0 UV coordinates

# 32 vertex normals
vn 0.167039 0.919664 0.35541
vn 0.169357 0.92032 0.352603
vn 0.169152 0.920307 0.352737
vn 0.169164 0.920324 0.352687
vn -0.169162 0.920297 -0.352758
vn -0.169268 0.921799 -0.348762
vn -0.169177 0.920224 -0.352941
vn -0.169113 0.920474 -0.352318
vn -0.169176 0.920306 -0.352726
vn -0.166604 0.922819 -0.347345
vn -0.352974 0.920312 0.168627
vn 0.919067 0 -0.394101
vn 0.919067 0 -0.394101
vn 0.88637 0 -0.462978
vn 0.88637 0 -0.462978
vn 0.916464 0 -0.400116
vn 0.791808 0 -0.61077
vn 0.791808 0 -0.61077
vn 0.499704 0.000910396 -0.866195
vn 0.499465 0 -0.866334
vn 0.499465 0 -0.866334
vn 2.77149e-20 -1 -6.12869e-17
vn -0.429287 0 -0.903168
vn -0.429287 5.53031e-17 -0.903168
vn -0.894427 0 0.447214
vn -0.894427 0 0.447214
vn -0.90232 0 0.431067
vn 0.43247 -0 0.901649
vn 0.985312 -0 0.170763
vn 0 -1 -6.12323e-17
vn 6.0922e-25 -1 -6.12323e-17
vn -7.20247e-25 -1 -6.12323e-17

# Mesh 'defaultobject' with 42 faces
g defaultobject
usemtl DefaultMaterial
f  1//1 2//1 3//1
f  2//2 1//2 4//2
f  4//3 1//3 5//3
f  4//4 5//4 6//4
f  1//5 7//5 5//5
f  7//6 1//6 8//6
f  7//7 8//7 9//7
f  7//8 9//8 10//8
f  7//9 10//9 11//9
f  7//10 11//10 12//10
f  5//11 7//11 6//11
f  13//12 10//12 9//12
f  10//12 13//12 14//13
f  14//14 11//14 10//14
f  11//14 14//14 15//15
f  4//16 16//16 2//16
f  16//16 4//16 17//16
f  2//17 18//17 3//17
f  18//17 2//17 16//18
f  3//19 8//19 1//19
f  8//20 3//20 19//20
f  19//20 3//20 18//21
f  19//22 18//22 20//22
f  15//23 12//23 11//23
f  12//23 15//23 21//24
f  12//25 22//25 7//25
f  22//25 12//25 21//26
f  22//27 6//27 7//27
f  6//27 22//27 23//27
f  23//28 4//28 6//28
f  4//28 23//28 17//28
f  19//29 9//29 8//29
f  9//29 19//29 13//29
f  17//30 23//30 16//30
f  22//30 16//30 23//30
f  18//22 16//30 22//30
f  20//22 18//22 22//30
f  19//22 20//22 22//30
f  13//31 19//22 22//30
f  14//32 13//31 22//30
f  15//30 14//32 22//30
f  21//30 15//30 22//30

