# File produced by Open Asset Import Library (http://www.assimp.sf.net)
# (assimp v3.1.0)

mtllib ID_19203.obj.mtl

# 16 vertex positions
v  2.734 13.582 4.332
v  17.461 7.763 1.076
v  14.942 13.582 -3.095
v  17.592 7.461 1.292
v  5.467 7.467 8.663
v  5.321 7.794 8.432
v  0 7.465 4.57099e-16
v  12.294 7.465 -7.48
v  12.294 4.58018e-16 -7.48
v  0 0 0
v  2.734 -2.65259e-16 4.332
v  5.321 -5.16311e-16 8.432
v  5.467 -5.30456e-16 8.663
v  17.592 -7.91122e-17 1.292
v  17.461 -6.5886e-17 1.076
v  14.942 1.89514e-16 -3.095

# 0 UV coordinates

# 27 vertex normals
vn 0.398488 0.642006 0.655008
vn 0.398426 0.641611 0.655432
vn 0.398501 0.64201 0.654996
vn 0.938713 0.256279 -0.23052
vn -0.398504 0.642031 -0.654974
vn -0.398496 0.641988 -0.655021
vn -0.519779 0 -0.854301
vn -0.519779 5.23108e-17 -0.854301
vn -0.845665 -3.26805e-17 0.533714
vn -0.845702 2.63549e-05 0.533655
vn -0.845665 -6.30599e-05 0.533714
vn -0.845488 -0.000269919 0.533995
vn -0.845719 2.77016e-05 0.533628
vn -0.845315 0 0.534268
vn 0.519462 -0 0.854494
vn 0.856015 1.68614e-05 -0.516951
vn 0.855991 0.00153509 -0.516989
vn 0.855991 0 -0.51699
vn 0.85504 -0.00251843 -0.518557
vn 0.856004 -2.76342e-05 -0.516968
vn 0.856025 0 -0.516934
vn -8.0221e-23 -1 -6.12325e-17
vn 6.15735e-24 -1 -6.12323e-17
vn 7.2843e-25 -1 -6.12323e-17
vn -4.55669e-25 -1 -6.12323e-17
vn -3.77496e-25 -1 -6.12323e-17
vn 0 -1 -6.12323e-17

# Mesh 'defaultobject' with 28 faces
g defaultobject
usemtl DefaultMaterial
f  1//1 2//1 3//1
f  2//2 1//2 4//2
f  4//3 1//3 5//3
f  5//4 1//4 6//4
f  7//5 3//5 8//5
f  3//6 7//6 1//6
f  9//7 7//7 8//7
f  7//7 9//7 10//8
f  10//9 1//9 7//9
f  1//10 10//10 6//10
f  6//11 10//11 11//11
f  6//12 11//12 5//12
f  5//13 11//13 12//13
f  5//14 12//14 13//14
f  13//15 4//15 5//15
f  4//15 13//15 14//15
f  2//16 8//16 3//16
f  8//17 2//17 4//17
f  8//18 4//18 14//18
f  8//19 14//19 15//19
f  8//20 15//20 16//20
f  8//21 16//21 9//21
f  12//22 14//22 13//22
f  14//22 12//22 11//23
f  14//22 11//23 10//24
f  14//22 10//24 15//25
f  15//25 10//24 16//26
f  16//26 10//24 9//27

