# File produced by Open Asset Import Library (http://www.assimp.sf.net)
# (assimp v3.1.0)

mtllib ID_10774.obj.mtl

# 37 vertex positions
v  20.432 13.762 3.108
v  20.314 13.788 -0.751
v  20.264 13.762 -0.749
v  22.292 14.742 2.82
v  20.497 13.762 4.595
v  22.367 14.742 4.53
v  23.905 13.814 -0.783
v  24.136 13.814 4.469
v  23.901 13.788 -0.883
v  23.901 5.40682e-17 -0.883
v  20.264 4.5863e-17 -0.749
v  20.314 4.59855e-17 -0.751
v  20.497 -2.81363e-16 4.595
v  20.432 -1.9031e-16 3.108
v  24.136 -2.73647e-16 4.469
v  22.367 -2.77382e-16 4.53
v  23.905 4.79449e-17 -0.783
v  20.396 14.992 4.599
v  20.497 14.993 4.595
v  0.236 15.06 5.426
v  20.4 15.06 4.681
v  0 10.571 6.47287e-16
v  20.264 10.571 -0.749
v  0.236 -3.32247e-16 5.426
v  0 0 0
v  20.4 -2.86629e-16 4.681
v  20.396 -2.81608e-16 4.599
v  20.63 10.826 9.35
v  0.456 10.507 10.467
v  20.649 10.509 9.715
v  0.44 10.824 10.102
v  20.4 14.883 4.681
v  0.236 14.886 5.426
v  0.456 -6.40919e-16 10.467
v  0.44 -6.18569e-16 10.102
v  20.649 -5.94872e-16 9.715
v  20.63 -5.72522e-16 9.35

# 0 UV coordinates

# 62 vertex normals
vn -0.460634 0.887363 0.0200638
vn -0.463601 0.885815 0.0201441
vn -0.463585 0.885821 0.0202645
vn -0.463533 0.885846 0.0203306
vn 0.463901 0.885652 -0.0204038
vn 0.464036 0.885583 -0.0203526
vn -0.00483684 0.967858 -0.25145
vn -0.00932014 0.967351 -0.253267
vn -0.0367747 0 -0.999324
vn -0.0395876 -0.000732842 -0.999216
vn -0.0368186 -0 -0.999322
vn 6.22018e-22 1 6.12492e-17
vn -0.999053 0 0.0435157
vn -0.999046 -4.35527e-05 0.0436708
vn -0.999051 0 0.0435589
vn 0 1 6.12319e-17
vn 0.0346005 0.000263919 0.999401
vn 0.0346043 0 0.999401
vn 0.0346043 0 0.999401
vn -5.64349e-22 -1 -6.12485e-17
vn 0.999034 0 -0.0439406
vn 0.999186 0.00137799 -0.0403228
vn 0.999037 0 -0.0438663
vn -1.26442e-20 -1 -6.12318e-17
vn 0 -1 -6.12323e-17
vn 0 -1 -6.12323e-17
vn -1.50504e-23 -1 -6.12341e-17
vn -0.0328381 0.770587 -0.636488
vn -0.0235531 0.770104 -0.637483
vn -0.023517 0.770787 -0.636659
vn -0.0235723 0.770899 -0.636522
vn -0.0235324 0.770782 -0.636664
vn -0.999056 0 0.0434532
vn -0.999055 0 0.0434532
vn 0.0369219 -0 0.999318
vn 0.0395701 0 0.999217
vn 0.0395701 0 0.999217
vn 0.998812 0 -0.0487192
vn 0.998813 0 -0.0487192
vn 0.999046 0 -0.0436708
vn 0.999052 1.54133e-05 -0.0435284
vn 0.999051 0 -0.0435589
vn -0.0369369 0 -0.999318
vn -0.0369369 6.11906e-17 -0.999318
vn -7.99004e-24 -1 -6.12325e-17
vn -2.44027e-25 -1 -6.12323e-17
vn 0.0243104 0.755409 0.654803
vn 0.0243183 0.75531 0.654917
vn 0.0243224 0.755215 0.655025
vn 0.0243128 0.755234 0.655004
vn -0.99905 0 0.0435856
vn -0.999043 -6.54724e-05 0.0437368
vn -0.999049 0 0.0436006
vn 2.9736e-19 1 6.12191e-17
vn 0.0372148 0 0.999307
vn 0.998789 0 -0.0492013
vn 0.998687 0.000876288 -0.0512282
vn 0.998779 0 -0.0494034
vn -2.22161e-20 -1 -6.12318e-17
vn -0.0369219 0 -0.999318
vn -0.0369219 0 -0.999318
vn -1.56865e-24 -1 -6.12324e-17

# Mesh 'defaultobject' with 74 faces
g defaultobject
usemtl DefaultMaterial
f  1//1 2//1 3//1
f  2//2 1//2 4//2
f  4//3 1//3 5//3
f  4//4 5//4 6//4
f  7//5 6//5 8//5
f  6//6 7//6 4//6
f  9//7 4//7 7//7
f  4//8 9//8 2//8
f  10//9 2//9 9//9
f  2//10 10//10 3//10
f  3//11 10//11 11//11
f  11//12 10//12 12//12
f  11//13 1//13 3//13
f  1//14 11//14 5//14
f  5//15 11//15 13//15
f  13//16 11//12 14//16
f  5//17 8//17 6//17
f  8//18 5//18 13//18
f  8//18 13//18 15//19
f  15//20 13//20 16//20
f  15//21 7//21 8//21
f  7//22 15//22 9//22
f  9//23 15//23 10//23
f  10//24 15//20 17//24
f  14//25 16//20 13//20
f  16//20 14//25 11//26
f  16//20 11//26 15//20
f  15//20 11//26 17//24
f  17//24 11//26 12//27
f  17//24 12//27 10//24
f  1//28 18//28 19//28
f  18//29 20//29 21//29
f  20//30 18//30 22//30
f  22//31 18//31 1//31
f  22//32 1//32 23//32
f  22//33 24//33 20//33
f  24//33 22//33 25//34
f  24//35 21//35 20//35
f  21//35 24//35 26//35
f  18//36 13//36 19//36
f  13//36 18//36 27//37
f  26//38 18//38 21//38
f  18//38 26//38 27//39
f  13//40 1//40 19//40
f  1//41 13//41 23//41
f  23//42 13//42 11//42
f  11//26 13//20 14//25
f  11//43 22//43 23//43
f  22//43 11//43 25//44
f  24//45 27//45 26//45
f  27//45 14//25 13//20
f  14//25 27//45 11//26
f  11//26 27//45 25//46
f  25//46 27//45 24//45
f  28//47 29//47 30//47
f  29//48 28//48 31//48
f  31//49 28//49 32//49
f  31//50 32//50 33//50
f  24//51 31//51 33//51
f  31//52 24//52 29//52
f  29//53 24//53 34//53
f  34//54 24//54 35//54
f  29//55 36//55 30//55
f  36//55 29//55 34//55
f  28//56 26//56 32//56
f  26//57 28//57 30//57
f  26//58 30//58 36//58
f  26//45 36//59 37//59
f  32//60 24//60 33//60
f  24//60 32//60 26//61
f  35//62 36//59 34//62
f  36//59 35//62 24//45
f  36//59 24//45 37//59
f  37//59 24//45 26//45

