# File produced by Open Asset Import Library (http://www.assimp.sf.net)
# (assimp v3.1.0)

mtllib ID_41572.obj.mtl

# 10 vertex positions
v  2.502 4.404 -1.654
v  4.992 4.404 7.295
v  7.42 4.404 5.679
v  4.907 4.404 7.352
v  0 4.404 2.69667e-16
v  7.42 -3.47738e-16 5.679
v  2.502 1.01278e-16 -1.654
v  0 0 0
v  4.907 -4.5018e-16 7.352
v  4.992 -4.4669e-16 7.295

# 0 UV coordinates

# 13 vertex normals
vn 0 1 0
vn 0.830514 0 -0.556998
vn -0.551465 0 -0.834198
vn -0.551465 5.10799e-17 -0.834198
vn -0.831754 -3.39928e-17 0.555144
vn -0.831754 0 0.555144
vn 0.554067 0 0.832472
vn 0.556952 0.00229892 0.830541
vn 0.554067 -8.06684e-05 0.832472
vn 0.556954 0 0.830543
vn 2.05574e-24 -1 -6.12323e-17
vn 0 -1 -6.12323e-17
vn 0 -1 -6.12324e-17

# Mesh 'defaultobject' with 16 faces
g defaultobject
usemtl DefaultMaterial
f  1//1 2//1 3//1
f  2//1 1//1 4//1
f  4//1 1//1 5//1
f  6//2 1//2 3//2
f  1//2 6//2 7//2
f  7//3 5//3 1//3
f  5//3 7//3 8//4
f  8//5 4//5 5//5
f  4//5 8//5 9//6
f  2//7 6//7 3//7
f  6//8 2//8 4//8
f  6//9 4//9 10//9
f  10//10 4//10 9//10
f  10//11 7//11 6//11
f  7//11 10//11 8//12
f  8//12 10//11 9//13

