# File produced by Open Asset Import Library (http://www.assimp.sf.net)
# (assimp v3.1.0)

mtllib ID_54476.obj.mtl

# 20 vertex positions
v  0 16.867 1.03281e-15
v  0.997 16.867 0.023
v  0.017 16.867 -2.287
v  4.358 16.867 -2.217
v  4.358 16.867 -2.289
v  2.703 16.867 -2.238
v  2.672 16.867 -1.002
v  2.689 16.867 1.095
v  0.96 16.867 1.07
v  0.968 16.867 0.192
v  0.968 -1.17566e-17 0.192
v  0.96 -6.55186e-17 1.07
v  0.017 1.40038e-16 -2.287
v  0 0 0
v  0.997 -1.40834e-18 0.023
v  2.689 -6.70494e-17 1.095
v  2.703 1.37038e-16 -2.238
v  4.358 1.35752e-16 -2.217
v  2.672 6.13548e-17 -1.002
v  4.358 1.40161e-16 -2.289

# 0 UV coordinates

# 21 vertex normals
vn -0 1 0
vn -0.999959 0 -0.00911126
vn -0.999972 0 -0.00743311
vn -0.999972 4.55147e-19 -0.00743311
vn -0.985595 0 -0.169126
vn -0.0144577 0 0.999896
vn -0.0126877 0 0.99992
vn -0.0230631 -6.12161e-17 0.999734
vn -0.0230631 0 0.999734
vn 0.999967 0 -0.00810665
vn 0.999686 -0 0.0250731
vn 1 -0 0
vn -0.000460745 0 -1
vn -1.81949e-24 -1 -6.12323e-17
vn -3.87386e-23 -1 -6.123e-17
vn 3.86019e-24 -1 -6.12323e-17
vn 4.77304e-24 -1 -6.12323e-17
vn -1.85235e-23 -1 -6.12323e-17
vn 2.60911e-24 -1 -6.12323e-17
vn -4.35857e-24 -1 -6.12323e-17
vn 9.06786e-26 -1 -6.12323e-17

# Mesh 'defaultobject' with 36 faces
g defaultobject
usemtl DefaultMaterial
f  1//1 2//1 3//1
f  3//1 4//1 5//1
f  4//1 3//1 6//1
f  6//1 3//1 7//1
f  7//1 3//1 8//1
f  8//1 3//1 2//1
f  8//1 2//1 9//1
f  9//1 2//1 10//1
f  11//2 9//2 10//2
f  9//2 11//2 12//2
f  13//3 1//3 3//3
f  1//3 13//3 14//4
f  15//5 10//5 2//5
f  10//5 15//5 11//5
f  12//6 8//6 9//6
f  8//6 12//6 16//6
f  17//7 4//7 6//7
f  4//7 17//7 18//7
f  14//8 2//8 1//8
f  2//8 14//8 15//9
f  16//10 7//10 8//10
f  7//10 16//10 19//10
f  19//11 6//11 7//11
f  6//11 19//11 17//11
f  18//12 5//12 4//12
f  5//12 18//12 20//12
f  20//13 3//13 5//13
f  3//13 20//13 13//13
f  18//14 13//14 20//14
f  13//14 18//14 17//15
f  13//14 17//15 19//16
f  13//14 19//16 16//17
f  13//14 16//17 15//18
f  15//18 16//17 11//19
f  11//19 16//17 12//20
f  14//21 13//14 15//18

