# File produced by Open Asset Import Library (http://www.assimp.sf.net)
# (assimp v3.1.0)

mtllib ID_50491.obj.mtl

# 16 vertex positions
v  0 16.904 1.03507e-15
v  4.37 16.904 -2.121
v  0.04 16.904 -2.179
v  5.322 16.904 -2.288
v  0.841 16.904 0.006
v  5.355 16.904 0.345
v  0.875 16.904 0.285
v  4.39 16.904 -2.27
v  4.39 1.38997e-16 -2.27
v  4.37 1.29874e-16 -2.121
v  0.04 1.33425e-16 -2.179
v  0 0 0
v  0.841 -3.67394e-19 0.006
v  0.875 -1.74512e-17 0.285
v  5.322 1.401e-16 -2.288
v  5.355 -2.11252e-17 0.345

# 0 UV coordinates

# 16 vertex normals
vn 0 1 0
vn -0.991111 0 -0.133035
vn -0.999832 0 -0.018354
vn -0.999832 1.12386e-18 -0.018354
vn -0.992656 0 0.120969
vn 0.0133937 0 -0.99991
vn -0.0193098 0 -0.999814
vn -0.00713418 -6.12308e-17 0.999975
vn -0.00713418 0 0.999975
vn -0.0133917 0 0.99991
vn 0.999922 0 -0.0125322
vn -1.86628e-25 -1 -6.12323e-17
vn 7.01194e-25 -1 -6.12323e-17
vn -2.6429e-26 -1 -6.12323e-17
vn -2.78649e-25 -1 -6.12323e-17
vn 3.31434e-25 -1 -6.12323e-17

# Mesh 'defaultobject' with 28 faces
g defaultobject
usemtl DefaultMaterial
f  1//1 2//1 3//1
f  2//1 1//1 4//1
f  4//1 1//1 5//1
f  4//1 5//1 6//1
f  6//1 5//1 7//1
f  4//1 8//1 2//1
f  9//2 2//2 8//2
f  2//2 9//2 10//2
f  11//3 1//3 3//3
f  1//3 11//3 12//4
f  13//5 7//5 5//5
f  7//5 13//5 14//5
f  10//6 3//6 2//6
f  3//6 10//6 11//6
f  15//7 8//7 4//7
f  8//7 15//7 9//7
f  12//8 5//8 1//8
f  5//8 12//8 13//9
f  14//10 6//10 7//10
f  6//10 14//10 16//10
f  16//11 4//11 6//11
f  4//11 16//11 15//11
f  15//12 10//12 9//12
f  10//12 12//13 11//13
f  12//13 10//12 15//12
f  12//13 15//12 13//14
f  13//14 15//12 16//15
f  13//14 16//15 14//16

