# {"id":"ID_51676","idOriginal":"ID_51676","origin":[14.285583863367254,48.279010793659594],"elevation":274.415,"wof":[{"Id":102049853,"Name":"Linz","Placetype":"county","Offset":-1},{"Id":85632785,"Name":"Austria","Placetype":"country","Offset":-1},{"Id":101748071,"Name":"Linz","Placetype":"locality","Offset":-1},{"Id":85681677,"Name":"Oberösterreich","Placetype":"region","Offset":-1},{"Id":85898459,"Name":"Wegscheid","Placetype":"neighbourhood","Offset":-1}]}

# Attribution: City of Linz <http://geo.data.linz.gv.at/katalog/geodata/3d_geo_daten_lod2/>
# Longitude: 14.285583863367254
# Latitude: 48.279010793659594
# Elevation: 274.415

# File produced by Open Asset Import Library (http://www.assimp.sf.net)
# (assimp v3.1.0)


# 10 vertex positions
v  1.043 2.386 -2.961
v  4.397 2.386 -1.816
v  1.069 2.386 -3.036
v  3.316 2.386 1.252
v  0 2.386 1.461e-16
v  0 0 0
v  3.316 -7.66629e-17 1.252
v  4.397 1.11198e-16 -1.816
v  1.069 1.85901e-16 -3.036
v  1.043 1.81309e-16 -2.961

# 0 UV coordinates

# 12 vertex normals
vn -0 1 0
vn -0.353225 -5.72852e-17 0.935538
vn -0.353225 0 0.935538
vn 0.943166 -0 0.332322
vn 0.344188 0 -0.938901
vn -0.943196 0 -0.332237
vn -0.944816 0.00654196 -0.327536
vn -0.943196 -0.000165419 -0.332237
vn -0.944836 0 -0.327543
vn 0 -1 -6.12323e-17
vn -1.18961e-24 -1 -6.12323e-17
vn -7.05685e-23 -1 -6.12322e-17

# Mesh 'defaultobject' with 16 faces
g defaultobject
usemtl DefaultMaterial
f  1//1 2//1 3//1
f  2//1 1//1 4//1
f  4//1 1//1 5//1
f  6//2 4//2 5//2
f  4//2 6//2 7//3
f  7//4 2//4 4//4
f  2//4 7//4 8//4
f  8//5 3//5 2//5
f  3//5 8//5 9//5
f  1//6 6//6 5//6
f  6//7 1//7 3//7
f  6//8 3//8 10//8
f  10//9 3//9 9//9
f  6//10 8//10 7//10
f  8//10 6//10 10//11
f  8//10 10//11 9//12

