# {"id":"ID_10044","idOriginal":"ID_10044","origin":[14.28124442159942,48.24116637797641],"elevation":263.455}
# Longitude: 14.28124442159942
# Latitude: 48.24116637797641
# Elevation: 263.455

# File produced by Open Asset Import Library (http://www.assimp.sf.net)
# (assimp v3.1.0)

mtllib ID_10044.obj.mtl

# 18 vertex positions
v  15.404 5.817 16.911
v  16.141 9.356 5.668
v  16.131 9.36 5.656
v  3.253 9.36 9.91
v  6.515 5.817 19.847
v  1.194 5.85 -0.32
v  9.034 5.812 -3.028
v  0.309 6.162 0.941
v  0 5.826 3.5674e-16
v  0 0 0
v  0.309 -5.76196e-17 0.941
v  3.253 -6.06812e-16 9.91
v  6.515 -1.21528e-15 19.847
v  15.404 -1.0355e-15 16.911
v  16.141 -3.47065e-16 5.668
v  9.034 1.85412e-16 -3.028
v  16.131 -3.4633e-16 5.656
v  1.194 1.95943e-17 -0.32

# 0 UV coordinates

# 26 vertex normals
vn 0.0196407 0.953307 0.301364
vn 0.100636 0.947132 0.304651
vn 0.100629 0.94713 0.304662
vn -0.100655 0.947115 -0.3047
vn -0.100653 0.947114 -0.304704
vn -0.100351 0.947125 -0.304769
vn -0.100788 0.94699 -0.305043
vn -0.950087 -1.91035e-17 0.311984
vn -0.950127 2.03043e-05 0.311864
vn -0.950087 -0.000120566 0.311984
vn -0.950125 0 0.311871
vn -0.950117 0 0.311893
vn -0.950117 0 0.311893
vn 0.313631 -0 0.949545
vn 0.997858 0 0.0654116
vn 0.770843 0.016725 -0.636805
vn 0.774302 0 -0.632816
vn 2.52898e-19 -1 -6.17072e-17
vn -0.258871 0 -0.965912
vn -0.258871 5.9145e-17 -0.965912
vn -0.326481 0 -0.945204
vn -0.326481 0 -0.945204
vn 8.65138e-24 -1 -6.12323e-17
vn 2.47997e-24 -1 -6.12323e-17
vn -7.06835e-24 -1 -6.12324e-17
vn -1.35333e-24 -1 -6.12323e-17

# Mesh 'defaultobject' with 32 faces
g defaultobject
usemtl DefaultMaterial
f  1//1 2//1 3//1
f  4//2 1//2 3//2
f  1//3 4//3 5//3
f  6//4 3//4 7//4
f  3//4 6//4 4//5
f  4//6 6//6 8//6
f  8//7 6//7 9//7
f  10//8 8//8 9//8
f  8//9 10//9 4//9
f  4//10 10//10 11//10
f  4//11 11//11 12//11
f  4//12 12//12 5//12
f  5//12 12//12 13//13
f  13//14 1//14 5//14
f  1//14 13//14 14//14
f  1//15 15//15 2//15
f  15//15 1//15 14//15
f  2//16 7//16 3//16
f  7//17 2//17 15//17
f  7//17 15//17 16//17
f  16//18 15//18 17//18
f  18//19 9//19 6//19
f  9//19 18//19 10//20
f  7//21 18//21 6//21
f  18//21 7//21 16//22
f  12//23 14//23 13//23
f  14//23 12//23 15//18
f  15//18 12//23 11//24
f  15//18 11//24 17//18
f  17//18 11//24 16//18
f  16//18 11//24 18//25
f  18//25 11//24 10//26

