# File produced by Open Asset Import Library (http://www.assimp.sf.net)
# (assimp v3.1.0)

mtllib ID_10616.obj.mtl

# 32 vertex positions
v  3.368 7.575 -13.679
v  5.33 7.391 -13.421
v  3.42 7.388 -13.89
v  1.713 13.542 -6.939
v  17.562 7.41 -10.418
v  17.576 13.542 -3.073
v  17.589 8.141 3.396
v  1.085 11.277 -4.381
v  0.235 8.212 -0.919
v  0.147 7.894 -0.56
v  17.157 7.397 4.181
v  0 7.396 4.52874e-16
v  1.094 7.396 0.267
v  17.593 8.083 3.466
v  17.635 7.396 4.298
v  17.59 8.118 3.423
v  3.42 8.50517e-16 -13.89
v  3.368 8.37597e-16 -13.679
v  1.713 4.24891e-16 -6.939
v  1.085 2.68259e-16 -4.381
v  0.235 5.62725e-17 -0.919
v  0 0 0
v  0.147 3.42901e-17 -0.56
v  1.094 -1.6349e-17 0.267
v  17.157 -2.56012e-16 4.181
v  17.635 -2.63177e-16 4.298
v  17.593 -2.12231e-16 3.466
v  17.59 -2.09598e-16 3.423
v  17.589 -2.07945e-16 3.396
v  17.576 1.88167e-16 -3.073
v  17.562 6.37919e-16 -10.418
v  5.33 8.21799e-16 -13.421

# 0 UV coordinates

# 53 vertex normals
vn 0.154419 0.757994 -0.633719
vn 0.154402 0.758271 -0.633392
vn 0.15433 0.75826 -0.633423
vn 0.154359 0.758302 -0.633365
vn -0.154366 0.758274 0.633397
vn -0.154424 0.758214 0.633454
vn -0.154391 0.758263 0.633404
vn -0.154448 0.758064 0.633628
vn -0.154431 0.758133 0.63355
vn -0.154449 0.758081 0.633608
vn -0.0381629 0.986961 0.156368
vn -0.15354 0.758137 0.633761
vn -0.162636 0.759651 0.629666
vn -0.970949 0 -0.239286
vn -0.971156 -2.4857e-05 -0.238444
vn -0.971156 -2.46319e-05 -0.238445
vn -0.970949 0.000726935 -0.239285
vn -0.971151 9.83956e-06 -0.238465
vn -0.971158 3.40291e-06 -0.238438
vn -0.971161 -7.58351e-06 -0.238424
vn -0.971222 -0.000118502 -0.238176
vn -0.968422 0.00557561 -0.249253
vn -0.971156 -0.00122964 -0.238441
vn -0.968826 1.51698e-17 -0.247741
vn 0 -1 -6.12325e-17
vn -0.237099 -5.94863e-17 0.971485
vn -0.236739 -5.64709e-05 0.971573
vn -0.237099 0.0008289 0.971485
vn -0.236739 0 0.971573
vn -0.237751 0 0.971326
vn -0.237751 0 0.971326
vn 0.998728 0 -0.0504164
vn 0.998728 0 -0.0504164
vn 0.997575 0 -0.0696043
vn 0.999316 0 -0.0369911
vn 0.999316 0 -0.0369911
vn 0.999998 6.20505e-05 -0.00195785
vn 0.999998 0 -0.00195457
vn 0.999998 -0.0001027 -0.00200966
vn 0.999998 0 -0.00190605
vn 0.238424 0 -0.971161
vn 0.238466 0 -0.971151
vn 7.58142e-23 -1 -6.12323e-17
vn -3.86011e-22 -1 -6.12326e-17
vn 1.4037e-21 -1 -6.12316e-17
vn 9.43725e-24 -1 -6.12323e-17
vn -1.79212e-24 -1 -6.12323e-17
vn 8.74261e-25 -1 -6.12323e-17
vn -3.52632e-24 -1 -6.12323e-17
vn 1.20794e-22 -1 -6.12323e-17
vn 0 -1 -6.12323e-17
vn 5.17098e-23 -1 -6.12323e-17
vn -2.44016e-19 -1 -6.1291e-17

# Mesh 'defaultobject' with 59 faces
g defaultobject
usemtl DefaultMaterial
f  1//1 2//1 3//1
f  2//2 1//2 4//2
f  2//3 4//3 5//3
f  5//4 4//4 6//4
f  4//5 7//5 6//5
f  7//6 4//6 8//6
f  7//7 8//7 9//7
f  7//8 9//8 10//8
f  7//9 10//9 11//9
f  11//10 10//10 12//10
f  11//11 12//11 13//11
f  14//12 11//12 15//12
f  11//13 14//13 16//13
f  17//14 1//14 3//14
f  1//15 17//15 4//15
f  4//15 17//15 8//16
f  8//17 17//17 18//17
f  8//18 18//18 19//18
f  8//19 19//19 9//19
f  9//20 19//20 20//20
f  9//21 20//21 10//21
f  10//22 20//22 12//22
f  12//23 20//23 21//23
f  12//24 21//24 22//24
f  22//25 21//25 23//25
f  22//26 13//26 12//26
f  13//27 22//27 11//27
f  11//28 22//28 24//28
f  11//29 24//29 25//29
f  11//30 25//30 15//30
f  15//30 25//30 26//31
f  15//32 27//32 14//32
f  27//32 15//32 26//33
f  14//34 28//34 16//34
f  28//34 14//34 27//34
f  16//35 29//35 7//35
f  29//35 16//35 28//36
f  7//37 5//37 6//37
f  5//38 7//38 29//38
f  5//39 29//39 30//39
f  5//40 30//40 31//40
f  31//41 2//41 5//41
f  2//41 31//41 32//41
f  2//42 32//42 3//42
f  3//42 32//42 17//42
f  25//43 27//43 26//43
f  27//43 25//43 28//44
f  28//44 25//43 29//45
f  29//45 25//43 30//46
f  30//46 25//43 24//47
f  30//46 24//47 31//48
f  31//48 24//47 32//49
f  32//49 24//47 22//25
f  32//49 22//25 23//25
f  32//49 23//25 21//25
f  32//49 21//25 20//50
f  32//49 20//50 19//51
f  32//49 19//51 17//52
f  17//52 19//51 18//53

