# File produced by Open Asset Import Library (http://www.assimp.sf.net)
# (assimp v3.1.0)

mtllib ID_15649.obj.mtl

# 30 vertex positions
v  9.033 9.851 3.296
v  13.59 6.841 -3.187
v  12.806 6.848 -5.236
v  15.472 6.848 1.888
v  17.495 6.81 7.034
v  8.356 9.851 3.566
v  1.417 6.917 -0.529
v  0.159 6.903 -0.06
v  7.472 6.852 -3.097
v  12.784 6.819 -5.294
v  1.335 6.819 -0.726
v  4.497 6.819 12.048
v  0 6.825 4.17911e-16
v  4.626 6.882 12
v  6.107 6.866 11.447
v  6.146 6.822 11.535
v  15.472 -1.15607e-16 1.888
v  17.495 -4.30708e-16 7.034
v  13.59 1.95147e-16 -3.187
v  12.806 3.20613e-16 -5.236
v  12.784 3.24164e-16 -5.294
v  7.472 1.89637e-16 -3.097
v  1.335 4.44547e-17 -0.726
v  1.417 3.23919e-17 -0.529
v  0 0 0
v  0.159 3.67394e-18 -0.06
v  6.107 -7.00927e-16 11.447
v  6.146 -7.06315e-16 11.535
v  4.497 -7.37727e-16 12.048
v  4.626 -7.34788e-16 12

# 0 UV coordinates

# 54 vertex normals
vn 0.391409 0.908455 -0.14666
vn 0.391622 0.908392 -0.146481
vn 0.391451 0.908352 -0.14718
vn -0.154899 0.908391 -0.38837
vn -0.154938 0.908408 -0.388316
vn -0.154959 0.908406 -0.388312
vn -0.162584 0.905815 -0.391236
vn -0.15483 0.908467 -0.388221
vn -0.154664 0.908727 -0.387677
vn -0.390653 0.908843 0.146267
vn -0.391546 0.908408 0.146583
vn -0.388969 0.909274 0.148065
vn 0.154789 0.908458 0.388259
vn 0.151323 0.909324 0.387597
vn 0.154945 0.90843 0.388262
vn 0.15489 0.908392 0.388373
vn 0.930668 0 -0.365865
vn 0.930668 0 -0.365865
vn 0.937606 0 -0.347699
vn 0.933926 -0.00818816 -0.357372
vn 0.937601 0.00330713 -0.347697
vn 0.934866 0.000809566 -0.354998
vn 0.933967 -2.64309e-05 -0.35736
vn 0.935001 0 -0.354645
vn -0.382193 0 -0.924082
vn -0.382193 0 -0.924083
vn -0.360384 0 -0.932804
vn -0.360384 -0 -0.932804
vn -0.349327 0 -0.937001
vn -0.352752 -0.00071136 -0.935717
vn -0.349746 5.73652e-17 -0.936844
vn -2.27497e-22 1 6.12322e-17
vn -0.923216 0 0.384283
vn -0.923215 0 0.384283
vn -0.91424 0 0.405173
vn -0.936865 -2.14124e-17 0.349691
vn -0.936865 0 0.349691
vn 0.349782 -0.00244017 0.936828
vn 0.349721 0 0.936854
vn 0.349721 0 0.936854
vn 3.99552e-20 1 6.1318e-17
vn 0.368664 -0 0.929563
vn 0.368664 0 0.929563
vn 4.50835e-23 -1 -6.12322e-17
vn 3.13576e-24 -1 -6.12323e-17
vn 0 -1 -6.12323e-17
vn 0 -1 -6.12325e-17
vn 0 -1 -6.12323e-17
vn 0 -1 -6.12323e-17
vn 0 -1 -6.12323e-17
vn 0 -1 -6.12297e-17
vn 9.43051e-24 -1 -6.12323e-17
vn 1.95881e-24 -1 -6.12323e-17
vn 2.55282e-23 -1 -6.12323e-17

# Mesh 'defaultobject' with 56 faces
g defaultobject
usemtl DefaultMaterial
f  1//1 2//1 3//1
f  2//2 1//2 4//2
f  4//3 1//3 5//3
f  6//4 7//4 8//4
f  7//5 6//5 9//5
f  9//6 6//6 10//6
f  10//7 6//7 3//7
f  3//8 6//8 1//8
f  9//9 11//9 7//9
f  12//10 8//10 13//10
f  8//11 12//11 6//11
f  6//12 12//12 14//12
f  15//13 6//13 14//13
f  6//14 15//14 16//14
f  6//15 16//15 5//15
f  6//16 5//16 1//16
f  5//17 17//17 4//17
f  17//17 5//17 18//18
f  17//19 2//19 4//19
f  2//20 17//20 3//20
f  3//21 17//21 19//21
f  3//22 19//22 10//22
f  10//23 19//23 20//23
f  10//24 20//24 21//24
f  10//25 22//25 9//25
f  22//25 10//25 21//26
f  22//27 11//27 9//27
f  11//27 22//27 23//28
f  24//29 8//29 7//29
f  8//30 24//30 13//30
f  13//31 24//31 25//31
f  25//32 24//32 26//32
f  11//33 24//33 7//33
f  24//33 11//33 23//34
f  27//35 16//35 15//35
f  16//35 27//35 28//35
f  25//36 12//36 13//36
f  12//36 25//36 29//37
f  12//38 15//38 14//38
f  15//39 12//39 27//39
f  27//39 12//39 29//40
f  27//41 29//41 30//41
f  28//42 5//42 16//42
f  5//42 28//42 18//43
f  27//44 18//44 28//44
f  18//44 27//44 17//45
f  17//45 27//44 30//46
f  17//45 30//46 29//47
f  17//45 29//47 25//48
f  17//45 25//48 19//49
f  19//49 25//48 24//50
f  24//50 25//48 26//51
f  23//52 22//52 24//50
f  24//50 20//53 19//49
f  20//53 24//50 22//52
f  20//53 22//52 21//54

