# File produced by Open Asset Import Library (http://www.assimp.sf.net)
# (assimp v3.1.0)

mtllib ID_25188.obj.mtl

# 47 vertex positions
v  17.694 2.243 -3.935
v  12.031 1.957 2.35
v  18.93 1.956 -2.141
v  10.875 2.243 0.509
v  9.722 1.958 -1.327
v  14.638 2.134 -2.935
v  13.983 1.967 -4.017
v  17.23 2.135 -4.609
v  10.723 2.205 0.267
v  9.722 8.12553e-17 -1.327
v  12.031 -1.43896e-16 2.35
v  10.723 -1.6349e-17 0.267
v  10.875 -3.11673e-17 0.509
v  18.93 1.31098e-16 -2.141
v  17.694 2.40949e-16 -3.935
v  17.23 2.8222e-16 -4.609
v  14.638 1.79717e-16 -2.935
v  13.983 2.4597e-16 -4.017
v  2.242 2.667 3.416
v  2.69 2.663 -1.765
v  0 2.663 1.63062e-16
v  9.556 2.667 -1.35
v  8.048 2.665 -3.414
v  7.352 2.663 -4.742
v  8.178 2.665 -3.482
v  12.031 1.635 2.35
v  9.167 1.923 2.737
v  9.858 1.635 3.765
v  9.722 2.642 -1.327
v  9.615 2.642 -1.259
v  4.076 2.302 4.104
v  4.853 1.922 5.554
v  10.875 2.139 0.509
v  3.089 2.31 4.706
v  9.615 7.70915e-17 -1.259
v  8.178 2.13211e-16 -3.482
v  9.556 8.26637e-17 -1.35
v  8.048 2.09047e-16 -3.414
v  7.352 2.90364e-16 -4.742
v  2.69 1.08075e-16 -1.765
v  0 0 0
v  2.242 -2.0917e-16 3.416
v  3.089 -2.88159e-16 4.706
v  4.076 -2.51298e-16 4.104
v  4.853 -3.40084e-16 5.554
v  9.167 -1.67593e-16 2.737
v  9.858 -2.3054e-16 3.765

# 0 UV coordinates

# 80 vertex normals
vn 0.0713783 0.991428 0.109429
vn 0.0712294 0.991454 0.109296
vn -0.0714045 0.991387 -0.109789
vn -0.0712848 0.991396 -0.109784
vn -0.0710277 0.991502 -0.108987
vn -0.0712098 0.991467 -0.109185
vn -0.849268 0.0498166 0.525607
vn -0.846851 0.000491269 0.531831
vn -0.846871 0.000119839 0.531799
vn -0.846871 0 0.531799
vn -0.846871 0 0.531799
vn 0 -1 -6.14735e-17
vn 0 -1 -6.12593e-17
vn 0.545556 -0 0.838074
vn 0.545556 0 0.838074
vn 0.823479 0 -0.567347
vn 0.823479 0 -0.567347
vn 0.823685 0 -0.567048
vn 0.823685 0 -0.567048
vn 0.855463 0 -0.517864
vn 0.855463 0 -0.517864
vn -0.542526 0 -0.840039
vn -0.542526 -0 -0.840039
vn -0.533829 0 -0.845593
vn -0.533829 -0 -0.845593
vn 1.24615e-23 -1 -6.12323e-17
vn -1.47937e-24 -1 -6.12323e-17
vn -4.92482e-24 -1 -6.12323e-17
vn -9.17726e-24 -1 -6.12323e-17
vn -0.000537031 0.999999 -0.000818478
vn -0.000533122 0.999999 -0.00081814
vn -0.000548211 1 -0.000568503
vn -0.000720497 0.999999 -0.0011283
vn -0.000366727 1 -0.000701099
vn 0.123592 0.974013 0.189799
vn 0.121303 0.974091 0.190874
vn 0.123327 0.974161 0.189211
vn 0.123166 0.974306 0.188569
vn 0.123204 0.974204 0.189071
vn 0.121471 0.974445 0.18895
vn 0.123515 0.974153 0.189127
vn 0.123427 0.974153 0.189186
vn 0.135642 0.974179 0.180488
vn 0.123064 0.97427 0.188821
vn 0.839827 0.00612637 -0.54282
vn 0.839813 0 -0.542875
vn 0.839813 0 -0.542875
vn 6.78206e-20 -1 -6.12759e-17
vn 0.885727 0 -0.464206
vn 0.885727 0 -0.464206
vn 0.846885 0 -0.531776
vn 0.846885 0 -0.531776
vn 0.846816 0 -0.531886
vn 0.846864 1.16271e-05 -0.53181
vn 0.846816 -6.20503e-05 -0.531886
vn 0.846862 0 -0.531812
vn -0.463496 0 -0.886099
vn -0.538197 0 -0.842819
vn -0.548589 -0 -0.836092
vn -0.548589 5.11959e-17 -0.836092
vn -0.536364 0 -0.843987
vn -0.83602 -3.35981e-17 0.548699
vn -0.83602 0 0.548699
vn -0.835918 0 0.548855
vn -0.881426 0 0.472323
vn -0.881426 0 0.472323
vn -0.829933 0 0.557863
vn 0.520715 -0 0.853731
vn 0.546747 0 0.837298
vn 0.546747 0 0.837298
vn 0.545679 -0 0.837994
vn 0 -1 -6.12323e-17
vn -1.60648e-23 -1 -6.12323e-17
vn 1.68804e-23 -1 -6.12323e-17
vn 0 -1 -6.12324e-17
vn 1.56857e-23 -1 -6.12323e-17
vn 3.55637e-22 -1 -6.1232e-17
vn -8.49476e-24 -1 -6.12323e-17
vn 0 -1 -6.12323e-17
vn 0 -1 -6.12324e-17

# Mesh 'defaultobject' with 96 faces
g defaultobject
usemtl DefaultMaterial
f  1//1 2//1 3//1
f  2//2 1//2 4//2
f  5//3 6//3 7//3
f  6//4 1//4 8//4
f  1//5 6//5 4//5
f  4//6 6//6 5//6
f  4//7 5//7 9//7
f  9//8 2//8 4//8
f  2//9 9//9 5//9
f  2//10 5//10 10//10
f  2//10 10//10 11//11
f  11//12 10//12 12//12
f  11//12 12//12 13//13
f  11//14 3//14 2//14
f  3//14 11//14 14//15
f  14//16 1//16 3//16
f  1//16 14//16 15//17
f  1//18 15//18 8//18
f  8//18 15//18 16//19
f  17//20 7//20 6//20
f  7//20 17//20 18//21
f  16//22 6//22 8//22
f  6//22 16//22 17//23
f  18//24 5//24 7//24
f  5//24 18//24 10//25
f  18//26 17//26 10//12
f  13//13 14//27 11//12
f  14//27 13//13 12//12
f  14//27 12//12 10//12
f  14//27 10//12 17//26
f  14//27 17//26 15//28
f  15//28 17//26 16//29
f  19//30 20//30 21//30
f  20//30 19//30 22//31
f  20//32 22//32 23//32
f  20//33 23//33 24//33
f  23//34 22//34 25//34
f  26//35 27//35 28//35
f  29//36 30//36 9//36
f  27//37 31//37 32//37
f  31//38 27//38 19//38
f  19//39 27//39 22//39
f  22//40 27//40 30//40
f  30//41 27//41 26//41
f  30//42 26//42 33//42
f  30//43 33//43 9//43
f  19//44 34//44 31//44
f  30//45 25//45 22//45
f  25//46 30//46 35//46
f  25//46 35//46 36//47
f  36//48 35//48 37//48
f  38//49 24//49 23//49
f  24//49 38//49 39//50
f  11//51 33//51 26//51
f  33//51 11//51 13//52
f  33//53 13//53 9//53
f  9//54 13//54 29//54
f  29//55 13//55 12//55
f  29//56 12//56 10//56
f  36//57 23//57 25//57
f  23//57 36//57 38//57
f  39//58 20//58 24//58
f  20//58 39//58 40//58
f  20//59 40//59 21//59
f  21//59 40//59 41//60
f  10//61 30//61 29//61
f  30//61 10//61 35//61
f  41//62 19//62 21//62
f  19//62 41//62 42//63
f  19//64 42//64 34//64
f  34//64 42//64 43//64
f  44//65 32//65 31//65
f  32//65 44//65 45//66
f  46//67 28//67 27//67
f  28//67 46//67 47//67
f  43//68 31//68 34//68
f  31//68 43//68 44//68
f  32//69 46//69 27//69
f  46//69 32//69 45//70
f  47//71 26//71 28//71
f  26//71 47//71 11//71
f  47//72 13//13 11//12
f  13//13 47//72 46//73
f  13//13 46//73 12//12
f  12//12 46//73 45//74
f  12//12 45//74 10//12
f  10//12 45//74 35//48
f  35//48 45//74 37//48
f  37//48 45//74 44//72
f  37//48 44//72 36//48
f  36//48 44//72 43//75
f  36//48 43//75 42//76
f  36//48 42//76 38//77
f  38//77 42//76 39//78
f  39//78 42//76 41//79
f  39//78 41//79 40//80

