# File produced by Open Asset Import Library (http://www.assimp.sf.net)
# (assimp v3.1.0)

mtllib ID_27551.obj.mtl

# 16 vertex positions
v  3.98 4.649 -3.554
v  11.144 3.515 2.289
v  5.081 3.542 -4.537
v  13.396 3.542 4.9
v  8.785 8.153 8.962
v  0.171 8.48 -0.153
v  3.029 8.48 3.09
v  0 8.653 5.29843e-16
v  0 0 0
v  8.785 -5.48764e-16 8.962
v  3.029 -1.89208e-16 3.09
v  13.396 -3.00038e-16 4.9
v  11.144 -1.40161e-16 2.289
v  5.081 2.77811e-16 -4.537
v  0.171 9.36855e-18 -0.153
v  3.98 2.1762e-16 -3.554

# 0 UV coordinates

# 26 vertex normals
vn 0.450174 0.799988 -0.39669
vn 0.449951 0.800277 -0.39636
vn 0.4503 0.79986 -0.396804
vn 0.450234 0.799904 -0.396791
vn 0.450164 0.799978 -0.396722
vn 0.451666 0.798472 -0.398045
vn -0.71412 -4.2864e-17 0.700023
vn -0.714125 3.51212e-06 0.700018
vn -0.714124 0 0.70002
vn 0 -1 -6.05576e-17
vn 0.661024 -0 0.750365
vn 0.757247 0 -0.653129
vn 0.747552 -0.0143225 -0.664049
vn 0.756714 0.0375028 -0.65267
vn 0.747657 0 -0.664085
vn -0.666795 0 -0.745241
vn -0.666043 -2.72962e-05 -0.745914
vn -0.666029 -4.79504e-05 -0.745926
vn -0.666794 0.00192675 -0.74524
vn -0.666027 1.39201e-05 -0.745927
vn -0.666002 0 -0.74595
vn 3.14763e-24 -1 -6.12323e-17
vn 2.30251e-24 -1 -6.12323e-17
vn 0 -1 -6.12323e-17
vn -6.76141e-20 -1 -6.12583e-17
vn -3.14808e-19 -1 -6.15974e-17

# Mesh 'defaultobject' with 28 faces
g defaultobject
usemtl DefaultMaterial
f  1//1 2//1 3//1
f  2//2 1//2 4//2
f  4//3 1//3 5//3
f  5//4 1//4 6//4
f  5//5 6//5 7//5
f  7//6 6//6 8//6
f  9//7 7//7 8//7
f  7//7 9//7 5//8
f  5//8 9//7 10//9
f  10//10 9//10 11//10
f  10//11 4//11 5//11
f  4//11 10//11 12//11
f  12//12 2//12 4//12
f  2//13 12//13 3//13
f  3//14 12//14 13//14
f  3//15 13//15 14//15
f  6//16 9//16 8//16
f  9//17 6//17 1//17
f  9//18 1//18 3//18
f  9//19 3//19 15//19
f  15//20 3//20 16//20
f  16//21 3//21 14//21
f  11//10 12//22 10//10
f  12//22 11//10 13//23
f  13//23 11//10 9//10
f  13//23 9//10 14//24
f  14//24 9//10 15//25
f  14//24 15//25 16//26

