# File produced by Open Asset Import Library (http://www.assimp.sf.net)
# (assimp v3.1.0)

mtllib ID_28968.obj.mtl

# 33 vertex positions
v  4.478 3.115 3.192
v  4.52 3.102 3.18
v  4.448 3.115 3.079
v  5.541 3.102 6.405
v  2.178 3.102 -4.222
v  1.501 3.715 -0.398
v  0.609 3.661 -3.748
v  1.043 4.192 3.997
v  0 4.189 2.56502e-16
v  5.336 3.102 6.469
v  1.501 2.43705e-17 -0.398
v  0.609 2.29499e-16 -3.748
v  1.043 -2.44746e-16 3.997
v  0 0 0
v  4.448 -1.88534e-16 3.079
v  5.336 -3.96112e-16 6.469
v  4.478 -1.95454e-16 3.192
v  5.541 -3.92193e-16 6.405
v  2.178 2.58523e-16 -4.222
v  4.52 -1.94719e-16 3.18
v  2.178 3.172 -4.222
v  6.826 3.172 -5.187
v  6.714 3.172 -5.591
v  7.524 3.172 -2.991
v  9.052 3.172 1.812
v  4.52 3.172 3.18
v  10.062 3.172 4.989
v  5.541 3.172 6.405
v  10.062 -3.05488e-16 4.989
v  9.052 -1.10953e-16 1.812
v  7.524 1.83146e-16 -2.991
v  6.826 3.17612e-16 -5.187
v  6.714 3.4235e-16 -5.591

# 0 UV coordinates

# 43 vertex normals
vn 0.275745 0.958439 -0.0732072
vn 0.272048 0.958421 -0.0861275
vn 0.307321 0.946625 -0.0972367
vn 0.307509 0.946558 -0.097295
vn 0.307832 0.94646 -0.0972223
vn 0.282458 0.956393 -0.0743649
vn 0.282309 0.956435 -0.0743851
vn 0.00114489 0.999993 0.00366726
vn -0.966331 0 0.257304
vn -0.966331 0 0.257304
vn -0.967599 0 0.252491
vn -0.967599 0 0.252491
vn -0.966518 0 0.2566
vn -0.967391 0.000128563 0.253287
vn -0.967362 0 0.253398
vn -3.90168e-20 -1 -6.12271e-17
vn 0.260309 -0 0.965525
vn 0.260309 0 0.965525
vn 0.298008 -0 0.954563
vn 0.953415 0 -0.301661
vn 0.953364 0 -0.301825
vn -0.289194 0 -0.95727
vn -0.289194 0 -0.95727
vn -0.2563 0 -0.966597
vn -0.2563 0 -0.966597
vn -1.03162e-24 -1 -6.12323e-17
vn 2.47083e-22 -1 -6.12324e-17
vn 4.57681e-22 -1 -6.12325e-17
vn 6.99154e-24 -1 -6.12323e-17
vn 0 1 0
vn -0.953415 0 0.301661
vn -0.953364 0 0.301825
vn 0.298888 -0 0.954288
vn 0.953001 0 -0.302968
vn 0.952939 0 -0.303163
vn 0.953017 0 -0.302917
vn 0.963654 0 -0.267153
vn -0.288935 0 -0.957349
vn -3.30336e-24 -1 -6.12323e-17
vn -1.67744e-24 -1 -6.12323e-17
vn 0 -1 -6.12323e-17
vn 1.21638e-24 -1 -6.12323e-17
vn 1.3329e-23 -1 -6.12323e-17

# Mesh 'defaultobject' with 64 faces
g defaultobject
usemtl DefaultMaterial
f  1//1 2//1 3//1
f  2//2 1//2 4//2
f  5//3 3//3 2//3
f  3//4 5//4 6//4
f  6//5 5//5 7//5
f  6//6 8//6 3//6
f  8//7 6//7 9//7
f  4//8 1//8 10//8
f  7//9 11//9 6//9
f  11//9 7//9 12//10
f  9//11 13//11 8//11
f  13//11 9//11 14//12
f  15//13 1//13 3//13
f  1//14 15//14 10//14
f  10//15 15//15 16//15
f  16//16 15//16 17//16
f  13//17 3//17 8//17
f  3//17 13//17 15//18
f  16//19 4//19 10//19
f  4//19 16//19 18//19
f  2//20 19//20 5//20
f  19//20 2//20 20//20
f  20//21 2//21 4//21
f  20//21 4//21 18//21
f  5//22 12//22 7//22
f  12//22 5//22 19//23
f  6//24 14//24 9//24
f  14//24 6//24 11//25
f  14//26 11//26 13//26
f  16//16 20//27 18//27
f  20//27 16//16 17//16
f  20//27 17//16 15//16
f  20//27 15//16 19//28
f  19//28 15//16 13//26
f  19//28 13//26 11//26
f  19//28 11//26 12//29
f  21//30 22//30 23//30
f  22//30 21//30 24//30
f  24//30 21//30 25//30
f  25//30 21//30 26//30
f  25//30 26//30 27//30
f  27//30 26//30 28//30
f  19//31 26//31 21//31
f  26//31 19//31 20//31
f  26//32 20//32 28//32
f  28//32 20//32 18//32
f  18//33 27//33 28//33
f  27//33 18//33 29//33
f  29//34 25//34 27//34
f  25//34 29//34 30//34
f  25//35 30//35 24//35
f  24//35 30//35 31//35
f  24//36 31//36 22//36
f  22//36 31//36 32//36
f  32//37 23//37 22//37
f  23//37 32//37 33//37
f  33//38 21//38 23//38
f  21//38 33//38 19//38
f  20//27 29//39 18//27
f  29//39 20//27 30//40
f  30//40 20//27 19//28
f  30//40 19//28 31//41
f  31//41 19//28 32//42
f  32//42 19//28 33//43

