# File produced by Open Asset Import Library (http://www.assimp.sf.net)
# (assimp v3.1.0)

mtllib ID_46791.obj.mtl

# 10 vertex positions
v  0 1.667 1.02074e-16
v  3.617 2.937 -5.578
v  0.665 1.681 -5.91
v  3.223 2.942 -1.784
v  2.984 2.937 0.336
v  3.617 3.41554e-16 -5.578
v  0.665 3.61883e-16 -5.91
v  0 0 0
v  2.984 -2.05741e-17 0.336
v  3.223 1.09238e-16 -1.784

# 0 UV coordinates

# 16 vertex normals
vn -0.38723 0.921054 -0.0413897
vn -0.387287 0.921028 -0.0414328
vn -0.387314 0.921014 -0.0414921
vn 0.111761 0 -0.993735
vn 0.111761 0 -0.993735
vn -0.993729 0 -0.111816
vn -0.993729 6.84673e-18 -0.111816
vn -0.111893 0 0.99372
vn -0.111893 0 0.99372
vn 0.994651 0 0.103293
vn 0.993644 -0.0113542 0.111993
vn 0.994631 0.00638092 0.103291
vn 0.993705 0 0.112026
vn -3.74563e-24 -1 -6.12323e-17
vn 0 -1 -6.12323e-17
vn 0 -1 -6.12323e-17

# Mesh 'defaultobject' with 16 faces
g defaultobject
usemtl DefaultMaterial
f  1//1 2//1 3//1
f  2//2 1//2 4//2
f  4//3 1//3 5//3
f  6//4 3//4 2//4
f  3//4 6//4 7//5
f  7//6 1//6 3//6
f  1//6 7//6 8//7
f  1//8 9//8 5//8
f  9//8 1//8 8//9
f  4//10 6//10 2//10
f  6//11 4//11 5//11
f  6//12 5//12 10//12
f  10//13 5//13 9//13
f  6//14 8//14 7//14
f  8//14 6//14 10//15
f  8//14 10//15 9//16

