# File produced by Open Asset Import Library (http://www.assimp.sf.net)
# (assimp v3.1.0)

mtllib ID_41027.obj.mtl

# 14 vertex positions
v  7.035 6.08 2.405
v  6.112 6.08 2.998
v  7.053 6.101 2.436
v  2.941 6.011 4.89
v  4.04 2.728 -2.593
v  0.333 3.09 0.534
v  0 2.728 1.67042e-16
v  0.333 -3.26981e-17 0.534
v  0 0 0
v  2.941 -2.99426e-16 4.89
v  7.053 -1.49162e-16 2.436
v  6.112 -1.83575e-16 2.998
v  4.04 1.58775e-16 -2.593
v  7.035 -1.47264e-16 2.405

# 0 UV coordinates

# 22 vertex normals
vn -0.273428 0.862619 -0.425588
vn -0.265729 0.870815 -0.413605
vn -0.269428 0.866697 -0.419814
vn -0.269497 0.866676 -0.419815
vn -0.269343 0.866804 -0.419648
vn -0.848534 0 0.529142
vn -0.857979 0 0.513685
vn 0.512383 -0 0.858757
vn 0.512755 -0.000262837 0.858535
vn 0.512467 0 0.858707
vn -3.4403e-20 1 6.11762e-17
vn 0.864787 0 -0.502139
vn 0.857805 -8.1023e-05 -0.513976
vn 0.857824 0 -0.513944
vn -1.10324e-19 1 6.13031e-17
vn -0.540147 0 -0.841571
vn -0.540147 5.15314e-17 -0.841571
vn -2.52658e-22 -1 -6.12328e-17
vn -4.1429e-24 -1 -6.12323e-17
vn 9.7813e-24 -1 -6.12323e-17
vn -8.71329e-24 -1 -6.12323e-17
vn 0 -1 -6.12323e-17

# Mesh 'defaultobject' with 24 faces
g defaultobject
usemtl DefaultMaterial
f  1//1 2//1 3//1
f  2//2 1//2 4//2
f  4//3 1//3 5//3
f  4//4 5//4 6//4
f  6//5 5//5 7//5
f  7//6 8//6 6//6
f  8//6 7//6 9//6
f  6//7 10//7 4//7
f  10//7 6//7 8//7
f  10//8 2//8 4//8
f  2//9 10//9 3//9
f  3//10 10//10 11//10
f  11//11 10//11 12//11
f  11//12 1//12 3//12
f  1//13 11//13 5//13
f  5//14 11//14 13//14
f  13//15 11//11 14//15
f  13//16 7//16 5//16
f  7//16 13//16 9//17
f  12//18 14//18 11//18
f  14//18 12//18 13//19
f  13//19 12//18 10//20
f  13//19 10//20 8//21
f  13//19 8//21 9//22

