# File produced by Open Asset Import Library (http://www.assimp.sf.net)
# (assimp v3.1.0)

mtllib ID_47690.obj.mtl

# 12 vertex positions
v  3.671 4.642 2.011
v  0.484 3.056 4.761
v  3.956 3.056 4.408
v  0.24 4.642 2.36
v  0 3.083 1.88779e-16
v  3.382 3.037 -0.414
v  0 0 0
v  3.382 2.53502e-17 -0.414
v  0.24 -1.44508e-16 2.36
v  0.484 -2.91527e-16 4.761
v  3.956 -2.69912e-16 4.408
v  3.671 -1.23138e-16 2.011

# 0 UV coordinates

# 19 vertex normals
vn 0.0555479 0.835711 0.546353
vn 0.0555772 0.835694 0.546376
vn -0.0555275 0.835644 -0.546458
vn -0.055579 0.835682 -0.546394
vn -0.121506 0 -0.992591
vn -0.121506 0 -0.992591
vn -0.994869 -6.19507e-18 0.101173
vn -0.994874 2.67253e-05 0.101121
vn -0.994869 -5.517e-05 0.101173
vn -0.994876 0 0.101104
vn 0.101149 -0 0.994871
vn 0.992989 -0.000207613 -0.118202
vn 0.992989 0 -0.118203
vn 0.992973 0.000215522 -0.118338
vn 0.993006 0 -0.118067
vn 0 -1 -6.12323e-17
vn -3.23555e-24 -1 -6.12323e-17
vn -3.9754e-24 -1 -6.12323e-17
vn -3.9282e-24 -1 -6.12323e-17

# Mesh 'defaultobject' with 20 faces
g defaultobject
usemtl DefaultMaterial
f  1//1 2//1 3//1
f  2//2 1//2 4//2
f  5//3 1//3 6//3
f  1//4 5//4 4//4
f  6//5 7//5 5//5
f  7//5 6//5 8//6
f  7//7 4//7 5//7
f  4//8 7//8 2//8
f  2//9 7//9 9//9
f  2//10 9//10 10//10
f  10//11 3//11 2//11
f  3//11 10//11 11//11
f  3//12 6//12 1//12
f  6//13 3//13 8//13
f  8//14 3//14 12//14
f  12//15 3//15 11//15
f  12//16 7//16 8//16
f  7//16 12//16 9//17
f  9//17 12//16 10//18
f  10//18 12//16 11//19

