# {"id":"_19036","idOriginal":"_19036","origin":[14.295612080583158,48.29335270283851],"elevation":260.786}
# Longitude: 14.295612080583158
# Latitude: 48.29335270283851
# Elevation: 260.786

# File produced by Open Asset Import Library (http://www.assimp.sf.net)
# (assimp v3.1.0)

mtllib _19036.obj.mtl

# 26 vertex positions
v  23.798 3.661 -15.825
v  21.978 3.664 -14.644
v  22.104 3.622 -14.558
v  3.102 2.298 3.183
v  13.482 3.628 -8.937
v  0 3.601 2.20498e-16
v  26.506 2.248 -11.942
v  15.698 3.64 -10.436
v  26.133 2.468 -12.576
v  27.662 3.645 -18.291
v  30.313 2.472 -15.33
v  28.194 3.643 -18.631
v  29.86 2.722 -16.036
v  28.194 1.14082e-15 -18.631
v  27.662 1.12e-15 -18.291
v  23.798 9.69002e-16 -15.825
v  21.978 8.96686e-16 -14.644
v  15.698 6.39021e-16 -10.436
v  22.104 8.9142e-16 -14.558
v  13.482 5.47233e-16 -8.937
v  0 0 0
v  3.102 -1.94903e-16 3.183
v  26.506 7.31237e-16 -11.942
v  30.313 9.38692e-16 -15.33
v  26.133 7.70058e-16 -12.576
v  29.86 9.81922e-16 -16.036

# 0 UV coordinates

# 45 vertex normals
vn 0.156505 0.958386 0.238751
vn 0.156796 0.958169 0.239432
vn 0.156765 0.95818 0.239406
vn 0.156768 0.958175 0.239424
vn 0.156772 0.958167 0.239455
vn 0.156894 0.958195 0.239264
vn 0.148367 0.958062 0.245161
vn 0.156664 0.958233 0.239262
vn 0.156731 0.958218 0.239276
vn 0.156597 0.958211 0.239393
vn 0.834981 0.374642 -0.40305
vn -0.538515 0 -0.842616
vn -0.537976 0.000110764 -0.84296
vn -0.538514 -0.000800012 -0.842616
vn -0.537976 -0 -0.84296
vn -0.54434 -0 -0.838865
vn -0.54434 -0 -0.838865
vn -0.541116 0 -0.840948
vn -0.541116 0 -0.840948
vn -0.560294 0 -0.828294
vn -0.552512 0.00689489 -0.833476
vn -0.559799 -0.0420138 -0.827562
vn -0.552516 5.10373e-17 -0.833503
vn -0.563747 0 0.825947
vn -0.563747 0 0.825947
vn -0.71616 -4.27362e-17 0.697936
vn -0.71616 0 0.697936
vn 0.542777 -0 0.839877
vn 0.550174 0 0.83505
vn 0.550174 0 0.83505
vn 0.861899 0 -0.507081
vn 0.861899 0 -0.507081
vn 0.841505 0 -0.540249
vn 0.841608 -0.000216698 -0.540088
vn 0.841505 8.68221e-05 -0.540249
vn 0.841643 0 -0.540034
vn 2.16734e-23 -1 -6.12324e-17
vn 5.99578e-24 -1 -6.12323e-17
vn 6.68751e-24 -1 -6.12323e-17
vn 2.05768e-24 -1 -6.12323e-17
vn 2.95742e-22 -1 -6.12326e-17
vn 0 -1 -6.12323e-17
vn -5.38063e-24 -1 -6.12323e-17
vn 0 -1 -6.12323e-17
vn 1.19959e-19 -1 -6.13092e-17

# Mesh 'defaultobject' with 48 faces
g defaultobject
usemtl DefaultMaterial
f  1//1 2//1 3//1
f  4//2 5//2 6//2
f  5//3 4//3 7//3
f  5//4 7//4 8//4
f  8//5 7//5 3//5
f  3//6 7//6 1//6
f  1//7 7//7 9//7
f  9//8 10//8 1//8
f  10//9 9//9 11//9
f  10//10 11//10 12//10
f  12//11 11//11 13//11
f  14//12 10//12 12//12
f  10//13 14//13 1//13
f  1//14 14//14 15//14
f  1//15 15//15 16//15
f  1//16 16//16 2//16
f  2//16 16//16 17//17
f  3//18 18//18 8//18
f  18//18 3//18 19//19
f  18//20 5//20 8//20
f  5//21 18//21 6//21
f  6//22 18//22 20//22
f  6//23 20//23 21//23
f  17//24 3//24 2//24
f  3//24 17//24 19//25
f  21//26 4//26 6//26
f  4//26 21//26 22//27
f  22//28 7//28 4//28
f  7//28 22//28 23//28
f  9//29 24//29 11//29
f  24//29 9//29 25//30
f  7//31 25//31 9//31
f  25//31 7//31 23//32
f  13//33 14//33 12//33
f  14//34 13//34 11//34
f  14//35 11//35 26//35
f  26//36 11//36 24//36
f  16//37 19//37 17//37
f  20//38 22//38 21//38
f  22//38 20//38 23//39
f  23//39 20//38 18//40
f  23//39 18//40 19//37
f  23//39 19//37 16//37
f  23//39 16//37 25//41
f  25//41 16//37 15//42
f  25//41 15//42 24//43
f  24//43 15//42 14//44
f  24//43 14//44 26//45

