# {"id":"ID_15864","idOriginal":"ID_15864","origin":[14.281746977694347,48.31087678597408],"elevation":262.167,"wof":[{"Id":85681677,"Name":"Oberösterreich","Placetype":"region","Offset":-1},{"Id":85898453,"Name":"Urfahr","Placetype":"neighbourhood","Offset":-1},{"Id":102049853,"Name":"Linz","Placetype":"county","Offset":-1},{"Id":101748071,"Name":"Linz","Placetype":"locality","Offset":-1},{"Id":85632785,"Name":"Austria","Placetype":"country","Offset":-1}]}

# Attribution: City of Linz <http://geo.data.linz.gv.at/katalog/geodata/3d_geo_daten_lod2/>
# Longitude: 14.281746977694347
# Latitude: 48.31087678597408
# Elevation: 262.167

# File produced by Open Asset Import Library (http://www.assimp.sf.net)
# (assimp v3.1.0)


# 18 vertex positions
v  3.34 18.162 6.008
v  17.014 15.195 3.992
v  14.635 18.162 -0.256
v  18.089 13.92 5.788
v  6.722 13.92 12.092
v  0 13.973 8.556e-16
v  11.451 14.191 -5.942
v  11.213 13.894 -6.367
v  0.131 14.137 0.235
v  0 0 0
v  11.213 3.89866e-16 -6.367
v  0.131 -1.43896e-17 0.235
v  6.722 -7.40421e-16 12.092
v  3.34 -3.67884e-16 6.008
v  18.089 -3.54413e-16 5.788
v  17.014 -2.44439e-16 3.992
v  14.635 1.56755e-17 -0.256
v  11.451 3.63843e-16 -5.942

# 0 UV coordinates

# 28 vertex normals
vn 0.252382 0.853932 0.455085
vn 0.252383 0.853907 0.455133
vn 0.252389 0.853927 0.455092
vn -0.252493 0.853805 -0.455263
vn -0.252387 0.853948 -0.455053
vn -0.252367 0.853869 -0.455213
vn -0.252381 0.853934 -0.455083
vn -0.493774 0 -0.869591
vn -0.493774 0 -0.869591
vn -0.874039 -1.30026e-05 0.485856
vn -0.874022 0.0019214 0.485882
vn -0.874028 0 0.485876
vn -0.873455 -0.00117136 0.486904
vn -0.874039 0 0.485856
vn 5.78241e-19 1 6.12936e-17
vn 0.484996 -0 0.874516
vn 0.85804 0 -0.513582
vn 0.85804 0 -0.513582
vn 0.872496 0 -0.488622
vn 0.872514 9.86977e-06 -0.48859
vn 0.872507 -1.4823e-06 -0.488602
vn 0.872507 0 -0.488601
vn 0 -1 -6.13623e-17
vn 5.93702e-19 1 6.08545e-17
vn 2.92558e-25 -1 -6.12323e-17
vn 2.31239e-25 -1 -6.12323e-17
vn 0 -1 -6.12322e-17
vn 0 -1 -6.02693e-17

# Mesh 'defaultobject' with 32 faces
g defaultobject
usemtl DefaultMaterial
f  1//1 2//1 3//1
f  2//2 1//2 4//2
f  4//3 1//3 5//3
f  6//4 7//4 8//4
f  7//5 6//5 3//5
f  3//6 6//6 9//6
f  3//7 9//7 1//7
f  8//8 10//8 6//8
f  10//8 8//8 11//9
f  9//10 5//10 1//10
f  5//11 9//11 6//11
f  5//12 6//12 10//12
f  5//13 10//13 12//13
f  5//14 12//14 13//14
f  13//15 12//15 14//15
f  13//16 4//16 5//16
f  4//16 13//16 15//16
f  4//17 16//17 2//17
f  16//17 4//17 15//18
f  16//19 3//19 2//19
f  3//20 16//20 7//20
f  7//21 16//21 8//21
f  8//21 16//21 11//22
f  11//23 16//23 17//23
f  11//24 17//24 18//24
f  14//25 15//25 13//25
f  15//25 14//25 12//26
f  15//25 12//26 10//27
f  15//25 10//27 16//23
f  16//23 10//27 17//23
f  17//23 10//27 11//23
f  17//23 11//23 18//28

