# {"id":"ID_10021","idOriginal":"ID_10021","origin":[14.29491466115794,48.284568591226964],"elevation":261.404}
# Longitude: 14.29491466115794
# Latitude: 48.284568591226964
# Elevation: 261.404

# File produced by Open Asset Import Library (http://www.assimp.sf.net)
# (assimp v3.1.0)

mtllib ID_10021.obj.mtl

# 30 vertex positions
v  6.892 13.887 -1.476
v  7.283 13.887 0.043
v  6.921 13.887 -1.482
v  0 13.887 8.50334e-16
v  13.567 13.887 -3.98
v  18.821 13.887 11.048
v  15.424 13.887 -4.364
v  11.62 13.887 -3.578
v  8.823 13.887 -3
v  9.419 13.887 -0.421
v  6.422 13.887 13.664
v  3.732 13.887 14.608
v  3.257 13.887 14.823
v  10.059 13.887 12.897
v  6.491 13.887 14.029
v  6.921 9.07463e-17 -1.482
v  0 0 0
v  6.892 9.03789e-17 -1.476
v  15.424 2.67218e-16 -4.364
v  8.823 1.83697e-16 -3
v  13.567 2.43705e-16 -3.98
v  11.62 2.19089e-16 -3.578
v  9.419 2.57788e-17 -0.421
v  7.283 -2.63299e-18 0.043
v  3.257 -9.07647e-16 14.823
v  3.732 -8.94482e-16 14.608
v  6.491 -8.59029e-16 14.029
v  6.422 -8.36679e-16 13.664
v  18.821 -6.76495e-16 11.048
v  10.059 -7.89713e-16 12.897

# 0 UV coordinates

# 33 vertex normals
vn -0 1 0
vn -0.202604 0 -0.979261
vn -0.209413 -1.48371e-05 -0.977827
vn -0.209384 5.9875e-17 -0.977833
vn -9.11214e-21 1 6.11971e-17
vn -0.202501 0 -0.979282
vn -0.202206 4.10825e-05 -0.979343
vn -0.202374 -6.82868e-06 -0.979308
vn -0.20236 -0 -0.979311
vn -2.16277e-20 -1 -6.13362e-17
vn 2.04135e-20 1 6.13222e-17
vn -0.212278 0 -0.977209
vn -0.976701 -1.31409e-17 0.214607
vn -0.976701 0 0.214607
vn -0.974321 0 0.225163
vn 0.412358 -0 0.911022
vn 0.205385 -0 0.978681
vn 0.206349 -0 0.978478
vn 0.206478 -3.51116e-05 0.978451
vn 0.20644 0 0.978459
vn -2.42513e-20 1 6.11132e-17
vn 0.982597 0 -0.185751
vn 0.97656 0 -0.215246
vn 0.972963 0 -0.230959
vn 2.84421e-23 -1 -6.12322e-17
vn 1.49842e-24 -1 -6.12323e-17
vn -2.60709e-22 -1 -6.12324e-17
vn 6.29826e-24 -1 -6.12323e-17
vn 0 -1 -6.12323e-17
vn 3.06886e-26 -1 -6.12323e-17
vn 0 -1 -6.12323e-17
vn 4.69909e-21 -1 -6.12101e-17
vn -1.70092e-20 -1 -6.13283e-17

# Mesh 'defaultobject' with 56 faces
g defaultobject
usemtl DefaultMaterial
f  1//1 2//1 3//1
f  2//1 1//1 4//1
f  5//1 6//1 7//1
f  6//1 5//1 8//1
f  6//1 8//1 9//1
f  6//1 9//1 10//1
f  6//1 10//1 2//1
f  6//1 2//1 4//1
f  6//1 4//1 11//1
f  11//1 4//1 12//1
f  12//1 4//1 13//1
f  6//1 11//1 14//1
f  11//1 12//1 15//1
f  16//2 1//2 3//2
f  1//3 16//3 4//3
f  4//4 16//4 17//4
f  17//5 16//5 18//5
f  19//6 5//6 7//6
f  5//7 19//7 8//7
f  8//8 19//8 9//8
f  9//9 19//9 20//9
f  20//10 19//10 21//10
f  20//11 21//11 22//11
f  23//12 2//12 10//12
f  2//12 23//12 24//12
f  17//13 13//13 4//13
f  13//13 17//13 25//14
f  20//15 10//15 9//15
f  10//15 20//15 23//15
f  25//16 12//16 13//16
f  12//16 25//16 26//16
f  26//17 15//17 12//17
f  15//17 26//17 27//17
f  28//18 14//18 11//18
f  14//19 28//19 6//19
f  6//20 28//20 29//20
f  29//21 28//21 30//21
f  27//22 11//22 15//22
f  11//22 27//22 28//22
f  29//23 7//23 6//23
f  7//23 29//23 19//23
f  24//24 3//24 2//24
f  3//24 24//24 16//24
f  26//25 28//25 27//25
f  30//26 19//10 29//26
f  19//10 30//26 28//25
f  19//10 28//25 26//25
f  19//10 26//25 25//27
f  19//10 25//27 23//28
f  23//28 25//27 24//29
f  24//29 25//27 17//30
f  24//29 17//30 16//31
f  16//31 17//30 18//32
f  23//28 21//10 19//10
f  21//10 23//28 20//10
f  21//10 20//10 22//33

