# {"id":"ID_4444","idOriginal":"ID_4444","origin":[14.302996992569506,48.27265650600444],"elevation":279.703}
# Longitude: 14.302996992569506
# Latitude: 48.27265650600444
# Elevation: 279.703

# File produced by Open Asset Import Library (http://www.assimp.sf.net)
# (assimp v3.1.0)

mtllib ID_4444.obj.mtl

# 23 vertex positions
v  25.429 9.945 25.546
v  18.581 8.871 31.702
v  26.376 8.805 27.162
v  20.48 12.153 24.28
v  23.606 9.944 22.436
v  4.615 12.153 -2.762
v  25.132 8.853 21.493
v  11.45 8.855 -1.823
v  10.219 8.855 -3.921
v  9.266 8.854 -5.546
v  0 8.88 5.43743e-16
v  18.507 8.819 31.745
v  25.132 -1.31607e-15 21.493
v  11.45 1.11627e-16 -1.823
v  10.219 2.40092e-16 -3.921
v  9.266 3.39595e-16 -5.546
v  26.376 -1.66319e-15 27.162
v  23.606 -1.37381e-15 22.436
v  25.429 -1.56424e-15 25.546
v  0 0 0
v  4.615 1.69124e-16 -2.762
v  18.507 -1.94382e-15 31.745
v  18.581 -1.94119e-15 31.702

# 0 UV coordinates

# 39 vertex normals
vn 0.267053 0.854211 0.446102
vn 0.267014 0.854243 0.446064
vn 0.448419 0.854216 -0.263126
vn 0.44844 0.854216 -0.263091
vn 0.448293 0.854331 -0.26297
vn 0.448343 0.85429 -0.263017
vn 0.448342 0.854275 -0.263064
vn 0.448242 0.854224 -0.263402
vn -0.448398 0.854246 0.263066
vn -0.448362 0.854275 0.263032
vn -0.447475 0.85462 0.263421
vn 0.862472 0 -0.506105
vn 0.862494 0 -0.506068
vn 0.862602 5.87766e-05 -0.505883
vn 0.862494 -4.55313e-05 -0.506068
vn 0.862602 0 -0.505883
vn 0.86271 -0.000195885 -0.505698
vn 0.862731 0 -0.505663
vn 0.862731 0 -0.505663
vn 9.19711e-19 1 6.06353e-17
vn -0.5136 0 -0.85803
vn -0.513552 2.52233e-05 -0.858059
vn -0.513569 5.25403e-17 -0.858048
vn -5.04647e-20 -1 -6.12641e-17
vn -0.863908 -3.08396e-17 0.503649
vn -0.863908 0 0.503649
vn 0.503274 -0.00160736 0.864125
vn 0.503277 0 0.864125
vn 0.503277 0 0.864125
vn -8.32667e-19 1 5.96745e-17
vn 0.525683 -0 0.85068
vn 0.525683 0 0.85068
vn 0 -1 -6.1234e-17
vn 7.66604e-24 -1 -6.12323e-17
vn -2.8817e-22 -1 -6.12321e-17
vn 7.81545e-23 -1 -6.12324e-17
vn -4.6851e-23 -1 -6.12323e-17
vn 0 -1 -6.12323e-17
vn -1.00775e-24 -1 -6.12323e-17

# Mesh 'defaultobject' with 42 faces
g defaultobject
usemtl DefaultMaterial
f  1//1 2//1 3//1
f  2//2 1//2 4//2
f  5//3 4//3 1//3
f  4//4 5//4 6//4
f  6//5 5//5 7//5
f  6//6 7//6 8//6
f  6//7 8//7 9//7
f  6//8 9//8 10//8
f  11//9 4//9 6//9
f  4//10 11//10 12//10
f  4//11 12//11 2//11
f  13//12 8//12 7//12
f  8//12 13//12 14//12
f  8//13 14//13 9//13
f  9//14 14//14 10//14
f  10//15 14//15 15//15
f  10//16 15//16 16//16
f  3//17 5//17 1//17
f  5//18 3//18 17//18
f  5//18 17//18 18//19
f  18//20 17//20 19//20
f  16//21 6//21 10//21
f  6//22 16//22 11//22
f  11//23 16//23 20//23
f  20//24 16//24 21//24
f  20//25 12//25 11//25
f  12//25 20//25 22//26
f  12//27 3//27 2//27
f  3//28 12//28 22//28
f  3//28 22//28 17//29
f  17//20 22//30 23//30
f  18//31 7//31 5//31
f  7//31 18//31 13//32
f  20//24 23//33 22//33
f  23//33 20//24 17//34
f  17//34 20//24 19//35
f  19//35 20//24 18//36
f  18//36 20//24 13//37
f  13//37 20//24 14//38
f  14//38 20//24 15//39
f  15//39 20//24 21//24
f  15//39 21//24 16//24

