# {"id":"ID_53456","idOriginal":"ID_53456","origin":[14.319745280976255,48.233616405073484],"elevation":263.32,"wof":[{"Id":85681677,"Name":"Oberösterreich","Placetype":"region","Offset":-1},{"Id":85898417,"Name":"Ebelsberg","Placetype":"neighbourhood","Offset":-1},{"Id":102049853,"Name":"Linz","Placetype":"county","Offset":-1},{"Id":85632785,"Name":"Austria","Placetype":"country","Offset":-1}]}

# Attribution: City of Linz <http://geo.data.linz.gv.at/katalog/geodata/3d_geo_daten_lod2/>
# Longitude: 14.319745280976255
# Latitude: 48.233616405073484
# Elevation: 263.32

# File produced by Open Asset Import Library (http://www.assimp.sf.net)
# (assimp v3.1.0)


# 8 vertex positions
v  2.244 1.48 0.705
v  1.185 1.48 -3.692
v  0 1.48 9.06239e-17
v  3.506 1.48 -2.998
v  1.185 2.2607e-16 -3.692
v  0 0 0
v  2.244 -4.31688e-17 0.705
v  3.506 1.83575e-16 -2.998

# 0 UV coordinates

# 9 vertex normals
vn 0 1 0
vn -0.952157 0 -0.305608
vn -0.952157 1.87131e-17 -0.305608
vn -0.299727 -5.84172e-17 0.954025
vn -0.299727 0 0.954025
vn 0.94654 -0 0.322585
vn 0.286477 0 -0.958087
vn 0 -1 -6.12323e-17
vn -1.11799e-23 -1 -6.12323e-17

# Mesh 'defaultobject' with 12 faces
g defaultobject
usemtl DefaultMaterial
f  1//1 2//1 3//1
f  2//1 1//1 4//1
f  5//2 3//2 2//2
f  3//2 5//2 6//3
f  6//4 1//4 3//4
f  1//4 6//4 7//5
f  7//6 4//6 1//6
f  4//6 7//6 8//6
f  8//7 2//7 4//7
f  2//7 8//7 5//7
f  5//8 7//8 6//8
f  7//8 5//8 8//9

