# {"id":"_43669","idOriginal":"_43669","origin":[14.313219617630608,48.29870687841702],"elevation":259.178,"wof":[{"Id":101748071,"Name":"Linz","Placetype":"locality","Offset":-1},{"Id":102049853,"Name":"Linz","Placetype":"county","Offset":-1},{"Id":85632785,"Name":"Austria","Placetype":"country","Offset":-1},{"Id":85681677,"Name":"Oberösterreich","Placetype":"region","Offset":-1},{"Id":85898449,"Name":"Steeg","Placetype":"neighbourhood","Offset":-1}]}

# Attribution: City of Linz <http://geo.data.linz.gv.at/katalog/geodata/3d_geo_daten_lod2/>
# Longitude: 14.313219617630608
# Latitude: 48.29870687841702
# Elevation: 259.178

# File produced by Open Asset Import Library (http://www.assimp.sf.net)
# (assimp v3.1.0)


# 10 vertex positions
v  4.926 2.106 0.227
v  1.12 1.839 3.363
v  7.168 1.839 1.349
v  2.242 2.106 1.121
v  0 1.839 1.12606e-16
v  6.047 1.839 -2.015
v  6.047 1.23383e-16 -2.015
v  0 0 0
v  1.12 -2.05924e-16 3.363
v  7.168 -8.26024e-17 1.349

# 0 UV coordinates

# 14 vertex normals
vn 0.0470516 0.988849 0.141295
vn 0.0470709 0.988845 0.141318
vn -0.141289 0.988849 0.0470544
vn 0.14133 0.988842 -0.0470961
vn -0.0470951 0.988841 -0.141332
vn -0.0470627 0.988849 -0.141293
vn -0.316134 0 -0.948715
vn -0.316134 5.8092e-17 -0.948715
vn -0.948768 -1.93478e-17 0.315974
vn -0.948768 0 0.315974
vn 0.315945 -0 0.948777
vn 0.948712 0 -0.316143
vn 0 -1 -6.12323e-17
vn 4.68426e-24 -1 -6.12323e-17

# Mesh 'defaultobject' with 16 faces
g defaultobject
usemtl DefaultMaterial
f  1//1 2//1 3//1
f  2//2 1//2 4//2
f  4//3 5//3 2//3
f  1//4 3//4 6//4
f  4//5 6//5 5//5
f  6//6 4//6 1//6
f  7//7 5//7 6//7
f  5//7 7//7 8//8
f  8//9 2//9 5//9
f  2//9 8//9 9//10
f  9//11 3//11 2//11
f  3//11 9//11 10//11
f  10//12 6//12 3//12
f  6//12 10//12 7//12
f  7//13 9//13 8//13
f  9//13 7//13 10//14

