# {"id":"ID_31892","idOriginal":"ID_31892","origin":[14.371504376623692,48.252244131699285],"elevation":249.234}
# Longitude: 14.371504376623692
# Latitude: 48.252244131699285
# Elevation: 249.234

# File produced by Open Asset Import Library (http://www.assimp.sf.net)
# (assimp v3.1.0)

mtllib ID_31892.obj.mtl

# 12 vertex positions
v  5.963 10.231 -4.753
v  10.374 7.305 1.453
v  11.15 7.305 -4.026
v  5.187 10.231 0.726
v  0.776 7.305 -5.479
v  0 7.305 4.47302e-16
v  0 0 0
v  5.187 -4.44547e-17 0.726
v  10.374 -8.89706e-17 1.453
v  11.15 2.46521e-16 -4.026
v  5.963 2.91037e-16 -4.753
v  0.776 3.35492e-16 -5.479

# 0 UV coordinates

# 17 vertex normals
vn 0.482882 0.873011 0.0683914
vn 0.482882 0.873011 0.0683914
vn -0.482892 0.873005 -0.0683928
vn -0.138614 -6.06412e-17 0.990346
vn -0.13876 7.52739e-05 0.990326
vn -0.138614 -0.000135572 0.990346
vn -0.138801 0 0.99032
vn 0.990119 -0 0.140232
vn 0.138801 0 -0.99032
vn 0.138656 -7.53026e-05 -0.990341
vn 0.138801 0.000135631 -0.99032
vn 0.138614 0 -0.990346
vn -0.990119 0 -0.140232
vn -0.990119 8.58675e-18 -0.140232
vn 0 -1 -6.12323e-17
vn 0 -1 -6.12323e-17
vn -9.13288e-25 -1 -6.12323e-17

# Mesh 'defaultobject' with 20 faces
g defaultobject
usemtl DefaultMaterial
f  1//1 2//1 3//1
f  2//1 1//1 4//2
f  5//3 4//3 1//3
f  4//3 5//3 6//3
f  7//4 4//4 6//4
f  4//5 7//5 2//5
f  2//6 7//6 8//6
f  2//7 8//7 9//7
f  9//8 3//8 2//8
f  3//8 9//8 10//8
f  10//9 1//9 3//9
f  1//10 10//10 5//10
f  5//11 10//11 11//11
f  5//12 11//12 12//12
f  12//13 6//13 5//13
f  6//13 12//13 7//14
f  8//15 10//15 9//15
f  10//15 8//15 7//16
f  10//15 7//16 11//15
f  11//15 7//16 12//17

