# {"id":"ID_40388","idOriginal":"ID_40388","origin":[14.291035881580388,48.353424872143776],"elevation":319.528,"wof":[{"Id":85681677,"Name":"Oberösterreich","Placetype":"region","Offset":-1},{"Id":85898423,"Name":"Gründberg","Placetype":"neighbourhood","Offset":-1},{"Id":102049853,"Name":"Linz","Placetype":"county","Offset":-1},{"Id":85632785,"Name":"Austria","Placetype":"country","Offset":-1}]}

# Attribution: City of Linz <http://geo.data.linz.gv.at/katalog/geodata/3d_geo_daten_lod2/>
# Longitude: 14.291035881580388
# Latitude: 48.353424872143776
# Elevation: 319.528

# File produced by Open Asset Import Library (http://www.assimp.sf.net)
# (assimp v3.1.0)


# 17 vertex positions
v  0.582 1.754 -8.864
v  1.7 1.93 -1.903
v  1.752 1.928 -8.911
v  0.098 1.682 -8.845
v  0.098 1.682 -8.802
v  0.001 1.68 -0.124
v  0 1.68 1.0287e-16
v  3.376 1.681 -0.435
v  3.407 1.682 -8.976
v  0.098 5.416e-16 -8.845
v  0.098 5.38967e-16 -8.802
v  0.001 7.59281e-18 -0.124
v  0 0 0
v  3.376 2.66361e-17 -0.435
v  3.407 5.49621e-16 -8.976
v  1.752 5.45641e-16 -8.911
v  0.582 5.42763e-16 -8.864

# 0 UV coordinates

# 28 vertex normals
vn -0.147154 0.989113 -0.00137419
vn -0.147194 0.989107 -0.00136769
vn -0.152986 0.988228 0
vn -0.147028 0.989131 -0.00141549
vn -0.146791 0.989167 -0.00118385
vn 0.0185883 0.989031 0.146536
vn 0.14705 0.989129 0.00064953
vn 0.146267 0.989245 0.000802979
vn -1 0 0
vn -0.999937 0.000285737 -0.0111769
vn -0.998337 -0.0576424 0
vn -0.999938 -0 -0.011177
vn -0.999967 -0 -0.00806425
vn -0.999967 4.93793e-19 -0.00806425
vn 0.127794 0 0.991801
vn 0.999993 0 0.00362954
vn -0.0392444 0 -0.99923
vn -0.0392444 -0 -0.99923
vn -0.0401385 -0 -0.999194
vn -0.0401385 -0 -0.999194
vn -0.0392261 -0 -0.99923
vn -0.0392261 -0 -0.99923
vn -4.94502e-25 -1 -6.12323e-17
vn 0 -1 -6.12323e-17
vn 1.49881e-23 -1 -6.12323e-17
vn -2.47929e-23 -1 -6.12331e-17
vn 7.45222e-23 -1 -6.12323e-17
vn 1.28102e-21 -1 -6.12005e-17

# Mesh 'defaultobject' with 30 faces
g defaultobject
usemtl DefaultMaterial
f  1//1 2//1 3//1
f  2//2 1//2 4//2
f  2//3 4//3 5//3
f  2//4 5//4 6//4
f  2//5 6//5 7//5
f  2//6 7//6 8//6
f  3//7 8//7 9//7
f  8//8 3//8 2//8
f  10//9 5//9 4//9
f  5//10 10//10 6//10
f  6//11 10//11 11//11
f  6//12 11//12 12//12
f  6//13 12//13 7//13
f  7//13 12//13 13//14
f  7//15 14//15 8//15
f  14//15 7//15 13//15
f  8//16 15//16 9//16
f  15//16 8//16 14//16
f  15//17 3//17 9//17
f  3//17 15//17 16//18
f  3//19 16//19 1//19
f  1//19 16//19 17//20
f  1//21 17//21 4//21
f  4//21 17//21 10//22
f  12//23 14//23 13//23
f  14//23 12//23 11//24
f  14//23 11//24 15//25
f  15//25 11//24 17//26
f  17//26 11//24 10//27
f  15//25 17//26 16//28

