# File produced by Open Asset Import Library (http://www.assimp.sf.net)
# (assimp v3.1.0)

mtllib ID_17124.obj.mtl

# 20 vertex positions
v  0.026 4.03 -0.017
v  13.316 4.03 -8.387
v  1.032 4.03 -0.669
v  0 4.03 2.46766e-16
v  0.469 4.03 0.733
v  18.796 4.03 0.899
v  5.702 4.03 8.918
v  6.167 4.03 8.642
v  16.727 4.03 2.203
v  18.814 4.03 0.93
v  0 0 0
v  5.702 -5.4607e-16 8.918
v  0.469 -4.48833e-17 0.733
v  6.167 -5.2917e-16 8.642
v  16.727 -1.34895e-16 2.203
v  18.814 -5.69461e-17 0.93
v  13.316 5.13556e-16 -8.387
v  18.796 -5.50479e-17 0.899
v  0.026 1.04095e-18 -0.017
v  1.032 4.09644e-17 -0.669

# 0 UV coordinates

# 23 vertex normals
vn 0 1 0
vn -0.842334 -3.30015e-17 0.538956
vn -0.842524 7.60182e-05 0.538659
vn -0.842508 0 0.538684
vn 0 -1 -6.11334e-17
vn 0.510411 -0 0.859931
vn 0.520605 -0.00159643 0.853796
vn 0.510071 0.0364914 0.859358
vn 0.520606 0 0.853797
vn 0.520738 0 0.853716
vn 0.864793 0 -0.502128
vn 0.861218 -6.29494e-05 -0.508236
vn 0.86123 0 -0.508215
vn 0 1 6.10777e-17
vn -0.543874 0 -0.839167
vn -0.547249 -0 -0.83697
vn -0.547249 5.12496e-17 -0.83697
vn -0.532005 0 -0.846741
vn 1.51064e-22 -1 -6.1232e-17
vn 0 -1 -6.12323e-17
vn 6.33088e-24 -1 -6.12323e-17
vn -5.49992e-24 -1 -6.12323e-17
vn -6.34258e-24 -1 -6.12323e-17

# Mesh 'defaultobject' with 36 faces
g defaultobject
usemtl DefaultMaterial
f  1//1 2//1 3//1
f  2//1 1//1 4//1
f  2//1 4//1 5//1
f  2//1 5//1 6//1
f  6//1 5//1 7//1
f  6//1 7//1 8//1
f  6//1 8//1 9//1
f  6//1 9//1 10//1
f  11//2 5//2 4//2
f  5//3 11//3 7//3
f  7//4 11//4 12//4
f  12//5 11//5 13//5
f  12//6 8//6 7//6
f  8//7 12//7 9//7
f  9//8 12//8 14//8
f  9//9 14//9 15//9
f  9//10 15//10 10//10
f  10//10 15//10 16//10
f  16//11 6//11 10//11
f  6//12 16//12 2//12
f  2//13 16//13 17//13
f  17//14 16//14 18//14
f  19//15 1//15 3//15
f  1//16 19//16 4//16
f  4//16 19//16 11//17
f  17//18 3//18 2//18
f  3//18 17//18 20//18
f  3//15 20//15 19//15
f  15//19 18//19 16//19
f  18//19 15//19 17//20
f  17//20 15//19 14//21
f  17//20 14//21 20//22
f  20//22 14//21 12//5
f  20//22 12//5 13//5
f  20//22 13//5 19//23
f  19//23 13//5 11//5

