# File produced by Open Asset Import Library (http://www.assimp.sf.net)
# (assimp v3.1.0)

mtllib ID_10373.obj.mtl

# 69 vertex positions
v  21.73 6.674 24.074
v  21.765 6.674 24.036
v  16.059 6.674 17.721
v  21.806 6.674 24.081
v  21.771 6.674 24.12
v  21.771 -1.47692e-15 24.12
v  21.806 -1.47454e-15 24.081
v  16.06 6.674 17.722
v  16.06 -1.08516e-15 17.722
v  21.765 -1.47178e-15 24.036
v  21.73 -1.47411e-15 24.074
v  22.636 6.674 -0.427
v  14.078 6.674 -2.95
v  11.813 6.674 -1.504
v  16.838 6.674 -9.171
v  16.518 6.674 -8.961
v  11.948 6.674 -5.965
v  22.277 6.674 -0.201
v  11.098 6.674 2.588
v  12.901 6.674 5.708
v  7.923 6.674 1.68
v  9.706 6.674 0.512
v  7.508 6.674 -2.954
v  9.894 6.674 -4.566
v  15.391 6.674 18.262
v  12.235 6.674 17.587
v  14.255 6.674 19.482
v  15.978 6.674 17.631
v  12.509 6.674 17.31
v  15.778 6.674 17.409
v  10.224 6.674 14.398
v  16.933 6.674 16.315
v  13.742 6.674 10.997
v  5.62 6.674 8.459
v  10.429 6.674 5.553
v  0 6.674 4.08665e-16
v  9.242 6.674 3.863
v  5.219 6.674 -1.627
v  5.42 6.674 -1.757
v  4.182 6.674 -3.202
v  16.838 5.61562e-16 -9.171
v  11.948 3.65251e-16 -5.965
v  16.518 5.48703e-16 -8.961
v  14.078 1.80635e-16 -2.95
v  11.813 9.20934e-17 -1.504
v  9.894 2.79587e-16 -4.566
v  7.508 1.8088e-16 -2.954
v  9.706 -3.1351e-17 0.512
v  7.923 -1.0287e-16 1.68
v  5.42 1.07585e-16 -1.757
v  5.219 9.9625e-17 -1.627
v  4.182 1.96066e-16 -3.202
v  0 0 0
v  12.509 -1.05993e-15 17.31
v  12.235 -1.07689e-15 17.587
v  5.62 -5.17964e-16 8.459
v  10.224 -8.81623e-16 14.398
v  14.255 -1.19293e-15 19.482
v  11.098 -1.58469e-16 2.588
v  12.901 -3.49514e-16 5.708
v  15.978 -1.07959e-15 17.631
v  15.778 -1.06599e-15 17.409
v  16.933 -9.99006e-16 16.315
v  13.742 -6.73372e-16 10.997
v  10.429 -3.40023e-16 5.553
v  9.242 -2.36541e-16 3.863
v  22.636 2.61462e-17 -0.427
v  15.391 -1.11822e-15 18.262
v  22.277 1.23077e-17 -0.201

# 0 UV coordinates

# 66 vertex normals
vn 0 1 0
vn 0.744256 -0 0.667894
vn 0.739194 0 -0.673493
vn 0.741984 3.78713e-05 -0.670418
vn 0.741964 0 -0.67044
vn 1.96848e-19 -1 -6.14166e-17
vn -0.746521 0 0.665362
vn -0.746021 6.93061e-06 0.665922
vn -0.74652 -0.000957638 0.665362
vn -0.746021 0 0.665922
vn 1.49772e-21 -1 -6.12298e-17
vn -0.548655 0 -0.836049
vn -0.548265 2.6777e-05 -0.836305
vn -0.54829 -0 -0.836288
vn -5.42101e-20 -1 -6.12574e-17
vn -0.538103 0 -0.842879
vn -0.559819 0 -0.828615
vn -0.54797 0 -0.836498
vn -0.543078 0 -0.839683
vn -0.607929 0 -0.793991
vn -0.607929 4.8618e-17 -0.793991
vn -0.710947 0 -0.703246
vn -0.816743 0 0.577002
vn -0.844503 0 0.535551
vn -0.832928 -3.38849e-17 0.553382
vn -0.832928 0 0.553382
vn -0.790333 0 0.612678
vn -0.786712 0 0.61732
vn -0.684181 0 0.729312
vn -0.865825 0 0.500347
vn 0.847345 0 -0.531043
vn 0.80836 0 -0.588689
vn 0.835218 0 -0.549918
vn 0.742962 0 -0.669334
vn 0.857479 0 -0.51452
vn 0.854236 -0.00580083 -0.519854
vn 0.857463 0.0059607 -0.51451
vn 0.85425 0 -0.519862
vn 0.818321 0 -0.574762
vn 0.833426 0 -0.552631
vn 0.731853 -0 0.681462
vn 0.732173 -0.000117121 0.681119
vn 0.731962 0 0.681345
vn 1.66995e-19 1 6.13855e-17
vn 0.687675 -0 0.726019
vn 0.566227 -0 0.824249
vn 0.533175 -0 0.846005
vn 0.532752 0 0.846272
vn 2.25581e-24 -1 -6.12323e-17
vn 2.54533e-24 -1 -6.12323e-17
vn 0 -1 -6.12323e-17
vn 3.48184e-25 -1 -6.12323e-17
vn -1.27993e-24 -1 -6.12323e-17
vn 0 -1 -6.12323e-17
vn 1.3359e-24 -1 -6.12323e-17
vn 2.00654e-23 -1 -6.12323e-17
vn 4.59467e-23 -1 -6.12324e-17
vn 4.04965e-23 -1 -6.1232e-17
vn 2.16348e-23 -1 -6.12324e-17
vn -1.33693e-22 -1 -6.1233e-17
vn 1.04788e-23 -1 -6.12323e-17
vn 2.14901e-23 -1 -6.12323e-17
vn 5.7934e-24 -1 -6.12324e-17
vn 2.95688e-24 -1 -6.12323e-17
vn -4.79803e-24 -1 -6.12323e-17
vn -2.11633e-23 -1 -6.12323e-17

# Mesh 'defaultobject' with 128 faces
g defaultobject
usemtl DefaultMaterial
f  1//1 2//1 3//1
f  2//1 1//1 4//1
f  4//1 1//1 5//1
f  6//2 4//2 5//2
f  4//2 6//2 7//2
f  7//3 2//3 4//3
f  2//4 7//4 8//4
f  8//5 7//5 9//5
f  9//6 7//6 10//6
f  1//7 6//7 5//7
f  6//8 1//8 8//8
f  6//9 8//9 11//9
f  11//10 8//8 9//10
f  11//11 7//6 6//11
f  7//6 11//11 10//6
f  10//6 11//11 9//6
f  12//1 13//1 14//1
f  13//1 12//1 15//1
f  13//1 15//1 16//1
f  13//1 16//1 17//1
f  18//1 19//1 20//1
f  19//1 18//1 21//1
f  21//1 18//1 22//1
f  22//1 18//1 14//1
f  22//1 14//1 23//1
f  14//1 18//1 12//1
f  23//1 14//1 24//1
f  25//1 26//1 27//1
f  26//1 25//1 28//1
f  26//1 28//1 29//1
f  29//1 28//1 30//1
f  29//1 30//1 31//1
f  31//1 30//1 32//1
f  31//1 32//1 33//1
f  31//1 33//1 34//1
f  34//1 33//1 35//1
f  34//1 35//1 36//1
f  36//1 35//1 37//1
f  36//1 37//1 19//1
f  36//1 19//1 21//1
f  36//1 21//1 38//1
f  38//1 21//1 39//1
f  40//1 36//1 38//1
f  41//12 16//12 15//12
f  16//13 41//13 17//13
f  17//14 41//14 42//14
f  42//15 41//15 43//15
f  44//16 14//16 13//16
f  14//16 44//16 45//16
f  46//17 23//17 24//17
f  23//17 46//17 47//17
f  48//18 21//18 22//18
f  21//18 48//18 49//18
f  50//19 38//19 39//19
f  38//19 50//19 51//19
f  52//20 36//20 40//20
f  36//20 52//20 53//21
f  54//22 26//22 29//22
f  26//22 54//22 55//22
f  42//23 13//23 17//23
f  13//23 42//23 44//23
f  47//24 22//24 23//24
f  22//24 47//24 48//24
f  53//25 34//25 36//25
f  34//25 53//25 56//26
f  56//27 31//27 34//27
f  31//27 56//27 57//27
f  31//28 57//28 29//28
f  29//28 57//28 54//28
f  55//29 27//29 26//29
f  27//29 55//29 58//29
f  59//30 20//30 19//30
f  20//30 59//30 60//30
f  45//31 24//31 14//31
f  24//31 45//31 46//31
f  49//32 39//32 21//32
f  39//32 49//32 50//32
f  51//33 40//33 38//33
f  40//33 51//33 52//33
f  61//34 30//34 28//34
f  30//34 61//34 62//34
f  63//35 33//35 32//35
f  33//36 63//36 35//36
f  35//37 63//37 64//37
f  35//38 64//38 65//38
f  65//39 37//39 35//39
f  37//39 65//39 66//39
f  67//40 15//40 12//40
f  15//40 67//40 41//40
f  58//41 25//41 27//41
f  25//42 58//42 28//42
f  28//43 58//43 61//43
f  61//44 58//44 68//44
f  62//45 32//45 30//45
f  32//45 62//45 63//45
f  66//46 19//46 37//46
f  19//46 66//46 59//46
f  60//47 18//47 20//47
f  18//47 60//47 69//47
f  18//48 69//48 12//48
f  12//48 69//48 67//48
f  48//49 47//49 45//49
f  46//50 45//49 47//49
f  60//51 59//51 69//51
f  49//52 69//51 59//51
f  48//49 69//51 49//52
f  67//53 69//51 48//49
f  44//54 67//53 48//49
f  41//15 67//53 44//54
f  45//49 44//54 48//49
f  43//15 41//15 44//54
f  42//15 43//15 44//54
f  51//55 53//55 52//55
f  58//56 55//56 68//56
f  61//57 68//56 55//56
f  62//58 61//57 55//56
f  63//59 62//58 55//56
f  54//60 63//59 55//56
f  57//61 63//59 54//60
f  64//62 63//59 57//61
f  56//63 64//62 57//61
f  65//64 64//62 56//63
f  53//55 65//64 56//63
f  66//65 65//64 53//55
f  59//51 66//65 53//55
f  49//52 59//51 53//55
f  51//55 49//52 53//55
f  50//66 49//52 51//55

