# File produced by Open Asset Import Library (http://www.assimp.sf.net)
# (assimp v3.1.0)

mtllib ID_11840.obj.mtl

# 50 vertex positions
v  14.825 6.584 10.592
v  17.214 5.457 6.695
v  13.715 5.518 8.989
v  17.559 9.212 14.541
v  21.469 5.382 3.906
v  27.43 9.2 8.415
v  24.071 5.32 2.165
v  24.207 5.457 2.373
v  27.051 8.312 6.743
v  27.945 9.205 8.107
v  27.945 -4.96411e-16 8.107
v  24.071 -1.32568e-16 2.165
v  27.051 -4.1289e-16 6.743
v  24.207 -1.45304e-16 2.373
v  21.469 -2.39174e-16 3.906
v  17.214 -4.0995e-16 6.695
v  13.715 -5.50418e-16 8.989
v  17.559 -8.90379e-16 14.541
v  14.825 -6.48573e-16 10.592
v  27.43 -5.1527e-16 8.415
v  13.629 6.05 9.046
v  13.715 6.049 8.989
v  12.285 7.89 17.745
v  17.559 7.904 14.541
v  16.106 7.904 15.443
v  12.304 7.9 17.774
v  5.241 6.018 -3.252
v  10.808 6.006 4.72
v  5.551 5.907 -3.444
v  0 7.891 4.83184e-16
v  4.24 7.897 6.162
v  11.081 6.018 5.184
v  8.458 7.871 12.107
v  13.369 6.119 9.072
v  13.43 6.122 9.176
v  10.388 7.86 14.827
v  12.304 -1.08834e-15 17.774
v  16.106 -9.45611e-16 15.443
v  13.43 -5.61868e-16 9.176
v  13.369 -5.555e-16 9.072
v  10.808 -2.89017e-16 4.72
v  11.081 -3.17428e-16 5.184
v  5.551 2.10884e-16 -3.444
v  13.629 -5.53908e-16 9.046
v  0 0 0
v  5.241 1.99128e-16 -3.252
v  12.285 -1.08657e-15 17.745
v  10.388 -9.07892e-16 14.827
v  4.24 -3.77314e-16 6.162
v  8.458 -7.4134e-16 12.107

# 0 UV coordinates

# 85 vertex normals
vn -0.252503 0.877154 -0.408464
vn -0.252807 0.877001 -0.408606
vn -0.252406 0.877088 -0.408665
vn -0.252578 0.877021 -0.408704
vn -0.252572 0.877019 -0.408711
vn -0.284665 0.875482 -0.390509
vn -0.252738 0.877061 -0.408519
vn -0.252818 0.877049 -0.408494
vn 0.836365 0 -0.548174
vn 0.837965 0.000574218 -0.545724
vn 0.837272 -0.00101556 -0.546785
vn 0.837689 0 -0.546147
vn 1.13427e-20 -1 -6.12392e-17
vn 1.43073e-20 1 6.12245e-17
vn -0.5561 0 -0.831115
vn -0.54812 0.0055615 -0.836381
vn -0.556078 -0.00883684 -0.831083
vn -0.548197 -0 -0.836349
vn -0.548286 -0 -0.836291
vn -0.548286 -0 -0.836291
vn -0.822185 0 0.569221
vn -0.82215 4.38135e-05 0.56927
vn -0.822171 0 0.569241
vn 1.34572e-19 -1 -6.13651e-17
vn 0.527311 -0 0.849672
vn 0.527311 0 0.849672
vn 0.51327 0 0.858227
vn 1.2983e-23 -1 -6.12323e-17
vn -5.32314e-24 -1 -6.12323e-17
vn -4.43491e-24 -1 -6.12323e-17
vn 0 -1 -6.12359e-17
vn -0.13851 0.964252 -0.225907
vn -0.139106 0.964272 -0.225453
vn -0.139623 0.964159 -0.225616
vn -0.120824 0.973406 -0.194631
vn -0.145642 0.960801 -0.235902
vn 0.239719 0.956552 -0.165961
vn 0.239177 0.956753 -0.165582
vn 0.239137 0.956781 -0.165479
vn 0.239145 0.956784 -0.165449
vn 0.239138 0.95678 -0.165485
vn 0.239042 0.956797 -0.165526
vn 0.237999 0.956766 -0.167197
vn 0.238047 0.957023 -0.16565
vn 0.239324 0.956744 -0.165422
vn 0.238919 0.956805 -0.165658
vn 0.522683 -0 0.852527
vn 0.527418 -0.00314121 0.8496
vn 0.523998 0 0.851719
vn -2.18185e-21 1 6.12288e-17
vn 0.822185 0 -0.569221
vn 0.822145 -5.11281e-05 -0.569278
vn 0.822171 0 -0.569241
vn -6.72048e-20 1 6.12908e-17
vn 0.862574 0 -0.505931
vn 0.861843 -2.84161e-05 -0.507175
vn 0.861885 3.54148e-05 -0.507103
vn 0.862574 0.00120635 -0.50593
vn 0.861848 0 -0.507167
vn 4.52361e-19 -1 -6.14888e-17
vn 0.84077 0 -0.541392
vn -0.552454 0 -0.833543
vn -0.546911 0 -0.837191
vn -0.548591 7.89125e-05 -0.836091
vn 1.20718e-20 -1 -6.12141e-17
vn -0.527242 0 -0.849715
vn -0.526709 -0.000641953 -0.850045
vn -0.527203 0 -0.84974
vn -2.86435e-20 1 6.11826e-17
vn -0.836455 0 0.548036
vn -0.838404 -1.56753e-05 0.545049
vn -0.836454 0.00157969 0.548036
vn -0.838404 0 0.545049
vn -0.823816 -3.471e-17 0.566858
vn -0.823816 0 0.566858
vn -0.815574 0 0.578653
vn -0.815574 0 0.578653
vn -0.815553 0 0.578683
vn -0.815553 0 0.578683
vn 0 -1 -6.12323e-17
vn 1.55353e-22 -1 -6.12324e-17
vn 3.51921e-24 -1 -6.12323e-17
vn -2.47954e-23 -1 -6.12324e-17
vn 1.51084e-23 -1 -6.12323e-17
vn 2.49354e-21 -1 -6.12288e-17

# Mesh 'defaultobject' with 99 faces
g defaultobject
usemtl DefaultMaterial
f  1//1 2//1 3//1
f  2//2 1//2 4//2
f  2//3 4//3 5//3
f  5//4 4//4 6//4
f  5//4 6//4 7//5
f  7//6 6//6 8//6
f  8//7 6//7 9//7
f  9//8 6//8 10//8
f  11//9 9//9 10//9
f  9//10 11//10 8//10
f  8//11 11//11 7//11
f  7//12 11//12 12//12
f  12//13 11//13 13//13
f  12//14 13//14 14//14
f  12//15 5//15 7//15
f  5//16 12//16 2//16
f  2//17 12//17 15//17
f  2//18 15//18 16//18
f  2//19 16//19 3//19
f  3//19 16//19 17//20
f  1//21 18//21 4//21
f  18//22 1//22 3//22
f  18//23 3//23 17//23
f  18//24 17//24 19//24
f  18//25 6//25 4//25
f  6//25 18//25 20//26
f  6//27 20//27 10//27
f  10//27 20//27 11//27
f  16//28 19//24 17//24
f  19//24 16//28 18//24
f  18//24 16//28 20//29
f  20//29 16//28 15//30
f  20//29 15//30 12//13
f  20//29 12//13 13//13
f  20//29 13//13 11//13
f  13//13 12//13 14//31
f  21//32 1//32 22//32
f  1//33 21//33 23//33
f  1//34 23//34 24//34
f  24//35 23//35 25//35
f  25//36 23//36 26//36
f  27//37 28//37 29//37
f  28//38 27//38 30//38
f  28//39 30//39 31//39
f  28//40 31//40 32//40
f  32//41 31//39 33//41
f  32//42 33//42 34//42
f  34//43 33//43 35//43
f  35//44 23//44 21//44
f  23//45 35//45 36//45
f  36//46 35//46 33//46
f  37//47 25//47 26//47
f  25//48 37//48 24//48
f  24//49 37//49 18//49
f  18//50 37//50 38//50
f  18//51 1//51 24//51
f  1//52 18//52 22//52
f  22//53 18//53 17//53
f  17//54 18//50 19//54
f  39//55 34//55 35//55
f  34//56 39//56 32//56
f  32//57 39//57 28//57
f  28//58 39//58 40//58
f  28//59 40//59 41//59
f  41//60 40//60 42//60
f  41//61 29//61 28//61
f  29//61 41//61 43//61
f  17//62 21//62 22//62
f  21//63 39//63 35//63
f  39//64 21//64 17//64
f  39//65 17//24 44//65
f  27//66 45//66 30//66
f  45//67 27//67 29//67
f  45//68 29//68 43//68
f  45//69 43//69 46//69
f  23//70 37//70 26//70
f  37//71 23//71 36//71
f  37//72 36//72 47//72
f  47//73 36//73 48//73
f  45//74 31//74 30//74
f  31//74 45//74 49//75
f  31//76 49//76 33//76
f  33//76 49//76 50//77
f  33//78 50//78 36//78
f  36//78 50//78 48//79
f  46//80 49//80 45//80
f  49//80 46//80 43//81
f  49//80 43//81 41//60
f  49//80 41//60 50//82
f  50//82 41//60 42//60
f  50//82 42//60 40//60
f  50//82 40//60 48//83
f  48//83 40//60 39//65
f  48//83 39//65 44//65
f  48//83 44//65 17//24
f  48//83 17//24 19//24
f  48//83 19//24 18//24
f  48//83 18//24 37//84
f  37//84 18//24 38//85

