# File produced by Open Asset Import Library (http://www.assimp.sf.net)
# (assimp v3.1.0)

mtllib ID_16144.obj.mtl

# 60 vertex positions
v  16.509 12.016 -9.908
v  15.993 13.953 -4.673
v  18.874 13.968 -6.428
v  15.913 12.021 -9.525
v  13.672 12.038 -8.087
v  15.993 2.86139e-16 -4.673
v  13.672 4.95186e-16 -8.087
v  18.874 3.93601e-16 -6.428
v  16.509 6.0669e-16 -9.908
v  15.913 5.83238e-16 -9.525
v  0 11.802 7.22664e-16
v  4.567 13.967 2.286
v  2.298 11.797 -1.442
v  2.366 13.954 3.626
v  2.366 -2.22028e-16 3.626
v  0 0 0
v  4.567 -1.39977e-16 2.286
v  2.298 8.8297e-17 -1.442
v  23.507 12.37 -0.246
v  21.782 11.907 1.969
v  24.05 11.953 0.472
v  19.238 15.649 -5.892
v  18.874 15.95 -6.428
v  15.993 15.95 -4.673
v  20.905 11.89 2.547
v  16.829 15.259 -3.444
v  20.707 11.886 2.678
v  2.366 15.945 3.626
v  4.798 15.738 2.666
v  4.567 15.945 2.286
v  7.63 11.949 10.473
v  7.191 12.065 10.448
v  6.813 12.22 10.29
v  6.345 12.558 9.725
v  15.358 11.775 6.209
v  16.643 15.254 -3.32
v  8.572 15.073 2.043
v  12.228 11.845 7.936
v  10.389 11.886 8.951
v  4.988 15.705 2.635
v  9.496 11.907 9.444
v  4.798 -1.63245e-16 2.666
v  4.988 -1.61347e-16 2.635
v  8.572 -1.25098e-16 2.043
v  19.238 3.60781e-16 -5.892
v  24.05 -2.89017e-17 0.472
v  23.507 1.50632e-17 -0.246
v  16.829 2.10884e-16 -3.444
v  16.643 2.03291e-16 -3.32
v  6.345 -5.95484e-16 9.725
v  6.813 -6.30081e-16 10.29
v  7.191 -6.39755e-16 10.448
v  7.63 -6.41286e-16 10.473
v  12.228 -4.8594e-16 7.936
v  15.358 -3.80192e-16 6.209
v  10.389 -5.48091e-16 8.951
v  9.496 -5.78278e-16 9.444
v  21.782 -1.20566e-16 1.969
v  20.707 -1.6398e-16 2.678
v  20.905 -1.55959e-16 2.547

# 0 UV coordinates

# 96 vertex normals
vn -0.222519 0.907004 -0.357533
vn -0.222145 0.907096 -0.357531
vn -0.222515 0.90702 -0.357494
vn -0.826985 0 0.562224
vn 0.520238 0 0.854021
vn 0.520238 0 0.854021
vn 0.827081 0 -0.562082
vn 0.827081 0 -0.562082
vn -0.540055 0 -0.84163
vn -0.540614 0.000147138 -0.841271
vn -0.540055 -3.92261e-05 -0.84163
vn -0.540615 0 -0.84127
vn -2.40889e-24 -1 -6.12323e-17
vn 3.74952e-24 -1 -6.12323e-17
vn 0 -1 -6.12323e-17
vn -0.235257 0.89541 -0.378015
vn -0.235344 0.895446 -0.377875
vn -0.837482 0 0.546465
vn -0.837482 0 0.546465
vn 0.520021 0 0.854154
vn 0.520021 0 0.854154
vn 0.854221 0 -0.519911
vn 0.854221 0 -0.519911
vn -0.531522 0 -0.847044
vn 0 -1 -6.12323e-17
vn 4.7075e-24 -1 -6.12323e-17
vn 0.219547 0.906562 0.360477
vn 0.219559 0.906556 0.360485
vn 0.21819 0.906686 0.36099
vn 0.219575 0.906565 0.360453
vn 0.219844 0.906588 0.360232
vn 0.613253 0.7894 0.0277269
vn 0.219968 0.906587 0.360157
vn 0.219449 0.906595 0.360454
vn 0.219434 0.906616 0.360411
vn 0.219012 0.906594 0.360723
vn 0.22182 0.90668 0.358786
vn 0.221064 0.906668 0.359283
vn 0.219238 0.906582 0.360616
vn 0.215885 0.907463 0.360423
vn 0.219254 0.906599 0.360563
vn 0.219234 0.906593 0.360591
vn 0.219233 0.906593 0.360591
vn 0.219417 0.906572 0.360533
vn 0.220069 0.906623 0.360006
vn 0.219232 0.906609 0.360553
vn 0.216501 0.906852 0.36159
vn -0.161028 0 -0.98695
vn -0.162966 2.40748e-05 -0.986632
vn -0.161028 -0.00047433 -0.98695
vn -0.16297 0 -0.986631
vn 0.854502 0 -0.519448
vn 0.797654 0 -0.603115
vn 0.797607 4.49515e-05 -0.603177
vn 0.797648 0 -0.603124
vn 0 -1 -6.1196e-17
vn 0.827271 0 -0.561804
vn -0.520021 0 -0.854154
vn -0.520238 0 -0.854021
vn -0.554699 0 -0.832051
vn -0.553438 2.21972e-05 -0.832891
vn -0.553466 -0 -0.832872
vn 0 -1 -6.11914e-17
vn -0.837523 0 0.546402
vn -0.837523 0 0.546402
vn -0.770117 0 0.637903
vn -0.770117 0 0.637903
vn -0.385655 0 0.922643
vn -0.826839 0 0.562439
vn -0.826839 0 0.562439
vn -0.0568546 0 0.998382
vn 0.482891 -0 0.875681
vn 0.483309 -8.54872e-05 0.87545
vn 0.483215 -5.69544e-05 0.875502
vn 0.483099 1.52949e-06 0.875565
vn 0.483103 -1.06416e-06 0.875564
vn 0.483099 0 0.875565
vn 6.48062e-20 1 6.13437e-17
vn -2.53997e-20 1 6.11753e-17
vn 0.550914 -0 0.834562
vn 0.551789 -0.000565575 0.833984
vn 0.550293 0.000436648 0.834972
vn 0.550873 -1.27839e-05 0.834589
vn 0.550857 4.44686e-06 0.8346
vn 0.550873 0 0.834589
vn -7.83281e-21 -1 -6.12526e-17
vn 3.73511e-20 -1 -6.1181e-17
vn 0 -1 -6.12323e-17
vn -3.63901e-24 -1 -6.12323e-17
vn 1.94768e-23 -1 -6.12324e-17
vn 1.18063e-23 -1 -6.12324e-17
vn -7.63255e-24 -1 -6.12323e-17
vn -7.6208e-24 -1 -6.12323e-17
vn -1.39992e-23 -1 -6.12324e-17
vn -3.35064e-23 -1 -6.12323e-17
vn 3.19911e-22 -1 -6.12327e-17

# Mesh 'defaultobject' with 116 faces
g defaultobject
usemtl DefaultMaterial
f  1//1 2//1 3//1
f  2//2 1//2 4//2
f  2//3 4//3 5//3
f  5//4 6//4 2//4
f  6//4 5//4 7//4
f  2//5 8//5 3//5
f  8//5 2//5 6//6
f  8//7 1//7 3//7
f  1//7 8//7 9//8
f  4//9 7//9 5//9
f  7//10 4//10 1//10
f  7//11 1//11 10//11
f  10//12 1//12 9//12
f  10//13 6//13 7//13
f  6//13 10//13 8//14
f  8//14 10//13 9//15
f  11//16 12//16 13//16
f  12//17 11//17 14//17
f  11//18 15//18 14//18
f  15//18 11//18 16//19
f  14//20 17//20 12//20
f  17//20 14//20 15//21
f  17//22 13//22 12//22
f  13//22 17//22 18//23
f  13//24 16//24 11//24
f  16//24 13//24 18//24
f  18//25 15//25 16//25
f  15//25 18//25 17//26
f  19//27 20//27 21//27
f  20//28 19//28 22//28
f  20//29 22//29 23//29
f  20//30 23//30 24//30
f  20//31 24//31 25//31
f  25//32 24//32 26//32
f  25//33 26//33 27//33
f  28//34 29//34 30//34
f  29//35 28//35 31//35
f  31//36 28//36 32//36
f  32//37 28//37 33//37
f  33//38 28//38 34//38
f  26//39 35//39 27//39
f  35//40 26//40 36//40
f  35//41 36//41 37//41
f  35//42 37//42 38//42
f  38//42 37//42 39//43
f  39//44 37//44 40//44
f  39//45 40//45 41//45
f  41//46 40//46 31//46
f  31//47 40//47 29//47
f  40//48 42//48 29//48
f  42//49 40//49 37//49
f  42//50 37//50 43//50
f  43//51 37//51 44//51
f  29//52 17//52 30//52
f  17//52 29//52 42//52
f  19//53 45//53 22//53
f  45//54 19//54 21//54
f  45//55 21//55 46//55
f  45//56 46//56 47//56
f  22//57 8//57 23//57
f  8//57 22//57 45//57
f  17//58 28//58 30//58
f  28//58 17//58 15//58
f  8//59 24//59 23//59
f  24//59 8//59 6//59
f  48//60 36//60 26//60
f  36//61 48//61 37//61
f  37//62 48//62 44//62
f  44//63 48//63 49//63
f  15//64 34//64 28//64
f  34//64 15//64 50//65
f  50//66 33//66 34//66
f  33//66 50//66 51//67
f  51//68 32//68 33//68
f  32//68 51//68 52//68
f  6//69 26//69 24//69
f  26//69 6//69 48//70
f  52//71 31//71 32//71
f  31//71 52//71 53//71
f  53//72 41//72 31//72
f  41//73 53//73 39//73
f  39//74 53//74 38//74
f  38//75 53//75 35//75
f  35//75 53//75 54//76
f  35//75 54//76 55//77
f  54//78 53//78 56//78
f  56//78 53//78 57//79
f  55//80 27//80 35//80
f  27//81 55//81 25//81
f  25//82 55//82 20//82
f  20//83 55//83 21//83
f  21//84 55//84 58//84
f  21//85 58//85 46//85
f  58//86 55//86 59//86
f  58//86 59//86 60//87
f  45//56 6//13 8//14
f  6//13 45//56 47//56
f  6//13 47//56 46//56
f  6//13 46//56 48//63
f  48//63 46//56 58//86
f  48//63 58//86 49//63
f  49//63 58//86 44//63
f  44//63 58//86 60//87
f  44//63 60//87 59//86
f  44//63 59//86 55//86
f  44//63 55//86 43//88
f  43//88 55//86 54//89
f  43//88 54//89 42//90
f  42//90 15//25 17//26
f  15//25 42//90 54//89
f  15//25 54//89 56//91
f  15//25 56//91 50//92
f  50//92 56//91 57//93
f  50//92 57//93 53//94
f  50//92 53//94 52//95
f  50//92 52//95 51//96

