# File produced by Open Asset Import Library (http://www.assimp.sf.net)
# (assimp v3.1.0)

mtllib ID_24997.obj.mtl

# 14 vertex positions
v  3.385 2.829 12.078
v  0.661 3.171 -0.199
v  0 2.86 1.75124e-16
v  6.037 5.713 -1.919
v  3.901 3.064 11.985
v  10.366 5.713 13.209
v  4.568 3.015 14.711
v  10.366 -8.08818e-16 13.209
v  4.568 -9.00789e-16 14.711
v  3.901 -7.3387e-16 11.985
v  3.385 -7.39564e-16 12.078
v  6.037 1.17505e-16 -1.919
v  0.661 1.21852e-17 -0.199
v  0 0 0

# 0 UV coordinates

# 23 vertex normals
vn -0.394939 0.911728 0.113026
vn -0.394941 0.911727 0.113027
vn -0.394863 0.911758 0.113048
vn -0.394969 0.911716 0.113024
vn -0.39497 0.911714 0.113029
vn 0.250777 0 0.968045
vn 0.250777 0 0.968045
vn 0.177375 0 0.984143
vn 0.177375 0 0.984143
vn 0.961411 0 -0.275116
vn -0.304724 0 -0.952441
vn -0.304724 -0 -0.952441
vn -0.288278 -0 -0.957547
vn -0.288278 5.86328e-17 -0.957547
vn -0.962899 -1.65244e-17 0.269864
vn -0.962899 0 0.269864
vn -0.971346 0 0.23767
vn -0.971346 0 0.23767
vn 0 -1 -6.12323e-17
vn 0 -1 -6.12323e-17
vn -1.66958e-22 -1 -6.12324e-17
vn 8.01214e-24 -1 -6.12323e-17
vn 2.36236e-24 -1 -6.12323e-17

# Mesh 'defaultobject' with 24 faces
g defaultobject
usemtl DefaultMaterial
f  1//1 2//1 3//1
f  2//1 1//1 4//2
f  4//3 1//3 5//3
f  4//4 5//4 6//4
f  6//4 5//4 7//5
f  7//6 8//6 6//6
f  8//6 7//6 9//7
f  1//8 10//8 5//8
f  10//8 1//8 11//9
f  8//10 4//10 6//10
f  4//10 8//10 12//10
f  12//11 2//11 4//11
f  2//11 12//11 13//12
f  2//13 13//13 3//13
f  3//13 13//13 14//14
f  14//15 1//15 3//15
f  1//15 14//15 11//16
f  10//17 7//17 5//17
f  7//17 10//17 9//18
f  13//19 11//19 14//19
f  11//19 13//19 12//20
f  11//19 12//20 10//21
f  10//21 12//20 8//22
f  10//21 8//22 9//23

