# {"id":"ID_7869","idOriginal":"ID_7869","origin":[14.299118778378833,48.269670103617045],"elevation":278.522}
# Longitude: 14.299118778378833
# Latitude: 48.269670103617045
# Elevation: 278.522

# File produced by Open Asset Import Library (http://www.assimp.sf.net)
# (assimp v3.1.0)

mtllib ID_7869.obj.mtl

# 50 vertex positions
v  14.332 14.344 7.355
v  12.231 14.344 9.869
v  14.861 14.344 8.178
v  15.364 14.344 -10.12
v  17.668 14.344 2.173
v  21.63 14.344 -0.375
v  17.422 14.344 1.791
v  15.39 14.344 3.097
v  9.069 14.344 -5.28
v  8.73 14.344 -5.808
v  13.517 14.344 -12.992
v  6.852 14.344 -8.728
v  6.644 14.344 -4.333
v  6.102 14.344 -3.931
v  6.923 14.344 -3.9
v  15.69 14.344 3.563
v  16.392 14.344 5.911
v  16.963 14.344 5.544
v  14.278 14.344 7.271
v  7.871 14.344 11.51
v  6.483 14.344 9.481
v  0 14.344 8.78317e-16
v  8.84 14.344 -5.133
v  8.736 14.344 12.775
v  12.53 14.344 10.335
v  8.736 -7.82243e-16 12.775
v  7.871 -7.04784e-16 11.51
v  0 0 0
v  6.483 -5.80544e-16 9.481
v  17.422 -1.09667e-16 1.791
v  17.668 -1.33058e-16 2.173
v  6.852 5.34436e-16 -8.728
v  9.069 3.23307e-16 -5.28
v  8.73 3.55637e-16 -5.808
v  12.53 -6.32836e-16 10.335
v  12.231 -6.04302e-16 9.869
v  14.861 -5.00758e-16 8.178
v  14.278 -4.4522e-16 7.271
v  16.963 -3.39472e-16 5.544
v  16.392 -3.61944e-16 5.911
v  15.39 -1.89637e-16 3.097
v  21.63 2.29621e-17 -0.375
v  14.332 -4.50364e-16 7.355
v  15.69 -2.18171e-16 3.563
v  13.517 7.95531e-16 -12.992
v  15.364 6.19671e-16 -10.12
v  6.923 2.38806e-16 -3.9
v  6.644 2.6532e-16 -4.333
v  8.84 3.14306e-16 -5.133
v  6.102 2.40704e-16 -3.931

# 0 UV coordinates

# 56 vertex normals
vn 0 1 -0
vn -0.825467 0 0.56445
vn -0.825357 2.07977e-05 0.564611
vn -0.82547 -3.45813e-05 0.564447
vn -0.825467 -2.98922e-05 0.56445
vn -0.82545 0 0.564476
vn 5.65191e-20 1 6.11913e-17
vn -0.840751 0 0.541422
vn -0.841066 0 0.540932
vn -0.841488 0.000189047 0.540275
vn -0.841131 0 0.540832
vn -1.5557e-20 -1 -6.12244e-17
vn 0.540914 -0 0.841078
vn 0.540822 -0 0.841137
vn 0.541039 -0 0.840998
vn 0.540684 7.39833e-05 0.841226
vn 0.540963 0 0.841046
vn 3.21537e-20 -1 -6.11748e-17
vn 0.540674 -0 0.841232
vn 0.540908 -0 0.841082
vn 0.841648 0 -0.540027
vn 0.841212 0 -0.540706
vn 0.841179 -4.09098e-06 -0.540756
vn 0.841209 0 -0.540711
vn 4.66124e-18 1 5.82655e-17
vn 0.841275 0 -0.540607
vn 0.840827 -0.000135964 -0.541304
vn 0.84119 0 -0.54074
vn 1.22447e-20 1 6.12233e-17
vn 0.841125 0 -0.54084
vn 0.841083 -6.26571e-05 -0.540906
vn 0.841116 0 -0.540855
vn -1.38002e-19 1 6.13072e-17
vn 0.840611 0 -0.54164
vn -0.53891 0 -0.842363
vn -0.540201 0 -0.841536
vn -0.540957 -1.70496e-05 -0.84105
vn -0.540876 -0 -0.841102
vn 4.7486e-20 1 6.13044e-17
vn -0.595724 0 -0.803189
vn -0.541565 0 -0.840659
vn -0.541565 5.14755e-17 -0.840659
vn -7.70883e-24 -1 -6.12323e-17
vn 0 -1 -6.12323e-17
vn 0 -1 -6.12323e-17
vn 3.37344e-23 -1 -6.12323e-17
vn 2.74524e-23 -1 -6.12323e-17
vn -7.18495e-24 -1 -6.12323e-17
vn 1.93992e-24 -1 -6.12323e-17
vn -9.8279e-24 -1 -6.12324e-17
vn -9.45981e-24 -1 -6.12323e-17
vn 6.1837e-24 -1 -6.12323e-17
vn 2.69969e-23 -1 -6.12323e-17
vn -3.92579e-24 -1 -6.12323e-17
vn -5.07208e-18 -1 -5.86108e-17
vn -2.11965e-23 -1 -6.12324e-17

# Mesh 'defaultobject' with 96 faces
g defaultobject
usemtl DefaultMaterial
f  1//1 2//1 3//1
f  4//1 5//1 6//1
f  5//1 4//1 7//1
f  7//1 4//1 8//1
f  8//1 4//1 9//1
f  9//1 4//1 10//1
f  10//1 4//1 11//1
f  10//1 11//1 12//1
f  13//1 14//1 15//1
f  16//1 17//1 18//1
f  17//1 16//1 19//1
f  19//1 16//1 20//1
f  20//1 16//1 21//1
f  21//1 16//1 8//1
f  21//1 8//1 22//1
f  22//1 8//1 15//1
f  15//1 8//1 9//1
f  15//1 9//1 23//1
f  22//1 15//1 14//1
f  2//1 24//1 25//1
f  24//1 2//1 20//1
f  20//1 2//1 1//1
f  20//1 1//1 19//1
f  20//2 26//2 24//2
f  26//3 20//3 21//3
f  26//4 21//4 22//4
f  26//4 22//4 27//5
f  27//6 22//6 28//6
f  27//7 28//7 29//7
f  30//8 5//8 7//8
f  5//8 30//8 31//8
f  32//9 10//9 12//9
f  10//10 32//10 9//10
f  9//11 32//11 33//11
f  33//12 32//12 34//12
f  26//13 25//13 24//13
f  25//13 26//13 35//13
f  36//14 3//14 2//14
f  3//14 36//14 37//14
f  38//15 17//15 19//15
f  17//16 38//16 18//16
f  18//17 38//17 39//17
f  39//18 38//18 40//18
f  41//19 7//19 8//19
f  7//19 41//19 30//19
f  31//20 6//20 5//20
f  6//20 31//20 42//20
f  35//21 2//21 25//21
f  2//21 35//21 36//21
f  37//22 1//22 3//22
f  1//23 37//23 19//23
f  19//24 37//22 38//24
f  38//25 37//25 43//25
f  39//26 16//26 18//26
f  16//27 39//27 8//27
f  8//28 39//28 41//28
f  41//29 39//29 44//29
f  42//30 4//30 6//30
f  4//31 42//31 11//31
f  11//32 42//32 45//32
f  45//33 42//33 46//33
f  47//34 13//34 15//34
f  13//34 47//34 48//34
f  45//35 12//35 11//35
f  12//35 45//35 32//35
f  33//36 23//36 9//36
f  23//37 33//37 15//37
f  15//38 33//38 47//38
f  47//39 33//39 49//39
f  48//40 14//40 13//40
f  14//40 48//40 50//40
f  50//41 22//41 14//41
f  22//41 50//41 28//42
f  45//43 34//12 32//12
f  34//12 45//43 33//12
f  50//44 29//44 28//44
f  29//44 50//44 48//44
f  29//44 48//44 47//45
f  29//44 47//45 49//46
f  29//44 49//46 33//12
f  29//44 33//12 45//43
f  29//44 45//43 46//47
f  29//44 46//47 41//48
f  41//48 46//47 30//45
f  30//45 46//47 42//49
f  29//44 41//48 27//50
f  27//50 41//48 26//51
f  30//45 42//49 31//52
f  44//53 38//18 36//53
f  38//18 44//53 40//18
f  40//18 44//53 39//18
f  38//18 37//54 36//53
f  37//54 38//18 43//55
f  26//51 36//53 35//56
f  36//53 26//51 41//48
f  36//53 41//48 44//53

