# {"id":"ID_27314","idOriginal":"ID_27314","origin":[14.276650800650145,48.3164789995048],"elevation":279.358}
# Longitude: 14.276650800650145
# Latitude: 48.3164789995048
# Elevation: 279.358

# File produced by Open Asset Import Library (http://www.assimp.sf.net)
# (assimp v3.1.0)

mtllib ID_27314.obj.mtl

# 25 vertex positions
v  6.194 16.62 -2.556
v  0.021 7.715 0.004
v  10.776 7.785 2.241
v  12.287 7.83 -5.083
v  12.252 7.684 -4.474
v  12.384 7.668 -5.054
v  11.617 7.703 -1.512
v  10.843 7.674 2.255
v  11.931 7.755 -5.191
v  1.963 7.801 -7.272
v  1.622 7.804 -7.343
v  0 7.681 4.70326e-16
v  1.547 7.681 -7.358
v  10.776 -1.37222e-16 2.241
v  0 0 0
v  0.021 -2.44929e-19 0.004
v  10.843 -1.38079e-16 2.255
v  12.252 2.73953e-16 -4.474
v  11.617 9.25833e-17 -1.512
v  12.384 3.09468e-16 -5.054
v  11.931 3.17857e-16 -5.191
v  12.287 3.11244e-16 -5.083
v  1.963 4.45282e-16 -7.272
v  1.622 4.49629e-16 -7.343
v  1.547 4.50548e-16 -7.358

# 0 UV coordinates

# 39 vertex normals
vn -0.189898 0.39059 0.900766
vn 0.83072 0.528642 0.174477
vn 0.832036 0.526698 0.174087
vn 0.831989 0.526473 0.174987
vn 0.831986 0.526473 0.175
vn 0.834023 0.52487 0.170051
vn 0.190758 0.391073 -0.900374
vn 0.189854 0.390605 -0.900768
vn 0.190981 0.390063 -0.900765
vn -0.831048 0.528044 -0.174726
vn -0.831993 0.526476 -0.174961
vn -0.832222 0.532267 -0.155238
vn -0.203638 0 0.979046
vn -0.198576 0.00734707 0.980058
vn -0.203606 0 0.979053
vn 0 -1 -6.12657e-17
vn -0.204539 0 0.978858
vn -0.204539 0 0.978858
vn 0.979537 -0 0.201264
vn 0.97778 0.00424899 0.209591
vn 0.978773 0 0.204947
vn 1.06453e-21 -1 -6.1232e-17
vn 0.975067 -0 0.221912
vn 0.975067 0 0.221912
vn 0.289873 0.00223834 -0.957063
vn 0.28948 0 -0.957184
vn 0.28948 0 -0.957184
vn 2.58673e-20 -1 -6.13177e-17
vn 0.204362 0 -0.978895
vn 0.204362 0 -0.978895
vn 0.20384 0 -0.979004
vn 0.196632 -0.000328348 -0.980477
vn 0.20384 7.85137e-05 -0.979004
vn 0.196114 0 -0.980581
vn -0.978605 0 -0.205749
vn -0.978605 1.25985e-17 -0.205749
vn -4.25494e-24 -1 -6.12323e-17
vn 1.49076e-22 -1 -6.12323e-17
vn -3.12149e-22 -1 -6.12324e-17

# Mesh 'defaultobject' with 46 faces
g defaultobject
usemtl DefaultMaterial
f  1//1 2//1 3//1
f  4//2 5//2 6//2
f  5//3 4//3 1//3
f  5//4 1//4 7//4
f  7//5 1//5 8//5
f  8//6 1//6 3//6
f  9//7 1//7 4//7
f  1//8 9//8 10//8
f  1//9 10//9 11//9
f  12//10 11//10 13//10
f  11//11 12//11 1//11
f  1//12 12//12 2//12
f  2//13 14//13 3//13
f  14//14 2//14 12//14
f  14//15 12//15 15//15
f  14//16 15//16 16//16
f  14//17 8//17 3//17
f  8//17 14//17 17//18
f  17//19 7//19 8//19
f  7//20 17//20 5//20
f  5//21 17//21 18//21
f  18//22 17//22 19//22
f  18//23 6//23 5//23
f  6//23 18//23 20//24
f  6//25 9//25 4//25
f  9//26 6//26 21//26
f  21//26 6//26 20//27
f  21//28 20//28 22//28
f  21//29 10//29 9//29
f  10//29 21//29 23//30
f  10//31 23//31 11//31
f  11//32 23//32 13//32
f  13//33 23//33 24//33
f  13//34 24//34 25//34
f  25//35 12//35 13//35
f  12//35 25//35 15//36
f  18//22 22//28 20//28
f  22//28 18//22 21//28
f  21//28 18//22 19//22
f  21//28 19//22 23//37
f  23//37 19//22 17//22
f  23//37 17//22 14//16
f  23//37 14//16 16//16
f  23//37 16//16 24//38
f  24//38 16//16 25//39
f  25//39 16//16 15//16

