# {"id":"_58363","idOriginal":"_58363","origin":[14.299682644137484,48.30066415806265],"elevation":260.426}
# Longitude: 14.299682644137484
# Latitude: 48.30066415806265
# Elevation: 260.426

# File produced by Open Asset Import Library (http://www.assimp.sf.net)
# (assimp v3.1.0)

mtllib _58363.obj.mtl

# 8 vertex positions
v  2.366 19.028 2.285
v  0 19.028 1.16513e-15
v  1.026 19.028 2.798
v  1.331 19.028 -0.53
v  0 0 0
v  1.026 -1.71328e-16 2.798
v  2.366 -1.39916e-16 2.285
v  1.331 3.24531e-17 -0.53

# 0 UV coordinates

# 9 vertex normals
vn 0 1 0
vn -0.938869 -2.10807e-17 0.344274
vn -0.938869 0 0.344274
vn 0.357531 -0 0.933901
vn 0.938571 0 -0.345087
vn -0.369946 0 -0.929053
vn -0.369946 5.68881e-17 -0.929053
vn 1.23816e-23 -1 -6.12323e-17
vn 0 -1 -6.12323e-17

# Mesh 'defaultobject' with 12 faces
g defaultobject
usemtl DefaultMaterial
f  1//1 2//1 3//1
f  2//1 1//1 4//1
f  5//2 3//2 2//2
f  3//2 5//2 6//3
f  6//4 1//4 3//4
f  1//4 6//4 7//4
f  7//5 4//5 1//5
f  4//5 7//5 8//5
f  8//6 2//6 4//6
f  2//6 8//6 5//7
f  5//8 7//8 6//8
f  7//8 5//8 8//9

