# {"id":"ID_19703","idOriginal":"ID_19703","origin":[14.307802204113429,48.317287026803626],"elevation":253.344,"wof":[{"Id":102049853,"Name":"Linz","Placetype":"county","Offset":-1},{"Id":85681677,"Name":"Oberösterreich","Placetype":"region","Offset":-1},{"Id":85898449,"Name":"Steeg","Placetype":"neighbourhood","Offset":-1},{"Id":101748071,"Name":"Linz","Placetype":"locality","Offset":-1},{"Id":85632785,"Name":"Austria","Placetype":"country","Offset":-1}]}

# Attribution: City of Linz <http://geo.data.linz.gv.at/katalog/geodata/3d_geo_daten_lod2/>
# Longitude: 14.307802204113429
# Latitude: 48.317287026803626
# Elevation: 253.344

# File produced by Open Asset Import Library (http://www.assimp.sf.net)
# (assimp v3.1.0)


# 16 vertex positions
v  14.466 7.918 -0.073
v  3.925 6.888 9.763
v  16.404 6.888 4.818
v  2.533 7.627 6.251
v  1.973 7.918 4.877
v  0 6.888 4.21768e-16
v  12.528 6.888 -4.964
v  0.621 7.218 1.566
v  12.528 3.03957e-16 -4.964
v  0 0 0
v  0.621 -9.58898e-17 1.566
v  3.925 -5.97811e-16 9.763
v  1.973 -2.9863e-16 4.877
v  2.533 -3.82763e-16 6.251
v  16.404 -2.95017e-16 4.818
v  14.466 4.46996e-18 -0.073

# 0 UV coordinates

# 22 vertex normals
vn 0.0707814 0.981369 0.178621
vn 0.0706646 0.981399 0.178499
vn 0.070898 0.981303 0.178935
vn -0.0707763 0.981369 -0.178623
vn -0.0707762 0.981368 -0.178628
vn -0.0573449 0.981246 -0.184034
vn -0.368369 0 -0.92968
vn -0.368369 5.69265e-17 -0.92968
vn -0.929578 -2.25718e-17 0.368626
vn -0.925605 -0.00248023 0.378482
vn -0.926152 -0.00152249 0.377148
vn -0.92921 0.00575496 0.369508
vn -0.929554 0.00721547 0.368616
vn -0.92749 0 0.373847
vn 0 -1 -6.12321e-17
vn 0 -1 -6.12324e-17
vn 0.368396 -0 0.929669
vn 0.929678 0 -0.368374
vn 0.929678 0 -0.368374
vn -2.99864e-24 -1 -6.12323e-17
vn -2.99532e-24 -1 -6.12323e-17
vn 9.32794e-24 -1 -6.12323e-17

# Mesh 'defaultobject' with 28 faces
g defaultobject
usemtl DefaultMaterial
f  1//1 2//1 3//1
f  2//2 1//2 4//2
f  4//3 1//3 5//3
f  6//4 1//4 7//4
f  1//4 6//4 5//5
f  5//6 6//6 8//6
f  9//7 6//7 7//7
f  6//7 9//7 10//8
f  10//9 8//9 6//9
f  8//10 10//10 5//10
f  5//11 10//11 4//11
f  4//12 10//12 2//12
f  2//13 10//13 11//13
f  2//14 11//14 12//14
f  12//15 11//15 13//15
f  12//15 13//15 14//16
f  12//17 3//17 2//17
f  3//17 12//17 15//17
f  1//18 9//18 7//18
f  9//18 1//18 3//19
f  9//18 3//19 16//18
f  16//18 3//19 15//18
f  12//15 16//20 15//20
f  16//20 12//15 14//16
f  16//20 14//16 13//15
f  16//20 13//15 9//21
f  9//21 13//15 11//15
f  9//21 11//15 10//22

