# {"id":"ID_55330","idOriginal":"ID_55330","origin":[14.308352002250214,48.272290051882635],"elevation":260.715}
# Longitude: 14.308352002250214
# Latitude: 48.272290051882635
# Elevation: 260.715

# File produced by Open Asset Import Library (http://www.assimp.sf.net)
# (assimp v3.1.0)

mtllib ID_55330.obj.mtl

# 12 vertex positions
v  3.684 2.174 -0.07
v  0 2.174 1.33119e-16
v  1.18 2.174 1.684
v  0.745 2.174 -0.51
v  0.488 2.174 -0.865
v  2.258 2.174 -2.105
v  0 0 0
v  1.18 -1.03115e-16 1.684
v  0.488 5.2966e-17 -0.865
v  0.745 3.12285e-17 -0.51
v  3.684 4.28626e-18 -0.07
v  2.258 1.28894e-16 -2.105

# 0 UV coordinates

# 12 vertex normals
vn 0 1 0
vn -0.818958 -3.51384e-17 0.573854
vn -0.818958 0 0.573854
vn -0.810017 0 0.586407
vn 0.573726 -0 0.819047
vn 0.818948 0 -0.573867
vn -0.573773 0 -0.819014
vn -0.564882 0 -0.825171
vn -0.564882 5.05272e-17 -0.825171
vn 0 -1 -6.12323e-17
vn 0 -1 -6.12323e-17
vn -1.23226e-24 -1 -6.12323e-17

# Mesh 'defaultobject' with 20 faces
g defaultobject
usemtl DefaultMaterial
f  1//1 2//1 3//1
f  2//1 1//1 4//1
f  4//1 1//1 5//1
f  5//1 1//1 6//1
f  7//2 3//2 2//2
f  3//2 7//2 8//3
f  9//4 4//4 5//4
f  4//4 9//4 10//4
f  8//5 1//5 3//5
f  1//5 8//5 11//5
f  11//6 6//6 1//6
f  6//6 11//6 12//6
f  12//7 5//7 6//7
f  5//7 12//7 9//7
f  10//8 2//8 4//8
f  2//8 10//8 7//9
f  7//10 11//10 8//10
f  11//10 7//10 10//10
f  11//10 10//10 9//11
f  11//10 9//11 12//12

