# File produced by Open Asset Import Library (http://www.assimp.sf.net)
# (assimp v3.1.0)

mtllib ID_11027.obj.mtl

# 16 vertex positions
v  23.972 9.431 6.18
v  15.423 9.431 12.264
v  17.701 9.431 14.069
v  2.41 9.431 1.926
v  18.297 9.431 1.658
v  12.091 9.431 -3.289
v  0 9.431 5.77482e-16
v  6.271 9.431 -7.889
v  17.701 -8.61478e-16 14.069
v  23.972 -3.78416e-16 6.18
v  18.297 -1.01523e-16 1.658
v  12.091 2.01393e-16 -3.289
v  6.271 4.83062e-16 -7.889
v  0 0 0
v  2.41 -1.17933e-16 1.926
v  15.423 -7.50953e-16 12.264

# 0 UV coordinates

# 18 vertex normals
vn 0 1 0
vn 0.782811 -0 0.62226
vn 0.623181 0 -0.782077
vn 0.623326 0 -0.781962
vn 0.620081 0 -0.784538
vn -0.782811 0 -0.62226
vn -0.782811 3.81024e-17 -0.62226
vn -0.6243 -4.78338e-17 0.781185
vn -0.622035 -0.000947165 0.782989
vn -0.624291 0.00510225 0.781175
vn -0.622035 0 0.782989
vn -0.621038 0 0.783781
vn 0 -1 -6.12323e-17
vn 3.29941e-25 -1 -6.12323e-17
vn 7.21937e-25 -1 -6.12323e-17
vn -1.85859e-24 -1 -6.12323e-17
vn 0 -1 -6.12338e-17
vn 1.37745e-20 -1 -6.12413e-17

# Mesh 'defaultobject' with 28 faces
g defaultobject
usemtl DefaultMaterial
f  1//1 2//1 3//1
f  2//1 1//1 4//1
f  4//1 1//1 5//1
f  4//1 5//1 6//1
f  4//1 6//1 7//1
f  7//1 6//1 8//1
f  9//2 1//2 3//2
f  1//2 9//2 10//2
f  10//3 5//3 1//3
f  5//3 10//3 11//3
f  5//4 11//4 6//4
f  6//4 11//4 12//4
f  6//5 12//5 8//5
f  8//5 12//5 13//5
f  13//6 7//6 8//6
f  7//6 13//6 14//7
f  14//8 4//8 7//8
f  4//9 14//9 2//9
f  2//10 14//10 15//10
f  2//11 15//11 16//11
f  2//12 16//12 3//12
f  3//12 16//12 9//12
f  12//13 14//13 13//13
f  14//13 12//13 11//14
f  14//13 11//14 10//15
f  14//13 10//15 9//16
f  14//13 9//16 15//17
f  15//17 9//16 16//18

