# File produced by Open Asset Import Library (http://www.assimp.sf.net)
# (assimp v3.1.0)

mtllib ID_41183.obj.mtl

# 12 vertex positions
v  1.392 7.609 -1.807
v  7.306 7.609 -1.074
v  3.235 7.609 -4.231
v  4.043 7.609 3.134
v  0.313 7.609 -0.423
v  0 7.609 4.65917e-16
v  7.306 6.57635e-17 -1.074
v  3.235 2.59074e-16 -4.231
v  0.313 2.59013e-17 -0.423
v  0 0 0
v  1.392 1.10647e-16 -1.807
v  4.043 -1.91902e-16 3.134

# 0 UV coordinates

# 13 vertex normals
vn -0 1 0
vn 0.612811 0 -0.790229
vn -0.796042 0 -0.605241
vn -0.788637 0.00485156 -0.61484
vn -0.803811 -0.011014 -0.594782
vn -0.793351 0.00120754 -0.608763
vn -0.80386 3.64221e-17 -0.594818
vn 4.08585e-22 -1 -6.12322e-17
vn -0.612654 -4.8395e-17 0.790351
vn -0.612654 0 0.790351
vn 0.790251 -0 0.612783
vn -7.71937e-24 -1 -6.12323e-17
vn 0 -1 -6.12323e-17

# Mesh 'defaultobject' with 20 faces
g defaultobject
usemtl DefaultMaterial
f  1//1 2//1 3//1
f  2//1 1//1 4//1
f  4//1 1//1 5//1
f  4//1 5//1 6//1
f  7//2 3//2 2//2
f  3//2 7//2 8//2
f  8//3 1//3 3//3
f  1//4 8//4 5//4
f  5//5 8//5 6//5
f  6//6 8//6 9//6
f  6//7 9//7 10//7
f  9//8 8//8 11//8
f  10//9 4//9 6//9
f  4//9 10//9 12//10
f  12//11 2//11 4//11
f  2//11 12//11 7//11
f  12//12 8//8 7//12
f  8//8 12//12 11//8
f  11//8 12//12 10//13
f  11//8 10//13 9//8

