# {"id":"ID_20218","idOriginal":"ID_20218","origin":[14.270153327484262,48.31589374094216],"elevation":291.233,"wof":[{"Id":102049853,"Name":"Linz","Placetype":"county","Offset":-1},{"Id":101748071,"Name":"Linz","Placetype":"locality","Offset":-1},{"Id":85632785,"Name":"Austria","Placetype":"country","Offset":-1},{"Id":85681677,"Name":"Oberösterreich","Placetype":"region","Offset":-1},{"Id":85898453,"Name":"Urfahr","Placetype":"neighbourhood","Offset":-1}]}

# Attribution: City of Linz <http://geo.data.linz.gv.at/katalog/geodata/3d_geo_daten_lod2/>
# Longitude: 14.270153327484262
# Latitude: 48.31589374094216
# Elevation: 291.233

# File produced by Open Asset Import Library (http://www.assimp.sf.net)
# (assimp v3.1.0)


# 16 vertex positions
v  4.863 9.232 -1.601
v  12.194 7.139 3.872
v  9.726 7.139 -3.203
v  9.26 9.232 11.003
v  14.093 7.139 9.317
v  4.426 7.139 12.689
v  4.772 9.193 -1.571
v  0 7.139 4.37138e-16
v  9.726 1.96127e-16 -3.203
v  4.863 9.8033e-17 -1.601
v  0 0 0
v  4.772 9.6196e-17 -1.571
v  4.426 -7.76977e-16 12.689
v  9.26 -6.73739e-16 11.003
v  14.093 -5.70502e-16 9.317
v  12.194 -2.37092e-16 3.872

# 0 UV coordinates

# 25 vertex normals
vn 0.357322 0.925627 -0.124646
vn 0.357328 0.925623 -0.124657
vn 0.357369 0.92561 -0.124636
vn -0.35737 0.925607 0.124653
vn -0.35581 0.926192 0.124775
vn -0.357302 0.925634 0.124647
vn -0.312886 0 -0.949791
vn -0.313057 -9.98977e-05 -0.949734
vn -0.312738 9.08695e-05 -0.949839
vn -0.312886 -0.000133037 -0.949791
vn -0.31271 5.81615e-17 -0.949849
vn 0 -1 -6.13544e-17
vn -0.944209 -2.01666e-17 0.329346
vn -0.944209 0 0.329346
vn 0.329324 -0 0.944217
vn 0.329373 -2.90854e-05 0.9442
vn 0.329324 4.61328e-05 0.944217
vn 0.329384 0 0.944196
vn 0.944201 0 -0.329369
vn 0.944223 -6.89401e-05 -0.329307
vn 0.944201 5.30559e-05 -0.329369
vn 0.944223 0 -0.329307
vn 0 -1 -6.12323e-17
vn 0 -1 -6.12323e-17
vn 6.27954e-20 -1 -6.10999e-17

# Mesh 'defaultobject' with 28 faces
g defaultobject
usemtl DefaultMaterial
f  1//1 2//1 3//1
f  2//2 1//2 4//2
f  2//3 4//3 5//3
f  6//4 7//4 8//4
f  7//5 6//5 1//5
f  1//6 6//6 4//6
f  9//7 1//7 3//7
f  1//8 9//8 7//8
f  7//9 9//9 8//9
f  8//10 9//10 10//10
f  8//11 10//11 11//11
f  11//12 10//12 12//12
f  11//13 6//13 8//13
f  6//13 11//13 13//14
f  13//15 4//15 6//15
f  4//16 13//16 5//16
f  5//17 13//17 14//17
f  5//18 14//18 15//18
f  2//19 9//19 3//19
f  9//20 2//20 5//20
f  9//21 5//21 16//21
f  16//22 5//22 15//22
f  16//23 10//12 9//23
f  10//12 16//23 12//12
f  12//12 16//23 11//12
f  11//12 16//23 13//23
f  13//23 16//23 15//24
f  13//23 15//24 14//25

