# {"id":"ID_53177","idOriginal":"ID_53177","origin":[14.335739845459496,48.24400854750508],"elevation":277.758}
# Longitude: 14.335739845459496
# Latitude: 48.24400854750508
# Elevation: 277.758

# File produced by Open Asset Import Library (http://www.assimp.sf.net)
# (assimp v3.1.0)

mtllib ID_53177.obj.mtl

# 8 vertex positions
v  0.527 7.979 3.348
v  2.805 7.979 -0.441
v  0 7.979 4.88573e-16
v  3.331 7.979 2.907
v  0 0 0
v  0.527 -2.05006e-16 3.348
v  3.331 -1.78002e-16 2.907
v  2.805 2.70035e-17 -0.441

# 0 UV coordinates

# 9 vertex normals
vn 0 1 0
vn -0.987837 -9.52119e-18 0.155493
vn -0.987837 0 0.155493
vn 0.155366 -0 0.987857
vn 0.987882 0 -0.155205
vn -0.155311 0 -0.987866
vn -0.155311 6.04893e-17 -0.987866
vn -6.87631e-25 -1 -6.12323e-17
vn 1.16943e-23 -1 -6.12323e-17

# Mesh 'defaultobject' with 12 faces
g defaultobject
usemtl DefaultMaterial
f  1//1 2//1 3//1
f  2//1 1//1 4//1
f  5//2 1//2 3//2
f  1//2 5//2 6//3
f  6//4 4//4 1//4
f  4//4 6//4 7//4
f  7//5 2//5 4//5
f  2//5 7//5 8//5
f  8//6 3//6 2//6
f  3//6 8//6 5//7
f  8//8 6//8 5//8
f  6//8 8//8 7//9

