# File produced by Open Asset Import Library (http://www.assimp.sf.net)
# (assimp v3.1.0)

mtllib _12332.obj.mtl

# 38 vertex positions
v  11.278 7.53 -0.64
v  16.361 5.44 -6.345
v  14.199 5.952 -7.294
v  19.169 5.456 0.973
v  18.524 5.816 2.54
v  5.564 5.46 -5.66
v  8.279 5.746 -5.712
v  7.955 5.455 -6.604
v  13.339 5.748 -7.671
v  7.575 7.53 0.798
v  3.171 5.464 -4.716
v  3.543 5.757 -3.835
v  0.897 5.95 -2.133
v  1.248 5.75 -2.967
v  4.379 5.803 8.08
v  2.904 5.455 7.417
v  2.941 5.455 7.512
v  0 5.455 3.34022e-16
v  5.973 5.445 8.71
v  17.948 5.479 3.941
v  7.955 4.04378e-16 -6.604
v  3.171 2.88772e-16 -4.716
v  5.564 3.46575e-16 -5.66
v  3.543 2.34826e-16 -3.835
v  1.248 1.81676e-16 -2.967
v  13.339 4.69713e-16 -7.671
v  8.279 3.49759e-16 -5.712
v  0 0 0
v  0.897 1.30609e-16 -2.133
v  2.904 -4.5416e-16 7.417
v  2.941 -4.59977e-16 7.512
v  5.973 -5.33334e-16 8.71
v  4.379 -4.94757e-16 8.08
v  17.948 -2.41317e-16 3.941
v  19.169 -5.95791e-17 0.973
v  18.524 -1.5553e-16 2.54
v  16.361 3.88519e-16 -6.345
v  14.199 4.46629e-16 -7.294

# 0 UV coordinates

# 60 vertex normals
vn 0.273259 0.955998 -0.106759
vn 0.273122 0.956022 -0.10689
vn 0.27317 0.955976 -0.107184
vn -0.105947 0.956045 -0.27341
vn -0.106817 0.955899 -0.273583
vn -0.106242 0.956003 -0.273441
vn -0.106196 0.956001 -0.273467
vn -0.105947 0.956034 -0.273449
vn -0.106237 0.956028 -0.273357
vn -0.106941 0.956102 -0.272822
vn -0.106167 0.956007 -0.273459
vn -0.106567 0.955791 -0.274056
vn -0.273412 0.955985 0.106486
vn -0.273677 0.955834 0.107153
vn -0.273137 0.956022 0.106853
vn -0.273147 0.956004 0.10699
vn 0.106602 0.955947 0.273499
vn 0.106179 0.956013 0.273431
vn 0.10618 0.956015 0.273426
vn 0.106075 0.955986 0.273566
vn -0.367229 0 -0.930131
vn -0.366963 0.000134622 -0.930236
vn -0.367096 -0 -0.930183
vn 1.40074e-20 -1 -6.11841e-17
vn -0.353757 0 -0.935337
vn -0.361041 0 -0.93255
vn -0.361041 -0 -0.93255
vn -0.921241 0 0.388992
vn -0.921753 -0.000642196 -0.387778
vn -0.921776 0 -0.387724
vn -0.921776 2.37412e-17 -0.387724
vn 0 1 6.12365e-17
vn -0.931171 -2.23243e-17 0.364584
vn -0.931171 0 0.364584
vn -0.931821 0 0.362918
vn -0.367373 0 0.930074
vn -0.367555 5.2249e-05 0.930002
vn -0.367474 0 0.930034
vn -1.32686e-19 -1 -6.0891e-17
vn 0.369986 0 0.929037
vn 0.924883 -0 0.380252
vn 0.924735 0.000101274 0.380611
vn 0.924801 0 0.380452
vn 0 -1 -6.12338e-17
vn 0.933628 0 -0.358244
vn 0.933628 0 -0.358244
vn 0.939916 0 -0.341405
vn 0.40193 0 -0.915671
vn 0.401524 -0.000175821 -0.915849
vn 0.401804 0 -0.915726
vn 4.03019e-20 1 6.11472e-17
vn 5.80462e-24 -1 -6.12323e-17
vn 1.24836e-23 -1 -6.12323e-17
vn -2.98213e-23 -1 -6.12323e-17
vn 0 -1 -6.12323e-17
vn 0 -1 -6.12327e-17
vn 0 -1 -6.12323e-17
vn 8.24243e-23 -1 -6.12322e-17
vn -4.62273e-24 -1 -6.12323e-17
vn -2.26299e-20 -1 -6.12365e-17

# Mesh 'defaultobject' with 72 faces
g defaultobject
usemtl DefaultMaterial
f  1//1 2//1 3//1
f  2//2 1//2 4//2
f  4//3 1//3 5//3
f  6//4 7//4 8//4
f  9//5 1//5 3//5
f  1//6 9//6 7//6
f  1//7 7//7 10//7
f  10//8 7//8 6//8
f  10//9 6//9 11//9
f  10//10 11//10 12//10
f  10//11 12//11 13//11
f  13//12 12//12 14//12
f  15//13 16//13 17//13
f  16//14 15//14 18//14
f  18//15 15//15 10//15
f  18//16 10//16 13//16
f  19//17 10//17 15//17
f  10//18 19//18 20//18
f  10//18 20//18 1//19
f  1//20 20//20 5//20
f  21//21 6//21 8//21
f  6//22 21//22 11//22
f  11//23 21//23 22//23
f  22//24 21//24 23//24
f  24//25 14//25 12//25
f  14//25 24//25 25//25
f  26//26 7//26 9//26
f  7//26 26//26 27//27
f  11//28 24//28 12//28
f  24//28 11//28 22//28
f  14//29 18//29 13//29
f  18//30 14//30 25//30
f  18//30 25//30 28//31
f  28//32 25//32 29//32
f  28//33 16//33 18//33
f  16//33 28//33 30//34
f  16//35 30//35 17//35
f  17//35 30//35 31//35
f  31//36 15//36 17//36
f  15//37 31//37 19//37
f  19//38 31//38 32//38
f  32//39 31//39 33//39
f  19//40 34//40 20//40
f  34//40 19//40 32//40
f  34//41 5//41 20//41
f  5//42 34//42 4//42
f  4//43 34//43 35//43
f  35//44 34//44 36//44
f  35//45 2//45 4//45
f  2//45 35//45 37//46
f  27//47 8//47 7//47
f  8//47 27//47 21//47
f  37//48 3//48 2//48
f  3//49 37//49 9//49
f  9//50 37//50 26//50
f  26//51 37//51 38//51
f  36//44 37//52 35//44
f  37//52 36//44 34//44
f  37//52 34//44 32//39
f  37//52 32//39 38//53
f  38//53 32//39 26//54
f  26//54 32//39 27//55
f  27//55 32//39 33//39
f  27//55 33//39 31//39
f  27//55 31//39 21//24
f  21//24 31//39 30//56
f  21//24 30//56 23//24
f  23//24 30//56 28//57
f  23//24 28//57 24//58
f  24//58 28//57 25//59
f  25//59 28//57 29//60
f  22//24 23//24 24//58

