# File produced by Open Asset Import Library (http://www.assimp.sf.net)
# (assimp v3.1.0)

mtllib _1494.obj.mtl

# 22 vertex positions
v  9.861 10.341 -3.282
v  33.339 8.326 34.003
v  19.683 8.339 -6.551
v  28.456 9.325 35.699
v  23.507 10.341 37.464
v  13.813 8.352 40.903
v  0.059 8.331 0.176
v  13.711 8.331 40.939
v  17.836 9.177 39.486
v  0 8.331 5.10127e-16
v  0.118 8.355 -0.039
v  0 0 0
v  0.118 2.38806e-18 -0.039
v  9.861 2.00965e-16 -3.282
v  19.683 4.01133e-16 -6.551
v  13.711 -2.50679e-15 40.939
v  0.059 -1.07769e-17 0.176
v  13.813 -2.50459e-15 40.903
v  17.836 -2.41782e-15 39.486
v  23.507 -2.29401e-15 37.464
v  28.456 -2.18593e-15 35.699
v  33.339 -2.08208e-15 34.003

# 0 UV coordinates

# 36 vertex normals
vn 0.180046 0.981807 -0.0603133
vn 0.179944 0.98183 -0.0602478
vn 0.180054 0.981807 -0.0603007
vn -0.180744 0.981666 0.0605332
vn -0.180094 0.981799 0.0603137
vn -0.180577 0.981696 0.0605345
vn -0.179803 0.98186 0.0601813
vn -0.18006 0.981806 0.0602974
vn -0.180025 0.981813 0.0602911
vn -0.313813 0 -0.949485
vn -0.315825 3.15268e-05 -0.948818
vn -0.313812 -0.00209859 -0.949483
vn -0.315819 0 -0.94882
vn -0.315793 0 -0.948828
vn -0.948143 -1.94623e-17 0.317843
vn -0.948233 6.32435e-06 0.317574
vn -0.948233 0 0.317576
vn 0 -1 -6.15124e-17
vn 0.332816 -0 0.942992
vn 0.332218 8.22423e-06 0.943203
vn 0.336207 -0.00200934 0.941786
vn 0.332815 0.0016063 0.942991
vn 0.332218 0.00223772 0.9432
vn 0.335907 -4.03071e-05 0.941895
vn 0.335842 4.34176e-05 0.941918
vn 0.328866 0.00420897 0.944367
vn 0.33591 -0.00514258 0.94188
vn 0.328101 0 0.944643
vn 0.947711 0 -0.319129
vn 0.947711 0 -0.319129
vn 1.52976e-23 -1 -6.12323e-17
vn -3.054e-23 -1 -6.12323e-17
vn 0 -1 -6.12323e-17
vn 1.91965e-24 -1 -6.12323e-17
vn 2.60654e-23 -1 -6.12324e-17
vn 3.68044e-23 -1 -6.12323e-17

# Mesh 'defaultobject' with 40 faces
g defaultobject
usemtl DefaultMaterial
f  1//1 2//1 3//1
f  2//2 1//2 4//2
f  4//3 1//3 5//3
f  6//4 7//4 8//4
f  7//5 6//5 9//5
f  7//6 9//6 10//6
f  10//7 9//7 11//7
f  11//8 9//8 1//8
f  1//9 9//9 5//9
f  11//10 12//10 10//10
f  12//11 11//11 1//11
f  12//12 1//12 13//12
f  13//13 1//13 14//13
f  14//14 1//14 3//14
f  14//14 3//14 15//14
f  12//15 7//15 10//15
f  7//16 12//16 8//16
f  8//16 12//16 16//17
f  16//18 12//18 17//18
f  16//19 6//19 8//19
f  6//20 16//20 9//20
f  9//21 16//21 5//21
f  5//22 16//22 18//22
f  5//23 18//23 19//23
f  5//24 19//24 4//24
f  4//25 19//25 20//25
f  4//26 20//26 2//26
f  2//27 20//27 21//27
f  2//28 21//28 22//28
f  2//29 15//29 3//29
f  15//29 2//29 22//30
f  22//31 14//31 15//31
f  14//31 22//31 21//32
f  14//31 21//32 20//33
f  14//31 20//33 13//34
f  13//34 20//33 19//35
f  13//34 19//35 18//36
f  13//34 18//36 12//18
f  12//18 18//36 17//18
f  17//18 18//36 16//18

