# File produced by Open Asset Import Library (http://www.assimp.sf.net)
# (assimp v3.1.0)

mtllib _17382.obj.mtl

# 31 vertex positions
v  10.764 11.175 -9.164
v  6.375 12.26 -5.428
v  13.135 11.173 -6.36
v  11.437 11.591 -4.925
v  8.8 12.26 -2.539
v  11.506 11.591 -4.843
v  19.19 11.594 4.332
v  16.511 12.26 6.647
v  4.241 11.154 1.171
v  1.9 11.154 -1.618
v  4.289 11.166 1.131
v  4.374 11.166 1.229
v  12.259 11.203 10.32
v  11.437 3.01569e-16 -4.925
v  11.506 2.96548e-16 -4.843
v  19.19 -2.65259e-16 4.332
v  10.764 5.61133e-16 -9.164
v  13.135 3.89438e-16 -6.36
v  4.289 -6.92538e-17 1.131
v  4.241 -7.17031e-17 1.171
v  12.259 -6.31918e-16 10.32
v  16.511 -4.07011e-16 6.647
v  1.9 9.90739e-17 -1.618
v  6.375 3.32369e-16 -5.428
v  4.374 -7.52545e-17 1.229
v  0 10.793 6.60881e-16
v  4.241 11.065 1.171
v  1.9 11.064 -1.618
v  2.325 10.792 2.786
v  2.325 -1.70593e-16 2.786
v  0 0 0

# 0 UV coordinates

# 50 vertex normals
vn 0.141611 0.982739 -0.119042
vn 0.141674 0.982779 -0.118633
vn 0.141699 0.982738 -0.118941
vn 0.141549 0.98274 -0.119107
vn 0.141668 0.98274 -0.118967
vn 0.141601 0.982762 -0.118864
vn -0.141655 0.982749 0.118901
vn -0.148324 0.982038 0.116625
vn -0.141622 0.982757 0.118877
vn -0.139732 0.982744 0.121196
vn -0.141691 0.982745 0.118895
vn -0.141615 0.982758 0.118876
vn 0.765157 0 -0.643843
vn 0.766651 -2.1471e-05 -0.642065
vn 0.765155 0.00239708 -0.643841
vn 0.76665 0 -0.642065
vn 0.763603 0 -0.645686
vn 0.645478 -0 0.763779
vn 0.645478 0 0.763779
vn 0.640185 0 0.768221
vn 0.653703 -0 0.756751
vn 0.653823 -7.23287e-05 0.756648
vn 0.653753 0 0.756708
vn -1.55233e-20 1 6.12237e-17
vn -0.648187 0 -0.761481
vn -0.648259 -4.45286e-05 -0.76142
vn -0.648227 -0 -0.761447
vn -3.0334e-20 1 6.12746e-17
vn -0.765943 0 0.642909
vn -0.755434 0 0.655224
vn -0.755437 4.34721e-08 0.655222
vn -0.755437 0 0.655222
vn -5.55112e-17 -1 -5.55112e-17
vn -3.75195e-24 -1 -6.12323e-17
vn -2.85303e-24 -1 -6.12323e-17
vn -1.84354e-24 -1 -6.12323e-17
vn 5.24041e-23 -1 -6.12321e-17
vn 0 -1 -6.12323e-17
vn 0 -1 -6.12237e-17
vn 4.54472e-23 -1 -6.12324e-17
vn -0.0828681 0.994155 0.0692006
vn -0.082977 0.994118 0.0696037
vn 0.644492 0 0.764611
vn 0.644492 0 0.764611
vn 0.765943 0 -0.642909
vn -0.648346 0 -0.761346
vn -0.648346 4.6619e-17 -0.761346
vn -0.767769 -3.92332e-17 0.640726
vn -0.767769 0 0.640726
vn -1.45553e-24 -1 -6.12323e-17

# Mesh 'defaultobject' with 58 faces
g defaultobject
usemtl DefaultMaterial
f  1//1 2//1 3//1
f  4//2 3//2 2//2
f  5//3 4//3 2//3
f  6//4 4//4 5//4
f  7//5 6//5 5//5
f  8//6 7//6 5//6
f  9//7 2//7 10//7
f  2//8 9//8 11//8
f  2//9 11//9 5//9
f  5//10 11//10 12//10
f  5//11 12//11 13//11
f  5//9 13//12 8//12
f  6//13 14//13 4//13
f  14//14 6//14 7//14
f  14//15 7//15 15//15
f  15//16 7//16 16//16
f  3//17 17//17 1//17
f  17//17 3//17 18//17
f  14//18 3//18 4//18
f  3//18 14//18 18//19
f  9//20 19//20 11//20
f  19//20 9//20 20//20
f  21//21 8//21 13//21
f  8//22 21//22 7//22
f  7//23 21//23 16//23
f  16//24 21//24 22//24
f  17//25 2//25 1//25
f  2//26 17//26 10//26
f  10//27 17//27 23//27
f  23//28 17//28 24//28
f  23//29 9//29 10//29
f  9//29 23//29 20//29
f  19//30 12//30 11//30
f  12//30 19//30 13//31
f  13//31 19//30 21//32
f  21//33 19//33 25//33
f  18//34 24//34 17//34
f  24//34 18//34 14//35
f  24//34 14//35 23//36
f  23//36 14//35 15//37
f  23//36 15//37 16//38
f  23//36 16//38 19//33
f  19//33 16//38 25//33
f  25//33 16//38 21//33
f  21//33 16//38 22//39
f  20//40 23//36 19//33
f  26//41 27//41 28//41
f  27//42 26//42 29//42
f  29//43 20//43 27//43
f  20//43 29//43 30//44
f  20//45 28//45 27//45
f  28//45 20//45 23//45
f  23//46 26//46 28//46
f  26//46 23//46 31//47
f  31//48 29//48 26//48
f  29//48 31//48 30//49
f  31//50 20//40 30//50
f  20//40 31//50 23//36

