# File produced by Open Asset Import Library (http://www.assimp.sf.net)
# (assimp v3.1.0)

mtllib _18231.obj.mtl

# 32 vertex positions
v  3.344 6.529 10.193
v  13.989 6.529 1.94
v  1.968 6.529 6
v  14.029 6.529 2.051
v  15.447 6.529 5.983
v  11.965 6.529 -3.954
v  0 6.529 3.99786e-16
v  12.163 6.529 -3.45
v  12.338 6.529 -3.509
v  15.096 6.529 -4.43
v  15.101 6.529 -4.073
v  16.218 6.529 -4.382
v  16.113 6.529 -0.874
v  16.708 6.529 1.04
v  14.113 6.529 1.899
v  17.314 6.529 -1.192
v  11.965 2.42113e-16 -3.954
v  0 0 0
v  16.218 2.6832e-16 -4.382
v  15.101 2.49399e-16 -4.073
v  15.096 2.71259e-16 -4.43
v  12.163 2.11252e-16 -3.45
v  12.338 2.14864e-16 -3.509
v  1.968 -3.67394e-16 6
v  3.344 -6.24141e-16 10.193
v  15.447 -3.66353e-16 5.983
v  13.989 -1.18791e-16 1.94
v  16.708 -6.36816e-17 1.04
v  14.113 -1.1628e-16 1.899
v  16.113 5.35171e-17 -0.874
v  17.314 7.29889e-17 -1.192
v  14.029 -1.25588e-16 2.051

# 0 UV coordinates

# 35 vertex normals
vn 0 1 0
vn -0.313775 0 -0.949497
vn -0.313775 5.814e-17 -0.949497
vn -0.26662 0 -0.963802
vn -0.316744 0 -0.948511
vn -0.319474 -0.0012829 -0.947594
vn -0.316907 -0 -0.948457
vn 3.20846e-21 1 6.1242e-17
vn -0.950193 -1.90839e-17 0.311663
vn -0.950146 -0.000144975 0.311806
vn -0.950193 0.000101341 0.311663
vn -0.950146 0 0.311806
vn 0.328539 -0 0.94449
vn 0.313932 -0 0.949446
vn 0.314252 -6.74093e-06 0.94934
vn 0.314237 0 0.949345
vn -5.49615e-20 1 6.10073e-17
vn 0.255959 -0 0.966688
vn 0.940698 0 -0.339245
vn 0.94078 0.000153395 -0.339019
vn 0.9407 0 -0.339238
vn -8.39912e-20 -1 -6.11946e-17
vn 0.954923 0 -0.296854
vn 0.945738 0 -0.32493
vn 0.999902 0 -0.0140046
vn 0.930752 0 -0.365652
vn -1.35677e-23 -1 -6.12323e-17
vn 2.15591e-24 -1 -6.12323e-17
vn 1.77491e-23 -1 -6.12324e-17
vn -1.74827e-23 -1 -6.12324e-17
vn 0 -1 -6.12323e-17
vn -2.11013e-25 -1 -6.12323e-17
vn 0 -1 -6.12323e-17
vn -8.55843e-25 -1 -6.12323e-17
vn 3.34481e-24 -1 -6.12323e-17

# Mesh 'defaultobject' with 60 faces
g defaultobject
usemtl DefaultMaterial
f  1//1 2//1 3//1
f  2//1 1//1 4//1
f  4//1 1//1 5//1
f  3//1 6//1 7//1
f  6//1 3//1 8//1
f  8//1 3//1 9//1
f  9//1 3//1 10//1
f  10//1 3//1 11//1
f  11//1 3//1 12//1
f  12//1 3//1 13//1
f  13//1 3//1 2//1
f  13//1 2//1 14//1
f  14//1 2//1 15//1
f  16//1 12//1 13//1
f  17//2 7//2 6//2
f  7//2 17//2 18//3
f  19//4 11//4 12//4
f  11//4 19//4 20//4
f  21//5 9//5 10//5
f  9//6 21//6 8//6
f  8//7 21//7 22//7
f  22//8 21//8 23//8
f  18//9 3//9 7//9
f  3//10 18//10 1//10
f  1//11 18//11 24//11
f  1//12 24//12 25//12
f  25//13 5//13 1//13
f  5//13 25//13 26//13
f  27//14 15//14 2//14
f  15//15 27//15 14//15
f  14//16 27//16 28//16
f  28//17 27//17 29//17
f  30//18 16//18 13//18
f  16//18 30//18 31//18
f  26//19 4//19 5//19
f  4//20 26//20 2//20
f  2//21 26//19 27//21
f  27//22 26//22 32//22
f  28//23 13//23 14//23
f  13//23 28//23 30//23
f  31//24 12//24 16//24
f  12//24 31//24 19//24
f  20//25 10//25 11//25
f  10//25 20//25 21//25
f  22//26 6//26 8//26
f  6//26 22//26 17//26
f  31//27 20//27 19//27
f  20//27 31//27 23//28
f  23//28 31//27 22//29
f  22//29 18//30 17//30
f  18//30 22//29 31//27
f  18//30 31//27 30//31
f  18//30 30//31 28//32
f  18//30 28//32 29//33
f  18//30 29//33 27//22
f  18//30 27//22 24//33
f  24//33 27//22 32//22
f  24//33 32//22 26//22
f  24//33 26//22 25//34
f  23//28 21//35 20//27

