# File produced by Open Asset Import Library (http://www.assimp.sf.net)
# (assimp v3.1.0)

mtllib _1950.obj.mtl

# 29 vertex positions
v  25.774 4.238 28.212
v  27.969 4.932 50.029
v  32.679 4.235 48.646
v  21.123 4.932 29.66
v  27.684 4.993 50.113
v  23.704 6.028 54.091
v  28.486 4.988 52.423
v  15.996 6.028 31.156
v  20.992 4.96 29.701
v  20.944 4.96 29.558
v  10.028 4.939 -3.238
v  4.983 6.028 -1.609
v  11.013 4.953 32.765
v  0 4.953 3.03284e-16
v  18.76 4.953 55.815
v  27.684 -3.06854e-15 50.113
v  28.486 -3.20998e-15 52.423
v  25.774 -1.72749e-15 28.212
v  32.679 -2.97871e-15 48.646
v  20.992 -1.81866e-15 29.701
v  10.028 1.9827e-16 -3.238
v  20.944 -1.80991e-15 29.558
v  27.969 -3.06339e-15 50.029
v  23.704 -3.31212e-15 54.091
v  18.76 -3.41768e-15 55.815
v  21.123 -1.81615e-15 29.66
v  4.983 9.85228e-17 -1.609
v  0 0 0
v  11.013 -2.00628e-15 32.765

# 0 UV coordinates

# 46 vertex normals
vn 0.133325 0.990054 -0.0449075
vn 0.13373 0.989998 -0.0449464
vn 0.190759 0.979541 -0.064114
vn 0.190684 0.979558 -0.0640825
vn 0.190682 0.979558 -0.0640844
vn 0.190727 0.979547 -0.0641128
vn 0.189488 0.979814 -0.063707
vn 0.190751 0.979548 -0.0640296
vn 0.190726 0.979548 -0.0641094
vn 0.19074 0.979545 -0.0641118
vn -0.190635 0.979567 0.0640765
vn -0.190635 0.979567 0.0640765
vn -0.190637 0.979567 0.0640721
vn -0.190649 0.979565 0.0640734
vn 0.944684 0 -0.327981
vn 0.944684 0 -0.327981
vn 0.947372 0 -0.320133
vn 0.948017 0 -0.318219
vn 0.948822 7.71957e-05 -0.315811
vn 0.948819 0 -0.315822
vn 0 -1 -6.1139e-17
vn 0.282712 -0 0.959205
vn 0.281744 6.07641e-05 0.95949
vn 0.281792 0 0.959476
vn -9.81393e-20 -1 -6.15779e-17
vn 0.329347 0 0.944209
vn 0.329274 -6.55595e-05 0.944234
vn 0.329347 9.6718e-05 0.944209
vn 0.329261 0 0.944239
vn -0.297258 0 -0.954797
vn -0.297258 -0 -0.954797
vn -0.298695 -0 -0.954349
vn -0.298695 -0 -0.954349
vn -0.307273 0 -0.951621
vn -0.307276 -2.63604e-06 -0.951621
vn -0.307273 3.77718e-06 -0.951621
vn -0.307276 5.82699e-17 -0.95162
vn -0.947888 -1.95089e-17 0.318605
vn -0.947888 0 0.318605
vn -0.947895 0 0.318583
vn 5.29212e-22 -1 -6.12324e-17
vn 1.17001e-24 -1 -6.12323e-17
vn 3.33801e-24 -1 -6.12323e-17
vn 1.01765e-21 -1 -6.12324e-17
vn 2.52219e-23 -1 -6.12323e-17
vn -1.41833e-19 -1 -6.16645e-17

# Mesh 'defaultobject' with 54 faces
g defaultobject
usemtl DefaultMaterial
f  1//1 2//1 3//1
f  2//2 1//2 4//2
f  4//3 5//3 2//3
f  5//4 6//4 7//4
f  6//4 5//4 8//5
f  8//6 5//6 9//6
f  9//7 5//7 4//7
f  8//8 9//8 10//8
f  8//6 10//9 11//9
f  8//10 11//10 12//10
f  13//11 12//11 14//11
f  12//11 13//11 8//12
f  8//12 13//11 15//13
f  8//14 15//14 6//14
f  7//15 16//15 5//15
f  16//15 7//15 17//16
f  3//17 18//17 1//17
f  18//17 3//17 19//17
f  20//18 10//18 9//18
f  10//19 20//19 11//19
f  11//20 20//20 21//20
f  21//21 20//21 22//21
f  16//22 2//22 5//22
f  2//23 16//23 3//23
f  3//24 16//24 19//24
f  19//25 16//25 23//25
f  6//26 17//26 7//26
f  17//27 6//27 15//27
f  17//28 15//28 24//28
f  24//29 15//29 25//29
f  18//30 4//30 1//30
f  4//30 18//30 26//31
f  4//32 26//32 9//32
f  9//32 26//32 20//33
f  21//34 12//34 11//34
f  12//34 21//34 14//35
f  14//35 21//34 27//36
f  14//35 27//36 28//37
f  28//38 13//38 14//38
f  13//38 28//38 29//39
f  13//40 29//40 15//40
f  15//40 29//40 25//40
f  18//41 23//25 16//25
f  23//25 18//41 19//25
f  27//42 29//42 28//42
f  29//42 27//42 21//21
f  29//42 21//21 22//21
f  29//42 22//21 25//43
f  25//43 22//21 20//21
f  25//43 20//21 26//44
f  25//43 26//44 18//41
f  25//43 18//41 16//25
f  25//43 16//25 17//45
f  25//43 17//45 24//46

