# File produced by Open Asset Import Library (http://www.assimp.sf.net)
# (assimp v3.1.0)

mtllib _31126.obj.mtl

# 10 vertex positions
v  3.359 6.832 10.004
v  2.142 6.832 -0.715
v  0 6.832 4.18339e-16
v  5.679 6.832 -1.895
v  8.855 6.832 8.107
v  5.679 1.16035e-16 -1.895
v  0 0 0
v  2.142 4.37811e-17 -0.715
v  3.359 -6.12568e-16 10.004
v  8.855 -4.96411e-16 8.107

# 0 UV coordinates

# 12 vertex normals
vn 0 1 0
vn -0.316469 0 -0.948603
vn -0.316626 -9.04197e-05 -0.94855
vn -0.316528 5.8084e-17 -0.948583
vn 4.74292e-21 1 6.12216e-17
vn -0.947989 -1.94904e-17 0.318302
vn -0.947989 0 0.318302
vn 0.326272 -0 0.945276
vn 0.953103 0 -0.302645
vn 0 -1 -6.12323e-17
vn 0 -1 -6.12323e-17
vn 1.90943e-23 -1 -6.12323e-17

# Mesh 'defaultobject' with 16 faces
g defaultobject
usemtl DefaultMaterial
f  1//1 2//1 3//1
f  2//1 1//1 4//1
f  4//1 1//1 5//1
f  6//2 2//2 4//2
f  2//3 6//3 3//3
f  3//4 6//4 7//4
f  7//5 6//5 8//5
f  7//6 1//6 3//6
f  1//6 7//6 9//7
f  9//8 5//8 1//8
f  5//8 9//8 10//8
f  10//9 4//9 5//9
f  4//9 10//9 6//9
f  8//10 9//10 7//10
f  9//10 8//10 6//11
f  9//10 6//11 10//12

