# File produced by Open Asset Import Library (http://www.assimp.sf.net)
# (assimp v3.1.0)

mtllib _56869.obj.mtl

# 8 vertex positions
v  3.252 1.324 1.287
v  0 1.324 8.10716e-17
v  0.456 1.324 1.943
v  2.796 1.324 -0.657
v  0.456 -1.18974e-16 1.943
v  3.252 -7.8806e-17 1.287
v  2.796 4.02297e-17 -0.657
v  0 0 0

# 0 UV coordinates

# 9 vertex normals
vn 0 1 0
vn 0.228418 -0 0.973563
vn 0.973575 0 -0.228369
vn -0.228748 0 -0.973486
vn -0.228748 5.96088e-17 -0.973486
vn -0.973548 -1.39904e-17 0.228481
vn -0.973548 0 0.228481
vn -5.76979e-24 -1 -6.12323e-17
vn 3.46329e-24 -1 -6.12323e-17

# Mesh 'defaultobject' with 12 faces
g defaultobject
usemtl DefaultMaterial
f  1//1 2//1 3//1
f  2//1 1//1 4//1
f  5//2 1//2 3//2
f  1//2 5//2 6//2
f  6//3 4//3 1//3
f  4//3 6//3 7//3
f  7//4 2//4 4//4
f  2//4 7//4 8//5
f  8//6 3//6 2//6
f  3//6 8//6 5//7
f  5//8 7//8 6//8
f  7//8 5//8 8//9

