# {"id":"ID_384","idOriginal":"ID_384","origin":[14.281350051536014,48.314088306331094],"elevation":265.135}
# Longitude: 14.281350051536014
# Latitude: 48.314088306331094
# Elevation: 265.135

# File produced by Open Asset Import Library (http://www.assimp.sf.net)
# (assimp v3.1.0)

mtllib ID_384.obj.mtl

# 137 vertex positions
v  11.19 19.433 -4.658
v  13.818 18.869 0.143
v  11.935 18.857 -4.963
v  11.277 20.809 1.109
v  6.008 23.436 -2.525
v  7.862 23.424 2.409
v  0.146 18.779 0.396
v  0.038 18.811 -0.014
v  0 18.782 1.15007e-15
v  0.081 18.857 -0.085
v  0.251 18.859 0.358
v  0.376 18.954 0.312
v  1.383 18.977 2.875
v  2.065 19.5 2.61
v  2.108 19.533 2.593
v  2.803 19.556 4.334
v  5.239 21.419 3.407
v  13.818 -5.925 0.143
v  2.803 -5.925 4.334
v  7.862 -5.925 2.409
v  11.277 -5.925 1.109
v  5.239 -5.925 3.407
v  11.935 -5.925 -4.963
v  0.081 -5.925 -0.085
v  11.19 -5.925 -4.658
v  6.008 -5.925 -2.525
v  0.038 -5.925 -0.014
v  0 -5.925 -3.62802e-16
v  0.146 -5.925 0.396
v  0.376 -5.925 0.312
v  0.251 -5.925 0.358
v  1.383 -5.925 2.875
v  2.108 -5.925 2.593
v  2.065 -5.925 2.61
v  15.206 20.793 11.061
v  18.373 18.938 12.499
v  17.515 18.932 10.173
v  19.214 18.937 14.781
v  13.385 23.66 17.099
v  12.504 23.659 14.756
v  11.631 23.665 12.435
v  7.517 18.911 19.413
v  7.352 18.936 18.881
v  7.324 18.914 18.892
v  7.648 19.012 19.38
v  7.445 19.011 18.846
v  6.746 19.027 16.97
v  8.862 21.436 13.5
v  5.88 19.038 14.646
v  19.214 -5.925 14.781
v  13.385 -5.925 17.099
v  7.648 -5.925 19.38
v  17.515 -5.925 10.173
v  18.373 -5.925 12.499
v  15.206 -5.925 11.061
v  8.862 -5.925 13.5
v  5.88 -5.925 14.646
v  11.631 -5.925 12.435
v  7.445 -5.925 18.846
v  6.746 -5.925 16.97
v  7.324 -5.925 18.892
v  7.352 -5.925 18.881
v  7.517 -5.925 19.413
v  8.912 21.088 3.19
v  6.142 21.353 3.776
v  6.152 21.357 3.934
v  2.803 21.667 4.334
v  2.921 21.667 4.63
v  11.067 21.086 8.86
v  9.09 21.252 8.592
v  10.025 21.182 8.969
v  13.818 20.552 0.143
v  17.515 20.558 10.173
v  7.862 21.155 2.409
v  9.552 21.086 4.845
v  8.702 21.182 5.458
v  8.243 21.253 6.364
v  8.386 21.283 7.63
v  11.687 21.085 10.477
v  6.076 21.672 13.174
v  11.631 21.155 12.435
v  5.444 21.738 13.478
v  5.88 21.738 14.646
v  11.687 -5.925 10.477
v  5.444 -5.925 13.478
v  6.076 -5.925 13.174
v  2.921 -5.925 4.63
v  6.142 -5.925 3.776
v  6.152 -5.925 3.934
v  8.912 -5.925 3.19
v  9.552 -5.925 4.845
v  8.702 -5.925 5.458
v  8.243 -5.925 6.364
v  8.386 -5.925 7.63
v  9.09 -5.925 8.592
v  10.025 -5.925 8.969
v  11.067 -5.925 8.86
v  3.084 18.975 5.293
v  2.108 19.01 2.593
v  2.065 18.975 2.61
v  2.921 19.039 4.63
v  6.142 21.564 3.776
v  6.076 18.975 13.174
v  6.152 21.529 3.934
v  8.285 23.204 3.359
v  8.912 23.696 3.19
v  8.243 22.361 6.364
v  8.386 22.121 7.63
v  9.09 22.362 8.592
v  11.096 23.204 10.761
v  10.025 22.926 8.969
v  10.4 23.204 8.93
v  11.067 23.698 8.86
v  11.687 23.702 10.477
v  9 23.204 5.243
v  9.552 23.705 4.845
v  8.702 22.933 5.458
v  8.912 -1.95331e-16 3.19
v  6.152 -2.40888e-16 3.934
v  8.285 -2.05679e-16 3.359
v  6.142 -2.31213e-16 3.776
v  2.921 -2.83506e-16 4.63
v  2.108 -1.58775e-16 2.593
v  2.065 -1.59816e-16 2.61
v  6.076 -8.06675e-16 13.174
v  3.084 -3.24103e-16 5.293
v  11.687 -6.41531e-16 10.477
v  11.096 -6.58921e-16 10.761
v  11.067 -5.42519e-16 8.86
v  10.025 -5.49193e-16 8.969
v  10.4 -5.46805e-16 8.93
v  9.09 -5.26108e-16 8.592
v  8.386 -4.67203e-16 7.63
v  8.243 -3.89683e-16 6.364
v  8.702 -3.34206e-16 5.458
v  9.552 -2.96671e-16 4.845
v  9 -3.21041e-16 5.243

# 0 UV coordinates

# 203 vertex normals
vn 0.545522 0.813118 -0.203089
vn 0.544495 0.813971 -0.202427
vn 0.545164 0.813545 -0.202335
vn 0.545435 0.813204 -0.202975
vn -0.54428 0.813008 0.206828
vn -0.536657 0.818458 0.205246
vn -0.543963 0.813571 0.205441
vn -0.549172 0.812902 0.193908
vn -0.539663 0.81404 0.214718
vn -0.54358 0.813617 0.206271
vn -0.543825 0.813526 0.205986
vn -0.542798 0.81393 0.207094
vn -0.543584 0.81362 0.206249
vn -0.54374 0.813545 0.206134
vn -0.543511 0.813679 0.206209
vn 0.355689 -0.000117898 0.934604
vn 0.355752 0.00059846 0.93458
vn 0.355614 6.87543e-05 0.934633
vn 0.355611 0 0.934634
vn 0 -1 0
vn 0.938233 0 -0.346003
vn 0.938233 0 -0.346003
vn -0.380656 -3.49004e-05 -0.924717
vn -0.380545 -0.00252541 -0.924759
vn -0.380546 0 -0.924762
vn 0 1 0
vn -0.85536 0 -0.518035
vn -0.345705 0 -0.938343
vn -0.345705 5.74569e-17 -0.938343
vn -0.938262 -2.11818e-17 0.345925
vn -0.938262 0 0.345925
vn 0.345357 0 0.938471
vn 0.340324 -2.87967e-05 0.940308
vn 0.343054 0 0.939316
vn -0.930738 0 0.365686
vn -0.930738 0 0.365686
vn 0.367663 0 0.929959
vn 0.362189 -1.06913e-05 0.932105
vn 0.362508 0 0.93198
vn -0.928734 0 0.370747
vn -0.928734 0 0.370747
vn 0.563356 0.799115 -0.209869
vn 0.562754 0.800275 -0.207045
vn 0.564054 0.798804 -0.20918
vn 0.560596 0.800721 -0.211133
vn 0.562229 0.800031 -0.209403
vn -0.552054 0.80715 0.209152
vn -0.562638 0.799044 0.212054
vn -0.563607 0.798173 0.212761
vn -0.561294 0.799753 0.212942
vn -0.558959 0.80081 0.215099
vn -0.563518 0.798245 0.212727
vn -0.562457 0.798866 0.213202
vn -0.56121 0.80041 0.210681
vn -0.561543 0.799487 0.213281
vn 0.369492 -4.17017e-05 0.929234
vn 0.369492 0 0.929234
vn 0.369521 1.55461e-05 0.929222
vn 0.369463 0 0.929246
vn 0.938308 0 -0.345801
vn 0.938205 -2.8985e-05 -0.346079
vn 0.938256 0 -0.345942
vn -0.358865 -0.000162194 -0.933389
vn -0.358836 0.000164725 -0.933401
vn -0.358838 0.000157925 -0.9334
vn -0.358839 0 -0.933399
vn -0.358952 -6.02888e-05 -0.933356
vn -0.358851 -1.69301e-05 -0.933395
vn -0.358727 -0 -0.933442
vn -0.937056 0 0.349178
vn -0.937066 2.80417e-06 0.349152
vn -0.937061 0 0.349167
vn -0.352225 0 -0.935915
vn -0.3656 -5.72749e-05 -0.930772
vn -0.355349 -0 -0.934734
vn -0.937727 0 0.347374
vn 0.244284 0 0.969704
vn 0.244284 0 0.969704
vn 0.0887258 0.995579 -0.0308182
vn 0.0875734 0.9955 -0.0361968
vn 0.0875194 0.995495 -0.0364823
vn 0.0877717 0.995526 -0.0349901
vn 0.0881776 0.99553 -0.0338391
vn 0.0881182 0.995561 -0.0330754
vn 0.0882567 0.995545 -0.0331712
vn 0.0882259 0.995547 -0.0332064
vn 0.0877941 0.995604 -0.0326209
vn 0.0879712 0.995582 -0.0328166
vn 0.0883529 0.995529 -0.0333924
vn 0.0882961 0.995538 -0.0332852
vn 0.0884148 0.995518 -0.0335778
vn 0.0882009 0.995563 -0.0327971
vn 0.0879745 0.995599 -0.0322977
vn 0.0882884 0.99554 -0.0332355
vn 0.0883029 0.995548 -0.0329703
vn 0.0875718 0.995517 -0.0357453
vn 0.0883401 0.995562 -0.0324446
vn 0.0882267 0.995544 -0.0332849
vn 0.0881751 0.995564 -0.0328306
vn 0.0881755 0.995561 -0.0329148
vn -0.433217 0 -0.90129
vn -0.433478 -6.54469e-05 -0.901164
vn -0.433242 -0 -0.901277
vn -0.936856 0 0.349716
vn 0.358727 -0 0.933442
vn 0.358976 -3.11245e-05 0.933347
vn 0.358754 2.31115e-05 0.933432
vn 0.358947 -5.43824e-05 0.933358
vn 0.358727 5.64517e-05 0.933442
vn 0.358851 1.01144e-05 0.933395
vn 0.358952 0 0.933356
vn 0.93829 0 -0.345848
vn 0.93829 0 -0.345848
vn -0.355353 0 -0.934732
vn -0.355772 -4.55706e-05 -0.934573
vn -0.355611 -4.9919e-06 -0.934634
vn -0.355662 -2.36367e-05 -0.934614
vn -0.355611 -0 -0.934634
vn -0.928909 0 0.370308
vn 0.25628 -0 0.966603
vn -0.998003 0 0.0631632
vn -0.998003 0 0.0631632
vn 0.260275 -0 0.965535
vn 0.260275 0 0.965535
vn -0.93269 0 0.360678
vn -0.93269 0 0.360678
vn -0.584933 0 -0.811082
vn -0.584933 0 -0.811082
vn -0.892052 0 -0.451933
vn -0.892052 0 -0.451933
vn -0.993681 0 0.11224
vn -0.993681 0 0.11224
vn -0.806991 0 0.590564
vn -0.806991 0 0.590564
vn -0.373955 0 0.927447
vn 0.104039 -0 0.994573
vn 0.104039 0 0.994573
vn -0.933717 0 0.358011
vn -0.564246 0.797309 0.2143
vn -0.571801 0.791186 0.216952
vn -0.56627 0.795414 0.216
vn -0.566663 0.795369 0.215132
vn -0.595345 0.775675 0.209505
vn -0.566599 0.795398 0.215193
vn -0.56625 0.795601 0.215359
vn -0.567001 0.795178 0.214946
vn -0.567261 0.795034 0.214792
vn -0.566522 0.795419 0.215318
vn -0.566594 0.795387 0.215247
vn -0.566577 0.795405 0.215224
vn -0.566976 0.795041 0.215519
vn -0.566511 0.79542 0.215342
vn -0.566685 0.795303 0.215315
vn -0.566871 0.795286 0.214888
vn -0.567733 0.794699 0.214784
vn -0.566602 0.795413 0.215129
vn -0.260249 0 -0.965541
vn -0.260281 -9.19996e-07 -0.965533
vn -0.260275 -0 -0.965535
vn -1.71755e-19 1 6.05951e-17
vn 0.998003 0 -0.0631632
vn 0.998003 0 -0.0631632
vn -0.25628 0 -0.966603
vn 0.928759 0 -0.370683
vn 0.928759 0 -0.370683
vn -0.367663 0 -0.929959
vn -0.934846 0 0.355053
vn -0.934893 2.00207e-05 0.35493
vn -0.934881 0 0.354961
vn -1.32169e-19 -1 -6.11944e-17
vn 0.433127 0 0.901333
vn 0.433225 3.08554e-06 0.901286
vn 0.433217 0 0.90129
vn 1.62456e-20 -1 -6.11971e-17
vn 0.933717 0 -0.358011
vn 0.933717 0 -0.358011
vn -0.104375 0 -0.994538
vn -0.10346 2.65821e-05 -0.994634
vn -0.104039 -0 -0.994573
vn 4.67991e-21 -1 -6.11871e-17
vn 0.373955 0 -0.927447
vn 0.373955 0 -0.927447
vn 0.806991 0 -0.590564
vn 0.806991 0 -0.590564
vn 0.993681 0 -0.11224
vn 0.993681 0 -0.11224
vn 0.892052 0 0.451933
vn 0.892052 0 0.451933
vn 0.584846 0 0.811144
vn 0.585088 8.72751e-06 0.81097
vn 0.584933 0 0.811082
vn 1.08803e-19 -1 -6.10818e-17
vn 0.93269 0 -0.360678
vn 0.93269 0 -0.360678
vn 5.66426e-23 -1 -6.12323e-17
vn -2.31958e-23 -1 -6.12324e-17
vn -2.29821e-23 -1 -6.12323e-17
vn -3.11256e-24 -1 -6.12323e-17
vn 5.45422e-23 -1 -6.12322e-17
vn -2.62447e-23 -1 -6.12324e-17
vn 1.32791e-23 -1 -6.12323e-17
vn 1.45456e-24 -1 -6.12323e-17
vn -2.28385e-22 -1 -6.12322e-17

# Mesh 'defaultobject' with 286 faces
g defaultobject
usemtl DefaultMaterial
f  1//1 2//1 3//1
f  2//2 1//2 4//2
f  4//3 1//3 5//3
f  4//4 5//4 6//4
f  7//5 8//5 9//5
f  8//6 7//6 10//6
f  10//7 7//7 5//7
f  5//8 7//8 11//8
f  5//9 11//9 12//9
f  5//10 12//10 13//10
f  5//11 13//11 14//11
f  5//12 14//12 15//12
f  5//13 15//13 16//13
f  5//14 16//14 17//14
f  5//15 17//15 6//15
f  17//16 4//16 6//16
f  4//17 17//17 2//17
f  2//18 17//18 16//18
f  2//19 16//19 18//19
f  18//19 16//19 19//19
f  18//20 19//20 20//20
f  18//20 20//20 21//20
f  20//20 19//20 22//20
f  18//21 3//21 2//21
f  3//21 18//21 23//22
f  1//23 10//23 5//23
f  10//24 1//24 3//24
f  10//25 3//25 23//25
f  10//25 23//25 24//25
f  24//26 23//26 25//26
f  24//26 25//26 26//26
f  24//27 8//27 10//27
f  8//27 24//27 27//27
f  27//28 9//28 8//28
f  9//28 27//28 28//29
f  28//30 7//30 9//30
f  7//30 28//30 29//31
f  11//32 30//32 12//32
f  30//33 11//33 7//33
f  30//34 7//34 29//34
f  30//26 29//26 31//26
f  12//35 32//35 13//35
f  32//35 12//35 30//36
f  14//37 33//37 15//37
f  33//38 14//38 13//38
f  33//39 13//39 32//39
f  33//26 32//26 34//26
f  15//40 19//40 16//40
f  19//40 15//40 33//41
f  28//20 31//20 29//20
f  31//20 28//20 27//20
f  31//20 27//20 24//20
f  31//20 24//20 30//20
f  30//20 24//20 26//20
f  30//20 26//20 34//20
f  34//20 26//20 33//20
f  33//20 26//20 22//20
f  22//20 26//20 20//20
f  20//20 26//20 21//20
f  21//20 26//20 25//20
f  21//20 25//20 18//20
f  18//20 25//20 23//20
f  22//20 19//20 33//20
f  34//20 32//20 30//20
f  35//42 36//42 37//42
f  36//43 35//43 38//43
f  38//44 35//44 39//44
f  39//45 35//45 40//45
f  40//46 35//46 41//46
f  42//47 43//47 44//47
f  43//48 42//48 45//48
f  43//49 45//49 46//49
f  47//50 48//50 49//50
f  48//51 47//51 46//51
f  48//52 46//52 45//52
f  48//53 45//53 39//53
f  48//54 39//54 40//54
f  48//55 40//55 41//55
f  45//56 38//56 39//56
f  38//57 45//57 50//57
f  50//58 45//58 51//58
f  51//59 45//59 52//59
f  50//60 36//60 38//60
f  36//61 50//61 37//61
f  37//62 50//62 53//62
f  53//26 50//26 54//26
f  35//63 48//63 41//63
f  48//64 35//64 37//64
f  48//64 37//64 49//65
f  49//66 37//66 53//66
f  49//67 53//67 55//67
f  49//68 55//68 56//68
f  49//69 56//69 57//69
f  56//26 55//26 58//26
f  57//70 47//70 49//70
f  47//71 57//71 46//71
f  46//72 57//72 59//72
f  59//20 57//20 60//20
f  59//73 43//73 46//73
f  43//74 59//74 44//74
f  44//75 59//75 61//75
f  61//26 59//26 62//26
f  61//76 42//76 44//76
f  42//76 61//76 63//76
f  42//77 52//77 45//77
f  52//77 42//77 63//78
f  61//20 52//20 63//20
f  52//20 61//20 51//20
f  51//20 61//20 62//20
f  51//20 62//20 59//20
f  51//20 59//20 60//20
f  51//20 60//20 57//20
f  51//20 57//20 56//20
f  51//20 56//20 58//20
f  51//20 58//20 50//20
f  50//20 58//20 55//20
f  50//20 55//20 53//20
f  50//20 53//20 54//20
f  64//79 65//79 66//79
f  17//80 67//80 64//80
f  65//81 64//81 67//81
f  68//82 65//82 67//82
f  69//83 70//83 71//83
f  72//84 4//84 73//84
f  64//85 73//85 4//85
f  74//86 64//86 4//86
f  17//87 64//87 74//87
f  75//88 73//88 64//88
f  76//89 73//89 75//89
f  77//90 73//90 76//90
f  78//91 73//91 77//91
f  69//92 73//92 78//92
f  70//93 69//93 78//93
f  79//94 73//94 69//94
f  80//95 73//95 79//95
f  35//96 73//96 80//96
f  81//97 35//97 80//97
f  48//98 81//98 80//98
f  82//99 48//99 80//99
f  83//100 48//100 82//100
f  84//101 80//101 79//101
f  80//102 84//102 82//102
f  82//103 84//103 85//103
f  85//26 84//26 86//26
f  85//104 83//104 82//104
f  83//104 85//104 57//104
f  57//105 48//105 83//105
f  48//106 57//106 81//106
f  81//107 57//107 35//107
f  35//108 57//108 73//108
f  73//109 57//109 56//109
f  73//110 56//110 55//110
f  73//111 55//111 53//111
f  55//20 56//20 58//20
f  53//112 72//112 73//112
f  72//112 53//112 18//113
f  18//114 4//114 72//114
f  4//115 18//115 74//115
f  74//116 18//116 17//116
f  17//117 18//117 67//117
f  67//118 18//116 19//118
f  19//26 18//26 20//26
f  20//26 18//26 21//26
f  19//26 20//26 22//26
f  19//119 68//119 67//119
f  68//119 19//119 87//119
f  87//120 65//120 68//120
f  65//120 87//120 88//120
f  65//121 89//121 66//121
f  89//121 65//121 88//122
f  89//123 64//123 66//123
f  64//123 89//123 90//124
f  90//125 75//125 64//125
f  75//125 90//125 91//126
f  75//127 92//127 76//127
f  92//127 75//127 91//128
f  76//129 93//129 77//129
f  93//129 76//129 92//130
f  77//131 94//131 78//131
f  94//131 77//131 93//132
f  94//133 70//133 78//133
f  70//133 94//133 95//134
f  95//135 71//135 70//135
f  71//135 95//135 96//135
f  96//136 69//136 71//136
f  69//136 96//136 97//137
f  97//138 79//138 69//138
f  79//138 97//138 84//138
f  56//20 57//20 84//20
f  86//20 84//20 57//20
f  85//20 86//20 57//20
f  91//20 93//20 92//20
f  53//20 55//20 18//20
f  58//20 18//20 55//20
f  84//20 18//20 58//20
f  56//20 84//20 58//20
f  97//20 18//20 84//20
f  96//20 18//20 97//20
f  95//20 18//20 96//20
f  94//20 18//20 95//20
f  93//20 18//20 94//20
f  91//20 18//20 93//20
f  90//20 18//20 91//20
f  21//20 18//20 90//20
f  20//20 21//20 90//20
f  89//20 20//20 90//20
f  88//20 20//20 89//20
f  22//20 20//20 88//20
f  87//20 22//20 88//20
f  19//20 22//20 87//20
f  98//139 99//139 100//139
f  99//140 98//140 101//140
f  101//141 98//141 102//141
f  102//142 98//142 103//142
f  102//143 103//143 104//143
f  104//144 103//144 105//144
f  105//145 103//145 106//145
f  106//146 103//146 107//146
f  107//147 103//147 108//147
f  108//148 103//148 109//148
f  109//149 103//149 110//149
f  109//150 110//150 111//150
f  111//151 110//151 112//151
f  112//152 110//152 113//152
f  113//153 110//153 114//153
f  106//154 115//154 116//154
f  115//155 106//155 117//155
f  117//156 106//156 107//156
f  118//157 105//157 106//157
f  105//158 118//158 104//158
f  104//158 118//158 119//159
f  119//160 118//160 120//160
f  104//161 121//161 102//161
f  121//161 104//161 119//162
f  121//163 101//163 102//163
f  101//163 121//163 122//163
f  122//164 99//164 101//164
f  99//164 122//164 123//165
f  123//166 100//166 99//166
f  100//166 123//166 124//166
f  124//167 98//167 100//167
f  98//168 124//168 103//168
f  103//169 124//169 125//169
f  125//170 124//170 126//170
f  110//171 127//171 114//171
f  127//172 110//172 103//172
f  127//172 103//172 125//173
f  127//174 125//170 128//174
f  127//175 113//175 114//175
f  113//175 127//175 129//176
f  129//177 112//177 113//177
f  112//178 129//178 111//178
f  111//179 129//179 130//179
f  130//180 129//180 131//180
f  130//181 109//181 111//181
f  109//181 130//181 132//182
f  132//183 108//183 109//183
f  108//183 132//183 133//184
f  108//185 134//185 107//185
f  134//185 108//185 133//186
f  107//187 135//187 117//187
f  135//187 107//187 134//188
f  115//189 136//189 116//189
f  136//190 115//190 117//190
f  136//191 117//191 135//191
f  136//192 135//192 137//192
f  136//193 106//193 116//193
f  106//193 136//193 118//194
f  136//192 137//192 118//195
f  135//192 118//195 137//192
f  127//174 128//174 129//180
f  125//170 129//180 128//174
f  131//180 129//180 125//170
f  130//180 131//180 125//170
f  132//196 130//180 125//170
f  126//170 132//196 125//170
f  133//197 132//196 126//170
f  134//198 133//197 126//170
f  135//192 134//198 126//170
f  118//195 135//192 126//170
f  120//199 118//195 126//170
f  119//200 120//199 126//170
f  121//201 119//200 126//170
f  122//202 121//201 126//170
f  124//170 122//202 126//170
f  123//203 122//202 124//170

