# {"id":"ID_15839","idOriginal":"ID_15839","origin":[14.271598909339644,48.29205627201833],"elevation":325.019}
# Longitude: 14.271598909339644
# Latitude: 48.29205627201833
# Elevation: 325.019

# File produced by Open Asset Import Library (http://www.assimp.sf.net)
# (assimp v3.1.0)

mtllib ID_15839.obj.mtl

# 16 vertex positions
v  12.857 10.353 14.122
v  0.538 10.353 6.882
v  2.245 10.353 16.027
v  13.39 10.353 13.99
v  12.187 10.353 7.238
v  1.139 10.353 6.779
v  10.503 10.353 -1.984
v  0 10.353 6.33938e-16
v  12.857 -8.64723e-16 14.122
v  13.39 -8.5664e-16 13.99
v  2.245 -9.81371e-16 16.027
v  12.187 -4.432e-16 7.238
v  10.503 1.21485e-16 -1.984
v  0 0 0
v  1.139 -4.15094e-16 6.779
v  0.538 -4.21401e-16 6.882

# 0 UV coordinates

# 19 vertex normals
vn 0 1 0
vn 0.240392 -0 0.970676
vn 0.176689 -0 0.984267
vn 0.984496 0 -0.175407
vn 0.983729 -0.00284687 -0.179636
vn 0.984489 0.00389132 -0.175406
vn 0.983733 0 -0.179636
vn -0.185616 0 -0.982622
vn -0.185616 6.01683e-17 -0.982622
vn -0.168919 0 -0.98563
vn -0.986177 -1.0146e-17 0.165696
vn -0.986177 0 0.165696
vn -0.983022 0 0.18349
vn 0 -1 -6.12323e-17
vn -5.75592e-24 -1 -6.12323e-17
vn 0 -1 -6.12324e-17
vn 0 -1 -6.12323e-17
vn -4.22474e-24 -1 -6.12323e-17
vn -2.10005e-23 -1 -6.12323e-17

# Mesh 'defaultobject' with 28 faces
g defaultobject
usemtl DefaultMaterial
f  1//1 2//1 3//1
f  2//1 1//1 4//1
f  2//1 4//1 5//1
f  2//1 5//1 6//1
f  6//1 5//1 7//1
f  6//1 7//1 8//1
f  9//2 4//2 1//2
f  4//2 9//2 10//2
f  11//3 1//3 3//3
f  1//3 11//3 9//3
f  10//4 5//4 4//4
f  5//5 10//5 7//5
f  7//6 10//6 12//6
f  7//7 12//7 13//7
f  13//8 8//8 7//8
f  8//8 13//8 14//9
f  15//10 2//10 6//10
f  2//10 15//10 16//10
f  14//11 6//11 8//11
f  6//11 14//11 15//12
f  16//13 3//13 2//13
f  3//13 16//13 11//13
f  12//14 14//14 13//14
f  14//14 12//14 10//15
f  14//14 10//15 9//16
f  14//14 9//16 15//17
f  15//17 9//16 11//18
f  15//17 11//18 16//19

