# {"id":"ID_30608","idOriginal":"ID_30608","origin":[14.276060602196159,48.274189952557336],"elevation":278.771,"wof":[{"Id":102049853,"Name":"Linz","Placetype":"county","Offset":-1},{"Id":101748071,"Name":"Linz","Placetype":"locality","Offset":-1},{"Id":85632785,"Name":"Austria","Placetype":"country","Offset":-1},{"Id":85681677,"Name":"Oberösterreich","Placetype":"region","Offset":-1},{"Id":85898459,"Name":"Wegscheid","Placetype":"neighbourhood","Offset":-1}]}

# Attribution: City of Linz <http://geo.data.linz.gv.at/katalog/geodata/3d_geo_daten_lod2/>
# Longitude: 14.276060602196159
# Latitude: 48.274189952557336
# Elevation: 278.771

# File produced by Open Asset Import Library (http://www.assimp.sf.net)
# (assimp v3.1.0)


# 12 vertex positions
v  0.009 2.794 -1.192
v  9.287 2.794 -6.968
v  0.053 2.794 -6.973
v  0.007 2.794 -0.887
v  0 2.794 1.71083e-16
v  9.22 2.794 0.054
v  0.053 4.26973e-16 -6.973
v  0.009 7.29889e-17 -1.192
v  0 0 0
v  0.007 5.43131e-17 -0.887
v  9.22 -3.30655e-18 0.054
v  9.287 4.26667e-16 -6.968

# 0 UV coordinates

# 13 vertex normals
vn 0 1 0
vn -0.999971 0 -0.00761092
vn -0.999979 -0 -0.00655723
vn -0.999969 0.000145661 -0.00789152
vn -0.999972 4.62312e-19 -0.00755012
vn 1.83309e-20 -1 -6.12324e-17
vn -0.00585673 -6.12313e-17 0.999983
vn -0.00585673 0 0.999983
vn 0.999955 -0 0.00954093
vn 0.00054149 0 -1
vn -4.04563e-25 -1 -6.12323e-17
vn 9.9317e-25 -1 -6.12323e-17
vn 0 -1 -6.12323e-17

# Mesh 'defaultobject' with 20 faces
g defaultobject
usemtl DefaultMaterial
f  1//1 2//1 3//1
f  2//1 1//1 4//1
f  2//1 4//1 5//1
f  2//1 5//1 6//1
f  7//2 1//2 3//2
f  1//2 7//2 8//2
f  1//3 8//3 4//3
f  4//4 8//4 5//4
f  5//5 8//5 9//5
f  9//6 8//6 10//6
f  9//7 6//7 5//7
f  6//7 9//7 11//8
f  11//9 2//9 6//9
f  2//9 11//9 12//9
f  12//10 3//10 2//10
f  3//10 12//10 7//10
f  10//6 11//11 9//6
f  11//11 10//6 8//6
f  11//11 8//6 7//12
f  11//11 7//12 12//13

