# {"id":"ID_44620","idOriginal":"ID_44620","origin":[14.340652308095368,48.256894529958906],"elevation":252.459,"wof":[{"Id":85681677,"Name":"Oberösterreich","Placetype":"region","Offset":-1},{"Id":85898451,"Name":"Ufer","Placetype":"neighbourhood","Offset":-1},{"Id":102049853,"Name":"Linz","Placetype":"county","Offset":-1},{"Id":85632785,"Name":"Austria","Placetype":"country","Offset":-1}]}

# Attribution: City of Linz <http://geo.data.linz.gv.at/katalog/geodata/3d_geo_daten_lod2/>
# Longitude: 14.340652308095368
# Latitude: 48.256894529958906
# Elevation: 252.459

# File produced by Open Asset Import Library (http://www.assimp.sf.net)
# (assimp v3.1.0)


# 26 vertex positions
v  3.873 2.825 2.17
v  3.576 1.651 4.694
v  6.397 1.651 2.467
v  1.601 1.651 2.194
v  2.444 2.825 0.361
v  0.537 1.651 0.847
v  0.628 1.719 0.795
v  0.065 1.719 0.082
v  6.181 1.652 2.194
v  3.313 1.651 -1.438
v  3.199 1.737 -1.369
v  2.719 1.737 -1.978
v  0 1.651 1.01095e-16
v  2.637 1.651 -2.081
v  0.628 -4.86797e-17 0.795
v  0 0 0
v  0.065 -5.02105e-18 0.082
v  0.537 -5.18638e-17 0.847
v  1.601 -1.34344e-16 2.194
v  3.576 -2.87425e-16 4.694
v  3.199 8.38271e-17 -1.369
v  3.313 8.80521e-17 -1.438
v  2.637 1.27424e-16 -2.081
v  6.397 -1.5106e-16 2.467
v  6.181 -1.34344e-16 2.194
v  2.719 1.21118e-16 -1.978

# 0 UV coordinates

# 39 vertex normals
vn 0.338889 0.837182 0.42928
vn -0.429057 0.837269 0.338955
vn -0.429061 0.837276 0.338932
vn -0.429072 0.837273 0.338926
vn -0.425813 0.835474 0.34737
vn -0.429021 0.837365 0.338764
vn 0.429404 0.838009 -0.336679
vn 0.429042 0.837249 -0.339023
vn 0.429174 0.837182 -0.339021
vn 0.425644 0.838059 -0.341299
vn 0.429823 0.836948 -0.338777
vn -0.338791 0.837206 -0.429309
vn -0.338766 0.837234 -0.429274
vn -0.339866 0.838495 -0.425931
vn -0.784823 0.00289746 0.619713
vn -0.784706 0 0.619868
vn 0 -1 -6.12231e-17
vn -0.784719 0 0.619852
vn -0.784682 0 0.619899
vn -0.496139 0 -0.868243
vn -0.496139 -0 -0.868243
vn -0.517802 0 -0.8555
vn -0.517802 0 -0.8555
vn -0.61949 0 -0.785005
vn -0.61949 4.80677e-17 -0.785005
vn 0.619626 -0 0.784897
vn 0.78422 0 -0.620482
vn 0.784816 0.000202517 -0.619728
vn 0.784775 0 -0.619781
vn 6.84056e-20 -1 -6.12914e-17
vn 0.785378 0 -0.619017
vn 0.783034 -0.00168527 -0.621976
vn 0.784939 0 -0.619573
vn -1.57865e-20 1 6.12458e-17
vn 4.18461e-23 -1 -6.12324e-17
vn 2.02265e-24 -1 -6.12323e-17
vn -3.58101e-22 -1 -6.12327e-17
vn 1.2701e-24 -1 -6.12323e-17
vn 5.98521e-23 -1 -6.12323e-17

# Mesh 'defaultobject' with 48 faces
g defaultobject
usemtl DefaultMaterial
f  1//1 2//1 3//1
f  1//2 4//2 2//2
f  4//3 1//3 5//3
f  4//4 5//4 6//4
f  6//5 5//5 7//5
f  7//6 5//6 8//6
f  9//7 1//7 3//7
f  1//8 9//8 10//8
f  1//9 10//9 5//9
f  5//10 10//10 11//10
f  5//11 11//11 12//11
f  13//12 12//12 14//12
f  12//13 13//13 5//13
f  5//14 13//14 8//14
f  13//15 7//15 8//15
f  7//16 13//16 15//16
f  15//16 13//16 16//16
f  15//17 16//17 17//17
f  18//18 4//18 6//18
f  4//18 18//18 19//18
f  4//19 19//19 2//19
f  2//19 19//19 20//19
f  15//20 6//20 7//20
f  6//20 15//20 18//21
f  10//22 21//22 11//22
f  21//22 10//22 22//23
f  23//24 13//24 14//24
f  13//24 23//24 16//25
f  20//26 3//26 2//26
f  3//26 20//26 24//26
f  24//27 9//27 3//27
f  9//28 24//28 10//28
f  10//29 24//29 22//29
f  22//30 24//30 25//30
f  21//31 12//31 11//31
f  12//32 21//32 14//32
f  14//33 21//33 23//33
f  23//34 21//34 26//34
f  18//35 15//17 19//35
f  19//35 24//30 20//36
f  24//30 19//35 25//30
f  25//30 19//35 22//30
f  22//30 19//35 15//17
f  22//30 15//17 21//37
f  21//37 15//17 17//17
f  21//37 17//17 26//38
f  26//38 17//17 16//17
f  26//38 16//17 23//39

