# File produced by Open Asset Import Library (http://www.assimp.sf.net)
# (assimp v3.1.0)

mtllib ID_21205.obj.mtl

# 24 vertex positions
v  14.393 7.857 7.127
v  4.346 8.344 10.652
v  4.545 7.857 11.139
v  2.303 13.357 5.644
v  2.273 13.43 5.571
v  12.75 11.714 3.302
v  12.083 13.43 1.574
v  0 7.854 4.80919e-16
v  11.472 11.859 -0.007
v  9.844 7.858 -4.006
v  0.207 8.362 0.507
v  2.254 13.384 5.525
v  9.844 2.45297e-16 -4.006
v  0 0 0
v  0.207 -3.10448e-17 0.507
v  2.254 -3.38309e-16 5.525
v  2.303 -3.45595e-16 5.644
v  4.346 -6.52247e-16 10.652
v  4.545 -6.82067e-16 11.139
v  2.273 -3.41125e-16 5.571
v  14.393 -4.36403e-16 7.127
v  11.472 4.28626e-19 -0.007
v  12.083 -9.63797e-17 1.574
v  12.75 -2.02189e-16 3.302

# 0 UV coordinates

# 38 vertex normals
vn 0.256297 0.733843 0.629115
vn 0.256429 0.733426 0.629549
vn 0.256866 0.734121 0.628559
vn 0.256459 0.733487 0.629464
vn 0.256456 0.733516 0.629432
vn -0.256455 0.733494 -0.629458
vn -0.256409 0.733362 -0.629631
vn -0.256263 0.733136 -0.629953
vn -0.256463 0.7335 -0.629448
vn 0.104824 0.681226 -0.72453
vn -0.376932 0 -0.926241
vn -0.376932 5.67159e-17 -0.926241
vn -0.924601 0.000964279 0.380937
vn -0.924905 -0.00288816 0.380188
vn -0.925906 3.42304e-05 0.377755
vn -0.925905 0.000276391 0.377755
vn -0.925901 0 0.377766
vn -0.925809 -0.000337272 0.377992
vn -0.925923 5.93885e-05 0.377713
vn -0.925771 -0.000207352 0.378085
vn -0.924675 -0.00243053 0.380749
vn -0.925918 3.88602e-05 0.377726
vn -0.925698 0 0.378263
vn -1.47621e-20 -1 -6.12259e-17
vn 0.377285 -0 0.926097
vn 0.926191 0 -0.377054
vn 0.926191 0 -0.377054
vn 0.93284 -0.000220248 -0.360291
vn 0.932844 3.06427e-05 -0.360281
vn 0.932766 0 -0.360481
vn 0.918822 0 -0.394673
vn 0.918822 0 -0.394673
vn 0.932914 0 -0.3601
vn 0 -1 -6.12323e-17
vn 0 -1 -6.12323e-17
vn 1.3495e-24 -1 -6.12323e-17
vn -2.29852e-25 -1 -6.12323e-17
vn -5.76866e-25 -1 -6.12323e-17

# Mesh 'defaultobject' with 44 faces
g defaultobject
usemtl DefaultMaterial
f  1//1 2//1 3//1
f  2//2 1//2 4//2
f  4//3 1//3 5//3
f  5//4 1//4 6//4
f  5//5 6//5 7//5
f  8//6 9//6 10//6
f  9//7 8//7 7//7
f  7//8 8//8 11//8
f  7//9 11//9 5//9
f  5//10 11//10 12//10
f  13//11 8//11 10//11
f  8//11 13//11 14//12
f  12//13 4//13 5//13
f  4//14 12//14 11//14
f  4//15 11//15 2//15
f  2//16 11//16 8//16
f  2//17 8//17 14//17
f  2//18 14//18 15//18
f  2//19 15//19 16//19
f  2//20 16//20 3//20
f  3//21 16//21 17//21
f  3//22 17//22 18//22
f  3//23 18//23 19//23
f  17//24 16//24 20//24
f  19//25 1//25 3//25
f  1//25 19//25 21//25
f  22//26 10//26 9//26
f  10//26 22//26 13//27
f  6//28 9//28 7//28
f  9//29 6//29 23//29
f  9//30 23//30 22//30
f  1//31 24//31 6//31
f  24//31 1//31 21//32
f  23//33 6//33 24//33
f  19//34 24//34 21//34
f  24//34 19//34 18//35
f  24//34 18//35 17//24
f  24//34 17//24 23//36
f  23//36 17//24 20//24
f  23//36 20//24 22//34
f  22//34 20//24 16//24
f  22//34 16//24 15//37
f  22//34 15//37 13//38
f  13//38 15//37 14//34

