# File produced by Open Asset Import Library (http://www.assimp.sf.net)
# (assimp v3.1.0)

mtllib ID_24293.obj.mtl

# 14 vertex positions
v  15.193 5.418 5.475
v  5.119 5.38 6.352
v  5.169 5.432 6.702
v  14.508 4.524 -0.463
v  0 4.349 2.66299e-16
v  0.846 5.382 6.847
v  14.373 4.349 -1.619
v  5.169 -4.10379e-16 6.702
v  15.193 -3.35247e-16 5.475
v  0.846 -4.19258e-16 6.847
v  5.119 -3.88948e-16 6.352
v  14.508 2.83506e-17 -0.463
v  14.373 9.91352e-17 -1.619
v  0 0 0

# 0 UV coordinates

# 24 vertex normals
vn -0.0163251 0.989347 -0.144657
vn -0.0165272 0.988999 -0.146993
vn -0.0165843 0.988974 -0.147156
vn -0.0166246 0.988978 -0.147125
vn -0.0166437 0.988883 -0.147758
vn 0.121499 -0 0.992592
vn 0.121499 0 0.992592
vn 0.115074 -0 0.993357
vn 0.115074 0 0.993357
vn 0.993412 0 -0.114599
vn 0.993412 0 -0.114599
vn 0.99325 0 -0.115994
vn 0.99325 0 -0.115994
vn -0.111934 0 -0.993716
vn -0.111934 6.08475e-17 -0.993716
vn -0.992453 0 0.122625
vn -0.992453 0 0.122625
vn -0.989949 0 0.141422
vn -0.989949 0 0.141422
vn -3.50808e-24 -1 -6.12323e-17
vn -9.00091e-24 -1 -6.12323e-17
vn 0 -1 -6.12324e-17
vn 5.31602e-25 -1 -6.12323e-17
vn 0 -1 -6.12323e-17

# Mesh 'defaultobject' with 24 faces
g defaultobject
usemtl DefaultMaterial
f  1//1 2//1 3//1
f  2//2 1//2 4//2
f  2//3 5//3 6//3
f  5//4 2//4 4//4
f  5//5 4//5 7//5
f  8//6 1//6 3//6
f  1//6 8//6 9//7
f  10//8 2//8 6//8
f  2//8 10//8 11//9
f  9//10 4//10 1//10
f  4//10 9//10 12//11
f  4//12 12//12 7//12
f  7//12 12//12 13//13
f  13//14 5//14 7//14
f  5//14 13//14 14//15
f  5//16 10//16 6//16
f  10//16 5//16 14//17
f  2//18 8//18 3//18
f  8//18 2//18 11//19
f  8//20 12//20 9//20
f  12//20 8//20 13//21
f  13//21 8//20 11//22
f  13//21 11//22 14//23
f  14//23 11//22 10//24

