# File produced by Open Asset Import Library (http://www.assimp.sf.net)
# (assimp v3.1.0)

mtllib ID_38706.obj.mtl

# 12 vertex positions
v  7.757 1.754 -4.37
v  2.136 1.754 1.593
v  3.368 1.754 2.384
v  0.964 1.754 0.704
v  0 1.754 1.07402e-16
v  4.405 1.754 -6.689
v  2.136 -9.75431e-17 1.593
v  3.368 -1.45978e-16 2.384
v  0.964 -4.31076e-17 0.704
v  0 0 0
v  7.757 2.67585e-16 -4.37
v  4.405 4.09583e-16 -6.689

# 0 UV coordinates

# 13 vertex normals
vn 0 1 0
vn -0.540274 0 0.841489
vn -0.604342 0 0.796725
vn -0.589765 -4.94497e-17 0.807575
vn -0.589765 0 0.807575
vn 0.838506 -0 0.544892
vn 0.568942 0 -0.822378
vn -0.835168 0 -0.549995
vn -0.835168 3.36775e-17 -0.549995
vn 6.73381e-24 -1 -6.12323e-17
vn 0 -1 -6.12323e-17
vn 0 -1 -6.12323e-17
vn 0 -1 -6.12324e-17

# Mesh 'defaultobject' with 20 faces
g defaultobject
usemtl DefaultMaterial
f  1//1 2//1 3//1
f  2//1 1//1 4//1
f  4//1 1//1 5//1
f  5//1 1//1 6//1
f  7//2 3//2 2//2
f  3//2 7//2 8//2
f  9//3 2//3 4//3
f  2//3 9//3 7//3
f  10//4 4//4 5//4
f  4//4 10//4 9//5
f  8//6 1//6 3//6
f  1//6 8//6 11//6
f  11//7 6//7 1//7
f  6//7 11//7 12//7
f  12//8 5//8 6//8
f  5//8 12//8 10//9
f  7//10 11//10 8//10
f  11//10 7//10 12//11
f  12//11 7//10 9//12
f  12//11 9//12 10//13

