# File produced by Open Asset Import Library (http://www.assimp.sf.net)
# (assimp v3.1.0)

mtllib ID_44569.obj.mtl

# 12 vertex positions
v  0 3.454 2.11496e-16
v  4.864 5.11 -3.26
v  3.379 3.394 -4.46
v  1.411 5.11 1.187
v  6.315 3.434 -2.089
v  2.838 3.434 2.389
v  0 0 0
v  3.379 2.73096e-16 -4.46
v  2.838 -1.46284e-16 2.389
v  1.411 -7.26828e-17 1.187
v  6.315 1.27914e-16 -2.089
v  4.864 1.99617e-16 -3.26

# 0 UV coordinates

# 16 vertex normals
vn -0.528018 0.743682 -0.410043
vn -0.52799 0.743739 -0.409973
vn 0.528059 0.743665 0.410018
vn 0.528064 0.743656 0.41003
vn -0.797074 0 -0.603882
vn -0.643993 0.000351567 0.765031
vn -0.643995 0 0.76503
vn 6.09076e-21 -1 -6.12304e-17
vn 0.789855 -0 0.613293
vn 0.628272 0.000354004 -0.777993
vn 0.628275 0 -0.777991
vn 0.62852 -0.000345535 -0.777793
vn 0.628025 0 -0.778193
vn -2.50436e-24 -1 -6.12323e-17
vn 0 -1 -6.12323e-17
vn 4.95786e-24 -1 -6.12323e-17

# Mesh 'defaultobject' with 20 faces
g defaultobject
usemtl DefaultMaterial
f  1//1 2//1 3//1
f  2//2 1//2 4//2
f  5//3 4//3 6//3
f  4//4 5//4 2//4
f  3//5 7//5 1//5
f  7//5 3//5 8//5
f  1//6 6//6 4//6
f  6//7 1//7 7//7
f  6//7 7//7 9//7
f  9//8 7//8 10//8
f  9//9 5//9 6//9
f  5//9 9//9 11//9
f  5//10 3//10 2//10
f  3//11 5//11 8//11
f  8//12 5//12 12//12
f  12//13 5//13 11//13
f  10//8 11//14 9//8
f  11//14 10//8 7//8
f  11//14 7//8 12//15
f  12//15 7//8 8//16

