# File produced by Open Asset Import Library (http://www.assimp.sf.net)
# (assimp v3.1.0)

mtllib ID_47469.obj.mtl

# 8 vertex positions
v  0 2.721 1.66613e-16
v  4.991 2.186 3.625
v  2.966 2.186 -1.236
v  2.025 2.721 4.861
v  0 0 0
v  2.966 7.56832e-17 -1.236
v  2.025 -2.9765e-16 4.861
v  4.991 -2.21967e-16 3.625

# 0 UV coordinates

# 8 vertex normals
vn 0.151609 0.986421 -0.0631574
vn -0.38466 0 -0.923059
vn -0.923105 -2.35468e-17 0.384548
vn -0.923105 0 0.384548
vn 0.38466 -0 0.923059
vn 0.923105 0 -0.384548
vn 0 -1 -6.12323e-17
vn 6.2574e-24 -1 -6.12323e-17

# Mesh 'defaultobject' with 12 faces
g defaultobject
usemtl DefaultMaterial
f  1//1 2//1 3//1
f  2//1 1//1 4//1
f  3//2 5//2 1//2
f  5//2 3//2 6//2
f  5//3 4//3 1//3
f  4//3 5//3 7//4
f  7//5 2//5 4//5
f  2//5 7//5 8//5
f  8//6 3//6 2//6
f  3//6 8//6 6//6
f  8//7 5//7 6//7
f  5//7 8//7 7//8

