# File produced by Open Asset Import Library (http://www.assimp.sf.net)
# (assimp v3.1.0)

mtllib ID_60408.obj.mtl

# 8 vertex positions
v  0 8.056 4.93288e-16
v  0.414 8.056 9.077
v  0.176 8.056 -0.005
v  0.255 8.056 9.082
v  0.176 3.06162e-19 -0.005
v  0 0 0
v  0.255 -5.56112e-16 9.082
v  0.414 -5.55806e-16 9.077

# 0 UV coordinates

# 8 vertex normals
vn -0 1 0
vn -0.0283976 0 -0.999597
vn -0.0283976 6.12076e-17 -0.999597
vn -0.999606 -1.71857e-18 0.0280665
vn -0.999606 0 0.0280665
vn 0.0314317 -0 0.999506
vn 0.999657 0 -0.0261967
vn 0 -1 -6.12323e-17

# Mesh 'defaultobject' with 12 faces
g defaultobject
usemtl DefaultMaterial
f  1//1 2//1 3//1
f  2//1 1//1 4//1
f  5//2 1//2 3//2
f  1//2 5//2 6//3
f  6//4 4//4 1//4
f  4//4 6//4 7//5
f  7//6 2//6 4//6
f  2//6 7//6 8//6
f  8//7 3//7 2//7
f  3//7 8//7 5//7
f  8//8 6//8 5//8
f  6//8 8//8 7//8

