# {"id":"ID_58257","idOriginal":"ID_58257","origin":[14.285806065471734,48.304781510160815],"elevation":262.759}
# Longitude: 14.285806065471734
# Latitude: 48.304781510160815
# Elevation: 262.759

# File produced by Open Asset Import Library (http://www.assimp.sf.net)
# (assimp v3.1.0)

mtllib ID_58257.obj.mtl

# 10 vertex positions
v  0 16.447 1.00709e-15
v  2.836 16.447 1.595
v  1.306 16.447 -0.812
v  0.471 16.447 0.767
v  1.48 16.447 2.379
v  0 0 0
v  1.48 -1.45672e-16 2.379
v  0.471 -4.69652e-17 0.767
v  2.836 -9.76656e-17 1.595
v  1.306 4.97207e-17 -0.812

# 0 UV coordinates

# 12 vertex normals
vn -0 1 0
vn -0.852154 -3.20423e-17 0.523291
vn -0.847643 -0.000468417 0.530566
vn -0.849099 0 0.528233
vn 0 1 6.1232e-17
vn 0.500533 -0 0.865718
vn 0.843936 0 -0.536444
vn -0.52801 0 -0.849238
vn -0.52801 5.20008e-17 -0.849238
vn -2.22291e-24 -1 -6.12323e-17
vn 0 -1 -6.12323e-17
vn 0 -1 -6.12323e-17

# Mesh 'defaultobject' with 16 faces
g defaultobject
usemtl DefaultMaterial
f  1//1 2//1 3//1
f  2//1 1//1 4//1
f  2//1 4//1 5//1
f  6//2 4//2 1//2
f  4//3 6//3 5//3
f  5//4 6//4 7//4
f  7//5 6//5 8//5
f  7//6 2//6 5//6
f  2//6 7//6 9//6
f  9//7 3//7 2//7
f  3//7 9//7 10//7
f  10//8 1//8 3//8
f  1//8 10//8 6//9
f  8//10 9//10 7//10
f  9//10 8//10 6//11
f  9//10 6//11 10//12

