# {"id":"ID_24646","idOriginal":"ID_24646","origin":[14.281298554918987,48.29063558428442],"elevation":298.787}
# Longitude: 14.281298554918987
# Latitude: 48.29063558428442
# Elevation: 298.787

# File produced by Open Asset Import Library (http://www.assimp.sf.net)
# (assimp v3.1.0)

mtllib ID_24646.obj.mtl

# 41 vertex positions
v  9.266 7.481 11.594
v  9.144 7.219 11.92
v  9.273 7.405 11.686
v  8.917 6.892 12.333
v  8.501 6.605 12.711
v  4.903 10.855 7.863
v  6.3 6.582 12.911
v  5.283 8.896 10.198
v  5.586 7.219 12.198
v  5.475 7.322 12.082
v  3.334 8.872 10.379
v  3.332 9.085 10.122
v  2.928 9.07 10.171
v  9.144 7.481 10.026
v  9.358 7.302 10.009
v  8.525 7.303 -0.666
v  4.263 10.855 -0.333
v  0.814 7.303 10.414
v  0 7.301 4.47057e-16
v  1.204 7.628 10.383
v  9.144 -6.13915e-16 10.026
v  9.273 -7.15561e-16 11.686
v  9.266 -7.09928e-16 11.594
v  8.525 4.07807e-17 -0.666
v  9.358 -6.12875e-16 10.009
v  1.204 -6.35775e-16 10.383
v  0.814 -6.37674e-16 10.414
v  3.332 -6.19794e-16 10.122
v  2.928 -6.22794e-16 10.171
v  5.283 -6.24447e-16 10.198
v  3.334 -6.3553e-16 10.379
v  8.501 -7.78324e-16 12.711
v  6.3 -7.90571e-16 12.911
v  0 0 0
v  4.263 2.03904e-17 -0.333
v  5.475 -7.39809e-16 12.082
v  5.917 6.912 12.543
v  5.917 -7.68037e-16 12.543
v  5.586 -7.46912e-16 12.198
v  8.917 -7.55178e-16 12.333
v  9.144 -7.2989e-16 11.92

# 0 UV coordinates

# 65 vertex normals
vn 0.0383982 0.771827 0.634672
vn 0.0522178 0.768771 0.637388
vn 0.0463058 0.770391 0.635887
vn 0.0498001 0.769059 0.637235
vn 0.0498646 0.769079 0.637206
vn 0.0506128 0.769151 0.63706
vn 0.0496822 0.769017 0.637294
vn 0.0471927 0.768925 0.637594
vn 0.0497024 0.769114 0.637176
vn 0.0495081 0.769182 0.637109
vn 0.048661 0.769511 0.636777
vn 0.637174 0.769124 -0.049576
vn 0.638189 0.768034 -0.0532672
vn 0.637259 0.769048 -0.0496551
vn 0.63713 0.769149 -0.0497515
vn -0.637262 0.769045 0.0496633
vn -0.637113 0.769163 0.0497501
vn -0.637175 0.769122 0.049594
vn -0.636657 0.769205 0.0546959
vn 0.996985 -0.00207505 -0.0775714
vn 0.996994 0 -0.0774771
vn 1.6008e-19 1 6.12207e-17
vn 0.996969 0 -0.0777963
vn 0.0791908 -0 0.996859
vn 0.0791908 0 0.996859
vn 0.0792352 0 0.996856
vn 0.0792352 0 0.996856
vn 0.120327 0.00209122 0.992732
vn 0.121738 0 0.992562
vn 0.121738 0 0.992562
vn 9.919e-21 -1 -6.11508e-17
vn 0.0924701 0 0.995715
vn 0.0924701 0 0.995716
vn 0.0904949 0 0.995897
vn -0.0778859 1.09708e-05 -0.996962
vn -0.0778859 0 -0.996962
vn -0.0778859 6.10463e-17 -0.996962
vn 0 -1 -6.12331e-17
vn -0.996959 0 0.0779263
vn -0.996959 0 0.0779263
vn -0.99997 0 0.00778223
vn -0.99997 0 0.00778223
vn -0.994847 0 0.101386
vn -0.994847 0 0.101386
vn -0.722507 0 0.691364
vn -0.72161 -2.88489e-05 0.6923
vn -0.721826 0 0.692075
vn -2.29351e-19 1 6.14497e-17
vn -0.692845 0 0.721087
vn 0.672496 0 0.7401
vn 0.875742 0 0.482779
vn 0.876335 4.55042e-05 0.481702
vn 0.875742 -8.62242e-05 0.482779
vn 0.87635 0 0.481675
vn 6.62824e-24 -1 -6.12322e-17
vn -1.39676e-23 -1 -6.12323e-17
vn -1.35395e-23 -1 -6.12323e-17
vn 2.06869e-23 -1 -6.12322e-17
vn -2.59561e-24 -1 -6.12325e-17
vn -3.4144e-23 -1 -6.12327e-17
vn 3.66036e-24 -1 -6.12323e-17
vn -9.50878e-23 -1 -6.12321e-17
vn 0 -1 -6.12323e-17
vn 4.59737e-22 -1 -6.12281e-17
vn -5.28996e-23 -1 -6.12323e-17

# Mesh 'defaultobject' with 77 faces
g defaultobject
usemtl DefaultMaterial
f  1//1 2//1 3//1
f  2//2 1//2 4//2
f  4//3 1//3 5//3
f  5//4 1//4 6//4
f  5//5 6//5 7//5
f  7//6 6//6 8//6
f  7//7 8//7 9//7
f  9//8 8//8 10//8
f  8//9 6//9 11//9
f  11//10 6//10 12//10
f  12//11 6//11 13//11
f  14//12 6//12 1//12
f  6//13 14//13 15//13
f  6//14 15//14 16//14
f  6//15 16//15 17//15
f  18//16 17//16 19//16
f  17//17 18//17 6//17
f  6//18 18//18 13//18
f  13//19 18//19 20//19
f  3//20 14//20 1//20
f  14//21 3//21 21//21
f  21//21 3//21 22//21
f  21//22 22//22 23//22
f  15//23 24//23 16//23
f  24//23 15//23 25//23
f  21//24 15//24 14//24
f  15//24 21//24 25//25
f  18//26 26//26 20//26
f  26//26 18//26 27//27
f  20//28 12//28 13//28
f  12//29 20//29 28//29
f  28//29 20//29 26//30
f  28//31 26//31 29//31
f  11//32 30//32 8//32
f  30//32 11//32 31//33
f  7//34 32//34 5//34
f  32//34 7//34 33//34
f  16//35 19//35 17//35
f  19//36 16//36 24//36
f  19//36 24//36 34//37
f  34//38 24//38 35//38
f  19//39 27//39 18//39
f  27//39 19//39 34//40
f  28//41 11//41 12//41
f  11//41 28//41 31//42
f  30//43 10//43 8//43
f  10//43 30//43 36//44
f  36//45 9//45 10//45
f  9//46 36//46 37//46
f  37//47 36//47 38//47
f  38//48 36//48 39//48
f  38//49 7//49 37//49
f  7//49 38//49 33//49
f  5//50 40//50 4//50
f  40//50 5//50 32//50
f  2//51 22//51 3//51
f  22//52 2//52 4//52
f  22//53 4//53 41//53
f  41//54 4//54 40//54
f  33//55 40//55 32//55
f  40//55 33//55 38//56
f  40//55 38//56 41//57
f  41//57 38//56 39//58
f  41//57 39//58 22//59
f  22//59 39//58 36//60
f  22//59 36//60 30//61
f  22//59 30//61 23//62
f  23//62 30//61 21//63
f  27//64 29//31 26//31
f  29//31 27//64 34//38
f  29//31 34//38 28//31
f  28//31 34//38 35//38
f  28//31 35//38 24//38
f  21//63 24//38 25//65
f  24//38 21//63 30//61
f  24//38 30//61 31//63
f  24//38 31//63 28//31

