# {"id":"ID_41284","idOriginal":"ID_41284","origin":[14.260605346614264,48.3163073035199],"elevation":394.984}
# Longitude: 14.260605346614264
# Latitude: 48.3163073035199
# Elevation: 394.984

# File produced by Open Asset Import Library (http://www.assimp.sf.net)
# (assimp v3.1.0)

mtllib ID_41284.obj.mtl

# 8 vertex positions
v  4.078 3.119 -0.544
v  0.846 3.119 6.596
v  6.309 3.119 2.851
v  0 3.119 1.90984e-16
v  4.078 3.33104e-17 -0.544
v  0 0 0
v  0.846 -4.03889e-16 6.596
v  6.309 -1.74573e-16 2.851

# 0 UV coordinates

# 8 vertex normals
vn 0 1 -0
vn -0.132227 0 -0.991219
vn -0.132227 6.06947e-17 -0.991219
vn -0.991875 -7.78982e-18 0.127217
vn -0.991875 0 0.127217
vn 0.56542 -0 0.824803
vn 0.835705 0 -0.549178
vn 0 -1 -6.12323e-17

# Mesh 'defaultobject' with 12 faces
g defaultobject
usemtl DefaultMaterial
f  1//1 2//1 3//1
f  2//1 1//1 4//1
f  5//2 4//2 1//2
f  4//2 5//2 6//3
f  6//4 2//4 4//4
f  2//4 6//4 7//5
f  7//6 3//6 2//6
f  3//6 7//6 8//6
f  8//7 1//7 3//7
f  1//7 8//7 5//7
f  5//8 7//8 6//8
f  7//8 5//8 8//8

