# {"id":"ID_47199","idOriginal":"ID_47199","origin":[14.30697872629509,48.246642852636725],"elevation":261.171}
# Longitude: 14.30697872629509
# Latitude: 48.246642852636725
# Elevation: 261.171

# File produced by Open Asset Import Library (http://www.assimp.sf.net)
# (assimp v3.1.0)

mtllib ID_47199.obj.mtl

# 8 vertex positions
v  0 10.313 6.31489e-16
v  6.7 10.313 -0.615
v  5.382 10.313 -3.081
v  1.385 10.313 2.437
v  6.7 3.76579e-17 -0.615
v  5.382 1.88657e-16 -3.081
v  0 0 0
v  1.385 -1.49223e-16 2.437

# 0 UV coordinates

# 9 vertex normals
vn 0 1 0
vn 0.881937 0 -0.471368
vn -0.496816 0 -0.867856
vn -0.496816 5.31408e-17 -0.867856
vn -0.869404 -3.0255e-17 0.494101
vn -0.869404 0 0.494101
vn 0.497965 -0 0.867197
vn 7.63576e-25 -1 -6.12323e-17
vn 3.8519e-25 -1 -6.12323e-17

# Mesh 'defaultobject' with 12 faces
g defaultobject
usemtl DefaultMaterial
f  1//1 2//1 3//1
f  2//1 1//1 4//1
f  5//2 3//2 2//2
f  3//2 5//2 6//2
f  6//3 1//3 3//3
f  1//3 6//3 7//4
f  7//5 4//5 1//5
f  4//5 7//5 8//6
f  8//7 2//7 4//7
f  2//7 8//7 5//7
f  5//8 7//8 6//8
f  7//8 5//8 8//9

