# {"id":"ID_37481","idOriginal":"ID_37481","origin":[14.28320422976247,48.30346971491333],"elevation":267.391,"wof":[{"Id":85681677,"Name":"Oberösterreich","Placetype":"region","Offset":-1},{"Id":102049853,"Name":"Linz","Placetype":"county","Offset":-1},{"Id":85898449,"Name":"Steeg","Placetype":"neighbourhood","Offset":-1},{"Id":101748071,"Name":"Linz","Placetype":"locality","Offset":-1},{"Id":85632785,"Name":"Austria","Placetype":"country","Offset":-1}]}

# Attribution: City of Linz <http://geo.data.linz.gv.at/katalog/geodata/3d_geo_daten_lod2/>
# Longitude: 14.28320422976247
# Latitude: 48.30346971491333
# Elevation: 267.391

# File produced by Open Asset Import Library (http://www.assimp.sf.net)
# (assimp v3.1.0)


# 12 vertex positions
v  12.088 2.239 10.092
v  0 2.239 1.37099e-16
v  10.804 2.239 11.414
v  1.646 2.239 -1.641
v  1.754 2.239 -1.525
v  12.391 2.239 9.781
v  1.646 1.00482e-16 -1.641
v  0 0 0
v  10.804 -6.98906e-16 11.414
v  1.754 9.33793e-17 -1.525
v  12.391 -5.98914e-16 9.781
v  12.088 -6.17957e-16 10.092

# 0 UV coordinates

# 15 vertex normals
vn 0 1 0
vn -0.70603 0 -0.708182
vn -0.70603 4.33636e-17 -0.708182
vn -0.726247 -4.20932e-17 0.687434
vn -0.726247 0 0.687434
vn 0.731894 0 -0.681418
vn 0.728327 0.000369585 -0.68523
vn 0.731415 -0.0361746 -0.680972
vn 0.728327 0 -0.68523
vn 0.717341 -0 0.696722
vn 0.716259 0.00127676 0.697833
vn 0.717135 0 0.696934
vn 5.33133e-21 -1 -6.12277e-17
vn 0 -1 -6.12323e-17
vn 0 -1 -6.12244e-17

# Mesh 'defaultobject' with 20 faces
g defaultobject
usemtl DefaultMaterial
f  1//1 2//1 3//1
f  2//1 1//1 4//1
f  4//1 1//1 5//1
f  5//1 1//1 6//1
f  7//2 2//2 4//2
f  2//2 7//2 8//3
f  8//4 3//4 2//4
f  3//4 8//4 9//5
f  5//6 7//6 4//6
f  7//7 5//7 6//7
f  7//8 6//8 10//8
f  10//9 6//9 11//9
f  9//10 1//10 3//10
f  1//11 9//11 6//11
f  6//12 9//12 11//12
f  11//13 9//13 12//13
f  7//14 9//13 8//14
f  9//13 7//14 12//13
f  12//13 7//14 10//15
f  12//13 10//15 11//13

