# {"id":"ID_11469","idOriginal":"ID_11469","origin":[14.313409559085652,48.27132473107336],"elevation":259.335}
# Longitude: 14.313409559085652
# Latitude: 48.27132473107336
# Elevation: 259.335

# File produced by Open Asset Import Library (http://www.assimp.sf.net)
# (assimp v3.1.0)

mtllib ID_11469.obj.mtl

# 26 vertex positions
v  6.535 12.368 -2.73
v  15.622 8.764 3.553
v  11.992 8.784 -5.01
v  13.085 12.368 12.876
v  16.218 8.845 5.317
v  17.426 8.036 4.749
v  18.385 8.889 10.669
v  16.666 8.061 3.042
v  6.395 7.976 15.661
v  5.456 7.976 13.426
v  6.369 7.959 15.672
v  0 8.076 4.94512e-16
v  0.499 8.403 -0.208
v  16.666 -1.86269e-16 3.042
v  17.426 -2.90792e-16 4.749
v  11.992 3.06774e-16 -5.01
v  15.622 -2.17559e-16 3.553
v  6.535 1.67164e-16 -2.73
v  0.499 1.27363e-17 -0.208
v  0 0 0
v  5.456 -8.22105e-16 13.426
v  6.369 -9.59633e-16 15.672
v  6.395 -9.5896e-16 15.661
v  13.085 -7.88428e-16 12.876
v  18.385 -6.53288e-16 10.669
v  16.218 -3.25572e-16 5.317

# 0 UV coordinates

# 43 vertex normals
vn 0.477877 0.855219 -0.200583
vn 0.47787 0.855227 -0.200567
vn 0.477659 0.855323 -0.200661
vn 0.47817 0.855 -0.200819
vn 0.477884 0.855229 -0.200524
vn 0.477906 0.855281 -0.20025
vn -0.47559 0.856674 0.199812
vn -0.466827 0.862326 0.19613
vn -0.477919 0.855189 0.200614
vn -0.477384 0.85565 0.199916
vn -0.477944 0.855178 0.200598
vn 0.913547 0 -0.406734
vn 0.920689 0 -0.390296
vn 0.92069 0 -0.390296
vn -0.439626 0 -0.898181
vn -0.385516 0 -0.922701
vn -0.385524 -4.53272e-06 -0.922698
vn -0.385516 9.59495e-06 -0.922701
vn -0.385527 -0 -0.922697
vn -0.384747 -0 -0.923022
vn -0.384747 5.65188e-17 -0.923022
vn -0.926426 -2.30526e-17 0.376477
vn -0.926426 0 0.376477
vn -0.926386 0 0.376576
vn -0.926386 0 0.376576
vn 0.38963 -0 0.920971
vn 0.38431 2.04215e-05 0.923204
vn 0.384398 -3.54971e-05 0.923168
vn 0.389607 -0.00832993 0.920944
vn 0.384321 6.73048e-05 0.923199
vn 0.384418 0 0.923159
vn 0.425508 -0 0.904955
vn 0.926904 0 -0.375299
vn 1.93383e-21 -1 -6.12332e-17
vn 1.20541e-23 -1 -6.12323e-17
vn 9.79174e-24 -1 -6.12323e-17
vn -5.45086e-24 -1 -6.12323e-17
vn 0 -1 -6.12323e-17
vn 0 -1 -6.12323e-17
vn 4.30936e-24 -1 -6.12323e-17
vn 2.14379e-23 -1 -6.12323e-17
vn 7.69964e-24 -1 -6.12323e-17
vn 9.14656e-24 -1 -6.12323e-17

# Mesh 'defaultobject' with 48 faces
g defaultobject
usemtl DefaultMaterial
f  1//1 2//1 3//1
f  2//2 1//2 4//2
f  2//3 4//3 5//3
f  2//4 5//4 6//4
f  5//5 4//5 7//5
f  6//6 8//6 2//6
f  9//7 10//7 11//7
f  10//8 9//8 12//8
f  12//9 9//9 4//9
f  12//10 4//10 13//10
f  13//11 4//11 1//11
f  6//12 14//12 8//12
f  14//12 6//12 15//12
f  2//13 16//13 3//13
f  16//13 2//13 17//14
f  8//15 17//15 2//15
f  17//15 8//15 14//15
f  16//16 1//16 3//16
f  1//17 16//17 13//17
f  13//18 16//16 18//18
f  13//17 18//19 19//19
f  13//20 19//20 12//20
f  12//20 19//20 20//21
f  20//22 10//22 12//22
f  10//22 20//22 21//23
f  10//24 21//24 11//24
f  11//24 21//24 22//25
f  22//26 9//26 11//26
f  9//27 22//27 4//27
f  4//28 22//28 7//28
f  7//29 22//29 23//29
f  7//30 23//30 24//30
f  7//31 24//31 25//31
f  26//32 6//32 5//32
f  6//32 26//32 15//32
f  25//33 5//33 7//33
f  5//33 25//33 26//33
f  21//34 23//34 22//34
f  23//34 21//34 24//35
f  24//35 21//34 20//36
f  24//35 20//36 25//37
f  25//37 20//36 26//38
f  26//38 20//36 19//39
f  26//38 19//39 18//39
f  26//38 18//39 17//40
f  26//38 17//40 15//41
f  17//40 18//39 16//42
f  14//43 15//41 17//40

