# {"id":"_15927","idOriginal":"_15927","origin":[14.288450400456195,48.30162550211629],"elevation":262.229}
# Longitude: 14.288450400456195
# Latitude: 48.30162550211629
# Elevation: 262.229

# File produced by Open Asset Import Library (http://www.assimp.sf.net)
# (assimp v3.1.0)

mtllib _15927.obj.mtl

# 32 vertex positions
v  4.66 3.818 -2.142
v  9.631 3.818 2.073
v  7.174 3.818 -3.245
v  3.723 3.818 -1.731
v  3.754 3.818 -1.667
v  10.695 3.818 2.12
v  10.534 3.818 1.614
v  9.963 3.818 2.406
v  17.01 3.818 17.172
v  9.974 3.818 20.858
v  4.231 3.818 -0.667
v  2.133 3.818 0.336
v  1.672 3.818 -0.577
v  1.606 3.818 -0.707
v  0 3.818 2.33785e-16
v  0.114 3.818 0.239
v  3.723 1.05993e-16 -1.731
v  4.231 4.0842e-17 -0.667
v  3.754 1.02074e-16 -1.667
v  0 0 0
v  9.974 -1.27718e-15 20.858
v  0.114 -1.46345e-17 0.239
v  9.963 -1.47325e-16 2.406
v  10.695 -1.29813e-16 2.12
v  2.133 -2.05741e-17 0.336
v  1.606 4.32913e-17 -0.707
v  10.534 -9.8829e-17 1.614
v  9.631 -1.26935e-16 2.073
v  4.66 1.3116e-16 -2.142
v  7.174 1.98699e-16 -3.245
v  1.672 3.53311e-17 -0.577
v  17.01 -1.05148e-15 17.172

# 0 UV coordinates

# 35 vertex normals
vn -0 1 0
vn -0.899982 0 0.435928
vn -0.902577 0.000111569 0.430529
vn -0.902421 0 0.430855
vn 0 -1 -6.12319e-17
vn -0.902581 -2.63617e-17 0.43052
vn -0.902156 -6.84589e-05 0.431411
vn -0.902161 0 0.4314
vn 0 1 6.119e-17
vn 0.36392 -0 0.93143
vn -0.431319 0 -0.9022
vn -0.402911 0 -0.915239
vn -0.402911 5.60423e-17 -0.915239
vn -0.453127 0 -0.891446
vn -0.40169 0 -0.915776
vn -0.401774 2.44864e-05 -0.915739
vn -0.40169 -6.57004e-05 -0.915776
vn -0.401774 0 -0.915739
vn 0.89266 0 -0.45073
vn 0.891667 -0.000589234 -0.452692
vn 0.892537 0 -0.450975
vn 0 1 6.12321e-17
vn 0.902491 0 -0.430709
vn 0.907794 0 -0.419415
vn 0.464054 -0 0.885807
vn 0.952926 0 -0.303203
vn -1.78769e-23 -1 -6.12324e-17
vn 2.55591e-23 -1 -6.12323e-17
vn 9.78333e-24 -1 -6.12323e-17
vn 0 -1 -6.12323e-17
vn 0 -1 -6.12324e-17
vn 4.81597e-24 -1 -6.12323e-17
vn 0 -1 -6.12323e-17
vn 7.12424e-24 -1 -6.12323e-17
vn 0 -1 -6.12324e-17

# Mesh 'defaultobject' with 60 faces
g defaultobject
usemtl DefaultMaterial
f  1//1 2//1 3//1
f  4//1 5//1 1//1
f  2//1 6//1 7//1
f  6//1 2//1 8//1
f  8//1 2//1 9//1
f  9//1 2//1 10//1
f  10//1 2//1 1//1
f  10//1 1//1 11//1
f  11//1 1//1 5//1
f  10//1 11//1 12//1
f  10//1 12//1 13//1
f  10//1 13//1 14//1
f  10//1 14//1 15//1
f  10//1 15//1 16//1
f  17//2 5//2 4//2
f  5//3 17//3 11//3
f  11//4 17//4 18//4
f  18//5 17//5 19//5
f  20//6 16//6 15//6
f  16//7 20//7 10//7
f  10//8 20//8 21//8
f  21//9 20//9 22//9
f  23//10 6//10 8//10
f  6//10 23//10 24//10
f  18//11 12//11 11//11
f  12//11 18//11 25//11
f  26//12 15//12 14//12
f  15//12 26//12 20//13
f  27//14 2//14 7//14
f  2//14 27//14 28//14
f  1//15 17//15 4//15
f  17//16 1//16 3//16
f  17//17 3//17 29//17
f  29//18 3//18 30//18
f  25//19 13//19 12//19
f  13//20 25//20 14//20
f  14//21 25//21 26//21
f  26//22 25//22 31//22
f  32//23 8//23 9//23
f  8//23 32//23 23//23
f  28//24 3//24 2//24
f  3//24 28//24 30//24
f  21//25 9//25 10//25
f  9//25 21//25 32//25
f  24//26 7//26 6//26
f  7//26 24//26 27//26
f  23//27 27//27 24//27
f  27//27 23//27 28//28
f  21//29 23//27 32//29
f  23//27 21//29 22//30
f  23//27 22//30 28//28
f  28//28 22//30 25//31
f  28//28 25//31 18//5
f  28//28 18//5 30//32
f  25//31 22//30 31//33
f  31//33 22//30 26//30
f  26//30 22//30 20//34
f  18//5 29//35 30//32
f  29//35 18//5 19//5
f  29//35 19//5 17//5

