# {"id":"_9015","idOriginal":"_9015","origin":[14.29290053071266,48.29636162818266],"elevation":260.994}
# Longitude: 14.29290053071266
# Latitude: 48.29636162818266
# Elevation: 260.994

# File produced by Open Asset Import Library (http://www.assimp.sf.net)
# (assimp v3.1.0)

mtllib _9015.obj.mtl

# 34 vertex positions
v  20.057 20.795 -0.828
v  19.148 16.942 5.009
v  21.939 16.955 3.838
v  2.525 20.795 6.415
v  4.793 16.071 12.175
v  5.033 15.571 12.785
v  19.796 15.558 6.704
v  0 15.534 9.51183e-16
v  9.267 16.045 -3.105
v  8.468 15.55 -3.476
v  9.342 16.091 -3.07
v  10.674 15.582 -4.342
v  17.737 16.064 -6.577
v  17.513 15.606 -7.133
v  10.375 16.047 -3.56
v  10.34 16.101 -3.468
v  0.236 16.026 0.6
v  8.468 2.12844e-16 -3.476
v  0 0 0
v  17.513 4.3677e-16 -7.133
v  10.674 2.65871e-16 -4.342
v  10.34 2.12354e-16 -3.468
v  9.342 1.87983e-16 -3.07
v  4.793 -7.45504e-16 12.175
v  5.033 -7.82855e-16 12.785
v  0.236 -3.67394e-17 0.6
v  2.525 -3.92805e-16 6.415
v  10.375 2.17987e-16 -3.56
v  19.796 -4.10502e-16 6.704
v  19.148 -3.06713e-16 5.009
v  21.939 -2.3501e-16 3.838
v  20.057 5.07004e-17 -0.828
v  17.737 4.02725e-16 -6.577
v  9.267 1.90126e-16 -3.105

# 0 UV coordinates

# 60 vertex normals
vn 0.231583 0.794914 0.560787
vn 0.231677 0.794888 0.560784
vn 0.231681 0.794927 0.560726
vn 0.231595 0.795062 0.560571
vn 0.231619 0.795029 0.560608
vn -0.231804 0.794666 -0.561047
vn -0.230337 0.798616 -0.556019
vn -0.231795 0.794593 -0.561153
vn -0.231675 0.794952 -0.560695
vn -0.231425 0.794757 -0.561073
vn -0.233777 0.797085 -0.55678
vn -0.231659 0.794925 -0.56074
vn -0.23157 0.794981 -0.560696
vn -0.231667 0.794924 -0.560738
vn -0.318881 0.790796 -0.522452
vn -0.379739 0 -0.925094
vn -0.379739 5.66457e-17 -0.925094
vn -0.377847 0 -0.925868
vn -0.377847 -0 -0.925868
vn -0.370428 0 -0.928861
vn -0.370428 -0 -0.928861
vn -0.930486 -6.40587e-05 0.366327
vn -0.930486 -0.000410821 0.366328
vn -0.930492 0 0.366312
vn -0.930538 0.000101374 0.366196
vn -0.930492 -8.49696e-06 0.366312
vn -0.930566 0 0.366124
vn 0 1 6.11807e-17
vn 0 1 6.12247e-17
vn -0.934649 0 -0.355571
vn -0.934054 -1.02444e-05 -0.357132
vn -0.934115 0 -0.356973
vn 2.69537e-20 1 6.12418e-17
vn 0.380863 -0 0.924631
vn 0.934068 0 -0.357094
vn 0.934068 0 -0.357094
vn 0.927371 -0.000115501 -0.374144
vn 0.927367 0 -0.374152
vn 0.927489 0.000227511 -0.373851
vn 0.927404 5.46326e-05 -0.374062
vn 0.927338 -2.22108e-05 -0.374226
vn 0.927554 0 -0.373689
vn 0.38689 0 0.922126
vn 0.38689 0 0.922126
vn 0.422887 0 -0.906182
vn 0.42115 -9.88525e-06 -0.906991
vn 0.421295 0 -0.906924
vn 2.95146e-20 1 6.11662e-17
vn -2.83968e-23 -1 -6.12324e-17
vn -1.15613e-24 -1 -6.12323e-17
vn 0 -1 -6.12323e-17
vn -1.64627e-23 -1 -6.12323e-17
vn 1.23874e-23 -1 -6.12324e-17
vn 1.49441e-23 -1 -6.12324e-17
vn -8.8486e-24 -1 -6.12323e-17
vn 3.58942e-22 -1 -6.12328e-17
vn 4.69783e-23 -1 -6.12324e-17
vn -6.32349e-24 -1 -6.12324e-17
vn 0 -1 -6.12338e-17
vn 1.11974e-19 -1 -6.12218e-17

# Mesh 'defaultobject' with 64 faces
g defaultobject
usemtl DefaultMaterial
f  1//1 2//1 3//1
f  2//2 1//2 4//2
f  2//3 4//3 5//3
f  2//4 5//4 6//4
f  6//5 7//5 2//5
f  8//6 9//6 10//6
f  9//7 8//7 11//7
f  12//8 13//8 14//8
f  13//9 12//9 1//9
f  1//10 12//10 15//10
f  1//11 15//11 16//11
f  1//12 16//12 4//12
f  4//13 16//13 11//13
f  4//12 11//14 8//14
f  4//15 8//15 17//15
f  18//16 8//16 10//16
f  8//16 18//16 19//17
f  20//18 12//18 14//18
f  12//18 20//18 21//19
f  22//20 11//20 16//20
f  11//20 22//20 23//21
f  17//22 5//22 4//22
f  5//23 17//23 8//23
f  5//24 8//24 19//24
f  5//25 19//25 6//25
f  6//26 19//24 24//26
f  6//27 24//27 25//27
f  24//28 19//28 26//28
f  24//28 26//28 27//29
f  15//30 22//30 16//30
f  22//31 15//31 12//31
f  22//32 12//32 21//32
f  22//33 21//33 28//33
f  25//34 7//34 6//34
f  7//34 25//34 29//34
f  7//35 30//35 2//35
f  30//35 7//35 29//36
f  3//37 13//37 1//37
f  13//38 3//38 31//38
f  13//39 31//39 14//39
f  14//40 31//40 32//40
f  14//41 32//41 33//41
f  14//42 33//42 20//42
f  2//43 31//43 3//43
f  31//43 2//43 30//44
f  23//45 9//45 11//45
f  9//46 23//46 10//46
f  10//47 23//47 18//47
f  18//48 23//48 34//48
f  33//49 21//49 20//49
f  21//49 33//49 32//50
f  21//49 32//50 31//51
f  21//49 31//51 28//52
f  28//52 31//51 30//53
f  28//52 30//53 22//54
f  22//54 30//53 23//55
f  23//55 30//53 34//56
f  34//56 30//53 18//57
f  18//57 30//53 19//51
f  19//51 30//53 29//51
f  19//51 29//51 24//51
f  24//51 29//51 25//58
f  19//51 24//51 26//59
f  26//59 24//51 27//60

