# {"id":"_28192","idOriginal":"_28192","origin":[14.274983958082403,48.31085398996338],"elevation":267.02}
# Longitude: 14.274983958082403
# Latitude: 48.31085398996338
# Elevation: 267.02

# File produced by Open Asset Import Library (http://www.assimp.sf.net)
# (assimp v3.1.0)

mtllib _28192.obj.mtl

# 8 vertex positions
v  4.211 6.747 -4.986
v  9.029 7.533 7.629
v  13.255 7.533 2.627
v  0 6.747 4.13135e-16
v  13.255 -1.60857e-16 2.627
v  4.211 3.05304e-16 -4.986
v  0 0 0
v  9.029 -4.67142e-16 7.629

# 0 UV coordinates

# 10 vertex normals
vn -0.0506767 0.997797 -0.0428148
vn -0.0506889 0.997797 -0.0428101
vn 0.643987 0 -0.765036
vn 0.643987 0 -0.765036
vn -0.763985 0 -0.645234
vn -0.763985 3.95092e-17 -0.645234
vn -0.645404 0 0.763842
vn 0.763873 -0 0.645367
vn -5.47104e-24 -1 -6.12323e-17
vn 0 -1 -6.12323e-17

# Mesh 'defaultobject' with 12 faces
g defaultobject
usemtl DefaultMaterial
f  1//1 2//1 3//1
f  2//2 1//2 4//2
f  5//3 1//3 3//3
f  1//3 5//3 6//4
f  6//5 4//5 1//5
f  4//5 6//5 7//6
f  4//7 8//7 2//7
f  8//7 4//7 7//7
f  8//8 3//8 2//8
f  3//8 8//8 5//8
f  8//9 6//9 5//9
f  6//9 8//9 7//10

