# File produced by Open Asset Import Library (http://www.assimp.sf.net)
# (assimp v3.1.0)

mtllib _31463.obj.mtl

# 45 vertex positions
v  5.734 3.805 3.689
v  0.099 3.684 0.066
v  5.662 3.684 3.796
v  4.049 5.59 0.278
v  7.903 3.731 0.485
v  2.267 3.59 -3.473
v  7.986 3.59 0.362
v  2.226 3.66 -3.411
v  0.312 3.624 -0.479
v  0 3.619 2.216e-16
v  0 0 0
v  5.662 -2.32438e-16 3.796
v  0.099 -4.04133e-18 0.066
v  5.734 -2.25886e-16 3.689
v  7.903 -2.96977e-17 0.485
v  7.986 -2.21661e-17 0.362
v  2.267 2.1266e-16 -3.473
v  2.226 2.08864e-16 -3.411
v  0.312 2.93303e-17 -0.479
v  7.986 3.818 0.362
v  2.339 3.818 -3.584
v  2.267 3.818 -3.473
v  2.987 3.818 -3.226
v  4.285 3.818 -5.277
v  4.694 3.818 -5.042
v  7.835 3.818 -0.071
v  6.235 3.818 -7.364
v  8.119 3.818 0.166
v  8.946 3.818 -2.122
v  10.373 3.818 -4.749
v  9.474 3.818 -1.729
v  11.068 3.818 -4.283
v  11.08 3.818 -4.302
v  8.946 1.29935e-16 -2.122
v  9.474 1.05871e-16 -1.729
v  8.119 -1.01646e-17 0.166
v  7.835 4.3475e-18 -0.071
v  11.08 2.63422e-16 -4.302
v  11.068 2.62258e-16 -4.283
v  6.235 4.50915e-16 -7.364
v  10.373 2.90792e-16 -4.749
v  4.694 3.08733e-16 -5.042
v  4.285 3.23123e-16 -5.277
v  2.987 1.97536e-16 -3.226
v  2.339 2.19457e-16 -3.584

# 0 UV coordinates

# 57 vertex normals
vn -0.381043 0.729278 0.568296
vn -0.381808 0.727913 0.569531
vn 0.408716 0.875889 0.256457
vn 0.383645 0.724914 -0.572116
vn 0.381732 0.727976 -0.569501
vn 0.381717 0.727986 -0.569499
vn -0.405966 0.877513 -0.255269
vn -0.408886 0.875876 -0.25623
vn -0.408901 0.875885 -0.256175
vn -0.556897 0.00485117 0.830568
vn -0.556865 0 0.830603
vn 2.50728e-20 -1 -6.12779e-17
vn 0.829656 -0 0.558274
vn 0.828094 9.46683e-05 0.560589
vn 0.829653 -0.00289857 0.558272
vn 0.828093 0 0.560591
vn 0.828926 0 0.559358
vn 0.828926 0 0.559358
vn 0.556944 0 -0.83055
vn -0.834115 0 -0.55159
vn -0.837371 -0.000120426 -0.546635
vn -0.837918 -0.00110883 -0.545795
vn -0.834094 0.00683506 -0.55158
vn -0.837372 0.000159571 -0.546634
vn -0.837924 3.34198e-17 -0.545787
vn 6.12868e-23 -1 -6.12324e-17
vn 0 -1 -6.12323e-17
vn 8.40448e-25 -1 -6.12323e-17
vn 0 -1 -6.12323e-17
vn 6.47728e-24 -1 -6.12323e-17
vn -1.03435e-22 -1 -6.12324e-17
vn 0 1 0
vn -0.556944 0 0.83055
vn -0.597079 0 0.802182
vn 0.827475 -0 0.561503
vn 0.879285 -0 0.476297
vn 0.848334 -0 0.529461
vn 0.84548 0.00422063 0.53399
vn 0.848313 0 0.529495
vn 5.99605e-20 -1 -6.11951e-17
vn 0.640716 0 -0.767778
vn 0.534398 0 -0.845233
vn 0.534216 -4.71882e-05 -0.845348
vn 0.534242 0 -0.845331
vn 6.00121e-20 1 6.10923e-17
vn 0.498192 0 -0.867067
vn 0.483577 0 -0.875302
vn -0.833208 0 -0.55296
vn -0.844999 0 -0.534768
vn -0.838961 0 -0.544191
vn 0 -1 -6.12323e-17
vn 7.46177e-24 -1 -6.12323e-17
vn 1.41609e-23 -1 -6.12323e-17
vn 4.33878e-24 -1 -6.12323e-17
vn -4.23309e-24 -1 -6.12323e-17
vn 2.22779e-22 -1 -6.12326e-17
vn 0 -1 -6.12324e-17

# Mesh 'defaultobject' with 86 faces
g defaultobject
usemtl DefaultMaterial
f  1//1 2//1 3//1
f  2//2 1//2 4//2
f  4//3 1//3 5//3
f  6//4 5//4 7//4
f  5//5 6//5 4//5
f  4//6 6//6 8//6
f  2//7 9//7 10//7
f  9//8 2//8 4//8
f  9//9 4//9 8//9
f  10//10 3//10 2//10
f  3//11 10//11 11//11
f  3//11 11//11 12//11
f  12//12 11//12 13//12
f  12//13 1//13 3//13
f  1//14 12//14 5//14
f  5//15 12//15 14//15
f  5//16 14//16 15//16
f  5//17 15//17 7//17
f  7//17 15//17 16//18
f  16//19 6//19 7//19
f  6//19 16//19 17//19
f  17//20 8//20 6//20
f  8//21 17//21 9//21
f  9//22 17//22 10//22
f  10//23 17//23 18//23
f  10//24 18//24 19//24
f  10//25 19//25 11//25
f  13//12 14//26 12//12
f  14//26 13//12 15//27
f  15//27 13//12 11//12
f  15//27 11//12 19//28
f  15//27 19//28 18//29
f  15//27 18//29 16//30
f  16//30 18//29 17//31
f  20//32 21//32 22//32
f  21//32 20//32 23//32
f  23//32 20//32 24//32
f  24//32 20//32 25//32
f  25//32 20//32 26//32
f  25//32 26//32 27//32
f  26//32 20//32 28//32
f  27//32 29//32 30//32
f  29//32 27//32 26//32
f  30//32 29//32 31//32
f  30//32 31//32 32//32
f  30//32 32//32 33//32
f  17//33 20//33 22//33
f  20//33 17//33 16//33
f  34//34 31//34 29//34
f  31//34 34//34 35//34
f  16//35 28//35 20//35
f  28//35 16//35 36//35
f  37//36 29//36 26//36
f  29//36 37//36 34//36
f  35//37 32//37 31//37
f  32//38 35//38 33//38
f  33//39 35//39 38//39
f  38//40 35//40 39//40
f  36//41 26//41 28//41
f  26//41 36//41 37//41
f  38//42 30//42 33//42
f  30//43 38//43 27//43
f  27//44 38//44 40//44
f  40//45 38//45 41//45
f  42//46 24//46 25//46
f  24//46 42//46 43//46
f  44//47 21//47 23//47
f  21//47 44//47 45//47
f  40//48 25//48 27//48
f  25//48 40//48 42//48
f  43//49 23//49 24//49
f  23//49 43//49 44//49
f  45//50 22//50 21//50
f  22//50 45//50 17//50
f  16//30 37//27 36//27
f  37//27 16//30 17//31
f  37//27 17//31 44//51
f  37//27 44//51 42//52
f  37//27 42//52 40//53
f  42//52 44//51 43//54
f  44//51 17//31 45//55
f  39//40 41//56 38//40
f  41//56 39//40 35//40
f  41//56 35//40 40//53
f  40//53 35//40 34//57
f  40//53 34//57 37//27

