# File produced by Open Asset Import Library (http://www.assimp.sf.net)
# (assimp v3.1.0)

mtllib _54217.obj.mtl

# 8 vertex positions
v  0 9.692 5.93464e-16
v  8.265 9.692 1.123
v  0.253 9.692 -0.975
v  8.009 9.692 2.105
v  8.265 -6.87639e-17 1.123
v  0.253 5.97015e-17 -0.975
v  0 0 0
v  8.009 -1.28894e-16 2.105

# 0 UV coordinates

# 9 vertex normals
vn -0 1 0
vn 0.253316 0 -0.967384
vn -0.967943 0 -0.251169
vn -0.967943 1.53797e-17 -0.251169
vn -0.254196 -5.9221e-17 0.967153
vn -0.254196 0 0.967153
vn 0.967659 -0 0.252262
vn 1.58644e-24 -1 -6.12323e-17
vn -1.57489e-24 -1 -6.12323e-17

# Mesh 'defaultobject' with 12 faces
g defaultobject
usemtl DefaultMaterial
f  1//1 2//1 3//1
f  2//1 1//1 4//1
f  5//2 3//2 2//2
f  3//2 5//2 6//2
f  6//3 1//3 3//3
f  1//3 6//3 7//4
f  7//5 4//5 1//5
f  4//5 7//5 8//6
f  8//7 2//7 4//7
f  2//7 8//7 5//7
f  5//8 7//8 6//8
f  7//8 5//8 8//9

