# {"id":"ID_54731","idOriginal":"ID_54731","origin":[14.360395446079016,48.25742921763464],"elevation":251.271,"wof":[{"Id":85681677,"Name":"Oberösterreich","Placetype":"region","Offset":-1},{"Id":85898441,"Name":"Posch","Placetype":"neighbourhood","Offset":-1},{"Id":101748071,"Name":"Linz","Placetype":"locality","Offset":-1},{"Id":102049853,"Name":"Linz","Placetype":"county","Offset":-1},{"Id":85632785,"Name":"Austria","Placetype":"country","Offset":-1}]}

# Attribution: City of Linz <http://geo.data.linz.gv.at/katalog/geodata/3d_geo_daten_lod2/>
# Longitude: 14.360395446079016
# Latitude: 48.25742921763464
# Elevation: 251.271

# File produced by Open Asset Import Library (http://www.assimp.sf.net)
# (assimp v3.1.0)


# 12 vertex positions
v  2.486 7.852 -0.137
v  2.486 7.852 3.019
v  2.646 7.852 3.01
v  0.314 7.852 3.134
v  0.16 7.852 3.142
v  0 7.852 4.80796e-16
v  0.16 -1.92392e-16 3.142
v  0.314 -1.91902e-16 3.134
v  2.646 -1.84309e-16 3.01
v  2.486 -1.8486e-16 3.019
v  2.486 8.38883e-18 -0.137
v  0 0 0

# 0 UV coordinates

# 16 vertex normals
vn 0 1 0
vn 0.0518774 -0 0.998653
vn 0.0528725 -1.95701e-05 0.998601
vn 0.0561616 -0.000996722 0.998421
vn 0.0518774 0.000363607 0.998653
vn 0.0530983 0 0.998589
vn -8.04873e-22 1 6.12173e-17
vn 0.99871 0 -0.0507764
vn -0.0550251 0 -0.998485
vn -0.0550251 6.11396e-17 -0.998485
vn -0.998706 -3.1141e-18 0.0508571
vn -0.998706 0 0.0508571
vn 0 -1 -6.12323e-17
vn -1.04745e-22 -1 -6.12322e-17
vn 7.73613e-24 -1 -6.12323e-17
vn 0 -1 -6.12323e-17

# Mesh 'defaultobject' with 20 faces
g defaultobject
usemtl DefaultMaterial
f  1//1 2//1 3//1
f  2//1 1//1 4//1
f  4//1 1//1 5//1
f  5//1 1//1 6//1
f  7//2 4//2 5//2
f  4//3 7//3 2//3
f  2//4 7//4 3//4
f  3//5 7//5 8//5
f  3//6 8//6 9//6
f  9//7 8//7 10//7
f  9//8 1//8 3//8
f  1//8 9//8 11//8
f  11//9 6//9 1//9
f  6//9 11//9 12//10
f  12//11 5//11 6//11
f  5//11 12//11 7//12
f  9//13 12//13 11//13
f  12//13 9//13 10//14
f  12//13 10//14 8//15
f  12//13 8//15 7//16

