# {"id":"ID_10819","idOriginal":"ID_10819","origin":[14.326646266833793,48.24169046986568],"elevation":259.83,"wof":[{"Id":85898451,"Name":"Ufer","Placetype":"neighbourhood","Offset":-1},{"Id":85681677,"Name":"Oberösterreich","Placetype":"region","Offset":-1},{"Id":102049853,"Name":"Linz","Placetype":"county","Offset":-1},{"Id":101748071,"Name":"Linz","Placetype":"locality","Offset":-1},{"Id":85632785,"Name":"Austria","Placetype":"country","Offset":-1}]}

# Attribution: City of Linz <http://geo.data.linz.gv.at/katalog/geodata/3d_geo_daten_lod2/>
# Longitude: 14.326646266833793
# Latitude: 48.24169046986568
# Elevation: 259.83

# File produced by Open Asset Import Library (http://www.assimp.sf.net)
# (assimp v3.1.0)


# 22 vertex positions
v  0.021 9.601 0.064
v  3.839 9.598 -5.569
v  0 9.598 5.87708e-16
v  5.782 10.1 4.036
v  5.717 9.594 -8.371
v  9.39 9.594 -13.698
v  6.148 10.1 3.505
v  20.806 10.583 -5.825
v  11.723 10.583 7.349
v  4.595 9.497 -9.145
v  2.68 9.497 -6.368
v  4.595 5.5997e-16 -9.145
v  2.68 3.89928e-16 -6.368
v  3.839 3.41003e-16 -5.569
v  0 0 0
v  9.39 8.38761e-16 -13.698
v  5.717 5.12576e-16 -8.371
v  5.782 -2.47134e-16 4.036
v  0.021 -3.91887e-18 0.064
v  11.723 -4.49996e-16 7.349
v  6.148 -2.14619e-16 3.505
v  20.806 3.56678e-16 -5.825

# 0 UV coordinates

# 31 vertex normals
vn -0.0460019 0.998438 -0.0317115
vn -0.0586319 0.997467 -0.0402715
vn -0.0581182 0.997493 -0.0403767
vn -0.0585541 0.997468 -0.0403734
vn -0.0585831 0.997466 -0.0403793
vn -0.0585679 0.997467 -0.0403764
vn -0.0585724 0.997466 -0.0403836
vn -0.0589133 0.997436 -0.0406262
vn -0.0582981 0.997478 -0.0404973
vn -0.823237 0 -0.567698
vn -0.823329 0 -0.567564
vn -0.823329 3.47532e-17 -0.567564
vn -0.82327 0 -0.56765
vn -0.567584 0 0.823316
vn -0.567583 0 0.823316
vn -0.567626 0 0.823287
vn -0.567626 0 0.823286
vn -0.56765 0 0.82327
vn -0.950158 0 0.31177
vn 0.823363 -0 0.567515
vn 0.823286 -0 0.567626
vn 0.567728 0 -0.823216
vn 0.567728 0 -0.823216
vn 0.567836 0 -0.823142
vn 0.567836 0 -0.823142
vn 0 -1 -6.12323e-17
vn 0 -1 -6.12323e-17
vn 4.43994e-24 -1 -6.12323e-17
vn -2.01488e-23 -1 -6.12324e-17
vn 1.95421e-24 -1 -6.12323e-17
vn 3.5399e-24 -1 -6.12323e-17

# Mesh 'defaultobject' with 40 faces
g defaultobject
usemtl DefaultMaterial
f  1//1 2//1 3//1
f  2//2 1//2 4//2
f  2//3 4//3 5//3
f  5//4 4//4 6//4
f  6//5 4//5 7//5
f  6//6 7//6 8//6
f  8//6 7//6 9//7
f  2//8 10//8 11//8
f  10//9 2//9 5//9
f  12//10 11//10 10//10
f  11//10 12//10 13//10
f  14//11 3//11 2//11
f  3//11 14//11 15//12
f  16//13 5//13 6//13
f  5//13 16//13 17//13
f  11//14 14//14 2//14
f  14//14 11//14 13//15
f  1//16 18//16 4//16
f  18//16 1//16 19//17
f  7//18 20//18 9//18
f  20//18 7//18 21//18
f  3//19 19//19 1//19
f  19//19 3//19 15//19
f  18//20 7//20 4//20
f  7//20 18//20 21//20
f  20//21 8//21 9//21
f  8//21 20//21 22//21
f  22//22 6//22 8//22
f  6//22 22//22 16//23
f  17//24 10//24 5//24
f  10//24 17//24 12//25
f  19//26 21//26 18//26
f  21//26 19//26 15//27
f  21//26 15//27 14//28
f  12//29 17//29 13//29
f  21//26 22//30 20//30
f  22//30 21//26 14//28
f  22//30 14//28 13//29
f  22//30 13//29 17//29
f  22//30 17//29 16//31

