# {"id":"ID_20111","idOriginal":"ID_20111","origin":[14.303768797903052,48.27497333125643],"elevation":278.616,"wof":[{"Id":85681677,"Name":"Oberösterreich","Placetype":"region","Offset":-1},{"Id":85632785,"Name":"Austria","Placetype":"country","Offset":-1},{"Id":102049853,"Name":"Linz","Placetype":"county","Offset":-1},{"Id":101748071,"Name":"Linz","Placetype":"locality","Offset":-1},{"Id":85898459,"Name":"Wegscheid","Placetype":"neighbourhood","Offset":-1}]}

# Attribution: City of Linz <http://geo.data.linz.gv.at/katalog/geodata/3d_geo_daten_lod2/>
# Longitude: 14.303768797903052
# Latitude: 48.27497333125643
# Elevation: 278.616

# File produced by Open Asset Import Library (http://www.assimp.sf.net)
# (assimp v3.1.0)


# 39 vertex positions
v  15.747 8.27 3.104
v  7.164 7.978 6.891
v  15.829 7.944 3.404
v  14.558 13.02 -1.273
v  6.988 7.979 6.962
v  6.833 8.466 6.526
v  1.023 13.02 4.228
v  2.317 8.437 8.392
v  1.571 8.432 8.7
v  1.5 8.843 8.308
v  0.781 13.02 4.326
v  12.086 8.007 -5.397
v  13.963 10.644 -3.462
v  12.973 7.984 -5.782
v  11.861 8.014 -5.299
v  3.715 7.923 -2.081
v  3.448 8.52 -1.362
v  3.22 7.918 -1.885
v  0 8.481 5.19311e-16
v  0.404 10.829 2.238
v  12.973 3.54045e-16 -5.782
v  11.861 3.2447e-16 -5.299
v  12.086 3.30471e-16 -5.397
v  3.715 1.27424e-16 -2.081
v  3.22 1.15423e-16 -1.885
v  3.448 8.33984e-17 -1.362
v  0 0 0
v  1.571 -5.32721e-16 8.7
v  0.404 -1.37038e-16 2.238
v  0.781 -2.64891e-16 4.326
v  1.5 -5.08718e-16 8.308
v  6.833 -3.99602e-16 6.526
v  6.988 -4.263e-16 6.962
v  2.317 -5.13862e-16 8.392
v  15.829 -2.08435e-16 3.404
v  7.164 -4.21952e-16 6.891
v  13.963 2.11986e-16 -3.462
v  15.747 -1.90065e-16 3.104
v  14.558 7.79488e-17 -1.273

# 0 UV coordinates

# 65 vertex normals
vn 0.273358 0.687692 0.672574
vn 0.273251 0.687952 0.672351
vn 0.275504 0.686146 0.673276
vn 0.272647 0.688466 0.67207
vn 0.27327 0.687925 0.672371
vn 0.273362 0.687989 0.672268
vn 0.273 0.688005 0.672398
vn 0.265016 0.689085 0.674484
vn 0.27237 0.688071 0.672587
vn -0.273847 0.688041 -0.672017
vn -0.271868 0.687572 -0.673299
vn -0.273271 0.687995 -0.672299
vn -0.27326 0.687905 -0.672395
vn -0.273196 0.687791 -0.672538
vn -0.273261 0.68795 -0.672349
vn -0.273245 0.68777 -0.672539
vn -0.273369 0.6879 -0.672356
vn -0.27326 0.687909 -0.672392
vn -0.272414 0.687946 -0.672696
vn -0.398159 0 -0.917316
vn -0.399326 -0.000153586 -0.916809
vn -0.398395 -0 -0.917214
vn 8.25097e-21 1 6.12525e-17
vn -0.367411 0 -0.930059
vn -0.367411 -0 -0.930059
vn -0.36815 0 -0.929766
vn -0.36815 -0 -0.929766
vn -0.367388 0 -0.930068
vn -0.367388 5.69502e-17 -0.930068
vn -0.91668 0 0.399623
vn -0.91668 0 0.399623
vn -0.984087 -3.29489e-06 0.177686
vn -0.984089 -2.98661e-05 0.177677
vn -0.984089 0 0.177676
vn -0.984039 -0.000267071 0.177951
vn -0.984085 0 0.177701
vn 0 1 6.13036e-17
vn 2.0278e-19 1 6.12397e-17
vn -1.59047e-19 1 6.12596e-17
vn -0.94223 0 0.334967
vn 0.381622 -0 0.924319
vn 0.381882 -2.69304e-05 0.924211
vn 0.381845 0 0.924226
vn -4.769e-20 1 6.10909e-17
vn 0.374115 -0 0.927382
vn 0.373328 2.01752e-05 0.927699
vn 0.373344 0 0.927693
vn 0 -1 -6.121e-17
vn 0.919759 0 -0.392484
vn 0.965008 -7.3788e-05 -0.262222
vn 0.965211 0.00217377 -0.261464
vn 0.964997 0 -0.262261
vn 0.964614 -0.000971726 -0.263664
vn 0.965014 0 -0.262197
vn 3.32751e-20 1 6.12261e-17
vn 5.52682e-23 -1 -6.12323e-17
vn 6.47673e-23 -1 -6.12324e-17
vn 0 -1 -6.12323e-17
vn 0 -1 -6.12323e-17
vn 0 -1 -6.12323e-17
vn 0 -1 -6.12323e-17
vn -4.16075e-23 -1 -6.12322e-17
vn 1.94326e-22 -1 -6.12324e-17
vn 3.01742e-23 -1 -6.12323e-17
vn 2.137e-23 -1 -6.12324e-17

# Mesh 'defaultobject' with 74 faces
g defaultobject
usemtl DefaultMaterial
f  1//1 2//1 3//1
f  2//2 1//2 4//2
f  2//3 4//3 5//3
f  5//4 4//4 6//4
f  6//5 4//5 7//5
f  6//6 7//6 8//6
f  8//7 7//7 9//7
f  9//8 7//8 10//8
f  10//9 7//9 11//9
f  12//10 13//10 14//10
f  13//11 12//11 15//11
f  13//12 15//12 16//12
f  13//13 16//13 4//13
f  4//14 16//14 17//14
f  4//15 17//15 7//15
f  17//16 16//16 18//16
f  7//17 17//17 19//17
f  7//18 19//18 20//18
f  7//19 20//19 11//19
f  21//20 12//20 14//20
f  12//21 21//21 15//21
f  15//22 21//22 22//22
f  22//23 21//23 23//23
f  22//24 16//24 15//24
f  16//24 22//24 24//25
f  24//26 18//26 16//26
f  18//26 24//26 25//27
f  26//28 19//28 17//28
f  19//28 26//28 27//29
f  18//30 26//30 17//30
f  26//30 18//30 25//31
f  20//32 10//32 11//32
f  10//33 20//33 19//33
f  10//34 19//34 27//34
f  10//35 27//35 9//35
f  9//36 27//36 28//36
f  28//37 27//37 29//37
f  28//37 29//37 30//38
f  28//37 30//38 31//39
f  32//40 5//40 6//40
f  5//40 32//40 33//40
f  28//41 8//41 9//41
f  8//42 28//42 6//42
f  6//43 28//43 32//43
f  32//44 28//37 34//44
f  33//45 2//45 5//45
f  2//46 33//46 3//46
f  3//47 33//47 35//47
f  35//48 33//48 36//48
f  37//49 14//49 13//49
f  14//49 37//49 21//49
f  1//50 13//50 4//50
f  13//51 1//51 3//51
f  13//52 3//52 35//52
f  13//53 35//53 38//53
f  13//54 38//54 37//54
f  37//55 38//55 39//55
f  31//56 34//56 28//56
f  34//56 31//56 30//57
f  34//56 30//57 32//58
f  32//58 30//57 29//59
f  32//58 29//59 27//60
f  32//58 27//60 26//61
f  32//58 26//61 36//48
f  36//48 26//61 35//48
f  35//48 26//61 25//61
f  35//48 25//61 24//62
f  35//48 24//62 22//61
f  35//48 22//61 38//63
f  38//63 22//61 39//64
f  39//64 22//61 37//58
f  37//58 22//61 23//65
f  37//58 23//65 21//58
f  36//48 33//48 32//58

