# {"id":"ID_56133","idOriginal":"ID_56133","origin":[14.273825852634523,48.31501562854177],"elevation":284.787}
# Longitude: 14.273825852634523
# Latitude: 48.31501562854177
# Elevation: 284.787

# File produced by Open Asset Import Library (http://www.assimp.sf.net)
# (assimp v3.1.0)

mtllib ID_56133.obj.mtl

# 12 vertex positions
v  4.094 3.468 0.924
v  0 3.468 2.12354e-16
v  3.177 3.468 2.333
v  3.134 3.468 0.312
v  0.95 3.468 -1.357
v  0.651 3.468 -0.998
v  0.95 8.30923e-17 -1.357
v  0.651 6.11099e-17 -0.998
v  0 0 0
v  3.177 -1.42855e-16 2.333
v  4.094 -5.65787e-17 0.924
v  3.134 -1.91045e-17 0.312

# 0 UV coordinates

# 13 vertex normals
vn 0 1 0
vn -0.768397 0 -0.639974
vn -0.83756 0 -0.546345
vn -0.83756 3.3454e-17 -0.546345
vn -0.591891 -4.93543e-17 0.806018
vn -0.591891 0 0.806018
vn 0.838131 -0 0.545469
vn 0.607194 0 -0.794554
vn 0.537557 0 -0.843227
vn 1.53435e-22 -1 -6.12322e-17
vn 3.63657e-25 -1 -6.12323e-17
vn 0 -1 -6.12323e-17
vn -6.91535e-24 -1 -6.12323e-17

# Mesh 'defaultobject' with 20 faces
g defaultobject
usemtl DefaultMaterial
f  1//1 2//1 3//1
f  2//1 1//1 4//1
f  2//1 4//1 5//1
f  2//1 5//1 6//1
f  7//2 6//2 5//2
f  6//2 7//2 8//2
f  8//3 2//3 6//3
f  2//3 8//3 9//4
f  9//5 3//5 2//5
f  3//5 9//5 10//6
f  10//7 1//7 3//7
f  1//7 10//7 11//7
f  12//8 5//8 4//8
f  5//8 12//8 7//8
f  11//9 4//9 1//9
f  4//9 11//9 12//9
f  7//10 9//10 8//10
f  9//10 7//10 12//11
f  9//10 12//11 10//12
f  10//12 12//11 11//13

