# {"id":"ID_38777","idOriginal":"ID_38777","origin":[14.304289378077323,48.33789522649754],"elevation":344.85,"wof":[{"Id":102049853,"Name":"Linz","Placetype":"county","Offset":-1},{"Id":85632785,"Name":"Austria","Placetype":"country","Offset":-1},{"Id":85898419,"Name":"Furth","Placetype":"neighbourhood","Offset":-1},{"Id":85681677,"Name":"Oberösterreich","Placetype":"region","Offset":-1},{"Id":101748071,"Name":"Linz","Placetype":"locality","Offset":-1}]}

# Attribution: City of Linz <http://geo.data.linz.gv.at/katalog/geodata/3d_geo_daten_lod2/>
# Longitude: 14.304289378077323
# Latitude: 48.33789522649754
# Elevation: 344.85

# File produced by Open Asset Import Library (http://www.assimp.sf.net)
# (assimp v3.1.0)


# 20 vertex positions
v  3.129 3.67 5.35
v  5.096 2.954 -0.578
v  2.636 3.67 -0.299
v  5.732 2.881 3.825
v  5.758 2.873 3.823
v  8.123 2.186 3.627
v  8.274 2.173 4.817
v  5.867 2.873 5.067
v  0 2.902 1.77696e-16
v  0.491 2.902 5.624
v  5.096 3.53923e-17 -0.578
v  2.636 1.83085e-17 -0.299
v  0 0 0
v  8.123 -2.2209e-16 3.627
v  5.732 -2.34214e-16 3.825
v  5.758 -2.34091e-16 3.823
v  0.491 -3.44371e-16 5.624
v  3.129 -3.27593e-16 5.35
v  5.867 -3.10264e-16 5.067
v  8.274 -2.94956e-16 4.817

# 0 UV coordinates

# 31 vertex normals
vn 0.276852 0.960609 -0.0241614
vn 0.277041 0.960556 -0.0240921
vn 0.294675 0.955559 0.00859224
vn 0.277003 0.960558 -0.0244422
vn 0.276937 0.960572 -0.0246471
vn 0.292071 0.842993 0.451728
vn -0.277109 0.960534 0.0241839
vn -0.277126 0.960529 0.0241943
vn -0.112692 0 -0.99363
vn -0.112704 -8.25627e-06 -0.993629
vn -0.112692 1.33733e-05 -0.99363
vn -0.112707 6.08422e-17 -0.993628
vn -0.0825921 0 -0.996583
vn -0.0746979 0.00653939 -0.997185
vn -0.0825281 -0 -0.996589
vn 2.75606e-21 -1 -6.11992e-17
vn -0.996211 -5.3256e-18 0.0869736
vn -0.996211 0 0.0869736
vn 0.103311 -0 0.994649
vn 0.102812 0 0.994701
vn 0.103308 0 0.994649
vn 0.103308 0 0.994649
vn 0.992045 0 -0.125881
vn 0.992045 0 -0.125881
vn 0.989728 0 -0.142963
vn -3.42036e-24 -1 -6.12324e-17
vn -7.7016e-24 -1 -6.12323e-17
vn -8.51741e-24 -1 -6.12323e-17
vn 0 -1 -6.12323e-17
vn 4.57263e-25 -1 -6.12323e-17
vn -8.61974e-21 -1 -6.13036e-17

# Mesh 'defaultobject' with 36 faces
g defaultobject
usemtl DefaultMaterial
f  1//1 2//1 3//1
f  2//2 1//2 4//2
f  4//3 1//3 5//3
f  5//4 1//4 6//4
f  6//5 1//5 7//5
f  7//6 1//6 8//6
f  9//7 1//7 3//7
f  1//8 9//8 10//8
f  11//9 3//9 2//9
f  3//10 11//10 9//10
f  9//11 11//11 12//11
f  9//10 12//12 13//12
f  14//13 5//13 6//13
f  5//14 14//14 4//14
f  4//15 14//15 15//15
f  15//16 14//16 16//16
f  13//17 10//17 9//17
f  10//17 13//17 17//18
f  17//19 1//19 10//19
f  1//19 17//19 18//19
f  1//20 18//20 8//20
f  8//20 18//20 19//20
f  8//21 19//21 7//21
f  7//21 19//21 20//22
f  7//23 14//23 6//23
f  14//23 7//23 20//24
f  4//25 11//25 2//25
f  11//25 4//25 15//25
f  19//26 14//16 20//26
f  14//16 19//26 16//16
f  16//16 19//26 18//27
f  16//16 18//27 15//16
f  15//16 18//27 11//28
f  11//28 18//27 17//29
f  11//28 17//29 13//30
f  11//28 13//30 12//31

