# {"id":"ID_7633","idOriginal":"ID_7633","origin":[14.327155747343753,48.32656219830601],"elevation":253.6}
# Longitude: 14.327155747343753
# Latitude: 48.32656219830601
# Elevation: 253.6

# File produced by Open Asset Import Library (http://www.assimp.sf.net)
# (assimp v3.1.0)

mtllib ID_7633.obj.mtl

# 47 vertex positions
v  8.007 8.413 -15.446
v  14.244 6.292 -14.685
v  14.275 6.288 -14.85
v  13.56 6.275 -7.758
v  7.26 8.413 -8.397
v  13.553 6.275 -7.685
v  6.776 8.413 -3.833
v  1.7 6.275 -16.045
v  0.957 6.275 -9.037
v  0 6.275 3.84233e-16
v  0.03 6.285 0.003
v  0.758 6.288 0.069
v  7.047 6.291 0.701
v  13.178 8.413 -3.183
v  12.601 6.293 1.26
v  12.812 6.863 0.072
v  12.833 6.863 0.074
v  17.728 6.857 0.582
v  22.311 8.413 -2.257
v  17.746 6.857 0.584
v  21.989 6.857 1.014
v  13.548 6.297 -7.64
v  22.602 6.343 -6.622
v  22.741 6.333 -6.63
v  13.649 6.297 -7.629
v  14.275 9.093e-16 -14.85
v  8.007 9.45795e-16 -15.446
v  1.7 9.82473e-16 -16.045
v  22.602 4.05481e-16 -6.622
v  22.741 4.0597e-16 -6.63
v  13.649 4.67142e-16 -7.629
v  13.548 4.67815e-16 -7.64
v  0.957 5.53357e-16 -9.037
v  0 0 0
v  0.03 -1.83697e-19 0.003
v  12.601 -7.71528e-17 1.26
v  0.758 -4.22503e-18 0.069
v  7.047 -4.29239e-17 0.701
v  12.812 -4.40873e-18 0.072
v  12.833 -4.53119e-18 0.074
v  21.989 -6.20896e-17 1.014
v  17.728 -3.56372e-17 0.582
v  17.746 -3.57597e-17 0.584
v  22.311 1.38201e-16 -2.257
v  14.244 8.99197e-16 -14.685
v  13.553 4.70571e-16 -7.685
v  13.56 4.7504e-16 -7.758

# 0 UV coordinates

# 77 vertex normals
vn 0.317723 0.947472 0.0367245
vn 0.318085 0.947462 0.0337342
vn 0.318113 0.947453 0.0337112
vn 0.318435 0.947453 0.0305389
vn 0.318078 0.947464 0.0337313
vn -0.317989 0.947495 -0.0336981
vn -0.317972 0.9475 -0.033712
vn -0.317972 0.9475 -0.0337201
vn -0.318007 0.94749 -0.0336763
vn -0.313835 0.949138 -0.0253787
vn -0.0423998 0.903439 0.426614
vn -0.0432022 0.903874 0.425613
vn -0.0432128 0.903873 0.425613
vn -0.0431684 0.903848 0.42567
vn -0.0500356 0.903902 0.424803
vn -0.0405571 0.90388 0.425859
vn -0.0430603 0.903888 0.425597
vn -0.0431618 0.903835 0.425698
vn -0.0467733 0.905866 0.420974
vn -0.0431422 0.903834 0.425703
vn 0.0360968 0.899376 -0.435683
vn 0.0432063 0.903903 -0.425549
vn 0.0405085 0.903849 -0.425929
vn 0.0432409 0.903816 -0.425731
vn 0.0431532 0.903876 -0.425613
vn 0.0463163 0.903877 -0.425279
vn 0.0946592 0 -0.99551
vn 0.0945707 -6.64855e-05 -0.995518
vn 0.0946591 0.000112351 -0.99551
vn 0.0945484 0 -0.99552
vn -0.0574616 0 -0.998348
vn -0.0574616 0 -0.998348
vn 0.111772 0 -0.993734
vn 0.108268 0 -0.994122
vn -0.994427 0 -0.105431
vn -0.99444 -0 -0.105309
vn -0.99444 6.44832e-18 -0.105309
vn -0.0901376 -0.0282466 0.995529
vn -0.0906542 0 0.995883
vn -0.0999898 0.00113519 0.994988
vn -0.100143 0.00130815 0.994972
vn -0.0995037 2.01058e-05 0.995037
vn -0.0994959 0 0.995038
vn 0 -1 -6.12321e-17
vn 0 -1 -6.12316e-17
vn -0.0948097 0 0.995495
vn -0.103225 2.59936e-05 0.994658
vn -0.110431 0.00525066 0.99387
vn -0.100827 -0.001737 0.994902
vn -0.0948032 -0.00987589 0.995447
vn -0.102128 0 0.994771
vn 3.31218e-23 1 6.12314e-17
vn -1.10863e-21 1 6.12317e-17
vn 0.984591 0 0.174873
vn 0.984591 0 0.174873
vn 0.99519 -0 0.0979675
vn 0.995199 -3.61486e-05 0.0978754
vn 0.995196 0 0.097905
vn 0 1 6.12277e-17
vn 0.982806 -0 0.184643
vn 0.982805 0 0.184643
vn 0.993886 -0 0.110413
vn 0.995433 -0.000108429 0.0954651
vn 0.99516 -5.52374e-05 0.098266
vn 0.995155 0 0.0983149
vn 0 1 6.1234e-17
vn 1.47391e-19 -1 -6.12226e-17
vn -1.75179e-22 -1 -6.12324e-17
vn 5.37828e-24 -1 -6.12323e-17
vn -7.04377e-24 -1 -6.12323e-17
vn 0 -1 -6.12323e-17
vn 0 -1 -6.12329e-17
vn -1.36116e-22 -1 -6.12324e-17
vn -1.02151e-23 -1 -6.12322e-17
vn 0 -1 -6.12333e-17
vn -8.27066e-24 -1 -6.12323e-17
vn -7.885e-23 -1 -6.12323e-17

# Mesh 'defaultobject' with 88 faces
g defaultobject
usemtl DefaultMaterial
f  1//1 2//1 3//1
f  2//2 1//2 4//2
f  4//3 1//3 5//3
f  4//4 5//4 6//4
f  6//5 5//5 7//5
f  8//6 5//6 1//6
f  5//7 8//7 9//7
f  5//7 9//7 7//8
f  7//9 9//9 10//9
f  7//10 10//10 11//10
f  12//11 7//11 11//11
f  7//12 12//12 13//12
f  7//13 13//13 14//13
f  14//14 13//14 15//14
f  14//15 15//15 16//15
f  14//16 16//16 17//16
f  14//17 17//17 18//17
f  14//18 18//18 19//18
f  19//19 18//19 20//19
f  19//20 20//20 21//20
f  7//21 22//21 6//21
f  22//22 7//22 14//22
f  23//23 19//23 24//23
f  19//24 23//24 25//24
f  19//25 25//25 14//25
f  14//26 25//26 22//26
f  26//27 1//27 3//27
f  1//28 26//28 8//28
f  8//29 26//29 27//29
f  8//30 27//30 28//30
f  24//31 29//31 23//31
f  29//31 24//31 30//32
f  29//33 25//33 23//33
f  25//33 29//33 31//33
f  25//34 31//34 22//34
f  22//34 31//34 32//34
f  28//35 9//35 8//35
f  9//35 28//35 33//35
f  9//36 33//36 10//36
f  10//36 33//36 34//37
f  10//38 12//38 11//38
f  12//39 10//39 34//39
f  12//40 34//40 13//40
f  13//41 34//41 15//41
f  15//42 34//42 35//42
f  15//43 35//43 36//43
f  36//44 35//44 37//44
f  36//44 37//44 38//45
f  39//46 17//46 16//46
f  17//47 39//47 18//47
f  18//48 39//48 20//48
f  20//49 39//49 21//49
f  21//50 39//50 40//50
f  21//51 40//51 41//51
f  41//52 40//52 42//52
f  41//52 42//52 43//53
f  15//54 39//54 16//54
f  39//54 15//54 36//55
f  41//56 19//56 21//56
f  19//57 41//57 24//57
f  24//58 41//58 30//58
f  30//59 41//52 44//59
f  45//60 3//60 2//60
f  3//60 45//60 26//61
f  32//62 6//62 22//62
f  6//63 32//63 4//63
f  4//64 32//64 2//64
f  2//65 32//65 45//65
f  45//66 32//66 46//66
f  45//67 46//67 47//67
f  44//68 29//68 30//68
f  29//68 44//68 31//69
f  31//69 44//68 41//70
f  31//69 41//70 43//71
f  31//69 43//71 42//72
f  31//69 42//72 40//71
f  31//69 40//71 32//73
f  45//67 27//74 26//74
f  27//74 45//67 47//67
f  27//74 47//67 32//73
f  27//74 32//73 40//71
f  27//74 40//71 39//75
f  27//74 39//75 36//44
f  27//74 36//44 38//45
f  27//74 38//45 28//76
f  28//76 38//45 37//44
f  28//76 37//44 33//77
f  33//77 37//44 34//71

