# {"id":"ID_16238","idOriginal":"ID_16238","origin":[14.285708792306421,48.33123860098819],"elevation":270.721,"wof":[{"Id":102049853,"Name":"Linz","Placetype":"county","Offset":-1},{"Id":85898425,"Name":"Harbach","Placetype":"neighbourhood","Offset":-1},{"Id":85681677,"Name":"Oberösterreich","Placetype":"region","Offset":-1},{"Id":101748071,"Name":"Linz","Placetype":"locality","Offset":-1},{"Id":85632785,"Name":"Austria","Placetype":"country","Offset":-1}]}

# Attribution: City of Linz <http://geo.data.linz.gv.at/katalog/geodata/3d_geo_daten_lod2/>
# Longitude: 14.285708792306421
# Latitude: 48.33123860098819
# Elevation: 270.721

# File produced by Open Asset Import Library (http://www.assimp.sf.net)
# (assimp v3.1.0)


# 16 vertex positions
v  1.797 12.445 -5.739
v  13.993 6.528 4.295
v  15.734 12.445 -1.461
v  0 6.528 3.99725e-16
v  3.591 6.536 -11.469
v  17.348 6.96 -6.796
v  17.479 6.513 -7.231
v  3.455 6.982 -11.037
v  0 0 0
v  13.993 -2.62993e-16 4.295
v  15.734 8.94605e-17 -1.461
v  17.348 4.16135e-16 -6.796
v  17.479 4.42771e-16 -7.231
v  3.591 7.02274e-16 -11.469
v  3.455 6.75821e-16 -11.037
v  1.797 3.51412e-16 -5.739

# 0 UV coordinates

# 28 vertex normals
vn -0.205809 0.712802 0.670489
vn -0.205797 0.712813 0.670482
vn 0.205786 0.712803 -0.670495
vn 0.205802 0.712759 -0.670538
vn 0.205829 0.712734 -0.670556
vn 0.463261 0.685407 -0.561789
vn -0.293428 -5.8537e-17 0.955981
vn -0.293428 0 0.955981
vn 0.957174 -0 0.289514
vn 0.957162 1.89989e-05 0.289551
vn 0.957174 -4.64371e-05 0.289514
vn 0.957157 0 0.289569
vn 0.957523 0 0.288359
vn 0.957522 0 0.288359
vn 0.291869 0 -0.956458
vn 0.291869 0 -0.956458
vn -0.954335 7.98059e-05 -0.29874
vn -0.954314 -0.0015796 -0.298801
vn -0.954315 0 -0.298801
vn -0.953845 0.00286564 -0.300285
vn -0.954358 -0.000144738 -0.298665
vn -0.954311 1.82971e-17 -0.298815
vn -2.00636e-24 -1 -6.12323e-17
vn 2.61637e-24 -1 -6.12323e-17
vn -9.70044e-24 -1 -6.12323e-17
vn 0 -1 -6.12323e-17
vn 2.40569e-24 -1 -6.12323e-17
vn -2.47814e-20 -1 -6.12395e-17

# Mesh 'defaultobject' with 28 faces
g defaultobject
usemtl DefaultMaterial
f  1//1 2//1 3//1
f  2//2 1//2 4//2
f  5//3 6//3 7//3
f  6//4 5//4 3//4
f  3//5 5//5 1//5
f  1//6 5//6 8//6
f  9//7 2//7 4//7
f  2//7 9//7 10//8
f  10//9 3//9 2//9
f  3//10 10//10 6//10
f  6//11 10//11 11//11
f  6//12 11//12 12//12
f  6//13 12//13 7//13
f  7//13 12//13 13//14
f  7//15 14//15 5//15
f  14//15 7//15 13//16
f  8//17 4//17 1//17
f  4//18 8//18 5//18
f  4//19 5//19 14//19
f  4//20 14//20 15//20
f  4//21 15//21 16//21
f  4//22 16//22 9//22
f  12//23 14//23 13//23
f  14//23 12//23 11//24
f  14//23 11//24 10//25
f  14//23 10//25 16//26
f  16//26 10//25 9//27
f  14//23 16//26 15//28

