# {"id":"ID_32544","idOriginal":"ID_32544","origin":[14.30728203808787,48.31339450803439],"elevation":255.483,"wof":[{"Id":85898449,"Name":"Steeg","Placetype":"neighbourhood","Offset":-1},{"Id":102049853,"Name":"Linz","Placetype":"county","Offset":-1},{"Id":85681677,"Name":"Oberösterreich","Placetype":"region","Offset":-1},{"Id":101748071,"Name":"Linz","Placetype":"locality","Offset":-1},{"Id":85632785,"Name":"Austria","Placetype":"country","Offset":-1}]}

# Attribution: City of Linz <http://geo.data.linz.gv.at/katalog/geodata/3d_geo_daten_lod2/>
# Longitude: 14.30728203808787
# Latitude: 48.31339450803439
# Elevation: 255.483

# File produced by Open Asset Import Library (http://www.assimp.sf.net)
# (assimp v3.1.0)


# 16 vertex positions
v  0 2.337 1.431e-16
v  5.064 2.337 -1.377
v  3.808 2.337 -2.976
v  10.831 2.337 5.58
v  5.213 2.337 -1.502
v  1.349 2.337 1.642
v  2.972 2.337 3.799
v  6.793 2.337 8.566
v  6.793 -5.24516e-16 8.566
v  10.831 -3.41676e-16 5.58
v  5.213 9.1971e-17 -1.502
v  5.064 8.43169e-17 -1.377
v  3.808 1.82227e-16 -2.976
v  0 0 0
v  2.972 -2.32622e-16 3.799
v  1.349 -1.00543e-16 1.642

# 0 UV coordinates

# 16 vertex normals
vn 0 1 0
vn 0.59457 -0 0.804044
vn 0.783431 0 -0.621479
vn 0.786404 0 -0.617713
vn -0.64271 0 -0.766109
vn -0.615773 0 -0.787924
vn -0.615773 4.82464e-17 -0.787924
vn -0.780278 0 0.625433
vn -0.772677 -3.88703e-17 0.6348
vn -0.772677 0 0.6348
vn -0.799065 0 0.601244
vn 0 -1 -6.12324e-17
vn 1.22626e-24 -1 -6.12323e-17
vn 0 -1 -6.12323e-17
vn 3.76491e-24 -1 -6.12323e-17
vn 0 -1 -6.12323e-17

# Mesh 'defaultobject' with 28 faces
g defaultobject
usemtl DefaultMaterial
f  1//1 2//1 3//1
f  2//1 4//1 5//1
f  4//1 2//1 1//1
f  4//1 1//1 6//1
f  4//1 6//1 7//1
f  4//1 7//1 8//1
f  9//2 4//2 8//2
f  4//2 9//2 10//2
f  10//3 5//3 4//3
f  5//3 10//3 11//3
f  12//4 3//4 2//4
f  3//4 12//4 13//4
f  11//5 2//5 5//5
f  2//5 11//5 12//5
f  13//6 1//6 3//6
f  1//6 13//6 14//7
f  15//8 8//8 7//8
f  8//8 15//8 9//8
f  14//9 6//9 1//9
f  6//9 14//9 16//10
f  16//11 7//11 6//11
f  7//11 16//11 15//11
f  10//12 12//12 11//12
f  12//12 10//12 14//13
f  14//13 10//12 16//14
f  16//14 10//12 15//15
f  15//15 10//12 9//16
f  14//13 13//16 12//12

