# {"id":"ID_29516","idOriginal":"ID_29516","origin":[14.287717136606426,48.315192306552746],"elevation":259.519}
# Longitude: 14.287717136606426
# Latitude: 48.315192306552746
# Elevation: 259.519

# File produced by Open Asset Import Library (http://www.assimp.sf.net)
# (assimp v3.1.0)

mtllib ID_29516.obj.mtl

# 14 vertex positions
v  9.632 4.024 0.218
v  0 4.024 2.46399e-16
v  6.349 4.024 5.349
v  11.006 4.024 -1.933
v  11.288 4.024 -2.375
v  7.469 4.024 -4.913
v  4.645 4.024 -6.789
v  6.349 -3.27532e-16 5.349
v  9.632 -1.33486e-17 0.218
v  11.006 1.18362e-16 -1.933
v  11.288 1.45427e-16 -2.375
v  7.469 3.00834e-16 -4.913
v  4.645 4.15706e-16 -6.789
v  0 0 0

# 0 UV coordinates

# 15 vertex normals
vn 0 1 0
vn 0.842334 -0 0.538956
vn 0.842741 0 0.53832
vn 0.843032 0 0.537863
vn 0.553492 0 -0.832855
vn 0.553338 0 -0.832957
vn -0.825313 0 -0.564675
vn -0.825313 3.45764e-17 -0.564675
vn -0.64431 -4.68283e-17 0.764764
vn -0.64431 0 0.764764
vn -2.75301e-24 -1 -6.12323e-17
vn 9.04748e-24 -1 -6.12323e-17
vn 0 -1 -6.12323e-17
vn 3.40655e-24 -1 -6.12323e-17
vn 0 -1 -6.12323e-17

# Mesh 'defaultobject' with 24 faces
g defaultobject
usemtl DefaultMaterial
f  1//1 2//1 3//1
f  2//1 1//1 4//1
f  2//1 4//1 5//1
f  2//1 5//1 6//1
f  2//1 6//1 7//1
f  8//2 1//2 3//2
f  1//2 8//2 9//2
f  1//3 9//3 4//3
f  4//3 9//3 10//3
f  4//4 10//4 5//4
f  5//4 10//4 11//4
f  11//5 6//5 5//5
f  6//5 11//5 12//5
f  6//6 12//6 7//6
f  7//6 12//6 13//6
f  13//7 2//7 7//7
f  2//7 13//7 14//8
f  14//9 3//9 2//9
f  3//9 14//9 8//10
f  10//11 12//11 11//11
f  12//11 10//11 9//12
f  12//11 9//12 8//13
f  12//11 8//13 13//14
f  13//14 8//13 14//15

