# {"id":"ID_21920","idOriginal":"ID_21920","origin":[14.287610651620883,48.23959038625908],"elevation":262.744,"wof":[{"Id":102049853,"Name":"Linz","Placetype":"county","Offset":-1},{"Id":101748071,"Name":"Linz","Placetype":"locality","Offset":-1},{"Id":85681677,"Name":"Oberösterreich","Placetype":"region","Offset":-1},{"Id":85632785,"Name":"Austria","Placetype":"country","Offset":-1},{"Id":85898447,"Name":"Scharlinz","Placetype":"neighbourhood","Offset":-1}]}

# Attribution: City of Linz <http://geo.data.linz.gv.at/katalog/geodata/3d_geo_daten_lod2/>
# Longitude: 14.287610651620883
# Latitude: 48.23959038625908
# Elevation: 262.744

# File produced by Open Asset Import Library (http://www.assimp.sf.net)
# (assimp v3.1.0)


# 18 vertex positions
v  14.249 7.672 -3.611
v  2.344 9.773 -4.86
v  12.517 9.773 0.011
v  14.818 6.958 -4.85
v  10.75 6.96 -6.795
v  6.069 6.948 -9.062
v  4.662 6.982 -9.664
v  10.189 6.949 4.879
v  0 6.949 4.25504e-16
v  0 0 0
v  10.189 -2.98753e-16 4.879
v  12.517 -6.73556e-19 0.011
v  14.249 2.2111e-16 -3.611
v  14.818 2.96977e-16 -4.85
v  6.069 5.54887e-16 -9.062
v  10.75 4.16074e-16 -6.795
v  4.662 5.91749e-16 -9.664
v  2.344 2.97589e-16 -4.86

# 0 UV coordinates

# 28 vertex normals
vn 0.200238 0.886013 -0.418194
vn 0.200245 0.885852 -0.41853
vn 0.200297 0.886084 -0.418014
vn 0.200244 0.886027 -0.418162
vn 0.200305 0.886035 -0.418114
vn -0.200249 0.885999 0.418217
vn -0.200269 0.885988 0.41823
vn -0.431888 -5.52271e-17 0.901927
vn -0.431888 0 0.901927
vn 0.902147 -0 0.431429
vn 0.902157 -1.27285e-05 0.431409
vn 0.902147 1.55497e-05 0.431429
vn 0.907334 -0.00638031 0.420362
vn 0.902155 0.00304376 0.4314
vn 0.908752 0 0.417337
vn 0.431354 0 -0.902183
vn 0.435863 0.00324408 -0.900007
vn 0.433775 0 -0.901021
vn 0 -1 -6.12331e-17
vn 0.393367 0 -0.919382
vn 0.393367 0 -0.919382
vn -0.900712 0 -0.434417
vn -0.900654 -7.30138e-05 -0.434536
vn -0.900712 0.000130218 -0.434417
vn -0.900638 0 -0.434571
vn 0 -1 -6.12323e-17
vn -2.42046e-23 -1 -6.12323e-17
vn 4.31657e-20 -1 -6.1209e-17

# Mesh 'defaultobject' with 32 faces
g defaultobject
usemtl DefaultMaterial
f  1//1 2//1 3//1
f  2//2 1//2 4//2
f  2//3 4//3 5//3
f  2//4 5//4 6//4
f  2//5 6//5 7//5
f  2//6 8//6 3//6
f  8//7 2//7 9//7
f  10//8 8//8 9//8
f  8//8 10//8 11//9
f  11//10 3//10 8//10
f  3//11 11//11 1//11
f  1//12 11//12 12//12
f  1//13 12//13 4//13
f  4//14 12//14 13//14
f  4//15 13//15 14//15
f  14//16 5//16 4//16
f  5//17 14//17 6//17
f  6//18 14//18 15//18
f  15//19 14//19 16//19
f  6//20 17//20 7//20
f  17//20 6//20 15//21
f  2//22 10//22 9//22
f  10//23 2//23 7//23
f  10//24 7//24 18//24
f  18//25 7//25 17//25
f  10//26 12//26 11//26
f  12//26 10//26 13//26
f  13//26 10//26 14//19
f  14//19 10//26 16//19
f  16//19 10//26 15//19
f  15//19 10//26 17//27
f  17//27 10//26 18//28

