# {"id":"ID_58478","idOriginal":"ID_58478","origin":[14.360306141089561,48.25770624226859],"elevation":251.379}
# Longitude: 14.360306141089561
# Latitude: 48.25770624226859
# Elevation: 251.379

# File produced by Open Asset Import Library (http://www.assimp.sf.net)
# (assimp v3.1.0)

mtllib ID_58478.obj.mtl

# 8 vertex positions
v  0.051 1.755 1.001
v  4.17 1.755 -0.21
v  0 1.755 1.07463e-16
v  4.205 1.755 0.792
v  4.17 1.28588e-17 -0.21
v  0 0 0
v  0.051 -6.12936e-17 1.001
v  4.205 -4.8496e-17 0.792

# 0 UV coordinates

# 9 vertex normals
vn 0 1 0
vn -0.050296 0 -0.998734
vn -0.050296 6.11548e-17 -0.998734
vn -0.998705 -3.11569e-18 0.050883
vn -0.998705 0 0.050883
vn 0.0502494 -0 0.998737
vn 0.999391 0 -0.0349087
vn 7.90484e-25 -1 -6.12323e-17
vn 0 -1 -6.12323e-17

# Mesh 'defaultobject' with 12 faces
g defaultobject
usemtl DefaultMaterial
f  1//1 2//1 3//1
f  2//1 1//1 4//1
f  5//2 3//2 2//2
f  3//2 5//2 6//3
f  6//4 1//4 3//4
f  1//4 6//4 7//5
f  7//6 4//6 1//6
f  4//6 7//6 8//6
f  8//7 2//7 4//7
f  2//7 8//7 5//7
f  8//8 6//8 5//8
f  6//8 8//8 7//9

