# {"id":"ID_20166","idOriginal":"ID_20166","origin":[14.256545310861117,48.32044830879394],"elevation":465.12}
# Longitude: 14.256545310861117
# Latitude: 48.32044830879394
# Elevation: 465.12

# File produced by Open Asset Import Library (http://www.assimp.sf.net)
# (assimp v3.1.0)

mtllib ID_20166.obj.mtl

# 58 vertex positions
v  4.352 5.313 -13.139
v  6.774 5.313 -15.209
v  5.228 5.313 -15.759
v  5.913 5.313 -12.599
v  5.913 7.71466e-16 -12.599
v  6.774 9.31283e-16 -15.209
v  5.228 9.6496e-16 -15.759
v  4.352 8.04532e-16 -13.139
v  3.052 6.947 -9.661
v  2.028 5.379 -13.786
v  0.818 5.379 -10.524
v  3.173 7.036 -9.614
v  4.352 7.036 -13.139
v  2.08 5.382 -13.925
v  5.228 7.036 -15.759
v  3.032 5.382 -16.493
v  3.047 5.383 -16.534
v  3.047 1.01242e-15 -16.534
v  0.818 6.44409e-16 -10.524
v  3.032 1.0099e-15 -16.493
v  2.08 8.5266e-16 -13.925
v  2.028 8.44149e-16 -13.786
v  3.173 5.88688e-16 -9.614
v  3.052 5.91566e-16 -9.661
v  8.681 10.556 -11.536
v  12.438 7.727 -9.235
v  12.75 7.718 -10.128
v  11.636 7.749 -6.943
v  10.48 8.54 -7.27
v  10.342 8.542 -6.864
v  8.927 8.559 -2.716
v  8.57 7.58 3.035
v  10.259 7.63 -2.255
v  4.314 10.556 1.528
v  7.461 10.556 -7.884
v  3.173 7.514 -9.614
v  5.913 8.603 -12.599
v  4.352 7.514 -13.139
v  5.882 8.604 -12.504
v  3.291 7.597 -9.568
v  3.227 7.596 -9.383
v  3.176 7.595 -9.235
v  0 7.54 4.61692e-16
v  8.57 -1.8584e-16 3.035
v  4.314 -9.3563e-17 1.528
v  0 0 0
v  10.48 4.45159e-16 -7.27
v  11.636 4.25136e-16 -6.943
v  3.291 5.85871e-16 -9.568
v  10.259 1.38079e-16 -2.255
v  8.927 1.66307e-16 -2.716
v  10.342 4.20299e-16 -6.864
v  12.75 6.20161e-16 -10.128
v  12.438 5.65481e-16 -9.235
v  5.882 7.65649e-16 -12.504
v  8.681 7.06376e-16 -11.536
v  3.227 5.74543e-16 -9.383
v  3.176 5.65481e-16 -9.235

# 0 UV coordinates

# 98 vertex normals
vn 0 1 0
vn 0.949661 -0 0.313279
vn 0.335178 0 -0.942155
vn -0.948393 0 -0.317096
vn -0.326923 0 0.945051
vn 2.62415e-23 -1 -6.12323e-17
vn -4.38017e-24 -1 -6.12324e-17
vn -0.513603 0.83661 -0.190515
vn -0.536423 0.824478 -0.180239
vn -0.53742 0.823936 -0.17975
vn -0.536478 0.823852 -0.182917
vn -0.551271 0.813712 -0.184318
vn -0.552009 0.81371 -0.182106
vn -0.531544 0.823791 -0.197052
vn -0.939125 0 -0.343576
vn -0.937643 3.47826e-05 -0.3476
vn -0.936616 0.00155444 -0.350354
vn -0.937575 5.89341e-05 -0.347782
vn -0.937592 -0 -0.347736
vn 1.70672e-19 -1 -6.11433e-17
vn 1.03711e-19 -1 -6.12066e-17
vn -1.47734e-19 1 6.11805e-17
vn -0.362074 0 0.932149
vn -0.360371 3.4132e-05 0.932809
vn -0.360438 0 0.932783
vn 5.86411e-20 -1 -6.13846e-17
vn 0.94836 -0 0.317196
vn 0.948393 -5.56016e-05 0.317096
vn 0.948374 0 0.317154
vn 9.79464e-20 1 6.12655e-17
vn 0.334831 0 -0.942278
vn 0.334831 0 -0.942278
vn 8.70325e-24 -1 -6.12323e-17
vn 0.522125 0.834929 0.174007
vn 0.521826 0.834997 0.174579
vn 0.521963 0.834938 0.174455
vn 0.52312 0.834371 0.173699
vn 0.521666 0.835106 0.174533
vn 0.521925 0.834945 0.174533
vn 0.522002 0.834897 0.17453
vn 0.522008 0.834892 0.174539
vn 0.522197 0.834793 0.174447
vn -0.522027 0.834866 -0.174602
vn -0.526917 0.830488 -0.180687
vn -0.521978 0.834944 -0.174376
vn -0.521386 0.836013 -0.170995
vn -0.522023 0.834913 -0.174389
vn -0.521452 0.834957 -0.175882
vn -0.522023 0.834944 -0.174242
vn -0.521935 0.834942 -0.174515
vn -0.521917 0.834952 -0.174519
vn -0.333826 -7.22687e-05 0.942634
vn -0.333827 0 0.942634
vn -0.333782 5.78213e-05 0.94265
vn -0.333871 0 0.942619
vn -0.272192 0 0.962243
vn -0.272192 0 0.962243
vn -0.363212 0 0.931706
vn -0.363212 0 0.931706
vn 0.952623 0 0.304155
vn 0.952623 0 0.304155
vn 0.946447 -0 0.32286
vn 0.946801 -0.000563274 0.32182
vn 0.946478 0 0.322767
vn 5.11948e-20 1 6.12498e-17
vn 0.943884 -0 0.330277
vn 0.944039 -0.000147583 0.329834
vn 0.943928 0 0.330152
vn -1.10093e-19 1 6.11932e-17
vn 0.950666 -0 0.310218
vn 0.950666 0 0.310218
vn 0.327062 0 -0.945003
vn 0.327062 0 -0.945003
vn 0.326925 -0.000130996 -0.94505
vn 0.32694 0 -0.945045
vn 0.32694 0 -0.945045
vn 5.41044e-20 1 6.10659e-17
vn 0.326923 0 -0.945051
vn -0.94836 0 -0.317196
vn -0.945047 0 -0.326935
vn -0.945441 -3.11781e-05 -0.325792
vn -0.94564 -5.94977e-05 -0.325215
vn -0.945626 1.99162e-17 -0.325257
vn -1.20349e-19 1 6.11375e-17
vn 9.08158e-19 1 6.15277e-17
vn 2.27263e-24 -1 -6.12324e-17
vn -3.15557e-22 -1 -6.12325e-17
vn -9.8847e-24 -1 -6.12324e-17
vn 2.71325e-22 -1 -6.12316e-17
vn -1.40523e-22 -1 -6.12327e-17
vn 2.39593e-22 -1 -6.12317e-17
vn -1.94583e-23 -1 -6.12324e-17
vn 0 -1 -6.12323e-17
vn 0 -1 -6.12323e-17
vn -3.28492e-22 -1 -6.12325e-17
vn 1.61285e-23 -1 -6.12323e-17
vn 0 -1 -6.12323e-17
vn 1.05627e-24 -1 -6.12323e-17

# Mesh 'defaultobject' with 114 faces
g defaultobject
usemtl DefaultMaterial
f  1//1 2//1 3//1
f  2//1 1//1 4//1
f  5//2 2//2 4//2
f  2//2 5//2 6//2
f  6//3 3//3 2//3
f  3//3 6//3 7//3
f  7//4 1//4 3//4
f  1//4 7//4 8//4
f  8//5 4//5 1//5
f  4//5 8//5 5//5
f  8//6 6//6 5//6
f  6//6 8//6 7//7
f  9//8 10//8 11//8
f  12//9 10//9 9//9
f  10//10 12//10 13//10
f  10//11 13//11 14//11
f  15//12 16//12 13//12
f  16//13 15//13 17//13
f  14//14 13//14 16//14
f  18//15 16//15 17//15
f  16//16 18//16 14//16
f  14//17 18//17 10//17
f  10//18 18//18 11//18
f  11//19 18//19 19//19
f  19//20 18//20 20//20
f  19//20 20//20 21//21
f  19//22 21//22 22//22
f  9//23 23//23 12//23
f  23//24 9//24 11//24
f  23//25 11//25 19//25
f  23//26 19//20 24//26
f  23//27 13//27 12//27
f  13//28 23//28 15//28
f  15//29 23//29 7//29
f  7//30 23//30 8//30
f  7//31 17//31 15//31
f  17//31 7//31 18//32
f  24//26 8//6 23//26
f  8//6 24//26 19//20
f  8//6 19//20 22//33
f  8//6 22//33 21//21
f  8//6 21//21 20//20
f  8//6 20//20 7//7
f  7//7 20//20 18//20
f  25//34 26//34 27//34
f  26//35 25//35 28//35
f  28//36 25//36 29//36
f  29//37 25//37 30//37
f  30//38 25//38 31//38
f  31//39 32//39 33//39
f  32//40 31//40 34//40
f  34//41 31//41 35//41
f  35//42 31//42 25//42
f  36//43 37//43 38//43
f  37//44 36//44 39//44
f  39//45 36//45 25//45
f  25//46 36//46 40//46
f  25//47 40//47 35//47
f  35//48 40//48 41//48
f  35//49 41//49 42//49
f  35//50 42//50 34//50
f  34//51 42//51 43//51
f  43//52 32//52 34//52
f  32//53 43//53 44//53
f  44//54 43//54 45//54
f  45//55 43//55 46//55
f  47//56 28//56 29//56
f  28//56 47//56 48//57
f  36//58 49//58 40//58
f  49//58 36//58 23//59
f  32//60 50//60 33//60
f  50//60 32//60 44//61
f  51//62 30//62 31//62
f  30//63 51//63 29//63
f  29//64 51//64 47//64
f  47//65 51//65 52//65
f  48//66 26//66 28//66
f  26//67 48//67 27//67
f  27//68 48//68 53//68
f  53//69 48//69 54//69
f  55//70 37//70 39//70
f  37//70 55//70 5//71
f  33//72 51//72 31//72
f  51//72 33//72 50//73
f  27//74 39//74 25//74
f  39//75 27//75 53//75
f  39//75 53//75 55//76
f  55//77 53//69 56//77
f  5//78 38//78 37//78
f  38//78 5//78 8//78
f  8//79 36//79 38//79
f  36//79 8//79 23//79
f  49//80 41//80 40//80
f  41//81 49//81 42//81
f  42//82 49//82 43//82
f  43//83 49//83 46//83
f  46//84 49//84 57//84
f  46//84 57//84 58//85
f  48//86 47//86 54//86
f  5//6 23//26 8//6
f  23//26 5//6 55//87
f  23//26 55//87 56//88
f  23//26 56//88 49//89
f  49//89 56//88 57//90
f  57//90 56//88 58//91
f  58//91 56//88 46//92
f  46//92 56//88 53//93
f  46//92 53//93 54//86
f  46//92 54//86 47//86
f  46//92 47//86 45//94
f  45//94 47//86 52//95
f  45//94 52//95 51//96
f  45//94 51//96 50//97
f  45//94 50//97 44//98

