# {"id":"_13337","idOriginal":"_13337","origin":[14.292126171058626,48.30905885991012],"elevation":255.73}
# Longitude: 14.292126171058626
# Latitude: 48.30905885991012
# Elevation: 255.73

# File produced by Open Asset Import Library (http://www.assimp.sf.net)
# (assimp v3.1.0)

mtllib _13337.obj.mtl

# 32 vertex positions
v  33.726 15.47 -0.477
v  25.621 15.47 -9.728
v  33.412 15.47 -0.242
v  25.933 15.47 -9.962
v  25.56 15.47 -9.802
v  7.71 15.47 9.706
v  4.354 15.47 5.841
v  7.404 15.47 9.933
v  4.829 15.47 5.812
v  1.566 15.47 2.101
v  4.766 15.47 5.726
v  25.226 15.47 -9.553
v  0.846 15.47 1.135
v  0.604 15.47 0.811
v  0 15.47 9.47264e-16
v  21.138 15.47 -15.799
v  25.56 6.00199e-16 -9.802
v  33.412 1.48182e-17 -0.242
v  25.621 5.95668e-16 -9.728
v  0 0 0
v  4.354 -3.57658e-16 5.841
v  7.404 -6.08221e-16 9.933
v  0.846 -6.94987e-17 1.135
v  0.604 -4.96594e-17 0.811
v  1.566 -1.28649e-16 2.101
v  7.71 -5.94321e-16 9.706
v  4.766 -3.50616e-16 5.726
v  25.226 5.84953e-16 -9.553
v  33.726 2.92078e-17 -0.477
v  4.829 -3.55882e-16 5.812
v  25.933 6.09997e-16 -9.962
v  21.138 9.6741e-16 -15.799

# 0 UV coordinates

# 37 vertex normals
vn 0 1 0
vn -0.771626 0 0.636076
vn -0.772769 1.11488e-05 0.634687
vn -0.77276 0 0.634698
vn 2.00401e-19 -1 -6.15232e-17
vn -0.802013 -3.65745e-17 0.597307
vn -0.801185 -9.04777e-05 0.598416
vn -0.801789 1.93796e-06 0.597607
vn -0.801746 -1.03674e-05 0.597665
vn -0.801783 1.92298e-05 0.597615
vn -0.801759 -1.34544e-05 0.597647
vn -0.801783 0 0.597615
vn -3.49127e-19 1 6.14463e-17
vn -5.84543e-21 1 6.12367e-17
vn 2.58793e-19 1 6.09458e-17
vn 0.595791 -0 0.80314
vn 0.598345 -0 0.801239
vn 0.597694 0 0.801724
vn 0.59918 -0 0.800614
vn 0.803897 0 -0.594768
vn 0.806701 0.00148136 -0.590958
vn 0.803958 0 -0.594686
vn -2.03147e-21 -1 -6.12304e-17
vn 0.772656 0 -0.634825
vn 0.772705 6.13694e-05 -0.634765
vn 0.772656 -3.78041e-05 -0.634825
vn 0.772705 0 -0.634765
vn -0.598677 0 -0.80099
vn -0.598677 4.90465e-17 -0.80099
vn 0 -1 -6.12323e-17
vn 0 -1 -6.12323e-17
vn 1.37034e-22 -1 -6.12318e-17
vn 0 -1 -6.12323e-17
vn -8.32081e-23 -1 -6.12323e-17
vn -1.10016e-22 -1 -6.12322e-17
vn 0 -1 -6.12323e-17
vn 0 -1 -6.12324e-17

# Mesh 'defaultobject' with 60 faces
g defaultobject
usemtl DefaultMaterial
f  1//1 2//1 3//1
f  2//1 1//1 4//1
f  2//1 4//1 5//1
f  6//1 7//1 8//1
f  7//1 6//1 9//1
f  7//1 9//1 10//1
f  10//1 9//1 11//1
f  10//1 11//1 12//1
f  10//1 12//1 13//1
f  13//1 12//1 14//1
f  14//1 12//1 15//1
f  15//1 12//1 16//1
f  16//1 12//1 5//1
f  16//1 5//1 4//1
f  17//2 2//2 5//2
f  2//3 17//3 3//3
f  3//4 17//4 18//4
f  18//5 17//5 19//5
f  20//6 14//6 15//6
f  14//7 20//7 13//7
f  13//8 20//8 10//8
f  10//9 20//9 7//9
f  7//10 20//10 8//10
f  8//11 20//11 21//11
f  8//12 21//12 22//12
f  21//13 20//13 23//13
f  23//13 20//13 24//14
f  21//13 23//13 25//15
f  22//16 6//16 8//16
f  6//16 22//16 26//16
f  27//17 12//17 11//17
f  12//17 27//17 28//17
f  12//18 28//18 5//18
f  5//18 28//18 17//18
f  18//19 1//19 3//19
f  1//19 18//19 29//19
f  26//20 9//20 6//20
f  9//21 26//21 11//21
f  11//22 26//22 27//22
f  27//23 26//23 30//23
f  29//24 4//24 1//24
f  4//25 29//25 16//25
f  16//26 29//26 31//26
f  16//27 31//27 32//27
f  32//28 15//28 16//28
f  15//28 32//28 20//29
f  29//30 17//5 31//30
f  17//5 29//30 19//5
f  19//5 29//30 18//5
f  31//30 20//31 32//31
f  20//31 31//30 17//5
f  20//31 17//5 28//32
f  20//31 28//32 27//23
f  20//31 27//23 24//33
f  24//33 27//23 23//34
f  23//34 27//23 25//35
f  25//35 27//23 21//36
f  21//36 27//23 30//23
f  21//36 30//23 26//23
f  21//36 26//23 22//37

