# {"id":"ID_59932","idOriginal":"ID_59932","origin":[14.273712290240324,48.258766981232355],"elevation":268.677,"wof":[{"Id":102049853,"Name":"Linz","Placetype":"county","Offset":-1},{"Id":85681677,"Name":"Oberösterreich","Placetype":"region","Offset":-1},{"Id":85898435,"Name":"Oed","Placetype":"neighbourhood","Offset":-1},{"Id":85632785,"Name":"Austria","Placetype":"country","Offset":-1}]}

# Attribution: City of Linz <http://geo.data.linz.gv.at/katalog/geodata/3d_geo_daten_lod2/>
# Longitude: 14.273712290240324
# Latitude: 48.258766981232355
# Elevation: 268.677

# File produced by Open Asset Import Library (http://www.assimp.sf.net)
# (assimp v3.1.0)


# 8 vertex positions
v  1.982 5.242 1.069
v  0 5.242 3.2098e-16
v  0.466 5.242 1.531
v  1.512 5.242 -0.46
v  0 0 0
v  0.466 -9.37467e-17 1.531
v  1.982 -6.54574e-17 1.069
v  1.512 2.81669e-17 -0.46

# 0 UV coordinates

# 9 vertex normals
vn 0 1 0
vn -0.956666 -1.783e-17 0.291186
vn -0.956666 0 0.291186
vn 0.291513 -0 0.956567
vn 0.95586 0 -0.293822
vn -0.291061 0 -0.956705
vn -0.291061 5.85813e-17 -0.956705
vn 0 -1 -6.12323e-17
vn 0 -1 -6.12323e-17

# Mesh 'defaultobject' with 12 faces
g defaultobject
usemtl DefaultMaterial
f  1//1 2//1 3//1
f  2//1 1//1 4//1
f  5//2 3//2 2//2
f  3//2 5//2 6//3
f  6//4 1//4 3//4
f  1//4 6//4 7//4
f  7//5 4//5 1//5
f  4//5 7//5 8//5
f  8//6 2//6 4//6
f  2//6 8//6 5//7
f  8//8 6//8 5//8
f  6//8 8//8 7//9

