# {"id":"ID_58721","idOriginal":"ID_58721","origin":[14.29156764216663,48.27188672792957],"elevation":279.229,"wof":[{"Id":102049853,"Name":"Linz","Placetype":"county","Offset":-1},{"Id":101748071,"Name":"Linz","Placetype":"locality","Offset":-1},{"Id":85681677,"Name":"Oberösterreich","Placetype":"region","Offset":-1},{"Id":85898435,"Name":"Oed","Placetype":"neighbourhood","Offset":-1},{"Id":85632785,"Name":"Austria","Placetype":"country","Offset":-1}]}

# Attribution: City of Linz <http://geo.data.linz.gv.at/katalog/geodata/3d_geo_daten_lod2/>
# Longitude: 14.29156764216663
# Latitude: 48.27188672792957
# Elevation: 279.229

# File produced by Open Asset Import Library (http://www.assimp.sf.net)
# (assimp v3.1.0)


# 12 vertex positions
v  1.436 3.78 1.241
v  0.113 3.78 2.828
v  1.493 3.78 2.78
v  1.388 3.78 -0.047
v  1.345 3.78 -0.046
v  0 3.78 2.31458e-16
v  1.388 2.87792e-18 -0.047
v  0 0 0
v  1.345 2.81669e-18 -0.046
v  0.113 -1.73165e-16 2.828
v  1.493 -1.70226e-16 2.78
v  1.436 -7.59893e-17 1.241

# 0 UV coordinates

# 16 vertex normals
vn 0 1 -0
vn -0.0232495 0 -0.99973
vn -0.0341808 -0.000124433 -0.999416
vn -0.0338423 6.11973e-17 -0.999427
vn -2.04181e-23 1 6.12321e-17
vn -0.999203 -2.44474e-18 0.0399257
vn -0.999203 0 0.0399257
vn 0.0347617 -0 0.999396
vn 0.999306 0 -0.0372412
vn 0.999315 -7.83171e-05 -0.0370117
vn 0.999306 9.35784e-05 -0.0372412
vn 0.999315 0 -0.0370117
vn 0 -1 -6.12323e-17
vn -4.3269e-22 -1 -6.12324e-17
vn 0 -1 -6.12323e-17
vn -5.0567e-24 -1 -6.12323e-17

# Mesh 'defaultobject' with 20 faces
g defaultobject
usemtl DefaultMaterial
f  1//1 2//1 3//1
f  2//1 1//1 4//1
f  2//1 4//1 5//1
f  2//1 5//1 6//1
f  7//2 5//2 4//2
f  5//3 7//3 6//3
f  6//4 7//4 8//4
f  8//5 7//5 9//5
f  8//6 2//6 6//6
f  2//6 8//6 10//7
f  10//8 3//8 2//8
f  3//8 10//8 11//8
f  1//9 7//9 4//9
f  7//10 1//10 3//10
f  7//11 3//11 12//11
f  12//12 3//12 11//12
f  9//13 10//13 8//13
f  10//13 9//13 7//14
f  10//13 7//14 12//15
f  10//13 12//15 11//16

