# {"id":"ID_14494","idOriginal":"ID_14494","origin":[14.30208641325016,48.25206418796928],"elevation":261.075,"wof":[{"Id":85681677,"Name":"Oberösterreich","Placetype":"region","Offset":-1},{"Id":85898447,"Name":"Scharlinz","Placetype":"neighbourhood","Offset":-1},{"Id":101748071,"Name":"Linz","Placetype":"locality","Offset":-1},{"Id":102049853,"Name":"Linz","Placetype":"county","Offset":-1},{"Id":85632785,"Name":"Austria","Placetype":"country","Offset":-1}]}

# Attribution: City of Linz <http://geo.data.linz.gv.at/katalog/geodata/3d_geo_daten_lod2/>
# Longitude: 14.30208641325016
# Latitude: 48.25206418796928
# Elevation: 261.075

# File produced by Open Asset Import Library (http://www.assimp.sf.net)
# (assimp v3.1.0)


# 20 vertex positions
v  6.978 10.99 -2.813
v  18.77 8.212 6.322
v  13.956 8.212 -5.625
v  11.792 10.99 9.134
v  0.6 8.451 -0.242
v  0.345 8.349 -0.139
v  0 8.212 5.0284e-16
v  0.6 8.212 1.489
v  3.175 8.212 7.879
v  4.814 8.212 11.947
v  0 0 0
v  0.345 8.5113e-18 -0.139
v  0.6 1.48182e-17 -0.242
v  6.978 1.72247e-16 -2.813
v  13.956 3.44432e-16 -5.625
v  0.6 -9.1175e-17 1.489
v  3.175 -4.8245e-16 7.879
v  4.814 -7.31543e-16 11.947
v  11.792 -5.59296e-16 9.134
v  18.77 -3.87111e-16 6.322

# 0 UV coordinates

# 34 vertex normals
vn 0.32129 0.93809 -0.129463
vn 0.32129 0.93809 -0.129463
vn -0.321263 0.9381 0.129452
vn -0.322228 0.937591 0.130741
vn -0.320768 0.938371 0.128717
vn -0.321279 0.938094 0.129461
vn -0.321284 0.938091 0.129469
vn -0.321281 0.938095 0.129444
vn -0.373707 0 -0.927547
vn -0.374537 3.98533e-05 -0.927212
vn -0.373866 -1.55111e-05 -0.927483
vn -0.373707 -0.000132822 -0.927547
vn -0.374523 0.000439694 -0.927217
vn -0.373871 0 -0.927481
vn -0.373773 0 -0.92752
vn -0.927529 -2.28857e-17 0.373752
vn -0.927523 -3.08058e-06 0.373767
vn -0.927529 1.3166e-05 0.373752
vn -0.927546 5.24289e-05 0.373709
vn -0.927523 -3.33764e-05 0.373767
vn -0.927546 0 0.373709
vn 0.373887 -0 0.927474
vn 0.373796 6.74504e-05 0.927511
vn 0.373887 -0.00011305 0.927474
vn 0.373773 0 0.92752
vn 0.927531 0 -0.373745
vn 1.60437e-24 -1 -6.12323e-17
vn 2.00599e-24 -1 -6.12323e-17
vn 1.09261e-24 -1 -6.12323e-17
vn -4.0855e-24 -1 -6.12323e-17
vn -8.98894e-24 -1 -6.12324e-17
vn 0 -1 -6.12323e-17
vn 7.04456e-20 -1 -6.11468e-17
vn 0 -1 -6.12086e-17

# Mesh 'defaultobject' with 36 faces
g defaultobject
usemtl DefaultMaterial
f  1//1 2//1 3//1
f  2//1 1//1 4//2
f  5//3 4//3 1//3
f  4//4 5//4 6//4
f  4//5 6//5 7//5
f  4//6 7//6 8//6
f  4//6 8//6 9//7
f  4//8 9//8 10//8
f  6//9 11//9 7//9
f  11//10 6//10 5//10
f  11//11 5//11 1//11
f  11//12 1//12 12//12
f  12//13 1//13 13//13
f  13//14 1//14 14//14
f  14//15 1//15 3//15
f  14//15 3//15 15//15
f  11//16 8//16 7//16
f  8//17 11//17 9//17
f  9//18 11//18 16//18
f  9//19 16//19 10//19
f  10//20 16//20 17//20
f  10//21 17//21 18//21
f  18//22 4//22 10//22
f  4//23 18//23 2//23
f  2//24 18//24 19//24
f  2//25 19//25 20//25
f  20//26 3//26 2//26
f  3//26 20//26 15//26
f  17//27 19//27 18//27
f  19//27 17//27 20//28
f  20//28 17//27 15//29
f  15//29 17//27 16//30
f  15//29 16//30 12//31
f  12//31 16//30 11//32
f  15//29 12//31 13//33
f  15//29 13//33 14//34

