# {"id":"ID_21185","idOriginal":"ID_21185","origin":[14.356846027156813,48.25549720338004],"elevation":250.783,"wof":[{"Id":85681677,"Name":"Oberösterreich","Placetype":"region","Offset":-1},{"Id":85898441,"Name":"Posch","Placetype":"neighbourhood","Offset":-1},{"Id":102049853,"Name":"Linz","Placetype":"county","Offset":-1},{"Id":101748071,"Name":"Linz","Placetype":"locality","Offset":-1},{"Id":85632785,"Name":"Austria","Placetype":"country","Offset":-1}]}

# Attribution: City of Linz <http://geo.data.linz.gv.at/katalog/geodata/3d_geo_daten_lod2/>
# Longitude: 14.356846027156813
# Latitude: 48.25549720338004
# Elevation: 250.783

# File produced by Open Asset Import Library (http://www.assimp.sf.net)
# (assimp v3.1.0)


# 37 vertex positions
v  6.791 9.184 -0.443
v  13.049 4.973 1.479
v  9.484 9.184 -2.726
v  10.356 4.973 3.762
v  2.622 9.184 3.093
v  10.28 4.973 3.827
v  2.687 9.107 3.17
v  0.495 4.973 -2.332
v  3.994 5.976 -3.578
v  3.145 4.973 -4.579
v  1.438 6.087 -1.22
v  0 6.087 3.72721e-16
v  4.075 5.976 -3.647
v  6.768 5.976 -5.93
v  14.622 4.973 8.948
v  6.251 9.107 7.374
v  10.528 9.107 12.419
v  6.068 9.107 7.158
v  10.345 4.973 3.903
v  6.768 3.63108e-16 -5.93
v  3.994 2.19089e-16 -3.578
v  4.075 2.23314e-16 -3.647
v  3.145 2.80383e-16 -4.579
v  0.495 1.42794e-16 -2.332
v  1.438 7.47035e-17 -1.22
v  0 0 0
v  14.622 -5.47907e-16 8.948
v  10.345 -2.3899e-16 3.903
v  10.28 -2.34336e-16 3.827
v  9.484 1.66919e-16 -2.726
v  13.049 -9.05626e-17 1.479
v  2.622 -1.89392e-16 3.093
v  2.687 -1.94107e-16 3.17
v  6.068 -4.38301e-16 7.158
v  6.251 -4.51527e-16 7.374
v  10.528 -7.60444e-16 12.419
v  10.356 -2.30356e-16 3.762

# 0 UV coordinates

# 62 vertex normals
vn 0.392533 0.794684 0.463028
vn 0.392534 0.794684 0.463028
vn 0.392644 0.794684 0.462934
vn 0.393533 0.795871 0.460132
vn 0.392526 0.794577 0.463218
vn -0.392678 0.794568 -0.463105
vn -0.392644 0.794705 -0.462899
vn -0.392489 0.794607 -0.463197
vn -0.392605 0.79473 -0.462888
vn -0.392684 0.794712 -0.462853
vn -0.392503 0.79472 -0.462992
vn -0.392503 0.79472 -0.462992
vn -0.393605 0.794719 -0.462056
vn 0.465445 0.792249 -0.394591
vn 0.465456 0.792365 -0.394345
vn 0.46545 0.792239 -0.394606
vn 0.465447 0.792248 -0.394592
vn 0.465031 0.790922 -0.397729
vn -0.646653 0 -0.762784
vn -0.648466 -0.00140656 -0.761242
vn -0.646706 -0 -0.762739
vn -4.90169e-20 1 6.11749e-17
vn -0.646729 0 -0.76272
vn -0.64694 0 -0.762541
vn -0.64694 4.66922e-17 -0.762541
vn 0.762634 0 -0.64683
vn 0.762634 0 -0.64683
vn 0.762778 0 -0.64666
vn 0.759958 0 -0.649972
vn 0.762787 4.17894e-05 -0.646649
vn 0.762785 0 -0.646653
vn 0.762808 -7.06766e-05 -0.646625
vn 0.762767 0 -0.646674
vn -0.762683 0 0.646772
vn -0.762683 0 0.646772
vn -0.762797 -3.95952e-17 0.646638
vn -0.7638 0.000686132 0.645452
vn -0.762769 -4.23016e-05 0.646671
vn -0.762797 1.29129e-06 0.646638
vn -0.762984 0.00017101 0.646417
vn -0.762778 -2.54594e-05 0.64666
vn -0.764135 0.00280171 0.64505
vn -0.762769 -2.01093e-05 0.646671
vn -0.762985 0.000231559 0.646417
vn -0.762778 0 0.64666
vn 0.646685 -0 0.762757
vn 0.646685 0 0.762757
vn 0.649967 -0 0.759963
vn 0.646653 8.75239e-05 0.762784
vn 0.646744 0 0.762707
vn 0 -1 -6.12121e-17
vn -1.30628e-24 -1 -6.12323e-17
vn 8.70649e-24 -1 -6.12323e-17
vn 2.98254e-24 -1 -6.12324e-17
vn -1.49127e-24 -1 -6.12323e-17
vn 3.48402e-23 -1 -6.12323e-17
vn -4.2447e-24 -1 -6.12323e-17
vn 0 -1 -6.12323e-17
vn -2.33571e-22 -1 -6.12325e-17
vn 2.90226e-24 -1 -6.12323e-17
vn -1.77235e-24 -1 -6.12323e-17
vn 5.91803e-20 -1 -6.11629e-17

# Mesh 'defaultobject' with 70 faces
g defaultobject
usemtl DefaultMaterial
f  1//1 2//1 3//1
f  2//1 1//1 4//2
f  4//3 1//3 5//3
f  4//4 5//4 6//4
f  6//5 5//5 7//5
f  8//6 9//6 10//6
f  9//7 8//7 1//7
f  1//8 8//8 11//8
f  1//9 11//9 5//9
f  5//10 11//10 12//10
f  13//11 3//11 14//11
f  3//11 13//11 1//12
f  1//13 13//13 9//13
f  15//14 16//14 17//14
f  16//15 15//15 18//15
f  18//16 15//16 7//16
f  7//17 15//14 19//17
f  7//18 19//18 6//18
f  20//19 13//19 14//19
f  13//20 20//20 9//20
f  9//21 20//21 21//21
f  21//22 20//22 22//22
f  23//23 8//23 10//23
f  8//23 23//23 24//23
f  25//24 12//24 11//24
f  12//24 25//24 26//25
f  21//26 10//26 9//26
f  10//26 21//26 23//27
f  27//28 19//28 15//28
f  19//28 27//28 28//28
f  19//29 28//29 6//29
f  6//29 28//29 29//29
f  2//30 14//30 3//30
f  14//31 2//31 20//31
f  20//32 2//32 30//32
f  30//33 2//33 31//33
f  8//34 25//34 11//34
f  25//34 8//34 24//35
f  26//36 5//36 12//36
f  5//37 26//37 7//37
f  7//38 26//38 18//38
f  18//39 26//36 32//39
f  18//40 32//40 16//40
f  16//41 32//41 17//41
f  17//42 32//42 33//42
f  17//43 33//43 34//43
f  17//44 34//44 35//44
f  17//45 35//45 36//45
f  36//46 15//46 17//46
f  15//46 36//46 27//47
f  29//48 4//48 6//48
f  4//49 29//49 2//49
f  2//50 29//50 31//50
f  31//51 29//51 37//51
f  24//52 21//52 25//52
f  21//52 24//52 23//53
f  35//54 27//54 36//54
f  27//54 35//54 28//55
f  28//55 35//54 34//56
f  28//55 34//56 33//57
f  28//55 33//57 29//51
f  29//51 33//57 37//51
f  37//51 33//57 31//51
f  31//51 33//57 30//58
f  30//58 33//57 32//59
f  30//58 32//59 26//60
f  30//58 26//60 25//52
f  30//58 25//52 20//61
f  20//61 25//52 21//52
f  20//61 21//52 22//62

