# {"id":"ID_20197","idOriginal":"ID_20197","origin":[14.318801176867044,48.33441156619051],"elevation":258.872}
# Longitude: 14.318801176867044
# Latitude: 48.33441156619051
# Elevation: 258.872

# File produced by Open Asset Import Library (http://www.assimp.sf.net)
# (assimp v3.1.0)

mtllib ID_20197.obj.mtl

# 28 vertex positions
v  4.143 4.446 4.187
v  4.303 4.446 4.027
v  0 4.446 2.72239e-16
v  2.548 4.446 -2.53
v  14.36 4.446 -1.77
v  8.711 4.446 -8.648
v  15.896 4.446 -1.234
v  16.722 4.446 -0.331
v  16.646 4.446 -0.255
v  16.488 4.446 -0.097
v  8.374 4.446 8.043
v  8.225 4.446 7.97
v  8.336 4.446 8.081
v  14.973 4.446 -2.242
v  16.722 2.02679e-17 -0.331
v  14.973 1.37283e-16 -2.242
v  15.896 7.55607e-17 -1.234
v  14.36 1.08381e-16 -1.77
v  8.711 5.29537e-16 -8.648
v  2.548 1.54918e-16 -2.53
v  0 0 0
v  4.143 -2.5638e-16 4.187
v  4.303 -2.46583e-16 4.027
v  8.225 -4.88022e-16 7.97
v  8.336 -4.94819e-16 8.081
v  8.374 -4.92492e-16 8.043
v  16.488 5.93954e-18 -0.097
v  16.646 1.56142e-17 -0.255

# 0 UV coordinates

# 33 vertex normals
vn 0 1 0
vn 0.737866 0 -0.674947
vn 0.737518 -0.000141681 -0.675327
vn 0.737683 0 -0.675148
vn -1.53707e-20 1 6.12444e-17
vn 0.77277 0 -0.634687
vn -0.610086 0 -0.792336
vn -0.704511 0 -0.709693
vn -0.704596 -0 -0.709609
vn -0.704596 4.3451e-17 -0.709609
vn -0.710832 -4.30685e-17 0.703362
vn -0.710832 0 0.703362
vn -0.708992 0 0.705216
vn -0.707107 0 0.707107
vn 0.707107 -0 0.707107
vn 0.707116 -0 0.707098
vn 0.708237 -1.91822e-05 0.705975
vn 0.707117 0.00408729 0.707085
vn 0.708237 0 0.705975
vn 0.707109 0 0.707105
vn 0.707106 2.20232e-07 0.707108
vn 0.707108 0 0.707106
vn -1.94776e-18 -1 -6.23283e-17
vn 0 -1 -6.12323e-17
vn 8.27907e-24 -1 -6.12323e-17
vn 1.40082e-22 -1 -6.12323e-17
vn -4.15541e-24 -1 -6.12323e-17
vn 1.69704e-24 -1 -6.12323e-17
vn 0 -1 -6.12323e-17
vn -2.60984e-23 -1 -6.12324e-17
vn -5.65254e-23 -1 -6.12324e-17
vn -4.9868e-21 -1 -6.12364e-17
vn 1.98254e-18 1 6.54239e-17

# Mesh 'defaultobject' with 52 faces
g defaultobject
usemtl DefaultMaterial
f  1//1 2//1 3//1
f  4//1 5//1 6//1
f  5//1 4//1 3//1
f  5//1 3//1 7//1
f  7//1 3//1 8//1
f  8//1 3//1 9//1
f  9//1 3//1 10//1
f  10//1 3//1 2//1
f  10//1 2//1 11//1
f  11//1 2//1 12//1
f  11//1 12//1 13//1
f  7//1 14//1 5//1
f  15//2 7//2 8//2
f  7//3 15//3 14//3
f  14//4 15//4 16//4
f  16//5 15//5 17//5
f  18//6 6//6 5//6
f  6//6 18//6 19//6
f  16//7 5//7 14//7
f  5//7 16//7 18//7
f  19//8 4//8 6//8
f  4//8 19//8 20//8
f  4//9 20//9 3//9
f  3//9 20//9 21//10
f  21//11 1//11 3//11
f  1//11 21//11 22//12
f  23//13 12//13 2//13
f  12//13 23//13 24//13
f  12//14 24//14 13//14
f  13//14 24//14 25//14
f  22//15 2//15 1//15
f  2//15 22//15 23//15
f  25//16 11//16 13//16
f  11//17 25//17 10//17
f  10//18 25//18 26//18
f  10//19 26//19 27//19
f  10//20 27//20 9//20
f  9//20 27//20 8//21
f  8//21 27//20 15//22
f  15//23 27//23 28//23
f  20//24 22//24 21//24
f  22//24 20//24 19//25
f  22//24 19//25 23//26
f  23//26 19//25 18//27
f  23//26 18//27 24//28
f  24//28 18//27 16//29
f  24//28 16//29 17//30
f  24//28 17//30 25//31
f  25//31 17//30 26//32
f  26//32 17//30 27//23
f  27//23 17//30 15//23
f  27//33 15//5 28//33

