# {"id":"_4120","idOriginal":"_4120","origin":[14.298772163784513,48.30465210567038],"elevation":259.63}
# Longitude: 14.298772163784513
# Latitude: 48.30465210567038
# Elevation: 259.63

# File produced by Open Asset Import Library (http://www.assimp.sf.net)
# (assimp v3.1.0)

mtllib _4120.obj.mtl

# 18 vertex positions
v  0 14.74 9.02565e-16
v  14.079 14.74 2.009
v  13.385 14.74 -2.236
v  15.588 14.74 2.282
v  15.541 14.74 1.821
v  19.172 14.74 23.903
v  4.381 14.74 26.315
v  19.355 14.74 25.004
v  4.63 14.74 27.55
v  4.63 -1.68695e-15 27.55
v  19.355 -1.53105e-15 25.004
v  15.588 -1.39732e-16 2.282
v  19.172 -1.46364e-15 23.903
v  15.541 -1.11504e-16 1.821
v  14.079 -1.23016e-16 2.009
v  13.385 1.36916e-16 -2.236
v  0 0 0
v  4.381 -1.61133e-15 26.315

# 0 UV coordinates

# 18 vertex normals
vn -0 1 0
vn 0.170375 -0 0.985379
vn 0.986467 0 -0.163962
vn 0.986538 3.29056e-05 -0.163533
vn 0.986534 0 -0.163554
vn 0 -1 -6.12496e-17
vn 0.994843 0 -0.101426
vn 0.986898 0 -0.161345
vn -0.127541 0 -0.991833
vn -0.164769 0 -0.986332
vn -0.164769 6.03954e-17 -0.986332
vn -0.980274 0 0.197643
vn -0.986423 -1.00557e-17 0.164223
vn -0.986423 0 0.164223
vn -1.16986e-24 -1 -6.12323e-17
vn 0 -1 -6.12323e-17
vn -1.00502e-22 -1 -6.12323e-17
vn 6.3132e-24 -1 -6.12323e-17

# Mesh 'defaultobject' with 32 faces
g defaultobject
usemtl DefaultMaterial
f  1//1 2//1 3//1
f  2//1 4//1 5//1
f  4//1 2//1 6//1
f  6//1 2//1 1//1
f  6//1 1//1 7//1
f  6//1 7//1 8//1
f  8//1 7//1 9//1
f  10//2 8//2 9//2
f  8//2 10//2 11//2
f  11//3 6//3 8//3
f  6//4 11//4 4//4
f  4//5 11//5 12//5
f  12//6 11//6 13//6
f  12//7 5//7 4//7
f  5//7 12//7 14//7
f  15//8 3//8 2//8
f  3//8 15//8 16//8
f  14//9 2//9 5//9
f  2//9 14//9 15//9
f  16//10 1//10 3//10
f  1//10 16//10 17//11
f  18//12 9//12 7//12
f  9//12 18//12 10//12
f  17//13 7//13 1//13
f  7//13 17//13 18//14
f  16//15 18//15 17//15
f  18//15 16//15 15//16
f  18//15 15//16 14//17
f  18//15 14//17 12//6
f  18//15 12//6 13//6
f  18//15 13//6 10//18
f  10//18 13//6 11//6

