# {"id":"ID_29451","idOriginal":"ID_29451","origin":[14.318919211528254,48.24911752904551],"elevation":257.6,"wof":[{"Id":102049853,"Name":"Linz","Placetype":"county","Offset":-1},{"Id":85681677,"Name":"Oberösterreich","Placetype":"region","Offset":-1},{"Id":85898429,"Name":"Kleinmünchen","Placetype":"neighbourhood","Offset":-1},{"Id":101748071,"Name":"Linz","Placetype":"locality","Offset":-1},{"Id":85632785,"Name":"Austria","Placetype":"country","Offset":-1}]}

# Attribution: City of Linz <http://geo.data.linz.gv.at/katalog/geodata/3d_geo_daten_lod2/>
# Longitude: 14.318919211528254
# Latitude: 48.24911752904551
# Elevation: 257.6

# File produced by Open Asset Import Library (http://www.assimp.sf.net)
# (assimp v3.1.0)


# 20 vertex positions
v  2.924 9.24 -9.429
v  4.983 9.24 -9.28
v  4.985 9.24 -9.325
v  4.897 9.24 -7.673
v  2.775 9.24 -9.437
v  1.061 9.24 -9.523
v  0.458 9.24 -9.553
v  0 9.24 5.65787e-16
v  7.99 9.24 0.411
v  8.383 9.24 -7.493
v  4.985 5.70992e-16 -9.325
v  0.458 5.84953e-16 -9.553
v  2.924 5.7736e-16 -9.429
v  2.775 5.7785e-16 -9.437
v  1.061 5.83116e-16 -9.523
v  8.383 4.58814e-16 -7.493
v  4.897 4.69836e-16 -7.673
v  0 0 0
v  7.99 -2.51665e-17 0.411
v  4.983 5.68236e-16 -9.28

# 0 UV coordinates

# 26 vertex normals
vn 0 1 0
vn 0.0503969 0 -0.998729
vn 0.0536166 0.000720051 -0.998561
vn 0.0501117 -0.000120446 -0.998744
vn 0.0496893 -0.000300256 -0.998765
vn 0.0503007 0 -0.998734
vn 4.36033e-21 1 6.11438e-17
vn 3.30086e-21 1 6.11688e-17
vn -4.51336e-21 1 6.13232e-17
vn 0.0515664 0 -0.99867
vn -0.998853 0 -0.0478881
vn -0.998853 2.9323e-18 -0.0478881
vn -0.0513714 -6.11515e-17 0.99868
vn -0.0513714 0 0.99868
vn 0.998766 -0 0.0496604
vn 0.999013 0 0.0444079
vn 0.998571 -4.40804e-05 0.0534394
vn 0.999012 0.00157485 0.0444078
vn 0.998571 0 0.0534394
vn 6.87622e-24 -1 -6.12323e-17
vn -2.58027e-23 -1 -6.12323e-17
vn 2.96515e-22 -1 -6.12323e-17
vn 0 -1 -6.12323e-17
vn 0 -1 -6.12326e-17
vn 0 -1 -6.12323e-17
vn -1.53284e-23 -1 -6.12324e-17

# Mesh 'defaultobject' with 36 faces
g defaultobject
usemtl DefaultMaterial
f  1//1 2//1 3//1
f  2//1 1//1 4//1
f  4//1 1//1 5//1
f  4//1 5//1 6//1
f  4//1 6//1 7//1
f  4//1 7//1 8//1
f  4//1 8//1 9//1
f  9//1 10//1 4//1
f  11//2 1//2 3//2
f  1//3 11//3 5//3
f  5//4 11//4 6//4
f  6//5 11//5 7//5
f  7//6 11//6 12//6
f  12//7 11//7 13//7
f  12//7 13//7 14//8
f  12//7 14//8 15//9
f  16//10 4//10 10//10
f  4//10 16//10 17//10
f  12//11 8//11 7//11
f  8//11 12//11 18//12
f  18//13 9//13 8//13
f  9//13 18//13 19//14
f  19//15 10//15 9//15
f  10//15 19//15 16//15
f  2//16 11//16 3//16
f  11//17 2//17 4//17
f  11//18 4//18 20//18
f  20//19 4//19 17//19
f  15//20 18//20 12//20
f  18//20 15//20 14//21
f  18//20 14//21 13//22
f  18//20 13//22 11//23
f  18//20 11//23 20//24
f  18//20 20//24 17//25
f  18//20 17//25 16//26
f  18//20 16//26 19//23

