# {"id":"ID_42010","idOriginal":"ID_42010","origin":[14.308996170134975,48.33421771425054],"elevation":259.349,"wof":[{"Id":102049853,"Name":"Linz","Placetype":"county","Offset":-1},{"Id":101748071,"Name":"Linz","Placetype":"locality","Offset":-1},{"Id":85681677,"Name":"Oberösterreich","Placetype":"region","Offset":-1},{"Id":85898419,"Name":"Furth","Placetype":"neighbourhood","Offset":-1},{"Id":85632785,"Name":"Austria","Placetype":"country","Offset":-1}]}

# Attribution: City of Linz <http://geo.data.linz.gv.at/katalog/geodata/3d_geo_daten_lod2/>
# Longitude: 14.308996170134975
# Latitude: 48.33421771425054
# Elevation: 259.349

# File produced by Open Asset Import Library (http://www.assimp.sf.net)
# (assimp v3.1.0)


# 17 vertex positions
v  4.997 2.243 5.715
v  1.283 2.852 3.071
v  4.97 2.248 5.72
v  3.954 2.236 -0.622
v  3.934 2.24 -0.619
v  1.091 2.235 6.399
v  0.543 2.852 3.187
v  3.814 2.24 -0.6
v  0 2.24 1.3716e-16
v  0 0 0
v  3.934 3.79028e-17 -0.619
v  3.954 3.80865e-17 -0.622
v  3.814 3.67394e-17 -0.6
v  0.543 -1.95147e-16 3.187
v  1.091 -3.91826e-16 6.399
v  4.97 -3.50249e-16 5.72
v  4.997 -3.49943e-16 5.715

# 0 UV coordinates

# 26 vertex normals
vn 0.177873 0.983779 -0.0232595
vn 0.183371 0.982547 -0.0312661
vn 0.192536 0.980987 -0.0243751
vn 0.0288848 0.982534 0.183825
vn 0.0288153 0.982537 0.183822
vn -0.0291127 0.982519 -0.18387
vn -0.0289037 0.982552 -0.183731
vn -0.0288072 0.982547 -0.18377
vn -0.155404 0 -0.987851
vn -0.156385 0.00171182 -0.987695
vn -0.150176 -0.00944196 -0.988614
vn -0.155434 6.49284e-05 -0.987846
vn -0.148339 0 -0.988937
vn 3.55112e-21 -1 -6.12498e-17
vn -0.985794 -1.02845e-17 0.167959
vn -0.985794 0 0.167959
vn -0.985756 0 0.16818
vn 0.172423 -0 0.985023
vn 0.172423 0 0.985023
vn 0.182097 0 0.983281
vn 0.182097 0 0.983281
vn 0.986724 0 -0.162404
vn 0.986724 0 -0.162404
vn 4.12577e-24 -1 -6.12323e-17
vn -6.1247e-22 -1 -6.12318e-17
vn 8.23794e-24 -1 -6.12323e-17

# Mesh 'defaultobject' with 29 faces
g defaultobject
usemtl DefaultMaterial
f  1//1 2//1 3//1
f  2//2 1//2 4//2
f  2//3 4//3 5//3
f  2//4 6//4 3//4
f  6//5 2//5 7//5
f  8//6 2//6 5//6
f  2//7 8//7 9//7
f  2//8 9//8 7//8
f  8//9 10//9 9//9
f  10//10 8//10 5//10
f  10//11 5//11 4//11
f  10//12 4//12 11//12
f  11//13 4//13 12//13
f  10//14 11//14 13//14
f  10//15 7//15 9//15
f  7//15 10//15 14//16
f  7//17 14//17 6//17
f  6//17 14//17 15//17
f  15//18 3//18 6//18
f  3//18 15//18 16//19
f  3//20 16//20 1//20
f  1//20 16//20 17//21
f  17//22 4//22 1//22
f  4//22 17//22 12//23
f  14//24 16//24 15//24
f  16//24 14//24 10//14
f  16//24 10//14 17//25
f  17//25 10//14 12//26
f  12//26 10//14 13//14

