# {"id":"ID_40242","idOriginal":"ID_40242","origin":[14.360272536133184,48.24986434565779],"elevation":252.082,"wof":[{"Id":85898441,"Name":"Posch","Placetype":"neighbourhood","Offset":-1},{"Id":102049853,"Name":"Linz","Placetype":"county","Offset":-1},{"Id":85632785,"Name":"Austria","Placetype":"country","Offset":-1},{"Id":101748071,"Name":"Linz","Placetype":"locality","Offset":-1},{"Id":85681677,"Name":"Oberösterreich","Placetype":"region","Offset":-1}]}

# Attribution: City of Linz <http://geo.data.linz.gv.at/katalog/geodata/3d_geo_daten_lod2/>
# Longitude: 14.360272536133184
# Latitude: 48.24986434565779
# Elevation: 252.082

# File produced by Open Asset Import Library (http://www.assimp.sf.net)
# (assimp v3.1.0)


# 12 vertex positions
v  4.194 2.568 -0.244
v  5.019 2.568 6.246
v  4.441 2.568 -0.266
v  0.274 2.568 -0.024
v  0 2.568 1.57245e-16
v  0.588 2.568 6.639
v  4.441 1.62878e-17 -0.266
v  4.194 1.49407e-17 -0.244
v  0.274 1.46958e-18 -0.024
v  0 0 0
v  0.588 -4.06521e-16 6.639
v  5.019 -3.82457e-16 6.246

# 0 UV coordinates

# 13 vertex normals
vn -0 1 0
vn -0.0887177 0 -0.996057
vn -0.0560343 0 -0.998429
vn -0.0872572 0 -0.996186
vn -0.0872572 6.09988e-17 -0.996186
vn -0.996101 -5.40205e-18 0.0882222
vn -0.996101 0 0.0882222
vn 0.0883465 -0 0.99609
vn 0.996084 0 -0.0884117
vn 0 -1 -6.12323e-17
vn 8.08607e-24 -1 -6.12323e-17
vn 1.30653e-22 -1 -6.12323e-17
vn -7.73655e-24 -1 -6.12323e-17

# Mesh 'defaultobject' with 20 faces
g defaultobject
usemtl DefaultMaterial
f  1//1 2//1 3//1
f  2//1 1//1 4//1
f  2//1 4//1 5//1
f  2//1 5//1 6//1
f  7//2 1//2 3//2
f  1//2 7//2 8//2
f  8//3 4//3 1//3
f  4//3 8//3 9//3
f  9//4 5//4 4//4
f  5//4 9//4 10//5
f  10//6 6//6 5//6
f  6//6 10//6 11//7
f  11//8 2//8 6//8
f  2//8 11//8 12//8
f  12//9 3//9 2//9
f  3//9 12//9 7//9
f  9//10 11//10 10//10
f  11//10 9//10 8//11
f  11//10 8//11 7//12
f  11//10 7//12 12//13

