# {"id":"ID_53681","idOriginal":"ID_53681","origin":[14.348479007724503,48.25467946430993],"elevation":252.292}
# Longitude: 14.348479007724503
# Latitude: 48.25467946430993
# Elevation: 252.292

# File produced by Open Asset Import Library (http://www.assimp.sf.net)
# (assimp v3.1.0)

mtllib ID_53681.obj.mtl

# 8 vertex positions
v  2.755 7.121 -0.522
v  0.597 7.121 3.15
v  3.364 7.121 2.622
v  0 7.121 4.36035e-16
v  0.597 -1.92882e-16 3.15
v  3.364 -1.60551e-16 2.622
v  2.755 3.19633e-17 -0.522
v  0 0 0

# 0 UV coordinates

# 8 vertex normals
vn 0 1 -0
vn 0.187438 -0 0.982276
vn 0.981752 0 -0.190168
vn -0.186162 0 -0.982519
vn -0.186162 6.0162e-17 -0.982519
vn -0.98251 -1.1402e-17 0.186209
vn -0.98251 0 0.186209
vn 0 -1 -6.12323e-17

# Mesh 'defaultobject' with 12 faces
g defaultobject
usemtl DefaultMaterial
f  1//1 2//1 3//1
f  2//1 1//1 4//1
f  5//2 3//2 2//2
f  3//2 5//2 6//2
f  6//3 1//3 3//3
f  1//3 6//3 7//3
f  7//4 4//4 1//4
f  4//4 7//4 8//5
f  8//6 2//6 4//6
f  2//6 8//6 5//7
f  8//8 6//8 5//8
f  6//8 8//8 7//8

