# {"id":"ID_8952","idOriginal":"ID_8952","origin":[14.31030618539546,48.31880580199913],"elevation":253.554,"wof":[{"Id":102049853,"Name":"Linz","Placetype":"county","Offset":-1},{"Id":101748071,"Name":"Linz","Placetype":"locality","Offset":-1},{"Id":85681677,"Name":"Oberösterreich","Placetype":"region","Offset":-1},{"Id":85898449,"Name":"Steeg","Placetype":"neighbourhood","Offset":-1},{"Id":85632785,"Name":"Austria","Placetype":"country","Offset":-1}]}

# Attribution: City of Linz <http://geo.data.linz.gv.at/katalog/geodata/3d_geo_daten_lod2/>
# Longitude: 14.31030618539546
# Latitude: 48.31880580199913
# Elevation: 253.554

# File produced by Open Asset Import Library (http://www.assimp.sf.net)
# (assimp v3.1.0)


# 14 vertex positions
v  0.086 4.058 -0.883
v  10.015 2.455 -42.411
v  4.287 4.058 -44.108
v  5.749 2.485 0.325
v  5.727 2.485 0.543
v  4.509 2.82 0.427
v  0 4.058 2.48481e-16
v  5.727 -3.32492e-17 0.543
v  5.749 -1.99005e-17 0.325
v  10.015 2.59692e-15 -42.411
v  4.287 2.70084e-15 -44.108
v  0.086 5.40682e-17 -0.883
v  0 0 0
v  4.509 -2.61462e-17 0.427

# 0 UV coordinates

# 20 vertex normals
vn 0.262398 0.964623 0.0255022
vn 0.262489 0.964597 0.0255251
vn 0.262295 0.964625 0.02647
vn 0.263055 0.964499 0.0233265
vn 0.262426 0.964614 0.025559
vn 0.994947 -0 0.100407
vn 0.995055 -9.5537e-05 0.0993286
vn 0.994768 0.0189458 0.100389
vn 0.995055 0 0.0993285
vn 0.28406 0 -0.958806
vn -0.99531 0 -0.0967333
vn -0.995291 -0 -0.0969366
vn -0.995291 5.93565e-18 -0.0969366
vn -0.0942777 -6.09596e-17 0.995546
vn -0.0942777 0 0.995546
vn -0.0948091 0 0.995495
vn 0 -1 -6.12323e-17
vn -5.42409e-23 -1 -6.12323e-17
vn 0 -1 -6.12323e-17
vn -1.64688e-24 -1 -6.12323e-17

# Mesh 'defaultobject' with 24 faces
g defaultobject
usemtl DefaultMaterial
f  1//1 2//1 3//1
f  2//2 1//2 4//2
f  4//3 1//3 5//3
f  5//4 1//4 6//4
f  6//5 1//5 7//5
f  8//6 4//6 5//6
f  4//7 8//7 2//7
f  2//8 8//8 9//8
f  2//9 9//9 10//9
f  11//10 2//10 10//10
f  2//10 11//10 3//10
f  11//11 1//11 3//11
f  1//11 11//11 12//11
f  1//12 12//12 7//12
f  7//12 12//12 13//13
f  13//14 6//14 7//14
f  6//14 13//14 14//15
f  6//16 14//16 5//16
f  5//16 14//16 8//16
f  9//17 11//17 10//17
f  11//17 9//17 12//18
f  12//18 9//17 8//17
f  12//18 8//17 14//19
f  12//18 14//19 13//20

