# {"id":"ID_51724","idOriginal":"ID_51724","origin":[14.352147041151854,48.274679127594034],"elevation":254.019,"wof":[{"Id":102049853,"Name":"Linz","Placetype":"county","Offset":-1},{"Id":85632785,"Name":"Austria","Placetype":"country","Offset":-1},{"Id":101748071,"Name":"Linz","Placetype":"locality","Offset":-1},{"Id":85681677,"Name":"Oberösterreich","Placetype":"region","Offset":-1},{"Id":85898451,"Name":"Ufer","Placetype":"neighbourhood","Offset":-1}]}

# Attribution: City of Linz <http://geo.data.linz.gv.at/katalog/geodata/3d_geo_daten_lod2/>
# Longitude: 14.352147041151854
# Latitude: 48.274679127594034
# Elevation: 254.019

# File produced by Open Asset Import Library (http://www.assimp.sf.net)
# (assimp v3.1.0)


# 8 vertex positions
v  2.552 1.228 2.8
v  2.231 1.228 -2.033
v  0 1.228 7.51933e-17
v  4.771 1.228 0.791
v  2.231 1.24485e-16 -2.033
v  0 0 0
v  2.552 -1.71451e-16 2.8
v  4.771 -4.84348e-17 0.791

# 0 UV coordinates

# 9 vertex normals
vn 0 1 0
vn -0.673546 0 -0.739145
vn -0.673546 4.52596e-17 -0.739145
vn -0.739079 -4.12472e-17 0.673618
vn -0.739079 0 0.673618
vn 0.671158 -0 0.741314
vn 0.743504 0 -0.668732
vn 1.15446e-24 -1 -6.12323e-17
vn 0 -1 -6.12323e-17

# Mesh 'defaultobject' with 12 faces
g defaultobject
usemtl DefaultMaterial
f  1//1 2//1 3//1
f  2//1 1//1 4//1
f  5//2 3//2 2//2
f  3//2 5//2 6//3
f  6//4 1//4 3//4
f  1//4 6//4 7//5
f  7//6 4//6 1//6
f  4//6 7//6 8//6
f  8//7 2//7 4//7
f  2//7 8//7 5//7
f  8//8 6//8 5//8
f  6//8 8//8 7//9

