# {"id":"ID_32608","idOriginal":"ID_32608","origin":[14.281414010838997,48.29260270285176],"elevation":317.713}
# Longitude: 14.281414010838997
# Latitude: 48.29260270285176
# Elevation: 317.713

# File produced by Open Asset Import Library (http://www.assimp.sf.net)
# (assimp v3.1.0)

mtllib ID_32608.obj.mtl

# 8 vertex positions
v  6.867 2.76 -0.958
v  1.188 2.76 7.816
v  8.003 2.76 6.846
v  0 2.76 1.69001e-16
v  8.003 -4.19197e-16 6.846
v  6.867 5.86606e-17 -0.958
v  0 0 0
v  1.188 -4.78592e-16 7.816

# 0 UV coordinates

# 9 vertex normals
vn 0 1 -0
vn 0.989571 0 -0.144048
vn -0.13817 0 -0.990409
vn -0.13817 6.0645e-17 -0.990409
vn -0.988645 -9.20138e-18 0.15027
vn -0.988645 0 0.15027
vn 0.140913 -0 0.990022
vn 3.90078e-24 -1 -6.12323e-17
vn 0 -1 -6.12323e-17

# Mesh 'defaultobject' with 12 faces
g defaultobject
usemtl DefaultMaterial
f  1//1 2//1 3//1
f  2//1 1//1 4//1
f  5//2 1//2 3//2
f  1//2 5//2 6//2
f  6//3 4//3 1//3
f  4//3 6//3 7//4
f  7//5 2//5 4//5
f  2//5 7//5 8//6
f  8//7 3//7 2//7
f  3//7 8//7 5//7
f  8//8 6//8 5//8
f  6//8 8//8 7//9

