# File produced by Open Asset Import Library (http://www.assimp.sf.net)
# (assimp v3.1.0)

mtllib ID_56713.obj.mtl

# 92 vertex positions
v  2.087 51.517 -1.023
v  2.487 51.517 -0.644
v  2.307 51.517 -0.854
v  1.966 51.517 -1.091
v  1.839 51.517 -1.145
v  2.561 51.517 -0.526
v  1.706 51.517 -1.187
v  2.67 51.517 -0.271
v  1.569 51.517 -1.212
v  1.432 51.517 -1.226
v  2.726 51.517 3.15451e-15
v  1.294 51.517 -1.226
v  1.157 51.517 -1.212
v  2.726 51.517 0.278
v  1.021 51.517 -1.184
v  0.887 51.517 -1.145
v  2.67 51.517 0.549
v  0.76 51.517 -1.091
v  0.639 51.517 -1.023
v  2.622 51.517 0.679
v  0.419 51.517 -0.854
v  2.56 51.517 0.804
v  2.402 51.517 1.031
v  0.239 51.517 -0.644
v  2.307 51.517 1.132
v  0.165 51.517 -0.526
v  2.201 51.517 1.222
v  0.056 51.517 -0.271
v  2.087 51.517 1.301
v  1.966 51.517 1.369
v  0 51.517 3.15451e-15
v  1.839 51.517 1.423
v  1.705 51.517 1.462
v  0 51.517 0.277
v  1.569 51.517 1.49
v  1.432 51.517 1.504
v  0.021 51.517 0.415
v  1.294 51.517 1.504
v  0.104 51.517 0.679
v  1.156 51.517 1.493
v  1.02 51.517 1.465
v  0.165 51.517 0.804
v  0.76 51.517 1.369
v  0.239 51.517 0.921
v  0.419 51.517 1.132
v  0.638 51.517 1.301
v  2.622 -4.15768e-17 0.679
v  2.67 -3.36166e-17 0.549
v  2.726 -1.70226e-17 0.278
v  2.726 0 0
v  2.67 1.6594e-17 -0.271
v  2.561 3.22082e-17 -0.526
v  2.487 3.94336e-17 -0.644
v  2.307 5.22924e-17 -0.854
v  2.087 6.26407e-17 -1.023
v  1.966 6.68045e-17 -1.091
v  1.839 7.0111e-17 -1.145
v  1.706 7.26828e-17 -1.187
v  1.569 7.42136e-17 -1.212
v  1.432 7.50708e-17 -1.226
v  1.294 7.50708e-17 -1.226
v  1.157 7.42136e-17 -1.212
v  1.021 7.24991e-17 -1.184
v  0.887 7.0111e-17 -1.145
v  0.76 6.68045e-17 -1.091
v  0.639 6.26407e-17 -1.023
v  0.419 5.22924e-17 -0.854
v  0.239 3.94336e-17 -0.644
v  0.165 3.22082e-17 -0.526
v  0.056 1.6594e-17 -0.271
v  0 0 0
v  0 -1.69614e-17 0.277
v  0.021 -2.54114e-17 0.415
v  0.104 -4.15768e-17 0.679
v  0.165 -4.92308e-17 0.804
v  0.239 -5.6395e-17 0.921
v  0.419 -6.9315e-17 1.132
v  0.638 -7.96633e-17 1.301
v  0.76 -8.38271e-17 1.369
v  1.02 -8.97054e-17 1.465
v  1.156 -9.14199e-17 1.493
v  1.294 -9.20934e-17 1.504
v  1.432 -9.20934e-17 1.504
v  1.569 -9.12362e-17 1.49
v  1.705 -8.95217e-17 1.462
v  1.839 -8.71336e-17 1.423
v  1.966 -8.38271e-17 1.369
v  2.087 -7.96633e-17 1.301
v  2.201 -7.48259e-17 1.222
v  2.307 -6.9315e-17 1.132
v  2.56 -4.92308e-17 0.804
v  2.402 -6.31305e-17 1.031

# 0 UV coordinates

# 88 vertex normals
vn 0 1 0
vn 0.938096 -0 0.346375
vn 0.97931 -0 0.202367
vn 1 -0 0
vn 0.97931 1.23914e-17 -0.202367
vn 0.97931 0 -0.202367
vn 0.919517 0 -0.393049
vn 0.847191 0 -0.531289
vn 0.759256 0 -0.650792
vn 0.609188 0 -0.793026
vn 0.489919 0 -0.871768
vn 0.391294 0 -0.920266
vn 0.301132 0 -0.953583
vn 0.179517 0 -0.983755
vn 0.10166 0 -0.994819
vn 0 0 -1
vn -0.10166 0 -0.994819
vn -0.201653 0 -0.979457
vn -0.27945 0 -0.96016
vn -0.391294 0 -0.920266
vn -0.489919 0 -0.871768
vn -0.609188 0 -0.793026
vn -0.759257 0 -0.650791
vn -0.847191 0 -0.531289
vn -0.919518 0 -0.393049
vn -0.97931 0 -0.202367
vn -0.97931 1.23914e-17 -0.202367
vn -1 0 0
vn -0.988619 0 0.150442
vn -0.953964 0 0.299921
vn -0.898699 0 0.438565
vn -0.845145 0 0.534536
vn -0.760782 0 0.649008
vn -0.610933 0 0.791682
vn -0.486858 0 0.873481
vn -0.346374 0 0.938096
vn -0.201653 0 0.979457
vn -0.0794575 0 0.996838
vn 0 0 1
vn 0.10166 -0 0.994819
vn 0.201653 -0 0.979457
vn 0.27945 -0 0.96016
vn 0.391294 -0 0.920266
vn 0.489919 -0 0.871768
vn 0.569585 -0 0.821933
vn 0.647231 -0 0.762294
vn 0.895856 -0 0.444345
vn 0.728411 -0 0.68514
vn 0.820758 -0 0.571276
vn 7.22046e-23 -1 -6.12323e-17
vn -4.29154e-23 -1 -6.12323e-17
vn -1.1371e-22 -1 -6.12323e-17
vn 3.7031e-23 -1 -6.12323e-17
vn -1.13671e-23 -1 -6.12323e-17
vn 1.36976e-22 -1 -6.12323e-17
vn 0 -1 -6.12323e-17
vn -5.85962e-24 -1 -6.12323e-17
vn 1.54946e-22 -1 -6.12323e-17
vn 2.16392e-23 -1 -6.12323e-17
vn -1.2717e-22 -1 -6.12324e-17
vn -1.16342e-22 -1 -6.12324e-17
vn -1.95343e-23 -1 -6.12323e-17
vn -9.22722e-23 -1 -6.12323e-17
vn -2.70649e-24 -1 -6.12323e-17
vn 0 -1 -6.12323e-17
vn 9.44522e-24 -1 -6.12323e-17
vn 0 -1 -6.12324e-17
vn -2.93925e-23 -1 -6.12323e-17
vn -7.00459e-23 -1 -6.12324e-17
vn 7.47985e-23 -1 -6.12323e-17
vn 1.10638e-24 -1 -6.12323e-17
vn -5.49681e-23 -1 -6.12324e-17
vn -0 -1 -6.12323e-17
vn -1.50012e-22 -1 -6.12324e-17
vn 5.89064e-23 -1 -6.12323e-17
vn -4.14849e-23 -1 -6.12323e-17
vn -3.74579e-23 -1 -6.12324e-17
vn -4.90197e-23 -1 -6.12324e-17
vn 3.8196e-23 -1 -6.12323e-17
vn -1.19291e-23 -1 -6.12323e-17
vn -2.08253e-22 -1 -6.12324e-17
vn 5.14042e-24 -1 -6.12323e-17
vn 0 -1 -6.12324e-17
vn 3.4266e-23 -1 -6.12323e-17
vn 0 -1 -6.12323e-17
vn -3.10565e-23 -1 -6.12323e-17
vn 3.61965e-23 -1 -6.12323e-17
vn 0 -1 -6.12323e-17

# Mesh 'defaultobject' with 180 faces
g defaultobject
usemtl DefaultMaterial
f  1//1 2//1 3//1
f  2//1 1//1 4//1
f  2//1 4//1 5//1
f  2//1 5//1 6//1
f  6//1 5//1 7//1
f  6//1 7//1 8//1
f  8//1 7//1 9//1
f  8//1 9//1 10//1
f  8//1 10//1 11//1
f  11//1 10//1 12//1
f  11//1 12//1 13//1
f  11//1 13//1 14//1
f  14//1 13//1 15//1
f  14//1 15//1 16//1
f  14//1 16//1 17//1
f  17//1 16//1 18//1
f  17//1 18//1 19//1
f  17//1 19//1 20//1
f  20//1 19//1 21//1
f  20//1 21//1 22//1
f  22//1 21//1 23//1
f  23//1 21//1 24//1
f  23//1 24//1 25//1
f  25//1 24//1 26//1
f  25//1 26//1 27//1
f  27//1 26//1 28//1
f  27//1 28//1 29//1
f  29//1 28//1 30//1
f  30//1 28//1 31//1
f  30//1 31//1 32//1
f  32//1 31//1 33//1
f  33//1 31//1 34//1
f  33//1 34//1 35//1
f  35//1 34//1 36//1
f  36//1 34//1 37//1
f  36//1 37//1 38//1
f  38//1 37//1 39//1
f  38//1 39//1 40//1
f  40//1 39//1 41//1
f  41//1 39//1 42//1
f  41//1 42//1 43//1
f  43//1 42//1 44//1
f  43//1 44//1 45//1
f  43//1 45//1 46//1
f  47//2 17//2 20//2
f  17//2 47//2 48//2
f  48//3 14//3 17//3
f  14//3 48//3 49//3
f  49//4 11//4 14//4
f  11//4 49//4 50//4
f  50//5 8//5 11//5
f  8//5 50//5 51//6
f  51//7 6//7 8//7
f  6//7 51//7 52//7
f  52//8 2//8 6//8
f  2//8 52//8 53//8
f  53//9 3//9 2//9
f  3//9 53//9 54//9
f  54//10 1//10 3//10
f  1//10 54//10 55//10
f  55//11 4//11 1//11
f  4//11 55//11 56//11
f  56//12 5//12 4//12
f  5//12 56//12 57//12
f  57//13 7//13 5//13
f  7//13 57//13 58//13
f  58//14 9//14 7//14
f  9//14 58//14 59//14
f  59//15 10//15 9//15
f  10//15 59//15 60//15
f  60//16 12//16 10//16
f  12//16 60//16 61//16
f  61//17 13//17 12//17
f  13//17 61//17 62//17
f  62//18 15//18 13//18
f  15//18 62//18 63//18
f  63//19 16//19 15//19
f  16//19 63//19 64//19
f  64//20 18//20 16//20
f  18//20 64//20 65//20
f  65//21 19//21 18//21
f  19//21 65//21 66//21
f  66//22 21//22 19//22
f  21//22 66//22 67//22
f  67//23 24//23 21//23
f  24//23 67//23 68//23
f  68//24 26//24 24//24
f  26//24 68//24 69//24
f  69//25 28//25 26//25
f  28//25 69//25 70//25
f  70//26 31//26 28//26
f  31//26 70//26 71//27
f  71//28 34//28 31//28
f  34//28 71//28 72//28
f  72//29 37//29 34//29
f  37//29 72//29 73//29
f  73//30 39//30 37//30
f  39//30 73//30 74//30
f  74//31 42//31 39//31
f  42//31 74//31 75//31
f  75//32 44//32 42//32
f  44//32 75//32 76//32
f  76//33 45//33 44//33
f  45//33 76//33 77//33
f  77//34 46//34 45//34
f  46//34 77//34 78//34
f  78//35 43//35 46//35
f  43//35 78//35 79//35
f  79//36 41//36 43//36
f  41//36 79//36 80//36
f  80//37 40//37 41//37
f  40//37 80//37 81//37
f  81//38 38//38 40//38
f  38//38 81//38 82//38
f  82//39 36//39 38//39
f  36//39 82//39 83//39
f  83//40 35//40 36//40
f  35//40 83//40 84//40
f  84//41 33//41 35//41
f  33//41 84//41 85//41
f  85//42 32//42 33//42
f  32//42 85//42 86//42
f  86//43 30//43 32//43
f  30//43 86//43 87//43
f  87//44 29//44 30//44
f  29//44 87//44 88//44
f  88//45 27//45 29//45
f  27//45 88//45 89//45
f  89//46 25//46 27//46
f  25//46 89//46 90//46
f  91//47 20//47 22//47
f  20//47 91//47 47//47
f  90//48 23//48 25//48
f  23//48 90//48 92//48
f  92//49 22//49 23//49
f  22//49 92//49 91//49
f  47//50 49//50 48//50
f  49//50 47//50 50//51
f  50//51 47//50 91//52
f  50//51 91//52 92//53
f  50//51 92//53 51//54
f  51//54 92//53 90//55
f  51//54 90//55 89//56
f  51//54 89//56 52//57
f  52//57 89//56 88//58
f  52//57 88//58 53//59
f  53//59 88//58 87//60
f  53//59 87//60 86//61
f  53//59 86//61 54//62
f  54//62 86//61 85//63
f  54//62 85//63 55//64
f  55//64 85//63 84//65
f  55//64 84//65 83//56
f  55//64 83//56 56//66
f  56//66 83//56 82//67
f  56//66 82//67 57//68
f  57//68 82//67 81//65
f  57//68 81//65 80//69
f  57//68 80//69 58//70
f  58//70 80//69 79//65
f  58//70 79//65 59//71
f  59//71 79//65 60//72
f  60//72 79//65 61//73
f  61//73 79//65 78//74
f  61//73 78//74 62//75
f  62//75 78//74 77//76
f  62//75 77//76 63//77
f  63//77 77//76 64//78
f  64//78 77//76 76//65
f  64//78 76//65 65//79
f  65//79 76//65 66//80
f  66//80 76//65 75//81
f  66//80 75//81 67//82
f  67//82 75//81 74//83
f  67//82 74//83 73//56
f  67//82 73//56 68//84
f  68//84 73//56 72//85
f  68//84 72//85 69//86
f  69//86 72//85 71//87
f  69//86 71//87 70//88

