# {"id":"ID_9082","idOriginal":"ID_9082","origin":[14.281518310568982,48.32292560980582],"elevation":268.075,"wof":[{"Id":85681677,"Name":"Oberösterreich","Placetype":"region","Offset":-1},{"Id":85898453,"Name":"Urfahr","Placetype":"neighbourhood","Offset":-1},{"Id":101748071,"Name":"Linz","Placetype":"locality","Offset":-1},{"Id":102049853,"Name":"Linz","Placetype":"county","Offset":-1},{"Id":85632785,"Name":"Austria","Placetype":"country","Offset":-1}]}

# Attribution: City of Linz <http://geo.data.linz.gv.at/katalog/geodata/3d_geo_daten_lod2/>
# Longitude: 14.281518310568982
# Latitude: 48.32292560980582
# Elevation: 268.075

# File produced by Open Asset Import Library (http://www.assimp.sf.net)
# (assimp v3.1.0)


# 27 vertex positions
v  6.037 16.402 5.847
v  0.468 10.91 21.36
v  6.371 16.402 21.113
v  0.289 10.864 15.462
v  0.004 10.909 0.187
v  11.943 11.219 20.88
v  12.402 10.792 20.86
v  12.133 10.856 11.72
v  12.073 10.87 9.692
v  11.781 10.939 -0.232
v  11.74 10.978 -0.231
v  0.001 10.771 0.038
v  1.697 10.771 -0.033
v  0 10.736 6.5739e-16
v  0 0 0
v  0.001 -2.32683e-18 0.038
v  0.468 -1.30792e-15 21.36
v  0.004 -1.14504e-17 0.187
v  0.289 -9.46774e-16 15.462
v  6.371 -1.2928e-15 21.113
v  11.943 -1.27853e-15 20.88
v  12.402 -1.27731e-15 20.86
v  12.133 -7.17643e-16 11.72
v  12.073 -5.93464e-16 9.692
v  11.781 1.42059e-17 -0.232
v  11.74 1.41447e-17 -0.231
v  1.697 2.02067e-18 -0.033

# 0 UV coordinates

# 50 vertex normals
vn -0.68075 0.732364 0.0148939
vn -0.680674 0.732434 0.0149456
vn -0.680752 0.732364 0.014859
vn 0.680677 0.732433 -0.0148923
vn 0.6807 0.732411 -0.0149086
vn 0.680695 0.732416 -0.014905
vn 0.680787 0.732326 -0.0150862
vn 0.680738 0.732375 -0.0149377
vn 0.689206 0.724565 8.51334e-05
vn -0.028333 0.735623 -0.676799
vn -0.028508 0.731748 -0.680979
vn -0.0284945 0.733657 -0.678923
vn -0.0285369 0.732353 -0.680327
vn -0.999825 0.00158863 0.0186593
vn -0.999792 0.00835152 0.018618
vn -0.999825 0 0.0186877
vn -0.999395 -0.0167685 0.0304617
vn -0.999617 -0.00862064 0.0263046
vn -0.99976 0 0.021897
vn 0 1 6.12329e-17
vn 0 1 6.12323e-17
vn 0.0418065 -0 0.999126
vn 0.0417867 7.15487e-06 0.999127
vn 0.0418065 -1.31828e-05 0.999126
vn 0.042976 -0.000595032 0.999076
vn 0.04178 7.4503e-05 0.999127
vn 0.0435285 0 0.999052
vn 0.999567 0 -0.0294183
vn 0.999563 -0.000131147 -0.029574
vn 0.999567 2.8893e-05 -0.0294183
vn 0.999567 3.03264e-05 -0.0294107
vn 0.999563 -0.000147279 -0.0295731
vn 0.999567 0 -0.0294109
vn -0.0198103 0.00480907 -0.999792
vn -0.0197304 0 -0.999805
vn -0.0194479 0.000264613 -0.999811
vn -0.0243825 -0.00515266 -0.999689
vn -0.0197114 -4.25344e-05 -0.999806
vn -0.0194424 6.12208e-17 -0.999811
vn 0 -1 -6.12323e-17
vn 1.32717e-25 -1 -6.12323e-17
vn 1.96413e-25 -1 -6.12323e-17
vn 3.68387e-24 -1 -6.12323e-17
vn 0 -1 -6.12323e-17
vn 4.66312e-24 -1 -6.12323e-17
vn 8.7344e-24 -1 -6.12323e-17
vn 8.72145e-24 -1 -6.12323e-17
vn 4.67127e-22 -1 -6.12335e-17
vn -1.93066e-23 -1 -6.12323e-17
vn 6.07451e-24 -1 -6.12323e-17

# Mesh 'defaultobject' with 50 faces
g defaultobject
usemtl DefaultMaterial
f  1//1 2//1 3//1
f  2//2 1//2 4//2
f  4//3 1//3 5//3
f  6//4 1//4 3//4
f  1//5 6//5 7//5
f  1//5 7//5 8//6
f  1//7 8//7 9//7
f  1//8 9//8 10//8
f  1//9 10//9 11//9
f  12//10 13//10 14//10
f  13//11 12//11 11//11
f  11//12 12//12 5//12
f  11//13 5//13 1//13
f  12//14 4//14 5//14
f  4//15 12//15 14//15
f  4//16 14//16 15//16
f  4//17 15//17 2//17
f  2//18 15//18 16//18
f  2//19 16//19 17//19
f  17//20 16//20 18//20
f  17//20 18//20 19//21
f  17//22 3//22 2//22
f  3//23 17//23 6//23
f  6//24 17//24 20//24
f  6//25 20//25 7//25
f  7//26 20//26 21//26
f  7//27 21//27 22//27
f  22//28 8//28 7//28
f  8//29 22//29 9//29
f  9//30 22//30 23//30
f  9//30 23//30 10//31
f  10//32 23//32 24//32
f  10//33 24//33 25//33
f  10//34 13//34 11//34
f  13//35 10//35 25//35
f  13//36 25//36 14//36
f  14//37 25//37 26//37
f  14//38 26//38 27//38
f  14//39 27//39 15//39
f  24//40 26//40 25//40
f  26//40 24//40 27//41
f  27//41 24//40 15//42
f  15//42 24//40 16//43
f  16//43 24//40 18//44
f  18//44 24//40 19//45
f  19//45 24//40 23//46
f  19//45 23//46 22//47
f  19//45 22//47 21//48
f  19//45 21//48 20//49
f  19//45 20//49 17//50

