# File produced by Open Asset Import Library (http://www.assimp.sf.net)
# (assimp v3.1.0)

mtllib ID_42797.obj.mtl

# 12 vertex positions
v  1.62 2.573 -2.151
v  6.825 2.217 -1.602
v  3.239 2.217 -4.302
v  5.206 2.573 0.55
v  3.587 2.217 2.701
v  0 2.217 1.35752e-16
v  0 0 0
v  3.587 -1.65389e-16 2.701
v  5.206 -3.36778e-17 0.55
v  6.825 9.80942e-17 -1.602
v  3.239 2.63422e-16 -4.302
v  1.62 1.31711e-16 -2.151

# 0 UV coordinates

# 19 vertex normals
vn 0.0788516 0.99137 -0.104727
vn 0.0788473 0.991375 -0.104682
vn -0.0788389 0.991374 0.1047
vn -0.0788702 0.99137 0.104713
vn -0.601531 -4.89154e-17 0.798849
vn -0.601531 0 0.798849
vn 0.798974 -0 0.601366
vn 0.798974 0 0.601366
vn 0.799108 0 0.601188
vn 0.799108 0 0.601188
vn 0.601496 0 -0.798876
vn -0.798795 0 -0.601603
vn -0.798795 0 -0.601603
vn -0.798974 0 -0.601366
vn -0.798974 0 -0.601366
vn -5.47414e-25 -1 -6.12323e-17
vn 0 -1 -6.12323e-17
vn -2.1894e-24 -1 -6.12323e-17
vn -5.47585e-25 -1 -6.12323e-17

# Mesh 'defaultobject' with 20 faces
g defaultobject
usemtl DefaultMaterial
f  1//1 2//1 3//1
f  2//2 1//2 4//2
f  5//3 1//3 6//3
f  1//4 5//4 4//4
f  7//5 5//5 6//5
f  5//5 7//5 8//6
f  8//7 4//7 5//7
f  4//7 8//7 9//8
f  4//9 9//9 2//9
f  2//9 9//9 10//10
f  10//11 3//11 2//11
f  3//11 10//11 11//11
f  1//12 7//12 6//12
f  7//12 1//12 12//13
f  12//14 1//14 3//14
f  12//14 3//14 11//15
f  7//16 9//16 8//16
f  9//16 7//16 12//17
f  9//16 12//17 10//18
f  10//18 12//17 11//19

