# File produced by Open Asset Import Library (http://www.assimp.sf.net)
# (assimp v3.1.0)

mtllib ID_59149.obj.mtl

# 12 vertex positions
v  2.665 1.644 0.417
v  0.793 1.644 1.187
v  1.809 1.644 1.822
v  0.962 1.644 0.775
v  0.569 1.644 -0.878
v  0 1.644 1.00666e-16
v  0.793 -7.26828e-17 1.187
v  1.809 -1.11565e-16 1.822
v  0 0 0
v  0.962 -4.74551e-17 0.775
v  2.665 -2.55339e-17 0.417
v  0.569 5.3762e-17 -0.878

# 0 UV coordinates

# 13 vertex normals
vn 0 1 0
vn -0.529999 0 0.847998
vn -0.627357 -4.76836e-17 0.778732
vn -0.627357 0 0.778732
vn 0.853987 -0 0.520294
vn 0.525614 0 -0.850723
vn -0.839185 0 -0.543846
vn -0.839185 3.33009e-17 -0.543846
vn -0.925189 0 -0.379507
vn -5.03601e-24 -1 -6.12323e-17
vn 5.16073e-24 -1 -6.12323e-17
vn 2.23884e-24 -1 -6.12323e-17
vn -5.14732e-24 -1 -6.12323e-17

# Mesh 'defaultobject' with 20 faces
g defaultobject
usemtl DefaultMaterial
f  1//1 2//1 3//1
f  2//1 1//1 4//1
f  4//1 1//1 5//1
f  4//1 5//1 6//1
f  7//2 3//2 2//2
f  3//2 7//2 8//2
f  9//3 4//3 6//3
f  4//3 9//3 10//4
f  8//5 1//5 3//5
f  1//5 8//5 11//5
f  11//6 5//6 1//6
f  5//6 11//6 12//6
f  12//7 6//7 5//7
f  6//7 12//7 9//8
f  10//9 2//9 4//9
f  2//9 10//9 7//9
f  7//10 11//10 8//10
f  11//10 7//10 10//11
f  11//10 10//11 12//12
f  12//12 10//11 9//13

