# {"id":"ID_35646","idOriginal":"ID_35646","origin":[14.298063808343015,48.330845013407604],"elevation":260.115}
# Longitude: 14.298063808343015
# Latitude: 48.330845013407604
# Elevation: 260.115

# File produced by Open Asset Import Library (http://www.assimp.sf.net)
# (assimp v3.1.0)

mtllib ID_35646.obj.mtl

# 12 vertex positions
v  7.441 2.366 6.882
v  2.472 2.917 7.692
v  2.906 2.914 8.732
v  2.888 2.865 7.485
v  0 2.862 1.75247e-16
v  4.179 2.359 -1.657
v  2.472 -4.70999e-16 7.692
v  2.906 -5.34681e-16 8.732
v  7.441 -4.21401e-16 6.882
v  4.179 1.01462e-16 -1.657
v  0 0 0
v  2.888 -4.58324e-16 7.485

# 0 UV coordinates

# 18 vertex normals
vn 0.103618 0.993797 -0.040374
vn 0.103363 0.99376 -0.0419162
vn 0.103573 0.993803 -0.0403609
vn 0.103602 0.993798 -0.0403918
vn -0.922867 0 0.385119
vn -0.922867 0 0.385119
vn 0.377718 -0 0.92592
vn 0.934158 0 -0.35686
vn 0.934158 0 -0.35686
vn -0.368589 0 -0.929592
vn -0.368589 0 -0.929592
vn -0.932963 0 0.359973
vn -0.445491 0 -0.895287
vn -0.445491 0 -0.895287
vn -1.19896e-23 -1 -6.12324e-17
vn 1.9136e-23 -1 -6.12322e-17
vn -3.88832e-24 -1 -6.12323e-17
vn -2.93577e-24 -1 -6.12323e-17

# Mesh 'defaultobject' with 20 faces
g defaultobject
usemtl DefaultMaterial
f  1//1 2//1 3//1
f  2//2 1//2 4//2
f  4//3 1//3 5//3
f  5//4 1//4 6//4
f  7//5 3//5 2//5
f  3//5 7//5 8//6
f  8//7 1//7 3//7
f  1//7 8//7 9//7
f  9//8 6//8 1//8
f  6//8 9//8 10//9
f  6//10 11//10 5//10
f  11//10 6//10 10//11
f  5//12 12//12 4//12
f  12//12 5//12 11//12
f  4//13 7//13 2//13
f  7//13 4//13 12//14
f  7//15 9//15 8//15
f  9//15 7//15 12//16
f  9//15 12//16 10//17
f  10//17 12//16 11//18

