# {"id":"ID_42276","idOriginal":"ID_42276","origin":[14.344637476373164,48.25560700435406],"elevation":252.71}
# Longitude: 14.344637476373164
# Latitude: 48.25560700435406
# Elevation: 252.71

# File produced by Open Asset Import Library (http://www.assimp.sf.net)
# (assimp v3.1.0)

mtllib ID_42276.obj.mtl

# 10 vertex positions
v  1.34 2.992 2.068
v  7.709 2.091 -4.994
v  0 2.091 1.28037e-16
v  9.923 2.992 -3.492
v  8.583 2.091 -5.56
v  9.923 2.13823e-16 -3.492
v  8.583 3.40452e-16 -5.56
v  7.709 3.05794e-16 -4.994
v  0 0 0
v  1.34 -1.26628e-16 2.068

# 0 UV coordinates

# 14 vertex normals
vn -0.186707 0.939188 -0.288211
vn -0.186693 0.939195 -0.288199
vn -0.186663 0.939188 -0.28824
vn 0.839222 0 -0.54379
vn 0.839222 0 -0.54379
vn -0.54357 0 -0.839364
vn -0.543698 -7.61198e-05 -0.839281
vn -0.54357 0.000671033 -0.839364
vn -0.543698 5.13911e-17 -0.839281
vn -0.839222 0 0.54379
vn 0.543685 -0 0.839289
vn -8.40309e-24 -1 -6.12323e-17
vn 4.12409e-23 -1 -6.12323e-17
vn 0 -1 -6.12323e-17

# Mesh 'defaultobject' with 16 faces
g defaultobject
usemtl DefaultMaterial
f  1//1 2//1 3//1
f  2//2 1//2 4//2
f  2//3 4//3 5//3
f  6//4 5//4 4//4
f  5//4 6//4 7//5
f  7//6 2//6 5//6
f  2//7 7//7 3//7
f  3//8 7//8 8//8
f  3//9 8//9 9//9
f  3//10 10//10 1//10
f  10//10 3//10 9//10
f  10//11 4//11 1//11
f  4//11 10//11 6//11
f  10//12 7//12 6//12
f  7//12 10//12 8//13
f  8//13 10//12 9//14

