# {"id":"ID_49561","idOriginal":"ID_49561","origin":[14.296675301685589,48.25279686836234],"elevation":262.538}
# Longitude: 14.296675301685589
# Latitude: 48.25279686836234
# Elevation: 262.538

# File produced by Open Asset Import Library (http://www.assimp.sf.net)
# (assimp v3.1.0)

mtllib ID_49561.obj.mtl

# 15 vertex positions
v  0.491 3.075 2.586
v  2.643 1.579 -0.502
v  0 1.579 9.66859e-17
v  0.548 3.075 2.576
v  3.093 1.579 4.772
v  0.906 1.811 4.772
v  0.982 1.579 5.173
v  3.625 1.579 4.671
v  2.643 3.07386e-17 -0.502
v  0 0 0
v  0.491 -1.58347e-16 2.586
v  0.906 -2.92201e-16 4.772
v  0.982 -3.16755e-16 5.173
v  3.093 -2.92201e-16 4.772
v  3.625 -2.86016e-16 4.671

# 0 UV coordinates

# 22 vertex normals
vn -0.0922021 0.869395 -0.485439
vn -0.0844713 0.87237 -0.481492
vn 0.0922232 0.869362 0.485494
vn 0.0922372 0.869495 0.485253
vn 0.0861106 0.866989 0.490831
vn 0.0921628 0.869391 0.485453
vn 0.485435 0.869403 -0.092151
vn -0.1866 0 -0.982436
vn -0.1866 6.01569e-17 -0.982436
vn -0.982448 -1.1422e-17 0.186536
vn -0.982448 0 0.186536
vn -0.982452 0 0.186513
vn -0.982452 0 0.186513
vn -0.98251 0 0.186211
vn -0.98251 0 0.186211
vn 0.18662 -0 0.982432
vn 0.186518 0 0.982452
vn 0.982455 0 -0.186501
vn 0 -1 -6.12322e-17
vn 4.06161e-23 -1 -6.12323e-17
vn -1.76884e-23 -1 -6.12323e-17
vn -9.34498e-25 -1 -6.12323e-17

# Mesh 'defaultobject' with 26 faces
g defaultobject
usemtl DefaultMaterial
f  1//1 2//1 3//1
f  2//2 1//2 4//2
f  5//3 6//3 7//3
f  6//4 5//4 1//4
f  1//5 5//5 4//5
f  4//6 5//6 8//6
f  4//7 8//7 2//7
f  9//8 3//8 2//8
f  3//8 9//8 10//9
f  10//10 1//10 3//10
f  1//10 10//10 11//11
f  1//12 11//12 6//12
f  6//12 11//12 12//13
f  6//14 12//14 7//14
f  7//14 12//14 13//15
f  13//16 5//16 7//16
f  5//16 13//16 14//16
f  5//17 14//17 8//17
f  8//17 14//17 15//17
f  15//18 2//18 8//18
f  2//18 15//18 9//18
f  12//19 14//19 13//19
f  14//19 9//20 15//20
f  9//20 14//19 12//19
f  9//20 12//19 11//21
f  9//20 11//21 10//22

