# {"id":"ID_47586","idOriginal":"ID_47586","origin":[14.278428800323587,48.31676742593726],"elevation":273.206}
# Longitude: 14.278428800323587
# Latitude: 48.31676742593726
# Elevation: 273.206

# File produced by Open Asset Import Library (http://www.assimp.sf.net)
# (assimp v3.1.0)

mtllib ID_47586.obj.mtl

# 8 vertex positions
v  3.271 5.329 -1.84
v  2.192 6.107 3.891
v  5.463 5.329 2.052
v  0 6.107 3.73946e-16
v  5.463 -1.25649e-16 2.052
v  3.271 1.12668e-16 -1.84
v  0 0 0
v  2.192 -2.38255e-16 3.891

# 0 UV coordinates

# 11 vertex normals
vn 0.176886 0.979177 -0.0996231
vn 0.176852 0.979182 -0.09963
vn 0.871312 0 -0.490729
vn -0.490274 0 -0.871568
vn -0.490274 0 -0.871568
vn -0.871258 -3.00543e-17 0.490825
vn -0.871258 0 0.490825
vn 0.490071 -0 0.871682
vn 0.490071 0 0.871682
vn -3.15834e-24 -1 -6.12323e-17
vn 3.15855e-24 -1 -6.12323e-17

# Mesh 'defaultobject' with 12 faces
g defaultobject
usemtl DefaultMaterial
f  1//1 2//1 3//1
f  2//2 1//2 4//2
f  5//3 1//3 3//3
f  1//3 5//3 6//3
f  1//4 7//4 4//4
f  7//4 1//4 6//5
f  7//6 2//6 4//6
f  2//6 7//6 8//7
f  8//8 3//8 2//8
f  3//8 8//8 5//9
f  8//10 6//10 5//10
f  6//10 8//10 7//11

