# {"id":"ID_24934","idOriginal":"ID_24934","origin":[14.339761376961743,48.27995849289532],"elevation":253.007}
# Longitude: 14.339761376961743
# Latitude: 48.27995849289532
# Elevation: 253.007

# File produced by Open Asset Import Library (http://www.assimp.sf.net)
# (assimp v3.1.0)

mtllib ID_24934.obj.mtl

# 16 vertex positions
v  9.498 20.989 -2.035
v  10.417 20.989 8.111
v  11.618 20.989 7.854
v  4.14 20.989 9.457
v  2.119 20.989 9.89
v  1.735 20.989 8.09
v  0 20.989 1.28521e-15
v  0.434 20.989 2.033
v  2.119 -6.05588e-16 9.89
v  4.14 -5.79074e-16 9.457
v  11.618 -4.80919e-16 7.854
v  10.417 -4.96655e-16 8.111
v  9.498 1.24608e-16 -2.035
v  0 0 0
v  0.434 -1.24485e-16 2.033
v  1.735 -4.9537e-16 8.09

# 0 UV coordinates

# 18 vertex normals
vn 0 1 0
vn 0.209496 -0 0.977809
vn 0.209667 -1.72237e-05 0.977773
vn 0.209251 0.000154935 0.977862
vn 0.209496 3.88448e-05 0.977809
vn 0.2096 0 0.977787
vn -2.9567e-21 -1 -6.12472e-17
vn 0.977784 0 -0.209617
vn -0.209501 0 -0.977808
vn -0.209501 5.98735e-17 -0.977808
vn -0.977964 -1.27837e-17 0.208773
vn -0.977701 -0.000124549 0.210003
vn -0.977993 0.000425595 0.208638
vn -0.977808 0 0.209502
vn 0 1 6.12353e-17
vn -6.65382e-21 -1 -6.12309e-17
vn -1.06548e-24 -1 -6.12323e-17
vn -1.07768e-24 -1 -6.12323e-17

# Mesh 'defaultobject' with 28 faces
g defaultobject
usemtl DefaultMaterial
f  1//1 2//1 3//1
f  2//1 1//1 4//1
f  4//1 1//1 5//1
f  5//1 1//1 6//1
f  6//1 1//1 7//1
f  6//1 7//1 8//1
f  9//2 4//2 5//2
f  4//3 9//3 2//3
f  2//4 9//4 3//4
f  3//5 9//5 10//5
f  3//6 10//6 11//6
f  11//7 10//7 12//7
f  11//8 1//8 3//8
f  1//8 11//8 13//8
f  13//9 7//9 1//9
f  7//9 13//9 14//10
f  14//11 8//11 7//11
f  8//12 14//12 6//12
f  6//13 14//13 5//13
f  5//14 14//14 9//14
f  9//15 14//15 15//15
f  9//16 15//16 16//16
f  12//7 13//17 11//7
f  13//17 12//7 10//7
f  13//17 10//7 14//18
f  14//18 10//7 16//16
f  16//16 10//7 9//16
f  14//18 16//16 15//16

