# {"id":"_3391","idOriginal":"_3391","origin":[14.326783859989753,48.30143992809218],"elevation":253.936,"wof":[{"Id":102049853,"Name":"Linz","Placetype":"county","Offset":-1},{"Id":85681677,"Name":"Oberösterreich","Placetype":"region","Offset":-1},{"Id":85898449,"Name":"Steeg","Placetype":"neighbourhood","Offset":-1},{"Id":101748071,"Name":"Linz","Placetype":"locality","Offset":-1},{"Id":85632785,"Name":"Austria","Placetype":"country","Offset":-1}]}

# Attribution: City of Linz <http://geo.data.linz.gv.at/katalog/geodata/3d_geo_daten_lod2/>
# Longitude: 14.326783859989753
# Latitude: 48.30143992809218
# Elevation: 253.936

# File produced by Open Asset Import Library (http://www.assimp.sf.net)
# (assimp v3.1.0)


# 24 vertex positions
v  36.767 4.243 -13.39
v  16.579 4.243 4.759
v  40.675 4.243 -3.941
v  13.163 4.243 -4.794
v  0 4.243 2.59809e-16
v  16.559 4.243 4.766
v  18.395 4.243 9.835
v  3.454 4.243 9.657
v  5.202 4.243 14.545
v  16.993 4.243 5.915
v  18.464 4.243 9.81
v  16.598 4.243 4.87
v  5.202 -8.90624e-16 14.545
v  18.395 -6.0222e-16 9.835
v  18.464 -6.00689e-16 9.81
v  16.559 -2.91833e-16 4.766
v  40.675 2.41317e-16 -3.941
v  16.579 -2.91405e-16 4.759
v  16.993 -3.62189e-16 5.915
v  16.598 -2.98201e-16 4.87
v  36.767 8.19901e-16 -13.39
v  13.163 2.93548e-16 -4.794
v  0 0 0
v  3.454 -5.91321e-16 9.657

# 0 UV coordinates

# 26 vertex normals
vn 0 1 -0
vn 0.336223 -0 0.941782
vn 0.340643 0 0.940193
vn 0.330342 -0 0.943861
vn 0.339598 -4.90594e-05 0.94057
vn 0.339591 0 0.940573
vn 7.95289e-20 1 6.13963e-17
vn 0.935507 0 -0.353307
vn 0.935406 0 -0.353575
vn 0.93633 0.000690763 -0.35112
vn 0.935406 -6.86788e-05 -0.353575
vn 0.936331 0 -0.35112
vn 0.924084 0 -0.382191
vn -0.342191 0 -0.939631
vn -0.342213 -0 -0.939622
vn -0.342213 5.75353e-17 -0.939622
vn -0.941602 0 0.336727
vn -0.941585 0 0.336775
vn 0 -1 -6.12323e-17
vn 1.0858e-21 -1 -6.12294e-17
vn 0 -1 -6.12323e-17
vn 0 -1 -6.1232e-17
vn -2.91616e-24 -1 -6.12323e-17
vn 2.69233e-23 -1 -6.12323e-17
vn 7.22469e-24 -1 -6.12323e-17
vn -2.19238e-20 -1 -6.1299e-17

# Mesh 'defaultobject' with 44 faces
g defaultobject
usemtl DefaultMaterial
f  1//1 2//1 3//1
f  2//1 1//1 4//1
f  2//1 4//1 5//1
f  2//1 5//1 6//1
f  6//1 5//1 7//1
f  7//1 5//1 8//1
f  7//1 8//1 9//1
f  10//1 7//1 11//1
f  7//1 10//1 12//1
f  7//1 12//1 6//1
f  13//2 7//2 9//2
f  7//2 13//2 14//2
f  7//3 14//3 11//3
f  11//3 14//3 15//3
f  16//4 2//4 6//4
f  2//5 16//5 3//5
f  3//6 16//6 17//6
f  17//7 16//7 18//7
f  15//8 10//8 11//8
f  10//8 15//8 19//8
f  10//9 19//9 12//9
f  12//10 19//10 6//10
f  6//11 19//11 20//11
f  6//12 20//12 16//12
f  17//13 1//13 3//13
f  1//13 17//13 21//13
f  21//14 4//14 1//14
f  4//14 21//14 22//14
f  4//15 22//15 5//15
f  5//15 22//15 23//16
f  8//17 13//17 9//17
f  13//17 8//17 24//17
f  24//18 8//18 5//18
f  24//18 5//18 23//18
f  17//19 16//19 21//19
f  16//19 17//19 18//20
f  22//21 24//21 23//21
f  24//21 22//21 21//19
f  24//21 21//19 16//19
f  24//21 16//19 20//22
f  24//21 20//22 13//23
f  13//23 20//22 19//24
f  13//23 19//24 15//25
f  13//23 15//25 14//26

