# File produced by Open Asset Import Library (http://www.assimp.sf.net)
# (assimp v3.1.0)

mtllib ID_18784.obj.mtl

# 84 vertex positions
v  17.092 1.775 16.46
v  16.389 1.775 17.078
v  17.179 1.775 16.902
v  16.095 1.775 11.396
v  16.078 1.775 11.31
v  14.853 1.775 11.569
v  12.916 1.775 23.245
v  17.563 1.775 22.199
v  14.683 1.775 10.681
v  13.914 1.775 11.227
v  12.916 1.775 11.666
v  12.423 1.775 11.883
v  11.187 1.775 12.046
v  10.16 1.775 12.732
v  9.398 1.775 12.046
v  8.214 1.775 11.686
v  9.228 1.775 24.076
v  6.864 1.775 13.474
v  17.179 -1.03495e-15 16.902
v  16.078 -6.92538e-16 11.31
v  17.092 -1.00788e-15 16.46
v  16.095 -6.97804e-16 11.396
v  14.853 -7.08397e-16 11.569
v  14.683 -6.54023e-16 10.681
v  17.563 -1.3593e-15 22.199
v  16.389 -1.04573e-15 17.078
v  12.423 -7.27624e-16 11.883
v  11.187 -7.37605e-16 12.046
v  9.398 -7.37605e-16 12.046
v  8.214 -7.15561e-16 11.686
v  10.16 -7.7961e-16 12.732
v  6.864 -8.25045e-16 13.474
v  13.914 -6.87455e-16 11.227
v  12.916 -7.14337e-16 11.666
v  9.228 -1.47423e-15 24.076
v  12.916 -1.42335e-15 23.245
v  3.089 3.359 14.204
v  5.257 3.727 13.723
v  1.79 3.359 8.231
v  4.364 3.727 9.615
v  3.903 3.727 7.494
v  0 3.359 2.05679e-16
v  3.565 3.707 6.511
v  3.516 3.727 5.718
v  3.49 3.738 5.287
v  3.49 3.783 4.017
v  3.869 3.893 2.648
v  4.397 4.018 1.526
v  3.915 4.019 -0.727
v  2.185 3.727 -0.406
v  4.397 -9.34406e-17 1.526
v  3.869 -1.62143e-16 2.648
v  3.915 4.45159e-17 -0.727
v  3.49 -2.4597e-16 4.017
v  5.257 -8.40291e-16 13.723
v  4.364 -5.88749e-16 9.615
v  3.903 -4.58875e-16 7.494
v  3.565 -3.98684e-16 6.511
v  3.49 -3.23735e-16 5.287
v  3.516 -3.50127e-16 5.718
v  0 0 0
v  2.185 2.48603e-17 -0.406
v  1.79 -5.04003e-16 8.231
v  3.089 -8.69744e-16 14.204
v  5.988 1.775 10.488
v  5.188 1.775 9.826
v  4.364 1.775 9.615
v  4.23 1.775 8.447
v  3.903 1.775 7.494
v  5.988 -6.42205e-16 10.488
v  5.188 -6.01669e-16 9.826
v  4.23 -5.1723e-16 8.447
v  5.257 3.875 13.723
v  5.988 3.875 10.488
v  4.364 3.875 9.615
v  6.378 3.875 10.812
v  7.728 3.875 11.538
v  8.214 3.875 11.686
v  6.841 3.875 13.371
v  10.16 3.875 12.732
v  6.864 3.875 13.474
v  6.841 -8.18738e-16 13.371
v  7.728 -7.06499e-16 11.538
v  6.378 -6.62044e-16 10.812

# 0 UV coordinates

# 99 vertex normals
vn 0 1 -0
vn 0.981173 0 -0.19313
vn 0.981165 -1.07158e-05 -0.193172
vn 0.981013 -0.00243905 -0.193925
vn 0.981163 0 -0.19318
vn -1.6267e-18 1 6.14079e-17
vn 9.52082e-21 1 6.12308e-17
vn 0.982164 0 -0.188027
vn 0.974714 0 -0.223455
vn -0.206856 0 -0.978372
vn -0.130744 0 -0.991416
vn 0 0 -1
vn 0.290904 0 -0.956752
vn -0.219625 0 -0.975584
vn -0.578929 0 -0.815378
vn -0.402647 0 -0.915355
vn -0.402863 -0.000145132 -0.91526
vn -0.402718 -0 -0.915324
vn -5.36512e-20 1 6.11028e-17
vn -0.473452 0 0.88082
vn -0.976031 0 0.217632
vn 0.219814 -0 0.975542
vn 0.219597 0 0.975591
vn 0.217452 -0 0.976071
vn -8.53102e-24 -1 -6.12323e-17
vn 4.39092e-24 -1 -6.12323e-17
vn 8.88229e-24 -1 -6.12323e-17
vn -7.3392e-24 -1 -6.12324e-17
vn -3.51756e-23 -1 -6.12324e-17
vn -1.44256e-24 -1 -6.12323e-17
vn 0 -1 -6.12323e-17
vn 0 -1 -6.12325e-17
vn -2.66593e-24 -1 -6.12323e-17
vn 7.40405e-24 -1 -6.12323e-17
vn -6.15113e-23 -1 -6.12322e-17
vn 0 -1 -6.12323e-17
vn -0.15975 0.986546 0.0347422
vn -0.159713 0.986553 0.0347186
vn -0.15971 0.986553 0.0347131
vn -0.159704 0.986554 0.034731
vn -0.16031 0.986444 0.0350517
vn -0.159775 0.986541 0.0347538
vn -0.159885 0.986521 0.0348229
vn -0.16008 0.986485 0.0349542
vn -0.160075 0.986486 0.0349491
vn -0.159887 0.986526 0.0346663
vn -0.159879 0.986529 0.0346418
vn -0.241826 0.567474 -0.787079
vn 0.904819 0 0.425797
vn 0.977872 0 -0.209203
vn 0.977872 0 -0.209203
vn 0.96375 0 0.266809
vn 0.963749 0 0.266809
vn 0.977178 0 -0.21242
vn 0.977185 0 -0.212391
vn 0.945659 0 -0.32516
vn 0.945659 0 -0.32516
vn 0.998096 0 -0.0616731
vn 0.998186 0.000313008 -0.0602075
vn 0.998128 0 -0.0611598
vn 3.30227e-20 -1 -6.1234e-17
vn 1 0 0
vn -0.182435 0 -0.983218
vn -0.182667 -0.000111415 -0.983175
vn -0.182575 6.02031e-17 -0.983192
vn 1.66261e-21 1 6.12305e-17
vn -0.97716 -1.30121e-17 0.212504
vn -0.97716 0 0.212504
vn -0.977159 0 0.212511
vn 0.216597 0 0.976261
vn 0.216597 0 0.976261
vn -3.11999e-23 -1 -6.12323e-17
vn 0 -1 -6.12323e-17
vn -2.74501e-24 -1 -6.12323e-17
vn -5.65856e-24 -1 -6.12323e-17
vn 2.38881e-23 -1 -6.12323e-17
vn -4.20138e-24 -1 -6.12323e-17
vn -2.30607e-24 -1 -6.12323e-17
vn 0 -1 -6.12323e-17
vn 6.53186e-24 -1 -6.12323e-17
vn -0.977185 0 0.212391
vn -0.473485 0 0.880802
vn 0.637528 0 -0.770427
vn 0.821269 0 -0.570541
vn 0.945868 0 -0.324553
vn -2.41553e-23 -1 -6.12323e-17
vn -8.85482e-24 -1 -6.12323e-17
vn -0.975964 0 0.217932
vn -0.977178 0 0.21242
vn 0.219625 -0 0.975584
vn 0.21693 -0 0.976187
vn 0.473452 0 -0.88082
vn 0.473633 0 -0.880722
vn 0.63902 0 -0.76919
vn 0.473485 0 -0.880802
vn 0.291318 0 -0.956626
vn 7.0657e-23 -1 -6.12323e-17
vn 1.116e-23 -1 -6.12324e-17
vn 4.85216e-23 -1 -6.12323e-17

# Mesh 'defaultobject' with 168 faces
g defaultobject
usemtl DefaultMaterial
f  1//1 2//1 3//1
f  2//1 1//1 4//1
f  2//1 4//1 5//1
f  2//1 5//1 6//1
f  2//1 7//1 8//1
f  7//1 2//1 6//1
f  7//1 6//1 9//1
f  7//1 9//1 10//1
f  7//1 10//1 11//1
f  7//1 11//1 12//1
f  7//1 12//1 13//1
f  7//1 13//1 14//1
f  14//1 13//1 15//1
f  14//1 15//1 16//1
f  14//1 17//1 7//1
f  17//1 14//1 18//1
f  19//2 1//2 3//2
f  1//3 19//3 4//3
f  4//4 19//4 5//4
f  5//5 19//5 20//5
f  20//6 19//6 21//6
f  20//6 21//6 22//7
f  23//8 9//8 6//8
f  9//8 23//8 24//8
f  25//9 2//9 8//9
f  2//9 25//9 26//9
f  20//10 6//10 5//10
f  6//10 20//10 23//10
f  27//11 13//11 12//11
f  13//11 27//11 28//11
f  28//12 15//12 13//12
f  15//12 28//12 29//12
f  29//13 16//13 15//13
f  16//13 29//13 30//13
f  31//14 18//14 14//14
f  18//14 31//14 32//14
f  24//15 10//15 9//15
f  10//15 24//15 33//15
f  33//16 11//16 10//16
f  11//17 33//17 12//17
f  12//18 33//18 27//18
f  27//19 33//19 34//19
f  30//20 14//20 16//20
f  14//20 30//20 31//20
f  32//21 17//21 18//21
f  17//21 32//21 35//21
f  35//22 7//22 17//22
f  7//22 35//22 36//22
f  7//23 36//23 8//23
f  8//23 36//23 25//23
f  26//24 3//24 2//24
f  3//24 26//24 19//24
f  23//25 33//25 24//25
f  33//25 23//25 34//26
f  34//26 23//25 27//27
f  27//27 23//25 31//28
f  19//29 26//29 21//29
f  31//28 35//30 32//30
f  35//30 31//28 23//25
f  35//30 23//25 20//31
f  35//30 20//31 22//32
f  35//30 22//32 26//29
f  26//29 22//32 21//29
f  35//30 26//29 36//33
f  36//33 26//29 25//34
f  29//35 31//28 30//35
f  31//28 29//35 28//36
f  31//28 28//36 27//27
f  37//37 38//37 39//37
f  40//38 39//38 38//38
f  41//39 39//38 40//38
f  42//40 39//40 41//40
f  43//41 42//41 41//41
f  44//42 42//42 43//42
f  45//43 42//43 44//43
f  46//44 42//44 45//44
f  47//45 42//44 46//44
f  48//46 42//46 47//46
f  49//47 42//47 48//47
f  50//48 42//48 49//48
f  47//49 51//49 48//49
f  51//49 47//49 52//49
f  48//50 53//50 49//50
f  53//50 48//50 51//51
f  46//52 52//52 47//52
f  52//52 46//52 54//53
f  55//54 40//54 38//54
f  40//54 55//54 56//54
f  40//55 56//55 41//55
f  41//55 56//55 57//55
f  57//56 43//56 41//56
f  43//56 57//56 58//57
f  58//58 44//58 43//58
f  44//59 58//59 45//59
f  45//60 58//60 59//60
f  59//61 58//61 60//61
f  45//62 54//62 46//62
f  54//62 45//62 59//62
f  53//63 50//63 49//63
f  50//64 53//64 42//64
f  42//65 53//65 61//65
f  61//66 53//66 62//66
f  61//67 39//67 42//67
f  39//67 61//67 63//68
f  39//67 63//68 37//69
f  37//69 63//68 64//69
f  37//70 55//70 38//70
f  55//70 37//70 64//71
f  63//72 55//72 64//72
f  55//72 63//72 56//73
f  56//73 63//72 57//74
f  57//74 63//72 61//75
f  57//74 61//75 58//61
f  58//61 61//75 60//61
f  60//61 61//75 59//61
f  59//61 61//75 54//76
f  54//76 61//75 52//77
f  52//77 61//75 51//78
f  51//78 61//75 62//79
f  51//78 62//79 53//80
f  65//1 66//1 67//1
f  68//1 67//1 66//1
f  69//1 67//1 68//1
f  57//81 67//81 69//81
f  67//81 57//81 56//81
f  56//82 65//82 67//82
f  65//82 56//82 70//82
f  70//83 66//83 65//83
f  66//83 70//83 71//83
f  71//84 68//84 66//84
f  68//84 71//84 72//84
f  72//85 69//85 68//85
f  69//85 72//85 57//85
f  56//73 71//86 70//86
f  71//86 56//73 72//87
f  72//87 56//73 57//74
f  73//1 74//1 75//1
f  74//1 73//1 76//1
f  76//1 73//1 77//1
f  77//1 73//1 78//1
f  78//1 73//1 79//1
f  78//1 79//1 80//1
f  80//1 79//1 81//1
f  82//88 81//88 79//88
f  81//88 82//88 32//88
f  56//89 73//89 75//89
f  73//89 56//89 55//89
f  32//90 80//90 81//90
f  80//90 32//90 31//90
f  55//91 79//91 73//91
f  79//91 55//91 82//91
f  31//92 78//92 80//92
f  78//92 31//92 30//92
f  83//93 76//93 77//93
f  76//93 83//93 84//93
f  84//94 74//94 76//94
f  74//94 84//94 70//94
f  70//95 75//95 74//95
f  75//95 70//95 56//95
f  30//96 77//96 78//96
f  77//96 30//96 83//96
f  70//86 55//72 56//73
f  55//72 70//86 84//97
f  55//72 84//97 83//98
f  55//72 83//98 82//99
f  82//99 83//98 30//35
f  82//99 30//35 32//30
f  32//30 30//35 31//28

