# File produced by Open Asset Import Library (http://www.assimp.sf.net)
# (assimp v3.1.0)

mtllib ID_32995.obj.mtl

# 10 vertex positions
v  2.318 3.147 -9.315
v  4.548 2.319 0.022
v  4.603 2.319 -11.578
v  2.285 3.147 -2.263
v  0 2.319 1.41998e-16
v  0.055 2.319 -11.599
v  0.055 7.10234e-16 -11.599
v  0 0 0
v  4.548 -1.34711e-18 0.022
v  4.603 7.08948e-16 -11.578

# 0 UV coordinates

# 14 vertex normals
vn 0.342105 0.93966 0.00162206
vn 0.342182 0.939633 0.00160124
vn -0.001655 0.93965 0.342134
vn 0.00158008 0.939626 -0.3422
vn -0.342105 0.93966 -0.00162219
vn -0.342182 0.939632 -0.00160125
vn -0.999989 0 -0.00474173
vn -0.999989 2.90348e-19 -0.00474173
vn -0.00483723 -6.12316e-17 0.999988
vn -0.00483723 0 0.999988
vn 0.999989 -0 0.00474135
vn 0.00461734 0 -0.999989
vn 0 -1 -6.12323e-17
vn 0 -1 -6.12323e-17

# Mesh 'defaultobject' with 16 faces
g defaultobject
usemtl DefaultMaterial
f  1//1 2//1 3//1
f  2//2 1//2 4//2
f  4//3 5//3 2//3
f  1//4 3//4 6//4
f  4//5 6//5 5//5
f  6//6 4//6 1//6
f  7//7 5//7 6//7
f  5//7 7//7 8//8
f  8//9 2//9 5//9
f  2//9 8//9 9//10
f  9//11 3//11 2//11
f  3//11 9//11 10//11
f  10//12 6//12 3//12
f  6//12 10//12 7//12
f  7//13 9//13 8//13
f  9//13 7//13 10//14

