# File produced by Open Asset Import Library (http://www.assimp.sf.net)
# (assimp v3.1.0)

mtllib ID_14013.obj.mtl

# 16 vertex positions
v  18.296 6.879 11.291
v  4.643 13.866 -2.552
v  13.659 13.866 13.853
v  9.865 6.88 -4.047
v  9.285 6.88 -5.103
v  0 6.879 4.21217e-16
v  9.389 7.432 16.212
v  9.022 6.879 16.415
v  9.285 3.12469e-16 -5.103
v  4.643 1.56265e-16 -2.552
v  0 0 0
v  9.022 -1.00513e-15 16.415
v  9.389 -9.92699e-16 16.212
v  13.659 -8.48252e-16 13.853
v  18.296 -6.91374e-16 11.291
v  9.865 2.47807e-16 -4.047

# 0 UV coordinates

# 28 vertex normals
vn 0.69833 0.604184 -0.383794
vn 0.698344 0.604147 -0.383827
vn 0.698439 0.604172 -0.383612
vn -0.698308 0.604216 0.383782
vn -0.698323 0.604176 0.383818
vn -0.698257 0.60428 0.383775
vn -0.481647 -2.82413e-05 -0.876365
vn -0.481647 0 -0.876365
vn -0.481614 5.73726e-05 -0.876383
vn -0.48168 5.36608e-17 -0.876347
vn -0.876357 -2.94933e-17 0.481663
vn -0.876357 0 0.481663
vn 0.483588 -1.55005e-05 0.875296
vn 0.483606 0.000362638 0.875286
vn 0.483606 0 0.875286
vn 0.484025 -0.000736477 0.875054
vn 0.48357 3.14881e-05 0.875305
vn 0.483606 0 0.875286
vn 0.876496 0 -0.481409
vn 0.876334 5.89463e-05 -0.481704
vn 0.876496 -0.000856463 -0.481409
vn 0.876334 0 -0.481704
vn 0 -1 -6.12323e-17
vn -4.38363e-23 -1 -6.12323e-17
vn -4.63782e-24 -1 -6.12323e-17
vn 0 -1 -6.12323e-17
vn 0 -1 -6.12324e-17
vn 1.14189e-23 -1 -6.12323e-17

# Mesh 'defaultobject' with 28 faces
g defaultobject
usemtl DefaultMaterial
f  1//1 2//1 3//1
f  2//2 1//2 4//2
f  2//3 4//3 5//3
f  6//4 3//4 2//4
f  3//5 6//5 7//5
f  7//6 6//6 8//6
f  5//7 6//7 2//7
f  6//8 5//8 9//8
f  6//9 9//9 10//9
f  6//10 10//10 11//10
f  11//11 8//11 6//11
f  8//11 11//11 12//12
f  7//13 1//13 3//13
f  1//14 7//14 8//14
f  1//15 8//15 12//15
f  1//16 12//16 13//16
f  1//17 13//17 14//17
f  1//15 14//18 15//18
f  4//19 9//19 5//19
f  9//20 4//20 1//20
f  9//21 1//21 16//21
f  16//22 1//22 15//22
f  10//23 12//23 11//23
f  12//23 10//23 13//24
f  13//24 10//23 14//25
f  14//25 10//23 9//26
f  14//25 9//26 16//27
f  14//25 16//27 15//28

