# File produced by Open Asset Import Library (http://www.assimp.sf.net)
# (assimp v3.1.0)

mtllib ID_28038.obj.mtl

# 15 vertex positions
v  5.973 6.985 -4.275
v  7.402 11.451 1.222
v  9.087 11.451 0.016
v  0 6.985 4.27708e-16
v  6.183 6.985 8.613
v  12.2 6.985 4.307
v  0.268 6.986 0.375
v  4.596 6.989 6.396
v  0 0 0
v  0.268 -2.29621e-17 0.375
v  4.596 -3.91642e-16 6.396
v  6.183 -5.27394e-16 8.613
v  12.2 -2.63728e-16 4.307
v  9.087 -9.79717e-19 0.016
v  5.973 2.61768e-16 -4.275

# 0 UV coordinates

# 25 vertex normals
vn -0.374964 0.764813 -0.523892
vn -0.374961 0.764814 -0.523893
vn 0.374957 0.764778 0.523947
vn 0.375006 0.764753 0.52395
vn -0.523758 0.766221 0.372269
vn -0.523298 0.764822 0.375775
vn -0.523167 0.76486 0.375879
vn -0.813587 -3.56031e-17 0.581443
vn -0.811989 -0.000180924 0.583672
vn -0.813583 0.00290952 0.581441
vn -0.811989 0 0.583672
vn -0.813138 0 0.582071
vn -0.813138 0 0.582071
vn 0.581967 -0 0.813213
vn 0.809384 -9.06275e-05 -0.58728
vn 0.809384 0 -0.58728
vn 0.809429 0.000115947 -0.587218
vn 0.809339 0 -0.587341
vn -0.582011 0 -0.813181
vn -0.582011 4.9793e-17 -0.813181
vn 5.39876e-24 -1 -6.12323e-17
vn -2.10898e-23 -1 -6.12324e-17
vn 0 -1 -6.12323e-17
vn -1.69851e-25 -1 -6.12323e-17
vn 0 -1 -6.12324e-17

# Mesh 'defaultobject' with 26 faces
g defaultobject
usemtl DefaultMaterial
f  1//1 2//1 3//1
f  2//1 1//1 4//2
f  3//3 5//3 6//3
f  5//4 3//4 2//4
f  7//5 2//5 4//5
f  2//6 7//6 8//6
f  2//7 8//7 5//7
f  9//8 7//8 4//8
f  7//9 9//9 8//9
f  8//10 9//10 10//10
f  8//11 10//11 11//11
f  8//12 11//12 5//12
f  5//12 11//12 12//13
f  12//14 6//14 5//14
f  6//14 12//14 13//14
f  6//15 1//15 3//15
f  1//16 6//16 13//16
f  1//17 13//17 14//17
f  1//18 14//18 15//18
f  15//19 4//19 1//19
f  4//19 15//19 9//20
f  12//21 14//21 13//21
f  14//21 12//21 11//22
f  14//21 11//22 10//23
f  14//21 10//23 15//24
f  15//24 10//23 9//25

