# File produced by Open Asset Import Library (http://www.assimp.sf.net)
# (assimp v3.1.0)

mtllib ID_31965.obj.mtl

# 42 vertex positions
v  4.334 4.84 5.568
v  7.756 5.804 -2.942
v  1.822 5.804 3.087
v  9.265 5.215 -1.403
v  9.581 5.218 -1.737
v  9.348 5.216 -1.491
v  10.568 4.84 -0.766
v  10.324 4.84 -0.518
v  4.801 4.828 -5.032
v  5.248 4.826 -5.498
v  3.149 4.838 -3.304
v  2.742 4.843 -2.863
v  2.361 4.846 -2.46
v  0.424 4.85 -0.472
v  0.189 4.852 -0.224
v  0.002 4.853 -0.027
v  0 4.858 2.97467e-16
v  0.211 4.94 0.214
v  2.06 5.658 2.081
v  1.961 5.658 2.186
v  1.445 5.659 2.714
v  9.581 1.06361e-16 -1.737
v  9.265 8.5909e-17 -1.403
v  9.348 9.12974e-17 -1.491
v  5.248 3.36655e-16 -5.498
v  3.149 2.02312e-16 -3.304
v  4.801 3.08121e-16 -5.032
v  2.361 1.50632e-16 -2.46
v  2.742 1.75308e-16 -2.863
v  0.002 1.65327e-18 -0.027
v  0.424 2.89017e-17 -0.472
v  0.189 1.3716e-17 -0.224
v  2.06 -1.27424e-16 2.081
v  1.961 -1.33854e-16 2.186
v  1.445 -1.66185e-16 2.714
v  7.756 1.80146e-16 -2.942
v  10.568 4.6904e-17 -0.766
v  0 0 0
v  0.211 -1.31037e-17 0.214
v  4.334 -3.40942e-16 5.568
v  1.822 -1.89024e-16 3.087
v  10.324 3.17184e-17 -0.518

# 0 UV coordinates

# 70 vertex normals
vn 0.187722 0.964688 0.184764
vn 0.187979 0.964619 0.18486
vn 0.539627 0.664841 0.516516
vn 0.186937 0.964694 0.185527
vn 0.187464 0.964788 0.184505
vn 0 1 0
vn -0.188083 0.964658 -0.184555
vn -0.187725 0.964633 -0.18505
vn -0.187813 0.964764 -0.184272
vn -0.187804 0.964678 -0.184733
vn -0.187815 0.964637 -0.184937
vn -0.188161 0.96435 -0.186075
vn -0.186944 0.965297 -0.182354
vn -0.190385 0.962678 -0.192365
vn -0.187691 0.964725 -0.184602
vn -0.187828 0.964631 -0.184955
vn -0.187288 0.964854 -0.184337
vn -0.19775 0.962357 -0.18645
vn -0.187702 0.964596 -0.185263
vn -0.726029 0 -0.687664
vn -0.727474 -0.000136602 -0.686136
vn -0.72641 -0 -0.687262
vn 1.4388e-20 1 6.1246e-17
vn -0.721666 0 -0.692242
vn -0.722824 -0.000223998 -0.691032
vn -0.722577 -0 -0.69129
vn -2.04876e-20 1 6.12118e-17
vn -0.734868 0 -0.678211
vn -0.726657 0.00149032 -0.686999
vn -0.73094 -0 -0.682442
vn -1.65431e-21 -1 -6.12342e-17
vn -0.716234 0 -0.69786
vn -0.725885 -0.00799014 -0.68777
vn -0.725274 -0.00741701 -0.68842
vn -0.717941 -0 -0.696104
vn 0 1 6.12323e-17
vn -5.10635e-21 -1 -6.12354e-17
vn -0.72759 0 -0.686013
vn -0.715187 0 -0.698933
vn -0.715187 0 -0.698933
vn 0.714032 0 -0.700113
vn 0.713801 -0.000122595 -0.700349
vn 0.713873 0 -0.700275
vn 0 1 6.12452e-17
vn 0.701305 0 -0.712861
vn 0.701305 0 -0.712861
vn -0.997268 0 -0.0738717
vn -0.997268 0 -0.0738717
vn -0.710524 0 0.703673
vn -0.711883 -0.00102866 0.702297
vn -0.710684 0 0.703512
vn 0 1 6.12401e-17
vn -0.703013 -0.00160139 0.711175
vn -0.702784 0 0.711403
vn -0.702784 0 0.711403
vn 0 1 6.12125e-17
vn 0.712705 -0 0.701463
vn 0.712833 0 0.701334
vn -1.75592e-24 -1 -6.12323e-17
vn 0 -1 -6.12323e-17
vn 0 -1 -6.12323e-17
vn 4.33635e-23 -1 -6.12322e-17
vn 0 -1 -6.12323e-17
vn 1.35123e-24 -1 -6.12323e-17
vn -2.19079e-24 -1 -6.12323e-17
vn 7.32809e-25 -1 -6.12323e-17
vn -2.31949e-24 -1 -6.12323e-17
vn 2.29051e-23 -1 -6.12324e-17
vn 3.89877e-24 -1 -6.12323e-17
vn -1.43873e-20 -1 -6.12421e-17

# Mesh 'defaultobject' with 80 faces
g defaultobject
usemtl DefaultMaterial
f  1//1 2//1 3//1
f  2//2 1//2 4//2
f  4//3 5//3 6//3
f  5//4 4//4 7//4
f  7//5 4//5 1//5
f  7//6 1//6 8//6
f  9//7 2//7 10//7
f  2//8 9//8 11//8
f  2//9 11//9 12//9
f  2//10 12//10 13//10
f  2//11 13//11 14//11
f  2//12 14//12 15//12
f  2//13 15//13 16//13
f  2//14 16//14 17//14
f  2//15 17//15 18//15
f  2//16 18//16 19//16
f  2//17 19//17 3//17
f  3//18 19//18 20//18
f  3//19 20//19 21//19
f  22//20 6//20 5//20
f  6//21 22//21 4//21
f  4//22 22//22 23//22
f  23//23 22//23 24//23
f  25//24 9//24 10//24
f  9//25 25//25 11//25
f  11//26 25//26 26//26
f  26//27 25//27 27//27
f  26//28 12//28 11//28
f  12//29 26//29 13//29
f  13//30 26//30 28//30
f  28//31 26//31 29//31
f  28//32 14//32 13//32
f  14//33 28//33 15//33
f  15//34 28//34 16//34
f  16//35 28//35 30//35
f  30//36 28//36 31//36
f  30//37 31//37 32//37
f  33//38 20//38 19//38
f  20//38 33//38 34//38
f  20//39 35//39 21//39
f  35//39 20//39 34//40
f  23//41 2//41 4//41
f  2//42 23//42 10//42
f  10//43 23//43 25//43
f  25//27 23//23 36//44
f  7//45 22//45 5//45
f  22//45 7//45 37//46
f  16//47 38//47 17//47
f  38//47 16//47 30//48
f  18//49 33//49 19//49
f  33//50 18//50 17//50
f  33//51 17//51 38//51
f  33//52 38//52 39//52
f  21//53 1//53 3//53
f  1//54 21//54 35//54
f  1//54 35//54 40//55
f  40//56 35//56 41//56
f  40//57 8//57 1//57
f  8//57 40//57 42//57
f  8//58 42//58 7//58
f  7//58 42//58 37//58
f  41//59 42//59 40//59
f  42//59 41//59 35//60
f  42//59 35//60 34//61
f  42//59 34//61 33//62
f  42//59 33//62 39//63
f  42//59 39//63 38//63
f  42//59 38//63 30//37
f  42//59 30//37 32//37
f  42//59 32//37 31//37
f  42//59 31//37 28//31
f  42//59 28//31 37//64
f  37//64 28//31 23//65
f  23//65 28//31 36//66
f  36//66 28//31 29//31
f  36//66 29//31 26//31
f  36//66 26//31 27//67
f  36//66 27//67 25//68
f  23//65 22//69 37//64
f  22//69 23//65 24//70

