# File produced by Open Asset Import Library (http://www.assimp.sf.net)
# (assimp v3.1.0)

mtllib ID_3311.obj.mtl

# 20 vertex positions
v  31.6 9.053 -16.545
v  25.488 13.36 -12.942
v  35.341 9.034 -12.263
v  26.187 9.08 -22.741
v  35.315 9.056 -12.24
v  0.017 9.069 -0.015
v  26.147 9.042 -22.787
v  9.812 13.36 0.684
v  5.432 9.056 6.285
v  0 9.056 5.5452e-16
v  9.109 9.056 10.54
v  0 0 0
v  5.432 -3.84845e-16 6.285
v  9.109 -6.45389e-16 10.54
v  35.315 7.49484e-16 -12.24
v  35.341 7.50892e-16 -12.263
v  31.6 1.01309e-15 -16.545
v  26.187 1.39248e-15 -22.741
v  26.147 1.3953e-15 -22.787
v  0.017 9.18485e-19 -0.015

# 0 UV coordinates

# 35 vertex normals
vn 0.397311 0.851036 -0.343338
vn 0.397288 0.851033 -0.343374
vn 0.395693 0.844643 -0.360562
vn -0.347053 0.848625 -0.399236
vn -0.344497 0.851043 -0.396292
vn -0.344523 0.851003 -0.396356
vn -0.376375 0.867483 0.325293
vn -0.397328 0.851056 0.343269
vn -0.397279 0.851062 0.343312
vn 0.344448 0.851082 0.396251
vn 0.344416 0.851103 0.396233
vn -0.756582 -4.00398e-17 0.653899
vn -0.756627 6.31442e-05 0.653847
vn -0.756582 -4.27466e-05 0.653899
vn -0.756627 0 0.653847
vn 0.65605 -0 0.754717
vn 0.662572 0 0.748999
vn 0.662571 0 0.748999
vn 0.753078 0 -0.657932
vn 0.753088 1.02643e-05 -0.657919
vn 0.753078 -1.47774e-05 -0.657932
vn 0.753088 0 -0.657919
vn 0.754608 0 -0.656176
vn 0.754608 0 -0.656176
vn -0.661622 0 -0.749838
vn -0.657004 -1.5353e-05 -0.753887
vn -0.661438 0.0235353 -0.74963
vn -0.657004 0 -0.753887
vn 0 -1 -6.12323e-17
vn 0 -1 -6.12323e-17
vn 0 -1 -6.12303e-17
vn -1.74874e-24 -1 -6.12323e-17
vn 5.84328e-18 -1 -7.01193e-17
vn 0 -1 -6.12326e-17
vn -8.04627e-22 -1 -6.12317e-17

# Mesh 'defaultobject' with 36 faces
g defaultobject
usemtl DefaultMaterial
f  1//1 2//1 3//1
f  2//2 1//2 4//2
f  2//3 5//3 3//3
f  6//4 4//4 7//4
f  4//5 6//5 2//5
f  2//6 6//6 8//6
f  9//7 6//7 10//7
f  9//8 8//8 6//8
f  8//9 9//9 11//9
f  2//10 11//10 5//10
f  11//11 2//11 8//11
f  12//12 9//12 10//12
f  9//13 12//13 11//13
f  11//14 12//14 13//14
f  11//15 13//15 14//15
f  14//16 5//16 11//16
f  5//16 14//16 15//16
f  5//17 15//17 3//17
f  3//17 15//17 16//18
f  16//19 1//19 3//19
f  1//20 16//20 4//20
f  4//21 16//21 17//21
f  4//22 17//22 18//22
f  4//23 18//23 7//23
f  7//23 18//23 19//24
f  6//25 12//25 10//25
f  12//26 6//26 7//26
f  12//27 7//27 20//27
f  20//28 7//28 19//28
f  13//29 15//29 14//29
f  15//29 13//29 12//30
f  15//29 12//30 20//31
f  15//29 20//31 19//32
f  15//29 19//32 18//33
f  15//29 18//33 17//34
f  15//29 17//34 16//35

