# File produced by Open Asset Import Library (http://www.assimp.sf.net)
# (assimp v3.1.0)

mtllib ID_42053.obj.mtl

# 10 vertex positions
v  1.416 16.177 1.681
v  6.854 16.177 -5.314
v  0 16.177 9.90556e-16
v  1.816 16.177 1.471
v  9.205 16.177 -2.416
v  1.416 -1.02932e-16 1.681
v  9.205 1.47937e-16 -2.416
v  1.816 -9.00728e-17 1.471
v  6.854 3.25389e-16 -5.314
v  0 0 0

# 0 UV coordinates

# 13 vertex normals
vn 0 1 0
vn 0.464834 -0 0.885398
vn 0.465564 -2.30233e-05 0.885014
vn 0.465526 0 0.885034
vn 3.40559e-20 1 6.13007e-17
vn 0.776589 0 -0.630007
vn -0.612727 0 -0.790295
vn -0.612727 4.83916e-17 -0.790295
vn -0.764817 -3.94488e-17 0.644248
vn -0.764817 0 0.644248
vn 6.93115e-24 -1 -6.12323e-17
vn 0 -1 -6.12323e-17
vn -1.11181e-23 -1 -6.12323e-17

# Mesh 'defaultobject' with 16 faces
g defaultobject
usemtl DefaultMaterial
f  1//1 2//1 3//1
f  2//1 1//1 4//1
f  2//1 4//1 5//1
f  6//2 4//2 1//2
f  4//3 6//3 5//3
f  5//4 6//4 7//4
f  7//5 6//5 8//5
f  7//6 2//6 5//6
f  2//6 7//6 9//6
f  9//7 3//7 2//7
f  3//7 9//7 10//8
f  10//9 1//9 3//9
f  1//9 10//9 6//10
f  8//11 9//11 7//11
f  9//11 8//11 6//12
f  9//11 6//12 10//13

