# File produced by Open Asset Import Library (http://www.assimp.sf.net)
# (assimp v3.1.0)

mtllib ID_47331.obj.mtl

# 16 vertex positions
v  0 1.922 1.17689e-16
v  3.443 2.036 -1.455
v  3.036 1.922 -2.163
v  5.511 2.573 1.783
v  0.887 2.158 1.436
v  5.528 2.578 1.81
v  4.847 2.573 2.256
v  2.429 2.557 3.84
v  3.036 1.32446e-16 -2.163
v  0 0 0
v  0.887 -8.79296e-17 1.436
v  2.429 -2.35132e-16 3.84
v  4.847 -1.3814e-16 2.256
v  5.528 -1.10831e-16 1.81
v  3.443 8.90931e-17 -1.455
v  5.511 -1.09177e-16 1.783

# 0 UV coordinates

# 28 vertex normals
vn -0.080596 0.990307 -0.113125
vn -0.0804784 0.990348 -0.112844
vn -0.0803937 0.990326 -0.113097
vn -0.0786527 0.987932 -0.133433
vn -0.0806084 0.990436 -0.111978
vn -0.0804341 0.990359 -0.11278
vn -0.580248 0 -0.81444
vn -0.580248 4.98701e-17 -0.81444
vn -0.850782 -3.21787e-17 0.525518
vn -0.840503 -0.014928 0.541602
vn -0.850629 0.0189878 0.525423
vn -0.841724 0 0.539908
vn 0.547976 -0 0.836494
vn 0.547976 0 0.836494
vn 0.547878 0 0.836558
vn 0.547878 0 0.836558
vn 0.866959 0 -0.498379
vn 0.866959 0 -0.498379
vn 0.846236 0 -0.532808
vn 0.842788 -7.98571e-05 -0.538246
vn 0.84281 0 -0.538211
vn -6.69616e-20 1 6.12699e-17
vn 0 -1 -6.12323e-17
vn -1.26925e-23 -1 -6.12323e-17
vn 9.45591e-24 -1 -6.12323e-17
vn -9.9862e-24 -1 -6.12323e-17
vn 4.43189e-24 -1 -6.12323e-17
vn 0 -1 -6.12323e-17

# Mesh 'defaultobject' with 28 faces
g defaultobject
usemtl DefaultMaterial
f  1//1 2//1 3//1
f  2//2 1//2 4//2
f  4//3 1//3 5//3
f  4//4 5//4 6//4
f  6//5 5//5 7//5
f  7//6 5//6 8//6
f  9//7 1//7 3//7
f  1//7 9//7 10//8
f  10//9 5//9 1//9
f  5//10 10//10 8//10
f  8//11 10//11 11//11
f  8//12 11//12 12//12
f  12//13 7//13 8//13
f  7//13 12//13 13//14
f  7//15 13//15 6//15
f  6//15 13//15 14//16
f  15//17 3//17 2//17
f  3//17 15//17 9//18
f  14//19 4//19 6//19
f  4//20 14//20 2//20
f  2//21 14//21 15//21
f  15//22 14//22 16//22
f  13//23 16//23 14//23
f  16//23 13//23 15//24
f  15//24 13//23 12//25
f  15//24 12//25 11//26
f  15//24 11//26 9//27
f  9//27 11//26 10//28

