# File produced by Open Asset Import Library (http://www.assimp.sf.net)
# (assimp v3.1.0)

mtllib ID_60938.obj.mtl

# 8 vertex positions
v  0.826 22.168 0.197
v  0 22.168 1.3574e-15
v  0.325 22.168 0.501
v  0.517 22.168 -0.313
v  0.826 -1.20628e-17 0.197
v  0.517 1.91657e-17 -0.313
v  0 0 0
v  0.325 -3.06774e-17 0.501

# 0 UV coordinates

# 9 vertex normals
vn 0 1 0
vn 0.855265 0 -0.51819
vn -0.517898 0 -0.855442
vn -0.517898 5.23807e-17 -0.855442
vn -0.838941 -3.3324e-17 0.544223
vn -0.838941 0 0.544223
vn 0.518755 -0 0.854923
vn -1.14763e-24 -1 -6.12323e-17
vn -1.18236e-24 -1 -6.12323e-17

# Mesh 'defaultobject' with 12 faces
g defaultobject
usemtl DefaultMaterial
f  1//1 2//1 3//1
f  2//1 1//1 4//1
f  5//2 4//2 1//2
f  4//2 5//2 6//2
f  6//3 2//3 4//3
f  2//3 6//3 7//4
f  7//5 3//5 2//5
f  3//5 7//5 8//6
f  8//7 1//7 3//7
f  1//7 8//7 5//7
f  5//8 7//8 6//8
f  7//8 5//8 8//9

