# File produced by Open Asset Import Library (http://www.assimp.sf.net)
# (assimp v3.1.0)

mtllib ID_61309.obj.mtl

# 8 vertex positions
v  0.124 11.949 0.197
v  0.213 11.949 -0.13
v  0 11.949 7.31665e-16
v  0.337 11.949 0.067
v  0 0 0
v  0.124 -1.20628e-17 0.197
v  0.337 -4.10257e-18 0.067
v  0.213 7.9602e-18 -0.13

# 0 UV coordinates

# 9 vertex normals
vn 0 1 0
vn -0.846305 -3.26184e-17 0.532699
vn -0.846305 0 0.532699
vn 0.520964 -0 0.853579
vn 0.846305 0 -0.532699
vn -0.520964 0 -0.853579
vn -0.520964 5.22666e-17 -0.853579
vn 0 -1 -6.12323e-17
vn 3.56046e-24 -1 -6.12323e-17

# Mesh 'defaultobject' with 12 faces
g defaultobject
usemtl DefaultMaterial
f  1//1 2//1 3//1
f  2//1 1//1 4//1
f  5//2 1//2 3//2
f  1//2 5//2 6//3
f  6//4 4//4 1//4
f  4//4 6//4 7//4
f  7//5 2//5 4//5
f  2//5 7//5 8//5
f  8//6 3//6 2//6
f  3//6 8//6 5//7
f  8//8 6//8 5//8
f  6//8 8//8 7//9

