# File produced by Open Asset Import Library (http://www.assimp.sf.net)
# (assimp v3.1.0)

mtllib ID_9118.obj.mtl

# 44 vertex positions
v  23.388 20.332 2.792
v  20.17 20.332 -0.85
v  19.66 20.332 -0.4
v  17.567 20.332 -2.389
v  17.878 20.332 -2.418
v  17.756 20.332 -2.556
v  0 20.332 1.24498e-15
v  15.966 20.332 -4.367
v  11.134 20.332 -9.837
v  16.017 20.332 -4.309
v  15.934 20.332 -4.237
v  23.253 20.332 2.911
v  23.565 20.332 3.263
v  21.562 20.332 3.992
v  20.229 20.332 5.17
v  6.033 20.332 4.5
v  4.877 20.332 5.521
v  7.707 20.332 6.394
v  12.12 20.332 12.417
v  11.82 20.332 12.044
v  7.213 20.332 6.83
v  22.078 20.332 4.577
v  23.388 -1.70961e-16 2.792
v  20.17 5.20475e-17 -0.85
v  19.66 2.44929e-17 -0.4
v  17.756 1.5651e-16 -2.556
v  17.878 1.4806e-16 -2.418
v  17.567 1.46284e-16 -2.389
v  15.934 2.59441e-16 -4.237
v  16.017 2.6385e-16 -4.309
v  11.134 6.02342e-16 -9.837
v  15.966 2.67402e-16 -4.367
v  23.565 -1.99801e-16 3.263
v  23.253 -1.78247e-16 2.911
v  0 0 0
v  7.707 -3.9152e-16 6.394
v  7.213 -4.18217e-16 6.83
v  4.877 -3.38064e-16 5.521
v  6.033 -2.75546e-16 4.5
v  12.12 -7.60322e-16 12.417
v  21.562 -2.44439e-16 3.992
v  20.229 -3.16571e-16 5.17
v  22.078 -2.8026e-16 4.577
v  11.82 -7.37482e-16 12.044

# 0 UV coordinates

# 48 vertex normals
vn 0 1 0
vn 0.749381 0 -0.662139
vn 0.749578 0 -0.661916
vn 0.749205 -7.46319e-05 -0.662339
vn 0.749554 0 -0.661943
vn -7.10315e-20 1 6.13002e-17
vn 0.749353 0 -0.662171
vn 0.750967 0 -0.66034
vn 0.749462 -8.64701e-06 -0.662047
vn 0.749478 0 -0.66203
vn 0 1 6.12025e-17
vn 0.748347 0 -0.663308
vn -0.661621 0 -0.749838
vn -0.662144 0 -0.749377
vn -0.662109 0 -0.749408
vn -0.662109 4.5888e-17 -0.749408
vn -0.661722 0 -0.749749
vn 0.655276 -0 0.755389
vn 0.661986 -0 0.749516
vn 0.666365 -0 0.745626
vn 0.662195 0.00298179 0.749326
vn 0.66578 0 0.746148
vn -9.81725e-22 -1 -6.12336e-17
vn 0.662171 -0 0.749353
vn 0.661253 -0 0.750163
vn -0.749465 -4.05385e-17 0.662044
vn -0.749465 0 0.662044
vn -0.749283 0 0.662249
vn -0.749381 0 0.66214
vn -0.779236 0 0.626731
vn -0.749951 0 0.661494
vn 0 -1 -6.12323e-17
vn 1.78204e-23 -1 -6.12323e-17
vn 4.20639e-24 -1 -6.12323e-17
vn -2.72607e-24 -1 -6.12324e-17
vn 2.18307e-24 -1 -6.12323e-17
vn 0 -1 -6.12323e-17
vn -3.86951e-24 -1 -6.12323e-17
vn 5.30563e-23 -1 -6.12324e-17
vn -1.39434e-22 -1 -6.12323e-17
vn 0 -1 -6.12323e-17
vn -1.7136e-22 -1 -6.12322e-17
vn 7.945e-23 -1 -6.12324e-17
vn -1.83727e-23 -1 -6.12323e-17
vn -1.80499e-20 -1 -6.12175e-17
vn -6.08868e-24 -1 -6.12323e-17
vn 0 -1 -6.12323e-17
vn 4.00387e-24 -1 -6.12323e-17

# Mesh 'defaultobject' with 84 faces
g defaultobject
usemtl DefaultMaterial
f  1//1 2//1 3//1
f  4//1 5//1 6//1
f  5//1 4//1 3//1
f  7//1 8//1 9//1
f  8//1 7//1 10//1
f  10//1 7//1 11//1
f  11//1 7//1 4//1
f  4//1 7//1 3//1
f  3//1 7//1 1//1
f  1//1 7//1 12//1
f  12//1 7//1 13//1
f  13//1 7//1 14//1
f  14//1 7//1 15//1
f  15//1 7//1 16//1
f  16//1 7//1 17//1
f  15//1 18//1 19//1
f  18//1 15//1 16//1
f  19//1 18//1 20//1
f  20//1 18//1 21//1
f  22//1 13//1 14//1
f  23//2 2//2 1//2
f  2//2 23//2 24//2
f  25//3 5//3 3//3
f  5//4 25//4 6//4
f  6//5 25//5 26//5
f  26//6 25//6 27//6
f  28//7 11//7 4//7
f  11//7 28//7 29//7
f  30//8 8//8 10//8
f  8//9 30//9 9//9
f  9//10 30//10 31//10
f  31//11 30//11 32//11
f  33//12 12//12 13//12
f  12//12 33//12 34//12
f  24//13 3//13 2//13
f  3//13 24//13 25//13
f  26//14 4//14 6//14
f  4//14 26//14 28//14
f  31//15 7//15 9//15
f  7//15 31//15 35//16
f  36//17 21//17 18//17
f  21//17 36//17 37//17
f  29//18 10//18 11//18
f  10//18 29//18 30//18
f  38//19 16//19 17//19
f  16//19 38//19 39//19
f  40//20 15//20 19//20
f  15//21 40//21 14//21
f  14//22 40//22 41//22
f  41//23 40//23 42//23
f  43//24 13//24 22//24
f  13//24 43//24 33//24
f  34//25 1//25 12//25
f  1//25 34//25 23//25
f  35//26 17//26 7//26
f  17//26 35//26 38//27
f  39//28 18//28 16//28
f  18//28 39//28 36//28
f  37//29 20//29 21//29
f  20//29 37//29 44//29
f  44//30 19//30 20//30
f  19//30 44//30 40//30
f  41//31 22//31 14//31
f  22//31 41//31 43//31
f  33//32 43//32 41//23
f  44//33 42//23 40//23
f  42//23 44//33 37//34
f  42//23 37//34 36//35
f  42//23 36//35 39//36
f  35//37 39//36 38//37
f  39//36 35//37 31//38
f  39//36 31//38 42//23
f  42//23 31//38 41//23
f  41//23 31//38 29//39
f  41//23 29//39 28//40
f  41//23 28//40 25//41
f  41//23 25//41 33//32
f  33//32 25//41 34//42
f  34//42 25//41 23//43
f  29//39 31//38 30//44
f  30//44 31//38 32//45
f  28//40 27//46 25//41
f  27//46 28//40 26//47
f  24//48 23//43 25//41

