# {"id":"_60899","idOriginal":"_60899","origin":[14.309878622728133,48.30407162826693],"elevation":256.285,"wof":[{"Id":85898449,"Name":"Steeg","Placetype":"neighbourhood","Offset":-1},{"Id":102049853,"Name":"Linz","Placetype":"county","Offset":-1},{"Id":101748071,"Name":"Linz","Placetype":"locality","Offset":-1},{"Id":85681677,"Name":"Oberösterreich","Placetype":"region","Offset":-1},{"Id":85632785,"Name":"Austria","Placetype":"country","Offset":-1}]}

# Attribution: City of Linz <http://geo.data.linz.gv.at/katalog/geodata/3d_geo_daten_lod2/>
# Longitude: 14.309878622728133
# Latitude: 48.30407162826693
# Elevation: 256.285

# File produced by Open Asset Import Library (http://www.assimp.sf.net)
# (assimp v3.1.0)


# 8 vertex positions
v  0 15.194 9.30364e-16
v  0.024 15.194 0.008
v  0.247 15.194 -0.611
v  1.13 15.194 0.523
v  1.13 -3.20245e-17 0.523
v  0.247 3.7413e-17 -0.611
v  0 0 0
v  0.024 -4.89859e-19 0.008

# 0 UV coordinates

# 9 vertex normals
vn -0 1 0
vn 0.789015 0 -0.614374
vn -0.92711 0 -0.374789
vn -0.92711 2.29492e-17 -0.374789
vn -0.422122 0 0.906539
vn -0.316228 -5.80901e-17 0.948683
vn -0.316228 0 0.948683
vn -2.06935e-24 -1 -6.12323e-17
vn 0 -1 -6.12324e-17

# Mesh 'defaultobject' with 12 faces
g defaultobject
usemtl DefaultMaterial
f  1//1 2//1 3//1
f  4//1 3//1 2//1
f  5//2 3//2 4//2
f  3//2 5//2 6//2
f  6//3 1//3 3//3
f  1//3 6//3 7//4
f  8//5 4//5 2//5
f  4//5 8//5 5//5
f  7//6 2//6 1//6
f  2//6 7//6 8//7
f  8//8 6//8 5//8
f  6//8 8//8 7//9

