# {"id":"ID_4005","idOriginal":"ID_4005","origin":[14.298505015613257,48.28672291277368],"elevation":259.821}
# Longitude: 14.298505015613257
# Latitude: 48.28672291277368
# Elevation: 259.821

# File produced by Open Asset Import Library (http://www.assimp.sf.net)
# (assimp v3.1.0)

mtllib ID_4005.obj.mtl

# 57 vertex positions
v  15.05 17.26 -10.009
v  14.003 22.366 -0.833
v  16.384 17.914 -9.811
v  13.975 17.26 -9.294
v  7.867 17.26 -5.232
v  7.311 22.366 3.617
v  3.442 17.26 -2.29
v  2.518 17.26 -1.675
v  0.164 17.26 -0.109
v  3.744 22.366 5.989
v  0.438 17.856 0.698
v  0.225 17.566 0.358
v  0 17.26 1.05687e-15
v  11.172 17.374 9.341
v  11.331 17.368 9.246
v  11.041 17.444 9.312
v  9.158 18.449 8.895
v  6.559 18.527 10.494
v  17.927 22.366 5.157
v  12.624 18.338 8.472
v  12.721 18.338 8.62
v  23.363 22.366 13.457
v  17.243 18.333 15.538
v  17.985 18.332 16.673
v  19.227 19.223 16.045
v  24.536 17.253 0.762
v  17.742 17.253 -9.61
v  30.016 17.253 9.129
v  29.557 17.62 9.47
v  28.61 18.379 10.174
v  6.559 -6.42572e-16 10.494
v  9.158 -5.44662e-16 8.895
v  11.172 -5.71971e-16 9.341
v  12.624 -5.1876e-16 8.472
v  11.331 -5.66154e-16 9.246
v  19.227 -9.82473e-16 16.045
v  17.985 -1.02093e-15 16.673
v  28.61 -6.22978e-16 10.174
v  23.363 -8.24004e-16 13.457
v  30.016 -5.5899e-16 9.129
v  29.557 -5.7987e-16 9.47
v  11.041 -5.70196e-16 9.312
v  17.243 -9.51428e-16 15.538
v  12.721 -5.27823e-16 8.62
v  0 0 0
v  0.225 -2.19212e-17 0.358
v  3.744 -3.6672e-16 5.989
v  0.438 -4.27402e-17 0.698
v  17.742 5.88443e-16 -9.61
v  24.536 -4.6659e-17 0.762
v  15.05 6.12875e-16 -10.009
v  16.384 6.0075e-16 -9.811
v  3.442 1.40222e-16 -2.29
v  0.164 6.67433e-18 -0.109
v  13.975 5.69093e-16 -9.294
v  7.867 3.20368e-16 -5.232
v  2.518 1.02564e-16 -1.675

# 0 UV coordinates

# 90 vertex normals
vn -0.324795 0.810219 -0.487907
vn -0.32453 0.810312 -0.487929
vn -0.324492 0.810323 -0.487936
vn -0.324476 0.810319 -0.487953
vn -0.324424 0.810336 -0.48796
vn -0.32467 0.810335 -0.487797
vn -0.324565 0.810325 -0.487884
vn -0.324497 0.810297 -0.487976
vn -0.323365 0.810332 -0.488669
vn -0.323098 0.810367 -0.488786
vn -0.324586 0.810025 -0.488368
vn 0.322038 0.811418 0.487742
vn 0.324901 0.810166 0.487924
vn 0.324462 0.810362 0.487891
vn 0.324494 0.810344 0.4879
vn 0.324421 0.810392 0.487868
vn 0 1 0
vn -0.453019 0.840656 0.296769
vn -0.452647 0.840653 0.297343
vn -0.452956 0.840654 0.29687
vn -0.453054 0.840653 0.296723
vn -0.453062 0.840637 0.296755
vn -0.453005 0.84062 0.29689
vn -0.452541 0.840603 0.297646
vn 0.453091 0.84061 -0.296789
vn 0.453017 0.840671 -0.296729
vn 0.453018 0.840679 -0.296706
vn 0.453056 0.840627 -0.296793
vn 0.453044 0.84066 -0.296717
vn 0.462286 0.840562 -0.282395
vn 0.452803 0.840621 -0.297196
vn 0.524006 -0 0.851715
vn 0.524006 0 0.851715
vn 0.512903 -0 0.858446
vn 0.513618 0 0.858019
vn 0.513539 -7.90139e-06 0.858066
vn -2.84965e-19 1 6.0783e-17
vn 0.451233 0 0.892406
vn 0.451233 0 0.892406
vn 0.53043 1.91197e-05 0.847728
vn 0.530429 0 0.847729
vn 2.84673e-19 -1 -6.09199e-17
vn 0.596605 -0 0.802535
vn 0.596366 1.99659e-05 0.802713
vn 0.596524 0 0.802595
vn 3.15404e-20 -1 -6.11884e-17
vn -0.216217 0 0.976345
vn -0.216141 -8.50405e-06 0.976362
vn -0.216211 0 0.976347
vn 1.10531e-18 1 5.62382e-17
vn -0.836371 0 0.548164
vn -0.837042 1.18229e-05 0.547139
vn -0.837008 -1.64709e-05 0.54719
vn -0.837028 2.64679e-06 0.54716
vn -0.837008 0 0.54719
vn 1.18109e-19 -1 -6.12985e-17
vn -0.848056 -1.31379e-05 0.529906
vn -0.848057 0 0.529905
vn -0.847635 0.000514488 0.53058
vn -0.847119 0.00117487 0.531402
vn -0.847989 0 0.530014
vn 0 -1 -6.12671e-17
vn -1.15648e-19 -1 -6.11779e-17
vn 7.19989e-20 -1 -6.13071e-17
vn 0.836545 0 -0.547899
vn 0.836515 -3.18484e-05 -0.547944
vn 0.836528 0 -0.547924
vn 0 1 6.12365e-17
vn 0.146616 0.000418909 -0.989193
vn 0.146615 0 -0.989194
vn 0.146615 0 -0.989194
vn 3.3108e-21 -1 -6.12543e-17
vn -0.553806 0 -0.832646
vn -0.553756 4.51949e-06 -0.832679
vn -0.553657 6.36785e-05 -0.832745
vn -0.554076 -0.00034271 -0.832466
vn -0.553884 -0.000140864 -0.832594
vn -0.553528 0.00030188 -0.832831
vn -0.553723 5.6204e-05 -0.832701
vn -0.553938 -5.62172e-06 -0.832558
vn -0.553528 5.09962e-17 -0.832831
vn 0 -1 -6.13916e-17
vn 2.29575e-20 -1 -6.12505e-17
vn 1.82243e-20 -1 -6.11971e-17
vn -5.35137e-24 -1 -6.12323e-17
vn 6.95599e-24 -1 -6.12323e-17
vn -3.88665e-22 -1 -6.12325e-17
vn 5.89985e-22 -1 -6.12321e-17
vn 9.62904e-24 -1 -6.12323e-17
vn 7.70376e-23 -1 -6.12323e-17

# Mesh 'defaultobject' with 110 faces
g defaultobject
usemtl DefaultMaterial
f  1//1 2//1 3//1
f  2//2 1//2 4//2
f  2//3 4//3 5//3
f  2//4 5//4 6//4
f  6//5 5//5 7//5
f  6//6 7//6 8//6
f  6//7 8//7 9//7
f  6//8 9//8 10//8
f  10//9 9//9 11//9
f  11//10 9//10 12//10
f  12//11 9//11 13//11
f  2//12 14//12 15//12
f  14//13 2//13 16//13
f  16//14 2//14 17//14
f  17//15 2//15 18//15
f  18//16 2//16 10//16
f  10//17 2//17 6//17
f  15//18 19//18 2//18
f  19//19 15//19 20//19
f  19//20 20//20 21//20
f  19//21 21//21 22//21
f  22//22 21//22 23//22
f  22//23 23//23 24//23
f  22//24 24//24 25//24
f  3//25 26//25 27//25
f  26//26 3//26 2//26
f  26//27 2//27 28//27
f  28//28 2//28 19//28
f  28//29 19//29 22//29
f  28//30 22//30 29//30
f  29//31 22//31 30//31
f  31//32 17//32 18//32
f  17//32 31//32 32//33
f  33//34 15//34 14//34
f  15//35 34//35 20//35
f  34//36 15//36 33//36
f  34//37 33//37 35//37
f  24//38 36//38 25//38
f  36//38 24//38 37//39
f  25//40 30//40 22//40
f  30//41 25//41 36//41
f  30//41 36//41 38//41
f  38//42 36//42 39//42
f  38//43 29//43 30//43
f  29//44 38//44 28//44
f  28//45 38//45 40//45
f  40//46 38//42 41//46
f  32//47 16//47 17//47
f  16//48 32//48 14//48
f  14//49 32//47 33//49
f  33//37 32//50 42//50
f  34//51 21//51 20//51
f  21//52 34//52 23//52
f  23//53 34//53 24//53
f  24//54 34//54 43//54
f  24//55 43//55 37//55
f  43//56 34//56 44//56
f  11//57 18//57 10//57
f  18//58 11//58 31//58
f  31//59 11//59 12//59
f  31//60 12//60 13//60
f  31//61 13//61 45//61
f  31//62 45//62 46//62
f  31//62 46//62 47//63
f  47//63 46//62 48//64
f  40//65 26//65 28//65
f  26//66 40//66 27//66
f  27//67 40//67 49//67
f  49//68 40//68 50//68
f  27//69 1//69 3//69
f  1//70 27//70 49//70
f  1//70 49//70 51//71
f  51//72 49//72 52//72
f  51//73 4//73 1//73
f  4//74 51//74 5//74
f  5//75 51//75 7//75
f  7//76 51//76 8//76
f  8//77 51//77 9//77
f  9//78 51//78 13//78
f  13//79 51//79 53//79
f  13//80 53//80 54//80
f  13//81 54//81 45//81
f  53//82 51//72 55//82
f  53//82 55//82 56//83
f  54//84 53//82 57//84
f  54//84 46//62 45//62
f  46//62 54//84 57//84
f  46//62 57//84 48//64
f  48//64 57//84 47//63
f  47//63 57//84 53//82
f  47//63 53//82 56//83
f  47//63 56//83 31//62
f  31//62 56//83 55//82
f  31//62 55//82 32//85
f  32//85 55//82 51//72
f  32//85 51//72 42//86
f  42//86 51//72 52//72
f  42//86 52//72 49//72
f  42//86 49//72 33//87
f  33//87 49//72 35//88
f  35//88 49//72 34//56
f  34//56 49//72 50//89
f  34//56 50//89 44//56
f  44//56 50//89 43//56
f  43//56 50//89 37//90
f  37//90 50//89 36//42
f  36//42 50//89 39//42
f  39//42 50//89 40//46
f  39//42 40//46 41//46
f  39//42 41//46 38//42

