# {"id":"ID_39538","idOriginal":"ID_39538","origin":[14.304773055280945,48.24628413330221],"elevation":258.017,"wof":[{"Id":85898447,"Name":"Scharlinz","Placetype":"neighbourhood","Offset":-1},{"Id":102049853,"Name":"Linz","Placetype":"county","Offset":-1},{"Id":101748071,"Name":"Linz","Placetype":"locality","Offset":-1},{"Id":85681677,"Name":"Oberösterreich","Placetype":"region","Offset":-1},{"Id":85632785,"Name":"Austria","Placetype":"country","Offset":-1}]}

# Attribution: City of Linz <http://geo.data.linz.gv.at/katalog/geodata/3d_geo_daten_lod2/>
# Longitude: 14.304773055280945
# Latitude: 48.24628413330221
# Elevation: 258.017

# File produced by Open Asset Import Library (http://www.assimp.sf.net)
# (assimp v3.1.0)


# 12 vertex positions
v  12.542 4.143 9.506
v  0 4.143 2.53686e-16
v  11.178 4.143 10.942
v  1.329 4.143 -1.442
v  0.157 4.143 -0.259
v  1.148 4.143 -1.274
v  0.157 1.58592e-17 -0.259
v  0 0 0
v  1.329 8.8297e-17 -1.442
v  1.148 7.801e-17 -1.274
v  11.178 -6.70004e-16 10.942
v  12.542 -5.82075e-16 9.506

# 0 UV coordinates

# 13 vertex normals
vn 0 1 0
vn -0.855153 0 -0.518375
vn -0.855153 3.17413e-17 -0.518375
vn -0.680296 0 -0.732937
vn -0.715515 0 -0.698597
vn -0.699523 -4.37573e-17 0.71461
vn -0.699523 0 0.71461
vn 0.72505 -0 0.688696
vn 0.698601 0 -0.715511
vn -1.36722e-23 -1 -6.12323e-17
vn 0 -1 -6.12325e-17
vn 0 -1 -6.12323e-17
vn 0 -1 -6.12326e-17

# Mesh 'defaultobject' with 20 faces
g defaultobject
usemtl DefaultMaterial
f  1//1 2//1 3//1
f  2//1 1//1 4//1
f  2//1 4//1 5//1
f  5//1 4//1 6//1
f  7//2 2//2 5//2
f  2//2 7//2 8//3
f  9//4 6//4 4//4
f  6//4 9//4 10//4
f  10//5 5//5 6//5
f  5//5 10//5 7//5
f  8//6 3//6 2//6
f  3//6 8//6 11//7
f  11//8 1//8 3//8
f  1//8 11//8 12//8
f  12//9 4//9 1//9
f  4//9 12//9 9//9
f  8//10 12//10 11//10
f  12//10 8//10 7//11
f  12//10 7//11 10//12
f  12//10 10//12 9//13

