# {"id":"_18306","idOriginal":"_18306","origin":[14.28789230952979,48.29795109867224],"elevation":262.506,"wof":[{"Id":102049853,"Name":"Linz","Placetype":"county","Offset":-1},{"Id":101748071,"Name":"Linz","Placetype":"locality","Offset":-1},{"Id":85632785,"Name":"Austria","Placetype":"country","Offset":-1},{"Id":85681677,"Name":"Oberösterreich","Placetype":"region","Offset":-1},{"Id":85898459,"Name":"Wegscheid","Placetype":"neighbourhood","Offset":-1}]}

# Attribution: City of Linz <http://geo.data.linz.gv.at/katalog/geodata/3d_geo_daten_lod2/>
# Longitude: 14.28789230952979
# Latitude: 48.29795109867224
# Elevation: 262.506

# File produced by Open Asset Import Library (http://www.assimp.sf.net)
# (assimp v3.1.0)


# 28 vertex positions
v  11.449 10.919 -5.02
v  12.756 14.821 7.885
v  17.86 10.93 4.479
v  5.678 14.821 -2.569
v  11.423 10.919 -5.058
v  7.233 10.931 10.668
v  0.185 11.052 -0.083
v  0 10.926 6.69025e-16
v  7.63 10.931 11.254
v  11.087 13.549 8.998
v  8.025 11.214 11.041
v  7.654 10.932 11.288
v  0.293 11.163 -0.235
v  0.139 11.058 -0.168
v  0.139 1.0287e-17 -0.168
v  0.185 5.08228e-18 -0.083
v  0 0 0
v  7.233 -6.53227e-16 10.668
v  7.63 -6.89109e-16 11.254
v  7.654 -6.91191e-16 11.288
v  11.423 3.09713e-16 -5.058
v  5.678 1.57306e-16 -2.569
v  0.293 1.43896e-17 -0.235
v  17.86 -2.7426e-16 4.479
v  11.087 -5.50969e-16 8.998
v  8.025 -6.76066e-16 11.041
v  12.756 -4.82817e-16 7.885
v  11.449 3.07386e-16 -5.02

# 0 UV coordinates

# 47 vertex normals
vn 0.44344 0.844514 -0.300261
vn 0.443474 0.844497 -0.300259
vn 0.442308 0.844262 -0.302631
vn -0.441814 0.845757 0.299157
vn -0.443531 0.844464 0.300269
vn -0.44349 0.844485 0.30027
vn -0.443416 0.844476 0.300404
vn -0.453113 0.844455 0.285629
vn -0.440891 0.844403 0.3043
vn -0.448233 0.845043 0.291528
vn -0.444728 0.843845 0.300238
vn -0.442599 0.844304 0.302086
vn -0.879472 0 0.47595
vn -0.827692 -3.43625e-17 0.561183
vn -0.827692 0 0.561183
vn -0.827897 0 0.56088
vn -0.816975 0 0.576674
vn -0.409339 0 -0.912382
vn -0.409339 5.58673e-17 -0.912382
vn -0.39754 0 -0.917585
vn -0.39765 -5.0657e-05 -0.917537
vn -0.39754 7.96598e-05 -0.917585
vn -0.398631 -0.000545545 -0.917111
vn -0.397714 -0 -0.917509
vn -1.82606e-21 1 6.12292e-17
vn 0.554946 -0.000247296 0.831887
vn 0.555012 2.13019e-06 0.831842
vn 0.554981 -0.00152116 0.831861
vn 0.554982 0 0.831862
vn 0 1 6.11634e-17
vn -4.84391e-20 1 6.11624e-17
vn -5.48529e-20 1 6.1161e-17
vn 0.828882 0 -0.559423
vn 0.828882 0 -0.559423
vn 0.825308 0 -0.564683
vn -3.34583e-22 -1 -6.1233e-17
vn 1.43957e-23 -1 -6.12323e-17
vn 4.79493e-24 -1 -6.12323e-17
vn -1.99045e-24 -1 -6.12323e-17
vn 1.35457e-23 -1 -6.12324e-17
vn -2.53021e-24 -1 -6.12323e-17
vn -1.5025e-24 -1 -6.12323e-17
vn 4.90902e-21 -1 -6.12154e-17
vn 0 -1 -6.12322e-17
vn -1.00273e-20 -1 -6.12668e-17
vn -1.95434e-22 -1 -6.12323e-17
vn 8.18341e-23 -1 -6.12321e-17

# Mesh 'defaultobject' with 52 faces
g defaultobject
usemtl DefaultMaterial
f  1//1 2//1 3//1
f  2//2 1//2 4//2
f  4//3 1//3 5//3
f  6//4 7//4 8//4
f  7//5 6//5 4//5
f  4//6 6//6 2//6
f  2//7 6//7 9//7
f  2//8 9//8 10//8
f  10//9 9//9 11//9
f  11//10 9//10 12//10
f  7//11 13//11 14//11
f  13//12 7//12 4//12
f  15//13 7//13 14//13
f  7//13 15//13 16//13
f  17//14 6//14 8//14
f  6//14 17//14 18//15
f  6//16 18//16 9//16
f  9//16 18//16 19//16
f  9//17 20//17 12//17
f  20//17 9//17 19//17
f  16//18 8//18 7//18
f  8//18 16//18 17//19
f  21//20 4//20 5//20
f  4//21 21//21 13//21
f  13//22 21//22 22//22
f  13//23 22//23 14//23
f  14//24 22//24 15//24
f  15//25 22//25 23//25
f  10//26 3//26 2//26
f  3//27 10//27 11//27
f  3//28 11//28 12//28
f  3//29 12//29 20//29
f  3//29 20//29 24//29
f  24//30 20//30 25//30
f  25//30 20//30 26//31
f  24//30 25//30 27//32
f  24//33 1//33 3//33
f  1//33 24//33 28//34
f  1//35 28//35 5//35
f  5//35 28//35 21//35
f  19//36 26//36 20//36
f  26//36 19//36 18//37
f  26//36 18//37 25//38
f  25//38 18//37 17//39
f  25//38 17//39 27//40
f  27//40 17//39 24//41
f  24//41 17//39 28//42
f  28//42 17//39 16//43
f  28//42 16//43 15//44
f  28//42 15//44 23//45
f  28//42 23//45 22//46
f  28//42 22//46 21//47

