# {"id":"ID_15564","idOriginal":"ID_15564","origin":[14.300791619874227,48.282822829987836],"elevation":261.23}
# Longitude: 14.300791619874227
# Latitude: 48.282822829987836
# Elevation: 261.23

# File produced by Open Asset Import Library (http://www.assimp.sf.net)
# (assimp v3.1.0)

mtllib ID_15564.obj.mtl

# 14 vertex positions
v  7.276 18.2 8.488
v  0 18.2 1.11443e-15
v  0.214 18.2 8.654
v  14.246 18.2 8.325
v  21.043 18.2 8.165
v  21.274 18.2 8.16
v  21.076 18.2 -0.514
v  21.274 -4.99656e-16 8.16
v  21.076 3.14734e-17 -0.514
v  0 0 0
v  0.214 -5.29905e-16 8.654
v  7.276 -5.1974e-16 8.488
v  21.043 -4.99962e-16 8.165
v  14.246 -5.09759e-16 8.325

# 0 UV coordinates

# 19 vertex normals
vn 0 1 0
vn 0.99974 0 -0.0228209
vn -0.0243807 0 -0.999703
vn -0.0243807 6.12141e-17 -0.999703
vn -0.999694 -1.51372e-18 0.0247209
vn -0.999694 0 0.0247209
vn 0.0234997 -0 0.999724
vn 0.0233796 4.66226e-05 0.999727
vn 0.0235333 -7.1942e-05 0.999723
vn 0.0216403 0.00209553 0.999764
vn 0.0234997 -5.70659e-05 0.999724
vn 0.0234554 -2.30489e-05 0.999725
vn 0.0216404 0 0.999766
vn 1.44721e-21 1 6.12936e-17
vn 0 -1 -6.12323e-17
vn -2.1268e-22 -1 -6.12322e-17
vn 0 -1 -6.12323e-17
vn -6.92585e-24 -1 -6.12323e-17
vn -1.47559e-21 -1 -6.12936e-17

# Mesh 'defaultobject' with 24 faces
g defaultobject
usemtl DefaultMaterial
f  1//1 2//1 3//1
f  2//1 1//1 4//1
f  2//1 4//1 5//1
f  2//1 5//1 6//1
f  2//1 6//1 7//1
f  8//2 7//2 6//2
f  7//2 8//2 9//2
f  9//3 2//3 7//3
f  2//3 9//3 10//4
f  10//5 3//5 2//5
f  3//5 10//5 11//6
f  11//7 1//7 3//7
f  1//8 11//8 4//8
f  4//9 11//9 5//9
f  5//10 11//10 6//10
f  6//11 11//11 12//11
f  6//12 12//12 13//12
f  6//13 13//13 8//13
f  13//14 12//14 14//14
f  8//15 10//15 9//15
f  10//15 8//15 13//16
f  10//15 13//16 12//17
f  10//15 12//17 11//18
f  12//17 13//16 14//19

