# {"id":"ID_15902","idOriginal":"ID_15902","origin":[14.313825508950773,48.3290518711887],"elevation":253.844}
# Longitude: 14.313825508950773
# Latitude: 48.3290518711887
# Elevation: 253.844

# File produced by Open Asset Import Library (http://www.assimp.sf.net)
# (assimp v3.1.0)

mtllib ID_15902.obj.mtl

# 34 vertex positions
v  2.692 5.095 14.095
v  0.088 5.095 3.11979e-16
v  0 5.095 3.11979e-16
v  2.74 5.095 14.089
v  2.723 5.095 14.256
v  2.759 5.095 14.188
v  3.038 5.095 14.158
v  3.04 5.095 14.206
v  20.054 5.095 12.337
v  4.288 5.095 24.51
v  20.057 5.095 12.358
v  21.04 5.095 20.357
v  21.317 5.095 22.615
v  4.357 5.095 24.503
v  5.892 5.095 24.351
v  11.748 5.095 23.695
v  21.344 5.095 22.631
v  0 0 0
v  2.692 -8.6307e-16 14.095
v  2.723 -8.72928e-16 14.256
v  3.04 -8.69867e-16 14.206
v  4.288 -1.5008e-15 24.51
v  4.357 -1.50038e-15 24.503
v  5.892 -1.49107e-15 24.351
v  11.748 -1.4509e-15 23.695
v  21.344 -1.38575e-15 22.631
v  21.317 -1.38477e-15 22.615
v  20.057 -7.56709e-16 12.358
v  21.04 -1.24651e-15 20.357
v  20.054 -7.55423e-16 12.337
v  2.759 -8.68764e-16 14.188
v  0.088 0 0
v  2.74 -8.62702e-16 14.089
v  3.038 -8.66927e-16 14.158

# 0 UV coordinates

# 39 vertex normals
vn 0 1 0
vn -0.982246 -1.14871e-17 0.187599
vn -0.982246 0 0.187599
vn -0.981963 0 0.189075
vn -0.992745 0 0.120239
vn 0.1558 -0 0.987789
vn 0.100931 -0 0.994893
vn 0.0985411 3.26961e-05 0.995133
vn 0.111325 -0.00403415 0.993776
vn 0.110204 -0.00237214 0.993906
vn 0.10089 0.0290223 0.994474
vn 0.0984734 0.0370637 0.994449
vn 0.111325 -0.00213834 0.993782
vn 0.110204 0 0.993909
vn 0.509814 0 -0.860285
vn 0.992559 0 -0.121762
vn 0.992533 -9.51259e-05 -0.121973
vn 0.992539 0 -0.121926
vn -4.33787e-19 1 6.12995e-17
vn 0.98996 0 -0.141346
vn 0.982077 0 -0.18848
vn 0.982742 7.04208e-05 -0.184983
vn 0.982737 1.13285e-17 -0.185008
vn 1.64722e-19 -1 -6.12764e-17
vn -0.106409 0 -0.994322
vn -0.10691 -0 -0.994269
vn 0 6.12323e-17 -1
vn 9.80244e-22 -1 -6.12236e-17
vn -1.87292e-23 -1 -6.12324e-17
vn 1.09143e-23 -1 -6.12323e-17
vn 0 -1 -6.12324e-17
vn 8.88153e-22 -1 -6.12313e-17
vn -2.96346e-24 -1 -6.12323e-17
vn -2.6338e-23 -1 -6.12323e-17
vn -5.85748e-22 -1 -6.12324e-17
vn 2.21435e-20 -1 -6.1235e-17
vn -3.45984e-22 -1 -6.12341e-17
vn -9.1572e-23 -1 -6.12326e-17
vn -0 -1 -6.12323e-17

# Mesh 'defaultobject' with 64 faces
g defaultobject
usemtl DefaultMaterial
f  1//1 2//1 3//1
f  2//1 1//1 4//1
f  4//1 1//1 5//1
f  4//1 5//1 6//1
f  6//1 5//1 7//1
f  7//1 5//1 8//1
f  8//1 9//1 7//1
f  9//1 8//1 10//1
f  9//1 10//1 11//1
f  11//1 10//1 12//1
f  12//1 10//1 13//1
f  13//1 10//1 14//1
f  13//1 14//1 15//1
f  13//1 15//1 16//1
f  13//1 16//1 17//1
f  18//2 1//2 3//2
f  1//2 18//2 19//3
f  1//4 19//4 5//4
f  5//4 19//4 20//4
f  21//5 10//5 8//5
f  10//5 21//5 22//5
f  20//6 8//6 5//6
f  8//6 20//6 21//6
f  22//7 14//7 10//7
f  14//8 22//8 15//8
f  15//9 22//9 16//9
f  16//10 22//10 17//10
f  17//11 22//11 23//11
f  17//12 23//12 24//12
f  17//13 24//13 25//13
f  17//14 25//14 26//14
f  26//15 13//15 17//15
f  13//15 26//15 27//15
f  27//16 12//16 13//16
f  12//17 27//17 11//17
f  11//18 27//18 28//18
f  28//19 27//19 29//19
f  28//20 9//20 11//20
f  9//20 28//20 30//20
f  31//21 4//21 6//21
f  4//22 31//22 2//22
f  2//23 31//23 32//23
f  32//24 31//24 33//24
f  30//25 7//25 9//25
f  7//25 30//25 34//25
f  7//26 34//26 6//26
f  6//26 34//26 31//26
f  32//27 3//27 2//27
f  3//27 32//27 18//27
f  25//28 27//28 26//28
f  27//28 25//28 29//29
f  29//29 25//28 28//30
f  28//30 25//28 24//31
f  28//30 24//31 30//32
f  30//32 24//31 34//33
f  34//33 24//31 23//34
f  34//33 23//34 22//35
f  34//33 22//35 21//36
f  34//33 21//36 20//37
f  34//33 20//37 31//24
f  31//24 20//37 19//38
f  31//24 19//38 33//24
f  33//24 19//38 32//24
f  32//24 19//38 18//39

