# {"id":"ID_27640","idOriginal":"ID_27640","origin":[14.33938255691858,48.280683012755105],"elevation":253.108}
# Longitude: 14.33938255691858
# Latitude: 48.280683012755105
# Elevation: 253.108

# File produced by Open Asset Import Library (http://www.assimp.sf.net)
# (assimp v3.1.0)

mtllib ID_27640.obj.mtl

# 12 vertex positions
v  2.337 21.61 10.972
v  4.534 20.694 -1.026
v  0 21.602 1.32274e-15
v  7.01 20.198 -1.586
v  6.897 20.697 9.946
v  9.391 20.198 9.386
v  9.391 -5.74727e-16 9.386
v  7.01 9.71145e-17 -1.586
v  0 0 0
v  4.534 6.28244e-17 -1.026
v  2.337 -6.71841e-16 10.972
v  6.897 -6.09017e-16 9.946

# 0 UV coordinates

# 17 vertex normals
vn 0.187357 0.981451 -0.0406222
vn 0.18742 0.98144 -0.0406098
vn 0.187363 0.98145 -0.0406323
vn 0.187249 0.981472 -0.0406344
vn 0.977254 0 -0.212071
vn -0.22071 0 -0.97534
vn -0.220604 -2.4373e-05 -0.975363
vn -0.220671 0 -0.975348
vn 0 1 6.12544e-17
vn -0.97806 0 0.208324
vn -0.97806 0 0.208324
vn 0.219512 -0 0.97561
vn 0.219102 9.4904e-05 0.975702
vn 0.219361 0 0.975644
vn -3.78709e-21 -1 -6.12499e-17
vn -1.48602e-23 -1 -6.12323e-17
vn 0 -1 -6.12323e-17

# Mesh 'defaultobject' with 20 faces
g defaultobject
usemtl DefaultMaterial
f  1//1 2//1 3//1
f  2//2 1//2 4//2
f  4//3 1//3 5//3
f  4//4 5//4 6//4
f  7//5 4//5 6//5
f  4//5 7//5 8//5
f  2//6 9//6 3//6
f  9//7 2//7 4//7
f  9//8 4//8 8//8
f  9//9 8//9 10//9
f  3//10 11//10 1//10
f  11//10 3//10 9//11
f  11//12 5//12 1//12
f  5//13 11//13 6//13
f  6//14 11//14 7//14
f  7//15 11//15 12//15
f  7//15 10//16 8//16
f  10//16 7//15 12//15
f  10//16 12//15 9//17
f  9//17 12//15 11//15

