# {"id":"ID_43762","idOriginal":"ID_43762","origin":[14.281724110350334,48.28916206240152],"elevation":297.732,"wof":[{"Id":85681677,"Name":"Oberösterreich","Placetype":"region","Offset":-1},{"Id":102049853,"Name":"Linz","Placetype":"county","Offset":-1},{"Id":85632785,"Name":"Austria","Placetype":"country","Offset":-1},{"Id":101748071,"Name":"Linz","Placetype":"locality","Offset":-1},{"Id":85898459,"Name":"Wegscheid","Placetype":"neighbourhood","Offset":-1}]}

# Attribution: City of Linz <http://geo.data.linz.gv.at/katalog/geodata/3d_geo_daten_lod2/>
# Longitude: 14.281724110350334
# Latitude: 48.28916206240152
# Elevation: 297.732

# File produced by Open Asset Import Library (http://www.assimp.sf.net)
# (assimp v3.1.0)


# 26 vertex positions
v  7.554 1.113 -0.818
v  6.294 1.184 2.3
v  6.501 1.113 2.349
v  7.509 1.129 -0.834
v  6.27 1.192 2.291
v  3.314 2.232 1.221
v  3.171 2.232 1.169
v  3.264 1.214 -2.057
v  1.267 1.228 -2.717
v  3.377 1.113 -2.341
v  0 1.114 6.82128e-17
v  0.919 1.107 -2.832
v  1.328 1.583 0.502
v  0 0 0
v  0.919 1.7341e-16 -2.832
v  3.264 1.25955e-16 -2.057
v  3.377 1.43345e-16 -2.341
v  1.328 -3.07386e-17 0.502
v  3.171 -7.15806e-17 1.169
v  3.314 -7.47647e-17 1.221
v  6.27 -1.40283e-16 2.291
v  6.294 -1.40834e-16 2.3
v  6.501 -1.43835e-16 2.349
v  7.554 5.00881e-17 -0.818
v  7.509 5.10678e-17 -0.834
v  1.267 1.66368e-16 -2.717

# 0 UV coordinates

# 40 vertex normals
vn 0.301493 0.948184 0.100244
vn 0.301489 0.948186 0.100242
vn 0.29815 0.949364 0.0990714
vn 0.28327 0.954514 0.0930679
vn 0.104659 0.94927 -0.296535
vn 0.104445 0.94929 -0.296548
vn 0.106449 0.95025 -0.292736
vn 0.104329 0.94943 -0.296138
vn -0.297495 0.949588 -0.098886
vn -0.298144 0.949352 -0.0991982
vn -0.312156 0.948133 -0.0600212
vn -0.951172 0 -0.308661
vn -0.951172 0 -0.308661
vn -0.929152 0 -0.369698
vn -0.353592 -5.72767e-17 0.9354
vn -0.353592 0 0.9354
vn -0.340309 0 0.940314
vn -0.340309 0 0.940314
vn -0.341742 0 0.939794
vn -0.340394 -9.77913e-05 0.940283
vn -0.34174 0.00386854 0.939787
vn -0.340364 0 0.940294
vn -0.351123 0 0.936329
vn -0.23035 0 0.973108
vn -0.23035 0 0.973108
vn 0.948923 -0 0.315509
vn 0.342457 0.0239366 -0.939228
vn 0.342556 0 -0.939498
vn -7.77032e-21 -1 -6.1199e-17
vn 0.313771 0 -0.949499
vn 0.313802 -9.66192e-06 -0.949488
vn 0.313771 5.61964e-05 -0.949499
vn 0.313802 0 -0.949488
vn 1.79987e-24 -1 -6.12323e-17
vn 1.32802e-19 -1 -6.13544e-17
vn -1.40366e-23 -1 -6.12323e-17
vn 0 -1 -6.12324e-17
vn 0 -1 -6.12323e-17
vn -2.06536e-22 -1 -6.12323e-17
vn 0 -1 -6.12323e-17

# Mesh 'defaultobject' with 48 faces
g defaultobject
usemtl DefaultMaterial
f  1//1 2//1 3//1
f  2//1 1//1 4//2
f  5//3 4//3 6//3
f  4//4 5//4 2//4
f  7//5 8//5 9//5
f  8//6 7//6 4//6
f  4//7 7//7 6//7
f  4//8 10//8 8//8
f  11//9 9//9 12//9
f  9//10 11//10 7//10
f  7//11 11//11 13//11
f  12//12 14//12 11//12
f  14//12 12//12 15//13
f  10//14 16//14 8//14
f  16//14 10//14 17//14
f  14//15 13//15 11//15
f  13//15 14//15 18//16
f  13//17 18//17 7//17
f  7//17 18//17 19//18
f  7//19 19//19 6//19
f  6//20 19//20 5//20
f  5//21 19//21 20//21
f  5//22 20//22 21//22
f  5//23 21//23 2//23
f  2//23 21//23 22//23
f  22//24 3//24 2//24
f  3//24 22//24 23//25
f  23//26 1//26 3//26
f  1//26 23//26 24//26
f  1//27 10//27 4//27
f  10//28 1//28 24//28
f  10//28 24//28 17//28
f  17//29 24//29 25//29
f  9//30 15//30 12//30
f  15//31 9//31 8//31
f  15//32 8//32 26//32
f  26//33 8//31 16//33
f  15//34 16//34 14//34
f  16//34 15//34 26//35
f  22//36 24//29 23//36
f  24//29 22//36 21//37
f  24//29 21//37 20//38
f  24//29 20//38 25//29
f  25//29 20//38 17//29
f  17//29 20//38 19//39
f  17//29 19//39 16//34
f  16//34 19//39 18//40
f  16//34 18//40 14//34

