# {"id":"_20991","idOriginal":"_20991","origin":[14.291170264840405,48.305143167560786],"elevation":260.425,"wof":[{"Id":85681677,"Name":"Oberösterreich","Placetype":"region","Offset":-1},{"Id":85898449,"Name":"Steeg","Placetype":"neighbourhood","Offset":-1},{"Id":102049853,"Name":"Linz","Placetype":"county","Offset":-1},{"Id":85632785,"Name":"Austria","Placetype":"country","Offset":-1},{"Id":101748071,"Name":"Linz","Placetype":"locality","Offset":-1}]}

# Attribution: City of Linz <http://geo.data.linz.gv.at/katalog/geodata/3d_geo_daten_lod2/>
# Longitude: 14.291170264840405
# Latitude: 48.305143167560786
# Elevation: 260.425

# File produced by Open Asset Import Library (http://www.assimp.sf.net)
# (assimp v3.1.0)


# 8 vertex positions
v  0 3.602 2.20559e-16
v  14.847 3.602 25.211
v  4.07 3.602 -1.738
v  10.709 3.602 26.965
v  14.847 -1.54373e-15 25.211
v  4.07 1.06422e-16 -1.738
v  0 0 0
v  10.709 -1.65113e-15 26.965

# 0 UV coordinates

# 9 vertex normals
vn -0 1 0
vn 0.928508 0 -0.371313
vn -0.392719 0 -0.919658
vn -0.392719 5.63128e-17 -0.919658
vn -0.929389 -2.2601e-17 0.369102
vn -0.929389 0 0.369102
vn 0.390264 -0 0.920703
vn 0 -1 -6.12323e-17
vn -2.59896e-23 -1 -6.12323e-17

# Mesh 'defaultobject' with 12 faces
g defaultobject
usemtl DefaultMaterial
f  1//1 2//1 3//1
f  2//1 1//1 4//1
f  5//2 3//2 2//2
f  3//2 5//2 6//2
f  6//3 1//3 3//3
f  1//3 6//3 7//4
f  7//5 4//5 1//5
f  4//5 7//5 8//6
f  8//7 2//7 4//7
f  2//7 8//7 5//7
f  5//8 7//8 6//8
f  7//8 5//8 8//9

