# {"id":"ID_61184","idOriginal":"ID_61184","origin":[14.343686390162121,48.255268453252654],"elevation":253.071,"wof":[{"Id":85898451,"Name":"Ufer","Placetype":"neighbourhood","Offset":-1},{"Id":102049853,"Name":"Linz","Placetype":"county","Offset":-1},{"Id":85632785,"Name":"Austria","Placetype":"country","Offset":-1},{"Id":101748071,"Name":"Linz","Placetype":"locality","Offset":-1},{"Id":85681677,"Name":"Oberösterreich","Placetype":"region","Offset":-1}]}

# Attribution: City of Linz <http://geo.data.linz.gv.at/katalog/geodata/3d_geo_daten_lod2/>
# Longitude: 14.343686390162121
# Latitude: 48.255268453252654
# Elevation: 253.071

# File produced by Open Asset Import Library (http://www.assimp.sf.net)
# (assimp v3.1.0)


# 6 vertex positions
v  1.865 5.712 10.295
v  0.02 5.712 -0.004
v  0 5.712 3.49759e-16
v  1.865 -6.30387e-16 10.295
v  0.02 2.44929e-19 -0.004
v  0 0 0

# 0 UV coordinates

# 7 vertex normals
vn 0 1 0
vn 0.98433 0 -0.176336
vn -0.196116 0 -0.980581
vn -0.196116 6.00432e-17 -0.980581
vn -0.983984 -1.09149e-17 0.178255
vn -0.983984 0 0.178255
vn 0 -1 -6.12323e-17

# Mesh 'defaultobject' with 8 faces
g defaultobject
usemtl DefaultMaterial
f  1//1 2//1 3//1
f  4//2 2//2 1//2
f  2//2 4//2 5//2
f  5//3 3//3 2//3
f  3//3 5//3 6//4
f  6//5 1//5 3//5
f  1//5 6//5 4//6
f  5//7 4//7 6//7

