# {"id":"ID_38717","idOriginal":"ID_38717","origin":[14.309798130109693,48.24771595959523],"elevation":257.918}
# Longitude: 14.309798130109693
# Latitude: 48.24771595959523
# Elevation: 257.918

# File produced by Open Asset Import Library (http://www.assimp.sf.net)
# (assimp v3.1.0)

mtllib ID_38717.obj.mtl

# 8 vertex positions
v  0 9.712 5.94688e-16
v  10.3 10.159 -2.569
v  8.592 9.711 -5.346
v  1.682 10.159 2.791
v  10.3 1.57306e-16 -2.569
v  8.592 3.27348e-16 -5.346
v  0 0 0
v  1.682 -1.70899e-16 2.791

# 0 UV coordinates

# 11 vertex normals
vn -0.0718367 0.99069 -0.11564
vn -0.0717813 0.990721 -0.115413
vn 0.851785 0 -0.523892
vn 0.851785 0 -0.523892
vn -0.528292 0 -0.849063
vn -0.528292 0 -0.849062
vn -0.856489 0 0.516164
vn -0.856489 0 0.516165
vn 0.528138 -0 0.849159
vn 2.407e-24 -1 -6.12323e-17
vn 8.00456e-25 -1 -6.12323e-17

# Mesh 'defaultobject' with 12 faces
g defaultobject
usemtl DefaultMaterial
f  1//1 2//1 3//1
f  2//2 1//2 4//2
f  5//3 3//3 2//3
f  3//3 5//3 6//4
f  3//5 7//5 1//5
f  7//5 3//5 6//6
f  1//7 8//7 4//7
f  8//7 1//7 7//8
f  8//9 2//9 4//9
f  2//9 8//9 5//9
f  5//10 7//10 6//10
f  7//10 5//10 8//11

