# {"id":"ID_22793","idOriginal":"ID_22793","origin":[14.340771827009743,48.342840250236115],"elevation":363.114,"wof":[{"Id":102049853,"Name":"Linz","Placetype":"county","Offset":-1},{"Id":85632785,"Name":"Austria","Placetype":"country","Offset":-1},{"Id":85681677,"Name":"Oberösterreich","Placetype":"region","Offset":-1},{"Id":85898427,"Name":"Katzbach","Placetype":"neighbourhood","Offset":-1}]}

# Attribution: City of Linz <http://geo.data.linz.gv.at/katalog/geodata/3d_geo_daten_lod2/>
# Longitude: 14.340771827009743
# Latitude: 48.342840250236115
# Elevation: 363.114

# File produced by Open Asset Import Library (http://www.assimp.sf.net)
# (assimp v3.1.0)


# 12 vertex positions
v  0 4.98 3.04937e-16
v  8.781 6.281 -9.773
v  4.592 4.98 -11.605
v  4.193 6.281 1.821
v  12.954 4.985 -7.948
v  8.415 4.971 3.655
v  4.592 7.10601e-16 -11.605
v  8.781 5.98424e-16 -9.773
v  12.954 4.86675e-16 -7.948
v  0 0 0
v  4.193 -1.11504e-16 1.821
v  8.415 -2.23804e-16 3.655

# 0 UV coordinates

# 19 vertex normals
vn -0.254638 0.961773 -0.100758
vn -0.254652 0.961768 -0.100771
vn 0.254629 0.961775 0.100762
vn 0.254642 0.96177 0.100774
vn 0.400693 0 -0.916212
vn 0.400692 3.31396e-07 -0.916213
vn 0.400693 -5.02114e-07 -0.916213
vn 0.400692 0 -0.916213
vn -0.929852 0 -0.367934
vn -0.929852 2.25295e-17 -0.367934
vn -0.39835 -5.61644e-17 0.917233
vn -0.398412 4.86937e-05 0.917207
vn -0.39835 -7.47858e-05 0.917233
vn -0.398424 0 0.917201
vn 0.931278 0 0.364309
vn 7.42674e-24 -1 -6.12323e-17
vn -7.45522e-24 -1 -6.12324e-17
vn 0 -1 -6.12323e-17
vn 0 -1 -6.12323e-17

# Mesh 'defaultobject' with 20 faces
g defaultobject
usemtl DefaultMaterial
f  1//1 2//1 3//1
f  2//2 1//2 4//2
f  4//3 5//3 2//3
f  5//4 4//4 6//4
f  2//5 7//5 3//5
f  7//5 2//5 5//6
f  7//5 5//6 8//7
f  8//7 5//6 9//8
f  7//9 1//9 3//9
f  1//9 7//9 10//10
f  10//11 4//11 1//11
f  4//12 10//12 6//12
f  6//13 10//13 11//13
f  6//14 11//14 12//14
f  6//15 9//15 5//15
f  9//15 6//15 12//15
f  8//16 10//16 7//16
f  10//16 8//16 9//17
f  10//16 9//17 11//18
f  11//18 9//17 12//19

