# {"id":"ID_43951","idOriginal":"ID_43951","origin":[14.268831057995579,48.31340107566445],"elevation":319.838}
# Longitude: 14.268831057995579
# Latitude: 48.31340107566445
# Elevation: 319.838

# File produced by Open Asset Import Library (http://www.assimp.sf.net)
# (assimp v3.1.0)

mtllib ID_43951.obj.mtl

# 8 vertex positions
v  0 3.895 2.385e-16
v  7.705 3.895 1.94
v  7.292 3.895 -1.032
v  0.375 3.895 2.957
v  7.292 6.31918e-17 -1.032
v  0 0 0
v  0.375 -1.81064e-16 2.957
v  7.705 -1.18791e-16 1.94

# 0 UV coordinates

# 9 vertex normals
vn -0 1 0
vn -0.140129 0 -0.990133
vn -0.140129 6.06282e-17 -0.990133
vn -0.992054 -7.70364e-18 0.12581
vn -0.992054 0 0.12581
vn 0.137428 -0 0.990512
vn 0.990482 0 -0.137641
vn -1.19783e-24 -1 -6.12323e-17
vn 0 -1 -6.12323e-17

# Mesh 'defaultobject' with 12 faces
g defaultobject
usemtl DefaultMaterial
f  1//1 2//1 3//1
f  2//1 1//1 4//1
f  5//2 1//2 3//2
f  1//2 5//2 6//3
f  6//4 4//4 1//4
f  4//4 6//4 7//5
f  7//6 2//6 4//6
f  2//6 7//6 8//6
f  8//7 3//7 2//7
f  3//7 8//7 5//7
f  8//8 6//8 5//8
f  6//8 8//8 7//9

