# {"id":"ID_44214","idOriginal":"ID_44214","origin":[14.272690370966385,48.31804768674615],"elevation":286.485}
# Longitude: 14.272690370966385
# Latitude: 48.31804768674615
# Elevation: 286.485

# File produced by Open Asset Import Library (http://www.assimp.sf.net)
# (assimp v3.1.0)

mtllib ID_44214.obj.mtl

# 12 vertex positions
v  4.803 2.12 -4.447
v  2.318 3.665 0.125
v  4.624 2.12 0.249
v  2.496 3.665 -4.549
v  0.201 2.128 -4.651
v  0 2.112 1.29323e-16
v  0.201 2.84792e-16 -4.651
v  0 0 0
v  2.318 -7.65404e-18 0.125
v  4.624 -1.52469e-17 0.249
v  4.803 2.723e-16 -4.447
v  2.496 2.78546e-16 -4.549

# 0 UV coordinates

# 19 vertex normals
vn 0.5557 0.831113 0.0211819
vn 0.555674 0.831131 0.0211617
vn -0.555679 0.831127 -0.0211619
vn -0.555689 0.831121 -0.0211558
vn -0.999067 0 -0.0431762
vn -0.999067 2.64378e-18 -0.0431762
vn -0.0538476 -6.11435e-17 0.998549
vn -0.0537405 -6.78813e-05 0.998555
vn -0.0538476 0.000166219 0.998549
vn -0.0536952 0 0.998557
vn 0.999274 -0 0.0380899
vn 0.0442854 0.000172581 -0.999019
vn 0.0442851 0 -0.999019
vn 0.0444007 -0.000251541 -0.999014
vn 0.04417 0 -0.999024
vn -3.04918e-25 -1 -6.12323e-17
vn -9.70609e-24 -1 -6.12323e-17
vn -8.31095e-24 -1 -6.12323e-17
vn 4.33138e-24 -1 -6.12323e-17

# Mesh 'defaultobject' with 20 faces
g defaultobject
usemtl DefaultMaterial
f  1//1 2//1 3//1
f  2//2 1//2 4//2
f  5//3 2//3 4//3
f  2//4 5//4 6//4
f  7//5 6//5 5//5
f  6//5 7//5 8//6
f  8//7 2//7 6//7
f  2//8 8//8 3//8
f  3//9 8//9 9//9
f  3//10 9//10 10//10
f  10//11 1//11 3//11
f  1//11 10//11 11//11
f  1//12 5//12 4//12
f  5//13 1//13 7//13
f  7//14 1//14 12//14
f  12//15 1//15 11//15
f  9//16 11//16 10//16
f  11//16 9//16 8//17
f  11//16 8//17 12//18
f  12//18 8//17 7//19

