# {"id":"ID_9539","idOriginal":"ID_9539","origin":[14.312504397736856,48.317074264222136],"elevation":254.43}
# Longitude: 14.312504397736856
# Latitude: 48.317074264222136
# Elevation: 254.43

# File produced by Open Asset Import Library (http://www.assimp.sf.net)
# (assimp v3.1.0)

mtllib ID_9539.obj.mtl

# 12 vertex positions
v  3.812 6.187 2.611
v  1.355 6.187 -2.003
v  0 6.187 3.78845e-16
v  30.294 6.187 -44.966
v  4.814 6.187 1.064
v  33.997 6.187 -42.384
v  33.997 2.59527e-15 -42.384
v  30.294 2.75337e-15 -44.966
v  1.355 1.22648e-16 -2.003
v  0 0 0
v  3.812 -1.59878e-16 2.611
v  4.814 -6.51512e-17 1.064

# 0 UV coordinates

# 12 vertex normals
vn 0 1 0
vn 0.57196 0 -0.820282
vn -0.829395 0 -0.558663
vn -0.828278 -0 -0.560318
vn -0.828278 3.43096e-17 -0.560318
vn -0.565095 -5.05183e-17 0.825026
vn -0.565095 0 0.825026
vn 0.830126 0 0.557576
vn 0.839323 -0 0.543634
vn 4.89065e-23 -1 -6.12323e-17
vn 0 -1 -6.12323e-17
vn 0 -1 -6.12323e-17

# Mesh 'defaultobject' with 20 faces
g defaultobject
usemtl DefaultMaterial
f  1//1 2//1 3//1
f  2//1 1//1 4//1
f  4//1 1//1 5//1
f  4//1 5//1 6//1
f  7//2 4//2 6//2
f  4//2 7//2 8//2
f  8//3 2//3 4//3
f  2//3 8//3 9//3
f  2//4 9//4 3//4
f  3//4 9//4 10//5
f  10//6 1//6 3//6
f  1//6 10//6 11//7
f  5//8 7//8 6//8
f  7//8 5//8 12//8
f  12//9 5//9 1//9
f  12//9 1//9 11//9
f  7//10 9//10 8//10
f  9//10 7//10 12//11
f  9//10 12//11 10//11
f  10//11 12//11 11//12

