# {"id":"ID_40675","idOriginal":"ID_40675","origin":[14.3054302278228,48.25624588514182],"elevation":260.073}
# Longitude: 14.3054302278228
# Latitude: 48.25624588514182
# Elevation: 260.073

# File produced by Open Asset Import Library (http://www.assimp.sf.net)
# (assimp v3.1.0)

mtllib ID_40675.obj.mtl

# 12 vertex positions
v  0.484 2.333 -2.44
v  8.288 2.176 -1.798
v  0.683 2.176 -3.635
v  7.912 2.372 -0.335
v  0 2.655 1.62572e-16
v  7.459 2.652 1.779
v  0.484 1.49407e-16 -2.44
v  0.683 2.2258e-16 -3.635
v  0 0 0
v  7.459 -1.08932e-16 1.779
v  7.912 2.05128e-17 -0.335
v  8.288 1.10096e-16 -1.798

# 0 UV coordinates

# 19 vertex normals
vn 0.0302537 0.991664 -0.125247
vn 0.0302408 0.991685 -0.125085
vn 0.0301842 0.991712 -0.124886
vn 0.0301843 0.991712 -0.124885
vn -0.986416 0 -0.164265
vn -0.986416 0 -0.164265
vn -0.980889 0 -0.19457
vn -0.980889 0 -0.19457
vn -0.231997 -5.95617e-17 0.972717
vn -0.231997 0 0.972717
vn 0.977802 -0 0.209529
vn 0.977802 0 0.209529
vn 0.968525 -0 0.248917
vn 0.968525 0 0.248917
vn 0.234799 0 -0.972044
vn 0 -1 -6.12323e-17
vn 1.15403e-23 -1 -6.12323e-17
vn -3.15548e-24 -1 -6.12323e-17
vn 2.24001e-24 -1 -6.12323e-17

# Mesh 'defaultobject' with 20 faces
g defaultobject
usemtl DefaultMaterial
f  1//1 2//1 3//1
f  2//2 1//2 4//2
f  4//3 1//3 5//3
f  4//3 5//3 6//4
f  3//5 7//5 1//5
f  7//5 3//5 8//6
f  1//7 9//7 5//7
f  9//7 1//7 7//8
f  9//9 6//9 5//9
f  6//9 9//9 10//10
f  10//11 4//11 6//11
f  4//11 10//11 11//12
f  11//13 2//13 4//13
f  2//13 11//13 12//14
f  12//15 3//15 2//15
f  3//15 12//15 8//15
f  7//16 10//16 9//16
f  10//16 7//16 8//17
f  10//16 8//17 11//18
f  11//18 8//17 12//19

