# {"id":"ID_8526","idOriginal":"ID_8526","origin":[14.306043800434358,48.25170590946653],"elevation":259.661}
# Longitude: 14.306043800434358
# Latitude: 48.25170590946653
# Elevation: 259.661

# File produced by Open Asset Import Library (http://www.assimp.sf.net)
# (assimp v3.1.0)

mtllib ID_8526.obj.mtl

# 28 vertex positions
v  13.508 14.913 -21.903
v  14.768 14.549 -21.208
v  14.89 14.542 -21.601
v  10.995 15.592 -22.516
v  13.63 14.196 -10.905
v  16.058 14.199 -20.867
v  5.173 15.592 1.26
v  10.054 14.274 2.45
v  10.356 14.192 2.524
v  3.148 14.191 -12.917
v  5.798 14.189 -23.783
v  2.715 14.192 -11.139
v  0 14.195 8.69193e-16
v  10.356 -1.5455e-16 2.524
v  13.63 6.67739e-16 -10.905
v  16.058 1.27774e-15 -20.867
v  14.768 1.29862e-15 -21.208
v  14.89 1.32268e-15 -21.601
v  13.508 1.34117e-15 -21.903
v  5.798 1.45629e-15 -23.783
v  10.995 1.37871e-15 -22.516
v  3.088 14.191 -12.672
v  3.148 7.90938e-16 -12.917
v  2.715 6.82067e-16 -11.139
v  0 0 0
v  3.088 7.75936e-16 -12.672
v  5.173 -7.71528e-17 1.26
v  10.054 -1.50019e-16 2.45

# 0 UV coordinates

# 45 vertex normals
vn 0.246696 0.967274 0.0593542
vn 0.247004 0.96723 0.0587729
vn 0.246479 0.967266 0.0603647
vn 0.246464 0.96727 0.0603632
vn 0.246488 0.967265 0.0603571
vn 0.246475 0.967268 0.0603481
vn 0.247679 0.96694 0.0606724
vn -0.246435 0.967283 -0.0602787
vn -0.246542 0.96725 -0.0603703
vn -0.246018 0.967378 -0.0604577
vn -0.246515 0.967258 -0.0603457
vn 0.971543 -0 0.236863
vn 0.97156 -6.85508e-05 0.236795
vn 0.971543 5.08073e-05 0.236863
vn 0.97156 0 0.236795
vn 0.95504 -0 0.296477
vn 0.95504 0 0.296477
vn 0.255563 0 -0.966793
vn 0.255563 0 -0.966793
vn 0.213486 0 -0.976946
vn 0.213486 0 -0.976946
vn 0.23692 -0.000246981 -0.971529
vn 0.236898 0 -0.971534
vn 6.64009e-20 1 6.09708e-17
vn -0.971525 0 -0.236936
vn -0.971297 0.00075701 -0.237869
vn -0.971652 -0.000447963 -0.236416
vn -0.971557 -8.03866e-05 -0.236806
vn -0.971525 0.000150364 -0.236936
vn -0.971603 -0.000157132 -0.236617
vn -0.971557 1.45002e-17 -0.236806
vn 4.44935e-20 1 6.12397e-17
vn -0.236654 -5.9493e-17 0.971594
vn -0.236847 6.80693e-05 0.971547
vn -0.237794 0.000774514 0.971315
vn -0.236792 0 0.97156
vn 1.63576e-21 -1 -6.12429e-17
vn 1.11759e-20 -1 -6.12779e-17
vn 0 -1 -6.12323e-17
vn -3.93488e-24 -1 -6.12323e-17
vn -1.11444e-23 -1 -6.12323e-17
vn 0 -1 -6.12323e-17
vn -5.89874e-23 -1 -6.12323e-17
vn 1.88958e-23 -1 -6.12323e-17
vn -1.7115e-23 -1 -6.12324e-17

# Mesh 'defaultobject' with 51 faces
g defaultobject
usemtl DefaultMaterial
f  1//1 2//1 3//1
f  2//2 1//2 4//2
f  2//3 5//3 6//3
f  5//4 2//4 4//4
f  5//5 4//5 7//5
f  5//6 7//6 8//6
f  5//7 8//7 9//7
f  10//8 4//8 11//8
f  4//9 10//9 7//9
f  7//10 10//10 12//10
f  7//11 12//11 13//11
f  14//12 5//12 9//12
f  5//13 14//13 6//13
f  6//14 14//14 15//14
f  6//15 15//15 16//15
f  17//16 3//16 2//16
f  3//16 17//16 18//17
f  6//18 17//18 2//18
f  17//18 6//18 16//19
f  3//20 19//20 1//20
f  19//20 3//20 18//21
f  1//22 11//22 4//22
f  11//23 1//23 19//23
f  11//23 19//23 20//23
f  20//24 19//24 21//24
f  20//25 10//25 11//25
f  10//26 20//26 22//26
f  22//27 20//27 12//27
f  12//28 20//28 13//28
f  13//29 20//29 23//29
f  13//30 23//30 24//30
f  13//31 24//31 25//31
f  24//32 23//32 26//32
f  25//33 7//33 13//33
f  7//34 25//34 8//34
f  8//35 25//35 9//35
f  9//36 25//36 14//36
f  14//37 25//37 27//37
f  14//37 27//37 28//38
f  15//39 17//39 16//39
f  17//39 15//39 21//40
f  21//40 15//39 20//41
f  20//41 15//39 23//42
f  23//42 15//39 14//37
f  23//42 14//37 26//43
f  26//43 14//37 24//44
f  24//44 14//37 28//38
f  24//44 28//38 27//37
f  24//44 27//37 25//37
f  17//39 19//45 18//45
f  19//45 17//39 21//40

