# {"id":"ID_54035","idOriginal":"ID_54035","origin":[14.305957569665212,48.26875776307973],"elevation":261.474}
# Longitude: 14.305957569665212
# Latitude: 48.26875776307973
# Elevation: 261.474

# File produced by Open Asset Import Library (http://www.assimp.sf.net)
# (assimp v3.1.0)

mtllib ID_54035.obj.mtl

# 8 vertex positions
v  3.892 2.792 1.391
v  0 2.792 1.70961e-16
v  0.905 2.792 2.502
v  3.01 2.792 -1.153
v  0.905 -1.53203e-16 2.502
v  3.892 -8.51742e-17 1.391
v  3.01 7.06009e-17 -1.153
v  0 0 0

# 0 UV coordinates

# 9 vertex normals
vn 0 1 0
vn 0.348612 -0 0.937267
vn 0.944827 0 -0.32757
vn -0.357711 0 -0.933833
vn -0.357711 5.71808e-17 -0.933833
vn -0.940374 -2.08278e-17 0.340143
vn -0.940374 0 0.340143
vn 3.12183e-24 -1 -6.12323e-17
vn 0 -1 -6.12323e-17

# Mesh 'defaultobject' with 12 faces
g defaultobject
usemtl DefaultMaterial
f  1//1 2//1 3//1
f  2//1 1//1 4//1
f  5//2 1//2 3//2
f  1//2 5//2 6//2
f  6//3 4//3 1//3
f  4//3 6//3 7//3
f  7//4 2//4 4//4
f  2//4 7//4 8//5
f  8//6 3//6 2//6
f  3//6 8//6 5//7
f  8//8 6//8 5//8
f  6//8 8//8 7//9

