# {"id":"ID_12607","idOriginal":"ID_12607","origin":[14.32542241506473,48.25574637397437],"elevation":256.108,"wof":[{"Id":102049853,"Name":"Linz","Placetype":"county","Offset":-1},{"Id":101748071,"Name":"Linz","Placetype":"locality","Offset":-1},{"Id":85681677,"Name":"Oberösterreich","Placetype":"region","Offset":-1},{"Id":85898429,"Name":"Kleinmünchen","Placetype":"neighbourhood","Offset":-1},{"Id":85632785,"Name":"Austria","Placetype":"country","Offset":-1}]}

# Attribution: City of Linz <http://geo.data.linz.gv.at/katalog/geodata/3d_geo_daten_lod2/>
# Longitude: 14.32542241506473
# Latitude: 48.25574637397437
# Elevation: 256.108

# File produced by Open Asset Import Library (http://www.assimp.sf.net)
# (assimp v3.1.0)


# 48 vertex positions
v  8.107 10.189 -16.964
v  12.448 7.47 -10.38
v  13.312 7.498 -16.138
v  7.19 10.189 -11.214
v  12.439 7.47 -10.318
v  6.706 10.189 -8.178
v  1.921 7.464 -12.05
v  2.838 7.464 -17.8
v  1.912 7.464 -11.994
v  0.962 7.464 -6.03
v  0.953 7.464 -5.974
v  0 7.464 4.57038e-16
v  6.222 10.189 -5.141
v  5.27 10.189 0.833
v  11.487 7.47 -4.354
v  11.52 7.453 -4.348
v  11.48 7.47 -4.31
v  10.529 7.47 1.665
v  12.074 10.189 -7.327
v  11.597 7.452 -4.335
v  14.763 7.41 -3.786
v  15.211 10.189 -6.83
v  15.385 9.113 -8.009
v  15.625 7.627 -9.636
v  12.529 7.578 -10.182
v  12.421 7.577 -10.201
v  13.312 9.88167e-16 -16.138
v  2.838 1.08994e-15 -17.8
v  8.107 1.03875e-15 -16.964
v  15.625 5.90035e-16 -9.636
v  12.421 6.24631e-16 -10.201
v  12.529 6.23468e-16 -10.182
v  1.921 7.3785e-16 -12.05
v  1.912 7.34421e-16 -11.994
v  0.962 3.69231e-16 -6.03
v  0.953 3.65802e-16 -5.974
v  0 0 0
v  5.27 -5.10065e-17 0.833
v  10.529 -1.01952e-16 1.665
v  11.487 2.66606e-16 -4.354
v  11.52 2.66238e-16 -4.348
v  14.763 2.31826e-16 -3.786
v  11.597 2.65442e-16 -4.335
v  11.48 2.63911e-16 -4.31
v  15.211 4.18217e-16 -6.83
v  15.385 4.9041e-16 -8.009
v  12.439 6.31795e-16 -10.318
v  12.448 6.35592e-16 -10.38

# 0 UV coordinates

# 85 vertex normals
vn 0.449069 0.890614 0.0717148
vn 0.449167 0.890571 0.0716324
vn 0.450157 0.890556 0.0653438
vn 0.449113 0.890602 0.0715978
vn -0.449206 0.890552 -0.0716385
vn -0.44959 0.890307 -0.0722606
vn -0.449142 0.890592 -0.0715433
vn -0.450147 0.890019 -0.0723435
vn -0.449304 0.890499 -0.071675
vn -0.449253 0.890527 -0.071646
vn -0.449211 0.890551 -0.0716133
vn -0.449183 0.890567 -0.0715852
vn -0.44918 0.89057 -0.07158
vn 0.445414 0.891979 0.0773354
vn 0.449282 0.890526 0.0714761
vn 0.449262 0.890534 0.0715059
vn 0.449131 0.890595 0.0715738
vn 0 1 0
vn -0.104954 0.742087 0.662036
vn -0.102215 0.742047 0.662509
vn -0.104963 0.742051 0.662075
vn -0.104889 0.742087 0.662046
vn 0.104866 0.742219 -0.661901
vn 0.104718 0.741961 -0.662214
vn 0.104998 0.742135 -0.661975
vn 0.104946 0.742135 -0.661984
vn 0.108622 0.746282 -0.656707
vn 0.104596 0.741851 -0.662357
vn 0.156732 0 -0.987641
vn 0.156709 -1.19767e-05 -0.987645
vn 0.156718 0 -0.987643
vn 7.23639e-20 1 6.07214e-17
vn 0.173677 0 -0.984803
vn 0.173266 -0.000173 -0.984875
vn 0.173663 0 -0.984805
vn -6.52027e-20 1 6.16001e-17
vn -0.987521 0 -0.157488
vn -0.98733 -0 -0.15868
vn -0.98755 -1.05734e-05 -0.157306
vn -0.987329 0.00112636 -0.15868
vn -0.98755 -0 -0.157306
vn -0.98733 -0 -0.158678
vn -0.987514 -8.80985e-06 -0.157533
vn -0.98733 0.000939374 -0.158679
vn -0.987514 9.6461e-18 -0.157533
vn -0.156126 -6.04815e-17 0.987737
vn -0.156233 5.66109e-05 0.98772
vn -0.156126 -9.7675e-05 0.987737
vn -0.156262 0 0.987716
vn -0.178882 0 0.983871
vn -0.166477 -5.66781e-05 0.986045
vn -0.170855 9.86067e-06 0.985296
vn -0.17888 0.00366816 0.983864
vn -0.170751 0 0.985314
vn -1.4841e-21 -1 -6.1222e-17
vn 0.987569 -0 0.157185
vn 0.98758 -5.79589e-05 0.157114
vn 0.987569 0 0.157184
vn -1.71529e-18 1 6.09679e-17
vn 0.989313 0.000220992 0.145804
vn 0.989326 0 0.145717
vn 0.989304 7.15131e-05 0.145868
vn 0.989343 -0.000133247 0.145606
vn 0.98929 0 0.145961
vn 7.67656e-19 1 6.13645e-17
vn 0.988371 -0 0.152063
vn 0.988371 0 0.152063
vn 0.988936 0 0.14834
vn 0 -1 -6.12532e-17
vn 0.988929 0 0.148391
vn 0.989621 0.00373319 0.143651
vn -8.21692e-25 -1 -6.12323e-17
vn 1.18547e-22 -1 -6.12322e-17
vn -1.86171e-23 -1 -6.12324e-17
vn 5.56294e-24 -1 -6.12323e-17
vn 6.60755e-24 -1 -6.12323e-17
vn 1.36656e-22 -1 -6.12322e-17
vn 0 -1 -6.12323e-17
vn 0 -1 -6.12323e-17
vn 2.80735e-21 -1 -6.12311e-17
vn -6.57114e-24 -1 -6.12323e-17
vn -1.05113e-21 -1 -6.12331e-17
vn -1.44861e-23 -1 -6.12323e-17
vn 6.69561e-24 -1 -6.12323e-17
vn 3.80434e-23 -1 -6.12323e-17

# Mesh 'defaultobject' with 91 faces
g defaultobject
usemtl DefaultMaterial
f  1//1 2//1 3//1
f  2//2 1//2 4//2
f  2//3 4//3 5//3
f  5//4 4//4 6//4
f  7//5 1//5 8//5
f  1//6 7//6 9//6
f  1//7 9//7 10//7
f  1//8 10//8 11//8
f  1//9 11//9 12//9
f  1//10 12//10 4//10
f  4//11 12//11 6//11
f  6//12 12//12 13//12
f  13//12 12//12 14//13
f  6//14 15//14 16//14
f  15//15 6//15 17//15
f  17//16 6//16 18//16
f  18//17 6//17 14//17
f  14//18 6//18 13//18
f  16//19 19//19 6//19
f  19//20 16//20 20//20
f  19//21 20//21 21//21
f  19//22 21//22 22//22
f  23//23 19//23 22//23
f  19//24 23//24 24//24
f  19//25 24//25 25//25
f  19//26 25//26 6//26
f  6//27 25//27 26//27
f  6//28 26//28 5//28
f  27//29 1//29 3//29
f  1//30 27//30 8//30
f  8//31 27//31 28//31
f  28//32 27//32 29//32
f  30//33 25//33 24//33
f  25//34 30//34 26//34
f  26//35 30//35 31//35
f  31//36 30//36 32//36
f  28//37 7//37 8//37
f  7//37 28//37 33//37
f  7//38 33//38 9//38
f  9//39 33//39 10//39
f  10//40 33//40 34//40
f  10//41 34//41 35//41
f  10//42 35//42 11//42
f  11//43 35//43 12//43
f  12//44 35//44 36//44
f  12//43 36//45 37//45
f  37//46 14//46 12//46
f  14//47 37//47 18//47
f  18//48 37//48 38//48
f  18//49 38//49 39//49
f  40//50 16//50 15//50
f  16//51 40//51 20//51
f  20//52 40//52 21//52
f  21//53 40//53 41//53
f  21//54 41//54 42//54
f  42//55 41//55 43//55
f  39//56 17//56 18//56
f  17//57 39//57 15//57
f  15//58 39//56 40//58
f  40//59 39//59 44//59
f  21//60 23//60 22//60
f  23//61 21//61 42//61
f  23//62 42//62 24//62
f  24//63 42//63 45//63
f  24//64 45//64 30//64
f  30//36 45//65 46//65
f  31//66 5//66 26//66
f  5//66 31//66 47//67
f  5//68 47//68 27//68
f  27//69 47//69 48//69
f  2//70 27//70 3//70
f  27//71 2//71 5//71
f  38//72 44//72 39//72
f  44//72 38//72 40//73
f  40//73 38//72 30//74
f  30//74 38//72 32//75
f  32//75 38//72 37//76
f  32//75 37//76 31//77
f  31//77 37//76 47//69
f  47//69 37//76 48//69
f  48//69 37//76 27//69
f  27//69 37//76 29//78
f  29//78 37//76 36//79
f  29//78 36//79 35//80
f  29//78 35//80 34//81
f  29//78 34//81 33//82
f  29//78 33//82 28//83
f  43//55 45//84 42//55
f  45//84 43//55 46//85
f  46//85 43//55 30//74
f  30//74 43//55 40//73

