# {"id":"ID_58207","idOriginal":"ID_58207","origin":[14.290868859457213,48.37428772868092],"elevation":403.472,"wof":[{"Id":102049853,"Name":"Linz","Placetype":"county","Offset":-1},{"Id":85632785,"Name":"Austria","Placetype":"country","Offset":-1},{"Id":85898433,"Name":"Maderleiten","Placetype":"neighbourhood","Offset":-1},{"Id":85681677,"Name":"Oberösterreich","Placetype":"region","Offset":-1}]}

# Attribution: City of Linz <http://geo.data.linz.gv.at/katalog/geodata/3d_geo_daten_lod2/>
# Longitude: 14.290868859457213
# Latitude: 48.37428772868092
# Elevation: 403.472

# File produced by Open Asset Import Library (http://www.assimp.sf.net)
# (assimp v3.1.0)


# 8 vertex positions
v  0 3.431 2.10088e-16
v  2.13 3.431 2.1
v  2.02 3.431 -0.11
v  0.1 3.431 2.18
v  0 0 0
v  0.1 -1.33487e-16 2.18
v  2.13 -1.28588e-16 2.1
v  2.02 6.73556e-18 -0.11

# 0 UV coordinates

# 9 vertex normals
vn -0 1 0
vn -0.99895 -2.80587e-18 0.0458234
vn -0.99895 0 0.0458234
vn 0.0393784 -0 0.999224
vn 0.998764 0 -0.0497123
vn -0.0543749 0 -0.998521
vn -0.0543749 6.11418e-17 -0.998521
vn -5.97054e-24 -1 -6.12323e-17
vn 0 -1 -6.12323e-17

# Mesh 'defaultobject' with 12 faces
g defaultobject
usemtl DefaultMaterial
f  1//1 2//1 3//1
f  2//1 1//1 4//1
f  5//2 4//2 1//2
f  4//2 5//2 6//3
f  6//4 2//4 4//4
f  2//4 6//4 7//4
f  7//5 3//5 2//5
f  3//5 7//5 8//5
f  8//6 1//6 3//6
f  1//6 8//6 5//7
f  5//8 7//8 6//8
f  7//8 5//8 8//9

