# {"id":"ID_10753","idOriginal":"ID_10753","origin":[14.289952386287363,48.28185306248313],"elevation":264.545}
# Longitude: 14.289952386287363
# Latitude: 48.28185306248313
# Elevation: 264.545

# File produced by Open Asset Import Library (http://www.assimp.sf.net)
# (assimp v3.1.0)

mtllib ID_10753.obj.mtl

# 16 vertex positions
v  10.027 7.261 -0.18
v  18.229 9.977 6.067
v  18.12 7.261 -0.325
v  0.115 9.977 6.392
v  8.292 7.261 -0.149
v  0 7.261 4.44608e-16
v  0.23 7.261 12.785
v  18.337 7.262 12.459
v  0 0 0
v  0.115 -3.91397e-16 6.392
v  0.23 -7.82855e-16 12.785
v  18.337 -7.62894e-16 12.459
v  18.229 -3.71497e-16 6.067
v  18.12 1.99005e-17 -0.325
v  10.027 1.10218e-17 -0.18
v  8.292 9.12362e-18 -0.149

# 0 UV coordinates

# 26 vertex normals
vn -0.00700466 0.920382 -0.390957
vn -0.00701433 0.920387 -0.390946
vn -0.00698437 0.920403 -0.390908
vn -0.00702504 0.920385 -0.390951
vn 0.00701348 0.920407 0.390899
vn 0.00698581 0.920434 0.390836
vn -0.999838 -1.10147e-18 0.0179883
vn -0.999838 1.416e-06 0.0179861
vn -0.999838 -2.47562e-06 0.0179883
vn -0.999838 0 0.0179855
vn 0.0180012 0 0.999838
vn 0.0180012 0 0.999838
vn 0.999857 0 -0.0168937
vn 0.999855 -7.87289e-05 -0.0170165
vn 0.999857 0.000137625 -0.0168937
vn 0.999855 0 -0.01705
vn -0.0179138 0 -0.99984
vn -0.0178646 -0 -0.99984
vn -0.0179662 -2.4296e-05 -0.999839
vn -0.0178646 0.000116117 -0.99984
vn -0.0179662 6.12225e-17 -0.999839
vn -4.09224e-24 -1 -6.12323e-17
vn -8.1835e-24 -1 -6.12323e-17
vn 0 -1 -6.12323e-17
vn -1.49105e-25 -1 -6.12323e-17
vn 1.24811e-25 -1 -6.12323e-17

# Mesh 'defaultobject' with 28 faces
g defaultobject
usemtl DefaultMaterial
f  1//1 2//1 3//1
f  2//2 1//2 4//2
f  4//3 1//3 5//3
f  4//4 5//4 6//4
f  7//5 2//5 4//5
f  2//6 7//6 8//6
f  9//7 4//7 6//7
f  4//7 9//7 7//8
f  7//8 9//7 10//9
f  7//8 10//9 11//10
f  7//11 12//11 8//11
f  12//11 7//11 11//12
f  12//13 2//13 8//13
f  2//14 12//14 3//14
f  3//15 12//15 13//15
f  3//16 13//16 14//16
f  14//17 1//17 3//17
f  1//17 14//17 15//17
f  1//18 15//18 5//18
f  5//19 15//19 6//19
f  6//20 15//20 16//20
f  6//21 16//21 9//21
f  13//22 15//22 14//22
f  15//22 13//22 12//23
f  15//22 12//23 11//24
f  15//22 11//24 16//25
f  16//25 11//24 10//24
f  16//25 10//24 9//26

