# {"id":"ID_53321","idOriginal":"ID_53321","origin":[14.30581231248859,48.25686713898728],"elevation":261.142}
# Longitude: 14.30581231248859
# Latitude: 48.25686713898728
# Elevation: 261.142

# File produced by Open Asset Import Library (http://www.assimp.sf.net)
# (assimp v3.1.0)

mtllib ID_53321.obj.mtl

# 10 vertex positions
v  0 3.996 2.44684e-16
v  4.113 3.996 0.489
v  0.653 3.996 -1.304
v  5.545 3.996 2.976
v  6.246 3.996 1.604
v  0.653 7.9847e-17 -1.304
v  0 0 0
v  5.545 -1.82227e-16 2.976
v  6.246 -9.82167e-17 1.604
v  4.113 -2.99426e-17 0.489

# 0 UV coordinates

# 13 vertex normals
vn -0 1 0
vn -0.894153 0 -0.447762
vn -0.894153 2.74175e-17 -0.447762
vn -0.472896 -5.39529e-17 0.881118
vn -0.472896 0 0.881118
vn 0.890499 -0 0.454985
vn 0.4601 0 -0.887867
vn 0.463259 -0.00347595 -0.886216
vn 0.460099 0.00214682 -0.887865
vn 0.463262 0 -0.886222
vn -5.82248e-25 -1 -6.12323e-17
vn -6.94469e-25 -1 -6.12323e-17
vn -1.07076e-23 -1 -6.12323e-17

# Mesh 'defaultobject' with 16 faces
g defaultobject
usemtl DefaultMaterial
f  1//1 2//1 3//1
f  2//1 1//1 4//1
f  2//1 4//1 5//1
f  6//2 1//2 3//2
f  1//2 6//2 7//3
f  7//4 4//4 1//4
f  4//4 7//4 8//5
f  8//6 5//6 4//6
f  5//6 8//6 9//6
f  2//7 6//7 3//7
f  6//8 2//8 5//8
f  6//9 5//9 10//9
f  10//10 5//10 9//10
f  10//11 7//11 6//11
f  7//11 10//11 8//12
f  8//12 10//11 9//13

