# {"id":"ID_50684","idOriginal":"ID_50684","origin":[14.259244371177987,48.327437973725],"elevation":494.324,"wof":[{"Id":102049853,"Name":"Linz","Placetype":"county","Offset":-1},{"Id":101748071,"Name":"Linz","Placetype":"locality","Offset":-1},{"Id":85632785,"Name":"Austria","Placetype":"country","Offset":-1},{"Id":85681677,"Name":"Oberösterreich","Placetype":"region","Offset":-1},{"Id":85898453,"Name":"Urfahr","Placetype":"neighbourhood","Offset":-1}]}

# Attribution: City of Linz <http://geo.data.linz.gv.at/katalog/geodata/3d_geo_daten_lod2/>
# Longitude: 14.259244371177987
# Latitude: 48.327437973725
# Elevation: 494.324

# File produced by Open Asset Import Library (http://www.assimp.sf.net)
# (assimp v3.1.0)


# 8 vertex positions
v  0 6.653 4.07379e-16
v  4.916 6.262 4.636
v  1.687 6.268 -0.972
v  3.203 6.653 5.625
v  1.687 5.95178e-17 -0.972
v  4.916 -2.83873e-16 4.636
v  0 0 0
v  3.203 -3.44432e-16 5.625

# 0 UV coordinates

# 10 vertex normals
vn 0.168564 0.981004 -0.096007
vn 0.16852 0.981016 -0.0959588
vn 0.866612 0 -0.498982
vn 0.866612 0 -0.498982
vn -0.499233 0 -0.866468
vn -0.499233 0 -0.866468
vn -0.868993 -3.02992e-17 0.494824
vn -0.868993 0 0.494824
vn 0.5 -0 0.866026
vn 0 -1 -6.12323e-17

# Mesh 'defaultobject' with 12 faces
g defaultobject
usemtl DefaultMaterial
f  1//1 2//1 3//1
f  2//2 1//2 4//2
f  2//3 5//3 3//3
f  5//3 2//3 6//4
f  3//5 7//5 1//5
f  7//5 3//5 5//6
f  7//7 4//7 1//7
f  4//7 7//7 8//8
f  8//9 2//9 4//9
f  2//9 8//9 6//9
f  6//10 7//10 5//10
f  7//10 6//10 8//10

