# {"id":"ID_41915","idOriginal":"ID_41915","origin":[14.29917273652731,48.25343768530557],"elevation":261.885}
# Longitude: 14.29917273652731
# Latitude: 48.25343768530557
# Elevation: 261.885

# File produced by Open Asset Import Library (http://www.assimp.sf.net)
# (assimp v3.1.0)

mtllib ID_41915.obj.mtl

# 8 vertex positions
v  0 6.245 3.82396e-16
v  6.17 2.566 3.763
v  5.467 2.57 -0.852
v  0.702 6.245 4.643
v  0 0 0
v  5.467 5.217e-17 -0.852
v  0.702 -2.84302e-16 4.643
v  6.17 -2.30417e-16 3.763

# 0 UV coordinates

# 11 vertex normals
vn 0.547077 0.832995 -0.0826139
vn 0.54712 0.832957 -0.082722
vn -0.153985 0 -0.988073
vn -0.153985 0 -0.988073
vn -0.988762 -9.15401e-18 0.149496
vn -0.988762 0 0.149496
vn 0.158892 -0 0.987296
vn 0.158892 0 0.987296
vn 0.988596 0 -0.150592
vn 0.988596 0 -0.150592
vn 0 -1 -6.12323e-17

# Mesh 'defaultobject' with 12 faces
g defaultobject
usemtl DefaultMaterial
f  1//1 2//1 3//1
f  2//2 1//2 4//2
f  3//3 5//3 1//3
f  5//3 3//3 6//4
f  5//5 4//5 1//5
f  4//5 5//5 7//6
f  7//7 2//7 4//7
f  2//7 7//7 8//8
f  2//9 6//9 3//9
f  6//9 2//9 8//10
f  8//11 5//11 6//11
f  5//11 8//11 7//11

