# {"id":"ID_6516","idOriginal":"ID_6516","origin":[14.28984277954681,48.25974756906034],"elevation":264.288,"wof":[{"Id":85681677,"Name":"Oberösterreich","Placetype":"region","Offset":-1},{"Id":85898435,"Name":"Oed","Placetype":"neighbourhood","Offset":-1},{"Id":102049853,"Name":"Linz","Placetype":"county","Offset":-1},{"Id":85632785,"Name":"Austria","Placetype":"country","Offset":-1},{"Id":101748071,"Name":"Linz","Placetype":"locality","Offset":-1}]}

# Attribution: City of Linz <http://geo.data.linz.gv.at/katalog/geodata/3d_geo_daten_lod2/>
# Longitude: 14.28984277954681
# Latitude: 48.25974756906034
# Elevation: 264.288

# File produced by Open Asset Import Library (http://www.assimp.sf.net)
# (assimp v3.1.0)


# 34 vertex positions
v  25.511 24.702 -2.532
v  19.626 28.22 2.387
v  26.899 24.693 7.949
v  25.505 24.702 -2.577
v  25.402 24.703 -3.354
v  23.862 25.548 -3.144
v  9.833 24.687 -2.847
v  15.123 25.276 -2.469
v  14.914 24.697 -3.515
v  15.17 25.555 -1.957
v  7.071 28.22 4.082
v  10.034 25.567 -1.242
v  9.966 25.266 -1.79
v  1.499 25.515 -0.186
v  0.102 24.693 0.785
v  0 24.693 1.51201e-15
v  0.157 24.693 1.209
v  1.479 24.693 11.382
v  25.402 2.05373e-16 -3.354
v  25.511 1.5504e-16 -2.532
v  26.899 -4.86736e-16 7.949
v  25.505 1.57796e-16 -2.577
v  15.17 1.19832e-16 -1.957
v  15.123 1.51183e-16 -2.469
v  14.914 2.15232e-16 -3.515
v  23.862 1.92514e-16 -3.144
v  9.833 1.74328e-16 -2.847
v  10.034 7.60506e-17 -1.242
v  0 0 0
v  1.499 1.13892e-17 -0.186
v  9.966 1.09606e-16 -1.79
v  1.479 -6.96946e-16 11.382
v  0.157 -7.40299e-17 1.209
v  0.102 -4.80674e-17 0.785

# 0 UV coordinates

# 53 vertex normals
vn 0.473461 0.878634 -0.0619462
vn 0.472736 0.878947 -0.0630333
vn 0.473661 0.878546 -0.0616582
vn 0.473652 0.87855 -0.0616693
vn -0.0639781 0.878476 -0.473484
vn -0.0640449 0.878747 -0.472971
vn -0.0639388 0.878533 -0.473383
vn -0.0639125 0.878523 -0.473405
vn -0.0638412 0.878569 -0.473329
vn -0.0639816 0.87802 -0.474329
vn -0.0639793 0.878611 -0.473233
vn -0.0639197 0.878546 -0.473362
vn -0.474018 0.878358 0.0615922
vn -0.473851 0.878427 0.0618911
vn -0.473698 0.878541 0.0614467
vn -0.473733 0.878514 0.0615624
vn 0.0639414 0.878491 0.473461
vn 0.063914 0.878517 0.473416
vn 0.991328 0 -0.13141
vn 0.991226 2.44758e-05 -0.132175
vn 0.991345 -5.68455e-06 -0.131284
vn 0.991323 7.25084e-05 -0.131452
vn 0.991345 0 -0.131284
vn 2.41091e-19 -1 -6.12823e-17
vn 0.995813 0 -0.0914124
vn 0.995813 0 -0.0914124
vn 0.980617 0 -0.195936
vn 0.980617 0 -0.195936
vn -0.135307 -0.000359494 -0.990804
vn -0.135277 -0 -0.990808
vn -0.135277 0 -0.990808
vn 4.97412e-21 1 6.12612e-17
vn -0.130348 0 -0.991468
vn -0.12279 0 -0.992433
vn -0.123084 -0.00010011 -0.992396
vn -0.122842 6.07686e-17 -0.992426
vn 0 1 6.12301e-17
vn -0.992389 0 0.123145
vn -0.992179 3.69661e-05 0.124823
vn -0.992249 0 0.124263
vn -3.28629e-21 -1 -6.12322e-17
vn -0.991664 -7.88998e-18 0.128853
vn -0.991691 6.91315e-06 0.128639
vn -0.991662 -4.48857e-06 0.128868
vn -0.991663 0 0.128859
vn 0 1 6.12344e-17
vn 0 -1 -6.12345e-17
vn 0.133836 -0 0.991003
vn 3.27304e-24 -1 -6.12323e-17
vn -3.43191e-22 -1 -6.12323e-17
vn -1.6095e-24 -1 -6.12323e-17
vn -2.50323e-23 -1 -6.12322e-17
vn -4.23409e-24 -1 -6.12323e-17

# Mesh 'defaultobject' with 64 faces
g defaultobject
usemtl DefaultMaterial
f  1//1 2//1 3//1
f  2//2 1//2 4//2
f  2//3 4//3 5//3
f  2//4 5//4 6//4
f  7//5 8//5 9//5
f  8//6 7//6 10//6
f  10//7 2//7 6//7
f  2//8 10//8 11//8
f  11//9 10//9 12//9
f  12//10 10//10 13//10
f  13//11 10//11 7//11
f  11//12 12//12 14//12
f  15//13 14//13 16//13
f  14//14 15//14 11//14
f  11//15 15//15 17//15
f  11//16 17//16 18//16
f  2//17 18//17 3//17
f  18//18 2//18 11//18
f  4//19 19//19 5//19
f  19//20 4//20 1//20
f  19//21 1//21 3//21
f  19//22 3//22 20//22
f  20//23 3//21 21//23
f  19//24 20//24 22//24
f  23//25 8//25 10//25
f  8//25 23//25 24//26
f  24//27 9//27 8//27
f  9//27 24//27 25//28
f  5//29 10//29 6//29
f  10//30 5//30 23//30
f  23//30 5//30 19//31
f  23//32 19//32 26//32
f  25//33 7//33 9//33
f  7//33 25//33 27//33
f  28//34 14//34 12//34
f  14//35 28//35 16//35
f  16//36 28//36 29//36
f  29//37 28//37 30//37
f  13//38 28//38 12//38
f  28//39 13//39 7//39
f  28//40 7//40 27//40
f  28//41 27//41 31//41
f  29//42 15//42 16//42
f  15//43 29//43 17//43
f  17//44 29//44 18//44
f  18//45 29//42 32//45
f  32//46 29//37 33//46
f  33//47 29//47 34//47
f  32//48 3//48 18//48
f  3//48 32//48 21//48
f  25//49 23//49 27//41
f  23//49 25//49 24//50
f  33//47 21//51 32//51
f  21//51 33//47 34//47
f  21//51 34//47 29//47
f  21//51 29//47 30//52
f  21//51 30//52 28//41
f  21//51 28//41 31//41
f  21//51 31//41 27//41
f  21//51 27//41 23//49
f  21//51 23//49 26//53
f  21//51 26//53 19//24
f  21//51 19//24 22//24
f  21//51 22//24 20//24

