# {"id":"ID_35199","idOriginal":"ID_35199","origin":[14.321827343439521,48.23816028999776],"elevation":259.866}
# Longitude: 14.321827343439521
# Latitude: 48.23816028999776
# Elevation: 259.866

# File produced by Open Asset Import Library (http://www.assimp.sf.net)
# (assimp v3.1.0)

mtllib ID_35199.obj.mtl

# 12 vertex positions
v  0 1.305 7.99082e-17
v  3.735 1.552 -2.251
v  3.35 1.305 -2.724
v  9.437 3.962 0.769
v  5.69 1.553 -3.84
v  4.132 3.962 5.082
v  9.437 -4.70877e-17 0.769
v  5.69 2.35132e-16 -3.84
v  3.735 1.37834e-16 -2.251
v  3.35 1.66797e-16 -2.724
v  0 0 0
v  4.132 -3.11183e-16 5.082

# 0 UV coordinates

# 18 vertex normals
vn -0.236823 0.926871 -0.291247
vn -0.23733 0.92669 -0.291412
vn -0.237119 0.926632 -0.291765
vn -0.237134 0.926657 -0.291675
vn 0.775934 0 -0.630814
vn 0.775934 0 -0.630814
vn 0.775562 0 -0.631272
vn 0.775562 0 -0.631272
vn -0.630727 0 -0.776005
vn -0.630727 -0 -0.776005
vn -0.630889 0 -0.775873
vn -0.630889 4.75085e-17 -0.775873
vn -0.775899 0 0.630857
vn -0.775899 0 0.630857
vn 0.630829 -0 0.775922
vn 0 -1 -6.12323e-17
vn 1.60701e-22 -1 -6.12323e-17
vn 0 -1 -6.12323e-17

# Mesh 'defaultobject' with 20 faces
g defaultobject
usemtl DefaultMaterial
f  1//1 2//1 3//1
f  2//2 4//2 5//2
f  4//3 2//3 1//3
f  4//4 1//4 6//4
f  7//5 5//5 4//5
f  5//5 7//5 8//6
f  9//7 3//7 2//7
f  3//7 9//7 10//8
f  8//9 2//9 5//9
f  2//9 8//9 9//10
f  10//11 1//11 3//11
f  1//11 10//11 11//12
f  1//13 12//13 6//13
f  12//13 1//13 11//14
f  12//15 4//15 6//15
f  4//15 12//15 7//15
f  10//16 12//16 11//16
f  12//16 10//16 9//17
f  12//16 9//17 8//18
f  12//16 8//18 7//18

