# {"id":"ID_31854","idOriginal":"ID_31854","origin":[14.313912826289032,48.25529806250545],"elevation":258.878}
# Longitude: 14.313912826289032
# Latitude: 48.25529806250545
# Elevation: 258.878

# File produced by Open Asset Import Library (http://www.assimp.sf.net)
# (assimp v3.1.0)

mtllib ID_31854.obj.mtl

# 40 vertex positions
v  3.143 2.395 11.291
v  4.999 3.091 7.195
v  1.993 2.353 9.88
v  6.033 3.091 8.845
v  5.246 3.152 6.975
v  2.939 3.091 3.908
v  0.335 3.091 -0.249
v  0 3.014 1.84554e-16
v  3.554 3.834 -2.645
v  5.117 3.149 6.803
v  8.393 3.834 5.078
v  9.194 3.853 6.168
v  8.026 3.834 4.492
v  8.476 3.853 5.021
v  12.352 4.726 2.359
v  10.315 4.123 5.219
v  10.703 4.133 5.733
v  12.021 4.426 4.872
v  12.234 4.473 4.733
v  13.348 4.72 4.005
v  5.246 -4.27096e-16 6.975
v  4.999 -4.40567e-16 7.195
v  1.993 -6.04975e-16 9.88
v  12.352 -1.44447e-16 2.359
v  8.476 -3.07448e-16 5.021
v  8.393 -3.10938e-16 5.078
v  3.554 1.6196e-16 -2.645
v  0.335 1.52469e-17 -0.249
v  0 0 0
v  3.143 -6.91374e-16 11.291
v  10.703 -3.51045e-16 5.733
v  10.315 -3.19572e-16 5.219
v  2.939 -2.39296e-16 3.908
v  5.117 -4.16564e-16 6.803
v  6.033 -5.416e-16 8.845
v  9.194 -3.77681e-16 6.168
v  12.021 -2.98324e-16 4.872
v  13.348 -2.45236e-16 4.005
v  12.234 -2.89813e-16 4.733
v  8.026 -2.75056e-16 4.492

# 0 UV coordinates

# 70 vertex normals
vn -0.154815 0.983179 0.0969129
vn -0.15472 0.983189 0.0969579
vn -0.155794 0.982953 0.097631
vn -0.154212 0.983304 0.0966005
vn -0.154772 0.983182 0.0969509
vn -0.155013 0.983146 0.0969243
vn -0.151367 0.983769 0.0963664
vn -0.15364 0.98338 0.0967385
vn -0.154758 0.983182 0.096967
vn -0.155032 0.983156 0.0967902
vn 0 1 0
vn -0.15731 0.982627 0.0984731
vn -0.154863 0.983168 0.0969412
vn -0.154441 0.983199 0.0972983
vn -0.154336 0.983208 0.0973748
vn -0.155241 0.983111 0.0969153
vn -0.153576 0.983348 0.097163
vn -0.154545 0.983203 0.0970993
vn -0.665115 0 -0.746741
vn -0.666143 -0.00014749 -0.745824
vn -0.665113 0.00240776 -0.746739
vn -0.666164 -0 -0.745806
vn -0.566132 0 -0.824315
vn -0.566132 -0 -0.824315
vn -0.566107 -0 -0.824331
vn -0.566108 -0 -0.824331
vn -0.597085 0 -0.802178
vn -0.597085 -0 -0.802178
vn -0.596545 -0 -0.80258
vn -0.596545 4.91438e-17 -0.80258
vn -0.775155 0 0.631771
vn -0.798132 0 0.602482
vn -0.798132 0 0.602482
vn -0.799214 -3.68035e-17 0.601047
vn -0.799214 0 0.601047
vn -0.799105 0 0.601192
vn -0.800001 0 0.599999
vn -0.8 0 0.599999
vn 0.646037 -0 0.763306
vn 0.646037 0 0.763306
vn 0.646267 0 0.763112
vn 0.646126 0 0.763231
vn 0.646126 0 0.763231
vn 0.546907 -0 0.837193
vn 0.546479 0.000181963 0.837473
vn 0.547063 -0.000103305 0.837091
vn 0.546907 2.13368e-05 0.837193
vn 0.54696 0 0.837159
vn -3.03174e-20 1 6.11805e-17
vn 0.855561 0 -0.517702
vn 0.855561 0 -0.517702
vn 0.847511 0 -0.530778
vn 0.847391 -4.07416e-05 -0.53097
vn 0.8474 0 -0.530955
vn -1.60902e-19 1 6.13036e-17
vn 0 -1 -6.12323e-17
vn 0 -1 -6.12323e-17
vn 5.49911e-24 -1 -6.12323e-17
vn 5.41006e-24 -1 -6.12323e-17
vn 1.24315e-23 -1 -6.12323e-17
vn 2.1669e-23 -1 -6.12323e-17
vn -3.82864e-23 -1 -6.12323e-17
vn 9.47079e-24 -1 -6.12323e-17
vn 0 -1 -6.12323e-17
vn 8.32764e-24 -1 -6.12323e-17
vn -8.31766e-23 -1 -6.12324e-17
vn -2.76149e-23 -1 -6.12324e-17
vn -4.37207e-24 -1 -6.12323e-17
vn 1.73699e-23 -1 -6.12323e-17
vn 3.03133e-20 -1 -6.11873e-17

# Mesh 'defaultobject' with 76 faces
g defaultobject
usemtl DefaultMaterial
f  1//1 2//1 3//1
f  2//2 1//2 4//2
f  2//3 4//3 5//3
f  6//4 7//4 8//4
f  7//5 6//5 9//5
f  9//6 6//6 10//6
f  9//7 10//7 5//7
f  9//8 5//8 4//8
f  9//9 4//9 11//9
f  11//10 4//10 12//10
f  9//11 11//11 13//11
f  11//12 12//12 14//12
f  14//13 12//13 15//13
f  15//14 12//14 16//14
f  15//15 16//15 17//15
f  15//16 17//16 18//16
f  15//17 18//17 19//17
f  15//18 19//18 20//18
f  21//19 2//19 5//19
f  2//20 21//20 3//20
f  3//21 21//21 22//21
f  3//22 22//22 23//22
f  24//23 14//23 15//23
f  14//23 24//23 25//24
f  14//25 25//25 11//25
f  11//25 25//25 26//26
f  27//27 7//27 9//27
f  7//27 27//27 28//28
f  7//29 28//29 8//29
f  8//29 28//29 29//30
f  3//31 30//31 1//31
f  30//31 3//31 23//31
f  16//32 31//32 17//32
f  31//32 16//32 32//33
f  29//34 6//34 8//34
f  6//34 29//34 33//35
f  6//36 33//36 10//36
f  10//36 33//36 34//36
f  10//37 34//37 5//37
f  5//37 34//37 21//38
f  30//39 4//39 1//39
f  4//39 30//39 35//40
f  4//41 35//41 12//41
f  12//41 35//41 36//41
f  12//42 36//42 16//42
f  16//42 36//42 32//43
f  31//44 18//44 17//44
f  18//45 31//45 19//45
f  19//46 31//46 20//46
f  20//47 31//47 37//47
f  20//48 37//48 38//48
f  38//49 37//49 39//49
f  20//50 24//50 15//50
f  24//50 20//50 38//51
f  26//52 13//52 11//52
f  13//53 26//53 9//53
f  9//54 26//54 27//54
f  27//55 26//55 40//55
f  28//56 33//56 29//56
f  33//56 28//56 27//57
f  33//56 27//57 40//58
f  33//56 40//58 34//59
f  34//59 40//58 21//60
f  22//57 30//57 23//57
f  30//57 22//57 21//60
f  30//57 21//60 35//61
f  35//61 21//60 40//58
f  35//61 40//58 26//62
f  35//61 26//62 36//63
f  36//63 26//62 25//64
f  36//63 25//64 24//65
f  36//63 24//65 32//66
f  32//66 24//65 31//67
f  31//67 24//65 37//68
f  37//68 24//65 38//69
f  37//68 38//69 39//70

