# {"id":"_14288","idOriginal":"_14288","origin":[14.285375988134225,48.301405117649125],"elevation":264.616,"wof":[{"Id":85898449,"Name":"Steeg","Placetype":"neighbourhood","Offset":-1},{"Id":102049853,"Name":"Linz","Placetype":"county","Offset":-1},{"Id":85898459,"Name":"Wegscheid","Placetype":"neighbourhood","Offset":-1},{"Id":85632785,"Name":"Austria","Placetype":"country","Offset":-1},{"Id":101748071,"Name":"Linz","Placetype":"locality","Offset":-1},{"Id":85681677,"Name":"Oberösterreich","Placetype":"region","Offset":-1}]}

# Attribution: City of Linz <http://geo.data.linz.gv.at/katalog/geodata/3d_geo_daten_lod2/>
# Longitude: 14.285375988134225
# Latitude: 48.301405117649125
# Elevation: 264.616

# File produced by Open Asset Import Library (http://www.assimp.sf.net)
# (assimp v3.1.0)


# 18 vertex positions
v  7.128 4.867 -3.205
v  13.313 5.092 5.928
v  8.256 5.021 -3.712
v  0 3.898 2.38684e-16
v  8.544 3.898 18.639
v  14.776 5.113 8.717
v  17.243 5.148 13.42
v  17.108 5.113 13.804
v  16.721 5.013 14.901
v  8.256 2.27294e-16 -3.712
v  0 0 0
v  7.128 1.9625e-16 -3.205
v  8.544 -1.14131e-15 18.639
v  16.721 -9.12423e-16 14.901
v  17.243 -8.21738e-16 13.42
v  14.776 -5.33762e-16 8.717
v  13.313 -3.62985e-16 5.928
v  17.108 -8.45251e-16 13.804

# 0 UV coordinates

# 31 vertex normals
vn -0.112288 0.992335 0.0515957
vn -0.111846 0.992401 0.0512949
vn -0.111832 0.992404 0.051263
vn -0.111912 0.992397 0.0512323
vn -0.111837 0.992403 0.0512798
vn -0.111947 0.9924 0.0510962
vn -0.112034 0.992398 0.0509412
vn -0.409961 0 -0.912103
vn -0.410084 -3.42413e-05 -0.912048
vn -0.410071 5.58472e-17 -0.912054
vn 0 1 6.13461e-17
vn -0.909044 -2.55155e-17 0.4167
vn -0.909044 0 0.4167
vn 0.415754 0 0.909477
vn 0.415754 0 0.909477
vn 0.885559 0 -0.464528
vn 0.885559 0 -0.464528
vn 0.885558 0 -0.464529
vn 0.885558 0 -0.464529
vn 0.885549 0 -0.464546
vn 0.943038 -0 0.332684
vn 0.943405 -0.000251084 0.331644
vn 0.943131 0 0.33242
vn -7.10398e-20 1 6.12072e-17
vn -4.2219e-23 -1 -6.12324e-17
vn 1.05387e-23 -1 -6.12323e-17
vn 6.27766e-24 -1 -6.12323e-17
vn -8.82571e-24 -1 -6.12323e-17
vn -7.44126e-24 -1 -6.12323e-17
vn 2.1529e-24 -1 -6.12323e-17
vn -1.96988e-20 -1 -6.12632e-17

# Mesh 'defaultobject' with 32 faces
g defaultobject
usemtl DefaultMaterial
f  1//1 2//1 3//1
f  2//2 1//2 4//2
f  2//3 4//3 5//3
f  2//4 5//4 6//4
f  6//5 5//5 7//5
f  7//6 5//6 8//6
f  8//7 5//7 9//7
f  10//8 1//8 3//8
f  1//9 10//9 4//9
f  4//10 10//10 11//10
f  11//11 10//11 12//11
f  11//12 5//12 4//12
f  5//12 11//12 13//13
f  5//14 14//14 9//14
f  14//14 5//14 13//15
f  15//16 6//16 7//16
f  6//16 15//16 16//17
f  6//16 16//17 2//18
f  2//18 16//17 17//19
f  2//20 17//20 3//20
f  3//20 17//20 10//20
f  14//21 8//21 9//21
f  8//22 14//22 7//22
f  7//23 14//23 15//23
f  15//24 14//24 18//24
f  13//25 18//25 14//25
f  18//25 13//25 11//26
f  18//25 11//26 15//27
f  15//27 11//26 16//28
f  16//28 11//26 17//29
f  17//29 11//26 10//30
f  10//30 11//26 12//31

