# {"id":"ID_32127","idOriginal":"ID_32127","origin":[14.303279171116383,48.2784931279076],"elevation":279.35}
# Longitude: 14.303279171116383
# Latitude: 48.2784931279076
# Elevation: 279.35

# File produced by Open Asset Import Library (http://www.assimp.sf.net)
# (assimp v3.1.0)

mtllib ID_32127.obj.mtl

# 20 vertex positions
v  1.989 2.383 -2.308
v  5.37 2.383 -4.076
v  4.284 2.383 -5.044
v  9.881 2.383 -0.171
v  0 2.383 1.45917e-16
v  5.017 2.383 4.398
v  7.599 2.383 2.413
v  8.69 2.383 3.324
v  5.274 2.383 7.113
v  3.782 2.383 5.747
v  4.284 3.08856e-16 -5.044
v  1.989 1.41324e-16 -2.308
v  0 0 0
v  5.017 -2.693e-16 4.398
v  3.782 -3.51902e-16 5.747
v  5.274 -4.35546e-16 7.113
v  8.69 -2.03536e-16 3.324
v  7.599 -1.47754e-16 2.413
v  9.881 1.04707e-17 -0.171
v  5.37 2.49583e-16 -4.076

# 0 UV coordinates

# 21 vertex normals
vn 0 1 0
vn -0.766152 0 -0.64266
vn -0.757516 -0 -0.652816
vn -0.757516 3.99735e-17 -0.652816
vn -0.737585 0 -0.675254
vn -0.659194 -4.60451e-17 0.751973
vn -0.659194 0 0.751973
vn -0.675277 0 0.737564
vn 0.742719 -0 0.669603
vn 0.74955 -0 0.661948
vn 0.640945 0 -0.767587
vn 0.665387 0 -0.746498
vn 0.654497 0 -0.756065
vn -2.56504e-24 -1 -6.12323e-17
vn 3.6475e-24 -1 -6.12323e-17
vn 6.14373e-25 -1 -6.12323e-17
vn 1.23399e-23 -1 -6.12324e-17
vn 0 -1 -6.12323e-17
vn 8.40702e-26 -1 -6.12323e-17
vn -6.17472e-24 -1 -6.12323e-17
vn -1.27434e-23 -1 -6.12323e-17

# Mesh 'defaultobject' with 36 faces
g defaultobject
usemtl DefaultMaterial
f  1//1 2//1 3//1
f  2//1 1//1 4//1
f  4//1 1//1 5//1
f  4//1 5//1 6//1
f  4//1 6//1 7//1
f  7//1 6//1 8//1
f  8//1 6//1 9//1
f  9//1 6//1 10//1
f  11//2 1//2 3//2
f  1//2 11//2 12//2
f  1//3 12//3 5//3
f  5//3 12//3 13//4
f  14//5 10//5 6//5
f  10//5 14//5 15//5
f  13//6 6//6 5//6
f  6//6 13//6 14//7
f  15//8 9//8 10//8
f  9//8 15//8 16//8
f  16//9 8//9 9//9
f  8//9 16//9 17//9
f  18//10 4//10 7//10
f  4//10 18//10 19//10
f  17//11 7//11 8//11
f  7//11 17//11 18//11
f  2//12 11//12 3//12
f  11//12 2//12 20//12
f  20//13 2//13 4//13
f  20//13 4//13 19//13
f  15//14 17//14 16//14
f  17//14 15//14 14//15
f  17//14 14//15 13//16
f  17//14 13//16 18//17
f  18//17 13//16 19//18
f  19//18 13//16 20//19
f  20//19 13//16 12//20
f  20//19 12//20 11//21

