# {"id":"ID_52737","idOriginal":"ID_52737","origin":[14.288656027394747,48.328830637255855],"elevation":264.667,"wof":[{"Id":102049853,"Name":"Linz","Placetype":"county","Offset":-1},{"Id":85632785,"Name":"Austria","Placetype":"country","Offset":-1},{"Id":101748071,"Name":"Linz","Placetype":"locality","Offset":-1},{"Id":85681677,"Name":"Oberösterreich","Placetype":"region","Offset":-1},{"Id":85898425,"Name":"Harbach","Placetype":"neighbourhood","Offset":-1}]}

# Attribution: City of Linz <http://geo.data.linz.gv.at/katalog/geodata/3d_geo_daten_lod2/>
# Longitude: 14.288656027394747
# Latitude: 48.328830637255855
# Elevation: 264.667

# File produced by Open Asset Import Library (http://www.assimp.sf.net)
# (assimp v3.1.0)


# 8 vertex positions
v  0 2.144 1.31282e-16
v  4.717 2.144 0.262
v  1.315 2.144 -2.111
v  3.507 2.144 2.313
v  4.717 -1.60429e-17 0.262
v  1.315 1.29261e-16 -2.111
v  0 0 0
v  3.507 -1.4163e-16 2.313

# 0 UV coordinates

# 9 vertex normals
vn -0 1 0
vn 0.572102 0 -0.820182
vn -0.848788 0 -0.528733
vn -0.848788 3.23756e-17 -0.528733
vn -0.550574 -5.11159e-17 0.834787
vn -0.550574 0 0.834787
vn 0.861286 -0 0.508121
vn -3.21169e-25 -1 -6.12323e-17
vn -3.31151e-25 -1 -6.12323e-17

# Mesh 'defaultobject' with 12 faces
g defaultobject
usemtl DefaultMaterial
f  1//1 2//1 3//1
f  2//1 1//1 4//1
f  5//2 3//2 2//2
f  3//2 5//2 6//2
f  6//3 1//3 3//3
f  1//3 6//3 7//4
f  7//5 4//5 1//5
f  4//5 7//5 8//6
f  8//7 2//7 4//7
f  2//7 8//7 5//7
f  5//8 7//8 6//8
f  7//8 5//8 8//9

