# {"id":"ID_40444","idOriginal":"ID_40444","origin":[14.27994597385667,48.32965445049621],"elevation":289.225}
# Longitude: 14.27994597385667
# Latitude: 48.32965445049621
# Elevation: 289.225

# File produced by Open Asset Import Library (http://www.assimp.sf.net)
# (assimp v3.1.0)

mtllib ID_40444.obj.mtl

# 10 vertex positions
v  1.393 3.241 -2.244
v  9.499 1.903 5.766
v  10.783 3.164 3.635
v  1.574 1.858 1.058
v  0 1.903 1.16525e-16
v  10.783 -2.2258e-16 3.635
v  9.499 -3.53066e-16 5.766
v  1.393 1.37405e-16 -2.244
v  0 0 0
v  1.574 -6.47838e-17 1.058

# 0 UV coordinates

# 15 vertex normals
vn -0.234633 0.89197 0.386441
vn -0.234643 0.891964 0.386449
vn -0.234269 0.892055 0.386467
vn 0.856534 0 0.516091
vn 0.856534 0 0.516091
vn 0.530664 0 -0.847582
vn -0.849611 0 -0.52741
vn -0.849611 3.22945e-17 -0.52741
vn -0.510742 0 0.859734
vn -0.510742 0 0.859734
vn -0.55786 -5.08189e-17 0.829935
vn -0.55786 0 0.829935
vn 0 -1 -6.12323e-17
vn 3.53618e-24 -1 -6.12323e-17
vn 0 -1 -6.12323e-17

# Mesh 'defaultobject' with 16 faces
g defaultobject
usemtl DefaultMaterial
f  1//1 2//1 3//1
f  2//2 1//2 4//2
f  4//3 1//3 5//3
f  2//4 6//4 3//4
f  6//4 2//4 7//5
f  3//6 8//6 1//6
f  8//6 3//6 6//6
f  8//7 5//7 1//7
f  5//7 8//7 9//8
f  4//9 7//9 2//9
f  7//9 4//9 10//10
f  9//11 4//11 5//11
f  4//11 9//11 10//12
f  10//13 6//13 7//13
f  6//13 10//13 8//14
f  8//14 10//13 9//15

