# File produced by Open Asset Import Library (http://www.assimp.sf.net)
# (assimp v3.1.0)

mtllib ID_19322.obj.mtl

# 16 vertex positions
v  9.766 8.553 -10.069
v  11.197 6.916 3.982
v  15.392 6.916 -8.143
v  5.594 8.553 1.989
v  0 6.918 4.23605e-16
v  2.848 7.184 -5.28
v  1.927 6.918 -5.573
v  5.036 7.176 -11.689
v  2.848 3.23307e-16 -5.28
v  5.036 7.15745e-16 -11.689
v  1.927 3.41248e-16 -5.573
v  0 0 0
v  9.766 6.16548e-16 -10.069
v  15.392 4.98615e-16 -8.143
v  5.594 -1.21791e-16 1.989
v  11.197 -2.43827e-16 3.982

# 0 UV coordinates

# 27 vertex normals
vn 0.250826 0.964135 0.0867807
vn 0.250818 0.964136 0.0867817
vn -0.250861 0.964129 -0.0867413
vn -0.250919 0.964103 -0.0868658
vn -0.250878 0.964119 -0.0868024
vn -0.250931 0.964107 -0.0867802
vn -0.94637 0 -0.323086
vn -0.94637 0 -0.323086
vn -0.945097 0 -0.32679
vn -0.945097 2.00101e-17 -0.32679
vn 0.303161 0 -0.952939
vn 0.303161 0 -0.952939
vn 0.324017 0 -0.946051
vn 0.323904 7.00655e-05 -0.94609
vn 0.324017 -0.000119643 -0.946051
vn 0.323886 0 -0.946096
vn -0.335013 -5.76939e-17 0.942213
vn -0.335113 7.38441e-05 0.942178
vn -0.335013 -0.000108976 0.942213
vn -0.335132 0 0.942171
vn 0.945037 -0 0.326963
vn 6.04882e-24 -1 -6.12323e-17
vn 3.59511e-23 -1 -6.12324e-17
vn 0 -1 -6.12323e-17
vn -1.40189e-24 -1 -6.12323e-17
vn -2.64108e-23 -1 -6.12323e-17
vn 0 -1 -6.12323e-17

# Mesh 'defaultobject' with 28 faces
g defaultobject
usemtl DefaultMaterial
f  1//1 2//1 3//1
f  2//1 1//1 4//2
f  5//3 6//3 7//3
f  6//4 1//4 8//4
f  1//5 6//5 4//5
f  4//6 6//6 5//6
f  8//7 9//7 6//7
f  9//7 8//7 10//8
f  11//9 5//9 7//9
f  5//9 11//9 12//10
f  9//11 7//11 6//11
f  7//11 9//11 11//12
f  1//13 10//13 8//13
f  10//14 1//14 3//14
f  10//15 3//15 13//15
f  13//16 3//16 14//16
f  12//17 4//17 5//17
f  4//18 12//18 2//18
f  2//19 12//19 15//19
f  2//20 15//20 16//20
f  16//21 3//21 2//21
f  3//21 16//21 14//21
f  11//22 15//22 12//22
f  15//22 11//22 9//23
f  15//22 9//23 10//24
f  15//22 10//24 16//25
f  16//25 10//24 13//26
f  16//25 13//26 14//27

