# File produced by Open Asset Import Library (http://www.assimp.sf.net)
# (assimp v3.1.0)

mtllib ID_21990.obj.mtl

# 18 vertex positions
v  10.931 9.222 -6.143
v  8.358 5.756 6.327
v  15.202 5.718 -3.033
v  4.19 9.222 3.172
v  6.688 5.741 -9.232
v  6.302 5.733 -8.718
v  6.201 5.734 -8.578
v  2.654 5.737 -3.669
v  0 5.738 3.51351e-16
v  6.688 5.65297e-16 -9.232
v  6.302 5.33824e-16 -8.718
v  6.201 5.25251e-16 -8.578
v  2.654 2.24661e-16 -3.669
v  0 0 0
v  4.19 -1.94229e-16 3.172
v  8.358 -3.87417e-16 6.327
v  15.202 1.85718e-16 -3.033
v  10.931 3.7615e-16 -6.143

# 0 UV coordinates

# 32 vertex normals
vn 0.44777 0.833373 0.324024
vn 0.447749 0.833385 0.324023
vn -0.447782 0.833358 -0.324047
vn -0.448826 0.832777 -0.324094
vn -0.440735 0.837147 -0.32394
vn -0.447738 0.83339 -0.324023
vn -0.447669 0.833417 -0.324052
vn -0.799626 0 -0.600498
vn -0.799626 -0 -0.600498
vn -0.810986 0 -0.585066
vn -0.810553 2.22625e-05 -0.585665
vn -0.810985 -0.000779983 -0.585066
vn -0.810553 -0 -0.585665
vn -0.810242 -0 -0.586095
vn -0.810242 3.5888e-17 -0.586095
vn -0.603587 -4.88204e-17 0.797297
vn -0.603556 -2.17376e-05 0.797321
vn -0.603587 4.77322e-05 0.797297
vn -0.603545 0 0.797329
vn 0.807227 -0 0.590241
vn 0.807227 0 0.590241
vn 0.588606 -7.09913e-05 -0.80842
vn 0.588606 0 -0.80842
vn 0.588568 8.68827e-05 -0.808448
vn 0.588644 0 -0.808392
vn 1.74703e-24 -1 -6.12323e-17
vn 0 -1 -6.12323e-17
vn 2.21845e-24 -1 -6.12323e-17
vn 2.90175e-24 -1 -6.12323e-17
vn 2.45636e-23 -1 -6.12324e-17
vn -2.47424e-23 -1 -6.12323e-17
vn -5.44647e-21 -1 -6.12362e-17

# Mesh 'defaultobject' with 32 faces
g defaultobject
usemtl DefaultMaterial
f  1//1 2//1 3//1
f  2//2 1//2 4//2
f  5//3 4//3 1//3
f  4//4 5//4 6//4
f  4//5 6//5 7//5
f  4//6 7//6 8//6
f  4//7 8//7 9//7
f  10//8 6//8 5//8
f  6//8 10//8 11//9
f  11//10 7//10 6//10
f  7//11 11//11 8//11
f  8//12 11//12 12//12
f  8//13 12//13 13//13
f  8//14 13//14 9//14
f  9//14 13//14 14//15
f  14//16 4//16 9//16
f  4//17 14//17 2//17
f  2//18 14//18 15//18
f  2//19 15//19 16//19
f  16//20 3//20 2//20
f  3//20 16//20 17//21
f  3//22 5//22 1//22
f  5//23 3//23 10//23
f  10//24 3//24 18//24
f  18//25 3//25 17//25
f  15//26 17//26 16//26
f  17//26 15//26 14//27
f  17//26 14//27 13//28
f  17//26 13//28 12//29
f  17//26 12//29 18//30
f  18//30 12//29 10//31
f  10//31 12//29 11//32

