# File produced by Open Asset Import Library (http://www.assimp.sf.net)
# (assimp v3.1.0)

mtllib ID_38282.obj.mtl

# 12 vertex positions
v  5.89 3.04 -1.2
v  4.94 1.971 4.764
v  8.379 1.971 1.167
v  2.467 3.04 2.379
v  0 1.974 1.20873e-16
v  3.394 1.968 -3.574
v  3.394 2.18844e-16 -3.574
v  5.89 7.34788e-17 -1.2
v  8.379 -7.14581e-17 1.167
v  0 0 0
v  2.467 -1.45672e-16 2.379
v  4.94 -2.91711e-16 4.764

# 0 UV coordinates

# 17 vertex normals
vn 0.214794 0.954825 0.205359
vn 0.214708 0.954847 0.205349
vn -0.214669 0.954831 -0.205461
vn -0.214642 0.954875 -0.205286
vn 0.689177 0 -0.724593
vn 0.689177 0 -0.724593
vn 0.689124 0 -0.724643
vn -0.725131 0 -0.688611
vn -0.694152 -4.40768e-17 0.719829
vn -0.694152 0 0.719829
vn -0.694184 0 0.719798
vn -0.694184 0 0.719798
vn 0.722803 -0 0.691054
vn -1.55906e-24 -1 -6.12323e-17
vn 3.90907e-25 -1 -6.12323e-17
vn 0 -1 -6.12323e-17
vn 2.32226e-24 -1 -6.12323e-17

# Mesh 'defaultobject' with 20 faces
g defaultobject
usemtl DefaultMaterial
f  1//1 2//1 3//1
f  2//2 1//2 4//2
f  5//3 1//3 6//3
f  1//4 5//4 4//4
f  1//5 7//5 6//5
f  7//5 1//5 8//6
f  8//7 1//7 3//7
f  8//7 3//7 9//7
f  6//8 10//8 5//8
f  10//8 6//8 7//8
f  10//9 4//9 5//9
f  4//9 10//9 11//10
f  4//11 11//11 2//11
f  2//11 11//11 12//12
f  12//13 3//13 2//13
f  3//13 12//13 9//13
f  8//14 10//14 7//14
f  10//14 8//14 9//15
f  10//14 9//15 11//16
f  11//16 9//15 12//17

