# File produced by Open Asset Import Library (http://www.assimp.sf.net)
# (assimp v3.1.0)

mtllib ID_57126.obj.mtl

# 8 vertex positions
v  2.493 2.325 1.452
v  0.96 2.325 -1.648
v  0 2.325 1.42365e-16
v  3.453 2.325 -0.196
v  0 0 0
v  2.493 -8.89094e-17 1.452
v  3.453 1.20015e-17 -0.196
v  0.96 1.00911e-16 -1.648

# 0 UV coordinates

# 9 vertex normals
vn 0 1 0
vn -0.503289 -5.2912e-17 0.864118
vn -0.503289 0 0.864118
vn 0.864083 -0 0.503349
vn 0.503289 0 -0.864118
vn -0.864083 0 -0.503349
vn -0.864083 3.08213e-17 -0.503349
vn 0 -1 -6.12323e-17
vn -4.8106e-24 -1 -6.12323e-17

# Mesh 'defaultobject' with 12 faces
g defaultobject
usemtl DefaultMaterial
f  1//1 2//1 3//1
f  2//1 1//1 4//1
f  5//2 1//2 3//2
f  1//2 5//2 6//3
f  6//4 4//4 1//4
f  4//4 6//4 7//4
f  7//5 2//5 4//5
f  2//5 7//5 8//5
f  8//6 3//6 2//6
f  3//6 8//6 5//7
f  8//8 6//8 5//8
f  6//8 8//8 7//9

