# File produced by Open Asset Import Library (http://www.assimp.sf.net)
# (assimp v3.1.0)

mtllib ID_9752.obj.mtl

# 53 vertex positions
v  21.423 10.469 -9.721
v  21.16 10.402 -9.173
v  21.5 10.4 -9.67
v  12.927 15.02 -8.071
v  15.069 10.444 -0.264
v  14.453 10.756 -0.101
v  5.134 15.02 3.457
v  14.797 10.447 0.133
v  9.43 11.165 6.349
v  9.903 10.74 6.668
v  11.286 10.378 -16.694
v  11.26 10.413 -16.655
v  11.778 10.417 -16.3
v  12.232 10.419 -15.99
v  15.085 10.436 -14.042
v  15.045 10.894 -13.327
v  15.026 11.108 -12.993
v  15.353 10.896 -13.117
v  15.966 10.498 -13.349
v  18.818 10.477 -11.462
v  19.224 10.474 -11.194
v  5.616 10.413 -8.308
v  5.287 10.413 -7.821
v  4.447 10.413 -6.578
v  4.304 10.413 -6.367
v  0.511 10.871 0.344
v  0 10.413 6.37612e-16
v  15.026 7.95592e-16 -12.993
v  15.045 8.16043e-16 -13.327
v  15.085 8.59825e-16 -14.042
v  11.778 9.98087e-16 -16.3
v  12.232 9.79105e-16 -15.99
v  11.286 1.02221e-15 -16.694
v  21.5 5.92117e-16 -9.67
v  21.423 5.9524e-16 -9.721
v  15.966 8.17391e-16 -13.349
v  18.818 7.01845e-16 -11.462
v  19.224 6.85435e-16 -11.194
v  15.353 8.03185e-16 -13.117
v  11.26 1.01982e-15 -16.655
v  5.616 5.08718e-16 -8.308
v  5.287 4.78898e-16 -7.821
v  4.447 4.02786e-16 -6.578
v  4.304 3.89866e-16 -6.367
v  0 0 0
v  0.511 -2.10639e-17 0.344
v  9.43 -3.88764e-16 6.349
v  9.903 -4.08297e-16 6.668
v  5.134 -2.1168e-16 3.457
v  14.453 6.18447e-18 -0.101
v  14.797 -8.1439e-18 0.133
v  15.069 1.61653e-17 -0.264
v  21.16 5.61684e-16 -9.173

# 0 UV coordinates

# 91 vertex normals
vn 0.495496 0.801098 0.335746
vn 0.494623 0.801778 0.335411
vn 0.494696 0.80214 0.334437
vn 0.494753 0.802116 0.334408
vn 0.494709 0.802136 0.334427
vn 0.49469 0.802796 0.332866
vn 0.494704 0.802154 0.33439
vn 0.494921 0.801944 0.334573
vn 0.334015 0.801259 -0.496405
vn 0.333243 0.80227 -0.49529
vn 0.334597 0.801764 -0.495196
vn 0.333426 0.802169 -0.495329
vn 0.333877 0.80211 -0.495121
vn 0.334394 0.802052 -0.494867
vn 0.332031 0.802293 -0.496066
vn 0.333364 0.802189 -0.49534
vn 0.333563 0.802181 -0.495219
vn 0.333493 0.802155 -0.495307
vn 0.298864 0.845084 -0.443297
vn -0.494639 0.802165 -0.334461
vn -0.494654 0.802185 -0.334389
vn -0.494911 0.802045 -0.334345
vn -0.494788 0.802111 -0.33437
vn -0.493799 0.802598 -0.334662
vn -0.494742 0.80214 -0.334367
vn -0.494315 0.802494 -0.33415
vn 0.998386 -0 0.0567946
vn 0.998438 -2.82942e-05 0.0558747
vn 0.998386 6.4466e-05 0.0567946
vn 0.998439 0 0.0558567
vn 0.563885 0 -0.825854
vn 0.5639 6.18427e-06 -0.825843
vn 0.563887 0 -0.825852
vn 1.67651e-18 -1 -6.37074e-17
vn 0.625083 0 -0.780558
vn 0.556527 0.00698451 -0.8308
vn 0.556384 0 -0.830925
vn 0.550889 -0.00172539 -0.834577
vn 0.551787 -0.00139406 -0.833984
vn 0.5522 -0.00108197 -0.833711
vn 0.553643 0 -0.832754
vn 1.59775e-21 1 6.123e-17
vn 3.03994e-21 1 6.12281e-17
vn -0.354567 0 -0.93503
vn -0.353976 -2.02863e-05 -0.935254
vn -0.354174 0 -0.935179
vn -1.4001e-21 1 6.12292e-17
vn -0.832047 0 -0.554705
vn -0.828399 2.94626e-05 -0.560139
vn -0.832034 -0.00633846 -0.554689
vn -0.828399 -0 -0.560139
vn -0.828631 -0 -0.559795
vn -0.828547 8.49328e-06 -0.559919
vn -0.827801 0.000275472 -0.561022
vn -0.82847 6.9476e-06 -0.560034
vn -0.828631 -0.000271148 -0.559795
vn -0.828547 -0.000134305 -0.559919
vn -0.8278 0.000880308 -0.561023
vn -0.82847 3.42922e-17 -0.560034
vn -0.558491 -8.69074e-05 0.82951
vn -0.558495 8.76594e-05 0.829508
vn -0.55849 0 0.829511
vn -0.558861 0.000455157 0.829261
vn -0.558441 -0.000108401 0.829544
vn -0.558493 -4.15733e-05 0.829509
vn -0.559142 0 0.829072
vn 0 1 6.12097e-17
vn -0.562442 0 0.826837
vn 0.829932 0 0.557865
vn 0.82495 -0 0.565206
vn 0.825507 -4.54532e-05 0.564392
vn 0.82495 0.00102342 0.565205
vn 0.825507 0 0.564392
vn 0.825348 0 0.564625
vn 3.63917e-23 -1 -6.12324e-17
vn 5.156e-23 -1 -6.12325e-17
vn -3.59323e-23 -1 -6.12323e-17
vn 3.46292e-23 -1 -6.12324e-17
vn 1.42497e-21 -1 -6.12338e-17
vn 0 -1 -6.12323e-17
vn 0 -1 -6.12323e-17
vn 9.27465e-22 -1 -6.12335e-17
vn 6.90257e-23 -1 -6.12323e-17
vn -3.23741e-23 -1 -6.12324e-17
vn 5.11135e-23 -1 -6.12324e-17
vn -5.72106e-24 -1 -6.12323e-17
vn 1.89422e-23 -1 -6.12324e-17
vn -2.23355e-24 -1 -6.12323e-17
vn 1.50927e-25 -1 -6.12323e-17
vn -5.68853e-24 -1 -6.12323e-17
vn 5.67019e-20 -1 -6.12947e-17

# Mesh 'defaultobject' with 102 faces
g defaultobject
usemtl DefaultMaterial
f  1//1 2//1 3//1
f  2//2 1//2 4//2
f  2//3 4//3 5//3
f  5//4 4//4 6//4
f  6//5 4//5 7//5
f  5//6 6//6 8//6
f  6//7 7//7 9//7
f  6//8 9//8 10//8
f  11//9 12//9 13//9
f  4//10 13//10 12//10
f  14//11 13//11 4//11
f  15//12 14//12 4//12
f  16//13 15//13 4//13
f  17//14 16//14 4//14
f  18//15 17//15 4//15
f  19//16 18//16 4//16
f  20//17 19//17 4//17
f  1//18 20//18 4//18
f  21//19 20//19 1//19
f  22//20 4//20 12//20
f  4//21 22//21 7//21
f  7//22 22//22 23//22
f  7//23 23//23 24//23
f  7//24 24//24 25//24
f  7//25 25//25 26//25
f  26//26 25//26 27//26
f  28//27 16//27 17//27
f  16//28 28//28 15//28
f  15//29 28//29 29//29
f  15//30 29//30 30//30
f  30//31 14//31 15//31
f  14//32 30//32 13//32
f  13//33 30//31 31//33
f  31//34 30//34 32//34
f  31//35 11//35 13//35
f  11//35 31//35 33//35
f  3//36 21//36 1//36
f  21//37 3//37 34//37
f  21//38 34//38 20//38
f  20//39 34//39 19//39
f  19//40 34//40 35//40
f  19//41 35//41 36//41
f  36//42 35//42 37//42
f  37//42 35//42 38//43
f  18//44 28//44 17//44
f  28//45 18//45 19//45
f  28//46 19//46 36//46
f  28//47 36//42 39//47
f  33//48 12//48 11//48
f  12//49 33//49 22//49
f  22//50 33//50 40//50
f  22//51 40//51 41//51
f  22//52 41//52 23//52
f  23//53 41//53 24//53
f  24//54 41//54 25//54
f  25//55 41//55 27//55
f  27//56 41//56 42//56
f  27//57 42//57 43//57
f  27//58 43//58 44//58
f  27//55 44//59 45//59
f  26//60 9//60 7//60
f  9//61 26//61 27//61
f  9//62 27//62 45//62
f  9//63 45//63 10//63
f  10//64 45//64 46//64
f  10//65 46//65 47//65
f  10//66 47//66 48//66
f  47//67 46//67 49//67
f  50//68 8//68 6//68
f  8//68 50//68 51//68
f  10//69 50//69 6//69
f  50//69 10//69 48//69
f  51//70 5//70 8//70
f  5//71 51//71 2//71
f  2//72 51//72 52//72
f  2//73 52//73 53//73
f  2//74 53//74 3//74
f  3//74 53//74 34//74
f  37//75 39//75 36//75
f  39//75 37//75 38//76
f  39//75 38//76 35//77
f  39//75 35//77 28//78
f  28//78 35//77 34//79
f  28//78 34//79 53//80
f  51//81 50//81 52//81
f  31//34 40//82 33//82
f  40//82 31//34 41//83
f  41//83 31//34 32//34
f  41//83 32//34 30//34
f  41//83 30//34 29//84
f  41//83 29//84 28//78
f  41//83 28//78 53//80
f  41//83 53//80 52//81
f  41//83 52//81 42//85
f  42//85 52//81 43//86
f  43//86 52//81 44//87
f  44//87 52//81 45//88
f  45//88 52//81 50//81
f  45//88 50//81 46//81
f  46//81 50//81 47//89
f  47//89 50//81 48//90
f  46//81 47//89 49//91

