# {"id":"ID_33843","idOriginal":"ID_33843","origin":[14.328754071037926,48.24580380820473],"elevation":265.394}
# Longitude: 14.328754071037926
# Latitude: 48.24580380820473
# Elevation: 265.394

# File produced by Open Asset Import Library (http://www.assimp.sf.net)
# (assimp v3.1.0)

mtllib ID_33843.obj.mtl

# 16 vertex positions
v  0.786 3.85 0.835
v  0.039 3.85 -0.033
v  0 3.856 2.36112e-16
v  4.628 3.114 -3.995
v  10.1 3.114 2.363
v  4.945 3.817 5.255
v  6.09 3.705 5.167
v  6.897 3.626 5.105
v  0 0 0
v  0.039 2.02067e-18 -0.033
v  4.628 2.44623e-16 -3.995
v  4.945 -3.21776e-16 5.255
v  0.786 -5.1129e-17 0.835
v  6.897 -3.12591e-16 5.105
v  6.09 -3.16388e-16 5.167
v  10.1 -1.44692e-16 2.363

# 0 UV coordinates

# 23 vertex normals
vn 0.088414 0.993173 -0.076089
vn 0.0913444 0.992712 -0.0786109
vn 0.0913417 0.992712 -0.078613
vn 0.0913276 0.99272 -0.078523
vn 0.0910272 0.992706 -0.0790548
vn 0.0911157 0.992707 -0.0789287
vn -0.645942 0 -0.763386
vn -0.653492 0.000131784 -0.756934
vn -0.645821 -0.0193628 -0.763243
vn -0.653504 0 -0.756923
vn -0.728149 -4.19698e-17 0.685419
vn -0.728282 5.78937e-05 0.685278
vn -0.728261 0 0.6853
vn 0 -1 -6.12186e-17
vn 0.0766302 -0 0.99706
vn 0.0766026 8.56121e-06 0.997062
vn 0.0766184 0 0.997061
vn 1.1731e-19 -1 -5.97187e-17
vn 0.650322 -0 0.759658
vn 0.650322 0 0.759658
vn 0.757942 0 -0.652322
vn 0 -1 -6.12323e-17
vn 0 -1 -6.12323e-17

# Mesh 'defaultobject' with 28 faces
g defaultobject
usemtl DefaultMaterial
f  1//1 2//1 3//1
f  2//2 1//2 4//2
f  4//2 1//2 5//3
f  5//4 1//4 6//4
f  5//5 6//5 7//5
f  5//6 7//6 8//6
f  2//7 9//7 3//7
f  9//8 2//8 4//8
f  9//9 4//9 10//9
f  10//10 4//10 11//10
f  9//11 1//11 3//11
f  1//12 9//12 6//12
f  6//13 9//13 12//13
f  12//14 9//14 13//14
f  12//15 7//15 6//15
f  7//16 12//16 8//16
f  8//17 12//17 14//17
f  14//18 12//14 15//18
f  14//19 5//19 8//19
f  5//19 14//19 16//20
f  16//21 4//21 5//21
f  4//21 16//21 11//21
f  14//18 11//22 16//22
f  11//22 14//18 15//18
f  11//22 15//18 12//14
f  11//22 12//14 13//14
f  11//22 13//14 10//23
f  10//23 13//14 9//14

