# {"id":"ID_30326","idOriginal":"ID_30326","origin":[14.345110736450227,48.25317258462562],"elevation":253.246,"wof":[{"Id":102049853,"Name":"Linz","Placetype":"county","Offset":-1},{"Id":101748071,"Name":"Linz","Placetype":"locality","Offset":-1},{"Id":85681677,"Name":"Oberösterreich","Placetype":"region","Offset":-1},{"Id":85898451,"Name":"Ufer","Placetype":"neighbourhood","Offset":-1},{"Id":85632785,"Name":"Austria","Placetype":"country","Offset":-1}]}

# Attribution: City of Linz <http://geo.data.linz.gv.at/katalog/geodata/3d_geo_daten_lod2/>
# Longitude: 14.345110736450227
# Latitude: 48.25317258462562
# Elevation: 253.246

# File produced by Open Asset Import Library (http://www.assimp.sf.net)
# (assimp v3.1.0)


# 37 vertex positions
v  0.699 3.563 -0.051
v  4.2 3.675 0.225
v  4.162 3.563 -0.301
v  4.386 4.112 2.276
v  0.187 4.112 2.58
v  0.045 3.695 0.62
v  0 3.563 2.18171e-16
v  8.705 3.675 -0.101
v  9.609 4.112 1.898
v  9.509 3.675 -0.159
v  4.237 3.675 0.222
v  4.48 3.542 4.963
v  0.381 3.542 5.259
v  4.473 3.563 4.863
v  4.573 3.563 4.856
v  9.735 3.563 4.482
v  9.735 -2.74443e-16 4.482
v  9.509 9.73594e-18 -0.159
v  9.609 -1.16219e-16 1.898
v  4.2 -1.37773e-17 0.225
v  4.162 1.84309e-17 -0.301
v  4.473 -2.97773e-16 4.863
v  4.48 -3.03896e-16 4.963
v  8.705 6.18447e-18 -0.101
v  4.237 -1.35936e-17 0.222
v  0.699 3.12285e-18 -0.051
v  0 0 0
v  0.045 -3.7964e-17 0.62
v  0.381 -3.22021e-16 5.259
v  0.187 -1.57979e-16 2.58
v  4.573 -2.97344e-16 4.856
v  4.48 3.67 4.963
v  0.723 2.57 9.989
v  4.822 2.57 9.693
v  0.381 3.67 5.259
v  0.723 -6.1165e-16 9.989
v  4.822 -5.93525e-16 9.693

# 0 UV coordinates

# 57 vertex normals
vn -0.0149583 0.978184 -0.207202
vn -0.0149698 0.978212 -0.207067
vn -0.0149891 0.978218 -0.207038
vn -0.014979 0.978219 -0.207036
vn -0.0151149 0.97819 -0.207163
vn -0.0149393 0.978208 -0.207089
vn -0.0149699 0.97821 -0.207076
vn -0.0149836 0.978219 -0.207035
vn -0.0167745 0.978217 -0.206904
vn 0.0149515 0.978216 0.207048
vn 0.0165028 0.978752 0.204382
vn 0.0149927 0.978208 0.207086
vn 0.0144975 0.978212 0.207104
vn 0.0150025 0.978212 0.207067
vn 0.0149883 0.978205 0.2071
vn 0.998813 0 -0.0487035
vn 0.99882 8.12484e-05 -0.0485746
vn 0.998816 0 -0.0486387
vn 0 -1 -6.12345e-17
vn 0.997401 0 -0.0720549
vn 0.997401 0 -0.0720549
vn 0.997559 0 -0.0698289
vn 0.997559 0 -0.0698289
vn -0.0719523 0 -0.997408
vn -0.0721037 -3.32894e-05 -0.997397
vn -0.0719523 0.000185028 -0.997408
vn -0.0721037 -0 -0.997397
vn -0.0808152 -0 -0.996729
vn -0.0720043 0 -0.997404
vn -0.0727679 -0.000746055 -0.997349
vn -0.0720044 0.000150597 -0.997404
vn -0.072768 6.107e-17 -0.997349
vn -0.997376 -4.43262e-18 0.0723902
vn -0.997386 2.28509e-05 0.0722548
vn -0.997388 3.61836e-05 0.0722336
vn -0.997376 -0.000197562 0.0723902
vn -0.997387 0 0.0722402
vn -2.97348e-19 -1 -6.11979e-17
vn 0.0720252 -0 0.997403
vn 0.0722631 0 0.997386
vn 0.0698285 -0.00354483 0.997553
vn 0.0722631 6.86602e-05 0.997386
vn 0.0698289 0 0.997559
vn -6.30738e-25 -1 -6.12323e-17
vn 6.20241e-24 -1 -6.12323e-17
vn 0 -1 -6.12323e-17
vn 0 -1 -6.12323e-17
vn -4.01572e-24 -1 -6.12323e-17
vn 0.0162744 0.974138 0.225367
vn 0.0162744 0.974138 0.225367
vn -0.997396 0 0.0721162
vn -0.997396 0 0.0721162
vn 0.0720253 -0 0.997403
vn 0.997396 0 -0.0721162
vn -0.0720252 0 -0.997403
vn -3.39539e-24 -1 -6.12323e-17
vn -1.08652e-23 -1 -6.12323e-17

# Mesh 'defaultobject' with 69 faces
g defaultobject
usemtl DefaultMaterial
f  1//1 2//1 3//1
f  2//2 1//2 4//2
f  4//3 1//3 5//3
f  5//4 1//4 6//4
f  6//5 1//5 7//5
f  8//6 9//6 10//6
f  9//7 8//7 11//7
f  9//8 11//8 4//3
f  4//9 11//9 2//9
f  12//10 5//10 13//10
f  5//11 12//11 14//11
f  5//12 14//12 4//12
f  4//13 14//13 15//13
f  4//14 15//14 16//14
f  4//15 16//15 9//15
f  17//16 9//16 16//16
f  9//17 17//17 10//17
f  10//18 17//18 18//18
f  18//19 17//19 19//19
f  20//20 3//20 2//20
f  3//20 20//20 21//21
f  12//22 22//22 14//22
f  22//22 12//22 23//23
f  18//24 8//24 10//24
f  8//25 18//25 11//25
f  11//26 18//26 24//26
f  11//27 24//27 25//27
f  11//28 25//28 2//28
f  2//28 25//28 20//28
f  21//29 1//29 3//29
f  1//30 21//30 7//30
f  7//31 21//31 26//31
f  7//32 26//32 27//32
f  27//33 6//33 7//33
f  6//34 27//34 5//34
f  5//35 27//35 13//35
f  13//36 27//36 28//36
f  13//37 28//37 29//37
f  29//38 28//38 30//38
f  29//39 12//39 13//39
f  12//39 29//39 23//39
f  15//40 17//40 16//40
f  17//41 15//41 14//41
f  17//42 14//42 31//42
f  31//43 14//43 22//43
f  24//44 22//44 20//44
f  22//44 24//44 31//45
f  31//45 24//44 17//19
f  17//19 24//44 19//19
f  19//19 24//44 18//19
f  26//46 28//38 27//46
f  28//38 26//46 30//38
f  30//38 26//46 21//47
f  30//38 21//47 29//38
f  29//38 21//47 22//44
f  29//38 22//44 23//48
f  22//44 21//47 20//44
f  32//49 33//49 34//49
f  33//49 32//49 35//50
f  29//51 33//51 35//51
f  33//51 29//51 36//52
f  36//53 34//53 33//53
f  34//53 36//53 37//53
f  34//54 23//54 32//54
f  23//54 34//54 37//54
f  23//55 35//55 32//55
f  35//55 23//55 29//55
f  23//48 36//56 29//38
f  36//56 23//48 37//57

