# {"id":"ID_2698","idOriginal":"ID_2698","origin":[14.313836590956443,48.31177119722071],"elevation":253.845,"wof":[{"Id":85681677,"Name":"Oberösterreich","Placetype":"region","Offset":-1},{"Id":85898449,"Name":"Steeg","Placetype":"neighbourhood","Offset":-1},{"Id":102049853,"Name":"Linz","Placetype":"county","Offset":-1},{"Id":101748071,"Name":"Linz","Placetype":"locality","Offset":-1},{"Id":85632785,"Name":"Austria","Placetype":"country","Offset":-1}]}

# Attribution: City of Linz <http://geo.data.linz.gv.at/katalog/geodata/3d_geo_daten_lod2/>
# Longitude: 14.313836590956443
# Latitude: 48.31177119722071
# Elevation: 253.845

# File produced by Open Asset Import Library (http://www.assimp.sf.net)
# (assimp v3.1.0)


# 24 vertex positions
v  1.49 6.045 4.596
v  49.378 5.168 -4.59
v  47.516 6.045 -10.33
v  3.106 5.284 9.58
v  3.351 5.168 10.336
v  2.786 5.434 8.594
v  0.217 5.445 0.67
v  13.418 5.343 -4.351
v  0 5.343 3.27164e-16
v  45.655 5.168 -16.069
v  46.686 5.654 -12.89
v  13.047 5.168 -5.495
v  0 0 0
v  0.217 -4.10257e-17 0.67
v  1.49 -2.81424e-16 4.596
v  2.786 -5.26231e-16 8.594
v  3.106 -5.86606e-16 9.58
v  3.351 -6.32897e-16 10.336
v  13.418 2.66422e-16 -4.351
v  13.047 3.36472e-16 -5.495
v  49.378 2.81056e-16 -4.59
v  47.516 6.3253e-16 -10.33
v  46.686 7.89285e-16 -12.89
v  45.655 9.83942e-16 -16.069

# 0 UV coordinates

# 39 vertex normals
vn 0.0443659 0.989604 0.136807
vn 0.04435 0.989616 0.136723
vn 0.0445542 0.989514 0.137391
vn -0.825849 0.45224 0.336827
vn -0.0442128 0.989674 -0.136347
vn -0.044401 0.989597 -0.136841
vn -0.0443586 0.989607 -0.136785
vn -0.0443677 0.989599 -0.136837
vn -0.811449 0.55663 0.178084
vn -0.0444172 0.989578 -0.136973
vn -0.951347 -1.88671e-17 0.308123
vn -0.951242 -4.39016e-05 0.308446
vn -0.951347 0.000227482 0.308123
vn -0.951244 0 0.308439
vn -0.951268 0 0.308365
vn -0.951162 0 0.308693
vn -0.951289 8.10243e-05 0.3083
vn -0.951162 -6.53257e-05 0.308693
vn -0.951293 0 0.308289
vn -0.951229 0 0.308485
vn -0.951229 0 0.308485
vn 0.308473 -0 0.951233
vn 0.951204 0 -0.308561
vn 0.951204 0 -0.308561
vn 0.951253 0 -0.308413
vn 0.951227 -3.96978e-05 -0.308492
vn 0.951253 5.76673e-05 -0.308413
vn 0.951225 0 -0.308498
vn -0.308463 0 -0.951236
vn -0.308454 0 -0.951239
vn -0.308454 5.82466e-17 -0.951239
vn 2.05459e-23 -1 -6.12323e-17
vn 0 -1 -6.12323e-17
vn 0 -1 -6.12323e-17
vn -3.98163e-23 -1 -6.12324e-17
vn 7.08444e-23 -1 -6.12323e-17
vn 1.61113e-24 -1 -6.12323e-17
vn 2.87916e-25 -1 -6.12323e-17
vn -2.64024e-19 -1 -6.11217e-17

# Mesh 'defaultobject' with 44 faces
g defaultobject
usemtl DefaultMaterial
f  1//1 2//1 3//1
f  2//2 1//2 4//2
f  2//3 4//3 5//3
f  4//4 1//4 6//4
f  7//5 8//5 9//5
f  8//6 7//6 1//6
f  8//7 1//7 3//7
f  8//8 3//8 10//8
f  10//9 3//9 11//9
f  10//10 12//10 8//10
f  13//11 7//11 9//11
f  7//12 13//12 1//12
f  1//13 13//13 14//13
f  1//14 14//14 15//14
f  1//15 15//15 6//15
f  6//15 15//15 16//15
f  6//16 16//16 4//16
f  4//17 16//17 5//17
f  5//18 16//18 17//18
f  5//19 17//19 18//19
f  12//20 19//20 8//20
f  19//20 12//20 20//21
f  18//22 2//22 5//22
f  2//22 18//22 21//22
f  21//23 3//23 2//23
f  3//23 21//23 22//24
f  3//25 22//25 11//25
f  11//26 22//26 10//26
f  10//27 22//27 23//27
f  10//28 23//28 24//28
f  24//29 12//29 10//29
f  12//29 24//29 20//29
f  19//30 9//30 8//30
f  9//30 19//30 13//31
f  24//32 19//32 20//32
f  19//32 14//33 13//33
f  14//33 19//32 15//34
f  15//34 19//32 16//34
f  16//34 19//32 17//35
f  17//35 19//32 18//36
f  18//36 19//32 21//37
f  21//37 19//32 22//38
f  22//38 19//32 24//32
f  22//38 24//32 23//39

