# {"id":"ID_37880","idOriginal":"ID_37880","origin":[14.291697032180618,48.347192085433015],"elevation":300.724,"wof":[{"Id":102049853,"Name":"Linz","Placetype":"county","Offset":-1},{"Id":85632785,"Name":"Austria","Placetype":"country","Offset":-1},{"Id":101748071,"Name":"Linz","Placetype":"locality","Offset":-1},{"Id":85681677,"Name":"Oberösterreich","Placetype":"region","Offset":-1},{"Id":85898453,"Name":"Urfahr","Placetype":"neighbourhood","Offset":-1}]}

# Attribution: City of Linz <http://geo.data.linz.gv.at/katalog/geodata/3d_geo_daten_lod2/>
# Longitude: 14.291697032180618
# Latitude: 48.347192085433015
# Elevation: 300.724

# File produced by Open Asset Import Library (http://www.assimp.sf.net)
# (assimp v3.1.0)


# 22 vertex positions
v  8.849 4.795 0.969
v  4.908 7.531 -3.417
v  4.444 7.531 0.486
v  9.281 4.767 -2.271
v  0.424 4.771 -3.566
v  4.341 7.172 -3.566
v  0.542 4.771 -4.562
v  0.07 4.771 -0.589
v  0.378 5.005 0.041
v  0 4.771 2.92139e-16
v  3.98 7.242 0.436
v  0.542 2.79342e-16 -4.562
v  0.424 2.18355e-16 -3.566
v  0.07 3.60658e-17 -0.589
v  0 0 0
v  0.378 -2.51053e-18 0.041
v  3.98 -2.66973e-17 0.436
v  4.444 -2.97589e-17 0.486
v  8.849 -5.93341e-17 0.969
v  9.281 1.39059e-16 -2.271
v  4.908 2.09231e-16 -3.417
v  4.341 2.18355e-16 -3.566

# 0 UV coordinates

# 40 vertex normals
vn 0.52169 0.850878 0.06202
vn 0.521554 0.850949 0.0621868
vn -0.521604 0.850947 -0.0617965
vn -0.521486 0.850753 -0.0653584
vn -0.521678 0.850885 -0.0620185
vn -0.521668 0.850891 -0.0620322
vn -0.521913 0.850825 -0.0608637
vn -0.520488 0.851626 -0.0618576
vn -0.46583 0.642677 0.60825
vn -0.993055 0 -0.117651
vn -0.993004 9.07446e-05 -0.11808
vn -0.993012 3.60485e-05 -0.118015
vn -0.993055 -0.00031681 -0.117651
vn -0.993004 8.10934e-06 -0.11808
vn -0.993012 7.22633e-18 -0.118015
vn -0.107833 -6.08753e-17 0.994169
vn -0.109066 9.41817e-05 0.994034
vn -0.106223 -0.00148654 0.994341
vn -0.108919 0.000123281 0.994051
vn -0.107833 -0.0019051 0.994167
vn -0.109008 0.000195042 0.994041
vn -0.107138 -0.00172579 0.994243
vn -0.108995 0 0.994042
vn 0.991228 -0 0.132164
vn 0.991228 0 0.132164
vn 0.253502 0 -0.967335
vn 0.253981 0.000297235 -0.967209
vn 0.253595 1.3198e-05 -0.96731
vn 0.253502 -0.000169085 -0.967335
vn 0.254157 0.000471381 -0.967163
vn 0.253603 0 -0.967308
vn -4.56979e-25 -1 -6.12323e-17
vn 1.504e-24 -1 -6.12323e-17
vn -5.77252e-23 -1 -6.12323e-17
vn 3.71634e-24 -1 -6.12323e-17
vn -2.00859e-23 -1 -6.12324e-17
vn 0 -1 -6.12323e-17
vn 0 -1 -6.12323e-17
vn -3.87741e-23 -1 -6.12323e-17
vn 0 -1 -6.12163e-17

# Mesh 'defaultobject' with 40 faces
g defaultobject
usemtl DefaultMaterial
f  1//1 2//1 3//1
f  2//2 1//2 4//2
f  5//3 6//3 7//3
f  6//4 5//4 2//4
f  2//5 5//5 3//5
f  3//6 5//6 8//6
f  3//7 8//7 9//7
f  9//8 8//8 10//8
f  3//9 9//9 11//9
f  12//10 5//10 7//10
f  5//11 12//11 8//11
f  8//12 12//12 10//12
f  10//13 12//13 13//13
f  10//14 13//14 14//14
f  10//15 14//15 15//15
f  15//16 9//16 10//16
f  9//17 15//17 11//17
f  11//18 15//18 3//18
f  3//19 15//19 1//19
f  1//20 15//20 16//20
f  1//21 16//21 17//21
f  1//22 17//22 18//22
f  1//23 18//23 19//23
f  19//24 4//24 1//24
f  4//24 19//24 20//25
f  20//26 2//26 4//26
f  2//27 20//27 6//27
f  6//28 20//28 7//28
f  7//29 20//29 21//29
f  7//30 21//30 22//30
f  7//31 22//31 12//31
f  18//32 20//32 19//32
f  20//32 18//32 21//33
f  21//33 18//32 17//34
f  21//33 17//34 16//35
f  21//33 16//35 22//36
f  22//36 16//35 12//37
f  12//37 16//35 13//38
f  13//38 16//35 15//39
f  13//38 15//39 14//40

