# File produced by Open Asset Import Library (http://www.assimp.sf.net)
# (assimp v3.1.0)

mtllib ID_19383.obj.mtl

# 18 vertex positions
v  12.474 4.658 -3.707
v  1.825 7.528 5.249
v  14.12 7.528 1.028
v  12.297 4.346 -4.221
v  7.301 4.346 -2.506
v  0 4.346 2.66116e-16
v  3.649 4.346 10.498
v  15.943 4.346 6.278
v  15.754 4.679 5.729
v  0 0 0
v  1.825 -3.21409e-16 5.249
v  3.649 -6.42817e-16 10.498
v  15.943 -3.84417e-16 6.278
v  15.754 -3.508e-16 5.729
v  14.12 -6.29468e-17 1.028
v  12.474 2.26988e-16 -3.707
v  12.297 2.58462e-16 -4.221
v  7.301 1.53448e-16 -2.506

# 0 UV coordinates

# 29 vertex normals
vn -0.161333 0.867834 -0.469932
vn -0.162075 0.867308 -0.470647
vn -0.161338 0.867798 -0.469996
vn -0.161318 0.867807 -0.469986
vn 0.161355 0.867795 0.469997
vn 0.161319 0.867819 0.469965
vn -0.128496 0.827679 0.546294
vn -0.944538 -2.01088e-17 0.328402
vn -0.944577 8.82122e-05 0.328289
vn -0.944538 -0.000217336 0.328402
vn -0.944594 0 0.328241
vn 0.324663 -0 0.94583
vn 0.945538 0 -0.325513
vn 0.944493 -0.000396434 -0.328532
vn 0.94459 -0.000178718 -0.328254
vn 0.945518 0.00640204 -0.325507
vn 0.944567 3.69419e-05 -0.328318
vn 0.944556 0 -0.32835
vn 0.94551 0 -0.325594
vn 0.94551 0 -0.325594
vn -0.324649 0 -0.945835
vn -0.324678 0 -0.945825
vn -2.46825e-24 -1 -6.12323e-17
vn 4.9374e-24 -1 -6.12323e-17
vn -4.39759e-24 -1 -6.12323e-17
vn 7.58736e-24 -1 -6.12323e-17
vn 8.06584e-24 -1 -6.12323e-17
vn 2.20676e-20 -1 -6.12377e-17
vn -3.08652e-21 -1 -6.12313e-17

# Mesh 'defaultobject' with 32 faces
g defaultobject
usemtl DefaultMaterial
f  1//1 2//1 3//1
f  2//2 1//2 4//2
f  2//3 4//3 5//3
f  2//4 5//4 6//4
f  7//5 3//5 2//5
f  3//6 7//6 8//6
f  3//7 8//7 9//7
f  10//8 2//8 6//8
f  2//9 10//9 7//9
f  7//10 10//10 11//10
f  7//11 11//11 12//11
f  12//12 8//12 7//12
f  8//12 12//12 13//12
f  13//13 9//13 8//13
f  9//14 13//14 3//14
f  3//15 13//15 1//15
f  1//16 13//16 14//16
f  1//17 14//17 15//17
f  1//18 15//18 16//18
f  1//19 16//19 4//19
f  4//19 16//19 17//20
f  5//21 10//21 6//21
f  10//21 5//21 18//21
f  18//22 5//22 4//22
f  18//22 4//22 17//22
f  18//23 11//23 10//23
f  11//23 18//23 12//24
f  12//24 18//23 13//25
f  13//25 18//23 16//26
f  16//26 18//23 17//27
f  13//25 16//26 15//28
f  13//25 15//28 14//29

