# File produced by Open Asset Import Library (http://www.assimp.sf.net)
# (assimp v3.1.0)

mtllib ID_3596.obj.mtl

# 96 vertex positions
v  17.349 9.543 13.027
v  19.053 8.704 12.25
v  19.008 8.703 12.16
v  28.977 6.782 21.678
v  22.639 6.888 10.378
v  23.565 9.557 24.667
v  12.032 6.794 16.069
v  11.922 6.795 15.86
v  18.344 6.88 27.55
v  19.053 -7.50096e-16 12.25
v  22.639 -6.35469e-16 10.378
v  19.008 -7.44585e-16 12.16
v  11.922 -9.71145e-16 15.86
v  17.349 -7.97674e-16 13.027
v  18.344 -1.68695e-15 27.55
v  12.032 -9.83942e-16 16.069
v  23.565 -1.51042e-15 24.667
v  28.977 -1.32739e-15 21.678
v  19.008 3.65 12.16
v  13.844 3.955 6.463
v  17.349 3.958 13.027
v  15.684 3.614 5.503
v  8.49 2.958 9.303
v  8.36 2.938 9.326
v  11.922 2.951 15.86
v  7.144 2.706 10.041
v  7.112 2.706 9.977
v  8.38 2.938 9.364
v  7.112 -6.10915e-16 9.977
v  7.144 -6.14834e-16 10.041
v  8.49 -5.69644e-16 9.303
v  8.38 -5.7338e-16 9.364
v  15.684 -3.36962e-16 5.503
v  13.844 -3.95745e-16 6.463
v  8.36 -5.71053e-16 9.326
v  15.684 3.121 5.503
v  15.54 3.12 5.215
v  13.844 3.491 6.463
v  15.147 3.199 5.421
v  14.019 3.183 3.151
v  12.485 3.489 3.918
v  8.36 2.389 9.326
v  6.961 2.388 6.677
v  12.031 2.511 -9.573
v  13.981 5.846 3.074
v  17.595 2.664 1.161
v  12.485 7.175 3.918
v  9.556 7.175 -1.567
v  14.019 5.848 3.151
v  3.205 2.559 -5.094
v  12.004 2.465 -9.626
v  3.68 3.528 -3.924
v  4.059 7.175 1.179
v  1.812 3.468 -3.078
v  0.755 3.435 -2.599
v  1.723 7.175 2.346
v  0 4.965 3.04019e-16
v  1.178 6.844 2.138
v  3.318 6.206 2.956
v  5.279 3.239 6.283
v  5.039 3.265 6.364
v  5.77 2.388 7.272
v  7.112 2.388 9.977
v  13.981 -1.88228e-16 3.074
v  17.595 -7.10907e-17 1.161
v  15.54 -3.19327e-16 5.215
v  15.147 -3.31941e-16 5.421
v  14.019 -1.92943e-16 3.151
v  12.031 5.86177e-16 -9.573
v  12.004 5.89422e-16 -9.626
v  3.205 3.11918e-16 -5.094
v  3.68 2.40276e-16 -3.924
v  0.755 1.59143e-16 -2.599
v  1.812 1.88473e-16 -3.078
v  0 0 0
v  1.178 -1.30915e-16 2.138
v  3.318 -1.81003e-16 2.956
v  5.039 -3.89683e-16 6.364
v  5.279 -3.84723e-16 6.283
v  5.77 -4.45282e-16 7.272
v  1.723 -1.43651e-16 2.346
v  18.344 4.117 27.55
v  19.264 4.117 27.208
v  23.565 4.117 24.667
v  18.445 4.117 27.734
v  21.541 4.117 31.68
v  26.007 4.117 23.478
v  28.357 4.117 27.916
v  28.977 4.117 21.678
v  29.088 4.117 21.875
v  21.541 -1.93984e-15 31.68
v  28.357 -1.70936e-15 27.916
v  26.007 -1.43761e-15 23.478
v  29.088 -1.33946e-15 21.875
v  18.445 -1.69822e-15 27.734
v  19.264 -1.66601e-15 27.208

# 0 UV coordinates

# 149 vertex normals
vn 0.362046 0.912348 -0.191164
vn 0.360812 0.912277 -0.193816
vn 0.360806 0.912281 -0.19381
vn 0.360773 0.912305 -0.193758
vn -0.360595 0.912292 0.194151
vn -0.361761 0.912267 0.19209
vn -0.361726 0.912292 0.192035
vn -0.462769 0 -0.886479
vn -0.462965 0.000512467 -0.886376
vn -0.462857 0 -0.886433
vn -0.462857 -0 -0.886433
vn 3.01254e-20 -1 -6.11747e-17
vn -0.876298 0 0.481769
vn -0.884919 0 0.465744
vn 0.483392 -0 0.875404
vn 0.483444 -3.68044e-05 0.875376
vn 0.483392 6.8799e-05 0.875404
vn 0.483458 0 0.875368
vn 0.872177 0 -0.489191
vn 0.872177 0 -0.489191
vn 0.894427 0 -0.447214
vn -8.08445e-24 -1 -6.12323e-17
vn 1.81019e-23 -1 -6.12324e-17
vn -7.98377e-24 -1 -6.12323e-17
vn 1.14142e-19 -1 -6.1028e-17
vn 0.143039 0.98673 -0.0768299
vn 0.14287 0.986767 -0.0766745
vn -0.135803 0.986609 0.0903378
vn -0.14338 0.986738 0.0760997
vn -0.143366 0.986739 0.0761027
vn -0.145479 0.986684 0.0727394
vn -0.143764 0.986715 0.0756665
vn -0.138993 0.987588 0.0731559
vn -0.894427 0 0.447214
vn -0.885977 0 0.463729
vn -0.885977 0 0.463729
vn 0.484968 0 0.874532
vn 0.480425 -0.0002221 0.877036
vn 0.484966 0.00272081 0.874529
vn 0.480393 0 0.877054
vn 0.462761 -0 0.886483
vn 0.462761 0 0.886483
vn 0.463169 0 0.88627
vn 0.894669 0 -0.44673
vn 0.894669 0 -0.44673
vn -0.462566 0 -0.886585
vn -0.462566 -0 -0.886585
vn -0.462793 -0 -0.886467
vn -0.462793 -0 -0.886467
vn -0.462493 -0 -0.886623
vn -0.462493 -0 -0.886623
vn -2.66107e-23 -1 -6.12323e-17
vn 1.71408e-23 -1 -6.12323e-17
vn -1.6524e-23 -1 -6.12323e-17
vn 2.1515e-22 -1 -6.1232e-17
vn 8.0779e-23 -1 -6.12328e-17
vn -1.74299e-22 -1 -6.12327e-17
vn -1.64279e-22 -1 -6.12327e-17
vn 0.155592 0.984477 -0.0812151
vn 0.154676 0.984517 -0.0824728
vn 0.153922 0.984555 -0.0834258
vn 0.154687 0.984439 -0.0833747
vn -0.155021 0.984502 0.082006
vn -0.155409 0.984466 0.0817034
vn 0.540579 0.789193 -0.29146
vn 0.538108 0.790858 -0.291518
vn 0.543941 0.787247 -0.290465
vn 0.540465 0.790808 -0.287262
vn -0.273422 0.791039 -0.547263
vn -0.272697 0.792267 -0.545848
vn -0.273038 0.792427 -0.545444
vn -0.272712 0.792211 -0.545921
vn -0.272691 0.792215 -0.545926
vn -0.272236 0.79221 -0.546161
vn -0.272685 0.792278 -0.545837
vn -0.273113 0.79222 -0.545708
vn -0.272773 0.792186 -0.545927
vn 0.272646 0.792345 0.545759
vn 0.27263 0.792353 0.545756
vn 0.272733 0.792237 0.545873
vn 0.273049 0.792298 0.545626
vn 0.270455 0.792196 0.547065
vn 0.272817 0.792056 0.546093
vn -0.000636502 1 0.00031578
vn -0.000149211 1 -0.000298672
vn -0.540594 0.790204 0.288678
vn 0.446825 -0 0.894621
vn 0.447214 0 0.894427
vn 0.462493 -0 0.886623
vn 0.462493 0 0.886623
vn 0.462793 0 0.886467
vn 0.462566 0 0.886585
vn 0.462566 0 0.886585
vn 0.467832 -0 0.883818
vn 0.467832 0 0.883818
vn 0.894427 0 -0.447214
vn 0.895529 0 -0.445003
vn 0.896744 0 -0.442549
vn 0.895569 7.14411e-05 -0.444923
vn -8.60584e-20 -1 -6.11903e-17
vn 0.887815 0 -0.460201
vn 0.891038 0 -0.453928
vn 0.891038 0 -0.453928
vn -0.46426 0 -0.885699
vn -0.457891 0 -0.889008
vn -0.457891 0 -0.889008
vn -0.412553 0 -0.910933
vn -0.41276 -0.000134454 -0.91084
vn -0.412629 -0 -0.910899
vn 0 1 6.12234e-17
vn -0.926553 0 0.376165
vn -0.926553 0 0.376165
vn -0.960302 0 -0.278964
vn -0.960302 0 -0.278964
vn -0.875852 0 0.482579
vn -0.875852 0 0.482579
vn -0.892639 0 0.450772
vn -0.892639 0 0.450772
vn -0.895691 0 0.444676
vn -0.895814 0.00012728 0.44443
vn -0.895781 0 0.444496
vn -1.73022e-19 -1 -6.11344e-17
vn -0.356889 0.000610389 0.934147
vn -0.357048 0 0.934086
vn -0.357048 0 0.934086
vn -4.79454e-21 -1 -6.12167e-17
vn 0.319778 -0 0.947492
vn 0.319778 0 0.947492
vn 2.14172e-24 -1 -6.12323e-17
vn -8.50603e-24 -1 -6.12323e-17
vn -4.13142e-24 -1 -6.12323e-17
vn 2.31625e-23 -1 -6.12323e-17
vn 0 -1 -6.12323e-17
vn 0 -1 -6.12323e-17
vn 0 1 0
vn 0.483417 -0 0.87539
vn 0.461552 -0 0.887113
vn 0.540393 -0 0.841413
vn 0.883749 0 -0.467961
vn 0.871221 0 -0.49089
vn -0.483458 0 -0.875368
vn -0.483392 -0 -0.875404
vn -0.876618 0 0.481186
vn -0.891135 0 0.453738
vn 4.38414e-22 -1 -6.12315e-17
vn 7.7671e-24 -1 -6.12323e-17
vn -2.63497e-24 -1 -6.12323e-17
vn -3.38543e-23 -1 -6.12323e-17
vn 1.82626e-22 -1 -6.12322e-17

# Mesh 'defaultobject' with 195 faces
g defaultobject
usemtl DefaultMaterial
f  1//1 2//1 3//1
f  2//2 4//2 5//2
f  4//2 2//2 1//3
f  4//4 1//4 6//4
f  7//5 1//5 8//5
f  1//6 7//6 6//6
f  6//7 7//7 9//7
f  5//8 10//8 2//8
f  10//8 5//8 11//8
f  3//9 8//9 1//9
f  8//10 3//10 12//10
f  8//10 12//10 13//11
f  13//12 12//12 14//12
f  7//13 15//13 9//13
f  15//13 7//13 16//13
f  13//14 7//14 8//14
f  7//14 13//14 16//14
f  15//15 6//15 9//15
f  6//16 15//16 4//16
f  4//17 15//17 17//17
f  4//18 17//18 18//18
f  4//19 11//19 5//19
f  11//19 4//19 18//20
f  10//21 3//21 2//21
f  3//21 10//21 12//21
f  18//22 10//22 11//22
f  10//22 18//22 14//12
f  14//12 18//22 13//12
f  13//12 18//22 16//23
f  16//23 18//22 15//24
f  15//24 18//22 17//25
f  14//12 12//12 10//22
f  19//26 20//26 21//26
f  20//27 19//27 22//27
f  23//28 20//28 24//28
f  20//29 23//29 25//29
f  20//30 25//30 21//30
f  26//31 24//31 27//31
f  24//32 26//32 28//32
f  24//33 28//33 23//33
f  29//34 26//34 27//34
f  26//34 29//34 30//34
f  31//35 25//35 23//35
f  25//35 31//35 13//36
f  28//37 31//37 23//37
f  31//38 28//38 26//38
f  31//39 26//39 32//39
f  32//40 26//40 30//40
f  13//41 21//41 25//41
f  21//41 13//41 14//42
f  21//43 14//43 19//43
f  19//43 14//43 12//43
f  12//44 22//44 19//44
f  22//44 12//44 33//45
f  33//46 20//46 22//46
f  20//46 33//46 34//47
f  20//48 34//48 24//48
f  24//48 34//48 35//49
f  24//50 35//50 27//50
f  27//50 35//50 29//51
f  14//12 33//52 12//12
f  33//52 14//12 34//53
f  34//53 14//12 13//12
f  34//53 13//12 31//54
f  34//53 31//54 35//55
f  35//55 31//54 32//56
f  35//55 32//56 30//57
f  35//55 30//57 29//58
f  36//59 37//59 38//59
f  39//60 38//60 37//60
f  40//61 38//61 39//61
f  41//62 38//62 40//62
f  41//63 42//63 38//63
f  42//64 41//64 43//64
f  44//65 45//65 46//65
f  45//66 44//66 47//66
f  47//67 44//67 48//67
f  47//68 49//68 45//68
f  50//69 44//69 51//69
f  44//70 50//70 48//70
f  48//71 50//71 52//71
f  48//72 52//72 53//72
f  53//73 52//73 54//73
f  53//74 54//74 55//74
f  53//75 55//75 56//75
f  56//76 55//76 57//76
f  56//77 57//77 58//77
f  59//78 53//78 56//78
f  53//79 59//79 48//79
f  48//80 59//80 43//80
f  43//81 59//81 60//81
f  60//82 59//82 61//82
f  43//83 60//83 62//83
f  42//84 62//84 63//84
f  62//85 42//85 43//85
f  47//86 48//86 43//86
f  41//87 47//87 43//87
f  47//88 41//88 40//88
f  47//88 40//88 49//88
f  29//89 42//89 63//89
f  42//89 29//89 35//90
f  42//91 35//91 38//91
f  38//91 35//91 34//91
f  38//92 34//92 36//92
f  36//92 34//92 33//93
f  64//94 46//94 45//94
f  46//94 64//94 65//95
f  33//21 37//21 36//21
f  37//21 33//21 66//96
f  67//97 40//97 39//97
f  40//98 64//98 45//98
f  64//99 40//99 67//99
f  64//100 67//100 68//100
f  65//101 44//101 46//101
f  44//101 65//101 69//101
f  44//102 69//102 51//102
f  51//102 69//102 70//103
f  37//104 67//104 39//104
f  67//104 37//104 66//104
f  51//105 71//105 50//105
f  71//105 51//105 70//106
f  72//107 54//107 52//107
f  54//108 72//108 55//108
f  55//109 72//109 73//109
f  73//110 72//110 74//110
f  50//111 72//111 52//111
f  72//111 50//111 71//112
f  55//113 75//113 57//113
f  75//113 55//113 73//114
f  57//115 76//115 58//115
f  76//115 57//115 75//116
f  77//117 61//117 59//117
f  61//117 77//117 78//118
f  79//119 62//119 60//119
f  62//120 79//120 63//120
f  63//121 79//121 29//121
f  29//58 79//122 80//122
f  58//123 59//123 56//123
f  59//124 58//124 76//124
f  59//124 76//124 77//125
f  77//126 76//126 81//126
f  78//127 60//127 61//127
f  60//127 78//127 79//128
f  65//129 64//100 69//129
f  70//130 72//130 71//130
f  72//130 70//130 77//126
f  77//126 70//130 78//131
f  78//131 70//130 79//122
f  79//122 70//130 80//122
f  80//122 70//130 29//58
f  29//58 70//130 35//55
f  35//55 70//130 34//53
f  34//53 70//130 69//129
f  34//53 69//129 64//100
f  34//53 64//100 68//100
f  34//53 68//100 67//100
f  34//53 67//100 33//52
f  33//52 67//100 66//132
f  73//133 76//126 75//133
f  76//126 73//133 74//134
f  76//126 74//134 81//126
f  81//126 74//134 72//130
f  81//126 72//130 77//126
f  82//135 83//135 84//135
f  83//135 82//135 85//135
f  84//135 83//135 86//135
f  84//135 86//135 87//135
f  87//135 86//135 88//135
f  87//135 89//135 84//135
f  89//135 87//135 90//135
f  91//136 88//136 86//136
f  88//136 91//136 92//136
f  93//137 90//137 87//137
f  90//137 93//137 94//137
f  95//138 83//138 85//138
f  83//138 95//138 96//138
f  92//139 87//139 88//139
f  87//139 92//139 93//139
f  94//140 89//140 90//140
f  89//140 94//140 18//140
f  18//141 84//141 89//141
f  84//141 18//141 17//141
f  84//142 17//142 82//142
f  82//142 17//142 15//142
f  15//143 85//143 82//143
f  85//143 15//143 95//143
f  96//144 86//144 83//144
f  86//144 96//144 91//144
f  93//145 18//22 94//145
f  18//22 93//145 17//25
f  17//25 93//145 92//146
f  17//25 92//146 91//147
f  17//25 91//147 96//148
f  96//148 15//24 17//25
f  15//24 96//148 95//149

