# File produced by Open Asset Import Library (http://www.assimp.sf.net)
# (assimp v3.1.0)

mtllib ID_38563.obj.mtl

# 8 vertex positions
v  5.176 2.656 -0.448
v  0.552 2.656 6.383
v  5.751 2.656 5.933
v  0 2.656 1.62633e-16
v  5.751 -3.63291e-16 5.933
v  5.176 2.74321e-17 -0.448
v  0 0 0
v  0.552 -3.90846e-16 6.383

# 0 UV coordinates

# 9 vertex normals
vn 0 1 -0
vn 0.995965 0 -0.0897476
vn -0.0862309 0 -0.996275
vn -0.0862309 6.10043e-17 -0.996275
vn -0.996282 -5.27566e-18 0.0861581
vn -0.996282 0 0.0861581
vn 0.0862327 -0 0.996275
vn -7.91713e-25 -1 -6.12323e-17
vn 0 -1 -6.12323e-17

# Mesh 'defaultobject' with 12 faces
g defaultobject
usemtl DefaultMaterial
f  1//1 2//1 3//1
f  2//1 1//1 4//1
f  5//2 1//2 3//2
f  1//2 5//2 6//2
f  6//3 4//3 1//3
f  4//3 6//3 7//4
f  7//5 2//5 4//5
f  2//5 7//5 8//6
f  8//7 3//7 2//7
f  3//7 8//7 5//7
f  8//8 6//8 5//8
f  6//8 8//8 7//9

