# File produced by Open Asset Import Library (http://www.assimp.sf.net)
# (assimp v3.1.0)

mtllib ID_35368.obj.mtl

# 18 vertex positions
v  8.78 2.992 -0.515
v  4.641 3.394 -0.054
v  9.235 2.992 -0.061
v  4.633 2.992 -4.648
v  7.035 2.992 2.146
v  4.601 2.992 4.587
v  4.594 3.394 -0.007
v  4.266 2.992 -4.28
v  0 2.992 1.83207e-16
v  2.153 2.992 2.146
v  4.601 -2.80873e-16 4.587
v  7.035 -1.31405e-16 2.146
v  9.235 3.73517e-18 -0.061
v  4.633 2.84608e-16 -4.648
v  8.78 3.15347e-17 -0.515
v  0 0 0
v  4.266 2.62074e-16 -4.28
v  2.153 -1.31405e-16 2.146

# 0 UV coordinates

# 28 vertex normals
vn 0.0867111 0.992436 -0.0869021
vn 0.0867002 0.992429 -0.0869939
vn 0.0869752 0.992431 0.0866993
vn 0.0869625 0.992431 0.0867131
vn 0.0867128 0.992452 0.0867128
vn -0.0869282 0.992435 -0.0866921
vn -0.0869724 0.992432 -0.0866879
vn -0.0869735 0.992407 -0.0869734
vn -0.0867103 0.992428 0.0869931
vn -0.0867263 0.992428 0.086975
vn 0.708121 -0 0.706091
vn 0.708229 0 0.705983
vn 0.706329 0 -0.707884
vn 0.70591 -0.000126915 -0.708301
vn 0.705952 0 -0.70826
vn 0 1 6.12767e-17
vn -0.708068 0 -0.706145
vn -0.708264 -4.83681e-05 -0.705947
vn -0.708249 4.32278e-17 -0.705963
vn 0 1 6.10744e-17
vn -0.706094 0 0.708118
vn -0.705954 0 0.708257
vn -1.32152e-23 -1 -6.12324e-17
vn 2.90123e-24 -1 -6.12323e-17
vn 0 -1 -6.12323e-17
vn 0 -1 -6.12323e-17
vn 5.02349e-23 -1 -6.12323e-17
vn -5.7638e-24 -1 -6.12323e-17

# Mesh 'defaultobject' with 32 faces
g defaultobject
usemtl DefaultMaterial
f  1//1 2//1 3//1
f  2//2 1//2 4//2
f  2//3 5//3 3//3
f  5//4 2//4 6//4
f  6//5 2//5 7//5
f  8//6 2//6 4//6
f  2//7 8//7 9//7
f  2//8 9//8 7//8
f  10//9 7//9 9//9
f  7//10 10//10 6//10
f  11//11 5//11 6//11
f  5//11 11//11 12//11
f  5//12 12//12 3//12
f  3//12 12//12 13//12
f  13//13 1//13 3//13
f  1//14 13//14 4//14
f  4//15 13//15 14//15
f  14//16 13//16 15//16
f  14//17 8//17 4//17
f  8//18 14//18 9//18
f  9//19 14//19 16//19
f  16//20 14//16 17//20
f  10//21 11//21 6//21
f  11//21 10//21 18//21
f  18//22 10//22 9//22
f  18//22 9//22 16//22
f  12//23 15//23 13//23
f  15//23 12//23 14//24
f  14//24 12//23 11//25
f  14//24 11//25 18//26
f  14//24 18//26 17//27
f  17//27 18//26 16//28

