# File produced by Open Asset Import Library (http://www.assimp.sf.net)
# (assimp v3.1.0)

mtllib ID_46391.obj.mtl

# 20 vertex positions
v  5.125 3.383 1.332
v  2.412 1.826 3.156
v  2.518 1.825 3.298
v  4.14 3.366 0.098
v  0.298 1.823 0.395
v  5.602 4.22 -0.935
v  4.424 4.267 -2.642
v  0 1.825 1.11749e-16
v  4.088 4.267 -3.082
v  4.109 4.28 -3.098
v  5.125 -8.15615e-17 1.332
v  2.518 -2.01944e-16 3.298
v  5.602 5.72522e-17 -0.935
v  4.14 -6.00077e-18 0.098
v  4.109 1.89698e-16 -3.098
v  4.424 1.61776e-16 -2.642
v  0 0 0
v  4.088 1.88718e-16 -3.082
v  0.298 -2.41868e-17 0.395
v  2.412 -1.93249e-16 3.156

# 0 UV coordinates

# 33 vertex normals
vn -0.34203 0.90252 0.261674
vn -0.342516 0.90254 0.260969
vn -0.342304 0.90258 0.261109
vn -0.342196 0.902435 0.261751
vn -0.342396 0.902537 0.261138
vn -0.341566 0.902526 0.262257
vn -0.34217 0.902577 0.261293
vn -0.351092 0.897136 0.268107
vn 0.602105 0 0.798417
vn 0.602105 0 0.798417
vn 0.577056 0 0.816705
vn 0.577056 0 0.816705
vn 0.781548 0 -0.623845
vn 0.823042 0 -0.567981
vn 0.822774 -0.000229251 -0.568369
vn 0.822986 0 -0.568062
vn -1.23454e-20 1 6.12332e-17
vn -0.606037 0 -0.795437
vn -0.60201 3.1262e-05 -0.798488
vn -0.602019 4.88929e-17 -0.798482
vn 0 -1 -6.12324e-17
vn -0.798299 -3.68779e-17 0.602261
vn -0.793988 -0.00193317 0.60793
vn -0.798226 0.0135591 0.602206
vn -0.79399 0 0.60793
vn -0.801352 0 0.598193
vn -2.26374e-22 -1 -6.12322e-17
vn -1.24108e-24 -1 -6.12323e-17
vn 0 -1 -6.12323e-17
vn 1.65032e-25 -1 -6.12323e-17
vn 0 -1 -6.12323e-17
vn 4.28894e-23 -1 -6.12323e-17
vn -1.08022e-21 -1 -6.12317e-17

# Mesh 'defaultobject' with 36 faces
g defaultobject
usemtl DefaultMaterial
f  1//1 2//1 3//1
f  2//2 1//2 4//2
f  2//3 4//3 5//3
f  5//4 4//4 6//4
f  5//5 6//5 7//5
f  5//6 7//6 8//6
f  8//7 7//7 9//7
f  9//8 7//8 10//8
f  3//9 11//9 1//9
f  11//9 3//9 12//10
f  4//11 13//11 6//11
f  13//11 4//11 14//12
f  11//13 4//13 1//13
f  4//13 11//13 14//13
f  13//14 7//14 6//14
f  7//15 13//15 10//15
f  10//16 13//16 15//16
f  15//17 13//17 16//17
f  15//18 9//18 10//18
f  9//19 15//19 8//19
f  8//20 15//20 17//20
f  17//21 15//21 18//21
f  17//22 5//22 8//22
f  5//23 17//23 2//23
f  2//24 17//24 19//24
f  2//25 19//25 20//25
f  2//26 20//26 3//26
f  3//26 20//26 12//26
f  16//27 18//21 15//21
f  18//21 16//27 17//21
f  17//21 16//27 13//28
f  17//21 13//28 14//29
f  17//21 14//29 11//30
f  17//21 11//30 20//31
f  20//31 11//30 12//32
f  17//21 20//31 19//33

