# {"id":"ID_6420","idOriginal":"ID_6420","origin":[14.307343996187825,48.25435776570176],"elevation":260.226}
# Longitude: 14.307343996187825
# Latitude: 48.25435776570176
# Elevation: 260.226

# File produced by Open Asset Import Library (http://www.assimp.sf.net)
# (assimp v3.1.0)

mtllib ID_6420.obj.mtl

# 18 vertex positions
v  21.774 14.47 -13.353
v  19.217 12.659 -2.069
v  26.14 12.659 -9.076
v  4.335 14.47 4.299
v  16.22 12.659 0.965
v  8.675 12.659 8.602
v  7.884 12.989 7.818
v  17.402 12.657 -17.634
v  0 12.661 7.75263e-16
v  8.675 -5.26721e-16 8.602
v  7.884 -4.78714e-16 7.818
v  4.335 -2.63238e-16 4.299
v  0 0 0
v  16.22 -5.90892e-17 0.965
v  19.217 1.2669e-16 -2.069
v  26.14 5.55745e-16 -9.076
v  17.402 1.07977e-15 -17.634
v  21.774 8.17635e-16 -13.353

# 0 UV coordinates

# 31 vertex normals
vn 0.202099 0.958794 0.199676
vn 0.202118 0.958789 0.19968
vn 0.202102 0.958801 0.199637
vn 0.202111 0.958791 0.199676
vn 0.141833 0.955378 0.259106
vn -0.202097 0.958798 -0.199658
vn -0.202103 0.958796 -0.199662
vn -0.703957 0 0.710242
vn -0.704103 -1.75908e-05 0.710098
vn -0.704144 -4.17935e-05 0.710058
vn -0.703957 0.000211456 0.710242
vn -0.704099 3.61105e-05 0.710102
vn -0.704152 0 0.710049
vn 0.711379 -0 0.702809
vn 0.711432 0 0.702756
vn 0.711358 3.53345e-05 0.70283
vn 0.711432 -8.16838e-05 0.702755
vn 0.711358 0 0.70283
vn 0.699788 0 -0.71435
vn 0.699649 -8.22508e-05 -0.714486
vn 0.69971 0 -0.714427
vn -1.03373e-19 1 6.13259e-17
vn -0.711774 0 -0.702409
vn -0.711774 0 -0.702409
vn -7.0349e-24 -1 -6.12323e-17
vn 2.81032e-23 -1 -6.12323e-17
vn 0 -1 -6.12323e-17
vn 0 -1 -6.12323e-17
vn -8.07294e-25 -1 -6.12323e-17
vn 1.41972e-19 -1 -6.1474e-17
vn 9.2673e-20 -1 -6.12569e-17

# Mesh 'defaultobject' with 32 faces
g defaultobject
usemtl DefaultMaterial
f  1//1 2//1 3//1
f  2//2 1//2 4//2
f  2//3 4//3 5//3
f  5//4 4//2 6//4
f  6//5 4//5 7//5
f  8//6 4//6 1//6
f  4//6 8//6 9//7
f  7//8 10//8 6//8
f  10//9 7//9 4//9
f  10//10 4//10 9//10
f  10//11 9//11 11//11
f  11//12 9//12 12//12
f  12//13 9//13 13//13
f  10//14 5//14 6//14
f  5//14 10//14 14//14
f  5//15 14//15 2//15
f  2//16 14//16 3//16
f  3//17 14//17 15//17
f  3//18 15//18 16//18
f  16//19 1//19 3//19
f  1//20 16//20 8//20
f  8//21 16//21 17//21
f  17//22 16//22 18//22
f  8//23 13//23 9//23
f  13//23 8//23 17//24
f  15//25 18//25 16//25
f  18//25 15//25 17//26
f  17//26 15//25 13//27
f  13//27 15//25 14//28
f  13//27 14//28 10//29
f  13//27 10//29 11//30
f  13//27 11//30 12//31

