# {"id":"ID_36296","idOriginal":"ID_36296","origin":[14.320261362429823,48.24836611623878],"elevation":255.594,"wof":[{"Id":85681677,"Name":"Oberösterreich","Placetype":"region","Offset":-1},{"Id":85898429,"Name":"Kleinmünchen","Placetype":"neighbourhood","Offset":-1},{"Id":102049853,"Name":"Linz","Placetype":"county","Offset":-1},{"Id":101748071,"Name":"Linz","Placetype":"locality","Offset":-1},{"Id":85632785,"Name":"Austria","Placetype":"country","Offset":-1}]}

# Attribution: City of Linz <http://geo.data.linz.gv.at/katalog/geodata/3d_geo_daten_lod2/>
# Longitude: 14.320261362429823
# Latitude: 48.24836611623878
# Elevation: 255.594

# File produced by Open Asset Import Library (http://www.assimp.sf.net)
# (assimp v3.1.0)


# 14 vertex positions
v  3.749 5.234 -3.754
v  8.946 4.26 -1.241
v  5.23 4.26 -5.126
v  6.337 6.017 1.301
v  2.601 6.017 -2.605
v  0 4.242 2.59748e-16
v  3.755 4.279 3.815
v  3.755 -2.33601e-16 3.815
v  0 0 0
v  6.337 -7.96633e-17 1.301
v  8.946 7.59893e-17 -1.241
v  5.23 3.13877e-16 -5.126
v  3.749 2.29866e-16 -3.754
v  2.601 1.5951e-16 -2.605

# 0 UV coordinates

# 22 vertex normals
vn 0.314043 0.900638 -0.300382
vn 0.313999 0.90069 -0.300271
vn 0.31388 0.900748 -0.300219
vn -0.313937 0.900711 0.300273
vn -0.313936 0.900715 0.300263
vn -0.712689 0 0.70148
vn 0.697609 -0 0.716478
vn 0.697796 -0.000156355 0.716296
vn 0.697609 0.000287744 0.716478
vn 0.69785 0 0.716244
vn 0.72265 0 -0.691214
vn -0.679596 0 -0.733587
vn -0.679596 0 -0.733587
vn -0.707532 -0.000345302 -0.706681
vn -0.707578 4.32689e-17 -0.706635
vn -0.70765 0.000103349 -0.706563
vn -0.707415 0 -0.706799
vn 0 -1 -6.12323e-17
vn 1.0928e-23 -1 -6.12323e-17
vn -5.40192e-24 -1 -6.12323e-17
vn 0 -1 -6.12323e-17
vn 0 -1 -6.12551e-17

# Mesh 'defaultobject' with 24 faces
g defaultobject
usemtl DefaultMaterial
f  1//1 2//1 3//1
f  2//2 1//2 4//2
f  4//3 1//3 5//3
f  6//4 4//4 5//4
f  4//5 6//5 7//5
f  6//6 8//6 7//6
f  8//6 6//6 9//6
f  8//7 4//7 7//7
f  4//8 8//8 2//8
f  2//9 8//9 10//9
f  2//10 10//10 11//10
f  11//11 3//11 2//11
f  3//11 11//11 12//11
f  3//12 13//12 1//12
f  13//12 3//12 12//13
f  1//14 6//14 5//14
f  6//15 1//15 9//15
f  9//16 1//16 14//16
f  14//17 1//17 13//17
f  10//18 12//18 11//18
f  12//18 10//18 8//19
f  12//18 8//19 9//20
f  12//18 9//20 13//21
f  13//21 9//20 14//22

