# {"id":"ID_28316","idOriginal":"ID_28316","origin":[14.314990532621259,48.27453605054084],"elevation":260.037,"wof":[{"Id":102049853,"Name":"Linz","Placetype":"county","Offset":-1},{"Id":85632785,"Name":"Austria","Placetype":"country","Offset":-1},{"Id":101748071,"Name":"Linz","Placetype":"locality","Offset":-1},{"Id":85681677,"Name":"Oberösterreich","Placetype":"region","Offset":-1},{"Id":85898435,"Name":"Oed","Placetype":"neighbourhood","Offset":-1}]}

# Attribution: City of Linz <http://geo.data.linz.gv.at/katalog/geodata/3d_geo_daten_lod2/>
# Longitude: 14.314990532621259
# Latitude: 48.27453605054084
# Elevation: 260.037

# File produced by Open Asset Import Library (http://www.assimp.sf.net)
# (assimp v3.1.0)


# 14 vertex positions
v  1.824 3.801 5.677
v  8.588 2.619 -2.613
v  0 2.612 1.59939e-16
v  14.175 3.801 1.866
v  12.233 2.603 -3.82
v  12.621 2.839 -2.701
v  13.941 3.647 1.131
v  12.233 2.33908e-16 -3.82
v  12.621 1.65389e-16 -2.701
v  13.941 -6.92538e-17 1.131
v  14.175 -1.1426e-16 1.866
v  8.588 1.6e-16 -2.613
v  0 0 0
v  1.824 -3.47616e-16 5.677

# 0 UV coordinates

# 23 vertex normals
vn -0.0576574 0.980691 -0.186872
vn -0.0576621 0.98069 -0.186876
vn -0.0576013 0.980679 -0.186949
vn -0.0395468 0.980391 -0.193053
vn -0.0500496 0.9806 -0.189525
vn 0.944815 0 -0.327604
vn 0.945537 -0.000923112 -0.325512
vn 0.944813 0.00225457 -0.327603
vn 0.945478 0 -0.325686
vn 0.952875 0 -0.303364
vn 0.952875 0 -0.303364
vn -0.314352 0 -0.949306
vn -0.314352 0 -0.949306
vn -0.291086 0 -0.956697
vn -0.291086 5.85808e-17 -0.956697
vn -0.952065 0 0.305895
vn -0.952065 0 0.305895
vn 0.294841 -0 0.955546
vn 0 -1 -6.12323e-17
vn -2.76403e-24 -1 -6.12323e-17
vn 4.58958e-24 -1 -6.12323e-17
vn -3.20143e-21 -1 -6.12321e-17
vn 9.00201e-22 -1 -6.12327e-17

# Mesh 'defaultobject' with 24 faces
g defaultobject
usemtl DefaultMaterial
f  1//1 2//1 3//1
f  2//1 1//1 4//2
f  2//3 4//3 5//3
f  5//4 4//4 6//4
f  6//5 4//5 7//5
f  6//6 8//6 5//6
f  8//7 6//7 7//7
f  8//8 7//8 9//8
f  9//9 7//9 10//9
f  11//10 7//10 4//10
f  7//10 11//10 10//11
f  5//12 12//12 2//12
f  12//12 5//12 8//13
f  12//14 3//14 2//14
f  3//14 12//14 13//15
f  3//16 14//16 1//16
f  14//16 3//16 13//17
f  14//18 4//18 1//18
f  4//18 14//18 11//18
f  12//19 14//19 13//19
f  14//19 12//19 11//20
f  11//20 12//19 8//21
f  11//20 8//21 9//22
f  11//20 9//22 10//23

