# {"id":"ID_22533","idOriginal":"ID_22533","origin":[14.357600742150993,48.2518625219685],"elevation":251.454}
# Longitude: 14.357600742150993
# Latitude: 48.2518625219685
# Elevation: 251.454

# File produced by Open Asset Import Library (http://www.assimp.sf.net)
# (assimp v3.1.0)

mtllib ID_22533.obj.mtl

# 18 vertex positions
v  13.007 3.826 -2.226
v  13.213 6.622 3.351
v  15.675 3.808 -0.499
v  4.93 3.88 -7.453
v  2.425 6.606 -3.803
v  2.411 6.622 -3.781
v  0 3.86 2.36357e-16
v  0.629 3.853 0.43
v  10.797 3.86 7.129
v  2.425 2.32867e-16 -3.803
v  0 0 0
v  2.411 2.31519e-16 -3.781
v  4.93 4.56365e-16 -7.453
v  10.797 -4.36525e-16 7.129
v  0.629 -2.63299e-17 0.43
v  13.213 -2.0519e-16 3.351
v  15.675 3.05549e-17 -0.499
v  13.007 1.36303e-16 -2.226

# 0 UV coordinates

# 29 vertex normals
vn 0.288979 0.851487 -0.437563
vn 0.288868 0.851519 -0.437574
vn 0.288942 0.851471 -0.437619
vn 0.288179 0.852319 -0.43647
vn -0.288982 0.851422 0.437687
vn -0.288795 0.852187 0.43632
vn -0.288946 0.851436 0.437684
vn -0.843413 0.000750051 -0.537265
vn -0.843168 0 -0.53765
vn -0.843168 3.29216e-17 -0.53765
vn 0 -1 -6.09149e-17
vn -0.824503 0 -0.565858
vn -0.824503 0 -0.565857
vn -0.564354 -5.05493e-17 0.825532
vn -0.550158 -0.00338023 0.835054
vn -0.551003 0 0.834504
vn -1.33543e-21 1 6.12348e-17
vn 0.842466 -0 0.53875
vn 0.842469 -3.86975e-06 0.538745
vn 0.842466 9.71723e-06 0.53875
vn 0.84247 0 0.538743
vn 0.543395 0 -0.839477
vn 0.543303 -9.11831e-05 -0.839537
vn 0.543395 0.000270063 -0.839477
vn 0.543303 0 -0.839537
vn -1.9392e-24 -1 -6.12323e-17
vn -5.37033e-24 -1 -6.12323e-17
vn -1.86937e-24 -1 -6.12323e-17
vn 1.58422e-20 -1 -6.12777e-17

# Mesh 'defaultobject' with 32 faces
g defaultobject
usemtl DefaultMaterial
f  1//1 2//1 3//1
f  2//2 1//2 4//2
f  2//3 4//3 5//3
f  2//4 5//4 6//4
f  7//5 2//5 6//5
f  2//6 7//6 8//6
f  2//7 8//7 9//7
f  5//8 7//8 6//8
f  7//9 5//9 10//9
f  7//9 10//9 11//10
f  11//11 10//11 12//11
f  4//12 10//12 5//12
f  10//12 4//12 13//13
f  11//14 8//14 7//14
f  8//15 11//15 9//15
f  9//16 11//16 14//16
f  14//17 11//17 15//17
f  14//18 2//18 9//18
f  2//18 14//18 3//19
f  3//20 14//18 16//20
f  3//19 16//21 17//21
f  17//22 1//22 3//22
f  1//23 17//23 4//23
f  4//24 17//24 18//24
f  4//25 18//25 13//25
f  15//26 16//26 14//26
f  16//26 15//26 11//11
f  16//26 11//11 12//11
f  16//26 12//11 17//27
f  17//27 12//11 10//11
f  17//27 10//11 13//28
f  17//27 13//28 18//29

