# {"id":"ID_11592","idOriginal":"ID_11592","origin":[14.277321258265887,48.31353078284989],"elevation":279.37,"wof":[{"Id":85681677,"Name":"Oberösterreich","Placetype":"region","Offset":-1},{"Id":85898453,"Name":"Urfahr","Placetype":"neighbourhood","Offset":-1},{"Id":102049853,"Name":"Linz","Placetype":"county","Offset":-1},{"Id":85632785,"Name":"Austria","Placetype":"country","Offset":-1},{"Id":101748071,"Name":"Linz","Placetype":"locality","Offset":-1}]}

# Attribution: City of Linz <http://geo.data.linz.gv.at/katalog/geodata/3d_geo_daten_lod2/>
# Longitude: 14.277321258265887
# Latitude: 48.31353078284989
# Elevation: 279.37

# File produced by Open Asset Import Library (http://www.assimp.sf.net)
# (assimp v3.1.0)


# 54 vertex positions
v  11.265 16.141 3.944
v  18.968 12.393 5.903
v  19.534 12.363 5.572
v  16.098 12.477 7.713
v  15.179 12.487 8.326
v  10.927 12.461 11.299
v  10.341 13.15 10.368
v  9.949 13.156 10.626
v  15.323 12.37 8.452
v  16.787 11.518 9.096
v  19.75 11.491 7.11
v  20.196 11.882 5.185
v  15.868 11.804 -1.654
v  9.913 16.141 1.88
v  11.903 11.624 -8.231
v  16.232 11.542 -1.859
v  3.277 11.769 -2.02
v  0.08 11.648 -0.056
v  3.122 11.633 -2.177
v  8.119 11.76 -5.367
v  8.029 11.542 -5.726
v  11.852 11.567 -8.306
v  5.576 11.849 7.754
v  8.17 11.82 11.798
v  2.44 11.673 3.477
v  0 11.587 7.09499e-16
v  2.258 11.548 3.563
v  5.353 11.677 7.912
v  11.852 5.08596e-16 -8.306
v  8.029 3.50616e-16 -5.726
v  3.277 1.23689e-16 -2.02
v  8.119 3.28634e-16 -5.367
v  3.122 1.33303e-16 -2.177
v  0 0 0
v  0.08 3.42901e-18 -0.056
v  15.179 -5.0982e-16 8.326
v  15.323 -5.17536e-16 8.452
v  18.968 -3.61455e-16 5.903
v  19.75 -4.35362e-16 7.11
v  20.196 -3.1749e-16 5.185
v  15.868 1.01278e-16 -1.654
v  11.903 5.04003e-16 -8.231
v  16.232 1.13831e-16 -1.859
v  2.258 -2.18171e-16 3.563
v  5.353 -4.8447e-16 7.912
v  2.44 -2.12905e-16 3.477
v  5.576 -4.74796e-16 7.754
v  8.17 -7.22419e-16 11.798
v  10.341 -6.34857e-16 10.368
v  10.927 -6.91864e-16 11.299
v  16.098 -4.72285e-16 7.713
v  16.787 -5.56969e-16 9.096
v  9.949 -6.50655e-16 10.626
v  19.534 -3.41187e-16 5.572

# 0 UV coordinates

# 86 vertex normals
vn 0.300909 0.847244 0.437757
vn 0.300895 0.847232 0.437791
vn 0.301094 0.847273 0.437575
vn 0.30089 0.847257 0.437744
vn 0.300744 0.847301 0.43776
vn 0.301083 0.847184 0.437754
vn 0.302321 0.845694 0.439777
vn 0.301212 0.847076 0.437875
vn 0.300826 0.847315 0.437677
vn 0.444431 0.846802 -0.292246
vn 0.444457 0.84724 -0.290933
vn 0.444332 0.847264 -0.291055
vn 0.444331 0.847264 -0.291057
vn 0.445192 0.846639 -0.291559
vn -0.300959 0.847255 -0.437702
vn -0.300719 0.847551 -0.437294
vn -0.300972 0.847259 -0.437685
vn -0.300851 0.84728 -0.437727
vn -0.301485 0.846637 -0.438534
vn -0.301451 0.846677 -0.438481
vn -0.444419 0.847188 0.291145
vn -0.444343 0.847281 0.290988
vn -0.444366 0.847281 0.290954
vn -0.444372 0.847302 0.290883
vn -0.444093 0.847994 0.289287
vn -0.444426 0.847193 0.291116
vn -0.444434 0.847254 0.290927
vn -0.445758 0.846182 0.29202
vn -0.559395 0 -0.828901
vn -0.559395 -0 -0.828901
vn -0.568618 0 -0.822602
vn -0.568618 0 -0.822602
vn -0.571941 0 -0.820295
vn -0.57321 -0.000492797 -0.819408
vn -0.57198 5.02269e-17 -0.820267
vn 1.23093e-21 1 6.12325e-17
vn -0.969983 0 0.243172
vn -0.969983 0 0.243172
vn 0.711625 0 -0.702559
vn 0.711625 0 -0.702559
vn 0.658503 0 -0.752578
vn 0.839253 0 -0.543741
vn 0.845007 0 -0.534755
vn 0.845007 0 -0.534755
vn 0.826928 0 -0.562308
vn 0.827165 -3.29965e-06 -0.561959
vn 0.826928 0.000282273 -0.562308
vn 0.827165 0 -0.561959
vn -0.844665 -3.27773e-17 0.535295
vn -0.844665 0 0.535295
vn -0.835829 0 0.54899
vn -0.835829 0 0.54899
vn -0.841719 0 0.539916
vn -0.841719 0 0.539916
vn -0.846308 0 0.532693
vn -0.895073 0 0.445919
vn -0.895073 0 0.445919
vn 0.427232 0 0.904142
vn 0.427231 0 0.904142
vn 0.578119 0 0.815953
vn 0.549782 0.00068796 0.835308
vn 0.550076 0 0.835115
vn -1.84085e-19 -1 -6.15146e-17
vn 0.543592 -0 0.83935
vn 0.543592 0 0.83935
vn 0.554909 -0 0.831911
vn 0.556769 -0 0.830668
vn 0.504819 -0 0.863225
vn 0.504687 8.1096e-06 0.863303
vn 0.504745 0 0.863268
vn -1.04109e-19 -1 -6.14246e-17
vn 0.490715 -0 0.87132
vn 0.490715 0 0.87132
vn -5.16041e-24 -1 -6.12323e-17
vn -2.19698e-22 -1 -6.12326e-17
vn 5.24328e-24 -1 -6.12323e-17
vn 0 -1 -6.12323e-17
vn 0 -1 -6.12323e-17
vn 0 -1 -6.12324e-17
vn 3.2604e-24 -1 -6.12323e-17
vn 3.79812e-23 -1 -6.12323e-17
vn -3.93976e-20 -1 -6.12632e-17
vn -2.06353e-24 -1 -6.12323e-17
vn -2.52652e-23 -1 -6.12323e-17
vn 1.59054e-22 -1 -6.12323e-17
vn 0 -1 -6.12323e-17

# Mesh 'defaultobject' with 104 faces
g defaultobject
usemtl DefaultMaterial
f  1//1 2//1 3//1
f  2//2 1//2 4//2
f  4//3 1//3 5//3
f  5//4 1//4 6//4
f  6//5 1//5 7//5
f  7//6 1//6 8//6
f  6//7 9//7 5//7
f  2//8 10//8 11//8
f  10//9 2//9 4//9
f  12//10 1//10 3//10
f  1//11 12//11 13//11
f  1//12 13//12 14//12
f  14//12 13//12 15//13
f  15//14 13//14 16//14
f  14//15 17//15 18//15
f  19//16 18//16 17//16
f  20//17 17//17 14//17
f  15//18 20//18 14//18
f  21//19 20//19 15//19
f  22//20 21//20 15//20
f  8//21 23//21 24//21
f  23//22 8//22 1//22
f  23//23 1//23 25//23
f  25//24 1//24 26//24
f  26//25 1//25 18//25
f  18//26 1//26 14//26
f  26//27 27//27 25//27
f  25//28 28//28 23//28
f  29//29 21//29 22//29
f  21//29 29//29 30//30
f  20//31 31//31 17//31
f  31//31 20//31 32//32
f  33//33 18//33 19//33
f  18//34 33//34 26//34
f  26//35 33//35 34//35
f  34//36 33//36 35//36
f  21//37 32//37 20//37
f  32//37 21//37 30//38
f  31//39 19//39 17//39
f  19//39 31//39 33//40
f  9//41 36//41 5//41
f  36//41 9//41 37//41
f  11//42 38//42 2//42
f  38//42 11//42 39//42
f  40//43 13//43 12//43
f  13//43 40//43 41//44
f  15//45 29//45 22//45
f  29//46 15//46 16//46
f  29//47 16//47 42//47
f  42//48 16//46 43//48
f  34//49 27//49 26//49
f  27//49 34//49 44//50
f  25//51 45//51 28//51
f  45//51 25//51 46//52
f  47//53 24//53 23//53
f  24//53 47//53 48//54
f  49//55 6//55 7//55
f  6//55 49//55 50//55
f  51//56 10//56 4//56
f  10//56 51//56 52//57
f  27//58 46//58 25//58
f  46//58 27//58 44//59
f  28//60 47//60 23//60
f  47//60 28//60 45//60
f  24//61 7//61 8//61
f  7//62 24//62 49//62
f  49//62 24//62 48//62
f  49//63 48//63 53//63
f  50//64 9//64 6//64
f  9//64 50//64 37//65
f  36//66 4//66 5//66
f  4//66 36//66 51//66
f  52//67 11//67 10//67
f  11//67 52//67 39//67
f  38//68 3//68 2//68
f  3//69 38//69 12//69
f  12//70 38//70 40//70
f  40//71 38//71 54//71
f  41//72 16//72 13//72
f  16//72 41//72 43//73
f  52//74 38//71 39//74
f  50//75 36//75 37//75
f  36//75 50//75 41//76
f  46//77 32//77 45//77
f  32//77 46//77 31//78
f  31//78 46//77 44//79
f  31//78 44//79 34//80
f  31//78 34//80 33//81
f  33//81 34//80 35//82
f  41//76 42//83 43//83
f  42//83 41//76 50//75
f  42//83 50//75 49//63
f  42//83 49//63 53//63
f  42//83 53//63 48//63
f  42//83 48//63 47//84
f  42//83 47//84 29//85
f  29//85 47//84 32//77
f  29//85 32//77 30//86
f  32//77 47//84 45//77
f  54//71 41//76 40//71
f  41//76 54//71 38//71
f  41//76 38//71 52//74
f  41//76 52//74 51//78
f  41//76 51//78 36//75

