# {"id":"ID_3103","idOriginal":"ID_3103","origin":[14.279229689357996,48.28161550777395],"elevation":271.002,"wof":[{"Id":102049853,"Name":"Linz","Placetype":"county","Offset":-1},{"Id":101748071,"Name":"Linz","Placetype":"locality","Offset":-1},{"Id":85632785,"Name":"Austria","Placetype":"country","Offset":-1},{"Id":85681677,"Name":"Oberösterreich","Placetype":"region","Offset":-1},{"Id":85898459,"Name":"Wegscheid","Placetype":"neighbourhood","Offset":-1}]}

# Attribution: City of Linz <http://geo.data.linz.gv.at/katalog/geodata/3d_geo_daten_lod2/>
# Longitude: 14.279229689357996
# Latitude: 48.28161550777395
# Elevation: 271.002

# File produced by Open Asset Import Library (http://www.assimp.sf.net)
# (assimp v3.1.0)


# 72 vertex positions
v  5.548 10.803 -3.687
v  10.096 9.56 -6.084
v  9.931 9.56 -6.355
v  12.33 8.926 -7.444
v  12.486 8.895 -7.431
v  12.438 8.895 -7.51
v  17.42 8.895 0.676
v  10.695 10.803 4.769
v  17.472 8.895 0.761
v  13.962 10.803 10.137
v  2.201 9.854 -1.65
v  2.339 9.854 -1.423
v  0 9.19 5.62725e-16
v  5.009 9.19 8.229
v  5.558 9.19 9.131
v  6.127 9.19 10.066
v  5.065 8.889 10.713
v  9.348 8.889 17.75
v  10.451 9.202 17.079
v  17.23 10.803 15.505
v  11.016 9.202 18.007
v  22.166 10.803 23.614
v  11.584 9.202 18.941
v  16.203 9.202 26.528
v  18.244 9.691 26.001
v  16.288 9.202 26.668
v  16.521 9.202 27.05
v  17.814 9.569 26.263
v  23.978 8.889 11.397
v  28.914 8.889 19.507
v  23.937 8.889 11.33
v  23.926 8.895 11.312
v  24.012 8.895 11.26
v  26.259 8.895 9.892
v  23.044 10.803 4.609
v  20.796 10.803 5.977
v  19.828 8.895 -0.673
v  17.581 8.895 0.695
v  26.259 -6.0571e-16 9.892
v  19.828 4.12094e-17 -0.673
v  23.044 -2.8222e-16 4.609
v  17.472 -4.65978e-17 0.761
v  17.42 -4.13931e-17 0.676
v  12.486 4.55018e-16 -7.431
v  12.438 4.59855e-16 -7.51
v  10.096 3.72538e-16 -6.084
v  9.931 3.89132e-16 -6.355
v  28.914 -1.19446e-15 19.507
v  23.978 -6.97865e-16 11.397
v  23.937 -6.93762e-16 11.33
v  23.926 -6.9266e-16 11.312
v  17.581 -4.25565e-17 0.695
v  12.33 4.55814e-16 -7.444
v  2.201 1.01033e-16 -1.65
v  5.548 2.25764e-16 -3.687
v  2.339 8.71336e-17 -1.423
v  0 0 0
v  6.127 -6.16365e-16 10.066
v  5.065 -6.55982e-16 10.713
v  5.009 -5.03881e-16 8.229
v  5.558 -5.59113e-16 9.131
v  9.348 -1.08687e-15 17.75
v  10.451 -1.04579e-15 17.079
v  11.016 -1.10261e-15 18.007
v  11.584 -1.1598e-15 18.941
v  16.203 -1.62437e-15 26.528
v  16.288 -1.63294e-15 26.668
v  16.521 -1.65633e-15 27.05
v  17.814 -1.60814e-15 26.263
v  22.166 -1.44594e-15 23.614
v  18.244 -1.5921e-15 26.001
v  24.012 -6.89476e-16 11.26

# 0 UV coordinates

# 118 vertex normals
vn 0.201094 0.97189 -0.122437
vn 0.203302 0.971293 -0.123526
vn 0.203075 0.971847 -0.119473
vn 0.201341 0.971826 -0.122538
vn 0.201153 0.971892 -0.122327
vn 0.201199 0.971865 -0.122466
vn 0.200924 0.971865 -0.122918
vn 0.2012 0.971866 -0.122452
vn -0.20108 0.971898 0.122394
vn -0.200884 0.971973 0.122123
vn -0.201263 0.971828 0.122657
vn -0.201181 0.971869 0.122459
vn -0.20119 0.971869 0.122445
vn -0.201191 0.971868 0.122455
vn -0.20119 0.971871 0.122435
vn -0.201198 0.971934 0.121916
vn -0.201153 0.971879 0.12243
vn -0.201399 0.971848 0.122273
vn -0.201105 0.971889 0.122431
vn -0.201103 0.971888 0.122439
vn -0.201111 0.971889 0.122418
vn -0.201036 0.971925 0.122257
vn -0.201109 0.971887 0.122436
vn -0.201388 0.9719 0.121872
vn -0.201294 0.971877 0.122216
vn -0.20113 0.971852 0.122678
vn -0.361593 0.917388 -0.166283
vn 0.201151 0.97188 -0.122427
vn 0.201132 0.971883 -0.12243
vn 0.201124 0.971883 -0.122443
vn 0.20119 0.971784 -0.123119
vn 0.157713 0.961693 0.224216
vn 0.153067 0.955243 0.253144
vn 0.153282 0.95557 0.251773
vn 0.153281 0.955556 0.251827
vn 0 1 0
vn -0.153264 0.955552 -0.251855
vn -0.153325 0.955545 -0.251844
vn -0.153309 0.955545 -0.251854
vn -0.152294 0.955796 -0.251515
vn 0.854252 0 -0.51986
vn 0.854153 -0.000108196 -0.520021
vn 0.854194 0 -0.519955
vn 2.48929e-20 1 6.12116e-17
vn 0.853033 0 -0.521856
vn 0.854231 2.57582e-05 -0.519893
vn 0.853031 -0.00245322 -0.521855
vn 0.854231 0 -0.519893
vn 0.854616 0 -0.519261
vn 0.854138 0 -0.520047
vn 0.854223 0 -0.519907
vn 0.852966 0 -0.521966
vn 0.853285 5.39696e-06 -0.521445
vn 0.852966 -1.44465e-06 -0.521966
vn 0.853284 0 -0.521446
vn -0.520019 0 -0.854154
vn -0.517956 0.000713798 -0.855407
vn -0.519924 -0 -0.854212
vn -5.11218e-22 -1 -6.12337e-17
vn -0.519995 0 -0.854169
vn -0.521353 0.000465874 -0.853341
vn -0.520063 0 -0.854128
vn 9.38481e-20 -1 -6.11186e-17
vn -0.519959 0 -0.854191
vn -0.519897 3.44112e-05 -0.854229
vn -0.519929 -0 -0.854209
vn -6.52305e-20 -1 -6.13167e-17
vn -0.51975 0 -0.854318
vn -0.51975 5.23119e-17 -0.854318
vn -0.520279 0 -0.853997
vn -0.520279 -0 -0.853996
vn -0.854489 0 0.519469
vn -0.854197 -3.18378e-17 0.51995
vn -0.854197 0 0.51995
vn -0.854217 0 0.519917
vn -0.854252 7.75672e-06 0.51986
vn -0.854234 0 0.519888
vn -1.52783e-18 -1 -6.03493e-17
vn -0.85422 0 0.519912
vn -0.854145 0 0.520034
vn -0.854411 6.02495e-05 0.519599
vn -0.854157 -5.51533e-05 0.520015
vn -0.854145 -8.27983e-05 0.520035
vn -0.854411 0.000470239 0.519598
vn -0.854157 0 0.520015
vn -0.854784 0 0.518984
vn -0.853724 -3.62979e-05 0.520726
vn -0.854784 9.91625e-05 0.518984
vn -0.853724 0 0.520726
vn 0.519725 0 0.854333
vn 0.519725 0 0.854333
vn 0.519901 -1.08545e-05 0.854227
vn 0.519989 0.00162267 0.854171
vn 0.519919 3.15795e-05 0.854216
vn 0.519919 0 0.854216
vn 0.519919 0 0.854216
vn -5.78241e-18 -1 -6.93889e-17
vn 1.18868e-19 -1 -6.09791e-17
vn 4.56882e-20 -1 -6.10851e-17
vn 0.517426 -0 0.855728
vn 0.520019 -3.42656e-05 0.854155
vn 0.519924 0 0.854213
vn -3.30129e-20 1 6.11729e-17
vn 8.47051e-24 -1 -6.12323e-17
vn 0 -1 -6.12325e-17
vn -7.13396e-22 -1 -6.12326e-17
vn 6.57231e-24 -1 -6.12323e-17
vn 2.67088e-22 -1 -6.12319e-17
vn 2.99989e-22 -1 -6.12319e-17
vn 0 -1 -6.12323e-17
vn 0 -1 -6.12324e-17
vn 0 -1 -6.12324e-17
vn 0 -1 -6.12324e-17
vn 1.80868e-23 -1 -6.12323e-17
vn -1.59932e-23 -1 -6.12323e-17
vn -1.22863e-23 -1 -6.12323e-17
vn 0 -1 -6.12323e-17
vn 0 -1 -6.12324e-17

# Mesh 'defaultobject' with 140 faces
g defaultobject
usemtl DefaultMaterial
f  1//1 2//1 3//1
f  4//2 5//2 6//2
f  5//3 4//3 2//3
f  5//4 2//4 7//4
f  7//5 2//5 1//5
f  7//6 1//6 8//6
f  7//7 8//7 9//7
f  9//8 8//8 10//8
f  11//9 8//9 1//9
f  8//10 11//10 12//10
f  8//11 12//11 13//11
f  8//12 13//12 14//12
f  8//13 14//13 10//13
f  10//13 14//13 15//14
f  10//15 15//15 16//15
f  10//16 16//16 17//16
f  10//17 17//17 18//17
f  10//18 18//18 19//18
f  19//19 20//19 10//19
f  20//19 19//19 21//20
f  20//21 21//21 22//21
f  22//22 21//22 23//22
f  22//23 23//23 24//23
f  22//24 24//24 25//24
f  25//25 24//25 26//25
f  25//26 26//26 27//26
f  25//27 27//27 28//27
f  29//28 22//28 30//28
f  22//29 29//29 20//29
f  20//30 29//30 10//30
f  10//31 29//31 31//31
f  10//32 31//32 32//32
f  33//33 10//33 32//33
f  10//34 33//34 34//34
f  10//35 34//35 35//35
f  10//36 35//36 36//36
f  37//37 36//37 35//37
f  36//38 37//38 38//38
f  36//39 38//39 10//39
f  10//40 38//40 9//40
f  39//41 35//41 34//41
f  35//42 39//42 37//42
f  37//43 39//43 40//43
f  40//44 39//44 41//44
f  42//45 7//45 9//45
f  7//46 42//46 5//46
f  5//47 42//47 43//47
f  5//48 43//48 44//48
f  5//49 44//49 6//49
f  6//49 44//49 45//49
f  46//50 3//50 2//50
f  3//50 46//50 47//50
f  48//51 29//51 30//51
f  29//51 48//51 49//51
f  29//52 49//52 31//52
f  31//53 49//53 32//53
f  32//54 49//52 50//54
f  32//53 50//55 51//55
f  40//56 38//56 37//56
f  38//57 40//57 9//57
f  9//58 40//58 42//58
f  42//59 40//59 52//59
f  4//60 46//60 2//60
f  46//61 4//61 6//61
f  46//62 6//62 45//62
f  46//63 45//63 53//63
f  47//64 1//64 3//64
f  1//65 47//65 11//65
f  11//66 47//66 54//66
f  54//67 47//67 55//67
f  56//68 13//68 12//68
f  13//68 56//68 57//69
f  58//70 17//70 16//70
f  17//70 58//70 59//71
f  54//72 12//72 11//72
f  12//72 54//72 56//72
f  57//73 14//73 13//73
f  14//73 57//73 60//74
f  14//75 60//75 15//75
f  15//76 60//76 16//76
f  16//77 60//77 58//77
f  58//78 60//78 61//78
f  59//79 18//79 17//79
f  18//79 59//79 62//79
f  63//80 21//80 19//80
f  21//81 63//81 23//81
f  23//82 63//82 24//82
f  24//83 63//83 64//83
f  24//84 64//84 65//84
f  24//85 65//85 66//85
f  24//86 66//86 26//86
f  26//87 66//87 27//87
f  27//88 66//88 67//88
f  27//89 67//89 68//89
f  18//90 63//90 19//90
f  63//90 18//90 62//91
f  25//92 30//92 22//92
f  30//93 25//93 28//93
f  30//94 28//94 27//94
f  30//95 27//95 68//95
f  30//95 68//95 48//96
f  48//97 68//97 69//97
f  48//97 69//97 70//98
f  70//98 69//97 71//99
f  51//100 33//100 32//100
f  33//101 51//101 34//101
f  34//102 51//102 39//102
f  39//44 51//103 72//103
f  70//98 49//104 48//97
f  49//104 70//98 71//99
f  49//104 71//99 69//97
f  49//104 69//97 68//97
f  49//104 68//97 67//105
f  49//104 67//105 66//106
f  49//104 66//106 65//107
f  49//104 65//107 50//108
f  50//108 65//107 51//109
f  72//110 41//110 39//110
f  41//110 72//110 51//109
f  41//110 51//109 65//107
f  41//110 65//107 64//111
f  41//110 64//111 40//59
f  40//59 64//111 63//112
f  40//59 63//112 62//113
f  40//59 62//113 58//78
f  58//78 62//113 59//114
f  40//59 58//78 52//59
f  52//59 58//78 42//59
f  42//59 58//78 43//115
f  58//78 44//116 43//115
f  44//116 58//78 61//78
f  44//116 61//78 60//78
f  44//116 60//78 57//117
f  44//116 57//117 46//63
f  44//116 46//63 53//63
f  44//116 53//63 45//63
f  46//63 57//117 56//118
f  46//63 56//118 47//67
f  47//67 56//118 55//67
f  54//67 55//67 56//118

