# {"id":"ID_24823","idOriginal":"ID_24823","origin":[14.298555268232437,48.33251108569209],"elevation":262.97}
# Longitude: 14.298555268232437
# Latitude: 48.33251108569209
# Elevation: 262.97

# File produced by Open Asset Import Library (http://www.assimp.sf.net)
# (assimp v3.1.0)

mtllib ID_24823.obj.mtl

# 24 vertex positions
v  10.527 6.087 8.339
v  7.329 6.49 8.086
v  7.432 6.08 8.663
v  0.475 9.373 4.651
v  0.892 6.49 8.738
v  11.466 9.373 3.538
v  10.474 6.564 7.662
v  11.274 6.559 7.588
v  11.899 6.529 7.567
v  10.966 6.085 -1.12
v  6.649 6.079 -0.692
v  0 6.092 3.73027e-16
v  10.966 6.85802e-17 -1.12
v  6.649 4.23728e-17 -0.692
v  0 0 0
v  0.475 -2.84792e-16 4.651
v  0.892 -5.35048e-16 8.738
v  7.329 -4.95125e-16 8.086
v  7.432 -5.30456e-16 8.663
v  10.527 -5.10617e-16 8.339
v  10.474 -4.69162e-16 7.662
v  11.274 -4.64631e-16 7.588
v  11.899 -4.63345e-16 7.567
v  11.466 -2.1664e-16 3.538

# 0 UV coordinates

# 39 vertex normals
vn 0.0579616 0.818649 0.571362
vn 0.0578876 0.818553 0.571507
vn 0.0578751 0.818542 0.571523
vn 0.0577828 0.818588 0.571468
vn 0.0578598 0.818227 0.571976
vn 0.0579794 0.818556 0.571493
vn 0.0584913 0.81852 0.571493
vn -0.0578791 0.818515 -0.571562
vn -0.0577932 0.818597 -0.571453
vn -0.0578812 0.818543 -0.571522
vn -0.0986593 0 -0.995121
vn -0.103523 -0.00348907 -0.994621
vn -0.0986578 0.00535752 -0.995107
vn -0.103517 6.09034e-17 -0.994628
vn -0.994825 -6.22121e-18 0.1016
vn -0.994833 3.57388e-05 0.101529
vn -0.994825 -6.12273e-05 0.1016
vn -0.994835 0 0.101504
vn -0.984438 0 0.175732
vn -0.984438 0 0.175732
vn 0.100774 -0 0.994909
vn 0.104116 0 0.994565
vn 0.0921072 -0 0.995749
vn 0.0921072 0 0.995749
vn 0.0335809 -0 0.999436
vn 0.0335809 0 0.999436
vn 0.99695 0 -0.0780485
vn 0.994281 9.06984e-05 -0.106792
vn 0.994282 0 -0.106788
vn 0.994288 -7.90083e-05 -0.106729
vn 0.994275 0 -0.106856
vn 0 -1 -6.12323e-17
vn 9.17134e-24 -1 -6.12324e-17
vn -1.12962e-23 -1 -6.12323e-17
vn 4.53323e-23 -1 -6.12323e-17
vn 5.12505e-25 -1 -6.12323e-17
vn 0 -1 -6.12323e-17
vn 0 -1 -6.12324e-17
vn -8.63926e-24 -1 -6.12323e-17

# Mesh 'defaultobject' with 44 faces
g defaultobject
usemtl DefaultMaterial
f  1//1 2//1 3//1
f  2//2 4//2 5//2
f  4//3 2//3 6//3
f  6//4 2//4 7//4
f  7//5 2//5 1//5
f  6//6 7//6 8//6
f  6//7 8//7 9//7
f  10//8 4//8 6//8
f  4//9 10//9 11//9
f  4//10 11//10 12//10
f  13//11 11//11 10//11
f  11//12 13//12 12//12
f  12//13 13//13 14//13
f  12//14 14//14 15//14
f  15//15 4//15 12//15
f  4//16 15//16 5//16
f  5//17 15//17 16//17
f  5//18 16//18 17//18
f  18//19 3//19 2//19
f  3//19 18//19 19//20
f  17//21 2//21 5//21
f  2//21 17//21 18//21
f  3//22 20//22 1//22
f  20//22 3//22 19//22
f  21//23 8//23 7//23
f  8//23 21//23 22//24
f  22//25 9//25 8//25
f  9//25 22//25 23//26
f  1//27 21//27 7//27
f  21//27 1//27 20//27
f  9//28 10//28 6//28
f  10//29 9//29 13//29
f  13//30 9//30 24//30
f  24//31 9//31 23//31
f  16//32 18//32 17//32
f  18//32 16//32 21//33
f  21//33 16//32 22//34
f  22//34 24//35 23//35
f  24//35 22//34 16//32
f  24//35 16//32 15//36
f  24//35 15//36 13//37
f  13//37 15//36 14//38
f  18//32 20//39 19//39
f  20//39 18//32 21//33

