# {"id":"_10362","idOriginal":"_10362","origin":[14.322838901758345,48.295128611804],"elevation":254.164}
# Longitude: 14.322838901758345
# Latitude: 48.295128611804
# Elevation: 254.164

# File produced by Open Asset Import Library (http://www.assimp.sf.net)
# (assimp v3.1.0)

mtllib _10362.obj.mtl

# 14 vertex positions
v  13.359 17.464 -2.411
v  20.659 17.464 9.087
v  18.523 17.464 -3.343
v  12.21 17.464 -2.204
v  0 17.464 1.06936e-15
v  0.07 17.464 0.393
v  2.196 17.464 12.351
v  18.523 2.047e-16 -3.343
v  13.359 1.47631e-16 -2.411
v  0 0 0
v  12.21 1.34956e-16 -2.204
v  2.196 -7.56281e-16 12.351
v  0.07 -2.40643e-17 0.393
v  20.659 -5.56418e-16 9.087

# 0 UV coordinates

# 17 vertex normals
vn -0 1 0
vn -0.177611 0 -0.984101
vn -0.177302 9.4161e-05 -0.984156
vn -0.177637 -3.07561e-05 -0.984096
vn -0.177611 -1.99807e-06 -0.984101
vn -0.177608 6.02588e-17 -0.984101
vn 0 1 6.12492e-17
vn -0.984505 -1.07375e-17 0.175357
vn -0.984561 7.2697e-06 0.175044
vn -0.984559 0 0.175054
vn 0 -1 -6.12134e-17
vn 0.174087 -0 0.98473
vn 0.985554 0 -0.16936
vn 0 -1 -6.12323e-17
vn -2.70644e-24 -1 -6.12323e-17
vn 5.7534e-23 -1 -6.12324e-17
vn -1.27991e-23 -1 -6.12323e-17

# Mesh 'defaultobject' with 24 faces
g defaultobject
usemtl DefaultMaterial
f  1//1 2//1 3//1
f  2//1 1//1 4//1
f  2//1 4//1 5//1
f  2//1 5//1 6//1
f  2//1 6//1 7//1
f  8//2 1//2 3//2
f  1//3 8//3 4//3
f  4//4 8//4 5//4
f  5//5 8//2 9//5
f  5//5 9//5 10//6
f  10//7 9//7 11//7
f  10//8 6//8 5//8
f  6//9 10//9 7//9
f  7//10 10//10 12//10
f  12//11 10//11 13//11
f  12//12 2//12 7//12
f  2//12 12//12 14//12
f  14//13 3//13 2//13
f  3//13 14//13 8//13
f  13//11 14//14 12//11
f  14//14 13//11 10//11
f  14//14 10//11 11//15
f  14//14 11//15 9//16
f  14//14 9//16 8//17

