# {"id":"ID_23454","idOriginal":"ID_23454","origin":[14.274107754536585,48.330658993125084],"elevation":330.349,"wof":[{"Id":102049853,"Name":"Linz","Placetype":"county","Offset":-1},{"Id":85898425,"Name":"Harbach","Placetype":"neighbourhood","Offset":-1},{"Id":85632785,"Name":"Austria","Placetype":"country","Offset":-1},{"Id":101748071,"Name":"Linz","Placetype":"locality","Offset":-1},{"Id":85681677,"Name":"Oberösterreich","Placetype":"region","Offset":-1}]}

# Attribution: City of Linz <http://geo.data.linz.gv.at/katalog/geodata/3d_geo_daten_lod2/>
# Longitude: 14.274107754536585
# Latitude: 48.330658993125084
# Elevation: 330.349

# File produced by Open Asset Import Library (http://www.assimp.sf.net)
# (assimp v3.1.0)


# 20 vertex positions
v  14.598 4.279 -4.047
v  14.469 4.279 -4.065
v  13.225 4.279 4.143
v  0 4.279 2.62013e-16
v  13.796 4.279 -4.159
v  9.148 4.279 -4.923
v  7.123 4.279 -5.269
v  1.323 4.279 -7.578
v  0.499 4.279 -2.859
v  7.347 4.279 -6.583
v  14.598 2.47807e-16 -4.047
v  13.796 2.54665e-16 -4.159
v  14.469 2.48909e-16 -4.065
v  9.148 3.01447e-16 -4.923
v  7.123 3.22633e-16 -5.269
v  7.347 4.03092e-16 -6.583
v  1.323 4.64019e-16 -7.578
v  13.225 -2.53686e-16 4.143
v  0.499 1.75063e-16 -2.859
v  0 0 0

# 0 UV coordinates

# 18 vertex normals
vn 0 1 0
vn 0.138197 0 -0.990405
vn 0.13833 4.08021e-06 -0.990386
vn 0.138309 0 -0.990389
vn 1.08897e-19 -1 -6.19927e-17
vn 0.162195 0 -0.986759
vn 0.168423 0 -0.985715
vn 0.162965 0 -0.986632
vn 0.985779 -0 0.168048
vn 0.986237 -0 0.165336
vn -0.985095 0 -0.172011
vn -0.985108 -0 -0.171937
vn -0.985108 1.05281e-17 -0.171937
vn -0.298945 -5.84322e-17 0.95427
vn -0.298945 0 0.95427
vn -7.31801e-24 -1 -6.12323e-17
vn 0 -1 -6.12323e-17
vn 0 -1 -6.12323e-17

# Mesh 'defaultobject' with 36 faces
g defaultobject
usemtl DefaultMaterial
f  1//1 2//1 3//1
f  4//1 3//1 2//1
f  5//1 4//1 2//1
f  6//1 4//1 5//1
f  7//1 4//1 6//1
f  8//1 4//1 7//1
f  9//1 4//1 8//1
f  7//1 10//1 8//1
f  11//2 2//2 1//2
f  2//3 11//3 5//3
f  5//4 11//4 12//4
f  12//5 11//5 13//5
f  12//6 6//6 5//6
f  6//6 12//6 14//6
f  6//7 14//7 7//7
f  7//7 14//7 15//7
f  16//8 8//8 10//8
f  8//8 16//8 17//8
f  15//9 10//9 7//9
f  10//9 15//9 16//9
f  18//10 1//10 3//10
f  1//10 18//10 11//10
f  17//11 9//11 8//11
f  9//11 17//11 19//11
f  9//12 19//12 4//12
f  4//12 19//12 20//13
f  20//14 3//14 4//14
f  3//14 20//14 18//15
f  16//16 15//16 17//16
f  19//17 18//17 20//17
f  18//17 19//17 17//16
f  18//17 17//16 15//16
f  18//17 15//16 14//18
f  18//17 14//18 12//5
f  18//17 12//5 13//5
f  18//17 13//5 11//5

