# {"id":"_45263","idOriginal":"_45263","origin":[14.254436985795357,48.30760433998671],"elevation":258.25}
# Longitude: 14.254436985795357
# Latitude: 48.30760433998671
# Elevation: 258.25

# File produced by Open Asset Import Library (http://www.assimp.sf.net)
# (assimp v3.1.0)

mtllib _45263.obj.mtl

# 12 vertex positions
v  0 0.696 4.26177e-17
v  1.066 0.868 -5.195
v  0.663 0.693 -5.26
v  1.938 1.247 -5.054
v  4.455 2.339 -4.648
v  3.682 2.29 0.514
v  4.455 2.84608e-16 -4.648
v  1.938 3.09468e-16 -5.054
v  1.066 3.18102e-16 -5.195
v  0.663 3.22082e-16 -5.26
v  0 0 0
v  3.682 -3.14734e-17 0.514

# 0 UV coordinates

# 18 vertex normals
vn -0.391045 0.919023 -0.0498136
vn -0.391321 0.918902 -0.0498742
vn -0.390767 0.91915 -0.0496349
vn -0.390928 0.919072 -0.0498164
vn 0.159245 0 -0.987239
vn 0.159245 0 -0.987239
vn 0.159624 0 -0.987178
vn 0.159233 0 -0.987241
vn 0.159233 0 -0.987241
vn -0.99215 0 -0.125056
vn -0.99215 0 -0.125056
vn -0.138257 0 0.990396
vn 0.988973 0 0.148097
vn 0.988973 0 0.148097
vn 8.41379e-24 -1 -6.12323e-17
vn 2.26221e-23 -1 -6.12323e-17
vn 0 -1 -6.12323e-17
vn 6.82077e-25 -1 -6.12323e-17

# Mesh 'defaultobject' with 20 faces
g defaultobject
usemtl DefaultMaterial
f  1//1 2//1 3//1
f  2//2 1//2 4//2
f  4//3 1//3 5//3
f  5//4 1//4 6//4
f  7//5 4//5 5//5
f  4//5 7//5 8//6
f  4//7 8//7 2//7
f  2//7 8//7 9//7
f  2//8 9//8 3//8
f  3//8 9//8 10//9
f  3//10 11//10 1//10
f  11//10 3//10 10//11
f  1//12 12//12 6//12
f  12//12 1//12 11//12
f  6//13 7//13 5//13
f  7//13 6//13 12//14
f  9//15 11//15 10//15
f  11//15 9//15 8//16
f  11//15 8//16 7//17
f  11//15 7//17 12//18

