# {"id":"_57153","idOriginal":"_57153","origin":[14.295695518660974,48.308204781157734],"elevation":255.992}
# Longitude: 14.295695518660974
# Latitude: 48.308204781157734
# Elevation: 255.992

# File produced by Open Asset Import Library (http://www.assimp.sf.net)
# (assimp v3.1.0)

mtllib _57153.obj.mtl

# 8 vertex positions
v  1.956 22.445 3.262
v  1.227 22.445 -0.739
v  0 22.445 1.37436e-15
v  3.198 22.445 2.536
v  0 0 0
v  1.956 -1.9974e-16 3.262
v  3.198 -1.55285e-16 2.536
v  1.227 4.52507e-17 -0.739

# 0 UV coordinates

# 9 vertex normals
vn 0 1 0
vn -0.857632 -3.14896e-17 0.514264
vn -0.857632 0 0.514264
vn 0.504649 -0 0.863325
vn 0.8568 0 -0.515649
vn -0.515932 0 -0.856629
vn -0.515932 5.24534e-17 -0.856629
vn 0 -1 -6.12323e-17
vn -9.66934e-24 -1 -6.12323e-17

# Mesh 'defaultobject' with 12 faces
g defaultobject
usemtl DefaultMaterial
f  1//1 2//1 3//1
f  2//1 1//1 4//1
f  5//2 1//2 3//2
f  1//2 5//2 6//3
f  6//4 4//4 1//4
f  4//4 6//4 7//4
f  7//5 2//5 4//5
f  2//5 7//5 8//5
f  8//6 3//6 2//6
f  3//6 8//6 5//7
f  5//8 7//8 6//8
f  7//8 5//8 8//9

