# {"id":"ID_46157","idOriginal":"ID_46157","origin":[14.308423000615113,48.332971764554344],"elevation":259.607,"wof":[{"Id":102049853,"Name":"Linz","Placetype":"county","Offset":-1},{"Id":85632785,"Name":"Austria","Placetype":"country","Offset":-1},{"Id":101748071,"Name":"Linz","Placetype":"locality","Offset":-1},{"Id":85681677,"Name":"Oberösterreich","Placetype":"region","Offset":-1},{"Id":85898419,"Name":"Furth","Placetype":"neighbourhood","Offset":-1}]}

# Attribution: City of Linz <http://geo.data.linz.gv.at/katalog/geodata/3d_geo_daten_lod2/>
# Longitude: 14.308423000615113
# Latitude: 48.332971764554344
# Elevation: 259.607

# File produced by Open Asset Import Library (http://www.assimp.sf.net)
# (assimp v3.1.0)


# 22 vertex positions
v  0.881 2.656 -2.933
v  2.966 1.989 0.853
v  4.618 2.009 -4.972
v  2.94 1.995 0.846
v  2.914 2.001 0.839
v  0.872 2.656 -2.904
v  4.625 2.004 -4.996
v  1.754 2 -5.84
v  0.162 2.123 -0.54
v  0.143 2.108 -0.475
v  0 2.001 1.22526e-16
v  1.754 3.57597e-16 -5.84
v  0.881 1.79594e-16 -2.933
v  0.872 1.77819e-16 -2.904
v  0.162 3.30655e-17 -0.54
v  0.143 2.90854e-17 -0.475
v  0 0 0
v  2.914 -5.13739e-17 0.839
v  2.966 -5.22312e-17 0.853
v  2.94 -5.18026e-17 0.846
v  4.618 3.04447e-16 -4.972
v  4.625 3.05917e-16 -4.996

# 0 UV coordinates

# 39 vertex normals
vn 0.202371 0.977423 0.0607494
vn 0.210096 0.976061 0.0562552
vn 0.210096 0.976061 0.0562553
vn 0.199926 0.977845 0.062046
vn 0.0693296 0.980469 -0.18405
vn 0.0583302 0.977429 -0.203052
vn -0.0583229 0.977468 0.202869
vn -0.0607225 0.976336 0.207557
vn -0.0583425 0.977515 0.202634
vn -0.957745 0 -0.28762
vn -0.955064 -0 -0.296399
vn -0.957731 -0.000104378 -0.287667
vn -0.95501 0.01064 -0.296383
vn -0.957737 -0 -0.287645
vn -0.959835 -0 -0.280567
vn -0.957564 0.000256432 -0.28822
vn -0.959833 -0.00199257 -0.280566
vn -0.957548 1.76516e-17 -0.288273
vn -0.276681 -5.88419e-17 0.960962
vn -0.276681 0 0.960962
vn -0.259974 0 0.965616
vn -0.259972 -2.88993e-08 0.965616
vn -0.259973 0 0.965616
vn 3.14214e-17 1 -5.55112e-17
vn 0.962058 -0 0.272845
vn 0.962058 0 0.272845
vn 0.959999 0 0.280002
vn 0.959999 0 0.280002
vn 0.28204 0 -0.959403
vn 0.28204 0 -0.959403
vn 2.12846e-22 -1 -6.12331e-17
vn -2.92214e-24 -1 -6.12323e-17
vn 1.13043e-23 -1 -6.12323e-17
vn -8.74961e-23 -1 -6.12323e-17
vn -1.38991e-23 -1 -6.12323e-17
vn -7.97757e-22 -1 -6.12311e-17
vn 7.97769e-22 -1 -6.1232e-17
vn -1.21003e-23 -1 -6.12323e-17
vn 0 -1 -6.12323e-17

# Mesh 'defaultobject' with 40 faces
g defaultobject
usemtl DefaultMaterial
f  1//1 2//1 3//1
f  2//2 1//2 4//2
f  4//2 1//2 5//3
f  5//4 1//4 6//4
f  7//5 1//5 3//5
f  1//6 7//6 8//6
f  9//7 5//7 6//7
f  5//8 9//8 10//8
f  5//9 10//9 11//9
f  12//10 1//10 8//10
f  1//10 12//10 13//10
f  1//11 13//11 6//11
f  6//12 13//12 9//12
f  9//13 13//13 14//13
f  9//14 14//14 15//14
f  9//15 15//15 10//15
f  10//16 15//16 11//16
f  11//17 15//17 16//17
f  11//18 16//18 17//18
f  17//19 5//19 11//19
f  5//19 17//19 18//20
f  18//21 4//21 5//21
f  4//21 18//21 2//22
f  2//22 18//21 19//23
f  19//24 18//24 20//24
f  19//25 3//25 2//25
f  3//25 19//25 21//26
f  3//27 21//27 7//27
f  7//27 21//27 22//28
f  22//29 8//29 7//29
f  8//29 22//29 12//30
f  21//31 12//31 22//31
f  12//31 21//31 19//32
f  12//31 19//32 13//33
f  13//33 19//32 14//34
f  14//34 19//32 15//35
f  15//35 19//32 20//36
f  15//35 20//36 18//37
f  15//35 18//37 16//38
f  16//38 18//37 17//39

