# {"id":"ID_45301","idOriginal":"ID_45301","origin":[14.27919462655836,48.23982983502681],"elevation":264.62,"wof":[{"Id":85898447,"Name":"Scharlinz","Placetype":"neighbourhood","Offset":-1},{"Id":85681677,"Name":"Oberösterreich","Placetype":"region","Offset":-1},{"Id":102049853,"Name":"Linz","Placetype":"county","Offset":-1},{"Id":101748071,"Name":"Linz","Placetype":"locality","Offset":-1},{"Id":85632785,"Name":"Austria","Placetype":"country","Offset":-1}]}

# Attribution: City of Linz <http://geo.data.linz.gv.at/katalog/geodata/3d_geo_daten_lod2/>
# Longitude: 14.27919462655836
# Latitude: 48.23982983502681
# Elevation: 264.62

# File produced by Open Asset Import Library (http://www.assimp.sf.net)
# (assimp v3.1.0)


# 14 vertex positions
v  0 1.905 1.16648e-16
v  4.765 1.905 -0.003
v  3.135 1.905 -2.293
v  6.518 1.905 1.951
v  2.873 1.905 3.091
v  2.47 1.905 3.378
v  4.462 1.905 3.37
v  6.518 -1.19464e-16 1.951
v  4.765 1.83697e-19 -0.003
v  3.135 1.40406e-16 -2.293
v  0 0 0
v  2.47 -2.06843e-16 3.378
v  4.462 -2.06353e-16 3.37
v  2.873 -1.89269e-16 3.091

# 0 UV coordinates

# 13 vertex normals
vn 0 1 0
vn 0.744354 0 -0.667785
vn 0.814694 0 -0.579891
vn -0.590359 0 -0.807141
vn -0.590359 4.94231e-17 -0.807141
vn -0.807225 -3.6142e-17 0.590244
vn -0.807225 0 0.590244
vn 0.568023 -0 0.823013
vn 0.58009 -0 0.814552
vn -0.172937 0 0.984933
vn -1.57925e-23 -1 -6.12324e-17
vn 0 -1 -6.12323e-17
vn 2.55719e-23 -1 -6.12324e-17

# Mesh 'defaultobject' with 24 faces
g defaultobject
usemtl DefaultMaterial
f  1//1 2//1 3//1
f  2//1 1//1 4//1
f  4//1 1//1 5//1
f  5//1 1//1 6//1
f  7//1 4//1 5//1
f  8//2 2//2 4//2
f  2//2 8//2 9//2
f  9//3 3//3 2//3
f  3//3 9//3 10//3
f  10//4 1//4 3//4
f  1//4 10//4 11//5
f  11//6 6//6 1//6
f  6//6 11//6 12//7
f  13//8 4//8 7//8
f  4//8 13//8 8//8
f  12//9 5//9 6//9
f  5//9 12//9 14//9
f  14//10 7//10 5//10
f  7//10 14//10 13//10
f  13//11 14//11 8//11
f  9//12 11//12 10//12
f  11//12 9//12 8//11
f  11//12 8//11 14//11
f  11//12 14//11 12//13

