# {"id":"ID_52544","idOriginal":"ID_52544","origin":[14.315392994326064,48.265195429830015],"elevation":258.923}
# Longitude: 14.315392994326064
# Latitude: 48.265195429830015
# Elevation: 258.923

# File produced by Open Asset Import Library (http://www.assimp.sf.net)
# (assimp v3.1.0)

mtllib ID_52544.obj.mtl

# 8 vertex positions
v  1.874 2.088 -0.567
v  1.451 2.088 4.829
v  3.525 2.088 4.125
v  0 2.088 1.27853e-16
v  1.451 -2.95691e-16 4.829
v  3.525 -2.52583e-16 4.125
v  1.874 3.47187e-17 -0.567
v  0 0 0

# 0 UV coordinates

# 9 vertex normals
vn 0 1 -0
vn 0.321428 -0 0.946934
vn 0.943305 0 -0.331926
vn -0.289596 0 -0.957149
vn -0.289596 5.86085e-17 -0.957149
vn -0.957701 -1.76206e-17 0.287766
vn -0.957701 0 0.287766
vn 0 -1 -6.12323e-17
vn 0 -1 -6.12323e-17

# Mesh 'defaultobject' with 12 faces
g defaultobject
usemtl DefaultMaterial
f  1//1 2//1 3//1
f  2//1 1//1 4//1
f  5//2 3//2 2//2
f  3//2 5//2 6//2
f  6//3 1//3 3//3
f  1//3 6//3 7//3
f  7//4 4//4 1//4
f  4//4 7//4 8//5
f  8//6 2//6 4//6
f  2//6 8//6 5//7
f  8//8 6//8 5//8
f  6//8 8//8 7//9

