# {"id":"ID_41827","idOriginal":"ID_41827","origin":[14.279497690439898,48.3202884323531],"elevation":275.624,"wof":[{"Id":102049853,"Name":"Linz","Placetype":"county","Offset":-1},{"Id":101748071,"Name":"Linz","Placetype":"locality","Offset":-1},{"Id":85681677,"Name":"Oberösterreich","Placetype":"region","Offset":-1},{"Id":85632785,"Name":"Austria","Placetype":"country","Offset":-1},{"Id":85898453,"Name":"Urfahr","Placetype":"neighbourhood","Offset":-1}]}

# Attribution: City of Linz <http://geo.data.linz.gv.at/katalog/geodata/3d_geo_daten_lod2/>
# Longitude: 14.279497690439898
# Latitude: 48.3202884323531
# Elevation: 275.624

# File produced by Open Asset Import Library (http://www.assimp.sf.net)
# (assimp v3.1.0)


# 24 vertex positions
v  3.076 0.598 5.533
v  4.884 0.539 4.796
v  1.286 1.439 2.313
v  4.698 0.643 4.382
v  5.472 0.647 3.918
v  3.782 1.439 0.891
v  0 2.043 1.25098e-16
v  3.731 1.463 0.8
v  3.819 1.463 0.749
v  6.377 1.467 -0.728
v  2.584 2.043 -1.472
v  5.232 2.043 -2.98
v  3.076 -3.38799e-16 5.533
v  4.884 -2.9367e-16 4.796
v  4.698 -2.6832e-16 4.382
v  5.472 -2.39908e-16 3.918
v  3.782 -5.4558e-17 0.891
v  3.731 -4.89859e-17 0.8
v  5.232 1.82472e-16 -2.98
v  6.377 4.45771e-17 -0.728
v  3.819 -4.5863e-17 0.749
v  2.584 9.0134e-17 -1.472
v  0 0 0
v  1.286 -1.4163e-16 2.313

# 0 UV coordinates

# 39 vertex normals
vn 0.110557 0.974917 0.19317
vn 0.108452 0.974569 0.196095
vn 0.110545 0.97499 0.192805
vn 0.11025 0.974882 0.19352
vn 0.11015 0.974928 0.193344
vn 0.10955 0.974541 0.195626
vn 0.110673 0.975338 0.190966
vn 0.110136 0.974922 0.193384
vn 0.110131 0.974934 0.193327
vn 0.110121 0.974926 0.19337
vn 0.377476 -0 0.926019
vn 0.377476 0 0.926019
vn 0.912169 0 -0.409815
vn 0.912169 0 -0.409815
vn 0.873135 0 -0.487479
vn 0.873135 0 -0.487479
vn 0.872342 0 -0.488896
vn 0.872342 0 -0.488896
vn 0.891399 0 -0.45322
vn 0.891399 0 -0.45322
vn 0.51417 0 0.857688
vn 0.501424 -0 0.865202
vn 0.500035 0.000111526 0.866005
vn 0.500081 0 0.865978
vn 0 -1 -6.12518e-17
vn -0.494866 0 -0.868969
vn -0.49498 -0 -0.868905
vn -0.49498 5.32051e-17 -0.868905
vn -0.873997 -2.97547e-17 0.485932
vn -0.873997 0 0.485932
vn -0.874029 0 0.485873
vn 1.72106e-24 -1 -6.12323e-17
vn 8.81645e-25 -1 -6.12323e-17
vn 0 -1 -6.12323e-17
vn 4.41666e-23 -1 -6.12323e-17
vn -2.65799e-24 -1 -6.12323e-17
vn -8.31188e-24 -1 -6.12323e-17
vn 0 -1 -6.12323e-17
vn 1.12085e-23 -1 -6.12323e-17

# Mesh 'defaultobject' with 44 faces
g defaultobject
usemtl DefaultMaterial
f  1//1 2//1 3//1
f  4//2 3//2 2//2
f  5//3 3//3 4//3
f  6//4 3//4 5//4
f  7//5 3//5 6//5
f  8//6 7//6 6//6
f  9//7 7//7 8//7
f  10//8 7//8 9//8
f  11//9 7//9 10//9
f  12//10 11//10 10//10
f  13//11 2//11 1//11
f  2//11 13//11 14//12
f  2//13 15//13 4//13
f  15//13 2//13 14//14
f  16//15 6//15 5//15
f  6//15 16//15 17//16
f  6//17 17//17 8//17
f  8//17 17//17 18//18
f  10//19 19//19 12//19
f  19//19 10//19 20//20
f  4//21 16//21 5//21
f  16//21 4//21 15//21
f  18//22 9//22 8//22
f  9//23 18//23 10//23
f  10//24 18//24 20//24
f  20//25 18//25 21//25
f  19//26 11//26 12//26
f  11//26 19//26 22//26
f  11//27 22//27 7//27
f  7//27 22//27 23//28
f  23//29 3//29 7//29
f  3//29 23//29 24//30
f  3//31 24//31 1//31
f  1//31 24//31 13//31
f  20//25 22//32 19//32
f  22//32 20//25 23//33
f  23//33 20//25 21//25
f  23//33 21//25 18//25
f  23//33 18//25 24//34
f  24//34 18//25 17//35
f  24//34 17//35 16//36
f  24//34 16//36 15//37
f  24//34 15//37 13//38
f  13//38 15//37 14//39

