# {"id":"ID_10426","idOriginal":"ID_10426","origin":[14.295438208457808,48.24361468542698],"elevation":260.18,"wof":[{"Id":102049853,"Name":"Linz","Placetype":"county","Offset":-1},{"Id":85681677,"Name":"Oberösterreich","Placetype":"region","Offset":-1},{"Id":85898447,"Name":"Scharlinz","Placetype":"neighbourhood","Offset":-1},{"Id":101748071,"Name":"Linz","Placetype":"locality","Offset":-1},{"Id":85632785,"Name":"Austria","Placetype":"country","Offset":-1}]}

# Attribution: City of Linz <http://geo.data.linz.gv.at/katalog/geodata/3d_geo_daten_lod2/>
# Longitude: 14.295438208457808
# Latitude: 48.24361468542698
# Elevation: 260.18

# File produced by Open Asset Import Library (http://www.assimp.sf.net)
# (assimp v3.1.0)


# 20 vertex positions
v  13.141 3.819 -16.513
v  13.902 3.819 0.382
v  14.446 3.819 -16.48
v  1.079 3.819 -16.817
v  0.487 3.819 -16.833
v  0.155 3.819 -7.906
v  0.099 3.819 -5.854
v  0.061 3.819 -4.488
v  0.008 3.819 -0.276
v  0 3.819 2.33846e-16
v  0.487 1.03072e-15 -16.833
v  0.155 4.84103e-16 -7.906
v  0.099 3.58454e-16 -5.854
v  0.061 2.74811e-16 -4.488
v  0.008 1.69001e-17 -0.276
v  0 0 0
v  13.902 -2.33908e-17 0.382
v  14.446 1.00911e-15 -16.48
v  13.141 1.01113e-15 -16.513
v  1.079 1.02974e-15 -16.817

# 0 UV coordinates

# 21 vertex normals
vn 0 1 0
vn -0.999309 0 -0.0371649
vn -0.999628 -0 -0.0272803
vn -0.999613 -0 -0.0278077
vn -0.999921 0 -0.0125821
vn -0.99958 -0 -0.0289733
vn -0.99958 1.77411e-18 -0.0289733
vn -0.0274677 -6.12092e-17 0.999623
vn -0.0274677 0 0.999623
vn 0.99948 -0 0.0322451
vn 0.02528 0 -0.99968
vn 0.025195 0 -0.999683
vn 0.0270184 0 -0.999635
vn 2.15411e-25 -1 -6.12323e-17
vn 0 -1 -6.12323e-17
vn 1.4128e-23 -1 -6.12323e-17
vn 0 -1 -6.12323e-17
vn 0 -1 -6.12324e-17
vn -1.21904e-24 -1 -6.12323e-17
vn 2.8599e-22 -1 -6.12323e-17
vn -3.26716e-20 -1 -5.99366e-17

# Mesh 'defaultobject' with 36 faces
g defaultobject
usemtl DefaultMaterial
f  1//1 2//1 3//1
f  2//1 1//1 4//1
f  2//1 4//1 5//1
f  2//1 5//1 6//1
f  2//1 6//1 7//1
f  2//1 7//1 8//1
f  2//1 8//1 9//1
f  2//1 9//1 10//1
f  11//2 6//2 5//2
f  6//2 11//2 12//2
f  6//3 12//3 7//3
f  7//3 12//3 13//3
f  7//4 13//4 8//4
f  8//4 13//4 14//4
f  14//5 9//5 8//5
f  9//5 14//5 15//5
f  9//6 15//6 10//6
f  10//6 15//6 16//7
f  16//8 2//8 10//8
f  2//8 16//8 17//9
f  17//10 3//10 2//10
f  3//10 17//10 18//10
f  18//11 1//11 3//11
f  1//11 18//11 19//11
f  1//12 19//12 4//12
f  4//12 19//12 20//12
f  4//13 20//13 5//13
f  5//13 20//13 11//13
f  15//14 17//14 16//14
f  17//14 15//14 18//15
f  18//15 15//14 14//16
f  18//15 14//16 13//17
f  18//15 13//17 12//18
f  18//15 12//18 20//19
f  20//19 12//18 11//20
f  18//15 20//19 19//21

