# {"id":"ID_20542","idOriginal":"ID_20542","origin":[14.31186049374727,48.246301565021305],"elevation":257.762,"wof":[{"Id":85898447,"Name":"Scharlinz","Placetype":"neighbourhood","Offset":-1},{"Id":85681677,"Name":"Oberösterreich","Placetype":"region","Offset":-1},{"Id":102049853,"Name":"Linz","Placetype":"county","Offset":-1},{"Id":85632785,"Name":"Austria","Placetype":"country","Offset":-1},{"Id":101748071,"Name":"Linz","Placetype":"locality","Offset":-1}]}

# Attribution: City of Linz <http://geo.data.linz.gv.at/katalog/geodata/3d_geo_daten_lod2/>
# Longitude: 14.31186049374727
# Latitude: 48.246301565021305
# Elevation: 257.762

# File produced by Open Asset Import Library (http://www.assimp.sf.net)
# (assimp v3.1.0)


# 35 vertex positions
v  11.363 10.509 -1.92
v  12.07 5.643 4.649
v  14.931 10.509 0.794
v  8.471 5.589 1.978
v  6.257 10.509 -5.805
v  8.39 5.588 1.918
v  8.317 5.464 2.016
v  3.711 6.179 -2.374
v  2.045 5.464 -2.756
v  2.454 6.16 -3.307
v  17.807 5.616 -3.082
v  14.659 5.663 -5.419
v  14.223 5.643 -5.774
v  12.459 5.566 -7.213
v  9.133 5.616 -9.681
v  8.39 -1.17444e-16 1.918
v  12.07 -2.84669e-16 4.649
v  8.471 -1.21118e-16 1.978
v  2.045 1.68756e-16 -2.756
v  8.317 -1.23444e-16 2.016
v  14.931 -4.86185e-17 0.794
v  17.807 1.88718e-16 -3.082
v  14.659 3.31818e-16 -5.419
v  12.459 4.41669e-16 -7.213
v  14.223 3.53556e-16 -5.774
v  9.133 5.9279e-16 -9.681
v  3.711 1.45366e-16 -2.374
v  2.454 2.02495e-16 -3.307
v  6.257 3.55454e-16 -5.805
v  0 4.337 2.65565e-16
v  8.317 5.695 2.016
v  2.045 5.714 -2.756
v  6.328 4.356 4.696
v  6.328 -2.87547e-16 4.696
v  0 0 0

# 0 UV coordinates

# 57 vertex normals
vn -0.430989 0.702286 0.566606
vn -0.431036 0.702266 0.566596
vn -0.43108 0.702265 0.566563
vn -0.428495 0.703705 0.566737
vn -0.431771 0.701898 0.566491
vn -0.430967 0.702336 0.566561
vn -0.431234 0.701991 0.566785
vn -0.431242 0.702055 0.566701
vn 0.431026 0.702224 -0.566655
vn 0.431081 0.702273 -0.566553
vn 0.4299 0.70219 -0.567551
vn 0.43113 0.702182 -0.566628
vn 0.431264 0.702404 -0.566251
vn 0.43103 0.702224 -0.566651
vn -0.59523 0 0.803555
vn -0.595959 1.63538e-05 0.803015
vn -0.595942 0 0.803027
vn 0 -1 -6.12046e-17
vn -0.605508 0 0.795839
vn 0.803043 -4.80743e-05 0.595921
vn 0.803044 0 0.59592
vn 0.803014 8.37633e-05 0.59596
vn 0.803073 0 0.595881
vn 0.80196 0 0.597378
vn 0.80196 0 0.597378
vn 0.596075 0 -0.802929
vn 0.596075 0 -0.802929
vn 0.631395 0 -0.775461
vn 0.63211 9.19396e-05 -0.774878
vn 0.631971 0 -0.774992
vn 1.11692e-20 -1 -6.1241e-17
vn 0.595897 0 -0.803061
vn 0.596006 0 -0.80298
vn 0.596006 0 -0.80298
vn -0.803062 1.76574e-05 -0.595896
vn -0.803062 0 -0.595895
vn -0.803072 -2.47511e-05 -0.595881
vn -0.803051 -0 -0.59591
vn -0.802963 0 -0.596029
vn -0.802963 -0 -0.596029
vn -7.34236e-24 -1 -6.12323e-17
vn 0 -1 -6.12324e-17
vn 0 -1 -6.12323e-17
vn 1.36771e-23 -1 -6.12323e-17
vn 4.04735e-24 -1 -6.12323e-17
vn 5.5953e-24 -1 -6.12323e-17
vn -0.2237 0.928076 0.297712
vn -0.223694 0.928088 0.29768
vn -0.595931 0 0.803035
vn -0.595931 0 0.803035
vn 0.80301 0 0.595965
vn 0.80301 0 0.595965
vn 0.605508 0 -0.795839
vn 0.605508 0 -0.795839
vn -0.803066 0 -0.595889
vn -0.803066 3.64877e-17 -0.595889
vn 0 -1 -6.12323e-17

# Mesh 'defaultobject' with 66 faces
g defaultobject
usemtl DefaultMaterial
f  1//1 2//1 3//1
f  2//2 1//2 4//2
f  4//3 1//3 5//3
f  4//4 5//4 6//4
f  6//5 5//5 7//5
f  7//6 5//6 8//6
f  7//7 8//7 9//7
f  9//8 8//8 10//8
f  11//9 1//9 3//9
f  1//10 11//10 12//10
f  1//11 12//11 13//11
f  1//12 13//12 5//12
f  5//13 13//13 14//13
f  5//14 14//14 15//14
f  16//15 4//15 6//15
f  4//16 16//16 2//16
f  2//17 16//17 17//17
f  17//18 16//18 18//18
f  19//19 7//19 9//19
f  7//19 19//19 20//19
f  2//20 11//20 3//20
f  11//21 2//21 17//21
f  11//22 17//22 21//22
f  11//23 21//23 22//23
f  7//24 16//24 6//24
f  16//24 7//24 20//25
f  11//26 23//26 12//26
f  23//26 11//26 22//27
f  23//28 13//28 12//28
f  13//29 23//29 14//29
f  14//30 23//30 24//30
f  24//31 23//31 25//31
f  14//32 26//32 15//32
f  26//32 14//32 24//32
f  27//33 10//33 8//33
f  10//33 27//33 28//34
f  15//35 8//35 5//35
f  8//36 15//36 26//36
f  8//37 26//37 29//37
f  8//38 29//38 27//38
f  28//39 9//39 10//39
f  9//39 28//39 19//40
f  28//41 20//41 19//41
f  20//41 28//41 27//42
f  20//41 27//42 29//43
f  20//41 29//43 16//18
f  16//18 29//43 18//18
f  18//18 29//43 26//44
f  18//18 26//44 17//18
f  17//18 26//44 21//45
f  21//45 26//44 24//31
f  21//45 24//31 25//31
f  21//45 25//31 23//31
f  21//45 23//31 22//46
f  30//47 31//47 32//47
f  31//48 30//48 33//48
f  30//49 34//49 33//49
f  34//49 30//49 35//50
f  33//51 20//51 31//51
f  20//51 33//51 34//52
f  31//53 19//53 32//53
f  19//53 31//53 20//54
f  19//55 30//55 32//55
f  30//55 19//55 35//56
f  35//57 20//41 34//57
f  20//41 35//57 19//41

