# {"id":"ID_16367","idOriginal":"ID_16367","origin":[14.290697682721692,48.27399449818222],"elevation":280.257,"wof":[{"Id":102049853,"Name":"Linz","Placetype":"county","Offset":-1},{"Id":85632785,"Name":"Austria","Placetype":"country","Offset":-1},{"Id":101748071,"Name":"Linz","Placetype":"locality","Offset":-1},{"Id":85681677,"Name":"Oberösterreich","Placetype":"region","Offset":-1},{"Id":85898459,"Name":"Wegscheid","Placetype":"neighbourhood","Offset":-1}]}

# Attribution: City of Linz <http://geo.data.linz.gv.at/katalog/geodata/3d_geo_daten_lod2/>
# Longitude: 14.290697682721692
# Latitude: 48.27399449818222
# Elevation: 280.257

# File produced by Open Asset Import Library (http://www.assimp.sf.net)
# (assimp v3.1.0)


# 12 vertex positions
v  5.227 14.313 -0.193
v  11.067 10.297 16.275
v  10.458 10.297 -0.387
v  5.835 14.313 16.441
v  0 10.3 6.30693e-16
v  0.597 10.293 16.608
v  0 0 0
v  0.597 -1.01695e-15 16.608
v  11.067 -9.96556e-16 16.275
v  5.835 -1.00672e-15 16.441
v  10.458 2.36969e-17 -0.387
v  5.227 1.18178e-17 -0.193

# 0 UV coordinates

# 18 vertex normals
vn 0.608294 0.793401 -0.0222333
vn 0.608295 0.793399 -0.0222342
vn -0.608303 0.793394 0.0222344
vn -0.608237 0.793445 0.0221984
vn -0.999355 -2.19967e-18 0.0359233
vn -0.999355 0 0.0359233
vn 0.0317891 0.000100574 0.999495
vn 0.0317891 0 0.999495
vn 0.0317891 0 0.999495
vn -4.15228e-21 -1 -6.13622e-17
vn 0.999333 0 -0.0365259
vn -0.0369798 0.000106042 -0.999316
vn -0.0369799 6.11905e-17 -0.999316
vn -0.0368985 -8.27175e-05 -0.999319
vn -0.0370611 0 -0.999313
vn -1.72873e-23 -1 -6.12323e-17
vn 1.52146e-25 -1 -6.12323e-17
vn 1.52256e-25 -1 -6.12323e-17

# Mesh 'defaultobject' with 20 faces
g defaultobject
usemtl DefaultMaterial
f  1//1 2//1 3//1
f  2//1 1//1 4//2
f  5//3 4//3 1//3
f  4//4 5//4 6//4
f  7//5 6//5 5//5
f  6//5 7//5 8//6
f  6//7 2//7 4//7
f  2//8 6//8 8//8
f  2//8 8//8 9//9
f  9//10 8//10 10//10
f  9//11 3//11 2//11
f  3//11 9//11 11//11
f  3//12 5//12 1//12
f  5//13 3//13 7//13
f  7//14 3//14 12//14
f  12//15 3//15 11//15
f  10//10 11//16 9//10
f  11//16 10//10 8//10
f  11//16 8//10 12//17
f  12//17 8//10 7//18

