# {"id":"ID_49010","idOriginal":"ID_49010","origin":[14.331069140676512,48.348771307837765],"elevation":375.322,"wof":[{"Id":85898419,"Name":"Furth","Placetype":"neighbourhood","Offset":-1},{"Id":85681677,"Name":"Oberösterreich","Placetype":"region","Offset":-1},{"Id":102049853,"Name":"Linz","Placetype":"county","Offset":-1},{"Id":85632785,"Name":"Austria","Placetype":"country","Offset":-1}]}

# Attribution: City of Linz <http://geo.data.linz.gv.at/katalog/geodata/3d_geo_daten_lod2/>
# Longitude: 14.331069140676512
# Latitude: 48.348771307837765
# Elevation: 375.322

# File produced by Open Asset Import Library (http://www.assimp.sf.net)
# (assimp v3.1.0)


# 18 vertex positions
v  3.892 1.929 2.673
v  0 1.929 1.18117e-16
v  1.068 1.929 3.583
v  2.578 1.929 -1.847
v  2.352 1.929 -1.745
v  0.684 1.929 -1.263
v  0.701 1.929 -1.295
v  1.793 1.929 -3.31
v  2.339 1.929 -1.783
v  2.578 1.13096e-16 -1.847
v  2.352 1.0685e-16 -1.745
v  1.793 2.02679e-16 -3.31
v  0.701 7.92959e-17 -1.295
v  0.684 7.73364e-17 -1.263
v  0 0 0
v  2.339 1.09177e-16 -1.783
v  3.892 -1.63674e-16 2.673
v  1.068 -2.19395e-16 3.583

# 0 UV coordinates

# 20 vertex normals
vn 0 1 0
vn -0.41137 0 -0.911468
vn -0.879193 0 -0.476466
vn -0.883116 -0 -0.469155
vn -0.879328 0.000150511 -0.476216
vn -0.8831 -0.00596565 -0.469146
vn -0.879328 2.91598e-17 -0.476216
vn 0.946164 0 -0.323688
vn 0.941616 -0.000286737 -0.336688
vn 0.941728 0 -0.336375
vn -1.47548e-20 1 6.12323e-17
vn 0.960247 0 -0.279151
vn -0.958333 -1.74913e-17 0.285654
vn -0.958333 0 0.285654
vn 0.306707 -0 0.951804
vn 0 -1 -6.12323e-17
vn 0 -1 -6.12323e-17
vn 1.46345e-23 -1 -6.12323e-17
vn -4.77351e-24 -1 -6.12323e-17
vn 4.78195e-24 -1 -6.12323e-17

# Mesh 'defaultobject' with 32 faces
g defaultobject
usemtl DefaultMaterial
f  1//1 2//1 3//1
f  2//1 1//1 4//1
f  2//1 4//1 5//1
f  2//1 5//1 6//1
f  6//1 5//1 7//1
f  5//1 8//1 7//1
f  8//1 5//1 9//1
f  10//2 5//2 4//2
f  5//2 10//2 11//2
f  12//3 7//3 8//3
f  7//3 12//3 13//3
f  7//4 13//4 6//4
f  6//5 13//5 2//5
f  2//6 13//6 14//6
f  2//7 14//7 15//7
f  11//8 9//8 5//8
f  9//9 11//9 8//9
f  8//10 11//10 12//10
f  12//11 11//11 16//11
f  17//12 4//12 1//12
f  4//12 17//12 10//12
f  15//13 3//13 2//13
f  3//13 15//13 18//14
f  18//15 1//15 3//15
f  1//15 18//15 17//15
f  17//16 11//16 10//16
f  11//16 17//16 13//17
f  13//17 17//16 14//18
f  14//18 17//16 15//17
f  15//17 17//16 18//19
f  16//20 13//17 12//20
f  13//17 16//20 11//16

