# {"id":"ID_13263","idOriginal":"ID_13263","origin":[14.277399953480316,48.289299116427564],"elevation":325.493,"wof":[{"Id":102049853,"Name":"Linz","Placetype":"county","Offset":-1},{"Id":101748071,"Name":"Linz","Placetype":"locality","Offset":-1},{"Id":85681677,"Name":"Oberösterreich","Placetype":"region","Offset":-1},{"Id":85632785,"Name":"Austria","Placetype":"country","Offset":-1},{"Id":85898459,"Name":"Wegscheid","Placetype":"neighbourhood","Offset":-1}]}

# Attribution: City of Linz <http://geo.data.linz.gv.at/katalog/geodata/3d_geo_daten_lod2/>
# Longitude: 14.277399953480316
# Latitude: 48.289299116427564
# Elevation: 325.493

# File produced by Open Asset Import Library (http://www.assimp.sf.net)
# (assimp v3.1.0)


# 30 vertex positions
v  21.035 16.188 0.431
v  18.937 22.3 5.419
v  21.693 16.195 0.849
v  12.873 16.104 -4.75
v  2.818 22.3 -4.641
v  11.462 16.089 -5.646
v  9.043 16.064 -7.181
v  5.644 16.071 -9.295
v  5.635 16.076 3.53
v  0 16.089 9.85167e-16
v  7.246 16.081 4.53
v  14.647 16.439 8.78
v  14.487 16.108 9.022
v  14.785 16.438 8.868
v  16.283 16.421 9.82
v  5.644 5.69155e-16 -9.295
v  0 0 0
v  2.818 2.84179e-16 -4.641
v  5.635 -2.1615e-16 3.53
v  14.487 -5.52438e-16 9.022
v  7.246 -2.77382e-16 4.53
v  14.647 -5.3762e-16 8.78
v  16.283 -6.01302e-16 9.82
v  14.785 -5.43008e-16 8.868
v  21.693 -5.19863e-17 0.849
v  18.937 -3.31818e-16 5.419
v  21.035 -2.63911e-17 0.431
v  12.873 2.90854e-16 -4.75
v  11.462 3.45718e-16 -5.646
v  9.043 4.39709e-16 -7.181

# 0 UV coordinates

# 52 vertex normals
vn 0.398729 0.658099 -0.638686
vn 0.398668 0.658105 -0.638719
vn 0.398626 0.658135 -0.638713
vn 0.398613 0.658114 -0.638744
vn 0.398569 0.658066 -0.638821
vn 0.398627 0.658096 -0.638754
vn -0.39861 0.658128 0.638731
vn -0.398636 0.658114 0.638729
vn -0.398604 0.658005 0.638862
vn -0.398638 0.658084 0.638759
vn -0.39827 0.659003 0.638041
vn -0.401161 0.658673 0.636569
vn -0.398505 0.658113 0.638812
vn -0.854763 -7.27539e-06 -0.519019
vn -0.854763 0 -0.519019
vn -0.854763 3.17807e-17 -0.519019
vn 4.30319e-19 1 6.15356e-17
vn -0.530877 -5.18913e-17 0.847449
vn -0.527385 -0.00170218 0.849625
vn -0.527153 -0.0018472 0.849769
vn -0.530875 0.00280214 0.847445
vn -0.5272 0 0.849741
vn 0 1 6.12071e-17
vn -0.537669 0 0.843156
vn -0.536365 -1.5389e-05 0.843986
vn -0.536475 0 0.843916
vn 4.42202e-20 1 6.11861e-17
vn 0.834165 0 0.551515
vn 0.856337 6.0488e-06 0.516418
vn 0.856337 0 0.516418
vn 0.856337 0 0.516418
vn 0 -1 -6.13691e-17
vn 0.536211 0 -0.844084
vn 0.535918 -1.66902e-05 -0.84427
vn 0.536062 9.34347e-05 -0.844179
vn 0.535792 -0.000146946 -0.84435
vn 0.528102 -0.00859628 -0.849138
vn 0.534286 0 -0.845304
vn 0 1 6.12381e-17
vn -5.92903e-22 1 6.1235e-17
vn -1.64952e-21 1 6.12333e-17
vn 0 1 6.12325e-17
vn 0 -1 -6.12322e-17
vn 0 -1 -6.12323e-17
vn -1.00936e-24 -1 -6.12323e-17
vn 4.11639e-23 -1 -6.12323e-17
vn -2.93262e-24 -1 -6.12323e-17
vn 0 -1 -6.12323e-17
vn 3.38793e-24 -1 -6.12323e-17
vn 2.4326e-24 -1 -6.12323e-17
vn -8.60638e-19 -1 -6.15356e-17
vn -2.75748e-23 -1 -6.12324e-17

# Mesh 'defaultobject' with 56 faces
g defaultobject
usemtl DefaultMaterial
f  1//1 2//1 3//1
f  2//2 1//2 4//2
f  2//3 4//3 5//3
f  5//4 4//4 6//4
f  5//5 6//5 7//5
f  5//6 7//6 8//6
f  9//7 5//7 10//7
f  5//8 9//8 2//8
f  2//9 9//9 11//9
f  2//10 11//10 12//10
f  12//11 11//11 13//11
f  2//12 12//12 14//12
f  2//13 14//13 15//13
f  8//14 10//14 5//14
f  10//14 8//14 16//15
f  10//14 16//15 17//16
f  17//17 16//17 18//17
f  17//18 9//18 10//18
f  9//19 17//19 11//19
f  11//20 17//20 13//20
f  13//21 17//21 19//21
f  13//22 19//22 20//22
f  20//23 19//23 21//23
f  22//24 14//24 12//24
f  14//25 22//25 15//25
f  15//26 22//26 23//26
f  23//27 22//27 24//27
f  13//28 22//28 12//28
f  22//28 13//28 20//28
f  15//29 3//29 2//29
f  3//29 15//29 23//30
f  3//29 23//30 25//31
f  25//32 23//32 26//32
f  25//33 1//33 3//33
f  1//34 25//34 4//34
f  4//35 25//35 6//35
f  6//36 25//36 7//36
f  7//37 25//37 8//37
f  8//38 25//38 16//38
f  16//17 25//39 27//39
f  16//17 27//39 28//40
f  16//17 28//40 29//41
f  16//17 29//41 30//42
f  21//43 22//43 20//43
f  22//43 21//43 25//32
f  25//32 21//43 27//44
f  27//44 21//43 28//45
f  28//45 21//43 19//46
f  28//45 19//46 17//47
f  28//45 17//47 29//48
f  29//48 17//47 30//49
f  30//49 17//47 16//50
f  16//50 17//47 18//51
f  24//52 26//32 23//32
f  26//32 24//52 25//32
f  25//32 24//52 22//43

