# File produced by Open Asset Import Library (http://www.assimp.sf.net)
# (assimp v3.1.0)

mtllib ID_11425.obj.mtl

# 20 vertex positions
v  3.734 20.103 4.189
v  6.237 19.459 -5.607
v  0 19.457 1.1914e-15
v  6.432 19.493 -5.39
v  18.464 20.103 -9.099
v  8.988 19.493 -7.688
v  14.674 19.45 -13.324
v  8.727 19.448 -7.978
v  22.266 19.448 -4.862
v  7.522 19.448 8.439
v  14.674 8.1586e-16 -13.324
v  8.727 4.88512e-16 -7.978
v  8.988 4.70754e-16 -7.688
v  6.432 3.30042e-16 -5.39
v  6.237 3.4333e-16 -5.607
v  0 0 0
v  7.522 -5.1674e-16 8.439
v  3.734 -2.56502e-16 4.189
v  18.464 5.57153e-16 -9.099
v  22.266 2.97712e-16 -4.862

# 0 UV coordinates

# 30 vertex normals
vn -0.0766345 0.993439 -0.0848909
vn -0.0782677 0.993277 -0.0852976
vn -0.0765113 0.993455 -0.0848142
vn -0.0766423 0.993408 -0.0852471
vn -0.0765848 0.993447 -0.0848436
vn -0.0767844 0.993414 -0.0850447
vn 0.0765622 0.993446 0.0848683
vn 0.0765647 0.993446 0.0848734
vn -0.668529 0 -0.743686
vn -0.668529 -0 -0.743686
vn -0.668579 0 -0.743641
vn -0.66855 0 -0.743668
vn -0.66855 4.55365e-17 -0.743668
vn -0.743295 0 0.668964
vn -0.746484 -4.07442e-17 0.665403
vn -0.746516 1.32728e-05 0.665367
vn -0.746501 0 0.665384
vn -1.35064e-19 -1 -6.11838e-17
vn 0.743805 0 -0.668397
vn 0.743805 0 -0.668397
vn 0.744388 0 -0.667747
vn 0.744284 4.41651e-05 -0.667864
vn 0.744388 -4.72763e-05 -0.667747
vn 0.74428 0 -0.667867
vn 0.669838 -0 0.742507
vn -2.97499e-23 -1 -6.12324e-17
vn 0 -1 -6.12323e-17
vn -1.70058e-23 -1 -6.12323e-17
vn 3.48916e-24 -1 -6.12323e-17
vn 4.66557e-24 -1 -6.12323e-17

# Mesh 'defaultobject' with 36 faces
g defaultobject
usemtl DefaultMaterial
f  1//1 2//1 3//1
f  2//2 1//2 4//2
f  4//3 1//3 5//3
f  4//4 5//4 6//4
f  6//5 5//5 7//5
f  7//6 8//6 6//6
f  9//7 1//7 10//7
f  1//7 9//7 5//8
f  11//9 8//9 7//9
f  8//9 11//9 12//10
f  13//11 4//11 6//11
f  4//11 13//11 14//11
f  15//12 3//12 2//12
f  3//12 15//12 16//13
f  8//14 13//14 6//14
f  13//14 8//14 12//14
f  16//15 1//15 3//15
f  1//16 16//16 10//16
f  10//17 16//17 17//17
f  17//18 16//18 18//18
f  14//19 2//19 4//19
f  2//19 14//19 15//20
f  5//21 11//21 7//21
f  11//22 5//22 9//22
f  11//23 9//23 19//23
f  19//24 9//24 20//24
f  17//25 9//25 10//25
f  9//25 17//25 20//25
f  15//26 14//26 16//18
f  18//18 20//27 17//18
f  20//27 18//18 16//18
f  20//27 16//18 14//26
f  20//27 14//26 13//27
f  20//27 13//27 12//28
f  20//27 12//28 19//29
f  19//29 12//28 11//30

