# File produced by Open Asset Import Library (http://www.assimp.sf.net)
# (assimp v3.1.0)

mtllib ID_20153.obj.mtl

# 36 vertex positions
v  3.573 14.031 -3.878
v  9.611 8.582 8.789
v  13.185 14.031 4.912
v  2.853 8.582 2.609
v  0 8.582 5.25496e-16
v  3.195 13.455 -3.468
v  2.502 12.418 -2.742
v  5.53 9.28 -8.32
v  7.527 8.601 -7.384
v  6.5 8.68 -8.219
v  4.446 10.4 -7.842
v  7.848 9.127 -6.401
v  3.874 11.38 -7.08
v  10.461 9.14 -3.994
v  3.737 12.277 -6.029
v  16.382 9.158 1.444
v  4.057 12.729 -5.143
v  4.388 12.789 -4.762
v  0 0 0
v  9.611 -5.38171e-16 8.789
v  2.853 -1.59755e-16 2.609
v  4.388 2.91588e-16 -4.762
v  4.057 3.14918e-16 -5.143
v  16.382 -8.84195e-17 1.444
v  13.185 -3.00773e-16 4.912
v  10.461 2.44562e-16 -3.994
v  7.848 3.91948e-16 -6.401
v  6.5 5.03269e-16 -8.219
v  7.527 4.5214e-16 -7.384
v  5.53 5.09453e-16 -8.32
v  4.446 4.80184e-16 -7.842
v  2.502 1.67899e-16 -2.742
v  3.874 4.33525e-16 -7.08
v  3.195 2.12354e-16 -3.468
v  3.573 2.37459e-16 -3.878
v  3.737 3.6917e-16 -6.029

# 0 UV coordinates

# 59 vertex normals
vn -0.484959 0.695404 0.53031
vn -0.484953 0.695409 0.530309
vn -0.484954 0.695408 0.530308
vn 0.184807 0.486335 0.854005
vn -0.485852 0.695388 0.529512
vn 0.485092 0.694866 -0.530892
vn 0.484953 0.695591 -0.530069
vn 0.484877 0.69537 -0.530428
vn 0.484873 0.695407 -0.530384
vn 0.484913 0.695543 -0.53017
vn 0.484936 0.69542 -0.53031
vn 0.484936 0.69542 -0.53031
vn 0.48484 0.695701 -0.530029
vn 0.48505 0.69494 -0.530834
vn 0.484895 0.695547 -0.530181
vn 0.484902 0.695491 -0.530247
vn -0.674846 -4.5187e-17 0.737959
vn -0.674844 -1.06785e-06 0.737961
vn -0.674845 0 0.73796
vn 2.41353e-18 1 6.27517e-17
vn -0.754904 0 0.655835
vn 0.735252 2.5606e-06 0.677794
vn 0.735252 0 0.677794
vn 0.735252 0 0.677794
vn -1.60902e-18 -1 -6.19472e-17
vn 0.676428 0 -0.736508
vn 0.677516 0.00130006 -0.735507
vn 0.676428 -0.000577186 -0.736508
vn 0.67752 0 -0.735505
vn 0.630849 0 -0.775906
vn 0.630849 0 -0.775906
vn 0.9506 0 -0.31042
vn 0.9506 0 -0.31042
vn 0.103564 0 -0.994623
vn 0.103564 0 -0.994623
vn -0.403474 0 -0.914991
vn -0.403474 0 -0.914991
vn -0.738695 0 -0.674039
vn -0.738695 4.1273e-17 -0.674039
vn -0.799748 0 -0.600336
vn -0.799748 0 -0.600336
vn -0.735217 1.37697e-06 -0.677832
vn -0.735217 -0 -0.677832
vn -0.735217 0 -0.677832
vn 3.41607e-18 -1 -5.97812e-17
vn -0.723355 0 -0.690476
vn -0.723355 -0 -0.690476
vn -0.991611 0 -0.129259
vn -0.991611 0 -0.129259
vn -0.940535 0 0.339697
vn -0.940535 0 0.339697
vn -3.59258e-23 -1 -6.12324e-17
vn -2.94937e-23 -1 -6.12324e-17
vn -2.28019e-23 -1 -6.12323e-17
vn 4.91628e-23 -1 -6.12323e-17
vn 0 -1 -6.12324e-17
vn -7.37801e-24 -1 -6.12323e-17
vn -5.4281e-23 -1 -6.12324e-17
vn 1.19079e-23 -1 -6.12323e-17

# Mesh 'defaultobject' with 68 faces
g defaultobject
usemtl DefaultMaterial
f  1//1 2//1 3//1
f  2//1 1//1 4//2
f  4//2 1//1 5//3
f  5//4 1//4 6//4
f  5//5 6//5 7//5
f  8//6 9//6 10//6
f  9//7 8//7 11//7
f  9//8 11//8 12//8
f  12//9 11//9 13//9
f  12//10 13//10 14//10
f  14//11 13//11 15//11
f  14//11 15//11 16//12
f  16//13 15//13 17//13
f  16//14 17//14 18//14
f  16//15 18//15 1//15
f  16//16 1//16 3//16
f  19//17 4//17 5//17
f  4//17 19//17 2//18
f  2//18 19//17 20//19
f  20//20 19//20 21//20
f  17//21 22//21 18//21
f  22//21 17//21 23//21
f  2//22 16//22 3//22
f  16//22 2//22 20//23
f  16//22 20//23 24//24
f  24//25 20//25 25//25
f  24//26 14//26 16//26
f  14//27 24//27 12//27
f  12//28 24//28 26//28
f  12//29 26//29 27//29
f  9//30 28//30 10//30
f  28//30 9//30 29//31
f  27//32 9//32 12//32
f  9//32 27//32 29//33
f  10//34 30//34 8//34
f  30//34 10//34 28//35
f  8//36 31//36 11//36
f  31//36 8//36 30//37
f  32//38 5//38 7//38
f  5//38 32//38 19//39
f  11//40 33//40 13//40
f  33//40 11//40 31//41
f  18//42 6//42 1//42
f  6//42 18//42 34//43
f  34//43 18//42 22//44
f  34//45 22//45 35//45
f  34//46 7//46 6//46
f  7//46 34//46 32//47
f  13//48 36//48 15//48
f  36//48 13//48 33//49
f  15//50 23//50 17//50
f  23//50 15//50 36//51
f  30//52 33//52 31//52
f  33//52 30//52 36//53
f  36//53 30//52 23//54
f  23//54 30//52 28//55
f  23//54 28//55 22//45
f  22//45 28//55 29//56
f  32//57 21//57 19//57
f  21//57 32//57 34//45
f  21//57 34//45 35//45
f  21//57 35//45 22//45
f  21//57 22//45 29//56
f  21//57 29//56 27//58
f  21//57 27//58 26//59
f  21//57 26//59 20//25
f  20//25 26//59 25//25
f  25//25 26//59 24//25

