# File produced by Open Asset Import Library (http://www.assimp.sf.net)
# (assimp v3.1.0)

mtllib ID_24285.obj.mtl

# 43 vertex positions
v  6.374 6.011 -3.736
v  10.814 4.402 -5.882
v  10.892 4.4 -6.086
v  11.189 3.563 -1.603
v  9.5 4.399 -2.21
v  8.731 4.399 -0.073
v  8.272 4.627 -0.238
v  7.253 4.627 2.592
v  6.474 5.013 2.311
v  4.459 6.011 1.587
v  12.02 3.807 -5.46
v  12.506 3.567 -5.289
v  11.892 3.87 -5.505
v  10.913 4.355 -5.856
v  3.343 3.56 -10.826
v  11.553 3.563 -7.904
v  1.425 6.011 -5.493
v  0.542 4.883 -3.039
v  1.03 4.883 -2.864
v  0.187 3.805 -0.52
v  2.751 5.165 0.973
v  0 3.805 2.32989e-16
v  10.814 3.60169e-16 -5.882
v  10.892 3.7266e-16 -6.086
v  11.553 4.8398e-16 -7.904
v  7.253 -1.58714e-16 2.592
v  8.272 1.45733e-17 -0.238
v  8.731 4.46996e-18 -0.073
v  9.5 1.35323e-16 -2.21
v  12.506 3.23858e-16 -5.289
v  11.189 9.81554e-17 -1.603
v  3.343 6.62901e-16 -10.826
v  10.913 3.58577e-16 -5.856
v  11.892 3.37084e-16 -5.505
v  12.02 3.34329e-16 -5.46
v  1.425 3.36349e-16 -5.493
v  0.542 1.86085e-16 -3.039
v  1.03 1.75369e-16 -2.864
v  0 0 0
v  0.187 3.18408e-17 -0.52
v  2.751 -5.95791e-17 0.973
v  4.459 -9.71757e-17 1.587
v  6.474 -1.41508e-16 2.311

# 0 UV coordinates

# 71 vertex normals
vn 0.397625 0.906313 0.143149
vn 0.397527 0.906398 0.142883
vn 0.396294 0.906479 0.14576
vn 0.397551 0.90636 0.143059
vn 0.398967 0.905911 0.14195
vn 0.397318 0.906461 0.143063
vn 0.397528 0.906376 0.143015
vn 0.397529 0.906376 0.143015
vn 0.397341 0.906468 0.142953
vn 0.396224 0.90699 0.142745
vn 0.397727 0.906297 0.142961
vn 0.393404 0.908086 0.143575
vn 0.132857 0.917769 -0.374232
vn 0.132729 0.917863 -0.374046
vn 0.132803 0.917843 -0.37407
vn -0.132813 0.917829 0.374099
vn -0.133282 0.918749 0.371666
vn -0.132628 0.917745 0.37437
vn -0.397525 0.906387 -0.142956
vn -0.397505 0.90639 -0.142993
vn -0.397531 0.906375 -0.143015
vn 0.933219 -0.0388687 0.3572
vn 0.939236 0 0.343272
vn 0.934014 0.00894404 0.357124
vn 0.939809 0 0.341701
vn 0.940866 -0 0.338778
vn 0.940932 -0 0.338595
vn 0.941696 0 0.336466
vn 0.941696 0 0.336466
vn 0.335304 0 -0.94211
vn 0.335304 0 -0.94211
vn 0.337493 0 -0.941328
vn 0.33231 0.0014781 -0.943169
vn 0.332525 0.00140784 -0.943093
vn 0.337493 -0.00109159 -0.941327
vn 0.331856 0 -0.94333
vn -8.30662e-20 1 6.1469e-17
vn 0.254013 0 -0.967201
vn 0.254013 0 -0.967201
vn -0.940993 0 -0.338426
vn -0.940993 -0 -0.338426
vn -0.940941 -0 -0.33857
vn -0.940941 -0 -0.33857
vn -0.940995 0 -0.338421
vn -0.941003 -1.518e-05 -0.338399
vn -0.940996 2.07221e-17 -0.338417
vn 0 1 6.13217e-17
vn -0.337558 0 0.941305
vn -0.333447 -5.77279e-17 0.942769
vn -0.340016 0.00394292 0.940411
vn -0.337379 0.00173416 0.941367
vn -0.333445 -0.00398947 0.942761
vn -0.33902 0.000680093 0.940779
vn -0.33829 -0.000122019 0.941042
vn -0.338469 0 0.940978
vn 0 -1 -6.12312e-17
vn -0.338284 0 0.941044
vn -0.338284 0 0.941044
vn -0.338206 0 0.941072
vn -0.338206 0 0.941072
vn 0 -1 -6.12323e-17
vn 6.38579e-23 -1 -6.12323e-17
vn 6.50873e-24 -1 -6.12323e-17
vn -9.59349e-23 -1 -6.12323e-17
vn -1.49024e-24 -1 -6.12323e-17
vn 0 -1 -6.13108e-17
vn 1.25619e-23 -1 -6.12324e-17
vn 3.91597e-23 -1 -6.12324e-17
vn 0 -1 -6.12323e-17
vn -1.0466e-22 -1 -6.12323e-17
vn 0 -1 -6.12323e-17

# Mesh 'defaultobject' with 82 faces
g defaultobject
usemtl DefaultMaterial
f  1//1 2//1 3//1
f  2//2 1//2 4//2
f  4//3 1//3 5//3
f  5//4 1//4 6//4
f  6//5 1//5 7//5
f  7//6 1//6 8//6
f  8//7 1//7 9//7
f  9//7 1//7 10//8
f  11//9 4//9 12//9
f  4//10 11//10 13//10
f  4//11 13//11 14//11
f  4//12 14//12 2//12
f  15//13 3//13 16//13
f  3//14 15//14 1//14
f  1//15 15//15 17//15
f  18//16 1//16 17//16
f  1//17 18//17 19//17
f  1//18 19//18 20//18
f  21//19 20//19 22//19
f  20//20 21//20 1//20
f  1//21 21//21 10//21
f  2//22 16//22 3//22
f  16//23 2//23 23//23
f  16//24 23//24 24//24
f  16//25 24//25 25//25
f  26//26 7//26 8//26
f  7//26 26//26 27//26
f  28//27 5//27 6//27
f  5//27 28//27 29//27
f  4//28 30//28 12//28
f  30//28 4//28 31//29
f  25//30 15//30 16//30
f  15//30 25//30 32//31
f  13//32 33//32 14//32
f  33//33 13//33 11//33
f  33//34 11//34 12//34
f  33//35 12//35 34//35
f  34//36 12//36 30//36
f  34//37 30//37 35//37
f  14//38 23//38 2//38
f  23//38 14//38 33//39
f  32//40 17//40 15//40
f  17//40 32//40 36//41
f  17//42 36//42 18//42
f  18//42 36//42 37//43
f  38//44 20//44 19//44
f  20//45 38//45 22//45
f  22//46 38//44 39//46
f  39//47 38//47 40//47
f  37//48 19//48 18//48
f  19//48 37//48 38//48
f  39//49 21//49 22//49
f  21//50 39//50 10//50
f  10//51 39//51 9//51
f  9//52 39//52 41//52
f  9//53 41//53 8//53
f  8//54 41//54 42//54
f  8//55 42//55 26//55
f  26//56 42//56 43//56
f  27//57 6//57 7//57
f  6//57 27//57 28//58
f  29//59 4//59 5//59
f  4//59 29//59 31//60
f  31//61 35//61 30//61
f  35//61 31//61 34//62
f  34//62 31//61 33//63
f  33//63 31//61 23//64
f  39//65 38//65 41//65
f  38//65 39//65 40//66
f  24//67 32//67 25//67
f  32//67 24//67 23//64
f  32//67 23//64 31//61
f  32//67 31//61 29//68
f  32//67 29//68 28//69
f  32//67 28//69 27//70
f  32//67 27//70 26//56
f  32//67 26//56 36//69
f  36//69 26//56 43//56
f  36//69 43//56 42//56
f  36//69 42//56 41//65
f  36//69 41//65 38//65
f  36//69 38//65 37//71

