# File produced by Open Asset Import Library (http://www.assimp.sf.net)
# (assimp v3.1.0)

mtllib ID_25380.obj.mtl

# 12 vertex positions
v  4.86 10.802 -0.293
v  10.307 6.171 9.143
v  9.72 6.171 -0.586
v  5.447 10.802 9.446
v  0.588 6.171 9.75
v  0 6.171 3.77865e-16
v  9.72 3.58822e-17 -0.586
v  4.86 1.79411e-17 -0.293
v  0 0 0
v  0.588 -5.97015e-16 9.75
v  5.447 -5.78401e-16 9.446
v  10.307 -5.59847e-16 9.143

# 0 UV coordinates

# 18 vertex normals
vn 0.687938 0.724582 -0.0415068
vn 0.687896 0.724624 -0.0414616
vn -0.687939 0.724582 0.041488
vn -0.687965 0.724558 0.0414658
vn -0.0601788 0 -0.998188
vn -0.0601788 0 -0.998188
vn -0.0601788 6.11214e-17 -0.998188
vn -0.998186 -3.68608e-18 0.0601983
vn -0.998186 0 0.0601983
vn 0.0623336 0.000114429 0.998055
vn 0.0623336 0 0.998055
vn 0.0624422 -0.000171762 0.998049
vn 0.062225 0 0.998062
vn 0.998185 0 -0.0602256
vn -2.78294e-25 -1 -6.12323e-17
vn 8.9054e-24 -1 -6.12323e-17
vn 7.53147e-24 -1 -6.12323e-17
vn -3.62517e-24 -1 -6.12323e-17

# Mesh 'defaultobject' with 20 faces
g defaultobject
usemtl DefaultMaterial
f  1//1 2//1 3//1
f  2//2 1//2 4//2
f  5//3 1//3 6//3
f  1//4 5//4 4//4
f  3//5 6//5 1//5
f  6//5 3//5 7//6
f  6//5 7//6 8//6
f  6//5 8//6 9//7
f  9//8 5//8 6//8
f  5//8 9//8 10//9
f  5//10 2//10 4//10
f  2//11 5//11 10//11
f  2//12 10//12 11//12
f  2//13 11//13 12//13
f  12//14 3//14 2//14
f  3//14 12//14 7//14
f  8//15 10//15 9//15
f  10//15 8//15 7//16
f  10//15 7//16 11//17
f  11//17 7//16 12//18

