# File produced by Open Asset Import Library (http://www.assimp.sf.net)
# (assimp v3.1.0)

mtllib ID_37033.obj.mtl

# 21 vertex positions
v  9.292 4.237 -0.202
v  4.235 9.221 1.239
v  8.462 4.243 2.475
v  5.06 9.221 -1.439
v  10.084 4.231 -2.753
v  5.07 9.221 -1.471
v  9.818 4.551 -2.849
v  0.826 4.234 -2.678
v  5.053 9.204 -1.466
v  1.651 4.234 -5.356
v  0 4.234 2.59258e-16
v  1.651 3.2796e-16 -5.356
v  0 0 0
v  0.826 1.6398e-16 -2.678
v  4.235 -7.58669e-17 1.239
v  8.462 -1.5155e-16 2.475
v  10.084 1.68573e-16 -2.753
v  9.292 1.23689e-17 -0.202
v  9.818 1.74451e-16 -2.849
v  5.053 8.97666e-17 -1.466
v  5.07 9.00728e-17 -1.471

# 0 UV coordinates

# 32 vertex normals
vn 0.715823 0.662569 0.220455
vn 0.715822 0.662548 0.22052
vn 0.715778 0.662547 0.220667
vn 0.715674 0.661657 0.223654
vn 0.715698 0.661836 0.223045
vn -0.715804 0.662569 -0.220515
vn -0.712193 0.662397 -0.232405
vn -0.715833 0.662535 -0.220523
vn -0.715691 0.662614 -0.220747
vn -0.955679 0 -0.294412
vn -0.955578 0.000225685 -0.294738
vn -0.955628 1.80375e-17 -0.294575
vn -3.95379e-20 -1 -6.12441e-17
vn -0.280723 -6.3588e-05 0.959789
vn -0.280723 0 0.959789
vn -0.280792 0.000149197 0.959769
vn -0.280654 0 0.959809
vn 0.955144 -0 0.296141
vn 0.955031 0.000251769 0.296505
vn 0.955089 0 0.296319
vn 0 -1 -6.12348e-17
vn 0.339471 0 -0.940617
vn -0.278726 0 -0.960371
vn -0.280996 -0.00126778 -0.959708
vn -0.278738 -0 -0.960367
vn 3.48556e-20 1 6.13524e-17
vn 0.752744 0 -0.658313
vn 0.752744 0 -0.658313
vn 3.5078e-23 -1 -6.12323e-17
vn -2.23503e-24 -1 -6.12323e-17
vn -4.2395e-24 -1 -6.12323e-17
vn 5.12107e-22 -1 -6.12322e-17

# Mesh 'defaultobject' with 37 faces
g defaultobject
usemtl DefaultMaterial
f  1//1 2//1 3//1
f  2//2 1//2 4//2
f  4//3 1//3 5//3
f  4//4 5//4 6//4
f  6//5 5//5 7//5
f  8//6 9//6 10//6
f  9//7 8//7 4//7
f  4//8 8//8 2//8
f  2//9 8//9 11//9
f  12//10 8//10 10//10
f  8//11 12//11 11//11
f  11//12 12//12 13//12
f  13//13 12//13 14//13
f  11//14 3//14 2//14
f  3//15 11//15 13//15
f  3//16 13//16 15//16
f  3//17 15//17 16//17
f  16//18 1//18 3//18
f  1//19 16//19 5//19
f  5//20 16//20 17//20
f  17//21 16//21 18//21
f  5//22 19//22 7//22
f  19//22 5//22 17//22
f  19//23 6//23 7//23
f  6//24 19//24 9//24
f  9//25 19//25 20//25
f  20//26 19//26 21//26
f  20//27 10//27 9//27
f  10//27 20//27 12//28
f  18//21 19//29 17//21
f  19//29 18//21 21//30
f  21//30 18//21 16//21
f  21//30 16//21 15//31
f  21//30 15//31 20//32
f  20//32 15//31 12//13
f  12//13 15//31 14//13
f  14//13 15//31 13//13

