# File produced by Open Asset Import Library (http://www.assimp.sf.net)
# (assimp v3.1.0)

mtllib ID_31593.obj.mtl

# 14 vertex positions
v  4.964 11.186 -0.412
v  10.335 7.346 4.39
v  9.925 7.346 -0.823
v  10.396 7.346 5.159
v  5.435 11.186 5.57
v  0 7.342 4.49568e-16
v  0.48 7.349 5.981
v  0.48 -3.66231e-16 5.981
v  10.396 -3.15898e-16 5.159
v  5.435 -3.41064e-16 5.57
v  9.925 5.03942e-17 -0.823
v  10.335 -2.6881e-16 4.39
v  0 0 0
v  4.964 2.52277e-17 -0.412

# 0 UV coordinates

# 21 vertex normals
vn 0.60891 0.791793 -0.0478905
vn 0.609145 0.791585 -0.0483196
vn 0.608905 0.791793 -0.0479429
vn -0.609068 0.791667 0.0479557
vn -0.609066 0.791668 0.0479535
vn 0.082613 6.45095e-05 0.996582
vn 0.082613 0 0.996582
vn 0.082613 0 0.996582
vn 0 -1 -6.12385e-17
vn 0.996869 0 -0.0790752
vn 0.996921 7.03509e-05 -0.0784074
vn 0.996915 0 -0.0784932
vn 7.83572e-20 -1 -6.12361e-17
vn -0.0826383 -9.74419e-05 -0.99658
vn -0.0826383 0 -0.99658
vn -0.0826383 6.10229e-17 -0.99658
vn 0 1 6.12412e-17
vn -0.996795 0 0.0799969
vn -0.996795 0 0.0799969
vn -4.43042e-25 -1 -6.12323e-17
vn 4.42824e-25 -1 -6.12323e-17

# Mesh 'defaultobject' with 24 faces
g defaultobject
usemtl DefaultMaterial
f  1//1 2//1 3//1
f  2//2 1//2 4//2
f  4//3 1//3 5//3
f  6//4 5//4 1//4
f  5//4 6//4 7//5
f  7//6 4//6 5//6
f  4//7 7//7 8//7
f  4//7 8//7 9//8
f  9//9 8//9 10//9
f  9//10 2//10 4//10
f  2//11 9//11 3//11
f  3//12 9//12 11//12
f  11//13 9//9 12//13
f  3//14 6//14 1//14
f  6//15 3//15 11//15
f  6//15 11//15 13//16
f  13//17 11//17 14//17
f  6//18 8//18 7//18
f  8//18 6//18 13//19
f  10//9 12//13 9//9
f  12//13 10//9 11//13
f  11//13 10//9 8//9
f  11//13 8//9 14//20
f  14//20 8//9 13//21

