# File produced by Open Asset Import Library (http://www.assimp.sf.net)
# (assimp v3.1.0)

mtllib ID_46827.obj.mtl

# 10 vertex positions
v  2.7 1.915 -3.02
v  3.27 4.98 2.92
v  5.97 4.98 -0.1
v  2.3 4.069 2.05
v  0 1.915 1.1726e-16
v  3.27 -1.78798e-16 2.92
v  5.97 6.12323e-18 -0.1
v  2.7 1.84922e-16 -3.02
v  0 0 0
v  2.3 -1.25526e-16 2.05

# 0 UV coordinates

# 14 vertex normals
vn -0.427162 0.819564 -0.381899
vn -0.427184 0.819556 -0.381893
vn -0.427158 0.819568 -0.381896
vn 0.745499 -0 0.666506
vn 0.666061 0 -0.745897
vn 0.666061 0 -0.745897
vn -0.745499 0 -0.666506
vn -0.745499 4.08117e-17 -0.666506
vn -0.667692 0 0.744438
vn -0.665795 0.000814712 0.746134
vn -0.667683 -0.00500959 0.744429
vn -0.665371 0 0.746513
vn 0 -1 -6.12323e-17
vn 0 -1 -6.12323e-17

# Mesh 'defaultobject' with 16 faces
g defaultobject
usemtl DefaultMaterial
f  1//1 2//1 3//1
f  2//2 1//2 4//2
f  4//3 1//1 5//3
f  6//4 3//4 2//4
f  3//4 6//4 7//4
f  7//5 1//5 3//5
f  1//5 7//5 8//6
f  8//7 5//7 1//7
f  5//7 8//7 9//8
f  4//9 6//9 2//9
f  6//10 4//10 5//10
f  6//11 5//11 10//11
f  10//12 5//12 9//12
f  6//13 8//13 7//13
f  8//13 6//13 10//14
f  8//13 10//14 9//13

