# File produced by Open Asset Import Library (http://www.assimp.sf.net)
# (assimp v3.1.0)

mtllib ID_40529.obj.mtl

# 17 vertex positions
v  7.48 2.2 -3.37
v  7.28 2.201 0.506
v  7.548 2.19 -3.364
v  3.674 2.747 0.007
v  3.662 2.747 0.259
v  0.196 2.189 -3.951
v  0.194 2.195 -3.916
v  0 2.195 1.34405e-16
v  3.152 2.67 0.224
v  0 0 0
v  3.152 -1.3716e-17 0.224
v  3.662 -1.58592e-17 0.259
v  7.28 -3.09836e-17 0.506
v  7.548 2.05986e-16 -3.364
v  0.196 2.41929e-16 -3.951
v  7.48 2.06353e-16 -3.37
v  0.194 2.39786e-16 -3.916

# 0 UV coordinates

# 30 vertex normals
vn 0.144867 0.989425 0.00721981
vn 0.1487 0.988854 0.00741776
vn 0.148746 0.98885 0.00708312
vn 0.0103521 0.988857 -0.148506
vn 0.0320611 0.985419 -0.167098
vn -0.14856 0.988876 -0.0073597
vn -0.148562 0.988882 -0.0064777
vn -0.148809 0.988841 -0.00708619
vn -0.0708872 -6.10783e-17 0.997484
vn -0.0708872 0 0.997484
vn -0.0684664 0 0.997653
vn -0.0681209 -6.44477e-05 0.997677
vn -0.0684664 0.000586537 0.997653
vn -0.0681112 0 0.997678
vn 0.997611 -0 0.0690851
vn 0.997611 0 0.0690851
vn 0.0794684 -0.0567296 -0.995222
vn 0.0795889 0 -0.996828
vn 0.0795889 0 -0.996828
vn -4.33829e-21 1 6.1285e-17
vn -0.998775 0 -0.0494797
vn -0.998417 -0.0103697 -0.0552747
vn -0.998775 0.000121402 -0.0494797
vn -0.998371 0 -0.0570493
vn -9.40789e-25 -1 -6.12323e-17
vn 2.66867e-23 -1 -6.12324e-17
vn -4.21838e-22 -1 -6.12329e-17
vn 9.22509e-25 -1 -6.12323e-17
vn 1.69441e-23 -1 -6.12323e-17
vn 5.63658e-20 -1 -6.12296e-17

# Mesh 'defaultobject' with 30 faces
g defaultobject
usemtl DefaultMaterial
f  1//1 2//1 3//1
f  2//2 1//2 4//2
f  2//3 4//3 5//3
f  4//4 1//4 6//4
f  4//5 6//5 7//5
f  8//6 4//6 7//6
f  4//7 8//7 9//7
f  4//8 9//8 5//8
f  10//9 9//9 8//9
f  9//9 10//9 11//10
f  9//11 11//11 5//11
f  5//12 11//12 2//12
f  2//13 11//13 12//13
f  2//14 12//14 13//14
f  13//15 3//15 2//15
f  3//15 13//15 14//16
f  3//17 6//17 1//17
f  6//18 3//18 14//18
f  6//18 14//18 15//19
f  15//20 14//20 16//20
f  7//21 10//21 8//21
f  10//22 7//22 6//22
f  10//23 6//23 17//23
f  17//24 6//24 15//24
f  12//25 14//25 13//25
f  14//25 12//25 11//26
f  14//25 11//26 16//27
f  16//27 11//26 15//28
f  15//28 11//26 10//29
f  15//28 10//29 17//30

