# File produced by Open Asset Import Library (http://www.assimp.sf.net)
# (assimp v3.1.0)

mtllib ID_48338.obj.mtl

# 19 vertex positions
v  3.363 3.183 0.695
v  2.466 3.183 1.81
v  2.516 3.163 1.847
v  2.385 3.216 1.751
v  1.912 4.083 -1.86
v  5.594 3.237 -2.342
v  3.301 3.216 -4.105
v  5.631 3.216 -2.393
v  1.651 4.083 -2.052
v  0 3.216 1.96923e-16
v  2.516 -1.13096e-16 1.847
v  2.466 -1.10831e-16 1.81
v  0 0 0
v  2.385 -1.07218e-16 1.751
v  3.363 -4.25565e-17 0.695
v  5.594 1.43406e-16 -2.342
v  5.631 1.46529e-16 -2.393
v  3.301 2.51359e-16 -4.105
v  1.651 1.25649e-16 -2.052

# 0 UV coordinates

# 32 vertex normals
vn 0.23868 0.951926 0.192014
vn 0.243963 0.949717 0.196265
vn 0.243799 0.949791 0.19611
vn 0.243892 0.949779 0.196052
vn 0.187223 0.948694 -0.254807
vn 0.185213 0.949783 -0.252206
vn 0.18543 0.949777 -0.252069
vn -0.185211 0.949766 0.252272
vn -0.185622 0.94967 0.25233
vn -0.594844 0 0.803841
vn -0.588725 0.000148336 0.808333
vn -0.591803 -4.4232e-05 0.806083
vn -0.59484 -0.00371045 0.803836
vn -0.591704 0 0.806156
vn -1.85282e-21 1 6.12356e-17
vn 0.805671 -0 0.592364
vn 0.805917 -0.000186853 0.592029
vn 0.805671 0.000480909 0.592364
vn 0.805915 0 0.592031
vn 0.809421 0 0.587229
vn 0.809421 0 0.587229
vn 0.592113 0 -0.805855
vn -0.779459 0 -0.626453
vn -0.779183 0.000284009 -0.626796
vn -0.779459 -0.000437119 -0.626453
vn -0.779125 3.83847e-17 -0.626869
vn -1.72543e-22 -1 -6.12321e-17
vn 3.47533e-24 -1 -6.12323e-17
vn 1.75252e-24 -1 -6.12323e-17
vn 0 -1 -6.12323e-17
vn 6.74289e-23 -1 -6.12323e-17
vn 0 -1 -6.12259e-17

# Mesh 'defaultobject' with 34 faces
g defaultobject
usemtl DefaultMaterial
f  1//1 2//1 3//1
f  2//2 1//2 4//2
f  4//3 1//3 5//3
f  5//4 1//4 6//4
f  7//5 6//5 8//5
f  6//6 7//6 5//6
f  5//7 7//7 9//7
f  4//8 9//8 10//8
f  9//9 4//9 5//9
f  2//10 11//10 3//10
f  11//11 2//11 4//11
f  11//12 4//12 10//12
f  11//13 10//13 12//13
f  12//14 10//14 13//14
f  12//15 13//15 14//15
f  11//16 1//16 3//16
f  1//17 11//17 6//17
f  6//18 11//18 15//18
f  6//19 15//19 16//19
f  6//20 16//20 8//20
f  8//20 16//20 17//21
f  17//22 7//22 8//22
f  7//22 17//22 18//22
f  18//23 9//23 7//23
f  9//24 18//24 10//24
f  10//25 18//25 19//25
f  10//26 19//26 13//26
f  16//27 18//27 17//27
f  18//27 16//27 19//28
f  19//28 16//27 15//29
f  19//28 15//29 13//30
f  13//30 15//29 12//30
f  12//30 15//29 11//31
f  13//30 12//30 14//32

