# File produced by Open Asset Import Library (http://www.assimp.sf.net)
# (assimp v3.1.0)

mtllib ID_57039.obj.mtl

# 8 vertex positions
v  0.472 1.977 -1.402
v  3.515 1.977 1.184
v  4.001 1.977 -0.259
v  0 1.977 1.21056e-16
v  3.515 -7.24991e-17 1.184
v  4.001 1.58592e-17 -0.259
v  0.472 8.58477e-17 -1.402
v  0 0 0

# 0 UV coordinates

# 9 vertex normals
vn 0 1 0
vn 0.947694 -0 0.319182
vn 0.308129 0 -0.951345
vn -0.947733 0 -0.319066
vn -0.947733 1.95371e-17 -0.319066
vn -0.319219 -5.80287e-17 0.947681
vn -0.319219 0 0.947681
vn 0 -1 -6.12323e-17
vn -3.01497e-25 -1 -6.12323e-17

# Mesh 'defaultobject' with 12 faces
g defaultobject
usemtl DefaultMaterial
f  1//1 2//1 3//1
f  2//1 1//1 4//1
f  5//2 3//2 2//2
f  3//2 5//2 6//2
f  6//3 1//3 3//3
f  1//3 6//3 7//3
f  7//4 4//4 1//4
f  4//4 7//4 8//5
f  8//6 2//6 4//6
f  2//6 8//6 5//7
f  8//8 6//8 5//8
f  6//8 8//8 7//9

