# {"id":"ID_13119","idOriginal":"ID_13119","origin":[14.306549340528413,48.2485894971084],"elevation":258.118}
# Longitude: 14.306549340528413
# Latitude: 48.2485894971084
# Elevation: 258.118

# File produced by Open Asset Import Library (http://www.assimp.sf.net)
# (assimp v3.1.0)

mtllib ID_13119.obj.mtl

# 58 vertex positions
v  9.509 11.348 2.249
v  15.979 7.491 8.244
v  17.014 8.011 6.326
v  15.359 7.18 9.391
v  14.65 7.491 9.016
v  14.546 7.537 8.961
v  11.483 7.537 10.742
v  11.429 7.569 10.692
v  17.058 7.904 -2.494
v  17.739 7.567 -5.605
v  17.874 7.536 -2.535
v  17.085 7.915 -0.197
v  17.11 7.924 1.881
v  17.14 7.936 4.413
v  17.848 7.621 4.782
v  17.732 7.573 -5.757
v  9.905 11.348 -5.696
v  2.046 7.558 -5.632
v  2.026 7.923 -3.345
v  1.672 7.847 -2.761
v  1.329 7.711 -2.195
v  0.157 7.569 0.147
v  0.917 7.643 -1.515
v  0 7.491 4.58691e-16
v  5.793 11.348 5.42
v  14.546 -5.48703e-16 8.961
v  15.359 -5.75033e-16 9.391
v  14.65 -5.52071e-16 9.016
v  0 0 0
v  0.157 -9.00115e-18 0.147
v  5.793 -3.31879e-16 5.42
v  11.429 -6.54696e-16 10.692
v  11.483 -6.57758e-16 10.742
v  15.979 -5.04799e-16 8.244
v  17.848 -2.92813e-16 4.782
v  17.014 -3.87356e-16 6.326
v  17.14 -2.70218e-16 4.413
v  17.085 1.20628e-17 -0.197
v  17.058 1.52713e-16 -2.494
v  17.11 -1.15178e-16 1.881
v  17.874 1.55224e-16 -2.535
v  17.732 3.52515e-16 -5.757
v  17.739 3.43207e-16 -5.605
v  9.905 3.48779e-16 -5.696
v  2.046 3.44861e-16 -5.632
v  2.026 2.04822e-16 -3.345
v  1.672 1.69062e-16 -2.761
v  1.329 1.34405e-16 -2.195
v  0.917 9.2767e-17 -1.515
v  2.05 7.491 -6.051
v  2.046 7.491 -5.632
v  4.619 7.491 -6.15
v  4.641 7.491 -5.728
v  9.905 7.491 -5.696
v  17.732 7.491 -5.757
v  4.641 3.50739e-16 -5.728
v  4.619 3.76579e-16 -6.15
v  2.05 3.70517e-16 -6.051

# 0 UV coordinates

# 89 vertex normals
vn 0.209125 0.909444 0.359414
vn 0.208987 0.909422 0.359549
vn 0.208551 0.909389 0.359886
vn 0.214234 0.909697 0.355745
vn 0.209032 0.909432 0.359498
vn 0.205342 0.909858 0.360546
vn 0.410392 0.911865 -0.00894303
vn 0.410721 0.911718 -0.0088549
vn 0.410262 0.911921 -0.00918927
vn 0.410345 0.911887 -0.00888646
vn 0.410332 0.91189 -0.00918334
vn 0.410227 0.911942 -0.00873343
vn 0.410276 0.911919 -0.00872931
vn 0.429858 0.902758 0.0158394
vn 0.434453 0.900434 0.0216543
vn -0.430692 0.890626 -0.145908
vn -0.430529 0.890847 -0.14504
vn -0.39722 0.91751 -0.0197985
vn -0.397039 0.917581 -0.0201298
vn -0.350316 0.929064 -0.118826
vn -0.349067 0.92961 -0.118231
vn -0.348965 0.929617 -0.11847
vn -0.286903 0.897021 -0.336214
vn 0.286926 0.897004 0.33624
vn -0.467492 0 0.883997
vn -0.467543 9.03459e-07 0.88397
vn -0.467537 0 0.883973
vn -9.10019e-19 -1 -5.94546e-17
vn -0.683477 -4.46979e-17 0.729972
vn -0.683196 -1.09534e-05 0.730235
vn -0.68315 -5.46131e-05 0.730278
vn -0.683479 0.000876393 0.72997
vn -0.683199 9.63171e-05 0.730232
vn -0.68313 0 0.730296
vn -0.679403 0 0.733765
vn -0.679403 0 0.733765
vn 0.879706 -0 0.475517
vn 0.880058 -0.000128814 0.474866
vn 0.879854 5.76539e-05 0.475243
vn 0.879706 0.000271612 0.475517
vn 0.879956 0 0.475054
vn 0 -1 -6.12299e-17
vn 0.50266 -0 0.864484
vn 0.462181 0 -0.886786
vn 0.462181 0 -0.886786
vn 0.99993 0 -0.011847
vn 0.999928 -5.8605e-05 -0.0120304
vn 0.999931 0.000102701 -0.0117535
vn 0.999929 -5.13861e-05 -0.0119298
vn 0.999931 0 -0.011753
vn -5.47802e-20 1 6.12331e-17
vn 0.999035 0 -0.0439316
vn 0.998939 -0.000856052 -0.0460374
vn 0.99903 0 -0.0440293
vn -2.72919e-20 1 6.12336e-17
vn 0.050182 -0 0.99874
vn 0.050182 0 0.99874
vn -0.00779328 0 -0.99997
vn -0.00805592 -0.000181159 -0.999968
vn -0.00779328 0.000363959 -0.99997
vn -0.00814328 -0 -0.999967
vn -0.999962 0 -0.00874474
vn -0.999962 0 -0.00874474
vn -0.855158 0 -0.518367
vn -0.855217 -9.8464e-06 -0.51827
vn -0.855264 -2.57059e-05 -0.518192
vn -0.855487 -0.000146093 -0.517824
vn -0.855342 3.17223e-17 -0.518064
vn 0 1 6.12469e-17
vn 0 1 6.12537e-17
vn -4.27009e-20 1 6.12117e-17
vn 7.2483e-24 -1 -6.12323e-17
vn 3.40588e-24 -1 -6.12323e-17
vn 0 -1 -6.12323e-17
vn 5.02224e-24 -1 -6.12323e-17
vn -1.31976e-23 -1 -6.12323e-17
vn -1.14379e-21 -1 -6.12328e-17
vn 0 -1 -6.12323e-17
vn -3.55152e-23 -1 -6.12323e-17
vn 3.43045e-23 -1 -6.12323e-17
vn -0 1 -0
vn -0.00221524 0 -0.999998
vn -0.0385078 0 -0.999258
vn 0.998644 0 -0.0520616
vn -0.999955 0 -0.00954598
vn 0.00779328 0 0.99997
vn 0.00814328 -0 0.999967
vn 2.28309e-24 -1 -6.12324e-17
vn -7.61469e-25 -1 -6.12324e-17

# Mesh 'defaultobject' with 113 faces
g defaultobject
usemtl DefaultMaterial
f  1//1 2//1 3//1
f  2//2 1//2 4//2
f  4//3 1//3 5//3
f  5//4 1//4 6//4
f  6//5 1//5 7//5
f  7//6 1//6 8//6
f  1//7 9//7 10//7
f  11//8 10//8 9//8
f  12//9 9//9 1//9
f  13//10 12//10 1//10
f  14//11 13//11 1//11
f  3//12 14//12 1//12
f  15//13 14//13 3//13
f  16//14 1//14 10//14
f  1//15 16//15 17//15
f  18//16 19//16 17//16
f  20//17 17//17 19//17
f  20//18 1//18 17//18
f  1//19 20//19 21//19
f  22//20 23//20 24//20
f  23//21 22//21 1//21
f  23//22 1//22 21//22
f  1//23 22//23 25//23
f  1//24 25//24 8//24
f  26//25 5//25 6//25
f  5//26 26//26 4//26
f  4//26 26//26 27//27
f  27//28 26//28 28//28
f  29//29 22//29 24//29
f  22//30 29//30 25//30
f  25//31 29//31 8//31
f  8//32 29//32 30//32
f  8//33 30//33 31//33
f  8//34 31//34 32//34
f  8//35 32//35 7//35
f  7//35 32//35 33//36
f  27//37 2//37 4//37
f  2//38 27//38 3//38
f  3//39 27//39 15//39
f  15//40 27//40 34//40
f  15//41 34//41 35//41
f  35//42 34//42 36//42
f  33//43 6//43 7//43
f  6//43 33//43 26//43
f  15//44 37//44 14//44
f  37//44 15//44 35//45
f  37//46 13//46 14//46
f  13//47 37//47 12//47
f  12//48 37//48 9//48
f  9//49 37//49 38//49
f  9//50 38//50 39//50
f  38//51 37//51 40//51
f  41//52 10//52 11//52
f  10//53 41//53 16//53
f  16//54 41//54 42//54
f  42//55 41//55 43//55
f  39//56 11//56 9//56
f  11//56 39//56 41//57
f  42//58 17//58 16//58
f  17//59 42//59 18//59
f  18//60 42//60 44//60
f  18//61 44//61 45//61
f  18//62 46//62 19//62
f  46//62 18//62 45//63
f  46//64 20//64 19//64
f  20//65 46//65 21//65
f  21//66 46//66 23//66
f  23//67 46//67 24//67
f  24//68 46//68 29//68
f  29//69 46//69 47//69
f  29//69 47//69 48//70
f  29//69 48//70 49//71
f  41//72 39//72 43//72
f  44//73 46//73 45//73
f  46//73 44//73 31//74
f  31//74 44//73 32//75
f  32//75 44//73 42//76
f  32//75 42//76 33//77
f  33//77 42//76 26//28
f  26//28 42//76 43//72
f  26//28 43//72 39//72
f  26//28 39//72 38//78
f  26//28 38//78 40//78
f  26//28 40//78 28//28
f  28//28 40//78 37//74
f  28//28 37//74 27//28
f  27//28 37//74 34//42
f  34//42 37//74 36//42
f  36//42 37//74 35//42
f  49//79 30//79 29//79
f  30//79 49//79 31//74
f  31//74 49//79 48//80
f  31//74 48//80 46//73
f  50//81 51//81 52//81
f  53//81 52//81 51//81
f  54//81 53//81 51//81
f  55//81 53//81 54//81
f  42//82 53//82 55//82
f  53//82 42//82 56//82
f  57//83 50//83 52//83
f  50//83 57//83 58//83
f  56//84 52//84 53//84
f  52//84 56//84 57//84
f  58//85 51//85 50//85
f  51//85 58//85 45//85
f  54//86 42//86 55//86
f  42//86 54//86 44//86
f  44//87 54//87 51//87
f  44//87 51//87 45//87
f  58//88 56//88 45//73
f  44//73 45//73 56//88
f  57//89 56//88 58//88
f  42//76 44//73 56//88

