# {"id":"ID_21380","idOriginal":"ID_21380","origin":[14.286931525275186,48.26258458528306],"elevation":281.735}
# Longitude: 14.286931525275186
# Latitude: 48.26258458528306
# Elevation: 281.735

# File produced by Open Asset Import Library (http://www.assimp.sf.net)
# (assimp v3.1.0)

mtllib ID_21380.obj.mtl

# 15 vertex positions
v  5.039 6.986 -5.497
v  6.244 7.724 4.123
v  5.784 6.986 -6.31
v  3.551 6.986 -3.874
v  0 6.986 4.27769e-16
v  5.461 7.724 4.977
v  10.924 6.986 9.955
v  16.687 6.986 3.662
v  0 0 0
v  5.461 -3.04753e-16 4.977
v  10.924 -6.09568e-16 9.955
v  16.687 -2.24233e-16 3.662
v  5.784 3.86376e-16 -6.31
v  3.551 2.37214e-16 -3.874
v  5.039 3.36594e-16 -5.497

# 0 UV coordinates

# 21 vertex normals
vn -0.0732851 0.995047 -0.0671555
vn -0.0732529 0.99505 -0.0671597
vn -0.0732643 0.995049 -0.0671558
vn -0.0732571 0.995049 -0.0671667
vn 0.073236 0.995052 0.0671473
vn 0.0732821 0.995051 0.0671103
vn 0.0670816 0.995048 -0.0733445
vn -0.673595 -4.52569e-17 0.7391
vn -0.673595 0 0.7391
vn -0.673534 0 0.739156
vn -0.673534 0 0.739156
vn 0.73748 -0 0.675369
vn 0.6749 0 -0.737909
vn -0.737267 0 -0.675601
vn -0.737098 3.95625e-05 -0.675786
vn -0.73717 -1.104e-05 -0.675707
vn -0.737154 1.7598e-05 -0.675725
vn -0.73717 4.13751e-17 -0.675707
vn -8.70081e-20 -1 -6.13407e-17
vn -1.25913e-24 -1 -6.12323e-17
vn 0 -1 -6.12323e-17

# Mesh 'defaultobject' with 26 faces
g defaultobject
usemtl DefaultMaterial
f  1//1 2//1 3//1
f  2//2 1//2 4//2
f  2//3 4//3 5//3
f  2//2 5//4 6//4
f  7//5 2//5 6//5
f  2//6 7//6 8//6
f  2//7 8//7 3//7
f  9//8 6//8 5//8
f  6//8 9//8 10//9
f  6//10 10//10 7//10
f  7//10 10//10 11//11
f  11//12 8//12 7//12
f  8//12 11//12 12//12
f  12//13 3//13 8//13
f  3//13 12//13 13//13
f  13//14 1//14 3//14
f  1//15 13//15 4//15
f  4//16 13//16 5//16
f  5//17 13//17 14//17
f  5//18 14//18 9//18
f  14//19 13//19 15//19
f  10//20 12//20 11//20
f  12//20 10//20 13//19
f  13//19 10//20 15//19
f  15//19 10//20 9//21
f  15//19 9//21 14//19

