# {"id":"ID_39842","idOriginal":"ID_39842","origin":[14.259918833928777,48.32489047924339],"elevation":503.932,"wof":[{"Id":102049853,"Name":"Linz","Placetype":"county","Offset":-1},{"Id":85632785,"Name":"Austria","Placetype":"country","Offset":-1},{"Id":101748071,"Name":"Linz","Placetype":"locality","Offset":-1},{"Id":85681677,"Name":"Oberösterreich","Placetype":"region","Offset":-1},{"Id":85898453,"Name":"Urfahr","Placetype":"neighbourhood","Offset":-1}]}

# Attribution: City of Linz <http://geo.data.linz.gv.at/katalog/geodata/3d_geo_daten_lod2/>
# Longitude: 14.259918833928777
# Latitude: 48.32489047924339
# Elevation: 503.932

# File produced by Open Asset Import Library (http://www.assimp.sf.net)
# (assimp v3.1.0)


# 8 vertex positions
v  0.42 3.227 -6.953
v  4.293 2.146 0.314
v  4.719 2.146 -6.755
v  0 3.227 1.97597e-16
v  0.42 4.25748e-16 -6.953
v  4.719 4.13624e-16 -6.755
v  0 0 0
v  4.293 -1.9227e-17 0.314

# 0 UV coordinates

# 11 vertex normals
vn 0.243201 0.969865 0.0146561
vn 0.243146 0.969878 0.0146874
vn 0.0460084 0 -0.998941
vn 0.0460084 0 -0.998941
vn -0.998181 0 -0.0602957
vn -0.998181 3.69204e-18 -0.0602957
vn -0.0729475 -6.10692e-17 0.997336
vn -0.0729475 0 0.997336
vn 0.998189 -0 0.0601539
vn 1.38976e-23 -1 -6.12323e-17
vn 0 -1 -6.12323e-17

# Mesh 'defaultobject' with 12 faces
g defaultobject
usemtl DefaultMaterial
f  1//1 2//1 3//1
f  2//2 1//2 4//2
f  3//3 5//3 1//3
f  5//3 3//3 6//4
f  5//5 4//5 1//5
f  4//5 5//5 7//6
f  7//7 2//7 4//7
f  2//7 7//7 8//8
f  8//9 3//9 2//9
f  3//9 8//9 6//9
f  8//10 5//10 6//10
f  5//10 8//10 7//11

