# {"id":"_60558","idOriginal":"_60558","origin":[14.306797822870294,48.30424438797957],"elevation":259.423,"wof":[{"Id":101748071,"Name":"Linz","Placetype":"locality","Offset":-1},{"Id":102049853,"Name":"Linz","Placetype":"county","Offset":-1},{"Id":85632785,"Name":"Austria","Placetype":"country","Offset":-1},{"Id":85898449,"Name":"Steeg","Placetype":"neighbourhood","Offset":-1},{"Id":85681677,"Name":"Oberösterreich","Placetype":"region","Offset":-1}]}

# Attribution: City of Linz <http://geo.data.linz.gv.at/katalog/geodata/3d_geo_daten_lod2/>
# Longitude: 14.306797822870294
# Latitude: 48.30424438797957
# Elevation: 259.423

# File produced by Open Asset Import Library (http://www.assimp.sf.net)
# (assimp v3.1.0)


# 10 vertex positions
v  2.465 4.502 0.042
v  0.268 4.502 0.503
v  2.454 4.502 0.512
v  0.173 4.502 0.273
v  0 4.502 2.75668e-16
v  0.268 -3.07999e-17 0.503
v  2.454 -3.1351e-17 0.512
v  2.465 -2.57176e-18 0.042
v  0 0 0
v  0.173 -1.67164e-17 0.273

# 0 UV coordinates

# 11 vertex normals
vn 0 1 0
vn -0.00411708 0 0.999992
vn 0.999726 -0 0.0233977
vn 0.0170361 0 -0.999855
vn 0.0170361 6.12235e-17 -0.999855
vn -0.924261 0 0.38176
vn -0.844679 -3.2776e-17 0.535273
vn -0.844679 0 0.535273
vn 1.761e-25 -1 -6.12323e-17
vn -1.50642e-24 -1 -6.12323e-17
vn -1.55326e-25 -1 -6.12323e-17

# Mesh 'defaultobject' with 16 faces
g defaultobject
usemtl DefaultMaterial
f  1//1 2//1 3//1
f  2//1 1//1 4//1
f  4//1 1//1 5//1
f  6//2 3//2 2//2
f  3//2 6//2 7//2
f  7//3 1//3 3//3
f  1//3 7//3 8//3
f  8//4 5//4 1//4
f  5//4 8//4 9//5
f  10//6 2//6 4//6
f  2//6 10//6 6//6
f  9//7 4//7 5//7
f  4//7 9//7 10//8
f  6//9 8//9 7//9
f  8//9 6//9 10//10
f  8//9 10//10 9//11

