# {"id":"ID_20034","idOriginal":"ID_20034","origin":[14.29376871516554,48.2864321583058],"elevation":261.8}
# Longitude: 14.29376871516554
# Latitude: 48.2864321583058
# Elevation: 261.8

# File produced by Open Asset Import Library (http://www.assimp.sf.net)
# (assimp v3.1.0)

mtllib ID_20034.obj.mtl

# 22 vertex positions
v  0 10.255 6.27938e-16
v  18.857 10.255 2.123
v  4.184 10.255 -6.815
v  4.505 10.255 2.749
v  10.563 10.255 6.302
v  14.821 10.255 8.999
v  18.199 10.255 3.337
v  17 10.255 5.548
v  16.895 10.255 5.741
v  14.864 10.255 9.026
v  15.005 10.255 9.116
v  15.005 -5.58194e-16 9.116
v  14.864 -5.52683e-16 9.026
v  10.563 -3.85886e-16 6.302
v  14.821 -5.5103e-16 8.999
v  0 0 0
v  4.505 -1.68328e-16 2.749
v  18.857 -1.29996e-16 2.123
v  16.895 -3.51535e-16 5.741
v  17 -3.39717e-16 5.548
v  18.199 -2.04332e-16 3.337
v  4.184 4.17298e-16 -6.815

# 0 UV coordinates

# 30 vertex normals
vn -0 1 0
vn -0.538037 0 0.842921
vn -0.531772 0.00012094 0.846887
vn -0.53509 3.75435e-05 0.844795
vn -0.538036 -0.00175311 0.84292
vn -0.535057 0 0.844816
vn 7.00477e-21 1 6.12209e-17
vn -0.52089 -5.22694e-17 0.853624
vn -0.52089 0 0.853624
vn -0.505906 0 0.862589
vn 0.872506 -0 0.488603
vn 0.878409 -0.00461444 0.477888
vn 0.879051 -0.00515301 0.476699
vn 0.879153 -0.00529115 0.47651
vn 0.875906 0 0.482481
vn -4.89564e-22 1 6.12324e-17
vn 8.66685e-20 1 6.12746e-17
vn 3.55271e-20 1 6.12488e-17
vn 0.520228 0 -0.854028
vn -0.852207 0 -0.523204
vn -0.852207 3.2037e-17 -0.523204
vn 7.70629e-25 -1 -6.12323e-17
vn 1.08977e-24 -1 -6.12324e-17
vn 0 -1 -6.12323e-17
vn -5.48094e-23 -1 -6.12323e-17
vn 0 -1 -6.12323e-17
vn -4.03888e-24 -1 -6.12323e-17
vn 9.47582e-23 -1 -6.12323e-17
vn 0 -1 -6.12326e-17
vn 0 -1 -6.12628e-17

# Mesh 'defaultobject' with 40 faces
g defaultobject
usemtl DefaultMaterial
f  1//1 2//1 3//1
f  2//1 1//1 4//1
f  2//1 4//1 5//1
f  2//1 5//1 6//1
f  2//1 6//1 7//1
f  7//1 6//1 8//1
f  8//1 6//1 9//1
f  9//1 6//1 10//1
f  9//1 10//1 11//1
f  10//2 12//2 11//2
f  12//3 10//3 6//3
f  12//4 6//4 5//4
f  12//5 5//5 13//5
f  13//6 5//6 14//6
f  13//7 14//7 15//7
f  16//8 4//8 1//8
f  4//8 16//8 17//9
f  17//10 5//10 4//10
f  5//10 17//10 14//10
f  12//11 9//11 11//11
f  9//12 12//12 8//12
f  8//13 12//13 7//13
f  7//14 12//14 2//14
f  2//15 12//15 18//15
f  18//16 12//16 19//16
f  18//16 19//16 20//17
f  18//16 20//17 21//18
f  18//19 3//19 2//19
f  3//19 18//19 22//19
f  22//20 1//20 3//20
f  1//20 22//20 16//21
f  18//22 16//22 22//22
f  16//22 18//22 21//23
f  16//22 21//23 20//24
f  16//22 20//24 19//25
f  16//22 19//25 14//26
f  14//26 19//25 13//27
f  13//27 19//25 12//28
f  16//22 14//26 17//29
f  14//26 13//27 15//30

