# {"id":"ID_34954","idOriginal":"ID_34954","origin":[14.306118544607441,48.33214384118439],"elevation":259.638}
# Longitude: 14.306118544607441
# Latitude: 48.33214384118439
# Elevation: 259.638

# File produced by Open Asset Import Library (http://www.assimp.sf.net)
# (assimp v3.1.0)

mtllib ID_34954.obj.mtl

# 14 vertex positions
v  2.471 3.362 -0.885
v  0 2.927 1.79227e-16
v  5.311 3.361 6.683
v  2.988 2.931 7.89
v  7.016 3.35 11.415
v  0.951 2.574 8.604
v  2.575 2.57 12.998
v  0.951 -5.26843e-16 8.604
v  2.575 -7.95898e-16 12.998
v  2.988 -4.83123e-16 7.89
v  0 0 0
v  7.016 -6.98967e-16 11.415
v  5.311 -4.09216e-16 6.683
v  2.471 5.41906e-17 -0.885

# 0 UV coordinates

# 24 vertex normals
vn -0.153055 0.98654 0.0575664
vn -0.152813 0.986588 0.0573714
vn -0.152821 0.986588 0.0573568
vn -0.152808 0.986591 0.0573421
vn -0.152826 0.986586 0.0573819
vn -0.937985 0 0.346675
vn -0.937985 0 0.346675
vn -0.935184 0 0.354161
vn -0.935184 0 0.354161
vn 0.335759 0 0.941948
vn 0.335759 0 0.941948
vn 0.940794 0 -0.33898
vn 0.940794 0 -0.33898
vn 0.936248 0 -0.35134
vn 0.936248 0 -0.35134
vn -0.337181 0 -0.94144
vn -0.337181 5.76466e-17 -0.94144
vn -0.330784 0 -0.943707
vn -0.330784 -0 -0.943707
vn 0 -1 -6.12323e-17
vn 0 -1 -6.12323e-17
vn -8.11311e-24 -1 -6.12323e-17
vn 2.63213e-24 -1 -6.12324e-17
vn -9.58853e-24 -1 -6.12323e-17

# Mesh 'defaultobject' with 24 faces
g defaultobject
usemtl DefaultMaterial
f  1//1 2//1 3//1
f  4//2 3//2 2//2
f  5//3 3//3 4//3
f  6//4 5//4 4//4
f  7//5 5//5 6//5
f  8//6 7//6 6//6
f  7//6 8//6 9//7
f  2//8 10//8 4//8
f  10//8 2//8 11//9
f  7//10 12//10 5//10
f  12//10 7//10 9//11
f  12//12 3//12 5//12
f  3//12 12//12 13//13
f  3//14 13//14 1//14
f  1//14 13//14 14//15
f  14//16 2//16 1//16
f  2//16 14//16 11//17
f  10//18 6//18 4//18
f  6//18 10//18 8//19
f  13//20 11//20 14//20
f  11//20 13//20 10//21
f  10//21 13//20 12//22
f  10//21 12//22 8//23
f  8//23 12//22 9//24

