# {"id":"_30322","idOriginal":"_30322","origin":[14.308909144004177,48.29659877213793],"elevation":258.963}
# Longitude: 14.308909144004177
# Latitude: 48.29659877213793
# Elevation: 258.963

# File produced by Open Asset Import Library (http://www.assimp.sf.net)
# (assimp v3.1.0)

mtllib _30322.obj.mtl

# 14 vertex positions
v  13.589 2.998 8.176
v  1.091 2.998 0.996
v  10.701 2.998 10.995
v  13.831 2.998 7.94
v  3.144 2.998 -2.981
v  2.536 2.998 -2.404
v  0 2.998 1.83575e-16
v  10.701 -6.7325e-16 10.995
v  13.589 -5.00636e-16 8.176
v  13.831 -4.86185e-16 7.94
v  3.144 1.82534e-16 -2.981
v  0 0 0
v  2.536 1.47203e-16 -2.404
v  1.091 -6.09874e-17 0.996

# 0 UV coordinates

# 13 vertex normals
vn 0 1 0
vn 0.698507 -0 0.715604
vn 0.698175 0 0.715928
vn 0.714722 0 -0.699408
vn -0.688373 0 -0.725357
vn -0.687967 0.000156509 -0.725742
vn -0.688045 4.44343e-17 -0.725668
vn -3.22833e-20 -1 -6.12414e-17
vn -0.674221 -4.52219e-17 0.738529
vn -0.674221 0 0.738529
vn -0.720992 0 0.692943
vn -7.56716e-24 -1 -6.12323e-17
vn 7.62397e-23 -1 -6.12325e-17

# Mesh 'defaultobject' with 24 faces
g defaultobject
usemtl DefaultMaterial
f  1//1 2//1 3//1
f  2//1 1//1 4//1
f  2//1 4//1 5//1
f  2//1 5//1 6//1
f  2//1 6//1 7//1
f  8//2 1//2 3//2
f  1//2 8//2 9//2
f  1//3 9//3 4//3
f  4//3 9//3 10//3
f  10//4 5//4 4//4
f  5//4 10//4 11//4
f  11//5 6//5 5//5
f  6//6 11//6 7//6
f  7//7 11//7 12//7
f  12//8 11//8 13//8
f  12//9 2//9 7//9
f  2//9 12//9 14//10
f  14//11 3//11 2//11
f  3//11 14//11 8//11
f  14//12 9//12 8//12
f  9//12 14//12 10//13
f  10//13 14//12 11//8
f  11//8 14//12 13//8
f  13//8 14//12 12//8

