# {"id":"ID_51194","idOriginal":"ID_51194","origin":[14.29997586250354,48.244281944760694],"elevation":259.828,"wof":[{"Id":85681677,"Name":"Oberösterreich","Placetype":"region","Offset":-1},{"Id":85898447,"Name":"Scharlinz","Placetype":"neighbourhood","Offset":-1},{"Id":102049853,"Name":"Linz","Placetype":"county","Offset":-1},{"Id":101748071,"Name":"Linz","Placetype":"locality","Offset":-1},{"Id":85632785,"Name":"Austria","Placetype":"country","Offset":-1}]}

# Attribution: City of Linz <http://geo.data.linz.gv.at/katalog/geodata/3d_geo_daten_lod2/>
# Longitude: 14.29997586250354
# Latitude: 48.244281944760694
# Elevation: 259.828

# File produced by Open Asset Import Library (http://www.assimp.sf.net)
# (assimp v3.1.0)


# 11 vertex positions
v  4.677 2.376 -1.482
v  2.414 3.301 -0.7
v  3.82 3.301 0.075
v  1.715 2.376 -3.114
v  2.962 2.376 1.631
v  0 2.376 1.45488e-16
v  2.962 -9.98699e-17 1.631
v  3.82 -4.59243e-18 0.075
v  4.677 9.07463e-17 -1.482
v  1.715 1.90678e-16 -3.114
v  0 0 0

# 0 UV coordinates

# 17 vertex normals
vn 0.222865 0.887049 -0.40432
vn 0.222821 0.887019 -0.40441
vn -0.222904 0.887008 0.40439
vn -0.222659 0.887082 0.404362
vn -0.404479 0.887003 -0.222762
vn 0.875693 -0 0.482869
vn 0.875981 -0.00032142 0.482346
vn 0.875692 0.000571839 0.482869
vn 0.876061 0 0.4822
vn 0.482577 0 -0.875854
vn -0.875943 0 -0.482415
vn -0.875943 2.95394e-17 -0.482415
vn -0.48235 -5.36382e-17 0.875978
vn -0.48235 0 0.875978
vn 0 -1 -6.12323e-17
vn 0 -1 -6.12323e-17
vn -8.80797e-24 -1 -6.12323e-17

# Mesh 'defaultobject' with 18 faces
g defaultobject
usemtl DefaultMaterial
f  1//1 2//1 3//1
f  2//2 1//2 4//2
f  2//3 5//3 3//3
f  5//4 2//4 6//4
f  2//5 4//5 6//5
f  7//6 3//6 5//6
f  3//7 7//7 1//7
f  1//8 7//8 8//8
f  1//9 8//9 9//9
f  9//10 4//10 1//10
f  4//10 9//10 10//10
f  10//11 6//11 4//11
f  6//11 10//11 11//12
f  11//13 5//13 6//13
f  5//13 11//13 7//14
f  8//15 10//15 9//15
f  10//15 8//15 7//16
f  10//15 7//16 11//17

