# {"id":"_21093","idOriginal":"_21093","origin":[14.300002823855737,48.30095703688202],"elevation":260.676}
# Longitude: 14.300002823855737
# Latitude: 48.30095703688202
# Elevation: 260.676

# File produced by Open Asset Import Library (http://www.assimp.sf.net)
# (assimp v3.1.0)

mtllib _21093.obj.mtl

# 20 vertex positions
v  12.824 3.38 5.51
v  3.809 3.2 10.386
v  14.715 3.2 6.387
v  4.796 3.374 8.504
v  4.745 3.392 8.366
v  0 3.2 1.95943e-16
v  1.986 3.389 0.92
v  10.013 3.383 -2.079
v  10.907 3.2 -3.999
v  1.977 3.386 0.895
v  0 0 0
v  3.809 -6.35959e-16 10.386
v  14.715 -3.91091e-16 6.387
v  10.907 2.44868e-16 -3.999
v  1.977 -5.48029e-17 0.895
v  10.013 1.27302e-16 -2.079
v  1.986 -5.63338e-17 0.92
v  4.745 -5.1227e-16 8.366
v  4.796 -5.2072e-16 8.504
v  12.824 -3.3739e-16 5.51

# 0 UV coordinates

# 29 vertex normals
vn 0.0417194 0.99263 0.113777
vn 0.0416271 0.992653 0.113607
vn 0.0421678 0.992599 0.113885
vn -0.11366 0.992645 0.0416841
vn -0.113815 0.992623 0.0417724
vn 0.113678 0.992643 -0.0416798
vn 0.113863 0.992617 -0.041783
vn -0.0471957 0.993639 -0.102247
vn -0.0417886 0.992604 -0.113976
vn -0.041854 0.992588 -0.114094
vn -0.938853 -2.10834e-17 0.344318
vn -0.938853 0 0.344318
vn 0.344265 -0 0.938873
vn 0.938882 0 -0.344239
vn -0.344237 0 -0.938883
vn -0.344237 5.749e-17 -0.938883
vn 0.347079 -0 0.937836
vn 0.940887 0 -0.338721
vn 0.937699 7.2856e-05 -0.34745
vn 0.940664 -0.0217487 -0.338641
vn 0.937699 0 -0.34745
vn 0.937994 0 -0.346652
vn 0.937994 0 -0.346652
vn -0.349435 0 -0.936961
vn -0.349434 -0 -0.936961
vn -0.937738 0 0.347343
vn -0.937738 0 0.347343
vn 1.64777e-24 -1 -6.12323e-17
vn 4.94385e-24 -1 -6.12323e-17

# Mesh 'defaultobject' with 32 faces
g defaultobject
usemtl DefaultMaterial
f  1//1 2//1 3//1
f  2//2 1//2 4//2
f  2//3 4//3 5//3
f  5//4 6//4 2//4
f  6//5 5//5 7//5
f  8//6 3//6 9//6
f  3//7 8//7 1//7
f  7//8 10//8 6//8
f  10//9 9//9 6//9
f  9//10 10//10 8//10
f  11//11 2//11 6//11
f  2//11 11//11 12//12
f  12//13 3//13 2//13
f  3//13 12//13 13//13
f  13//14 9//14 3//14
f  9//14 13//14 14//14
f  14//15 6//15 9//15
f  6//15 14//15 11//16
f  15//17 8//17 10//17
f  8//17 15//17 16//17
f  7//18 15//18 10//18
f  15//19 7//19 5//19
f  15//20 5//20 17//20
f  17//21 5//21 18//21
f  18//22 5//22 4//22
f  18//22 4//22 19//23
f  20//24 4//24 1//24
f  4//24 20//24 19//25
f  16//26 1//26 8//26
f  1//26 16//26 20//27
f  14//28 12//28 11//28
f  12//28 14//28 13//29

