# {"id":"ID_48170","idOriginal":"ID_48170","origin":[14.276468909111607,48.3173385622337],"elevation":291.063,"wof":[{"Id":102049853,"Name":"Linz","Placetype":"county","Offset":-1},{"Id":101748071,"Name":"Linz","Placetype":"locality","Offset":-1},{"Id":85632785,"Name":"Austria","Placetype":"country","Offset":-1},{"Id":85681677,"Name":"Oberösterreich","Placetype":"region","Offset":-1},{"Id":85898453,"Name":"Urfahr","Placetype":"neighbourhood","Offset":-1}]}

# Attribution: City of Linz <http://geo.data.linz.gv.at/katalog/geodata/3d_geo_daten_lod2/>
# Longitude: 14.276468909111607
# Latitude: 48.3173385622337
# Elevation: 291.063

# File produced by Open Asset Import Library (http://www.assimp.sf.net)
# (assimp v3.1.0)


# 8 vertex positions
v  0.554 2.631 3.253
v  4.855 1.23 -0.771
v  0 2.631 1.61102e-16
v  5.339 1.248 2.454
v  0 0 0
v  4.855 4.72101e-17 -0.771
v  0.554 -1.99189e-16 3.253
v  5.339 -1.50264e-16 2.454

# 0 UV coordinates

# 11 vertex normals
vn 0.270209 0.961701 -0.0460177
vn 0.270284 0.961684 -0.0459311
vn -0.15684 0 -0.987624
vn -0.15684 0 -0.987624
vn -0.985806 -1.02801e-17 0.167887
vn -0.985806 0 0.167887
vn 0.1647 -0 0.986344
vn 0.1647 0 0.986344
vn 0.988925 0 -0.148415
vn 0 -1 -6.12323e-17
vn -3.30702e-24 -1 -6.12323e-17

# Mesh 'defaultobject' with 12 faces
g defaultobject
usemtl DefaultMaterial
f  1//1 2//1 3//1
f  2//2 1//2 4//2
f  2//3 5//3 3//3
f  5//3 2//3 6//4
f  5//5 1//5 3//5
f  1//5 5//5 7//6
f  7//7 4//7 1//7
f  4//7 7//7 8//8
f  8//9 2//9 4//9
f  2//9 8//9 6//9
f  8//10 5//10 6//10
f  5//10 8//10 7//11

