# {"id":"ID_44167","idOriginal":"ID_44167","origin":[14.36496319092935,48.248486107034466],"elevation":255.256,"wof":[{"Id":85681677,"Name":"Oberösterreich","Placetype":"region","Offset":-1},{"Id":85898441,"Name":"Posch","Placetype":"neighbourhood","Offset":-1},{"Id":102049853,"Name":"Linz","Placetype":"county","Offset":-1},{"Id":85632785,"Name":"Austria","Placetype":"country","Offset":-1},{"Id":101748071,"Name":"Linz","Placetype":"locality","Offset":-1}]}

# Attribution: City of Linz <http://geo.data.linz.gv.at/katalog/geodata/3d_geo_daten_lod2/>
# Longitude: 14.36496319092935
# Latitude: 48.248486107034466
# Elevation: 255.256

# File produced by Open Asset Import Library (http://www.assimp.sf.net)
# (assimp v3.1.0)


# 29 vertex positions
v  2.642 1.692 1.405
v  0.077 0.828 3.962
v  5.048 0.828 4.017
v  0.073 0.892 3.772
v  3.939 1.309 -0.684
v  5.335 0.828 -0.023
v  5.371 0.828 -0.526
v  3.849 1.324 -0.04
v  3.812 1.33 0.226
v  2.738 1.692 0.057
v  1.995 1.441 -0.06
v  0.237 0.849 -0.337
v  0.057 0.795 -0.081
v  0 0.778 4.76388e-17
v  0.011 0.795 0.567
v  0.237 2.06353e-17 -0.337
v  1.995 3.67394e-18 -0.06
v  2.738 -3.49024e-18 0.057
v  3.812 -1.38385e-17 0.226
v  3.939 4.18829e-17 -0.684
v  5.371 3.22082e-17 -0.526
v  0 0 0
v  0.057 4.95982e-18 -0.081
v  0.011 -3.47187e-17 0.567
v  0.073 -2.30968e-16 3.772
v  0.077 -2.42603e-16 3.962
v  3.849 2.44929e-18 -0.04
v  5.048 -2.4597e-16 4.017
v  5.335 1.40834e-18 -0.023

# 0 UV coordinates

# 45 vertex normals
vn -0.00350687 0.948434 0.316954
vn -0.000974753 0.947674 0.319237
vn 0.316086 0.948461 0.0226224
vn 0.316156 0.948441 0.0224596
vn 0.317037 0.948153 0.0222223
vn 0.316021 0.948484 0.0225632
vn 0.316137 0.948446 0.0225203
vn 0.316146 0.948443 0.0225148
vn -0.316779 0.948231 -0.0225599
vn -0.316324 0.948378 -0.0227858
vn -0.315866 0.948536 -0.0225332
vn -0.316574 0.9483 -0.022559
vn -0.315061 0.948803 -0.022578
vn -0.980922 -0.192811 0.0248116
vn 0.155645 0 -0.987813
vn 0.155645 0 -0.987813
vn 0.155553 0 -0.987828
vn 0.155457 4.3105e-05 -0.987843
vn 0.155553 -9.09978e-05 -0.987828
vn 0.155443 0 -0.987845
vn 0.10967 0 -0.993968
vn -0.818029 0 -0.575177
vn -0.817821 0.000142754 -0.575473
vn -0.817976 3.52241e-17 -0.575253
vn 0 -1 -6.12234e-17
vn -0.999812 -1.18771e-18 0.0193967
vn -0.999812 0 0.0193967
vn -0.999813 0 0.0193412
vn -0.999779 0 0.021048
vn -0.990375 0 -0.138407
vn -0.990465 -0.000318702 -0.137764
vn -0.990401 -0 -0.138221
vn 0 1 6.12329e-17
vn -0.0110636 0 0.999939
vn 0.997486 -0 0.0708611
vn 0.997449 0 0.0713875
vn 5.69696e-25 -1 -6.12323e-17
vn 1.81625e-23 -1 -6.12323e-17
vn 0 -1 -6.12323e-17
vn 9.51538e-24 -1 -6.12323e-17
vn 0 -1 -6.12318e-17
vn 7.12522e-25 -1 -6.12323e-17
vn 1.02987e-24 -1 -6.12323e-17
vn -7.22078e-21 -1 -6.12323e-17
vn 7.05462e-23 -1 -6.12323e-17

# Mesh 'defaultobject' with 54 faces
g defaultobject
usemtl DefaultMaterial
f  1//1 2//1 3//1
f  2//2 1//2 4//2
f  5//3 6//3 7//3
f  6//4 5//4 3//4
f  3//5 5//5 8//5
f  3//6 8//6 9//6
f  3//7 9//7 10//7
f  3//8 10//8 1//8
f  11//9 1//9 10//9
f  1//10 11//10 4//10
f  4//11 11//11 12//11
f  4//12 12//12 13//12
f  4//13 13//13 14//13
f  4//14 14//14 15//14
f  11//15 16//15 12//15
f  16//15 11//15 17//16
f  17//17 11//17 10//17
f  17//18 10//18 9//18
f  17//19 9//19 18//19
f  18//20 9//20 19//20
f  7//21 20//21 5//21
f  20//21 7//21 21//21
f  16//22 13//22 12//22
f  13//23 16//23 14//23
f  14//24 16//24 22//24
f  22//25 16//25 23//25
f  22//26 15//26 14//26
f  15//26 22//26 24//27
f  15//28 24//28 4//28
f  4//28 24//28 25//28
f  4//29 25//29 2//29
f  2//29 25//29 26//29
f  20//30 8//30 5//30
f  8//31 20//31 9//31
f  9//32 20//32 19//32
f  19//33 20//33 27//33
f  26//34 3//34 2//34
f  3//34 26//34 28//34
f  28//35 6//35 3//35
f  6//35 28//35 29//35
f  6//36 29//36 7//36
f  7//36 29//36 21//36
f  21//37 29//37 20//37
f  28//38 20//37 29//37
f  19//39 20//37 28//38
f  26//40 19//39 28//38
f  27//41 20//37 19//39
f  18//42 19//39 26//40
f  17//43 18//42 26//40
f  16//25 17//43 26//40
f  23//25 16//25 26//40
f  25//44 23//25 26//40
f  24//45 23//25 25//44
f  22//25 23//25 24//45

