# {"id":"_30274","idOriginal":"_30274","origin":[14.293885819840709,48.30218155038505],"elevation":259.842}
# Longitude: 14.293885819840709
# Latitude: 48.30218155038505
# Elevation: 259.842

# File produced by Open Asset Import Library (http://www.assimp.sf.net)
# (assimp v3.1.0)

mtllib _30274.obj.mtl

# 14 vertex positions
v  0 20.956 1.28318e-15
v  6.152 18.57 0.195
v  5.448 20.956 -1.82
v  0.057 20.72 0.203
v  0.451 19.092 1.607
v  3.958 7.981 10.914
v  9.244 8.094 9.041
v  9.244 -5.53602e-16 9.041
v  5.448 1.11443e-16 -1.82
v  6.152 -1.19403e-17 0.195
v  0 0 0
v  0.451 -9.84004e-17 1.607
v  0.057 -1.24302e-17 0.203
v  3.958 -6.6829e-16 10.914

# 0 UV coordinates

# 19 vertex normals
vn 0.236163 0.666691 0.706931
vn 0.2358 0.665832 0.707861
vn 0.236127 0.666761 0.706876
vn 0.236136 0.666691 0.706939
vn 0.236237 0.666663 0.706932
vn 0.943995 0 -0.329961
vn 0.9441 0.000161836 -0.329658
vn 0.944003 0 -0.329936
vn 3.78593e-20 -1 -6.12374e-17
vn -0.316854 0 -0.948474
vn -0.316854 5.80773e-17 -0.948474
vn -0.962767 -1.65532e-17 0.270334
vn -0.962807 1.50558e-06 0.270191
vn -0.962802 0 0.270208
vn 0 -1 -6.11843e-17
vn -0.93577 0 0.352611
vn -0.93577 0 0.352611
vn 0.333986 0 0.942578
vn 0 -1 -6.12323e-17

# Mesh 'defaultobject' with 24 faces
g defaultobject
usemtl DefaultMaterial
f  1//1 2//1 3//1
f  2//2 1//2 4//2
f  2//3 4//3 5//3
f  2//4 5//4 6//4
f  2//5 6//5 7//5
f  8//6 2//6 7//6
f  2//7 8//7 3//7
f  3//8 8//8 9//8
f  9//9 8//9 10//9
f  9//10 1//10 3//10
f  1//10 9//10 11//11
f  11//12 4//12 1//12
f  4//13 11//13 5//13
f  5//14 11//14 12//14
f  12//15 11//15 13//15
f  12//16 6//16 5//16
f  6//16 12//16 14//17
f  6//18 8//18 7//18
f  8//18 6//18 14//18
f  9//9 13//15 11//15
f  13//15 9//9 10//9
f  13//15 10//9 12//15
f  12//15 10//9 14//19
f  14//19 10//9 8//9

