# {"id":"ID_28516","idOriginal":"ID_28516","origin":[14.280764250335015,48.27072143653129],"elevation":279.205,"wof":[{"Id":102049853,"Name":"Linz","Placetype":"county","Offset":-1},{"Id":101748071,"Name":"Linz","Placetype":"locality","Offset":-1},{"Id":85681677,"Name":"Oberösterreich","Placetype":"region","Offset":-1},{"Id":85898435,"Name":"Oed","Placetype":"neighbourhood","Offset":-1},{"Id":85632785,"Name":"Austria","Placetype":"country","Offset":-1}]}

# Attribution: City of Linz <http://geo.data.linz.gv.at/katalog/geodata/3d_geo_daten_lod2/>
# Longitude: 14.280764250335015
# Latitude: 48.27072143653129
# Elevation: 279.205

# File produced by Open Asset Import Library (http://www.assimp.sf.net)
# (assimp v3.1.0)


# 18 vertex positions
v  5.67 6.048 5.567
v  1.741 9.21 3.351
v  3.465 6.078 6.671
v  8.705 6.042 4
v  10.949 6.05 2.825
v  12.359 6.084 2.048
v  10.643 9.21 -1.268
v  0 6.048 3.70333e-16
v  8.908 6.048 -4.622
v  3.465 -4.08481e-16 6.671
v  8.705 -2.44929e-16 4
v  5.67 -3.4088e-16 5.567
v  10.949 -1.72981e-16 2.825
v  12.359 -1.25404e-16 2.048
v  8.908 2.83016e-16 -4.622
v  10.643 7.76426e-17 -1.268
v  0 0 0
v  1.741 -2.0519e-16 3.351

# 0 UV coordinates

# 30 vertex normals
vn 0.295709 0.766752 0.569779
vn 0.295702 0.766749 0.569786
vn 0.295667 0.766692 0.569882
vn 0.29564 0.766588 0.570035
vn 0.29566 0.766746 0.569812
vn -0.295678 0.766703 -0.569861
vn -0.295679 0.766711 -0.569849
vn 0.4477 -0 0.894184
vn 0.458756 -0.00505951 0.888548
vn 0.454137 0 0.890932
vn 2.53069e-22 1 6.1233e-17
vn 0.463874 0 0.885901
vn 0.463874 0 0.885901
vn 0.482634 0 0.875822
vn 0.482634 0 0.875822
vn 0.888163 9.34678e-05 -0.459528
vn 0.888163 0 -0.459528
vn 0.888163 0 -0.459528
vn 4.79993e-20 -1 -6.12471e-17
vn -0.460556 0 -0.887631
vn -0.460556 5.43517e-17 -0.887631
vn -0.88743 0.000126626 0.460942
vn -0.88743 0 0.460942
vn -0.887479 -0.000132396 0.460848
vn -0.887381 0 0.461036
vn -4.4051e-24 -1 -6.12323e-17
vn 0 -1 -6.12323e-17
vn 0 -1 -6.12323e-17
vn -1.1375e-23 -1 -6.12323e-17
vn -1.14788e-23 -1 -6.12323e-17

# Mesh 'defaultobject' with 32 faces
g defaultobject
usemtl DefaultMaterial
f  1//1 2//1 3//1
f  2//2 1//2 4//2
f  2//3 4//3 5//3
f  2//4 5//4 6//4
f  2//5 6//5 7//5
f  8//6 7//6 9//6
f  7//7 8//7 2//7
f  10//8 1//8 3//8
f  1//9 10//9 4//9
f  4//10 10//10 11//10
f  11//11 10//11 12//11
f  4//12 13//12 5//12
f  13//12 4//12 11//13
f  5//14 14//14 6//14
f  14//14 5//14 13//15
f  6//16 9//16 7//16
f  9//17 6//17 14//17
f  9//17 14//17 15//18
f  15//19 14//19 16//19
f  15//20 8//20 9//20
f  8//20 15//20 17//21
f  8//22 3//22 2//22
f  3//23 8//23 10//23
f  10//24 8//24 18//24
f  18//25 8//25 17//25
f  13//26 16//19 14//19
f  16//19 13//26 11//27
f  16//19 11//27 15//19
f  15//19 11//27 12//28
f  15//19 12//28 17//28
f  17//28 12//28 18//29
f  18//29 12//28 10//30

