# {"id":"ID_20482","idOriginal":"ID_20482","origin":[14.3079240064568,48.31270141150744],"elevation":256.238}
# Longitude: 14.3079240064568
# Latitude: 48.31270141150744
# Elevation: 256.238

# File produced by Open Asset Import Library (http://www.assimp.sf.net)
# (assimp v3.1.0)

mtllib ID_20482.obj.mtl

# 16 vertex positions
v  3.111 12.768 4.177
v  9.471 8.478 -7.075
v  0 8.477 5.19067e-16
v  13.437 12.768 -3.539
v  12.056 10.884 -5.361
v  10.377 8.478 -7.753
v  16.584 8.475 0.614
v  6.222 8.478 8.353
v  10.377 4.74734e-16 -7.753
v  0 0 0
v  9.471 4.33219e-16 -7.075
v  6.222 -5.11474e-16 8.353
v  3.111 -2.55768e-16 4.177
v  16.584 -3.75967e-17 0.614
v  12.056 3.28267e-16 -5.361
v  13.437 2.16701e-16 -3.539

# 0 UV coordinates

# 24 vertex normals
vn -0.380603 0.771794 -0.509388
vn -0.380644 0.771765 -0.5094
vn -0.380306 0.771719 -0.509723
vn -0.380922 0.771879 -0.509019
vn 0.380626 0.771819 0.509333
vn 0.380628 0.771788 0.509378
vn -0.599151 0 -0.800636
vn -0.598469 0.000113654 -0.801146
vn -0.598529 4.90533e-17 -0.801101
vn 1.85905e-20 -1 -6.11998e-17
vn -0.801966 -6.96129e-05 0.59737
vn -0.801966 0 0.59737
vn 0 1 6.12255e-17
vn 0.598391 -0 0.801205
vn 0.598391 0 0.801205
vn 0.818492 0 -0.574518
vn 0.818492 0 -0.574518
vn 0.796982 -7.45192e-05 -0.604003
vn 0.796997 0 -0.603984
vn -3.62108e-20 1 6.12687e-17
vn 0 -1 -6.12323e-17
vn -3.1593e-24 -1 -6.12323e-17
vn -2.86464e-23 -1 -6.12323e-17
vn 0 -1 -6.12323e-17

# Mesh 'defaultobject' with 28 faces
g defaultobject
usemtl DefaultMaterial
f  1//1 2//1 3//1
f  2//2 1//2 4//2
f  2//3 4//3 5//3
f  2//4 5//4 6//4
f  7//5 1//5 8//5
f  1//6 7//6 4//6
f  9//7 2//7 6//7
f  2//8 9//8 3//8
f  3//9 9//9 10//9
f  10//10 9//10 11//10
f  3//11 8//11 1//11
f  8//12 3//12 10//12
f  8//12 10//12 12//12
f  12//13 10//13 13//13
f  12//14 7//14 8//14
f  7//14 12//14 14//15
f  15//16 6//16 5//16
f  6//16 15//16 9//17
f  7//18 5//18 4//18
f  5//19 7//19 14//19
f  5//19 14//19 15//19
f  15//20 14//20 16//20
f  11//10 13//21 10//10
f  13//21 11//10 9//10
f  13//21 9//10 15//21
f  13//21 15//21 12//22
f  12//22 15//21 16//23
f  12//22 16//23 14//24

