# {"id":"ID_60627","idOriginal":"ID_60627","origin":[14.320644245857912,48.33793008264158],"elevation":262.953,"wof":[{"Id":85681677,"Name":"Oberösterreich","Placetype":"region","Offset":-1},{"Id":101748071,"Name":"Linz","Placetype":"locality","Offset":-1},{"Id":85898419,"Name":"Furth","Placetype":"neighbourhood","Offset":-1},{"Id":102049853,"Name":"Linz","Placetype":"county","Offset":-1},{"Id":85632785,"Name":"Austria","Placetype":"country","Offset":-1}]}

# Attribution: City of Linz <http://geo.data.linz.gv.at/katalog/geodata/3d_geo_daten_lod2/>
# Longitude: 14.320644245857912
# Latitude: 48.33793008264158
# Elevation: 262.953

# File produced by Open Asset Import Library (http://www.assimp.sf.net)
# (assimp v3.1.0)


# 8 vertex positions
v  4.043 3.537 0.131
v  0 3.537 2.16579e-16
v  4.025 3.537 0.372
v  0.015 3.537 -0.226
v  4.025 -2.27784e-17 0.372
v  4.043 -8.02144e-18 0.131
v  0.015 1.38385e-17 -0.226
v  0 0 0

# 0 UV coordinates

# 9 vertex normals
vn 0 1 0
vn 0.997222 -0 0.0744819
vn 0.0882835 0 -0.996095
vn -0.997805 0 -0.066226
vn -0.997805 4.05517e-18 -0.066226
vn -0.0920301 -6.09725e-17 0.995756
vn -0.0920301 0 0.995756
vn -2.11724e-25 -1 -6.12323e-17
vn -2.25837e-25 -1 -6.12323e-17

# Mesh 'defaultobject' with 12 faces
g defaultobject
usemtl DefaultMaterial
f  1//1 2//1 3//1
f  2//1 1//1 4//1
f  5//2 1//2 3//2
f  1//2 5//2 6//2
f  6//3 4//3 1//3
f  4//3 6//3 7//3
f  7//4 2//4 4//4
f  2//4 7//4 8//5
f  8//6 3//6 2//6
f  3//6 8//6 5//7
f  8//8 6//8 5//8
f  6//8 8//8 7//9

