# {"id":"ID_46160","idOriginal":"ID_46160","origin":[14.286259987959953,48.275719509195376],"elevation":270.271,"wof":[{"Id":102049853,"Name":"Linz","Placetype":"county","Offset":-1},{"Id":101748071,"Name":"Linz","Placetype":"locality","Offset":-1},{"Id":85898435,"Name":"Oed","Placetype":"neighbourhood","Offset":-1},{"Id":85681677,"Name":"Oberösterreich","Placetype":"region","Offset":-1},{"Id":85632785,"Name":"Austria","Placetype":"country","Offset":-1}]}

# Attribution: City of Linz <http://geo.data.linz.gv.at/katalog/geodata/3d_geo_daten_lod2/>
# Longitude: 14.286259987959953
# Latitude: 48.275719509195376
# Elevation: 270.271

# File produced by Open Asset Import Library (http://www.assimp.sf.net)
# (assimp v3.1.0)


# 20 vertex positions
v  3.876 2.325 3.074
v  0.485 2.325 2.79
v  0.455 2.325 3.224
v  0 2.325 1.42365e-16
v  0.935 2.325 -1.912
v  2.981 2.325 -2.032
v  3.863 2.325 2.634
v  4.149 2.325 1.918
v  4.112 2.325 -0.284
v  0.146 2.325 2.179
v  4.149 -1.17444e-16 1.918
v  4.112 1.739e-17 -0.284
v  3.863 -1.61286e-16 2.634
v  3.876 -1.88228e-16 3.074
v  2.981 1.24424e-16 -2.032
v  0.935 1.17076e-16 -1.912
v  0 0 0
v  0.146 -1.33425e-16 2.179
v  0.485 -1.70838e-16 2.79
v  0.455 -1.97413e-16 3.224

# 0 UV coordinates

# 21 vertex normals
vn 0 1 0
vn 0.999859 0 -0.0168006
vn 0.928655 -0 0.370944
vn 0.999564 0 -0.0295326
vn 0.839583 0 -0.543231
vn -0.0585505 0 -0.998284
vn -0.898339 0 -0.439303
vn -0.898339 2.68995e-17 -0.439303
vn -0.997763 -4.09358e-18 0.0668533
vn -0.997763 0 0.0668533
vn -0.99762 0 -0.0689599
vn -0.874427 0 0.485157
vn 0.0438048 -0 0.99904
vn -3.35295e-24 -1 -6.12323e-17
vn -8.37386e-25 -1 -6.12323e-17
vn 8.12174e-24 -1 -6.12324e-17
vn 5.92642e-25 -1 -6.12323e-17
vn -1.13304e-24 -1 -6.12323e-17
vn 2.91996e-24 -1 -6.12323e-17
vn -4.35553e-25 -1 -6.12323e-17
vn -3.56531e-24 -1 -6.12323e-17

# Mesh 'defaultobject' with 36 faces
g defaultobject
usemtl DefaultMaterial
f  1//1 2//1 3//1
f  2//1 1//1 4//1
f  4//1 1//1 5//1
f  5//1 1//1 6//1
f  6//1 1//1 7//1
f  6//1 7//1 8//1
f  6//1 8//1 9//1
f  4//1 10//1 2//1
f  11//2 9//2 8//2
f  9//2 11//2 12//2
f  13//3 8//3 7//3
f  8//3 13//3 11//3
f  14//4 7//4 1//4
f  7//4 14//4 13//4
f  12//5 6//5 9//5
f  6//5 12//5 15//5
f  15//6 5//6 6//6
f  5//6 15//6 16//6
f  16//7 4//7 5//7
f  4//7 16//7 17//8
f  17//9 10//9 4//9
f  10//9 17//9 18//10
f  19//11 3//11 2//11
f  3//11 19//11 20//11
f  18//12 2//12 10//12
f  2//12 18//12 19//12
f  20//13 1//13 3//13
f  1//13 20//13 14//13
f  19//14 14//14 20//14
f  14//14 19//14 18//15
f  14//14 18//15 13//16
f  13//16 18//15 11//17
f  11//17 18//15 17//18
f  11//17 17//18 12//19
f  12//19 17//18 16//20
f  12//19 16//20 15//21

