# {"id":"ID_20966","idOriginal":"ID_20966","origin":[14.296783274460415,48.33553195366969],"elevation":268.041}
# Longitude: 14.296783274460415
# Latitude: 48.33553195366969
# Elevation: 268.041

# File produced by Open Asset Import Library (http://www.assimp.sf.net)
# (assimp v3.1.0)

mtllib ID_20966.obj.mtl

# 22 vertex positions
v  14.034 5.442 -3.606
v  1.108 10.407 4.36
v  15.143 10.407 0.714
v  10.601 5.432 -2.724
v  0 5.399 3.30593e-16
v  2.211 5.424 8.698
v  10.601 5.44 6.504
v  10.727 5.44 6.471
v  14.571 5.455 5.458
v  15.84 5.461 5.123
v  16.256 5.424 5.049
v  0 0 0
v  1.108 -2.66973e-16 4.36
v  2.211 -5.32599e-16 8.698
v  10.601 -3.98255e-16 6.504
v  10.727 -3.96234e-16 6.471
v  14.571 -3.34206e-16 5.458
v  15.84 -3.13693e-16 5.123
v  16.256 -3.09162e-16 5.049
v  15.143 -4.37199e-17 0.714
v  14.034 2.20804e-16 -3.606
v  10.601 1.66797e-16 -2.724

# 0 UV coordinates

# 38 vertex normals
vn -0.187047 0.668266 -0.720024
vn -0.186902 0.668442 -0.719898
vn -0.187095 0.668252 -0.720024
vn 0.187052 0.668244 0.720042
vn 0.187008 0.668298 0.720004
vn 0.188696 0.66731 0.72048
vn 0.187148 0.668198 0.72006
vn 0.186932 0.66824 0.720078
vn 0.187502 0.668211 0.719956
vn -0.969178 -5.74556e-05 0.246362
vn -0.969178 0 0.246362
vn -0.969194 0.000105567 0.2463
vn -0.969162 0 0.246424
vn 0.252995 -0 0.967468
vn 0.252995 0 0.967468
vn 0.253359 0 0.967372
vn 0.254828 -3.63706e-05 0.966986
vn 0.253358 0.00110667 0.967372
vn 0.254828 0 0.966987
vn 0.255243 0 0.966877
vn 0.175136 -0 0.984544
vn 0.175136 0 0.984544
vn 0.968589 1.46551e-05 -0.248666
vn 0.968589 0 -0.248666
vn 0.968585 -2.6743e-05 -0.248682
vn 0.968593 0 -0.24865
vn -0.248837 0 -0.968545
vn -0.248872 -2.37089e-05 -0.968536
vn -0.248837 7.39549e-05 -0.968545
vn -0.248872 5.93057e-17 -0.968536
vn -8.94854e-23 -1 -6.12323e-17
vn 0 -1 -6.12323e-17
vn 1.19932e-23 -1 -6.12323e-17
vn -4.15838e-24 -1 -6.12323e-17
vn -3.6492e-22 -1 -6.12326e-17
vn -1.66415e-24 -1 -6.12323e-17
vn 2.15573e-24 -1 -6.12323e-17
vn 8.22083e-20 -1 -6.12452e-17

# Mesh 'defaultobject' with 40 faces
g defaultobject
usemtl DefaultMaterial
f  1//1 2//1 3//1
f  2//2 1//2 4//2
f  2//3 4//3 5//3
f  6//4 3//4 2//4
f  3//5 6//5 7//5
f  3//6 7//6 8//6
f  3//7 8//7 9//7
f  3//8 9//8 10//8
f  3//9 10//9 11//9
f  5//10 6//10 2//10
f  6//11 5//11 12//11
f  6//12 12//12 13//12
f  6//13 13//13 14//13
f  14//14 7//14 6//14
f  7//14 14//14 15//15
f  7//16 15//16 8//16
f  8//17 15//17 9//17
f  9//18 15//18 16//18
f  9//19 16//19 17//19
f  9//20 17//20 10//20
f  10//20 17//20 18//20
f  18//21 11//21 10//21
f  11//21 18//21 19//22
f  11//23 1//23 3//23
f  1//24 11//24 19//24
f  1//25 19//25 20//25
f  1//26 20//26 21//26
f  21//27 4//27 1//27
f  4//28 21//28 5//28
f  5//29 21//29 22//29
f  5//30 22//30 12//30
f  18//31 20//31 19//31
f  20//31 18//31 17//32
f  20//31 17//32 16//33
f  20//31 16//33 21//34
f  21//34 16//33 15//35
f  21//34 15//35 14//32
f  21//34 14//32 22//36
f  22//36 14//32 12//37
f  12//37 14//32 13//38

