# {"id":"ID_6883","idOriginal":"ID_6883","origin":[14.277716107246926,48.27682367795239],"elevation":265.897,"wof":[{"Id":102049853,"Name":"Linz","Placetype":"county","Offset":-1},{"Id":85632785,"Name":"Austria","Placetype":"country","Offset":-1},{"Id":101748071,"Name":"Linz","Placetype":"locality","Offset":-1},{"Id":85681677,"Name":"Oberösterreich","Placetype":"region","Offset":-1},{"Id":85898459,"Name":"Wegscheid","Placetype":"neighbourhood","Offset":-1}]}

# Attribution: City of Linz <http://geo.data.linz.gv.at/katalog/geodata/3d_geo_daten_lod2/>
# Longitude: 14.277716107246926
# Latitude: 48.27682367795239
# Elevation: 265.897

# File produced by Open Asset Import Library (http://www.assimp.sf.net)
# (assimp v3.1.0)


# 36 vertex positions
v  3.684 18.706 -3.685
v  0.049 17.081 -0.066
v  0 17.055 1.04432e-15
v  9.338 17.055 9.372
v  16.275 17.061 16.313
v  16.544 17.181 16.043
v  19.959 18.706 12.652
v  7.845 17.053 7.883
v  7.862 16.402 10.814
v  7.284 16.399 10.246
v  7.139 17.057 7.159
v  6.772 17.056 6.792
v  6.367 16.395 9.344
v  24.821 16.535 7.823
v  23.895 16.537 6.903
v  24.199 16.397 6.583
v  24.038 16.396 6.415
v  8.854 16.395 -8.83
v  0.049 4.04133e-18 -0.066
v  0 0 0
v  7.845 -4.82695e-16 7.883
v  6.367 -5.72155e-16 9.344
v  3.684 2.25641e-16 -3.685
v  8.854 5.40682e-16 -8.83
v  6.772 -4.1589e-16 6.792
v  7.139 -4.38362e-16 7.159
v  7.862 -6.62167e-16 10.814
v  7.284 -6.27387e-16 10.246
v  16.275 -9.98883e-16 16.313
v  9.338 -5.7387e-16 9.372
v  24.821 -4.79021e-16 7.823
v  16.544 -9.8235e-16 16.043
v  19.959 -7.74712e-16 12.652
v  23.895 -4.22687e-16 6.903
v  24.199 -4.03092e-16 6.583
v  24.038 -3.92805e-16 6.415

# 0 UV coordinates

# 57 vertex normals
vn -0.200426 0.953129 0.226659
vn -0.212829 0.953839 0.211882
vn -0.214004 0.953285 0.213192
vn -0.21407 0.953261 0.213233
vn -0.213855 0.953328 0.213148
vn -0.213703 0.953396 0.212996
vn -0.214238 0.953281 0.212974
vn -0.212854 0.953623 0.212831
vn -0.2164 0.952606 0.213806
vn -0.213967 0.953292 0.213197
vn -0.213777 0.953355 0.213104
vn 0.213965 0.953302 -0.213153
vn 0.214106 0.953209 -0.213429
vn 0.214168 0.953166 -0.213556
vn 0.211969 0.954707 -0.208816
vn 0.213974 0.953294 -0.213181
vn -0.80291 0 -0.5961
vn -0.80291 3.65006e-17 -0.5961
vn -0.703005 0 -0.711185
vn -0.703005 -0 -0.711185
vn -0.705545 0 -0.708665
vn -0.705403 -5.49983e-05 -0.708806
vn -0.705545 9.69824e-05 -0.708665
vn -0.705391 0 -0.708818
vn -0.708149 -4.32339e-17 0.706063
vn -0.707105 -0.000830052 0.707108
vn -0.715917 0.00661551 0.698154
vn -0.708813 0 0.705396
vn -2.10845e-21 -1 -6.12303e-17
vn 5.00872e-21 -1 -6.12366e-17
vn -0.701252 0 0.712913
vn -0.70091 -3.76772e-05 0.71325
vn -0.70112 0 0.713044
vn 3.96603e-20 1 6.11958e-17
vn -0.707311 0 0.706903
vn -0.707311 0 0.706903
vn 0.69882 0 0.715297
vn 0.69882 0 0.715297
vn 0.704652 -0.000191206 0.709553
vn 0.70515 0.0143394 0.708913
vn 0.704779 0 0.709427
vn 1.79415e-20 -1 -6.12166e-17
vn -1.05937e-19 1 6.10729e-17
vn 0.725 -0 0.688749
vn 0.704805 0 -0.709401
vn 0.72199 0 -0.691903
vn 0.72199 0 -0.691903
vn 0.708523 0 -0.705688
vn 0.708523 0 -0.705688
vn 1.18371e-23 -1 -6.12323e-17
vn 9.90304e-24 -1 -6.12323e-17
vn 2.2576e-22 -1 -6.12323e-17
vn 1.65612e-23 -1 -6.12324e-17
vn 1.37832e-23 -1 -6.12324e-17
vn -1.22918e-22 -1 -6.12323e-17
vn 0 -1 -6.12323e-17
vn -8.45962e-22 -1 -6.12324e-17

# Mesh 'defaultobject' with 68 faces
g defaultobject
usemtl DefaultMaterial
f  1//1 2//1 3//1
f  4//2 5//2 6//2
f  1//3 6//3 7//3
f  6//4 1//4 4//4
f  4//5 1//5 8//5
f  4//6 8//6 9//6
f  9//7 8//7 10//7
f  8//8 1//8 11//8
f  11//9 1//9 12//9
f  12//10 1//10 3//10
f  13//11 10//11 8//11
f  14//12 1//12 7//12
f  1//13 14//13 15//13
f  1//14 15//14 16//14
f  1//15 16//15 17//15
f  1//16 17//16 18//16
f  19//17 3//17 2//17
f  3//17 19//17 20//18
f  21//19 13//19 8//19
f  13//19 21//19 22//20
f  1//21 19//21 2//21
f  19//22 1//22 18//22
f  19//23 18//23 23//23
f  23//24 18//24 24//24
f  20//25 12//25 3//25
f  12//26 20//26 11//26
f  11//27 20//27 8//27
f  8//28 20//28 21//28
f  21//29 20//29 25//29
f  21//29 25//29 26//30
f  22//31 10//31 13//31
f  10//32 22//32 9//32
f  9//33 22//33 27//33
f  27//34 22//34 28//34
f  4//35 29//35 5//35
f  29//35 4//35 30//36
f  9//37 30//37 4//37
f  30//37 9//37 27//38
f  6//39 14//39 7//39
f  14//40 6//40 5//40
f  14//41 5//41 29//41
f  14//41 29//41 31//41
f  31//42 29//42 32//42
f  31//43 32//43 33//43
f  34//44 16//44 15//44
f  16//44 34//44 35//44
f  14//45 34//45 15//45
f  34//45 14//45 31//45
f  35//46 17//46 16//46
f  17//46 35//46 36//47
f  36//48 18//48 17//48
f  18//48 36//48 24//49
f  33//50 34//50 31//42
f  22//51 21//29 28//51
f  34//50 36//52 35//52
f  36//52 34//50 24//53
f  24//53 34//50 33//50
f  24//53 33//50 32//42
f  24//53 32//42 29//42
f  24//53 29//42 30//54
f  24//53 30//54 27//55
f  24//53 27//55 21//29
f  21//29 27//55 28//51
f  24//53 21//29 26//30
f  24//53 26//30 25//29
f  24//53 25//29 20//29
f  24//53 20//29 23//56
f  23//56 20//29 19//57

