# {"id":"ID_40338","idOriginal":"ID_40338","origin":[14.303540679421033,48.279114385021046],"elevation":279.945}
# Longitude: 14.303540679421033
# Latitude: 48.279114385021046
# Elevation: 279.945

# File produced by Open Asset Import Library (http://www.assimp.sf.net)
# (assimp v3.1.0)

mtllib ID_40338.obj.mtl

# 22 vertex positions
v  2.469 3.735 -3.934
v  0 3.735 2.28703e-16
v  4.072 3.735 -3.723
v  2.325 3.735 -1.009
v  9.657 3.735 6.387
v  2.361 3.735 -0.976
v  4.954 3.735 1.444
v  6.105 3.735 2.195
v  8.861 3.735 3.993
v  13.23 3.735 6.843
v  12.469 3.735 8.247
v  4.072 2.27968e-16 -3.723
v  2.469 2.40888e-16 -3.934
v  0 0 0
v  9.657 -3.91091e-16 6.387
v  12.469 -5.04983e-16 8.247
v  13.23 -4.19013e-16 6.843
v  2.325 6.17834e-17 -1.009
v  8.861 -2.44501e-16 3.993
v  6.105 -1.34405e-16 2.195
v  4.954 -8.84195e-17 1.444
v  2.361 5.97628e-17 -0.976

# 0 UV coordinates

# 25 vertex normals
vn 0 1 -0
vn 0.130502 0 -0.991448
vn -0.847005 0 -0.531585
vn -0.847005 3.25502e-17 -0.531585
vn -0.551647 -5.10725e-17 0.834078
vn -0.551647 0 0.834078
vn -0.551685 0 0.834053
vn 0.879161 -0 0.476525
vn 0.840856 -0 0.541259
vn 0.546355 0 -0.837553
vn 0.546398 0 -0.837526
vn 0.546445 0 -0.837495
vn 0.682298 0 -0.731074
vn 0.675699 -0.00850395 -0.737128
vn 0.682209 0 -0.731157
vn 5.33246e-22 1 6.12318e-17
vn 8.63654e-24 -1 -6.12323e-17
vn 7.27122e-24 -1 -6.12323e-17
vn -2.93541e-24 -1 -6.12323e-17
vn -5.37199e-24 -1 -6.12323e-17
vn 1.28593e-23 -1 -6.12324e-17
vn 1.60532e-24 -1 -6.12323e-17
vn 0 -1 -6.12323e-17
vn 2.91048e-24 -1 -6.12323e-17
vn 9.20818e-24 -1 -6.12323e-17

# Mesh 'defaultobject' with 40 faces
g defaultobject
usemtl DefaultMaterial
f  1//1 2//1 3//1
f  4//1 3//1 2//1
f  5//1 4//1 2//1
f  6//1 4//1 5//1
f  7//1 6//1 5//1
f  8//1 7//1 5//1
f  9//1 8//1 5//1
f  10//1 9//1 5//1
f  11//1 10//1 5//1
f  12//2 1//2 3//2
f  1//2 12//2 13//2
f  13//3 2//3 1//3
f  2//3 13//3 14//4
f  14//5 5//5 2//5
f  5//5 14//5 15//6
f  5//7 15//7 11//7
f  11//7 15//7 16//7
f  16//8 10//8 11//8
f  10//8 16//8 17//8
f  18//9 3//9 4//9
f  3//9 18//9 12//9
f  17//10 9//10 10//10
f  9//10 17//10 19//10
f  9//11 19//11 8//11
f  8//11 19//11 20//11
f  8//12 20//12 7//12
f  7//12 20//12 21//12
f  21//13 6//13 7//13
f  6//14 21//14 4//14
f  4//15 21//15 18//15
f  18//16 21//16 22//16
f  15//17 17//17 16//17
f  17//17 15//17 19//18
f  19//18 15//17 14//19
f  19//18 14//19 20//20
f  20//20 14//19 21//21
f  21//21 14//19 22//22
f  22//22 14//19 18//23
f  18//23 14//19 12//24
f  12//24 14//19 13//25

