# File produced by Open Asset Import Library (http://www.assimp.sf.net)
# (assimp v3.1.0)

mtllib ID_17456.obj.mtl

# 29 vertex positions
v  15.711 6.36 -7.871
v  16.195 5.092 0.692
v  17.113 4.91 -7.718
v  11.337 10.509 -4.215
v  15.363 5.952 0.601
v  12.784 6.305 -8.19
v  12.906 5.145 -9.312
v  4.115 4.98 -10.271
v  0.566 10.509 -5.192
v  0.609 10.098 -5.589
v  0.875 5.78 -9.783
v  0.909 5.226 -10.321
v  12.143 4.912 1.325
v  0 5.141 3.14795e-16
v  12.259 6.01 0.263
v  0.609 3.42228e-16 -5.589
v  0.909 6.31979e-16 -10.321
v  0.875 5.99036e-16 -9.783
v  0 0 0
v  0.566 3.17918e-16 -5.192
v  12.143 -8.11329e-17 1.325
v  12.259 -1.61041e-17 0.263
v  16.195 -4.23728e-17 0.692
v  15.363 -3.68006e-17 0.601
v  17.113 4.72591e-16 -7.718
v  12.784 5.01493e-16 -8.19
v  12.906 5.70196e-16 -9.312
v  15.711 4.8196e-16 -7.871
v  4.115 6.28917e-16 -10.271

# 0 UV coordinates

# 46 vertex normals
vn 0.71416 0.697153 0.0628678
vn 0.714009 0.697305 0.0628989
vn 0.713939 0.697364 0.0630335
vn 0.0647008 0.697268 -0.713885
vn 0.06485 0.697288 -0.713852
vn 0.0647872 0.697281 -0.713864
vn 0.0647502 0.697306 -0.713843
vn 0.0629388 0.696771 -0.714527
vn 0.0646618 0.697321 -0.713837
vn 0.0646349 0.697253 -0.713905
vn -0.0647444 0.697285 0.713864
vn -0.0647528 0.697277 0.713871
vn -0.0646328 0.697291 0.713868
vn -0.0647057 0.69728 0.713872
vn -0.997995 0 -0.0632968
vn -0.998003 9.40494e-05 -0.0631676
vn -0.997996 0 -0.0632711
vn 0 -1 -6.12497e-17
vn -0.994148 0.00033698 -0.108027
vn -0.994116 0 -0.108323
vn -0.994116 6.63286e-18 -0.108323
vn 0 -1 -6.12335e-17
vn -0.108473 -6.0871e-17 0.994099
vn -0.108473 0 0.994099
vn -0.108252 0 0.994123
vn -0.10856 0.000162772 0.99409
vn -0.108352 0 0.994113
vn 6.6282e-22 -1 -6.12379e-17
vn 0.994087 0 0.108582
vn 0.994095 -0 0.108511
vn 0.994095 0 0.108511
vn 0.99414 -0 0.108097
vn 0.99414 0 0.108097
vn 0.108346 -0.000136381 -0.994113
vn 0.10839 0 -0.994108
vn 0.10839 0 -0.994108
vn 3.62709e-20 1 6.08904e-17
vn 0.0155939 0 -0.999878
vn 0.108445 0 -0.994102
vn 0.108445 0 -0.994102
vn 1.26775e-25 -1 -6.12323e-17
vn 2.55097e-25 -1 -6.12323e-17
vn 6.34744e-23 -1 -6.12322e-17
vn -3.93232e-24 -1 -6.12323e-17
vn -3.27103e-24 -1 -6.12323e-17
vn 2.6066e-23 -1 -6.12323e-17

# Mesh 'defaultobject' with 54 faces
g defaultobject
usemtl DefaultMaterial
f  1//1 2//1 3//1
f  2//2 1//2 4//2
f  2//3 4//3 5//3
f  6//4 4//4 1//4
f  4//5 6//5 7//5
f  4//6 7//6 8//6
f  4//7 8//7 9//7
f  9//8 8//8 10//8
f  10//9 8//9 11//9
f  11//10 8//10 12//10
f  13//11 9//11 14//11
f  9//12 13//12 4//12
f  4//13 13//13 15//13
f  4//14 15//14 5//14
f  11//15 16//15 10//15
f  16//16 11//16 12//16
f  16//17 12//17 17//17
f  16//18 17//18 18//18
f  10//19 14//19 9//19
f  14//20 10//20 16//20
f  14//20 16//20 19//21
f  19//22 16//18 20//22
f  19//23 13//23 14//23
f  13//23 19//23 21//24
f  22//25 5//25 15//25
f  5//26 22//26 2//26
f  2//27 22//27 23//27
f  23//28 22//28 24//28
f  13//29 22//29 15//29
f  22//29 13//29 21//29
f  23//30 3//30 2//30
f  3//30 23//30 25//31
f  26//32 7//32 6//32
f  7//32 26//32 27//33
f  3//34 6//34 1//34
f  6//35 3//35 26//35
f  26//35 3//35 25//36
f  26//37 25//37 28//37
f  8//38 17//38 12//38
f  17//38 8//38 29//38
f  27//39 8//39 7//39
f  8//39 27//39 29//40
f  19//22 22//28 21//41
f  22//28 19//22 26//42
f  26//42 19//22 27//43
f  27//43 19//22 29//44
f  29//44 19//22 20//22
f  29//44 20//22 16//18
f  29//44 16//18 18//18
f  29//44 18//18 17//18
f  24//28 25//45 23//28
f  25//45 24//28 22//28
f  25//45 22//28 28//46
f  28//46 22//28 26//42

