# File produced by Open Asset Import Library (http://www.assimp.sf.net)
# (assimp v3.1.0)

mtllib ID_27852.obj.mtl

# 22 vertex positions
v  0 3.293 2.01638e-16
v  7.787 5.42 -4.508
v  1.652 5.42 -6.063
v  6.569 3.743 0.296
v  6.221 3.293 1.577
v  6.243 3.293 1.583
v  8.08 3.293 -10.916
v  8.08 5.017 -5.664
v  9.331 3.293 -10.599
v  3.299 3.293 -12.128
v  3.225 3.396 -11.835
v  0 0 0
v  6.221 -9.65634e-17 1.577
v  6.243 -9.69308e-17 1.583
v  6.569 -1.81248e-17 0.296
v  7.787 2.76035e-16 -4.508
v  8.08 3.4682e-16 -5.664
v  9.331 6.49002e-16 -10.599
v  3.299 7.42626e-16 -12.128
v  8.08 6.68412e-16 -10.916
v  1.652 3.71252e-16 -6.063
v  3.225 7.24685e-16 -11.835

# 0 UV coordinates

# 38 vertex normals
vn -0.0787831 0.947196 0.310826
vn -0.078888 0.94724 0.310665
vn -0.0789011 0.947047 0.311252
vn -0.084475 0.94706 0.309743
vn 0.0787847 0.947167 -0.310913
vn 0.079275 0.946532 -0.312718
vn 0.0786577 0.947369 -0.310331
vn 0.0786818 0.947175 -0.310916
vn 0.0788999 0.947242 -0.310656
vn -0.245724 -5.93549e-17 0.96934
vn -0.245724 0 0.96934
vn -0.263116 0 0.964764
vn 0.969385 -0 0.245547
vn 0.969323 8.94881e-05 0.245792
vn 0.969385 -0.000202972 0.245547
vn 0.96933 0 0.245763
vn 0.969348 0 0.245691
vn 0.969341 7.35178e-06 0.245721
vn 0.969348 -5.16047e-05 0.245691
vn 0.96934 0 0.245723
vn 0.245634 0 -0.969363
vn 0.245731 3.90029e-05 -0.969338
vn 0.245711 0 -0.969343
vn 4.18006e-20 -1 -6.13632e-17
vn -0.964826 0 -0.262888
vn -0.964826 0 -0.262888
vn -0.964814 0 -0.262934
vn -0.964814 0 -0.262934
vn -0.969556 0 -0.244871
vn -0.969556 0 -0.244871
vn -2.66381e-23 -1 -6.12322e-17
vn -5.38941e-24 -1 -6.12323e-17
vn 2.05375e-25 -1 -6.12323e-17
vn -4.38376e-25 -1 -6.12323e-17
vn 1.3313e-24 -1 -6.12323e-17
vn 0 -1 -6.12323e-17
vn 0 -1 -6.12323e-17
vn -1.96413e-22 -1 -6.12324e-17

# Mesh 'defaultobject' with 40 faces
g defaultobject
usemtl DefaultMaterial
f  1//1 2//1 3//1
f  2//2 1//2 4//2
f  4//3 1//3 5//3
f  4//4 5//4 6//4
f  7//5 8//5 9//5
f  10//6 11//6 7//6
f  8//7 3//7 2//7
f  3//8 8//8 7//8
f  3//9 7//9 11//9
f  12//10 5//10 1//10
f  5//10 12//10 13//11
f  13//12 6//12 5//12
f  6//12 13//12 14//12
f  14//13 4//13 6//13
f  4//14 14//14 2//14
f  2//15 14//15 15//15
f  2//16 15//16 16//16
f  2//17 16//17 8//17
f  8//18 16//18 9//18
f  9//19 16//19 17//19
f  9//18 17//20 18//20
f  18//21 7//21 9//21
f  7//22 18//22 10//22
f  10//23 18//23 19//23
f  19//24 18//24 20//24
f  3//25 12//25 1//25
f  12//25 3//25 21//26
f  21//27 3//27 11//27
f  21//27 11//27 22//28
f  10//29 22//29 11//29
f  22//29 10//29 19//30
f  20//24 22//31 19//24
f  22//31 20//24 21//32
f  21//32 20//24 18//24
f  21//32 18//24 17//33
f  21//32 17//33 16//34
f  21//32 16//34 12//35
f  12//35 16//34 15//36
f  12//35 15//36 13//37
f  13//37 15//36 14//38

