# File produced by Open Asset Import Library (http://www.assimp.sf.net)
# (assimp v3.1.0)

mtllib ID_36397.obj.mtl

# 12 vertex positions
v  0 7.159 4.38362e-16
v  3.425 6.28 -7.603
v  0.58 6.284 -7.798
v  3.414 6.297 -7.458
v  5.573 6.297 -7.28
v  4.992 7.159 0.396
v  0.58 4.7749e-16 -7.798
v  3.425 4.65549e-16 -7.603
v  5.573 4.45771e-16 -7.28
v  3.414 4.56671e-16 -7.458
v  0 0 0
v  4.992 -2.4248e-17 0.396

# 0 UV coordinates

# 16 vertex normals
vn 0.00899449 0.993797 -0.110843
vn -0.00431403 0.99315 -0.116764
vn 0.00912574 0.993813 -0.110688
vn 0.00880009 0.993789 -0.110934
vn 0.0683808 0 -0.997659
vn 0.0821668 0 -0.996619
vn -0.997245 0 -0.0741732
vn -0.0790785 -6.10406e-17 0.996868
vn -0.0790785 0 0.996868
vn 0.997148 -0 0.0754746
vn 0.997135 -0 0.0756442
vn 0.997135 0 0.0756442
vn -6.23212e-24 -1 -6.12323e-17
vn 5.12741e-22 -1 -6.12321e-17
vn 3.4303e-25 -1 -6.12323e-17
vn 0 -1 -6.12323e-17

# Mesh 'defaultobject' with 20 faces
g defaultobject
usemtl DefaultMaterial
f  1//1 2//1 3//1
f  2//2 1//2 4//2
f  4//3 1//3 5//3
f  5//4 1//4 6//4
f  2//5 7//5 3//5
f  7//5 2//5 8//5
f  9//6 4//6 5//6
f  4//6 9//6 10//6
f  3//7 11//7 1//7
f  11//7 3//7 7//7
f  11//8 6//8 1//8
f  6//8 11//8 12//9
f  12//10 5//10 6//10
f  5//10 12//10 9//10
f  10//11 2//11 4//11
f  2//11 10//11 8//12
f  8//13 11//13 7//13
f  11//13 8//13 10//14
f  11//13 10//14 12//15
f  12//15 10//14 9//16

