# File produced by Open Asset Import Library (http://www.assimp.sf.net)
# (assimp v3.1.0)

mtllib ID_32465.obj.mtl

# 24 vertex positions
v  0.506 2.419 0.403
v  0.222 2.414 -0.197
v  0 2.419 1.48121e-16
v  0.665 2.415 0.204
v  0.739 2.415 0.271
v  7.183 2.419 5.715
v  10.896 2.322 0.594
v  9.414 2.364 2.919
v  8.471 2.39 4.397
v  8.063 2.419 6.415
v  9.1 2.39 4.827
v  4.529 2.322 -4.481
v  0.222 1.20628e-17 -0.197
v  0.665 -1.24914e-17 0.204
v  0.739 -1.6594e-17 0.271
v  9.1 -2.95569e-16 4.827
v  8.471 -2.69239e-16 4.397
v  10.896 -3.6372e-17 0.594
v  4.529 2.74382e-16 -4.481
v  0 0 0
v  0.506 -2.46766e-17 0.403
v  7.183 -3.49943e-16 5.715
v  8.063 -3.92805e-16 6.415
v  9.414 -1.78737e-16 2.919

# 0 UV coordinates

# 38 vertex normals
vn 0.0106512 0.999854 -0.0133735
vn 0.00924734 0.999876 -0.0127092
vn 0.0105585 0.999876 -0.0116616
vn 0.0100257 0.99987 -0.0126019
vn 0.00953754 0.999882 -0.0120241
vn 0.0100069 0.999882 -0.0116838
vn 0.0130045 0.999872 -0.00929176
vn 0.00984627 0.999875 -0.0123782
vn 0.00863018 0.999883 -0.0126242
vn 0.00953561 0.999883 -0.0119632
vn 0.671089 0 -0.741377
vn 0.671176 -2.90511e-05 -0.741298
vn 0.671089 4.85329e-06 -0.741377
vn 0.671176 0 -0.741298
vn 0.564354 0 -0.825533
vn 0.623301 0 -0.781982
vn -0.663736 0 -0.747967
vn -0.781799 0 -0.623531
vn -0.622997 -4.78974e-17 0.782224
vn -0.622997 0 0.782224
vn -0.622577 0 0.782558
vn -0.622524 0 0.782601
vn 0.837285 -0 0.546767
vn 0.837285 0 0.546767
vn 0.843027 -0 0.537872
vn 0.843255 -0.000315368 0.537513
vn 0.843027 0.000510695 0.537871
vn 0.843258 0 0.537509
vn -1.40244e-23 -1 -6.12323e-17
vn -1.4356e-23 -1 -6.12323e-17
vn 0 -1 -6.12324e-17
vn 1.73459e-24 -1 -6.12323e-17
vn 0 -1 -6.12323e-17
vn -2.92087e-25 -1 -6.12323e-17
vn -2.03707e-24 -1 -6.12323e-17
vn -2.51009e-24 -1 -6.12323e-17
vn -2.34604e-24 -1 -6.12323e-17
vn -2.13939e-24 -1 -6.12323e-17

# Mesh 'defaultobject' with 44 faces
g defaultobject
usemtl DefaultMaterial
f  1//1 2//1 3//1
f  2//2 1//2 4//2
f  4//3 1//3 5//3
f  5//4 1//4 6//4
f  5//5 6//5 7//5
f  7//6 6//6 8//6
f  8//7 6//7 9//7
f  9//8 6//8 10//8
f  9//9 10//9 11//9
f  7//10 12//10 5//10
f  4//11 13//11 2//11
f  13//12 4//12 5//12
f  13//11 5//13 14//13
f  14//14 5//14 15//14
f  16//15 9//15 11//15
f  9//15 16//15 17//15
f  18//16 12//16 7//16
f  12//16 18//16 19//16
f  2//17 20//17 3//17
f  20//17 2//17 13//17
f  12//18 15//18 5//18
f  15//18 12//18 19//18
f  20//19 1//19 3//19
f  1//19 20//19 21//20
f  1//21 21//21 6//21
f  6//21 21//21 22//21
f  6//22 22//22 10//22
f  10//22 22//22 23//22
f  23//23 11//23 10//23
f  11//23 23//23 16//24
f  17//25 8//25 9//25
f  8//26 17//26 7//26
f  7//27 17//27 24//27
f  7//28 24//28 18//28
f  22//29 16//29 23//29
f  16//29 22//29 17//30
f  17//30 22//29 24//31
f  24//31 22//29 21//32
f  24//31 21//32 18//33
f  18//33 21//32 15//34
f  15//34 21//32 14//35
f  14//35 21//32 20//36
f  14//35 20//36 13//37
f  19//38 18//33 15//34

