# File produced by Open Asset Import Library (http://www.assimp.sf.net)
# (assimp v3.1.0)

mtllib ID_38933.obj.mtl

# 18 vertex positions
v  0.098 2.898 -0.418
v  6.199 2.898 1.43
v  6.299 2.898 1.031
v  0 2.898 1.77451e-16
v  8.872 2.898 2.91
v  9.178 2.898 1.704
v  6.778 2.898 11.158
v  6.594 2.898 11.884
v  3.947 2.898 11.212
v  0.098 2.55951e-17 -0.418
v  0 0 0
v  6.199 -8.75622e-17 1.43
v  3.947 -6.86537e-16 11.212
v  6.594 -7.27685e-16 11.884
v  6.778 -6.8323e-16 11.158
v  8.872 -1.78186e-16 2.91
v  9.178 -1.0434e-16 1.704
v  6.299 -6.31305e-17 1.031

# 0 UV coordinates

# 21 vertex normals
vn 0 1 0
vn -0.9736 0 -0.22826
vn -0.9736 1.39769e-17 -0.22826
vn -0.974509 0 -0.22435
vn -0.224779 -5.96654e-17 0.97441
vn -0.224779 0 0.97441
vn -0.246066 0 0.969253
vn 0.969352 -0 0.245676
vn 0.969251 0.000105892 0.246073
vn 0.969351 -0.00120304 0.245676
vn 0.969251 0 0.246073
vn 0.969285 0 0.245939
vn 0.227542 0 -0.973768
vn 0.227625 0 -0.973749
vn 4.14527e-24 -1 -6.12323e-17
vn 4.12932e-24 -1 -6.12323e-17
vn -1.79576e-24 -1 -6.12323e-17
vn -1.79992e-24 -1 -6.12323e-17
vn -6.80235e-25 -1 -6.12323e-17
vn -6.32304e-25 -1 -6.12323e-17
vn 0 -1 -6.12323e-17

# Mesh 'defaultobject' with 32 faces
g defaultobject
usemtl DefaultMaterial
f  1//1 2//1 3//1
f  2//1 1//1 4//1
f  3//1 5//1 6//1
f  5//1 3//1 7//1
f  7//1 3//1 8//1
f  8//1 3//1 9//1
f  9//1 3//1 2//1
f  10//2 4//2 1//2
f  4//2 10//2 11//3
f  12//4 9//4 2//4
f  9//4 12//4 13//4
f  11//5 2//5 4//5
f  2//5 11//5 12//6
f  13//7 8//7 9//7
f  8//7 13//7 14//7
f  14//8 7//8 8//8
f  7//9 14//9 5//9
f  5//10 14//10 15//10
f  5//11 15//11 16//11
f  5//12 16//12 6//12
f  6//12 16//12 17//12
f  3//13 10//13 1//13
f  10//13 3//13 18//13
f  18//14 3//14 6//14
f  18//14 6//14 17//14
f  13//15 15//15 14//15
f  15//15 13//15 16//16
f  16//16 13//15 12//17
f  16//16 12//17 17//18
f  17//18 12//17 18//19
f  18//19 12//17 11//20
f  18//19 11//20 10//21

