# File produced by Open Asset Import Library (http://www.assimp.sf.net)
# (assimp v3.1.0)

mtllib ID_46376.obj.mtl

# 11 vertex positions
v  4.05 1.903 -0.503
v  2.497 2.413 1.945
v  4.326 2.413 1.718
v  0 1.903 1.16525e-16
v  0.552 1.903 4.442
v  4.602 1.903 3.939
v  4.05 3.07999e-17 -0.503
v  0 0 0
v  0.552 -2.71994e-16 4.442
v  4.602 -2.41194e-16 3.939
v  4.326 -1.05197e-16 1.718

# 0 UV coordinates

# 17 vertex normals
vn -0.0273649 0.975006 -0.220486
vn -0.0273854 0.975003 -0.220499
vn 0.0273836 0.975006 0.220484
vn 0.0273609 0.975013 0.220454
vn -0.220482 0.975006 0.027399
vn -0.123251 0 -0.992376
vn -0.123251 6.07655e-17 -0.992376
vn -0.992367 -7.55116e-18 0.12332
vn -0.992367 0 0.12332
vn 0.123251 -0 0.992376
vn 0.992367 0 -0.12332
vn 0.992367 -1.82224e-08 -0.12332
vn 0.992367 2.79895e-08 -0.12332
vn 0.992367 0 -0.12332
vn -7.24495e-25 -1 -6.12323e-17
vn 5.79596e-24 -1 -6.12323e-17
vn 1.08674e-23 -1 -6.12323e-17

# Mesh 'defaultobject' with 18 faces
g defaultobject
usemtl DefaultMaterial
f  1//1 2//1 3//1
f  2//2 1//2 4//2
f  3//3 5//3 6//3
f  5//4 3//4 2//4
f  2//5 4//5 5//5
f  7//6 4//6 1//6
f  4//6 7//6 8//7
f  8//8 5//8 4//8
f  5//8 8//8 9//9
f  9//10 6//10 5//10
f  6//10 9//10 10//10
f  3//11 7//11 1//11
f  7//11 3//11 6//12
f  7//11 6//12 11//13
f  11//13 6//12 10//14
f  7//15 9//15 8//15
f  9//15 7//15 11//16
f  9//15 11//16 10//17

