# File produced by Open Asset Import Library (http://www.assimp.sf.net)
# (assimp v3.1.0)

mtllib ID_44642.obj.mtl

# 8 vertex positions
v  0 4.08 2.49828e-16
v  7.173 4.08 1.498
v  6.461 4.08 -1.563
v  0.671 4.08 3.069
v  6.461 9.57061e-17 -1.563
v  0 0 0
v  0.671 -1.87922e-16 3.069
v  7.173 -9.1726e-17 1.498

# 0 UV coordinates

# 9 vertex normals
vn -0 1 0
vn -0.235131 0 -0.971964
vn -0.235131 5.95156e-17 -0.971964
vn -0.976923 -1.30788e-17 0.213592
vn -0.976923 0 0.213592
vn 0.23486 -0 0.972029
vn 0.973998 0 -0.226556
vn 0 -1 -6.12323e-17
vn 0 -1 -6.12323e-17

# Mesh 'defaultobject' with 12 faces
g defaultobject
usemtl DefaultMaterial
f  1//1 2//1 3//1
f  2//1 1//1 4//1
f  5//2 1//2 3//2
f  1//2 5//2 6//3
f  6//4 4//4 1//4
f  4//4 6//4 7//5
f  7//6 2//6 4//6
f  2//6 7//6 8//6
f  8//7 3//7 2//7
f  3//7 8//7 5//7
f  8//8 6//8 5//8
f  6//8 8//8 7//9

