# File produced by Open Asset Import Library (http://www.assimp.sf.net)
# (assimp v3.1.0)

mtllib ID_58256.obj.mtl

# 8 vertex positions
v  0 1.838 1.12545e-16
v  4.515 1.838 -0.23
v  4.266 1.838 -1.152
v  0.269 1.838 0.998
v  4.266 7.05397e-17 -1.152
v  0 0 0
v  0.269 -6.11099e-17 0.998
v  4.515 1.40834e-17 -0.23

# 0 UV coordinates

# 9 vertex normals
vn 0 1 0
vn -0.260704 0 -0.965419
vn -0.260704 5.91149e-17 -0.965419
vn -0.965541 -1.59358e-17 0.260251
vn -0.965541 0 0.260251
vn 0.277827 -0 0.960631
vn 0.965413 0 -0.260724
vn 2.89771e-24 -1 -6.12323e-17
vn 0 -1 -6.12323e-17

# Mesh 'defaultobject' with 12 faces
g defaultobject
usemtl DefaultMaterial
f  1//1 2//1 3//1
f  2//1 1//1 4//1
f  5//2 1//2 3//2
f  1//2 5//2 6//3
f  6//4 4//4 1//4
f  4//4 6//4 7//5
f  7//6 2//6 4//6
f  2//6 7//6 8//6
f  8//7 3//7 2//7
f  3//7 8//7 5//7
f  5//8 7//8 6//8
f  7//8 5//8 8//9

