# File produced by Open Asset Import Library (http://www.assimp.sf.net)
# (assimp v3.1.0)

mtllib ID_8516.obj.mtl

# 24 vertex positions
v  11.936 7.139 -2.421
v  7.77 5.191 1.647
v  9.651 4.228 4.494
v  8.086 7.139 -3.237
v  2.342 5.191 0.496
v  9.63 4.188 4.592
v  17.104 3.431 8.101
v  9.24 3.431 6.433
v  17.494 4.188 6.26
v  17.515 4.228 6.162
v  20.518 4.228 -8
v  2.506 4.228 -11.82
v  0 4.228 2.5889e-16
v  9.24 -3.93908e-16 6.433
v  17.104 -4.96043e-16 8.101
v  0 0 0
v  7.77 -1.0085e-16 1.647
v  2.342 -3.03712e-17 0.496
v  17.494 -3.83314e-16 6.26
v  17.515 -3.77314e-16 6.162
v  20.518 4.89859e-16 -8
v  2.506 7.23766e-16 -11.82
v  9.651 -2.75178e-16 4.494
v  9.63 -2.81179e-16 4.592

# 0 UV coordinates

# 38 vertex normals
vn -0.0774313 0.927788 0.364984
vn -0.0773693 0.927772 0.365039
vn -0.0774054 0.92777 0.365036
vn -0.102364 0.928466 0.357032
vn -0.0774351 0.927751 0.365078
vn -0.0773776 0.9278 0.364966
vn -0.0775789 0.927751 0.365047
vn -0.0741548 0.928757 0.363196
vn 0.365017 0.927778 0.0774006
vn 0.0774077 0.927787 -0.364992
vn 0.0773744 0.927762 -0.365063
vn -0.365086 0.92775 -0.0774032
vn -0.364957 0.927801 -0.0774054
vn -0.20749 0 0.978237
vn -0.207189 -5.99037e-17 0.978301
vn -0.207436 0.000116448 0.978249
vn -0.207362 0 0.978264
vn 0 -1 -6.12422e-17
vn 0.97829 -0 0.207242
vn 0.977695 0.00127985 0.210027
vn 0.978249 3.66616e-05 0.207434
vn 0.978289 -0.000727798 0.207242
vn 0.977776 0.00733668 0.209523
vn 0.978249 0 0.207434
vn 0.207466 0 -0.978242
vn -0.978256 0 -0.207403
vn -0.978256 1.26998e-17 -0.207403
vn -0.977803 0 -0.209528
vn -0.978285 -5.53947e-05 -0.207264
vn -0.978265 -0 -0.207358
vn -3.00263e-20 1 6.12312e-17
vn -0.834343 0 0.551246
vn 9.5183e-25 -1 -6.12323e-17
vn 0 -1 -6.12323e-17
vn 2.74992e-24 -1 -6.12323e-17
vn 1.33466e-23 -1 -6.12324e-17
vn 6.67695e-24 -1 -6.12321e-17
vn 1.85906e-24 -1 -6.12324e-17

# Mesh 'defaultobject' with 44 faces
g defaultobject
usemtl DefaultMaterial
f  1//1 2//1 3//1
f  2//2 1//2 4//2
f  4//3 5//3 2//3
f  1//4 3//4 6//4
f  7//5 6//5 8//5
f  6//6 7//6 1//6
f  1//7 7//7 9//7
f  1//8 9//8 10//8
f  1//9 10//9 11//9
f  4//10 11//10 12//10
f  11//11 4//11 1//11
f  5//12 12//12 13//12
f  12//13 5//13 4//13
f  14//14 7//14 8//14
f  7//14 14//14 15//14
f  16//15 5//15 13//15
f  5//16 16//16 2//16
f  2//17 16//17 17//17
f  17//18 16//18 18//18
f  15//19 9//19 7//19
f  9//20 15//20 10//20
f  10//21 15//21 11//21
f  11//22 15//22 19//22
f  11//23 19//23 20//23
f  11//24 20//24 21//24
f  21//25 12//25 11//25
f  12//25 21//25 22//25
f  22//26 13//26 12//26
f  13//26 22//26 16//27
f  23//28 6//28 3//28
f  6//29 23//29 8//29
f  8//30 23//30 14//30
f  14//31 23//31 24//31
f  17//32 3//32 2//32
f  3//32 17//32 23//32
f  21//33 16//18 22//33
f  16//18 21//33 18//18
f  18//18 21//33 17//18
f  17//18 21//33 20//34
f  17//18 20//34 23//35
f  23//35 20//34 24//36
f  24//36 20//34 14//34
f  14//34 20//34 19//37
f  14//34 19//37 15//38

