# {"id":"ID_3773","idOriginal":"ID_3773","origin":[14.327328802252646,48.339816282369924],"elevation":310.96,"wof":[{"Id":85898419,"Name":"Furth","Placetype":"neighbourhood","Offset":-1},{"Id":85681677,"Name":"Oberösterreich","Placetype":"region","Offset":-1},{"Id":102049853,"Name":"Linz","Placetype":"county","Offset":-1},{"Id":85632785,"Name":"Austria","Placetype":"country","Offset":-1}]}

# Attribution: City of Linz <http://geo.data.linz.gv.at/katalog/geodata/3d_geo_daten_lod2/>
# Longitude: 14.327328802252646
# Latitude: 48.339816282369924
# Elevation: 310.96

# File produced by Open Asset Import Library (http://www.assimp.sf.net)
# (assimp v3.1.0)


# 34 vertex positions
v  0.435 8.964 -7.014
v  30.85 6.134 1.82
v  31.264 8.964 -5.196
v  27.476 6.134 1.621
v  0.052 6.297 -0.404
v  0 6.134 3.75599e-16
v  31.138 6.093 -12.343
v  31.981 4.498 -16.262
v  31.377 4.558 -16.148
v  31.133 6.127 -12.259
v  0.797 6.441 -13.268
v  0.877 6.14 -14.012
v  31.497 7.011 -10.039
v  32.234 4.506 -16.228
v  31.863 6.093 -12.3
v  31.466 7.582 -8.62
v  31.651 7 -10.058
v  0 0 0
v  27.476 -9.92576e-17 1.621
v  30.85 -1.11443e-16 1.82
v  31.497 6.14711e-16 -10.039
v  31.651 6.15875e-16 -10.058
v  31.264 3.18163e-16 -5.196
v  31.466 5.27823e-16 -8.62
v  32.234 9.93678e-16 -16.228
v  31.863 7.53158e-16 -12.3
v  31.981 9.9576e-16 -16.262
v  31.377 9.8878e-16 -16.148
v  0.877 8.57988e-16 -14.012
v  31.133 7.50647e-16 -12.259
v  31.138 7.55791e-16 -12.343
v  0.052 2.47379e-17 -0.404
v  0.797 8.12431e-16 -13.268
v  0.435 4.29484e-16 -7.014

# 0 UV coordinates

# 63 vertex normals
vn -0.0219884 0.927622 0.372872
vn -0.0219929 0.927617 0.372885
vn -0.0220279 0.927577 0.372982
vn -0.0219257 0.928117 0.371641
vn 0.0217765 0.927634 -0.372855
vn 0.0133112 0.927141 -0.374475
vn 0.0220048 0.927605 -0.372915
vn 0.0220055 0.927595 -0.372938
vn 0.0219953 0.927575 -0.372988
vn 0.0221494 0.927571 -0.372989
vn 0.0215893 0.927615 -0.372914
vn 0.0207896 0.927609 -0.372974
vn 0.0274179 0.927733 -0.372235
vn 0.0306011 0.927505 -0.372556
vn 0.0201927 0.927489 -0.373306
vn -0.0588945 -6.1126e-17 0.998264
vn -0.0588945 0 0.998264
vn -0.0588781 0 0.998265
vn 0.122448 -0 0.992475
vn 0.122448 0 0.992475
vn 0.998264 -0 0.0589055
vn 0.998264 -7.53104e-06 0.0588959
vn 0.998264 5.71798e-06 0.0589055
vn 0.998264 0 0.0588928
vn 0.999761 -0 0.0218413
vn 0.999761 0 0.0218413
vn 0.995559 -0 0.0941384
vn 0.995568 -3.45038e-05 0.0940455
vn 0.995566 0 0.0940705
vn -3.334e-19 1 6.12067e-17
vn 0.133184 0 -0.991091
vn 0.133184 0 -0.991091
vn -0.185465 0 -0.982651
vn -0.185465 0 -0.982651
vn 0.0578419 0 -0.998326
vn 0.0578419 0 -0.998326
vn -0.998033 0 -0.0626886
vn -0.998294 -0.00273323 -0.0583282
vn -0.998038 -0 -0.0626183
vn -1.78533e-19 1 6.1221e-17
vn -0.991818 0 -0.12766
vn -0.991818 7.8169e-18 -0.12766
vn -0.994269 0 -0.106911
vn -0.994269 0 -0.106911
vn -0.998329 0 -0.0577862
vn -0.998326 3.23717e-05 -0.0578325
vn -0.998329 -6.241e-05 -0.0577862
vn -0.998326 -0 -0.0578455
vn -7.36442e-22 -1 -6.12324e-17
vn 3.62909e-22 -1 -6.12324e-17
vn 7.64773e-23 -1 -6.12323e-17
vn 7.64143e-23 -1 -6.12323e-17
vn -2.09375e-21 -1 -6.12319e-17
vn 8.05956e-25 -1 -6.12323e-17
vn -8.87032e-23 -1 -6.12314e-17
vn 2.42993e-24 -1 -6.12323e-17
vn 0 -1 -6.12324e-17
vn 0 -1 -6.12323e-17
vn 2.24639e-23 -1 -6.12324e-17
vn -4.37939e-24 -1 -6.12323e-17
vn -1.78298e-23 -1 -6.12323e-17
vn 2.3264e-24 -1 -6.12323e-17
vn 2.95829e-25 -1 -6.12323e-17

# Mesh 'defaultobject' with 64 faces
g defaultobject
usemtl DefaultMaterial
f  1//1 2//1 3//1
f  2//2 1//2 4//2
f  4//3 1//3 5//3
f  4//4 5//4 6//4
f  7//5 8//5 9//5
f  8//6 7//6 10//6
f  11//7 10//7 12//7
f  10//8 11//8 1//8
f  10//9 1//9 3//9
f  10//10 3//10 13//10
f  10//11 13//11 8//11
f  8//12 13//12 14//12
f  14//13 13//13 15//13
f  13//14 3//14 16//14
f  17//15 15//15 13//15
f  18//16 4//16 6//16
f  4//16 18//16 19//17
f  4//18 19//18 2//18
f  2//18 19//18 20//18
f  21//19 17//19 13//19
f  17//19 21//19 22//20
f  20//21 3//21 2//21
f  3//22 20//22 16//22
f  16//23 20//21 23//23
f  16//22 23//24 24//24
f  24//25 13//25 16//25
f  13//25 24//25 21//26
f  22//27 15//27 17//27
f  15//28 22//28 14//28
f  14//29 22//29 25//29
f  25//30 22//30 26//30
f  25//31 8//31 14//31
f  8//31 25//31 27//32
f  8//33 28//33 9//33
f  28//33 8//33 27//34
f  10//35 29//35 12//35
f  29//35 10//35 30//36
f  28//37 7//37 9//37
f  7//38 28//38 10//38
f  10//39 28//39 30//39
f  30//40 28//40 31//40
f  32//41 6//41 5//41
f  6//41 32//41 18//42
f  12//43 33//43 11//43
f  33//43 12//43 29//44
f  33//45 1//45 11//45
f  1//46 33//46 5//46
f  5//47 33//47 34//47
f  5//48 34//48 32//48
f  26//49 27//49 25//49
f  27//49 26//49 28//50
f  28//50 26//49 31//51
f  31//51 26//49 22//52
f  31//51 22//52 30//53
f  30//53 22//52 29//54
f  29//54 22//52 21//55
f  29//54 21//55 24//56
f  29//54 24//56 23//57
f  29//54 23//57 20//58
f  29//54 20//58 33//59
f  33//59 20//58 34//60
f  34//60 20//58 19//61
f  34//60 19//61 32//62
f  32//62 19//61 18//63

