# {"id":"_58403","idOriginal":"_58403","origin":[14.27545870683803,48.31021760428217],"elevation":266.416,"wof":[{"Id":102049853,"Name":"Linz","Placetype":"county","Offset":-1},{"Id":101748071,"Name":"Linz","Placetype":"locality","Offset":-1},{"Id":85681677,"Name":"Oberösterreich","Placetype":"region","Offset":-1},{"Id":85898453,"Name":"Urfahr","Placetype":"neighbourhood","Offset":-1},{"Id":85632785,"Name":"Austria","Placetype":"country","Offset":-1}]}

# Attribution: City of Linz <http://geo.data.linz.gv.at/katalog/geodata/3d_geo_daten_lod2/>
# Longitude: 14.27545870683803
# Latitude: 48.31021760428217
# Elevation: 266.416

# File produced by Open Asset Import Library (http://www.assimp.sf.net)
# (assimp v3.1.0)


# 8 vertex positions
v  0 12.342 7.5573e-16
v  2.698 12.342 -3.914
v  1.85 12.342 -4.273
v  0.825 12.342 0.362
v  0 0 0
v  0.825 -2.21661e-17 0.362
v  2.698 2.39663e-16 -3.914
v  1.85 2.61646e-16 -4.273

# 0 UV coordinates

# 9 vertex normals
vn 0 1 0
vn -0.401808 -5.60719e-17 0.915724
vn -0.401808 0 0.915724
vn 0.91598 -0 0.401223
vn 0.389852 0 -0.920877
vn -0.917684 0 -0.397312
vn -0.917684 2.43284e-17 -0.397312
vn 1.57344e-24 -1 -6.12323e-17
vn -1.54337e-23 -1 -6.12324e-17

# Mesh 'defaultobject' with 12 faces
g defaultobject
usemtl DefaultMaterial
f  1//1 2//1 3//1
f  2//1 1//1 4//1
f  5//2 4//2 1//2
f  4//2 5//2 6//3
f  6//4 2//4 4//4
f  2//4 6//4 7//4
f  7//5 3//5 2//5
f  3//5 7//5 8//5
f  8//6 1//6 3//6
f  1//6 8//6 5//7
f  5//8 7//8 6//8
f  7//8 5//8 8//9

