# {"id":"ID_23260","idOriginal":"ID_23260","origin":[14.31811457702215,48.258732771761906],"elevation":257.381}
# Longitude: 14.31811457702215
# Latitude: 48.258732771761906
# Elevation: 257.381

# File produced by Open Asset Import Library (http://www.assimp.sf.net)
# (assimp v3.1.0)

mtllib ID_23260.obj.mtl

# 14 vertex positions
v  8.017 7.907 0.697
v  8.246 7.923 -1.935
v  0 3.639 2.22824e-16
v  1.189 3.72 -13.677
v  8.556 7.891 -6.808
v  9.142 7.954 -12.986
v  8.645 7.939 -6.801
v  9.142 7.95163e-16 -12.986
v  8.645 4.16441e-16 -6.801
v  8.246 1.18485e-16 -1.935
v  8.017 -4.26789e-17 0.697
v  8.556 4.1687e-16 -6.808
v  1.189 8.37475e-16 -13.677
v  0 0 0

# 0 UV coordinates

# 22 vertex normals
vn -0.467241 0.883426 -0.0352825
vn -0.467259 0.883412 -0.0353889
vn -0.467095 0.883494 -0.0355163
vn -0.467246 0.883422 -0.0353109
vn -0.472201 0.880763 -0.035808
vn 0.996787 0 0.0800975
vn 0.996236 0 0.0866786
vn 0.996236 0 0.0866787
vn 0.997983 -0 0.0634874
vn 0.997983 0 0.0634874
vn 0.0865593 0 -0.996247
vn 0.0865593 0 -0.996247
vn -0.996242 0 -0.0866076
vn -0.996243 5.30319e-18 -0.0866076
vn -0.0866135 0 0.996242
vn -0.0784086 0 0.996921
vn -0.0784086 0 0.996921
vn 7.66704e-24 -1 -6.12323e-17
vn 9.95903e-24 -1 -6.12323e-17
vn 0 -1 -6.12323e-17
vn -8.12733e-24 -1 -6.12323e-17
vn -4.27512e-24 -1 -6.12323e-17

# Mesh 'defaultobject' with 24 faces
g defaultobject
usemtl DefaultMaterial
f  1//1 2//1 3//1
f  4//2 3//2 2//2
f  5//3 4//3 2//3
f  6//4 4//4 5//4
f  5//5 7//5 6//5
f  7//6 8//6 6//6
f  8//6 7//6 9//6
f  1//7 10//7 2//7
f  10//7 1//7 11//8
f  10//9 5//9 2//9
f  5//9 10//9 12//10
f  8//11 4//11 6//11
f  4//11 8//11 13//12
f  13//13 3//13 4//13
f  3//13 13//13 14//14
f  3//15 11//15 1//15
f  11//15 3//15 14//15
f  5//16 9//16 7//16
f  9//16 5//16 12//17
f  13//18 11//18 14//18
f  11//18 13//18 10//19
f  10//19 13//18 12//20
f  12//20 13//18 9//21
f  9//21 13//18 8//22

