# {"id":"ID_19508","idOriginal":"ID_19508","origin":[14.303283898783533,48.252408097205844],"elevation":260.823,"wof":[{"Id":102049853,"Name":"Linz","Placetype":"county","Offset":-1},{"Id":101748071,"Name":"Linz","Placetype":"locality","Offset":-1},{"Id":85632785,"Name":"Austria","Placetype":"country","Offset":-1},{"Id":85898447,"Name":"Scharlinz","Placetype":"neighbourhood","Offset":-1},{"Id":85681677,"Name":"Oberösterreich","Placetype":"region","Offset":-1}]}

# Attribution: City of Linz <http://geo.data.linz.gv.at/katalog/geodata/3d_geo_daten_lod2/>
# Longitude: 14.303283898783533
# Latitude: 48.252408097205844
# Elevation: 260.823

# File produced by Open Asset Import Library (http://www.assimp.sf.net)
# (assimp v3.1.0)


# 78 vertex positions
v  7.665 9.328 3.784
v  14.057 7.728 5.426
v  14.073 7.722 5.417
v  6.029 7.728 10.152
v  7.81 7.735 -5.051
v  9.33 7.694 -2.73
v  7.915 7.694 -5.112
v  7.71 7.834 -4.657
v  7.748 7.834 -4.595
v  7.685 7.859 -4.558
v  6.195 9.328 1.309
v  10.739 7.694 -0.358
v  10.648 7.73 -0.303
v  10.717 7.73 -0.188
v  11.366 7.728 0.893
v  11.876 7.726 1.742
v  12.484 7.724 2.756
v  6.72 9.328 2.193
v  7.558 7.734 -4.904
v  4.451 7.855 -2.644
v  3.546 7.854 -2.109
v  0.312 7.852 -0.185
v  2.719 7.728 4.578
v  0 7.728 4.73204e-16
v  6.029 -6.21631e-16 10.152
v  2.719 -2.80322e-16 4.578
v  0 0 0
v  7.748 2.81363e-16 -4.595
v  7.558 3.00283e-16 -4.904
v  7.71 2.85159e-16 -4.657
v  14.057 -3.32247e-16 5.426
v  14.073 -3.31696e-16 5.417
v  10.648 1.85534e-17 -0.303
v  10.739 2.19212e-17 -0.358
v  10.717 1.15117e-17 -0.188
v  12.484 -1.68756e-16 2.756
v  11.366 -5.46805e-17 0.893
v  11.876 -1.06667e-16 1.742
v  7.915 3.1302e-16 -5.112
v  9.33 1.67164e-16 -2.73
v  7.81 3.09285e-16 -5.051
v  0.312 1.1328e-17 -0.185
v  7.685 2.79097e-16 -4.558
v  4.451 1.61898e-16 -2.644
v  3.546 1.29139e-16 -2.109
v  13.408 4.349 -7.249
v  9.33 4.916 -2.73
v  14.318 4.916 -5.703
v  13.263 4.349 -7.162
v  12.748 4.033 -8.019
v  9.16 4.033 -5.879
v  8.352 4.042 -5.366
v  7.915 4.04 -5.112
v  10.739 4.044 -0.358
v  11.414 4.046 -0.771
v  14.801 4.06 -2.841
v  15.345 4.063 -3.176
v  16.388 3.611 -2.134
v  14.834 4.594 -4.825
v  16.409 3.611 -2.147
v  15.785 4.001 -3.209
v  16.077 3.609 -1.94
v  15.445 4.001 -3.007
v  15.345 1.94474e-16 -3.176
v  14.801 1.73961e-16 -2.841
v  11.414 4.72101e-17 -0.771
v  16.077 1.18791e-16 -1.94
v  16.409 1.31466e-16 -2.147
v  16.388 1.3067e-16 -2.134
v  15.445 1.84126e-16 -3.007
v  15.785 1.96495e-16 -3.209
v  14.834 2.95446e-16 -4.825
v  13.408 4.43873e-16 -7.249
v  14.318 3.49208e-16 -5.703
v  13.263 4.38546e-16 -7.162
v  12.748 4.91022e-16 -8.019
v  9.16 3.59985e-16 -5.879
v  8.352 3.28573e-16 -5.366

# 0 UV coordinates

# 134 vertex normals
vn 0.275075 0.95048 -0.14464
vn 0.164815 0.945755 0.279969
vn 0.275038 0.947449 -0.163383
vn 0.279824 0.945494 -0.166552
vn 0.298737 0.936606 -0.183098
vn 0.278448 0.946142 -0.165171
vn 0.27922 0.945787 -0.165898
vn 0.279246 0.945784 -0.165876
vn 0.287836 0.946864 -0.143522
vn 0.278804 0.945666 -0.167283
vn 0.279287 0.945763 -0.165926
vn 0.279332 0.945812 -0.165568
vn 0.279333 0.945802 -0.165624
vn 0.279423 0.945684 -0.166145
vn 0.279298 0.945769 -0.165873
vn 0.279308 0.945761 -0.1659
vn -0.167051 0.945371 -0.279941
vn -0.166318 0.945766 -0.279043
vn -0.166071 0.945776 -0.279155
vn -0.166479 0.945795 -0.278847
vn -0.279321 0.945763 0.165869
vn -0.279316 0.94576 0.165893
vn -0.279322 0.945756 0.165908
vn -0.279316 0.945762 0.165883
vn -0.278983 0.946235 0.163732
vn -0.859825 0 0.510589
vn -0.859788 6.13715e-05 0.510652
vn -0.859825 -5.04074e-05 0.510589
vn -0.859788 0 0.510652
vn -0.852588 0.00521862 0.522557
vn -0.851847 0 0.52379
vn -0.851847 0 0.52379
vn 4.08691e-20 -1 -6.12587e-17
vn 0.507311 -0 0.861763
vn 0.490278 -0 0.871566
vn 0.490279 0 0.871566
vn 0.517257 -0 0.85583
vn 0.517257 0 0.85583
vn 0.858573 0 -0.512692
vn 0.857641 -0.000727759 -0.514248
vn 0.857224 -0.00117724 -0.514943
vn 0.857352 -0.00100787 -0.51473
vn 0.857492 -0.000777826 -0.514497
vn 0.857956 0 -0.513724
vn -1.23103e-20 1 6.12395e-17
vn 0 1 6.12308e-17
vn -2.5005e-20 1 6.12623e-17
vn -1.39537e-20 1 6.12356e-17
vn 0.859755 0 -0.510706
vn 0.859746 -6.62122e-06 -0.510722
vn 0.859751 0 -0.510714
vn 0 1 6.11373e-17
vn -0.50385 -0.0052203 -0.863776
vn -0.50342 -0 -0.864042
vn -4.58987e-20 1 6.11534e-17
vn -0.506423 0 -0.862286
vn -0.509321 -3.12799e-05 -0.860577
vn -0.50889 0.000213071 -0.860832
vn -0.511286 -0.00151947 -0.859409
vn -0.510049 6.63535e-05 -0.860146
vn -0.5101 -3.89327e-06 -0.860115
vn -0.510029 5.26694e-17 -0.860157
vn 3.92582e-20 1 6.12429e-17
vn -1.74377e-21 1 6.12307e-17
vn 0 1 6.12343e-17
vn -7.33421e-23 -1 -6.12323e-17
vn 1.6417e-22 -1 -6.12323e-17
vn 5.8451e-24 -1 -6.12323e-17
vn 1.71316e-24 -1 -6.12323e-17
vn 1.05696e-23 -1 -6.12323e-17
vn 0 -1 -6.12323e-17
vn 2.11326e-23 -1 -6.12323e-17
vn 0 -1 -6.12323e-17
vn -1.12792e-23 -1 -6.12323e-17
vn -8.47967e-23 -1 -6.12324e-17
vn -1.75423e-24 -1 -6.12323e-17
vn 0 -1 -6.12324e-17
vn 3.83546e-23 -1 -6.12323e-17
vn -4.09032e-22 -1 -6.12321e-17
vn -0.154299 0.953506 -0.258878
vn -0.156404 0.952674 -0.260674
vn -0.154266 0.95351 -0.258883
vn -0.154483 0.95344 -0.259011
vn -0.153862 0.953525 -0.259068
vn -0.154744 0.953476 -0.258725
vn 0.15523 0.953506 0.258321
vn 0.154443 0.953417 0.259119
vn 0.154412 0.953427 0.259103
vn 0.154312 0.953438 0.259123
vn 0.154313 0.953438 0.259123
vn 0.135356 0.953281 0.270062
vn 0.158819 0.953393 0.256552
vn -0.255092 0.849493 0.461833
vn 0.155083 0.953497 0.258443
vn 0.155922 0.953594 0.257579
vn 0.524359 0 0.851497
vn 0.521482 -0.000531086 0.853262
vn 0.524356 0.00331299 0.851493
vn 0.521481 0 0.853263
vn 0.52191 -0 0.853
vn 0.529262 -0 0.848458
vn 0.526357 0.000347232 0.850264
vn 0.529079 0 0.848573
vn 3.08845e-20 -1 -6.1183e-17
vn -0.860624 0 0.509241
vn -0.8604 -2.15752e-05 0.50962
vn -0.860427 0 0.509573
vn 6.08675e-20 1 6.12023e-17
vn -0.859746 0 0.510722
vn -0.859754 8.83318e-06 0.510709
vn -0.859751 0 0.510714
vn 0.862184 0 -0.506595
vn 0.861801 -0.000232972 -0.507247
vn 0.86218 0.000272926 -0.506602
vn 0.861838 -0.000293312 -0.507184
vn 0.862184 0.000636981 -0.506594
vn 0.861838 -9.93479e-05 -0.507183
vn 0.861916 0 -0.507051
vn 0 1 6.12441e-17
vn 0.85714 0 -0.515084
vn -0.514497 0 -0.857492
vn -0.512241 0 -0.858842
vn -0.535996 0 -0.84422
vn -0.502517 0 -0.864567
vn -2.37343e-22 -1 -6.12321e-17
vn 1.61485e-22 -1 -6.12324e-17
vn 1.87295e-23 -1 -6.12323e-17
vn -3.52382e-22 -1 -6.12324e-17
vn 5.0821e-24 -1 -6.12323e-17
vn 0 -1 -6.12323e-17
vn 9.99624e-24 -1 -6.12323e-17
vn -2.05959e-23 -1 -6.12324e-17
vn 3.09082e-21 -1 -6.1223e-17
vn 2.42983e-23 -1 -6.12323e-17

# Mesh 'defaultobject' with 154 faces
g defaultobject
usemtl DefaultMaterial
f  1//1 2//1 3//1
f  1//2 4//2 2//2
f  5//3 6//3 7//3
f  6//4 5//4 8//4
f  6//5 8//5 9//5
f  6//6 9//6 10//6
f  6//7 10//7 11//7
f  6//8 11//8 12//8
f  12//9 11//9 13//9
f  13//10 11//10 14//10
f  14//11 11//11 15//11
f  15//12 11//12 16//12
f  16//13 11//13 17//13
f  17//14 11//14 3//14
f  3//15 11//15 18//15
f  3//16 18//16 1//16
f  8//17 5//17 19//17
f  20//18 11//18 10//18
f  11//19 20//19 21//19
f  11//20 21//20 22//20
f  1//21 23//21 4//21
f  23//22 1//22 24//22
f  24//23 1//23 18//23
f  24//24 18//24 11//24
f  24//25 11//25 22//25
f  23//26 25//26 4//26
f  25//27 23//27 24//27
f  25//28 24//28 26//28
f  26//29 24//29 27//29
f  19//30 9//30 8//30
f  9//31 19//31 28//31
f  28//31 19//31 29//32
f  28//33 29//33 30//33
f  25//34 2//34 4//34
f  2//34 25//34 31//34
f  31//35 3//35 2//35
f  3//35 31//35 32//36
f  33//37 12//37 13//37
f  12//37 33//37 34//38
f  32//39 17//39 3//39
f  17//40 32//40 16//40
f  16//41 32//41 15//41
f  15//42 32//42 14//42
f  14//43 32//43 13//43
f  13//44 32//44 33//44
f  33//45 32//45 35//45
f  35//45 32//45 36//46
f  35//45 36//46 37//47
f  37//47 36//46 38//48
f  34//49 6//49 12//49
f  6//50 34//50 7//50
f  7//51 34//49 39//51
f  39//52 34//52 40//52
f  7//53 19//53 5//53
f  19//54 7//54 29//54
f  29//54 7//54 39//54
f  29//55 39//52 41//55
f  28//56 10//56 9//56
f  10//57 28//57 20//57
f  20//58 28//58 21//58
f  21//59 28//59 22//59
f  22//60 28//60 24//60
f  24//61 28//61 42//61
f  24//62 42//62 27//62
f  42//63 28//63 43//63
f  42//63 43//63 44//64
f  42//63 44//64 45//65
f  41//66 30//33 29//33
f  30//33 41//66 39//67
f  30//33 39//67 40//68
f  30//33 40//68 28//33
f  42//69 26//69 27//69
f  26//69 42//69 45//70
f  26//69 45//70 44//71
f  26//69 44//71 43//72
f  26//69 43//72 28//33
f  26//69 28//33 40//68
f  26//69 40//68 33//73
f  33//73 40//68 34//74
f  26//69 33//73 35//75
f  26//69 35//75 25//76
f  25//76 35//75 37//71
f  25//76 37//71 38//77
f  25//76 38//77 36//78
f  25//76 36//78 31//71
f  31//71 36//78 32//79
f  46//80 47//80 48//80
f  47//81 46//81 49//81
f  47//82 49//82 50//82
f  47//83 50//83 51//83
f  47//84 51//84 52//84
f  47//85 52//85 53//85
f  54//86 55//86 47//86
f  48//87 47//87 55//87
f  56//88 48//88 55//88
f  57//89 48//89 56//89
f  58//90 48//89 57//89
f  59//91 48//91 58//91
f  60//92 59//92 58//92
f  61//93 59//93 60//93
f  62//94 58//94 63//94
f  57//95 63//95 58//95
f  56//96 64//96 57//96
f  64//97 56//97 55//97
f  64//98 55//98 65//98
f  65//99 55//99 66//99
f  66//100 55//100 54//100
f  66//100 54//100 34//100
f  67//101 58//101 62//101
f  58//102 67//102 60//102
f  60//103 67//103 68//103
f  68//104 67//104 69//104
f  64//105 63//105 57//105
f  63//106 64//106 62//106
f  62//107 64//107 67//107
f  67//108 64//108 70//108
f  39//109 47//109 53//109
f  47//110 39//110 54//110
f  54//111 39//109 34//111
f  34//74 39//67 40//68
f  68//112 61//112 60//112
f  61//113 68//113 59//113
f  59//114 68//114 48//114
f  48//115 68//115 46//115
f  46//116 68//116 71//116
f  46//117 71//117 72//117
f  46//118 72//118 73//118
f  73//119 72//119 74//119
f  75//120 50//120 49//120
f  50//120 75//120 76//120
f  73//121 49//121 46//121
f  49//121 73//121 75//121
f  76//122 51//122 50//122
f  51//122 76//122 77//122
f  51//123 78//123 52//123
f  78//123 51//123 77//123
f  78//124 53//124 52//124
f  53//124 78//124 39//124
f  76//125 78//125 77//125
f  68//104 69//104 71//126
f  78//125 40//68 39//67
f  40//68 78//125 76//125
f  40//68 76//125 75//127
f  40//68 75//127 73//128
f  40//68 73//128 74//129
f  40//68 74//129 34//74
f  34//74 74//129 72//130
f  34//74 72//130 66//131
f  66//131 72//130 64//132
f  64//132 72//130 71//126
f  66//131 64//132 65//133
f  64//132 71//126 70//134
f  70//134 71//126 67//104
f  67//104 71//126 69//104

