# File produced by Open Asset Import Library (http://www.assimp.sf.net)
# (assimp v3.1.0)

mtllib ID_11307.obj.mtl

# 28 vertex positions
v  18.927 13.813 -11.693
v  0.048 17.231 -5.977
v  18.879 17.231 -5.717
v  2.441 13.813 -11.92
v  1.475 13.813 -11.934
v  0.096 13.813 -11.953
v  0.001 13.841 -0.051
v  0 13.812 8.45741e-16
v  1.396 13.812 0.02
v  2.441 13.812 0.034
v  8.231 13.812 0.113
v  11.335 13.813 0.155
v  18.83 13.813 0.258
v  18.831 13.851 0.191
v  18.83 -1.57979e-17 0.258
v  18.879 3.50065e-16 -5.717
v  18.927 7.1599e-16 -11.693
v  18.831 -1.16954e-17 0.191
v  2.441 7.2989e-16 -11.92
v  1.475 7.30747e-16 -11.934
v  0.096 7.3191e-16 -11.953
v  0 0 0
v  0.048 3.65986e-16 -5.977
v  0.001 3.12285e-18 -0.051
v  11.335 -9.49101e-18 0.155
v  2.441 -2.0819e-18 0.034
v  1.396 -1.22465e-18 0.02
v  8.231 -6.91925e-18 0.113

# 0 UV coordinates

# 46 vertex normals
vn 0.00685423 0.86805 -0.49643
vn 0.00683611 0.868024 -0.496475
vn 0.00719363 0.868084 -0.496365
vn 0.0068398 0.86805 -0.49643
vn -0.00685514 0.868012 0.496497
vn -0.00779411 0.869337 0.494159
vn -0.00710409 0.868372 0.495862
vn -0.00665662 0.867793 0.496881
vn -0.00677608 0.867938 0.496626
vn -0.00699529 0.868108 0.496325
vn -0.00682301 0.868014 0.496492
vn 0.999967 -8.08048e-05 0.00807814
vn 0.999895 -0.0119893 0.00811563
vn 0.999967 0 0.00811622
vn 0.999966 7.29464e-05 0.00820053
vn 0.999968 0 0.00803193
vn 0 1 6.12322e-17
vn 0.013768 0 -0.999905
vn 0.0144912 0 -0.999895
vn 0.0137768 -4.99669e-05 -0.999905
vn 0.0144912 7.13287e-05 -0.999895
vn 0.0137768 0 -0.999905
vn -0.999968 0 -0.00803187
vn -0.999968 -2.92219e-05 -0.00794762
vn -0.999853 0.00671331 -0.0157877
vn -0.999968 4.91769e-19 -0.0080312
vn 0 1 6.12276e-17
vn 0 -1 -6.12323e-17
vn -0.0143252 -6.12261e-17 0.999897
vn -0.0133959 -9.3939e-05 0.99991
vn -0.0136429 -5.0276e-05 0.999907
vn -0.0135297 -0.000117802 0.999908
vn -0.0137412 5.58223e-05 0.999906
vn -0.0136732 -3.6912e-05 0.999907
vn -0.0137412 0 0.999906
vn -1.46978e-23 1 6.12332e-17
vn 4.76574e-24 1 6.12322e-17
vn 0 1 6.12323e-17
vn -1.98587e-25 -1 -6.12323e-17
vn 0 -1 -6.12323e-17
vn -9.56009e-26 -1 -6.12323e-17
vn 0 -1 -6.12323e-17
vn 0 -1 -6.12324e-17
vn 8.91958e-26 -1 -6.12323e-17
vn -1.47739e-25 -1 -6.12323e-17
vn -7.03431e-20 -1 -6.12331e-17

# Mesh 'defaultobject' with 50 faces
g defaultobject
usemtl DefaultMaterial
f  1//1 2//1 3//1
f  2//2 1//2 4//2
f  2//3 4//3 5//3
f  2//4 5//4 6//4
f  7//5 3//5 2//5
f  3//6 7//6 8//6
f  3//7 8//7 9//7
f  3//8 9//8 10//8
f  3//9 10//9 11//9
f  3//10 11//10 12//10
f  3//11 12//11 13//11
f  14//12 1//12 3//12
f  1//13 14//13 13//13
f  1//14 13//14 15//14
f  1//15 15//15 16//15
f  1//16 16//16 17//16
f  16//17 15//17 18//17
f  17//18 4//18 1//18
f  4//18 17//18 19//18
f  4//19 19//19 5//19
f  5//20 19//20 6//20
f  6//21 19//21 20//21
f  6//22 20//22 21//22
f  21//23 2//23 6//23
f  2//24 21//24 7//24
f  7//25 21//25 8//25
f  8//26 21//23 22//26
f  22//27 21//27 23//27
f  22//28 23//28 24//28
f  22//29 9//29 8//29
f  9//30 22//30 10//30
f  10//31 22//31 11//31
f  11//32 22//32 12//32
f  12//33 22//33 13//33
f  13//34 22//34 25//34
f  13//35 25//35 15//35
f  25//36 22//27 26//36
f  26//36 22//27 27//37
f  25//36 26//36 28//38
f  24//28 27//28 22//28
f  27//28 24//28 23//28
f  27//28 23//28 26//39
f  26//39 23//28 21//40
f  26//39 21//40 28//41
f  28//41 21//40 20//42
f  28//41 20//42 19//43
f  28//41 19//43 17//28
f  28//41 17//28 25//44
f  25//44 17//28 15//45
f  15//45 17//28 16//46

