# File produced by Open Asset Import Library (http://www.assimp.sf.net)
# (assimp v3.1.0)

mtllib ID_24745.obj.mtl

# 16 vertex positions
v  5.114 2.505 -2.072
v  11.582 2.505 13.705
v  5.479 2.505 -2.241
v  0 2.505 1.53387e-16
v  3.497 2.505 8.764
v  5.321 2.505 13.333
v  5.95 2.505 15.811
v  4.969 2.505 13.518
v  4.969 -8.27739e-16 13.518
v  5.95 -9.68144e-16 15.811
v  11.582 -8.39189e-16 13.705
v  5.479 1.37222e-16 -2.241
v  5.114 1.26873e-16 -2.072
v  0 0 0
v  5.321 -8.16411e-16 13.333
v  3.497 -5.3664e-16 8.764

# 0 UV coordinates

# 16 vertex normals
vn -0 1 0
vn -0.919394 0 0.393339
vn 0.350248 -0 0.936657
vn 0.933935 0 -0.357444
vn -0.420161 0 -0.90745
vn -0.375512 0 -0.926818
vn -0.465227 0 -0.885192
vn -0.375512 5.67512e-17 -0.926818
vn -0.928791 -2.2693e-17 0.370605
vn -0.928791 0 0.370605
vn -0.928729 0 0.37076
vn -1.05424e-22 -1 -6.12323e-17
vn -1.65016e-23 -1 -6.12323e-17
vn 0 -1 -6.12323e-17
vn -1.43784e-23 -1 -6.12323e-17
vn 2.0336e-24 -1 -6.12323e-17

# Mesh 'defaultobject' with 28 faces
g defaultobject
usemtl DefaultMaterial
f  1//1 2//1 3//1
f  2//1 1//1 4//1
f  2//1 4//1 5//1
f  2//1 5//1 6//1
f  2//1 6//1 7//1
f  7//1 6//1 8//1
f  9//2 7//2 8//2
f  7//2 9//2 10//2
f  10//3 2//3 7//3
f  2//3 10//3 11//3
f  11//4 3//4 2//4
f  3//4 11//4 12//4
f  12//5 1//5 3//5
f  1//5 12//5 13//5
f  14//6 1//6 13//6
f  15//7 8//7 6//7
f  8//7 15//7 9//7
f  14//6 4//8 1//6
f  14//9 5//9 4//9
f  5//9 14//9 16//10
f  5//11 16//11 6//11
f  6//11 16//11 15//11
f  9//12 15//12 10//12
f  10//12 12//13 11//13
f  12//13 10//12 15//12
f  12//13 15//12 16//14
f  12//13 16//14 13//15
f  13//15 16//14 14//16

