# File produced by Open Asset Import Library (http://www.assimp.sf.net)
# (assimp v3.1.0)

mtllib ID_38491.obj.mtl

# 23 vertex positions
v  5.038 2.559 6.818
v  1.071 2.293 2.884
v  4.175 2.306 9.394
v  1.192 2.311 2.828
v  1.614 2.559 -0.621
v  0 2.325 1.42365e-16
v  7.622 2.293 7.743
v  4.219 2.293 9.486
v  2.944 2.548 2.077
v  1.804 2.531 -0.694
v  4.628 2.302 1.408
v  7.687 2.283 7.71
v  1.804 4.24952e-17 -0.694
v  0 0 0
v  1.614 3.80253e-17 -0.621
v  2.944 -1.2718e-16 2.077
v  4.628 -8.62151e-17 1.408
v  1.192 -1.73165e-16 2.828
v  1.071 -1.76594e-16 2.884
v  4.175 -5.75217e-16 9.394
v  4.219 -5.8085e-16 9.486
v  7.622 -4.74122e-16 7.743
v  7.687 -4.72101e-16 7.71

# 0 UV coordinates

# 37 vertex normals
vn -0.122316 0.990891 0.056342
vn -0.121657 0.99101 0.0556701
vn -0.122291 0.990897 0.0562876
vn -0.121995 0.990931 0.0563263
vn 0.0576677 0.991967 0.112589
vn 0.059996 0.991264 0.117456
vn 0.124045 0.990632 -0.05711
vn 0.123597 0.990701 -0.0568886
vn 0.122365 0.990885 -0.0563451
vn 0.122212 0.990904 -0.0563344
vn 0.12284 0.990715 -0.0582582
vn -0.358874 -0.00174842 -0.933384
vn -0.359048 0 -0.933319
vn -0.359048 5.71493e-17 -0.933319
vn 0 1 6.12673e-17
vn -0.369201 0 -0.92935
vn -0.921488 -2.3783e-17 0.388407
vn -0.921488 0 0.388407
vn -0.902645 0 0.430386
vn -0.902135 0 0.431453
vn -0.420009 0 -0.90752
vn -0.420009 -0 -0.90752
vn 0.455876 -0 0.890043
vn 0.452692 0 0.891667
vn 0.452692 0 0.891667
vn 0.899619 0 -0.436676
vn 0.924796 0 -0.380464
vn 0.924796 0 -0.380464
vn -2.05751e-22 -1 -6.12322e-17
vn 7.90835e-24 -1 -6.12323e-17
vn 0 -1 -6.12324e-17
vn -1.90859e-24 -1 -6.12323e-17
vn 1.87371e-22 -1 -6.12319e-17
vn 9.13899e-22 -1 -6.12303e-17
vn -9.26986e-24 -1 -6.12323e-17
vn 0 -1 -6.12323e-17
vn -1.23139e-21 -1 -6.12347e-17

# Mesh 'defaultobject' with 42 faces
g defaultobject
usemtl DefaultMaterial
f  1//1 2//1 3//1
f  2//2 1//2 4//2
f  4//3 1//3 5//3
f  4//4 5//4 6//4
f  7//5 3//5 8//5
f  3//6 7//6 1//6
f  5//7 9//7 10//7
f  9//8 5//8 1//8
f  9//9 1//9 11//9
f  11//10 1//10 12//10
f  12//11 1//11 7//11
f  10//12 6//12 5//12
f  6//13 10//13 13//13
f  6//13 13//13 14//14
f  14//15 13//15 15//15
f  11//16 16//16 9//16
f  16//16 11//16 17//16
f  14//17 4//17 6//17
f  4//17 14//17 18//18
f  19//19 3//19 2//19
f  3//19 19//19 20//19
f  3//20 20//20 8//20
f  8//20 20//20 21//20
f  18//21 2//21 4//21
f  2//21 18//21 19//22
f  21//23 7//23 8//23
f  7//23 21//23 22//23
f  7//24 22//24 12//24
f  12//24 22//24 23//25
f  12//26 17//26 11//26
f  17//26 12//26 23//26
f  16//27 10//27 9//27
f  10//27 16//27 13//28
f  22//29 17//29 23//29
f  17//29 22//29 21//30
f  17//29 21//30 20//31
f  17//29 20//31 19//32
f  17//29 19//32 16//33
f  16//33 19//32 18//34
f  18//34 13//35 16//33
f  13//35 18//34 14//36
f  13//35 14//36 15//37

