# File produced by Open Asset Import Library (http://www.assimp.sf.net)
# (assimp v3.1.0)

mtllib ID_5001.obj.mtl

# 36 vertex positions
v  4.563 17.319 3.024
v  24.804 13.545 -13.588
v  18.605 17.319 -17.751
v  25.177 13.318 -13.338
v  25.113 13.318 -13.241
v  25.02 13.317 -13.101
v  21.744 13.282 -8.132
v  10.951 13.446 7.257
v  11.162 13.318 7.397
v  5.972 13.247 -13.447
v  9.196 14.46 -13.932
v  8.84 14.249 -14.152
v  13.721 14.346 -21.03
v  4.495 14.448 -7.021
v  3.793 13.253 -10.202
v  4.315 14.338 -7.141
v  0.035 14.552 -0.055
v  0 14.552 8.91053e-16
v  0 0 0
v  0.035 3.36778e-18 -0.055
v  4.495 4.29912e-16 -7.021
v  9.196 8.53089e-16 -13.932
v  13.721 1.28772e-15 -21.03
v  3.793 6.24692e-16 -10.202
v  5.972 8.23391e-16 -13.447
v  11.162 -4.52936e-16 7.397
v  4.563 -1.85167e-16 3.024
v  10.951 -4.44363e-16 7.257
v  4.315 4.3726e-16 -7.141
v  21.744 4.97941e-16 -8.132
v  25.02 8.02205e-16 -13.101
v  25.177 8.16717e-16 -13.338
v  25.113 8.10777e-16 -13.241
v  24.804 8.32025e-16 -13.588
v  18.605 1.08694e-15 -17.751
v  8.84 8.6656e-16 -14.152

# 0 UV coordinates

# 59 vertex normals
vn 0.373717 0.892485 0.252598
vn 0.37377 0.892442 0.252674
vn 0.366185 0.898631 0.241603
vn 0.376172 0.890413 0.256242
vn 0.373788 0.892421 0.25272
vn 0.373723 0.892483 0.252597
vn 0.373772 0.892452 0.252632
vn -0.373737 0.892789 -0.251493
vn -0.373709 0.892495 -0.252575
vn -0.373715 0.892486 -0.252597
vn -0.37378 0.892456 -0.25261
vn -0.37319 0.8927 -0.25262
vn -0.3739 0.892374 -0.252722
vn -0.376949 0.891385 -0.251678
vn -0.373664 0.892517 -0.252564
vn -0.380641 0.892435 -0.242224
vn -0.843661 0 -0.536875
vn -0.842175 -1.23781e-05 -0.539205
vn -0.84366 0.0015819 -0.536875
vn -0.842175 0 -0.539205
vn -0.843226 0 -0.537559
vn -0.830196 0 -0.557472
vn -0.830196 0 -0.557472
vn -0.552422 -5.10411e-17 0.833565
vn -0.552385 -1.3854e-05 0.833589
vn -0.552718 0.000376538 0.833368
vn -0.552406 0 0.833575
vn 0 1 6.1387e-17
vn 1.37121e-19 -1 -6.14416e-17
vn -0.5547 0 0.83205
vn -0.5547 0 0.83205
vn 0.826375 -0 0.56312
vn 0.826375 0 0.56312
vn 0.834883 0 0.550428
vn 0.832958 0.00155793 0.553334
vn 0.834692 0.00011517 0.550717
vn 0.834883 -4.68955e-05 0.550428
vn 0.833671 0 0.552261
vn 9.46972e-20 1 6.12944e-17
vn 0.556755 0 -0.830677
vn 0.557522 3.06187e-05 -0.830162
vn 0.557416 -2.78158e-05 -0.830233
vn 0.55744 0 -0.830217
vn -4.14262e-20 -1 -6.11451e-17
vn 0 1 6.12681e-17
vn 0.525697 0 -0.850672
vn -0.23871 0 -0.971091
vn -0.23871 -0 -0.971091
vn -0.985769 0 0.168106
vn -0.985769 0 0.168106
vn -2.53184e-23 -1 -6.12323e-17
vn 1.01699e-22 -1 -6.12323e-17
vn -2.69373e-23 -1 -6.12323e-17
vn 2.36695e-22 -1 -6.12324e-17
vn 1.29776e-23 -1 -6.12323e-17
vn 0 -1 -6.12323e-17
vn 3.96742e-23 -1 -6.12323e-17
vn -9.47001e-20 -1 -6.12963e-17
vn 0 -1 -6.12323e-17

# Mesh 'defaultobject' with 68 faces
g defaultobject
usemtl DefaultMaterial
f  1//1 2//1 3//1
f  2//2 1//2 4//2
f  4//3 1//3 5//3
f  5//4 1//4 6//4
f  6//5 1//5 7//5
f  7//6 1//1 8//6
f  7//7 8//7 9//7
f  10//8 11//8 12//8
f  11//9 3//9 13//9
f  3//10 11//10 1//10
f  1//11 11//11 10//11
f  1//12 10//12 14//12
f  14//13 10//13 15//13
f  14//14 15//14 16//14
f  1//15 14//15 17//15
f  1//16 17//16 18//16
f  17//17 19//17 18//17
f  19//18 17//18 14//18
f  19//19 14//19 20//19
f  20//20 14//20 21//20
f  13//21 22//21 11//21
f  22//21 13//21 23//21
f  10//22 24//22 15//22
f  24//22 10//22 25//23
f  19//24 1//24 18//24
f  1//25 19//25 8//25
f  8//26 19//26 9//26
f  9//27 19//27 26//27
f  26//28 19//28 27//28
f  26//29 27//29 28//29
f  16//30 21//30 14//30
f  21//30 16//30 29//31
f  26//32 7//32 9//32
f  7//32 26//32 30//33
f  7//34 30//34 6//34
f  6//35 30//35 5//35
f  5//36 30//36 4//36
f  4//37 30//37 31//37
f  4//38 31//38 32//38
f  32//39 31//39 33//39
f  32//40 2//40 4//40
f  2//41 32//41 3//41
f  3//42 32//42 13//42
f  13//43 32//43 23//43
f  23//44 32//44 34//44
f  23//45 34//45 35//45
f  22//46 12//46 11//46
f  12//46 22//46 36//46
f  36//47 10//47 12//47
f  10//47 36//47 25//48
f  15//49 29//49 16//49
f  29//49 15//49 24//50
f  25//51 29//51 24//51
f  29//51 25//51 21//52
f  21//52 25//51 27//29
f  27//29 25//51 28//29
f  28//29 25//51 36//53
f  28//29 36//53 22//54
f  28//29 22//54 23//44
f  28//29 23//44 26//29
f  26//29 23//44 30//55
f  30//55 23//44 35//56
f  30//55 35//56 34//44
f  30//55 34//44 31//57
f  31//57 34//44 32//44
f  31//57 32//44 33//58
f  20//59 27//29 19//59
f  27//29 20//59 21//52

