# {"id":"ID_34493","idOriginal":"ID_34493","origin":[14.325771094857574,48.342184329608166],"elevation":337.652}
# Longitude: 14.325771094857574
# Latitude: 48.342184329608166
# Elevation: 337.652

# File produced by Open Asset Import Library (http://www.assimp.sf.net)
# (assimp v3.1.0)

mtllib ID_34493.obj.mtl

# 12 vertex positions
v  6.06 5.831 3.565
v  0.469 4.01 7.842
v  6.308 4.01 7.504
v  0.233 5.831 3.902
v  0 4.027 2.46583e-16
v  5.809 3.995 -0.407
v  0 0 0
v  5.809 2.49216e-17 -0.407
v  0.233 -2.38929e-16 3.902
v  0.469 -4.80184e-16 7.842
v  6.308 -4.59487e-16 7.504
v  6.06 -2.18293e-16 3.565

# 0 UV coordinates

# 18 vertex normals
vn 0.024211 0.90801 0.418249
vn 0.0241876 0.908022 0.418223
vn -0.0242979 0.908034 -0.41819
vn -0.0241941 0.907971 -0.418335
vn -0.0698924 0 -0.997555
vn -0.998222 -3.64986e-18 0.0596068
vn -0.998214 -9.46462e-05 0.0597477
vn -0.998222 0.000181952 0.0596068
vn -0.998211 0 0.0597913
vn 0.0577899 -0 0.998329
vn 0.998009 0 -0.0630665
vn 0.99802 -0.000120024 -0.062891
vn 0.998009 0.00022758 -0.0630665
vn 0.998024 0 -0.0628358
vn 0 -1 -6.12323e-17
vn 4.64067e-24 -1 -6.12323e-17
vn 2.87241e-24 -1 -6.12323e-17
vn 7.16681e-24 -1 -6.12323e-17

# Mesh 'defaultobject' with 20 faces
g defaultobject
usemtl DefaultMaterial
f  1//1 2//1 3//1
f  2//2 1//2 4//2
f  5//3 1//3 6//3
f  1//4 5//4 4//4
f  6//5 7//5 5//5
f  7//5 6//5 8//5
f  7//6 4//6 5//6
f  4//7 7//7 2//7
f  2//8 7//8 9//8
f  2//9 9//9 10//9
f  10//10 3//10 2//10
f  3//10 10//10 11//10
f  1//11 8//11 6//11
f  8//12 1//12 3//12
f  8//13 3//13 12//13
f  12//14 3//14 11//14
f  12//15 7//15 8//15
f  7//15 12//15 9//16
f  9//16 12//15 10//17
f  10//17 12//15 11//18

