# {"id":"ID_49312","idOriginal":"ID_49312","origin":[14.30722745204651,48.26083823804643],"elevation":261.884}
# Longitude: 14.30722745204651
# Latitude: 48.26083823804643
# Elevation: 261.884

# File produced by Open Asset Import Library (http://www.assimp.sf.net)
# (assimp v3.1.0)

mtllib ID_49312.obj.mtl

# 12 vertex positions
v  1.561 3.067 -0.856
v  5.087 1.616 1.872
v  3.122 1.616 -1.712
v  3.526 3.067 2.728
v  0 1.616 9.89515e-17
v  1.965 1.616 3.584
v  3.122 1.0483e-16 -1.712
v  1.561 5.24149e-17 -0.856
v  0 0 0
v  1.965 -2.19457e-16 3.584
v  3.526 -1.67042e-16 2.728
v  5.087 -1.14627e-16 1.872

# 0 UV coordinates

# 17 vertex normals
vn 0.553975 0.775152 -0.303728
vn -0.553975 0.775152 0.303728
vn -0.553975 0.775152 0.303728
vn -0.480819 0 -0.87682
vn -0.480819 0 -0.87682
vn -0.480819 5.36897e-17 -0.87682
vn -0.876856 -2.94377e-17 0.480754
vn -0.876856 0 0.480754
vn 0.480819 -0 0.87682
vn 0.480819 2.96416e-08 0.87682
vn 0.480819 -8.28717e-08 0.87682
vn 0.480819 0 0.87682
vn 0.876856 0 -0.480754
vn 3.63763e-24 -1 -6.12323e-17
vn 0 -1 -6.12323e-17
vn -2.18258e-23 -1 -6.12323e-17
vn 7.27525e-24 -1 -6.12323e-17

# Mesh 'defaultobject' with 20 faces
g defaultobject
usemtl DefaultMaterial
f  1//1 2//1 3//1
f  2//1 1//1 4//1
f  5//2 4//2 1//2
f  4//2 5//2 6//3
f  7//4 1//4 3//4
f  1//4 7//4 5//5
f  5//5 7//4 8//4
f  5//5 8//4 9//6
f  9//7 6//7 5//7
f  6//7 9//7 10//8
f  10//9 4//9 6//9
f  4//9 10//9 2//10
f  2//10 10//9 11//11
f  2//10 11//11 12//12
f  12//13 3//13 2//13
f  3//13 12//13 7//13
f  8//14 10//14 9//14
f  10//14 8//14 7//15
f  10//14 7//15 11//16
f  11//16 7//15 12//17

