# {"id":"ID_34196","idOriginal":"ID_34196","origin":[14.295102987586754,48.27016430863018],"elevation":279.305,"wof":[{"Id":102049853,"Name":"Linz","Placetype":"county","Offset":-1},{"Id":101748071,"Name":"Linz","Placetype":"locality","Offset":-1},{"Id":85632785,"Name":"Austria","Placetype":"country","Offset":-1},{"Id":85681677,"Name":"Oberösterreich","Placetype":"region","Offset":-1},{"Id":85898435,"Name":"Oed","Placetype":"neighbourhood","Offset":-1}]}

# Attribution: City of Linz <http://geo.data.linz.gv.at/katalog/geodata/3d_geo_daten_lod2/>
# Longitude: 14.295102987586754
# Latitude: 48.27016430863018
# Elevation: 279.305

# File produced by Open Asset Import Library (http://www.assimp.sf.net)
# (assimp v3.1.0)


# 8 vertex positions
v  0 3.48 2.13089e-16
v  6.807 3.48 15.387
v  2.757 3.48 -0.708
v  4.027 3.48 16.042
v  6.807 -9.42182e-16 15.387
v  2.757 4.33525e-17 -0.708
v  0 0 0
v  4.027 -9.82289e-16 16.042

# 0 UV coordinates

# 9 vertex normals
vn -0 1 0
vn 0.969769 0 -0.244024
vn -0.24873 0 -0.968573
vn -0.24873 5.9308e-17 -0.968573
vn -0.969907 -1.49085e-17 0.243474
vn -0.969907 0 0.243474
vn 0.229332 -0 0.973348
vn 1.8988e-23 -1 -6.12323e-17
vn 1.12449e-24 -1 -6.12323e-17

# Mesh 'defaultobject' with 12 faces
g defaultobject
usemtl DefaultMaterial
f  1//1 2//1 3//1
f  2//1 1//1 4//1
f  5//2 3//2 2//2
f  3//2 5//2 6//2
f  6//3 1//3 3//3
f  1//3 6//3 7//4
f  7//5 4//5 1//5
f  4//5 7//5 8//6
f  8//7 2//7 4//7
f  2//7 8//7 5//7
f  8//8 6//8 5//8
f  6//8 8//8 7//9

