# {"id":"ID_32113","idOriginal":"ID_32113","origin":[14.32099510017609,48.27825185590898],"elevation":256.341}
# Longitude: 14.32099510017609
# Latitude: 48.27825185590898
# Elevation: 256.341

# File produced by Open Asset Import Library (http://www.assimp.sf.net)
# (assimp v3.1.0)

mtllib ID_32113.obj.mtl

# 54 vertex positions
v  1.411 5.497 3.881
v  0.333 5.497 -0.114
v  0 5.497 3.36594e-16
v  1.903 5.497 -0.653
v  3.863 5.497 4.571
v  1.02 5.497 4.919
v  1.249 5.497 5.597
v  2.248 5.497 6.046
v  5.917 5.497 3.784
v  6.224 5.497 4.616
v  3.064 5.497 8.269
v  5.274 5.497 6.733
v  5.488 5.497 7.359
v  3.723 5.497 10.065
v  5.67 5.497 7.892
v  7.224 5.497 8.587
v  7.713 5.497 8.409
v  8.399 5.497 8.158
v  10.054 5.497 5.748
v  9.384 5.497 6.006
v  10.863 5.497 7.787
v  6.797 5.497 11.51
v  16.012 5.497 5.829
v  11.56 5.497 9.245
v  11.72 5.497 9.654
v  8.593 5.497 10.833
v  16.593 5.497 7.366
v  6.224 -2.82648e-16 4.616
v  5.917 -2.31703e-16 3.784
v  3.863 -2.79893e-16 4.571
v  1.903 3.99847e-17 -0.653
v  11.72 -5.91137e-16 9.654
v  11.56 -5.66093e-16 9.245
v  16.593 -4.51037e-16 7.366
v  16.012 -3.56923e-16 5.829
v  10.863 -4.76816e-16 7.787
v  10.054 -3.51963e-16 5.748
v  5.67 -4.83246e-16 7.892
v  5.274 -4.12277e-16 6.733
v  5.488 -4.50609e-16 7.359
v  0 0 0
v  0.333 6.98049e-18 -0.114
v  9.384 -3.67761e-16 6.006
v  8.399 -4.99533e-16 8.158
v  7.224 -5.25802e-16 8.587
v  7.713 -5.14903e-16 8.409
v  1.411 -2.37643e-16 3.881
v  1.02 -3.01202e-16 4.919
v  1.249 -3.42717e-16 5.597
v  2.248 -3.70211e-16 6.046
v  3.723 -6.16304e-16 10.065
v  3.064 -5.0633e-16 8.269
v  6.797 -7.04784e-16 11.51
v  8.593 -6.6333e-16 10.833

# 0 UV coordinates

# 51 vertex normals
vn 0 1 0
vn 0.93817 0 -0.346176
vn 0.93627 0 -0.351281
vn 0.931277 0 -0.364313
vn 0.9354 0 -0.353591
vn 0.929511 0 -0.368796
vn 0.94635 0 -0.323144
vn 0.946237 -3.56606e-05 -0.323473
vn 0.946289 0 -0.323322
vn -3.82704e-19 1 6.13601e-17
vn -0.357791 0 -0.933802
vn -0.324709 0 -0.945814
vn -0.323888 0.000262042 -0.946095
vn -0.324566 5.79174e-17 -0.945863
vn 8.15765e-22 -1 -6.12297e-17
vn -0.355437 0 -0.9347
vn -0.359352 0 -0.933202
vn -0.343611 0 -0.939112
vn -0.342051 0.00022074 -0.939681
vn -0.342962 -0 -0.939349
vn 7.20482e-21 -1 -6.12134e-17
vn -0.939815 -2.09222e-17 0.341685
vn -0.939815 0 0.341685
vn -0.935809 0 -0.352506
vn -0.947418 0 0.319998
vn -0.938753 0 0.34459
vn -0.938797 5.49897e-05 0.34447
vn -0.938773 0 0.344536
vn 2.74694e-19 -1 -6.13255e-17
vn -0.409947 0 0.912109
vn -0.425414 0 0.904999
vn 0.352722 -0 0.935728
vn 0.352795 -2.75014e-05 0.935701
vn 0.352768 0 0.935711
vn -1.04738e-19 1 6.09052e-17
vn 0.349756 -0 0.936841
vn -0.909278 0 -0.416189
vn 0.408263 0 -0.912864
vn 0.912348 -0 0.409415
vn -1.80363e-23 -1 -6.12324e-17
vn -9.74457e-24 -1 -6.12323e-17
vn -3.73195e-24 -1 -6.12323e-17
vn -6.5519e-24 -1 -6.12323e-17
vn 1.0726e-23 -1 -6.12323e-17
vn -1.39904e-24 -1 -6.12324e-17
vn -3.69371e-23 -1 -6.12324e-17
vn 1.06101e-22 -1 -6.12323e-17
vn 1.31612e-23 -1 -6.12323e-17
vn 9.18886e-23 -1 -6.12323e-17
vn -2.14573e-23 -1 -6.12323e-17
vn 5.99717e-24 -1 -6.12323e-17

# Mesh 'defaultobject' with 104 faces
g defaultobject
usemtl DefaultMaterial
f  1//1 2//1 3//1
f  2//1 1//1 4//1
f  4//1 1//1 5//1
f  5//1 1//1 6//1
f  5//1 6//1 7//1
f  5//1 7//1 8//1
f  5//1 8//1 9//1
f  9//1 8//1 10//1
f  10//1 8//1 11//1
f  10//1 11//1 12//1
f  12//1 11//1 13//1
f  13//1 11//1 14//1
f  13//1 14//1 15//1
f  15//1 14//1 16//1
f  16//1 14//1 17//1
f  17//1 14//1 18//1
f  18//1 19//1 20//1
f  19//1 18//1 21//1
f  21//1 18//1 14//1
f  21//1 14//1 22//1
f  21//1 22//1 23//1
f  23//1 22//1 24//1
f  24//1 22//1 25//1
f  25//1 22//1 26//1
f  27//1 23//1 24//1
f  28//2 9//2 10//2
f  9//2 28//2 29//2
f  30//3 4//3 5//3
f  4//3 30//3 31//3
f  32//4 24//4 25//4
f  24//4 32//4 33//4
f  34//5 23//5 27//5
f  23//5 34//5 35//5
f  36//6 19//6 21//6
f  19//6 36//6 37//6
f  38//7 13//7 15//7
f  13//8 38//8 12//8
f  12//9 38//9 39//9
f  39//10 38//10 40//10
f  29//11 5//11 9//11
f  5//11 29//11 30//11
f  31//12 2//12 4//12
f  2//13 31//13 3//13
f  3//14 31//14 41//14
f  41//15 31//15 42//15
f  35//16 21//16 23//16
f  21//16 35//16 36//16
f  37//17 20//17 19//17
f  20//17 37//17 43//17
f  44//18 17//18 18//18
f  17//19 44//19 16//19
f  16//20 44//20 45//20
f  45//21 44//21 46//21
f  41//22 1//22 3//22
f  1//22 41//22 47//23
f  47//24 6//24 1//24
f  6//24 47//24 48//24
f  48//25 7//25 6//25
f  7//25 48//25 49//25
f  50//26 11//26 8//26
f  11//27 50//27 14//27
f  14//28 50//28 51//28
f  51//29 50//29 52//29
f  49//30 8//30 7//30
f  8//30 49//30 50//30
f  51//31 22//31 14//31
f  22//31 51//31 53//31
f  53//32 26//32 22//32
f  26//33 53//33 25//33
f  25//34 53//34 32//34
f  32//35 53//35 54//35
f  33//36 27//36 24//36
f  27//36 33//36 34//36
f  43//37 18//37 20//37
f  18//37 43//37 44//37
f  45//38 15//38 16//38
f  15//38 45//38 38//38
f  39//39 10//39 12//39
f  10//39 39//39 28//39
f  54//40 33//40 32//40
f  33//40 54//40 36//41
f  36//41 54//40 37//42
f  37//42 54//40 43//43
f  43//43 54//40 44//21
f  44//21 54//40 53//44
f  44//21 53//44 46//21
f  46//21 53//44 45//21
f  45//21 53//44 51//29
f  45//21 51//29 38//45
f  38//45 51//29 40//46
f  40//46 51//29 39//47
f  48//48 47//48 49//48
f  39//47 29//49 28//49
f  29//49 39//47 30//50
f  30//50 39//47 51//29
f  30//50 51//29 52//29
f  30//50 52//29 31//15
f  31//15 52//29 50//29
f  31//15 50//29 49//48
f  31//15 49//48 47//48
f  31//15 47//48 42//15
f  42//15 47//48 41//15
f  33//40 35//51 34//51
f  35//51 33//40 36//41

