# {"id":"_5475","idOriginal":"_5475","origin":[14.295152185682788,48.29807861760439],"elevation":260.249,"wof":[{"Id":85681677,"Name":"Oberösterreich","Placetype":"region","Offset":-1},{"Id":85898449,"Name":"Steeg","Placetype":"neighbourhood","Offset":-1},{"Id":85898459,"Name":"Wegscheid","Placetype":"neighbourhood","Offset":-1},{"Id":102049853,"Name":"Linz","Placetype":"county","Offset":-1},{"Id":101748071,"Name":"Linz","Placetype":"locality","Offset":-1},{"Id":85632785,"Name":"Austria","Placetype":"country","Offset":-1}]}

# Attribution: City of Linz <http://geo.data.linz.gv.at/katalog/geodata/3d_geo_daten_lod2/>
# Longitude: 14.295152185682788
# Latitude: 48.29807861760439
# Elevation: 260.249

# File produced by Open Asset Import Library (http://www.assimp.sf.net)
# (assimp v3.1.0)


# 40 vertex positions
v  4.803 17.537 11.275
v  7.845 20.512 3.42
v  0 17.535 1.07371e-15
v  10.266 20.512 9.104
v  6.882 17.537 16.156
v  7.209 17.716 16.022
v  12.322 20.512 13.93
v  17.21 17.838 11.93
v  17.778 17.538 11.749
v  15.728 17.537 6.933
v  15.687 17.537 6.837
v  18.349 20.512 -0.755
v  16.604 18.012 5.429
v  25.072 18.008 2.073
v  13.4 20.512 1.212
v  15.78 17.538 6.798
v  16.934 17.55 6.313
v  25.701 17.676 1.824
v  25.962 17.535 1.703
v  21.747 17.535 -8.382
v  21.653 17.535 -8.607
v  11.019 17.535 -4.38
v  0 0 0
v  6.882 -9.8927e-16 16.156
v  4.803 -6.90395e-16 11.275
v  7.209 -9.81064e-16 16.022
v  17.21 -7.30502e-16 11.93
v  12.322 -8.52967e-16 13.93
v  17.778 -7.19419e-16 11.749
v  16.934 -3.8656e-16 6.313
v  15.687 -4.18646e-16 6.837
v  15.78 -4.16257e-16 6.798
v  16.604 -3.3243e-16 5.429
v  25.701 -1.11688e-16 1.824
v  25.072 -1.26935e-16 2.073
v  25.962 -1.04279e-16 1.703
v  15.728 -4.24524e-16 6.933
v  21.653 5.27027e-16 -8.607
v  21.747 5.1325e-16 -8.382
v  11.019 2.68198e-16 -4.38

# 0 UV coordinates

# 68 vertex normals
vn -0.415672 0.892143 0.176913
vn -0.415529 0.892194 0.176987
vn -0.415529 0.892194 0.176989
vn -0.415881 0.892074 0.17677
vn -0.415478 0.892215 0.177004
vn 0.415605 0.892145 -0.177058
vn 0.415305 0.892496 -0.17599
vn 0.415556 0.892165 -0.177072
vn 0.415581 0.892166 -0.177009
vn 0.415754 0.891976 -0.177558
vn 0.162471 0.898008 0.408883
vn 0.162515 0.897996 0.408891
vn 0.16263 0.898011 0.408812
vn 0.161914 0.898004 0.409113
vn 0.162517 0.898006 0.408869
vn 0.162439 0.898086 0.408723
vn 0.406195 0.89768 -0.170812
vn 0.406077 0.897827 -0.170316
vn 0.405939 0.898014 -0.169661
vn 0.406008 0.89799 -0.169621
vn -0.162525 0.898003 -0.408873
vn -0.162518 0.898005 -0.408871
vn -0.162524 0.898005 -0.408868
vn -0.162499 0.898017 -0.408851
vn -0.920004 -2.39975e-17 0.391909
vn -0.92002 2.92541e-05 0.391871
vn -0.920009 0 0.391898
vn -1.55712e-19 -1 -6.11946e-17
vn 0.378687 -1.03959e-05 0.925525
vn 0.378675 0.00108928 0.925529
vn 0.378703 0 0.925518
vn 0.379186 -0.000326778 0.92532
vn 0.378687 0 0.925525
vn 5.13992e-19 1 6.23644e-17
vn 0.30362 -0 0.952793
vn 0.387449 0 0.921891
vn 0.386729 -5.57356e-05 0.922193
vn 0.387396 0 0.921914
vn -2.01249e-19 1 6.07772e-17
vn 0.368436 -0 0.929653
vn 0.368147 0.000157259 0.929768
vn 0.368411 0 0.929663
vn 1.24527e-20 -1 -6.12006e-17
vn 0.420601 -0 0.907246
vn 0.420601 0 0.907246
vn 0.920111 0 -0.391658
vn 0.919642 -0.000356562 -0.392757
vn 0.920102 0 -0.39168
vn -1.01381e-19 1 6.12759e-17
vn 0.922657 0 -0.385622
vn 0.922713 9.07483e-05 -0.385488
vn 0.922658 0 -0.385619
vn -1.15968e-18 -1 -6.07638e-17
vn 0.936851 0 -0.349729
vn 0.936851 0 -0.349729
vn -0.369383 0 -0.929277
vn -0.369386 1.97713e-06 -0.929276
vn -0.369383 -1.90805e-06 -0.929277
vn -0.369386 0 -0.929276
vn 6.64118e-23 -1 -6.12322e-17
vn 0 -1 -6.12323e-17
vn 0 -1 -6.1231e-17
vn -9.01155e-21 -1 -6.12605e-17
vn 8.63041e-23 -1 -6.12322e-17
vn 1.07573e-24 -1 -6.12323e-17
vn -6.31986e-24 -1 -6.12321e-17
vn 3.92521e-24 -1 -6.12323e-17
vn -5.17185e-19 -1 -6.24069e-17

# Mesh 'defaultobject' with 76 faces
g defaultobject
usemtl DefaultMaterial
f  1//1 2//1 3//1
f  2//2 1//2 4//2
f  4//2 1//2 5//3
f  4//4 5//4 6//4
f  4//5 6//5 7//5
f  8//6 4//6 7//6
f  4//7 8//7 9//7
f  4//8 9//8 10//8
f  4//9 10//9 2//9
f  2//10 10//10 11//10
f  12//11 13//11 14//11
f  13//12 12//12 15//12
f  13//13 15//13 16//13
f  16//14 15//14 11//14
f  11//15 15//15 2//15
f  16//16 17//16 13//16
f  18//17 12//17 14//17
f  12//18 18//18 19//18
f  12//19 19//19 20//19
f  12//20 20//20 21//20
f  2//21 22//21 3//21
f  22//21 2//21 15//22
f  22//21 15//22 21//23
f  21//24 15//24 12//24
f  23//25 1//25 3//25
f  1//26 23//26 5//26
f  5//27 23//27 24//27
f  24//28 23//28 25//28
f  6//29 8//29 7//29
f  8//30 6//30 5//30
f  8//31 5//31 24//31
f  8//32 24//32 26//32
f  8//33 26//33 27//33
f  27//34 26//34 28//34
f  27//35 9//35 8//35
f  9//35 27//35 29//35
f  16//36 30//36 17//36
f  30//37 16//37 11//37
f  30//38 11//38 31//38
f  30//39 31//39 32//39
f  33//40 14//40 13//40
f  14//41 33//41 18//41
f  18//42 33//42 34//42
f  34//43 33//43 35//43
f  34//44 19//44 18//44
f  19//44 34//44 36//45
f  29//46 10//46 9//46
f  10//47 29//47 11//47
f  11//48 29//48 31//48
f  31//39 29//49 37//49
f  36//50 20//50 19//50
f  20//51 36//51 21//51
f  21//52 36//50 38//52
f  38//53 36//53 39//53
f  17//54 33//54 13//54
f  33//54 17//54 30//55
f  22//56 23//56 3//56
f  23//56 22//56 21//57
f  23//56 21//57 40//58
f  40//58 21//57 38//59
f  39//53 40//60 38//53
f  40//60 39//53 36//53
f  40//60 36//53 23//28
f  23//28 36//53 33//43
f  23//28 33//43 25//28
f  33//43 36//53 35//43
f  35//43 36//53 34//43
f  25//28 33//43 30//61
f  25//28 30//61 32//62
f  25//28 32//62 31//63
f  25//28 31//63 37//64
f  25//28 37//64 29//65
f  25//28 29//65 27//66
f  25//28 27//66 26//67
f  25//28 26//67 24//28
f  26//67 27//66 28//68

