# {"id":"ID_44306","idOriginal":"ID_44306","origin":[14.308974275506296,48.315263596662824],"elevation":254.056,"wof":[{"Id":85681677,"Name":"Oberösterreich","Placetype":"region","Offset":-1},{"Id":85898449,"Name":"Steeg","Placetype":"neighbourhood","Offset":-1},{"Id":102049853,"Name":"Linz","Placetype":"county","Offset":-1},{"Id":101748071,"Name":"Linz","Placetype":"locality","Offset":-1},{"Id":85632785,"Name":"Austria","Placetype":"country","Offset":-1}]}

# Attribution: City of Linz <http://geo.data.linz.gv.at/katalog/geodata/3d_geo_daten_lod2/>
# Longitude: 14.308974275506296
# Latitude: 48.315263596662824
# Elevation: 254.056

# File produced by Open Asset Import Library (http://www.assimp.sf.net)
# (assimp v3.1.0)


# 12 vertex positions
v  1.861 3.435 -2.034
v  5.916 2.659 5.576
v  7.646 3.435 3.761
v  0.716 2.592 0.675
v  0.02 2.592 -0.022
v  0 0 0
v  0 2.582 1.58102e-16
v  0.716 -4.13318e-17 0.675
v  5.916 -3.41432e-16 5.576
v  7.646 -2.30295e-16 3.761
v  1.861 1.24547e-16 -2.034
v  0.02 1.34711e-18 -0.022

# 0 UV coordinates

# 17 vertex normals
vn -0.209294 0.955271 0.208933
vn -0.209169 0.955312 0.20887
vn -0.20917 0.955312 0.20887
vn -0.685967 -4.45547e-17 0.727633
vn -0.685875 -4.78891e-05 0.727719
vn -0.685967 0.000337514 0.727633
vn -0.685875 0 0.727719
vn 0.723853 0 0.689954
vn 0.707717 0 -0.706496
vn -0.737763 0 -0.67506
vn -0.739369 -0.00251111 -0.673295
vn -0.737786 4.13339e-17 -0.675035
vn 0 1 6.12327e-17
vn 0 -1 -6.12323e-17
vn 0 -1 -6.12323e-17
vn -9.75838e-24 -1 -6.12323e-17
vn 0 -1 -6.12641e-17

# Mesh 'defaultobject' with 19 faces
g defaultobject
usemtl DefaultMaterial
f  1//1 2//1 3//1
f  2//2 1//2 4//2
f  4//2 1//2 5//3
f  6//4 4//4 7//4
f  4//5 6//5 2//5
f  2//6 6//6 8//6
f  2//7 8//7 9//7
f  2//8 10//8 3//8
f  10//8 2//8 9//8
f  10//9 1//9 3//9
f  1//9 10//9 11//9
f  11//10 5//10 1//10
f  5//11 11//11 7//11
f  7//12 11//12 6//12
f  6//13 11//13 12//13
f  8//14 10//14 9//14
f  10//14 8//14 11//15
f  11//15 8//14 6//16
f  11//15 6//16 12//17

