# File produced by Open Asset Import Library (http://www.assimp.sf.net)
# (assimp v3.1.0)

mtllib ID_53188.obj.mtl

# 8 vertex positions
v  1.616 9.076 -7.235
v  1.259 9.076 0.235
v  2.907 9.076 -7.001
v  0 9.076 5.55745e-16
v  1.259 -1.43896e-17 0.235
v  2.907 4.28688e-16 -7.001
v  1.616 4.43016e-16 -7.235
v  0 0 0

# 0 UV coordinates

# 9 vertex normals
vn 0 1 -0
vn 0.975032 -0 0.222064
vn 0.178349 0 -0.983967
vn -0.975952 0 -0.217987
vn -0.975952 1.33479e-17 -0.217987
vn -0.183487 -6.01927e-17 0.983022
vn -0.183487 0 0.983022
vn 2.17695e-23 -1 -6.12323e-17
vn 0 -1 -6.12323e-17

# Mesh 'defaultobject' with 12 faces
g defaultobject
usemtl DefaultMaterial
f  1//1 2//1 3//1
f  2//1 1//1 4//1
f  5//2 3//2 2//2
f  3//2 5//2 6//2
f  6//3 1//3 3//3
f  1//3 6//3 7//3
f  7//4 4//4 1//4
f  4//4 7//4 8//5
f  8//6 2//6 4//6
f  2//6 8//6 5//7
f  5//8 7//8 6//8
f  7//8 5//8 8//9

