# {"id":"_13754","idOriginal":"_13754","origin":[14.303199023454532,48.30795885461142],"elevation":257.749}
# Longitude: 14.303199023454532
# Latitude: 48.30795885461142
# Elevation: 257.749

# File produced by Open Asset Import Library (http://www.assimp.sf.net)
# (assimp v3.1.0)

mtllib _13754.obj.mtl

# 16 vertex positions
v  4.545 15.113 -2.858
v  18.856 10.958 10.324
v  9.094 10.958 -5.719
v  14.239 15.113 13.074
v  9.616 10.952 15.828
v  0.454 11.376 -0.285
v  0 10.962 6.71229e-16
v  10.1 11.387 15.54
v  9.094 3.50188e-16 -5.719
v  0.454 1.74512e-17 -0.285
v  0 0 0
v  4.545 1.75002e-16 -2.858
v  9.616 -9.69185e-16 15.828
v  10.1 -9.51551e-16 15.54
v  18.856 -6.32163e-16 10.324
v  14.239 -8.00552e-16 13.074

# 0 UV coordinates

# 24 vertex normals
vn 0.522574 0.791078 -0.317981
vn 0.522556 0.7911 -0.317955
vn -0.522209 0.791409 0.317758
vn -0.522613 0.791054 0.317978
vn -0.52259 0.791069 0.317976
vn 0.113876 0.456944 0.882176
vn -0.532389 0 -0.8465
vn -0.532395 -2.42716e-06 -0.846496
vn -0.531968 0.000449095 -0.846764
vn -0.532392 -4.14353e-05 -0.846498
vn -0.531675 5.18606e-17 -0.846949
vn -2.35217e-19 1 6.02155e-17
vn -0.85464 -3.17931e-17 0.51922
vn -0.85464 0 0.51922
vn 0.511783 8.17399e-05 0.859115
vn 0.511759 -0.000602181 0.859129
vn 0.511758 0 0.859129
vn 0.511359 0.000456161 0.859367
vn 0.51178 0 0.859116
vn -3.2368e-20 -1 -6.1305e-17
vn 0.854277 0 -0.519819
vn 2.66658e-24 -1 -6.12323e-17
vn 0 -1 -6.12323e-17
vn 1.70239e-23 -1 -6.12323e-17

# Mesh 'defaultobject' with 28 faces
g defaultobject
usemtl DefaultMaterial
f  1//1 2//1 3//1
f  2//2 1//2 4//2
f  5//3 6//3 7//3
f  6//4 5//4 1//4
f  1//5 5//5 4//5
f  4//6 5//6 8//6
f  9//7 1//7 3//7
f  1//7 9//7 6//8
f  6//9 9//9 7//9
f  7//10 9//10 10//10
f  7//11 10//11 11//11
f  10//12 9//12 12//12
f  11//13 5//13 7//13
f  5//13 11//13 13//14
f  8//15 2//15 4//15
f  2//16 8//16 5//16
f  2//17 5//17 13//17
f  2//18 13//18 14//18
f  2//19 14//19 15//19
f  15//20 14//20 16//20
f  15//21 3//21 2//21
f  3//21 15//21 9//21
f  10//22 13//22 11//22
f  13//22 10//22 12//23
f  13//22 12//23 9//24
f  13//22 9//24 16//20
f  16//20 9//24 15//20
f  13//22 16//20 14//20

