# {"id":"ID_59369","idOriginal":"ID_59369","origin":[14.303582632710736,48.33709454998681],"elevation":324.651}
# Longitude: 14.303582632710736
# Latitude: 48.33709454998681
# Elevation: 324.651

# File produced by Open Asset Import Library (http://www.assimp.sf.net)
# (assimp v3.1.0)

mtllib ID_59369.obj.mtl

# 12 vertex positions
v  0.057 1.067 -0.399
v  3.131 1.067 -0.418
v  0.21 1.067 -1.096
v  0 1.067 6.53349e-17
v  2.47 1.067 0.487
v  2.931 1.067 0.605
v  2.931 -3.70456e-17 0.605
v  3.131 2.55951e-17 -0.418
v  0.21 6.71106e-17 -1.096
v  0.057 2.44317e-17 -0.399
v  0 0 0
v  2.47 -2.98201e-17 0.487

# 0 UV coordinates

# 13 vertex normals
vn 0 1 0
vn 0.98142 -0 0.191871
vn 0.226101 0 -0.974104
vn -0.976744 0 -0.214407
vn -0.98995 0 -0.141421
vn -0.98995 8.65956e-18 -0.141421
vn -0.247971 0 0.968767
vn -0.193442 -6.00758e-17 0.981112
vn -0.193442 0 0.981112
vn -4.10754e-25 -1 -6.12323e-17
vn -3.79691e-25 -1 -6.12323e-17
vn -3.23464e-25 -1 -6.12323e-17
vn 3.34077e-24 -1 -6.12323e-17

# Mesh 'defaultobject' with 20 faces
g defaultobject
usemtl DefaultMaterial
f  1//1 2//1 3//1
f  2//1 1//1 4//1
f  2//1 4//1 5//1
f  2//1 5//1 6//1
f  7//2 2//2 6//2
f  2//2 7//2 8//2
f  8//3 3//3 2//3
f  3//3 8//3 9//3
f  9//4 1//4 3//4
f  1//4 9//4 10//4
f  10//5 4//5 1//5
f  4//5 10//5 11//6
f  12//7 6//7 5//7
f  6//7 12//7 7//7
f  11//8 5//8 4//8
f  5//8 11//8 12//9
f  8//10 10//10 9//10
f  10//10 8//10 11//11
f  11//11 8//10 12//12
f  12//12 8//10 7//13

