# {"id":"ID_13605","idOriginal":"ID_13605","origin":[14.295066634709034,48.34372194418275],"elevation":309.981}
# Longitude: 14.295066634709034
# Latitude: 48.34372194418275
# Elevation: 309.981

# File produced by Open Asset Import Library (http://www.assimp.sf.net)
# (assimp v3.1.0)

mtllib ID_13605.obj.mtl

# 60 vertex positions
v  2.274 2.273 4.778
v  7.512 2.273 -3.545
v  0 2.273 1.39181e-16
v  14.62 2.273 11.326
v  4.213 2.273 8.838
v  4.346 2.273 9.114
v  4.817 2.273 10.105
v  8.425 2.273 14.271
v  7.114 2.273 14.896
v  7.114 -9.12117e-16 14.896
v  4.817 -6.18753e-16 10.105
v  4.346 -5.58072e-16 9.114
v  4.213 -5.41171e-16 8.838
v  2.274 -2.92568e-16 4.778
v  0 0 0
v  8.425 -8.73847e-16 14.271
v  14.62 -6.93517e-16 11.326
v  7.512 2.17069e-16 -3.545
v  5.915 10.839 -7.815
v  9.387 11.819 -5.827
v  7.955 11.818 -8.814
v  5.727 10.748 -7.723
v  5.59 10.682 -7.653
v  7.02 10.689 -4.701
v  9.933 11.82 -4.687
v  11.369 11.821 -1.689
v  7.059 10.69 -4.621
v  7.509 10.685 -3.655
v  7.553 10.685 -3.564
v  7.512 10.666 -3.545
v  14.62 10.666 11.326
v  11.854 11.824 -0.688
v  11.935 11.824 -0.518
v  16.088 11.818 8.202
v  17.124 11.861 10.136
v  18.208 12.379 9.621
v  16.281 11.459 10.537
v  16.178 11.861 8.159
v  20.501 13.474 8.529
v  19.583 13.488 6.531
v  20.501 -5.22251e-16 8.529
v  17.124 -6.20651e-16 10.136
v  18.208 -5.89116e-16 9.621
v  16.281 -6.45205e-16 10.537
v  19.583 -3.99908e-16 6.531
v  16.088 -5.02228e-16 8.202
v  11.935 3.17184e-17 -0.518
v  11.854 4.21278e-17 -0.688
v  7.955 5.39702e-16 -8.814
v  9.933 2.86996e-16 -4.687
v  11.369 1.03421e-16 -1.689
v  9.387 3.56801e-16 -5.827
v  16.178 -4.99595e-16 8.159
v  5.727 4.72897e-16 -7.723
v  5.59 4.68611e-16 -7.653
v  5.915 4.78531e-16 -7.815
v  7.553 2.18232e-16 -3.564
v  7.509 2.23804e-16 -3.655
v  7.02 2.87853e-16 -4.701
v  7.059 2.82955e-16 -4.621

# 0 UV coordinates

# 91 vertex normals
vn 0 1 0
vn -0.90172 0 0.432321
vn -0.90318 0 0.429261
vn -0.900856 0.00259528 0.43411
vn -0.90318 -0.000724669 0.429261
vn -0.902371 -0.00047107 0.43096
vn -0.900838 0.00691773 0.434101
vn -0.902371 0 0.43096
vn -0.902951 0 0.429743
vn 0.430334 -0 0.90267
vn 0.429339 0.000704183 0.903143
vn 0.430332 -0.00332564 0.902665
vn 0.429339 0 0.903143
vn 0.902234 0 -0.431247
vn -0.426777 0 -0.904357
vn -0.426777 5.53759e-17 -0.904357
vn 3.74598e-24 -1 -6.12323e-17
vn 0 -1 -6.12323e-17
vn 3.82703e-23 -1 -6.12323e-17
vn 0 -1 -6.12323e-17
vn -3.312e-22 -1 -6.12324e-17
vn 0 -1 -6.12323e-17
vn -0.357038 0.918331 0.17086
vn -0.358627 0.917072 0.174256
vn -0.3564 0.91894 0.168903
vn -0.357132 0.9183 0.170824
vn -0.357358 0.918301 0.17035
vn -0.357329 0.918219 0.170849
vn -0.350599 0.922863 0.159386
vn -0.357423 0.918108 0.171253
vn -0.358218 0.917431 0.173205
vn -0.353041 0.921825 0.160003
vn -0.357139 0.91832 0.170704
vn -0.358663 0.917666 0.171027
vn -0.359129 0.917467 0.171115
vn -0.357219 0.918278 0.170761
vn -0.357061 0.918323 0.170852
vn -0.357461 0.918126 0.171071
vn -0.557064 0.638626 -0.530883
vn -0.357238 0.918306 0.170571
vn -0.357239 0.918287 0.170673
vn -0.357219 0.918301 0.17064
vn 0.429964 0 0.902846
vn 0.429193 -0.000175263 0.903213
vn 0.429575 -4.17086e-05 0.903031
vn 0.429158 -0.000230282 0.90323
vn 0.429498 0 0.903068
vn 2.4987e-20 1 6.12881e-17
vn -1.40085e-20 1 6.11986e-17
vn 3.54477e-21 1 6.12395e-17
vn 0.908677 0 -0.4175
vn 0.902836 0 -0.429986
vn 0.902762 -0.00014054 -0.430141
vn 0.902836 2.74011e-06 -0.429986
vn 0.899932 -0.000104058 -0.43603
vn 0.901879 0.000389627 -0.431988
vn 0.901893 0.000402124 -0.431959
vn 0.90173 0.000214218 -0.432299
vn 0.90276 0.00207751 -0.43014
vn 0.901587 0 -0.432598
vn 0 -1 -6.12333e-17
vn 3.19075e-21 -1 -6.12354e-17
vn 6.70222e-20 1 6.1208e-17
vn -0.431352 0 -0.902184
vn -0.431125 8.00792e-05 -0.902292
vn -0.431346 -0 -0.902187
vn 3.45505e-20 -1 -6.11621e-17
vn -0.439802 0 -0.898095
vn -0.439574 5.32154e-05 -0.898206
vn -0.453629 -0.00357308 -0.891184
vn -0.439781 0.000245032 -0.898105
vn -0.454997 -0 -0.890493
vn 2.04085e-19 -1 -6.08174e-17
vn -0.420463 0 -0.90731
vn -0.420463 -0 -0.90731
vn -0.899966 0 0.435959
vn -0.898873 -0.000767395 0.438208
vn -0.906451 0.00479045 0.422284
vn -0.900283 -0.00118879 0.435304
vn -0.901527 2.70955e-05 0.432724
vn -0.900284 0 0.435304
vn -5.06572e-22 -1 -6.12321e-17
vn 3.95336e-21 -1 -6.12336e-17
vn -0.902234 0 0.431247
vn -3.04858e-24 -1 -6.12323e-17
vn -7.15254e-23 -1 -6.12325e-17
vn 0 -1 -6.12325e-17
vn 1.10923e-23 -1 -6.12323e-17
vn -1.62354e-20 -1 -6.12631e-17
vn -7.5697e-20 -1 -6.13903e-17
vn 1.51759e-20 -1 -6.12009e-17

# Mesh 'defaultobject' with 116 faces
g defaultobject
usemtl DefaultMaterial
f  1//1 2//1 3//1
f  2//1 1//1 4//1
f  4//1 1//1 5//1
f  4//1 5//1 6//1
f  4//1 6//1 7//1
f  4//1 7//1 8//1
f  8//1 7//1 9//1
f  7//2 10//2 9//2
f  10//2 7//2 11//2
f  11//3 7//3 6//3
f  11//4 6//4 5//4
f  11//5 5//5 12//5
f  12//6 5//6 1//6
f  12//7 1//7 13//7
f  13//8 1//8 14//8
f  14//9 1//9 3//9
f  14//9 3//9 15//9
f  10//10 8//10 9//10
f  8//11 10//11 4//11
f  4//12 10//12 16//12
f  4//13 16//13 17//13
f  17//14 2//14 4//14
f  2//14 17//14 18//14
f  18//15 3//15 2//15
f  3//15 18//15 15//16
f  16//17 18//17 17//17
f  18//17 16//17 10//18
f  18//17 10//18 11//19
f  18//17 11//19 12//20
f  18//17 12//20 13//21
f  18//17 13//21 14//22
f  18//17 14//22 15//18
f  19//23 20//23 21//23
f  20//24 19//24 22//24
f  20//25 22//25 23//25
f  20//26 23//26 24//26
f  20//27 24//27 25//27
f  25//28 24//28 26//28
f  26//29 24//29 27//29
f  26//30 27//30 28//30
f  26//31 28//31 29//31
f  26//32 29//32 30//32
f  26//33 30//33 31//33
f  26//34 31//34 32//34
f  32//35 31//35 33//35
f  33//36 31//36 34//36
f  34//37 31//37 35//37
f  34//38 35//38 36//38
f  35//39 31//39 37//39
f  38//40 39//40 40//40
f  39//41 38//41 36//41
f  36//42 38//42 34//42
f  36//43 41//43 39//43
f  41//44 36//44 35//44
f  41//45 35//45 37//45
f  41//46 37//46 31//46
f  41//47 31//47 17//47
f  41//48 17//48 42//48
f  41//48 42//48 43//49
f  42//48 17//48 44//50
f  39//51 45//51 40//51
f  45//51 39//51 41//51
f  46//52 33//52 34//52
f  33//53 46//53 32//53
f  32//54 46//52 47//54
f  32//55 47//55 26//55
f  26//56 47//56 25//56
f  25//57 47//57 20//57
f  20//58 47//58 21//58
f  21//59 47//59 48//59
f  21//60 48//60 49//60
f  49//61 48//61 50//61
f  50//61 48//61 51//62
f  49//63 50//63 52//63
f  45//64 38//64 40//64
f  38//65 45//65 34//65
f  34//66 45//64 46//66
f  46//67 45//67 53//67
f  49//68 19//68 21//68
f  19//69 49//69 22//69
f  22//70 49//70 23//70
f  23//71 49//71 54//71
f  23//72 54//72 55//72
f  54//73 49//61 56//73
f  57//74 30//74 29//74
f  30//74 57//74 18//75
f  55//76 24//76 23//76
f  24//77 55//77 27//77
f  27//78 55//78 28//78
f  28//79 55//79 29//79
f  29//80 55//80 58//80
f  29//81 58//81 57//81
f  58//82 55//82 59//82
f  58//82 59//82 60//83
f  18//84 31//84 30//84
f  31//84 18//84 17//84
f  54//73 59//82 55//82
f  59//82 54//73 56//73
f  59//82 56//73 49//61
f  59//82 49//61 52//85
f  59//82 52//85 60//83
f  60//83 52//85 58//82
f  58//82 52//85 50//61
f  58//82 50//61 57//86
f  57//86 17//17 18//17
f  17//17 57//86 50//61
f  17//17 50//61 51//62
f  17//17 51//62 48//61
f  17//17 48//61 47//87
f  17//17 47//87 46//67
f  17//17 46//67 53//67
f  17//17 53//67 45//67
f  17//17 45//67 41//88
f  17//17 41//88 44//89
f  44//89 41//88 42//90
f  42//90 41//88 43//91

