# {"id":"ID_33099","idOriginal":"ID_33099","origin":[14.350199476089193,48.25362996592275],"elevation":252.366,"wof":[{"Id":85681677,"Name":"Oberösterreich","Placetype":"region","Offset":-1},{"Id":85898451,"Name":"Ufer","Placetype":"neighbourhood","Offset":-1},{"Id":102049853,"Name":"Linz","Placetype":"county","Offset":-1},{"Id":85632785,"Name":"Austria","Placetype":"country","Offset":-1},{"Id":101748071,"Name":"Linz","Placetype":"locality","Offset":-1}]}

# Attribution: City of Linz <http://geo.data.linz.gv.at/katalog/geodata/3d_geo_daten_lod2/>
# Longitude: 14.350199476089193
# Latitude: 48.25362996592275
# Elevation: 252.366

# File produced by Open Asset Import Library (http://www.assimp.sf.net)
# (assimp v3.1.0)


# 12 vertex positions
v  0 2.784 1.70471e-16
v  7.195 2.784 -8.282
v  2.604 2.784 -9.536
v  6.416 2.784 -3.211
v  5.186 2.784 1.291
v  5.704 2.784 1.42
v  5.704 -8.69499e-17 1.42
v  6.416 1.96617e-16 -3.211
v  7.195 5.07126e-16 -8.282
v  2.604 5.83912e-16 -9.536
v  0 0 0
v  5.186 -7.9051e-17 1.291

# 0 UV coordinates

# 14 vertex normals
vn 0 1 0
vn 0.988386 -0 0.151961
vn 0.988405 0 0.151838
vn 0.263491 0 -0.964662
vn -0.96468 0 -0.263426
vn -0.96468 1.61302e-17 -0.263426
vn -0.241654 0 0.970362
vn -0.241567 1.71742e-05 0.970384
vn -0.241654 -0.000171937 0.970362
vn -0.241567 0 0.970384
vn 1.7459e-23 -1 -6.12323e-17
vn 8.01788e-24 -1 -6.12323e-17
vn 0 -1 -6.12323e-17
vn -6.64214e-24 -1 -6.12323e-17

# Mesh 'defaultobject' with 20 faces
g defaultobject
usemtl DefaultMaterial
f  1//1 2//1 3//1
f  2//1 1//1 4//1
f  4//1 1//1 5//1
f  4//1 5//1 6//1
f  7//2 4//2 6//2
f  4//2 7//2 8//2
f  4//3 8//3 2//3
f  2//3 8//3 9//3
f  9//4 3//4 2//4
f  3//4 9//4 10//4
f  10//5 1//5 3//5
f  1//5 10//5 11//6
f  5//7 7//7 6//7
f  7//8 5//8 1//8
f  7//9 1//9 12//9
f  12//10 1//10 11//10
f  8//11 10//11 9//11
f  10//11 8//11 11//12
f  11//12 8//11 12//13
f  12//13 8//11 7//14

