# {"id":"ID_51091","idOriginal":"ID_51091","origin":[14.279756666646609,48.24772458220789],"elevation":266.804,"wof":[{"Id":85681677,"Name":"Oberösterreich","Placetype":"region","Offset":-1},{"Id":85898447,"Name":"Scharlinz","Placetype":"neighbourhood","Offset":-1},{"Id":102049853,"Name":"Linz","Placetype":"county","Offset":-1},{"Id":85632785,"Name":"Austria","Placetype":"country","Offset":-1},{"Id":101748071,"Name":"Linz","Placetype":"locality","Offset":-1}]}

# Attribution: City of Linz <http://geo.data.linz.gv.at/katalog/geodata/3d_geo_daten_lod2/>
# Longitude: 14.279756666646609
# Latitude: 48.24772458220789
# Elevation: 266.804

# File produced by Open Asset Import Library (http://www.assimp.sf.net)
# (assimp v3.1.0)


# 32 vertex positions
v  5.059 8.194 6.567
v  0 8.045 4.92614e-16
v  3.734 8.045 7.25
v  1.321 8.194 -0.681
v  0 0 0
v  3.734 -4.43934e-16 7.25
v  5.059 -4.02113e-16 6.567
v  1.321 4.16992e-17 -0.681
v  2.884 8.054 5.415
v  3.15 -3.23184e-16 5.278
v  3.15 8.084 5.278
v  2.884 -3.31573e-16 5.415
v  2.954 -3.39962e-16 5.552
v  2.954 8.054 5.552
v  3.221 -3.31573e-16 5.415
v  3.221 8.084 5.415
v  1.279 -1.00115e-16 1.635
v  1.013 8.054 1.772
v  1.279 8.084 1.635
v  1.013 -1.08504e-16 1.772
v  1.211 -9.1971e-17 1.502
v  1.211 8.084 1.502
v  0.944 8.054 1.639
v  0.944 -1.0036e-16 1.639
v  1.911 8.054 3.52
v  2.178 -2.07149e-16 3.383
v  2.178 8.084 3.383
v  1.911 -2.15538e-16 3.52
v  1.98 -2.23682e-16 3.653
v  1.98 8.054 3.653
v  2.246 -2.15293e-16 3.516
v  2.246 8.084 3.516

# 0 UV coordinates

# 29 vertex normals
vn -0.0884209 0.995042 0.0455398
vn -0.0886592 0.995012 0.0457241
vn -0.889017 -2.80367e-17 0.457874
vn -0.889017 0 0.457874
vn 0.458182 0 0.888859
vn 0.458182 0 0.888859
vn 0.888766 0 -0.458362
vn -0.458214 0 -0.888842
vn -0.458214 5.44259e-17 -0.888842
vn 0.457877 0 0.889016
vn 0.457877 0 0.889016
vn 0.890494 0 -0.454996
vn -0.45652 0 -0.889713
vn -0.45652 -0 -0.889713
vn -0.887853 0 0.460127
vn -0.457877 0 -0.889016
vn -0.457877 -0 -0.889016
vn -0.890374 0 0.455229
vn 0.45652 0 0.889713
vn 0.45652 0 0.889713
vn 0.887654 0 -0.460512
vn 0.45652 0 0.889713
vn 0.45652 0 0.889713
vn 0.887653 0 -0.460512
vn -0.457876 0 -0.889016
vn -0.457876 -0 -0.889016
vn -0.890374 0 0.455229
vn -1.74191e-23 -1 -6.12323e-17
vn -2.18396e-24 -1 -6.12323e-17

# Mesh 'defaultobject' with 36 faces
g defaultobject
usemtl DefaultMaterial
f  1//1 2//1 3//1
f  2//2 1//2 4//2
f  5//3 3//3 2//3
f  3//3 5//3 6//4
f  3//5 7//5 1//5
f  7//5 3//5 6//6
f  7//7 4//7 1//7
f  4//7 7//7 8//7
f  8//8 2//8 4//8
f  2//8 8//8 5//9
f  9//10 10//10 11//10
f  10//10 9//10 12//11
f  13//12 9//12 14//12
f  9//12 13//12 12//12
f  15//13 14//13 16//13
f  14//13 15//13 13//14
f  10//15 16//15 11//15
f  16//15 10//15 15//15
f  17//16 18//16 19//16
f  18//16 17//16 20//17
f  21//18 19//18 22//18
f  19//18 21//18 17//18
f  23//19 21//19 22//19
f  21//19 23//19 24//20
f  20//21 23//21 18//21
f  23//21 20//21 24//21
f  25//22 26//22 27//22
f  26//22 25//22 28//23
f  29//24 25//24 30//24
f  25//24 29//24 28//24
f  31//25 30//25 32//25
f  30//25 31//25 29//26
f  26//27 32//27 27//27
f  32//27 26//27 31//27
f  6//28 8//28 7//28
f  8//28 6//28 5//29

