# {"id":"ID_53383","idOriginal":"ID_53383","origin":[14.280580054520055,48.277393097678875],"elevation":270.478}
# Longitude: 14.280580054520055
# Latitude: 48.277393097678875
# Elevation: 270.478

# File produced by Open Asset Import Library (http://www.assimp.sf.net)
# (assimp v3.1.0)

mtllib ID_53383.obj.mtl

# 8 vertex positions
v  4.886 3.19 -2.088
v  0 3.19 1.95331e-16
v  1.234 3.19 1.372
v  3.614 3.19 -3.485
v  1.234 -8.40108e-17 1.372
v  4.886 1.27853e-16 -2.088
v  3.614 2.13395e-16 -3.485
v  0 0 0

# 0 UV coordinates

# 9 vertex normals
vn 0 1 0
vn 0.687767 -0 0.725932
vn 0.739413 0 -0.673252
vn -0.694143 0 -0.719837
vn -0.694143 4.40773e-17 -0.719837
vn -0.74351 -4.09476e-17 0.668725
vn -0.74351 0 0.668725
vn -1.42615e-24 -1 -6.12323e-17
vn -2.79168e-24 -1 -6.12323e-17

# Mesh 'defaultobject' with 12 faces
g defaultobject
usemtl DefaultMaterial
f  1//1 2//1 3//1
f  2//1 1//1 4//1
f  5//2 1//2 3//2
f  1//2 5//2 6//2
f  6//3 4//3 1//3
f  4//3 6//3 7//3
f  7//4 2//4 4//4
f  2//4 7//4 8//5
f  8//6 3//6 2//6
f  3//6 8//6 5//7
f  8//8 6//8 5//8
f  6//8 8//8 7//9

