# {"id":"ID_4054","idOriginal":"ID_4054","origin":[14.28706801106822,48.30396385236549],"elevation":262.792}
# Longitude: 14.28706801106822
# Latitude: 48.30396385236549
# Elevation: 262.792

# File produced by Open Asset Import Library (http://www.assimp.sf.net)
# (assimp v3.1.0)

mtllib ID_4054.obj.mtl

# 33 vertex positions
v  18.061 15.222 -7.529
v  21.895 16.357 -6.494
v  20.874 15.222 -8.701
v  21.633 16.31 -6.492
v  21.338 16.259 -6.489
v  25.337 20.207 1.005
v  0 15.222 9.32079e-16
v  25.154 20.207 1.081
v  0.355 15.466 0.419
v  7.239 20.207 8.549
v  28.489 17.095 6.912
v  18.964 15.175 15.336
v  30.036 15.661 9.594
v  14.529 14.981 17.636
v  14.282 15.175 17.288
v  12.43 16.633 14.678
v  25.788 19.762 1.85
v  21.895 3.97643e-16 -6.494
v  20.874 5.32783e-16 -8.701
v  28.489 -4.23238e-16 6.912
v  30.036 -5.87463e-16 9.594
v  25.337 -6.15385e-17 1.005
v  21.338 3.97337e-16 -6.489
v  25.788 -1.1328e-16 1.85
v  0 0 0
v  18.061 4.61018e-16 -7.529
v  7.239 -5.23475e-16 8.549
v  12.43 -8.98768e-16 14.678
v  0.355 -2.56564e-17 0.419
v  14.529 -1.07989e-15 17.636
v  14.282 -1.05858e-15 17.288
v  18.964 -9.39059e-16 15.336
v  21.633 3.9752e-16 -6.492

# 0 UV coordinates

# 57 vertex normals
vn -0.162761 0.906035 -0.390653
vn -0.166005 0.909122 -0.382019
vn -0.160316 0.904028 -0.396272
vn -0.162813 0.906103 -0.390473
vn -0.162784 0.906099 -0.390495
vn -0.162646 0.905631 -0.391637
vn -0.162872 0.906373 -0.389821
vn -0.162797 0.90608 -0.390533
vn 0.162777 0.906071 0.390563
vn 0.163073 0.905891 0.390857
vn 0.162367 0.906372 0.390034
vn 0.162825 0.906047 0.390599
vn 0.162788 0.906085 0.390525
vn 0.162771 0.906094 0.39051
vn 0.16272 0.906166 0.390365
vn 0 1 0
vn 0.907586 0 -0.419866
vn 0.907586 0 -0.419866
vn 0.866229 0 -0.499648
vn 0.866229 0 -0.499648
vn 0.882227 8.46288e-05 -0.470825
vn 0.88225 -5.00126e-05 -0.470781
vn 0.882249 0 -0.470783
vn 0.882254 9.25117e-06 -0.470774
vn 0.882245 0 -0.47079
vn 4.28492e-20 1 6.12101e-17
vn -0.384592 0 -0.923087
vn -0.384771 -3.88634e-05 -0.923012
vn -0.384747 5.65188e-17 -0.923022
vn 0 1 6.12234e-17
vn -0.762972 -3.95825e-17 0.646432
vn -0.763169 1.0817e-05 0.646199
vn -0.763098 -4.95839e-05 0.646283
vn -0.763156 5.38447e-05 0.646214
vn -0.763084 0 0.646299
vn -2.41353e-19 -1 -6.13036e-17
vn -0.815545 0 0.578693
vn -0.815477 -2.49446e-05 0.57879
vn -0.815537 0 0.578706
vn 1.38357e-18 1 6.02602e-17
vn 0.460375 -0 0.887724
vn 0.460378 -1.00043e-06 0.887723
vn 0.460377 0 0.887723
vn -4.44089e-18 1 5.10703e-17
vn 0.00763278 0 0.999971
vn 0.0101628 4.06448e-05 0.999948
vn 0.00763278 -4.60361e-05 0.999971
vn 0.0101698 0 0.999948
vn -1.64673e-23 -1 -6.12324e-17
vn 2.98382e-24 -1 -6.12323e-17
vn 3.84009e-23 -1 -6.12323e-17
vn 0 -1 -6.12325e-17
vn 1.44491e-23 -1 -6.12323e-17
vn 0 -1 -6.12323e-17
vn 8.39182e-24 -1 -6.12323e-17
vn -2.52133e-23 -1 -6.12323e-17
vn 3.29579e-23 -1 -6.12323e-17

# Mesh 'defaultobject' with 62 faces
g defaultobject
usemtl DefaultMaterial
f  1//1 2//1 3//1
f  2//2 1//2 4//2
f  4//3 1//3 5//3
f  5//4 1//4 6//4
f  6//5 1//5 7//5
f  6//6 7//6 8//6
f  8//7 7//7 9//7
f  8//8 9//8 10//8
f  11//9 12//9 13//9
f  12//10 11//10 14//10
f  14//11 11//11 15//11
f  15//12 11//12 16//12
f  16//13 11//13 17//13
f  16//14 17//14 10//14
f  10//15 17//15 6//15
f  10//16 6//16 8//16
f  18//17 3//17 2//17
f  3//17 18//17 19//18
f  13//19 20//19 11//19
f  20//19 13//19 21//20
f  17//21 5//21 6//21
f  5//22 17//22 11//22
f  5//23 11//23 20//23
f  5//24 20//24 22//24
f  5//23 22//25 23//25
f  22//26 20//26 24//26
f  19//27 1//27 3//27
f  1//28 19//28 7//28
f  7//29 19//29 25//29
f  25//30 19//30 26//30
f  25//31 9//31 7//31
f  9//32 25//32 10//32
f  10//33 25//33 16//33
f  16//34 25//34 27//34
f  16//35 27//35 28//35
f  27//36 25//36 29//36
f  28//37 15//37 16//37
f  15//38 28//38 14//38
f  14//39 28//39 30//39
f  30//40 28//40 31//40
f  30//41 12//41 14//41
f  12//41 30//41 13//42
f  13//42 30//41 21//43
f  21//44 30//40 32//44
f  4//45 18//45 2//45
f  18//46 4//46 5//46
f  18//47 5//47 33//47
f  33//48 5//48 23//48
f  32//49 20//49 21//49
f  20//49 32//49 24//50
f  24//50 32//49 30//51
f  24//50 30//51 31//52
f  24//50 31//52 28//53
f  24//50 28//53 22//54
f  22//54 28//53 23//55
f  23//55 28//53 27//36
f  33//56 19//56 18//56
f  19//56 33//56 23//55
f  19//56 23//55 27//36
f  19//56 27//36 29//36
f  19//56 29//36 26//57
f  26//57 29//36 25//36

