# {"id":"ID_54299","idOriginal":"ID_54299","origin":[14.283362895637405,48.330592774727556],"elevation":270.783}
# Longitude: 14.283362895637405
# Latitude: 48.330592774727556
# Elevation: 270.783

# File produced by Open Asset Import Library (http://www.assimp.sf.net)
# (assimp v3.1.0)

mtllib ID_54299.obj.mtl

# 8 vertex positions
v  2.991 0.65 1.47
v  0.944 0.65 -2.169
v  0 0.65 3.9801e-17
v  4.109 0.65 -0.769
v  0.944 1.32813e-16 -2.169
v  0 0 0
v  2.991 -9.00115e-17 1.47
v  4.109 4.70877e-17 -0.769

# 0 UV coordinates

# 9 vertex normals
vn 0 1 0
vn -0.916922 0 -0.399066
vn -0.916922 2.44358e-17 -0.399066
vn -0.441082 -5.4954e-17 0.897467
vn -0.441082 0 0.897467
vn 0.894667 -0 0.446734
vn 0.404529 0 -0.914525
vn 0 -1 -6.12323e-17
vn 7.93429e-25 -1 -6.12323e-17

# Mesh 'defaultobject' with 12 faces
g defaultobject
usemtl DefaultMaterial
f  1//1 2//1 3//1
f  2//1 1//1 4//1
f  5//2 3//2 2//2
f  3//2 5//2 6//3
f  6//4 1//4 3//4
f  1//4 6//4 7//5
f  7//6 4//6 1//6
f  4//6 7//6 8//6
f  8//7 2//7 4//7
f  2//7 8//7 5//7
f  8//8 6//8 5//8
f  6//8 8//8 7//9

