# {"id":"ID_14878","idOriginal":"ID_14878","origin":[14.28179769963385,48.28227713033952],"elevation":270.25,"wof":[{"Id":102049853,"Name":"Linz","Placetype":"county","Offset":-1},{"Id":85681677,"Name":"Oberösterreich","Placetype":"region","Offset":-1},{"Id":85898459,"Name":"Wegscheid","Placetype":"neighbourhood","Offset":-1},{"Id":101748071,"Name":"Linz","Placetype":"locality","Offset":-1},{"Id":85632785,"Name":"Austria","Placetype":"country","Offset":-1}]}

# Attribution: City of Linz <http://geo.data.linz.gv.at/katalog/geodata/3d_geo_daten_lod2/>
# Longitude: 14.28179769963385
# Latitude: 48.28227713033952
# Elevation: 270.25

# File produced by Open Asset Import Library (http://www.assimp.sf.net)
# (assimp v3.1.0)


# 21 vertex positions
v  9.767 20.655 6.751
v  8.306 23.556 -1.096
v  9.424 20.655 7.199
v  19.127 20.65 -5.474
v  14.421 23.556 -9.094
v  9.4 20.652 7.23
v  8.545 20.652 -11.177
v  9.718 20.652 -12.711
v  5.693 20.652 -7.447
v  3.983 20.652 -5.21
v  0 20.652 1.26457e-15
v  9.718 7.78324e-16 -12.711
v  0 0 0
v  8.545 6.84394e-16 -11.177
v  3.983 3.1902e-16 -5.21
v  5.693 4.55997e-16 -7.447
v  9.4 -4.4271e-16 7.23
v  19.127 3.35186e-16 -5.474
v  9.767 -4.1338e-16 6.751
v  9.424 -4.40812e-16 7.199
v  14.421 5.56847e-16 -9.094

# 0 UV coordinates

# 36 vertex normals
vn 0.348903 0.898281 0.267129
vn 0.349243 0.898179 0.267028
vn 0.349239 0.898184 0.267017
vn 0.256728 0.922562 0.288045
vn -0.349228 0.89818 -0.267043
vn -0.349239 0.898184 -0.267017
vn -0.349221 0.898191 -0.267018
vn -0.349274 0.898178 -0.266991
vn -0.34926 0.898179 -0.267006
vn -0.26804 0.89817 0.348489
vn -0.794373 0 -0.607431
vn -0.794394 -3.31924e-06 -0.607403
vn -0.794469 -4.27553e-05 -0.607305
vn -0.79444 -2.11666e-05 -0.607343
vn -0.794423 3.71903e-17 -0.607364
vn 0 1 6.14061e-17
vn -2.89875e-19 1 6.10188e-17
vn -6.51157e-20 1 6.11762e-17
vn -0.60967 -4.85361e-17 0.792655
vn -0.60967 0 0.792655
vn 0.79205 -0.070132 0.606414
vn 0.793793 0 0.608189
vn 0.793998 -9.87641e-06 0.60792
vn 0.79399 0 0.60793
vn -2.70127e-19 1 6.13189e-17
vn 1.45954e-19 1 6.13424e-17
vn 0.609674 -9.41419e-05 -0.792652
vn 0.609674 0 -0.792652
vn 0.609638 2.64968e-05 -0.79268
vn 0.609711 0 -0.792624
vn 0 -1 -6.12323e-17
vn -5.44538e-24 -1 -6.12323e-17
vn 1.68279e-24 -1 -6.12323e-17
vn 2.84949e-24 -1 -6.12323e-17
vn -9.23804e-24 -1 -6.12323e-17
vn 9.78457e-20 -1 -6.13167e-17

# Mesh 'defaultobject' with 37 faces
g defaultobject
usemtl DefaultMaterial
f  1//1 2//1 3//1
f  2//2 1//2 4//2
f  2//3 4//3 5//3
f  2//4 6//4 3//4
f  7//5 5//5 8//5
f  5//6 7//6 2//6
f  2//7 7//7 9//7
f  2//8 9//8 10//8
f  2//9 10//9 11//9
f  2//10 11//10 6//10
f  12//11 7//11 8//11
f  7//12 12//12 9//12
f  9//13 12//13 10//13
f  10//14 12//14 11//14
f  11//15 12//15 13//15
f  13//16 12//16 14//16
f  13//16 14//16 15//17
f  15//17 14//16 16//18
f  13//19 6//19 11//19
f  6//19 13//19 17//20
f  6//21 1//21 3//21
f  1//22 6//22 17//22
f  1//23 17//23 4//23
f  4//24 17//24 18//24
f  18//25 17//25 19//25
f  19//25 17//25 20//26
f  4//27 8//27 5//27
f  8//28 4//28 12//28
f  12//29 4//29 21//29
f  21//30 4//30 18//30
f  13//31 19//31 17//31
f  19//31 13//31 15//32
f  19//31 15//32 18//31
f  18//31 15//32 16//33
f  18//31 16//33 14//34
f  18//31 14//34 12//35
f  18//31 12//35 21//36

