# {"id":"ID_29049","idOriginal":"ID_29049","origin":[14.281509919055125,48.304213507838995],"elevation":280.747,"wof":[{"Id":85681677,"Name":"Oberösterreich","Placetype":"region","Offset":-1},{"Id":85898453,"Name":"Urfahr","Placetype":"neighbourhood","Offset":-1},{"Id":102049853,"Name":"Linz","Placetype":"county","Offset":-1},{"Id":101748071,"Name":"Linz","Placetype":"locality","Offset":-1},{"Id":85632785,"Name":"Austria","Placetype":"country","Offset":-1}]}

# Attribution: City of Linz <http://geo.data.linz.gv.at/katalog/geodata/3d_geo_daten_lod2/>
# Longitude: 14.281509919055125
# Latitude: 48.304213507838995
# Elevation: 280.747

# File produced by Open Asset Import Library (http://www.assimp.sf.net)
# (assimp v3.1.0)


# 22 vertex positions
v  3.065 6.64 5.995
v  0.618 9.044 3.23
v  1.235 6.64 6.442
v  11.436 9.041 0.584
v  5.383 6.64 5.429
v  12.11 6.64 3.786
v  0 6.628 4.05848e-16
v  11.003 7.042 -2.108
v  10.918 6.65 -2.635
v  0.026 6.73 0.137
v  1.235 -3.94459e-16 6.442
v  0.59 8.935 3.084
v  0.618 -1.9778e-16 3.23
v  0 0 0
v  0.59 -1.88841e-16 3.084
v  0.026 -8.38883e-18 0.137
v  3.065 -3.67088e-16 5.995
v  5.383 -3.3243e-16 5.429
v  12.11 -2.31826e-16 3.786
v  11.436 -3.57597e-17 0.584
v  10.918 1.61347e-16 -2.635
v  11.003 1.29078e-16 -2.108

# 0 UV coordinates

# 38 vertex normals
vn 0.140643 0.805411 0.575788
vn 0.141001 0.805512 0.57556
vn 0.140364 0.80613 0.574849
vn 0.140411 0.806094 0.574889
vn -0.140681 0.805121 -0.576185
vn -0.140583 0.80557 -0.575581
vn -0.140572 0.805534 -0.575634
vn -0.905076 0.404962 -0.129779
vn -0.982046 0 0.188643
vn -0.98209 -8.57806e-05 0.18841
vn -0.982147 -0.000200985 0.188115
vn -0.982046 0.000312429 0.188643
vn -0.982389 -0.000544528 0.186844
vn -0.982184 0 0.187922
vn 3.90086e-19 1 6.11557e-17
vn 8.19504e-20 1 6.12272e-17
vn 0.237286 -0 0.97144
vn 0.237207 2.31064e-05 0.971459
vn 0.237265 -1.54935e-05 0.971445
vn 0.237286 -5.16924e-05 0.97144
vn 0.237207 6.26605e-05 0.971459
vn 0.237265 0 0.971445
vn 0.978556 0 -0.20598
vn 0.978556 0 -0.20598
vn 0.98731 0 -0.158806
vn 0.987256 -0.00013035 -0.159138
vn 0.987299 0 -0.158876
vn 7.36048e-20 1 6.12181e-17
vn -0.234609 0 -0.97209
vn -0.234609 5.95233e-17 -0.97209
vn 0 -1 -6.12323e-17
vn -2.87831e-24 -1 -6.12323e-17
vn -2.93914e-23 -1 -6.12324e-17
vn 1.44136e-24 -1 -6.12323e-17
vn 0 -1 -6.12323e-17
vn 1.34121e-20 -1 -6.12365e-17
vn -2.49769e-19 -1 -6.11934e-17
vn 0 -1 -6.1233e-17

# Mesh 'defaultobject' with 39 faces
g defaultobject
usemtl DefaultMaterial
f  1//1 2//1 3//1
f  2//2 1//2 4//2
f  4//3 1//3 5//3
f  4//4 5//4 6//4
f  7//5 8//5 9//5
f  8//6 7//6 4//6
f  4//7 7//7 2//7
f  2//8 7//8 10//8
f  2//9 11//9 3//9
f  11//10 2//10 12//10
f  11//11 12//11 10//11
f  11//12 10//12 13//12
f  13//13 10//13 7//13
f  13//14 7//14 14//14
f  13//15 14//15 15//15
f  15//15 14//15 16//16
f  11//17 1//17 3//17
f  1//18 11//18 5//18
f  5//19 11//19 6//19
f  6//20 11//20 17//20
f  6//21 17//21 18//21
f  6//22 18//22 19//22
f  6//23 20//23 4//23
f  20//23 6//23 19//24
f  20//25 8//25 4//25
f  8//26 20//26 9//26
f  9//27 20//27 21//27
f  21//28 20//28 22//28
f  21//29 7//29 9//29
f  7//29 21//29 14//30
f  18//31 20//31 19//31
f  20//31 18//31 22//32
f  22//32 18//31 21//33
f  21//33 18//31 14//34
f  14//34 18//31 17//35
f  14//34 17//35 11//31
f  14//34 11//31 13//36
f  14//34 13//36 15//37
f  14//34 15//37 16//38

