# {"id":"_6119","idOriginal":"_6119","origin":[14.310170069147649,48.306014679128545],"elevation":257.949,"wof":[{"Id":102049853,"Name":"Linz","Placetype":"county","Offset":-1},{"Id":101748071,"Name":"Linz","Placetype":"locality","Offset":-1},{"Id":85681677,"Name":"Oberösterreich","Placetype":"region","Offset":-1},{"Id":85898449,"Name":"Steeg","Placetype":"neighbourhood","Offset":-1},{"Id":85632785,"Name":"Austria","Placetype":"country","Offset":-1}]}

# Attribution: City of Linz <http://geo.data.linz.gv.at/katalog/geodata/3d_geo_daten_lod2/>
# Longitude: 14.310170069147649
# Latitude: 48.306014679128545
# Elevation: 257.949

# File produced by Open Asset Import Library (http://www.assimp.sf.net)
# (assimp v3.1.0)


# 18 vertex positions
v  6.548 4.708 8.228
v  11.381 4.708 -9.109
v  0 4.708 2.88282e-16
v  18.157 4.708 -1.008
v  11.598 4.708 -9.282
v  15.411 4.708 -12.335
v  23.167 4.708 -18.543
v  21.783 4.708 -3.893
v  29.749 4.708 -10.23
v  23.167 1.13543e-15 -18.543
v  15.411 7.55301e-16 -12.335
v  11.598 5.68359e-16 -9.282
v  11.381 5.57765e-16 -9.109
v  0 0 0
v  6.548 -5.0382e-16 8.228
v  18.157 6.17222e-17 -1.008
v  21.783 2.38377e-16 -3.893
v  29.749 6.26407e-16 -10.23

# 0 UV coordinates

# 19 vertex normals
vn 0 1 0
vn -0.624891 0 -0.780712
vn -0.62502 -0 -0.780609
vn -0.623374 -0 -0.781923
vn -0.624871 -0.000112882 -0.780728
vn -0.623364 0.00592674 -0.781909
vn -0.624871 4.78058e-17 -0.780728
vn -0.782462 -3.81293e-17 0.622698
vn -0.782462 0 0.622698
vn 0.622588 -0 0.78255
vn 0.622614 0 0.782529
vn 0.622548 0 0.782582
vn 0.784006 0 -0.620754
vn 0 -1 -6.12323e-17
vn 1.44537e-22 -1 -6.12324e-17
vn -8.65658e-24 -1 -6.12323e-17
vn 0 -1 -6.12324e-17
vn 0 -1 -6.12323e-17
vn 3.01545e-24 -1 -6.12323e-17

# Mesh 'defaultobject' with 32 faces
g defaultobject
usemtl DefaultMaterial
f  1//1 2//1 3//1
f  2//1 1//1 4//1
f  2//1 4//1 5//1
f  5//1 4//1 6//1
f  6//1 4//1 7//1
f  7//1 4//1 8//1
f  7//1 8//1 9//1
f  10//2 6//2 7//2
f  6//2 10//2 11//2
f  6//3 11//3 5//3
f  5//3 11//3 12//3
f  5//4 12//4 2//4
f  2//5 12//5 3//5
f  3//6 12//6 13//6
f  3//7 13//7 14//7
f  14//8 1//8 3//8
f  1//8 14//8 15//9
f  15//10 4//10 1//10
f  4//10 15//10 16//10
f  4//11 16//11 8//11
f  8//11 16//11 17//11
f  8//12 17//12 9//12
f  9//12 17//12 18//12
f  18//13 7//13 9//13
f  7//13 18//13 10//13
f  14//14 16//14 15//14
f  16//14 14//14 13//14
f  16//14 13//14 12//15
f  16//14 12//15 17//16
f  17//16 12//15 11//17
f  17//16 11//17 18//18
f  18//18 11//17 10//19

