# {"id":"ID_49510","idOriginal":"ID_49510","origin":[14.277906913773068,48.31793024724984],"elevation":282.951,"wof":[{"Id":102049853,"Name":"Linz","Placetype":"county","Offset":-1},{"Id":101748071,"Name":"Linz","Placetype":"locality","Offset":-1},{"Id":85681677,"Name":"Oberösterreich","Placetype":"region","Offset":-1},{"Id":85898453,"Name":"Urfahr","Placetype":"neighbourhood","Offset":-1},{"Id":85632785,"Name":"Austria","Placetype":"country","Offset":-1}]}

# Attribution: City of Linz <http://geo.data.linz.gv.at/katalog/geodata/3d_geo_daten_lod2/>
# Longitude: 14.277906913773068
# Latitude: 48.31793024724984
# Elevation: 282.951

# File produced by Open Asset Import Library (http://www.assimp.sf.net)
# (assimp v3.1.0)


# 14 vertex positions
v  0.659 2.489 1.459
v  3.212 1.737 -1.812
v  0 2.454 1.50264e-16
v  5.118 1.737 1.386
v  1.056 2.51 2.34
v  1.514 2.489 2.894
v  1.778 2.477 3.214
v  1.056 -1.43284e-16 2.34
v  1.778 -1.96801e-16 3.214
v  1.514 -1.77206e-16 2.894
v  0.659 -8.9338e-17 1.459
v  0 0 0
v  5.118 -8.4868e-17 1.386
v  3.212 1.10953e-16 -1.812

# 0 UV coordinates

# 20 vertex normals
vn 0.164038 0.98161 -0.0976404
vn 0.163948 0.981618 -0.0977125
vn 0.163962 0.981658 -0.0972843
vn 0.163746 0.981607 -0.0981623
vn 0.163709 0.981604 -0.0982493
vn -0.770724 0 0.637169
vn -0.771368 0.000291862 0.63639
vn -0.770962 0 0.636881
vn -1.08883e-20 -1 -6.12248e-17
vn -0.911708 0 0.410838
vn -0.911351 0.000337424 0.41163
vn -0.911708 -0.000571805 0.410838
vn -0.911348 0 0.411637
vn 0.480103 -0 0.877212
vn 0.859006 0 -0.511965
vn -0.491342 0 -0.870967
vn -0.491342 0 -0.870967
vn -3.73722e-24 -1 -6.12323e-17
vn 0 -1 -6.12323e-17
vn -4.50135e-24 -1 -6.12323e-17

# Mesh 'defaultobject' with 24 faces
g defaultobject
usemtl DefaultMaterial
f  1//1 2//1 3//1
f  2//2 1//2 4//2
f  4//3 1//3 5//3
f  4//4 5//4 6//4
f  4//5 6//5 7//5
f  8//6 6//6 5//6
f  6//7 8//7 7//7
f  7//8 8//8 9//8
f  9//9 8//9 10//9
f  1//10 8//10 5//10
f  8//11 1//11 3//11
f  8//12 3//12 11//12
f  11//13 3//13 12//13
f  9//14 4//14 7//14
f  4//14 9//14 13//14
f  13//15 2//15 4//15
f  2//15 13//15 14//15
f  2//16 12//16 3//16
f  12//16 2//16 14//17
f  9//9 14//18 13//18
f  14//18 9//9 10//9
f  14//18 10//9 8//9
f  14//18 8//9 11//19
f  14//18 11//19 12//20

