# {"id":"ID_37219","idOriginal":"ID_37219","origin":[14.309327193449414,48.268982498562025],"elevation":259.898}
# Longitude: 14.309327193449414
# Latitude: 48.268982498562025
# Elevation: 259.898

# File produced by Open Asset Import Library (http://www.assimp.sf.net)
# (assimp v3.1.0)

mtllib ID_37219.obj.mtl

# 24 vertex positions
v  0.02 3.223 0.021
v  0.556 3.223 -0.538
v  0 3.223 1.97352e-16
v  4.042 3.223 4.177
v  4.789 3.223 -4.635
v  6.284 3.223 -2.387
v  7.981 3.223 -0.633
v  8.726 3.223 -0.709
v  8.432 3.223 -1.013
v  8.467 3.223 -1.042
v  8.753 3.223 -0.737
v  6.635 3.223 -2.726
v  0 0 0
v  4.042 -2.55768e-16 4.177
v  0.02 -1.28588e-18 0.021
v  8.726 4.34137e-17 -0.709
v  8.753 4.51282e-17 -0.737
v  6.284 1.46162e-16 -2.387
v  6.635 1.66919e-16 -2.726
v  8.467 6.38041e-17 -1.042
v  7.981 3.87601e-17 -0.633
v  4.789 2.83812e-16 -4.635
v  8.432 6.20284e-17 -1.013
v  0.556 3.2943e-17 -0.538

# 0 UV coordinates

# 27 vertex normals
vn 0 1 0
vn -0.724138 -4.22292e-17 0.689655
vn -0.718597 -7.19944e-05 0.695427
vn -0.718624 0 0.695399
vn 0 1 6.11884e-17
vn 0.721871 -0 0.692027
vn 0.719839 0 0.694141
vn 0.694704 -0 0.719296
vn 0.729462 0 -0.684021
vn 0.718688 0 -0.695333
vn 0.718869 0 -0.695145
vn -0.63802 0 -0.77002
vn -0.644344 -0.000116226 -0.764735
vn -0.643893 -0 -0.765115
vn 3.74443e-21 1 6.12401e-17
vn -0.695378 0 -0.718644
vn -0.69547 3.04386e-05 -0.718556
vn -0.695378 -0.000231767 -0.718644
vn -0.69547 0 -0.718556
vn -7.65995e-24 -1 -6.12323e-17
vn 7.37368e-23 -1 -6.12322e-17
vn -2.95691e-24 -1 -6.12323e-17
vn 0 -1 -6.12323e-17
vn -3.22401e-23 -1 -6.12323e-17
vn 3.32436e-24 -1 -6.12323e-17
vn -2.15794e-23 -1 -6.12323e-17
vn -2.54625e-23 -1 -6.12323e-17

# Mesh 'defaultobject' with 44 faces
g defaultobject
usemtl DefaultMaterial
f  1//1 2//1 3//1
f  2//1 1//1 4//1
f  2//1 4//1 5//1
f  5//1 4//1 6//1
f  6//1 4//1 7//1
f  7//1 4//1 8//1
f  7//1 8//1 9//1
f  9//1 8//1 10//1
f  10//1 8//1 11//1
f  12//1 5//1 6//1
f  13//2 1//2 3//2
f  1//3 13//3 4//3
f  4//4 13//4 14//4
f  14//5 13//5 15//5
f  14//6 8//6 4//6
f  8//6 14//6 16//6
f  8//7 16//7 11//7
f  11//7 16//7 17//7
f  18//8 12//8 6//8
f  12//8 18//8 19//8
f  17//9 10//9 11//9
f  10//9 17//9 20//9
f  21//10 6//10 7//10
f  6//10 21//10 18//10
f  19//11 5//11 12//11
f  5//11 19//11 22//11
f  20//12 9//12 10//12
f  9//13 20//13 7//13
f  7//14 20//14 21//14
f  21//15 20//15 23//15
f  2//16 13//16 3//16
f  13//17 2//17 5//17
f  13//18 5//18 24//18
f  24//19 5//19 22//19
f  19//20 18//20 22//20
f  24//21 15//21 13//21
f  15//21 24//21 14//22
f  14//22 24//21 22//20
f  14//22 22//20 18//20
f  14//22 18//20 21//23
f  14//22 21//23 16//24
f  16//24 21//23 23//25
f  16//24 23//25 20//26
f  16//24 20//26 17//27

