# {"id":"ID_33350","idOriginal":"ID_33350","origin":[14.287593054263311,48.23922733735153],"elevation":262.361}
# Longitude: 14.287593054263311
# Latitude: 48.23922733735153
# Elevation: 262.361

# File produced by Open Asset Import Library (http://www.assimp.sf.net)
# (assimp v3.1.0)

mtllib ID_33350.obj.mtl

# 12 vertex positions
v  4.322 2.267 0.112
v  2.083 1.904 2.193
v  4.211 1.904 4.434
v  0 1.903 1.16525e-16
v  5.927 2.267 -1.412
v  10.249 1.904 -1.301
v  6.038 1.904 -5.734
v  6.038 3.51106e-16 -5.734
v  0 0 0
v  2.083 -1.34283e-16 2.193
v  4.211 -2.71504e-16 4.434
v  10.249 7.96633e-17 -1.301

# 0 UV coordinates

# 17 vertex normals
vn -0.0855186 0.993022 0.0812064
vn -0.085731 0.993022 0.080978
vn 0.0812071 0.993023 0.0854976
vn 0.0811736 0.993027 0.085488
vn 0.0854886 0.993024 -0.0812074
vn -0.0814137 0.993001 -0.0855569
vn -0.0811736 0.993027 -0.085488
vn -0.688617 0 -0.725125
vn -0.688617 4.44011e-17 -0.725125
vn -0.725057 -4.217e-17 0.688689
vn -0.725057 0 0.688689
vn -0.725153 0 0.688588
vn 0.68868 -0 0.725065
vn 0.725028 0 -0.688719
vn -5.19909e-25 -1 -6.12323e-17
vn 1.05097e-24 -1 -6.12323e-17
vn 0 -1 -6.12323e-17

# Mesh 'defaultobject' with 20 faces
g defaultobject
usemtl DefaultMaterial
f  1//1 2//1 3//1
f  2//2 1//2 4//2
f  5//3 3//3 6//3
f  3//4 5//4 1//4
f  5//5 6//5 7//5
f  1//6 7//6 4//6
f  7//7 1//7 5//7
f  8//8 4//8 7//8
f  4//8 8//8 9//9
f  9//10 2//10 4//10
f  2//10 9//10 10//11
f  2//12 10//12 3//12
f  3//12 10//12 11//12
f  11//13 6//13 3//13
f  6//13 11//13 12//13
f  12//14 7//14 6//14
f  7//14 12//14 8//14
f  12//15 9//15 8//15
f  9//15 12//15 10//16
f  10//16 12//15 11//17

