# {"id":"ID_37132","idOriginal":"ID_37132","origin":[14.302893090468286,48.249878423912335],"elevation":262.042}
# Longitude: 14.302893090468286
# Latitude: 48.249878423912335
# Elevation: 262.042

# File produced by Open Asset Import Library (http://www.assimp.sf.net)
# (assimp v3.1.0)

mtllib ID_37132.obj.mtl

# 12 vertex positions
v  2.716 4.559 -1.311
v  8.099 2.626 2.909
v  5.431 2.626 -2.621
v  5.384 4.559 4.219
v  0 2.626 1.60796e-16
v  2.668 2.626 5.53
v  0 0 0
v  2.668 -3.38615e-16 5.53
v  5.384 -2.58339e-16 4.219
v  8.099 -1.78125e-16 2.909
v  5.431 1.6049e-16 -2.621
v  2.716 8.02756e-17 -1.311

# 0 UV coordinates

# 19 vertex normals
vn 0.486164 0.841801 -0.234554
vn 0.486164 0.841801 -0.234554
vn -0.486011 0.84191 0.234481
vn -0.486011 0.84191 0.234481
vn -0.900657 -2.66073e-17 0.43453
vn -0.900657 0 0.43453
vn 0.434703 -0 0.900574
vn 0.434605 7.17954e-05 0.900621
vn 0.434703 -0.000177498 0.900574
vn 0.434563 0 0.900641
vn 0.900657 0 -0.43453
vn -0.434703 0 -0.900574
vn -0.434605 -7.17466e-05 -0.900621
vn -0.434703 0.000177317 -0.900574
vn -0.434564 0 -0.900641
vn 5.71787e-24 -1 -6.12323e-17
vn 0 -1 -6.12323e-17
vn -2.8602e-24 -1 -6.12323e-17
vn 0 -1 -6.12323e-17

# Mesh 'defaultobject' with 20 faces
g defaultobject
usemtl DefaultMaterial
f  1//1 2//1 3//1
f  2//1 1//1 4//2
f  5//3 4//3 1//3
f  4//3 5//3 6//4
f  7//5 6//5 5//5
f  6//5 7//5 8//6
f  8//7 4//7 6//7
f  4//8 8//8 2//8
f  2//9 8//9 9//9
f  2//10 9//10 10//10
f  10//11 3//11 2//11
f  3//11 10//11 11//11
f  1//12 7//12 5//12
f  7//13 1//13 3//13
f  7//14 3//14 12//14
f  12//15 3//15 11//15
f  7//16 9//16 8//16
f  9//16 7//16 12//17
f  9//16 12//17 10//18
f  10//18 12//17 11//19

