# File produced by Open Asset Import Library (http://www.assimp.sf.net)
# (assimp v3.1.0)

mtllib ID_22192.obj.mtl

# 12 vertex positions
v  10.827 4.035 -1.732
v  7.129 7.667 9.859
v  12.543 4.035 8.993
v  5.413 7.667 -0.866
v  0 4.035 2.47072e-16
v  1.715 4.035 10.725
v  1.715 -6.56717e-16 10.725
v  7.129 -6.0369e-16 9.859
v  12.543 -5.50662e-16 8.993
v  10.827 1.06054e-16 -1.732
v  5.413 5.30272e-17 -0.866
v  0 0 0

# 0 UV coordinates

# 18 vertex normals
vn 0.545318 0.833676 -0.0872509
vn 0.545318 0.833676 -0.0872509
vn -0.545386 0.83363 0.0872618
vn -0.545326 0.833676 0.0872013
vn 0.157948 -0 0.987447
vn 0.157948 0 0.987448
vn 0.157948 0 0.987447
vn 0.987441 0 -0.157991
vn -0.157948 0 -0.987447
vn -0.157967 -1.39719e-05 -0.987444
vn -0.157948 3.90985e-05 -0.987447
vn -0.157976 6.04634e-17 -0.987443
vn -0.987455 -9.66863e-18 0.157901
vn -0.987455 0 0.157901
vn 2.66693e-24 -1 -6.12323e-17
vn -1.42236e-23 -1 -6.12323e-17
vn 1.77814e-24 -1 -6.12323e-17
vn 7.64195e-21 -1 -6.11356e-17

# Mesh 'defaultobject' with 20 faces
g defaultobject
usemtl DefaultMaterial
f  1//1 2//1 3//1
f  2//1 1//1 4//2
f  5//3 2//3 4//3
f  2//4 5//4 6//4
f  7//5 2//5 6//5
f  2//5 7//5 3//6
f  3//6 7//5 8//7
f  3//6 8//7 9//7
f  9//8 1//8 3//8
f  1//8 9//8 10//8
f  10//9 4//9 1//9
f  4//10 10//10 5//10
f  5//11 10//11 11//11
f  5//12 11//12 12//12
f  12//13 6//13 5//13
f  6//13 12//13 7//14
f  8//15 10//15 9//15
f  10//15 8//15 7//16
f  10//15 7//16 12//17
f  10//15 12//17 11//18

