# File produced by Open Asset Import Library (http://www.assimp.sf.net)
# (assimp v3.1.0)

mtllib ID_39123.obj.mtl

# 10 vertex positions
v  2.839 2.907 0.015
v  2.854 2.601 -2.823
v  0 2.601 1.59265e-16
v  8.451 2.601 2.835
v  5.612 2.907 2.82
v  5.597 2.601 5.658
v  0 0 0
v  5.597 -3.46453e-16 5.658
v  8.451 -1.73594e-16 2.835
v  2.854 1.72859e-16 -2.823

# 0 UV coordinates

# 14 vertex normals
vn -0.105987 0.988578 -0.107151
vn 0.107179 0.988571 -0.106024
vn 0.107114 0.988592 -0.105892
vn -0.107179 0.98857 0.106024
vn -0.107114 0.988592 0.105892
vn 0.105987 0.988578 0.107151
vn -0.710929 -4.30625e-17 0.703264
vn -0.710929 0 0.703264
vn 0.703235 -0 0.710957
vn 0.710929 0 -0.703264
vn -0.703235 0 -0.710957
vn -0.703235 4.35336e-17 -0.710957
vn 0 -1 -6.12323e-17
vn -3.31408e-24 -1 -6.12323e-17

# Mesh 'defaultobject' with 16 faces
g defaultobject
usemtl DefaultMaterial
f  1//1 2//1 3//1
f  1//2 4//2 2//2
f  4//3 1//3 5//3
f  5//4 3//4 6//4
f  3//5 5//5 1//5
f  5//6 6//6 4//6
f  7//7 6//7 3//7
f  6//7 7//7 8//8
f  8//9 4//9 6//9
f  4//9 8//9 9//9
f  9//10 2//10 4//10
f  2//10 9//10 10//10
f  10//11 3//11 2//11
f  3//11 10//11 7//12
f  10//13 8//13 7//13
f  8//13 10//13 9//14

