# File produced by Open Asset Import Library (http://www.assimp.sf.net)
# (assimp v3.1.0)

mtllib ID_52551.obj.mtl

# 8 vertex positions
v  0 1.855 1.13586e-16
v  3.953 1.855 -3.163
v  1.855 1.855 -4.11
v  2.098 1.855 0.947
v  3.953 1.93678e-16 -3.163
v  1.855 2.51665e-16 -4.11
v  0 0 0
v  2.098 -5.7987e-17 0.947

# 0 UV coordinates

# 8 vertex normals
vn 0 1 0
vn 0.411412 0 -0.911449
vn -0.911465 0 -0.411379
vn -0.911465 2.51897e-17 -0.411379
vn -0.411412 -5.58102e-17 0.911449
vn -0.411412 0 0.911449
vn 0.911465 -0 0.411379
vn -1.2751e-24 -1 -6.12323e-17

# Mesh 'defaultobject' with 12 faces
g defaultobject
usemtl DefaultMaterial
f  1//1 2//1 3//1
f  2//1 1//1 4//1
f  5//2 3//2 2//2
f  3//2 5//2 6//2
f  6//3 1//3 3//3
f  1//3 6//3 7//4
f  7//5 4//5 1//5
f  4//5 7//5 8//6
f  8//7 2//7 4//7
f  2//7 8//7 5//7
f  5//8 7//8 6//8
f  7//8 5//8 8//8

