# File produced by Open Asset Import Library (http://www.assimp.sf.net)
# (assimp v3.1.0)

mtllib ID_51694.obj.mtl

# 8 vertex positions
v  3.074 1.756 -0.654
v  0.758 1.756 3.562
v  3.832 1.756 2.908
v  0 1.756 1.07524e-16
v  0.758 -2.1811e-16 3.562
v  3.832 -1.78064e-16 2.908
v  3.074 4.00459e-17 -0.654
v  0 0 0

# 0 UV coordinates

# 9 vertex normals
vn 0 1 -0
vn 0.208095 -0 0.978109
vn 0.978099 0 -0.208141
vn -0.208095 0 -0.978109
vn -0.208095 5.98919e-17 -0.978109
vn -0.978099 -1.2745e-17 0.208141
vn -0.978099 0 0.208141
vn -2.31272e-24 -1 -6.12323e-17
vn 1.15636e-24 -1 -6.12323e-17

# Mesh 'defaultobject' with 12 faces
g defaultobject
usemtl DefaultMaterial
f  1//1 2//1 3//1
f  2//1 1//1 4//1
f  5//2 3//2 2//2
f  3//2 5//2 6//2
f  6//3 1//3 3//3
f  1//3 6//3 7//3
f  7//4 4//4 1//4
f  4//4 7//4 8//5
f  8//6 2//6 4//6
f  2//6 8//6 5//7
f  5//8 7//8 6//8
f  7//8 5//8 8//9

