# File produced by Open Asset Import Library (http://www.assimp.sf.net)
# (assimp v3.1.0)

mtllib ID_6473.obj.mtl

# 26 vertex positions
v  16.78 3.965 -13.16
v  25.378 3.983 -1.983
v  16.816 3.941 -13.188
v  15.542 7.675 -3.207
v  0.028 3.989 0.036
v  0 3.965 2.42786e-16
v  9.849 7.675 1.258
v  4.642 3.965 6.078
v  8.619 3.988 11.147
v  2.787 4.005 3.554
v  11.994 3.96 8.569
v  8.656 3.956 11.195
v  24.372 3.973 -1.17
v  25.388 3.974 -1.97
v  8.656 -6.85496e-16 11.195
v  11.994 -5.247e-16 8.569
v  24.372 7.16418e-17 -1.17
v  25.388 1.20628e-16 -1.97
v  16.816 8.07532e-16 -13.188
v  25.378 1.21424e-16 -1.983
v  0 0 0
v  16.78 8.05818e-16 -13.16
v  8.619 -6.82557e-16 11.147
v  4.642 -3.7217e-16 6.078
v  2.787 -2.1762e-16 3.554
v  0.028 -2.20436e-18 0.036

# 0 UV coordinates

# 45 vertex normals
vn 0.368427 0.884945 -0.284841
vn 0.367723 0.885412 -0.2843
vn -0.287389 0.884945 -0.366443
vn -0.286814 0.885433 -0.365714
vn -0.286834 0.885423 -0.365721
vn -0.367608 0.885427 0.284398
vn -0.367713 0.885422 0.284281
vn -0.367691 0.885413 0.284335
vn 0.28805 0.884292 0.367497
vn 0.286752 0.885423 0.365786
vn 0.286843 0.885408 0.365752
vn 0.286842 0.885416 0.365732
vn 0.286819 0.885397 0.365798
vn 0.297087 0.876673 0.378397
vn 0.6183 -0 0.785942
vn 0.618349 0 0.785904
vn 0.618349 0 0.785904
vn 0.618641 0 0.785674
vn 0.618641 0 0.785674
vn 0.794557 0.00584963 -0.607161
vn 0.794579 0 -0.607161
vn -1.13288e-18 -1 -6.11756e-17
vn -0.617099 -0.007645 -0.786848
vn -0.61711 0 -0.786877
vn -0.61711 4.81823e-17 -0.786877
vn 0 1 6.13658e-17
vn -0.792009 0 0.61051
vn -0.786755 0.000130062 0.617266
vn -0.791932 -0.0139066 0.610451
vn -0.786754 0 0.617266
vn -0.786837 -0.00769405 0.617113
vn -0.786902 0 0.617078
vn -0.786902 0 0.617078
vn 0 1 6.12626e-17
vn -0.805785 0 0.592208
vn -0.805785 0 0.592208
vn -1.56012e-22 -1 -6.12327e-17
vn 0 -1 -6.12323e-17
vn 8.1669e-23 -1 -6.12323e-17
vn 5.61639e-24 -1 -6.12323e-17
vn 0 -1 -6.12323e-17
vn 1.03505e-23 -1 -6.12323e-17
vn 2.1027e-19 -1 -6.13987e-17
vn -3.33502e-22 -1 -6.12322e-17
vn 1.00877e-21 -1 -6.12334e-17

# Mesh 'defaultobject' with 48 faces
g defaultobject
usemtl DefaultMaterial
f  1//1 2//1 3//1
f  2//2 1//2 4//2
f  5//3 1//3 6//3
f  1//4 5//4 7//4
f  1//5 7//5 4//5
f  7//6 8//6 9//6
f  8//7 7//7 10//7
f  10//8 7//8 5//8
f  11//9 9//9 12//9
f  9//10 11//10 7//10
f  7//11 11//11 13//11
f  7//12 13//12 4//12
f  4//13 13//13 2//13
f  2//14 13//14 14//14
f  15//15 11//15 12//15
f  11//15 15//15 16//15
f  11//16 16//16 13//16
f  13//16 16//16 17//17
f  13//18 17//18 14//18
f  14//18 17//18 18//19
f  14//20 3//20 2//20
f  3//21 14//21 18//21
f  3//21 18//21 19//21
f  19//22 18//22 20//22
f  3//23 6//23 1//23
f  6//24 3//24 19//24
f  6//24 19//24 21//25
f  21//26 19//26 22//26
f  9//27 15//27 12//27
f  15//28 9//28 8//28
f  15//29 8//29 23//29
f  23//30 8//30 24//30
f  6//31 10//31 5//31
f  10//32 6//32 21//32
f  10//32 21//32 25//33
f  25//34 21//26 26//34
f  25//35 8//35 10//35
f  8//35 25//35 24//36
f  17//37 20//22 18//22
f  20//22 17//37 19//22
f  19//22 17//37 16//38
f  19//22 16//38 22//39
f  22//39 16//38 21//40
f  21//40 16//38 25//41
f  25//41 16//38 15//42
f  25//41 15//42 23//43
f  25//41 23//43 24//44
f  21//40 25//41 26//45

