# File produced by Open Asset Import Library (http://www.assimp.sf.net)
# (assimp v3.1.0)

mtllib ID_139.obj.mtl

# 136 vertex positions
v  29.943 19.648 53.851
v  25.694 14.997 62.217
v  25.942 14.997 62.818
v  20.744 14.997 50.231
v  27.325 19.648 47.512
v  18.292 14.997 44.293
v  11.787 19.648 9.888
v  5.213 14.997 12.621
v  2.938 14.997 7.113
v  9.084 19.648 3.342
v  2.219 14.997 5.372
v  0 14.997 9.18301e-16
v  0.387 15.271 -0.161
v  85.777 15 38.096
v  76.897 19.648 34.451
v  85.788 14.979 38.124
v  85.417 15 38.244
v  80.063 15.018 40.429
v  78.579 15.017 41.043
v  70.514 19.648 37.088
v  73.094 15.015 43.312
v  70.723 15.015 44.293
v  36.617 19.648 51.094
v  58.317 15.011 49.425
v  53.395 15.009 51.461
v  39.194 15.005 57.336
v  33.191 15.003 59.819
v  31.285 15.003 60.607
v  59.311 15.293 -24.623
v  62.031 15 -19.18
v  59.707 15 -24.787
v  55.927 19.648 -16.133
v  62.572 15 -17.875
v  64.923 15 -12.203
v  58.639 19.648 -9.59
v  66.197 15 -9.131
v  74.27 19.648 28.115
v  72.073 15 5.043
v  80.561 15 25.516
v  84.063 15 33.962
v  47.044 15.29 -19.526
v  47.446 15.99 -18.555
v  49.55 19.648 -13.481
v  52.304 14.986 -7.044
v  51.653 15.99 -8.408
v  52.231 14.986 -7.014
v  52.399 15.033 -6.996
v  67.958 14.984 30.719
v  52.368 15.033 -7.071
v  67.886 14.929 30.749
v  34.051 15.026 44.881
v  33.917 15.026 44.936
v  35.458 15.022 44.293
v  33.284 15.474 45.201
v  33.231 15.474 45.072
v  32.909 15.474 44.293
v  17.704 15.463 7.428
v  17.647 15.463 7.289
v  18.258 15.031 7.036
v  18.398 15.031 6.978
v  17.848 15.99 5.646
v  15.752 19.648 0.57
v  13.655 15.99 -4.506
v  13.241 15.268 -5.509
v  25.942 -3.84649e-15 62.818
v  25.694 -3.80969e-15 62.217
v  20.744 -3.07576e-15 50.231
v  18.292 -2.71216e-15 44.293
v  5.213 -7.72813e-16 12.621
v  2.938 -4.35546e-16 7.113
v  2.219 -3.2894e-16 5.372
v  0 0 0
v  47.044 1.19562e-15 -19.526
v  52.231 4.29484e-16 -7.014
v  49.55 8.25473e-16 -13.481
v  47.446 1.13617e-15 -18.555
v  51.653 5.14842e-16 -8.408
v  52.368 4.32974e-16 -7.071
v  67.958 14.982 30.719
v  67.958 -1.881e-15 30.719
v  52.399 4.28381e-16 -6.996
v  31.285 -3.71111e-15 60.607
v  33.191 -3.66286e-15 59.819
v  39.194 -3.51082e-15 57.336
v  53.395 -3.15108e-15 51.461
v  58.317 -3.02641e-15 49.425
v  70.723 -2.71216e-15 44.293
v  73.094 -2.6521e-15 43.312
v  78.579 -2.51316e-15 41.043
v  80.063 -2.47556e-15 40.429
v  85.417 -2.34177e-15 38.244
v  85.788 -2.33442e-15 38.124
v  52.304 4.31321e-16 -7.044
v  17.647 -4.46323e-16 7.289
v  18.398 -4.27279e-16 6.978
v  18.258 -4.30831e-16 7.036
v  85.777 -2.33271e-15 38.096
v  84.063 -2.07957e-15 33.962
v  80.561 -1.5624e-15 25.516
v  33.284 -2.76776e-15 45.201
v  33.231 -2.75986e-15 45.072
v  32.909 -2.71216e-15 44.293
v  17.704 -4.54834e-16 7.428
v  13.655 2.75913e-16 -4.506
v  13.241 3.37329e-16 -5.509
v  17.848 -3.45718e-16 5.646
v  15.752 -3.49024e-17 0.57
v  72.073 -3.08795e-16 5.043
v  66.197 5.59113e-16 -9.131
v  64.923 7.47218e-16 -12.203
v  62.572 1.09453e-15 -17.875
v  62.031 1.17444e-15 -19.18
v  59.707 1.51777e-15 -24.787
v  59.311 1.50772e-15 -24.623
v  33.917 -2.75154e-15 44.936
v  67.958 14.985 30.719
v  67.886 -1.88283e-15 30.749
v  35.458 -2.71216e-15 44.293
v  34.051 -2.74817e-15 44.881
v  0.387 9.85841e-18 -0.161
v  34.581 14.647 -14.792
v  24.554 14.623 -10.651
v  24.722 14.993 -10.285
v  13.241 14.995 -5.509
v  15.752 21.03 0.57
v  49.55 21.03 -13.481
v  35.022 15.023 -14.531
v  47.044 15.026 -19.526
v  34.893 14.624 -14.949
v  18.398 14.668 6.978
v  52.231 14.606 -7.014
v  35.022 8.89767e-16 -14.531
v  34.581 9.05749e-16 -14.792
v  34.893 9.15362e-16 -14.949
v  24.554 6.52186e-16 -10.651
v  24.722 6.29775e-16 -10.285

# 0 UV coordinates

# 246 vertex normals
vn -0.505593 0.837167 0.20863
vn -0.505445 0.837229 0.20874
vn -0.505447 0.837226 0.208749
vn -0.505459 0.837226 0.208721
vn -0.505463 0.837217 0.208747
vn -0.505512 0.837186 0.208752
vn -0.505497 0.837186 0.208788
vn -0.505488 0.837206 0.208728
vn -0.505475 0.837208 0.208752
vn -0.505463 0.837206 0.20879
vn -0.505554 0.837026 0.20929
vn 0.210753 0.819982 0.532178
vn 0.216129 0.823815 0.524039
vn 0.216447 0.824024 0.52358
vn 0.216137 0.824008 0.523732
vn 0.216343 0.823994 0.523669
vn 0.216333 0.823988 0.523682
vn 0.216623 0.823988 0.523562
vn 0.216348 0.824036 0.523601
vn 0.216354 0.824002 0.523652
vn 0.216344 0.823899 0.523819
vn 0.216384 0.824025 0.523603
vn 0.216314 0.824025 0.523632
vn 0.21631 0.824027 0.523631
vn 0.216455 0.824035 0.523559
vn 0.215801 0.824097 0.523731
vn 0.521331 0.825544 -0.216082
vn 0.521024 0.825781 -0.215916
vn 0.520993 0.825783 -0.215983
vn 0.521003 0.825785 -0.215951
vn 0.521002 0.825786 -0.21595
vn 0.520961 0.825786 -0.21605
vn 0.520966 0.825803 -0.215972
vn 0.520964 0.825805 -0.215972
vn 0.520925 0.825829 -0.215973
vn 0.520918 0.825829 -0.215991
vn 0.520913 0.825834 -0.215979
vn 0.520914 0.825835 -0.215976
vn -0.212854 0.832326 -0.511788
vn -0.212788 0.832276 -0.511897
vn -0.212839 0.832327 -0.511793
vn 0.210548 0.832571 0.512342
vn 0.212118 0.832614 0.511624
vn 0.212874 0.832266 0.511877
vn -0.521034 0.825747 0.216021
vn -0.520968 0.825802 0.215973
vn -0.521199 0.825801 0.215416
vn -0.51574 0.82822 0.219236
vn -0.520985 0.825798 0.215943
vn -0.521161 0.825651 0.216082
vn -0.214783 0.824648 -0.523282
vn -0.216368 0.823988 -0.523669
vn -0.216379 0.823928 -0.523758
vn 0 1 0
vn -0.216363 0.823976 -0.523689
vn -0.216269 0.82437 -0.523107
vn 0.505468 0.837211 -0.208758
vn 0.505836 0.837221 -0.207826
vn 0.505457 0.837221 -0.208744
vn 0.5061 0.83672 -0.209195
vn 0.50541 0.837259 -0.208707
vn 0.505414 0.837259 -0.208697
vn 0.504972 0.837927 -0.207078
vn 0.505442 0.837198 -0.208873
vn 0.505156 0.837352 -0.208946
vn 0.212336 0.831993 0.512544
vn 0.213032 0.832508 0.511417
vn 0.212805 0.83227 0.5119
vn -0.212795 0.832287 -0.511875
vn -0.212263 0.832541 -0.511683
vn -0.212748 0.832339 -0.511811
vn -0.924392 0 0.381444
vn -0.924282 1.25498e-05 0.381712
vn -0.924392 -0.000250316 0.381444
vn -0.924282 0 0.381712
vn -0.924297 0 0.381673
vn -0.924291 0 0.381688
vn -0.924264 0 0.381754
vn -0.924282 0 0.381711
vn -0.924253 9.30519e-06 0.381779
vn -0.924282 -2.87128e-05 0.381711
vn -0.924253 0 0.381779
vn -0.923751 7.38132e-05 0.382992
vn -0.923751 -0.000767485 0.382992
vn -0.923769 0 0.382951
vn -0.923751 -3.44324e-05 0.382993
vn -0.923766 0 0.382958
vn 1.24744e-18 1 6.05009e-17
vn 0 1 6.1239e-17
vn -5.2369e-19 1 6.14463e-17
vn -0.924175 0 0.381969
vn -0.924425 3.5359e-06 0.381364
vn -0.924425 0 0.381365
vn 0 -1 -6.16791e-17
vn 0.382367 -0 0.92401
vn 0.382367 0 0.92401
vn 0.382065 0 0.924135
vn 0.382221 -2.31326e-05 0.924071
vn 0.382065 7.2849e-05 0.924135
vn 0.382221 0 0.924071
vn 0.382281 0 0.924046
vn 0.382281 0 0.924046
vn 0.382241 0 0.924063
vn 0.382241 0 0.924063
vn 0.382255 0 0.924057
vn 0.382255 0 0.924057
vn 0.382317 0 0.924031
vn 0.382258 1.09256e-05 0.924056
vn 0.382317 -2.52943e-05 0.924031
vn 0.382258 0 0.924056
vn 0.382314 0 0.924032
vn 0.377853 0.000515699 0.925865
vn 0.382313 -0.00185971 0.924031
vn 0.377852 0 0.925866
vn 0.307748 -0 0.951468
vn 0.380106 -0 0.924943
vn 0.384135 -2.29608e-05 0.923277
vn 5.44247e-21 1 6.12442e-17
vn 0.382575 -0 0.923925
vn 0.382735 -7.63933e-06 0.923858
vn 0.382605 0 0.923912
vn 4.99137e-19 1 6.24396e-17
vn 0.930733 0 -0.365699
vn 0.930733 0 -0.365699
vn 0.92375 0 -0.382996
vn 0.923742 0 -0.383016
vn 0.924973 0 -0.380033
vn 0.924162 -1.91882e-05 -0.382001
vn 0.924455 2.95263e-05 -0.381292
vn 0.925213 0.00538765 -0.379411
vn 0.924966 0.00362266 -0.380032
vn 0.924451 0 -0.3813
vn -2.59398e-19 -1 -6.10882e-17
vn 3.70416e-20 -1 -6.12482e-17
vn 0.924268 -0.000126369 -0.381743
vn 0.924268 -0.000139065 -0.381743
vn 0.924272 0 -0.381733
vn 0.924326 0.000108569 -0.381604
vn 0.924273 -1.50665e-05 -0.381733
vn 0.924353 0 -0.381537
vn -5.78241e-19 1 6.14381e-17
vn 4.17063e-20 1 6.12249e-17
vn 0.923755 0 -0.382984
vn 0.923766 0 -0.382958
vn 0.923716 0 -0.383078
vn 0.923789 4.20512e-05 -0.382903
vn 0.923716 -7.76161e-05 -0.383078
vn 0.923789 0 -0.382903
vn 0.923766 0 -0.382956
vn 0.923792 6.28236e-06 -0.382895
vn 0.923766 -2.7003e-05 -0.382956
vn 0.923792 0 -0.382895
vn -0.3837 -0.0016963 -0.923456
vn -0.383667 0 -0.923471
vn -0.383667 -0 -0.923471
vn 6.41747e-20 1 6.14794e-17
vn -0.379712 0 -0.925105
vn -0.386166 -0 -0.922429
vn 0.388704 -0 0.921363
vn -0.384629 0 -0.923071
vn -0.384629 0 -0.923071
vn -0.385399 -4.35845e-06 -0.92275
vn -0.384644 0.00195343 -0.923063
vn -0.385399 -0 -0.92275
vn -0.385593 -0 -0.922669
vn -0.386166 0 -0.922429
vn -0.384136 0 -0.923277
vn -0.384118 1.78075e-05 -0.923284
vn -0.384135 5.65344e-17 -0.923277
vn 0 -1 -6.11859e-17
vn -2.37184e-23 -1 -6.12323e-17
vn -6.59647e-23 -1 -6.12323e-17
vn 1.51511e-22 -1 -6.12324e-17
vn 1.51686e-23 -1 -6.12323e-17
vn 1.45099e-23 -1 -6.12323e-17
vn -2.90282e-24 -1 -6.12323e-17
vn 4.22513e-23 -1 -6.12323e-17
vn -5.48839e-22 -1 -6.12326e-17
vn 0 -1 -6.12323e-17
vn -1.63811e-22 -1 -6.12323e-17
vn 0 -1 -6.12323e-17
vn -7.8392e-24 -1 -6.12323e-17
vn 4.9555e-24 -1 -6.12323e-17
vn 0 -1 -6.12323e-17
vn 1.83894e-23 -1 -6.12323e-17
vn 0 -1 -6.12322e-17
vn -5.46533e-23 -1 -6.12323e-17
vn 2.6526e-22 -1 -6.12322e-17
vn -4.054e-23 -1 -6.12324e-17
vn 1.36722e-22 -1 -6.12323e-17
vn -6.08698e-22 -1 -6.12323e-17
vn -4.83903e-23 -1 -6.12323e-17
vn 4.57975e-22 -1 -6.12326e-17
vn -1.30191e-21 -1 -6.1232e-17
vn 8.24432e-23 -1 -6.12324e-17
vn -1.07319e-23 -1 -6.12324e-17
vn -4.05286e-24 -1 -6.12323e-17
vn 1.4616e-23 -1 -6.12323e-17
vn 1.85563e-23 -1 -6.12323e-17
vn -1.17869e-21 -1 -6.12321e-17
vn -1.3627e-23 -1 -6.12323e-17
vn -1.61014e-22 -1 -6.12323e-17
vn 5.58546e-24 -1 -6.12323e-17
vn -5.67907e-23 -1 -6.12323e-17
vn 1.96561e-23 -1 -6.12323e-17
vn -1.09153e-22 -1 -6.12323e-17
vn -1.88215e-23 -1 -6.12324e-17
vn 1.13026e-21 -1 -6.12328e-17
vn 7.12304e-22 -1 -6.12327e-17
vn 2.03118e-21 -1 -6.12295e-17
vn -0.25985 0.736163 -0.624933
vn -0.259475 0.737038 -0.624058
vn -0.259624 0.736781 -0.624299
vn -0.259525 0.736851 -0.624257
vn -0.25952 0.736783 -0.62434
vn -0.259333 0.737234 -0.623885
vn -0.259545 0.736832 -0.624271
vn -0.25952 0.736927 -0.624171
vn -0.259503 0.737316 -0.623717
vn 0.259565 0.736757 0.624352
vn 0.259467 0.736897 0.624227
vn 0.259579 0.736752 0.624352
vn 0.259462 0.736989 0.62412
vn -0.383688 0 -0.923463
vn -0.383688 -0 -0.923463
vn -0.449504 0 -0.893279
vn -0.449504 0 -0.893279
vn -0.381714 0 -0.924281
vn -0.384084 0 -0.923298
vn 0.955533 0 -0.294884
vn 0.923751 -5.36076e-05 -0.382992
vn 0.923752 2.60961e-05 -0.382992
vn 0.92375 0 -0.382995
vn 0.923865 0.000234004 -0.382718
vn 0.923766 0 -0.382958
vn -0.90883 0 0.417166
vn -0.90883 0 0.417166
vn -0.924268 9.17179e-05 0.381743
vn -0.924268 -0.000242587 0.381743
vn -0.924276 0 0.381725
vn -0.924292 3.23532e-05 0.381685
vn -0.924354 0.000179278 0.381537
vn -0.924273 0 0.381733
vn 0.382168 -0 0.924093
vn 4.85064e-23 -1 -6.12322e-17
vn 1.09801e-23 -1 -6.12323e-17

# Mesh 'defaultobject' with 288 faces
g defaultobject
usemtl DefaultMaterial
f  1//1 2//1 3//1
f  2//2 1//2 4//2
f  4//3 1//3 5//3
f  4//4 5//4 6//4
f  6//5 5//5 7//5
f  6//6 7//6 8//6
f  8//7 7//7 9//7
f  9//8 7//8 10//8
f  9//9 10//9 11//9
f  11//10 10//10 12//10
f  12//11 10//11 13//11
f  14//12 15//12 16//12
f  17//13 16//13 15//13
f  18//14 17//14 15//14
f  19//15 18//15 15//15
f  20//16 19//16 15//16
f  21//17 19//17 20//17
f  22//18 21//18 20//18
f  23//19 22//19 20//19
f  24//20 22//20 23//20
f  25//21 24//21 23//21
f  26//22 25//22 23//22
f  27//23 26//23 23//23
f  1//24 27//23 23//23
f  28//25 27//25 1//25
f  3//26 28//26 1//26
f  29//27 30//27 31//27
f  30//28 29//28 32//28
f  30//29 32//29 33//29
f  33//30 32//30 34//30
f  34//30 32//30 35//31
f  34//32 35//32 36//32
f  36//33 35//33 37//33
f  36//33 37//33 38//34
f  38//35 37//35 39//35
f  39//36 37//36 40//36
f  40//37 37//37 15//37
f  40//37 15//37 14//38
f  41//39 32//39 29//39
f  32//40 41//40 42//40
f  32//41 42//41 43//41
f  44//42 45//42 46//42
f  45//43 44//43 32//43
f  45//44 32//44 43//44
f  37//45 47//45 48//45
f  47//46 37//46 35//46
f  47//47 35//47 49//47
f  49//48 32//48 44//48
f  32//49 49//49 35//49
f  50//50 15//50 37//50
f  1//51 51//51 52//51
f  51//52 1//52 20//52
f  51//53 20//53 15//53
f  20//54 1//54 23//54
f  53//55 15//55 50//55
f  15//56 53//56 51//56
f  54//57 5//57 1//57
f  5//58 54//58 55//58
f  5//59 55//59 7//59
f  7//60 55//60 56//60
f  7//61 56//61 57//61
f  7//61 57//61 10//62
f  10//63 57//63 58//63
f  10//64 58//64 59//64
f  52//65 54//65 1//65
f  60//66 10//66 59//66
f  10//67 60//67 61//67
f  10//68 61//68 62//68
f  63//69 10//69 62//69
f  10//70 63//70 64//70
f  10//71 64//71 13//71
f  2//72 65//72 3//72
f  65//73 2//73 4//73
f  65//74 4//74 66//74
f  66//75 4//75 67//75
f  67//76 4//76 6//76
f  67//76 6//76 68//76
f  68//77 6//77 8//77
f  68//77 8//77 69//77
f  69//78 8//78 9//78
f  69//78 9//78 70//78
f  70//79 9//79 11//79
f  70//80 11//80 12//80
f  70//81 12//81 71//81
f  71//82 12//80 72//82
f  42//83 45//83 43//83
f  45//84 42//84 41//84
f  45//85 41//85 73//85
f  45//86 73//86 46//86
f  46//87 73//85 74//87
f  74//88 73//88 75//88
f  75//88 73//88 76//89
f  74//88 75//88 77//90
f  78//91 47//91 49//91
f  47//92 78//92 79//92
f  79//92 78//92 80//93
f  80//94 78//94 81//94
f  65//95 28//95 3//95
f  28//95 65//95 82//96
f  28//97 82//97 27//97
f  27//98 82//98 26//98
f  26//99 82//99 83//99
f  26//100 83//100 84//100
f  26//101 84//101 25//101
f  25//101 84//101 85//102
f  25//103 85//103 24//103
f  24//103 85//103 86//104
f  24//105 86//105 22//105
f  22//105 86//105 87//106
f  22//107 87//107 21//107
f  21//108 87//108 19//108
f  19//109 87//109 88//109
f  19//110 88//110 89//110
f  19//111 89//111 18//111
f  18//112 89//112 17//112
f  17//113 89//113 90//113
f  17//114 90//114 91//114
f  91//115 16//115 17//115
f  16//115 91//115 92//115
f  74//116 44//116 46//116
f  44//117 74//117 78//117
f  78//118 74//88 93//118
f  94//119 59//119 58//119
f  59//120 94//120 60//120
f  60//121 94//121 95//121
f  95//122 94//122 96//122
f  16//123 97//123 14//123
f  97//123 16//123 92//124
f  97//125 40//125 14//125
f  40//125 97//125 98//125
f  40//126 98//126 99//126
f  100//127 55//127 54//127
f  55//128 100//128 56//128
f  56//129 100//129 57//129
f  57//130 100//130 58//130
f  58//131 100//131 101//131
f  58//132 101//132 94//132
f  94//133 101//133 102//133
f  94//133 102//133 103//134
f  61//135 63//135 62//135
f  63//136 61//136 60//136
f  63//137 60//137 95//137
f  63//138 95//138 64//138
f  64//139 95//139 104//139
f  64//140 104//140 105//140
f  104//141 95//122 106//141
f  104//141 106//141 107//142
f  99//126 39//126 40//126
f  39//143 99//143 38//143
f  38//143 99//143 108//143
f  38//144 108//144 36//144
f  36//144 108//144 109//144
f  36//145 109//145 34//145
f  34//146 109//146 33//146
f  33//147 109//147 110//147
f  33//148 110//148 111//148
f  33//149 111//149 30//149
f  30//150 111//150 31//150
f  31//151 111//151 112//151
f  31//150 112//152 113//152
f  31//153 41//153 29//153
f  41//154 31//154 113//154
f  41//154 113//154 73//155
f  73//88 113//156 114//156
f  115//157 52//157 51//157
f  52//158 115//158 100//158
f  78//159 49//159 44//159
f  79//160 50//160 116//160
f  50//160 79//160 80//161
f  50//162 80//162 53//162
f  53//163 80//163 117//163
f  53//162 117//164 118//164
f  53//165 118//165 51//165
f  51//165 118//165 119//165
f  51//157 119//157 115//157
f  100//158 54//166 52//158
f  105//167 13//167 64//167
f  13//168 105//168 12//168
f  12//169 105//167 72//169
f  72//170 105//170 120//170
f  106//171 94//133 107//171
f  94//133 106//171 96//172
f  96//172 106//171 95//173
f  114//174 76//174 73//174
f  76//174 114//174 75//175
f  75//175 114//174 77//176
f  77//176 114//174 74//177
f  74//177 114//174 93//178
f  93//178 114//174 78//94
f  78//94 114//174 81//94
f  81//94 114//174 80//94
f  80//94 114//174 113//179
f  80//94 113//179 112//180
f  120//170 71//181 72//170
f  71//181 120//170 105//170
f  71//181 105//170 70//182
f  70//182 105//170 69//183
f  69//183 105//170 68//184
f  68//184 105//170 67//185
f  67//185 105//170 104//186
f  67//185 104//186 66//187
f  66//187 104//186 107//171
f  66//187 107//171 94//133
f  66//187 94//133 103//134
f  66//187 103//134 102//133
f  66//187 102//133 65//188
f  65//188 102//133 82//189
f  82//189 102//133 83//190
f  83//190 102//133 100//191
f  83//190 100//191 84//192
f  100//191 102//133 101//133
f  84//192 100//191 115//193
f  84//192 115//193 119//194
f  84//192 119//194 118//195
f  84//192 118//195 117//196
f  84//192 117//196 85//197
f  85//197 117//196 86//198
f  86//198 117//196 87//199
f  87//199 117//196 80//94
f  87//199 80//94 112//180
f  87//199 112//180 111//200
f  87//199 111//200 88//201
f  88//201 111//200 110//202
f  88//201 110//202 109//184
f  88//201 109//184 89//203
f  89//203 109//184 108//204
f  89//203 108//204 99//205
f  89//203 99//205 90//206
f  90//206 99//205 91//207
f  91//207 99//205 98//208
f  91//207 98//208 97//209
f  91//207 97//209 92//210
f  121//211 122//211 123//211
f  63//212 123//212 124//212
f  123//213 63//213 125//213
f  123//214 125//214 126//214
f  123//215 126//215 127//215
f  123//216 127//216 121//216
f  127//217 126//217 42//217
f  127//218 42//218 128//218
f  129//219 121//219 127//219
f  61//220 126//220 125//220
f  126//221 61//221 130//221
f  126//222 130//222 45//222
f  45//223 130//223 131//223
f  73//224 127//224 128//224
f  127//224 73//224 132//225
f  129//226 133//226 121//226
f  133//226 129//226 134//227
f  133//228 122//228 121//228
f  122//228 133//228 135//228
f  123//229 105//229 124//229
f  105//229 123//229 136//229
f  132//230 129//230 127//230
f  129//230 132//230 134//230
f  45//231 42//231 126//231
f  42//232 45//232 131//232
f  42//233 131//233 74//233
f  42//234 74//234 128//234
f  128//235 74//235 73//235
f  73//174 74//177 75//175
f  75//175 74//177 77//176
f  73//174 75//175 76//174
f  122//236 136//236 123//236
f  136//236 122//236 135//237
f  63//238 61//238 125//238
f  61//239 63//239 124//239
f  61//240 124//240 105//240
f  61//241 105//241 130//241
f  130//242 105//242 104//242
f  130//243 104//243 95//243
f  95//173 104//186 107//171
f  95//173 107//171 106//171
f  95//244 131//244 130//244
f  131//244 95//244 74//244
f  133//245 136//245 135//245
f  134//246 132//246 133//245
f  106//171 74//177 95//173
f  74//177 106//171 107//171
f  74//177 107//171 104//186
f  74//177 104//186 105//170
f  74//177 105//170 136//245
f  74//177 136//245 132//246
f  132//246 136//245 133//245
f  74//177 132//246 77//176
f  77//176 132//246 76//174
f  76//174 132//246 73//174
f  77//176 76//174 75//175

