# File produced by Open Asset Import Library (http://www.assimp.sf.net)
# (assimp v3.1.0)

mtllib ID_13500.obj.mtl

# 23 vertex positions
v  0.845 10.149 -2.254
v  19.56 14.976 5.519
v  20.29 10.149 0.416
v  0.383 10.149 -2.317
v  0 12.347 7.56036e-16
v  0.116 14.976 2.85
v  0.019 14.976 2.837
v  18.828 10.131 10.642
v  0.054 10.205 7.984
v  0.054 10.17 8.022
v  0.024 14.367 3.494
v  18.855 10.308 10.454
v  0 0 0
v  0.383 1.41875e-16 -2.317
v  0.019 -1.73716e-16 2.837
v  0.054 -4.91206e-16 8.022
v  0.024 -2.13946e-16 3.494
v  0.054 -4.88879e-16 7.984
v  18.828 -6.51635e-16 10.642
v  20.29 -2.54727e-17 0.416
v  18.855 -6.40123e-16 10.454
v  19.56 -3.37941e-16 5.519
v  0.845 1.38018e-16 -2.254

# 0 UV coordinates

# 32 vertex normals
vn 0.0929809 0.729939 -0.677158
vn 0.0921777 0.73114 -0.675971
vn 0.0929413 0.729977 -0.677123
vn 0.0929483 0.729961 -0.67714
vn 0.0907627 0.730153 -0.677228
vn -0.0926168 0.732386 0.674562
vn -0.0930001 0.729898 0.6772
vn -0.0930255 0.729856 0.677242
vn -0.0902035 0.73407 0.673057
vn -0.0929431 0.729996 0.677102
vn 0.943253 0.163243 0.289182
vn -0.986612 0 -0.163087
vn -0.999974 -0.000492607 0.00715353
vn -0.999977 0.000124511 0.00679678
vn -0.999977 0 0.00676337
vn -0.999991 0.00307538 0.00283257
vn -0.999978 2.70342e-05 0.00669707
vn -0.999977 0 0.00675009
vn -3.6136e-20 -1 -6.12319e-17
vn 6.82059e-20 -1 -6.12328e-17
vn -0.138215 0 0.990402
vn 0.989936 0.000102706 0.141517
vn 0.989934 -0.000685082 0.141529
vn 0.989934 0 0.14153
vn 0 1 6.12274e-17
vn -4.28451e-20 -1 -6.12363e-17
vn 0.136034 0 -0.990704
vn 0.135113 0 -0.99083
vn -7.35221e-24 -1 -6.12323e-17
vn 0 -1 -6.12323e-17
vn 1.40286e-25 -1 -6.12323e-17
vn -6.22043e-21 -1 -6.11842e-17

# Mesh 'defaultobject' with 42 faces
g defaultobject
usemtl DefaultMaterial
f  1//1 2//1 3//1
f  2//2 1//2 4//2
f  2//3 4//3 5//3
f  2//4 5//4 6//4
f  6//5 5//5 7//5
f  8//6 9//6 10//6
f  9//7 8//7 11//7
f  11//8 8//8 7//8
f  7//9 8//9 6//9
f  6//10 8//10 2//10
f  2//11 8//11 12//11
f  4//12 13//12 5//12
f  13//12 4//12 14//12
f  5//13 11//13 7//13
f  11//14 5//14 9//14
f  9//15 5//15 13//15
f  9//16 13//16 10//16
f  10//17 13//17 15//17
f  10//18 15//18 16//18
f  16//19 15//19 17//19
f  16//19 17//19 18//20
f  16//21 8//21 10//21
f  8//21 16//21 19//21
f  12//22 3//22 2//22
f  3//23 12//23 8//23
f  3//24 8//24 19//24
f  3//24 19//24 20//24
f  20//25 19//25 21//25
f  20//26 21//26 22//26
f  20//27 1//27 3//27
f  1//27 20//27 23//27
f  1//28 23//28 4//28
f  4//28 23//28 14//28
f  16//19 21//26 19//29
f  21//26 16//19 22//26
f  22//26 16//19 18//20
f  22//26 18//20 17//19
f  22//26 17//19 20//26
f  20//26 17//19 15//19
f  20//26 15//19 13//30
f  20//26 13//30 14//31
f  20//26 14//31 23//32

