# File produced by Open Asset Import Library (http://www.assimp.sf.net)
# (assimp v3.1.0)

mtllib ID_27971.obj.mtl

# 12 vertex positions
v  4.673 3.747 -7.663
v  9.87 8.069 0.695
v  12.249 3.747 -3.092
v  2.345 8.069 -3.845
v  7.497 3.759 4.472
v  0 3.716 2.27539e-16
v  7.497 -2.73831e-16 4.472
v  0 0 0
v  9.87 -4.25565e-17 0.695
v  12.249 1.8933e-16 -3.092
v  4.673 4.69223e-16 -7.663
v  2.345 2.35438e-16 -3.845

# 0 UV coordinates

# 19 vertex normals
vn 0.359032 0.719026 -0.595061
vn 0.35901 0.719041 -0.595056
vn -0.359067 0.719028 0.595037
vn -0.358987 0.719085 0.595017
vn -0.512287 0 0.858814
vn -0.512287 0 0.858814
vn 0.846749 -0 0.531992
vn 0.846768 -1.92749e-05 0.531963
vn 0.846749 6.3792e-05 0.531992
vn 0.846778 0 0.531947
vn 0.516605 0 -0.856224
vn -0.853775 5.27172e-05 -0.520643
vn -0.853774 3.18802e-17 -0.520643
vn -0.853748 -0.000121616 -0.520686
vn -0.853801 0 -0.520599
vn -5.3522e-24 -1 -6.12323e-17
vn -1.07321e-23 -1 -6.12323e-17
vn 0 -1 -6.12323e-17
vn 0 -1 -6.12323e-17

# Mesh 'defaultobject' with 20 faces
g defaultobject
usemtl DefaultMaterial
f  1//1 2//1 3//1
f  2//2 1//2 4//2
f  5//3 4//3 6//3
f  4//4 5//4 2//4
f  6//5 7//5 5//5
f  7//5 6//5 8//6
f  7//7 2//7 5//7
f  2//8 7//8 3//8
f  3//9 7//9 9//9
f  3//10 9//10 10//10
f  10//11 1//11 3//11
f  1//11 10//11 11//11
f  1//12 6//12 4//12
f  6//13 1//13 8//13
f  8//14 1//14 12//14
f  12//15 1//15 11//15
f  9//16 11//16 10//16
f  11//16 9//16 7//17
f  11//16 7//17 12//18
f  12//18 7//17 8//19

