# File produced by Open Asset Import Library (http://www.assimp.sf.net)
# (assimp v3.1.0)

mtllib ID_39634.obj.mtl

# 8 vertex positions
v  0 2.465 1.50938e-16
v  10.293 2.465 0.722
v  9.481 2.465 -2.286
v  0.625 2.465 3.06
v  9.481 1.39977e-16 -2.286
v  0 0 0
v  0.625 -1.87371e-16 3.06
v  10.293 -4.42097e-17 0.722

# 0 UV coordinates

# 9 vertex normals
vn -0 1 0
vn -0.234397 0 -0.972141
vn -0.234397 5.95265e-17 -0.972141
vn -0.979772 -1.22536e-17 0.200117
vn -0.979772 0 0.200117
vn 0.235053 -0 0.971982
vn 0.965442 0 -0.260618
vn -1.73911e-24 -1 -6.12323e-17
vn 0 -1 -6.12323e-17

# Mesh 'defaultobject' with 12 faces
g defaultobject
usemtl DefaultMaterial
f  1//1 2//1 3//1
f  2//1 1//1 4//1
f  5//2 1//2 3//2
f  1//2 5//2 6//3
f  6//4 4//4 1//4
f  4//4 6//4 7//5
f  7//6 2//6 4//6
f  2//6 7//6 8//6
f  8//7 3//7 2//7
f  3//7 8//7 5//7
f  5//8 7//8 6//8
f  7//8 5//8 8//9

