# File produced by Open Asset Import Library (http://www.assimp.sf.net)
# (assimp v3.1.0)

mtllib ID_40.obj.mtl

# 128 vertex positions
v  94.197 15.143 230.468
v  90.462 15.143 234.796
v  94.959 15.143 233.738
v  89.714 15.143 231.495
v  89.714 -1.4175e-14 231.495
v  90.462 -1.43771e-14 234.796
v  94.959 -1.43123e-14 233.738
v  94.197 -1.41121e-14 230.468
v  46.829 15.182 21.621
v  45.633 15.182 25.335
v  47.591 15.182 24.879
v  43.499 15.182 27.691
v  46.068 15.182 27.092
v  42.359 15.182 22.663
v  42.359 -1.38771e-15 22.663
v  43.499 -1.69558e-15 27.691
v  46.068 -1.65891e-15 27.092
v  45.633 -1.55132e-15 25.335
v  47.591 -1.5234e-15 24.879
v  46.829 -1.3239e-15 21.621
v  63.286 15.092 94.143
v  59.532 15.092 98.394
v  64.021 15.092 97.408
v  58.792 15.092 95.13
v  58.792 -5.82503e-15 95.13
v  59.532 -6.02489e-15 98.394
v  64.021 -5.96452e-15 97.408
v  63.286 -5.7646e-15 94.143
v  73.27 15.096 158.978
v  78.485 15.096 161.251
v  77.741 15.096 157.938
v  74.021 15.096 162.289
v  73.27 -9.7346e-15 158.978
v  74.021 -9.93733e-15 162.289
v  78.485 -9.87378e-15 161.251
v  77.741 -9.67091e-15 157.938
v  37.892 39.131 167.102
v  59.259 39.131 98.454
v  24.1 39.131 106.279
v  59.281 39.131 98.552
v  72.976 39.131 158.943
v  72.998 39.131 159.041
v  62.01 39.131 273.46
v  94.243 39.131 265.36
v  55.162 39.131 243.258
v  62.215 39.131 273.413
v  94.416 39.131 266.101
v  94.211 39.131 266.148
v  74.021 39.131 162.289
v  73.27 39.131 158.978
v  73.751 39.131 162.352
v  38.688 39.131 170.609
v  73.773 39.131 162.45
v  89.468 39.131 231.448
v  54.309 39.131 239.5
v  89.49 39.131 231.546
v  90.232 39.131 234.85
v  90.462 39.131 234.796
v  90.265 39.131 234.996
v  90.329 39.131 235.277
v  97.019 39.131 264.735
v  89.714 39.131 231.495
v  6.911 39.131 30.475
v  6.51 39.131 -1.462
v  0 39.131 2.39608e-15
v  26.082 39.131 -5.856
v  32.417 39.131 -7.278
v  32.571 39.131 -6.592
v  35.323 39.131 -7.049
v  42.055 39.131 22.578
v  8.135 39.131 35.872
v  42.088 39.131 22.726
v  43.499 39.131 27.691
v  43.374 39.131 27.72
v  43.392 39.131 27.798
v  45.674 39.131 37.863
v  45.528 39.131 37.897
v  15.262 39.131 67.303
v  52.196 39.131 67.303
v  23.316 39.131 102.819
v  58.497 39.131 95.092
v  58.519 39.131 95.19
v  58.792 39.131 95.13
v  59.532 39.131 98.394
v  42.359 39.131 22.663
v  35.287 39.131 -7.209
v  0 0 0
v  6.911 -1.86606e-15 30.475
v  8.135 -2.19653e-15 35.872
v  15.262 -4.12112e-15 67.303
v  23.316 -6.29585e-15 102.819
v  24.1 -6.50771e-15 106.279
v  37.892 -1.0232e-14 167.102
v  38.688 -1.04468e-14 170.609
v  54.309 -1.46651e-14 239.5
v  55.162 -1.48953e-14 243.258
v  62.01 -1.67446e-14 273.46
v  62.215 -1.67417e-14 273.413
v  94.211 -1.62969e-14 266.148
v  94.416 -1.6294e-14 266.101
v  94.243 -1.62486e-14 265.36
v  97.019 -1.62103e-14 264.735
v  90.232 -1.43804e-14 234.85
v  73.751 -9.94119e-15 162.352
v  59.259 -6.02857e-15 98.454
v  45.528 -2.32052e-15 37.897
v  45.674 -2.31844e-15 37.863
v  43.374 -1.69736e-15 27.72
v  90.329 -1.44066e-14 235.277
v  90.265 -1.43894e-14 234.996
v  89.49 -1.41781e-14 231.546
v  89.468 -1.41721e-14 231.448
v  73.773 -9.94719e-15 162.45
v  72.998 -9.73845e-15 159.041
v  72.976 -9.73245e-15 158.943
v  59.281 -6.03457e-15 98.552
v  58.519 -5.82871e-15 95.19
v  58.497 -5.82271e-15 95.092
v  52.196 -4.12112e-15 67.303
v  43.392 -1.70214e-15 27.798
v  42.088 -1.39157e-15 22.726
v  42.055 -1.3825e-15 22.578
v  35.323 4.31627e-16 -7.049
v  35.287 4.41424e-16 -7.209
v  32.571 4.03644e-16 -6.592
v  32.417 4.45649e-16 -7.278
v  6.51 8.95217e-17 -1.462
v  26.082 3.58577e-16 -5.856

# 0 UV coordinates

# 141 vertex normals
vn 0 1 -0
vn -0.975275 0 0.220995
vn 0.229015 -0 0.973423
vn 0.973907 0 -0.226947
vn -0.223301 0 -0.974749
vn 2.3023e-22 -1 -6.12321e-17
vn 2.81119e-22 -1 -6.12322e-17
vn -0.975247 0 0.221118
vn 0.227074 -0 0.973877
vn 0.22682 -0 0.973937
vn 0.970692 0 -0.240326
vn 0.973722 0 -0.22774
vn -0.227023 0 -0.973889
vn -3.93507e-24 -1 -6.12324e-17
vn 3.4677e-23 -1 -6.12323e-17
vn -5.96004e-23 -1 -6.12324e-17
vn -0.97525 0 0.221105
vn 0.214534 -0 0.976717
vn 0.975585 0 -0.21962
vn -0.214513 0 -0.976721
vn -2.40653e-23 -1 -6.12324e-17
vn -1.97904e-22 -1 -6.12325e-17
vn -0.975228 0 0.221203
vn 0.226484 -0 0.974015
vn 0.975699 0 -0.219113
vn -0.22656 0 -0.973997
vn -8.16556e-23 -1 -6.12319e-17
vn 1.05294e-22 -1 -6.12323e-17
vn -0.975237 -1.35422e-17 0.221161
vn -0.975237 0 0.221161
vn -0.975234 0 0.221176
vn -0.975243 5.64121e-06 0.221137
vn -0.975234 -3.28353e-05 0.221176
vn -0.975243 0 0.221137
vn -0.975239 0 0.221156
vn -0.975277 0 0.220988
vn -0.975242 -1.4357e-05 0.221142
vn -0.975276 0.000252362 0.220988
vn -0.975242 0 0.221142
vn -0.975195 0 0.221346
vn -0.975243 1.97814e-05 0.221136
vn -0.975195 -0.000388619 0.221346
vn -0.975243 0 0.221136
vn -0.975194 0 0.221352
vn -0.975245 2.27497e-05 0.221127
vn -0.975194 -0.000182748 0.221352
vn -0.975245 0 0.221127
vn 0.223455 -0 0.974714
vn 0.221423 1.12026e-05 0.975178
vn 0.223455 -0.00174763 0.974713
vn 0.223454 -0.00174837 0.974713
vn 0.219646 -0 0.97558
vn 0.228575 -0 0.973526
vn 0.227238 -0 0.973839
vn 0.214673 -0 0.976686
vn 0.22681 -0 0.973939
vn 0.225993 -0 0.974129
vn 0.973813 0 -0.227351
vn 0.975169 0 -0.221464
vn 0.975027 -0.000494266 -0.222088
vn 0.975397 0.000812036 -0.220453
vn 0.975168 0 -0.221465
vn 8.30362e-17 1 4.23806e-17
vn 4.35881e-18 -1 -6.22281e-17
vn 0.975275 0 -0.220995
vn 0.975729 0 -0.218981
vn 0.975091 -7.43047e-06 -0.221804
vn 0.975713 0.00521772 -0.218989
vn 0.975091 0 -0.221804
vn 0.975706 0 -0.219086
vn 0.975228 0 -0.221203
vn 0.975713 0 -0.219053
vn 0.975238 -5.5362e-06 -0.221157
vn 0.975707 0.0034006 -0.219051
vn 0.975238 0 -0.221157
vn 0.975717 0 -0.219033
vn 0.97525 0 -0.221105
vn 0.975244 -5.52039e-06 -0.221131
vn 0.975242 -1.38117e-05 -0.221142
vn 0.975715 0.00324555 -0.21902
vn 0.975244 8.75829e-06 -0.221131
vn 0.975242 0 -0.221142
vn 0.975248 0 -0.221115
vn 0.974398 -0.00100522 -0.22483
vn 0.975241 0 -0.221143
vn -6.06306e-19 1 6.13698e-17
vn 0.975247 0 -0.221118
vn 0.976031 0 -0.217634
vn 0.975143 -1.5663e-05 -0.221577
vn 0.975604 0.00162204 -0.21953
vn 0.976026 0.00314761 -0.217632
vn 0.975143 -8.79626e-06 -0.221577
vn 0.975606 0 -0.21953
vn 0.975716 0 -0.219037
vn -0.22204 0 -0.975037
vn -0.22566 0 -0.974206
vn -0.214676 0 -0.976685
vn -0.226433 0 -0.974027
vn -0.221528 0 -0.975154
vn -0.219017 0 -0.975721
vn -0.219052 -5.86588e-06 -0.975713
vn -0.21912 -5.31394e-05 -0.975698
vn -0.219043 1.33533e-05 -0.975715
vn -0.21912 5.97443e-17 -0.975698
vn -2.30146e-20 1 6.12188e-17
vn 1.01565e-24 -1 -6.12323e-17
vn 0 -1 -6.12323e-17
vn 6.67955e-23 -1 -6.12323e-17
vn -2.9069e-22 -1 -6.12327e-17
vn 0 -1 -6.12323e-17
vn -1.14911e-21 -1 -6.12314e-17
vn -4.64393e-24 -1 -6.12323e-17
vn -2.12461e-24 -1 -6.12323e-17
vn 0 -1 -6.12324e-17
vn -2.89121e-19 -1 -6.18718e-17
vn -5.81306e-24 -1 -6.12323e-17
vn 0 -1 -6.12304e-17
vn -3.67808e-23 -1 -6.12324e-17
vn 0 -1 -6.12323e-17
vn 4.9518e-24 -1 -6.12323e-17
vn 1.74001e-23 -1 -6.12323e-17
vn 0 -1 -6.12327e-17
vn 1.757e-23 -1 -6.12323e-17
vn 9.0495e-24 -1 -6.12323e-17
vn -7.52056e-21 -1 -6.12362e-17
vn -4.55701e-24 -1 -6.12323e-17
vn 2.69737e-23 -1 -6.12322e-17
vn -2.34171e-22 -1 -6.12324e-17
vn 7.9664e-23 -1 -6.1232e-17
vn 1.33155e-24 -1 -6.12323e-17
vn 0 -1 -6.12329e-17
vn 1.59299e-23 -1 -6.12323e-17
vn -3.65637e-23 -1 -6.12326e-17
vn 0 -1 -6.12332e-17
vn 7.28133e-23 -1 -6.12324e-17
vn -2.0301e-23 -1 -6.12324e-17
vn 1.45349e-22 -1 -6.12324e-17
vn 2.6702e-20 -1 -6.1126e-17
vn 6.86614e-22 -1 -6.12295e-17
vn 3.0029e-21 -1 -6.12294e-17
vn 1.91948e-21 -1 -6.12328e-17

# Mesh 'defaultobject' with 252 faces
g defaultobject
usemtl DefaultMaterial
f  1//1 2//1 3//1
f  2//1 1//1 4//1
f  5//2 2//2 4//2
f  2//2 5//2 6//2
f  6//3 3//3 2//3
f  3//3 6//3 7//3
f  7//4 1//4 3//4
f  1//4 7//4 8//4
f  8//5 4//5 1//5
f  4//5 8//5 5//5
f  5//6 7//6 6//6
f  7//6 5//6 8//7
f  9//1 10//1 11//1
f  10//1 12//1 13//1
f  12//1 10//1 9//1
f  12//1 9//1 14//1
f  15//8 12//8 14//8
f  12//8 15//8 16//8
f  16//9 13//9 12//9
f  13//9 16//9 17//9
f  18//10 11//10 10//10
f  11//10 18//10 19//10
f  17//11 10//11 13//11
f  10//11 17//11 18//11
f  19//12 9//12 11//12
f  9//12 19//12 20//12
f  20//13 14//13 9//13
f  14//13 20//13 15//13
f  19//14 18//14 20//14
f  20//14 16//15 15//15
f  16//15 20//14 18//14
f  16//15 18//14 17//16
f  21//1 22//1 23//1
f  22//1 21//1 24//1
f  25//17 22//17 24//17
f  22//17 25//17 26//17
f  26//18 23//18 22//18
f  23//18 26//18 27//18
f  27//19 21//19 23//19
f  21//19 27//19 28//19
f  28//20 24//20 21//20
f  24//20 28//20 25//20
f  28//21 26//21 25//21
f  26//21 28//21 27//22
f  29//1 30//1 31//1
f  30//1 29//1 32//1
f  33//23 32//23 29//23
f  32//23 33//23 34//23
f  34//24 30//24 32//24
f  30//24 34//24 35//24
f  35//25 31//25 30//25
f  31//25 35//25 36//25
f  36//26 29//26 31//26
f  29//26 36//26 33//26
f  33//27 35//27 34//27
f  35//27 33//27 36//28
f  37//1 38//1 39//1
f  38//1 37//1 40//1
f  40//1 37//1 41//1
f  41//1 37//1 42//1
f  43//1 44//1 45//1
f  44//1 43//1 46//1
f  44//1 46//1 47//1
f  47//1 46//1 48//1
f  42//1 49//1 50//1
f  49//1 42//1 37//1
f  49//1 37//1 51//1
f  51//1 37//1 52//1
f  51//1 52//1 53//1
f  53//1 52//1 54//1
f  54//1 52//1 55//1
f  54//1 55//1 56//1
f  56//1 55//1 45//1
f  56//1 45//1 57//1
f  56//1 57//1 58//1
f  57//1 45//1 59//1
f  59//1 45//1 60//1
f  60//1 45//1 61//1
f  61//1 45//1 44//1
f  58//1 62//1 56//1
f  63//1 64//1 65//1
f  64//1 63//1 66//1
f  66//1 63//1 67//1
f  67//1 63//1 68//1
f  68//1 63//1 69//1
f  69//1 63//1 70//1
f  70//1 63//1 71//1
f  70//1 71//1 72//1
f  72//1 71//1 73//1
f  73//1 71//1 74//1
f  74//1 71//1 75//1
f  75//1 71//1 76//1
f  76//1 71//1 77//1
f  77//1 71//1 78//1
f  77//1 78//1 79//1
f  79//1 78//1 80//1
f  79//1 80//1 81//1
f  81//1 80//1 39//1
f  81//1 39//1 82//1
f  82//1 39//1 83//1
f  83//1 39//1 38//1
f  83//1 38//1 84//1
f  73//1 85//1 72//1
f  69//1 86//1 68//1
f  87//29 63//29 65//29
f  63//29 87//29 88//30
f  63//31 88//31 71//31
f  71//32 88//32 78//32
f  78//33 88//33 89//33
f  78//32 89//34 90//34
f  78//35 90//35 80//35
f  80//35 90//35 91//35
f  80//36 91//36 39//36
f  39//37 91//37 37//37
f  37//38 91//38 92//38
f  37//39 92//39 93//39
f  37//40 93//40 52//40
f  52//41 93//41 55//41
f  55//42 93//42 94//42
f  55//43 94//43 95//43
f  55//44 95//44 45//44
f  45//45 95//45 43//45
f  43//46 95//46 96//46
f  43//47 96//47 97//47
f  97//48 46//48 43//48
f  46//49 97//49 48//49
f  48//50 97//50 47//50
f  47//50 97//50 98//51
f  47//49 98//49 99//49
f  47//48 99//48 100//48
f  101//52 61//52 44//52
f  61//52 101//52 102//52
f  103//53 58//53 57//53
f  58//53 103//53 6//53
f  104//54 49//54 51//54
f  49//54 104//54 34//54
f  105//55 84//55 38//55
f  84//55 105//55 26//55
f  106//56 76//56 77//56
f  76//56 106//56 107//56
f  108//57 73//57 74//57
f  73//57 108//57 16//57
f  100//58 44//58 47//58
f  44//58 100//58 101//58
f  102//59 60//59 61//59
f  60//60 102//60 59//60
f  59//61 102//61 57//61
f  57//62 102//59 103//62
f  103//63 102//63 109//63
f  103//64 109//64 110//64
f  6//65 62//65 58//65
f  62//65 6//65 5//65
f  111//66 54//66 56//66
f  54//67 111//67 53//67
f  53//68 111//68 112//68
f  53//67 112//69 113//69
f  53//70 113//70 51//70
f  51//70 113//70 104//70
f  34//71 50//71 49//71
f  50//71 34//71 33//71
f  114//72 41//72 42//72
f  41//73 114//73 40//73
f  40//74 114//74 115//74
f  40//73 115//75 116//75
f  40//76 116//76 38//76
f  38//76 116//76 105//76
f  26//77 83//77 84//77
f  83//77 26//77 25//77
f  117//76 81//76 82//76
f  81//78 117//78 79//78
f  79//79 117//79 77//79
f  77//80 117//80 118//80
f  77//81 118//81 119//81
f  77//82 119//82 106//82
f  107//83 75//83 76//83
f  75//84 107//84 74//84
f  74//85 107//85 108//85
f  108//86 107//86 120//86
f  16//87 85//87 73//87
f  85//87 16//87 15//87
f  121//88 70//88 72//88
f  70//89 121//89 69//89
f  69//90 121//90 86//90
f  86//91 121//91 122//91
f  86//92 122//92 123//92
f  86//93 123//93 124//93
f  125//94 67//94 68//94
f  67//94 125//94 126//94
f  5//95 56//95 62//95
f  56//95 5//95 111//95
f  33//96 42//96 50//96
f  42//96 33//96 114//96
f  25//97 82//97 83//97
f  82//97 25//97 117//97
f  15//98 72//98 85//98
f  72//98 15//98 121//98
f  124//99 68//99 86//99
f  68//99 124//99 125//99
f  126//100 66//100 67//100
f  66//101 126//101 64//101
f  64//102 126//102 65//102
f  65//103 126//103 127//103
f  65//104 127//104 87//104
f  127//105 126//105 128//105
f  127//106 88//106 87//106
f  88//106 127//106 128//107
f  88//106 128//107 126//108
f  88//106 126//108 125//109
f  88//106 125//109 124//110
f  88//106 124//110 123//111
f  88//106 123//111 122//112
f  88//106 122//112 89//113
f  89//113 122//112 121//114
f  89//113 121//114 15//15
f  89//113 15//15 16//15
f  89//113 16//15 108//115
f  108//115 90//116 89//113
f  90//116 108//115 120//117
f  90//116 120//117 106//118
f  90//116 106//118 119//119
f  90//116 119//119 91//114
f  91//114 119//119 118//120
f  91//114 118//120 92//121
f  92//121 118//120 117//122
f  92//121 117//122 25//21
f  92//121 25//21 105//123
f  105//123 25//21 26//21
f  105//123 93//124 92//121
f  93//124 105//123 116//125
f  93//124 116//125 115//126
f  93//124 115//126 94//127
f  94//127 115//126 114//128
f  94//127 114//128 33//27
f  94//127 33//27 104//129
f  104//129 33//27 34//27
f  104//129 95//130 94//127
f  95//130 104//129 113//131
f  95//130 113//131 112//132
f  95//130 112//132 96//133
f  96//133 112//132 111//134
f  96//133 111//134 5//6
f  96//133 5//6 103//64
f  103//64 5//6 6//6
f  103//64 97//135 96//133
f  97//135 103//64 110//64
f  97//135 110//64 109//64
f  97//135 109//64 101//136
f  101//136 109//64 102//137
f  97//135 101//136 98//138
f  101//136 99//139 98//138
f  99//139 101//136 100//140
f  107//141 106//118 120//117

