# File produced by Open Asset Import Library (http://www.assimp.sf.net)
# (assimp v3.1.0)

mtllib ID_43405.obj.mtl

# 11 vertex positions
v  0 1.803 1.10402e-16
v  5.807 2.805 0.245
v  5.105 1.803 -1.775
v  2.722 2.805 1.317
v  1.404 1.803 4.039
v  6.509 1.803 2.265
v  5.105 1.08687e-16 -1.775
v  5.807 -1.50019e-17 0.245
v  6.509 -1.38691e-16 2.265
v  0 0 0
v  1.404 -2.47317e-16 4.039

# 0 UV coordinates

# 17 vertex normals
vn -0.139341 0.905528 -0.400753
vn -0.13932 0.905451 -0.400935
vn 0.139271 0.905528 0.400778
vn 0.139262 0.905533 0.400769
vn -0.400739 0.90554 0.139301
vn 0.944585 0 -0.328267
vn 0.944585 -1.1714e-07 -0.328267
vn 0.944585 2.4734e-07 -0.328267
vn 0.944585 0 -0.328267
vn -0.328413 0 -0.944534
vn -0.328413 5.7836e-17 -0.944534
vn -0.94456 -2.0105e-17 0.328339
vn -0.94456 0 0.328339
vn 0.328248 -0 0.944592
vn -2.86267e-25 -1 -6.12323e-17
vn -2.86267e-25 -1 -6.12323e-17
vn 0 -1 -6.12323e-17

# Mesh 'defaultobject' with 18 faces
g defaultobject
usemtl DefaultMaterial
f  1//1 2//1 3//1
f  2//2 1//2 4//2
f  2//3 5//3 6//3
f  5//4 2//4 4//4
f  4//5 1//5 5//5
f  2//6 7//6 3//6
f  7//6 2//6 6//7
f  7//6 6//7 8//8
f  8//8 6//7 9//9
f  7//10 1//10 3//10
f  1//10 7//10 10//11
f  10//12 5//12 1//12
f  5//12 10//12 11//13
f  11//14 6//14 5//14
f  6//14 11//14 9//14
f  8//15 10//15 7//15
f  10//15 8//15 9//16
f  10//15 9//16 11//17

