# File produced by Open Asset Import Library (http://www.assimp.sf.net)
# (assimp v3.1.0)

mtllib ID_7816.obj.mtl

# 36 vertex positions
v  8.569 10.477 -7.452
v  10.771 9.495 -3.191
v  9.639 9.73 -6.629
v  11.144 9.242 -2.868
v  11.056 9.238 -3.239
v  16.108 9.473 18.022
v  7.977 11.125 -6.823
v  4.799 14.464 -4.105
v  10.657 14.464 19.291
v  0.35 9.79 -0.299
v  0.139 9.521 0.102
v  0 9.423 5.76992e-16
v  0.965 9.49 3.546
v  4.979 9.336 20.288
v  4.838 9.149 20.589
v  5.426 9.675 20.509
v  4.808 9.109 20.653
v  4.852 9.149 20.643
v  0.139 -6.2457e-18 0.102
v  0 0 0
v  4.979 -1.24228e-15 20.288
v  0.965 -2.1713e-16 3.546
v  4.808 -1.26463e-15 20.653
v  4.838 -1.26071e-15 20.589
v  7.977 4.17788e-16 -6.823
v  8.569 4.56303e-16 -7.452
v  4.799 2.51359e-16 -4.105
v  0.35 1.83085e-17 -0.299
v  4.852 -1.26402e-15 20.643
v  16.108 -1.10353e-15 18.022
v  5.426 -1.25581e-15 20.509
v  10.657 -1.18123e-15 19.291
v  11.144 1.75614e-16 -2.868
v  11.056 1.98332e-16 -3.239
v  9.639 4.05909e-16 -6.629
v  10.771 1.95392e-16 -3.191

# 0 UV coordinates

# 51 vertex normals
vn 0.645409 0.746574 -0.161477
vn 0.645808 0.746282 -0.16123
vn 0.646052 0.745955 -0.161767
vn 0.645664 0.746312 -0.161669
vn 0.645442 0.74652 -0.161595
vn 0.645739 0.746238 -0.161711
vn 0.645681 0.746297 -0.161669
vn -0.645706 0.746274 0.161675
vn -0.645296 0.746697 0.161357
vn -0.645092 0.746831 0.161555
vn -0.645517 0.746467 0.161538
vn -0.645648 0.746327 0.161663
vn -0.645748 0.746345 0.161182
vn -0.645669 0.746339 0.16152
vn -0.645218 0.746203 0.163936
vn -0.382439 0.596992 0.705224
vn -0.591615 0 0.806221
vn -0.972423 0 0.233223
vn -0.972441 2.85236e-05 0.233149
vn -0.972438 0 0.233162
vn -3.61636e-19 -1 -6.11165e-17
vn -0.905567 0 -0.424203
vn -0.905461 9.14726e-06 -0.424431
vn -0.905548 -0 -0.424243
vn 4.88142e-18 -1 -5.89367e-17
vn -0.7282 0 -0.685365
vn -0.7282 0 -0.685365
vn -0.649964 0 -0.759965
vn -0.650042 -2.96267e-05 -0.759899
vn -0.649755 0.000357393 -0.760144
vn -0.649964 5.10177e-05 -0.759965
vn -0.650022 4.65314e-17 -0.759916
vn 0 -1 -6.12301e-17
vn 0.226757 2.19343e-05 0.973951
vn 0.226769 0.000651432 0.973948
vn 0.226951 -0.00616932 0.973887
vn 0.226766 0 0.973949
vn 0.221623 0.00646123 0.975111
vn 0.226787 0 0.973945
vn -2.76038e-20 -1 -6.13355e-17
vn -8.98966e-20 -1 -6.15792e-17
vn 0.972909 0 -0.231188
vn 0.972909 0 -0.231188
vn 0.973003 0 -0.230794
vn 0.949837 0 -0.312745
vn 0.949837 0 -0.312745
vn -0.166082 0 -0.986112
vn -0.166082 0 -0.986112
vn 0.609675 0 -0.792651
vn -2.25679e-23 -1 -6.12323e-17
vn 5.70348e-24 -1 -6.12324e-17

# Mesh 'defaultobject' with 68 faces
g defaultobject
usemtl DefaultMaterial
f  1//1 2//1 3//1
f  2//2 4//2 5//2
f  4//3 2//3 6//3
f  6//4 2//4 1//4
f  6//5 1//5 7//5
f  6//6 7//6 8//6
f  6//7 8//7 9//7
f  10//8 9//8 8//8
f  9//9 10//9 11//9
f  11//10 10//10 12//10
f  9//11 11//11 13//11
f  9//12 13//12 14//12
f  9//13 14//13 15//13
f  9//14 15//14 16//14
f  16//15 15//15 17//15
f  16//16 17//16 18//16
f  12//17 19//17 11//17
f  19//17 12//17 20//17
f  19//18 13//18 11//18
f  13//19 19//19 14//19
f  14//20 19//20 21//20
f  21//21 19//21 22//21
f  21//22 15//22 14//22
f  15//23 21//23 17//23
f  17//24 21//24 23//24
f  23//25 21//21 24//25
f  1//26 25//26 7//26
f  25//26 1//26 26//27
f  25//28 8//28 7//28
f  8//29 25//29 10//29
f  10//30 25//30 12//30
f  12//31 25//31 27//31
f  12//32 27//32 20//32
f  20//33 27//33 28//33
f  16//34 6//34 9//34
f  6//35 16//35 18//35
f  6//36 18//36 17//36
f  6//37 17//37 23//37
f  6//38 23//38 29//38
f  6//39 29//39 30//39
f  30//40 29//40 31//40
f  30//40 31//40 32//41
f  30//42 4//42 6//42
f  4//42 30//42 33//43
f  4//44 33//44 5//44
f  5//44 33//44 34//44
f  2//45 35//45 3//45
f  35//45 2//45 36//46
f  5//47 36//47 2//47
f  36//47 5//47 34//48
f  3//49 26//49 1//49
f  26//49 3//49 35//49
f  33//50 36//50 34//50
f  35//51 25//51 26//51
f  25//51 35//51 36//50
f  25//51 36//50 27//33
f  27//33 36//50 33//50
f  27//33 33//50 30//40
f  27//33 30//40 28//33
f  28//33 30//40 19//21
f  28//33 19//21 20//33
f  19//21 30//40 22//21
f  22//21 30//40 21//21
f  21//21 30//40 32//41
f  21//21 32//41 31//40
f  21//21 31//40 24//25
f  24//25 31//40 29//40
f  24//25 29//40 23//25

