# {"id":"ID_20550","idOriginal":"ID_20550","origin":[14.282524545684032,48.28475687156511],"elevation":282.271}
# Longitude: 14.282524545684032
# Latitude: 48.28475687156511
# Elevation: 282.271

# File produced by Open Asset Import Library (http://www.assimp.sf.net)
# (assimp v3.1.0)

mtllib ID_20550.obj.mtl

# 20 vertex positions
v  6.101 12.333 2.294
v  14.073 8.951 -5.76
v  9.6 12.333 -7.35
v  15.726 7.701 -5.172
v  15.716 7.701 -5.142
v  15.501 7.69 -4.504
v  12.203 7.689 4.588
v  0 7.69 4.70877e-16
v  7.912 11.057 -7.95
v  3.469 7.69 -9.562
v  3.469 5.85504e-16 -9.562
v  0 0 0
v  6.101 -1.40467e-16 2.294
v  12.203 -2.80934e-16 4.588
v  15.501 2.7579e-16 -4.504
v  15.726 3.16694e-16 -5.172
v  15.716 3.14857e-16 -5.142
v  14.073 3.52698e-16 -5.76
v  9.6 4.50058e-16 -7.35
v  7.912 4.86797e-16 -7.95

# 0 UV coordinates

# 33 vertex normals
vn 0.54545 0.814445 0.197898
vn 0.545467 0.814428 0.197922
vn 0.535695 0.825314 0.178571
vn 0.545384 0.814505 0.197832
vn 0.545432 0.814448 0.197938
vn -0.545427 0.814466 -0.197876
vn -0.545388 0.814505 -0.197821
vn -0.545421 0.814467 -0.197888
vn -0.940049 0 -0.34104
vn -0.940049 2.08827e-17 -0.34104
vn -0.351947 -5.73147e-17 0.93602
vn -0.35191 -2.07335e-05 0.936034
vn -0.351947 4.57836e-05 0.93602
vn -0.351897 0 0.936039
vn 0.940065 0 0.340996
vn 0.940065 0 0.340996
vn 0.947639 -0 0.319344
vn 0.94868 -0.000286509 0.316237
vn 0.947686 0 0.319205
vn -4.1494e-20 1 6.12184e-17
vn 0.335145 0 -0.942167
vn 0.334901 -5.07638e-05 -0.942253
vn 0.334941 -2.84704e-05 -0.942239
vn 0.338944 0.00316176 -0.940801
vn 0.335142 -0.00367278 -0.94216
vn 0.334932 -0.00399901 -0.942234
vn 0.339377 0 -0.940651
vn 9.5803e-22 -1 -6.12335e-17
vn -3.54167e-23 -1 -6.12322e-17
vn 1.68083e-23 -1 -6.12324e-17
vn 6.18248e-24 -1 -6.12323e-17
vn 1.27061e-23 -1 -6.12323e-17
vn -6.3883e-24 -1 -6.12323e-17

# Mesh 'defaultobject' with 36 faces
g defaultobject
usemtl DefaultMaterial
f  1//1 2//1 3//1
f  2//2 1//2 4//2
f  4//3 1//3 5//3
f  5//4 1//4 6//4
f  6//5 1//5 7//5
f  8//6 9//6 10//6
f  9//7 8//7 3//7
f  3//8 8//8 1//8
f  11//9 8//9 10//9
f  8//9 11//9 12//10
f  12//11 1//11 8//11
f  1//12 12//12 7//12
f  7//13 12//13 13//13
f  7//14 13//14 14//14
f  7//15 15//15 6//15
f  15//15 7//15 14//16
f  15//17 5//17 6//17
f  5//18 15//18 4//18
f  4//19 15//19 16//19
f  16//20 15//20 17//20
f  16//21 2//21 4//21
f  2//22 16//22 3//22
f  3//23 16//23 9//23
f  9//24 16//24 10//24
f  10//25 16//25 18//25
f  10//26 18//26 19//26
f  10//27 19//27 11//27
f  11//28 19//28 20//28
f  17//29 18//29 16//29
f  18//29 17//29 15//30
f  18//29 15//30 14//31
f  18//29 14//31 19//28
f  19//28 14//31 20//28
f  20//28 14//31 13//32
f  20//28 13//32 11//28
f  11//28 13//32 12//33

