# {"id":"ID_54645","idOriginal":"ID_54645","origin":[14.306004679311366,48.23217761180977],"elevation":262.649}
# Longitude: 14.306004679311366
# Latitude: 48.23217761180977
# Elevation: 262.649

# File produced by Open Asset Import Library (http://www.assimp.sf.net)
# (assimp v3.1.0)

mtllib ID_54645.obj.mtl

# 8 vertex positions
v  0.956 2.423 1.024
v  4.574 2.423 -3.747
v  0 2.423 1.48366e-16
v  5.45 2.423 -2.813
v  0 0 0
v  0.956 -6.27019e-17 1.024
v  5.45 1.72247e-16 -2.813
v  4.574 2.29438e-16 -3.747

# 0 UV coordinates

# 9 vertex normals
vn 0 1 0
vn -0.73096 -4.17862e-17 0.68242
vn -0.73096 0 0.68242
vn 0.649327 -0 0.760509
vn 0.729391 0 -0.684097
vn -0.633707 0 -0.773573
vn -0.633707 4.73677e-17 -0.773573
vn 0 -1 -6.12323e-17
vn 1.40078e-23 -1 -6.12323e-17

# Mesh 'defaultobject' with 12 faces
g defaultobject
usemtl DefaultMaterial
f  1//1 2//1 3//1
f  2//1 1//1 4//1
f  5//2 1//2 3//2
f  1//2 5//2 6//3
f  6//4 4//4 1//4
f  4//4 6//4 7//4
f  7//5 2//5 4//5
f  2//5 7//5 8//5
f  8//6 3//6 2//6
f  3//6 8//6 5//7
f  8//8 6//8 5//8
f  6//8 8//8 7//9

