# File produced by Open Asset Import Library (http://www.assimp.sf.net)
# (assimp v3.1.0)

mtllib ID_230.obj.mtl

# 80 vertex positions
v  41.839 7.812 -8.919
v  51.272 13.17 -3.526
v  57.56 7.812 -12.27
v  43.362 13.17 -1.839
v  15.961 13.17 4.002
v  40.413 7.812 -8.615
v  15.818 7.812 -3.372
v  14.382 7.812 -3.066
v  8.721 13.17 5.545
v  0 7.812 4.78347e-16
v  18.051 13.17 47.298
v  9.458 7.811 42.327
v  12.35 7.811 55.27
v  16.594 13.17 40.778
v  3.18 7.811 14.233
v  10.322 13.17 12.71
v  60.24 13.17 38.141
v  53.721 7.819 46.29
v  69.409 7.819 42.884
v  52.336 13.17 39.856
v  26.72 7.819 52.151
v  25.285 13.17 45.728
v  69.43 7.805 42.88
v  60.628 7.805 1.986
v  52.817 13.17 3.652
v  61.176 7.805 4.531
v  58.834 13.17 31.609
v  61.785 7.805 7.36
v  65.271 7.805 23.558
v  65.873 7.805 26.354
v  66.64 7.805 29.915
v  45.02 7.827 5.23
v  45.037 7.827 5.31
v  51.005 7.789 33.309
v  44.978 7.798 5.239
v  44.89 7.798 5.257
v  17.534 7.834 11.04
v  17.405 7.834 11.067
v  17.39 7.845 11.07
v  23.725 7.834 39.351
v  23.64 7.898 39.37
v  23.614 7.898 39.254
v  17.418 7.846 11.197
v  23.854 7.834 39.323
v  50.946 7.797 33.396
v  51.02 7.797 33.38
v  69.43 -2.62564e-15 42.88
v  66.64 -1.83177e-15 29.915
v  65.873 -1.61372e-15 26.354
v  65.271 -1.44251e-15 23.558
v  61.785 -4.5067e-16 7.36
v  61.176 -2.77444e-16 4.531
v  60.628 -1.21607e-16 1.986
v  57.56 7.51321e-16 -12.27
v  41.839 5.46131e-16 -8.919
v  40.413 5.27517e-16 -8.615
v  15.818 2.06475e-16 -3.372
v  14.382 1.87738e-16 -3.066
v  0 0 0
v  3.18 -8.7152e-16 14.233
v  9.458 -2.59178e-15 42.327
v  12.35 -3.38431e-15 55.27
v  69.409 -2.62589e-15 42.884
v  26.72 -3.19333e-15 52.151
v  53.721 -2.83444e-15 46.29
v  51.02 -2.04394e-15 33.38
v  51.005 -2.03959e-15 33.309
v  45.037 -3.25144e-16 5.31
v  45.02 -3.20245e-16 5.23
v  44.978 -3.20796e-16 5.239
v  44.89 -3.21898e-16 5.257
v  17.534 -6.76005e-16 11.04
v  17.405 -6.77658e-16 11.067
v  17.39 -6.77842e-16 11.07
v  17.418 -6.85618e-16 11.197
v  23.614 -2.40361e-15 39.254
v  23.64 -2.41072e-15 39.37
v  23.725 -2.40955e-15 39.351
v  23.854 -2.40784e-15 39.323
v  50.946 -2.04492e-15 33.396

# 0 UV coordinates

# 123 vertex normals
vn -0.124002 0.80386 -0.581749
vn -0.124059 0.803897 -0.581686
vn -0.123999 0.803897 -0.581699
vn -0.124013 0.803881 -0.581719
vn -0.124005 0.80389 -0.581707
vn -0.123958 0.803894 -0.581712
vn -0.123974 0.803894 -0.581708
vn -0.124014 0.803877 -0.581723
vn -0.577416 0.806192 0.129019
vn -0.577421 0.806186 0.129034
vn -0.577421 0.806186 0.129033
vn -0.577412 0.806193 0.129027
vn -0.577405 0.806193 0.129063
vn -0.57736 0.806233 0.129009
vn 0.133857 0.775857 0.616545
vn 0.133768 0.775904 0.616505
vn 0.13382 0.775904 0.616494
vn 0.133825 0.775898 0.616501
vn 0.1334 0.775896 0.616595
vn 0.133918 0.775448 0.617046
vn 0.53897 0.836593 -0.0980989
vn 0.544959 0.830278 -0.116872
vn 0.54513 0.8301 -0.117334
vn 0.545121 0.8301 -0.117378
vn 0.54512 0.830108 -0.117323
vn 0.545059 0.830146 -0.117335
vn 0.545127 0.830104 -0.117318
vn 0.545089 0.830123 -0.117361
vn 0.545066 0.830133 -0.117401
vn 0.545088 0.830133 -0.1173
vn 0.545114 0.830111 -0.117335
vn -0.545104 0.830118 0.117329
vn -0.545401 0.830125 0.115884
vn -0.545096 0.830125 0.117317
vn -0.545089 0.83013 0.117313
vn -0.547693 0.828785 0.114666
vn 0.124075 0.803839 0.581763
vn 0.119216 0.803795 0.582839
vn 0.124051 0.80381 0.581809
vn 0.124009 0.803861 0.581747
vn 0.121862 0.803848 0.582218
vn 0.123989 0.803842 0.581778
vn 0.572278 0.811896 -0.115428
vn 0.577433 0.806178 -0.129026
vn 0.578052 0.805841 -0.128363
vn 0.577423 0.806184 -0.129035
vn 0.577346 0.80618 -0.129402
vn 0.577432 0.806181 -0.129012
vn 0.57738 0.806217 -0.12902
vn 0.576418 0.806188 -0.133431
vn -0.133801 0.775898 -0.616506
vn -0.133814 0.775898 -0.616503
vn -0.133815 0.775898 -0.616503
vn -0.13383 0.775877 -0.616527
vn -0.133315 0.775877 -0.616638
vn -0.133776 0.775874 -0.616542
vn -0.562443 0.826436 0.0257032
vn -0.544513 0.830523 0.117206
vn 0.97762 0 -0.210379
vn 0.977581 0 -0.21056
vn 0.977597 0 -0.210483
vn 0.977616 0 -0.210395
vn 0.977605 0 -0.21045
vn 0.977594 0 -0.2105
vn 0.977617 0 -0.210391
vn 0.977617 0 -0.210391
vn -0.208471 0 -0.978029
vn -0.208498 -0 -0.978023
vn -0.208489 -0 -0.978025
vn -0.208413 -0 -0.978041
vn -0.208498 -0 -0.978023
vn -0.208498 5.98866e-17 -0.978023
vn -0.975938 -1.33516e-17 0.218048
vn -0.975938 0 0.218048
vn -0.97593 0 0.218085
vn -0.975934 0 0.218064
vn 0.186981 -0 0.982364
vn 0.186981 0 0.982364
vn 0.212111 -0 0.977246
vn 0.212111 0 0.977246
vn 0.212126 0 0.977242
vn 0.212166 0 0.977234
vn -0.978407 0 0.206689
vn -0.978029 1.69428e-05 0.208468
vn -0.978385 -0.00665106 0.206684
vn -0.978029 0 0.208467
vn -0.978163 0 0.207839
vn 0.209526 0 0.977803
vn 0.209526 -0 0.977803
vn 0.200395 -0 0.979715
vn 0.206827 -0 0.978378
vn 0.206827 -0 0.978378
vn 0.204867 -0 0.97879
vn 0.196056 -0 0.980593
vn 0.196056 -0 0.980593
vn 0.976548 0 -0.215301
vn 0.976473 5.76051e-06 -0.215641
vn 0.976547 -0.0012643 -0.215301
vn 0.976473 0 -0.215641
vn 0.97579 0 -0.218709
vn -0.218113 0 -0.975923
vn -0.218113 0 -0.975924
vn -0.212115 0 -0.977245
vn -0.213718 0 -0.976895
vn -0.213718 0 -0.976895
vn -0.211315 0 -0.977418
vn 9.58225e-21 -1 -6.12344e-17
vn -1.19363e-23 -1 -6.12323e-17
vn -7.23167e-24 -1 -6.12323e-17
vn 0 -1 -6.12323e-17
vn -2.03285e-23 -1 -6.12324e-17
vn 2.33947e-24 -1 -6.12323e-17
vn 0 -1 -6.12323e-17
vn -7.44407e-24 -1 -6.12323e-17
vn 5.3164e-24 -1 -6.12323e-17
vn 3.26748e-23 -1 -6.12323e-17
vn -5.58301e-24 -1 -6.12323e-17
vn 2.38891e-23 -1 -6.12323e-17
vn -1.33954e-23 -1 -6.12323e-17
vn 5.69691e-24 -1 -6.12323e-17
vn 0 -1 -6.12323e-17
vn 1.23612e-23 -1 -6.12323e-17
vn -9.87453e-25 -1 -6.12323e-17

# Mesh 'defaultobject' with 143 faces
g defaultobject
usemtl DefaultMaterial
f  1//1 2//1 3//1
f  2//2 1//2 4//2
f  4//3 1//3 5//3
f  5//4 1//4 6//4
f  5//5 6//5 7//5
f  5//6 7//6 8//6
f  5//7 8//7 9//7
f  9//8 8//8 10//8
f  11//9 12//9 13//9
f  12//10 11//10 14//10
f  12//10 14//10 15//11
f  15//12 14//12 16//12
f  15//13 16//13 10//13
f  10//14 16//14 9//14
f  17//15 18//15 19//15
f  18//16 17//16 20//16
f  18//17 20//17 21//17
f  21//18 20//18 22//18
f  21//19 22//19 13//19
f  13//20 22//20 11//20
f  17//21 19//21 23//21
f  2//22 24//22 3//22
f  24//23 2//23 25//23
f  24//24 25//24 26//24
f  26//25 25//25 27//25
f  26//26 27//26 28//26
f  28//27 27//25 29//27
f  29//28 27//28 30//28
f  30//29 27//29 31//29
f  31//30 27//30 23//30
f  23//31 27//31 17//31
f  32//32 25//32 2//32
f  25//33 32//33 33//33
f  25//34 33//34 27//34
f  27//34 33//34 34//35
f  35//36 32//36 2//36
f  4//37 35//37 2//37
f  35//38 4//38 36//38
f  36//39 4//39 37//39
f  37//40 4//40 5//40
f  37//41 5//41 38//41
f  38//42 5//42 9//42
f  9//43 39//43 38//43
f  39//44 9//44 16//44
f  40//45 41//45 11//45
f  41//46 14//46 11//46
f  14//47 41//47 42//47
f  14//48 42//48 43//48
f  14//49 43//49 16//49
f  16//50 43//50 39//50
f  22//51 40//51 11//51
f  40//52 22//52 44//52
f  44//52 22//52 45//53
f  45//54 22//54 20//54
f  45//55 20//55 46//55
f  46//56 20//56 17//56
f  27//57 34//57 46//57
f  17//58 27//58 46//58
f  47//59 31//59 23//59
f  31//59 47//59 48//59
f  31//60 48//60 30//60
f  30//60 48//60 49//60
f  30//61 49//61 29//61
f  29//61 49//61 50//61
f  29//62 50//62 28//62
f  28//62 50//62 51//62
f  28//63 51//63 26//63
f  26//63 51//63 52//63
f  26//64 52//64 24//64
f  24//64 52//64 53//64
f  24//65 53//65 3//65
f  3//65 53//65 54//66
f  54//67 1//67 3//67
f  1//67 54//67 55//67
f  1//68 55//68 6//68
f  6//68 55//68 56//68
f  6//68 56//68 7//69
f  7//69 56//68 57//69
f  7//70 57//70 8//70
f  8//70 57//70 58//70
f  8//71 58//71 10//71
f  10//71 58//71 59//72
f  59//73 15//73 10//73
f  15//73 59//73 60//74
f  15//75 60//75 12//75
f  12//75 60//75 61//75
f  12//76 61//76 13//76
f  13//76 61//76 62//76
f  63//77 23//77 19//77
f  23//77 63//77 47//78
f  62//79 21//79 13//79
f  21//79 62//79 64//80
f  21//81 64//81 18//81
f  18//81 64//81 65//81
f  18//82 65//82 19//82
f  19//82 65//82 63//82
f  34//83 66//83 46//83
f  66//84 34//84 33//84
f  66//85 33//85 67//85
f  67//86 33//86 68//86
f  68//87 33//87 32//87
f  68//87 32//87 69//87
f  32//88 70//88 69//88
f  70//88 32//88 35//89
f  70//90 35//90 71//90
f  71//90 35//90 36//90
f  71//91 36//91 72//91
f  72//91 36//91 37//92
f  72//93 37//93 73//93
f  73//93 37//93 38//93
f  73//94 38//94 74//94
f  74//94 38//94 39//95
f  43//96 74//96 39//96
f  74//97 43//97 42//97
f  74//98 42//98 75//98
f  75//99 42//97 76//99
f  76//100 42//100 41//100
f  76//100 41//100 77//100
f  40//101 77//101 41//101
f  77//101 40//101 78//102
f  78//103 40//103 44//103
f  78//103 44//103 79//103
f  79//104 44//104 45//104
f  79//104 45//104 80//105
f  80//106 45//106 46//106
f  80//106 46//106 66//106
f  63//107 48//107 47//107
f  48//107 63//107 65//108
f  48//107 65//108 49//109
f  49//109 65//108 64//110
f  49//109 64//110 50//111
f  50//111 64//110 51//112
f  51//112 64//110 52//113
f  52//113 64//110 53//114
f  53//114 64//110 54//115
f  54//115 64//110 62//116
f  54//115 62//116 55//117
f  55//117 62//116 61//118
f  55//117 61//118 56//119
f  56//119 61//118 60//120
f  56//119 60//120 57//121
f  57//121 60//120 58//122
f  58//122 60//120 59//123

