# {"id":"ID_16525","idOriginal":"ID_16525","origin":[14.280926993482394,48.30877039456269],"elevation":255.61}
# Longitude: 14.280926993482394
# Latitude: 48.30877039456269
# Elevation: 255.61

# File produced by Open Asset Import Library (http://www.assimp.sf.net)
# (assimp v3.1.0)

mtllib ID_16525.obj.mtl

# 42 vertex positions
v  0.079 13.443 0.255
v  1.294 13.08 -0.719
v  0 13.209 8.08818e-16
v  2.166 18.203 5.243
v  4.013 12.807 -2.23
v  8.568 12.349 -4.762
v  14.492 18.203 -0.077
v  10.371 12.168 -5.764
v  11.505 12.054 -6.394
v  11.539 12.124 -6.323
v  11.649 12.349 -6.091
v  16.866 13.255 5.02
v  17.225 12.437 5.877
v  17.241 12.437 5.87
v  11.866 12.438 8.189
v  10.45 12.437 8.801
v  6.147 12.438 10.657
v  4.677 12.437 11.292
v  4.57 12.719 10.989
v  4.525 12.822 10.882
v  16.382 14.312 3.922
v  4.57 -6.72882e-16 10.989
v  4.677 -6.91436e-16 11.292
v  4.525 -6.6633e-16 10.882
v  0.079 -1.56142e-17 0.255
v  0 0 0
v  10.45 -5.38906e-16 8.801
v  17.225 -3.59862e-16 5.877
v  17.241 -3.59434e-16 5.87
v  6.147 -6.52553e-16 10.657
v  11.866 -5.01432e-16 8.189
v  16.382 -2.40153e-16 3.922
v  16.866 -3.07386e-16 5.02
v  11.505 3.9152e-16 -6.394
v  14.492 4.71489e-18 -0.077
v  11.649 3.72966e-16 -6.091
v  11.539 3.87172e-16 -6.323
v  10.371 3.52943e-16 -5.764
v  8.568 2.91588e-16 -4.762
v  4.013 1.36548e-16 -2.23
v  1.294 4.4026e-17 -0.719
v  2.166 -3.21041e-16 5.243

# 0 UV coordinates

# 66 vertex normals
vn -0.262498 0.750096 -0.607001
vn -0.262048 0.750566 -0.606615
vn -0.261783 0.750602 -0.606685
vn -0.261767 0.750607 -0.606685
vn -0.261862 0.750551 -0.606713
vn -0.26184 0.750544 -0.606732
vn -0.261677 0.750523 -0.606828
vn -0.901193 0.433398 0.00425958
vn 0.726929 0.287594 -0.623589
vn 0.264889 0.750536 0.605417
vn 0.261883 0.750557 0.606697
vn 0.261461 0.751124 0.606177
vn 0.26189 0.750497 0.606769
vn 0.260856 0.752239 0.605055
vn 0.261652 0.75086 0.606422
vn 0.263187 0.747969 0.609324
vn 0.261846 0.750574 0.606693
vn 0.261783 0.750377 0.606963
vn 0.261823 0.750638 0.606623
vn -0.942933 0 0.332983
vn -0.921798 0 0.387671
vn -0.95521 0 0.295928
vn -0.95521 0 0.295928
vn 0.396556 -0 0.918011
vn 0.396056 7.01038e-05 0.918226
vn 0.396734 -0.000303235 0.917934
vn 0.396131 0.000110287 0.918194
vn 0.400836 -0.00553378 0.916133
vn 0.396183 5.47343e-05 0.918171
vn 0.396257 7.01939e-06 0.91814
vn 0.400842 0 0.916147
vn -6.47738e-21 -1 -6.12501e-17
vn -2.68602e-20 -1 -6.12951e-17
vn 0.915045 0 -0.403352
vn 0.914927 2.63773e-05 -0.403619
vn 0.914989 0 -0.403478
vn -7.5474e-20 -1 -6.11906e-17
vn 0.904091 -5.19786e-05 -0.42734
vn 0.904087 0 -0.427349
vn 0.903802 -0.000597033 -0.42795
vn 0.902899 -0.00255818 -0.429845
vn 0.904061 0 -0.427404
vn 7.20456e-20 1 6.12388e-17
vn 1.73098e-20 1 6.12241e-17
vn -1.06305e-20 1 6.12377e-17
vn -0.485643 0 -0.874157
vn -0.485767 -1.51694e-05 -0.874088
vn -0.485858 -4.33819e-05 -0.874038
vn -0.485749 4.00819e-05 -0.874098
vn -0.485693 9.75261e-05 -0.87413
vn -0.485643 0.000154054 -0.874157
vn -0.485766 2.75814e-05 -0.874089
vn -0.485799 5.35214e-17 -0.874071
vn 1.62029e-20 -1 -6.12146e-17
vn 0 -1 -6.1227e-17
vn -0.922518 3.26464e-05 0.385954
vn -0.922519 0 0.385953
vn -0.922117 -0.000931726 0.386909
vn -0.922519 1.70097e-05 0.385953
vn 0 -1 -6.12575e-17
vn 0 -1 -6.12323e-17
vn 0 -1 -6.12323e-17
vn 1.56429e-21 -1 -6.12318e-17
vn 0 -1 -6.12324e-17
vn 9.29804e-24 -1 -6.12323e-17
vn 2.07905e-22 -1 -6.12322e-17

# Mesh 'defaultobject' with 80 faces
g defaultobject
usemtl DefaultMaterial
f  1//1 2//1 3//1
f  2//2 1//2 4//2
f  2//3 4//3 5//3
f  5//4 4//4 6//4
f  6//5 4//5 7//5
f  6//6 7//6 8//6
f  8//7 7//7 9//7
f  9//8 7//8 10//8
f  10//9 7//9 11//9
f  12//10 13//10 14//10
f  13//11 12//11 15//11
f  15//12 12//12 16//12
f  16//13 12//13 17//13
f  17//14 12//14 18//14
f  18//15 12//15 19//15
f  19//16 12//16 20//16
f  20//17 12//17 4//17
f  4//18 12//18 21//18
f  4//19 21//19 7//19
f  22//20 18//20 19//20
f  18//20 22//20 23//20
f  24//21 22//21 19//21
f  3//22 25//22 1//22
f  25//22 3//22 26//23
f  23//24 17//24 18//24
f  17//25 23//25 16//25
f  16//26 23//26 15//26
f  15//27 23//27 13//27
f  13//28 23//28 14//28
f  14//29 23//29 27//29
f  14//30 27//30 28//30
f  14//31 28//31 29//31
f  27//32 23//32 30//32
f  28//33 27//32 31//33
f  12//34 32//34 21//34
f  32//35 12//35 14//35
f  32//36 14//36 29//36
f  32//37 29//37 33//37
f  21//38 11//38 7//38
f  11//39 21//39 32//39
f  11//40 32//40 10//40
f  10//41 32//41 9//41
f  9//42 32//42 34//42
f  34//43 32//43 35//43
f  34//43 35//43 36//44
f  34//43 36//44 37//45
f  34//46 8//46 9//46
f  8//47 34//47 6//47
f  6//48 34//48 5//48
f  5//49 34//49 2//49
f  2//50 34//50 3//50
f  3//51 34//51 38//51
f  3//52 38//52 39//52
f  3//53 39//53 26//53
f  26//54 39//54 40//54
f  26//54 40//54 41//55
f  1//56 20//56 4//56
f  20//57 1//57 25//57
f  20//58 25//58 19//58
f  19//59 25//59 24//59
f  24//60 25//60 42//60
f  41//55 25//60 26//54
f  25//60 41//55 42//60
f  42//60 41//55 40//54
f  42//60 40//54 39//54
f  42//60 39//54 24//60
f  24//60 39//54 38//61
f  24//60 38//61 34//62
f  24//60 34//62 37//63
f  24//60 37//63 36//64
f  24//60 36//64 35//65
f  24//60 35//65 22//66
f  22//66 35//65 23//32
f  23//32 35//65 30//32
f  30//32 35//65 27//32
f  27//32 35//65 32//37
f  27//32 32//37 31//33
f  31//33 32//37 28//33
f  28//33 32//37 33//37
f  28//33 33//37 29//37

