# {"id":"ID_57199","idOriginal":"ID_57199","origin":[14.285387761056723,48.30606482215118],"elevation":261.053}
# Longitude: 14.285387761056723
# Latitude: 48.30606482215118
# Elevation: 261.053

# File produced by Open Asset Import Library (http://www.assimp.sf.net)
# (assimp v3.1.0)

mtllib ID_57199.obj.mtl

# 8 vertex positions
v  0 16.759 1.02619e-15
v  2.623 16.759 1.887
v  1.854 16.759 -0.576
v  0.49 16.759 2.589
v  1.854 3.52698e-17 -0.576
v  0 0 0
v  0.49 -1.58531e-16 2.589
v  2.623 -1.15545e-16 1.887

# 0 UV coordinates

# 9 vertex normals
vn -0 1 0
vn -0.296691 0 -0.954974
vn -0.296691 5.84753e-17 -0.954974
vn -0.982557 -1.13868e-17 0.185961
vn -0.982557 0 0.185961
vn 0.312618 -0 0.949879
vn 0.954556 0 -0.298032
vn 0 -1 -6.12323e-17
vn -2.28447e-24 -1 -6.12323e-17

# Mesh 'defaultobject' with 12 faces
g defaultobject
usemtl DefaultMaterial
f  1//1 2//1 3//1
f  2//1 1//1 4//1
f  5//2 1//2 3//2
f  1//2 5//2 6//3
f  6//4 4//4 1//4
f  4//4 6//4 7//5
f  7//6 2//6 4//6
f  2//6 7//6 8//6
f  8//7 3//7 2//7
f  3//7 8//7 5//7
f  5//8 7//8 6//8
f  7//8 5//8 8//9

