# {"id":"_48041","idOriginal":"_48041","origin":[14.290444483028777,48.304068748949],"elevation":260.582}
# Longitude: 14.290444483028777
# Latitude: 48.304068748949
# Elevation: 260.582

# File produced by Open Asset Import Library (http://www.assimp.sf.net)
# (assimp v3.1.0)

mtllib _48041.obj.mtl

# 14 vertex positions
v  1.232 2.705 -1.373
v  4.12 3.103 -0.337
v  3.242 2.704 -2.261
v  5.041 3.53 1.734
v  1.45 2.823 -0.785
v  1.333 3.53 3.365
v  0 2.849 1.74451e-16
v  1.45 4.80674e-17 -0.785
v  1.232 8.4072e-17 -1.373
v  1.333 -2.06047e-16 3.365
v  0 0 0
v  3.242 1.38446e-16 -2.261
v  5.041 -1.06177e-16 1.734
v  4.12 2.06353e-17 -0.337

# 0 UV coordinates

# 19 vertex normals
vn -0.074518 0.982661 -0.169779
vn -0.0746553 0.982713 -0.169416
vn -0.0745177 0.982695 -0.16958
vn -0.0745636 0.982703 -0.169517
vn -0.0741481 0.982735 -0.169511
vn -0.937633 0 0.347626
vn -0.937633 0 0.347626
vn -0.92971 0 0.368292
vn -0.92971 0 0.368292
vn -0.476088 0 -0.879398
vn -0.404111 0 -0.91471
vn 0.402631 -0 0.915362
vn 0.913721 0 -0.406343
vn 0.910218 -0.00620523 -0.414083
vn 0.913694 0.00755983 -0.406331
vn 0.90975 0 -0.415156
vn 0 -1 -6.12323e-17
vn 5.49881e-24 -1 -6.12323e-17
vn 0 -1 -6.1232e-17

# Mesh 'defaultobject' with 24 faces
g defaultobject
usemtl DefaultMaterial
f  1//1 2//1 3//1
f  2//2 1//2 4//2
f  4//3 1//3 5//3
f  4//4 5//4 6//4
f  6//5 5//5 7//5
f  1//6 8//6 5//6
f  8//6 1//6 9//7
f  7//8 10//8 6//8
f  10//8 7//8 11//9
f  5//10 11//10 7//10
f  11//10 5//10 8//10
f  3//11 9//11 1//11
f  9//11 3//11 12//11
f  10//12 4//12 6//12
f  4//12 10//12 13//12
f  13//13 2//13 4//13
f  2//14 13//14 3//14
f  3//15 13//15 14//15
f  3//16 14//16 12//16
f  11//17 13//17 10//17
f  13//17 11//17 8//17
f  13//17 8//17 9//17
f  13//17 9//17 12//18
f  13//17 12//18 14//19

