# {"id":"ID_5873","idOriginal":"ID_5873","origin":[14.320138812900614,48.26088473550986],"elevation":258.589,"wof":[{"Id":102049853,"Name":"Linz","Placetype":"county","Offset":-1},{"Id":85632785,"Name":"Austria","Placetype":"country","Offset":-1},{"Id":101748071,"Name":"Linz","Placetype":"locality","Offset":-1},{"Id":85681677,"Name":"Oberösterreich","Placetype":"region","Offset":-1},{"Id":85898429,"Name":"Kleinmünchen","Placetype":"neighbourhood","Offset":-1}]}

# Attribution: City of Linz <http://geo.data.linz.gv.at/katalog/geodata/3d_geo_daten_lod2/>
# Longitude: 14.320138812900614
# Latitude: 48.26088473550986
# Elevation: 258.589

# File produced by Open Asset Import Library (http://www.assimp.sf.net)
# (assimp v3.1.0)


# 28 vertex positions
v  13.774 3.848 0.941
v  13.067 4.169 6.112
v  15.305 3.848 5.533
v  15.427 4.738 26.081
v  19.296 4.169 24.791
v  6.057 4.738 -2.02
v  11.643 4.161 1.651
v  9.983 4.161 -3.329
v  9.371 3.848 28.101
v  0.556 3.929 -0.186
v  0 3.848 2.35622e-16
v  0.674 3.947 -0.225
v  10.103 3.955 27.857
v  13.09 4.394 26.861
v  15.305 -3.38799e-16 5.533
v  13.774 -5.76196e-17 0.941
v  11.643 -1.01095e-16 1.651
v  9.983 2.03842e-16 -3.329
v  19.296 -1.51801e-15 24.791
v  13.067 -3.74252e-16 6.112
v  6.057 1.23689e-16 -2.02
v  0.674 1.37773e-17 -0.225
v  0 0 0
v  0.556 1.13892e-17 -0.186
v  9.371 -1.72069e-15 28.101
v  10.103 -1.70575e-15 27.857
v  13.09 -1.64476e-15 26.861
v  15.427 -1.597e-15 26.081

# 0 UV coordinates

# 46 vertex normals
vn 0.130781 0.990452 -0.0436033
vn 0.131081 0.990407 -0.0437124
vn 0.131103 0.990405 -0.0437149
vn 0.130942 0.990432 -0.0435743
vn 0.130954 0.99043 -0.0435783
vn 0.131002 0.99042 -0.0436672
vn -0.129829 0.990591 0.0432948
vn -0.136022 0.989673 0.045222
vn -0.130973 0.990423 0.0436746
vn -0.130986 0.990422 0.0436759
vn 0.270918 0.25996 0.926836
vn 0.0746531 0.810407 0.581092
vn 0.948663 0 -0.31629
vn 0.948683 0 -0.316228
vn 0.948643 0 -0.31635
vn -0.316094 0 -0.948728
vn -0.316094 0 -0.948728
vn -0.3163 0 -0.948659
vn -0.3163 -0 -0.948659
vn -0.316333 -0 -0.948648
vn -0.316334 -0 -0.948648
vn -0.313813 -0 -0.949485
vn -0.317236 -0.000114113 -0.948347
vn -0.31665 5.80815e-17 -0.948542
vn -7.83303e-22 1 6.12324e-17
vn -0.948643 -1.93708e-17 0.316349
vn -0.948643 0 0.316349
vn 0.316227 -0 0.948683
vn 0.316326 -2.02269e-05 0.948651
vn 0.316634 -0.000310543 0.948548
vn 0.316227 0.000267647 0.948683
vn 0.316323 0.000148116 0.948651
vn 0.316321 0.000149319 0.948652
vn 0.316593 -0.000301293 0.948561
vn 0.316301 0 0.948659
vn 0.250467 -0 0.968125
vn 0.250467 0 0.968125
vn 0 -1 -6.12323e-17
vn 0 -1 -6.12323e-17
vn -4.87374e-24 -1 -6.12323e-17
vn 4.43237e-25 -1 -6.12323e-17
vn 6.79347e-25 -1 -6.12323e-17
vn 2.02157e-23 -1 -6.12323e-17
vn 2.2414e-23 -1 -6.12323e-17
vn 5.84612e-20 -1 -6.10515e-17
vn 6.27893e-19 -1 -5.93595e-17

# Mesh 'defaultobject' with 51 faces
g defaultobject
usemtl DefaultMaterial
f  1//1 2//1 3//1
f  2//2 4//2 5//2
f  4//3 2//3 6//3
f  6//4 2//4 7//4
f  7//5 2//5 1//5
f  6//6 7//6 8//6
f  9//7 10//7 11//7
f  10//8 9//8 12//8
f  12//9 9//9 6//9
f  6//10 9//10 4//10
f  4//11 9//11 13//11
f  4//12 13//12 14//12
f  15//13 1//13 3//13
f  1//13 15//13 16//13
f  17//14 8//14 7//14
f  8//14 17//14 18//14
f  19//15 2//15 5//15
f  2//15 19//15 20//15
f  1//16 17//16 7//16
f  17//16 1//16 16//17
f  18//18 6//18 8//18
f  6//18 18//18 21//19
f  6//20 21//20 12//20
f  12//20 21//20 22//21
f  12//22 22//22 10//22
f  10//23 22//23 11//23
f  11//24 22//24 23//24
f  23//25 22//25 24//25
f  23//26 9//26 11//26
f  9//26 23//26 25//27
f  25//28 13//28 9//28
f  13//29 25//29 14//29
f  14//30 25//30 4//30
f  4//31 25//31 26//31
f  4//32 26//32 27//32
f  4//32 27//32 5//33
f  5//34 27//34 28//34
f  5//35 28//35 19//35
f  20//36 3//36 2//36
f  3//36 20//36 15//37
f  15//38 17//38 16//38
f  17//38 15//38 20//39
f  17//38 21//40 18//40
f  21//40 17//38 22//39
f  22//39 17//38 23//41
f  23//41 17//38 25//42
f  25//42 17//38 20//39
f  25//42 20//39 28//43
f  28//43 20//39 19//44
f  25//42 28//43 27//45
f  25//42 27//45 26//46

