# {"id":"ID_38864","idOriginal":"ID_38864","origin":[14.261489148791648,48.31550305852533],"elevation":385.759,"wof":[{"Id":85681677,"Name":"Oberösterreich","Placetype":"region","Offset":-1},{"Id":85898453,"Name":"Urfahr","Placetype":"neighbourhood","Offset":-1},{"Id":102049853,"Name":"Linz","Placetype":"county","Offset":-1},{"Id":85632785,"Name":"Austria","Placetype":"country","Offset":-1},{"Id":101748071,"Name":"Linz","Placetype":"locality","Offset":-1}]}

# Attribution: City of Linz <http://geo.data.linz.gv.at/katalog/geodata/3d_geo_daten_lod2/>
# Longitude: 14.261489148791648
# Latitude: 48.31550305852533
# Elevation: 385.759

# File produced by Open Asset Import Library (http://www.assimp.sf.net)
# (assimp v3.1.0)


# 16 vertex positions
v  4.73 2.412 -5.671
v  0.001 3.472 -0.035
v  4.746 2.409 -5.55
v  4.707 2.418 -5.852
v  3.486 2.697 -5.898
v  0.089 3.472 -6.025
v  0 3.473 2.1266e-16
v  5.593 2.409 1.021
v  4.707 3.58332e-16 -5.852
v  0.089 3.68925e-16 -6.025
v  3.486 3.61148e-16 -5.898
v  0.001 2.14313e-18 -0.035
v  0 0 0
v  5.593 -6.25182e-17 1.021
v  4.73 3.47249e-16 -5.671
v  4.746 3.39839e-16 -5.55

# 0 UV coordinates

# 27 vertex normals
vn 0.214077 0.976808 -0.00408885
vn 0.2232 0.974765 0.00395017
vn 0.222634 0.974896 0.00346857
vn 0.22231 0.974971 0.00326599
vn 0.19359 0.980825 -0.0224904
vn 0.191169 0.981248 -0.0246416
vn 0.037647 0 -0.999291
vn 0.0373269 -0.000145117 -0.999303
vn 0.0374358 0 -0.999299
vn -1.64667e-21 1 6.12769e-17
vn -0.999892 0 -0.0146896
vn -0.999592 -0 -0.0285598
vn -0.999592 1.74878e-18 -0.0285598
vn -0.179582 -6.02369e-17 0.983743
vn -0.179582 0 0.983743
vn 0.992023 0 -0.126059
vn 0.991372 0.000382931 -0.13108
vn 0.991795 -2.97715e-05 -0.127842
vn 0.992009 -0.00519993 -0.126058
vn 0.99133 0.00900492 -0.131084
vn 0.991795 0 -0.127842
vn 0 -1 -6.12323e-17
vn 0 -1 -6.12323e-17
vn -7.01214e-24 -1 -6.12323e-17
vn 0 -1 -6.12324e-17
vn -1.40781e-24 -1 -6.12323e-17
vn -1.59837e-23 -1 -6.12323e-17

# Mesh 'defaultobject' with 28 faces
g defaultobject
usemtl DefaultMaterial
f  1//1 2//1 3//1
f  2//2 1//2 4//2
f  2//3 4//3 5//3
f  2//4 5//4 6//4
f  7//5 3//5 2//5
f  3//6 7//6 8//6
f  9//7 5//7 4//7
f  5//8 9//8 6//8
f  6//9 9//9 10//9
f  10//10 9//10 11//10
f  10//11 2//11 6//11
f  2//11 10//11 12//11
f  2//12 12//12 7//12
f  7//12 12//12 13//13
f  13//14 8//14 7//14
f  8//14 13//14 14//15
f  1//16 9//16 4//16
f  9//17 1//17 3//17
f  9//18 3//18 8//18
f  9//19 8//19 15//19
f  15//20 8//20 16//20
f  16//21 8//21 14//21
f  12//22 14//22 13//22
f  14//22 12//22 10//23
f  14//22 10//23 16//24
f  16//24 10//23 11//25
f  16//24 11//25 15//26
f  15//26 11//25 9//27

