# {"id":"ID_44780","idOriginal":"ID_44780","origin":[14.285254420391338,48.310344724010726],"elevation":258.893}
# Longitude: 14.285254420391338
# Latitude: 48.310344724010726
# Elevation: 258.893

# File produced by Open Asset Import Library (http://www.assimp.sf.net)
# (assimp v3.1.0)

mtllib ID_44780.obj.mtl

# 8 vertex positions
v  0.938 6.977 -0.794
v  11.379 6.977 9.462
v  12.465 6.977 8.28
v  0 6.977 4.27218e-16
v  12.465 -5.07004e-16 8.28
v  0.938 4.86185e-17 -0.794
v  0 0 0
v  11.379 -5.7938e-16 9.462

# 0 UV coordinates

# 9 vertex normals
vn 0 1 0
vn 0.618541 0 -0.785753
vn -0.646088 0 -0.763263
vn -0.646088 4.67364e-17 -0.763263
vn -0.639367 -4.70817e-17 0.768902
vn -0.639367 0 0.768902
vn 0.736378 -0 0.676571
vn -4.50947e-24 -1 -6.12323e-17
vn -2.95582e-24 -1 -6.12323e-17

# Mesh 'defaultobject' with 12 faces
g defaultobject
usemtl DefaultMaterial
f  1//1 2//1 3//1
f  2//1 1//1 4//1
f  5//2 1//2 3//2
f  1//2 5//2 6//2
f  6//3 4//3 1//3
f  4//3 6//3 7//4
f  7//5 2//5 4//5
f  2//5 7//5 8//6
f  8//7 3//7 2//7
f  3//7 8//7 5//7
f  8//8 6//8 5//8
f  6//8 8//8 7//9

