# File produced by Open Asset Import Library (http://www.assimp.sf.net)
# (assimp v3.1.0)

mtllib _28647.obj.mtl

# 12 vertex positions
v  0 23.833 1.45935e-15
v  2.239 23.833 -2.515
v  0.029 23.833 -2.527
v  30.6 23.833 -2.361
v  2.211 23.833 1.45935e-15
v  30.593 23.833 0.012
v  30.593 -7.34788e-19 0.012
v  30.6 1.4457e-16 -2.361
v  2.239 1.53999e-16 -2.515
v  0.029 1.54734e-16 -2.527
v  0 0 0
v  2.211 0 0

# 0 UV coordinates

# 14 vertex normals
vn 0 1 0
vn 0.999996 -0 0.00294983
vn 0.0054299 0 -0.999985
vn 0.00542982 0 -0.999985
vn -0.999934 0 -0.0114753
vn -0.999934 7.0266e-19 -0.0114753
vn -0.000422803 0 1
vn 0 0.000503503 1
vn -0.000422803 -3.92237e-05 1
vn 0 -6.12323e-17 1
vn 0 -1 -6.12323e-17
vn 3.70824e-25 -1 -6.12323e-17
vn -3.57154e-24 -1 -6.12323e-17
vn 0 -1 -6.12323e-17

# Mesh 'defaultobject' with 20 faces
g defaultobject
usemtl DefaultMaterial
f  1//1 2//1 3//1
f  2//1 1//1 4//1
f  4//1 1//1 5//1
f  4//1 5//1 6//1
f  7//2 4//2 6//2
f  4//2 7//2 8//2
f  8//3 2//3 4//3
f  2//3 8//3 9//3
f  2//3 9//3 3//4
f  3//4 9//3 10//4
f  10//5 1//5 3//5
f  1//5 10//5 11//6
f  5//7 7//7 6//7
f  7//8 5//8 1//8
f  7//9 1//9 12//9
f  12//10 1//10 11//10
f  7//11 9//11 8//11
f  9//11 7//11 12//12
f  9//11 12//12 10//13
f  10//13 12//12 11//14

