# File produced by Open Asset Import Library (http://www.assimp.sf.net)
# (assimp v3.1.0)

mtllib _3368.obj.mtl

# 24 vertex positions
v  15.246 8.931 19.19
v  0.208 8.931 -0.168
v  0 8.931 5.46866e-16
v  5.006 8.931 -4.039
v  7.959 8.931 -6.421
v  9.143 8.931 -7.377
v  11.964 8.931 -9.653
v  15.33 8.931 19.128
v  31.283 8.931 14.816
v  19.793 8.931 24.21
v  19.506 8.931 24.446
v  23.734 8.931 20.988
v  19.506 -1.49689e-15 24.446
v  19.793 -1.48244e-15 24.21
v  23.734 -1.28514e-15 20.988
v  31.283 -9.07218e-16 14.816
v  15.246 -1.17505e-15 19.19
v  15.33 -1.17125e-15 19.128
v  11.964 5.91076e-16 -9.653
v  9.143 4.51711e-16 -7.377
v  7.959 3.93173e-16 -6.421
v  5.006 2.47317e-16 -4.039
v  0.208 1.0287e-17 -0.168
v  0 0 0

# 0 UV coordinates

# 31 vertex normals
vn 0 1 0
vn 0.635143 -0 0.772395
vn 0.632949 0.000118048 0.774194
vn 0.632964 0.000105918 0.774181
vn 0.635136 -0.00469232 0.772386
vn 0.632949 2.16483e-05 0.774194
vn 0.632964 0 0.774181
vn 0.593856 -0 0.804572
vn 0.784861 0 -0.619671
vn -0.62792 0 -0.778278
vn -0.628215 -0.00015397 -0.77804
vn -0.62784 0.000123558 -0.778342
vn -0.62792 2.12112e-05 -0.778278
vn -0.627914 2.53582e-05 -0.778283
vn -0.628215 -0.000471541 -0.77804
vn -0.62784 6.58039e-05 -0.778342
vn -0.628337 -0.00037519 -0.777941
vn -0.627914 1.62732e-05 -0.778283
vn -0.628337 4.76352e-17 -0.777941
vn -0.782974 -3.80898e-17 0.622054
vn -0.782974 0 0.622054
vn -0.786493 0 0.6176
vn -1.32493e-21 -1 -6.12309e-17
vn -2.95069e-22 -1 -6.12321e-17
vn 0 -1 -6.12327e-17
vn 3.19281e-23 -1 -6.12324e-17
vn 0 -1 -6.12323e-17
vn -5.5631e-24 -1 -6.12323e-17
vn 1.43236e-23 -1 -6.12324e-17
vn -7.14157e-23 -1 -6.12323e-17
vn 2.99842e-23 -1 -6.12323e-17

# Mesh 'defaultobject' with 44 faces
g defaultobject
usemtl DefaultMaterial
f  1//1 2//1 3//1
f  2//1 1//1 4//1
f  4//1 1//1 5//1
f  5//1 1//1 6//1
f  6//1 1//1 7//1
f  7//1 1//1 8//1
f  7//1 8//1 9//1
f  9//1 8//1 10//1
f  10//1 8//1 11//1
f  9//1 10//1 12//1
f  13//2 10//2 11//2
f  10//3 13//3 12//3
f  12//4 13//4 9//4
f  9//5 13//5 14//5
f  9//6 14//6 15//6
f  9//7 15//7 16//7
f  17//8 8//8 1//8
f  8//8 17//8 18//8
f  16//9 7//9 9//9
f  7//9 16//9 19//9
f  19//10 6//10 7//10
f  6//11 19//11 5//11
f  5//12 19//12 4//12
f  4//13 19//13 20//13
f  4//13 20//13 2//14
f  2//15 20//15 21//15
f  2//16 21//16 22//16
f  2//17 22//17 3//17
f  3//18 22//18 23//18
f  3//19 23//19 24//19
f  24//20 1//20 3//20
f  1//20 24//20 17//21
f  18//22 11//22 8//22
f  11//22 18//22 13//22
f  24//23 18//23 17//23
f  18//23 14//24 13//24
f  14//24 18//23 24//23
f  14//24 24//23 23//25
f  14//24 23//25 15//26
f  15//26 23//25 22//27
f  15//26 22//27 16//28
f  16//28 22//27 21//29
f  16//28 21//29 20//30
f  16//28 20//30 19//31

