# File produced by Open Asset Import Library (http://www.assimp.sf.net)
# (assimp v3.1.0)

mtllib _34111.obj.mtl

# 8 vertex positions
v  0.573 3.771 -3.629
v  12.919 3.771 1.864
v  13.481 3.771 -1.721
v  0 3.771 2.30907e-16
v  13.481 1.05381e-16 -1.721
v  0.573 2.22212e-16 -3.629
v  0 0 0
v  12.919 -1.14137e-16 1.864

# 0 UV coordinates

# 9 vertex normals
vn 0 1 0
vn 0.146226 0 -0.989251
vn -0.987763 0 -0.155963
vn -0.987763 9.54995e-18 -0.155963
vn -0.142805 -6.06048e-17 0.989751
vn -0.142805 0 0.989751
vn 0.987934 -0 0.154873
vn -2.23621e-24 -1 -6.12323e-17
vn 2.20806e-24 -1 -6.12323e-17

# Mesh 'defaultobject' with 12 faces
g defaultobject
usemtl DefaultMaterial
f  1//1 2//1 3//1
f  2//1 1//1 4//1
f  5//2 1//2 3//2
f  1//2 5//2 6//2
f  6//3 4//3 1//3
f  4//3 6//3 7//4
f  7//5 2//5 4//5
f  2//5 7//5 8//6
f  8//7 3//7 2//7
f  3//7 8//7 5//7
f  8//8 6//8 5//8
f  6//8 8//8 7//9

