# File produced by Open Asset Import Library (http://www.assimp.sf.net)
# (assimp v3.1.0)

mtllib ID_44466.obj.mtl

# 11 vertex positions
v  2.563 3.127 1.492
v  0 2.323 1.42243e-16
v  1.608 3.127 2.193
v  3.149 2.323 -2.308
v  6.364 2.323 2.078
v  3.215 2.323 4.386
v  3.149 1.41324e-16 -2.308
v  0 0 0
v  1.608 -1.34283e-16 2.193
v  3.215 -2.68565e-16 4.386
v  6.364 -1.27241e-16 2.078

# 0 UV coordinates

# 15 vertex normals
vn -0.16777 0.958965 -0.22856
vn -0.167655 0.958941 -0.228746
vn 0.16764 0.958948 0.228726
vn 0.167646 0.959027 0.22839
vn 0.228686 0.958959 -0.16763
vn -0.591153 0 -0.80656
vn -0.591153 4.93875e-17 -0.80656
vn -0.80644 -3.62077e-17 0.591316
vn -0.80644 0 0.591316
vn -0.806615 0 0.591077
vn 0.591153 -0 0.80656
vn 0.806528 0 -0.591196
vn -2.49342e-24 -1 -6.12323e-17
vn -2.49366e-24 -1 -6.12323e-17
vn -7.79277e-25 -1 -6.12323e-17

# Mesh 'defaultobject' with 18 faces
g defaultobject
usemtl DefaultMaterial
f  1//1 2//1 3//1
f  2//2 1//2 4//2
f  5//3 3//3 6//3
f  3//4 5//4 1//4
f  1//5 5//5 4//5
f  7//6 2//6 4//6
f  2//6 7//6 8//7
f  8//8 3//8 2//8
f  3//8 8//8 9//9
f  3//10 9//10 6//10
f  6//10 9//10 10//10
f  10//11 5//11 6//11
f  5//11 10//11 11//11
f  11//12 4//12 5//12
f  4//12 11//12 7//12
f  11//13 8//13 7//13
f  8//13 11//13 9//14
f  9//14 11//13 10//15

