# {"id":"ID_14800","idOriginal":"ID_14800","origin":[14.284109138716879,48.27364474803815],"elevation":274.712,"wof":[{"Id":102049853,"Name":"Linz","Placetype":"county","Offset":-1},{"Id":85632785,"Name":"Austria","Placetype":"country","Offset":-1},{"Id":101748071,"Name":"Linz","Placetype":"locality","Offset":-1},{"Id":85898435,"Name":"Oed","Placetype":"neighbourhood","Offset":-1},{"Id":85681677,"Name":"Oberösterreich","Placetype":"region","Offset":-1}]}

# Attribution: City of Linz <http://geo.data.linz.gv.at/katalog/geodata/3d_geo_daten_lod2/>
# Longitude: 14.284109138716879
# Latitude: 48.27364474803815
# Elevation: 274.712

# File produced by Open Asset Import Library (http://www.assimp.sf.net)
# (assimp v3.1.0)


# 18 vertex positions
v  2.626 9.906 3.279
v  7.21 8.466 -5.675
v  0 8.427 5.16005e-16
v  15.341 9.906 -6.983
v  11.306 7.638 -12.002
v  5.735 7.622 -7.564
v  19.415 7.616 -1.915
v  6.493 7.727 8.11
v  6.719 7.616 8.331
v  7.21 3.47494e-16 -5.675
v  5.735 4.63161e-16 -7.564
v  0 0 0
v  6.493 -4.96594e-16 8.11
v  2.626 -2.00781e-16 3.279
v  6.719 -5.10127e-16 8.331
v  11.306 7.34911e-16 -12.002
v  19.415 1.1726e-16 -1.915
v  15.341 4.27585e-16 -6.983

# 0 UV coordinates

# 28 vertex normals
vn -0.20853 0.943248 -0.258452
vn -0.208627 0.943215 -0.258496
vn -0.208627 0.943215 -0.258498
vn -0.208642 0.943209 -0.258507
vn 0.209365 0.942795 0.259429
vn 0.208613 0.94323 0.258454
vn 0.208623 0.943217 0.258492
vn -0.788183 0 0.615442
vn -0.788182 0 0.615442
vn -0.780544 -3.82764e-17 0.625101
vn -0.780676 8.957e-05 0.624936
vn -0.780634 0 0.624988
vn 3.35618e-20 -1 -6.12502e-17
vn -0.699155 0 0.71497
vn -0.699155 0 0.71497
vn -0.618495 0 -0.785789
vn -0.618495 4.81157e-17 -0.785789
vn -0.623084 0 -0.782155
vn -0.623084 -0 -0.782155
vn 0.628023 -0 0.778195
vn 0.779396 0 -0.626531
vn 0.779372 -2.50377e-05 -0.626561
vn 0.779396 3.95557e-05 -0.626531
vn 0.779367 0 -0.626568
vn 0 -1 -6.12323e-17
vn 1.29363e-22 -1 -6.12323e-17
vn 4.90211e-24 -1 -6.12323e-17
vn -1.07789e-19 -1 -6.1224e-17

# Mesh 'defaultobject' with 32 faces
g defaultobject
usemtl DefaultMaterial
f  1//1 2//1 3//1
f  2//2 1//2 4//2
f  2//2 4//2 5//3
f  5//4 6//4 2//4
f  7//5 8//5 9//5
f  8//6 7//6 1//6
f  1//7 7//7 4//7
f  6//8 10//8 2//8
f  10//8 6//8 11//9
f  12//10 1//10 3//10
f  1//11 12//11 8//11
f  8//12 12//12 13//12
f  13//13 12//13 14//13
f  13//14 9//14 8//14
f  9//14 13//14 15//15
f  10//16 3//16 2//16
f  3//16 10//16 12//17
f  16//18 6//18 5//18
f  6//18 16//18 11//19
f  15//20 7//20 9//20
f  7//20 15//20 17//20
f  17//21 4//21 7//21
f  4//22 17//22 5//22
f  5//23 17//23 18//23
f  5//24 18//24 16//24
f  16//25 10//25 11//25
f  10//25 14//13 12//13
f  14//13 10//25 13//13
f  13//13 10//25 15//26
f  15//26 10//25 17//27
f  17//27 10//25 16//25
f  17//27 16//25 18//28

