# {"id":"ID_14610","idOriginal":"ID_14610","origin":[14.284239974038668,48.32945088958124],"elevation":271.752}
# Longitude: 14.284239974038668
# Latitude: 48.32945088958124
# Elevation: 271.752

# File produced by Open Asset Import Library (http://www.assimp.sf.net)
# (assimp v3.1.0)

mtllib ID_14610.obj.mtl

# 35 vertex positions
v  11.254 9.651 7.952
v  10.922 9.628 7.746
v  11.24 9.628 7.972
v  9.537 16.009 -1.697
v  0.406 9.628 0.288
v  0 9.628 5.89545e-16
v  13.363 9.647 4.887
v  16.033 9.643 1.007
v  15.064 10.807 0.194
v  14.239 16.009 -8.544
v  18.666 11.002 -5.425
v  18.87 10.772 -5.282
v  10.017 11.234 -11.519
v  9.664 10.835 -11.768
v  7.648 10.836 -8.829
v  5.867 10.838 -6.232
v  4.783 9.631 -6.959
v  1.852 9.629 -2.695
v  9.664 7.20582e-16 -11.768
v  5.867 3.816e-16 -6.232
v  7.648 5.4062e-16 -8.829
v  4.783 4.26116e-16 -6.959
v  0 0 0
v  1.852 1.65021e-16 -2.695
v  15.064 -1.18791e-17 0.194
v  16.033 -6.1661e-17 1.007
v  18.87 3.23429e-16 -5.282
v  18.666 3.32185e-16 -5.425
v  14.239 5.23169e-16 -8.544
v  10.017 7.05335e-16 -11.519
v  0.406 -1.76349e-17 0.288
v  10.922 -4.74306e-16 7.746
v  11.24 -4.88144e-16 7.972
v  11.254 -4.8692e-16 7.952
v  13.363 -2.99242e-16 4.887

# 0 UV coordinates

# 57 vertex normals
vn -0.397244 0.727852 0.558953
vn -0.39428 0.73358 0.553537
vn -0.392729 0.734245 0.553759
vn -0.392766 0.734277 0.55369
vn 0.559743 0.734222 0.384196
vn 0.559595 0.734267 0.384325
vn 0.559616 0.734271 0.384286
vn 0.55961 0.73427 0.384298
vn 0.559691 0.734226 0.384264
vn 0.559216 0.734737 0.383978
vn -0.559625 0.734252 -0.384308
vn -0.559118 0.734571 -0.384438
vn -0.559791 0.734163 -0.384237
vn -0.559613 0.734244 -0.384343
vn -0.559951 0.734172 -0.383987
vn -0.559636 0.734228 -0.38434
vn -0.559645 0.734234 -0.384315
vn -0.824639 0 -0.565659
vn -0.824699 -3.50684e-05 -0.565571
vn -0.824667 -0 -0.565618
vn -3.53856e-19 1 6.09517e-17
vn -0.824087 0 -0.566463
vn -0.824158 -6.72283e-05 -0.56636
vn -0.824115 3.46834e-17 -0.566423
vn 5.00326e-20 1 6.12399e-17
vn 0.556997 0 -0.830515
vn 0.642747 0 -0.766079
vn 0.642747 0 -0.766079
vn 0.575979 3.69528e-05 -0.817465
vn 0.576024 0.00268158 -0.817428
vn 0.575933 0 -0.817497
vn 0.576185 0.000297444 -0.81732
vn 0.575951 0 -0.817484
vn 3.16664e-20 -1 -6.12428e-17
vn -9.85988e-20 -1 -6.11313e-17
vn 9.33011e-20 -1 -6.1362e-17
vn -0.578575 -4.99429e-17 0.81563
vn -0.578491 -5.31672e-06 0.815689
vn -0.578574 0.000136905 0.81563
vn -0.578491 0 0.815689
vn -0.579297 0 0.815116
vn 0.823779 -0.0085192 0.566847
vn 0.823785 0 0.566903
vn 0.823794 -6.31565e-06 0.566889
vn 0.819206 0.0070163 0.573457
vn 0.823803 0 0.566876
vn -1.67707e-19 -1 -6.13809e-17
vn 0.821143 -0 0.570722
vn -1.78535e-23 -1 -6.12323e-17
vn -5.69754e-21 -1 -6.12322e-17
vn 2.86076e-22 -1 -6.12323e-17
vn -4.99816e-24 -1 -6.12323e-17
vn -3.87508e-24 -1 -6.12323e-17
vn 4.42673e-19 -1 -6.10003e-17
vn 1.67867e-23 -1 -6.12323e-17
vn 8.21587e-23 -1 -6.12323e-17
vn 0 -1 -6.12323e-17

# Mesh 'defaultobject' with 66 faces
g defaultobject
usemtl DefaultMaterial
f  1//1 2//1 3//1
f  2//2 1//2 4//2
f  2//3 4//3 5//3
f  5//4 4//4 6//4
f  7//5 4//5 1//5
f  4//6 7//6 8//6
f  4//7 8//7 9//7
f  4//8 9//8 10//8
f  10//9 9//9 11//9
f  11//10 9//10 12//10
f  10//11 13//11 4//11
f  14//12 4//12 13//12
f  15//13 4//13 14//13
f  16//14 4//14 15//14
f  17//15 4//15 16//15
f  18//16 4//16 17//16
f  6//17 4//17 18//17
f  19//18 15//18 14//18
f  15//19 19//19 16//19
f  16//20 19//20 20//20
f  20//21 19//21 21//21
f  22//22 18//22 17//22
f  18//23 22//23 6//23
f  6//24 22//24 23//24
f  23//25 22//25 24//25
f  20//26 17//26 16//26
f  17//26 20//26 22//26
f  8//27 25//27 9//27
f  25//27 8//27 26//28
f  11//29 13//29 10//29
f  13//30 11//30 12//30
f  13//31 12//31 27//31
f  13//32 27//32 14//32
f  14//33 27//33 19//33
f  19//34 27//34 28//34
f  19//34 28//34 29//35
f  19//34 29//35 30//36
f  23//37 5//37 6//37
f  5//38 23//38 2//38
f  2//39 23//39 31//39
f  2//38 31//40 32//40
f  2//41 32//41 3//41
f  3//41 32//41 33//41
f  3//42 7//42 1//42
f  7//43 3//43 33//43
f  7//44 33//44 8//44
f  8//45 33//45 34//45
f  8//46 34//46 26//46
f  26//47 34//47 35//47
f  25//48 12//48 9//48
f  12//48 25//48 27//48
f  35//47 25//49 26//47
f  25//49 35//47 29//35
f  29//35 35//47 30//36
f  30//36 35//47 34//47
f  30//36 34//47 33//50
f  30//36 33//50 32//51
f  30//36 32//51 20//52
f  20//52 32//51 31//53
f  30//36 20//52 19//34
f  19//34 20//52 21//54
f  20//52 31//53 22//55
f  22//55 31//53 24//56
f  24//56 31//53 23//57
f  25//49 28//34 27//34
f  28//34 25//49 29//35

