# {"id":"ID_27040","idOriginal":"ID_27040","origin":[14.28211277864209,48.31185068106522],"elevation":261.652,"wof":[{"Id":102049853,"Name":"Linz","Placetype":"county","Offset":-1},{"Id":85681677,"Name":"Oberösterreich","Placetype":"region","Offset":-1},{"Id":101748071,"Name":"Linz","Placetype":"locality","Offset":-1},{"Id":85632785,"Name":"Austria","Placetype":"country","Offset":-1},{"Id":85898453,"Name":"Urfahr","Placetype":"neighbourhood","Offset":-1}]}

# Attribution: City of Linz <http://geo.data.linz.gv.at/katalog/geodata/3d_geo_daten_lod2/>
# Longitude: 14.28211277864209
# Latitude: 48.31185068106522
# Elevation: 261.652

# File produced by Open Asset Import Library (http://www.assimp.sf.net)
# (assimp v3.1.0)


# 36 vertex positions
v  12.471 18.378 15.007
v  4.755 7.936 8.634
v  8.882 9.301 16.669
v  8.501 16.769 7.602
v  8.816 17.557 7.465
v  1.144 3.066 5.632
v  2.93 3.538 9.24
v  5.86 17.283 0.939
v  2.99 9.911 2.392
v  0.172 3.066 3.386
v  0.053 2.778 3.428
v  4.48 13.891 1.47
v  2.208 9.755 0.757
v  3.898 14.029 -0.025
v  2.07 9.728 0.468
v  0 5.793 3.54719e-16
v  0.69 6.109 1.248
v  3.19 14.198 -1.846
v  2.99 -1.46468e-16 2.392
v  0.172 -2.07333e-16 3.386
v  0.053 -2.09904e-16 3.428
v  5.86 -5.74972e-17 0.939
v  4.48 -9.00115e-17 1.47
v  1.144 -3.44861e-16 5.632
v  2.93 -5.65787e-16 9.24
v  8.882 -1.02068e-15 16.669
v  4.755 -5.2868e-16 8.634
v  0.69 -7.6418e-17 1.248
v  0 0 0
v  2.07 -2.86567e-17 0.468
v  2.208 -4.63529e-17 0.757
v  12.471 -9.18914e-16 15.007
v  8.816 -4.57099e-16 7.465
v  8.501 -4.65488e-16 7.602
v  3.19 1.13035e-16 -1.846
v  3.898 1.53081e-18 -0.025

# 0 UV coordinates

# 60 vertex normals
vn -0.841318 0.399353 0.364282
vn -0.841319 0.399356 0.364277
vn -0.841243 0.3996 0.364184
vn -0.841353 0.399318 0.36424
vn -0.841359 0.399362 0.364176
vn -0.841329 0.39933 0.364281
vn -0.841307 0.399337 0.364324
vn -0.841415 0.399279 0.364139
vn -0.840913 0.400532 0.363921
vn -0.841558 0.399324 0.36376
vn -0.841315 0.399355 0.364287
vn -0.841291 0.399327 0.364374
vn -0.841276 0.399327 0.364408
vn -0.841414 0.399322 0.364095
vn -0.841407 0.399316 0.364116
vn -0.841367 0.39934 0.364182
vn -0.332645 0 -0.943052
vn -0.332699 -5.62419e-05 -0.943033
vn -0.332645 8.45211e-06 -0.943052
vn -0.332821 -0 -0.94299
vn -0.359115 0 -0.933293
vn -0.359115 -0 -0.933293
vn -0.896209 0 0.443632
vn -0.896208 -1.40717e-06 0.443633
vn -0.896209 1.86333e-06 0.443632
vn -0.896208 0 0.443633
vn -0.889526 0 0.456885
vn -0.889526 0 0.456885
vn -0.875148 0 0.483856
vn -0.875148 0 0.483856
vn -0.902125 0 0.431475
vn -0.902394 -0.000115976 0.430912
vn -0.902166 0 0.431389
vn 0 1 6.12295e-17
vn 0.315135 0 0.949047
vn 0.420212 0 0.907426
vn 0.492057 0 0.870563
vn 0.899895 0 -0.436107
vn -0.398833 0 -0.917023
vn -0.398833 -0 -0.917024
vn -0.500865 0 -0.865525
vn -0.500865 5.29981e-17 -0.865525
vn 0.929636 0 -0.368478
vn 0.929636 0 -0.368478
vn 0.931876 0 -0.362777
vn 0.932035 5.01899e-05 -0.362368
vn 0.931962 0 -0.362555
vn -1.94333e-20 -1 -6.12342e-17
vn -2.90608e-26 -1 -6.12323e-17
vn -2.75578e-26 -1 -6.12323e-17
vn 1.38713e-24 -1 -6.12323e-17
vn 2.09602e-24 -1 -6.12323e-17
vn -7.36176e-23 -1 -6.12323e-17
vn 0 -1 -6.12323e-17
vn 1.313e-24 -1 -6.12323e-17
vn -5.05135e-23 -1 -6.12322e-17
vn 1.23756e-23 -1 -6.12324e-17
vn 2.15714e-23 -1 -6.12323e-17
vn -1.55361e-23 -1 -6.12323e-17
vn 0 -1 -6.12323e-17

# Mesh 'defaultobject' with 68 faces
g defaultobject
usemtl DefaultMaterial
f  1//1 2//1 3//1
f  2//1 1//1 4//2
f  4//3 1//3 5//3
f  2//4 6//4 7//4
f  6//5 2//5 4//5
f  6//6 4//6 8//6
f  6//7 8//7 9//7
f  6//8 9//8 10//8
f  6//9 10//9 11//9
f  9//10 8//10 12//10
f  12//11 13//11 9//11
f  13//12 12//12 14//12
f  13//13 14//13 15//13
f  15//14 16//14 17//14
f  16//15 15//15 18//15
f  18//16 15//16 14//16
f  19//17 10//17 9//17
f  10//18 19//18 11//18
f  11//19 19//17 20//19
f  11//20 20//20 21//20
f  22//21 12//21 8//21
f  12//21 22//21 23//22
f  21//23 6//23 11//23
f  6//23 21//23 7//24
f  7//24 21//23 24//25
f  7//24 24//25 25//26
f  2//27 26//27 3//27
f  26//27 2//27 27//28
f  16//29 28//29 17//29
f  28//29 16//29 29//30
f  13//31 19//31 9//31
f  19//32 13//32 15//32
f  19//33 15//33 30//33
f  19//34 30//34 31//34
f  7//35 27//35 2//35
f  27//35 7//35 25//35
f  3//36 32//36 1//36
f  32//36 3//36 26//36
f  17//37 30//37 15//37
f  30//37 17//37 28//37
f  32//38 5//38 1//38
f  5//38 32//38 33//38
f  33//39 4//39 5//39
f  4//39 33//39 34//40
f  35//41 16//41 18//41
f  16//41 35//41 29//42
f  4//43 22//43 8//43
f  22//43 4//43 34//44
f  23//45 14//45 12//45
f  14//46 23//46 18//46
f  18//47 23//47 35//47
f  35//48 23//48 36//48
f  36//48 29//49 35//48
f  29//49 36//48 30//50
f  30//50 36//48 31//51
f  31//51 36//48 23//48
f  31//51 23//48 19//52
f  32//53 34//53 33//53
f  34//53 23//48 22//54
f  23//48 34//53 19//52
f  19//52 34//53 20//55
f  20//55 34//53 21//56
f  21//56 34//53 24//54
f  24//54 34//53 27//57
f  27//57 34//53 26//58
f  26//58 34//53 32//53
f  25//59 24//54 27//57
f  28//60 29//49 30//50

