# {"id":"ID_46562","idOriginal":"ID_46562","origin":[14.259634557116568,48.311727258658486],"elevation":346.115}
# Longitude: 14.259634557116568
# Latitude: 48.311727258658486
# Elevation: 346.115

# File produced by Open Asset Import Library (http://www.assimp.sf.net)
# (assimp v3.1.0)

mtllib ID_46562.obj.mtl

# 10 vertex positions
v  0 2.631 1.61102e-16
v  3.591 1.663 -5.711
v  0.585 2.656 -5.966
v  3.575 1.653 -5.29
v  2.924 1.663 0.307
v  0.585 3.65312e-16 -5.966
v  3.591 3.49698e-16 -5.711
v  0 0 0
v  2.924 -1.87983e-17 0.307
v  3.575 3.23919e-16 -5.29

# 0 UV coordinates

# 15 vertex normals
vn 0.310845 0.949836 0.0344603
vn 0.310715 0.949881 0.0343712
vn 0.31083 0.949841 0.0344563
vn 0.0845268 0 -0.996421
vn 0.0845268 0 -0.996421
vn -0.995227 0 -0.0975876
vn -0.995227 5.97552e-18 -0.0975876
vn -0.104419 -6.08976e-17 0.994533
vn -0.104419 0 0.994533
vn 0.999279 0 0.0379774
vn 0.993304 -0 0.115533
vn 0.993304 0 0.115533
vn -2.6061e-24 -1 -6.12323e-17
vn 0 -1 -6.12323e-17
vn 3.99472e-25 -1 -6.12323e-17

# Mesh 'defaultobject' with 16 faces
g defaultobject
usemtl DefaultMaterial
f  1//1 2//1 3//1
f  2//2 1//2 4//2
f  4//3 1//3 5//3
f  2//4 6//4 3//4
f  6//4 2//4 7//5
f  6//6 1//6 3//6
f  1//6 6//6 8//7
f  8//8 5//8 1//8
f  5//8 8//8 9//9
f  4//10 7//10 2//10
f  7//10 4//10 10//10
f  9//11 4//11 5//11
f  4//11 9//11 10//12
f  10//13 6//13 7//13
f  6//13 10//13 8//14
f  8//14 10//13 9//15

