# {"id":"ID_47043","idOriginal":"ID_47043","origin":[14.3183638176318,48.261263663274704],"elevation":259.306}
# Longitude: 14.3183638176318
# Latitude: 48.261263663274704
# Elevation: 259.306

# File produced by Open Asset Import Library (http://www.assimp.sf.net)
# (assimp v3.1.0)

mtllib ID_47043.obj.mtl

# 13 vertex positions
v  2.815 2.454 -0.763
v  0.947 1.961 2.876
v  6.377 1.958 1.14
v  0.921 1.976 2.797
v  2.776 2.454 -0.898
v  5.533 1.96 -1.789
v  0 1.957 1.19832e-16
v  5.533 1.09545e-16 -1.789
v  2.776 5.49866e-17 -0.898
v  0 0 0
v  0.921 -1.71267e-16 2.797
v  0.947 -1.76104e-16 2.876
v  6.377 -6.98049e-17 1.14

# 0 UV coordinates

# 20 vertex normals
vn 0.0517293 0.985744 0.1601
vn 0.0635442 0.984086 0.16594
vn 0.16178 0.985757 -0.0459442
vn 0.162295 0.985628 -0.046885
vn -0.161458 0.985785 0.0464685
vn -0.161242 0.985815 0.0465809
vn -0.307517 0 -0.951543
vn -0.307784 -0 -0.951456
vn -0.307784 5.82599e-17 -0.951456
vn -0.949832 -1.91511e-17 0.312762
vn -0.949832 0 0.312762
vn -0.949879 0 0.312619
vn 0.304521 -0 0.952506
vn 0.304521 0 0.952506
vn 0.960902 0 -0.276887
vn 0.960903 0 -0.276887
vn -3.08092e-24 -1 -6.12323e-17
vn -1.24063e-23 -1 -6.12323e-17
vn 2.39473e-23 -1 -6.12323e-17
vn 3.04782e-24 -1 -6.12323e-17

# Mesh 'defaultobject' with 22 faces
g defaultobject
usemtl DefaultMaterial
f  1//1 2//1 3//1
f  2//2 1//2 4//2
f  5//3 3//3 6//3
f  3//4 5//4 1//4
f  4//5 5//5 7//5
f  5//6 4//6 1//6
f  8//7 5//7 6//7
f  5//7 8//7 9//7
f  5//8 9//8 7//8
f  7//8 9//8 10//9
f  10//10 4//10 7//10
f  4//10 10//10 11//11
f  4//12 11//12 2//12
f  2//12 11//12 12//12
f  12//13 3//13 2//13
f  3//13 12//13 13//14
f  3//15 8//15 6//15
f  8//15 3//15 13//16
f  9//17 11//17 10//17
f  11//17 9//17 8//18
f  11//17 8//18 12//19
f  12//19 8//18 13//20

