# {"id":"ID_999","idOriginal":"ID_999","origin":[14.301778119074676,48.33447675971851],"elevation":262.743}
# Longitude: 14.301778119074676
# Latitude: 48.33447675971851
# Elevation: 262.743

# File produced by Open Asset Import Library (http://www.assimp.sf.net)
# (assimp v3.1.0)

mtllib ID_999.obj.mtl

# 56 vertex positions
v  48.038 11.862 9.374
v  41.517 11.862 5.974
v  41.858 11.862 9.883
v  41.51 11.862 5.897
v  40.554 11.862 -2.075
v  40.683 11.862 -2.088
v  40.468 11.862 -4.194
v  37.532 11.862 -32.948
v  53.807 11.862 -34.542
v  57.601 11.862 8.397
v  58.24 11.862 8.332
v  58.209 11.862 8.025
v  57.838 11.862 4.324
v  56.793 11.862 -5.843
v  57.465 11.862 0.614
v  41.38 11.862 5.91
v  20.951 11.862 -0.097
v  21.691 11.862 7.863
v  22.196 11.862 13.357
v  1.336 11.862 13.592
v  1.566 11.862 15.37
v  0.954 11.862 10.073
v  0.733 11.862 8.032
v  0 11.862 7.26338e-16
v  20.677 11.862 -2.093
v  22.273 11.862 13.349
v  21.703 11.862 7.976
v  20.728 11.862 -2.098
v  1.566 -9.41141e-16 15.37
v  22.196 -8.1788e-16 13.357
v  22.273 -8.17391e-16 13.349
v  21.691 -4.8147e-16 7.863
v  41.38 -3.61883e-16 5.91
v  41.51 -3.61087e-16 5.897
v  41.858 -6.05159e-16 9.883
v  48.038 -5.73992e-16 9.374
v  58.24 -5.10188e-16 8.332
v  57.601 -5.14168e-16 8.397
v  21.703 -4.88389e-16 7.976
v  58.209 -4.91389e-16 8.025
v  57.838 -2.64769e-16 4.324
v  57.465 -3.75967e-17 0.614
v  56.793 3.57781e-16 -5.843
v  53.807 2.11509e-15 -34.542
v  20.951 5.93954e-18 -0.097
v  20.728 1.28465e-16 -2.098
v  41.517 -3.65802e-16 5.974
v  37.532 2.01748e-15 -32.948
v  40.468 2.56808e-16 -4.194
v  40.683 1.27853e-16 -2.088
v  1.336 -8.3227e-16 13.592
v  0 0 0
v  0.954 -6.16793e-16 10.073
v  0.733 -4.91818e-16 8.032
v  40.554 1.27057e-16 -2.075
v  20.677 1.28159e-16 -2.093

# 0 UV coordinates

# 65 vertex normals
vn 0 1 0
vn 0.0971151 -0 0.995273
vn 0.103343 0 0.994646
vn 0.098708 -0 0.995116
vn 0.0995059 0 0.995037
vn 0.0820847 -0 0.996625
vn 0.101635 -0 0.994822
vn 0.1012 0.000354666 0.994866
vn 0.101608 0 0.994825
vn -1.37752e-20 -1 -6.13665e-17
vn 0.99442 0 -0.105494
vn 0.994409 -4.53964e-05 -0.105593
vn 0.99442 0 -0.105496
vn 2.70357e-19 1 6.12089e-17
vn 0.99494 0 -0.100473
vn 0.995013 1.90837e-05 -0.0997429
vn 0.994984 -8.06437e-05 -0.100035
vn 0.994625 -0.00236756 -0.103514
vn 0.994628 -0.00233452 -0.103487
vn 0.994902 0.00867514 -0.10047
vn 0.994949 0.0113209 -0.0997364
vn 0.994931 0.0103539 -0.10003
vn 0.994628 -6.68753e-05 -0.103514
vn 0.994631 0 -0.103487
vn 0.993847 0 -0.110758
vn -0.995893 0 0.0905352
vn -0.996217 2.37529e-05 0.0869054
vn -0.99621 0 0.0869756
vn 0 -1 -6.12335e-17
vn -0.994827 0 0.101579
vn -0.994829 0 0.101561
vn -0.991737 0 0.12829
vn -0.995862 -5.56494e-18 0.0908823
vn -0.994123 -0.011457 0.107644
vn -0.994092 -0.0116874 0.107912
vn -0.995537 0.00408893 0.0942859
vn -0.99416 0 0.10792
vn -7.58939e-22 1 6.12324e-17
vn -0.0974751 0 -0.995238
vn -0.100269 0 -0.99496
vn -0.100393 -1.3624e-06 -0.994948
vn -0.100392 -0 -0.994948
vn 0 1 6.08616e-17
vn -0.0975725 0 -0.995228
vn -0.100709 -1.36169e-05 -0.994916
vn -0.100701 6.09211e-17 -0.994917
vn 7.88511e-21 1 6.12515e-17
vn 0 -1 -6.12323e-17
vn 0 -1 -6.12323e-17
vn 0 -1 -6.12323e-17
vn 0 -1 -6.12323e-17
vn -2.02568e-20 -1 -6.12324e-17
vn -4.25467e-21 -1 -6.12315e-17
vn 3.45719e-23 -1 -6.12323e-17
vn -1.33883e-24 -1 -6.12323e-17
vn 0 -1 -6.12325e-17
vn 1.3388e-24 -1 -6.12323e-17
vn 0 -1 -6.12323e-17
vn 0 -1 -6.12323e-17
vn 0 -1 -6.12322e-17
vn 0 -1 -6.12323e-17
vn -1.4046e-21 -1 -6.12307e-17
vn 2.64503e-24 -1 -6.12323e-17
vn -1.34955e-21 -1 -6.12321e-17
vn -8.13364e-22 -1 -6.12322e-17

# Mesh 'defaultobject' with 108 faces
g defaultobject
usemtl DefaultMaterial
f  1//1 2//1 3//1
f  2//1 1//1 4//1
f  4//1 1//1 5//1
f  5//1 1//1 6//1
f  6//1 1//1 7//1
f  7//1 1//1 8//1
f  8//1 1//1 9//1
f  9//1 1//1 10//1
f  9//1 10//1 11//1
f  9//1 11//1 12//1
f  9//1 12//1 13//1
f  9//1 13//1 14//1
f  14//1 13//1 15//1
f  16//1 17//1 18//1
f  17//1 16//1 5//1
f  5//1 16//1 4//1
f  19//1 20//1 21//1
f  20//1 19//1 22//1
f  22//1 19//1 23//1
f  23//1 19//1 24//1
f  24//1 19//1 25//1
f  25//1 19//1 18//1
f  18//1 19//1 26//1
f  18//1 26//1 27//1
f  25//1 18//1 17//1
f  25//1 17//1 28//1
f  29//2 19//2 21//2
f  19//2 29//2 30//2
f  19//3 30//3 26//3
f  26//3 30//3 31//3
f  32//4 16//4 18//4
f  16//4 32//4 33//4
f  16//5 33//5 4//5
f  4//5 33//5 34//5
f  35//6 1//6 3//6
f  1//6 35//6 36//6
f  36//7 10//7 1//7
f  10//8 36//8 11//8
f  11//9 36//9 37//9
f  37//10 36//10 38//10
f  31//11 27//11 26//11
f  27//12 31//12 18//12
f  18//13 31//11 32//13
f  32//14 31//14 39//14
f  37//15 12//15 11//15
f  12//16 37//16 13//16
f  13//17 37//17 15//17
f  15//18 37//18 14//18
f  14//19 37//19 9//19
f  9//20 37//20 40//20
f  9//21 40//21 41//21
f  9//22 41//22 42//22
f  9//23 42//23 43//23
f  9//24 43//24 44//24
f  45//25 28//25 17//25
f  28//25 45//25 46//25
f  34//26 2//26 4//26
f  2//27 34//27 3//27
f  3//28 34//28 35//28
f  35//29 34//29 47//29
f  48//30 7//30 8//30
f  7//30 48//30 49//30
f  7//31 49//31 6//31
f  6//31 49//31 50//31
f  51//32 21//32 20//32
f  21//32 51//32 29//32
f  52//33 23//33 24//33
f  23//34 52//34 22//34
f  22//35 52//35 20//35
f  20//36 52//36 53//36
f  20//37 53//37 51//37
f  53//38 52//38 54//38
f  44//39 8//39 9//39
f  8//39 44//39 48//39
f  50//40 5//40 6//40
f  5//41 50//41 17//41
f  17//41 50//41 45//42
f  45//43 50//43 55//43
f  46//44 25//44 28//44
f  25//45 46//45 24//45
f  24//46 46//46 52//46
f  52//38 46//47 56//47
f  43//48 48//48 44//48
f  48//48 43//48 42//49
f  48//48 42//49 41//50
f  48//48 41//50 40//51
f  48//48 40//51 37//10
f  48//48 37//10 38//10
f  48//48 38//10 36//10
f  48//48 36//10 34//29
f  34//29 36//10 47//29
f  47//29 36//10 35//29
f  48//48 34//29 49//52
f  49//52 34//29 50//53
f  50//53 34//29 55//54
f  34//29 45//55 55//54
f  45//55 34//29 33//56
f  45//55 33//56 32//57
f  45//55 56//58 46//58
f  56//58 45//55 52//59
f  52//59 45//55 32//57
f  52//59 32//57 39//60
f  52//59 39//60 31//61
f  52//59 31//61 30//62
f  52//59 30//62 29//63
f  52//59 29//63 54//49
f  54//49 29//63 53//64
f  53//64 29//63 51//65

