# {"id":"ID_13389","idOriginal":"ID_13389","origin":[14.303318896573371,48.277346559271194],"elevation":272.611,"wof":[{"Id":102049853,"Name":"Linz","Placetype":"county","Offset":-1},{"Id":85632785,"Name":"Austria","Placetype":"country","Offset":-1},{"Id":85681677,"Name":"Oberösterreich","Placetype":"region","Offset":-1},{"Id":101748071,"Name":"Linz","Placetype":"locality","Offset":-1},{"Id":85898459,"Name":"Wegscheid","Placetype":"neighbourhood","Offset":-1}]}

# Attribution: City of Linz <http://geo.data.linz.gv.at/katalog/geodata/3d_geo_daten_lod2/>
# Longitude: 14.303318896573371
# Latitude: 48.277346559271194
# Elevation: 272.611

# File produced by Open Asset Import Library (http://www.assimp.sf.net)
# (assimp v3.1.0)


# 26 vertex positions
v  22.237 8.869 3.084
v  3.299 13.444 -4.027
v  19.554 13.444 7.07
v  6.473 8.886 -7.656
v  22.431 8.539 2.796
v  22.306 8.538 2.71
v  6.754 8.482 -7.978
v  2.553 12.372 -3.174
v  16.658 8.507 11.372
v  0.79 9.842 -1.159
v  0.285 8.507 0.194
v  0 8.507 5.20904e-16
v  16.554 8.507 11.301
v  0 0 0
v  0.285 -1.18791e-17 0.194
v  16.554 -6.91987e-16 11.301
v  16.658 -6.96334e-16 11.372
v  19.554 -4.32913e-16 7.07
v  22.431 -1.71206e-16 2.796
v  22.237 -1.88841e-16 3.084
v  6.754 4.88512e-16 -7.978
v  22.306 -1.6594e-16 2.71
v  0.79 7.09683e-17 -1.159
v  6.473 4.68795e-16 -7.656
v  3.299 2.46583e-16 -4.027
v  2.553 1.94351e-16 -3.174

# 0 UV coordinates

# 40 vertex normals
vn 0.388801 0.72421 -0.56952
vn 0.388803 0.724199 -0.569533
vn 0.388406 0.724871 -0.568949
vn 0.413748 0.676488 -0.609243
vn 0.388754 0.724278 -0.569466
vn -0.388935 0.723985 0.569715
vn -0.388793 0.72427 0.56945
vn -0.388711 0.724358 0.569394
vn -0.388795 0.724239 0.569488
vn -0.387945 0.724355 0.56992
vn 0 1 0
vn -0.562707 -5.06181e-17 0.826657
vn -0.563839 5.55462e-05 0.825885
vn -0.562704 -0.00317359 0.826653
vn -0.563839 0 0.825885
vn -0.56383 0 0.825891
vn 0.82955 -0 0.558433
vn 0.82957 -1.35511e-05 0.558403
vn 0.82955 2.60013e-05 0.558432
vn 0.829448 0.000124554 0.558583
vn 0.829564 0 0.558412
vn -9.11046e-20 -1 -6.12906e-17
vn 0.566808 0 -0.82385
vn 0.566385 -9.13276e-06 -0.824141
vn 0.566388 0 -0.824139
vn 0 1 6.1234e-17
vn -0.826303 0 -0.563226
vn -0.826303 3.44877e-17 -0.563226
vn -0.752729 -1.81812e-05 -0.65833
vn -0.75154 0.00305337 -0.65968
vn -0.752771 0 -0.658283
vn -0.752656 9.0063e-05 -0.658414
vn -0.75272 -0 -0.65834
vn 0 -1 -6.12161e-17
vn 0 -1 -6.12811e-17
vn 8.15741e-20 -1 -6.11805e-17
vn -3.4454e-22 -1 -6.12326e-17
vn 2.07291e-24 -1 -6.12323e-17
vn -3.14257e-24 -1 -6.12323e-17
vn 0 -1 -6.12323e-17

# Mesh 'defaultobject' with 48 faces
g defaultobject
usemtl DefaultMaterial
f  1//1 2//1 3//1
f  2//2 1//2 4//2
f  4//3 1//3 5//3
f  4//4 5//4 6//4
f  4//5 6//5 7//5
f  8//6 3//6 2//6
f  3//7 8//7 9//7
f  9//8 8//8 10//8
f  9//9 10//9 11//9
f  11//10 10//10 12//10
f  9//11 11//11 13//11
f  14//12 11//12 12//12
f  11//13 14//13 13//13
f  13//14 14//14 15//14
f  13//15 15//15 16//15
f  13//16 16//16 9//16
f  9//16 16//16 17//16
f  17//17 3//17 9//17
f  3//18 17//18 1//18
f  1//19 17//19 18//19
f  1//20 18//20 5//20
f  5//21 18//21 19//21
f  19//22 18//22 20//22
f  19//23 6//23 5//23
f  6//24 19//24 7//24
f  7//25 19//25 21//25
f  21//26 19//26 22//26
f  23//27 12//27 10//27
f  12//27 23//27 14//28
f  4//29 8//29 2//29
f  8//30 4//30 7//30
f  8//31 7//31 21//31
f  8//32 21//32 10//32
f  10//33 21//33 23//33
f  23//34 21//34 24//34
f  23//34 24//34 25//35
f  23//34 25//35 26//36
f  16//37 18//22 17//37
f  18//22 16//37 15//38
f  18//22 15//38 20//22
f  20//22 15//38 19//22
f  19//22 15//38 22//39
f  22//39 15//38 21//34
f  21//34 15//38 14//40
f  21//34 14//40 24//34
f  24//34 14//40 26//36
f  26//36 14//40 23//34
f  24//34 26//36 25//35

