# {"id":"ID_15749","idOriginal":"ID_15749","origin":[14.30633476844806,48.24658550617909],"elevation":259.235}
# Longitude: 14.30633476844806
# Latitude: 48.24658550617909
# Elevation: 259.235

# File produced by Open Asset Import Library (http://www.assimp.sf.net)
# (assimp v3.1.0)

mtllib ID_15749.obj.mtl

# 40 vertex positions
v  11.639 14.614 10.14
v  5.174 14.614 9.058
v  7.214 14.614 12.63
v  0 14.614 8.94849e-16
v  9.551 14.614 6.552
v  9.499 14.614 6.463
v  9.559 14.614 6.428
v  12.173 14.614 4.911
v  2.583 14.614 -1.523
v  12.268 14.614 4.856
v  2.072 14.614 -2.384
v  18.274 14.614 6.277
v  12.327 14.614 4.961
v  14.31 14.614 8.491
v  3.924 14.614 -3.436
v  16.285 14.614 2.695
v  6.671 14.614 -4.996
v  8.921 14.614 -5.128
v  11.217 14.614 -6.43
v  8.428 14.614 -5.994
v  0 0 0
v  7.214 -7.73364e-16 12.63
v  5.174 -5.54643e-16 9.058
v  12.268 -2.97344e-16 4.856
v  14.31 -5.19924e-16 8.491
v  12.327 -3.03774e-16 4.961
v  2.072 1.45978e-16 -2.384
v  2.583 9.32569e-17 -1.523
v  11.639 -6.20896e-16 10.14
v  9.499 -3.95745e-16 6.463
v  12.173 -3.00712e-16 4.911
v  9.559 -3.93601e-16 6.428
v  18.274 -3.84355e-16 6.277
v  9.551 -4.01194e-16 6.552
v  11.217 3.93724e-16 -6.43
v  16.285 -1.65021e-16 2.695
v  8.921 3.13999e-16 -5.128
v  8.428 3.67027e-16 -5.994
v  3.924 2.10394e-16 -3.436
v  6.671 3.05917e-16 -4.996

# 0 UV coordinates

# 41 vertex normals
vn 0 1 0
vn -0.868326 -3.03709e-17 0.495994
vn -0.868363 5.33357e-05 0.49593
vn -0.868336 0 0.495976
vn -1.32091e-19 -1 -6.1158e-17
vn -0.871797 0 0.489867
vn -0.871852 9.28774e-07 0.489769
vn -0.871851 0 0.489772
vn -9.65411e-19 -1 -6.13036e-17
vn -0.859951 0 0.510377
vn 0.490401 -0 0.871497
vn 0.503867 -0 0.863781
vn 0.501936 1.06184e-05 0.864905
vn 0.501041 0.000229424 0.865423
vn 0.501979 -8.14563e-06 0.86488
vn 0.501041 0 0.865423
vn 0 -1 -6.12712e-17
vn 0.487624 -0 0.873054
vn 0.864303 0 -0.502972
vn 0.863427 -0.000493682 -0.504473
vn 0.864281 0 -0.503009
vn -6.45129e-20 1 6.12706e-17
vn 0.874261 0 -0.485456
vn 0.874216 -2.58832e-05 -0.485537
vn 0.874229 0 -0.485514
vn -2.14743e-19 1 6.13092e-17
vn 0.869045 0 -0.494733
vn -0.49328 0 -0.869871
vn -0.493899 0 -0.869519
vn -0.493819 1.26888e-05 -0.869565
vn -0.493913 -2.54298e-05 -0.869512
vn -0.49385 1.04506e-05 -0.869547
vn -0.493913 -0 -0.869512
vn 9.0409e-20 -1 -6.10261e-17
vn -0.507909 0 -0.861411
vn -0.507909 5.27462e-17 -0.861411
vn -1.41647e-24 -1 -6.12323e-17
vn 0 -1 -6.12323e-17
vn 0 -1 -6.12323e-17
vn 5.09165e-23 -1 -6.12322e-17
vn 6.95335e-24 -1 -6.12323e-17

# Mesh 'defaultobject' with 76 faces
g defaultobject
usemtl DefaultMaterial
f  1//1 2//1 3//1
f  2//1 1//1 4//1
f  4//1 1//1 5//1
f  4//1 5//1 6//1
f  4//1 6//1 7//1
f  4//1 7//1 8//1
f  4//1 8//1 9//1
f  9//1 8//1 10//1
f  9//1 10//1 11//1
f  12//1 13//1 14//1
f  13//1 12//1 10//1
f  10//1 12//1 11//1
f  11//1 12//1 15//1
f  15//1 12//1 16//1
f  15//1 16//1 17//1
f  17//1 16//1 18//1
f  18//1 16//1 19//1
f  20//1 17//1 18//1
f  21//2 2//2 4//2
f  2//3 21//3 3//3
f  3//4 21//4 22//4
f  22//5 21//5 23//5
f  24//6 13//6 10//6
f  13//7 24//7 14//7
f  14//7 24//7 25//8
f  25//9 24//9 26//9
f  27//10 9//10 11//10
f  9//10 27//10 28//10
f  22//11 1//11 3//11
f  1//11 22//11 29//11
f  30//12 7//12 6//12
f  7//13 30//13 8//13
f  8//14 30//14 10//14
f  10//15 30//15 31//15
f  10//16 31//16 24//16
f  31//17 30//17 32//17
f  25//18 12//18 14//18
f  12//18 25//18 33//18
f  29//19 5//19 1//19
f  5//20 29//20 6//20
f  6//21 29//21 30//21
f  30//22 29//22 34//22
f  33//23 16//23 12//23
f  16//24 33//24 19//24
f  19//25 33//25 35//25
f  35//26 33//26 36//26
f  37//27 20//27 18//27
f  20//27 37//27 38//27
f  35//28 18//28 19//28
f  18//28 35//28 37//28
f  38//29 17//29 20//29
f  17//30 38//30 15//30
f  15//31 38//31 11//31
f  11//32 38//32 39//32
f  11//33 39//33 27//33
f  39//34 38//34 40//34
f  28//35 4//35 9//35
f  4//35 28//35 21//36
f  33//37 24//9 36//37
f  24//9 33//37 26//9
f  26//9 33//37 25//9
f  36//37 37//38 35//38
f  37//38 36//37 39//34
f  39//34 36//37 27//39
f  27//39 36//37 28//38
f  28//38 36//37 21//5
f  21//5 36//37 24//9
f  21//5 24//9 31//17
f  21//5 31//17 32//17
f  21//5 32//17 30//17
f  21//5 30//17 23//5
f  23//5 30//17 34//40
f  23//5 34//40 29//41
f  23//5 29//41 22//5
f  37//38 40//34 38//34
f  40//34 37//38 39//34

