# {"id":"ID_44821","idOriginal":"ID_44821","origin":[14.269116994706913,48.317631657965954],"elevation":307.264}
# Longitude: 14.269116994706913
# Latitude: 48.317631657965954
# Elevation: 307.264

# File produced by Open Asset Import Library (http://www.assimp.sf.net)
# (assimp v3.1.0)

mtllib ID_44821.obj.mtl

# 15 vertex positions
v  3.08 4.863 0.901
v  4.005 4.863 2.86
v  6.21 3.945 1.91
v  1.8 3.941 3.81
v  0 3.941 2.41317e-16
v  0.124 3.993 -0.059
v  5.285 4.863 -0.049
v  4.34 3.925 -2.05
v  0 0 0
v  1.8 -2.33295e-16 3.81
v  6.21 -1.16954e-16 1.91
v  4.005 -1.75124e-16 2.86
v  4.34 1.25526e-16 -2.05
v  5.285 3.00038e-18 -0.049
v  0.124 3.61271e-18 -0.059

# 0 UV coordinates

# 26 vertex normals
vn 0.32311 0.933982 -0.152566
vn -0.324337 0.933462 0.153146
vn -0.324252 0.933484 0.15319
vn -0.322672 0.935173 0.146062
vn 0.154455 0.920664 0.358499
vn -0.154496 0.920621 -0.358592
vn -0.154496 0.92062 -0.358593
vn -0.904172 -2.61565e-17 0.427168
vn -0.904172 0 0.427168
vn 0.395678 -0 0.918389
vn 0.395678 -5.1532e-08 0.918389
vn 0.395678 0 0.918389
vn -5.55112e-17 1 -5.55112e-17
vn 0.904263 0 -0.426975
vn 0.904239 -2.57268e-05 -0.427027
vn 0.904249 0 -0.427006
vn 0 1 6.11788e-17
vn -0.429651 0 -0.902995
vn -0.427027 -9.98583e-05 -0.904239
vn -0.429648 0.00345096 -0.90299
vn -0.427026 0 -0.904239
vn -5.09196e-24 -1 -6.12323e-17
vn 1.01839e-23 -1 -6.12323e-17
vn -4.98478e-24 -1 -6.12323e-17
vn -2.61748e-24 -1 -6.12323e-17
vn 0 -1 -6.12301e-17

# Mesh 'defaultobject' with 26 faces
g defaultobject
usemtl DefaultMaterial
f  1//1 2//1 3//1
f  1//2 4//2 2//2
f  4//3 1//3 5//3
f  5//4 1//4 6//4
f  1//5 3//5 7//5
f  6//6 7//6 8//6
f  7//6 6//6 1//7
f  9//8 4//8 5//8
f  4//8 9//8 10//9
f  10//10 2//10 4//10
f  2//10 10//10 3//11
f  3//11 10//10 11//12
f  11//13 10//13 12//13
f  11//14 7//14 3//14
f  7//15 11//15 8//15
f  8//16 11//16 13//16
f  13//17 11//13 14//17
f  6//18 9//18 5//18
f  9//19 6//19 8//19
f  9//20 8//20 15//20
f  15//21 8//21 13//21
f  12//22 14//22 11//22
f  14//22 12//22 10//23
f  14//22 10//23 13//24
f  13//24 10//23 9//25
f  13//24 9//25 15//26

