# {"id":"ID_41024","idOriginal":"ID_41024","origin":[14.31154242874409,48.33073940864542],"elevation":257.515}
# Longitude: 14.31154242874409
# Latitude: 48.33073940864542
# Elevation: 257.515

# File produced by Open Asset Import Library (http://www.assimp.sf.net)
# (assimp v3.1.0)

mtllib ID_41024.obj.mtl

# 21 vertex positions
v  0.113 25.285 0.139
v  5.86 25.27 7.212
v  4.121 27.15 2.764
v  8.143 25.279 5.397
v  6.687 25.19 6.811
v  8.277 25.191 5.562
v  6.297 25.191 7.115
v  5.981 25.191 7.361
v  2.391 25.279 -1.664
v  0 25.211 1.54373e-15
v  2.245 25.184 -1.843
v  0 0 0
v  5.86 -4.41608e-16 7.212
v  5.981 -4.50731e-16 7.361
v  0.113 -8.5113e-18 0.139
v  6.687 -4.17053e-16 6.811
v  8.277 -3.40574e-16 5.562
v  6.297 -4.35668e-16 7.115
v  8.143 -3.30471e-16 5.397
v  2.245 1.12851e-16 -1.843
v  2.391 1.01891e-16 -1.664

# 0 UV coordinates

# 36 vertex normals
vn -0.612159 0.613648 0.498696
vn 0.235964 0.923929 0.301126
vn 0.234248 0.924919 0.299421
vn 0.235253 0.924876 0.298764
vn 0.233369 0.925027 0.299774
vn 0.236151 0.924726 0.29852
vn 0.611973 0.613974 -0.498523
vn -0.234674 0.924815 -0.29941
vn -0.234523 0.924924 -0.299189
vn -0.23056 0.924166 -0.304564
vn -0.776103 0.000614288 0.630606
vn -0.776101 0 0.630609
vn -0.776251 8.78085e-05 0.630424
vn -0.776101 -2.09478e-06 0.630609
vn -0.776274 0 0.630395
vn -5.09277e-19 -1 -6.11132e-17
vn 0.614287 -0 0.789083
vn 0.61478 -9.94469e-06 0.788698
vn 0.617734 -0.000143198 0.786387
vn 0.61456 0.000323501 0.78887
vn 0.617734 0 0.786387
vn -6.67683e-21 1 6.12198e-17
vn 0.775306 -0.00361878 -0.631576
vn 0.775332 0 -0.631554
vn 0.774975 -0.000208721 -0.631992
vn 0.776257 0.00056083 -0.630416
vn 0.775301 0 -0.631592
vn 5.60102e-20 1 6.11885e-17
vn -0.634512 0 -0.772913
vn -0.634512 0 -0.772913
vn -6.72723e-23 -1 -6.12325e-17
vn -6.31151e-23 -1 -6.12325e-17
vn -2.81303e-24 -1 -6.12323e-17
vn -3.20006e-23 -1 -6.12323e-17
vn 0 -1 -6.12324e-17
vn -2.71234e-23 -1 -6.12324e-17

# Mesh 'defaultobject' with 38 faces
g defaultobject
usemtl DefaultMaterial
f  1//1 2//1 3//1
f  4//2 5//2 6//2
f  5//3 4//3 3//3
f  5//4 3//4 7//4
f  7//5 3//5 8//5
f  8//6 3//6 2//6
f  4//7 9//7 3//7
f  10//8 9//8 11//8
f  9//9 10//9 3//9
f  3//10 10//10 1//10
f  10//11 2//11 1//11
f  2//12 10//12 12//12
f  2//13 12//13 8//13
f  8//14 12//12 13//14
f  8//15 13//15 14//15
f  13//16 12//16 15//16
f  14//17 7//17 8//17
f  7//18 14//18 5//18
f  5//19 14//19 6//19
f  6//20 14//20 16//20
f  6//21 16//21 17//21
f  16//22 14//22 18//22
f  6//23 9//23 4//23
f  9//24 6//24 17//24
f  9//25 17//25 11//25
f  11//26 17//26 19//26
f  11//27 19//27 20//27
f  20//28 19//28 21//28
f  11//29 12//29 10//29
f  12//29 11//29 20//30
f  13//16 18//31 14//31
f  18//31 13//16 16//32
f  16//32 13//16 15//16
f  16//32 15//16 17//33
f  17//33 15//16 19//34
f  19//34 15//16 21//35
f  21//35 15//16 12//16
f  21//35 12//16 20//36

