# File produced by Open Asset Import Library (http://www.assimp.sf.net)
# (assimp v3.1.0)

mtllib ID_2266.obj.mtl

# 52 vertex positions
v  18.819 11.47 -10.922
v  18.853 11.47 -11.127
v  18.234 11.47 -11.041
v  5.63 11.47 -13.476
v  2.921 11.47 -14.835
v  2.765 11.47 -14.049
v  8.05 11.47 -40.62
v  9.289 11.47 -40.367
v  18.136 11.47 -38.601
v  12.77 11.47 -12.149
v  12.751 11.47 -12.053
v  12.886 11.47 -12.126
v  22.823 11.47 -37.665
v  24.062 11.47 -37.42
v  18.819 6.6878e-16 -10.922
v  18.853 6.81332e-16 -11.127
v  24.062 2.29131e-15 -37.42
v  12.751 7.38033e-16 -12.053
v  12.77 7.43912e-16 -12.149
v  8.05 2.48726e-15 -40.62
v  22.823 2.30632e-15 -37.665
v  18.136 2.36363e-15 -38.601
v  9.289 2.47177e-15 -40.367
v  2.921 9.08382e-16 -14.835
v  2.765 8.60253e-16 -14.049
v  5.63 8.25167e-16 -13.476
v  12.886 7.42503e-16 -12.126
v  18.234 6.76066e-16 -11.041
v  18.051 11.504 -6.812
v  10.08 11.504 2.02
v  15.94 11.504 3.194
v  0 11.504 7.04417e-16
v  1.001 11.504 -5.18
v  12.07 11.504 -8.016
v  11.944 11.504 -8.041
v  11.964 11.504 -8.139
v  5.028 11.504 -9.529
v  1.987 11.504 -10.138
v  11.964 4.9837e-16 -8.139
v  1.987 6.20773e-16 -10.138
v  5.028 5.83483e-16 -9.529
v  18.051 4.17115e-16 -6.812
v  11.944 4.92369e-16 -8.041
v  12.07 4.90838e-16 -8.016
v  0 0 0
v  1.001 3.17184e-16 -5.18
v  10.08 -1.23689e-16 2.02
v  15.94 -1.95576e-16 3.194
v  1.987 10.901 -10.138
v  2.765 10.902 -14.049
v  12.751 12.881 -12.053
v  11.964 12.879 -8.139

# 0 UV coordinates

# 70 vertex normals
vn 0 1 0
vn 0.986523 -0 0.16362
vn 0.980935 -0 0.194336
vn 0.980972 -0 0.194152
vn 0.193986 0 -0.981004
vn 0.195835 0.000207535 -0.980637
vn 0.195754 0.000164013 -0.980653
vn 0.200064 0.00594359 -0.979765
vn 0.195975 0 -0.980609
vn 5.0635e-21 -1 -6.12633e-17
vn 1.40939e-20 -1 -6.1299e-17
vn -4.02014e-21 -1 -6.12118e-17
vn -0.980785 0 -0.195092
vn -0.980868 -0 -0.194676
vn -0.196116 0 0.980581
vn -0.195957 -4.12875e-05 0.980612
vn -0.196003 0 0.980603
vn 7.69492e-21 1 6.12054e-17
vn -0.194489 0 0.980905
vn -0.198829 4.56363e-05 0.980034
vn -0.199337 0.000297528 0.979931
vn -0.194489 -0.00236308 0.980902
vn -0.198829 -2.69715e-05 0.980034
vn -0.199337 0 0.979931
vn 2.82642e-24 -1 -6.12323e-17
vn -1.07636e-24 -1 -6.12323e-17
vn 4.26043e-22 -1 -6.12324e-17
vn -1.94749e-22 -1 -6.12323e-17
vn 1.43917e-24 -1 -6.12323e-17
vn 3.86556e-23 -1 -6.12323e-17
vn -2.05678e-22 -1 -6.12323e-17
vn 0.196497 0 -0.980505
vn 0.196364 -8.33035e-05 -0.980531
vn 0.196456 0 -0.980513
vn 1.5583e-20 1 6.11567e-17
vn 0.197345 0 -0.980334
vn 0.194624 -0.00147176 -0.980877
vn 0.197289 0 -0.980345
vn 5.03938e-21 1 6.1207e-17
vn -0.980793 0 -0.195051
vn -0.981833 -0.00238118 -0.189733
vn -0.981329 1.17772e-17 -0.192336
vn 0 1 6.12322e-17
vn -0.19649 -6.00387e-17 0.980506
vn -0.196438 -4.76886e-05 0.980516
vn -0.19649 2.77234e-05 0.980506
vn -0.196438 0 0.980516
vn 0.978462 -0 0.206429
vn 0.979805 -0 0.199956
vn 8.6625e-25 -1 -6.12323e-17
vn 0 -1 -6.12323e-17
vn -3.38943e-24 -1 -6.12323e-17
vn -5.92749e-23 -1 -6.12324e-17
vn -1.96725e-24 -1 -6.12323e-17
vn -2.44441e-23 -1 -6.12324e-17
vn 2.96064e-24 -1 -6.12323e-17
vn -5.0651e-24 -1 -6.12323e-17
vn -0.187213 0.981623 -0.0369905
vn -0.187134 0.981641 -0.0369014
vn -0.187189 0.981618 -0.0372315
vn -0.187158 0.981628 -0.0371309
vn -0.196364 0 0.980531
vn -0.196504 3.8542e-05 0.980503
vn -0.196456 0 0.980513
vn 0.980378 0 0.197128
vn 0.195957 0 -0.980612
vn 0.196099 9.13714e-05 -0.980584
vn 0.196003 0 -0.980603
vn -0.980783 0 -0.195103
vn -0.980783 -0 -0.195103

# Mesh 'defaultobject' with 108 faces
g defaultobject
usemtl DefaultMaterial
f  1//1 2//1 3//1
f  4//1 5//1 6//1
f  5//1 4//1 7//1
f  7//1 4//1 8//1
f  8//1 4//1 9//1
f  9//1 4//1 10//1
f  10//1 4//1 11//1
f  9//1 10//1 12//1
f  9//1 12//1 3//1
f  9//1 3//1 13//1
f  13//1 3//1 14//1
f  14//1 3//1 2//1
f  15//2 2//2 1//2
f  2//2 15//2 16//2
f  16//3 14//3 2//3
f  14//3 16//3 17//3
f  18//4 10//4 11//4
f  10//4 18//4 19//4
f  17//5 13//5 14//5
f  13//6 17//6 9//6
f  9//7 17//7 8//7
f  8//8 17//8 7//8
f  7//9 17//9 20//9
f  20//10 17//10 21//10
f  20//10 21//10 22//11
f  20//10 22//11 23//12
f  20//13 5//13 7//13
f  5//13 20//13 24//13
f  5//14 24//14 6//14
f  6//14 24//14 25//14
f  25//15 4//15 6//15
f  4//16 25//16 11//16
f  11//17 25//17 18//17
f  18//18 25//18 26//18
f  19//19 12//19 10//19
f  12//20 19//20 3//20
f  3//21 19//21 1//21
f  1//22 19//22 27//22
f  1//23 27//23 28//23
f  1//24 28//24 15//24
f  24//25 26//25 25//25
f  26//25 24//25 20//10
f  26//25 20//10 18//26
f  18//26 20//10 19//27
f  19//27 20//10 27//28
f  27//28 20//10 28//29
f  28//29 20//10 15//30
f  15//30 20//10 16//31
f  16//31 20//10 23//12
f  16//31 23//12 21//10
f  16//31 21//10 17//10
f  21//10 23//12 22//11
f  29//1 30//1 31//1
f  30//1 29//1 32//1
f  32//1 29//1 33//1
f  33//1 29//1 34//1
f  33//1 34//1 35//1
f  33//1 35//1 36//1
f  33//1 36//1 37//1
f  33//1 37//1 38//1
f  39//32 37//32 36//32
f  37//33 39//33 38//33
f  38//34 39//34 40//34
f  40//35 39//35 41//35
f  42//36 34//36 29//36
f  34//37 42//37 35//37
f  35//38 42//38 43//38
f  43//39 42//39 44//39
f  40//40 33//40 38//40
f  33//41 40//41 32//41
f  32//42 40//42 45//42
f  45//43 40//35 46//43
f  45//44 30//44 32//44
f  30//45 45//45 31//45
f  31//46 45//46 47//46
f  31//47 47//47 48//47
f  48//48 29//48 31//48
f  29//48 48//48 42//48
f  43//49 36//49 35//49
f  36//49 43//49 39//49
f  47//50 42//50 48//50
f  42//50 47//50 45//51
f  42//50 45//51 44//52
f  44//52 45//51 43//53
f  43//53 45//51 46//54
f  43//53 46//54 39//55
f  39//55 46//54 41//56
f  41//56 46//54 40//57
f  49//58 4//58 50//58
f  4//59 49//59 51//59
f  51//60 49//60 37//60
f  51//61 37//61 52//61
f  40//62 37//62 49//62
f  37//63 40//63 52//63
f  52//64 40//64 39//64
f  39//55 40//57 41//56
f  52//65 18//65 51//65
f  18//65 52//65 39//65
f  18//66 4//66 51//66
f  4//67 18//67 50//67
f  50//68 18//68 25//68
f  25//25 18//26 26//25
f  25//69 49//69 50//69
f  49//69 25//69 40//70
f  41//56 18//26 39//55
f  18//26 41//56 26//25
f  26//25 41//56 40//57
f  26//25 40//57 25//25

