# File produced by Open Asset Import Library (http://www.assimp.sf.net)
# (assimp v3.1.0)

mtllib ID_48152.obj.mtl

# 11 vertex positions
v  3.809 1.99 -1.44
v  2.579 2.365 1.063
v  5.204 1.989 2.247
v  1.905 2.365 -0.72
v  1.394 1.989 3.688
v  0 1.989 1.21791e-16
v  3.809 8.81746e-17 -1.44
v  1.905 4.40873e-17 -0.72
v  0 0 0
v  1.394 -2.25825e-16 3.688
v  5.204 -1.37589e-16 2.247

# 0 UV coordinates

# 16 vertex normals
vn 0.169704 0.983419 -0.0639418
vn 0.169469 0.983451 -0.0640619
vn 0.0642426 0.983372 0.169857
vn -0.169833 0.98338 0.0641938
vn -0.169822 0.983382 0.0641952
vn -0.353706 0 -0.935357
vn -0.353566 0.000128975 -0.935409
vn -0.353706 -0.000177837 -0.935356
vn -0.353544 5.72778e-17 -0.935418
vn -0.935409 -2.16498e-17 0.353568
vn -0.935409 0 0.353568
vn 0.353759 -0 0.935337
vn 0.935293 0 -0.353874
vn -1.64832e-24 -1 -6.12323e-17
vn -1.31938e-23 -1 -6.12324e-17
vn 6.59368e-24 -1 -6.12323e-17

# Mesh 'defaultobject' with 18 faces
g defaultobject
usemtl DefaultMaterial
f  1//1 2//1 3//1
f  2//2 1//2 4//2
f  2//3 5//3 3//3
f  5//4 4//4 6//4
f  4//5 5//5 2//5
f  7//6 4//6 1//6
f  4//7 7//7 6//7
f  6//8 7//8 8//8
f  6//9 8//9 9//9
f  9//10 5//10 6//10
f  5//10 9//10 10//11
f  10//12 3//12 5//12
f  3//12 10//12 11//12
f  3//13 7//13 1//13
f  7//13 3//13 11//13
f  8//14 10//14 9//14
f  10//14 8//14 7//15
f  10//14 7//15 11//16

