# File produced by Open Asset Import Library (http://www.assimp.sf.net)
# (assimp v3.1.0)

mtllib ID_40144.obj.mtl

# 12 vertex positions
v  5.902 1.585 -1.704
v  4.289 2.851 3.781
v  7.24 1.585 2.929
v  2.951 2.851 -0.852
v  1.338 1.585 4.633
v  0 1.585 9.70533e-17
v  0 0 0
v  1.338 -2.83689e-16 4.633
v  4.289 -2.31519e-16 3.781
v  7.24 -1.7935e-16 2.929
v  5.902 1.0434e-16 -1.704
v  2.951 5.217e-17 -0.852

# 0 UV coordinates

# 17 vertex normals
vn 0.36611 0.924545 -0.105732
vn 0.36611 0.924545 -0.105732
vn -0.36611 0.924545 0.105732
vn -0.36611 0.924545 0.105732
vn -0.960738 -1.69895e-17 0.277459
vn -0.960738 0 0.277459
vn 0.277386 -0 0.960759
vn 0.277386 0 0.960759
vn 0.277386 0 0.960758
vn 0.277386 0 0.960759
vn 0.960738 0 -0.277459
vn -0.277386 0 -0.960759
vn -0.277386 0 -0.960759
vn 3.57411e-24 -1 -6.12323e-17
vn 0 -1 -6.12323e-17
vn -1.78705e-24 -1 -6.12323e-17
vn 0 -1 -6.12323e-17

# Mesh 'defaultobject' with 20 faces
g defaultobject
usemtl DefaultMaterial
f  1//1 2//1 3//1
f  2//1 1//1 4//2
f  4//3 5//3 2//3
f  5//3 4//3 6//4
f  7//5 5//5 6//5
f  5//5 7//5 8//6
f  8//7 2//7 5//7
f  2//7 8//7 9//8
f  2//7 9//8 3//9
f  3//9 9//8 10//10
f  10//11 1//11 3//11
f  1//11 10//11 11//11
f  4//12 7//12 6//12
f  7//12 4//12 12//13
f  12//13 4//12 1//13
f  12//13 1//13 11//12
f  9//14 11//14 10//14
f  11//14 9//14 8//15
f  11//14 8//15 12//16
f  12//16 8//15 7//17

