# File produced by Open Asset Import Library (http://www.assimp.sf.net)
# (assimp v3.1.0)

mtllib ID_5092.obj.mtl

# 93 vertex positions
v  19.959 10.08 -10.619
v  0.192 9.83 0.327
v  0.487 10.08 0.829
v  19.665 9.83 -11.121
v  19.484 9.564 -11.428
v  0.012 9.564 0.02
v  20.36 10.306 -9.939
v  0.886 10.306 1.509
v  20.853 10.5 -9.1
v  1.379 10.5 2.349
v  21.425 10.658 -8.128
v  1.95 10.658 3.321
v  2.582 10.775 4.396
v  22.057 10.775 -7.053
v  22.731 10.846 -5.907
v  3.255 10.846 5.543
v  23.426 10.87 -4.726
v  3.949 10.87 6.725
v  4.644 10.846 7.907
v  24.121 10.846 -3.544
v  24.795 10.775 -2.398
v  5.317 10.775 9.053
v  25.427 10.658 -1.323
v  5.949 10.658 10.129
v  25.999 10.5 -0.351
v  6.519 10.5 11.101
v  26.492 10.306 0.488
v  7.012 10.306 11.94
v  26.892 10.08 1.168
v  7.412 10.08 12.621
v  27.187 9.83 1.67
v  7.707 9.83 13.123
v  27.368 9.564 1.977
v  7.887 9.564 13.43
v  7.897 9.519 13.447
v  15.608 9.518 8.914
v  16.575 9.519 8.345
v  21.919 9.52 5.203
v  27.378 9.519 1.994
v  19.475 9.524 -11.443
v  14.021 9.519 -8.239
v  7.77 9.522 -4.563
v  0 9.511 5.82381e-16
v  0 0 0
v  0.012 -1.22465e-18 0.02
v  0.192 -2.0023e-17 0.327
v  0.487 -5.07616e-17 0.829
v  0.886 -9.23996e-17 1.509
v  1.379 -1.43835e-16 2.349
v  1.95 -2.03353e-16 3.321
v  2.582 -2.69177e-16 4.396
v  3.255 -3.39411e-16 5.543
v  3.949 -4.11788e-16 6.725
v  4.644 -4.84164e-16 7.907
v  7.412 -7.72813e-16 12.621
v  7.887 -8.2235e-16 13.43
v  7.897 -8.23391e-16 13.447
v  5.949 -6.20222e-16 10.129
v  5.317 -5.54336e-16 9.053
v  6.519 -6.7974e-16 11.101
v  7.012 -7.31114e-16 11.94
v  7.707 -8.03552e-16 13.123
v  15.608 -5.45825e-16 8.914
v  18.031 9.519 7.489
v  16.575 -5.10984e-16 8.345
v  18.031 -4.58569e-16 7.489
v  21.919 -3.18592e-16 5.203
v  27.378 -1.22097e-16 1.994
v  27.368 -1.21056e-16 1.977
v  27.187 -1.02258e-16 1.67
v  26.892 -7.15194e-17 1.168
v  26.492 -2.98814e-17 0.488
v  25.999 2.14926e-17 -0.351
v  25.427 8.10104e-17 -1.323
v  24.795 1.46835e-16 -2.398
v  24.121 2.17007e-16 -3.544
v  23.426 2.89384e-16 -4.726
v  22.731 3.61699e-16 -5.907
v  21.425 4.97696e-16 -8.128
v  19.665 6.80965e-16 -11.121
v  19.475 7.00682e-16 -11.443
v  22.057 4.31872e-16 -7.053
v  20.853 5.57214e-16 -9.1
v  20.36 6.08588e-16 -9.939
v  19.959 6.50226e-16 -10.619
v  19.484 6.99763e-16 -11.428
v  10.154 9.518 -5.966
v  14.021 5.04493e-16 -8.239
v  8.741 9.519 -5.135
v  7.77 9.52 -4.563
v  10.154 3.65312e-16 -5.966
v  8.741 3.14428e-16 -5.135
v  7.77 2.79403e-16 -4.563

# 0 UV coordinates

# 158 vertex normals
vn -0.199956 0.918882 -0.340107
vn -0.200096 0.918758 -0.340362
vn -0.303139 0.801389 -0.515638
vn -0.303428 0.80098 -0.516103
vn -0.139645 0.961286 -0.237547
vn -0.13949 0.96138 -0.237259
vn -0.0990032 0.980735 -0.168398
vn -0.0990811 0.980702 -0.168545
vn -0.070343 0.99032 -0.119655
vn -0.0703148 0.990329 -0.119601
vn -0.0473414 0.995627 -0.0805287
vn -0.0473413 0.995627 -0.0805286
vn -0.0270195 0.998578 -0.045959
vn -0.0270259 0.998577 -0.0459717
vn -0.00887292 0.999847 -0.0150919
vn -0.00887498 0.999847 -0.015096
vn 0.00886964 0.999847 0.0150864
vn 0.00886965 0.999847 0.0150864
vn 0.0270366 0.998576 0.045989
vn 0.0270274 0.998577 0.0459709
vn 0.0473128 0.995633 0.0804713
vn 0.0473421 0.995627 0.0805283
vn 0.0703743 0.990312 0.119708
vn 0.0703177 0.990329 0.119599
vn 0.0990841 0.980702 0.168543
vn 0.139434 0.961412 0.237159
vn 0.139566 0.961333 0.237403
vn 0.19996 0.918882 0.340105
vn 0.303422 0.800981 0.516106
vn 0.303156 0.801389 0.515628
vn 0.464185 0.401413 0.789557
vn 0.465475 0.39561 0.791723
vn 0.46408 0.401844 0.789399
vn 0.462725 0.407783 0.787146
vn 0.464196 0.401427 0.789543
vn -0.464364 0.400647 -0.78984
vn -0.464482 0.400119 -0.790039
vn -0.458948 0.423965 -0.780782
vn -0.463926 0.402777 -0.789014
vn -0.865135 0.00663597 0.501495
vn -0.862341 0 0.506328
vn -0.862152 -1.43893e-05 0.50665
vn -0.862495 5.03288e-05 0.506065
vn -0.862438 3.1233e-05 0.506162
vn -0.862225 -7.81325e-05 0.506526
vn -0.862048 -0.000204232 0.506826
vn -0.8625 0.000218117 0.506057
vn -0.862347 3.8618e-05 0.506318
vn -0.862032 -0.000408024 0.506855
vn -0.857462 -0.00791657 0.514486
vn -0.862656 0.000613735 0.505791
vn -0.862155 -0.000189671 0.506645
vn -0.862301 2.8711e-05 0.506396
vn -0.862488 0.00035609 0.506077
vn -0.862435 0.000271525 0.506167
vn -0.862262 2.48789e-05 0.506462
vn -0.862231 -2.82574e-05 0.506516
vn -0.862583 0.000487845 0.505915
vn -0.862058 -0.000403796 0.50681
vn -0.862193 -0.000206635 0.50658
vn -0.862494 0.000298928 0.506067
vn -0.862264 -2.86117e-05 0.506459
vn -0.862347 0.000104365 0.506319
vn -0.862181 -0.000117721 0.506601
vn -0.862513 0.000377299 0.506035
vn -0.862028 -0.000401133 0.506861
vn -0.862173 -0.000209883 0.506615
vn -0.862329 -1.49365e-06 0.506348
vn -0.862345 1.69763e-06 0.506321
vn -0.86193 0 0.507028
vn -4.15347e-20 -1 -6.11806e-17
vn 3.18115e-19 1 6.10782e-17
vn 1.65878e-20 1 6.12174e-17
vn -5.95294e-19 -1 -6.08688e-17
vn 1.53491e-19 -1 -6.13236e-17
vn 0.506781 -0 0.862075
vn 0.507136 0 0.861866
vn 0.506813 4.41211e-05 0.862056
vn 0.506846 3.31107e-05 0.862037
vn 0.506765 0.000105189 0.862084
vn 0.507136 -0.000512904 0.861866
vn 0.506814 -1.99307e-05 0.862056
vn 0.506846 -6.23743e-05 0.862037
vn 0.506765 0 0.862084
vn 0.861186 -0.000641208 -0.50829
vn 0.861455 0 -0.507833
vn 0.862167 5.36492e-05 -0.506625
vn 0.861936 1.03865e-05 -0.507017
vn 0.862181 9.24391e-05 -0.5066
vn 0.861837 -8.35555e-05 -0.507186
vn 0.862062 7.64435e-05 -0.506804
vn 0.861973 -6.3516e-06 -0.506954
vn 0.862028 5.87393e-05 -0.50686
vn 0.861842 -0.00020455 -0.507176
vn 0.861942 -7.13292e-05 -0.507008
vn 0.861429 -0.000891168 -0.507878
vn 0.861973 -2.23142e-05 -0.506954
vn 0.862155 0.000314959 -0.506645
vn 0.861934 -7.04544e-05 -0.50702
vn 0.862172 0.000310148 -0.506616
vn 0.862051 0.000138634 -0.506821
vn 0.861843 -0.000209455 -0.507176
vn 0.861857 -0.000188829 -0.507151
vn 0.862058 0.000151496 -0.50681
vn 0.862144 0.000277167 -0.506664
vn 0.861973 -8.909e-06 -0.506954
vn 0.861482 -0.000705252 -0.507788
vn 0.862028 0.000170842 -0.506861
vn 0.862679 0.00104303 -0.505751
vn 0.861626 -0.000525532 -0.507544
vn 0.861841 -0.000181773 -0.507179
vn 0.86022 -0.00231346 -0.509919
vn 0.862014 6.33093e-05 -0.506885
vn 0.862008 5.90576e-05 -0.506894
vn 0.861245 0 -0.50819
vn -3.30846e-19 -1 -6.10646e-17
vn -1.03934e-19 -1 -6.11756e-17
vn 1.74838e-19 1 6.11409e-17
vn -9.56821e-21 -1 -6.12258e-17
vn 3.3787e-19 1 6.10332e-17
vn -0.506523 0 -0.862227
vn -0.506738 -0.000165771 -0.8621
vn -0.506523 0.000117598 -0.862227
vn -0.50694 -0.000110696 -0.861981
vn -0.507563 -0.00057598 -0.861614
vn -0.506395 0.000456709 -0.862302
vn -0.506738 -0.000223362 -0.8621
vn -0.50694 -0.000514062 -0.861981
vn -0.507562 -0.00128444 -0.861614
vn -0.506394 5.28008e-17 -0.862302
vn -9.79348e-23 -1 -6.12325e-17
vn -6.10904e-24 -1 -6.12323e-17
vn 2.44097e-23 -1 -6.12324e-17
vn -1.25894e-23 -1 -6.12323e-17
vn 0 -1 -6.12323e-17
vn -2.96968e-23 -1 -6.12324e-17
vn 0 -1 -6.12324e-17
vn 0 -1 -6.12324e-17
vn 0 -1 -6.12322e-17
vn 1.78461e-22 -1 -6.12326e-17
vn 0 -1 -6.12323e-17
vn -3.02804e-24 -1 -6.12323e-17
vn 4.14262e-24 -1 -6.12323e-17
vn 1.20456e-23 -1 -6.12323e-17
vn 1.35574e-23 -1 -6.12323e-17
vn -1.50755e-24 -1 -6.12323e-17
vn 2.41999e-23 -1 -6.12324e-17
vn -4.03125e-24 -1 -6.12323e-17
vn -1.00454e-22 -1 -6.12325e-17
vn -1.15648e-18 -1 -6.07153e-17
vn 0 -1 -6.12296e-17
vn 0 -1 -6.12293e-17
vn -1.93604e-20 -1 -6.12225e-17
vn 2.94307e-20 -1 -6.12501e-17
vn -2.76312e-20 -1 -6.1217e-17
vn 1.19701e-20 -1 -6.12328e-17
vn 7.83661e-20 -1 -6.12767e-17
vn -3.18115e-19 -1 -6.11312e-17

# Mesh 'defaultobject' with 174 faces
g defaultobject
usemtl DefaultMaterial
f  1//1 2//1 3//1
f  2//2 1//2 4//2
f  5//3 2//3 4//3
f  2//4 5//4 6//4
f  7//5 3//5 8//5
f  3//6 7//6 1//6
f  9//7 8//7 10//7
f  8//8 9//8 7//8
f  11//9 10//9 12//9
f  10//10 11//10 9//10
f  13//11 11//11 12//11
f  11//11 13//11 14//12
f  15//13 13//13 16//13
f  13//14 15//14 14//14
f  17//15 16//15 18//15
f  16//15 17//15 15//16
f  19//17 17//17 18//17
f  17//17 19//17 20//18
f  21//19 19//19 22//19
f  19//20 21//20 20//20
f  23//21 22//21 24//21
f  22//22 23//22 21//22
f  25//23 24//23 26//23
f  24//24 25//24 23//24
f  27//25 26//25 28//25
f  26//25 27//25 25//25
f  29//26 28//26 30//26
f  28//27 29//27 27//27
f  31//28 30//28 32//28
f  30//28 31//28 29//28
f  33//29 32//29 34//29
f  32//30 33//30 31//30
f  35//31 33//31 34//31
f  33//32 35//32 36//32
f  33//33 36//33 37//33
f  33//34 37//34 38//34
f  33//35 38//35 39//35
f  40//36 6//36 5//36
f  6//37 40//37 41//37
f  6//38 41//38 42//38
f  6//39 42//39 43//39
f  43//40 2//40 6//40
f  2//41 43//41 44//41
f  2//42 44//42 3//42
f  3//43 44//43 8//43
f  8//44 44//44 10//44
f  10//45 44//45 12//45
f  12//46 44//46 13//46
f  13//47 44//47 16//47
f  16//48 44//48 18//48
f  18//49 44//49 19//49
f  19//50 44//50 45//50
f  19//51 45//51 46//51
f  19//52 46//52 47//52
f  19//53 47//53 22//53
f  22//54 47//54 48//54
f  22//55 48//55 49//55
f  22//56 49//56 24//56
f  24//57 49//57 50//57
f  24//58 50//58 26//58
f  26//59 50//59 51//59
f  26//60 51//60 28//60
f  28//61 51//61 52//61
f  28//62 52//62 30//62
f  30//63 52//63 53//63
f  30//64 53//64 32//64
f  32//65 53//65 34//65
f  34//66 53//66 54//66
f  34//67 54//67 35//67
f  35//68 54//68 55//68
f  35//69 55//69 56//69
f  35//70 56//70 57//70
f  55//71 54//71 58//71
f  58//72 54//72 59//72
f  55//73 58//72 60//73
f  55//71 60//74 61//74
f  56//75 55//71 62//75
f  57//76 36//76 35//76
f  36//76 57//76 63//76
f  36//77 63//77 37//77
f  37//78 63//78 64//78
f  64//79 63//79 38//79
f  38//80 63//80 39//80
f  39//81 63//81 65//81
f  39//82 65//82 66//82
f  39//83 66//83 67//83
f  39//84 67//84 68//84
f  39//85 31//85 33//85
f  31//86 39//86 68//86
f  31//87 68//87 29//87
f  29//88 68//88 27//88
f  27//89 68//89 25//89
f  25//90 68//90 23//90
f  23//91 68//91 21//91
f  21//92 68//92 20//92
f  20//93 68//93 17//93
f  17//94 68//94 15//94
f  15//95 68//95 69//95
f  15//96 69//96 70//96
f  15//97 70//97 14//97
f  14//98 70//98 71//98
f  14//99 71//99 72//99
f  14//100 72//100 73//100
f  14//101 73//101 11//101
f  11//102 73//102 74//102
f  11//103 74//103 9//103
f  9//104 74//104 75//104
f  9//105 75//105 7//105
f  7//106 75//106 76//106
f  7//107 76//107 1//107
f  1//108 76//108 77//108
f  1//109 77//109 4//109
f  4//110 77//110 5//110
f  5//111 77//111 78//111
f  5//112 78//112 40//112
f  40//113 78//113 79//113
f  40//114 79//114 80//114
f  40//115 80//115 81//115
f  79//116 78//116 82//116
f  80//117 79//116 83//117
f  80//118 83//118 84//118
f  80//117 84//119 85//119
f  81//120 80//118 86//120
f  81//121 41//121 40//121
f  41//122 81//122 87//122
f  87//123 81//123 88//123
f  87//124 88//124 89//124
f  89//125 88//125 90//125
f  90//126 88//126 43//126
f  43//127 88//127 91//127
f  43//128 91//128 92//128
f  43//129 92//129 93//129
f  43//130 93//130 44//130
f  80//117 88//131 81//131
f  88//131 80//117 85//119
f  88//131 85//119 84//119
f  88//131 84//119 83//117
f  88//131 83//117 79//116
f  88//131 79//116 82//116
f  88//131 82//116 78//116
f  88//131 78//116 77//132
f  88//131 77//132 76//133
f  88//131 76//133 75//134
f  88//131 75//134 74//135
f  88//131 74//135 73//136
f  88//131 73//136 72//137
f  88//131 72//137 71//138
f  88//131 71//138 70//139
f  88//131 70//139 68//140
f  88//131 68//140 67//141
f  88//131 67//141 91//142
f  91//142 67//141 92//143
f  92//143 67//141 66//144
f  92//143 66//144 93//145
f  93//145 66//144 44//146
f  44//146 66//144 65//141
f  44//146 65//141 63//147
f  44//146 63//147 45//148
f  45//148 63//147 58//71
f  58//71 63//147 62//75
f  62//75 63//147 57//149
f  45//148 58//71 51//150
f  45//148 51//150 47//151
f  45//148 47//151 46//152
f  47//151 51//150 48//153
f  48//153 51//150 49//154
f  49//154 51//150 50//155
f  51//150 58//71 54//71
f  51//150 54//71 52//156
f  52//156 54//71 53//157
f  54//71 58//71 59//158
f  58//71 62//75 61//74
f  58//71 61//74 60//74
f  61//74 62//75 55//71

