# File produced by Open Asset Import Library (http://www.assimp.sf.net)
# (assimp v3.1.0)

mtllib ID_58698.obj.mtl

# 8 vertex positions
v  0 1.933 1.18362e-16
v  2.766 1.933 0.444
v  1.739 1.933 -1.16
v  1.027 1.933 1.578
v  1.739 7.10295e-17 -1.16
v  0 0 0
v  1.027 -9.66246e-17 1.578
v  2.766 -2.71872e-17 0.444

# 0 UV coordinates

# 9 vertex normals
vn -0 1 0
vn -0.554921 0 -0.831903
vn -0.554921 5.09394e-17 -0.831903
vn -0.838128 -3.34006e-17 0.545474
vn -0.838128 0 0.545474
vn 0.546224 -0 0.837639
vn 0.842166 0 -0.539218
vn 8.31196e-25 -1 -6.12323e-17
vn 0 -1 -6.12323e-17

# Mesh 'defaultobject' with 12 faces
g defaultobject
usemtl DefaultMaterial
f  1//1 2//1 3//1
f  2//1 1//1 4//1
f  5//2 1//2 3//2
f  1//2 5//2 6//3
f  6//4 4//4 1//4
f  4//4 6//4 7//5
f  7//6 2//6 4//6
f  2//6 7//6 8//6
f  8//7 3//7 2//7
f  3//7 8//7 5//7
f  8//8 6//8 5//8
f  6//8 8//8 7//9

