# {"id":"ID_50451","idOriginal":"ID_50451","origin":[14.363490385280734,48.258186450531475],"elevation":250.03,"wof":[{"Id":85632785,"Name":"Austria","Placetype":"country","Offset":-1},{"Id":102049853,"Name":"Linz","Placetype":"county","Offset":-1},{"Id":85681677,"Name":"Oberösterreich","Placetype":"region","Offset":-1},{"Id":85898441,"Name":"Posch","Placetype":"neighbourhood","Offset":-1}]}

# Attribution: City of Linz <http://geo.data.linz.gv.at/katalog/geodata/3d_geo_daten_lod2/>
# Longitude: 14.363490385280734
# Latitude: 48.258186450531475
# Elevation: 250.03

# File produced by Open Asset Import Library (http://www.assimp.sf.net)
# (assimp v3.1.0)


# 8 vertex positions
v  0 13.48 8.25412e-16
v  4.218 13.48 2.898
v  7.099 13.48 -1.113
v  4.019 13.48 2.937
v  4.218 -1.77451e-16 2.898
v  7.099 6.81516e-17 -1.113
v  0 0 0
v  4.019 -1.79839e-16 2.937

# 0 UV coordinates

# 9 vertex normals
vn -0 1 0
vn 0.812198 -0 0.583382
vn -0.154891 0 -0.987932
vn -0.154891 6.04934e-17 -0.987932
vn 0.192322 -0 0.981332
vn -0.590022 -4.94382e-17 0.807387
vn -0.590022 0 0.807387
vn 0 -1 -6.12323e-17
vn 0 -1 -6.12324e-17

# Mesh 'defaultobject' with 12 faces
g defaultobject
usemtl DefaultMaterial
f  1//1 2//1 3//1
f  2//1 1//1 4//1
f  5//2 3//2 2//2
f  3//2 5//2 6//2
f  6//3 1//3 3//3
f  1//3 6//3 7//4
f  8//5 2//5 4//5
f  2//5 8//5 5//5
f  7//6 4//6 1//6
f  4//6 7//6 8//7
f  5//8 7//8 6//8
f  7//8 5//8 8//9

