# {"id":"ID_629","idOriginal":"ID_629","origin":[14.319050133043765,48.32889828851822],"elevation":252.829}
# Longitude: 14.319050133043765
# Latitude: 48.32889828851822
# Elevation: 252.829

# File produced by Open Asset Import Library (http://www.assimp.sf.net)
# (assimp v3.1.0)

mtllib ID_629.obj.mtl

# 98 vertex positions
v  36.02 9.631 0.234
v  41.119 9.631 -6.852
v  38.178 9.631 -7.679
v  50.853 9.631 -4.113
v  48.694 9.631 3.8
v  38.961 9.631 1.062
v  36.02 -1.43284e-17 0.234
v  48.694 -2.32683e-16 3.8
v  38.961 -6.50287e-17 1.062
v  50.853 2.51849e-16 -4.113
v  41.119 4.19564e-16 -6.852
v  38.178 4.70203e-16 -7.679
v  9.441 8.981 5.218
v  36.02 8.981 0.234
v  12.597 8.981 -6.356
v  10.06 8.981 5.385
v  25.114 8.981 9.588
v  25.053 8.981 9.802
v  24.554 8.981 11.542
v  24.415 8.981 12.003
v  35.137 8.981 15.084
v  38.961 8.981 1.062
v  35.74 8.981 12.873
v  25.114 -5.87096e-16 9.588
v  24.415 -7.34972e-16 12.003
v  25.053 -6.00199e-16 9.802
v  24.554 -7.06744e-16 11.542
v  12.597 3.89193e-16 -6.356
v  9.441 -3.1951e-16 5.218
v  35.137 -9.23629e-16 15.084
v  10.06 -3.29736e-16 5.385
v  35.74 -7.88244e-16 12.873
v  7.169 7.589 -25.482
v  17.535 7.589 -24.463
v  7.669 7.589 -27.236
v  6.067 7.589 -21.616
v  4.79 7.589 -17.074
v  3.399 7.589 -12.126
v  2.57 7.589 -9.178
v  1.468 7.589 -5.258
v  0 7.589 4.64692e-16
v  4.246 7.589 3.816
v  12.597 7.589 -6.356
v  9.441 7.589 5.218
v  23.071 7.589 -22.907
v  36.02 7.589 0.234
v  40.958 7.589 -17.873
v  38.178 7.589 -7.679
v  35.137 7.589 15.084
v  36.044 7.589 12.961
v  36.075 7.589 12.857
v  35.395 7.589 15.158
v  35.74 7.589 12.873
v  48.694 7.589 3.8
v  38.961 7.589 1.062
v  41.684 7.589 14.427
v  41.954 7.589 14.503
v  45.505 7.589 15.496
v  43.273 7.589 -17.221
v  41.119 7.589 -6.852
v  43.899 7.589 -17.045
v  53.632 7.589 -14.304
v  50.853 7.589 -4.113
v  58.552 7.589 -12.919
v  58.487 7.589 -12.727
v  58.316 7.589 -12.126
v  55.639 7.589 -2.691
v  50.182 7.589 16.805
v  55.659 7.589 -2.761
v  53.448 7.589 5.138
v  7.669 1.66772e-15 -27.236
v  7.169 1.56032e-15 -25.482
v  6.067 1.3236e-15 -21.616
v  4.79 1.04548e-15 -17.074
v  3.399 7.42503e-16 -12.126
v  2.57 5.6199e-16 -9.178
v  1.468 3.2196e-16 -5.258
v  0 0 0
v  35.395 -9.2816e-16 15.158
v  36.075 -7.87264e-16 12.857
v  41.684 -8.83399e-16 14.427
v  45.505 -9.48856e-16 15.496
v  50.182 -1.02901e-15 16.805
v  41.954 -8.88053e-16 14.503
v  4.246 -2.33663e-16 3.816
v  36.044 -7.93632e-16 12.961
v  53.448 -3.14612e-16 5.138
v  55.639 1.64776e-16 -2.691
v  55.659 1.69062e-16 -2.761
v  58.316 7.42503e-16 -12.126
v  58.487 7.79304e-16 -12.727
v  58.552 7.91061e-16 -12.919
v  53.632 8.75867e-16 -14.304
v  43.899 1.04371e-15 -17.045
v  43.273 1.05448e-15 -17.221
v  40.958 1.09441e-15 -17.873
v  23.071 1.40265e-15 -22.907
v  17.535 1.49793e-15 -24.463

# 0 UV coordinates

# 114 vertex normals
vn 0 1 0
vn -0.271002 0 0.962579
vn -0.2708 -6.64792e-05 0.962636
vn -0.270847 0 0.962622
vn 8.17784e-21 1 6.12029e-17
vn 0.964736 -0 0.263221
vn 0.270866 0 -0.962617
vn 0.270698 0 -0.962664
vn -0.964767 0 -0.263107
vn -6.38375e-25 -1 -6.12323e-17
vn -4.22397e-24 -1 -6.12323e-17
vn -9.80428e-25 -1 -6.12323e-17
vn 0 -1 -6.12197e-17
vn -0.961692 0 -0.274131
vn -0.961253 3.96241e-05 -0.275669
vn -0.957421 0.00310931 -0.28868
vn -0.960573 -0 -0.278029
vn 0 -1 -6.12309e-17
vn -2.79896e-21 -1 -6.12332e-17
vn -0.964775 0 -0.263075
vn -0.276177 0 0.961107
vn -0.260477 0 0.96548
vn -0.268911 0.000624322 0.963165
vn -0.268579 0 0.963258
vn 1.20824e-21 -1 -6.12382e-17
vn 0.964764 -0 0.263118
vn 0.964768 -3.79914e-06 0.263103
vn 0.964767 0 0.263106
vn 0 1 6.05576e-17
vn 0.271002 0 -0.962579
vn 0.270832 -5.97963e-05 -0.962627
vn 0.271002 0.000476004 -0.962579
vn 0.270832 0 -0.962627
vn 7.25458e-25 -1 -6.12323e-17
vn -7.8457e-24 -1 -6.12323e-17
vn 1.0139e-18 -1 -6.09609e-17
vn -0.964764 0 -0.263118
vn -0.964768 4.49599e-06 -0.263103
vn -0.964764 -2.40172e-05 -0.263118
vn -0.964768 0 -0.263103
vn -0.961689 0 -0.274142
vn -0.961693 -3.03223e-06 -0.27413
vn -0.961689 6.68332e-06 -0.274142
vn -0.961693 -0 -0.27413
vn -0.962675 -0 -0.27066
vn -0.962683 -0 -0.270633
vn -0.962662 -0 -0.270708
vn -0.962683 -3.18642e-05 -0.270632
vn -0.962662 4.23488e-05 -0.270708
vn -0.962683 -0 -0.270632
vn -0.963165 -0 -0.26891
vn -0.963165 1.6466e-17 -0.26891
vn -0.964736 0 -0.263221
vn -0.275707 0 0.961242
vn -0.269547 0 0.962987
vn -0.270952 0.00112012 0.962592
vn -0.269308 -0.000253905 0.963054
vn -0.269547 6.68393e-05 0.962987
vn -0.269523 5.37413e-05 0.962994
vn -0.269424 -6.57826e-05 0.963022
vn -0.269523 0 0.962994
vn 1.12371e-20 1 6.11896e-17
vn -0.260553 0 0.965459
vn -0.270832 0 0.962626
vn -0.270698 0 0.962664
vn -0.270866 7.01026e-05 0.962617
vn -0.270827 0 0.962628
vn 0.959031 -0 0.2833
vn 0.958327 0.000747475 0.285674
vn 0.959 0 0.283407
vn 1.23619e-19 -1 -6.11956e-17
vn 0.96298 -0 0.269572
vn 0.963 0 0.269502
vn 0.961522 0 0.274727
vn 0.96203 -1.77916e-05 0.272943
vn 0.961519 0.00238208 0.274727
vn 0.96203 0 0.272943
vn 0.961826 0 0.273661
vn 0.947195 -0 0.320659
vn 0.964775 -0 0.263075
vn 0.964767 -0 0.263107
vn 0.270972 0 -0.962587
vn 0.271075 0 -0.962558
vn 0.270658 0 -0.962676
vn 0.271094 3.88759e-05 -0.962553
vn 0.270909 -3.85479e-05 -0.962605
vn 0.270658 -0.000783827 -0.962675
vn 0.271094 0.000470671 -0.962553
vn 0.270909 0 -0.962605
vn 0.270584 0 -0.962696
vn 0.270582 0 -0.962697
vn 0.2708 0 -0.962636
vn -0.668442 -4.55424e-17 0.743764
vn -0.668442 0 0.743764
vn -1.51649e-23 -1 -6.12323e-17
vn -4.05486e-23 -1 -6.12323e-17
vn 5.26271e-23 -1 -6.12323e-17
vn 0 -1 -6.12323e-17
vn 0 -1 -6.12323e-17
vn 4.02759e-23 -1 -6.12323e-17
vn -1.7754e-22 -1 -6.12323e-17
vn 1.76156e-23 -1 -6.12323e-17
vn 0 -1 -6.12323e-17
vn 9.71541e-24 -1 -6.12323e-17
vn -6.6688e-23 -1 -6.12323e-17
vn 1.23267e-22 -1 -6.12324e-17
vn 7.93056e-24 -1 -6.12323e-17
vn 0 -1 -6.12323e-17
vn -8.3042e-24 -1 -6.12323e-17
vn 4.31714e-23 -1 -6.12325e-17
vn 3.77601e-20 -1 -6.12224e-17
vn -7.48907e-24 -1 -6.12323e-17
vn 6.02991e-23 -1 -6.12323e-17
vn -4.73741e-24 -1 -6.12323e-17

# Mesh 'defaultobject' with 208 faces
g defaultobject
usemtl DefaultMaterial
f  1//1 2//1 3//1
f  2//1 1//1 4//1
f  4//1 1//1 5//1
f  5//1 1//1 6//1
f  7//2 6//2 1//2
f  6//3 7//3 5//3
f  5//4 7//4 8//4
f  8//5 7//5 9//5
f  8//6 4//6 5//6
f  4//6 8//6 10//6
f  10//7 2//7 4//7
f  2//7 10//7 11//7
f  2//8 11//8 3//8
f  3//8 11//8 12//8
f  12//9 1//9 3//9
f  1//9 12//9 7//9
f  9//10 10//10 8//10
f  10//10 9//10 7//11
f  10//10 7//11 12//12
f  10//10 12//12 11//13
f  13//1 14//1 15//1
f  14//1 13//1 16//1
f  14//1 16//1 17//1
f  14//1 17//1 18//1
f  14//1 18//1 19//1
f  14//1 19//1 20//1
f  14//1 20//1 21//1
f  14//1 21//1 22//1
f  22//1 21//1 23//1
f  24//14 18//14 17//14
f  18//15 24//15 19//15
f  19//16 24//16 20//16
f  20//17 24//17 25//17
f  25//18 24//18 26//18
f  25//18 26//18 27//19
f  28//20 13//20 15//20
f  13//20 28//20 29//20
f  25//21 21//21 20//21
f  21//21 25//21 30//21
f  29//22 16//22 13//22
f  16//23 29//23 17//23
f  17//24 29//24 24//24
f  24//18 29//25 31//25
f  30//26 23//26 21//26
f  23//27 30//27 22//27
f  22//27 30//27 9//28
f  9//5 30//29 32//29
f  9//30 14//30 22//30
f  14//31 9//31 15//31
f  15//32 9//32 7//32
f  15//33 7//33 28//33
f  7//11 29//25 28//34
f  29//25 7//11 31//25
f  31//25 7//11 24//18
f  24//18 7//11 26//18
f  26//18 7//11 27//19
f  27//19 7//11 25//18
f  25//18 7//11 30//35
f  30//35 7//11 9//10
f  30//35 9//10 32//36
f  33//1 34//1 35//1
f  34//1 33//1 36//1
f  34//1 36//1 37//1
f  34//1 37//1 38//1
f  34//1 38//1 39//1
f  34//1 39//1 40//1
f  34//1 40//1 41//1
f  34//1 41//1 42//1
f  34//1 42//1 43//1
f  43//1 42//1 44//1
f  43//1 45//1 34//1
f  45//1 43//1 46//1
f  45//1 46//1 47//1
f  47//1 46//1 48//1
f  49//1 50//1 51//1
f  50//1 49//1 52//1
f  53//1 54//1 55//1
f  54//1 53//1 51//1
f  51//1 53//1 49//1
f  54//1 51//1 56//1
f  54//1 56//1 57//1
f  54//1 57//1 58//1
f  48//1 59//1 47//1
f  59//1 48//1 60//1
f  59//1 60//1 61//1
f  61//1 60//1 62//1
f  62//1 60//1 63//1
f  62//1 63//1 64//1
f  64//1 63//1 54//1
f  64//1 54//1 58//1
f  64//1 58//1 65//1
f  65//1 58//1 66//1
f  66//1 58//1 67//1
f  67//1 58//1 68//1
f  66//1 67//1 69//1
f  67//1 68//1 70//1
f  53//37 30//37 49//37
f  30//38 53//38 55//38
f  30//39 55//39 32//39
f  32//40 55//38 9//40
f  71//41 33//41 35//41
f  33//42 71//42 36//42
f  36//43 71//41 72//43
f  36//42 72//44 73//44
f  36//45 73//45 37//45
f  37//45 73//45 74//45
f  37//46 74//46 38//46
f  38//46 74//46 75//46
f  38//47 75//47 39//47
f  39//48 75//48 40//48
f  40//49 75//49 76//49
f  40//50 76//50 77//50
f  40//51 77//51 41//51
f  41//51 77//51 78//52
f  10//53 54//53 63//53
f  54//53 10//53 8//53
f  30//54 52//54 49//54
f  52//54 30//54 79//54
f  80//55 56//55 51//55
f  56//56 80//56 57//56
f  57//57 80//57 58//57
f  58//58 80//58 81//58
f  58//59 81//59 68//59
f  68//60 81//60 82//60
f  68//61 82//61 83//61
f  82//62 81//62 84//62
f  85//63 44//63 42//63
f  44//63 85//63 29//63
f  28//64 46//64 43//64
f  46//64 28//64 7//64
f  12//65 60//65 48//65
f  60//66 12//66 63//66
f  63//67 12//67 10//67
f  10//10 12//12 11//13
f  79//68 50//68 52//68
f  50//69 79//69 51//69
f  51//70 79//70 80//70
f  80//71 79//71 86//71
f  83//72 70//72 68//72
f  70//72 83//72 87//72
f  70//73 87//73 67//73
f  67//73 87//73 88//73
f  67//74 88//74 69//74
f  69//75 88//75 66//75
f  66//76 88//76 89//76
f  66//77 89//77 90//77
f  66//78 90//78 65//78
f  65//78 90//78 91//78
f  91//79 64//79 65//79
f  64//79 91//79 92//79
f  29//80 43//80 44//80
f  43//80 29//80 28//80
f  7//81 48//81 46//81
f  48//81 7//81 12//81
f  92//82 62//82 64//82
f  62//82 92//82 93//82
f  62//83 93//83 61//83
f  61//83 93//83 94//83
f  61//84 94//84 59//84
f  59//85 94//85 47//85
f  47//86 94//86 45//86
f  45//87 94//87 95//87
f  45//88 95//88 96//88
f  45//89 96//89 97//89
f  45//90 97//90 34//90
f  34//90 97//90 98//90
f  34//90 98//90 35//91
f  35//91 98//90 71//91
f  8//92 55//92 54//92
f  55//92 8//92 9//92
f  78//93 42//93 41//93
f  42//93 78//93 85//94
f  77//95 85//95 78//95
f  85//95 77//95 76//96
f  85//95 76//96 29//25
f  29//25 76//96 75//97
f  29//25 75//97 74//98
f  29//25 74//98 73//99
f  29//25 73//99 28//34
f  28//34 73//99 72//100
f  28//34 72//100 71//101
f  28//34 71//101 98//102
f  28//34 98//102 7//11
f  7//11 98//102 97//103
f  7//11 97//103 96//104
f  7//11 96//104 12//12
f  12//12 96//104 11//13
f  11//13 96//104 10//10
f  10//10 96//104 95//105
f  10//10 95//105 94//106
f  10//10 94//106 93//107
f  10//10 93//107 87//98
f  87//98 93//107 88//108
f  88//108 93//107 90//99
f  90//99 93//107 91//109
f  91//109 93//107 92//110
f  88//108 90//99 89//111
f  32//36 79//71 30//35
f  79//71 32//36 86//71
f  86//71 32//36 9//10
f  86//71 9//10 80//71
f  80//71 9//10 81//112
f  81//112 9//10 8//10
f  81//112 8//10 84//113
f  84//113 8//10 82//114
f  82//114 8//10 83//99
f  83//99 8//10 87//98
f  87//98 8//10 10//10

