# {"id":"ID_33683","idOriginal":"ID_33683","origin":[14.308167716684892,48.33440391650944],"elevation":259.681}
# Longitude: 14.308167716684892
# Latitude: 48.33440391650944
# Elevation: 259.681

# File produced by Open Asset Import Library (http://www.assimp.sf.net)
# (assimp v3.1.0)

mtllib ID_33683.obj.mtl

# 20 vertex positions
v  6.682 3.329 -1.614
v  6.771 3.329 4.746
v  7.654 3.329 4.621
v  1.807 3.329 6.519
v  0.917 3.329 5.912
v  0 3.329 2.03842e-16
v  6.764 3.329 -1.847
v  0.573 3.329 -0.889
v  6.239 3.329 5.455
v  6.273 3.329 5.794
v  6.273 -3.5478e-16 5.794
v  6.239 -3.34022e-16 5.455
v  7.654 -2.82955e-16 4.621
v  6.682 9.8829e-17 -1.614
v  6.764 1.13096e-16 -1.847
v  6.771 -2.90609e-16 4.746
v  1.807 -3.99174e-16 6.519
v  0.573 5.44355e-17 -0.889
v  0 0 0
v  0.917 -3.62006e-16 5.912

# 0 UV coordinates

# 21 vertex normals
vn 0 1 0
vn 0.995008 0 -0.099794
vn 0.988066 0 -0.154034
vn 0.943289 -0 0.331972
vn 0.799865 -0 0.60018
vn 0.140165 -0 0.990128
vn 0.16024 -0 0.987078
vn -0.152921 0 -0.988238
vn -0.840533 0 -0.541761
vn -0.840533 3.31733e-17 -0.541761
vn -0.988183 -9.38541e-18 0.153275
vn -0.988183 0 0.153275
vn -0.563452 0 0.826149
vn -6.06461e-24 -1 -6.12324e-17
vn -1.36462e-24 -1 -6.12323e-17
vn 0 -1 -6.12324e-17
vn 0 -1 -6.12323e-17
vn -1.24192e-22 -1 -6.12322e-17
vn 0 -1 -6.12323e-17
vn 0 -1 -6.12323e-17
vn 0 -1 -6.12323e-17

# Mesh 'defaultobject' with 36 faces
g defaultobject
usemtl DefaultMaterial
f  1//1 2//1 3//1
f  2//1 1//1 4//1
f  4//1 1//1 5//1
f  5//1 1//1 6//1
f  6//1 1//1 7//1
f  6//1 7//1 8//1
f  9//1 4//1 10//1
f  4//1 9//1 2//1
f  11//2 9//2 10//2
f  9//2 11//2 12//2
f  13//3 1//3 3//3
f  1//3 13//3 14//3
f  14//4 7//4 1//4
f  7//4 14//4 15//4
f  12//5 2//5 9//5
f  2//5 12//5 16//5
f  16//6 3//6 2//6
f  3//6 16//6 13//6
f  17//7 10//7 4//7
f  10//7 17//7 11//7
f  15//8 8//8 7//8
f  8//8 15//8 18//8
f  18//9 6//9 8//9
f  6//9 18//9 19//10
f  19//11 5//11 6//11
f  5//11 19//11 20//12
f  20//13 4//13 5//13
f  4//13 20//13 17//13
f  14//14 18//14 15//14
f  18//14 14//14 13//15
f  18//14 13//15 16//16
f  18//14 16//16 12//17
f  18//14 12//17 11//18
f  18//14 11//18 17//19
f  18//14 17//19 19//20
f  19//20 17//19 20//21

