# {"id":"ID_43276","idOriginal":"ID_43276","origin":[14.281854684237272,48.27723813626038],"elevation":277.999,"wof":[{"Id":85681677,"Name":"Oberösterreich","Placetype":"region","Offset":-1},{"Id":102049853,"Name":"Linz","Placetype":"county","Offset":-1},{"Id":85898459,"Name":"Wegscheid","Placetype":"neighbourhood","Offset":-1},{"Id":85632785,"Name":"Austria","Placetype":"country","Offset":-1},{"Id":101748071,"Name":"Linz","Placetype":"locality","Offset":-1}]}

# Attribution: City of Linz <http://geo.data.linz.gv.at/katalog/geodata/3d_geo_daten_lod2/>
# Longitude: 14.281854684237272
# Latitude: 48.27723813626038
# Elevation: 277.999

# File produced by Open Asset Import Library (http://www.assimp.sf.net)
# (assimp v3.1.0)


# 8 vertex positions
v  0 2.916 1.78554e-16
v  7.232 2.916 1.632
v  2.371 2.916 -2.693
v  4.847 2.916 4.313
v  2.371 1.64899e-16 -2.693
v  0 0 0
v  4.847 -2.64095e-16 4.313
v  7.232 -9.99312e-17 1.632

# 0 UV coordinates

# 9 vertex normals
vn -0 1 0
vn -0.750553 0 -0.66081
vn -0.750553 4.04629e-17 -0.66081
vn -0.664756 -4.57443e-17 0.747061
vn -0.664756 0 0.747061
vn 0.747148 -0 0.664658
vn 0.664717 0 -0.747096
vn 0 -1 -6.12323e-17
vn -2.27391e-24 -1 -6.12323e-17

# Mesh 'defaultobject' with 12 faces
g defaultobject
usemtl DefaultMaterial
f  1//1 2//1 3//1
f  2//1 1//1 4//1
f  5//2 1//2 3//2
f  1//2 5//2 6//3
f  6//4 4//4 1//4
f  4//4 6//4 7//5
f  7//6 2//6 4//6
f  2//6 7//6 8//6
f  8//7 3//7 2//7
f  3//7 8//7 5//7
f  8//8 6//8 5//8
f  6//8 8//8 7//9

