# {"id":"ID_54555","idOriginal":"ID_54555","origin":[14.26849417325822,48.28581527905848],"elevation":321.425}
# Longitude: 14.26849417325822
# Latitude: 48.28581527905848
# Elevation: 321.425

# File produced by Open Asset Import Library (http://www.assimp.sf.net)
# (assimp v3.1.0)

mtllib ID_54555.obj.mtl

# 10 vertex positions
v  4.864 2.805 2.404
v  0 2.805 1.71757e-16
v  3.881 2.805 3.533
v  4.515 2.805 2.068
v  0.969 2.805 -1.191
v  4.864 -1.47203e-16 2.404
v  4.515 -1.26628e-16 2.068
v  0.969 7.29277e-17 -1.191
v  0 0 0
v  3.881 -2.16334e-16 3.533

# 0 UV coordinates

# 11 vertex normals
vn 0 1 0
vn 0.693562 0 -0.720397
vn 0.676683 0 -0.736274
vn -0.775696 0 -0.631107
vn -0.775696 3.86442e-17 -0.631107
vn -0.673175 -4.52803e-17 0.739483
vn -0.673175 0 0.739483
vn 0.754188 -0 0.656658
vn -3.58608e-24 -1 -6.12323e-17
vn 0 -1 -6.12323e-17
vn 3.65449e-23 -1 -6.12323e-17

# Mesh 'defaultobject' with 16 faces
g defaultobject
usemtl DefaultMaterial
f  1//1 2//1 3//1
f  2//1 1//1 4//1
f  2//1 4//1 5//1
f  6//2 4//2 1//2
f  4//2 6//2 7//2
f  7//3 5//3 4//3
f  5//3 7//3 8//3
f  8//4 2//4 5//4
f  2//4 8//4 9//5
f  9//6 3//6 2//6
f  3//6 9//6 10//7
f  10//8 1//8 3//8
f  1//8 10//8 6//8
f  7//9 9//9 8//9
f  9//9 7//9 10//10
f  10//10 7//9 6//11

