# {"id":"ID_56455","idOriginal":"ID_56455","origin":[14.336953167404525,48.24025140483224],"elevation":281.772,"wof":[{"Id":102049853,"Name":"Linz","Placetype":"county","Offset":-1},{"Id":85681677,"Name":"Oberösterreich","Placetype":"region","Offset":-1},{"Id":101748071,"Name":"Linz","Placetype":"locality","Offset":-1},{"Id":85898417,"Name":"Ebelsberg","Placetype":"neighbourhood","Offset":-1},{"Id":85632785,"Name":"Austria","Placetype":"country","Offset":-1}]}

# Attribution: City of Linz <http://geo.data.linz.gv.at/katalog/geodata/3d_geo_daten_lod2/>
# Longitude: 14.336953167404525
# Latitude: 48.24025140483224
# Elevation: 281.772

# File produced by Open Asset Import Library (http://www.assimp.sf.net)
# (assimp v3.1.0)


# 8 vertex positions
v  1.565 2.644 1.99
v  1.895 2.644 -1.491
v  0 2.644 1.61898e-16
v  3.469 2.644 0.559
v  0 0 0
v  1.565 -1.21852e-16 1.99
v  3.469 -3.42289e-17 0.559
v  1.895 9.12974e-17 -1.491

# 0 UV coordinates

# 9 vertex normals
vn 0 1 0
vn -0.786044 -3.7852e-17 0.61817
vn -0.786044 0 0.61817
vn 0.600806 -0 0.799395
vn 0.79317 0 -0.609
vn -0.618353 0 -0.785901
vn -0.618353 4.81225e-17 -0.785901
vn -1.0977e-24 -1 -6.12323e-17
vn 0 -1 -6.12323e-17

# Mesh 'defaultobject' with 12 faces
g defaultobject
usemtl DefaultMaterial
f  1//1 2//1 3//1
f  2//1 1//1 4//1
f  5//2 1//2 3//2
f  1//2 5//2 6//3
f  6//4 4//4 1//4
f  4//4 6//4 7//4
f  7//5 2//5 4//5
f  2//5 7//5 8//5
f  8//6 3//6 2//6
f  3//6 8//6 5//7
f  5//8 7//8 6//8
f  7//8 5//8 8//9

