# {"id":"ID_45068","idOriginal":"ID_45068","origin":[14.31728879449594,48.272627033313974],"elevation":257.615,"wof":[{"Id":85898429,"Name":"Kleinmünchen","Placetype":"neighbourhood","Offset":-1},{"Id":102049853,"Name":"Linz","Placetype":"county","Offset":-1},{"Id":85632785,"Name":"Austria","Placetype":"country","Offset":-1},{"Id":101748071,"Name":"Linz","Placetype":"locality","Offset":-1},{"Id":85681677,"Name":"Oberösterreich","Placetype":"region","Offset":-1}]}

# Attribution: City of Linz <http://geo.data.linz.gv.at/katalog/geodata/3d_geo_daten_lod2/>
# Longitude: 14.31728879449594
# Latitude: 48.272627033313974
# Elevation: 257.615

# File produced by Open Asset Import Library (http://www.assimp.sf.net)
# (assimp v3.1.0)


# 11 vertex positions
v  4.946 4.31 4.216
v  2.324 4.532 1.458
v  3.056 4.532 4.649
v  3.782 4.31 -0.866
v  0 4.31 2.63911e-16
v  1.165 4.31 5.083
v  1.165 -3.11244e-16 5.083
v  4.946 -2.58156e-16 4.216
v  3.056 -2.84669e-16 4.649
v  3.782 5.30272e-17 -0.866
v  0 0 0

# 0 UV coordinates

# 16 vertex normals
vn 0.110871 0.993509 -0.0254333
vn 0.110818 0.993517 -0.0253822
vn -0.110808 0.993517 0.0253968
vn -0.110859 0.993511 0.0254306
vn -0.0253769 0.993516 -0.110826
vn 0.223692 -0 0.97466
vn 0.223333 0.000158043 0.974742
vn 0.223504 0 0.974703
vn 1.70335e-20 -1 -6.11617e-17
vn 0.974758 0 -0.223262
vn -0.223203 0 -0.974772
vn -0.223203 5.96876e-17 -0.974772
vn -0.974726 -1.36795e-17 0.223403
vn -0.974726 0 0.223403
vn 1.70199e-23 -1 -6.12323e-17
vn 1.30826e-24 -1 -6.12323e-17

# Mesh 'defaultobject' with 18 faces
g defaultobject
usemtl DefaultMaterial
f  1//1 2//1 3//1
f  2//2 1//2 4//2
f  3//3 5//3 6//3
f  5//4 3//4 2//4
f  2//5 4//5 5//5
f  7//6 3//6 6//6
f  3//7 7//7 1//7
f  1//8 7//8 8//8
f  8//9 7//9 9//9
f  8//10 4//10 1//10
f  4//10 8//10 10//10
f  10//11 5//11 4//11
f  5//11 10//11 11//12
f  11//13 6//13 5//13
f  6//13 11//13 7//14
f  9//9 10//15 8//9
f  10//15 9//9 7//9
f  10//15 7//9 11//16

