# {"id":"ID_47978","idOriginal":"ID_47978","origin":[14.292657952466367,48.343685487258554],"elevation":289.079,"wof":[{"Id":102049853,"Name":"Linz","Placetype":"county","Offset":-1},{"Id":85632785,"Name":"Austria","Placetype":"country","Offset":-1},{"Id":101748071,"Name":"Linz","Placetype":"locality","Offset":-1},{"Id":85898453,"Name":"Urfahr","Placetype":"neighbourhood","Offset":-1},{"Id":85681677,"Name":"Oberösterreich","Placetype":"region","Offset":-1}]}

# Attribution: City of Linz <http://geo.data.linz.gv.at/katalog/geodata/3d_geo_daten_lod2/>
# Longitude: 14.292657952466367
# Latitude: 48.343685487258554
# Elevation: 289.079

# File produced by Open Asset Import Library (http://www.assimp.sf.net)
# (assimp v3.1.0)


# 24 vertex positions
v  2.484 2.757 -3.349
v  4.013 2.551 1.744
v  3.815 2.551 -3.407
v  2.682 2.757 1.816
v  0.104 2.358 1.957
v  0.07 2.364 -0.002
v  0 2.354 1.44141e-16
v  1.177 2.536 -0.038
v  1.282 2.552 -0.041
v  1.133 2.548 -3.29
v  1.251 2.536 1.894
v  0.16 2.367 1.954
v  1.282 2.51053e-18 -0.041
v  1.133 2.01454e-16 -3.29
v  0.104 -1.19832e-16 1.957
v  0 0 0
v  0.07 1.22465e-19 -0.002
v  1.177 2.32683e-18 -0.038
v  2.484 2.05067e-16 -3.349
v  3.815 2.08619e-16 -3.407
v  0.16 -1.19648e-16 1.954
v  4.013 -1.06789e-16 1.744
v  1.251 -1.15974e-16 1.894
v  2.682 -1.11198e-16 1.816

# 0 UV coordinates

# 40 vertex normals
vn 0.152697 0.988256 -0.00586955
vn 0.152638 0.988265 -0.00585137
vn -0.141266 0.989957 0.00548382
vn -0.15335 0.988156 0.00568803
vn -0.150435 0.988593 0.00729484
vn -0.152633 0.988266 0.00578301
vn -0.152467 0.988291 0.0058448
vn -0.15232 0.988315 0.00573184
vn -0.153043 0.988203 0.00571935
vn -0.0899014 0.236956 -0.967352
vn -0.99895 0 0.0458121
vn -0.99895 0 0.0458121
vn -0.998591 0 0.0530677
vn -0.998591 0 0.0530677
vn -0.0285598 0 -0.999592
vn -0.0324779 -0.000162368 -0.999472
vn -0.0288056 0.00172226 -0.999583
vn -0.0321616 -0.000107198 -0.999483
vn -0.0285598 6.12074e-17 -0.999592
vn 0 1 6.12325e-17
vn -0.0436298 0 -0.999048
vn -0.0435417 -4.32522e-05 -0.999052
vn -0.0436298 4.95455e-05 -0.999048
vn -0.043535 0 -0.999052
vn 0.0534951 -0 0.998568
vn 0.0549176 -3.37523e-05 0.998491
vn 0.0543953 0.000203186 0.998519
vn 0.0540911 0.000488493 0.998536
vn 0.0534952 0.00140449 0.998567
vn 0.0544222 0 0.998518
vn -9.99121e-23 -1 -6.12325e-17
vn 2.63076e-22 -1 -6.12273e-17
vn 0.999262 0 -0.0384108
vn 0 -1 -6.12323e-17
vn 0 -1 -6.12321e-17
vn -6.28271e-24 -1 -6.12323e-17
vn 6.76568e-23 -1 -6.12323e-17
vn 0 -1 -6.12323e-17
vn -7.65125e-24 -1 -6.12323e-17
vn -3.47882e-21 -1 -6.13096e-17

# Mesh 'defaultobject' with 44 faces
g defaultobject
usemtl DefaultMaterial
f  1//1 2//1 3//1
f  2//2 1//2 4//2
f  5//3 6//3 7//3
f  6//4 5//4 8//4
f  8//5 5//5 9//5
f  9//6 1//6 10//6
f  1//7 9//7 4//7
f  4//8 9//8 11//8
f  11//9 9//9 5//9
f  11//10 5//10 12//10
f  10//11 13//11 9//11
f  13//11 10//11 14//12
f  7//13 15//13 5//13
f  15//13 7//13 16//14
f  13//15 8//15 9//15
f  8//16 13//16 6//16
f  6//17 13//17 7//17
f  7//18 13//18 17//18
f  7//19 17//19 16//19
f  17//20 13//20 18//20
f  1//21 14//21 10//21
f  14//22 1//22 3//22
f  14//23 3//23 19//23
f  19//24 3//24 20//24
f  15//25 12//25 5//25
f  12//26 15//26 11//26
f  11//27 15//27 4//27
f  4//28 15//28 2//28
f  2//29 15//29 21//29
f  2//30 21//30 22//30
f  22//31 21//31 23//31
f  22//31 23//31 24//32
f  22//33 3//33 2//33
f  3//33 22//33 20//33
f  16//34 21//31 15//34
f  21//31 16//34 23//31
f  23//31 16//34 24//32
f  24//32 16//34 17//35
f  24//32 17//35 18//36
f  24//32 18//36 22//31
f  22//31 18//36 13//37
f  22//31 13//37 14//38
f  22//31 14//38 20//39
f  20//39 14//38 19//40

