# {"id":"ID_17831","idOriginal":"ID_17831","origin":[14.260259503920127,48.31605854379621],"elevation":399.787,"wof":[{"Id":85681677,"Name":"Oberösterreich","Placetype":"region","Offset":-1},{"Id":85898453,"Name":"Urfahr","Placetype":"neighbourhood","Offset":-1},{"Id":102049853,"Name":"Linz","Placetype":"county","Offset":-1},{"Id":85632785,"Name":"Austria","Placetype":"country","Offset":-1},{"Id":101748071,"Name":"Linz","Placetype":"locality","Offset":-1}]}

# Attribution: City of Linz <http://geo.data.linz.gv.at/katalog/geodata/3d_geo_daten_lod2/>
# Longitude: 14.260259503920127
# Latitude: 48.31605854379621
# Elevation: 399.787

# File produced by Open Asset Import Library (http://www.assimp.sf.net)
# (assimp v3.1.0)


# 22 vertex positions
v  7.788 10.537 -12.347
v  11.819 8.725 1.657
v  13.749 8.725 -11.616
v  5.872 10.537 0.831
v  1.367 8.707 -10.311
v  1.733 8.696 -13.09
v  0.116 8.746 -0.82
v  0.103 8.746 -0.728
v  0 8.747 5.35599e-16
v  2.875 9.623 0.414
v  3.873 9.928 0.553
v  0 0 0
v  0.103 4.45771e-17 -0.728
v  0.116 5.02105e-17 -0.82
v  1.367 6.31367e-16 -10.311
v  1.733 8.01531e-16 -13.09
v  11.819 -1.01462e-16 1.657
v  2.875 -2.53502e-17 0.414
v  3.873 -3.38615e-17 0.553
v  5.872 -5.08841e-17 0.831
v  13.749 7.11275e-16 -11.616
v  7.788 7.56036e-16 -12.347

# 0 UV coordinates

# 34 vertex normals
vn 0.285914 0.957353 0.0415741
vn 0.285922 0.957351 0.0415714
vn -0.285988 0.957336 -0.0414544
vn -0.286039 0.957313 -0.0416363
vn -0.283924 0.958007 -0.0401196
vn -0.286315 0.957223 -0.041823
vn -0.285751 0.957408 -0.0414405
vn -0.286679 0.957113 -0.0418192
vn -0.285882 0.957363 -0.0415656
vn -0.990139 0 -0.140088
vn -0.990164 0 -0.139914
vn -0.991425 0 -0.130679
vn -0.991425 0 -0.130679
vn -0.991438 0 -0.130574
vn -0.991439 0 -0.130574
vn -0.14253 -6.06072e-17 0.989791
vn -0.137486 -0.0015376 0.990503
vn -0.137257 -0.00162863 0.990534
vn -0.137943 -0.0012388 0.990439
vn -0.13884 0 0.990315
vn 0 1 6.12325e-17
vn -4.89862e-21 1 6.12523e-17
vn 0 1 6.12419e-17
vn 0.989593 -0 0.143895
vn 0.121719 0 -0.992565
vn 0.121784 3.74069e-05 -0.992557
vn 0.121757 0 -0.99256
vn -2.58388e-20 -1 -6.1036e-17
vn -2.45209e-23 -1 -6.12323e-17
vn 1.54929e-24 -1 -6.12323e-17
vn -2.10361e-23 -1 -6.12323e-17
vn -1.05942e-23 -1 -6.12323e-17
vn 3.17509e-23 -1 -6.12323e-17
vn -1.04365e-22 -1 -6.12323e-17

# Mesh 'defaultobject' with 40 faces
g defaultobject
usemtl DefaultMaterial
f  1//1 2//1 3//1
f  2//1 1//1 4//2
f  5//3 1//3 6//3
f  1//4 5//4 7//4
f  1//5 7//5 8//5
f  1//6 8//6 9//6
f  1//7 9//7 10//7
f  1//8 10//8 11//8
f  1//9 11//9 4//9
f  8//10 12//10 9//10
f  12//10 8//10 13//10
f  13//11 8//11 7//11
f  13//11 7//11 14//11
f  14//12 7//12 5//12
f  14//12 5//12 15//13
f  15//14 5//14 6//14
f  15//14 6//14 16//15
f  12//16 10//16 9//16
f  10//17 12//17 11//17
f  11//18 12//18 4//18
f  4//19 12//19 2//19
f  2//20 12//20 17//20
f  17//21 12//21 18//21
f  17//21 18//21 19//22
f  17//21 19//22 20//23
f  17//24 3//24 2//24
f  3//24 17//24 21//24
f  21//25 1//25 3//25
f  1//26 21//26 6//26
f  6//27 21//27 16//27
f  16//28 21//28 22//28
f  18//29 13//29 14//29
f  13//29 18//29 12//30
f  17//31 22//28 21//28
f  22//28 17//31 20//32
f  22//28 20//32 16//28
f  16//28 20//32 19//33
f  16//28 19//33 18//29
f  16//28 18//29 15//34
f  15//34 18//29 14//29

