# {"id":"ID_5464","idOriginal":"ID_5464","origin":[14.297924942866624,48.2862268517289],"elevation":261.23}
# Longitude: 14.297924942866624
# Latitude: 48.2862268517289
# Elevation: 261.23

# File produced by Open Asset Import Library (http://www.assimp.sf.net)
# (assimp v3.1.0)

mtllib ID_5464.obj.mtl

# 53 vertex positions
v  0.005 14.335 0.022
v  2.415 14.327 -4.709
v  0 14.327 8.77276e-16
v  5.58 17.602 1.811
v  2.562 14.327 -4.996
v  4.618 14.326 -9.008
v  4.674 14.327 -9.116
v  4.938 14.493 -8.985
v  10.704 18.13 -6.132
v  6.482 18.13 2.101
v  14.252 14.361 1.559
v  16.628 14.393 -3.201
v  13.441 14.867 1.177
v  12.675 14.909 2.508
v  7.384 17.602 2.39
v  13.052 14.281 4.209
v  16.628 1.96005e-16 -3.201
v  4.674 5.58194e-16 -9.116
v  10.704 3.75477e-16 -6.132
v  4.938 5.50173e-16 -8.985
v  4.618 5.51581e-16 -9.008
v  0 0 0
v  2.562 3.05917e-16 -4.996
v  2.415 2.88343e-16 -4.709
v  0.005 -1.34711e-18 0.022
v  5.58 -1.10892e-16 1.811
v  13.052 -2.57727e-16 4.209
v  7.384 -1.46345e-16 2.39
v  6.482 -1.28649e-16 2.101
v  12.675 -1.53571e-16 2.508
v  13.441 -7.20705e-17 1.177
v  14.252 -9.54612e-17 1.559
v  13.052 15.726 4.209
v  10.576 17.9 19.926
v  16.267 15.768 18.715
v  6.482 17.9 2.101
v  0.687 15.757 2.993
v  0.005 15.757 0.022
v  0.714 15.757 3.109
v  3.733 15.757 16.255
v  3.834 15.757 16.697
v  4.848 15.757 21.112
v  4.855 15.757 21.142
v  5.12 15.856 21.086
v  4.855 -1.29457e-15 21.142
v  4.848 -1.29274e-15 21.112
v  3.834 -1.0224e-15 16.697
v  3.733 -9.95332e-16 16.255
v  0.714 -1.90371e-16 3.109
v  0.687 -1.83268e-16 2.993
v  5.12 -1.29115e-15 21.086
v  16.267 -1.14596e-15 18.715
v  10.576 -1.22012e-15 19.926

# 0 UV coordinates

# 96 vertex normals
vn -0.430124 0.875405 -0.220588
vn -0.43802 0.870455 -0.224602
vn -0.438235 0.870383 -0.224462
vn -0.437937 0.870486 -0.224643
vn -0.445452 0.867102 -0.22295
vn -0.436213 0.871269 -0.224965
vn -0.437926 0.870493 -0.22464
vn -0.43756 0.870742 -0.224387
vn 0.438038 0.870472 0.224503
vn 0.437298 0.870724 0.224968
vn 0.437988 0.870473 0.224597
vn 0.438068 0.87051 0.224297
vn 0.438033 0.870454 0.22458
vn 0.437722 0.870639 0.22447
vn 0.443468 2.11842e-05 -0.89629
vn 0.443481 0.00201311 -0.896282
vn 0.443491 0 -0.896279
vn 0.443491 0 -0.896279
vn 3.22364e-20 -1 -6.13137e-17
vn -1.99515e-20 -1 -6.11927e-17
vn -0.887755 0 -0.460316
vn -0.889947 -4.06212e-05 -0.456064
vn -0.890043 -0.000108866 -0.455876
vn -0.889808 6.9569e-05 -0.456336
vn -0.887751 0.003272 -0.460312
vn -0.889877 2.79342e-17 -0.4562
vn 3.03838e-20 -1 -6.12233e-17
vn -1.20284e-19 -1 -6.13449e-17
vn -0.975133 0 0.221621
vn -0.975133 0 0.221621
vn -0.305599 -0.000901902 0.95216
vn -0.305599 9.18271e-05 0.95216
vn -0.305562 0 0.952172
vn -0.305572 4.4353e-06 0.952169
vn -0.30555 -1.72451e-05 0.952176
vn -0.30558 0 0.952166
vn -8.95341e-20 1 6.14204e-17
vn 1.4669e-20 1 6.11881e-17
vn 0.976308 0 -0.216383
vn 0.866716 -0 0.498801
vn 0.866716 0 0.498801
vn 0.894728 0 0.446612
vn -0.426119 0 0.904667
vn -0.426119 0 0.904667
vn 2.58624e-24 -1 -6.12323e-17
vn 2.78328e-24 -1 -6.12323e-17
vn 0 -1 -6.12324e-17
vn -4.89584e-23 -1 -6.12324e-17
vn 0 -1 -6.12323e-17
vn -2.22062e-23 -1 -6.12323e-17
vn 0.335356 0.938936 -0.0770443
vn 0.335403 0.93892 -0.0770346
vn -0.0246116 0.656561 0.753871
vn -0.335434 0.938912 0.0769996
vn -0.335228 0.938915 0.0778572
vn -0.335201 0.938911 0.0780226
vn -0.335382 0.938928 0.0770211
vn -0.335364 0.938934 0.0770256
vn -0.335163 0.939042 0.0765871
vn -0.335338 0.938945 0.0770176
vn -0.335093 0.938935 0.0781881
vn -0.15474 0.766544 0.62327
vn -0.973843 0 0.227224
vn -0.974625 -6.78305e-06 0.223844
vn -0.974872 -0.000327319 0.222764
vn -0.974629 1.90256e-05 0.223825
vn -0.973834 0.00411524 0.227222
vn -0.974625 4.81257e-05 0.223844
vn -0.973961 0.00263844 0.226698
vn -0.97465 -7.52112e-05 0.223733
vn -0.974872 -0.00115434 0.222764
vn -0.974629 -4.0205e-06 0.223825
vn -0.974625 0 0.223845
vn 1.64677e-20 1 6.12288e-17
vn 0.206754 -0 0.978393
vn 0.207969 -2.1221e-05 0.978135
vn 0.208108 -6.75721e-05 0.978106
vn 0.206753 0.000957067 0.978393
vn 0.208049 0 0.978118
vn 4.67659e-20 1 6.14598e-17
vn 0.976309 0 -0.216382
vn 0.305574 0 -0.952168
vn 0.305066 -0.000180373 -0.952331
vn 0.306016 0.000204285 -0.952026
vn 0.305554 -1.2268e-05 -0.952175
vn 0.30558 1.16615e-05 -0.952166
vn 0.30555 0 -0.952176
vn -1.72518e-24 -1 -6.12323e-17
vn -1.37978e-23 -1 -6.12324e-17
vn -3.11927e-24 -1 -6.12323e-17
vn 1.09587e-23 -1 -6.12323e-17
vn -6.50291e-23 -1 -6.12319e-17
vn 3.00534e-24 -1 -6.12324e-17
vn 7.25079e-23 -1 -6.1232e-17
vn 1.82224e-21 -1 -6.12241e-17
vn -4.91125e-20 -1 -6.14701e-17

# Mesh 'defaultobject' with 112 faces
g defaultobject
usemtl DefaultMaterial
f  1//1 2//1 3//1
f  2//2 1//2 4//2
f  2//3 4//3 5//3
f  5//4 4//4 6//4
f  6//5 4//5 7//5
f  7//6 4//6 8//6
f  8//7 4//7 9//7
f  9//8 4//8 10//8
f  9//9 11//9 12//9
f  11//10 9//10 13//10
f  13//11 9//11 14//11
f  14//12 15//12 16//12
f  15//13 14//13 9//13
f  15//14 9//14 10//14
f  12//15 8//15 9//15
f  8//16 12//16 7//16
f  7//17 12//17 17//17
f  7//17 17//17 18//18
f  18//19 17//19 19//19
f  18//19 19//19 20//20
f  18//21 6//21 7//21
f  6//22 18//22 5//22
f  5//23 18//23 2//23
f  2//24 18//24 3//24
f  3//25 18//25 21//25
f  3//26 21//26 22//26
f  22//27 21//27 23//27
f  22//27 23//27 24//28
f  3//29 25//29 1//29
f  25//29 3//29 22//30
f  4//31 15//31 10//31
f  15//32 4//32 1//32
f  15//33 1//33 25//33
f  15//34 25//34 16//34
f  16//35 25//35 26//35
f  16//34 26//36 27//36
f  27//37 26//37 28//37
f  28//37 26//37 29//38
f  16//39 30//39 14//39
f  30//39 16//39 27//39
f  30//40 13//40 14//40
f  13//40 30//40 31//41
f  11//42 17//42 12//42
f  17//42 11//42 32//42
f  31//43 11//43 13//43
f  11//43 31//43 32//44
f  28//45 30//45 27//45
f  30//45 28//45 31//46
f  31//46 28//45 17//19
f  17//19 28//45 19//19
f  19//19 28//45 29//47
f  19//19 29//47 26//48
f  19//19 26//48 25//49
f  19//19 25//49 20//20
f  20//20 25//49 22//27
f  20//20 22//27 24//28
f  20//20 24//28 23//27
f  20//20 23//27 21//27
f  20//20 21//27 18//19
f  17//19 32//50 31//46
f  33//51 34//51 35//51
f  34//52 33//52 36//52
f  36//53 33//53 15//53
f  37//54 4//54 38//54
f  4//55 37//55 36//55
f  36//56 37//56 39//56
f  36//57 39//57 40//57
f  36//58 40//58 34//58
f  34//59 40//59 41//59
f  34//60 41//60 42//60
f  34//61 42//61 43//61
f  34//62 43//62 44//62
f  42//63 45//63 43//63
f  45//64 42//64 41//64
f  45//65 41//65 40//65
f  45//66 40//66 39//66
f  45//67 39//67 46//67
f  46//68 39//68 47//68
f  47//69 39//69 37//69
f  47//70 37//70 38//70
f  47//71 38//71 48//71
f  48//72 38//72 49//72
f  49//73 38//73 25//73
f  49//74 25//74 50//74
f  45//75 44//75 43//75
f  44//76 45//76 34//76
f  34//77 45//77 35//77
f  35//78 45//78 51//78
f  35//79 51//79 52//79
f  52//80 51//80 53//80
f  52//81 33//81 35//81
f  33//81 52//81 27//39
f  27//82 15//82 33//82
f  15//83 27//83 36//83
f  36//84 27//84 4//84
f  4//85 27//85 38//85
f  38//86 27//86 26//86
f  38//87 26//87 25//87
f  26//48 27//45 28//45
f  26//48 28//45 29//47
f  26//48 50//88 25//49
f  50//88 26//48 49//89
f  49//89 26//48 48//90
f  48//90 26//48 29//47
f  48//90 29//47 28//45
f  48//90 28//45 27//45
f  48//90 27//45 52//91
f  48//90 52//91 47//92
f  47//92 52//91 46//93
f  46//93 52//91 45//94
f  45//94 52//91 51//95
f  51//95 52//91 53//96

