# {"id":"ID_59332","idOriginal":"ID_59332","origin":[14.282722474523995,48.310238751866166],"elevation":260.993}
# Longitude: 14.282722474523995
# Latitude: 48.310238751866166
# Elevation: 260.993

# File produced by Open Asset Import Library (http://www.assimp.sf.net)
# (assimp v3.1.0)

mtllib ID_59332.obj.mtl

# 8 vertex positions
v  3.889 23.527 -1.91
v  0.316 23.527 0.707
v  4.223 23.527 -1.275
v  0 23.527 1.44061e-15
v  0.316 -4.32913e-17 0.707
v  4.223 7.80712e-17 -1.275
v  3.889 1.16954e-16 -1.91
v  0 0 0

# 0 UV coordinates

# 9 vertex normals
vn 0 1 -0
vn 0.45241 -0 0.89181
vn 0.885039 0 -0.465517
vn -0.440832 0 -0.89759
vn -0.440832 5.49615e-17 -0.89759
vn -0.912957 -2.49861e-17 0.408055
vn -0.912957 0 0.408055
vn 0 -1 -6.12323e-17
vn 2.12954e-24 -1 -6.12323e-17

# Mesh 'defaultobject' with 12 faces
g defaultobject
usemtl DefaultMaterial
f  1//1 2//1 3//1
f  2//1 1//1 4//1
f  5//2 3//2 2//2
f  3//2 5//2 6//2
f  6//3 1//3 3//3
f  1//3 6//3 7//3
f  7//4 4//4 1//4
f  4//4 7//4 8//5
f  8//6 2//6 4//6
f  2//6 8//6 5//7
f  8//8 6//8 5//8
f  6//8 8//8 7//9

