# {"id":"_59554","idOriginal":"_59554","origin":[14.289697912520934,48.30447662318235],"elevation":260.43}
# Longitude: 14.289697912520934
# Latitude: 48.30447662318235
# Elevation: 260.43

# File produced by Open Asset Import Library (http://www.assimp.sf.net)
# (assimp v3.1.0)

mtllib _59554.obj.mtl

# 8 vertex positions
v  0 16.03 9.81554e-16
v  2.107 16.03 2.025
v  1.007 16.03 -0.445
v  1.093 16.03 2.504
v  1.007 2.72484e-17 -0.445
v  0 0 0
v  1.093 -1.53326e-16 2.504
v  2.107 -1.23995e-16 2.025

# 0 UV coordinates

# 9 vertex normals
vn -0 1 0
vn -0.404199 0 -0.914671
vn -0.404199 5.60074e-17 -0.914671
vn -0.916493 -2.4496e-17 0.400051
vn -0.916493 0 0.400051
vn 0.427128 -0 0.904191
vn 0.913506 0 -0.406825
vn 0 -1 -6.12323e-17
vn -4.36582e-24 -1 -6.12323e-17

# Mesh 'defaultobject' with 12 faces
g defaultobject
usemtl DefaultMaterial
f  1//1 2//1 3//1
f  2//1 1//1 4//1
f  5//2 1//2 3//2
f  1//2 5//2 6//3
f  6//4 4//4 1//4
f  4//4 6//4 7//5
f  7//6 2//6 4//6
f  2//6 7//6 8//6
f  8//7 3//7 2//7
f  3//7 8//7 5//7
f  5//8 7//8 6//8
f  7//8 5//8 8//9

