# {"id":"ID_47665","idOriginal":"ID_47665","origin":[14.313569218140271,48.245696470289936],"elevation":257.468,"wof":[{"Id":85681677,"Name":"Oberösterreich","Placetype":"region","Offset":-1},{"Id":85898447,"Name":"Scharlinz","Placetype":"neighbourhood","Offset":-1},{"Id":102049853,"Name":"Linz","Placetype":"county","Offset":-1},{"Id":85632785,"Name":"Austria","Placetype":"country","Offset":-1},{"Id":101748071,"Name":"Linz","Placetype":"locality","Offset":-1}]}

# Attribution: City of Linz <http://geo.data.linz.gv.at/katalog/geodata/3d_geo_daten_lod2/>
# Longitude: 14.313569218140271
# Latitude: 48.245696470289936
# Elevation: 257.468

# File produced by Open Asset Import Library (http://www.assimp.sf.net)
# (assimp v3.1.0)


# 11 vertex positions
v  2.669 3.78 1.095
v  1.572 2.478 3.763
v  3.455 3.78 2.979
v  0 2.477 1.51673e-16
v  3.766 2.477 -1.578
v  5.339 2.477 2.194
v  3.766 9.66246e-17 -1.578
v  0 0 0
v  1.572 -2.30417e-16 3.763
v  3.455 -1.82411e-16 2.979
v  5.339 -1.34344e-16 2.194

# 0 UV coordinates

# 17 vertex normals
vn -0.496573 0.842909 0.207169
vn -0.496524 0.842931 0.2072
vn 0.496649 0.842878 -0.207113
vn 0.496511 0.842952 -0.207143
vn -0.207927 0.842924 -0.496231
vn -0.386458 0 -0.922307
vn -0.386458 5.6475e-17 -0.922307
vn -0.922721 0 0.385468
vn -0.922721 0 0.385468
vn 0.384372 -0 0.923178
vn 0.384553 -0.000105996 0.923103
vn 0.384372 0.000217593 0.923178
vn 0.384615 0 0.923077
vn 0.922961 0 -0.384893
vn 0 -1 -6.12323e-17
vn 0 -1 -6.12323e-17
vn -1.80583e-20 -1 -6.12657e-17

# Mesh 'defaultobject' with 18 faces
g defaultobject
usemtl DefaultMaterial
f  1//1 2//1 3//1
f  2//2 1//2 4//2
f  5//3 3//3 6//3
f  3//4 5//4 1//4
f  1//5 5//5 4//5
f  7//6 4//6 5//6
f  4//6 7//6 8//7
f  4//8 9//8 2//8
f  9//8 4//8 8//9
f  9//10 3//10 2//10
f  3//11 9//11 6//11
f  6//12 9//12 10//12
f  6//13 10//13 11//13
f  11//14 5//14 6//14
f  5//14 11//14 7//14
f  11//15 8//15 7//15
f  8//15 11//15 9//16
f  9//16 11//15 10//17

