# {"id":"_23767","idOriginal":"_23767","origin":[14.305228107832091,48.293130543035154],"elevation":258.015,"wof":[{"Id":101748071,"Name":"Linz","Placetype":"locality","Offset":-1},{"Id":102049853,"Name":"Linz","Placetype":"county","Offset":-1},{"Id":85632785,"Name":"Austria","Placetype":"country","Offset":-1},{"Id":85681677,"Name":"Oberösterreich","Placetype":"region","Offset":-1},{"Id":85898459,"Name":"Wegscheid","Placetype":"neighbourhood","Offset":-1}]}

# Attribution: City of Linz <http://geo.data.linz.gv.at/katalog/geodata/3d_geo_daten_lod2/>
# Longitude: 14.305228107832091
# Latitude: 48.293130543035154
# Elevation: 258.015

# File produced by Open Asset Import Library (http://www.assimp.sf.net)
# (assimp v3.1.0)


# 16 vertex positions
v  0.042 5.34 -2.368
v  8.584 5.34 -12.131
v  0.218 5.34 -12.265
v  8.291 5.34 -3.263
v  0 5.34 3.26981e-16
v  9.561 5.34 0.194
v  9.585 5.34 -2.368
v  9.593 5.34 -3.213
v  9.593 1.9674e-16 -3.213
v  9.585 1.44998e-16 -2.368
v  9.561 -1.18791e-17 0.194
v  8.291 1.99801e-16 -3.263
v  8.584 7.4281e-16 -12.131
v  0.218 7.51015e-16 -12.265
v  0.042 1.44998e-16 -2.368
v  0 0 0

# 0 UV coordinates

# 19 vertex normals
vn 0 1 0
vn 0.999955 0 0.00946747
vn 0.999956 1.58471e-05 0.00936734
vn 0.999955 -4.80478e-05 0.00946747
vn 0.999956 0 0.00936734
vn 0.999455 -0 0.033022
vn 0.0383741 0 -0.999263
vn 0.0160153 0 -0.999872
vn -0.999842 0 -0.0177804
vn -0.999843 -0 -0.0177337
vn -0.999843 1.08588e-18 -0.0177337
vn -0.0202866 -6.12197e-17 0.999794
vn -0.0202866 0 0.999794
vn 3.19599e-24 -1 -6.12323e-17
vn -7.26295e-25 -1 -6.12323e-17
vn -6.7885e-25 -1 -6.12323e-17
vn 0 -1 -6.12323e-17
vn 0 -1 -6.12323e-17
vn 0 -1 -6.12323e-17

# Mesh 'defaultobject' with 28 faces
g defaultobject
usemtl DefaultMaterial
f  1//1 2//1 3//1
f  2//1 1//1 4//1
f  4//1 1//1 5//1
f  4//1 5//1 6//1
f  4//1 6//1 7//1
f  4//1 7//1 8//1
f  7//2 9//2 8//2
f  9//3 7//3 6//3
f  9//4 6//4 10//4
f  10//5 6//5 11//5
f  12//6 2//6 4//6
f  2//6 12//6 13//6
f  9//7 4//7 8//7
f  4//7 9//7 12//7
f  13//8 3//8 2//8
f  3//8 13//8 14//8
f  14//9 1//9 3//9
f  1//9 14//9 15//9
f  1//10 15//10 5//10
f  5//10 15//10 16//11
f  16//12 6//12 5//12
f  6//12 16//12 11//13
f  13//14 15//14 14//14
f  15//14 13//14 12//15
f  15//14 12//15 16//16
f  16//16 12//15 9//17
f  16//16 9//17 10//18
f  16//16 10//18 11//19

