# {"id":"ID_13358","idOriginal":"ID_13358","origin":[14.286053907097378,48.320328267372226],"elevation":261.452,"wof":[{"Id":85681677,"Name":"Oberösterreich","Placetype":"region","Offset":-1},{"Id":102049853,"Name":"Linz","Placetype":"county","Offset":-1},{"Id":101748071,"Name":"Linz","Placetype":"locality","Offset":-1},{"Id":85898453,"Name":"Urfahr","Placetype":"neighbourhood","Offset":-1},{"Id":85632785,"Name":"Austria","Placetype":"country","Offset":-1}]}

# Attribution: City of Linz <http://geo.data.linz.gv.at/katalog/geodata/3d_geo_daten_lod2/>
# Longitude: 14.286053907097378
# Latitude: 48.320328267372226
# Elevation: 261.452

# File produced by Open Asset Import Library (http://www.assimp.sf.net)
# (assimp v3.1.0)


# 28 vertex positions
v  18.66 11.26 10.168
v  10.364 10.839 10.819
v  18.673 10.838 10.569
v  18.493 16.693 5.011
v  10.335 10.838 10.82
v  0 10.832 6.63269e-16
v  18.463 15.73 4.097
v  18.312 10.844 -0.541
v  0.124 16.693 5.565
v  0.091 15.146 4.097
v  0.237 11.302 10.684
v  0.247 10.838 11.125
v  8.226 10.838 10.884
v  0.247 -6.8121e-16 11.125
v  0.124 -3.40758e-16 5.565
v  0 0 0
v  0.237 -6.54206e-16 10.684
v  0.091 -2.50869e-16 4.097
v  8.325 10.838 10.881
v  8.226 -6.66453e-16 10.884
v  10.364 -6.62473e-16 10.819
v  18.673 -6.47165e-16 10.569
v  8.325 -6.66269e-16 10.881
v  10.335 -6.62534e-16 10.82
v  18.312 3.31267e-17 -0.541
v  18.66 -6.2261e-16 10.168
v  18.463 -2.50869e-16 4.097
v  18.493 -3.06835e-16 5.011

# 0 UV coordinates

# 49 vertex normals
vn 0.0218786 0.689029 0.724403
vn 0.0219281 0.688633 0.724778
vn 0.000201078 0.704177 0.710025
vn -0.0218633 0.688652 -0.724763
vn -0.0218415 0.688606 -0.724807
vn -0.0218589 0.688636 -0.724777
vn -0.914479 0.28862 -0.283596
vn 0.0218585 0.688653 0.724762
vn 0.0216564 0.688998 0.72444
vn 0.0218917 0.688626 0.724786
vn 0.0219972 0.68853 0.724874
vn -0.999752 0.000192145 0.0222715
vn -0.999754 2.84099e-05 0.022176
vn -0.999754 -0.000449658 0.022197
vn -0.999754 0 0.0221968
vn -0.999755 -8.20881e-05 0.0221169
vn -0.999752 0 0.0222766
vn 0 1 6.12321e-17
vn 0 1 6.12322e-17
vn 0.0301905 -0 0.999544
vn 0.0302917 -7.45801e-05 0.999541
vn 0.0303342 -0.000106267 0.99954
vn 0.0345827 -0.00406483 0.999394
vn 0.0300743 0.000147614 0.999548
vn 0.0301905 -5.02489e-05 0.999544
vn 0.030388 -0.00024076 0.999538
vn 0.0300742 0 0.999548
vn 2.12881e-19 1 6.82029e-17
vn 1.3155e-20 1 6.16664e-17
vn 0.999469 -0.000208878 -0.032586
vn 0.999472 -6.00345e-05 -0.0324765
vn 0.999472 -6.94637e-05 -0.0324761
vn 0.999473 0 -0.0324761
vn 0.999472 0 -0.0324761
vn 0 1 6.12004e-17
vn 0 1 6.12321e-17
vn -1.27522e-20 1 6.12329e-17
vn -0.0295306 0 -0.999564
vn -0.0295306 6.12056e-17 -0.999564
vn 3.47226e-24 -1 -6.12323e-17
vn 2.46855e-24 -1 -6.12323e-17
vn 6.96193e-24 -1 -6.12323e-17
vn 0 -1 -6.12323e-17
vn 0 -1 -6.12323e-17
vn 3.73101e-23 -1 -6.12324e-17
vn 0 -1 -6.12318e-17
vn 0 -1 -6.12323e-17
vn 0 -1 -6.12315e-17
vn 0 -1 -6.12321e-17

# Mesh 'defaultobject' with 50 faces
g defaultobject
usemtl DefaultMaterial
f  1//1 2//1 3//1
f  2//2 1//2 4//2
f  4//3 5//3 2//3
f  6//4 7//4 8//4
f  7//5 6//5 4//5
f  4//6 6//6 9//6
f  9//7 6//7 10//7
f  11//8 4//8 9//8
f  4//9 11//9 12//9
f  4//10 12//10 13//10
f  4//11 13//11 5//11
f  10//12 11//12 9//12
f  11//13 10//13 6//13
f  11//14 6//14 12//14
f  12//15 6//15 14//15
f  14//16 6//16 15//16
f  15//17 6//17 16//17
f  14//18 15//18 17//18
f  15//18 16//19 18//19
f  14//20 13//20 12//20
f  13//21 14//21 19//21
f  19//22 14//22 5//22
f  5//23 14//23 2//23
f  2//24 14//24 3//24
f  3//25 14//25 20//25
f  3//26 20//26 21//26
f  3//27 21//27 22//27
f  21//28 20//28 23//28
f  21//28 23//28 24//29
f  1//30 7//30 4//30
f  7//31 1//31 8//31
f  8//31 1//31 3//32
f  8//33 3//33 22//33
f  8//33 22//33 25//34
f  25//35 22//35 26//35
f  25//35 26//35 27//36
f  27//36 26//35 28//37
f  25//38 6//38 8//38
f  6//38 25//38 16//39
f  21//40 26//40 22//40
f  26//40 21//40 28//41
f  28//41 21//40 27//42
f  27//42 21//40 25//43
f  25//43 21//40 16//44
f  16//44 21//40 23//45
f  16//44 23//45 20//46
f  16//44 20//46 15//44
f  15//44 20//46 14//47
f  15//44 14//47 17//48
f  16//44 15//44 18//49

