# {"id":"ID_51833","idOriginal":"ID_51833","origin":[14.314754079354783,48.26768381219096],"elevation":258.45,"wof":[{"Id":102049853,"Name":"Linz","Placetype":"county","Offset":-1},{"Id":101748071,"Name":"Linz","Placetype":"locality","Offset":-1},{"Id":85681677,"Name":"Oberösterreich","Placetype":"region","Offset":-1},{"Id":85898429,"Name":"Kleinmünchen","Placetype":"neighbourhood","Offset":-1},{"Id":85632785,"Name":"Austria","Placetype":"country","Offset":-1}]}

# Attribution: City of Linz <http://geo.data.linz.gv.at/katalog/geodata/3d_geo_daten_lod2/>
# Longitude: 14.314754079354783
# Latitude: 48.26768381219096
# Elevation: 258.45

# File produced by Open Asset Import Library (http://www.assimp.sf.net)
# (assimp v3.1.0)


# 8 vertex positions
v  4.369 2.927 1.94
v  0 2.927 1.79227e-16
v  0.887 2.927 2.978
v  3.482 2.927 -1.038
v  0.887 -1.8235e-16 2.978
v  4.369 -1.18791e-16 1.94
v  3.482 6.35592e-17 -1.038
v  0 0 0

# 0 UV coordinates

# 9 vertex normals
vn 0 1 0
vn 0.285681 -0 0.958325
vn 0.958391 0 -0.285458
vn -0.285681 0 -0.958325
vn -0.285681 5.86805e-17 -0.958325
vn -0.958391 -1.74792e-17 0.285458
vn -0.958391 0 0.285458
vn 0 -1 -6.12323e-17
vn -2.34451e-24 -1 -6.12323e-17

# Mesh 'defaultobject' with 12 faces
g defaultobject
usemtl DefaultMaterial
f  1//1 2//1 3//1
f  2//1 1//1 4//1
f  5//2 1//2 3//2
f  1//2 5//2 6//2
f  6//3 4//3 1//3
f  4//3 6//3 7//3
f  7//4 2//4 4//4
f  2//4 7//4 8//5
f  8//6 3//6 2//6
f  3//6 8//6 5//7
f  8//8 6//8 5//8
f  6//8 8//8 7//9

