# {"id":"ID_55158","idOriginal":"ID_55158","origin":[14.30422922792408,48.26425527059309],"elevation":261.596}
# Longitude: 14.30422922792408
# Latitude: 48.26425527059309
# Elevation: 261.596

# File produced by Open Asset Import Library (http://www.assimp.sf.net)
# (assimp v3.1.0)

mtllib ID_55158.obj.mtl

# 8 vertex positions
v  0 2.053 1.2571e-16
v  4.139 2.053 1.345
v  3.891 2.053 -0.544
v  0.213 2.053 1.811
v  3.891 3.33104e-17 -0.544
v  0 0 0
v  0.213 -1.10892e-16 1.811
v  4.139 -8.23575e-17 1.345

# 0 UV coordinates

# 8 vertex normals
vn -0 1 0
vn -0.138463 0 -0.990368
vn -0.138463 6.06425e-17 -0.990368
vn -0.993154 -7.15251e-18 0.116809
vn -0.993154 0 0.116809
vn 0.117868 -0 0.993029
vn 0.991492 0 -0.130169
vn 0 -1 -6.12323e-17

# Mesh 'defaultobject' with 12 faces
g defaultobject
usemtl DefaultMaterial
f  1//1 2//1 3//1
f  2//1 1//1 4//1
f  5//2 1//2 3//2
f  1//2 5//2 6//3
f  6//4 4//4 1//4
f  4//4 6//4 7//5
f  7//6 2//6 4//6
f  2//6 7//6 8//6
f  8//7 3//7 2//7
f  3//7 8//7 5//7
f  8//8 6//8 5//8
f  6//8 8//8 7//8

