# {"id":"ID_28424","idOriginal":"ID_28424","origin":[14.29882947045112,48.2548971391219],"elevation":263.923,"wof":[{"Id":102049853,"Name":"Linz","Placetype":"county","Offset":-1},{"Id":101748071,"Name":"Linz","Placetype":"locality","Offset":-1},{"Id":85681677,"Name":"Oberösterreich","Placetype":"region","Offset":-1},{"Id":85898447,"Name":"Scharlinz","Placetype":"neighbourhood","Offset":-1},{"Id":85632785,"Name":"Austria","Placetype":"country","Offset":-1}]}

# Attribution: City of Linz <http://geo.data.linz.gv.at/katalog/geodata/3d_geo_daten_lod2/>
# Longitude: 14.29882947045112
# Latitude: 48.2548971391219
# Elevation: 263.923

# File produced by Open Asset Import Library (http://www.assimp.sf.net)
# (assimp v3.1.0)


# 24 vertex positions
v  1.383 3.105 6.635
v  5.643 3.105 -1.074
v  0 3.105 1.90126e-16
v  6.892 3.105 5.624
v  5.821 3.105 -1.108
v  7.584 3.105 -1.528
v  8.867 3.105 -1.764
v  10.135 3.105 5.029
v  5.811 3.105 -1.203
v  10.135 -3.07937e-16 5.029
v  8.867 1.08014e-16 -1.764
v  5.811 7.36625e-17 -1.203
v  7.584 9.3563e-17 -1.528
v  5.821 6.78454e-17 -1.108
v  0 0 0
v  5.643 6.57635e-17 -1.074
v  1.383 -4.06277e-16 6.635
v  6.892 -3.44371e-16 5.624
v  7.94 2.874 -6.733
v  8.867 2.874 -1.764
v  5.811 3.425 -1.203
v  5.265 3.354 -6.304
v  5.265 3.86009e-16 -6.304
v  7.94 4.12277e-16 -6.733

# 0 UV coordinates

# 30 vertex normals
vn 0 1 0
vn 0.983021 0 -0.183493
vn -0.180909 0 -0.9835
vn -0.180301 0.000259616 -0.983611
vn -0.180556 -0 -0.983565
vn -1.70783e-21 -1 -6.12403e-17
vn -0.187619 0 -0.982242
vn -0.186968 3.86998e-05 -0.982366
vn -0.186988 6.01523e-17 -0.982362
vn 0 -1 -6.12656e-17
vn -0.994505 0 0.104687
vn -0.97896 -1.24947e-17 0.204054
vn -0.97896 0 0.204054
vn 0.18046 0 0.983582
vn 0.180503 -0 0.983574
vn -5.57986e-24 -1 -6.12323e-17
vn -4.71312e-24 -1 -6.12323e-17
vn 0.171407 0.984681 -0.031977
vn 0.171851 0.984605 -0.0319433
vn 0.171543 0.984655 -0.0320668
vn -0.99432 0 0.10643
vn -0.99432 0 0.10643
vn 0.180301 -0 0.983612
vn 0.180852 -0.000325288 0.98351
vn 0.180556 0 0.983565
vn 1.70783e-21 1 6.12403e-17
vn 0.98304 0 -0.183393
vn -0.15835 0 -0.987383
vn -0.15835 0 -0.987383
vn 8.58207e-24 -1 -6.12323e-17

# Mesh 'defaultobject' with 48 faces
g defaultobject
usemtl DefaultMaterial
f  1//1 2//1 3//1
f  2//1 1//1 4//1
f  2//1 4//1 5//1
f  5//1 4//1 6//1
f  6//1 4//1 7//1
f  7//1 4//1 8//1
f  6//1 9//1 5//1
f  10//2 7//2 8//2
f  7//2 10//2 11//2
f  11//3 6//3 7//3
f  6//4 11//4 9//4
f  9//5 11//5 12//5
f  12//6 11//6 13//6
f  14//7 2//7 5//7
f  2//8 14//8 3//8
f  3//9 14//9 15//9
f  15//10 14//10 16//10
f  12//11 5//11 9//11
f  5//11 12//11 14//11
f  15//12 1//12 3//12
f  1//12 15//12 17//13
f  4//14 10//14 8//14
f  10//14 4//14 18//14
f  18//15 4//15 1//15
f  18//15 1//15 17//15
f  15//10 18//16 17//16
f  18//16 15//10 16//10
f  18//16 16//10 10//17
f  10//17 16//10 14//10
f  10//17 14//10 12//6
f  10//17 12//6 13//6
f  10//17 13//6 11//6
f  19//18 6//18 20//18
f  6//19 19//19 21//19
f  21//20 19//20 22//20
f  22//21 12//21 21//21
f  12//21 22//21 23//22
f  12//23 6//23 21//23
f  6//24 12//24 20//24
f  20//25 12//25 11//25
f  11//26 12//26 13//26
f  11//27 19//27 20//27
f  19//27 11//27 24//27
f  19//28 23//28 22//28
f  23//28 19//28 24//29
f  24//30 12//6 23//30
f  12//6 24//30 11//6
f  12//6 11//6 13//6

