# {"id":"ID_39337","idOriginal":"ID_39337","origin":[14.280522992057666,48.2462191539697],"elevation":266.334}
# Longitude: 14.280522992057666
# Latitude: 48.2462191539697
# Elevation: 266.334

# File produced by Open Asset Import Library (http://www.assimp.sf.net)
# (assimp v3.1.0)

mtllib ID_39337.obj.mtl

# 11 vertex positions
v  2.336 2.64 -1.17
v  7.363 2.211 3.029
v  4.673 2.211 -2.341
v  3.856 2.64 1.863
v  2.689 2.211 5.37
v  0 2.212 1.35446e-16
v  4.673 1.43345e-16 -2.341
v  2.336 7.16418e-17 -1.17
v  0 0 0
v  2.689 -3.28818e-16 5.37
v  7.363 -1.85473e-16 3.029

# 0 UV coordinates

# 15 vertex normals
vn 0.1448 0.986799 -0.0725349
vn 0.144845 0.986788 -0.0725897
vn 0.0725504 0.98679 0.144853
vn -0.144531 0.986846 0.0724322
vn -0.144607 0.986823 0.072595
vn -0.447979 0 -0.894044
vn -0.447979 -0 -0.894044
vn -0.447826 -0 -0.894121
vn -0.447826 5.47491e-17 -0.894121
vn -0.894161 -2.74166e-17 0.447746
vn -0.894161 0 0.447746
vn 0.447826 -0 0.894121
vn 0.894094 0 -0.447879
vn 0 -1 -6.12323e-17
vn 1.34901e-23 -1 -6.12323e-17

# Mesh 'defaultobject' with 18 faces
g defaultobject
usemtl DefaultMaterial
f  1//1 2//1 3//1
f  2//2 1//2 4//2
f  4//3 5//3 2//3
f  6//4 4//4 1//4
f  4//5 6//5 5//5
f  7//6 1//6 3//6
f  1//6 7//6 8//7
f  1//8 8//8 6//8
f  6//8 8//8 9//9
f  9//10 5//10 6//10
f  5//10 9//10 10//11
f  10//12 2//12 5//12
f  2//12 10//12 11//12
f  11//13 3//13 2//13
f  3//13 11//13 7//13
f  8//14 10//14 9//14
f  10//14 8//14 7//15
f  10//14 7//15 11//14

