# {"id":"ID_32115","idOriginal":"ID_32115","origin":[14.314780641853682,48.26661710138488],"elevation":258.68,"wof":[{"Id":85898429,"Name":"Kleinmünchen","Placetype":"neighbourhood","Offset":-1},{"Id":85681677,"Name":"Oberösterreich","Placetype":"region","Offset":-1},{"Id":85632785,"Name":"Austria","Placetype":"country","Offset":-1},{"Id":102049853,"Name":"Linz","Placetype":"county","Offset":-1},{"Id":101748071,"Name":"Linz","Placetype":"locality","Offset":-1}]}

# Attribution: City of Linz <http://geo.data.linz.gv.at/katalog/geodata/3d_geo_daten_lod2/>
# Longitude: 14.314780641853682
# Latitude: 48.26661710138488
# Elevation: 258.68

# File produced by Open Asset Import Library (http://www.assimp.sf.net)
# (assimp v3.1.0)


# 24 vertex positions
v  1.141 3.5 3.74
v  9.099 2.693 5.075
v  8.075 3.5 1.626
v  2.282 2.622 7.481
v  9.96 2.622 5.141
v  9.301 2.622 5.342
v  8.256 2.622 5.661
v  9.21 2.692 5.045
v  9.876 2.687 4.866
v  0 2.623 1.60612e-16
v  7.352 2.93 -0.81
v  6.952 2.622 -2.121
v  0 0 0
v  6.952 1.29874e-16 -2.121
v  9.876 -2.97957e-16 4.866
v  9.099 -3.10754e-16 5.075
v  9.21 -3.08917e-16 5.045
v  1.141 -2.29009e-16 3.74
v  2.282 -4.58079e-16 7.481
v  8.256 -3.46636e-16 5.661
v  9.301 -3.27103e-16 5.342
v  9.96 -3.14795e-16 5.141
v  8.075 -9.95638e-17 1.626
v  7.352 4.95982e-17 -0.81

# 0 UV coordinates

# 40 vertex normals
vn 0.0638277 0.975754 0.209357
vn 0.0637933 0.975717 0.209541
vn 0.0642687 0.975397 0.210878
vn 0 1 0
vn 0.0640297 0.975389 0.210989
vn 0.0646607 0.976266 0.206699
vn -0.0638491 0.975671 -0.209738
vn -0.0638126 0.975751 -0.209377
vn -0.0638215 0.975759 -0.209337
vn -0.291813 0 -0.956475
vn -0.291813 0 -0.956475
vn -0.259557 0 -0.965728
vn -0.26091 -0.000358865 -0.965363
vn -0.25975 -0 -0.965676
vn -1.30608e-20 1 6.11851e-17
vn -0.956479 -1.78678e-17 0.291803
vn -0.956479 0 0.291803
vn -0.9565 0 0.291731
vn -0.9565 0 0.291731
vn 0.291429 -0 0.956592
vn 0.291963 0 0.95643
vn 0.291739 0 0.956498
vn 0.956379 0 -0.292129
vn 0.956379 0 -0.292129
vn 0.958641 0 -0.284618
vn 0.958641 0 -0.284618
vn 0.958667 0 -0.28453
vn 0.958667 0 -0.28453
vn 0.95647 0 -0.291829
vn 0.95647 0 -0.291829
vn -8.55954e-23 -1 -6.12325e-17
vn 4.82961e-23 -1 -6.12323e-17
vn -2.43723e-24 -1 -6.12323e-17
vn -3.38102e-23 -1 -6.12323e-17
vn -3.39591e-23 -1 -6.12323e-17
vn 4.33318e-24 -1 -6.12323e-17
vn -8.65737e-24 -1 -6.12323e-17
vn 5.31352e-24 -1 -6.12323e-17
vn 1.48987e-23 -1 -6.12323e-17
vn -1.86272e-24 -1 -6.12323e-17

# Mesh 'defaultobject' with 44 faces
g defaultobject
usemtl DefaultMaterial
f  1//1 2//1 3//1
f  2//2 1//2 4//2
f  2//3 4//3 5//3
f  5//4 4//4 6//4
f  6//4 4//4 7//4
f  8//5 5//5 9//5
f  5//6 8//6 2//6
f  10//7 11//7 12//7
f  11//8 10//8 3//8
f  3//9 10//9 1//9
f  12//10 13//10 10//10
f  13//10 12//10 14//11
f  15//12 8//12 9//12
f  8//13 15//13 2//13
f  2//14 15//14 16//14
f  16//15 15//15 17//15
f  13//16 1//16 10//16
f  1//16 13//16 18//17
f  1//18 18//18 4//18
f  4//18 18//18 19//19
f  19//20 7//20 4//20
f  7//20 19//20 20//20
f  7//21 20//21 6//21
f  6//21 20//21 21//21
f  6//22 21//22 5//22
f  5//22 21//22 22//22
f  5//23 15//23 9//23
f  15//23 5//23 22//24
f  16//25 3//25 2//25
f  3//25 16//25 23//26
f  3//27 23//27 11//27
f  11//27 23//27 24//28
f  11//29 24//29 12//29
f  12//29 24//29 14//30
f  21//31 15//31 22//31
f  15//31 21//31 17//32
f  17//32 21//31 20//33
f  17//32 20//33 16//34
f  16//34 20//33 23//35
f  23//35 20//33 19//36
f  23//35 19//36 24//37
f  24//37 19//36 14//38
f  14//38 19//36 18//39
f  14//38 18//39 13//40

