# File produced by Open Asset Import Library (http://www.assimp.sf.net)
# (assimp v3.1.0)

mtllib ID_813.obj.mtl

# 48 vertex positions
v  51.261 5.569 -20.214
v  46.468 5.569 -10.692
v  53.116 5.569 -18.663
v  45.707 5.569 -24.856
v  38.401 5.569 -30.963
v  30.971 5.569 -37.174
v  24.327 5.569 -29.2
v  31.458 5.569 7.307
v  9.274 5.569 -11.131
v  22.179 5.569 18.434
v  0 5.569 3.41003e-16
v  14.753 5.569 12.262
v  7.447 5.569 6.19
v  0 0 0
v  22.179 -1.12876e-15 18.434
v  7.447 -3.79028e-16 6.19
v  14.753 -7.50831e-16 12.262
v  31.458 -4.47425e-16 7.307
v  46.468 6.54696e-16 -10.692
v  53.116 1.14278e-15 -18.663
v  51.261 1.23775e-15 -20.214
v  45.707 1.52199e-15 -24.856
v  38.401 1.89594e-15 -30.963
v  30.971 2.27625e-15 -37.174
v  24.327 1.78798e-15 -29.2
v  9.274 6.81577e-16 -11.131
v  16.716 5.569 -4.935
v  16.666 3.04815e-16 -4.978
v  16.666 5.569 -4.978
v  23.953 5.569 1.229
v  16.716 3.02182e-16 -4.935
v  23.953 -7.52545e-17 1.229
v  24.085 5.569 1.342
v  24.085 -8.21738e-17 1.342
v  24.164 5.569 1.246
v  39.086 5.569 -16.863
v  24.164 -7.62955e-17 1.246
v  39.086 1.03256e-15 -16.863
v  39.16 5.569 -16.953
v  39.16 1.03807e-15 -16.953
v  39.134 5.569 -16.975
v  31.818 5.569 -23.062
v  39.134 1.03942e-15 -16.975
v  31.818 1.41214e-15 -23.062
v  31.68 5.569 -23.177
v  31.68 1.41918e-15 -23.177
v  31.62 5.569 -23.104
v  31.62 1.41471e-15 -23.104

# 0 UV coordinates

# 46 vertex normals
vn 0 1 -0
vn -0.639219 -4.70892e-17 0.769025
vn -0.639169 -0.000112556 0.769066
vn -0.639186 -3.90163e-05 0.769053
vn -0.639191 0 0.769048
vn 8.43635e-20 1 6.10791e-17
vn 2.1684e-19 -1 -6.15827e-17
vn 0.768001 -0 0.640449
vn 0.767994 0 0.640457
vn 0.76796 0 0.640497
vn 0.641445 0 -0.767169
vn 0.641298 -8.31105e-05 -0.767292
vn 0.641445 0.000248728 -0.767169
vn 0.641298 0 -0.767292
vn 0.641341 0 -0.767256
vn 0.641362 0 -0.767238
vn -0.768269 0 -0.640128
vn -0.768315 -0 -0.640071
vn -0.768283 -0 -0.64011
vn -0.768283 3.91954e-17 -0.64011
vn 0.652047 0 -0.758179
vn 0.648415 5.66161e-05 -0.761287
vn 0.652025 -0.00816101 -0.758153
vn 0.648415 0 -0.761287
vn 0.650317 0 -0.759663
vn -0.77216 0 -0.635428
vn -0.771748 -1.44747e-05 -0.635928
vn -0.772157 0.00273189 -0.635425
vn -0.771748 0 -0.635928
vn -0.772414 0 -0.63512
vn -0.64595 0 0.76338
vn -0.639585 5.08159e-05 0.76872
vn -0.645885 -0.0141975 0.763303
vn -0.639585 0 0.768721
vn -0.640182 0 0.768223
vn 0.771372 -0 0.636384
vn 0.772543 0 0.634962
vn 6.03736e-24 -1 -6.12323e-17
vn 0 -1 -6.12323e-17
vn -9.98874e-24 -1 -6.12323e-17
vn 5.00965e-24 -1 -6.12323e-17
vn 1.13119e-23 -1 -6.12324e-17
vn -3.37096e-23 -1 -6.12323e-17
vn -1.71404e-23 -1 -6.12323e-17
vn 4.22552e-24 -1 -6.12323e-17
vn -7.89857e-20 -1 -6.11349e-17

# Mesh 'defaultobject' with 70 faces
g defaultobject
usemtl DefaultMaterial
f  1//1 2//1 3//1
f  2//1 1//1 4//1
f  2//1 4//1 5//1
f  2//1 5//1 6//1
f  2//1 6//1 7//1
f  2//1 7//1 8//1
f  8//1 7//1 9//1
f  8//1 9//1 10//1
f  10//1 9//1 11//1
f  10//1 11//1 12//1
f  12//1 11//1 13//1
f  14//2 13//2 11//2
f  13//3 14//3 12//3
f  12//4 14//4 10//4
f  10//5 14//5 15//5
f  15//6 14//6 16//6
f  15//7 16//7 17//7
f  15//8 8//8 10//8
f  8//8 15//8 18//8
f  8//9 18//9 2//9
f  2//9 18//9 19//9
f  2//10 19//10 3//10
f  3//10 19//10 20//10
f  20//11 1//11 3//11
f  1//12 20//12 4//12
f  4//13 20//13 21//13
f  4//14 21//14 22//14
f  4//15 22//15 5//15
f  5//15 22//15 23//15
f  5//16 23//16 6//16
f  6//16 23//16 24//16
f  24//17 7//17 6//17
f  7//17 24//17 25//17
f  7//18 25//18 9//18
f  9//18 25//18 26//18
f  9//19 26//19 11//19
f  11//19 26//19 14//20
f  27//21 28//21 29//21
f  28//22 27//22 30//22
f  28//23 30//23 31//23
f  31//24 30//24 32//24
f  32//25 30//25 33//25
f  32//25 33//25 34//25
f  35//26 34//26 33//26
f  34//27 35//27 36//27
f  34//28 36//28 37//28
f  37//29 36//29 38//29
f  38//30 36//30 39//30
f  38//30 39//30 40//30
f  41//31 40//31 39//31
f  40//32 41//32 42//32
f  40//33 42//33 43//33
f  43//34 42//34 44//34
f  44//35 42//35 45//35
f  44//35 45//35 46//35
f  28//36 47//36 29//36
f  47//36 28//36 48//36
f  47//37 48//37 45//37
f  45//37 48//37 46//37
f  26//38 16//7 14//38
f  16//7 26//38 17//7
f  17//7 26//38 15//7
f  15//7 26//38 18//39
f  18//39 26//38 25//40
f  18//39 25//40 19//41
f  19//41 25//40 24//42
f  19//41 24//42 23//43
f  19//41 23//43 22//44
f  19//41 22//44 20//45
f  20//45 22//44 21//46

