# {"id":"ID_59929","idOriginal":"ID_59929","origin":[14.27681358087773,48.25185112014421],"elevation":267.459}
# Longitude: 14.27681358087773
# Latitude: 48.25185112014421
# Elevation: 267.459

# File produced by Open Asset Import Library (http://www.assimp.sf.net)
# (assimp v3.1.0)

mtllib ID_59929.obj.mtl

# 6 vertex positions
v  0 2.931 1.79472e-16
v  1.521 2.931 3.005
v  2.892 2.931 2.368
v  0 0 0
v  1.521 -1.84003e-16 3.005
v  2.892 -1.44998e-16 2.368

# 0 UV coordinates

# 7 vertex normals
vn 0 1 0
vn -0.892219 -2.76527e-17 0.451602
vn -0.892219 0 0.451602
vn 0.421364 -0 0.906892
vn 0.633529 0 -0.773719
vn 0.633529 4.73766e-17 -0.773719
vn 1.30041e-24 -1 -6.12323e-17

# Mesh 'defaultobject' with 8 faces
g defaultobject
usemtl DefaultMaterial
f  1//1 2//1 3//1
f  4//2 2//2 1//2
f  2//2 4//2 5//3
f  5//4 3//4 2//4
f  3//4 5//4 6//4
f  6//5 1//5 3//5
f  1//5 6//5 4//6
f  6//7 5//7 4//7

