# {"id":"ID_10866","idOriginal":"ID_10866","origin":[14.365239825161936,48.243741024123466],"elevation":254.864,"wof":[{"Id":102049853,"Name":"Linz","Placetype":"county","Offset":-1},{"Id":85632785,"Name":"Austria","Placetype":"country","Offset":-1},{"Id":85681677,"Name":"Oberösterreich","Placetype":"region","Offset":-1},{"Id":85898441,"Name":"Posch","Placetype":"neighbourhood","Offset":-1},{"Id":101748071,"Name":"Linz","Placetype":"locality","Offset":-1}]}

# Attribution: City of Linz <http://geo.data.linz.gv.at/katalog/geodata/3d_geo_daten_lod2/>
# Longitude: 14.365239825161936
# Latitude: 48.243741024123466
# Elevation: 254.864

# File produced by Open Asset Import Library (http://www.assimp.sf.net)
# (assimp v3.1.0)


# 69 vertex positions
v  16.857 5.852 -5.005
v  19.259 3.921 -10.802
v  17.865 4.542 -9.887
v  23.462 3.921 -4.396
v  22.589 4.311 -3.821
v  7.101 5.852 1.427
v  2.696 3.932 -1.849
v  0.072 3.954 -0.049
v  5.949 3.884 -4.147
v  11.066 3.884 -7.521
v  8.82 5.852 0.294
v  12.027 4.536 -6.057
v  14.051 5.852 -3.155
v  12.111 4.536 -6.112
v  2.623 3.884 -1.955
v  5.022 3.921 7.768
v  0 3.921 2.40092e-16
v  5.887 4.305 7.209
v  18.135 4.313 -0.892
v  17.366 4.834 -2.062
v  15.556 4.831 -0.862
v  15.475 4.831 -0.808
v  11.63 3.926 4.641
v  16.809 3.936 1.193
v  9.229 3.921 6.239
v  8.675 4.293 5.407
v  23.462 2.69177e-16 -4.396
v  22.589 2.33969e-16 -3.821
v  18.135 5.46192e-17 -0.892
v  5.022 -4.75653e-16 7.768
v  8.675 -3.31083e-16 5.407
v  5.887 -4.41424e-16 7.209
v  9.229 -3.82029e-16 6.239
v  11.63 -2.84179e-16 4.641
v  16.809 -7.30502e-17 1.193
v  15.475 4.94757e-17 -0.808
v  17.366 1.26261e-16 -2.062
v  15.556 5.27823e-17 -0.862
v  19.259 6.61432e-16 -10.802
v  12.027 3.70884e-16 -6.057
v  11.066 4.60528e-16 -7.521
v  17.865 6.05404e-16 -9.887
v  12.111 3.74252e-16 -6.112
v  5.949 2.53931e-16 -4.147
v  2.623 1.19709e-16 -1.955
v  2.696 1.13219e-16 -1.849
v  0 0 0
v  0.072 3.00038e-18 -0.049
v  3.512 3.515 -8.005
v  10.474 4.969 -8.423
v  8.571 3.515 -11.324
v  5.416 4.969 -5.105
v  5.416 3.12591e-16 -5.105
v  3.512 4.90165e-16 -8.005
v  10.474 5.1576e-16 -8.423
v  8.571 6.93395e-16 -11.324
v  5.949 5.711 -4.147
v  5.471 5.007 -5.021
v  5.41 5.007 -4.981
v  10.474 4.941 -8.423
v  5.416 4.936 -5.105
v  11.066 5.706 -7.521
v  5.471 3.07448e-16 -5.021
v  5.41 3.04998e-16 -4.981
v  2.057 3.473 -2.781
v  5.949 3.473 -4.147
v  5.41 3.473 -4.981
v  2.623 3.473 -1.955
v  2.057 1.70287e-16 -2.781

# 0 UV coordinates

# 107 vertex normals
vn 0.291986 0.937122 -0.191173
vn 0.291636 0.937196 -0.191343
vn 0.291674 0.936919 -0.192638
vn -0.191915 0.937207 -0.291224
vn -0.191907 0.937205 -0.291235
vn -0.192014 0.937192 -0.291208
vn -0.191911 0.937225 -0.29117
vn -0.192166 0.937155 -0.291225
vn -0.191956 0.937227 -0.291134
vn -0.191039 0.937217 -0.291769
vn -0.191988 0.937216 -0.291146
vn -0.191936 0.937235 -0.29112
vn -0.192325 0.936937 -0.291822
vn -0.297631 0.935089 0.192418
vn -0.292841 0.937216 0.189394
vn -0.293815 0.93699 0.189006
vn 0.191847 0.937262 0.291093
vn 0.19234 0.937214 0.290922
vn 0.191452 0.937335 0.291117
vn 0.192027 0.937174 0.291258
vn 0.193519 0.937171 0.290277
vn 0.192037 0.937201 0.291163
vn 0.192055 0.937194 0.291175
vn 0.191969 0.937218 0.291154
vn 0.19187 0.937218 0.291218
vn 0.191938 0.937207 0.29121
vn 0.192049 0.9372 0.291158
vn 0.192184 0.93719 0.291101
vn 0.550056 0 0.835128
vn 0.549451 -0.000175585 0.835526
vn 0.550056 0.000894905 0.835127
vn 0.549451 0 0.835526
vn 0.542826 -0.000185236 0.839845
vn 0.542813 0 0.839854
vn 0.542813 0 0.839854
vn 3.33067e-19 1 6.17284e-17
vn 0.55406 -0 0.832477
vn 0.554181 -0.000106828 0.832396
vn 0.55406 0.000229512 0.832477
vn 0.554181 0 0.832396
vn 0.554703 -0 0.832049
vn 0.552573 5.15341e-05 0.833464
vn 0.552665 0 0.833404
vn -1.22433e-20 -1 -6.12655e-17
vn 0.836104 0 -0.548571
vn 0.835982 0 -0.548756
vn 0.83205 0 -0.5547
vn 0.83205 0 -0.5547
vn -0.548735 0 -0.835997
vn -0.548549 8.17423e-05 -0.836119
vn -0.548735 -0.000337912 -0.835996
vn -0.548549 -0 -0.836119
vn -0.547786 -0 -0.836618
vn -0.550476 0 -0.834851
vn -0.55029 -0 -0.834974
vn -0.565675 0 -0.824628
vn -0.563336 0.00227873 -0.826225
vn -0.565594 5.04973e-17 -0.824684
vn 0 -1 -6.12328e-17
vn -0.823588 0 0.567188
vn -0.839785 -3.32442e-17 0.542919
vn -0.839785 0 0.542919
vn -0.832358 0 0.554238
vn -0.835658 0 0.54925
vn -0.835658 0 0.54925
vn -7.39813e-24 -1 -6.12323e-17
vn -2.22281e-23 -1 -6.12323e-17
vn 1.72402e-24 -1 -6.12323e-17
vn -1.31466e-24 -1 -6.12323e-17
vn -1.33841e-24 -1 -6.12323e-17
vn 8.22644e-24 -1 -6.12323e-17
vn 1.72229e-23 -1 -6.12325e-17
vn -1.00409e-24 -1 -6.12323e-17
vn 0 -1 -6.12323e-17
vn 0 -1 -6.12322e-17
vn 3.54652e-24 -1 -6.12323e-17
vn -1.37724e-23 -1 -6.12324e-17
vn -0.21202 0.922283 -0.323173
vn -0.21202 0.922272 -0.323206
vn -0.835932 0 0.548833
vn -0.835932 0 0.548833
vn 0.548505 -0 0.836147
vn 0.836151 0 -0.548499
vn 0.836151 0 -0.548499
vn -0.548545 0 -0.836121
vn -1.00898e-23 -1 -6.12323e-17
vn -0.317147 0.81578 -0.483653
vn -0.317254 0.816483 -0.482396
vn -0.317843 0.815749 -0.483248
vn -0.317841 0.815751 -0.483246
vn 0.836021 0 -0.548697
vn 0.836021 0 -0.548697
vn -0.548505 0 -0.836147
vn -0.548505 -0 -0.836147
vn -0.548354 0 -0.836246
vn -0.836618 0 0.547788
vn -0.836617 0 0.547788
vn -0.839867 0 0.542792
vn -0.839867 0 0.542792
vn 0.550476 -0 0.834851
vn 1.34182e-22 -1 -6.12324e-17
vn 0 1 0
vn -0.824915 0 0.565257
vn 0.55029 -0 0.834974
vn 0.839867 0 -0.542792
vn -0.548586 0 -0.836094
vn 1.31862e-23 -1 -6.12323e-17

# Mesh 'defaultobject' with 136 faces
g defaultobject
usemtl DefaultMaterial
f  1//1 2//1 3//1
f  2//2 1//2 4//2
f  4//3 1//3 5//3
f  6//4 7//4 8//4
f  7//5 6//5 9//5
f  9//6 6//6 10//6
f  10//7 6//7 11//7
f  10//8 11//8 12//8
f  12//9 11//9 13//9
f  12//10 13//10 14//10
f  14//11 13//11 3//11
f  3//12 13//12 1//12
f  9//13 15//13 7//13
f  16//14 8//14 17//14
f  8//15 16//15 6//15
f  6//16 16//16 18//16
f  1//17 19//17 5//17
f  19//18 1//18 20//18
f  20//19 1//19 21//19
f  21//20 1//20 13//20
f  21//21 13//21 22//21
f  22//22 23//22 24//22
f  23//23 22//23 13//23
f  23//24 13//24 11//24
f  23//25 11//25 25//25
f  25//26 11//26 6//26
f  25//27 6//27 26//27
f  26//28 6//28 18//28
f  5//29 27//29 4//29
f  27//30 5//30 19//30
f  27//31 19//31 28//31
f  28//32 19//32 29//32
f  16//33 26//33 18//33
f  26//34 16//34 30//34
f  26//34 30//34 31//35
f  31//36 30//36 32//36
f  33//37 23//37 25//37
f  23//38 33//38 24//38
f  24//39 33//39 34//39
f  24//40 34//40 35//40
f  36//41 21//41 22//41
f  21//42 36//42 20//42
f  20//43 36//43 37//43
f  37//44 36//44 38//44
f  27//45 2//45 4//45
f  2//45 27//45 39//45
f  40//46 10//46 12//46
f  10//46 40//46 41//46
f  24//47 36//47 22//47
f  36//47 24//47 35//48
f  39//49 3//49 2//49
f  3//50 39//50 14//50
f  14//51 39//51 42//51
f  14//52 42//52 43//52
f  14//53 43//53 12//53
f  12//53 43//53 40//53
f  41//54 9//54 10//54
f  9//54 41//54 44//54
f  9//55 44//55 15//55
f  15//55 44//55 45//55
f  46//56 8//56 7//56
f  8//57 46//57 17//57
f  17//58 46//58 47//58
f  47//59 46//59 48//59
f  15//60 46//60 7//60
f  46//60 15//60 45//60
f  47//61 16//61 17//61
f  16//61 47//61 30//62
f  31//63 25//63 26//63
f  25//63 31//63 33//63
f  37//64 19//64 20//64
f  19//64 37//64 29//65
f  41//66 40//66 44//66
f  47//59 32//67 30//67
f  32//67 47//59 31//68
f  31//68 47//59 35//69
f  35//69 47//59 36//44
f  36//44 47//59 38//44
f  38//44 47//59 37//44
f  37//44 47//59 28//70
f  28//70 47//59 27//71
f  27//71 47//59 40//66
f  27//71 40//66 43//72
f  27//71 43//72 42//73
f  27//71 42//73 39//74
f  40//66 47//59 48//59
f  40//66 48//59 46//59
f  40//66 46//59 45//75
f  40//66 45//75 44//66
f  28//70 29//76 37//44
f  31//68 34//77 33//77
f  34//77 31//68 35//69
f  49//78 50//78 51//78
f  50//79 49//79 52//79
f  49//80 53//80 52//80
f  53//80 49//80 54//81
f  53//82 50//82 52//82
f  50//82 53//82 55//82
f  55//83 51//83 50//83
f  51//83 55//83 56//84
f  56//85 49//85 51//85
f  49//85 56//85 54//85
f  56//74 53//74 54//74
f  53//74 56//74 55//86
f  57//87 58//87 59//87
f  58//88 60//88 61//88
f  60//89 58//89 57//89
f  60//89 57//89 62//90
f  41//91 60//91 62//91
f  60//91 41//91 55//92
f  55//93 61//93 60//93
f  61//93 55//93 53//94
f  63//95 59//95 58//95
f  59//95 63//95 64//95
f  61//96 63//96 58//96
f  63//96 61//96 53//97
f  59//98 44//98 57//98
f  44//98 59//98 64//99
f  44//100 62//100 57//100
f  62//100 44//100 41//100
f  64//101 63//101 44//66
f  44//66 55//86 41//66
f  55//86 44//66 63//101
f  55//86 63//101 53//74
f  65//102 66//102 67//102
f  66//102 65//102 68//102
f  69//103 68//103 65//103
f  68//103 69//103 45//103
f  45//104 66//104 68//104
f  66//104 45//104 44//104
f  44//105 67//105 66//105
f  67//105 44//105 64//105
f  64//106 65//106 67//106
f  65//106 64//106 69//106
f  64//101 45//75 69//107
f  45//75 64//101 44//66

