# {"id":"ID_17421","idOriginal":"ID_17421","origin":[14.273900462037503,48.28974968730182],"elevation":325.896,"wof":[{"Id":102049853,"Name":"Linz","Placetype":"county","Offset":-1},{"Id":101748071,"Name":"Linz","Placetype":"locality","Offset":-1},{"Id":85632785,"Name":"Austria","Placetype":"country","Offset":-1},{"Id":85681677,"Name":"Oberösterreich","Placetype":"region","Offset":-1},{"Id":85898459,"Name":"Wegscheid","Placetype":"neighbourhood","Offset":-1}]}

# Attribution: City of Linz <http://geo.data.linz.gv.at/katalog/geodata/3d_geo_daten_lod2/>
# Longitude: 14.273900462037503
# Latitude: 48.28974968730182
# Elevation: 325.896

# File produced by Open Asset Import Library (http://www.assimp.sf.net)
# (assimp v3.1.0)


# 28 vertex positions
v  16.639 12.79 -8.336
v  0.813 18.74 -5.316
v  15.88 18.74 -3.023
v  10.057 12.776 -9.351
v  8.239 12.771 -9.632
v  5.347 12.764 -10.078
v  1.627 12.767 -10.642
v  0.052 13.154 -0.336
v  0 12.777 7.82366e-16
v  6.765 12.812 0.998
v  15.163 13.115 1.999
v  8.672 12.822 1.279
v  9.879 12.828 1.457
v  15.12 12.777 2.301
v  1.627 6.51635e-16 -10.642
v  0.813 3.25511e-16 -5.316
v  0 0 0
v  0.052 2.05741e-17 -0.336
v  15.12 -1.40896e-16 2.301
v  6.765 -6.11099e-17 0.998
v  8.672 -7.83162e-17 1.279
v  9.879 -8.92155e-17 1.457
v  16.639 5.10433e-16 -8.336
v  15.163 -1.22403e-16 1.999
v  15.88 1.85105e-16 -3.023
v  10.057 5.72584e-16 -9.351
v  8.239 5.8979e-16 -9.632
v  5.347 6.171e-16 -10.078

# 0 UV coordinates

# 43 vertex normals
vn 0.111723 0.669772 -0.734114
vn 0.111769 0.669854 -0.734032
vn 0.111634 0.669734 -0.734162
vn 0.111604 0.669713 -0.734186
vn 0.111835 0.669798 -0.734073
vn -0.111728 0.669729 0.734153
vn -0.111726 0.669725 0.734156
vn -0.111762 0.669788 0.734094
vn -0.111674 0.669709 0.734179
vn -0.111647 0.670082 0.733843
vn -0.111718 0.668795 0.735005
vn -0.111672 0.669975 0.733937
vn -0.988523 -1.05211e-05 -0.151069
vn -0.988523 0 -0.15107
vn -0.98837 0.000798781 -0.152066
vn -0.988521 -4.08814e-05 -0.151081
vn -0.988507 9.25691e-18 -0.151177
vn 0 -1 -6.1232e-17
vn -0.145944 -6.05767e-17 0.989293
vn -0.145777 -9.01817e-05 0.989317
vn -0.145895 -8.79297e-06 0.9893
vn -0.158884 0.0102279 0.987244
vn -0.15045 0 0.988618
vn 0 -1 -6.12323e-17
vn 0 -1 -6.12325e-17
vn 0 -1 -6.12327e-17
vn 0.989955 3.76981e-05 0.14138
vn 0.989957 0.000370659 0.14137
vn 0.989957 0 0.141369
vn 0 -1 -6.12591e-17
vn -1.86084e-19 -1 -6.12681e-17
vn 0.152407 0 -0.988318
vn 0.152751 0.000181601 -0.988265
vn 0.152417 -4.35563e-05 -0.988316
vn 0.149898 -0.0023244 -0.988699
vn 0.15183 0 -0.988407
vn -2.6881e-21 1 6.12494e-17
vn -1.21463e-21 1 6.12394e-17
vn 1.65247e-21 1 6.12207e-17
vn -1.48347e-23 -1 -6.12323e-17
vn -6.00793e-24 -1 -6.12323e-17
vn 2.1827e-23 -1 -6.12323e-17
vn -5.22297e-24 -1 -6.12323e-17

# Mesh 'defaultobject' with 52 faces
g defaultobject
usemtl DefaultMaterial
f  1//1 2//1 3//1
f  2//2 1//2 4//2
f  2//3 4//3 5//3
f  2//4 5//4 6//4
f  2//5 6//5 7//5
f  8//6 3//6 2//6
f  3//6 8//6 9//7
f  3//8 9//8 10//8
f  3//9 10//9 11//9
f  11//10 10//10 12//10
f  11//11 12//11 13//11
f  11//12 13//12 14//12
f  7//13 8//13 2//13
f  8//14 7//14 15//14
f  8//15 15//15 9//15
f  9//16 15//16 16//16
f  9//17 16//17 17//17
f  17//18 16//18 18//18
f  17//19 10//19 9//19
f  10//20 17//20 12//20
f  12//21 17//21 13//21
f  13//22 17//22 14//22
f  14//23 17//23 19//23
f  19//24 17//18 20//24
f  19//24 20//24 21//25
f  19//24 21//25 22//26
f  11//27 1//27 3//27
f  1//28 11//28 14//28
f  1//29 14//29 19//29
f  1//29 19//29 23//29
f  23//30 19//24 24//30
f  23//30 24//30 25//31
f  23//32 4//32 1//32
f  4//33 23//33 5//33
f  5//34 23//34 6//34
f  6//35 23//35 7//35
f  7//36 23//36 15//36
f  15//37 23//37 26//37
f  15//37 26//37 27//38
f  15//37 27//38 28//39
f  22//26 24//30 19//24
f  24//30 22//26 25//31
f  25//31 22//26 23//30
f  23//30 22//26 21//25
f  23//30 21//25 26//40
f  26//40 21//25 20//24
f  26//40 20//24 17//18
f  26//40 17//18 27//41
f  27//41 17//18 28//42
f  28//42 17//18 18//18
f  28//42 18//18 16//18
f  28//42 16//18 15//43

