# {"id":"ID_6845","idOriginal":"ID_6845","origin":[14.324989692413917,48.288329607571185],"elevation":252.9,"wof":[{"Id":85898459,"Name":"Wegscheid","Placetype":"neighbourhood","Offset":-1},{"Id":102049853,"Name":"Linz","Placetype":"county","Offset":-1},{"Id":85632785,"Name":"Austria","Placetype":"country","Offset":-1},{"Id":101748071,"Name":"Linz","Placetype":"locality","Offset":-1},{"Id":85681677,"Name":"Oberösterreich","Placetype":"region","Offset":-1}]}

# Attribution: City of Linz <http://geo.data.linz.gv.at/katalog/geodata/3d_geo_daten_lod2/>
# Longitude: 14.324989692413917
# Latitude: 48.288329607571185
# Elevation: 252.9

# File produced by Open Asset Import Library (http://www.assimp.sf.net)
# (assimp v3.1.0)


# 28 vertex positions
v  6.666 10.59 8.621
v  0.838 14.027 4.841
v  1.644 10.602 9.496
v  9.433 10.583 8.139
v  30.892 14.027 -0.497
v  11.032 10.58 7.86
v  26.145 10.543 5.227
v  30.056 10.534 4.546
v  31.813 10.602 4.138
v  29.968 10.594 -5.143
v  22.626 10.564 -3.88
v  20.682 10.556 -3.546
v  0.51 10.468 -0.087
v  0 10.466 6.40858e-16
v  0 0 0
v  1.644 -5.81462e-16 9.496
v  0.838 -2.96426e-16 4.841
v  6.666 -5.27884e-16 8.621
v  9.433 -4.9837e-16 8.139
v  11.032 -4.81286e-16 7.86
v  26.145 -3.20061e-16 5.227
v  30.056 -2.78362e-16 4.546
v  31.813 -2.53379e-16 4.138
v  29.968 3.14918e-16 -5.143
v  30.892 3.04325e-17 -0.497
v  22.626 2.37581e-16 -3.88
v  20.682 2.1713e-16 -3.546
v  0.51 5.32721e-18 -0.087

# 0 UV coordinates

# 49 vertex normals
vn 0.102627 0.809615 0.577919
vn 0.102706 0.809662 0.577841
vn 0.102648 0.809604 0.577931
vn 0.102217 0.810242 0.577113
vn 0.102669 0.809607 0.577924
vn 0.102476 0.809703 0.577823
vn 0.102848 0.809642 0.577843
vn -0.102635 0.809659 -0.577857
vn -0.102764 0.809431 -0.578153
vn -0.102617 0.80965 -0.577873
vn -0.102626 0.809637 -0.577889
vn -0.101773 0.809681 -0.577978
vn -0.985342 -2.84117e-05 0.170588
vn -0.985343 0 0.170588
vn -2.21491e-19 1 6.12422e-17
vn 0.171647 -0 0.985158
vn 0.171612 1.74294e-05 0.985165
vn 0.171887 -0.000191022 0.985117
vn 0.171636 3.85558e-05 0.985161
vn 0.171647 1.00789e-05 0.985158
vn 0.171612 7.79384e-05 0.985165
vn 0.171887 -0.000371149 0.985117
vn 0.171636 0 0.985161
vn 0.171543 0 0.985177
vn 0.226195 0 0.974082
vn 0.226195 0 0.974082
vn 0.980808 -0.000116332 -0.194978
vn 0.980808 0 -0.194978
vn 0.980808 0 -0.194978
vn 5.6086e-20 1 6.12179e-17
vn -0.169534 0 -0.985524
vn -0.16933 0.000145639 -0.985559
vn -0.16901 0.000435307 -0.985614
vn -0.169534 -0.00108094 -0.985524
vn -0.16933 -0.000637016 -0.985559
vn -0.169009 -0 -0.985615
vn -0.168159 -0 -0.98576
vn -0.168159 6.03604e-17 -0.98576
vn 1.08744e-23 -1 -6.12323e-17
vn -1.23925e-23 -1 -6.12323e-17
vn -1.11588e-23 -1 -6.12323e-17
vn -7.42406e-25 -1 -6.12323e-17
vn -2.88303e-24 -1 -6.12323e-17
vn 9.77767e-24 -1 -6.12323e-17
vn 0 -1 -6.12323e-17
vn 2.70741e-23 -1 -6.12324e-17
vn -1.56497e-23 -1 -6.12323e-17
vn 8.66042e-23 -1 -6.12323e-17
vn 1.30172e-24 -1 -6.12323e-17

# Mesh 'defaultobject' with 52 faces
g defaultobject
usemtl DefaultMaterial
f  1//1 2//1 3//1
f  2//2 1//2 4//2
f  2//3 4//3 5//3
f  5//4 4//4 6//4
f  5//5 6//5 7//5
f  5//6 7//6 8//6
f  5//7 8//7 9//7
f  5//8 10//8 2//8
f  11//9 2//9 10//9
f  12//10 2//10 11//10
f  13//11 2//11 12//11
f  14//12 2//12 13//12
f  14//13 3//13 2//13
f  3//14 14//14 15//14
f  3//14 15//14 16//14
f  16//15 15//15 17//15
f  16//16 1//16 3//16
f  1//17 16//17 4//17
f  4//18 16//18 6//18
f  6//19 16//19 7//19
f  7//20 16//20 18//20
f  7//21 18//21 19//21
f  7//22 19//22 20//22
f  7//23 20//23 21//23
f  7//24 21//24 8//24
f  8//24 21//24 22//24
f  8//25 23//25 9//25
f  23//25 8//25 22//26
f  9//27 10//27 5//27
f  10//28 9//28 23//28
f  10//28 23//28 24//29
f  24//30 23//30 25//30
f  24//31 11//31 10//31
f  11//32 24//32 12//32
f  12//33 24//33 13//33
f  13//34 24//34 26//34
f  13//35 26//35 27//35
f  13//36 27//36 28//36
f  13//37 28//37 14//37
f  14//37 28//37 15//38
f  22//39 25//39 23//39
f  25//39 22//39 24//40
f  24//40 22//39 21//41
f  24//40 21//41 26//42
f  26//42 21//41 20//43
f  26//42 20//43 27//44
f  27//44 20//43 28//45
f  28//45 20//43 19//46
f  28//45 19//46 18//47
f  28//45 18//47 16//45
f  28//45 16//45 17//48
f  28//45 17//48 15//49

