# {"id":"_9831","idOriginal":"_9831","origin":[14.261345000078471,48.31094750754906],"elevation":356.807,"wof":[{"Id":101748071,"Name":"Linz","Placetype":"locality","Offset":-1},{"Id":85681677,"Name":"Oberösterreich","Placetype":"region","Offset":-1},{"Id":85898453,"Name":"Urfahr","Placetype":"neighbourhood","Offset":-1},{"Id":102049853,"Name":"Linz","Placetype":"county","Offset":-1},{"Id":85632785,"Name":"Austria","Placetype":"country","Offset":-1}]}

# Attribution: City of Linz <http://geo.data.linz.gv.at/katalog/geodata/3d_geo_daten_lod2/>
# Longitude: 14.261345000078471
# Latitude: 48.31094750754906
# Elevation: 356.807

# File produced by Open Asset Import Library (http://www.assimp.sf.net)
# (assimp v3.1.0)


# 31 vertex positions
v  22.425 5.814 -7.249
v  12.806 6.695 -5.82
v  21.181 6.695 -3.436
v  22.76 5.538 -8.461
v  14.36 5.538 -10.852
v  2.688 6.695 -8.7
v  4.242 5.538 -13.732
v  11.156 5.516 -0.711
v  1.103 5.516 -3.572
v  11.185 5.537 -0.806
v  11.251 5.537 -0.787
v  19.661 5.54 1.594
v  20.802 6.427 -2.276
v  11.185 4.93533e-17 -0.806
v  11.156 4.35362e-17 -0.711
v  20.802 1.39365e-16 -2.276
v  19.661 -9.76044e-17 1.594
v  22.425 4.43873e-16 -7.249
v  21.181 2.10394e-16 -3.436
v  22.76 5.18087e-16 -8.461
v  11.251 4.81898e-17 -0.787
v  1.103 2.18722e-16 -3.572
v  14.36 6.64493e-16 -10.852
v  4.242 8.40843e-16 -13.732
v  2.688 5.32721e-16 -8.7
v  1.103 6.002 -3.572
v  10.077 4.78 2.864
v  11.156 6.001 -0.711
v  0 4.779 2.92629e-16
v  10.077 -1.75369e-16 2.864
v  0 0 0

# 0 UV coordinates

# 52 vertex normals
vn 0.0587781 0.976682 -0.206488
vn 0.0588318 0.976747 -0.206166
vn 0.0587573 0.976697 -0.206425
vn 0.058757 0.976697 -0.206425
vn 0.058757 0.976697 -0.206425
vn -0.0587403 0.976703 0.206402
vn -0.0526561 0.97834 0.200195
vn -0.0587945 0.976667 0.206556
vn -0.0594072 0.976671 0.20636
vn -0.0588228 0.976669 0.206539
vn -0.058798 0.976675 0.206517
vn -0.0587671 0.976691 0.206449
vn 0.956429 0 0.291965
vn 0.956429 0 0.291965
vn 0.95918 0 0.282797
vn 0.95918 0 0.282797
vn 0.950617 -0.000970577 0.310365
vn 0.950653 0 0.310257
vn 0.950653 0 0.310257
vn 5.07415e-20 1 6.12449e-17
vn 0.963859 -0 0.266414
vn 0.963859 0 0.266414
vn -0.276644 0 0.960973
vn -0.272408 -5.46315e-05 0.962182
vn -0.272441 0 0.962172
vn -1.00128e-20 1 6.12785e-17
vn -0.273723 0 0.961809
vn 0.273768 0 -0.961796
vn 0.273767 0 -0.961796
vn -0.955475 0 -0.295073
vn -0.955414 0.000161538 -0.295269
vn -0.955475 -0.000234397 -0.295073
vn -0.955404 -0 -0.295303
vn 0 -1 -6.12323e-17
vn -9.61962e-25 -1 -6.12323e-17
vn -1.87586e-24 -1 -6.12323e-17
vn 0 -1 -6.12323e-17
vn 3.75315e-25 -1 -6.12323e-17
vn -6.29344e-25 -1 -6.12323e-17
vn 1.53147e-24 -1 -6.12323e-17
vn 1.8611e-23 -1 -6.12323e-17
vn -0.08499 0.95047 0.298971
vn -0.0851093 0.950411 0.299126
vn -0.273385 0 0.961905
vn -0.273385 0 0.961905
vn 0.957346 0 0.288945
vn 0.957346 0 0.288944
vn 0.273723 0 -0.961809
vn 0.273723 0 -0.961809
vn -0.955484 0 -0.295044
vn -0.955484 1.80663e-17 -0.295044
vn -2.70417e-24 -1 -6.12323e-17

# Mesh 'defaultobject' with 58 faces
g defaultobject
usemtl DefaultMaterial
f  1//1 2//1 3//1
f  2//2 1//2 4//2
f  2//3 4//3 5//3
f  2//3 5//3 6//4
f  6//4 5//3 7//5
f  8//6 6//6 9//6
f  6//7 8//7 10//7
f  6//8 10//8 2//8
f  2//9 10//9 11//9
f  2//10 11//10 12//10
f  2//11 12//11 13//11
f  2//12 13//12 3//12
f  8//13 14//13 10//13
f  14//13 8//13 15//14
f  12//15 16//15 13//15
f  16//15 12//15 17//16
f  13//17 1//17 3//17
f  1//18 13//18 16//18
f  1//18 16//18 18//19
f  18//20 16//20 19//20
f  18//21 4//21 1//21
f  4//21 18//21 20//22
f  14//23 11//23 10//23
f  11//24 14//24 12//24
f  12//25 14//25 17//25
f  17//26 14//26 21//26
f  22//27 8//27 9//27
f  8//27 22//27 15//27
f  20//28 5//28 4//28
f  5//28 20//28 23//28
f  5//28 23//28 7//29
f  7//29 23//28 24//29
f  24//30 6//30 7//30
f  6//31 24//31 9//31
f  9//32 24//32 25//32
f  9//33 25//33 22//33
f  22//34 14//34 15//34
f  14//34 22//34 23//35
f  23//35 22//34 25//36
f  23//35 25//36 24//37
f  21//38 16//38 17//38
f  16//38 21//38 19//39
f  19//39 21//38 18//40
f  18//40 21//38 20//41
f  20//41 21//38 23//35
f  23//35 21//38 14//34
f  26//42 27//42 28//42
f  27//43 26//43 29//43
f  29//44 30//44 27//44
f  30//44 29//44 31//45
f  27//46 15//46 28//46
f  15//46 27//46 30//47
f  28//48 22//48 26//48
f  22//48 28//48 15//49
f  22//50 29//50 26//50
f  29//50 22//50 31//51
f  22//34 30//52 31//52
f  30//52 22//34 15//34

