# {"id":"ID_50241","idOriginal":"ID_50241","origin":[14.35258794026869,48.25270832235184],"elevation":252.805,"wof":[{"Id":102049853,"Name":"Linz","Placetype":"county","Offset":-1},{"Id":85632785,"Name":"Austria","Placetype":"country","Offset":-1},{"Id":85681677,"Name":"Oberösterreich","Placetype":"region","Offset":-1},{"Id":85898451,"Name":"Ufer","Placetype":"neighbourhood","Offset":-1},{"Id":101748071,"Name":"Linz","Placetype":"locality","Offset":-1}]}

# Attribution: City of Linz <http://geo.data.linz.gv.at/katalog/geodata/3d_geo_daten_lod2/>
# Longitude: 14.35258794026869
# Latitude: 48.25270832235184
# Elevation: 252.805

# File produced by Open Asset Import Library (http://www.assimp.sf.net)
# (assimp v3.1.0)


# 12 vertex positions
v  2.473 0.69 -0.246
v  0 0.69 4.22503e-17
v  2.719 0.69 2.231
v  1.786 0.69 2.323
v  0.699 0.69 7.049
v  2.239 0.69 6.896
v  2.719 -1.36609e-16 2.231
v  2.473 1.50632e-17 -0.246
v  2.239 -4.22258e-16 6.896
v  1.786 -1.42243e-16 2.323
v  0 0 0
v  0.699 -4.31627e-16 7.049

# 0 UV coordinates

# 13 vertex normals
vn 0 1 -0
vn 0.995105 0 -0.0988274
vn 0.995129 0 -0.0985772
vn -0.0989858 0 -0.995089
vn -0.0989858 6.09316e-17 -0.995089
vn -0.995119 -6.04235e-18 0.098679
vn -0.995119 0 0.098679
vn 0.0988638 -0 0.995101
vn 0.0981307 -0 0.995174
vn 0 -1 -6.12323e-17
vn 1.13523e-23 -1 -6.12323e-17
vn -9.65545e-24 -1 -6.12323e-17
vn -8.37448e-24 -1 -6.12323e-17

# Mesh 'defaultobject' with 20 faces
g defaultobject
usemtl DefaultMaterial
f  1//1 2//1 3//1
f  4//1 3//1 2//1
f  5//1 4//1 2//1
f  6//1 4//1 5//1
f  7//2 1//2 3//2
f  1//2 7//2 8//2
f  9//3 4//3 6//3
f  4//3 9//3 10//3
f  8//4 2//4 1//4
f  2//4 8//4 11//5
f  11//6 5//6 2//6
f  5//6 11//6 12//7
f  12//8 6//8 5//8
f  6//8 12//8 9//8
f  10//9 3//9 4//9
f  3//9 10//9 7//9
f  7//10 11//10 8//10
f  11//10 7//10 10//11
f  11//10 10//11 12//12
f  12//12 10//11 9//13

