# {"id":"ID_35971","idOriginal":"ID_35971","origin":[14.299027713093889,48.33253316663468],"elevation":262.709}
# Longitude: 14.299027713093889
# Latitude: 48.33253316663468
# Elevation: 262.709

# File produced by Open Asset Import Library (http://www.assimp.sf.net)
# (assimp v3.1.0)

mtllib ID_35971.obj.mtl

# 26 vertex positions
v  0 2.95 1.80635e-16
v  1.225 2.95 0.129
v  1.221 2.95 -0.07
v  1.234 2.95 0.571
v  0.007 2.95 0.18
v  0.024 2.95 0.633
v  1.236 2.95 0.656
v  7.155 2.95 0.388
v  7.21 2.95 1.876
v  7.273 2.95 0.383
v  0.236 2.95 6.35
v  1.187 2.95 6.3
v  7.037 2.95 6
v  1.221 4.28626e-18 -0.07
v  0 0 0
v  7.273 -2.3452e-17 0.383
v  1.236 -4.01684e-17 0.656
v  7.155 -2.37581e-17 0.388
v  0.024 -3.87601e-17 0.633
v  0.236 -3.88825e-16 6.35
v  0.007 -1.10218e-17 0.18
v  7.037 -3.67394e-16 6
v  1.187 -3.85764e-16 6.3
v  7.21 -1.14872e-16 1.876
v  1.234 -3.49637e-17 0.571
v  1.225 -7.89897e-18 0.129

# 0 UV coordinates

# 29 vertex normals
vn -0 1 0
vn -0.0572361 0 -0.998361
vn -0.0572361 6.1132e-17 -0.998361
vn -0.0423353 0 -0.999103
vn -0.0452316 -0.000116067 -0.998977
vn -0.045175 -0 -0.998979
vn 2.03869e-22 1 6.12358e-17
vn -0.999245 -2.37946e-18 0.0388595
vn -0.999297 8.30036e-05 0.0375012
vn -0.999313 0.000178471 0.0370569
vn -0.999281 -0.00161185 0.0378874
vn -0.999313 0 0.0370569
vn 0 -1 -6.1233e-17
vn 0.0525034 -0 0.998621
vn 0.0512148 0.000416556 0.998688
vn 0.051395 0 0.998678
vn -1.14913e-21 -1 -6.1255e-17
vn 0.999121 -0 0.0419127
vn 0.999111 0 0.0421592
vn 0.999723 0 -0.023524
vn 0.999793 9.12808e-05 -0.0203576
vn 0.999798 0.000137902 -0.0200968
vn 0.999723 -0.000705919 -0.023524
vn 0.999794 0 -0.0202767
vn 0 -1 -6.12324e-17
vn -8.24655e-25 -1 -6.12323e-17
vn -3.03774e-24 -1 -6.12323e-17
vn -4.64518e-24 -1 -6.12323e-17
vn -3.96329e-25 -1 -6.12323e-17

# Mesh 'defaultobject' with 48 faces
g defaultobject
usemtl DefaultMaterial
f  1//1 2//1 3//1
f  2//1 1//1 4//1
f  4//1 1//1 5//1
f  4//1 5//1 6//1
f  4//1 6//1 7//1
f  8//1 9//1 10//1
f  9//1 8//1 7//1
f  9//1 7//1 6//1
f  9//1 6//1 11//1
f  9//1 11//1 12//1
f  9//1 12//1 13//1
f  14//2 1//2 3//2
f  1//2 14//2 15//3
f  16//4 8//4 10//4
f  8//5 16//5 7//5
f  7//6 16//6 17//6
f  17//7 16//7 18//7
f  15//8 5//8 1//8
f  5//9 15//9 6//9
f  6//10 15//10 11//10
f  11//11 15//11 19//11
f  11//12 19//12 20//12
f  19//13 15//13 21//13
f  20//14 12//14 11//14
f  12//15 20//15 13//15
f  13//16 20//16 22//16
f  22//17 20//17 23//17
f  22//18 9//18 13//18
f  9//18 22//18 24//18
f  9//19 24//19 10//19
f  10//19 24//19 16//19
f  17//20 4//20 7//20
f  4//21 17//21 2//21
f  2//22 17//22 3//22
f  3//23 17//23 25//23
f  3//24 25//24 14//24
f  14//25 25//25 26//25
f  23//17 24//26 22//17
f  24//26 23//17 16//27
f  16//27 23//17 18//28
f  18//28 23//17 17//29
f  17//29 23//17 20//17
f  17//29 20//17 19//13
f  17//29 19//13 25//25
f  25//25 19//13 26//25
f  26//25 19//13 14//25
f  14//25 19//13 21//13
f  14//25 21//13 15//13

