# File produced by Open Asset Import Library (http://www.assimp.sf.net)
# (assimp v3.1.0)

mtllib ID_39009.obj.mtl

# 16 vertex positions
v  5.927 2.457 -2.942
v  1.098 3.586 2.213
v  7.004 3.586 -0.771
v  0 2.435 1.49101e-16
v  2.176 2.456 4.386
v  3.658 2.45 3.651
v  7.888 2.455 1.501
v  8.082 2.456 1.402
v  2.176 -2.68565e-16 4.386
v  3.658 -2.23559e-16 3.651
v  7.888 -9.19097e-17 1.501
v  8.082 -8.58477e-17 1.402
v  7.004 4.72101e-17 -0.771
v  5.927 1.80146e-16 -2.942
v  0 0 0
v  1.098 -1.35507e-16 2.213

# 0 UV coordinates

# 28 vertex normals
vn -0.190438 0.906458 -0.376918
vn -0.190469 0.906441 -0.376944
vn 0.190432 0.906464 0.376907
vn 0.190709 0.906312 0.377133
vn 0.190571 0.906377 0.377046
vn 0.188226 0.906468 0.378004
vn 0.44431 -0 0.895873
vn 0.44431 0 0.895873
vn 0.453105 0 0.891457
vn 0.453105 0 0.891457
vn 0.454545 0 0.890724
vn 0.454545 0 0.890724
vn 0.895825 0 -0.444408
vn 0.895825 1.39766e-06 -0.444406
vn 0.895824 -2.72024e-06 -0.444408
vn 0.895826 0 -0.444406
vn -0.444612 0 -0.895723
vn -0.444612 5.48472e-17 -0.895723
vn -0.895824 0 0.444408
vn -0.895805 2.9181e-05 0.444447
vn -0.895824 -5.75604e-05 0.444408
vn -0.895799 0 0.444459
vn 9.39474e-24 -1 -6.12323e-17
vn 0 -1 -6.12323e-17
vn 4.40185e-24 -1 -6.12323e-17
vn 0 -1 -6.12323e-17
vn -1.29552e-23 -1 -6.12323e-17
vn -1.64912e-23 -1 -6.12323e-17

# Mesh 'defaultobject' with 28 faces
g defaultobject
usemtl DefaultMaterial
f  1//1 2//1 3//1
f  2//2 1//2 4//2
f  5//3 3//3 2//3
f  3//4 5//4 6//4
f  3//5 6//5 7//5
f  3//6 7//6 8//6
f  9//7 6//7 5//7
f  6//7 9//7 10//8
f  6//9 10//9 7//9
f  7//9 10//9 11//10
f  7//11 11//11 8//11
f  8//11 11//11 12//12
f  12//13 3//13 8//13
f  3//13 12//13 1//14
f  1//14 12//13 13//15
f  1//14 13//15 14//16
f  14//17 4//17 1//17
f  4//17 14//17 15//18
f  2//19 9//19 5//19
f  9//20 2//20 4//20
f  9//21 4//21 16//21
f  16//22 4//22 15//22
f  11//23 13//23 12//23
f  13//23 11//23 10//24
f  13//23 10//24 14//25
f  14//25 10//24 15//26
f  15//26 10//24 16//27
f  16//27 10//24 9//28

