# File produced by Open Asset Import Library (http://www.assimp.sf.net)
# (assimp v3.1.0)

mtllib ID_46482.obj.mtl

# 8 vertex positions
v  4.846 3.83 -4.958
v  1.845 5.087 1.84
v  6.728 5.087 -3.156
v  0 3.83 2.3452e-16
v  6.728 1.93249e-16 -3.156
v  4.846 3.0359e-16 -4.958
v  0 0 0
v  1.845 -1.12668e-16 1.84

# 0 UV coordinates

# 10 vertex normals
vn -0.310748 0.900661 -0.30372
vn -0.310734 0.900667 -0.303715
vn 0.691589 0 -0.722292
vn 0.691589 0 -0.722292
vn -0.715138 0 -0.698983
vn -0.715138 4.28004e-17 -0.698983
vn -0.706147 0 0.708066
vn 0.715148 -0 0.698973
vn 1.1634e-23 -1 -6.12323e-17
vn 1.17226e-23 -1 -6.12323e-17

# Mesh 'defaultobject' with 12 faces
g defaultobject
usemtl DefaultMaterial
f  1//1 2//1 3//1
f  2//2 1//2 4//2
f  5//3 1//3 3//3
f  1//3 5//3 6//4
f  6//5 4//5 1//5
f  4//5 6//5 7//6
f  4//7 8//7 2//7
f  8//7 4//7 7//7
f  8//8 3//8 2//8
f  3//8 8//8 5//8
f  8//9 6//9 5//9
f  6//9 8//9 7//10

