# File produced by Open Asset Import Library (http://www.assimp.sf.net)
# (assimp v3.1.0)

mtllib ID_47368.obj.mtl

# 8 vertex positions
v  4.921 4.184 -4.735
v  1.757 2.868 1.784
v  6.657 2.868 -2.931
v  0 4.184 2.56196e-16
v  4.921 2.89935e-16 -4.735
v  6.657 1.79472e-16 -2.931
v  0 0 0
v  1.757 -1.09238e-16 1.784

# 0 UV coordinates

# 11 vertex normals
vn 0.322611 0.885165 0.335269
vn 0.322588 0.885176 0.33526
vn 0.720557 0 -0.693396
vn 0.720557 0 -0.693396
vn -0.693357 0 -0.720594
vn -0.693357 4.41236e-17 -0.720594
vn -0.712478 -4.29664e-17 0.701695
vn -0.712478 0 0.701695
vn 0.693373 -0 0.720579
vn -1.24382e-23 -1 -6.12323e-17
vn -1.23846e-23 -1 -6.12324e-17

# Mesh 'defaultobject' with 12 faces
g defaultobject
usemtl DefaultMaterial
f  1//1 2//1 3//1
f  2//2 1//2 4//2
f  3//3 5//3 1//3
f  5//3 3//3 6//4
f  5//5 4//5 1//5
f  4//5 5//5 7//6
f  7//7 2//7 4//7
f  2//7 7//7 8//8
f  8//9 3//9 2//9
f  3//9 8//9 6//9
f  8//10 5//10 6//10
f  5//10 8//10 7//11

