# File produced by Open Asset Import Library (http://www.assimp.sf.net)
# (assimp v3.1.0)

mtllib ID_59691.obj.mtl

# 8 vertex positions
v  2.051 8.982 1.759
v  0 8.982 5.49989e-16
v  0.992 8.982 2.23
v  1.099 8.982 -0.49
v  0 0 0
v  0.992 -1.36548e-16 2.23
v  2.051 -1.07708e-16 1.759
v  1.099 3.00038e-17 -0.49

# 0 UV coordinates

# 9 vertex normals
vn 0 1 0
vn -0.913676 -2.48874e-17 0.406443
vn -0.913676 0 0.406443
vn 0.406379 -0 0.913705
vn 0.920894 0 -0.389814
vn -0.407218 0 -0.913331
vn -0.407218 5.59254e-17 -0.913331
vn 0 -1 -6.12323e-17
vn 0 -1 -6.12323e-17

# Mesh 'defaultobject' with 12 faces
g defaultobject
usemtl DefaultMaterial
f  1//1 2//1 3//1
f  2//1 1//1 4//1
f  5//2 3//2 2//2
f  3//2 5//2 6//3
f  6//4 1//4 3//4
f  1//4 6//4 7//4
f  7//5 4//5 1//5
f  4//5 7//5 8//5
f  8//6 2//6 4//6
f  2//6 8//6 5//7
f  5//8 7//8 6//8
f  7//8 5//8 8//9

