# {"id":"ID_56834","idOriginal":"ID_56834","origin":[14.276881899427885,48.329262369707905],"elevation":303.094,"wof":[{"Id":101748071,"Name":"Linz","Placetype":"locality","Offset":-1},{"Id":85632785,"Name":"Austria","Placetype":"country","Offset":-1},{"Id":102049853,"Name":"Linz","Placetype":"county","Offset":-1},{"Id":85681677,"Name":"Oberösterreich","Placetype":"region","Offset":-1},{"Id":85898425,"Name":"Harbach","Placetype":"neighbourhood","Offset":-1}]}

# Attribution: City of Linz <http://geo.data.linz.gv.at/katalog/geodata/3d_geo_daten_lod2/>
# Longitude: 14.276881899427885
# Latitude: 48.329262369707905
# Elevation: 303.094

# File produced by Open Asset Import Library (http://www.assimp.sf.net)
# (assimp v3.1.0)


# 8 vertex positions
v  0 2.681 1.64164e-16
v  3.557 2.681 0.03
v  2.721 2.681 -1.539
v  0.695 2.681 1.683
v  2.721 9.42366e-17 -1.539
v  0 0 0
v  0.695 -1.03054e-16 1.683
v  3.557 -1.83697e-18 0.03

# 0 UV coordinates

# 9 vertex normals
vn -0 1 0
vn -0.49231 0 -0.87042
vn -0.49231 5.32978e-17 -0.87042
vn -0.924291 -2.33717e-17 0.381689
vn -0.924291 0 0.381689
vn 0.500142 -0 0.865944
vn 0.88254 0 -0.470238
vn -3.72211e-26 -1 -6.12323e-17
vn -6.93294e-26 -1 -6.12323e-17

# Mesh 'defaultobject' with 12 faces
g defaultobject
usemtl DefaultMaterial
f  1//1 2//1 3//1
f  2//1 1//1 4//1
f  5//2 1//2 3//2
f  1//2 5//2 6//3
f  6//4 4//4 1//4
f  4//4 6//4 7//5
f  7//6 2//6 4//6
f  2//6 7//6 8//6
f  8//7 3//7 2//7
f  3//7 8//7 5//7
f  8//8 6//8 5//8
f  6//8 8//8 7//9

