# {"id":"ID_39155","idOriginal":"ID_39155","origin":[14.336313270732463,48.264303675239915],"elevation":256.875,"wof":[{"Id":85898451,"Name":"Ufer","Placetype":"neighbourhood","Offset":-1},{"Id":85681677,"Name":"Oberösterreich","Placetype":"region","Offset":-1},{"Id":85632785,"Name":"Austria","Placetype":"country","Offset":-1},{"Id":102049853,"Name":"Linz","Placetype":"county","Offset":-1},{"Id":101748071,"Name":"Linz","Placetype":"locality","Offset":-1}]}

# Attribution: City of Linz <http://geo.data.linz.gv.at/katalog/geodata/3d_geo_daten_lod2/>
# Longitude: 14.336313270732463
# Latitude: 48.264303675239915
# Elevation: 256.875

# File produced by Open Asset Import Library (http://www.assimp.sf.net)
# (assimp v3.1.0)


# 8 vertex positions
v  0 3.26 1.99617e-16
v  5.391 3.659 7.792
v  3.534 3.659 -0.803
v  1.824 3.257 8.553
v  5.391 -4.77122e-16 7.792
v  3.534 4.91696e-17 -0.803
v  0 0 0
v  1.824 -5.2372e-16 8.553

# 0 UV coordinates

# 11 vertex normals
vn -0.106973 0.993993 0.0231122
vn -0.107075 0.993981 0.0231834
vn 0.977446 0 -0.211183
vn -0.221573 0 -0.975144
vn -0.221573 5.97103e-17 -0.975144
vn -0.978008 -1.27711e-17 0.208568
vn -0.978008 0 0.208568
vn 0.208649 0 0.977991
vn 0.208649 0 0.977991
vn 7.42802e-24 -1 -6.12323e-17
vn -1.67049e-24 -1 -6.12323e-17

# Mesh 'defaultobject' with 12 faces
g defaultobject
usemtl DefaultMaterial
f  1//1 2//1 3//1
f  2//2 1//2 4//2
f  5//3 3//3 2//3
f  3//3 5//3 6//3
f  6//4 1//4 3//4
f  1//4 6//4 7//5
f  7//6 4//6 1//6
f  4//6 7//6 8//7
f  4//8 5//8 2//8
f  5//8 4//8 8//9
f  8//10 6//10 5//10
f  6//10 8//10 7//11

