# {"id":"ID_38939","idOriginal":"ID_38939","origin":[14.284346630018165,48.33863025241387],"elevation":315.39,"wof":[{"Id":102049853,"Name":"Linz","Placetype":"county","Offset":-1},{"Id":85632785,"Name":"Austria","Placetype":"country","Offset":-1},{"Id":101748071,"Name":"Linz","Placetype":"locality","Offset":-1},{"Id":85681677,"Name":"Oberösterreich","Placetype":"region","Offset":-1},{"Id":85898425,"Name":"Harbach","Placetype":"neighbourhood","Offset":-1}]}

# Attribution: City of Linz <http://geo.data.linz.gv.at/katalog/geodata/3d_geo_daten_lod2/>
# Longitude: 14.284346630018165
# Latitude: 48.33863025241387
# Elevation: 315.39

# File produced by Open Asset Import Library (http://www.assimp.sf.net)
# (assimp v3.1.0)


# 12 vertex positions
v  5.616 3.554 -6.302
v  0.543 4.04 -3.502
v  5.074 4.04 -2.8
v  1.085 3.554 -7.004
v  4.531 3.554 0.701
v  0 3.554 2.1762e-16
v  0 0 0
v  4.531 -4.29239e-17 0.701
v  5.074 1.71451e-16 -2.8
v  5.616 3.85886e-16 -6.302
v  1.085 4.28871e-16 -7.004
v  0.543 2.14436e-16 -3.502

# 0 UV coordinates

# 19 vertex normals
vn 0.020803 0.990726 -0.134271
vn 0.020803 0.990726 -0.134271
vn -0.0208078 0.990722 0.134302
vn -0.0207732 0.990727 0.13427
vn -0.152893 -6.05124e-17 0.988243
vn -0.152893 0 0.988243
vn 0.988185 -0 0.153266
vn 0.988229 -0.00025203 0.152982
vn 0.988185 0.000321008 0.153266
vn 0.988234 0 0.152948
vn 0.153106 0 -0.98821
vn -0.988192 0 -0.153223
vn -0.98823 0.000218338 -0.152977
vn -0.988192 -0.000278042 -0.153223
vn -0.988234 0 -0.152948
vn 6.51636e-24 -1 -6.12323e-17
vn 0 -1 -6.12323e-17
vn -4.07276e-24 -1 -6.12323e-17
vn -3.25821e-24 -1 -6.12323e-17

# Mesh 'defaultobject' with 20 faces
g defaultobject
usemtl DefaultMaterial
f  1//1 2//1 3//1
f  2//1 1//1 4//2
f  2//3 5//3 3//3
f  5//4 2//4 6//4
f  7//5 5//5 6//5
f  5//5 7//5 8//6
f  8//7 3//7 5//7
f  3//8 8//8 1//8
f  1//9 8//9 9//9
f  1//10 9//10 10//10
f  10//11 4//11 1//11
f  4//11 10//11 11//11
f  2//12 7//12 6//12
f  7//13 2//13 4//13
f  7//14 4//14 12//14
f  12//15 4//15 11//15
f  12//16 8//16 7//16
f  8//16 12//16 9//17
f  9//17 12//16 10//18
f  10//18 12//16 11//19

