# {"id":"ID_30015","idOriginal":"ID_30015","origin":[14.300434915656979,48.32556233640787],"elevation":258.977}
# Longitude: 14.300434915656979
# Latitude: 48.32556233640787
# Elevation: 258.977

# File produced by Open Asset Import Library (http://www.assimp.sf.net)
# (assimp v3.1.0)

mtllib ID_30015.obj.mtl

# 20 vertex positions
v  11.733 6.264 0.808
v  2.397 7.689 1.765
v  7.312 7.698 6.134
v  5.852 6.292 -4.17
v  0 7.742 4.74061e-16
v  4.612 6.265 -5.428
v  5.933 6.265 -4.272
v  6.686 6.015 -5.218
v  5.369 6.023 -6.319
v  2.258 7.733 1.923
v  5.369 3.86927e-16 -6.319
v  6.686 3.1951e-16 -5.218
v  5.852 2.55339e-16 -4.17
v  11.733 -4.94757e-17 0.808
v  0 0 0
v  4.612 3.32369e-16 -5.428
v  2.258 -1.1775e-16 1.923
v  7.312 -3.75599e-16 6.134
v  2.397 -1.08075e-16 1.765
v  5.933 2.61585e-16 -4.272

# 0 UV coordinates

# 28 vertex normals
vn 0.13382 0.979192 -0.152561
vn 0.133818 0.979189 -0.152584
vn 0.133947 0.979183 -0.152507
vn 0.133719 0.979165 -0.152821
vn 0.133817 0.979137 -0.152917
vn 0.133483 0.979242 -0.152535
vn 0.133484 0.979239 -0.152557
vn 0.134942 0.978833 -0.153869
vn 0.641387 0 -0.767218
vn 0.641387 0 -0.767217
vn 0.646076 0 -0.763273
vn -0.762064 0 -0.647502
vn -0.762083 3.28836e-05 -0.64748
vn -0.762067 0 -0.647498
vn 7.11681e-19 -1 -6.12046e-17
vn -0.648372 -4.66176e-17 0.761323
vn -0.648372 0 0.761323
vn -0.664373 0 0.747401
vn 0.750807 -0 0.660521
vn 0.750807 0 0.660521
vn 0.769451 -0 0.638705
vn 0.769451 0 0.638705
vn 0.783111 -0 0.621882
vn 0.782403 2.36516e-05 0.622773
vn 0.782469 0 0.62269
vn -2.94196e-19 -1 -6.14502e-17
vn -4.24153e-23 -1 -6.12323e-17
vn 1.1637e-24 -1 -6.12323e-17

# Mesh 'defaultobject' with 36 faces
g defaultobject
usemtl DefaultMaterial
f  1//1 2//1 3//1
f  2//2 1//2 4//2
f  2//3 4//3 5//3
f  5//4 4//4 6//4
f  6//5 4//5 7//5
f  6//6 7//6 8//6
f  6//7 8//7 9//7
f  5//8 10//8 2//8
f  8//9 11//9 9//9
f  11//9 8//9 12//10
f  1//11 13//11 4//11
f  13//11 1//11 14//11
f  6//12 15//12 5//12
f  15//13 6//13 9//13
f  15//12 9//14 11//14
f  15//15 11//15 16//15
f  15//16 10//16 5//16
f  10//16 15//16 17//17
f  2//18 18//18 3//18
f  18//18 2//18 19//18
f  17//19 2//19 10//19
f  2//19 17//19 19//20
f  18//21 1//21 3//21
f  1//21 18//21 14//22
f  13//23 7//23 4//23
f  7//24 13//24 8//24
f  8//25 13//25 12//25
f  12//26 13//26 20//26
f  15//15 19//27 17//27
f  19//27 14//28 18//28
f  14//28 19//27 15//15
f  14//28 15//15 13//26
f  13//26 15//15 16//15
f  13//26 16//15 20//26
f  20//26 16//15 12//26
f  12//26 16//15 11//15

