# {"id":"ID_14900","idOriginal":"ID_14900","origin":[14.297748831943306,48.283758224305934],"elevation":260.939}
# Longitude: 14.297748831943306
# Latitude: 48.283758224305934
# Elevation: 260.939

# File produced by Open Asset Import Library (http://www.assimp.sf.net)
# (assimp v3.1.0)

mtllib ID_14900.obj.mtl

# 36 vertex positions
v  5.061 6.783 -1.545
v  8.226 7.306 -1.752
v  8.133 6.809 -2.192
v  14.584 12.487 1.662
v  15.623 14.257 3.076
v  15.267 12.481 1.507
v  5.155 7.214 -1.166
v  0.636 14.257 6.351
v  1.004 12.65 4.781
v  0 7.256 4.44302e-16
v  0.321 12.653 4.933
v  13.483 7.121 -3.072
v  16.415 6.736 9.876
v  1.792 11.857 8.324
v  2.871 6.736 12.836
v  15.388 12.02 5.201
v  16.071 12.026 5.046
v  1.109 11.854 8.476
v  5.155 7.13969e-17 -1.166
v  5.061 9.4604e-17 -1.545
v  1.004 -2.92752e-16 4.781
v  0 0 0
v  0.321 -3.02059e-16 4.933
v  1.109 -5.19005e-16 8.476
v  0.636 -3.88887e-16 6.351
v  1.792 -5.09698e-16 8.324
v  2.871 -7.85978e-16 12.836
v  14.584 -1.01768e-16 1.662
v  15.267 -9.22771e-17 1.507
v  8.226 1.07279e-16 -1.752
v  13.483 1.88106e-16 -3.072
v  8.133 1.34221e-16 -2.192
v  16.415 -6.04731e-16 9.876
v  16.071 -3.08978e-16 5.046
v  15.388 -3.18469e-16 5.201
v  15.623 -1.88351e-16 3.076

# 0 UV coordinates

# 62 vertex normals
vn -0.15825 0.67095 -0.72442
vn -0.158292 0.671353 -0.724037
vn -0.158407 0.671367 -0.723999
vn -0.158274 0.671335 -0.724057
vn -0.158194 0.67127 -0.724134
vn -0.158231 0.671303 -0.724096
vn -0.158517 0.671177 -0.72415
vn -0.158314 0.671278 -0.724101
vn -0.158209 0.671248 -0.724151
vn -0.158198 0.67129 -0.724116
vn 0.158246 0.671315 0.724082
vn 0.158292 0.671415 0.723979
vn 0.158248 0.671354 0.724046
vn 0.15824 0.671258 0.724136
vn 0.158437 0.671225 0.724123
vn 0.158179 0.671396 0.724021
vn -0.970593 0 0.240728
vn -0.970593 0 0.240728
vn -0.978654 0 0.205515
vn -0.978654 0 0.205515
vn -0.976157 -0.000191778 0.217064
vn -0.976148 0 0.217105
vn -0.976148 0 0.217105
vn -7.90828e-20 1 6.12447e-17
vn -0.972577 0 0.232582
vn -0.972577 0 0.232582
vn -0.220615 0 -0.975361
vn -0.220615 0 -0.975361
vn -0.217233 0 -0.97612
vn -0.217233 0 -0.97612
vn -0.221312 0 -0.975203
vn -0.221312 0 -0.975203
vn -0.243534 0 -0.969892
vn -0.243534 0 -0.969892
vn -0.206091 0 -0.978533
vn -0.206091 -0 -0.978533
vn 0.217232 0 0.97612
vn 0.217232 0 0.97612
vn 0.213508 -0 0.976941
vn 0.221313 0 0.975203
vn 0.221313 0 0.975203
vn 0.97671 0 -0.214563
vn 0.97671 0 -0.214563
vn 0.975158 0.000221612 -0.22151
vn 0.975152 0 -0.221537
vn 0.975152 0 -0.221537
vn 0 -1 -6.1232e-17
vn 0.974005 0 -0.226527
vn 0.974005 0 -0.226527
vn 0.978385 0 -0.206794
vn 0.978385 0 -0.206794
vn -3.15685e-23 -1 -6.12323e-17
vn 3.47234e-23 -1 -6.12323e-17
vn -1.62771e-23 -1 -6.12324e-17
vn 1.59557e-24 -1 -6.12323e-17
vn 0 -1 -6.12323e-17
vn 3.12549e-24 -1 -6.12323e-17
vn 0 -1 -6.12323e-17
vn 7.12919e-24 -1 -6.12323e-17
vn 1.52306e-24 -1 -6.12323e-17
vn 0 -1 -6.12324e-17
vn 6.75191e-24 -1 -6.12323e-17

# Mesh 'defaultobject' with 68 faces
g defaultobject
usemtl DefaultMaterial
f  1//1 2//1 3//1
f  2//2 1//2 4//2
f  4//3 5//3 6//3
f  5//4 4//4 1//4
f  5//5 1//5 7//5
f  5//6 7//6 8//6
f  8//7 7//7 9//7
f  9//8 7//8 10//8
f  8//9 9//9 11//9
f  4//10 12//10 2//10
f  13//11 14//11 15//11
f  14//12 13//12 8//12
f  8//13 13//13 16//13
f  8//14 16//14 5//14
f  5//15 16//15 17//15
f  8//16 18//16 14//16
f  1//17 19//17 7//17
f  19//17 1//17 20//18
f  10//19 21//19 9//19
f  21//19 10//19 22//20
f  11//21 18//21 8//21
f  18//22 11//22 23//22
f  18//22 23//22 24//23
f  24//24 23//24 25//24
f  26//25 15//25 14//25
f  15//25 26//25 27//26
f  7//27 22//27 10//27
f  22//27 7//27 19//28
f  9//29 23//29 11//29
f  23//29 9//29 21//30
f  6//31 28//31 4//31
f  28//31 6//31 29//32
f  12//33 30//33 2//33
f  30//33 12//33 31//34
f  32//35 1//35 3//35
f  1//35 32//35 20//36
f  18//37 26//37 14//37
f  26//37 18//37 24//38
f  27//39 13//39 15//39
f  13//39 27//39 33//39
f  16//40 34//40 17//40
f  34//40 16//40 35//41
f  13//42 35//42 16//42
f  35//42 13//42 33//43
f  17//44 6//44 5//44
f  6//45 17//45 34//45
f  6//45 34//45 29//46
f  29//47 34//47 36//47
f  28//48 12//48 4//48
f  12//48 28//48 31//49
f  30//50 3//50 2//50
f  3//50 30//50 32//51
f  35//52 36//47 34//47
f  36//47 35//52 29//47
f  25//53 21//53 24//53
f  21//53 25//53 23//54
f  27//55 35//52 33//55
f  35//52 27//55 29//47
f  29//47 27//55 28//56
f  28//56 27//55 31//57
f  31//57 27//55 30//58
f  30//58 27//55 32//59
f  32//59 27//55 19//56
f  19//56 27//55 22//60
f  22//60 27//55 26//61
f  22//60 26//61 21//53
f  21//53 26//61 24//53
f  20//62 32//59 19//56

