# {"id":"ID_13025","idOriginal":"ID_13025","origin":[14.306344894394439,48.29045486789186],"elevation":259.471}
# Longitude: 14.306344894394439
# Latitude: 48.29045486789186
# Elevation: 259.471

# File produced by Open Asset Import Library (http://www.assimp.sf.net)
# (assimp v3.1.0)

mtllib ID_13025.obj.mtl

# 24 vertex positions
v  13.04 14.188 9.179
v  1.013 19.306 5.584
v  2.029 14.167 11.185
v  19.018 19.306 2.343
v  14.263 14.191 8.956
v  20.015 14.202 7.908
v  18.108 14.65 -2.733
v  18.016 14.182 -3.243
v  10.179 14.182 -1.833
v  6.778 14.182 -1.22
v  0.093 14.651 0.511
v  0 14.182 8.68397e-16
v  0 0 0
v  0.093 -3.12897e-17 0.511
v  2.029 -6.84884e-16 11.185
v  1.013 -3.41921e-16 5.584
v  13.04 -5.62052e-16 9.179
v  14.263 -5.48397e-16 8.956
v  20.015 -4.84225e-16 7.908
v  18.016 1.98576e-16 -3.243
v  19.018 -1.43467e-16 2.343
v  18.108 1.67348e-16 -2.733
v  10.179 1.12239e-16 -1.833
v  6.778 7.47035e-17 -1.22

# 0 UV coordinates

# 42 vertex normals
vn 0.118733 0.742266 0.659502
vn 0.118718 0.742247 0.659526
vn 0.11841 0.742421 0.659386
vn 0.11874 0.742265 0.659503
vn -0.118721 0.742236 -0.659538
vn -0.118778 0.742159 -0.659614
vn -0.118646 0.742323 -0.659454
vn -0.118892 0.742131 -0.659625
vn -0.118709 0.742232 -0.659546
vn -0.118721 0.742194 -0.659585
vn -0.983947 -2.35388e-05 0.178463
vn -0.983941 0.000634453 0.178491
vn -0.983942 0 0.178491
vn -0.983839 -0.000460361 0.179055
vn -0.983947 0 0.178464
vn 3.39258e-19 1 6.11937e-17
vn 0.179231 -0 0.983807
vn 0.179381 -0.000119775 0.98378
vn 0.179247 -3.6842e-07 0.983804
vn 0.179231 1.96792e-05 0.983807
vn 0.179381 -5.59875e-05 0.98378
vn 0.179247 0 0.983804
vn 0.984318 -6.41832e-05 -0.176405
vn 0.984318 0 -0.176402
vn 0.984197 -0.00050525 -0.177076
vn 0.984309 0 -0.176453
vn 6.15338e-20 1 6.12338e-17
vn -9.16763e-21 1 6.12329e-17
vn -0.177073 0 -0.984198
vn -0.177383 -0.000176918 -0.984142
vn -0.177147 1.56911e-05 -0.984184
vn -0.177073 0.000113601 -0.984198
vn -0.177383 -0.000116168 -0.984142
vn -0.177147 6.02639e-17 -0.984184
vn -1.60157e-23 -1 -6.12323e-17
vn 0 -1 -6.12323e-17
vn 6.30316e-23 -1 -6.12323e-17
vn 5.58391e-24 -1 -6.12323e-17
vn -2.33908e-24 -1 -6.12323e-17
vn 0 -1 -6.12323e-17
vn 4.05016e-24 -1 -6.12323e-17
vn 0 -1 -6.12323e-17

# Mesh 'defaultobject' with 44 faces
g defaultobject
usemtl DefaultMaterial
f  1//1 2//1 3//1
f  2//2 1//2 4//2
f  4//3 1//3 5//3
f  4//4 5//4 6//4
f  7//5 2//5 4//5
f  2//6 7//6 8//6
f  2//7 8//7 9//7
f  2//8 9//8 10//8
f  2//9 10//9 11//9
f  11//10 10//10 12//10
f  11//11 3//11 2//11
f  3//12 11//12 12//12
f  3//13 12//13 13//13
f  3//14 13//14 14//14
f  3//15 14//15 15//15
f  15//16 14//16 16//16
f  15//17 1//17 3//17
f  1//18 15//18 5//18
f  5//19 15//19 6//19
f  6//20 15//20 17//20
f  6//21 17//21 18//21
f  6//19 18//22 19//22
f  6//23 7//23 4//23
f  7//24 6//24 19//24
f  7//25 19//25 8//25
f  8//26 19//26 20//26
f  20//27 19//27 21//27
f  20//27 21//27 22//28
f  20//29 9//29 8//29
f  9//30 20//30 10//30
f  10//31 20//31 12//31
f  12//32 20//32 23//32
f  12//33 23//33 24//33
f  12//34 24//34 13//34
f  18//35 21//35 19//35
f  21//35 18//35 22//36
f  22//36 18//35 17//37
f  22//36 17//37 15//36
f  22//36 15//36 20//38
f  20//38 15//36 23//39
f  23//39 15//36 16//40
f  23//39 16//40 24//41
f  24//41 16//40 14//40
f  24//41 14//40 13//42

