# {"id":"_60831","idOriginal":"_60831","origin":[14.309728860082911,48.30383623989595],"elevation":259.133}
# Longitude: 14.309728860082911
# Latitude: 48.30383623989595
# Elevation: 259.133

# File produced by Open Asset Import Library (http://www.assimp.sf.net)
# (assimp v3.1.0)

mtllib _60831.obj.mtl

# 16 vertex positions
v  0.838 11.571 -1.919
v  0.918 11.571 -1.481
v  1.061 11.571 -1.801
v  0.684 11.571 -1.565
v  0.748 11.571 -1.099
v  0.577 11.571 -1.321
v  0 11.571 7.08519e-16
v  0.214 11.571 0.096
v  0.838 1.17505e-16 -1.919
v  0.577 8.08879e-17 -1.321
v  0 0 0
v  0.684 9.58286e-17 -1.565
v  0.214 -5.8783e-18 0.096
v  0.748 6.72943e-17 -1.099
v  1.061 1.10279e-16 -1.801
v  0.918 9.06851e-17 -1.481

# 0 UV coordinates

# 17 vertex normals
vn 0 1 0
vn -0.916988 0 -0.398916
vn -0.915812 9.79566e-05 -0.401606
vn -0.916396 1.5893e-05 -0.400273
vn -0.916509 -3.51163e-05 -0.400015
vn -0.916396 2.45096e-17 -0.400273
vn -8.21738e-21 -1 -6.12373e-17
vn -0.409301 -5.58683e-17 0.912399
vn -0.409301 0 0.912399
vn 0.912991 -0 0.407981
vn 0.913614 -0.000173221 0.406582
vn 0.912986 5.69502e-05 0.407991
vn 0.91299 5.50075e-05 0.407981
vn 0.913328 0 0.407225
vn 7.31999e-21 -1 -6.12281e-17
vn 0.467706 0 -0.883884
vn 0 -1 -6.12323e-17

# Mesh 'defaultobject' with 28 faces
g defaultobject
usemtl DefaultMaterial
f  1//1 2//1 3//1
f  2//1 1//1 4//1
f  2//1 4//1 5//1
f  5//1 4//1 6//1
f  5//1 6//1 7//1
f  5//1 7//1 8//1
f  9//2 4//2 1//2
f  4//3 9//3 6//3
f  6//4 9//4 7//4
f  7//5 9//5 10//5
f  7//6 10//6 11//6
f  10//7 9//7 12//7
f  11//8 8//8 7//8
f  8//8 11//8 13//9
f  13//10 5//10 8//10
f  5//11 13//11 2//11
f  2//12 13//12 3//12
f  3//13 13//13 14//13
f  3//14 14//14 15//14
f  15//15 14//15 16//15
f  15//16 1//16 3//16
f  1//16 15//16 9//16
f  10//7 13//17 11//17
f  13//17 10//7 14//15
f  14//15 10//7 16//15
f  16//15 10//7 12//7
f  16//15 12//7 9//7
f  16//15 9//7 15//15

