# File produced by Open Asset Import Library (http://www.assimp.sf.net)
# (assimp v3.1.0)

mtllib _33040.obj.mtl

# 16 vertex positions
v  8.915 31.819 -3.729
v  6.035 31.819 2.185
v  10.607 31.819 0.228
v  0 31.819 1.94835e-15
v  2.503 31.819 6.069
v  2.174 31.819 5.363
v  1.253 31.819 3.13
v  6.835 31.819 4.191
v  2.503 -3.71619e-16 6.069
v  6.835 -2.56625e-16 4.191
v  6.035 -1.33793e-16 2.185
v  10.607 -1.3961e-17 0.228
v  8.915 2.28335e-16 -3.729
v  0 0 0
v  2.174 -3.28389e-16 5.363
v  1.253 -1.91657e-16 3.13

# 0 UV coordinates

# 17 vertex normals
vn 0 1 -0
vn 0.39775 -0 0.917494
vn 0.393507 -0 0.919322
vn 0.928859 0 -0.370433
vn 0.919469 0 -0.393162
vn -0.385886 0 -0.922546
vn -0.385886 5.64897e-17 -0.922546
vn -0.906413 0 0.422394
vn -0.924455 0 0.381291
vn -0.928374 -2.27568e-17 0.371646
vn -0.926751 -0.000460435 0.375677
vn 6.24426e-22 1 6.12321e-17
vn 7.95631e-26 -1 -6.12323e-17
vn 0 -1 -6.12323e-17
vn 0 -1 -6.12323e-17
vn -4.60478e-22 -1 -6.1232e-17
vn -3.13507e-22 -1 -6.1232e-17

# Mesh 'defaultobject' with 28 faces
g defaultobject
usemtl DefaultMaterial
f  1//1 2//1 3//1
f  2//1 1//1 4//1
f  2//1 4//1 5//1
f  5//1 4//1 6//1
f  6//1 4//1 7//1
f  5//1 8//1 2//1
f  9//2 8//2 5//2
f  8//2 9//2 10//2
f  11//3 3//3 2//3
f  3//3 11//3 12//3
f  10//4 2//4 8//4
f  2//4 10//4 11//4
f  12//5 1//5 3//5
f  1//5 12//5 13//5
f  13//6 4//6 1//6
f  4//6 13//6 14//7
f  15//8 5//8 6//8
f  5//8 15//8 9//8
f  15//9 6//9 7//9
f  14//10 7//10 4//10
f  7//11 14//11 15//11
f  15//12 14//12 16//12
f  12//13 14//13 13//13
f  14//13 12//13 11//14
f  14//13 11//14 10//14
f  14//13 10//14 9//15
f  14//13 9//15 16//16
f  16//16 9//15 15//17

