# File produced by Open Asset Import Library (http://www.assimp.sf.net)
# (assimp v3.1.0)

mtllib _50628.obj.mtl

# 21 vertex positions
v  0.621 1.68 2.874
v  0.561 1.671 2.617
v  0.579 1.642 2.881
v  2.404 3.555 1.071
v  0 1.628 9.96862e-17
v  0.139 1.754 -0.026
v  4.763 1.68 2.212
v  4.221 1.645 -0.767
v  4.802 1.645 2.206
v  2.8 1.668 -0.521
v  4.209 1.567 -0.828
v  2.8 3.19021e-17 -0.521
v  4.209 5.07004e-17 -0.828
v  0.139 1.59204e-18 -0.026
v  0 0 0
v  0.561 -1.60245e-16 2.617
v  0.579 -1.7641e-16 2.881
v  0.621 -1.75982e-16 2.874
v  4.763 -1.35446e-16 2.212
v  4.802 -1.35079e-16 2.206
v  4.221 4.69652e-17 -0.767

# 0 UV coordinates

# 35 vertex normals
vn -0.653844 0.745975 0.126525
vn -0.65504 0.744871 0.126843
vn -0.654402 0.745228 0.128038
vn -0.653631 0.746617 0.123808
vn 0.123271 0.624442 0.771282
vn 0.651552 0.747842 -0.12733
vn 0.654267 0.745388 -0.127795
vn -0.123624 0.623042 -0.772358
vn -0.123379 0.624654 -0.771093
vn -0.12325 0.624681 -0.771092
vn -0.21289 0 -0.977076
vn -0.182883 0 -0.983135
vn -0.183862 -0 -0.982952
vn -0.183862 6.01885e-17 -0.982952
vn -0.977786 0 0.209606
vn -0.977786 0 0.209606
vn -0.997684 0 0.0680239
vn 0.164398 -0 0.986394
vn 0.157823 0.000168851 0.987467
vn 0.164376 -0.0166326 0.986257
vn 0.157823 0 0.987467
vn 0.152052 0 0.988372
vn 0.152052 0 0.988372
vn 0.981194 0 -0.193023
vn 0.981435 -4.7213e-05 -0.191797
vn 0.981192 0.00230048 -0.193023
vn 0.981435 0 -0.191797
vn 0 -1 -6.12323e-17
vn 7.31016e-24 -1 -6.12323e-17
vn -1.41774e-23 -1 -6.12324e-17
vn 2.00629e-22 -1 -6.12323e-17
vn -2.06034e-24 -1 -6.12323e-17
vn 3.51385e-22 -1 -6.12282e-17
vn 5.9929e-24 -1 -6.12323e-17
vn 0 -1 -6.12323e-17

# Mesh 'defaultobject' with 38 faces
g defaultobject
usemtl DefaultMaterial
f  1//1 2//1 3//1
f  2//2 1//2 4//2
f  2//3 4//3 5//3
f  5//4 4//4 6//4
f  4//5 1//5 7//5
f  8//6 7//6 9//6
f  7//7 8//7 4//7
f  10//8 8//8 11//8
f  8//9 10//9 4//9
f  4//10 10//10 6//10
f  11//11 12//11 10//11
f  12//11 11//11 13//11
f  12//12 6//12 10//12
f  6//12 12//12 14//12
f  6//13 14//13 5//13
f  5//13 14//13 15//14
f  5//15 16//15 2//15
f  16//15 5//15 15//16
f  16//17 3//17 2//17
f  3//17 16//17 17//17
f  17//18 1//18 3//18
f  1//19 17//19 7//19
f  7//20 17//20 18//20
f  7//21 18//21 19//21
f  7//22 19//22 9//22
f  9//22 19//22 20//23
f  8//24 13//24 11//24
f  13//25 8//25 9//25
f  13//26 9//26 21//26
f  21//27 9//27 20//27
f  14//28 16//28 15//28
f  16//28 14//28 12//29
f  16//28 12//29 13//30
f  16//28 13//30 21//31
f  16//28 21//31 20//32
f  16//28 20//32 19//33
f  16//28 19//33 18//34
f  16//28 18//34 17//35

