# File produced by Open Asset Import Library (http://www.assimp.sf.net)
# (assimp v3.1.0)

mtllib _56047.obj.mtl

# 8 vertex positions
v  0.624 1.697 2.552
v  2.41 1.697 -0.589
v  0 1.697 1.03911e-16
v  3.033 1.697 1.963
v  2.41 3.60658e-17 -0.589
v  0 0 0
v  0.624 -1.56265e-16 2.552
v  3.033 -1.20199e-16 1.963

# 0 UV coordinates

# 8 vertex normals
vn 0 1 0
vn -0.237411 0 -0.971409
vn -0.237411 5.94817e-17 -0.971409
vn -0.971383 -1.45437e-17 0.237517
vn -0.971383 0 0.237517
vn 0.237504 -0 0.971387
vn 0.971471 0 -0.237158
vn 0 -1 -6.12323e-17

# Mesh 'defaultobject' with 12 faces
g defaultobject
usemtl DefaultMaterial
f  1//1 2//1 3//1
f  2//1 1//1 4//1
f  5//2 3//2 2//2
f  3//2 5//2 6//3
f  6//4 1//4 3//4
f  1//4 6//4 7//5
f  7//6 4//6 1//6
f  4//6 7//6 8//6
f  8//7 2//7 4//7
f  2//7 8//7 5//7
f  8//8 6//8 5//8
f  6//8 8//8 7//8

