# File produced by Open Asset Import Library (http://www.assimp.sf.net)
# (assimp v3.1.0)

mtllib _9816.obj.mtl

# 12 vertex positions
v  31.69 7.967 -13.282
v  12.683 7.967 2.356
v  34.411 7.967 -6.747
v  0 7.967 4.87838e-16
v  1.006 7.967 2.356
v  2.778 7.967 6.506
v  34.411 4.13135e-16 -6.747
v  31.69 8.13288e-16 -13.282
v  0 0 0
v  2.778 -3.98378e-16 6.506
v  1.006 -1.44263e-16 2.356
v  12.683 -1.44263e-16 2.356

# 0 UV coordinates

# 12 vertex normals
vn 0 1 -0
vn 0.923173 0 -0.384385
vn -0.386545 0 -0.922271
vn -0.386545 5.64728e-17 -0.922271
vn -0.919669 -2.40456e-17 0.392694
vn -0.919671 1.90995e-06 0.392689
vn -0.919671 0 0.392691
vn 0 -1 -6.09081e-17
vn 0.386411 0 0.922327
vn 0.386433 -0 0.922318
vn -1.74119e-24 -1 -6.12323e-17
vn 0 -1 -6.12323e-17

# Mesh 'defaultobject' with 20 faces
g defaultobject
usemtl DefaultMaterial
f  1//1 2//1 3//1
f  2//1 1//1 4//1
f  2//1 4//1 5//1
f  2//1 5//1 6//1
f  7//2 1//2 3//2
f  1//2 7//2 8//2
f  8//3 4//3 1//3
f  4//3 8//3 9//4
f  9//5 5//5 4//5
f  5//5 9//5 6//6
f  6//6 9//5 10//7
f  10//8 9//8 11//8
f  2//9 7//9 3//9
f  7//9 2//9 12//9
f  12//10 2//10 6//10
f  12//10 6//10 10//10
f  7//11 9//8 8//11
f  9//8 7//11 12//12
f  9//8 12//12 11//8
f  11//8 12//12 10//8

