# File produced by Open Asset Import Library (http://www.assimp.sf.net)
# (assimp v3.1.0)

mtllib ID_558.obj.mtl

# 28 vertex positions
v  47.5 13.442 7.731
v  23.679 13.442 -20.628
v  23.18 13.442 -20.193
v  34.879 13.442 -30.385
v  59.148 13.442 -2.435
v  48.014 13.442 7.283
v  59.148 1.49101e-16 -2.435
v  48.014 -4.45955e-16 7.283
v  47.5 -4.73387e-16 7.731
v  34.879 1.86054e-15 -30.385
v  23.679 1.2631e-15 -20.628
v  23.18 1.23646e-15 -20.193
v  10.656 7.015 12.235
v  1.486 7.015 -1.294
v  0 7.015 4.29545e-16
v  47.5 7.015 7.731
v  23.18 7.015 -20.193
v  14.259 7.015 16.372
v  44.426 7.015 10.415
v  25.829 7.015 29.657
v  43.384 7.015 14.392
v  0 0 0
v  25.829 -1.81597e-15 29.657
v  10.656 -7.49178e-16 12.235
v  14.259 -1.0025e-15 16.372
v  43.384 -8.81256e-16 14.392
v  44.426 -6.37735e-16 10.415
v  1.486 7.92346e-17 -1.294

# 0 UV coordinates

# 29 vertex normals
vn 0 1 0
vn 0.657575 0 0.753389
vn 0.65705 -0.000765833 0.753846
vn 0.657575 3.53331e-05 0.753389
vn 0.65705 0 0.753847
vn 0.755078 0 -0.655635
vn -0.656863 0 -0.75401
vn -0.657112 -0 -0.753793
vn -0.754094 0 0.656767
vn -3.09678e-24 -1 -6.12323e-17
vn -2.68411e-22 -1 -6.12321e-17
vn 8.84549e-24 -1 -6.12323e-17
vn -2.61229e-19 -1 -6.15194e-17
vn -0.75409 -4.02156e-17 0.656771
vn -0.754099 3.05299e-05 0.656761
vn -0.754104 5.48208e-05 0.656755
vn -0.754098 0 0.656762
vn -9.40867e-19 -1 -6.06859e-17
vn 2.26576e-18 -1 -6.34413e-17
vn 0.656173 -0 0.75461
vn 0.657706 -0 0.753275
vn 0.967348 -0 0.253451
vn 0.754094 0 -0.656767
vn -0.656864 0 -0.754009
vn -0.656706 -0 -0.754146
vn -0.656706 4.61782e-17 -0.754146
vn 2.06677e-24 -1 -6.12323e-17
vn 3.25733e-24 -1 -6.12323e-17
vn 0 -1 -6.12323e-17

# Mesh 'defaultobject' with 52 faces
g defaultobject
usemtl DefaultMaterial
f  1//1 2//1 3//1
f  2//1 1//1 4//1
f  4//1 1//1 5//1
f  5//1 1//1 6//1
f  6//2 7//2 5//2
f  7//3 6//3 1//3
f  7//4 1//4 8//4
f  8//5 1//5 9//5
f  7//6 4//6 5//6
f  4//6 7//6 10//6
f  10//7 2//7 4//7
f  2//7 10//7 11//7
f  2//8 11//8 3//8
f  3//8 11//8 12//8
f  12//9 1//9 3//9
f  1//9 12//9 9//9
f  8//10 10//10 7//10
f  10//10 8//10 9//11
f  10//10 9//11 12//12
f  10//10 12//12 11//13
f  13//1 14//1 15//1
f  14//1 16//1 17//1
f  16//1 14//1 13//1
f  16//1 13//1 18//1
f  16//1 18//1 19//1
f  19//1 18//1 20//1
f  19//1 20//1 21//1
f  22//14 13//14 15//14
f  13//15 22//15 18//15
f  18//16 22//16 20//16
f  20//17 22//17 23//17
f  23//18 22//18 24//18
f  23//18 24//18 25//19
f  23//20 21//20 20//20
f  21//20 23//20 26//20
f  27//21 16//21 19//21
f  16//21 27//21 9//21
f  26//22 19//22 21//22
f  19//22 26//22 27//22
f  9//23 17//23 16//23
f  17//23 9//23 12//23
f  12//24 14//24 17//24
f  14//24 12//24 28//24
f  14//25 28//25 15//25
f  15//25 28//25 22//26
f  25//19 26//27 23//18
f  26//27 25//19 27//28
f  27//28 25//19 9//11
f  9//11 25//19 12//12
f  12//12 25//19 24//18
f  12//12 24//18 28//29
f  28//29 24//18 22//18

