# {"id":"ID_46428","idOriginal":"ID_46428","origin":[14.331224157331384,48.28843320894],"elevation":253.67,"wof":[{"Id":85681677,"Name":"Oberösterreich","Placetype":"region","Offset":-1},{"Id":102049853,"Name":"Linz","Placetype":"county","Offset":-1},{"Id":85898459,"Name":"Wegscheid","Placetype":"neighbourhood","Offset":-1},{"Id":101748071,"Name":"Linz","Placetype":"locality","Offset":-1},{"Id":85632785,"Name":"Austria","Placetype":"country","Offset":-1}]}

# Attribution: City of Linz <http://geo.data.linz.gv.at/katalog/geodata/3d_geo_daten_lod2/>
# Longitude: 14.331224157331384
# Latitude: 48.28843320894
# Elevation: 253.67

# File produced by Open Asset Import Library (http://www.assimp.sf.net)
# (assimp v3.1.0)


# 6 vertex positions
v  14.683 7.1 4.3475e-16
v  14.255 7.1 -2.479
v  0 7.1 4.3475e-16
v  14.255 1.51795e-16 -2.479
v  0 0 0
v  14.683 0 0

# 0 UV coordinates

# 7 vertex normals
vn 0 1 0
vn -0.171332 0 -0.985213
vn -0.171332 6.03269e-17 -0.985213
vn 0 -6.12323e-17 1
vn 0.985421 1.04176e-17 -0.170133
vn 0.985421 0 -0.170133
vn -0 -1 -6.12323e-17

# Mesh 'defaultobject' with 8 faces
g defaultobject
usemtl DefaultMaterial
f  1//1 2//1 3//1
f  4//2 3//2 2//2
f  3//2 4//2 5//3
f  5//4 1//4 3//4
f  1//4 5//4 6//4
f  6//5 2//5 1//5
f  2//5 6//5 4//6
f  6//7 5//7 4//7

