# {"id":"ID_49034","idOriginal":"ID_49034","origin":[14.355831032774116,48.25783032920872],"elevation":251.002}
# Longitude: 14.355831032774116
# Latitude: 48.25783032920872
# Elevation: 251.002

# File produced by Open Asset Import Library (http://www.assimp.sf.net)
# (assimp v3.1.0)

mtllib ID_49034.obj.mtl

# 20 vertex positions
v  0 8.553 5.2372e-16
v  4.383 8.553 0.183
v  4.376 8.553 -0.145
v  4.434 8.553 1.444
v  4.45 8.553 1.7
v  4.495 8.553 2.958
v  4.502 8.553 3.267
v  4.165 8.553 3.268
v  2.286 8.553 3.345
v  0.136 8.553 3.434
v  4.502 -2.00046e-16 3.267
v  4.45 -1.04095e-16 1.7
v  4.495 -1.81125e-16 2.958
v  4.434 -8.84195e-17 1.444
v  4.383 -1.12055e-17 0.183
v  4.376 8.87869e-18 -0.145
v  0 0 0
v  0.136 -2.10272e-16 3.434
v  4.165 -2.00107e-16 3.268
v  2.286 -2.04822e-16 3.345

# 0 UV coordinates

# 22 vertex normals
vn -0 1 0
vn 0.999744 0 -0.0226478
vn 0.999361 -0.000473602 -0.0357483
vn 0.99945 0 -0.0331662
vn 0 1 6.12323e-17
vn 0.998053 0 -0.0623775
vn 0.999183 0 -0.0404111
vn 0.999772 0 -0.0213365
vn -0.0331171 0 -0.999451
vn -0.0331171 6.11988e-17 -0.999451
vn -0.999217 -2.42314e-18 0.0395729
vn -0.999217 0 0.0395729
vn 0.00296784 -0 0.999996
vn 0.0413599 -0 0.999144
vn 0.0409448 0.00010452 0.999161
vn 0.0411663 0 0.999152
vn 1.59905e-21 -1 -6.11929e-17
vn -5.31341e-23 -1 -6.12323e-17
vn 0 -1 -6.12323e-17
vn 0 -1 -6.12323e-17
vn 0 -1 -6.12323e-17
vn -1.16903e-23 -1 -6.12324e-17

# Mesh 'defaultobject' with 36 faces
g defaultobject
usemtl DefaultMaterial
f  1//1 2//1 3//1
f  2//1 1//1 4//1
f  4//1 1//1 5//1
f  5//1 1//1 6//1
f  6//1 1//1 7//1
f  7//1 1//1 8//1
f  8//1 1//1 9//1
f  9//1 1//1 10//1
f  11//2 6//2 7//2
f  6//3 11//3 5//3
f  5//4 11//4 12//4
f  12//5 11//5 13//5
f  12//6 4//6 5//6
f  4//6 12//6 14//6
f  14//7 2//7 4//7
f  2//7 14//7 15//7
f  15//8 3//8 2//8
f  3//8 15//8 16//8
f  16//9 1//9 3//9
f  1//9 16//9 17//10
f  17//11 10//11 1//11
f  10//11 17//11 18//12
f  19//13 7//13 8//13
f  7//13 19//13 11//13
f  18//14 9//14 10//14
f  9//15 18//15 8//15
f  8//16 18//16 19//16
f  19//17 18//17 20//17
f  11//18 19//17 13//18
f  16//19 18//17 17//19
f  18//17 16//19 15//20
f  18//17 15//20 14//21
f  18//17 14//21 12//22
f  18//17 12//22 13//18
f  18//17 13//18 20//17
f  20//17 13//18 19//17

