# {"id":"_51845","idOriginal":"_51845","origin":[14.25218521146265,48.30774479438336],"elevation":260.917,"wof":[{"Id":102049853,"Name":"Linz","Placetype":"county","Offset":-1},{"Id":85681677,"Name":"Oberösterreich","Placetype":"region","Offset":-1},{"Id":85898445,"Name":"St. Margarethen","Placetype":"neighbourhood","Offset":-1},{"Id":85632785,"Name":"Austria","Placetype":"country","Offset":-1},{"Id":101748071,"Name":"Linz","Placetype":"locality","Offset":-1}]}

# Attribution: City of Linz <http://geo.data.linz.gv.at/katalog/geodata/3d_geo_daten_lod2/>
# Longitude: 14.25218521146265
# Latitude: 48.30774479438336
# Elevation: 260.917

# File produced by Open Asset Import Library (http://www.assimp.sf.net)
# (assimp v3.1.0)


# 14 vertex positions
v  0.142 2.384 -1.28
v  7.978 2.384 -0.856
v  0.011 2.384 -1.833
v  0 2.384 1.45978e-16
v  5.333 2.384 -0.336
v  4.25 2.384 0.51
v  7.918 2.384 -0.031
v  7.918 1.8982e-18 -0.031
v  7.978 5.24149e-17 -0.856
v  0.011 1.12239e-16 -1.833
v  0.142 7.83774e-17 -1.28
v  0 0 0
v  5.333 2.05741e-17 -0.336
v  4.25 -3.12285e-17 0.51

# 0 UV coordinates

# 14 vertex normals
vn -0 1 0
vn 0.997366 -0 0.0725356
vn 0.121719 0 -0.992565
vn -0.97307 0 0.23051
vn -0.993903 0 -0.110261
vn -0.993903 6.75154e-18 -0.110261
vn -0.117176 0 0.993111
vn -0.119145 -6.07962e-17 0.992877
vn -0.119145 0 0.992877
vn 0.615602 -0 0.788058
vn 3.86735e-25 -1 -6.12323e-17
vn 3.27912e-25 -1 -6.12323e-17
vn 0 -1 -6.12323e-17
vn 7.69139e-25 -1 -6.12323e-17

# Mesh 'defaultobject' with 24 faces
g defaultobject
usemtl DefaultMaterial
f  1//1 2//1 3//1
f  2//1 1//1 4//1
f  2//1 4//1 5//1
f  5//1 4//1 6//1
f  2//1 5//1 7//1
f  8//2 2//2 7//2
f  2//2 8//2 9//2
f  9//3 3//3 2//3
f  3//3 9//3 10//3
f  10//4 1//4 3//4
f  1//4 10//4 11//4
f  11//5 4//5 1//5
f  4//5 11//5 12//6
f  13//7 7//7 5//7
f  7//7 13//7 8//7
f  12//8 6//8 4//8
f  6//8 12//8 14//9
f  14//10 5//10 6//10
f  5//10 14//10 13//10
f  9//11 11//11 10//11
f  11//11 9//11 12//12
f  12//12 9//11 13//13
f  12//12 13//13 14//13
f  13//13 9//11 8//14

