# {"id":"ID_41333","idOriginal":"ID_41333","origin":[14.289301111377187,48.25890547887581],"elevation":264.38,"wof":[{"Id":102049853,"Name":"Linz","Placetype":"county","Offset":-1},{"Id":85898435,"Name":"Oed","Placetype":"neighbourhood","Offset":-1},{"Id":101748071,"Name":"Linz","Placetype":"locality","Offset":-1},{"Id":85681677,"Name":"Oberösterreich","Placetype":"region","Offset":-1},{"Id":85632785,"Name":"Austria","Placetype":"country","Offset":-1}]}

# Attribution: City of Linz <http://geo.data.linz.gv.at/katalog/geodata/3d_geo_daten_lod2/>
# Longitude: 14.289301111377187
# Latitude: 48.25890547887581
# Elevation: 264.38

# File produced by Open Asset Import Library (http://www.assimp.sf.net)
# (assimp v3.1.0)


# 8 vertex positions
v  9.526 6.306 -1.28
v  0.437 5.907 2.757
v  9.978 5.907 1.52
v  0 6.3 3.85764e-16
v  9.526 7.83774e-17 -1.28
v  9.978 -9.30732e-17 1.52
v  0 0 0
v  0.437 -1.68818e-16 2.757

# 0 UV coordinates

# 11 vertex normals
vn 0.0179199 0.99024 0.138216
vn 0.0179604 0.990227 0.138306
vn 0.98722 0 -0.159365
vn 0.98722 0 -0.159365
vn -0.133172 0 -0.991093
vn -0.133172 6.06869e-17 -0.991093
vn -0.98767 -9.586e-18 0.156551
vn -0.98767 0 0.156551
vn 0.128575 -0 0.9917
vn 0 -1 -6.12323e-17
vn -9.86848e-25 -1 -6.12324e-17

# Mesh 'defaultobject' with 12 faces
g defaultobject
usemtl DefaultMaterial
f  1//1 2//1 3//1
f  2//2 1//2 4//2
f  3//3 5//3 1//3
f  5//3 3//3 6//4
f  5//5 4//5 1//5
f  4//5 5//5 7//6
f  7//7 2//7 4//7
f  2//7 7//7 8//8
f  8//9 3//9 2//9
f  3//9 8//9 6//9
f  8//10 5//10 6//10
f  5//10 8//10 7//11

