# {"id":"ID_4884","idOriginal":"ID_4884","origin":[14.296941130741082,48.28737583164562],"elevation":261.66}
# Longitude: 14.296941130741082
# Latitude: 48.28737583164562
# Elevation: 261.66

# File produced by Open Asset Import Library (http://www.assimp.sf.net)
# (assimp v3.1.0)

mtllib ID_4884.obj.mtl

# 114 vertex positions
v  7.923 15.39 -5.605
v  4.003 15.39 0.997
v  9.827 15.39 -2.637
v  2.098 15.39 -1.97
v  3.024 15.39 -0.527
v  2.098 1.20628e-16 -1.97
v  4.003 -6.10486e-17 0.997
v  3.024 3.22694e-17 -0.527
v  9.827 1.6147e-16 -2.637
v  7.923 3.43207e-16 -5.605
v  12.241 15.717 -8.3
v  21.923 15.727 -3.481
v  16.981 15.722 -11.257
v  14.145 15.719 -5.332
v  15.683 15.72 -2.936
v  17.218 15.72 -0.544
v  11.364 15.72 -0.242
v  12.899 15.72 2.15
v  18.301 14.698 1.89
v  18.64 14.7 1.671
v  22.509 14.731 -0.829
v  23.288 14.737 -1.333
v  10.265 15.73 15.995
v  16.793 15.73 8.217
v  8.568 15.73 13.35
v  18.473 15.73 10.836
v  10.52 15.73 15.835
v  21.23 15.014 9.103
v  21.373 14.975 9.004
v  19.635 14.993 6.444
v  14.447 15.73 4.562
v  17.898 15.011 3.885
v  17.51 15.016 3.323
v  17.677 14.892 2.547
v  17.741 14.845 2.252
v  16.981 6.89292e-16 -11.257
v  21.923 2.1315e-16 -3.481
v  23.288 8.16227e-17 -1.333
v  21.373 -5.51336e-16 9.004
v  17.898 -2.37888e-16 3.885
v  17.51 -2.03475e-16 3.323
v  19.635 -3.94581e-16 6.444
v  12.241 5.08228e-16 -8.3
v  15.683 1.79778e-16 -2.936
v  11.364 1.48182e-17 -0.242
v  16.793 -5.03146e-16 8.217
v  8.568 -8.17452e-16 13.35
v  14.145 3.26491e-16 -5.332
v  12.899 -1.3165e-16 2.15
v  14.447 -2.79342e-16 4.562
v  10.265 -9.79411e-16 15.995
v  10.52 -9.69614e-16 15.835
v  21.23 -5.57398e-16 9.103
v  18.473 -6.63514e-16 10.836
v  17.741 -1.37895e-16 2.252
v  18.301 -1.15729e-16 1.89
v  18.64 -1.02319e-16 1.671
v  22.509 5.07616e-17 -0.829
v  17.677 -1.55959e-16 2.547
v  3.139 15.33 4.891
v  7.075 15.33 5.785
v  5.54 15.33 3.393
v  6.222 15.33 9.695
v  8.623 15.33 8.197
v  3.139 -2.99487e-16 4.891
v  6.222 -5.93648e-16 9.695
v  8.623 -5.01921e-16 8.197
v  5.54 -2.07761e-16 3.393
v  7.075 -3.54229e-16 5.785
v  8.568 18.75 13.35
v  8.623 18.75 8.197
v  6.222 18.75 9.695
v  14.447 18.75 4.562
v  16.793 18.75 8.217
v  7.075 18.75 5.785
v  11.364 18.75 -0.242
v  5.54 18.75 3.393
v  12.899 18.75 2.15
v  1.601 18.75 2.495
v  3.024 18.75 -0.527
v  0.623 18.75 0.971
v  4.003 18.75 0.997
v  3.139 18.75 4.891
v  9.827 18.75 -2.637
v  14.145 18.75 -5.332
v  15.683 18.75 -2.936
v  12.241 18.75 -8.3
v  7.923 18.75 -5.605
v  0.623 -5.94566e-17 0.971
v  1.601 -1.52775e-16 2.495
v  3.024 13.01 -0.527
v  0 13.01 7.96633e-16
v  0.623 13.01 0.971
v  0.133 13.01 -0.744
v  0.312 13.01 -1.742
v  0.403 13.01 -2.253
v  0.586 13.01 -2.367
v  2.098 13.01 -1.97
v  12.585 13.01 -9.854
v  7.923 13.01 -5.605
v  12.241 13.01 -8.3
v  16.981 13.01 -11.257
v  16.006 13.01 -11.989
v  16.022 13.01 -11.999
v  16.371 13.01 -12.217
v  16.371 7.48075e-16 -12.217
v  0.403 1.37956e-16 -2.253
v  16.022 7.34727e-16 -11.999
v  16.006 7.34115e-16 -11.989
v  12.585 6.03383e-16 -9.854
v  0.586 1.44937e-16 -2.367
v  0.133 4.55569e-17 -0.744
v  0 0 0
v  0.312 1.06667e-16 -1.742

# 0 UV coordinates

# 150 vertex normals
vn 0 1 -0
vn -0.841614 0 0.540079
vn -0.841358 -5.28421e-05 0.540479
vn -0.841483 0 0.540284
vn 0 1 6.12249e-17
vn 0.52937 -0 0.848391
vn 0.841694 0 -0.539955
vn -0.52941 0 -0.848366
vn -1.06446e-24 -1 -6.12323e-17
vn 0 -1 -6.12323e-17
vn -5.46679e-25 -1 -6.12323e-17
vn -0.00104263 0.999999 1.96227e-05
vn -0.00102467 1 -1.64698e-05
vn -0.00109677 0.999999 0.000286487
vn -0.00106225 0.999999 0.000681671
vn 0.191167 0.932484 0.306477
vn 0.192183 0.932431 0.306003
vn 0.19082 0.932425 0.306875
vn 0.190812 0.932089 0.307898
vn 0.191849 0.931967 0.307623
vn 0.180759 0.976669 -0.115951
vn 0.181783 0.975765 -0.121812
vn 0.180922 0.976637 -0.115962
vn 0.180849 0.976637 -0.11608
vn 0.180764 0.976682 -0.115829
vn 0.179971 0.97638 -0.119552
vn 0.178319 0.977298 -0.114415
vn 0.17904 0.976794 -0.117555
vn 0.178995 0.976891 -0.116808
vn 0.178993 0.976547 -0.119658
vn 0.843974 0 -0.536384
vn 0.843996 -2.3984e-05 -0.536349
vn 0.843974 8.68125e-06 -0.536384
vn 0.844001 0 -0.536341
vn 0.827347 0 -0.561691
vn 0.827395 1.77494e-05 -0.56162
vn 0.822911 -0.00325082 -0.568161
vn 0.827371 0.000357627 -0.561655
vn 0.822929 0 -0.568144
vn -3.2199e-19 -1 -6.0985e-17
vn -0.529291 0 -0.848441
vn -0.529239 0 -0.848472
vn -0.529433 0 -0.848352
vn -0.841694 0 0.539955
vn -0.841544 -6.25152e-05 0.540189
vn -0.841627 0 0.540059
vn -1.892e-20 1 6.1225e-17
vn -0.841613 0 0.540082
vn -0.841586 -8.78475e-06 0.540123
vn -0.84156 -2.66347e-05 0.540164
vn -0.841582 0 0.540129
vn 1.32169e-19 1 6.10623e-17
vn -3.45864e-19 1 6.13908e-17
vn -0.841664 0 0.540002
vn 0.531491 -0 0.847064
vn 0.532169 -1.53407e-05 0.846638
vn 0.532174 -1.90522e-05 0.846635
vn 0.531492 0.000676883 0.847063
vn 0.532172 0 0.846637
vn 5.10839e-19 1 6.23223e-17
vn 0.569211 -0 0.822192
vn 0.542877 -0 0.839812
vn 0.542636 1.30354e-05 0.839968
vn 0.54272 5.75956e-06 0.839914
vn 0.543208 -0.000218261 0.839598
vn 0.542877 -4.15363e-05 0.839812
vn 0.54279 0 0.839868
vn 0 1 6.14115e-17
vn 5.34018e-21 1 6.12358e-17
vn 0.977618 -0 0.210389
vn 0.977269 8.79051e-05 0.212001
vn 0.977521 0 0.210837
vn 2.90645e-20 -1 -6.12265e-17
vn 1.11924e-22 -1 -6.12324e-17
vn 0 -1 -6.12323e-17
vn -1.75502e-24 -1 -6.12323e-17
vn 2.61249e-24 -1 -6.12323e-17
vn 0 -1 -6.12323e-17
vn 1.10289e-23 -1 -6.12324e-17
vn -1.70876e-23 -1 -6.12323e-17
vn 1.894e-24 -1 -6.12323e-17
vn -5.43857e-24 -1 -6.12323e-17
vn -1.04968e-24 -1 -6.12323e-17
vn -4.03671e-24 -1 -6.12323e-17
vn 1.71363e-24 -1 -6.12323e-17
vn -5.42349e-24 -1 -6.12324e-17
vn -3.72316e-24 -1 -6.12323e-17
vn -2.05703e-24 -1 -6.12323e-17
vn -0.841599 0 0.540102
vn 0.529332 -0 0.848415
vn 0.841586 0 -0.540123
vn 0.841613 9.11641e-06 -0.540082
vn 0.841599 0 -0.540102
vn 1.3328e-19 -1 -6.13088e-17
vn -0.529332 0 -0.848415
vn 3.27744e-24 -1 -6.12323e-17
vn -0.841586 0 0.540123
vn -0.841613 -7.45358e-06 0.540082
vn -0.841586 7.39155e-06 0.540123
vn -0.841613 0 0.540082
vn -0.84156 0 0.540164
vn -0.841694 0 0.539955
vn -0.841609 0 0.540088
vn -0.841543 -1.16833e-05 0.540189
vn -0.841569 0 0.54015
vn 0 1 6.12361e-17
vn -0.529332 0 -0.848415
vn -0.529469 0 -0.848329
vn -0.52937 0 -0.848391
vn -0.529332 0 -0.848415
vn 0.529433 -0 0.848352
vn 0.529239 -0 0.848472
vn 0.529332 -0 0.848415
vn 0.84156 0 -0.540164
vn 0.841586 1.14023e-05 -0.540123
vn 0.841613 3.00649e-05 -0.540082
vn 0.841582 0 -0.540129
vn 0.841544 0 -0.540189
vn 0.841694 4.23131e-05 -0.539955
vn 0.841627 0 -0.54006
vn 0.841358 0 -0.540478
vn -5.16567e-24 -1 -6.12323e-17
vn 0.529291 0 0.84844
vn 0.529469 9.0268e-05 0.848329
vn 0.52941 3.27968e-05 0.848366
vn 0.529291 -0.000156192 0.84844
vn 0.529435 0 0.848351
vn 0 1 6.12268e-17
vn 0.529332 -0 0.848415
vn 0.844023 0 -0.536307
vn 0.841614 0 -0.540079
vn -0.52978 0 -0.848135
vn -0.529999 -8.15865e-06 -0.847998
vn -0.529442 1.358e-05 -0.848346
vn -0.52937 4.26761e-05 -0.848391
vn -0.528747 0.00109056 -0.848778
vn -0.529387 -0 -0.84838
vn 2.36218e-19 -1 -6.09442e-17
vn -1.63268e-18 -1 -6.20419e-17
vn 7.63565e-20 -1 -6.10852e-17
vn -4.88707e-20 -1 -6.13075e-17
vn -0.984511 0 -0.175324
vn -0.984293 4.9353e-05 -0.176542
vn -0.984395 -1.86096e-05 -0.175974
vn -0.984367 9.17656e-06 -0.176129
vn -0.984395 1.07753e-17 -0.175974
vn 0 -1 -6.12335e-17
vn -0.841657 -3.30662e-17 0.540013
vn -0.841657 0 0.540013
vn -1.01351e-24 -1 -6.12323e-17

# Mesh 'defaultobject' with 254 faces
g defaultobject
usemtl DefaultMaterial
f  1//1 2//1 3//1
f  2//1 1//1 4//1
f  2//1 4//1 5//1
f  6//2 5//2 4//2
f  5//3 6//3 2//3
f  2//4 6//4 7//4
f  7//5 6//5 8//5
f  7//6 3//6 2//6
f  3//6 7//6 9//6
f  9//7 1//7 3//7
f  1//7 9//7 10//7
f  10//8 4//8 1//8
f  4//8 10//8 6//8
f  8//9 9//9 7//9
f  9//9 8//9 6//10
f  9//9 6//10 10//11
f  11//12 12//12 13//12
f  12//13 11//13 14//13
f  12//14 14//14 15//14
f  12//15 15//15 16//15
f  16//1 15//1 17//1
f  16//1 17//1 18//1
f  19//16 16//16 18//16
f  16//17 19//17 20//17
f  16//18 20//18 21//18
f  16//19 21//19 12//19
f  12//20 21//20 22//20
f  23//1 24//1 25//1
f  24//1 23//1 26//1
f  26//1 23//1 27//1
f  26//21 28//21 24//21
f  29//22 24//22 28//22
f  30//23 24//23 29//23
f  31//24 24//24 30//24
f  32//25 31//25 30//25
f  18//26 31//26 32//26
f  33//27 18//27 32//27
f  34//28 18//28 33//28
f  35//29 18//29 34//29
f  19//30 18//30 35//30
f  12//31 36//31 13//31
f  36//32 12//32 22//32
f  36//31 22//33 37//33
f  37//34 22//34 38//34
f  39//35 30//35 29//35
f  30//36 39//36 32//36
f  32//37 39//37 33//37
f  33//38 39//38 40//38
f  33//39 40//39 41//39
f  40//40 39//40 42//40
f  36//41 11//41 13//41
f  11//41 36//41 43//41
f  44//42 17//42 15//42
f  17//42 44//42 45//42
f  46//43 25//43 24//43
f  25//43 46//43 47//43
f  43//44 14//44 11//44
f  14//45 43//45 15//45
f  15//46 43//46 44//46
f  44//47 43//47 48//47
f  45//48 18//48 17//48
f  18//49 45//49 31//49
f  31//50 45//50 24//50
f  24//51 45//51 46//51
f  46//52 45//52 49//52
f  46//52 49//52 50//53
f  47//54 23//54 25//54
f  23//54 47//54 51//54
f  51//55 27//55 23//55
f  27//56 51//56 26//56
f  26//56 51//56 28//57
f  28//58 51//58 52//58
f  28//59 52//59 53//59
f  53//60 52//60 54//60
f  53//61 29//61 28//61
f  29//61 53//61 39//61
f  55//62 19//62 35//62
f  19//63 55//63 20//63
f  20//64 55//64 21//64
f  21//65 55//65 22//65
f  22//66 55//66 56//66
f  22//67 56//67 38//67
f  38//68 56//68 57//68
f  38//68 57//68 58//69
f  41//70 34//70 33//70
f  34//71 41//71 35//71
f  35//72 41//72 55//72
f  55//73 41//73 59//73
f  51//74 47//74 52//74
f  54//75 52//74 47//74
f  46//76 54//75 47//74
f  53//77 54//75 46//76
f  50//78 53//77 46//76
f  39//40 53//77 50//78
f  42//40 39//40 50//78
f  49//79 42//40 50//78
f  40//40 42//40 49//79
f  45//80 40//40 49//79
f  41//73 40//40 45//80
f  59//73 41//73 45//80
f  55//73 59//73 45//80
f  44//81 55//73 45//80
f  56//82 55//73 44//81
f  57//78 56//82 44//81
f  58//83 57//78 44//81
f  48//84 58//83 44//81
f  38//85 58//83 48//84
f  43//86 38//85 48//84
f  37//87 38//85 43//86
f  36//88 37//87 43//86
f  60//1 61//1 62//1
f  61//1 60//1 63//1
f  61//1 63//1 64//1
f  65//89 63//89 60//89
f  63//89 65//89 66//89
f  66//90 64//90 63//90
f  64//90 66//90 67//90
f  67//91 61//91 64//91
f  61//92 67//92 62//92
f  62//93 67//93 68//93
f  68//94 67//94 69//94
f  68//95 60//95 62//95
f  60//95 68//95 65//95
f  68//94 66//96 65//96
f  66//96 68//94 69//94
f  66//96 69//94 67//94
f  70//1 71//1 72//1
f  71//1 70//1 73//1
f  73//1 70//1 74//1
f  75//1 76//1 77//1
f  76//1 75//1 78//1
f  78//1 75//1 71//1
f  78//1 71//1 73//1
f  79//1 80//1 81//1
f  80//1 79//1 82//1
f  82//1 79//1 83//1
f  82//1 83//1 84//1
f  84//1 83//1 85//1
f  85//1 83//1 76//1
f  85//1 76//1 86//1
f  76//1 83//1 77//1
f  84//1 87//1 88//1
f  87//1 84//1 85//1
f  75//97 67//97 71//97
f  67//98 75//98 77//98
f  67//97 77//99 69//99
f  69//100 77//98 68//100
f  66//101 70//101 72//101
f  70//101 66//101 47//101
f  10//102 84//102 88//102
f  84//102 10//102 9//102
f  89//103 79//103 81//103
f  79//104 89//104 83//104
f  83//105 89//105 65//105
f  65//106 89//106 90//106
f  67//107 72//107 71//107
f  72//107 67//107 66//107
f  43//108 88//108 87//108
f  88//108 43//108 10//108
f  9//109 82//109 84//109
f  82//109 9//109 7//109
f  8//110 81//110 80//110
f  81//110 8//110 89//110
f  47//111 74//111 70//111
f  74//111 47//111 46//111
f  45//112 86//112 76//112
f  86//112 45//112 44//112
f  65//113 77//113 83//113
f  77//113 65//113 68//113
f  46//114 73//114 74//114
f  73//115 46//115 78//115
f  78//116 46//116 76//116
f  76//117 46//117 45//117
f  45//80 46//76 49//79
f  49//79 46//76 50//78
f  44//118 85//118 86//118
f  85//119 44//119 87//119
f  87//120 44//120 43//120
f  43//86 44//81 48//84
f  7//121 80//121 82//121
f  80//121 7//121 8//121
f  8//9 90//122 89//122
f  90//122 8//9 65//96
f  65//96 8//9 68//94
f  68//94 8//9 7//9
f  68//94 7//9 9//9
f  68//94 9//9 69//94
f  69//94 9//9 67//94
f  43//86 9//9 10//11
f  9//9 43//86 45//80
f  45//80 43//86 48//84
f  45//80 48//84 44//81
f  67//94 47//74 66//96
f  47//74 67//94 46//76
f  46//76 67//94 50//78
f  50//78 67//94 49//79
f  49//79 67//94 9//9
f  49//79 9//9 45//80
f  91//1 92//1 93//1
f  92//1 91//1 94//1
f  94//1 91//1 95//1
f  95//1 91//1 96//1
f  96//1 91//1 97//1
f  97//1 91//1 98//1
f  97//1 98//1 99//1
f  99//1 98//1 100//1
f  99//1 100//1 101//1
f  99//1 101//1 102//1
f  99//1 102//1 103//1
f  103//1 102//1 104//1
f  104//1 102//1 105//1
f  101//123 36//123 102//123
f  36//124 101//124 100//124
f  36//125 100//125 98//125
f  36//126 98//126 43//126
f  43//127 98//127 6//127
f  43//47 6//5 10//128
f  89//129 91//129 93//129
f  91//129 89//129 8//129
f  36//130 105//130 102//130
f  105//130 36//130 106//130
f  8//131 98//131 91//131
f  98//131 8//131 6//131
f  106//132 104//132 105//132
f  104//133 106//133 103//133
f  103//134 106//134 99//134
f  99//135 106//135 97//135
f  97//136 106//136 96//136
f  96//137 106//137 107//137
f  107//138 106//138 108//138
f  107//138 108//138 109//139
f  107//138 109//139 110//140
f  107//138 110//140 111//141
f  107//142 95//142 96//142
f  95//143 107//143 94//143
f  94//144 107//144 92//144
f  92//145 107//145 112//145
f  92//146 112//146 113//146
f  112//147 107//138 114//147
f  113//148 93//148 92//148
f  93//148 113//148 89//149
f  113//150 8//9 89//122
f  8//9 113//150 112//147
f  8//9 112//147 114//147
f  8//9 114//147 107//138
f  8//9 107//138 111//141
f  8//9 111//141 6//10
f  6//10 111//141 110//140
f  6//10 110//140 10//11
f  10//11 110//140 43//86
f  43//86 110//140 36//88
f  36//88 110//140 109//139
f  36//88 109//139 108//138
f  36//88 108//138 106//138

