# {"id":"ID_6650","idOriginal":"ID_6650","origin":[14.343701149319719,48.32650889518371],"elevation":284.848}
# Longitude: 14.343701149319719
# Latitude: 48.32650889518371
# Elevation: 284.848

# File produced by Open Asset Import Library (http://www.assimp.sf.net)
# (assimp v3.1.0)

mtllib ID_6650.obj.mtl

# 47 vertex positions
v  5.312 6.932 -1.38
v  2.708 4.639 9.77
v  8.062 6.942 8.38
v  0 4.647 2.84547e-16
v  0 0 0
v  2.708 -5.9824e-16 9.77
v  8.062 -5.13127e-16 8.38
v  5.312 8.45006e-17 -1.38
v  11.058 8.622 -2.873
v  18.961 6.772 3.809
v  16.707 6.76 -4.34
v  15.406 8.622 12.582
v  20.778 6.782 10.378
v  21.004 6.777 11.128
v  8.062 6.729 8.38
v  5.312 6.728 -1.38
v  8.255 6.793 8.33
v  8.523 6.775 9.489
v  9.211 6.73 12.459
v  9.75 6.822 13.305
v  9.47 6.729 13.392
v  9.94 6.821 14.002
v  9.94 -8.57375e-16 14.002
v  15.406 -7.70425e-16 12.582
v  21.004 -6.81393e-16 11.128
v  8.255 -5.10065e-16 8.33
v  9.75 -8.14696e-16 13.305
v  9.47 -8.20024e-16 13.392
v  20.778 -6.35469e-16 10.378
v  18.961 -2.33234e-16 3.809
v  16.707 2.65748e-16 -4.34
v  11.058 1.75921e-16 -2.873
v  9.211 -7.62894e-16 12.459
v  8.523 -5.81034e-16 9.489
v  9.47 6.945 13.392
v  9.211 6.946 12.459
v  9.43 6.928 13.405
v  9.43 -8.20819e-16 13.405
v  11.609 3.3 20.121
v  15.406 3.3 12.582
v  9.94 3.3 14.002
v  18.961 3.3 15.71
v  21.004 3.3 11.128
v  21.859 3.3 13.971
v  11.609 -1.23206e-15 20.121
v  18.961 -9.6196e-16 15.71
v  21.859 -8.55477e-16 13.971

# 0 UV coordinates

# 71 vertex normals
vn -0.370254 0.92316 0.103378
vn -0.370249 0.923162 0.10338
vn -0.963668 -1.63554e-17 0.267105
vn -0.963668 0 0.267105
vn 0.251288 0 0.967912
vn 0.251288 0 0.967912
vn 0.962522 0 -0.271203
vn -0.251443 0 -0.967872
vn -0.251443 5.92651e-17 -0.967872
vn 1.90309e-24 -1 -6.12323e-17
vn -5.66425e-24 -1 -6.12323e-17
vn 0.292632 0.952673 -0.0823443
vn 0.292615 0.95268 -0.0823222
vn 0.292525 0.952704 -0.0823635
vn 0.292727 0.952686 -0.0818569
vn -0.292623 0.952675 0.0823526
vn -0.294556 0.952132 0.0817468
vn -0.292614 0.95268 0.0823221
vn -0.292696 0.952642 0.0824764
vn -0.292593 0.952696 0.082214
vn -0.292589 0.952645 0.0828158
vn -0.291157 0.953168 0.0818464
vn -0.292819 0.952715 0.0811882
vn 0.251441 -0 0.967873
vn 0.251402 2.64967e-05 0.967883
vn 0.251441 -4.17125e-05 0.967873
vn 0.251394 0 0.967885
vn 0.250789 0 0.968042
vn 0.250789 0 0.968042
vn 0.296721 0 0.954964
vn 0.296721 0 0.954964
vn 0.957474 0 -0.288519
vn 0.957474 0 -0.288519
vn 0.96381 0 -0.266592
vn 0.96381 0 -0.266592
vn 0.963811 0 -0.266588
vn -0.251355 0 -0.967895
vn -0.25146 -7.35621e-05 -0.967868
vn -0.251355 0.000116577 -0.967895
vn -0.251482 -0 -0.967862
vn -0.962522 0 0.271203
vn -0.962522 0 0.271203
vn -0.974292 0 0.225289
vn -0.974203 -6.9264e-05 0.225673
vn -0.974228 0 0.225566
vn 7.38303e-20 1 6.1233e-17
vn -0.963562 0 0.267484
vn -0.964796 0 0.263
vn 0 -1 -6.12323e-17
vn 1.06482e-23 -1 -6.12323e-17
vn -9.47231e-23 -1 -6.12322e-17
vn 0 -1 -6.12323e-17
vn -6.79421e-24 -1 -6.12323e-17
vn -8.11041e-24 -1 -6.12323e-17
vn -2.65091e-22 -1 -6.12323e-17
vn 1.03927e-22 -1 -6.12324e-17
vn 1.50119e-22 -1 -6.12324e-17
vn 0.963562 0 -0.267484
vn -0.974235 0 0.225536
vn -0.974235 0 0.225536
vn 0.309076 0 0.951037
vn 0.309076 0 0.951037
vn 0 1 0
vn 0.514479 -0 0.857503
vn 0.51454 0 0.857467
vn 0.957631 0 -0.287997
vn -0.251394 0 -0.967885
vn -0.251441 -0 -0.967873
vn -0.964757 0 0.263144
vn -3.26591e-23 -1 -6.12324e-17
vn 2.73744e-24 -1 -6.12323e-17

# Mesh 'defaultobject' with 90 faces
g defaultobject
usemtl DefaultMaterial
f  1//1 2//1 3//1
f  2//1 1//1 4//2
f  5//3 2//3 4//3
f  2//3 5//3 6//4
f  2//5 7//5 3//5
f  7//5 2//5 6//6
f  7//7 1//7 3//7
f  1//7 7//7 8//7
f  8//8 4//8 1//8
f  4//8 8//8 5//9
f  8//10 6//10 5//10
f  6//10 8//10 7//11
f  9//12 10//12 11//12
f  10//13 9//13 12//13
f  10//14 12//14 13//14
f  13//15 12//15 14//15
f  15//16 9//16 16//16
f  9//17 15//17 17//17
f  9//18 17//18 12//18
f  12//19 17//19 18//19
f  12//20 18//20 19//20
f  12//21 19//21 20//21
f  20//22 19//22 21//22
f  12//23 20//23 22//23
f  23//24 12//24 22//24
f  12//25 23//25 14//25
f  14//26 23//26 24//26
f  14//27 24//27 25//27
f  15//28 26//28 17//28
f  26//28 15//28 7//29
f  21//30 27//30 20//30
f  27//30 21//30 28//31
f  14//32 29//32 13//32
f  29//32 14//32 25//33
f  29//34 10//34 13//34
f  10//34 29//34 30//35
f  10//34 30//35 11//36
f  11//36 30//35 31//36
f  31//37 9//37 11//37
f  9//38 31//38 16//38
f  16//39 31//39 32//39
f  16//40 32//40 8//40
f  16//41 7//41 15//41
f  7//41 16//41 8//42
f  26//43 18//43 17//43
f  18//44 26//44 19//44
f  19//45 26//45 33//45
f  33//46 26//46 34//46
f  33//47 21//47 19//47
f  21//47 33//47 28//47
f  27//48 22//48 20//48
f  22//48 27//48 23//48
f  30//49 32//49 31//49
f  32//49 30//49 29//50
f  32//49 29//50 8//10
f  8//10 29//50 25//51
f  8//10 25//51 24//52
f  8//10 24//52 26//49
f  8//10 26//49 7//11
f  24//52 27//53 26//49
f  27//53 24//52 23//54
f  26//49 27//53 34//55
f  34//55 27//53 33//56
f  28//57 33//56 27//53
f  35//58 33//58 36//58
f  33//58 35//58 28//58
f  33//59 37//59 36//59
f  37//59 33//59 38//60
f  37//61 28//61 35//61
f  28//61 37//61 38//62
f  39//63 40//63 41//63
f  40//63 39//63 42//63
f  40//63 42//63 43//63
f  43//63 42//63 44//63
f  45//64 42//64 39//64
f  42//64 45//64 46//64
f  42//65 46//65 44//65
f  44//65 46//65 47//65
f  47//66 43//66 44//66
f  43//66 47//66 25//66
f  25//67 40//67 43//67
f  40//67 25//67 24//67
f  40//68 24//68 41//68
f  41//68 24//68 23//68
f  23//69 39//69 41//69
f  39//69 23//69 45//69
f  46//70 25//51 47//70
f  25//51 46//70 24//52
f  24//52 46//70 45//71
f  24//52 45//71 23//54

