# {"id":"ID_3242","idOriginal":"ID_3242","origin":[14.30030901122932,48.31354945105188],"elevation":255.94,"wof":[{"Id":85681677,"Name":"Oberösterreich","Placetype":"region","Offset":-1},{"Id":85898449,"Name":"Steeg","Placetype":"neighbourhood","Offset":-1},{"Id":102049853,"Name":"Linz","Placetype":"county","Offset":-1},{"Id":85632785,"Name":"Austria","Placetype":"country","Offset":-1},{"Id":101748071,"Name":"Linz","Placetype":"locality","Offset":-1}]}

# Attribution: City of Linz <http://geo.data.linz.gv.at/katalog/geodata/3d_geo_daten_lod2/>
# Longitude: 14.30030901122932
# Latitude: 48.31354945105188
# Elevation: 255.94

# File produced by Open Asset Import Library (http://www.assimp.sf.net)
# (assimp v3.1.0)


# 26 vertex positions
v  5.965 6.53043e-16 -10.665
v  5.988 7.01 -10.705
v  5.965 7.01 -10.665
v  5.988 6.55492e-16 -10.705
v  5.718 6.988 -10.859
v  5.718 6.64922e-16 -10.859
v  5.697 6.988 -10.822
v  5.697 6.62656e-16 -10.822
v  23.444 8.41 -0.712
v  34.759 7.017 19.862
v  40.809 7.017 9.229
v  19.242 8.259 11.064
v  17.355 8.41 9.981
v  6.007 7.012 -10.694
v  6.061 7.018 -10.609
v  0 7.017 4.29667e-16
v  15.458 8.258 8.892
v  34.759 -1.2162e-15 19.862
v  19.242 -6.77475e-16 11.064
v  17.355 -6.1116e-16 9.981
v  15.458 -5.44478e-16 8.892
v  0 0 0
v  6.061 6.49614e-16 -10.609
v  40.809 -5.65113e-16 9.229
v  23.444 4.35974e-17 -0.712
v  6.007 6.54819e-16 -10.694

# 0 UV coordinates

# 36 vertex normals
vn 0.866908 -0 0.498468
vn 0.495447 0 -0.868638
vn -0.869685 0 -0.493607
vn -0.505473 0 0.862843
vn -0.505473 0 0.862843
vn 0.0603632 0.997585 0.0343456
vn 0.0603793 0.997585 0.0343367
vn 0.060166 0.9976 0.0342608
vn -0.0652553 0.997537 -0.0257163
vn 0.0509949 0.972704 -0.226377
vn -0.0603185 0.997587 -0.0343664
vn -0.0603186 0.997587 -0.0343681
vn -0.0602411 0.997594 -0.0343035
vn -0.493226 0 0.869901
vn -0.497771 0 0.867308
vn -0.49786 -2.63292e-05 0.867258
vn -0.497771 2.74421e-05 0.867308
vn -0.498611 -0.000229103 0.866826
vn -0.49786 0.00223868 0.867255
vn -0.498625 0 0.866818
vn -0.50387 0 0.863779
vn 0.869157 -0 0.494536
vn 0.496822 0 -0.867852
vn 0.496822 0 -0.867852
vn 0.496814 0 -0.867857
vn -0.568196 0 -0.822893
vn -0.568196 -0 -0.822893
vn -0.868289 0 -0.49606
vn -0.868288 3.03749e-17 -0.49606
vn 0 -1 -6.12311e-17
vn -2.04185e-20 -1 -6.11969e-17
vn 0 -1 -6.12323e-17
vn 1.72949e-24 -1 -6.12323e-17
vn -4.1314e-22 -1 -6.12315e-17
vn 1.01464e-21 -1 -6.12337e-17
vn -3.12824e-21 -1 -6.12275e-17

# Mesh 'defaultobject' with 44 faces
g defaultobject
usemtl DefaultMaterial
f  1//1 2//1 3//1
f  2//1 1//1 4//1
f  4//2 5//2 2//2
f  5//2 4//2 6//2
f  6//3 7//3 5//3
f  7//3 6//3 8//3
f  7//4 1//4 3//4
f  1//4 7//4 8//5
f  9//6 10//6 11//6
f  10//7 9//7 12//7
f  12//8 9//8 13//8
f  14//9 3//9 9//9
f  15//10 9//10 3//10
f  16//11 9//11 15//11
f  17//12 9//11 16//11
f  13//13 9//13 17//13
f  12//14 18//14 10//14
f  18//14 12//14 19//14
f  19//15 12//15 13//15
f  19//16 13//16 17//16
f  19//17 17//17 20//17
f  20//18 17//18 16//18
f  20//19 16//19 21//19
f  21//20 16//20 22//20
f  3//21 23//21 15//21
f  23//21 3//21 1//21
f  18//22 11//22 10//22
f  11//22 18//22 24//22
f  24//23 9//23 11//23
f  9//23 24//23 25//24
f  9//23 25//24 14//25
f  14//25 25//24 26//25
f  26//26 3//26 14//26
f  3//26 26//26 1//27
f  23//28 16//28 15//28
f  16//28 23//28 22//29
f  25//30 1//30 26//30
f  1//30 25//30 23//31
f  23//31 25//30 22//32
f  22//32 25//30 24//32
f  22//32 24//32 18//33
f  22//32 18//33 21//34
f  21//34 18//33 20//35
f  20//35 18//33 19//36

