# {"id":"ID_21480","idOriginal":"ID_21480","origin":[14.283641817971228,48.27477272882744],"elevation":279.411}
# Longitude: 14.283641817971228
# Latitude: 48.27477272882744
# Elevation: 279.411

# File produced by Open Asset Import Library (http://www.assimp.sf.net)
# (assimp v3.1.0)

mtllib ID_21480.obj.mtl

# 20 vertex positions
v  12.745 6.66 -8.397
v  12.925 2.47 -0.916
v  16.513 2.497 -5.5
v  11.816 3.715 -1.805
v  3.781 6.66 2.932
v  6.414 3.742 4.973
v  10.101 3.739 -10.429
v  0 2.469 1.51183e-16
v  8.739 2.488 -11.009
v  8.926 2.472 -11.275
v  8.739 6.74107e-16 -11.009
v  8.926 6.90395e-16 -11.275
v  0 0 0
v  3.781 -1.79533e-16 2.932
v  6.414 -3.04508e-16 4.973
v  11.816 1.10524e-16 -1.805
v  12.925 5.60888e-17 -0.916
v  16.513 3.36778e-16 -5.5
v  10.101 6.38592e-16 -10.429
v  12.745 5.14168e-16 -8.397

# 0 UV coordinates

# 33 vertex normals
vn 0.516713 0.752217 0.408873
vn 0.516704 0.752222 0.408876
vn 0.516744 0.752197 0.408871
vn 0.516733 0.752224 0.408835
vn -0.516754 0.752186 -0.408878
vn -0.516721 0.752214 -0.408869
vn -0.516749 0.752178 -0.4089
vn -0.516902 0.752219 -0.408631
vn -0.818075 0 -0.575111
vn -0.818075 0 -0.575111
vn -0.78323 0 -0.621732
vn -0.78323 3.80701e-17 -0.621732
vn -0.612797 -4.83883e-17 0.79024
vn -0.612797 0 0.790241
vn -0.612651 0 0.790353
vn -0.612651 0 0.790353
vn -0.625467 0 0.780251
vn -0.625467 0 0.780251
vn 0.782016 -0 0.623259
vn 0.782016 0 0.623259
vn 0.787461 0 0.616364
vn 0.584305 0 -0.811534
vn 0.609518 0 -0.792773
vn 0.609363 0 -0.792892
vn 0.609363 0 -0.792892
vn 0 -1 -6.12323e-17
vn -1.09075e-23 -1 -6.12323e-17
vn 5.26802e-23 -1 -6.12324e-17
vn -2.91021e-23 -1 -6.12323e-17
vn -2.74472e-23 -1 -6.12323e-17
vn 1.22847e-22 -1 -6.12323e-17
vn 0 -1 -6.12323e-17
vn 3.60931e-20 -1 -6.1286e-17

# Mesh 'defaultobject' with 36 faces
g defaultobject
usemtl DefaultMaterial
f  1//1 2//1 3//1
f  2//2 1//2 4//2
f  4//3 1//3 5//3
f  4//4 5//4 6//4
f  7//5 5//5 1//5
f  5//6 7//6 8//6
f  8//7 7//7 9//7
f  9//8 7//8 10//8
f  10//9 11//9 9//9
f  11//9 10//9 12//10
f  11//11 8//11 9//11
f  8//11 11//11 13//12
f  13//13 5//13 8//13
f  5//13 13//13 14//14
f  5//15 14//15 6//15
f  6//15 14//15 15//16
f  16//17 2//17 4//17
f  2//17 16//17 17//18
f  15//19 4//19 6//19
f  4//19 15//19 16//20
f  2//21 18//21 3//21
f  18//21 2//21 17//21
f  19//22 10//22 7//22
f  10//22 19//22 12//22
f  18//23 1//23 3//23
f  1//23 18//23 20//23
f  1//24 20//24 7//24
f  7//24 20//24 19//25
f  17//26 20//26 18//26
f  20//26 17//26 19//27
f  19//27 17//26 16//28
f  19//27 16//28 15//29
f  19//27 15//29 12//30
f  12//30 15//29 11//31
f  11//31 15//29 13//32
f  13//32 15//29 14//33

