# File produced by Open Asset Import Library (http://www.assimp.sf.net)
# (assimp v3.1.0)

mtllib ID_16681.obj.mtl

# 57 vertex positions
v  0.637 9.009 0.197
v  1.219 8.494 -3.94
v  0 8.486 5.19618e-16
v  3.492 11.376 1.169
v  2.8 8.505 -9.048
v  4.182 11.371 -1.101
v  4.862 11.366 -3.341
v  5.543 11.361 -5.582
v  6.27 11.356 -7.974
v  3.492 -7.15806e-17 1.169
v  4.182 6.74168e-17 -1.101
v  6.27 4.88267e-16 -7.974
v  4.862 2.04577e-16 -3.341
v  5.543 3.41799e-16 -5.582
v  2.8 5.5403e-16 -9.048
v  0 0 0
v  1.219 2.41255e-16 -3.94
v  0.637 -1.20628e-17 0.197
v  14.574 8.912 -1.055
v  10.323 11.551 3.53
v  12.906 8.94 4.336
v  8.229 13.671 2.877
v  9.663 13.671 -1.844
v  15.399 8.96 -3.942
v  15.719 8.955 -4.975
v  15.731 8.914 -5.014
v  10.966 8.925 -6.489
v  4.862 13.671 -3.341
v  7.331 8.903 -7.646
v  6.27 8.906 -7.974
v  3.633 9.028 1.217
v  3.615 8.961 1.283
v  3.492 9.032 1.169
v  3.576 8.965 1.425
v  6.134 11.554 2.223
v  12.906 -2.65503e-16 4.336
v  8.229 -1.76165e-16 2.877
v  3.576 -8.72561e-17 1.425
v  10.323 -2.1615e-16 3.53
v  6.134 -1.36119e-16 2.223
v  3.633 -7.45198e-17 1.217
v  14.574 6.46001e-17 -1.055
v  15.399 2.41378e-16 -3.942
v  15.731 3.07019e-16 -5.014
v  15.719 3.04631e-16 -4.975
v  10.966 3.97337e-16 -6.489
v  7.331 4.68182e-16 -7.646
v  3.615 -7.85611e-17 1.283
v  2.684 9.237 4.705
v  3.576 11.556 1.425
v  2.484 8.775 5.352
v  11.708 8.782 8.207
v  8.229 11.553 2.877
v  12.906 11.549 4.336
v  11.708 -5.02534e-16 8.207
v  2.484 -3.27715e-16 5.352
v  2.684 -2.88098e-16 4.705

# 0 UV coordinates

# 104 vertex normals
vn -0.590049 0.786827 -0.180958
vn -0.590461 0.786513 -0.180977
vn -0.590382 0.786559 -0.181038
vn -0.590116 0.786742 -0.181108
vn -0.59041 0.78655 -0.180987
vn -0.59022 0.786663 -0.181113
vn -0.590276 0.786636 -0.181047
vn 0.956776 -0 0.290826
vn 0.956881 -7.51272e-05 0.290482
vn 0.956798 4.2852e-05 0.290754
vn 0.956785 6.97192e-05 0.290795
vn 0.956776 9.69154e-05 0.290826
vn 0.95682 0 0.29068
vn 0 -1 -6.12448e-17
vn -6.26655e-19 -1 -6.14644e-17
vn 0.295672 0 -0.95529
vn -0.955288 0 -0.295676
vn -0.955322 -7.09254e-05 -0.295568
vn -0.955303 1.8102e-17 -0.295629
vn 0 1 6.12581e-17
vn -0.295456 0 0.955356
vn -0.322289 0 0.946641
vn -3.85026e-23 -1 -6.12323e-17
vn 2.13865e-24 -1 -6.12323e-17
vn 0 -1 -6.12323e-17
vn 0.664414 0.719595 0.201835
vn 0.664809 0.719036 0.202523
vn 0.664656 0.719356 0.201889
vn 0.664655 0.719356 0.201894
vn 0.664695 0.719169 0.202426
vn 0.197292 0.705361 -0.680839
vn 0.208923 0.712721 -0.669612
vn 0.208803 0.712723 -0.669647
vn 0.208824 0.712736 -0.669626
vn 0.209001 0.712758 -0.669548
vn -0.953798 0.0101287 -0.300279
vn -0.208626 0.713307 0.66908
vn -0.207929 0.712123 0.670557
vn -0.211098 0.714157 0.667396
vn -0.208062 0.712118 0.670521
vn -0.664784 0.718972 -0.202833
vn -0.664711 0.71915 -0.202441
vn -0.664292 0.719724 -0.201778
vn -0.297847 -0.000154905 0.954614
vn -0.297847 3.08399e-05 0.954614
vn -0.297844 3.92434e-05 0.954615
vn -0.297844 0 0.954615
vn -0.297798 5.18286e-05 0.954629
vn -0.297889 0 0.9546
vn -6.21765e-21 -1 -6.12314e-17
vn 2.95209e-20 -1 -6.13209e-17
vn -0.322264 0 0.94665
vn -0.322264 0 0.94665
vn 0.955318 -0 0.29558
vn 0.955318 0 0.29558
vn 0.961511 0 0.274765
vn 0.961511 0 0.274765
vn 0.955218 -0 0.295904
vn 0.955718 -0.000204792 0.294284
vn 0.955238 0 0.295838
vn -1.70045e-19 1 6.11799e-17
vn 0.295705 0 -0.955279
vn 0.303274 0.00443497 -0.952893
vn 0.295339 -0.00378783 -0.955385
vn 0.295704 -0.00336368 -0.955274
vn 0.303301 0.00103895 -0.952894
vn 0.295351 0 -0.955389
vn -0.956839 -0.000144647 -0.290617
vn -0.956839 -0.000189453 -0.290617
vn -0.95682 0 -0.29068
vn -0.956793 5.96432e-05 -0.29077
vn -0.95682 -4.02323e-05 -0.29068
vn -0.956776 -0 -0.290826
vn 9.74307e-20 1 6.12596e-17
vn -3.39051e-20 1 6.12157e-17
vn -0.964764 0 -0.263116
vn -0.964292 0 -0.264841
vn -0.964442 9.32331e-06 -0.264294
vn 3.44309e-20 -1 -6.12238e-17
vn 0 -1 -6.12323e-17
vn 1.48526e-23 -1 -6.12323e-17
vn 0 -1 -6.12323e-17
vn 4.72862e-24 -1 -6.12323e-17
vn -0.167321 0.8259 0.538418
vn -0.16772 0.826074 0.538026
vn -0.167274 0.825917 0.538406
vn -0.167783 0.825599 0.538734
vn -0.167129 0.825907 0.538467
vn -0.167394 0.825831 0.5385
vn -0.295679 0 0.955287
vn 0.955298 0 0.295646
vn 0.297875 0 -0.954605
vn 0.297704 -4.20248e-05 -0.954658
vn 0.29799 8.48695e-05 -0.954569
vn 0.297807 -3.22044e-05 -0.954626
vn 0.297875 2.76935e-05 -0.954605
vn 0.297847 9.52553e-06 -0.954614
vn 0.297808 0 -0.954626
vn -0.955395 0 -0.295331
vn -0.955395 -0 -0.295331
vn -0.964954 0 -0.26242
vn -0.964954 -0 -0.26242
vn -1.6913e-24 -1 -6.12323e-17
vn 3.04995e-23 -1 -6.12323e-17

# Mesh 'defaultobject' with 129 faces
g defaultobject
usemtl DefaultMaterial
f  1//1 2//1 3//1
f  2//2 1//2 4//2
f  2//3 4//3 5//3
f  5//4 4//4 6//4
f  5//5 6//5 7//5
f  5//6 7//6 8//6
f  5//7 8//7 9//7
f  10//8 6//8 4//8
f  6//9 10//9 7//9
f  7//10 10//10 8//10
f  8//11 10//11 9//11
f  9//12 10//12 11//12
f  9//13 11//13 12//13
f  12//14 11//14 13//14
f  12//14 13//14 14//15
f  12//16 5//16 9//16
f  5//16 12//16 15//16
f  15//17 2//17 5//17
f  2//18 15//18 3//18
f  3//19 15//19 16//19
f  16//20 15//20 17//20
f  3//21 18//21 1//21
f  18//21 3//21 16//21
f  1//22 10//22 4//22
f  10//22 1//22 18//22
f  17//23 18//23 16//23
f  18//23 17//23 10//24
f  10//24 17//23 15//25
f  10//24 15//25 11//14
f  11//14 15//25 13//14
f  13//14 15//25 14//15
f  14//15 15//25 12//14
f  19//26 20//26 21//26
f  20//27 19//27 22//27
f  22//28 19//28 23//28
f  23//28 19//28 24//29
f  23//30 24//30 25//30
f  23//31 25//31 26//31
f  27//32 23//32 26//32
f  23//33 27//33 28//33
f  28//34 27//34 29//34
f  28//35 29//35 30//35
f  28//36 30//36 8//36
f  6//37 23//37 28//37
f  23//38 6//38 31//38
f  23//39 31//39 32//39
f  31//40 6//40 33//40
f  34//41 23//41 32//41
f  23//42 34//42 35//42
f  23//43 35//43 22//43
f  35//44 20//44 22//44
f  20//45 35//45 21//45
f  21//45 35//45 34//46
f  21//47 34//47 36//47
f  36//48 34//48 37//48
f  37//49 34//49 38//49
f  36//50 37//50 39//50
f  37//50 38//51 40//51
f  10//52 31//52 33//52
f  31//52 10//52 41//53
f  36//54 19//54 21//54
f  19//54 36//54 42//55
f  19//56 43//56 24//56
f  43//56 19//56 42//57
f  43//58 25//58 24//58
f  25//59 43//59 26//59
f  26//60 43//60 44//60
f  44//61 43//61 45//61
f  44//62 27//62 26//62
f  27//63 44//63 29//63
f  29//64 44//64 30//64
f  30//65 44//65 46//65
f  30//66 46//66 47//66
f  30//67 47//67 12//67
f  8//68 6//68 28//68
f  6//69 8//69 30//69
f  6//70 30//70 12//70
f  6//71 12//71 33//71
f  33//72 12//72 11//72
f  33//73 11//73 10//73
f  11//74 12//74 14//74
f  11//74 14//74 13//75
f  41//76 32//76 31//76
f  32//77 38//77 34//77
f  38//78 32//78 41//78
f  38//51 41//79 48//79
f  11//14 41//79 10//24
f  48//79 40//51 38//51
f  40//51 48//79 41//79
f  40//51 41//79 11//14
f  40//51 11//14 13//14
f  40//51 13//14 37//50
f  37//50 13//14 14//15
f  37//50 14//15 39//50
f  39//50 14//15 12//14
f  39//50 12//14 47//80
f  39//50 47//80 36//50
f  36//50 47//80 46//25
f  36//50 46//25 42//81
f  42//81 46//25 43//82
f  43//82 46//25 44//83
f  49//84 35//84 50//84
f  35//85 49//85 51//85
f  35//86 51//86 52//86
f  35//87 52//87 53//87
f  53//88 52//88 20//88
f  20//89 52//89 54//89
f  51//90 55//90 52//90
f  55//90 51//90 56//90
f  52//91 36//91 54//91
f  36//91 52//91 55//91
f  36//92 20//92 54//92
f  20//93 36//93 53//93
f  53//94 36//94 35//94
f  35//95 36//95 50//95
f  50//96 36//96 39//96
f  50//97 39//97 40//97
f  50//98 40//98 38//98
f  40//51 39//50 37//50
f  57//99 51//99 49//99
f  51//99 57//99 56//100
f  38//101 49//101 50//101
f  49//101 38//101 57//102
f  56//103 36//50 55//103
f  36//50 56//103 39//50
f  39//50 56//103 37//50
f  37//50 56//103 40//51
f  40//51 56//103 57//104
f  40//51 57//104 38//51

