# File produced by Open Asset Import Library (http://www.assimp.sf.net)
# (assimp v3.1.0)

mtllib ID_28818.obj.mtl

# 12 vertex positions
v  7.141 4.441 -3.458
v  7.604 7.762 6.619
v  11.197 4.441 4.898
v  3.556 7.762 -1.722
v  0 4.468 2.73586e-16
v  3.938 4.373 8.375
v  3.938 -5.12821e-16 8.375
v  7.604 -4.05297e-16 6.619
v  11.197 -2.99916e-16 4.898
v  7.141 2.11741e-16 -3.458
v  3.556 1.05442e-16 -1.722
v  0 0 0

# 0 UV coordinates

# 19 vertex normals
vn 0.576038 0.768115 -0.279608
vn 0.576112 0.768063 -0.279595
vn -0.576096 0.768078 0.279587
vn -0.576104 0.768067 0.279602
vn 0.431995 -0 0.901876
vn 0.43199 2.705e-06 0.901878
vn 0.431995 -6.65647e-06 0.901876
vn 0.431988 0 0.901879
vn 0.899619 0 -0.436675
vn -0.43583 0 -0.900029
vn -0.435836 -3.51734e-06 -0.900026
vn -0.43583 8.6274e-06 -0.900029
vn -0.435839 5.51106e-17 -0.900025
vn -0.904951 -2.60553e-17 0.425516
vn -0.904951 0 0.425516
vn -8.58399e-24 -1 -6.12323e-17
vn -2.24348e-23 -1 -6.12323e-17
vn 2.88407e-24 -1 -6.12323e-17
vn -1.72395e-19 -1 -6.17174e-17

# Mesh 'defaultobject' with 20 faces
g defaultobject
usemtl DefaultMaterial
f  1//1 2//1 3//1
f  2//2 1//2 4//2
f  5//3 2//3 4//3
f  2//4 5//4 6//4
f  7//5 2//5 6//5
f  2//5 7//5 3//6
f  3//7 7//5 8//7
f  3//6 8//7 9//8
f  9//9 1//9 3//9
f  1//9 9//9 10//9
f  10//10 4//10 1//10
f  4//10 10//10 5//11
f  5//12 10//10 11//12
f  5//11 11//13 12//13
f  12//14 6//14 5//14
f  6//14 12//14 7//15
f  8//16 10//16 9//16
f  10//16 8//16 7//17
f  10//16 7//17 12//18
f  10//16 12//18 11//19

