# File produced by Open Asset Import Library (http://www.assimp.sf.net)
# (assimp v3.1.0)

mtllib ID_35002.obj.mtl

# 12 vertex positions
v  0 2.407 1.47386e-16
v  6.236 2.407 2.638
v  3.968 2.407 -1.958
v  6.065 2.407 2.783
v  4.508 2.407 9.136
v  8.281 2.407 7.275
v  6.236 -1.61531e-16 2.638
v  3.968 1.19893e-16 -1.958
v  8.281 -4.45465e-16 7.275
v  6.065 -1.7041e-16 2.783
v  0 0 0
v  4.508 -5.59419e-16 9.136

# 0 UV coordinates

# 13 vertex normals
vn -0 1 0
vn 0.896756 0 -0.442525
vn 0.89681 0 -0.442416
vn -0.442507 0 -0.896765
vn -0.442507 5.4911e-17 -0.896765
vn -0.896771 -2.70951e-17 0.442496
vn -0.896771 0 0.442496
vn 0.442358 -0 0.896839
vn 0.646742 -0 0.762709
vn 2.33444e-24 -1 -6.12323e-17
vn 0 -1 -6.12324e-17
vn 0 -1 -6.12323e-17
vn 1.25614e-23 -1 -6.12323e-17

# Mesh 'defaultobject' with 20 faces
g defaultobject
usemtl DefaultMaterial
f  1//1 2//1 3//1
f  2//1 1//1 4//1
f  4//1 1//1 5//1
f  4//1 5//1 6//1
f  7//2 3//2 2//2
f  3//2 7//2 8//2
f  9//3 4//3 6//3
f  4//3 9//3 10//3
f  8//4 1//4 3//4
f  1//4 8//4 11//5
f  11//6 5//6 1//6
f  5//6 11//6 12//7
f  12//8 6//8 5//8
f  6//8 12//8 9//8
f  10//9 2//9 4//9
f  2//9 10//9 7//9
f  7//10 11//10 8//10
f  11//10 7//10 10//11
f  11//10 10//11 12//12
f  12//12 10//11 9//13

