# {"id":"ID_8872","idOriginal":"ID_8872","origin":[14.33232366215318,48.327830439686835],"elevation":256.968}
# Longitude: 14.33232366215318
# Latitude: 48.327830439686835
# Elevation: 256.968

# File produced by Open Asset Import Library (http://www.assimp.sf.net)
# (assimp v3.1.0)

mtllib ID_8872.obj.mtl

# 52 vertex positions
v  19.624 5.718 -6.565
v  19.372 5.852 -6.546
v  19.91 5.699 -1.852
v  20.466 5.713 9.201
v  15.163 8.389 4.56
v  20.493 5.718 9.855
v  20.225 5.677 3.335
v  14.849 8.389 -1.393
v  14.584 8.389 -6.405
v  10.445 5.848 10.485
v  20.497 5.67 9.957
v  10.342 6.771 8.496
v  9.961 8.389 5.031
v  10.146 6.768 8.522
v  3.205 6.634 9.441
v  6.527 8.389 5.343
v  10.933 6.455 -6.297
v  9.481 5.685 -6.225
v  9.752 5.68 -0.931
v  9.758 5.68 -0.811
v  0 5.646 3.45718e-16
v  7.604 6.599 1.372
v  7.428 5.703 -0.55
v  0.006 5.67 0.053
v  9.855 6.565 1.095
v  9.754 6.566 1.107
v  1.076 5.671 9.102
v  1.148 5.67 9.713
v  7.428 3.36778e-17 -0.55
v  0 0 0
v  19.372 4.00827e-16 -6.546
v  19.624 4.0199e-16 -6.565
v  14.584 3.92193e-16 -6.405
v  10.933 3.8558e-16 -6.297
v  9.481 3.81171e-16 -6.225
v  9.855 -6.70494e-17 1.095
v  7.604 -8.40108e-17 1.372
v  9.754 -6.77842e-17 1.107
v  0.006 -3.24531e-18 0.053
v  1.076 -5.57337e-16 9.102
v  1.148 -5.9475e-16 9.713
v  10.342 -5.2023e-16 8.496
v  10.445 -6.42021e-16 10.485
v  9.752 5.70073e-17 -0.931
v  9.758 4.96594e-17 -0.811
v  3.205 -5.78095e-16 9.441
v  10.146 -5.21822e-16 8.522
v  20.497 -6.0969e-16 9.957
v  20.466 -5.63399e-16 9.201
v  20.225 -2.0421e-16 3.335
v  20.493 -6.03445e-16 9.855
v  19.91 1.13402e-16 -1.852

# 0 UV coordinates

# 93 vertex normals
vn 0.467891 0.883437 -0.0248316
vn 0.468464 0.883097 -0.0260922
vn 0.46747 0.883666 -0.0246286
vn 0.467464 0.883668 -0.0246571
vn 0.467452 0.883675 -0.0246398
vn 0.467446 0.883676 -0.0247154
vn 0.467488 0.883652 -0.0247783
vn 0.0383056 0.904733 0.424253
vn 0.0380239 0.90706 0.41928
vn 0.0376448 0.90719 0.419034
vn 0.0379701 0.907024 0.419364
vn 0.0416946 0.907045 0.418965
vn 0.0379891 0.907104 0.419189
vn 0.0380986 0.907035 0.419329
vn -0.467385 0.883708 0.0247121
vn -0.467402 0.883699 0.0247295
vn -0.467425 0.883686 0.0247621
vn -0.467434 0.883684 0.0246555
vn -0.466377 0.884279 0.0233208
vn -0.0380112 0.907025 -0.419357
vn -0.0406107 0.911921 -0.408352
vn -0.0381312 0.907081 -0.419225
vn -0.0380883 0.907087 -0.419216
vn -0.0379629 0.907061 -0.419284
vn -0.0380248 0.907078 -0.419242
vn -0.040456 0.908373 -0.4162
vn -0.0377977 0.906923 -0.419598
vn -0.418221 0.907004 0.0493523
vn -0.417448 0.907287 0.0506771
vn -0.41851 0.906883 0.0491192
vn -0.073842 0 -0.99727
vn -0.073842 6.10652e-17 -0.99727
vn -0.0751834 0 -0.99717
vn -0.0294358 0 -0.999567
vn -0.0295374 -5.80145e-05 -0.999564
vn -0.0294358 7.48742e-05 -0.999567
vn -0.0295681 -0 -0.999563
vn -0.049526 0 -0.998773
vn -0.049526 -0 -0.998773
vn -0.117982 0 -0.993016
vn -0.122331 -6.78628e-05 -0.992489
vn -0.122135 -0 -0.992513
vn -4.28565e-22 1 6.12265e-17
vn -0.993653 -6.88797e-18 0.112489
vn -0.993082 -4.67626e-05 0.117427
vn -0.993621 0.00798582 0.112486
vn -0.993082 0 0.117427
vn -0.993128 0 0.11703
vn -0.993128 0 0.11703
vn -0.998662 0 0.0517154
vn -0.998662 0 0.0517154
vn -0.998692 0 0.0511231
vn -0.998752 0.00110373 0.0499419
vn -0.998718 0.000464926 0.0506104
vn -0.998692 -0.000108203 0.0511231
vn -0.998752 0.000257243 0.0499418
vn -0.998708 0 0.0508257
vn 0.13109 -0 0.99137
vn 0.131257 -5.25916e-05 0.991348
vn 0.13109 0.000172902 0.99137
vn 0.131256 0 0.991349
vn 0.131501 0 0.991316
vn 0.131501 0 0.991316
vn 0.0524545 -0 0.998623
vn 0.999141 -0.00432963 -0.0412165
vn 0.99916 0 -0.0409711
vn 0.999157 -1.03817e-05 -0.0410494
vn 0.99916 8.11488e-05 -0.0409711
vn 0.999157 0 -0.0410495
vn -1.43606e-19 1 6.12389e-17
vn 0.998161 0 -0.0606172
vn 0.998164 4.17432e-05 -0.0605715
vn 0.998161 -3.76718e-05 -0.0606172
vn 0.998164 0 -0.0605716
vn 0.995833 0 -0.0911898
vn 0.995834 0 -0.0911898
vn -5.9415e-24 -1 -6.12323e-17
vn 1.77484e-22 -1 -6.12323e-17
vn 7.04273e-24 -1 -6.12323e-17
vn -8.27267e-24 -1 -6.12323e-17
vn -1.86394e-24 -1 -6.12323e-17
vn 1.95978e-24 -1 -6.12323e-17
vn 0 -1 -6.12323e-17
vn -1.75615e-24 -1 -6.12323e-17
vn 1.70501e-23 -1 -6.12324e-17
vn 6.53873e-25 -1 -6.12323e-17
vn -3.79177e-24 -1 -6.12323e-17
vn 3.21394e-24 -1 -6.12323e-17
vn 5.01224e-24 -1 -6.12323e-17
vn -4.06342e-23 -1 -6.12327e-17
vn -3.83883e-25 -1 -6.12324e-17
vn -4.53636e-24 -1 -6.12323e-17
vn 0 -1 -6.12323e-17

# Mesh 'defaultobject' with 98 faces
g defaultobject
usemtl DefaultMaterial
f  1//1 2//1 3//1
f  4//2 5//2 6//2
f  5//3 4//3 7//3
f  5//4 7//4 8//4
f  8//5 7//5 3//5
f  8//6 3//6 9//6
f  9//7 3//7 2//7
f  6//8 10//8 11//8
f  10//9 6//9 5//9
f  10//10 5//10 12//10
f  12//11 5//11 13//11
f  12//12 13//12 14//12
f  14//13 13//13 15//13
f  15//14 13//14 16//14
f  17//15 8//15 9//15
f  8//16 17//16 18//16
f  8//17 18//17 19//17
f  8//18 19//18 5//18
f  5//19 19//19 20//19
f  21//20 22//20 23//20
f  22//21 21//21 24//21
f  22//22 24//22 16//22
f  22//23 16//23 13//23
f  22//24 13//24 5//24
f  25//25 5//25 20//25
f  5//26 25//26 26//26
f  5//27 26//27 22//27
f  27//28 16//28 24//28
f  16//29 27//29 28//29
f  16//30 28//30 15//30
f  29//31 21//31 23//31
f  21//31 29//31 30//32
f  1//33 31//33 2//33
f  31//33 1//33 32//33
f  31//34 9//34 2//34
f  9//35 31//35 17//35
f  17//36 31//36 33//36
f  17//37 33//37 34//37
f  34//38 18//38 17//38
f  18//38 34//38 35//39
f  36//40 26//40 25//40
f  26//41 36//41 22//41
f  22//42 36//42 37//42
f  37//43 36//43 38//43
f  30//44 24//44 21//44
f  24//45 30//45 27//45
f  27//46 30//46 39//46
f  27//47 39//47 40//47
f  27//48 40//48 28//48
f  28//48 40//48 41//49
f  42//50 10//50 12//50
f  10//50 42//50 43//51
f  35//52 19//52 18//52
f  19//53 35//53 20//53
f  20//54 35//54 25//54
f  25//55 35//55 44//55
f  25//56 44//56 45//56
f  25//57 45//57 36//57
f  41//58 15//58 28//58
f  15//59 41//59 14//59
f  14//60 41//60 46//60
f  14//61 46//61 47//61
f  14//62 47//62 12//62
f  12//62 47//62 42//63
f  43//64 11//64 10//64
f  11//64 43//64 48//64
f  11//65 4//65 6//65
f  4//66 11//66 48//66
f  4//67 48//67 7//67
f  7//68 48//68 49//68
f  7//69 49//69 50//69
f  49//70 48//70 51//70
f  50//71 3//71 7//71
f  3//72 50//72 1//72
f  1//73 50//73 52//73
f  1//74 52//74 32//74
f  37//75 23//75 22//75
f  23//75 37//75 29//76
f  43//77 42//77 48//77
f  52//78 31//78 32//78
f  31//78 52//78 33//79
f  33//79 52//78 34//80
f  34//80 52//78 35//81
f  35//81 52//78 44//82
f  44//82 52//78 50//83
f  44//82 50//83 36//83
f  36//83 50//83 49//84
f  36//83 49//84 38//85
f  38//85 49//84 37//86
f  37//86 49//84 30//87
f  30//87 49//84 39//88
f  39//88 49//84 42//77
f  39//88 42//77 40//89
f  42//77 49//84 48//77
f  40//89 42//77 47//90
f  40//89 47//90 46//91
f  40//89 46//91 41//92
f  30//87 29//93 37//86

