# File produced by Open Asset Import Library (http://www.assimp.sf.net)
# (assimp v3.1.0)

mtllib ID_11367.obj.mtl

# 16 vertex positions
v  18.536 12.906 3.528
v  1.927 10.259 12.482
v  19.541 10.259 9.763
v  0.964 12.906 6.241
v  17.531 10.259 -2.707
v  9.95 10.259 -1.536
v  7.398 10.259 -1.142
v  0 10.259 6.28183e-16
v  19.541 -5.97811e-16 9.763
v  18.536 -2.16028e-16 3.528
v  17.531 1.65756e-16 -2.707
v  9.95 9.40529e-17 -1.536
v  7.398 6.99273e-17 -1.142
v  0 0 0
v  1.927 -7.64302e-16 12.482
v  0.964 -3.82151e-16 6.241

# 0 UV coordinates

# 25 vertex normals
vn 0.0589727 0.922266 0.382032
vn 0.0589868 0.922255 0.382055
vn -0.058983 0.922266 -0.38203
vn -0.0590196 0.922239 -0.38209
vn -0.0589851 0.922255 -0.382056
vn -0.0589754 0.922258 -0.382049
vn 0.987257 0 -0.159133
vn 0.987257 1.11655e-07 -0.159133
vn 0.987257 -1.61913e-07 -0.159133
vn 0.987257 0 -0.159133
vn -0.152655 0 -0.98828
vn -0.152581 5.57726e-05 -0.988291
vn -0.152559 7.79257e-05 -0.988294
vn -0.152655 -8.9386e-05 -0.98828
vn -0.152581 -1.61639e-05 -0.988291
vn -0.152559 6.05156e-17 -0.988294
vn -0.98828 -9.34725e-18 0.152652
vn -0.9883 6.35376e-05 0.152524
vn -0.988292 0 0.152575
vn 0 -1 -6.12379e-17
vn 0.152559 -0 0.988294
vn 0 -1 -6.12323e-17
vn 0 -1 -6.12323e-17
vn -7.52545e-24 -1 -6.12323e-17
vn 9.4068e-25 -1 -6.12323e-17

# Mesh 'defaultobject' with 28 faces
g defaultobject
usemtl DefaultMaterial
f  1//1 2//1 3//1
f  2//2 1//2 4//2
f  5//3 4//3 1//3
f  4//4 5//4 6//4
f  4//5 6//5 7//5
f  4//6 7//6 8//6
f  9//7 1//7 3//7
f  1//7 9//7 5//8
f  5//8 9//7 10//9
f  5//8 10//9 11//10
f  11//11 6//11 5//11
f  6//12 11//12 7//12
f  7//13 11//13 8//13
f  8//14 11//14 12//14
f  8//15 12//15 13//15
f  8//16 13//16 14//16
f  14//17 4//17 8//17
f  4//18 14//18 2//18
f  2//19 14//19 15//19
f  15//20 14//20 16//20
f  15//21 3//21 2//21
f  3//21 15//21 9//21
f  13//22 16//20 14//20
f  16//20 13//22 12//23
f  16//20 12//23 11//23
f  16//20 11//23 15//20
f  15//20 11//23 10//24
f  15//20 10//24 9//25

