# File produced by Open Asset Import Library (http://www.assimp.sf.net)
# (assimp v3.1.0)

mtllib ID_37299.obj.mtl

# 14 vertex positions
v  8.734 3.012 -1.885
v  3.63 3.012 3.402
v  9.597 3.012 2.115
v  3.63 3.012 -0.783
v  0.863 3.012 3.999
v  0 3.012 1.84432e-16
v  0.064 3.012 0.297
v  0.863 -2.44868e-16 3.999
v  3.63 -2.08312e-16 3.402
v  9.597 -1.29506e-16 2.115
v  8.734 1.15423e-16 -1.885
v  3.63 4.79449e-17 -0.783
v  0 0 0
v  0.064 -1.8186e-17 0.297

# 0 UV coordinates

# 18 vertex normals
vn 0 1 -0
vn 0.210904 -0 0.977507
vn 0.210838 6.36703e-05 0.977521
vn 0.210904 -0.000137246 0.977507
vn 0.210838 0 0.977521
vn 0.977508 0 -0.210897
vn -0.211046 0 -0.977476
vn -0.210853 -0 -0.977518
vn -0.210853 5.98557e-17 -0.977518
vn -0.977492 0 0.210971
vn -0.977561 -0.000409567 0.210653
vn -0.977492 3.2856e-05 0.210971
vn -0.977561 0 0.210653
vn -1.05969e-24 -1 -6.12323e-17
vn 1.23921e-24 -1 -6.12323e-17
vn 9.14336e-24 -1 -6.12323e-17
vn 0 -1 -6.12323e-17
vn 0 -1 -6.12324e-17

# Mesh 'defaultobject' with 24 faces
g defaultobject
usemtl DefaultMaterial
f  1//1 2//1 3//1
f  2//1 1//1 4//1
f  2//1 4//1 5//1
f  5//1 4//1 6//1
f  5//1 6//1 7//1
f  8//2 2//2 5//2
f  2//3 8//3 3//3
f  3//4 8//4 9//4
f  3//5 9//5 10//5
f  10//6 1//6 3//6
f  1//6 10//6 11//6
f  11//7 4//7 1//7
f  4//7 11//7 12//7
f  4//8 12//8 6//8
f  6//8 12//8 13//9
f  7//10 8//10 5//10
f  8//11 7//11 6//11
f  8//12 6//12 14//12
f  14//13 6//13 13//13
f  9//14 11//14 10//14
f  11//14 9//14 12//15
f  12//15 9//14 8//16
f  12//15 8//16 14//17
f  12//15 14//17 13//18

