# File produced by Open Asset Import Library (http://www.assimp.sf.net)
# (assimp v3.1.0)

mtllib ID_59861.obj.mtl

# 8 vertex positions
v  1.412 1.901 -2.441
v  0.862 1.901 0.472
v  2.216 1.901 -2.001
v  0 1.901 1.16403e-16
v  2.216 1.22526e-16 -2.001
v  1.412 1.49468e-16 -2.441
v  0 0 0
v  0.862 -2.89017e-17 0.472

# 0 UV coordinates

# 9 vertex normals
vn 0 1 -0
vn 0.480075 0 -0.877228
vn -0.865612 0 -0.500715
vn -0.865612 3.06599e-17 -0.500715
vn -0.480277 -5.37079e-17 0.877117
vn -0.480277 0 0.877117
vn 0.877135 -0 0.480243
vn 0 -1 -6.12323e-17
vn 0 -1 -6.12323e-17

# Mesh 'defaultobject' with 12 faces
g defaultobject
usemtl DefaultMaterial
f  1//1 2//1 3//1
f  2//1 1//1 4//1
f  5//2 1//2 3//2
f  1//2 5//2 6//2
f  6//3 4//3 1//3
f  4//3 6//3 7//4
f  7//5 2//5 4//5
f  2//5 7//5 8//6
f  8//7 3//7 2//7
f  3//7 8//7 5//7
f  8//8 6//8 5//8
f  6//8 8//8 7//9

