# File produced by Open Asset Import Library (http://www.assimp.sf.net)
# (assimp v3.1.0)

mtllib ID_59722.obj.mtl

# 10 vertex positions
v  2.976 2.396 8.577
v  2.695 2.396 8.666
v  2.7 2.396 8.683
v  0 2.396 1.46713e-16
v  0.315 2.396 -0.101
v  2.7 -5.3168e-16 8.683
v  2.976 -5.2519e-16 8.577
v  0.315 6.18447e-18 -0.101
v  0 0 0
v  2.695 -5.30639e-16 8.666

# 0 UV coordinates

# 12 vertex normals
vn 0 1 0
vn 0.358526 -0 0.93352
vn 0.956062 0 -0.293164
vn -0.305324 0 -0.952249
vn -0.305324 5.83084e-17 -0.952249
vn -0.95936 0 0.282184
vn -0.954891 0.000114142 0.296957
vn -0.957725 -0.0583607 0.281703
vn -0.954891 0 0.296957
vn 0 -1 -6.12323e-17
vn -1.58324e-22 -1 -6.12323e-17
vn -8.56399e-22 -1 -6.12349e-17

# Mesh 'defaultobject' with 16 faces
g defaultobject
usemtl DefaultMaterial
f  1//1 2//1 3//1
f  2//1 1//1 4//1
f  4//1 1//1 5//1
f  6//2 1//2 3//2
f  1//2 6//2 7//2
f  7//3 5//3 1//3
f  5//3 7//3 8//3
f  8//4 4//4 5//4
f  4//4 8//4 9//5
f  2//6 6//6 3//6
f  6//7 2//7 4//7
f  6//8 4//8 10//8
f  10//9 4//9 9//9
f  7//10 9//10 8//10
f  9//10 7//10 10//11
f  10//11 7//10 6//12

