# {"id":"ID_38542","idOriginal":"ID_38542","origin":[14.279480822043576,48.32512552199912],"elevation":274.983,"wof":[{"Id":85898415,"Name":"Bachl","Placetype":"neighbourhood","Offset":-1},{"Id":102049853,"Name":"Linz","Placetype":"county","Offset":-1},{"Id":85681677,"Name":"Oberösterreich","Placetype":"region","Offset":-1},{"Id":101748071,"Name":"Linz","Placetype":"locality","Offset":-1},{"Id":85632785,"Name":"Austria","Placetype":"country","Offset":-1}]}

# Attribution: City of Linz <http://geo.data.linz.gv.at/katalog/geodata/3d_geo_daten_lod2/>
# Longitude: 14.279480822043576
# Latitude: 48.32512552199912
# Elevation: 274.983

# File produced by Open Asset Import Library (http://www.assimp.sf.net)
# (assimp v3.1.0)


# 12 vertex positions
v  0.048 3.692 -2.54
v  6.627 2.786 -4.907
v  0.096 2.783 -5.084
v  6.625 3.692 -2.371
v  0 2.785 1.70532e-16
v  6.622 2.785 0.17
v  0.096 3.11305e-16 -5.084
v  0.048 1.5553e-16 -2.54
v  0 0 0
v  6.622 -1.04095e-17 0.17
v  6.625 1.45182e-16 -2.371
v  6.627 3.00467e-16 -4.907

# 0 UV coordinates

# 19 vertex normals
vn 0.00868218 0.941708 -0.336319
vn 0.0086443 0.941675 -0.336412
vn -0.00863711 0.941775 0.336132
vn -0.00862966 0.941769 0.33615
vn -0.999822 0 -0.0188646
vn -0.999822 1.6429e-05 -0.0188884
vn -0.999822 -2.70968e-05 -0.0188646
vn -0.999821 1.15694e-18 -0.0188943
vn -0.0256635 -6.12122e-17 0.999671
vn -0.0256635 0 0.999671
vn 0.999999 -0 0.00118074
vn 1 -0.000216632 0.000865979
vn 0.999999 0.000356963 0.00118074
vn 1 0 0.000788586
vn 0.0270916 0 -0.999633
vn 1.57296e-24 -1 -6.12323e-17
vn 3.14101e-24 -1 -6.12323e-17
vn 3.1931e-24 -1 -6.12323e-17
vn -2.09494e-20 -1 -6.12324e-17

# Mesh 'defaultobject' with 20 faces
g defaultobject
usemtl DefaultMaterial
f  1//1 2//1 3//1
f  2//2 1//2 4//2
f  5//3 4//3 1//3
f  4//4 5//4 6//4
f  7//5 1//5 3//5
f  1//6 7//6 5//6
f  5//7 7//7 8//7
f  5//8 8//8 9//8
f  9//9 6//9 5//9
f  6//9 9//9 10//10
f  10//11 4//11 6//11
f  4//12 10//12 2//12
f  2//13 10//13 11//13
f  2//14 11//14 12//14
f  12//15 3//15 2//15
f  3//15 12//15 7//15
f  8//16 10//16 9//16
f  10//16 8//16 7//17
f  10//16 7//17 12//18
f  10//16 12//18 11//19

