# File produced by Open Asset Import Library (http://www.assimp.sf.net)
# (assimp v3.1.0)

mtllib ID_11327.obj.mtl

# 22 vertex positions
v  5.669 21.658 -2.338
v  18.283 18.795 12.286
v  11.357 18.795 -4.684
v  17.875 18.997 12.435
v  12.569 21.658 14.569
v  6.846 18.778 16.925
v  0.175 18.892 -0.072
v  0 18.804 1.15141e-15
v  6.992 18.861 16.813
v  6.992 -1.0295e-15 16.813
v  6.846 -1.03636e-15 16.925
v  17.875 -7.61424e-16 12.435
v  12.569 -8.92094e-16 14.569
v  18.104 18.884 12.357
v  18.104 -7.56648e-16 12.357
v  18.288 18.795 12.299
v  18.288 -7.53097e-16 12.299
v  18.283 -7.52301e-16 12.286
v  11.357 2.86812e-16 -4.684
v  0.175 4.40873e-18 -0.072
v  0 0 0
v  5.669 1.43161e-16 -2.338

# 0 UV coordinates

# 31 vertex normals
vn 0.390603 0.906651 -0.159417
vn 0.390638 0.90663 -0.159452
vn 0.390587 0.90666 -0.159404
vn -0.390415 0.90675 0.159312
vn -0.39069 0.906613 0.159419
vn -0.392639 0.905772 0.159412
vn -0.390577 0.906665 0.1594
vn 0.608658 0 0.793432
vn 0.608658 0 0.793433
vn 0.373211 0.00016699 0.927747
vn 0.373212 0 0.927746
vn -2.97169e-20 -1 -6.1296e-17
vn 0.322422 -0 0.946596
vn 0.322422 0 0.946596
vn 0.300638 -0 0.953738
vn 0.300638 0 0.953738
vn 0.933362 0 -0.358938
vn 0.925858 0 -0.377872
vn -0.381289 0 -0.924456
vn -0.381291 -5.82421e-07 -0.924455
vn -0.380669 0.000430236 -0.924711
vn -0.38129 -8.77578e-06 -0.924455
vn -0.380484 5.66269e-17 -0.924788
vn -6.16791e-19 1 5.92119e-17
vn -0.927034 -2.29607e-17 0.374977
vn -0.927034 0 0.374976
vn 9.54219e-22 -1 -6.12292e-17
vn -2.53119e-22 -1 -6.12322e-17
vn 0 -1 -6.12323e-17
vn 0 -1 -6.12323e-17
vn 6.16791e-19 -1 -5.92119e-17

# Mesh 'defaultobject' with 38 faces
g defaultobject
usemtl DefaultMaterial
f  1//1 2//1 3//1
f  2//2 1//2 4//2
f  4//3 1//3 5//3
f  6//4 7//4 8//4
f  7//5 6//5 1//5
f  1//6 6//6 9//6
f  5//7 1//7 9//7
f  6//8 10//8 9//8
f  10//8 6//8 11//9
f  9//10 4//10 5//10
f  4//11 9//11 10//11
f  4//11 10//11 12//11
f  12//12 10//12 13//12
f  12//13 14//13 4//13
f  14//13 12//13 15//14
f  15//15 16//15 14//15
f  16//15 15//15 17//16
f  17//17 2//17 16//17
f  2//17 17//17 18//17
f  18//18 3//18 2//18
f  3//18 18//18 19//18
f  19//19 1//19 3//19
f  1//19 19//19 7//20
f  7//21 19//21 8//21
f  8//22 19//19 20//22
f  8//23 20//23 21//23
f  20//24 19//24 22//24
f  21//25 6//25 8//25
f  6//25 21//25 11//26
f  15//27 18//27 17//27
f  18//27 15//27 19//28
f  19//28 15//27 12//12
f  19//28 12//12 13//12
f  19//28 13//12 10//12
f  19//28 10//12 11//29
f  19//28 11//29 20//30
f  20//30 11//29 21//30
f  19//28 20//30 22//31

