# File produced by Open Asset Import Library (http://www.assimp.sf.net)
# (assimp v3.1.0)

mtllib ID_32748.obj.mtl

# 44 vertex positions
v  2.367 7.15 -1.186
v  1.101 5.772 2.631
v  3.592 7.155 1.689
v  0.216 5.776 0.517
v  0 5.777 3.53739e-16
v  0 0 0
v  1.101 -1.61102e-16 2.631
v  0.216 -3.16571e-17 0.517
v  3.592 -1.03421e-16 1.689
v  2.367 7.26216e-17 -1.186
v  11.351 11.278 5.323
v  10.525 11.278 3.35
v  9.413 11.278 3.774
v  3.128 11.278 -2.04
v  7.819 11.278 0.047
v  6.377 11.278 -3.322
v  3.314 11.278 -1.66
v  2.585 11.278 -1.295
v  2.367 11.278 -1.186
v  3.809 11.278 1.607
v  3.592 11.278 1.689
v  9.065 11.278 6.234
v  3.885 11.278 1.811
v  5.517 11.278 6.21
v  7.197 11.278 6.724
v  5.935 11.278 7.193
v  5.888 11.278 7.211
v  7.26 11.278 6.911
v  3.809 -9.84004e-17 1.607
v  5.888 -4.41546e-16 7.211
v  3.885 -1.10892e-16 1.811
v  5.517 -3.80253e-16 6.21
v  7.197 -4.11726e-16 6.724
v  7.26 -4.23177e-16 6.911
v  5.935 -4.40444e-16 7.193
v  9.065 -3.81722e-16 6.234
v  11.351 -3.2594e-16 5.323
v  10.525 -2.05128e-16 3.35
v  9.413 -2.31091e-16 3.774
v  6.377 2.03414e-16 -3.322
v  7.819 -2.87792e-18 0.047
v  3.128 1.24914e-16 -2.04
v  3.314 1.01646e-16 -1.66
v  2.585 7.92959e-17 -1.295

# 0 UV coordinates

# 48 vertex normals
vn -0.424784 0.887331 0.179451
vn -0.424718 0.887356 0.179482
vn -0.424893 0.887322 0.179234
vn -0.922707 -2.36052e-17 0.385502
vn -0.92243 -6.95608e-05 0.386164
vn -0.922485 0 0.386034
vn 0 1 6.1216e-17
vn 0.353715 0 0.935353
vn 0.353715 0 0.935353
vn 0.919971 0 -0.391987
vn 0.919971 0 -0.391987
vn -0.447969 0 -0.894049
vn -0.447969 5.47447e-17 -0.894049
vn -2.16978e-24 -1 -6.12323e-17
vn -1.77383e-23 -1 -6.12323e-17
vn 0 -1 -6.12323e-17
vn 0 1 0
vn -0.937082 0 0.349109
vn -0.937558 2.63791e-05 0.347828
vn -0.93767 0.000165778 0.347528
vn -0.937561 0 0.347821
vn 0 -1 -6.11955e-17
vn -3.3008e-20 -1 -6.12215e-17
vn -0.947665 0 0.319267
vn 0.35765 -0 0.933856
vn 0.348354 4.43363e-05 0.937363
vn 0.34869 0 0.937238
vn 2.9488e-20 -1 -6.11483e-17
vn 0.35118 -0 0.936308
vn 0.370199 -0 0.928952
vn 0.353484 -0 0.93544
vn 0.922426 0 -0.386175
vn 0.919438 0 -0.393234
vn 0.919328 -0.00010041 -0.393491
vn 0.919386 0 -0.393356
vn -2.55165e-20 1 6.12524e-17
vn -0.356275 0 -0.934381
vn -0.367043 0 -0.930204
vn -0.898177 0 0.439634
vn -0.919971 0 0.391987
vn -0.447704 0 -0.894182
vn -0.447214 3.96598e-05 -0.894427
vn -0.447591 -0 -0.894238
vn -3.79382e-21 -1 -6.12398e-17
vn 5.20199e-24 -1 -6.12324e-17
vn 2.06884e-24 -1 -6.12323e-17
vn 2.7681e-24 -1 -6.12323e-17
vn -3.26358e-23 -1 -6.12324e-17

# Mesh 'defaultobject' with 84 faces
g defaultobject
usemtl DefaultMaterial
f  1//1 2//1 3//1
f  2//2 1//2 4//2
f  4//3 1//3 5//3
f  6//4 4//4 5//4
f  4//5 6//5 2//5
f  2//6 6//6 7//6
f  7//7 6//7 8//7
f  2//8 9//8 3//8
f  9//8 2//8 7//9
f  9//10 1//10 3//10
f  1//10 9//10 10//11
f  10//12 5//12 1//12
f  5//12 10//12 6//13
f  8//14 9//14 7//14
f  9//14 8//14 6//15
f  9//14 6//15 10//16
f  11//17 12//17 13//17
f  14//17 15//17 16//17
f  15//17 14//17 13//17
f  13//17 14//17 17//17
f  13//17 17//17 18//17
f  13//17 18//17 19//17
f  13//17 19//17 20//17
f  20//17 19//17 21//17
f  13//17 20//17 11//17
f  20//17 22//17 11//17
f  22//17 20//17 23//17
f  22//17 23//17 24//17
f  22//17 24//17 25//17
f  25//17 24//17 26//17
f  26//17 24//17 27//17
f  28//17 22//17 25//17
f  29//18 23//18 20//18
f  23//19 29//19 24//19
f  24//20 29//20 27//20
f  27//21 29//21 30//21
f  30//22 29//22 31//22
f  30//22 31//22 32//23
f  33//24 28//24 25//24
f  28//24 33//24 34//24
f  30//25 26//25 27//25
f  26//26 30//26 25//26
f  25//27 30//27 33//27
f  33//28 30//22 35//28
f  34//29 22//29 28//29
f  22//29 34//29 36//29
f  36//30 11//30 22//30
f  11//30 36//30 37//30
f  9//31 20//31 21//31
f  20//31 9//31 29//31
f  37//32 12//32 11//32
f  12//32 37//32 38//32
f  39//33 15//33 13//33
f  15//34 39//34 16//34
f  16//35 39//35 40//35
f  40//36 39//36 41//36
f  38//37 13//37 12//37
f  13//37 38//37 39//37
f  40//38 14//38 16//38
f  14//38 40//38 42//38
f  42//39 17//39 14//39
f  17//39 42//39 43//39
f  10//40 21//40 19//40
f  21//40 10//40 9//40
f  43//41 18//41 17//41
f  18//42 43//42 19//42
f  19//43 43//43 10//43
f  10//16 43//44 44//44
f  37//45 39//45 38//45
f  41//46 42//46 40//46
f  42//46 41//46 43//44
f  43//44 41//46 44//44
f  44//44 41//46 10//16
f  10//16 41//46 9//14
f  9//14 41//46 29//22
f  39//45 29//22 41//46
f  29//22 39//45 31//22
f  31//22 39//45 32//23
f  32//23 39//45 37//45
f  32//23 37//45 36//47
f  32//23 36//47 33//28
f  33//28 36//47 34//48
f  32//23 35//28 30//22
f  35//28 32//23 33//28

