# File produced by Open Asset Import Library (http://www.assimp.sf.net)
# (assimp v3.1.0)

mtllib ID_5080.obj.mtl

# 28 vertex positions
v  0.152 31.693 0.099
v  4.36 31.697 -6.659
v  0 31.698 1.94094e-15
v  8.72 31.696 -13.318
v  14.786 31.503 -9.378
v  9.361 31.4 6.116
v  18.025 31.4 -7.274
v  18.669 31.697 12.197
v  22.24 31.697 6.708
v  21.54 31.675 6.254
v  23.128 31.674 3.767
v  27.353 31.697 -1.17
v  27.373 31.697 -1.201
v  23.865 31.697 4.218
v  22.24 -4.10747e-16 6.708
v  21.54 -3.82947e-16 6.254
v  27.373 7.354e-17 -1.201
v  8.72 8.15492e-16 -13.318
v  18.025 4.45404e-16 -7.274
v  14.786 5.74237e-16 -9.378
v  23.128 -2.30662e-16 3.767
v  23.865 -2.58278e-16 4.218
v  27.353 7.16418e-17 -1.17
v  18.669 -7.46851e-16 12.197
v  0 0 0
v  0.152 -6.062e-18 0.099
v  9.361 -3.74497e-16 6.116
v  4.36 4.07746e-16 -6.659

# 0 UV coordinates

# 49 vertex normals
vn 0.0231164 0.99962 0.0149855
vn 0.0231254 0.99962 0.0149911
vn 0.0223781 0.999644 0.0145139
vn 0.0223504 0.999645 0.0144711
vn 0.0223816 0.999645 0.014482
vn -0.0223833 0.999643 -0.014562
vn -0.0224146 0.999652 -0.0138841
vn -0.0224075 0.999644 -0.0144988
vn -0.0221732 0.999648 -0.0145597
vn -0.0223564 0.999645 -0.014475
vn -0.0223806 0.999645 -0.014438
vn -0.0223454 0.999646 -0.0144656
vn 0.544146 0 -0.83899
vn 0.544146 0 -0.838991
vn 0.544787 0 -0.838575
vn 0.544742 -1.87352e-05 -0.838603
vn 0.544706 -3.96099e-05 -0.838627
vn 0.544753 0 -0.838597
vn 0 1 6.12155e-17
vn 2.62671e-19 1 6.07646e-17
vn 0.842837 -0 0.538168
vn 0.842837 0 0.538168
vn 0.839453 -0 0.543432
vn 0.840315 -0.000321469 0.542099
vn 0.839458 0 0.543425
vn -3.96084e-20 1 6.12049e-17
vn 0.838224 -0 0.545326
vn -0.521965 0 0.852967
vn -0.545763 -5.1309e-17 0.83794
vn -0.546977 8.29684e-06 0.837147
vn -0.546934 -1.01161e-05 0.837176
vn -0.545759 -0.000995174 0.837942
vn -0.546956 0 0.837161
vn 6.70425e-20 1 6.11427e-17
vn -0.836622 0 -0.547781
vn -0.836622 0 -0.547781
vn -0.836622 3.35419e-17 -0.547781
vn 0 -1 -6.12323e-17
vn 2.4186e-24 -1 -6.12323e-17
vn 0 -1 -6.12323e-17
vn -2.93698e-23 -1 -6.12323e-17
vn -7.16984e-24 -1 -6.12323e-17
vn 2.74513e-23 -1 -6.12323e-17
vn 7.09069e-24 -1 -6.12323e-17
vn -1.40125e-23 -1 -6.12323e-17
vn -2.9321e-24 -1 -6.12323e-17
vn 2.13623e-23 -1 -6.12323e-17
vn -5.63565e-19 -1 -6.11468e-17
vn 2.42241e-23 -1 -6.12323e-17

# Mesh 'defaultobject' with 52 faces
g defaultobject
usemtl DefaultMaterial
f  1//1 2//1 3//1
f  2//2 1//2 4//2
f  4//3 1//3 5//3
f  5//4 1//4 6//4
f  5//5 6//5 7//5
f  8//6 9//6 6//6
f  10//7 6//7 9//7
f  7//8 6//8 10//8
f  11//9 7//9 10//9
f  12//10 7//10 11//10
f  13//11 7//11 12//11
f  11//12 14//12 12//12
f  15//13 10//13 9//13
f  10//13 15//13 16//14
f  17//15 7//15 13//15
f  7//16 17//16 5//16
f  5//17 17//17 4//17
f  4//18 17//18 18//18
f  18//19 17//19 19//19
f  18//19 19//19 20//20
f  16//21 11//21 10//21
f  11//21 16//21 21//22
f  22//23 12//23 14//23
f  12//24 22//24 13//24
f  13//25 22//23 17//25
f  17//19 22//26 23//26
f  24//27 9//27 8//27
f  9//27 24//27 15//27
f  11//28 22//28 14//28
f  22//28 11//28 21//28
f  25//29 1//29 3//29
f  1//30 25//30 6//30
f  6//31 25//31 8//31
f  8//32 25//32 26//32
f  8//33 26//33 24//33
f  24//34 26//34 27//34
f  18//35 2//35 4//35
f  2//35 18//35 3//36
f  3//36 18//35 25//37
f  25//32 18//35 28//35
f  28//35 26//38 25//38
f  26//38 28//35 27//39
f  27//39 28//35 18//40
f  27//39 18//40 20//41
f  27//39 20//41 24//42
f  24//42 20//41 19//43
f  24//42 19//43 16//44
f  16//44 19//43 21//45
f  21//45 19//43 17//46
f  21//45 17//46 22//47
f  22//47 17//46 23//48
f  15//49 24//42 16//44

