# {"id":"_5196","idOriginal":"_5196","origin":[14.325289401867735,48.307063730995786],"elevation":255.085}
# Longitude: 14.325289401867735
# Latitude: 48.307063730995786
# Elevation: 255.085

# File produced by Open Asset Import Library (http://www.assimp.sf.net)
# (assimp v3.1.0)

mtllib _5196.obj.mtl

# 32 vertex positions
v  10.778 5.607 -3.721
v  23.157 3.322 6.026
v  19.167 3.329 -6.138
v  23.018 3.362 6.099
v  23.089 3.362 6.32
v  26.15 3.37 15.821
v  18.239 5.536 18.317
v  15.031 5.571 8.9
v  14.994 5.572 8.792
v  14.861 5.608 8.835
v  18.239 -1.12159e-15 18.317
v  15.031 -5.44968e-16 8.9
v  14.994 -5.38355e-16 8.792
v  14.861 -5.40988e-16 8.835
v  10.778 2.27846e-16 -3.721
v  26.15 -9.68757e-16 15.821
v  23.089 -3.86988e-16 6.32
v  23.018 -3.73456e-16 6.099
v  19.167 3.75844e-16 -6.138
v  23.157 -3.68986e-16 6.026
v  6.618 5.035 -2.254
v  14.861 5.916 8.835
v  10.778 5.927 -3.721
v  0 3.622 2.21784e-16
v  1.121 3.613 3.552
v  2.436 3.632 7.236
v  4.126 3.632 12.356
v  4.126 -7.56587e-16 12.356
v  6.618 1.38018e-16 -2.254
v  0 0 0
v  2.436 -4.43077e-16 7.236
v  1.121 -2.17497e-16 3.552

# 0 UV coordinates

# 49 vertex normals
vn 0.240199 0.967566 -0.0782325
vn 0.238627 0.968124 -0.076106
vn 0.239183 0.967929 -0.0768425
vn 0.240232 0.96756 -0.0782118
vn 0.240236 0.967558 -0.0782151
vn 0.22787 0.970874 -0.0740179
vn 0.729443 0.63905 -0.243984
vn 0.237162 0.968398 -0.0771981
vn -0.946582 0 0.322463
vn -0.94601 0.00313499 0.324122
vn -0.946582 -3.54063e-05 0.322463
vn -0.946023 0 0.324099
vn -0.950983 0 0.309244
vn 0.300889 -0 0.953659
vn 0.30763 -0 0.951506
vn 0.951821 0 -0.306654
vn 0.951821 0 -0.306654
vn 0.952072 0 -0.305874
vn 0.950188 0 -0.311678
vn 0.464959 -0 0.885332
vn 0.464959 0 0.885332
vn -0.276854 0 -0.960912
vn -0.276854 0 -0.960912
vn 0 -1 -6.12323e-17
vn 5.03235e-24 -1 -6.12323e-17
vn 4.04324e-23 -1 -6.12322e-17
vn -5.47898e-23 -1 -6.12325e-17
vn -2.66044e-22 -1 -6.12331e-17
vn 0 -1 -6.12292e-17
vn 0 -1 -6.12323e-17
vn 0 -1 -6.12323e-17
vn -0.188274 0.980152 0.0620824
vn -0.188162 0.980179 0.0619964
vn -0.188072 0.980206 0.0618386
vn -0.188171 0.98017 0.0621123
vn -0.188171 0.98017 0.0621111
vn 0.311657 0 0.950195
vn 0.311657 0 0.950195
vn 0.950983 0 -0.309244
vn 0.950983 0 -0.309244
vn -0.332571 0 -0.943078
vn -0.323922 0.00801171 -0.94605
vn -0.332499 -0.0207733 -0.942875
vn -0.3224 5.79627e-17 -0.946603
vn -0.949607 0 0.313444
vn -0.953635 -1.84288e-17 0.300964
vn -0.953635 0 0.300964
vn -0.9418 0 0.336174
vn -0.9418 0 0.336174

# Mesh 'defaultobject' with 60 faces
g defaultobject
usemtl DefaultMaterial
f  1//1 2//1 3//1
f  2//2 1//2 4//2
f  4//3 1//3 5//3
f  5//4 1//4 6//4
f  6//4 1//4 7//5
f  7//6 1//6 8//6
f  8//7 1//7 9//7
f  9//8 1//8 10//8
f  8//9 11//9 7//9
f  11//10 8//10 9//10
f  11//11 9//11 12//11
f  12//12 9//12 13//12
f  1//13 14//13 10//13
f  14//13 1//13 15//13
f  11//14 6//14 7//14
f  6//14 11//14 16//14
f  14//15 9//15 10//15
f  9//15 14//15 13//15
f  16//16 5//16 6//16
f  5//16 16//16 17//17
f  5//18 17//18 4//18
f  4//18 17//18 18//18
f  2//19 19//19 3//19
f  19//19 2//19 20//19
f  18//20 2//20 4//20
f  2//20 18//20 20//21
f  3//22 15//22 1//22
f  15//22 3//22 19//23
f  11//24 17//24 16//24
f  17//24 11//24 12//25
f  17//24 12//25 18//26
f  18//26 12//25 13//27
f  18//26 13//27 20//28
f  20//28 13//27 14//29
f  20//28 14//29 15//30
f  20//28 15//30 19//31
f  21//32 22//32 23//32
f  22//33 21//33 24//33
f  22//34 24//34 25//34
f  22//35 25//35 26//35
f  22//35 26//35 27//36
f  27//37 14//37 22//37
f  14//37 27//37 28//38
f  22//39 15//39 23//39
f  15//39 22//39 14//40
f  15//41 21//41 23//41
f  21//42 15//42 24//42
f  24//43 15//43 29//43
f  24//44 29//44 30//44
f  31//45 27//45 26//45
f  27//45 31//45 28//45
f  30//46 25//46 24//46
f  25//46 30//46 32//47
f  25//48 31//48 26//48
f  31//48 25//48 32//49
f  30//30 29//30 32//30
f  28//30 15//30 14//29
f  15//30 28//30 31//24
f  15//30 31//24 32//30
f  15//30 32//30 29//30

