# {"id":"ID_53686","idOriginal":"ID_53686","origin":[14.297112605785891,48.28616852311959],"elevation":261.901,"wof":[{"Id":85681677,"Name":"Oberösterreich","Placetype":"region","Offset":-1},{"Id":102049853,"Name":"Linz","Placetype":"county","Offset":-1},{"Id":101748071,"Name":"Linz","Placetype":"locality","Offset":-1},{"Id":85898459,"Name":"Wegscheid","Placetype":"neighbourhood","Offset":-1},{"Id":85632785,"Name":"Austria","Placetype":"country","Offset":-1}]}

# Attribution: City of Linz <http://geo.data.linz.gv.at/katalog/geodata/3d_geo_daten_lod2/>
# Longitude: 14.297112605785891
# Latitude: 48.28616852311959
# Elevation: 261.901

# File produced by Open Asset Import Library (http://www.assimp.sf.net)
# (assimp v3.1.0)


# 8 vertex positions
v  0.818 15.55 -1.983
v  3.759 15.55 1.769
v  4.702 15.55 -0.12
v  0 15.55 9.52163e-16
v  3.759 -1.0832e-16 1.769
v  4.702 7.34788e-18 -0.12
v  0.818 1.21424e-16 -1.983
v  0 0 0

# 0 UV coordinates

# 9 vertex normals
vn 0 1 0
vn 0.894711 -0 0.446645
vn 0.432482 0 -0.901643
vn -0.924437 0 -0.381336
vn -0.924437 2.33501e-17 -0.381336
vn -0.425809 -5.54038e-17 0.904813
vn -0.425809 0 0.904813
vn 2.91079e-24 -1 -6.12323e-17
vn 0 -1 -6.12323e-17

# Mesh 'defaultobject' with 12 faces
g defaultobject
usemtl DefaultMaterial
f  1//1 2//1 3//1
f  2//1 1//1 4//1
f  5//2 3//2 2//2
f  3//2 5//2 6//2
f  6//3 1//3 3//3
f  1//3 6//3 7//3
f  7//4 4//4 1//4
f  4//4 7//4 8//5
f  8//6 2//6 4//6
f  2//6 8//6 5//7
f  5//8 7//8 6//8
f  7//8 5//8 8//9

