# {"id":"ID_37071","idOriginal":"ID_37071","origin":[14.27738026341161,48.272749672205144],"elevation":280.31}
# Longitude: 14.27738026341161
# Latitude: 48.272749672205144
# Elevation: 280.31

# File produced by Open Asset Import Library (http://www.assimp.sf.net)
# (assimp v3.1.0)

mtllib ID_37071.obj.mtl

# 11 vertex positions
v  2.353 2.73 -1.822
v  8.532 1.72 1.295
v  4.707 1.72 -3.645
v  4.357 2.73 0.764
v  3.826 1.72 4.94
v  0 1.72 1.0532e-16
v  4.707 2.23192e-16 -3.645
v  2.353 1.11565e-16 -1.822
v  0 0 0
v  3.826 -3.02488e-16 4.94
v  8.532 -7.92959e-17 1.295

# 0 UV coordinates

# 16 vertex normals
vn 0.254005 0.946996 -0.196674
vn 0.25412 0.946912 -0.196928
vn 0.196774 0.946962 0.254051
vn -0.254088 0.946949 0.196789
vn -0.253899 0.947007 0.196757
vn -0.612288 0 -0.790635
vn -0.612288 -0 -0.790635
vn -0.612241 -0 -0.790671
vn -0.612241 4.84146e-17 -0.790671
vn -0.790609 -3.74939e-17 0.612322
vn -0.790609 0 0.612322
vn 0.612346 -0 0.79059
vn 0.790686 0 -0.612222
vn 2.84701e-24 -1 -6.12323e-17
vn 0 -1 -6.12323e-17
vn -5.69399e-24 -1 -6.12323e-17

# Mesh 'defaultobject' with 18 faces
g defaultobject
usemtl DefaultMaterial
f  1//1 2//1 3//1
f  2//2 1//2 4//2
f  4//3 5//3 2//3
f  5//4 1//4 6//4
f  1//5 5//5 4//5
f  7//6 1//6 3//6
f  1//6 7//6 8//7
f  1//8 8//8 6//8
f  6//8 8//8 9//9
f  9//10 5//10 6//10
f  5//10 9//10 10//11
f  10//12 2//12 5//12
f  2//12 10//12 11//12
f  11//13 3//13 2//13
f  3//13 11//13 7//13
f  8//14 10//14 9//14
f  10//14 8//14 7//15
f  10//14 7//15 11//16

