# {"id":"_37501","idOriginal":"_37501","origin":[14.322884051547282,48.3032323406218],"elevation":254.445}
# Longitude: 14.322884051547282
# Latitude: 48.3032323406218
# Elevation: 254.445

# File produced by Open Asset Import Library (http://www.assimp.sf.net)
# (assimp v3.1.0)

mtllib _37501.obj.mtl

# 8 vertex positions
v  0 3.862 2.36479e-16
v  7.316 3.862 4.574
v  5.233 3.862 -1.737
v  2.224 3.862 6.236
v  7.316 -2.80077e-16 4.574
v  5.233 1.06361e-16 -1.737
v  0 0 0
v  2.224 -3.81845e-16 6.236

# 0 UV coordinates

# 9 vertex normals
vn -0 1 0
vn 0.949612 0 -0.313428
vn -0.315031 0 -0.949082
vn -0.315031 5.81145e-17 -0.949082
vn -0.941892 -2.05689e-17 0.335915
vn -0.941892 0 0.335915
vn 0.310285 -0 0.950644
vn 4.46151e-24 -1 -6.12323e-17
vn 1.45055e-24 -1 -6.12323e-17

# Mesh 'defaultobject' with 12 faces
g defaultobject
usemtl DefaultMaterial
f  1//1 2//1 3//1
f  2//1 1//1 4//1
f  5//2 3//2 2//2
f  3//2 5//2 6//2
f  6//3 1//3 3//3
f  1//3 6//3 7//4
f  7//5 4//5 1//5
f  4//5 7//5 8//6
f  8//7 2//7 4//7
f  2//7 8//7 5//7
f  8//8 6//8 5//8
f  6//8 8//8 7//9

