# {"id":"ID_46350","idOriginal":"ID_46350","origin":[14.293694186419417,48.3439220363194],"elevation":289.24}
# Longitude: 14.293694186419417
# Latitude: 48.3439220363194
# Elevation: 289.24

# File produced by Open Asset Import Library (http://www.assimp.sf.net)
# (assimp v3.1.0)

mtllib ID_46350.obj.mtl

# 8 vertex positions
v  6.058 1.76 -0.249
v  0.141 1.76 3.011
v  6.2 1.76 2.764
v  0 1.76 1.07769e-16
v  6.2 -1.69246e-16 2.764
v  6.058 1.52469e-17 -0.249
v  0 0 0
v  0.141 -1.84371e-16 3.011

# 0 UV coordinates

# 9 vertex normals
vn 0 1 -0
vn 0.998891 0 -0.0470768
vn -0.041068 0 -0.999156
vn -0.041068 6.11807e-17 -0.999156
vn -0.998905 -2.86427e-18 0.046777
vn -0.998905 0 0.046777
vn 0.040732 -0 0.99917
vn 1.44716e-24 -1 -6.12323e-17
vn 0 -1 -6.12323e-17

# Mesh 'defaultobject' with 12 faces
g defaultobject
usemtl DefaultMaterial
f  1//1 2//1 3//1
f  2//1 1//1 4//1
f  5//2 1//2 3//2
f  1//2 5//2 6//2
f  6//3 4//3 1//3
f  4//3 6//3 7//4
f  7//5 2//5 4//5
f  2//5 7//5 8//6
f  8//7 3//7 2//7
f  3//7 8//7 5//7
f  8//8 6//8 5//8
f  6//8 8//8 7//9

