# {"id":"ID_60234","idOriginal":"ID_60234","origin":[14.305994558500101,48.32832221407494],"elevation":258.307,"wof":[{"Id":85681677,"Name":"Oberösterreich","Placetype":"region","Offset":-1},{"Id":85898419,"Name":"Furth","Placetype":"neighbourhood","Offset":-1},{"Id":102049853,"Name":"Linz","Placetype":"county","Offset":-1},{"Id":85632785,"Name":"Austria","Placetype":"country","Offset":-1},{"Id":101748071,"Name":"Linz","Placetype":"locality","Offset":-1}]}

# Attribution: City of Linz <http://geo.data.linz.gv.at/katalog/geodata/3d_geo_daten_lod2/>
# Longitude: 14.305994558500101
# Latitude: 48.32832221407494
# Elevation: 258.307

# File produced by Open Asset Import Library (http://www.assimp.sf.net)
# (assimp v3.1.0)


# 8 vertex positions
v  1.319 6.353 -0.528
v  0.503 6.353 1.275
v  1.84 6.353 0.747
v  0 6.353 3.89009e-16
v  1.84 -4.57406e-17 0.747
v  1.319 3.23307e-17 -0.528
v  0 0 0
v  0.503 -7.80712e-17 1.275

# 0 UV coordinates

# 8 vertex normals
vn 0 1 -0
vn 0.925697 0 -0.378265
vn -0.371633 0 -0.92838
vn -0.371633 5.68468e-17 -0.92838
vn -0.930227 -2.24713e-17 0.366984
vn -0.930227 0 0.366984
vn 0.367309 -0 0.930099
vn 0 -1 -6.12323e-17

# Mesh 'defaultobject' with 12 faces
g defaultobject
usemtl DefaultMaterial
f  1//1 2//1 3//1
f  2//1 1//1 4//1
f  5//2 1//2 3//2
f  1//2 5//2 6//2
f  6//3 4//3 1//3
f  4//3 6//3 7//4
f  7//5 2//5 4//5
f  2//5 7//5 8//6
f  8//7 3//7 2//7
f  3//7 8//7 5//7
f  8//8 6//8 5//8
f  6//8 8//8 7//8

