# {"id":"_48733","idOriginal":"_48733","origin":[14.278234147395315,48.29875718731612],"elevation":285.583,"wof":[{"Id":85681677,"Name":"Oberösterreich","Placetype":"region","Offset":-1},{"Id":85898459,"Name":"Wegscheid","Placetype":"neighbourhood","Offset":-1},{"Id":102049853,"Name":"Linz","Placetype":"county","Offset":-1},{"Id":101748071,"Name":"Linz","Placetype":"locality","Offset":-1},{"Id":85632785,"Name":"Austria","Placetype":"country","Offset":-1}]}

# Attribution: City of Linz <http://geo.data.linz.gv.at/katalog/geodata/3d_geo_daten_lod2/>
# Longitude: 14.278234147395315
# Latitude: 48.29875718731612
# Elevation: 285.583

# File produced by Open Asset Import Library (http://www.assimp.sf.net)
# (assimp v3.1.0)


# 10 vertex positions
v  4.586 2.35 -2.16
v  2.394 2.35 2.302
v  5.935 2.35 0.611
v  0 2.35 1.43896e-16
v  1.504 2.35 2.632
v  5.935 -3.7413e-17 0.611
v  4.586 1.32262e-16 -2.16
v  0 0 0
v  1.504 -1.61164e-16 2.632
v  2.394 -1.40957e-16 2.302

# 0 UV coordinates

# 9 vertex normals
vn 0 1 -0
vn 0.899114 0 -0.437714
vn -0.426101 0 -0.904676
vn -0.426101 5.53954e-17 -0.904676
vn -0.868243 -3.03797e-17 0.496139
vn -0.868243 0 0.496139
vn 0.430932 -0 0.902384
vn 0.347657 -0 0.937622
vn 0 -1 -6.12323e-17

# Mesh 'defaultobject' with 16 faces
g defaultobject
usemtl DefaultMaterial
f  1//1 2//1 3//1
f  2//1 1//1 4//1
f  2//1 4//1 5//1
f  6//2 1//2 3//2
f  1//2 6//2 7//2
f  7//3 4//3 1//3
f  4//3 7//3 8//4
f  8//5 5//5 4//5
f  5//5 8//5 9//6
f  10//7 3//7 2//7
f  3//7 10//7 6//7
f  9//8 2//8 5//8
f  2//8 9//8 10//8
f  10//9 7//9 6//9
f  7//9 10//9 8//9
f  8//9 10//9 9//9

