# {"id":"_28448","idOriginal":"_28448","origin":[14.273591108705617,48.31067377012675],"elevation":278.289}
# Longitude: 14.273591108705617
# Latitude: 48.31067377012675
# Elevation: 278.289

# File produced by Open Asset Import Library (http://www.assimp.sf.net)
# (assimp v3.1.0)

mtllib _28448.obj.mtl

# 32 vertex positions
v  7.077 4.531 2.466
v  1.809 4.531 -5.192
v  0 4.531 2.77444e-16
v  2.79 4.531 -4.85
v  6.56 4.531 1.577
v  7.294 4.531 1.843
v  16.249 4.531 -6.082
v  11.1 4.531 -8.773
v  10.062 4.531 -8.316
v  16.528 4.531 -6.882
v  3.771 4.531 -7.666
v  5.15 4.531 -7.186
v  10.036 4.531 -8.242
v  6.007 4.531 -9.645
v  6.382 4.531 -10.72
v  11.194 4.531 -9.043
v  7.294 -1.12851e-16 1.843
v  6.56 -9.65634e-17 1.577
v  16.528 4.21401e-16 -6.882
v  11.1 5.37191e-16 -8.773
v  11.194 5.53724e-16 -9.043
v  6.382 6.56411e-16 -10.72
v  5.15 4.40016e-16 -7.186
v  3.771 4.69407e-16 -7.666
v  2.79 2.96977e-16 -4.85
v  1.809 3.17918e-16 -5.192
v  10.036 5.04677e-16 -8.242
v  10.062 5.09208e-16 -8.316
v  16.249 3.72415e-16 -6.082
v  7.077 -1.50999e-16 2.466
v  0 0 0
v  6.007 5.90586e-16 -9.645

# 0 UV coordinates

# 32 vertex normals
vn 0 1 0
vn 0.340714 0 -0.940167
vn 0.328986 0 -0.944335
vn 0.329091 0 -0.944298
vn 0.328733 0 -0.944423
vn 0.329193 0 -0.944263
vn 0.942674 -0 0.333714
vn 0.943461 0 0.331485
vn 0.944226 -0 0.329298
vn 0.944403 -0 0.328791
vn 0.944354 -0 0.328932
vn -0.339618 0 0.940563
vn -0.329048 -5.78225e-17 0.944313
vn -0.329048 0 0.944313
vn -0.9442 0 -0.329372
vn -0.944295 -7.20823e-05 -0.329101
vn -0.944266 -0 -0.329184
vn -1.86749e-19 1 6.11759e-17
vn -0.944338 0 -0.328976
vn -0.944323 0 -0.329021
vn -0.944323 2.01468e-17 -0.329021
vn 1.08706e-23 -1 -6.12324e-17
vn -1.28585e-24 -1 -6.12323e-17
vn -1.9274e-23 -1 -6.12323e-17
vn 6.8133e-24 -1 -6.12323e-17
vn -7.90554e-23 -1 -6.12322e-17
vn 7.71597e-23 -1 -6.12323e-17
vn -5.78728e-23 -1 -6.12323e-17
vn -1.1602e-23 -1 -6.12323e-17
vn 1.25144e-23 -1 -6.12323e-17
vn 0 -1 -6.12323e-17
vn 0 -1 -6.12323e-17

# Mesh 'defaultobject' with 60 faces
g defaultobject
usemtl DefaultMaterial
f  1//1 2//1 3//1
f  2//1 1//1 4//1
f  4//1 1//1 5//1
f  5//1 1//1 6//1
f  7//1 8//1 9//1
f  8//1 7//1 10//1
f  5//1 11//1 4//1
f  11//1 5//1 12//1
f  12//1 5//1 13//1
f  12//1 13//1 14//1
f  14//1 13//1 15//1
f  15//1 13//1 9//1
f  15//1 9//1 16//1
f  16//1 9//1 8//1
f  17//2 5//2 6//2
f  5//2 17//2 18//2
f  19//3 8//3 10//3
f  8//3 19//3 20//3
f  21//4 15//4 16//4
f  15//4 21//4 22//4
f  23//5 11//5 12//5
f  11//5 23//5 24//5
f  25//6 2//6 4//6
f  2//6 25//6 26//6
f  18//7 13//7 5//7
f  13//7 18//7 27//7
f  13//8 27//8 9//8
f  9//8 27//8 28//8
f  29//9 10//9 7//9
f  10//9 29//9 19//9
f  20//10 16//10 8//10
f  16//10 20//10 21//10
f  30//11 6//11 1//11
f  6//11 30//11 17//11
f  28//12 7//12 9//12
f  7//12 28//12 29//12
f  31//13 1//13 3//13
f  1//13 31//13 30//14
f  22//15 14//15 15//15
f  14//16 22//16 12//16
f  12//17 22//17 23//17
f  23//18 22//18 32//18
f  24//19 4//19 11//19
f  4//19 24//19 25//19
f  26//20 3//20 2//20
f  3//20 26//20 31//21
f  29//22 20//22 19//22
f  20//22 29//22 28//23
f  30//24 18//24 17//24
f  20//22 22//25 21//25
f  22//25 20//22 28//23
f  22//25 28//23 27//26
f  22//25 27//26 18//24
f  22//25 18//24 32//27
f  32//27 18//24 23//28
f  23//28 18//24 24//29
f  24//29 18//24 25//30
f  25//30 18//24 26//31
f  26//31 18//24 31//32
f  31//32 18//24 30//24

