# {"id":"ID_60682","idOriginal":"ID_60682","origin":[14.273199810783876,48.33152763284542],"elevation":347.234,"wof":[{"Id":102049853,"Name":"Linz","Placetype":"county","Offset":-1},{"Id":85632785,"Name":"Austria","Placetype":"country","Offset":-1},{"Id":85681677,"Name":"Oberösterreich","Placetype":"region","Offset":-1},{"Id":85898425,"Name":"Harbach","Placetype":"neighbourhood","Offset":-1},{"Id":101748071,"Name":"Linz","Placetype":"locality","Offset":-1}]}

# Attribution: City of Linz <http://geo.data.linz.gv.at/katalog/geodata/3d_geo_daten_lod2/>
# Longitude: 14.273199810783876
# Latitude: 48.33152763284542
# Elevation: 347.234

# File produced by Open Asset Import Library (http://www.assimp.sf.net)
# (assimp v3.1.0)


# 12 vertex positions
v  10.822 7.387 1.661
v  0 7.387 4.52323e-16
v  10.812 7.387 1.726
v  4.277 7.387 0.602
v  1.451 7.387 0.164
v  0.009 7.387 -0.06
v  0.009 3.67394e-18 -0.06
v  1.451 -1.00421e-17 0.164
v  4.277 -3.68619e-17 0.602
v  10.822 -1.01707e-16 1.661
v  0 0 0
v  10.812 -1.05687e-16 1.726

# 0 UV coordinates

# 16 vertex normals
vn 0 1 0
vn 0.153499 0 -0.988149
vn 0.153161 6.75983e-05 -0.988201
vn 0.159724 -0.00381856 -0.987154
vn 0.153497 0.00552597 -0.988134
vn 0.153158 0.00596554 -0.988184
vn 0.159726 0 -0.987162
vn -0.988936 0 -0.14834
vn -0.988936 9.08323e-18 -0.14834
vn -0.157641 -6.04667e-17 0.987496
vn -0.157641 0 0.987496
vn 0.988371 -0 0.15206
vn 0 -1 -6.12324e-17
vn 0 -1 -6.12323e-17
vn 0 -1 -6.12325e-17
vn -2.65599e-23 -1 -6.12322e-17

# Mesh 'defaultobject' with 20 faces
g defaultobject
usemtl DefaultMaterial
f  1//1 2//1 3//1
f  2//1 1//1 4//1
f  2//1 4//1 5//1
f  2//1 5//1 6//1
f  5//2 7//2 6//2
f  7//3 5//3 4//3
f  7//4 4//4 1//4
f  7//5 1//5 8//5
f  8//6 1//6 9//6
f  9//7 1//7 10//7
f  7//8 2//8 6//8
f  2//8 7//8 11//9
f  11//10 3//10 2//10
f  3//10 11//10 12//11
f  12//12 1//12 3//12
f  1//12 12//12 10//12
f  8//13 11//13 7//13
f  11//13 8//13 12//14
f  12//14 8//13 9//15
f  12//14 9//15 10//16

