# {"id":"ID_9094","idOriginal":"ID_9094","origin":[14.284004129060127,48.318696243701474],"elevation":262.091,"wof":[{"Id":85681677,"Name":"Oberösterreich","Placetype":"region","Offset":-1},{"Id":102049853,"Name":"Linz","Placetype":"county","Offset":-1},{"Id":101748071,"Name":"Linz","Placetype":"locality","Offset":-1},{"Id":85632785,"Name":"Austria","Placetype":"country","Offset":-1},{"Id":85898453,"Name":"Urfahr","Placetype":"neighbourhood","Offset":-1}]}

# Attribution: City of Linz <http://geo.data.linz.gv.at/katalog/geodata/3d_geo_daten_lod2/>
# Longitude: 14.284004129060127
# Latitude: 48.318696243701474
# Elevation: 262.091

# File produced by Open Asset Import Library (http://www.assimp.sf.net)
# (assimp v3.1.0)


# 20 vertex positions
v  0.365 3.671 -0.294
v  7.215 3.671 -5.158
v  7.123 3.671 -5.298
v  7.893 3.671 -5.666
v  15.15 3.671 3.572
v  8.295 3.671 -5.968
v  0 3.671 2.24784e-16
v  16.164 3.671 20.575
v  20.002 3.671 17.675
v  23.441 3.671 15.11
v  8.295 3.65435e-16 -5.968
v  7.215 3.15836e-16 -5.158
v  7.893 3.46942e-16 -5.666
v  7.123 3.24409e-16 -5.298
v  0.365 1.80023e-17 -0.294
v  0 0 0
v  15.15 -2.18722e-16 3.572
v  23.441 -9.25221e-16 15.11
v  16.164 -1.25986e-15 20.575
v  20.002 -1.08228e-15 17.675

# 0 UV coordinates

# 20 vertex normals
vn 0 1 0
vn -0.600636 0 -0.799522
vn -0.599622 0.000173659 -0.800283
vn -0.6 -0 -0.8
vn 2.14423e-20 -1 -6.12087e-17
vn -0.59508 0 -0.803667
vn -0.627294 0 -0.778783
vn -0.627294 4.76867e-17 -0.778783
vn 0.835705 0 -0.549178
vn 0.812091 0 -0.583531
vn 0.81208 0 -0.583546
vn -0.786357 -3.78277e-17 0.617773
vn -0.786357 0 0.617773
vn 0.602857 -0 0.79785
vn 0.597872 0 0.801591
vn 0 -1 -6.12323e-17
vn 1.53942e-23 -1 -6.12323e-17
vn 1.58499e-23 -1 -6.12323e-17
vn -2.48404e-23 -1 -6.12323e-17
vn 6.94909e-24 -1 -6.12323e-17

# Mesh 'defaultobject' with 36 faces
g defaultobject
usemtl DefaultMaterial
f  1//1 2//1 3//1
f  4//1 5//1 6//1
f  5//1 4//1 2//1
f  5//1 2//1 1//1
f  5//1 1//1 7//1
f  5//1 7//1 8//1
f  5//1 8//1 9//1
f  5//1 9//1 10//1
f  11//2 4//2 6//2
f  4//3 11//3 2//3
f  2//4 11//4 12//4
f  12//5 11//5 13//5
f  14//6 1//6 3//6
f  1//6 14//6 15//6
f  15//7 7//7 1//7
f  7//7 15//7 16//8
f  12//9 3//9 2//9
f  3//9 12//9 14//9
f  5//10 11//10 6//10
f  11//10 5//10 17//10
f  17//11 5//11 10//11
f  17//11 10//11 18//11
f  16//12 8//12 7//12
f  8//12 16//12 19//13
f  19//14 9//14 8//14
f  9//14 19//14 20//14
f  9//15 20//15 10//15
f  10//15 20//15 18//15
f  15//16 19//16 16//16
f  19//16 15//16 14//17
f  19//16 14//17 12//5
f  19//16 12//5 13//5
f  19//16 13//5 11//5
f  19//16 11//5 17//18
f  19//16 17//18 20//19
f  20//19 17//18 18//20

