# {"id":"_12334","idOriginal":"_12334","origin":[14.283381246780745,48.29890600292873],"elevation":265.119}
# Longitude: 14.283381246780745
# Latitude: 48.29890600292873
# Elevation: 265.119

# File produced by Open Asset Import Library (http://www.assimp.sf.net)
# (assimp v3.1.0)

mtllib _12334.obj.mtl

# 14 vertex positions
v  7.529 16.899 -2.22
v  14.871 16.203 16.424
v  10.693 16.203 -2.87
v  7.684 16.894 -1.623
v  4.103 18.58 18.828
v  0 18.585 1.138e-15
v  2.42 18.582 11.107
v  4.103 -1.15288e-15 18.828
v  14.871 -1.00568e-15 16.424
v  10.693 1.75737e-16 -2.87
v  7.529 1.35936e-16 -2.22
v  0 0 0
v  7.684 9.93801e-17 -1.623
v  2.42 -6.80108e-16 11.107

# 0 UV coordinates

# 22 vertex normals
vn 0.20588 0.977561 -0.0445821
vn 0.210719 0.976439 -0.0465299
vn 0.20585 0.977569 -0.0445472
vn 0.205723 0.977595 -0.0445715
vn -0.111443 0.993468 0.0245492
vn 0.21789 -0 0.975973
vn 0.21789 0 0.975973
vn 0.977348 0 -0.211639
vn -0.201234 0 -0.979543
vn -0.201234 0 -0.979543
vn -0.206659 0 -0.978413
vn -0.206659 0 -0.978413
vn -0.967909 0 0.2513
vn -0.967909 0 0.2513
vn -0.977077 -1.30355e-17 0.212886
vn -0.977057 -5.62737e-05 0.212976
vn -0.977069 0 0.212923
vn 1.02466e-19 1 6.1198e-17
vn 0 -1 -6.12323e-17
vn -1.41801e-22 -1 -6.12323e-17
vn -6.75324e-24 -1 -6.12323e-17
vn -4.85764e-24 -1 -6.12323e-17

# Mesh 'defaultobject' with 24 faces
g defaultobject
usemtl DefaultMaterial
f  1//1 2//1 3//1
f  2//2 1//2 4//2
f  2//3 4//3 5//3
f  5//4 4//4 6//4
f  5//5 6//5 7//5
f  8//6 2//6 5//6
f  2//6 8//6 9//7
f  9//8 3//8 2//8
f  3//8 9//8 10//8
f  3//9 11//9 1//9
f  11//9 3//9 10//10
f  4//11 12//11 6//11
f  12//11 4//11 13//12
f  11//13 4//13 1//13
f  4//13 11//13 13//14
f  12//15 7//15 6//15
f  7//16 12//16 5//16
f  5//17 12//17 8//17
f  8//18 12//18 14//18
f  9//19 11//19 10//19
f  11//19 9//19 13//20
f  13//20 9//19 12//19
f  12//19 9//19 14//21
f  14//21 9//19 8//22

