# {"id":"ID_52167","idOriginal":"ID_52167","origin":[14.303465292883683,48.33539900429811],"elevation":280.731,"wof":[{"Id":85681677,"Name":"Oberösterreich","Placetype":"region","Offset":-1},{"Id":85898425,"Name":"Harbach","Placetype":"neighbourhood","Offset":-1},{"Id":102049853,"Name":"Linz","Placetype":"county","Offset":-1},{"Id":85632785,"Name":"Austria","Placetype":"country","Offset":-1},{"Id":101748071,"Name":"Linz","Placetype":"locality","Offset":-1}]}

# Attribution: City of Linz <http://geo.data.linz.gv.at/katalog/geodata/3d_geo_daten_lod2/>
# Longitude: 14.303465292883683
# Latitude: 48.33539900429811
# Elevation: 280.731

# File produced by Open Asset Import Library (http://www.assimp.sf.net)
# (assimp v3.1.0)


# 10 vertex positions
v  0 1.912 1.17076e-16
v  3.289 1.912 3.28
v  3.044 1.912 -0.287
v  0.048 1.912 0.522
v  0.287 1.912 3.577
v  0 0 0
v  0.287 -2.19028e-16 3.577
v  0.048 -3.19633e-17 0.522
v  3.289 -2.00842e-16 3.28
v  3.044 1.75737e-17 -0.287

# 0 UV coordinates

# 11 vertex normals
vn -0 1 0
vn -0.995799 -5.60691e-18 0.0915677
vn -0.996947 0.00373474 0.0779935
vn -0.996797 0 0.0799778
vn 2.41931e-21 -1 -6.12322e-17
vn 0.0984534 -0 0.995142
vn 0.997649 0 -0.0685238
vn -0.0938675 0 -0.995585
vn -0.0938675 6.0962e-17 -0.995585
vn 0 -1 -6.12323e-17
vn 4.84428e-24 -1 -6.12323e-17

# Mesh 'defaultobject' with 16 faces
g defaultobject
usemtl DefaultMaterial
f  1//1 2//1 3//1
f  2//1 1//1 4//1
f  2//1 4//1 5//1
f  6//2 4//2 1//2
f  4//3 6//3 5//3
f  5//4 6//4 7//4
f  7//5 6//5 8//5
f  7//6 2//6 5//6
f  2//6 7//6 9//6
f  9//7 3//7 2//7
f  3//7 9//7 10//7
f  10//8 1//8 3//8
f  1//8 10//8 6//9
f  8//5 9//10 7//5
f  9//10 8//5 6//5
f  9//10 6//5 10//11

