# {"id":"_28686","idOriginal":"_28686","origin":[14.304579510601375,48.29690123565996],"elevation":260.384,"wof":[{"Id":102049853,"Name":"Linz","Placetype":"county","Offset":-1},{"Id":85632785,"Name":"Austria","Placetype":"country","Offset":-1},{"Id":101748071,"Name":"Linz","Placetype":"locality","Offset":-1},{"Id":85681677,"Name":"Oberösterreich","Placetype":"region","Offset":-1},{"Id":85898449,"Name":"Steeg","Placetype":"neighbourhood","Offset":-1}]}

# Attribution: City of Linz <http://geo.data.linz.gv.at/katalog/geodata/3d_geo_daten_lod2/>
# Longitude: 14.304579510601375
# Latitude: 48.29690123565996
# Elevation: 260.384

# File produced by Open Asset Import Library (http://www.assimp.sf.net)
# (assimp v3.1.0)


# 16 vertex positions
v  0 5.774 3.53556e-16
v  10.313 7.131 0.059
v  3.98 7.177 -5.106
v  6.873 5.785 5.248
v  13.08 7.135 2.172
v  10.53 6.22 5.54
v  6.718 5.725 5.479
v  9.141 5.714 7.416
v  6.718 -3.35492e-16 5.479
v  9.141 -4.54099e-16 7.416
v  6.873 -3.21347e-16 5.248
v  0 0 0
v  13.08 -1.32997e-16 2.172
v  10.53 -3.39227e-16 5.54
v  10.313 -3.61271e-18 0.059
v  3.98 3.12652e-16 -5.106

# 0 UV coordinates

# 22 vertex normals
vn -0.129555 0.977313 0.167556
vn -0.129554 0.977302 0.167621
vn -0.129462 0.977304 0.167682
vn -0.129619 0.977335 0.167379
vn -0.129592 0.977417 0.166919
vn -0.129587 0.977292 0.167651
vn -0.62442 0 0.781089
vn -0.62442 0 0.781089
vn -0.606879 0 0.794794
vn -0.606879 0 0.794794
vn 0.803686 -0 0.595053
vn 0.796685 0.00437639 0.604379
vn 0.799561 0 0.600585
vn -1.00219e-21 -1 -6.12331e-17
vn 0.606917 0 -0.794765
vn 0.606917 0 -0.794765
vn 0.632024 0 -0.774949
vn -0.788703 0 -0.614774
vn -0.788703 3.76441e-17 -0.614774
vn -0.830387 0 -0.557187
vn 0 -1 -6.12323e-17
vn -2.69331e-23 -1 -6.12323e-17

# Mesh 'defaultobject' with 28 faces
g defaultobject
usemtl DefaultMaterial
f  1//1 2//1 3//1
f  2//2 1//2 4//2
f  2//3 4//3 5//3
f  5//4 4//4 6//4
f  6//5 4//5 7//5
f  6//6 7//6 8//6
f  9//7 8//7 7//7
f  8//7 9//7 10//8
f  1//9 11//9 4//9
f  11//9 1//9 12//10
f  10//11 6//11 8//11
f  6//12 10//12 5//12
f  5//13 10//13 13//13
f  13//14 10//14 14//14
f  13//15 2//15 5//15
f  2//15 13//15 15//16
f  2//17 16//17 3//17
f  16//17 2//17 15//17
f  16//18 1//18 3//18
f  1//18 16//18 12//19
f  11//20 7//20 4//20
f  7//20 11//20 9//20
f  15//21 12//21 16//21
f  12//21 15//21 13//14
f  12//21 13//14 11//21
f  11//21 13//14 14//14
f  11//21 14//14 10//14
f  11//21 10//14 9//22

