# {"id":"_49933","idOriginal":"_49933","origin":[14.292502823741275,48.29606771049993],"elevation":262.014}
# Longitude: 14.292502823741275
# Latitude: 48.29606771049993
# Elevation: 262.014

# File produced by Open Asset Import Library (http://www.assimp.sf.net)
# (assimp v3.1.0)

mtllib _49933.obj.mtl

# 22 vertex positions
v  3.804 2.066 0.62
v  0.801 2.066 1.993
v  1.022 2.066 2.452
v  1.159 2.066 1.771
v  2.949 2.066 -1.748
v  0 2.066 1.26506e-16
v  3.503 2.066 -1.202
v  5.205 2.066 -0.071
v  4.95 2.066 -0.489
v  6.179 2.066 -2.784
v  6.802 2.066 -1.688
v  5.205 4.3475e-18 -0.071
v  4.95 2.99426e-17 -0.489
v  6.802 1.0336e-16 -1.688
v  6.179 1.70471e-16 -2.784
v  3.503 7.36013e-17 -1.202
v  2.949 1.07034e-16 -1.748
v  3.804 -3.7964e-17 0.62
v  1.022 -1.50142e-16 2.452
v  0 0 0
v  1.159 -1.08442e-16 1.771
v  0.801 -1.22036e-16 1.993

# 0 UV coordinates

# 23 vertex normals
vn 0 1 0
vn 0.853685 0 -0.520789
vn 0.869364 0 -0.494173
vn 0.701946 0 -0.712231
vn 0.543458 -0 0.839436
vn 0.442342 -0 0.896847
vn 0.54998 -0 0.835178
vn -0.508903 0 -0.860824
vn -0.509898 0 -0.860235
vn -0.509898 5.26742e-17 -0.860235
vn -0.527008 0 -0.84986
vn -0.836745 -3.35304e-17 0.547593
vn -0.836745 0 0.547593
vn -0.901002 0 0.433816
vn -1.57389e-23 -1 -6.12324e-17
vn 3.77854e-23 -1 -6.12322e-17
vn 0 -1 -6.12323e-17
vn 7.80564e-25 -1 -6.12323e-17
vn 3.13236e-23 -1 -6.12323e-17
vn 0 -1 -6.12323e-17
vn 0 -1 -6.12324e-17
vn 3.15331e-24 -1 -6.12323e-17
vn -4.76629e-24 -1 -6.12323e-17

# Mesh 'defaultobject' with 40 faces
g defaultobject
usemtl DefaultMaterial
f  1//1 2//1 3//1
f  2//1 1//1 4//1
f  4//1 5//1 6//1
f  5//1 4//1 1//1
f  5//1 1//1 7//1
f  7//1 1//1 8//1
f  7//1 8//1 9//1
f  9//1 10//1 7//1
f  10//1 9//1 11//1
f  12//2 9//2 8//2
f  9//2 12//2 13//2
f  14//3 10//3 11//3
f  10//3 14//3 15//3
f  16//4 5//4 7//4
f  5//4 16//4 17//4
f  13//5 11//5 9//5
f  11//5 13//5 14//5
f  18//6 8//6 1//6
f  8//6 18//6 12//6
f  19//7 1//7 3//7
f  1//7 19//7 18//7
f  15//8 7//8 10//8
f  7//8 15//8 16//8
f  17//9 6//9 5//9
f  6//9 17//9 20//10
f  21//11 2//11 4//11
f  2//11 21//11 22//11
f  20//12 4//12 6//12
f  4//12 20//12 21//13
f  22//14 3//14 2//14
f  3//14 22//14 19//14
f  22//15 18//15 19//15
f  18//15 22//15 21//16
f  18//15 21//16 20//17
f  18//15 20//17 17//18
f  18//15 17//18 16//19
f  18//15 16//19 12//20
f  12//20 16//19 13//21
f  13//21 16//19 15//22
f  13//21 15//22 14//23

