# {"id":"ID_58644","idOriginal":"ID_58644","origin":[14.324035435387797,48.2556260979594],"elevation":257.004,"wof":[{"Id":102049853,"Name":"Linz","Placetype":"county","Offset":-1},{"Id":101748071,"Name":"Linz","Placetype":"locality","Offset":-1},{"Id":85898429,"Name":"Kleinmünchen","Placetype":"neighbourhood","Offset":-1},{"Id":85632785,"Name":"Austria","Placetype":"country","Offset":-1},{"Id":85681677,"Name":"Oberösterreich","Placetype":"region","Offset":-1}]}

# Attribution: City of Linz <http://geo.data.linz.gv.at/katalog/geodata/3d_geo_daten_lod2/>
# Longitude: 14.324035435387797
# Latitude: 48.2556260979594
# Elevation: 257.004

# File produced by Open Asset Import Library (http://www.assimp.sf.net)
# (assimp v3.1.0)


# 20 vertex positions
v  3.227 15.246 -2.145
v  3.464 15.246 -1.756
v  3.559 15.246 -1.872
v  3.143 15.246 -2.049
v  2.542 15.246 -0.629
v  2.195 15.246 -0.962
v  2.308 15.246 -0.343
v  1.374 15.246 -1.675
v  1.152 15.246 0.937
v  0 15.246 9.33548e-16
v  1.152 -5.73747e-17 0.937
v  2.308 2.10027e-17 -0.343
v  2.542 3.85151e-17 -0.629
v  3.559 1.14627e-16 -1.872
v  3.464 1.07524e-16 -1.756
v  3.227 1.31343e-16 -2.145
v  2.195 5.89055e-17 -0.962
v  1.374 1.02564e-16 -1.675
v  3.143 1.25465e-16 -2.049
v  0 0 0

# 0 UV coordinates

# 24 vertex normals
vn 0 1 0
vn 0.74214 -0 0.670245
vn 0.773957 -0 0.633238
vn 0.773988 -1.17063e-06 0.6332
vn 0.77366 6.08645e-05 0.633601
vn 0.773957 -2.11595e-08 0.633238
vn 0.773957 0 0.633238
vn 6.58192e-20 -1 -6.11753e-17
vn 0.635136 0 -0.7724
vn 0.655701 0 -0.755021
vn -0.752577 0 -0.658504
vn -0.753649 -1.36377e-05 -0.657277
vn -0.753562 -0 -0.657376
vn -2.20633e-20 1 6.12255e-17
vn -0.773155 0 -0.634218
vn -0.773155 3.88346e-17 -0.634218
vn -0.630998 -4.75031e-17 0.775784
vn -0.630998 0 0.775784
vn 4.17139e-23 -1 -6.12324e-17
vn 7.46177e-24 -1 -6.12323e-17
vn 5.27967e-24 -1 -6.12323e-17
vn -1.40508e-24 -1 -6.12323e-17
vn 1.4266e-24 -1 -6.12323e-17
vn 0 -1 -6.12323e-17

# Mesh 'defaultobject' with 36 faces
g defaultobject
usemtl DefaultMaterial
f  1//1 2//1 3//1
f  2//1 1//1 4//1
f  2//1 4//1 5//1
f  5//1 4//1 6//1
f  5//1 6//1 7//1
f  7//1 6//1 8//1
f  7//1 8//1 9//1
f  9//1 8//1 10//1
f  11//2 7//2 9//2
f  7//2 11//2 12//2
f  12//3 5//3 7//3
f  5//4 12//4 2//4
f  2//5 12//5 3//5
f  3//6 12//3 13//6
f  3//6 13//6 14//7
f  14//8 13//8 15//8
f  14//9 1//9 3//9
f  1//9 14//9 16//9
f  17//10 8//10 6//10
f  8//10 17//10 18//10
f  16//11 4//11 1//11
f  4//12 16//12 6//12
f  6//13 16//13 17//13
f  17//14 16//14 19//14
f  18//15 10//15 8//15
f  10//15 18//15 20//16
f  20//17 9//17 10//17
f  9//17 20//17 11//18
f  15//8 16//19 14//8
f  16//19 15//8 19//20
f  19//20 15//8 17//21
f  17//21 15//8 13//8
f  17//21 20//22 18//22
f  20//22 17//21 13//8
f  20//22 13//8 12//23
f  20//22 12//23 11//24

