# {"id":"ID_29693","idOriginal":"ID_29693","origin":[14.371512414803382,48.253074438416654],"elevation":249.274,"wof":[{"Id":85681677,"Name":"Oberösterreich","Placetype":"region","Offset":-1},{"Id":85898441,"Name":"Posch","Placetype":"neighbourhood","Offset":-1},{"Id":102049853,"Name":"Linz","Placetype":"county","Offset":-1},{"Id":85632785,"Name":"Austria","Placetype":"country","Offset":-1},{"Id":101748071,"Name":"Linz","Placetype":"locality","Offset":-1}]}

# Attribution: City of Linz <http://geo.data.linz.gv.at/katalog/geodata/3d_geo_daten_lod2/>
# Longitude: 14.371512414803382
# Latitude: 48.253074438416654
# Elevation: 249.274

# File produced by Open Asset Import Library (http://www.assimp.sf.net)
# (assimp v3.1.0)


# 14 vertex positions
v  0.557 2.559 4.575
v  2.58 2.559 -0.324
v  0 2.559 1.56694e-16
v  14.101 2.559 2.874
v  13.442 2.559 -2.311
v  2.558 2.559 -0.496
v  2.505 2.559 -0.919
v  2.505 5.62725e-17 -0.919
v  2.58 1.98393e-17 -0.324
v  2.558 3.03712e-17 -0.496
v  0 0 0
v  0.557 -2.80138e-16 4.575
v  13.442 1.41508e-16 -2.311
v  14.101 -1.75982e-16 2.874

# 0 UV coordinates

# 16 vertex normals
vn 0 1 0
vn -0.992242 0 0.124323
vn -0.991919 -0.000428042 0.126872
vn -0.992149 0 0.12506
vn 1.52427e-20 1 6.12307e-17
vn -0.99267 -7.40031e-18 0.120856
vn -0.99267 0 0.120856
vn -0.124603 0 -0.992207
vn -0.124603 6.07551e-17 -0.992207
vn -0.126256 0 -0.991998
vn 0.124612 -0 0.992206
vn 0.99202 0 -0.126083
vn -1.10438e-24 -1 -6.12323e-17
vn 2.22602e-24 -1 -6.12323e-17
vn 0 -1 -6.12323e-17
vn 0 -1 -6.12324e-17

# Mesh 'defaultobject' with 24 faces
g defaultobject
usemtl DefaultMaterial
f  1//1 2//1 3//1
f  2//1 1//1 4//1
f  2//1 4//1 5//1
f  6//1 5//1 7//1
f  5//1 6//1 2//1
f  8//2 6//2 7//2
f  6//3 8//3 2//3
f  2//4 8//4 9//4
f  9//5 8//5 10//5
f  11//6 1//6 3//6
f  1//6 11//6 12//7
f  9//8 3//8 2//8
f  3//8 9//8 11//9
f  13//10 7//10 5//10
f  7//10 13//10 8//10
f  12//11 4//11 1//11
f  4//11 12//11 14//11
f  14//12 5//12 4//12
f  5//12 14//12 13//12
f  11//13 9//13 12//13
f  12//13 13//14 14//14
f  13//14 12//13 9//13
f  13//14 9//13 10//15
f  13//14 10//15 8//16

