# {"id":"ID_49676","idOriginal":"ID_49676","origin":[14.270717045515699,48.31304345741113],"elevation":287.966}
# Longitude: 14.270717045515699
# Latitude: 48.31304345741113
# Elevation: 287.966

# File produced by Open Asset Import Library (http://www.assimp.sf.net)
# (assimp v3.1.0)

mtllib ID_49676.obj.mtl

# 11 vertex positions
v  4.664 2.563 2.106
v  1.811 2.762 -0.684
v  0 2.563 1.56938e-16
v  5.228 2.762 0.858
v  1.127 2.563 -2.495
v  5.791 2.563 -0.389
v  0 0 0
v  4.664 -1.28955e-16 2.106
v  5.791 2.38194e-17 -0.389
v  5.228 -5.25373e-17 0.858
v  1.127 1.52775e-16 -2.495

# 0 UV coordinates

# 17 vertex normals
vn -0.0592126 0.989595 0.131134
vn -0.0591474 0.989607 0.131068
vn -0.131109 0.989597 -0.0592223
vn 0.0592034 0.989588 -0.131192
vn 0.0591972 0.9896 -0.1311
vn -0.411534 -5.58068e-17 0.911394
vn -0.411534 0 0.911394
vn 0.911264 -0 0.411822
vn 0.911405 -0.000168964 0.411511
vn 0.91134 0 0.411655
vn 0 1 6.12343e-17
vn 0.411534 0 -0.911394
vn -0.91134 0 -0.411655
vn -0.91134 2.52066e-17 -0.411655
vn 3.77866e-24 -1 -6.12323e-17
vn 0 -1 -6.12323e-17
vn 1.93318e-20 -1 -6.1214e-17

# Mesh 'defaultobject' with 18 faces
g defaultobject
usemtl DefaultMaterial
f  1//1 2//1 3//1
f  2//2 1//2 4//2
f  2//3 5//3 3//3
f  6//4 2//4 4//4
f  2//5 6//5 5//5
f  7//6 1//6 3//6
f  1//6 7//6 8//7
f  8//8 4//8 1//8
f  4//9 8//9 6//9
f  6//10 8//10 9//10
f  9//11 8//11 10//11
f  9//12 5//12 6//12
f  5//12 9//12 11//12
f  11//13 3//13 5//13
f  3//13 11//13 7//14
f  11//15 8//15 7//15
f  8//15 11//15 9//16
f  8//15 9//16 10//17

