# {"id":"ID_19766","idOriginal":"ID_19766","origin":[14.284723028685967,48.26017957202362],"elevation":267.442}
# Longitude: 14.284723028685967
# Latitude: 48.26017957202362
# Elevation: 267.442

# File produced by Open Asset Import Library (http://www.assimp.sf.net)
# (assimp v3.1.0)

mtllib ID_19766.obj.mtl

# 16 vertex positions
v  7.039 4.162 -2.562
v  7.821 3.6 -2.66
v  7.768 3.6 -2.827
v  13.182 3.6 14.327
v  3.885 6.591 -1.414
v  9.019 6.591 14.853
v  0 3.599 2.20375e-16
v  4.857 3.601 15.379
v  7.768 1.73104e-16 -2.827
v  7.039 1.56877e-16 -2.562
v  3.885 8.65825e-17 -1.414
v  0 0 0
v  4.857 -9.41692e-16 15.379
v  9.019 -9.09484e-16 14.853
v  13.182 -8.77276e-16 14.327
v  7.821 1.62878e-16 -2.66

# 0 UV coordinates

# 27 vertex normals
vn 0.559546 0.809551 -0.17758
vn 0.559723 0.809634 -0.176645
vn 0.559439 0.809854 -0.176535
vn 0.559505 0.809797 -0.176585
vn -0.559436 0.80985 0.176563
vn -0.559465 0.809825 0.176585
vn -0.34164 0 -0.939831
vn -0.342091 -8.95104e-05 -0.939667
vn -0.341997 -2.66872e-05 -0.939701
vn -0.341639 0.000846528 -0.939831
vn -0.34203 -1.85528e-05 -0.939689
vn -0.342015 5.75397e-17 -0.939695
vn -0.953574 0 0.301158
vn -0.953574 0 0.301158
vn 0.125384 -0 0.992108
vn 0.125364 1.3082e-05 0.992111
vn 0.125384 -3.47941e-05 0.992108
vn 0.125355 0 0.992112
vn 0.95315 0 -0.302497
vn 0.953636 -7.83326e-05 -0.300962
vn 0.95312 0.00796356 -0.302487
vn 0.953636 0 -0.300962
vn 0 -1 -6.12323e-17
vn 7.51769e-25 -1 -6.12323e-17
vn -2.80846e-23 -1 -6.12323e-17
vn 0 -1 -6.12323e-17
vn 6.85317e-24 -1 -6.12323e-17

# Mesh 'defaultobject' with 28 faces
g defaultobject
usemtl DefaultMaterial
f  1//1 2//1 3//1
f  2//2 1//2 4//2
f  4//3 1//3 5//3
f  4//4 5//4 6//4
f  7//5 6//5 5//5
f  6//6 7//6 8//6
f  9//7 1//7 3//7
f  1//8 9//8 5//8
f  5//9 9//9 7//9
f  7//10 9//10 10//10
f  7//11 10//11 11//11
f  7//12 11//12 12//12
f  7//13 13//13 8//13
f  13//13 7//13 12//14
f  13//15 6//15 8//15
f  6//16 13//16 4//16
f  4//17 13//17 14//17
f  4//18 14//18 15//18
f  2//19 9//19 3//19
f  9//20 2//20 4//20
f  9//21 4//21 16//21
f  16//22 4//22 15//22
f  12//23 14//23 13//23
f  14//23 12//23 11//23
f  14//23 11//23 15//24
f  15//24 11//23 10//25
f  15//24 10//25 16//26
f  16//26 10//25 9//27

