# {"id":"_6056","idOriginal":"_6056","origin":[14.295487419742352,48.30541816592539],"elevation":259.767,"wof":[{"Id":85681677,"Name":"Oberösterreich","Placetype":"region","Offset":-1},{"Id":85898449,"Name":"Steeg","Placetype":"neighbourhood","Offset":-1},{"Id":102049853,"Name":"Linz","Placetype":"county","Offset":-1},{"Id":85632785,"Name":"Austria","Placetype":"country","Offset":-1},{"Id":101748071,"Name":"Linz","Placetype":"locality","Offset":-1}]}

# Attribution: City of Linz <http://geo.data.linz.gv.at/katalog/geodata/3d_geo_daten_lod2/>
# Longitude: 14.295487419742352
# Latitude: 48.30541816592539
# Elevation: 259.767

# File produced by Open Asset Import Library (http://www.assimp.sf.net)
# (assimp v3.1.0)


# 30 vertex positions
v  18.752 17.558 17.541
v  16.386 17.558 15.76
v  18.497 17.558 17.79
v  0 17.558 1.07512e-15
v  18.783 17.558 17.511
v  20.88 17.558 15.463
v  0.15 17.558 -0.237
v  0.294 17.558 -0.388
v  8.114 17.558 -8.587
v  24.775 17.558 15.47
v  24.341 17.558 11.482
v  24.427 17.558 11.398
v  26.751 17.558 8.974
v  26.82 17.558 9.039
v  23.873 17.558 6.262
v  18.497 -1.08932e-15 17.79
v  18.752 -1.07408e-15 17.541
v  20.88 -9.46836e-16 15.463
v  18.783 -1.07224e-15 17.511
v  24.341 -7.0307e-16 11.482
v  26.82 -5.53479e-16 9.039
v  24.427 -6.97926e-16 11.398
v  24.775 -9.47264e-16 15.47
v  26.751 -5.49499e-16 8.974
v  8.114 5.25802e-16 -8.587
v  23.873 -3.83437e-16 6.262
v  0.15 1.45121e-17 -0.237
v  0.294 2.37581e-17 -0.388
v  0 0 0
v  16.386 -9.65022e-16 15.76

# 0 UV coordinates

# 42 vertex normals
vn 0 1 0
vn 0.698639 -0 0.715475
vn 0.695428 9.08889e-05 0.718596
vn 0.698699 -1.29261e-05 0.715416
vn 0.698639 3.12414e-06 0.715475
vn 0.698652 0 0.715462
vn 4.12893e-19 1 6.16587e-17
vn 0.69874 -0 0.715376
vn 0.70203 -3.15544e-05 0.712148
vn 0.701916 0 0.712259
vn 7.1077e-20 1 6.12826e-17
vn -0.00179716 0 0.999998
vn 0.994131 0 -0.108188
vn 0.68569 0 -0.727894
vn 0.685806 8.61887e-07 -0.727784
vn 0.685781 -7.16426e-06 -0.727808
vn 0.685687 -0.000201694 -0.727896
vn 0.685785 0 -0.727804
vn 0 1 6.11756e-17
vn -0.723634 0 -0.690184
vn -0.723682 -4.48389e-05 -0.690134
vn -0.723635 -0 -0.690183
vn -4.02839e-20 1 6.11912e-17
vn -0.84498 0 -0.534798
vn -0.84498 3.27469e-17 -0.534798
vn -0.693143 0 0.7208
vn -0.693205 -1.44492e-05 0.72074
vn -0.693143 0.000112167 0.7208
vn -0.693205 0 0.72074
vn 0 -1 -6.12323e-17
vn -3.56252e-22 -1 -6.12318e-17
vn 6.56066e-24 -1 -6.12323e-17
vn 3.24716e-24 -1 -6.12323e-17
vn 9.01127e-24 -1 -6.12323e-17
vn -1.26582e-23 -1 -6.12323e-17
vn -3.84905e-24 -1 -6.12323e-17
vn 1.07855e-21 -1 -6.12313e-17
vn -3.45957e-20 -1 -6.12642e-17
vn 2.52089e-22 -1 -6.12321e-17
vn -9.61567e-21 -1 -6.12416e-17
vn -2.49467e-22 -1 -6.12325e-17
vn 6.61122e-24 -1 -6.12323e-17

# Mesh 'defaultobject' with 56 faces
g defaultobject
usemtl DefaultMaterial
f  1//1 2//1 3//1
f  2//1 1//1 4//1
f  4//1 1//1 5//1
f  4//1 5//1 6//1
f  4//1 6//1 7//1
f  7//1 6//1 8//1
f  8//1 6//1 9//1
f  9//1 6//1 10//1
f  9//1 10//1 11//1
f  9//1 11//1 12//1
f  9//1 12//1 13//1
f  13//1 12//1 14//1
f  9//1 13//1 15//1
f  16//2 1//2 3//2
f  1//3 16//3 5//3
f  5//4 16//4 6//4
f  6//5 16//2 17//5
f  6//6 17//6 18//6
f  18//7 17//7 19//7
f  20//8 12//8 11//8
f  12//9 20//9 14//9
f  14//10 20//10 21//10
f  21//11 20//11 22//11
f  18//12 10//12 6//12
f  10//12 18//12 23//12
f  23//13 11//13 10//13
f  11//13 23//13 20//13
f  21//14 13//14 14//14
f  13//15 21//15 15//15
f  15//16 21//16 9//16
f  9//17 21//17 24//17
f  9//16 24//18 25//18
f  25//19 24//19 26//19
f  25//20 8//20 9//20
f  8//21 25//21 7//21
f  7//22 25//20 27//22
f  27//23 25//19 28//23
f  27//24 4//24 7//24
f  4//24 27//24 29//25
f  2//26 16//26 3//26
f  16//27 2//27 4//27
f  16//28 4//28 30//28
f  30//29 4//29 29//29
f  27//30 30//30 29//30
f  30//30 27//30 28//31
f  30//30 28//31 25//32
f  30//30 25//32 26//33
f  30//30 26//33 16//34
f  16//34 26//33 20//35
f  20//35 26//33 24//36
f  16//34 20//35 17//37
f  17//37 20//35 19//38
f  19//38 20//35 18//39
f  20//35 24//36 22//40
f  22//40 24//36 21//41
f  23//42 18//39 20//35

