# {"id":"ID_54893","idOriginal":"ID_54893","origin":[14.306536344929786,48.23262391557858],"elevation":261.901}
# Longitude: 14.306536344929786
# Latitude: 48.23262391557858
# Elevation: 261.901

# File produced by Open Asset Import Library (http://www.assimp.sf.net)
# (assimp v3.1.0)

mtllib ID_54893.obj.mtl

# 14 vertex positions
v  1.087 3.145 0.919
v  2.254 3.145 -2.561
v  0 3.145 1.92576e-16
v  4.863 3.145 -3.333
v  3.09 3.145 -3.072
v  2.859 3.145 -3.244
v  3.976 3.145 -3.939
v  3.976 2.41194e-16 -3.939
v  3.09 1.88106e-16 -3.072
v  2.859 1.98638e-16 -3.244
v  0 0 0
v  2.254 1.56816e-16 -2.561
v  4.863 2.04087e-16 -3.333
v  1.087 -5.62725e-17 0.919

# 0 UV coordinates

# 15 vertex normals
vn 0 1 0
vn -0.699402 0 -0.714729
vn -0.748557 0 -0.66307
vn -0.750667 -0.000924813 -0.660681
vn -0.750222 4.04859e-17 -0.661186
vn 5.3353e-21 1 6.12386e-17
vn 0.597219 0 -0.802079
vn 0.564117 0 -0.825695
vn -0.645627 -4.67602e-17 0.763653
vn -0.645627 0 0.763653
vn 0.74772 -0 0.664015
vn 0 -1 -6.12323e-17
vn 9.62107e-24 -1 -6.12323e-17
vn 1.5796e-24 -1 -6.12323e-17
vn 1.33013e-23 -1 -6.12323e-17

# Mesh 'defaultobject' with 24 faces
g defaultobject
usemtl DefaultMaterial
f  1//1 2//1 3//1
f  2//1 1//1 4//1
f  2//1 4//1 5//1
f  2//1 5//1 6//1
f  5//1 4//1 7//1
f  8//2 5//2 7//2
f  5//2 8//2 9//2
f  10//3 2//3 6//3
f  2//4 10//4 3//4
f  3//5 10//5 11//5
f  11//6 10//6 12//6
f  9//7 6//7 5//7
f  6//7 9//7 10//7
f  13//8 7//8 4//8
f  7//8 13//8 8//8
f  11//9 1//9 3//9
f  1//9 11//9 14//10
f  14//11 4//11 1//11
f  4//11 14//11 13//11
f  12//12 14//12 11//12
f  14//12 12//12 13//12
f  13//12 12//12 9//13
f  9//13 12//12 10//14
f  13//12 9//13 8//15

