# {"id":"ID_14416","idOriginal":"ID_14416","origin":[14.282357804988859,48.31057361062903],"elevation":261.326}
# Longitude: 14.282357804988859
# Latitude: 48.31057361062903
# Elevation: 261.326

# File produced by Open Asset Import Library (http://www.assimp.sf.net)
# (assimp v3.1.0)

mtllib ID_14416.obj.mtl

# 27 vertex positions
v  20.365 22.833 3.505
v  6.205 23.005 10.248
v  6.308 22.878 10.475
v  20.185 23.042 3.134
v  6.171 23.038 10.191
v  3.175 25.972 5.243
v  18.554 24.946 -0.233
v  17.506 25.972 -1.964
v  17.675 25.972 -2.049
v  5.356 22.869 -2.681
v  0 22.863 1.39995e-15
v  5.521 23.052 -2.362
v  14.518 23.046 -6.899
v  15.167 23.046 -7.226
v  5.356 1.64164e-16 -2.681
v  0 0 0
v  15.167 4.42465e-16 -7.226
v  5.521 1.44631e-16 -2.362
v  14.518 4.22442e-16 -6.899
v  3.175 -3.21041e-16 5.243
v  6.171 -6.24019e-16 10.191
v  6.205 -6.27509e-16 10.248
v  6.308 -6.41409e-16 10.475
v  20.365 -2.14619e-16 3.505
v  17.675 1.25465e-16 -2.049
v  20.185 -1.91902e-16 3.134
v  18.554 1.42671e-17 -0.233

# 0 UV coordinates

# 46 vertex normals
vn 0.204073 0.890879 0.405819
vn 0.203172 0.891956 0.403901
vn 0.200456 0.89496 0.398578
vn 0.203752 0.891269 0.405122
vn 0.203758 0.891204 0.405263
vn 0.203675 0.89134 0.405005
vn 0.203696 0.891341 0.404993
vn -0.203778 0.891271 -0.405105
vn -0.204707 0.890992 -0.405252
vn -0.203705 0.891307 -0.405063
vn -0.203697 0.891284 -0.405117
vn -0.204023 0.891296 -0.404927
vn -0.20373 0.891302 -0.40506
vn -0.447614 0 -0.894227
vn -0.447614 5.47556e-17 -0.894227
vn -0.449963 0 -0.893047
vn -0.450268 -1.0757e-05 -0.892894
vn -0.450247 -0 -0.892904
vn 0 1 6.11894e-17
vn -0.855384 -3.1718e-17 0.517994
vn -0.855408 1.11233e-05 0.517954
vn -0.85812 0.00273374 0.513441
vn -0.855384 -3.2518e-05 0.517994
vn -0.855411 -1.90944e-05 0.517949
vn -0.858821 0 0.512276
vn -0.910641 0 0.413199
vn -0.910641 0 0.413199
vn 0.444228 -0 0.895914
vn 0.444228 0 0.895914
vn 0.900029 -0.00033339 -0.435831
vn 0.899986 7.03634e-05 -0.43592
vn 0.899985 0.00129949 -0.435919
vn 0.899976 0 -0.43594
vn 0.899995 2.31746e-05 -0.4359
vn 0.899955 0 -0.435983
vn -6.11356e-20 -1 -6.11968e-17
vn 2.30672e-20 -1 -6.12433e-17
vn 0.888218 0 -0.459423
vn 0.888218 0 -0.459423
vn 0 -1 -6.12323e-17
vn 4.52952e-24 -1 -6.12323e-17
vn -7.11403e-24 -1 -6.12323e-17
vn 5.67093e-23 -1 -6.12323e-17
vn -7.43686e-22 -1 -6.12323e-17
vn 2.89337e-24 -1 -6.12323e-17
vn 0 -1 -6.12323e-17

# Mesh 'defaultobject' with 50 faces
g defaultobject
usemtl DefaultMaterial
f  1//1 2//1 3//1
f  2//2 1//2 4//2
f  2//3 4//3 5//3
f  5//4 4//4 6//4
f  6//5 4//5 7//5
f  6//6 7//6 8//6
f  8//7 7//7 9//7
f  6//8 10//8 11//8
f  10//9 6//9 12//9
f  12//10 6//10 8//10
f  12//11 8//11 13//11
f  13//12 8//12 14//12
f  14//13 8//13 9//13
f  15//14 11//14 10//14
f  11//14 15//14 16//15
f  17//16 13//16 14//16
f  13//17 17//17 12//17
f  12//18 17//18 18//18
f  18//19 17//19 19//19
f  16//20 6//20 11//20
f  6//21 16//21 5//21
f  5//22 16//22 2//22
f  2//23 16//23 20//23
f  2//24 20//24 21//24
f  2//25 21//25 22//25
f  22//26 3//26 2//26
f  3//26 22//26 23//27
f  23//28 1//28 3//28
f  1//28 23//28 24//29
f  7//30 14//30 9//30
f  14//31 7//31 4//31
f  14//32 4//32 1//32
f  14//33 1//33 24//33
f  14//34 24//34 25//34
f  14//35 25//35 17//35
f  25//36 24//36 26//36
f  25//36 26//36 27//37
f  18//38 10//38 12//38
f  10//38 18//38 15//39
f  25//36 19//40 17//40
f  19//40 25//36 27//37
f  19//40 27//37 26//36
f  19//40 26//36 24//36
f  19//40 24//36 23//41
f  19//40 23//41 18//42
f  18//42 23//41 15//43
f  15//43 23//41 22//44
f  15//43 20//45 16//45
f  20//45 15//43 21//46
f  21//46 15//43 22//44

