# {"id":"ID_5596","idOriginal":"ID_5596","origin":[14.27910174284298,48.256208740012354],"elevation":266.11}
# Longitude: 14.27910174284298
# Latitude: 48.256208740012354
# Elevation: 266.11

# File produced by Open Asset Import Library (http://www.assimp.sf.net)
# (assimp v3.1.0)

mtllib ID_5596.obj.mtl

# 18 vertex positions
v  3.079 7.32 12.859
v  16.916 7.048 17.233
v  15.205 7.32 10.117
v  18.202 6.843 22.585
v  6.185 6.824 25.833
v  18.382 6.824 23.075
v  0 6.828 4.18094e-16
v  13.687 7.078 3.802
v  12.079 6.822 -2.89
v  0 0 0
v  12.079 1.76961e-16 -2.89
v  3.079 -7.87387e-16 12.859
v  6.185 -1.58181e-15 25.833
v  18.382 -1.41294e-15 23.075
v  18.202 -1.38293e-15 22.585
v  16.916 -1.05522e-15 17.233
v  15.205 -6.19488e-16 10.117
v  13.687 -2.32805e-16 3.802

# 0 UV coordinates

# 29 vertex normals
vn 0.00819201 0.99931 0.0362277
vn 0.0081643 0.999307 0.0363151
vn 0.00821438 0.999309 0.0362374
vn 0.00809006 0.999327 0.0357775
vn -0.00817976 0.999309 -0.0362627
vn -0.00816009 0.999306 -0.0363334
vn -0.00820177 0.999308 -0.0362708
vn -0.232691 0 -0.972551
vn -0.97251 -1.42586e-17 0.232861
vn -0.97251 0 0.232861
vn -0.972519 0 0.232823
vn 0.220553 -0 0.975375
vn 0.93867 0 -0.344817
vn 0.93867 0 -0.344817
vn 0.972325 0 -0.233634
vn 0.972325 0 -0.233634
vn 0.972289 0 -0.233781
vn 0.972289 0 -0.233781
vn 0.972303 0 -0.233722
vn 0.972303 0 -0.233722
vn 0.972324 0 -0.233637
vn 0.972324 0 -0.233637
vn 0 -1 -6.12323e-17
vn -2.43202e-22 -1 -6.1232e-17
vn -3.09449e-24 -1 -6.12323e-17
vn -2.32752e-24 -1 -6.12323e-17
vn -1.2883e-24 -1 -6.12323e-17
vn 5.25051e-24 -1 -6.12323e-17
vn 1.23865e-24 -1 -6.12323e-17

# Mesh 'defaultobject' with 32 faces
g defaultobject
usemtl DefaultMaterial
f  1//1 2//1 3//1
f  2//2 1//2 4//2
f  4//3 1//3 5//3
f  4//4 5//4 6//4
f  7//5 8//5 9//5
f  8//6 7//6 3//6
f  3//7 7//7 1//7
f  9//8 10//8 7//8
f  10//8 9//8 11//8
f  10//9 1//9 7//9
f  1//9 10//9 12//10
f  1//11 12//11 5//11
f  5//11 12//11 13//11
f  13//12 6//12 5//12
f  6//12 13//12 14//12
f  6//13 15//13 4//13
f  15//13 6//13 14//14
f  15//15 2//15 4//15
f  2//15 15//15 16//16
f  2//17 16//17 3//17
f  3//17 16//17 17//18
f  3//19 17//19 8//19
f  8//19 17//19 18//20
f  8//21 18//21 9//21
f  9//21 18//21 11//22
f  12//23 14//23 13//23
f  14//23 12//23 15//24
f  15//24 12//23 16//25
f  16//25 12//23 17//26
f  17//26 12//23 10//27
f  17//26 10//27 18//28
f  18//28 10//27 11//29

