# {"id":"ID_8177","idOriginal":"ID_8177","origin":[14.277604604680645,48.321068697373654],"elevation":283.309}
# Longitude: 14.277604604680645
# Latitude: 48.321068697373654
# Elevation: 283.309

# File produced by Open Asset Import Library (http://www.assimp.sf.net)
# (assimp v3.1.0)

mtllib ID_8177.obj.mtl

# 70 vertex positions
v  9.216 15.149 -0.255
v  16.137 11.603 4.04
v  16.65 11.25 -0.505
v  16.263 11.587 6.767
v  17.078 11.026 -0.519
v  17.161 11.016 1.292
v  17.195 11.012 2.045
v  17.286 11.001 4.033
v  16.264 11.586 6.787
v  0.89 10.714 3.775
v  0.098 10.306 3.45
v  0.105 10.304 3.756
v  0 10.318 6.31795e-16
v  2.445 11.479 6.474
v  0.973 10.71 6.36
v  0.976 10.711 6.438
v  4.882 12.563 16.95
v  1.936 11.084 13.47
v  2.096 11.102 17.094
v  9.814 15.149 16.808
v  2.688 11.48 13.377
v  9.189 15.135 -0.254
v  7.626 14.316 -0.265
v  7.611 14.315 -0.633
v  9.182 15.137 -0.585
v  18.984 10.278 13.082
v  12.337 13.807 15.725
v  19.08 10.272 15.525
v  18.947 10.28 12.142
v  18.928 10.281 11.652
v  17.901 10.819 11.663
v  17.709 10.866 8.755
v  12.326 13.832 16.736
v  17.046 11.213 8.761
v  16.355 11.575 8.768
v  17.078 3.17796e-17 -0.519
v  16.65 3.09223e-17 -0.505
v  9.216 1.56142e-17 -0.255
v  9.189 1.5553e-17 -0.254
v  9.182 3.58209e-17 -0.585
v  7.611 3.87601e-17 -0.633
v  7.626 1.62266e-17 -0.265
v  0 0 0
v  2.688 -8.19105e-16 13.377
v  1.936 -8.248e-16 13.47
v  17.901 -7.14153e-16 11.663
v  18.928 -7.13479e-16 11.652
v  16.355 -5.36885e-16 8.768
v  17.709 -5.36089e-16 8.755
v  17.046 -5.36457e-16 8.761
v  12.326 -1.02478e-15 16.736
v  12.337 -9.62878e-16 15.725
v  19.08 -9.50632e-16 15.525
v  18.947 -7.43483e-16 12.142
v  18.984 -8.01041e-16 13.082
v  16.263 -4.14359e-16 6.767
v  16.137 -2.47379e-16 4.04
v  16.264 -4.15584e-16 6.787
v  17.161 -7.91122e-17 1.292
v  17.286 -2.4695e-16 4.033
v  17.195 -1.2522e-16 2.045
v  0.105 -2.29989e-16 3.756
v  0.098 -2.11252e-16 3.45
v  0.89 -2.31152e-16 3.775
v  0.976 -3.94214e-16 6.438
v  0.973 -3.89438e-16 6.36
v  2.445 -3.96418e-16 6.474
v  2.096 -1.04671e-15 17.094
v  4.882 -1.03789e-15 16.95
v  9.814 -1.02919e-15 16.808

# 0 UV coordinates

# 123 vertex normals
vn 0.463979 0.885694 -0.0164199
vn 0.463891 0.885744 -0.0162373
vn 0.46321 0.886094 -0.0165378
vn 0.463838 0.885769 -0.016367
vn 0.464079 0.885645 -0.0162504
vn 0.463953 0.885709 -0.0163365
vn 0.432291 0.901429 0.0234434
vn -0.463201 0.886102 0.0163872
vn -0.463154 0.886129 0.0162385
vn -0.463423 0.886114 0.00645937
vn -0.463967 0.885703 0.0162676
vn -0.463711 0.885841 0.0160729
vn -0.463939 0.885717 0.0163186
vn -0.46421 0.885559 0.0171515
vn -0.463857 0.885762 0.0162005
vn -0.463921 0.885727 0.0162589
vn -0.463934 0.885721 0.0162431
vn -0.459317 0.887828 0.0280764
vn -0.463868 0.885751 0.0164465
vn -0.464158 0.885734 0.00565757
vn -0.464162 0.885596 0.016512
vn -0.463917 0.885749 0.0151625
vn 0.463878 0.885754 -0.0160534
vn 0.463777 0.885801 -0.0163699
vn 0.463859 0.885761 -0.0161789
vn 0.463843 0.885769 -0.0162134
vn 0.463789 0.885795 -0.0163053
vn 0.463891 0.885732 -0.0168549
vn 0.464229 0.885573 -0.015873
vn 0.463524 0.885926 -0.0167522
vn 0.463862 0.885756 -0.0163645
vn 0.463963 0.885706 -0.0162603
vn 0.464102 0.88563 -0.0164011
vn -0.0326928 0 -0.999465
vn -0.0336289 -3.56527e-05 -0.999434
vn -0.0362801 -0.00141317 -0.999341
vn -0.0326928 0.00045885 -0.999465
vn -0.0336103 6.07615e-06 -0.999435
vn -0.0370119 -0 -0.999315
vn 0.0305396 0 -0.999534
vn 0.0305396 0 -0.999534
vn -0.0347286 0 -0.999397
vn -0.0347286 6.11954e-17 -0.999397
vn -0.122736 0 -0.992439
vn -0.122736 -0 -0.992439
vn -0.0107099 0 -0.999943
vn -0.0101297 0 -0.999949
vn -0.00908252 -6.45375e-05 -0.999959
vn -0.0096004 0 -0.999954
vn -1.40264e-22 1 6.12224e-17
vn 0.999776 0 -0.0211432
vn 0.999776 0 -0.0211432
vn 0.999941 -0 0.0108794
vn 0.999229 0 -0.0392659
vn 0.999226 -1.52475e-05 -0.03933
vn 0.999249 0.00017653 -0.0387481
vn 0.999228 -2.55489e-05 -0.0392837
vn 0.999249 0 -0.0387485
vn 1.07789e-18 1 6.11869e-17
vn 0.997827 0 -0.0658818
vn 0.997827 0 -0.0658818
vn 0.998947 0 -0.0458878
vn 0.998752 -0.000695227 -0.0499449
vn 0.998934 -3.94699e-05 -0.0461561
vn 0.998945 5.36598e-05 -0.045928
vn 0.998934 0 -0.0461559
vn 3.89226e-19 1 6.12146e-17
vn 0.998951 0 -0.0457831
vn 0.998982 -0.000111232 -0.0451079
vn 0.998954 3.30796e-05 -0.0457264
vn 0.998951 5.65825e-05 -0.0457831
vn 0.998962 0 -0.0455564
vn 0 -1 -6.1233e-17
vn -0.99917 0 0.0407267
vn -0.99917 0 0.0407267
vn -0.999597 -1.73865e-18 0.0283943
vn -0.999736 0.00184667 0.0228819
vn -0.99961 0 0.0279444
vn 1.13351e-21 -1 -6.12324e-17
vn -0.999485 0 0.0320918
vn -0.999259 -0.00153711 0.038453
vn -0.999479 0 0.0322776
vn 5.68221e-20 1 6.12305e-17
vn -0.999381 0 0.0351803
vn -0.999381 0 0.0351803
vn -0.999027 0 0.0441071
vn -0.999027 0 0.0441071
vn -0.0241968 0 0.999707
vn -0.024499 0 0.9997
vn -0.024499 0 0.9997
vn 0.0516178 0 0.998667
vn 0.0287153 0.000122953 0.999588
vn 0.0287362 0 0.999587
vn 0.0287362 0 0.999587
vn 4.14108e-21 -1 -6.10892e-17
vn 0.0296475 -0 0.99956
vn 0.0296475 0 0.99956
vn 0.00609211 -0 0.999981
vn 1.7268e-23 -1 -6.12324e-17
vn 5.42631e-23 -1 -6.12323e-17
vn -2.51915e-23 -1 -6.12324e-17
vn 2.03565e-24 -1 -6.12323e-17
vn -2.0843e-25 -1 -6.12323e-17
vn 0 -1 -6.12323e-17
vn 4.95365e-23 -1 -6.12323e-17
vn -1.07199e-23 -1 -6.12323e-17
vn -1.04868e-24 -1 -6.12323e-17
vn -1.79072e-25 -1 -6.12323e-17
vn -1.62504e-23 -1 -6.12323e-17
vn -4.17112e-23 -1 -6.12324e-17
vn 8.00422e-24 -1 -6.12323e-17
vn -3.83861e-23 -1 -6.12324e-17
vn -9.3643e-24 -1 -6.12323e-17
vn 5.0382e-23 -1 -6.12323e-17
vn 3.96788e-23 -1 -6.12323e-17
vn -4.92877e-23 -1 -6.12323e-17
vn -3.253e-21 -1 -6.12338e-17
vn 1.23613e-22 -1 -6.12323e-17
vn -3.98477e-23 -1 -6.12323e-17
vn 0 -1 -6.12323e-17
vn 0 -1 -6.12323e-17
vn 0 -1 -6.12323e-17
vn -6.19876e-20 -1 -6.12308e-17

# Mesh 'defaultobject' with 136 faces
g defaultobject
usemtl DefaultMaterial
f  1//1 2//1 3//1
f  2//2 1//2 4//2
f  3//3 2//3 5//3
f  5//4 2//4 6//4
f  2//5 7//5 6//5
f  7//6 2//6 8//6
f  1//7 9//7 4//7
f  10//8 11//8 12//8
f  11//9 10//9 13//9
f  14//10 15//10 16//10
f  15//11 14//11 10//11
f  17//12 18//12 19//12
f  18//13 17//13 20//13
f  18//14 20//14 21//14
f  21//15 20//15 14//15
f  14//16 20//16 1//16
f  14//17 1//17 10//17
f  10//18 1//18 22//18
f  10//19 22//19 13//19
f  13//20 22//20 23//20
f  23//21 22//21 24//21
f  25//22 24//22 22//22
f  26//23 27//23 28//23
f  27//24 26//24 29//24
f  27//25 29//25 30//25
f  27//26 30//26 31//26
f  27//27 31//27 32//27
f  27//28 20//28 33//28
f  20//29 27//29 32//29
f  20//30 32//30 34//30
f  20//31 34//31 35//31
f  20//32 35//32 1//32
f  1//33 35//33 9//33
f  36//34 3//34 5//34
f  3//35 36//35 1//35
f  1//36 36//36 22//36
f  22//37 36//37 37//37
f  22//38 37//38 38//38
f  22//39 38//39 39//39
f  40//40 24//40 25//40
f  24//40 40//40 41//41
f  42//42 13//42 23//42
f  13//42 42//42 43//43
f  44//44 18//44 21//44
f  18//44 44//44 45//45
f  30//46 46//46 31//46
f  46//46 30//46 47//46
f  34//47 48//47 35//47
f  48//48 34//48 32//48
f  48//49 32//49 49//49
f  48//50 49//50 50//50
f  22//51 40//51 25//51
f  40//51 22//51 39//52
f  51//53 27//53 33//53
f  27//53 51//53 52//53
f  53//54 26//54 28//54
f  26//55 53//55 29//55
f  29//56 53//56 30//56
f  30//57 53//57 54//57
f  30//58 54//58 47//58
f  54//59 53//59 55//59
f  31//60 49//60 32//60
f  49//60 31//60 46//61
f  48//62 9//62 35//62
f  9//63 48//63 4//63
f  4//64 48//64 2//64
f  2//65 48//65 56//65
f  2//66 56//66 57//66
f  56//67 48//50 58//67
f  6//68 36//68 5//68
f  36//69 6//69 7//69
f  36//70 7//70 8//70
f  36//71 8//71 59//71
f  59//72 8//72 60//72
f  59//73 60//73 61//73
f  24//74 42//74 23//74
f  42//74 24//74 41//75
f  43//76 11//76 13//76
f  11//77 43//77 12//77
f  12//78 43//78 62//78
f  62//79 43//79 63//79
f  64//80 15//80 10//80
f  15//81 64//81 16//81
f  16//82 64//82 65//82
f  65//83 64//83 66//83
f  14//84 44//84 21//84
f  44//84 14//84 67//85
f  18//86 68//86 19//86
f  68//86 18//86 45//87
f  12//88 64//88 10//88
f  64//88 12//88 62//88
f  16//89 67//89 14//89
f  67//89 16//89 65//90
f  19//91 69//91 17//91
f  69//91 19//91 68//91
f  17//92 33//92 20//92
f  33//93 17//93 69//93
f  33//93 69//93 51//94
f  51//95 69//95 70//95
f  52//96 28//96 27//96
f  28//96 52//96 53//97
f  57//98 8//98 2//98
f  8//98 57//98 60//98
f  70//95 52//99 51//95
f  52//99 70//95 57//100
f  57//100 70//95 36//101
f  36//101 70//95 37//102
f  37//102 70//95 38//103
f  38//103 70//95 69//95
f  38//103 69//95 68//104
f  38//103 68//104 39//105
f  39//105 68//104 40//106
f  40//106 68//104 42//107
f  40//106 42//107 41//108
f  57//100 61//73 60//73
f  61//73 57//100 59//73
f  59//73 57//100 36//101
f  52//99 55//109 53//109
f  55//109 52//99 54//110
f  54//110 52//99 47//111
f  47//111 52//99 46//112
f  46//112 52//99 49//113
f  49//113 52//99 50//114
f  50//114 52//99 48//115
f  48//115 52//99 58//116
f  58//116 52//99 56//117
f  56//117 52//99 57//100
f  68//104 44//118 42//107
f  44//118 68//104 45//119
f  42//107 67//120 43//79
f  67//120 42//107 44//118
f  43//79 67//120 64//121
f  64//121 67//120 65//122
f  64//121 65//122 66//123
f  43//79 64//121 63//79
f  63//79 64//121 62//79

