# {"id":"ID_15685","idOriginal":"ID_15685","origin":[14.366188343677933,48.25262827474294],"elevation":250.419,"wof":[{"Id":102049853,"Name":"Linz","Placetype":"county","Offset":-1},{"Id":85681677,"Name":"Oberösterreich","Placetype":"region","Offset":-1},{"Id":85632785,"Name":"Austria","Placetype":"country","Offset":-1},{"Id":85898441,"Name":"Posch","Placetype":"neighbourhood","Offset":-1},{"Id":101748071,"Name":"Linz","Placetype":"locality","Offset":-1}]}

# Attribution: City of Linz <http://geo.data.linz.gv.at/katalog/geodata/3d_geo_daten_lod2/>
# Longitude: 14.366188343677933
# Latitude: 48.25262827474294
# Elevation: 250.419

# File produced by Open Asset Import Library (http://www.assimp.sf.net)
# (assimp v3.1.0)


# 16 vertex positions
v  6.151 10.438 1.589
v  1.574 7.728 -6.035
v  0 7.724 4.72959e-16
v  9.733 10.438 -12.233
v  3.495 7.722 -13.506
v  3.6 7.731 -13.833
v  12.304 7.723 3.179
v  15.886 7.721 -10.627
v  3.6 8.47027e-16 -13.833
v  3.495 8.27004e-16 -13.506
v  1.574 3.69537e-16 -6.035
v  0 0 0
v  6.151 -9.72982e-17 1.589
v  12.304 -1.94658e-16 3.179
v  15.886 6.50716e-16 -10.627
v  9.733 7.49055e-16 -12.233

# 0 UV coordinates

# 28 vertex normals
vn -0.380289 0.9196 -0.0985744
vn -0.380311 0.919592 -0.0985584
vn -0.380287 0.919606 -0.0985209
vn -0.380629 0.919636 -0.0969096
vn 0.380302 0.919596 0.0985561
vn 0.380341 0.919581 0.0985471
vn -0.95212 0 -0.305726
vn -0.95212 -0 -0.305726
vn -0.968497 0 -0.249027
vn -0.967626 0.00344434 -0.252366
vn -0.968493 -0.00278804 -0.249026
vn -0.967631 1.54532e-17 -0.25237
vn -0.250121 -5.92861e-17 0.968215
vn -0.250177 3.55647e-05 0.9682
vn -0.250121 -6.05672e-05 0.968215
vn -0.250192 0 0.968196
vn 0.967951 -0 0.251137
vn 0.967951 0 0.251137
vn 0.252435 0 -0.967614
vn 0.252526 -5.73589e-05 -0.96759
vn 0.252435 9.7983e-05 -0.967614
vn 0.25255 0 -0.967584
vn 0 -1 -6.12323e-17
vn -1.33574e-24 -1 -6.12323e-17
vn 0 -1 -6.12323e-17
vn 0 -1 -6.12323e-17
vn -3.64752e-23 -1 -6.12322e-17
vn 3.31344e-20 -1 -6.13428e-17

# Mesh 'defaultobject' with 28 faces
g defaultobject
usemtl DefaultMaterial
f  1//1 2//1 3//1
f  2//2 1//2 4//2
f  2//3 4//3 5//3
f  5//4 4//4 6//4
f  7//5 4//5 1//5
f  4//6 7//6 8//6
f  9//7 5//7 6//7
f  5//7 9//7 10//8
f  10//9 2//9 5//9
f  2//10 10//10 3//10
f  3//11 10//11 11//11
f  3//12 11//12 12//12
f  12//13 1//13 3//13
f  1//14 12//14 7//14
f  7//15 12//15 13//15
f  7//16 13//16 14//16
f  14//17 8//17 7//17
f  8//17 14//17 15//18
f  4//19 9//19 6//19
f  9//20 4//20 8//20
f  9//21 8//21 16//21
f  16//22 8//22 15//22
f  11//23 13//23 12//23
f  13//23 11//23 14//24
f  14//24 11//23 10//25
f  14//24 10//25 15//26
f  15//26 10//25 9//27
f  15//26 9//27 16//28

