# {"id":"ID_59696","idOriginal":"ID_59696","origin":[14.29998662734211,48.24438335288921],"elevation":259.772}
# Longitude: 14.29998662734211
# Latitude: 48.24438335288921
# Elevation: 259.772

# File produced by Open Asset Import Library (http://www.assimp.sf.net)
# (assimp v3.1.0)

mtllib ID_59696.obj.mtl

# 8 vertex positions
v  0 1.759 1.07708e-16
v  2.415 1.759 -0.352
v  0.713 1.759 -1.292
v  1.701 1.759 0.94
v  0.713 7.91122e-17 -1.292
v  0 0 0
v  1.701 -5.75584e-17 0.94
v  2.415 2.15538e-17 -0.352

# 0 UV coordinates

# 9 vertex normals
vn 0 1 0
vn -0.875528 0 -0.483167
vn -0.875528 2.95854e-17 -0.483167
vn -0.483676 -5.35934e-17 0.875247
vn -0.483676 0 0.875247
vn 0.875242 -0 0.483686
vn 0.483458 0 -0.875368
vn 1.15318e-24 -1 -6.12323e-17
vn 5.76663e-25 -1 -6.12323e-17

# Mesh 'defaultobject' with 12 faces
g defaultobject
usemtl DefaultMaterial
f  1//1 2//1 3//1
f  2//1 1//1 4//1
f  5//2 1//2 3//2
f  1//2 5//2 6//3
f  6//4 4//4 1//4
f  4//4 6//4 7//5
f  7//6 2//6 4//6
f  2//6 7//6 8//6
f  8//7 3//7 2//7
f  3//7 8//7 5//7
f  8//8 6//8 5//8
f  6//8 8//8 7//9

