# {"id":"_37075","idOriginal":"_37075","origin":[14.325985345424636,48.3034421382788],"elevation":256.312}
# Longitude: 14.325985345424636
# Latitude: 48.3034421382788
# Elevation: 256.312

# File produced by Open Asset Import Library (http://www.assimp.sf.net)
# (assimp v3.1.0)

mtllib _37075.obj.mtl

# 15 vertex positions
v  0.885 3.188 3.155
v  3.518 3.188 1.701
v  0.865 3.179 3.119
v  1.522 3.179 2.757
v  0 2.483 1.5204e-16
v  4.881 2.483 -2.694
v  7.743 2.483 3.012
v  2.426 2.483 5.947
v  1.522 -1.68818e-16 2.757
v  0 0 0
v  0.865 -1.90984e-16 3.119
v  2.426 -3.64149e-16 5.947
v  0.885 -1.93188e-16 3.155
v  4.881 1.6496e-16 -2.694
v  7.743 -1.84432e-16 3.012

# 0 UV coordinates

# 21 vertex normals
vn -0.10321 0.976942 -0.186899
vn -0.110285 0.973537 -0.200159
vn -0.104341 0.976438 -0.188899
vn -0.104302 0.976427 -0.188975
vn 0.104317 0.976425 0.188978
vn 0.104317 0.976439 0.188903
vn 0.192961 0.976421 -0.0967851
vn -0.875457 0 0.483296
vn -0.874808 0.00630314 0.484428
vn -0.875483 0 0.483249
vn -0.875483 0 0.483249
vn 0 -1 -6.11785e-17
vn -0.482584 0 -0.87585
vn -0.48322 0 -0.875499
vn -0.48322 5.36089e-17 -0.875499
vn 0.483264 -0 0.875474
vn 0.893863 0 -0.448341
vn 0 -1 -6.12323e-17
vn 1.79485e-24 -1 -6.12323e-17
vn 1.57904e-24 -1 -6.12323e-17
vn -2.97738e-24 -1 -6.12323e-17

# Mesh 'defaultobject' with 26 faces
g defaultobject
usemtl DefaultMaterial
f  1//1 2//1 3//1
f  4//2 3//2 2//2
f  5//3 4//3 2//3
f  6//4 5//4 2//4
f  7//5 1//5 8//5
f  1//6 7//6 2//6
f  2//7 7//7 6//7
f  5//8 9//8 4//8
f  9//8 5//8 10//8
f  3//9 8//9 1//9
f  8//10 3//10 11//10
f  8//10 11//10 12//11
f  12//12 11//12 13//12
f  9//13 3//13 4//13
f  3//13 9//13 11//13
f  14//14 5//14 6//14
f  5//14 14//14 10//15
f  12//16 7//16 8//16
f  7//16 12//16 15//16
f  15//17 6//17 7//17
f  6//17 15//17 14//17
f  13//12 15//18 12//12
f  15//18 13//12 11//12
f  15//18 11//12 9//19
f  15//18 9//19 10//20
f  15//18 10//20 14//21

