# {"id":"ID_25038","idOriginal":"ID_25038","origin":[14.27582073853547,48.27409909367732],"elevation":278.268}
# Longitude: 14.27582073853547
# Latitude: 48.27409909367732
# Elevation: 278.268

# File produced by Open Asset Import Library (http://www.assimp.sf.net)
# (assimp v3.1.0)

mtllib ID_25038.obj.mtl

# 18 vertex positions
v  0.025 6.642 -6.71
v  7.27 8.941 0.003
v  7.273 8.941 -6.706
v  0.003 6.635 -6.2
v  0 6.635 4.06277e-16
v  14.542 6.635 -6.703
v  14.402 6.678 0.006
v  14.54 6.635 0.006
v  10.676 7.861 -6.704
v  0.025 4.10869e-16 -6.71
v  0.003 3.79641e-16 -6.2
v  0 0 0
v  7.27 -1.83697e-19 0.003
v  14.402 -3.67394e-19 0.006
v  14.54 -3.67394e-19 0.006
v  14.542 4.1044e-16 -6.703
v  10.676 4.10502e-16 -6.704
v  7.273 4.10624e-16 -6.706

# 0 UV coordinates

# 28 vertex normals
vn -0.302346 0.953198 -0.000135159
vn -0.302488 0.953153 3.4064e-05
vn -0.302348 0.953197 -0.000146297
vn 0.297486 0.954726 8.86763e-05
vn 0.302442 0.953168 0.000202081
vn 0.302288 0.953217 1.74572e-05
vn 0.302498 0.95315 0.000135255
vn -0.999071 0 -0.0430972
vn -1 0 -0.000483871
vn -1 2.96285e-20 -0.000483871
vn -0.000412655 -6.12323e-17 1
vn -0.000412655 0 1
vn -0.000420639 0 1
vn -0.000420639 0 1
vn 0 0 1
vn 1 -0 0.000298085
vn 0.000258647 0 -1
vn 0.000648526 0.000191741 -1
vn 0.000523361 8.99818e-05 -1
vn 0.000258646 -0.000488587 -1
vn 0.000587674 3.90355e-05 -1
vn 0.000551902 0 -1
vn 0 -1 -6.12323e-17
vn 4.42555e-24 -1 -6.12323e-17
vn 8.55245e-25 -1 -6.12323e-17
vn 1.94515e-24 -1 -6.12323e-17
vn 5.8487e-24 -1 -6.12323e-17
vn -2.06075e-21 -1 -6.12323e-17

# Mesh 'defaultobject' with 32 faces
g defaultobject
usemtl DefaultMaterial
f  1//1 2//1 3//1
f  2//2 1//2 4//2
f  2//3 4//3 5//3
f  6//4 7//4 8//4
f  7//5 6//5 2//5
f  2//6 6//6 9//6
f  2//7 9//7 3//7
f  10//8 4//8 1//8
f  4//8 10//8 11//8
f  11//9 5//9 4//9
f  5//9 11//9 12//10
f  12//11 2//11 5//11
f  2//11 12//11 13//12
f  2//11 13//12 7//13
f  7//13 13//12 14//14
f  7//15 14//15 8//15
f  8//15 14//15 15//15
f  15//16 6//16 8//16
f  6//16 15//16 16//16
f  16//17 9//17 6//17
f  9//18 16//18 3//18
f  3//19 16//19 1//19
f  1//20 16//20 17//20
f  1//21 17//21 18//21
f  1//22 18//22 10//22
f  14//23 16//23 15//23
f  16//23 14//23 13//24
f  16//23 13//24 17//25
f  17//25 13//24 18//26
f  18//26 13//24 12//23
f  18//26 12//23 10//27
f  10//27 12//23 11//28

