# {"id":"_31742","idOriginal":"_31742","origin":[14.278950260774064,48.296885209258065],"elevation":316.753}
# Longitude: 14.278950260774064
# Latitude: 48.296885209258065
# Elevation: 316.753

# File produced by Open Asset Import Library (http://www.assimp.sf.net)
# (assimp v3.1.0)

mtllib _31742.obj.mtl

# 18 vertex positions
v  7.882 3.114 3.979
v  0 3.114 1.90678e-16
v  1.541 3.114 5.74
v  2.187 3.114 -0.059
v  1.983 3.114 -6.002
v  5.339 3.114 -5.983
v  1.97 3.114 -6.393
v  3.543 3.114 -6.435
v  5.204 3.114 -6.479
v  5.204 3.96724e-16 -6.479
v  1.97 3.91458e-16 -6.393
v  3.543 3.9403e-16 -6.435
v  2.187 3.61271e-18 -0.059
v  0 0 0
v  1.983 3.67517e-16 -6.002
v  1.541 -3.51474e-16 5.74
v  7.882 -2.43643e-16 3.979
v  5.339 3.66353e-16 -5.983

# 0 UV coordinates

# 25 vertex normals
vn 0 1 0
vn -0.0264809 0 -0.999649
vn -0.0266909 -0.000112133 -0.999644
vn -0.026583 -0 -0.999647
vn 7.52714e-22 1 6.12589e-17
vn -0.0269678 0 -0.999636
vn -0.0269678 6.12101e-17 -0.999636
vn -0.999448 0 0.0332297
vn -0.999411 -0.000135278 0.0343059
vn -0.999414 0 0.0342395
vn 8.45361e-20 1 6.12305e-17
vn -0.965801 -1.58767e-17 0.259286
vn -0.965801 0 0.259286
vn 0.267589 -0 0.963533
vn 0.964899 0 -0.262623
vn 0.968926 -0.00260923 -0.247338
vn 0.963587 0.0521168 -0.262266
vn 0.968929 0 -0.247339
vn 2.70714e-24 -1 -6.12323e-17
vn 0 -1 -6.12323e-17
vn 4.55738e-24 -1 -6.12323e-17
vn -2.50965e-24 -1 -6.12323e-17
vn -2.87664e-24 -1 -6.12323e-17
vn 3.15546e-24 -1 -6.12323e-17
vn -1.9937e-24 -1 -6.12323e-17

# Mesh 'defaultobject' with 32 faces
g defaultobject
usemtl DefaultMaterial
f  1//1 2//1 3//1
f  2//1 1//1 4//1
f  4//1 1//1 5//1
f  5//1 1//1 6//1
f  5//1 6//1 7//1
f  7//1 6//1 8//1
f  8//1 6//1 9//1
f  10//2 8//2 9//2
f  8//3 10//3 7//3
f  7//4 10//4 11//4
f  11//5 10//5 12//5
f  13//6 2//6 4//6
f  2//6 13//6 14//7
f  11//8 5//8 7//8
f  5//9 11//9 4//9
f  4//10 11//10 13//10
f  13//11 11//5 15//11
f  14//12 3//12 2//12
f  3//12 14//12 16//13
f  16//14 1//14 3//14
f  1//14 16//14 17//14
f  6//15 10//15 9//15
f  10//16 6//16 1//16
f  10//17 1//17 18//17
f  18//18 1//18 17//18
f  14//19 17//19 16//19
f  17//19 14//19 13//20
f  17//19 13//20 18//21
f  18//21 13//20 15//22
f  18//21 15//22 11//23
f  18//21 11//23 12//24
f  18//21 12//24 10//25

