# {"id":"ID_9418","idOriginal":"ID_9418","origin":[14.262364668429662,48.315548467990475],"elevation":375.891}
# Longitude: 14.262364668429662
# Latitude: 48.315548467990475
# Elevation: 375.891

# File produced by Open Asset Import Library (http://www.assimp.sf.net)
# (assimp v3.1.0)

mtllib ID_9418.obj.mtl

# 30 vertex positions
v  2.403 9.269 2.73
v  0.406 7.418 -0.423
v  0 7.431 4.55018e-16
v  2.868 9.607 3.208
v  18.119 9.607 -11.384
v  4.199 7.398 -4.107
v  3.62 6.755 -5.312
v  7.589 6.777 -9.049
v  8.606 6.646 -10.379
v  8.11 6.37 -10.659
v  16.45 8.392 -13.108
v  14.074 6.663 -15.564
v  6.962 6.406 -9.464
v  7.325 6.373 7.787
v  22.562 6.373 -6.791
v  7.589 5.54091e-16 -9.049
v  6.962 5.79503e-16 -9.464
v  4.199 2.51481e-16 -4.107
v  3.62 3.25266e-16 -5.312
v  2.403 -1.67164e-16 2.73
v  0 0 0
v  7.325 -4.76816e-16 7.787
v  2.868 -1.96433e-16 3.208
v  0.406 2.59013e-17 -0.423
v  14.074 9.5302e-16 -15.564
v  8.606 6.3553e-16 -10.379
v  8.11 6.52676e-16 -10.659
v  22.562 4.15829e-16 -6.791
v  18.119 6.97069e-16 -11.384
v  16.45 8.02633e-16 -13.108

# 0 UV coordinates

# 49 vertex normals
vn -0.311605 0.892354 -0.326506
vn -0.315474 0.89197 -0.32383
vn -0.312155 0.892255 -0.326252
vn -0.312133 0.892277 -0.326212
vn -0.312114 0.892299 -0.32617
vn -0.312148 0.892249 -0.326274
vn -0.312183 0.892123 -0.326585
vn -0.312112 0.892166 -0.326535
vn -0.312183 0.892146 -0.326522
vn -0.312108 0.892284 -0.326218
vn -0.311869 0.892271 -0.326483
vn 0.312187 0.892232 0.326286
vn 0.312163 0.892244 0.326274
vn -0.551935 0 0.833887
vn -0.901348 0 0.433096
vn -0.750632 0 0.660721
vn -0.750632 0 0.660721
vn -0.716688 -0.000280261 0.697394
vn -0.716607 0 0.697477
vn -0.716607 0 0.697477
vn -8.7557e-20 1 6.12899e-17
vn -0.685508 0 -0.728065
vn -0.696725 0 -0.717339
vn -0.696724 0 -0.717339
vn -0.721455 0 -0.692461
vn -0.721456 0 -0.692461
vn -0.688079 0 -0.725635
vn -0.721146 0 -0.692783
vn -0.721146 0 -0.692783
vn 0.691309 -0 0.722559
vn 0.718746 0 -0.695273
vn 0.718543 -0.000193975 -0.695482
vn 0.718746 0.000111466 -0.695273
vn 0.718685 8.64164e-05 -0.695336
vn 0.718475 -0.000177397 -0.695553
vn 0.718715 0 -0.695304
vn 0.491595 0 -0.870824
vn 0.491595 0 -0.870824
vn -1.0798e-23 -1 -6.12323e-17
vn 1.57156e-24 -1 -6.12323e-17
vn 0 -1 -6.12324e-17
vn 0 -1 -6.12323e-17
vn 0 -1 -6.12323e-17
vn 0 -1 -6.12323e-17
vn 0 -1 -6.12323e-17
vn -4.76708e-24 -1 -6.12323e-17
vn -3.19731e-24 -1 -6.12323e-17
vn 5.13997e-24 -1 -6.12323e-17
vn 3.54251e-20 -1 -6.12854e-17

# Mesh 'defaultobject' with 56 faces
g defaultobject
usemtl DefaultMaterial
f  1//1 2//1 3//1
f  2//2 1//2 4//2
f  2//3 4//3 5//3
f  2//4 5//4 6//4
f  6//5 5//5 7//5
f  7//6 5//6 8//6
f  8//7 5//7 9//7
f  8//8 9//8 10//8
f  9//9 5//9 11//9
f  9//10 11//10 12//10
f  10//11 13//11 8//11
f  14//12 5//12 4//12
f  5//13 14//13 15//13
f  13//14 16//14 8//14
f  16//14 13//14 17//14
f  7//15 18//15 6//15
f  18//15 7//15 19//15
f  3//16 20//16 1//16
f  20//16 3//16 21//17
f  1//18 14//18 4//18
f  14//19 1//19 20//19
f  14//19 20//19 22//20
f  22//21 20//21 23//21
f  16//22 7//22 8//22
f  7//22 16//22 19//22
f  6//23 24//23 2//23
f  24//23 6//23 18//24
f  2//25 21//25 3//25
f  21//25 2//25 24//26
f  25//27 9//27 12//27
f  9//27 25//27 26//27
f  10//28 17//28 13//28
f  17//28 10//28 27//29
f  22//30 15//30 14//30
f  15//30 22//30 28//30
f  28//31 5//31 15//31
f  5//32 28//32 11//32
f  11//33 28//33 29//33
f  11//34 29//34 12//34
f  12//35 29//35 30//35
f  12//36 30//36 25//36
f  26//37 10//37 9//37
f  10//37 26//37 27//38
f  27//39 16//39 17//39
f  23//40 28//40 22//40
f  28//40 23//40 20//41
f  28//40 20//41 21//42
f  28//40 21//42 24//43
f  28//40 24//43 18//44
f  28//40 18//44 19//45
f  28//40 19//45 16//39
f  28//40 16//39 26//46
f  26//46 16//39 27//39
f  28//40 26//46 30//47
f  30//47 26//46 25//48
f  28//40 30//47 29//49

