# {"id":"ID_21274","idOriginal":"ID_21274","origin":[14.28874614178056,48.27814810647946],"elevation":275.006,"wof":[{"Id":102049853,"Name":"Linz","Placetype":"county","Offset":-1},{"Id":85632785,"Name":"Austria","Placetype":"country","Offset":-1},{"Id":101748071,"Name":"Linz","Placetype":"locality","Offset":-1},{"Id":85681677,"Name":"Oberösterreich","Placetype":"region","Offset":-1},{"Id":85898459,"Name":"Wegscheid","Placetype":"neighbourhood","Offset":-1}]}

# Attribution: City of Linz <http://geo.data.linz.gv.at/katalog/geodata/3d_geo_daten_lod2/>
# Longitude: 14.28874614178056
# Latitude: 48.27814810647946
# Elevation: 275.006

# File produced by Open Asset Import Library (http://www.assimp.sf.net)
# (assimp v3.1.0)


# 20 vertex positions
v  10.12 4.173 -2.386
v  10.434 4.805 1.697
v  11.056 4.172 1.549
v  8.717 5.6 -2.053
v  8.01 9.317 11.214
v  12.446 4.805 10.16
v  5.06 9.317 -1.194
v  2.952 4.172 12.417
v  1.523 5.721 -0.363
v  0 4.172 2.55461e-16
v  10.12 1.461e-16 -2.386
v  11.056 -9.48489e-17 1.549
v  12.446 -6.22121e-16 10.16
v  10.434 -1.03911e-16 1.697
v  8.717 1.2571e-16 -2.053
v  5.06 7.31114e-17 -1.194
v  1.523 2.22273e-17 -0.363
v  0 0 0
v  2.952 -7.60322e-16 12.417
v  8.01 -6.86659e-16 11.214

# 0 UV coordinates

# 35 vertex normals
vn 0.684504 0.710635 -0.162639
vn 0.684342 0.710788 -0.16265
vn 0.684322 0.710799 -0.162691
vn 0.684363 0.710766 -0.162665
vn 0.684284 0.710836 -0.162688
vn -0.684243 0.710879 0.162671
vn -0.684383 0.710745 0.16267
vn -0.684325 0.710795 0.162698
vn 0.972857 0 -0.231409
vn 0.972857 0 -0.231409
vn 0.972884 0 -0.231294
vn -0.230933 0 -0.97297
vn -0.227894 0.000803992 -0.973686
vn -0.228923 0.000213983 -0.973444
vn -0.230932 -0.00297388 -0.972965
vn -0.228668 3.18393e-05 -0.973504
vn -0.230642 -0.00125594 -0.973038
vn -0.228717 0.00120845 -0.973492
vn -0.231851 5.95638e-17 -0.972751
vn -0.972884 -1.41626e-17 0.231292
vn -0.972884 0 0.231292
vn 0.231386 -0 0.972862
vn 0.231244 8.15421e-05 0.972896
vn 0.231387 -0.000215231 0.972862
vn 0.231166 0 0.972914
vn 0.23148 -0 0.97284
vn 0.23148 0 0.97284
vn 1.81533e-23 -1 -6.12323e-17
vn -1.74353e-24 -1 -6.12323e-17
vn 9.01273e-25 -1 -6.12323e-17
vn 1.01801e-23 -1 -6.12324e-17
vn -1.48563e-24 -1 -6.12323e-17
vn -1.32405e-24 -1 -6.12323e-17
vn 7.27844e-24 -1 -6.12323e-17
vn 0 -1 -6.12323e-17

# Mesh 'defaultobject' with 36 faces
g defaultobject
usemtl DefaultMaterial
f  1//1 2//1 3//1
f  2//2 1//2 4//2
f  2//3 5//3 6//3
f  5//4 2//4 4//4
f  5//5 4//5 7//5
f  8//6 9//6 10//6
f  9//7 8//7 7//7
f  7//8 8//8 5//8
f  3//9 11//9 1//9
f  11//9 3//9 12//10
f  13//11 2//11 6//11
f  2//11 13//11 14//11
f  11//12 4//12 1//12
f  4//13 11//13 7//13
f  7//14 11//14 9//14
f  9//15 11//15 15//15
f  9//16 15//16 16//16
f  9//17 16//17 10//17
f  10//18 16//18 17//18
f  10//19 17//19 18//19
f  18//20 8//20 10//20
f  8//20 18//20 19//21
f  19//22 5//22 8//22
f  5//23 19//23 6//23
f  6//24 19//24 20//24
f  6//25 20//25 13//25
f  14//26 3//26 2//26
f  3//26 14//26 12//27
f  12//28 15//28 11//28
f  15//28 12//28 16//29
f  16//29 12//28 17//30
f  17//30 12//28 14//31
f  17//30 14//31 13//32
f  17//30 13//32 18//33
f  18//33 13//32 20//34
f  18//33 20//34 19//35

