# {"id":"ID_3143","idOriginal":"ID_3143","origin":[14.314221298476204,48.25234745681113],"elevation":257.869,"wof":[{"Id":85898429,"Name":"Kleinmünchen","Placetype":"neighbourhood","Offset":-1},{"Id":85681677,"Name":"Oberösterreich","Placetype":"region","Offset":-1},{"Id":102049853,"Name":"Linz","Placetype":"county","Offset":-1},{"Id":101748071,"Name":"Linz","Placetype":"locality","Offset":-1},{"Id":85632785,"Name":"Austria","Placetype":"country","Offset":-1}]}

# Attribution: City of Linz <http://geo.data.linz.gv.at/katalog/geodata/3d_geo_daten_lod2/>
# Longitude: 14.314221298476204
# Latitude: 48.25234745681113
# Elevation: 257.869

# File produced by Open Asset Import Library (http://www.assimp.sf.net)
# (assimp v3.1.0)


# 30 vertex positions
v  32.666 11.922 17.406
v  20.589 17.443 15.556
v  32.722 11.928 17.481
v  32.16 12.078 17.174
v  11.199 12.09 -5.803
v  9.458 17.443 3.342
v  10.949 12.087 -6.083
v  10.76 11.887 -6.296
v  10.603 11.888 -6.204
v  0 11.989 7.34115e-16
v  1.165 13.672 2.03
v  18.963 11.85 25.323
v  15.428 9.221 26.872
v  15.629 9.158 27.223
v  7.004 11.85 12.2
v  19.052 11.922 25.272
v  10.76 3.85519e-16 -6.296
v  10.949 3.72476e-16 -6.083
v  11.199 3.55331e-16 -5.803
v  32.16 -1.0516e-15 17.174
v  32.722 -1.0704e-15 17.481
v  32.666 -1.06581e-15 17.406
v  0 0 0
v  10.603 3.79885e-16 -6.204
v  1.165 -1.24302e-16 2.03
v  7.004 -7.47035e-16 12.2
v  15.428 -1.64544e-15 26.872
v  15.629 -1.66693e-15 27.223
v  18.963 -1.55059e-15 25.323
v  19.052 -1.54746e-15 25.272

# 0 UV coordinates

# 51 vertex normals
vn 0.431721 0.814529 -0.387504
vn 0.431297 0.810966 -0.395371
vn 0.431448 0.811955 -0.393169
vn 0.431412 0.811979 -0.393159
vn 0.43084 0.812174 -0.393382
vn -0.288002 0.8123 -0.507172
vn -0.291912 0.811031 -0.506968
vn -0.289011 0.811952 -0.507156
vn -0.288927 0.811893 -0.507298
vn -0.431674 0.81195 0.392931
vn -0.431503 0.811896 0.393229
vn -0.431442 0.811956 0.393173
vn -0.431422 0.811974 0.393159
vn -0.431518 0.811909 0.393186
vn -0.431407 0.811984 0.393155
vn 0.288672 0.81209 0.507127
vn 0.74799 0 -0.66371
vn 0.745938 7.27204e-05 -0.666016
vn 0.738774 0.000656519 -0.673953
vn 0.747517 -0.0355547 -0.663291
vn 0.745655 -0.0275244 -0.665763
vn 0.738774 0 -0.673954
vn 0.801284 0 -0.598284
vn 0.801284 0 -0.598284
vn 0.416779 0 -0.909008
vn 0.416779 0 -0.909008
vn -0.505577 0 -0.862781
vn -0.505019 9.8933e-06 -0.863108
vn -0.505028 5.28498e-17 -0.863103
vn 0 -1 -6.13853e-17
vn -0.867321 -3.04783e-17 0.497748
vn -0.867231 -3.11081e-05 0.497906
vn -0.867321 0.000184577 0.497749
vn -0.867229 0 0.49791
vn -0.867223 0 0.49792
vn -0.867223 0 0.49792
vn -0.867787 0 0.496936
vn -0.867787 0 0.496936
vn 0.495156 0.00333295 0.868798
vn 0.495173 -7.38905e-05 0.868794
vn 0.495164 0 0.868799
vn 0.495128 6.83393e-05 0.86882
vn 0.495173 0 0.868794
vn 1.12144e-19 -1 -6.08941e-17
vn -5.75566e-23 -1 -6.12325e-17
vn 1.63106e-23 -1 -6.12323e-17
vn 5.50698e-24 -1 -6.12323e-17
vn 2.89844e-22 -1 -6.12329e-17
vn -9.32127e-22 -1 -6.12307e-17
vn 4.29161e-24 -1 -6.12323e-17
vn -1.8001e-22 -1 -6.12321e-17

# Mesh 'defaultobject' with 56 faces
g defaultobject
usemtl DefaultMaterial
f  1//1 2//1 3//1
f  2//2 1//2 4//2
f  2//3 4//3 5//3
f  2//4 5//4 6//4
f  6//5 5//5 7//5
f  8//6 6//6 7//6
f  6//7 8//7 9//7
f  6//8 9//8 10//8
f  6//9 10//9 11//9
f  12//10 13//10 14//10
f  13//11 12//11 15//11
f  15//12 12//12 11//12
f  11//13 12//13 6//13
f  6//14 12//14 16//14
f  6//15 16//15 2//15
f  2//16 16//16 3//16
f  7//17 17//17 8//17
f  17//18 7//18 5//18
f  17//19 5//19 4//19
f  17//20 4//20 18//20
f  18//21 4//21 19//21
f  19//22 4//22 20//22
f  21//23 1//23 3//23
f  1//23 21//23 22//24
f  1//25 20//25 4//25
f  20//25 1//25 22//26
f  17//27 9//27 8//27
f  9//28 17//28 10//28
f  10//29 17//29 23//29
f  23//30 17//30 24//30
f  23//31 11//31 10//31
f  11//32 23//32 15//32
f  15//33 23//33 25//33
f  15//34 25//34 26//34
f  15//35 26//35 13//35
f  13//35 26//35 27//36
f  13//37 27//37 14//37
f  14//37 27//37 28//38
f  12//39 3//39 16//39
f  3//40 12//40 14//40
f  3//41 14//41 28//41
f  3//42 28//42 29//42
f  3//41 29//43 21//43
f  21//44 29//44 30//44
f  27//45 29//44 28//45
f  29//44 27//45 26//46
f  29//44 26//46 30//44
f  30//44 26//46 21//44
f  21//44 26//46 25//47
f  21//44 25//47 20//48
f  21//44 20//48 22//49
f  20//48 25//47 19//50
f  19//50 25//47 23//30
f  19//50 23//30 24//30
f  19//50 24//30 18//51
f  18//51 24//30 17//30

