# File produced by Open Asset Import Library (http://www.assimp.sf.net)
# (assimp v3.1.0)

mtllib ID_47941.obj.mtl

# 12 vertex positions
v  0.019 1.341 -0.026
v  5.503 1.341 -1.164
v  2.564 1.341 -3.548
v  0 1.341 8.21126e-17
v  2.769 1.341 2.206
v  2.897 1.341 2.308
v  2.564 2.17252e-16 -3.548
v  0.019 1.59204e-18 -0.026
v  0 0 0
v  2.769 -1.35079e-16 2.206
v  2.897 -1.41324e-16 2.308
v  5.503 7.12744e-17 -1.164

# 0 UV coordinates

# 13 vertex normals
vn 0 1 0
vn -0.810534 0 -0.585692
vn -0.807391 -0 -0.590017
vn -0.807391 3.61281e-17 -0.590017
vn -0.623109 -4.7892e-17 0.782135
vn -0.623109 0 0.782135
vn -0.623204 0 0.78206
vn 0.799779 -0 0.600295
vn 0.629966 0 -0.776623
vn -3.63091e-24 -1 -6.12323e-17
vn 3.44525e-24 -1 -6.12323e-17
vn 1.80324e-22 -1 -6.12324e-17
vn -6.44939e-24 -1 -6.12323e-17

# Mesh 'defaultobject' with 20 faces
g defaultobject
usemtl DefaultMaterial
f  1//1 2//1 3//1
f  2//1 1//1 4//1
f  2//1 4//1 5//1
f  2//1 5//1 6//1
f  7//2 1//2 3//2
f  1//2 7//2 8//2
f  1//3 8//3 4//3
f  4//3 8//3 9//4
f  9//5 5//5 4//5
f  5//5 9//5 10//6
f  5//7 10//7 6//7
f  6//7 10//7 11//7
f  11//8 2//8 6//8
f  2//8 11//8 12//8
f  12//9 3//9 2//9
f  3//9 12//9 7//9
f  8//10 10//10 9//10
f  10//10 8//10 7//11
f  10//10 7//11 11//12
f  11//12 7//11 12//13

