# File produced by Open Asset Import Library (http://www.assimp.sf.net)
# (assimp v3.1.0)

mtllib ID_43225.obj.mtl

# 16 vertex positions
v  0 2.867 1.75553e-16
v  8.959 2.867 -1.847
v  7.87 2.867 -3.91
v  5.426 2.867 -0.074
v  5.575 2.867 0.176
v  1.348 2.867 2.627
v  5.696 2.867 0.378
v  1.255 2.867 2.446
v  1.348 -1.60857e-16 2.627
v  5.696 -2.31458e-17 0.378
v  5.426 4.53119e-18 -0.074
v  8.959 1.13096e-16 -1.847
v  5.575 -1.07769e-17 0.176
v  7.87 2.39418e-16 -3.91
v  0 0 0
v  1.255 -1.49774e-16 2.446

# 0 UV coordinates

# 17 vertex normals
vn 0 1 0
vn 0.459428 -0 0.888215
vn 0.448529 -0 0.893768
vn 0.857867 0 -0.513872
vn 0.859006 0.00018233 -0.511966
vn 0.858497 0 -0.512819
vn 2.7186e-21 -1 -6.12365e-17
vn 0.88435 0 -0.466824
vn -0.444936 0 -0.895562
vn -0.444936 5.48374e-17 -0.895562
vn -0.889459 0 0.457016
vn -0.889723 -4.10365e-05 0.456501
vn -0.889459 0.000554396 0.457016
vn -0.889723 0 0.456501
vn -1.2916e-24 -1 -6.12323e-17
vn 4.57833e-25 -1 -6.12323e-17
vn -1.63629e-19 -1 -6.11154e-17

# Mesh 'defaultobject' with 28 faces
g defaultobject
usemtl DefaultMaterial
f  1//1 2//1 3//1
f  2//1 1//1 4//1
f  5//1 6//1 7//1
f  6//1 5//1 4//1
f  6//1 4//1 1//1
f  6//1 1//1 8//1
f  9//2 7//2 6//2
f  7//2 9//2 10//2
f  11//3 2//3 4//3
f  2//3 11//3 12//3
f  10//4 5//4 7//4
f  5//5 10//5 4//5
f  4//6 10//6 11//6
f  11//7 10//7 13//7
f  12//8 3//8 2//8
f  3//8 12//8 14//8
f  14//9 1//9 3//9
f  1//9 14//9 15//10
f  8//11 9//11 6//11
f  9//12 8//12 1//12
f  9//13 1//13 16//13
f  16//14 1//14 15//14
f  12//15 15//15 14//15
f  15//15 12//15 11//7
f  15//15 11//7 13//7
f  15//15 13//7 10//7
f  15//15 10//7 9//16
f  15//15 9//16 16//17

