# File produced by Open Asset Import Library (http://www.assimp.sf.net)
# (assimp v3.1.0)

mtllib _12570.obj.mtl

# 26 vertex positions
v  13.161 16.564 9.628
v  11.692 17.591 0.98
v  12.744 16.567 10.125
v  13.24 16.563 9.531
v  19.725 16.547 1.433
v  20.107 16.554 0.868
v  19.188 16.742 0.117
v  18.53 16.741 -0.42
v  19.302 16.554 -1.317
v  8.083 16.557 -10.299
v  4.047 17.591 -5.156
v  0 16.554 1.01364e-15
v  12.692 16.554 10.187
v  13.161 16.563 9.628
v  12.692 -6.23774e-16 10.187
v  13.161 -5.89545e-16 9.628
v  13.24 -5.83605e-16 9.531
v  12.744 -6.19977e-16 10.125
v  19.725 -8.77459e-17 1.433
v  20.107 -5.31497e-17 0.868
v  18.53 2.57176e-17 -0.42
v  19.302 8.0643e-17 -1.317
v  19.188 -7.16418e-18 0.117
v  8.083 6.30632e-16 -10.299
v  0 0 0
v  4.047 3.15714e-16 -5.156

# 0 UV coordinates

# 39 vertex normals
vn 0.122183 0.9878 0.0965524
vn 0.129415 0.987007 0.0952295
vn 0.122926 0.987714 0.0964894
vn 0.123 0.987811 0.0953992
vn 0.123002 0.987681 0.0967314
vn 0.0978539 0.987726 -0.121745
vn 0.097867 0.987732 -0.121685
vn 0.0978158 0.987717 -0.121847
vn 0.0977905 0.987721 -0.12184
vn -0.0978186 0.987714 0.121875
vn -0.0978184 0.987714 0.121872
vn -0.101121 0.987342 0.122189
vn 0.766073 0.00115268 0.642752
vn 0.766083 0 0.642742
vn 0.775382 -0.000643 0.631492
vn 0.766083 0.000110238 0.642742
vn 0.775382 0 0.631492
vn -1.80391e-18 -1 -6.29728e-17
vn 0.780558 -0 0.625083
vn 0.828424 0 0.560102
vn 0.757943 -0 0.652321
vn 0.757943 0 0.652321
vn 0.632275 -0.00406553 -0.774734
vn 0.632569 0 -0.774504
vn 0.632569 0 -0.774504
vn -5.05981e-21 1 6.12389e-17
vn 0.624983 0 -0.780638
vn -0.786684 0 -0.617355
vn -0.786629 3.35908e-05 -0.617426
vn -0.786655 3.78044e-17 -0.617393
vn 0 -1 -6.1243e-17
vn -0.625946 -4.77531e-17 0.779867
vn -0.625946 0 0.779867
vn 0 -1 -6.12323e-17
vn 6.36008e-24 -1 -6.12324e-17
vn 0 -1 -6.12324e-17
vn 3.24534e-23 -1 -6.12324e-17
vn 0 -1 -6.12323e-17
vn 2.49582e-24 -1 -6.12323e-17

# Mesh 'defaultobject' with 46 faces
g defaultobject
usemtl DefaultMaterial
f  1//1 2//1 3//1
f  2//2 1//2 4//2
f  2//3 4//3 5//3
f  2//4 5//4 6//4
f  2//5 6//5 7//5
f  8//6 2//6 7//6
f  2//7 8//7 9//7
f  2//8 9//8 10//8
f  2//9 10//9 11//9
f  12//10 2//10 11//10
f  2//10 12//10 13//11
f  2//12 13//12 3//12
f  13//13 14//13 3//13
f  14//14 13//14 15//14
f  14//15 15//15 4//15
f  4//16 15//16 16//16
f  4//17 16//17 17//17
f  16//18 15//18 18//18
f  17//19 5//19 4//19
f  5//19 17//19 19//19
f  5//20 20//20 6//20
f  20//20 5//20 19//20
f  21//21 9//21 8//21
f  9//21 21//21 22//22
f  6//23 8//23 7//23
f  8//24 6//24 21//24
f  21//24 6//24 20//25
f  21//26 20//26 23//26
f  9//27 24//27 10//27
f  24//27 9//27 22//27
f  24//28 11//28 10//28
f  11//29 24//29 12//29
f  12//30 24//30 25//30
f  25//31 24//31 26//31
f  25//32 13//32 12//32
f  13//32 25//32 15//33
f  22//34 26//31 24//31
f  26//31 22//34 21//35
f  26//31 21//35 23//36
f  26//31 23//36 20//37
f  26//31 20//37 19//38
f  26//31 19//38 17//39
f  26//31 17//39 25//31
f  25//31 17//39 15//18
f  15//18 17//39 18//18
f  18//18 17//39 16//18

