# File produced by Open Asset Import Library (http://www.assimp.sf.net)
# (assimp v3.1.0)

mtllib _13953.obj.mtl

# 16 vertex positions
v  18.895 10.196 8.436
v  4.776 14.589 -3.118
v  14.108 14.589 11.557
v  14.813 10.196 2.016
v  13.404 10.196 -0.199
v  9.561 10.196 -6.242
v  0 10.205 6.24876e-16
v  9.306 10.183 14.688
v  9.561 3.82212e-16 -6.242
v  13.404 1.21852e-17 -0.199
v  14.813 -1.23444e-16 2.016
v  18.895 -5.16556e-16 8.436
v  0 0 0
v  4.776 1.90922e-16 -3.118
v  9.306 -8.99381e-16 14.688
v  14.108 -7.07662e-16 11.557

# 0 UV coordinates

# 24 vertex normals
vn 0.514309 0.792793 -0.327055
vn 0.51427 0.792847 -0.326986
vn 0.514316 0.792743 -0.327165
vn 0.514307 0.792789 -0.327069
vn -0.514263 0.792835 0.327026
vn -0.514252 0.79285 0.327007
vn 0.843822 0 -0.536623
vn 0.843756 8.73642e-05 -0.536727
vn 0.843867 -0.00011183 -0.536552
vn 0.843822 2.99875e-05 -0.536623
vn 0.843756 0.000154847 -0.536727
vn 0.843867 0 -0.536552
vn -0.546671 1.1876e-05 -0.837347
vn -0.546671 0 -0.837347
vn -0.546671 5.12727e-17 -0.837347
vn 0 -1 -6.12046e-17
vn -0.844725 -3.27715e-17 0.5352
vn -0.844725 0 0.5352
vn 0.546164 2.0906e-05 0.837678
vn 0.546164 0 0.837678
vn 0.546164 0 0.837678
vn 1.00564e-19 -1 -6.09416e-17
vn 0 -1 -6.12323e-17
vn 0 -1 -6.12323e-17

# Mesh 'defaultobject' with 28 faces
g defaultobject
usemtl DefaultMaterial
f  1//1 2//1 3//1
f  2//2 1//2 4//2
f  2//3 4//3 5//3
f  2//4 5//4 6//4
f  7//5 3//5 2//5
f  3//6 7//6 8//6
f  5//7 9//7 6//7
f  9//8 5//8 4//8
f  9//9 4//9 1//9
f  9//10 1//10 10//10
f  10//11 1//11 11//11
f  11//12 1//12 12//12
f  6//13 7//13 2//13
f  7//14 6//14 9//14
f  7//14 9//14 13//15
f  13//16 9//16 14//16
f  13//17 8//17 7//17
f  8//17 13//17 15//18
f  8//19 1//19 3//19
f  1//20 8//20 15//20
f  1//20 15//20 12//21
f  12//22 15//22 16//22
f  10//23 14//16 9//16
f  14//16 10//23 13//16
f  13//16 10//23 15//22
f  15//22 10//23 11//24
f  15//22 11//24 16//22
f  16//22 11//24 12//22

