# File produced by Open Asset Import Library (http://www.assimp.sf.net)
# (assimp v3.1.0)

mtllib _41679.obj.mtl

# 12 vertex positions
v  0 3.379 2.06904e-16
v  6.744 2.372 -0.244
v  2.745 2.41 -3.438
v  4.461 3.379 3.816
v  7.314 2.372 0.244
v  0 0 0
v  2.745 2.10517e-16 -3.438
v  4.461 -2.33663e-16 3.816
v  7.314 -1.49407e-17 0.244
v  7.33 2.367 0.224
v  7.33 -1.3716e-17 0.224
v  6.744 1.49407e-17 -0.244

# 0 UV coordinates

# 16 vertex normals
vn 0.139902 0.976566 -0.163543
vn 0.139901 0.976565 -0.163548
vn 0.139981 0.976561 -0.163503
vn -0.781467 0 -0.623946
vn -0.781467 0 -0.623946
vn -0.650033 -4.65308e-17 0.759906
vn -0.650033 0 0.759906
vn 0.781359 -0 0.624081
vn 0.780873 0 0.62469
vn 0.624075 0 -0.781364
vn 0.624045 8.45614e-05 -0.781389
vn 0.624075 -1.25957e-05 -0.781364
vn 0.624044 0 -0.781389
vn 0 -1 -6.12323e-17
vn 0 -1 -6.12323e-17
vn 2.42238e-23 -1 -6.12324e-17

# Mesh 'defaultobject' with 19 faces
g defaultobject
usemtl DefaultMaterial
f  1//1 2//1 3//1
f  2//1 1//1 4//2
f  2//3 4//3 5//3
f  3//4 6//4 1//4
f  6//4 3//4 7//5
f  6//6 4//6 1//6
f  4//6 6//6 8//7
f  8//8 5//8 4//8
f  5//8 8//8 9//8
f  5//9 9//9 10//9
f  10//9 9//9 11//9
f  2//10 7//10 3//10
f  7//11 2//11 10//11
f  7//12 10//12 12//12
f  12//13 10//13 11//13
f  12//14 6//14 7//14
f  6//14 12//14 8//14
f  8//14 12//14 9//15
f  9//15 12//14 11//16

