# {"id":"ID_44136","idOriginal":"ID_44136","origin":[14.279620821230802,48.31874975970966],"elevation":282.16,"wof":[{"Id":102049853,"Name":"Linz","Placetype":"county","Offset":-1},{"Id":101748071,"Name":"Linz","Placetype":"locality","Offset":-1},{"Id":85632785,"Name":"Austria","Placetype":"country","Offset":-1},{"Id":85681677,"Name":"Oberösterreich","Placetype":"region","Offset":-1},{"Id":85898453,"Name":"Urfahr","Placetype":"neighbourhood","Offset":-1}]}

# Attribution: City of Linz <http://geo.data.linz.gv.at/katalog/geodata/3d_geo_daten_lod2/>
# Longitude: 14.279620821230802
# Latitude: 48.31874975970966
# Elevation: 282.16

# File produced by Open Asset Import Library (http://www.assimp.sf.net)
# (assimp v3.1.0)


# 10 vertex positions
v  3.598 2.39 -4.679
v  2.667 2.39 2.523
v  6.323 2.39 -2.386
v  0 2.39 1.46345e-16
v  1.042 2.39 1.04
v  6.323 1.461e-16 -2.386
v  3.598 2.86506e-16 -4.679
v  0 0 0
v  1.042 -6.36816e-17 1.04
v  2.667 -1.54489e-16 2.523

# 0 UV coordinates

# 10 vertex normals
vn 0 1 -0
vn 0.64385 0 -0.765151
vn -0.792725 0 -0.60958
vn -0.792725 3.7326e-17 -0.60958
vn -0.706427 -4.33394e-17 0.707786
vn -0.706427 0 0.707786
vn -0.674097 0 0.738643
vn 0.802015 -0 0.597304
vn 0 -1 -6.12323e-17
vn -9.14556e-23 -1 -6.12322e-17

# Mesh 'defaultobject' with 16 faces
g defaultobject
usemtl DefaultMaterial
f  1//1 2//1 3//1
f  2//1 1//1 4//1
f  2//1 4//1 5//1
f  6//2 1//2 3//2
f  1//2 6//2 7//2
f  7//3 4//3 1//3
f  4//3 7//3 8//4
f  8//5 5//5 4//5
f  5//5 8//5 9//6
f  9//7 2//7 5//7
f  2//7 9//7 10//7
f  10//8 3//8 2//8
f  3//8 10//8 6//8
f  10//9 7//9 6//9
f  7//9 10//9 8//9
f  8//9 10//9 9//10

