# {"id":"ID_49950","idOriginal":"ID_49950","origin":[14.271745657402978,48.289283502664],"elevation":330.219,"wof":[{"Id":85898459,"Name":"Wegscheid","Placetype":"neighbourhood","Offset":-1},{"Id":85681677,"Name":"Oberösterreich","Placetype":"region","Offset":-1},{"Id":101748071,"Name":"Linz","Placetype":"locality","Offset":-1},{"Id":102049853,"Name":"Linz","Placetype":"county","Offset":-1},{"Id":85632785,"Name":"Austria","Placetype":"country","Offset":-1}]}

# Attribution: City of Linz <http://geo.data.linz.gv.at/katalog/geodata/3d_geo_daten_lod2/>
# Longitude: 14.271745657402978
# Latitude: 48.289283502664
# Elevation: 330.219

# File produced by Open Asset Import Library (http://www.assimp.sf.net)
# (assimp v3.1.0)


# 8 vertex positions
v  0 3.52 2.15538e-16
v  8.247 2.381 0.051
v  0.203 2.381 -1.661
v  7.89 3.533 1.698
v  0 0 0
v  0.203 1.01707e-16 -1.661
v  7.89 -1.03973e-16 1.698
v  8.247 -3.12285e-18 0.051

# 0 UV coordinates

# 11 vertex normals
vn 0.117444 0.825651 -0.551822
vn 0.117431 0.825548 -0.551979
vn -0.992614 0 -0.121313
vn -0.992614 0 -0.121313
vn -0.210392 0 0.977617
vn -0.210392 0 0.977617
vn 0.977305 -0 0.211838
vn 0.977305 0 0.211838
vn 0.208167 0 -0.978093
vn 6.03402e-26 -1 -6.12323e-17
vn 3.04088e-26 -1 -6.12323e-17

# Mesh 'defaultobject' with 12 faces
g defaultobject
usemtl DefaultMaterial
f  1//1 2//1 3//1
f  2//2 1//2 4//2
f  3//3 5//3 1//3
f  5//3 3//3 6//4
f  1//5 7//5 4//5
f  7//5 1//5 5//6
f  7//7 2//7 4//7
f  2//7 7//7 8//8
f  8//9 3//9 2//9
f  3//9 8//9 6//9
f  8//10 5//10 6//10
f  5//10 8//10 7//11

