# {"id":"_6761","idOriginal":"_6761","origin":[14.310938853771917,48.293645890518135],"elevation":259.088,"wof":[{"Id":85681677,"Name":"Oberösterreich","Placetype":"region","Offset":-1},{"Id":85898449,"Name":"Steeg","Placetype":"neighbourhood","Offset":-1},{"Id":102049853,"Name":"Linz","Placetype":"county","Offset":-1},{"Id":85632785,"Name":"Austria","Placetype":"country","Offset":-1},{"Id":101748071,"Name":"Linz","Placetype":"locality","Offset":-1}]}

# Attribution: City of Linz <http://geo.data.linz.gv.at/katalog/geodata/3d_geo_daten_lod2/>
# Longitude: 14.310938853771917
# Latitude: 48.293645890518135
# Elevation: 259.088

# File produced by Open Asset Import Library (http://www.assimp.sf.net)
# (assimp v3.1.0)


# 35 vertex positions
v  11.411 11.404 7.355
v  11.969 17.078 -5.862
v  5.757 17.078 3.71
v  15.803 11.405 0.587
v  17.157 10.044 1.465
v  22.625 10.044 -6.961
v  21.268 11.408 -7.842
v  11.989 10.044 -15.792
v  11.089 11.438 -14.406
v  17.438 10.044 -12.256
v  20.186 11.408 -8.544
v  21.067 10.044 -9.901
v  10 11.438 -15.113
v  3.179 10.044 -7.638
v  8.614 10.044 -16.013
v  4.43 11.302 -6.826
v  0 11.301 6.91987e-16
v  0.675 11.979 0.435
v  21.067 6.06261e-16 -9.901
v  11.989 9.66981e-16 -15.792
v  17.438 7.50464e-16 -12.256
v  11.089 8.82113e-16 -14.406
v  8.614 9.80513e-16 -16.013
v  10 9.25404e-16 -15.113
v  20.186 5.23169e-16 -8.544
v  22.625 4.26238e-16 -6.961
v  21.268 4.80184e-16 -7.842
v  3.179 4.67693e-16 -7.638
v  4.43 4.17972e-16 -6.826
v  0 0 0
v  0.675 -2.66361e-17 0.435
v  5.757 -2.27172e-16 3.71
v  11.411 -4.50364e-16 7.355
v  15.803 -3.59434e-17 0.587
v  17.157 -8.97054e-17 1.465

# 0 UV coordinates

# 57 vertex normals
vn 0.540832 0.764401 0.350987
vn 0.540727 0.764465 0.35101
vn 0.540832 0.764432 0.350919
vn 0.5408 0.764441 0.350949
vn 0.540841 0.764549 0.350651
vn 0.350986 0.764373 -0.540872
vn 0.35092 0.7644 -0.540877
vn 0.351138 0.764549 -0.540525
vn 0.350942 0.764449 -0.540793
vn 0.35097 0.764451 -0.540772
vn 0.35107 0.764415 -0.540758
vn -0.540865 0.764373 -0.350997
vn -0.540815 0.764435 -0.35094
vn -0.540734 0.764389 -0.351164
vn -0.540796 0.764437 -0.350964
vn -0.540895 0.764386 -0.350923
vn 0.534803 0.00982465 -0.84492
vn 0.544363 0 -0.83885
vn 0.544355 -3.78585e-06 -0.838855
vn 0.544358 0 -0.838853
vn 0 1 6.06353e-17
vn 0.544528 0 -0.838743
vn 0.544599 9.60314e-06 -0.838697
vn 0.544572 0 -0.838714
vn -1.3312e-19 -1 -6.10356e-17
vn 0.54428 -0.000356559 -0.838904
vn 0.54442 0 -0.838813
vn 0.54442 0 -0.838813
vn 2.10989e-20 1 6.11973e-17
vn -0.838692 0 -0.544606
vn -0.838692 0 -0.544606
vn -0.838844 0 -0.544372
vn -0.838831 0 -0.544392
vn -0.838831 3.33344e-17 -0.544392
vn -0.544446 0 0.838796
vn -0.541766 0.000102588 0.840529
vn -0.541767 9.2003e-05 0.840529
vn -0.541766 0 0.840529
vn -0.541702 -9.16424e-05 0.840571
vn -0.541694 -0.00010208 0.840576
vn -0.541839 0 0.840482
vn -0.544073 0 0.839038
vn 0.838851 0 0.544361
vn 0.838851 0 0.544361
vn 0.838848 -0 0.544365
vn 0.83874 -0 0.544531
vn 0.838741 0 0.544531
vn -1.93337e-24 -1 -6.12323e-17
vn 0 -1 -6.12323e-17
vn 0 -1 -6.12321e-17
vn 0 -1 -6.12323e-17
vn -1.56602e-24 -1 -6.12323e-17
vn -1.81083e-23 -1 -6.12324e-17
vn 1.08478e-22 -1 -6.12322e-17
vn -7.43452e-24 -1 -6.12323e-17
vn -1.65046e-24 -1 -6.12323e-17
vn -3.26592e-24 -1 -6.12323e-17

# Mesh 'defaultobject' with 66 faces
g defaultobject
usemtl DefaultMaterial
f  1//1 2//1 3//1
f  2//2 1//2 4//2
f  2//3 4//3 5//3
f  2//4 5//4 6//4
f  2//5 6//5 7//5
f  8//6 9//6 10//6
f  11//7 2//7 7//7
f  2//8 11//8 12//8
f  2//9 12//9 10//9
f  2//10 10//10 9//10
f  2//11 9//11 13//11
f  14//12 13//12 15//12
f  13//13 14//13 2//13
f  2//14 14//14 16//14
f  2//15 16//15 3//15
f  3//16 16//16 17//16
f  3//17 17//17 18//17
f  19//18 10//18 12//18
f  10//18 19//18 8//19
f  8//19 19//18 20//20
f  20//21 19//21 21//21
f  22//22 13//22 9//22
f  13//23 22//23 15//23
f  15//24 22//24 23//24
f  23//25 22//25 24//25
f  6//26 11//26 7//26
f  11//27 6//27 25//27
f  25//27 6//27 26//28
f  25//29 26//29 27//29
f  8//30 22//30 9//30
f  22//30 8//30 20//31
f  23//32 14//32 15//32
f  14//32 23//32 28//32
f  29//33 17//33 16//33
f  17//33 29//33 30//34
f  14//35 29//35 16//35
f  29//35 14//35 28//35
f  18//36 1//36 3//36
f  1//37 18//37 17//37
f  1//38 17//38 30//38
f  1//39 30//39 31//39
f  1//40 31//40 32//40
f  1//41 32//41 33//41
f  34//42 5//42 4//42
f  5//42 34//42 35//42
f  1//43 34//43 4//43
f  34//43 1//43 33//44
f  35//45 6//45 5//45
f  6//45 35//45 26//45
f  25//46 12//46 11//46
f  12//46 25//46 19//47
f  31//48 22//25 32//48
f  22//25 31//48 24//25
f  24//25 31//48 30//49
f  24//25 30//49 29//50
f  24//25 29//50 23//25
f  23//25 29//50 28//51
f  32//48 34//51 33//51
f  34//51 32//48 27//52
f  27//52 32//48 25//53
f  25//53 32//48 19//54
f  19//54 32//48 21//55
f  21//55 32//48 20//56
f  20//56 32//48 22//25
f  34//51 26//57 35//57
f  26//57 34//51 27//52

