# {"id":"ID_27966","idOriginal":"ID_27966","origin":[14.268733046598783,48.2457965762549],"elevation":269.566,"wof":[{"Id":85681677,"Name":"Oberösterreich","Placetype":"region","Offset":-1},{"Id":101748071,"Name":"Linz","Placetype":"locality","Offset":-1},{"Id":85898459,"Name":"Wegscheid","Placetype":"neighbourhood","Offset":-1},{"Id":102049853,"Name":"Linz","Placetype":"county","Offset":-1},{"Id":85632785,"Name":"Austria","Placetype":"country","Offset":-1}]}

# Attribution: City of Linz <http://geo.data.linz.gv.at/katalog/geodata/3d_geo_daten_lod2/>
# Longitude: 14.268733046598783
# Latitude: 48.2457965762549
# Elevation: 269.566

# File produced by Open Asset Import Library (http://www.assimp.sf.net)
# (assimp v3.1.0)


# 16 vertex positions
v  1.526 6.963 4.604
v  0.282 5.643 -0.094
v  0 5.643 3.45534e-16
v  7.735 5.643 -2.582
v  9.219 6.963 2.036
v  10.709 5.639 6.665
v  3.05 5.644 9.203
v  10.673 5.67 6.558
v  0 0 0
v  1.526 -2.81914e-16 4.604
v  3.05 -5.63521e-16 9.203
v  10.709 -4.08114e-16 6.665
v  10.673 -4.01562e-16 6.558
v  9.219 -1.24669e-16 2.036
v  7.735 1.58102e-16 -2.582
v  0.282 5.75584e-18 -0.094

# 0 UV coordinates

# 28 vertex normals
vn -0.0830403 0.964906 -0.249122
vn -0.0831529 0.964904 -0.249091
vn -0.0831477 0.964905 -0.249087
vn 0.0831955 0.964882 0.249161
vn 0.0825643 0.964303 0.2516
vn 0.0831697 0.964886 0.249153
vn -0.949218 -1.92649e-17 0.314619
vn -0.949236 3.93277e-05 0.314566
vn -0.949218 -5.76556e-05 0.314619
vn -0.949239 0 0.314555
vn 0.314554 -0 0.949239
vn 0.314554 0 0.94924
vn 0.947796 0 -0.318879
vn 0.95202 0.000269201 -0.306035
vn 0.952026 0.000283241 -0.306016
vn 0.947544 -0.0230208 -0.318795
vn 0.951998 -0.000146515 -0.306105
vn 0.95205 0 -0.305942
vn -0.316228 0 -0.948683
vn -0.316648 2.33209e-05 -0.948543
vn -0.316228 -0.000616441 -0.948683
vn -0.316648 0 -0.948543
vn 1.35424e-24 -1 -6.12323e-17
vn 1.3528e-24 -1 -6.12323e-17
vn 0 -1 -6.12322e-17
vn -2.01019e-22 -1 -6.1232e-17
vn 0 -1 -6.12323e-17
vn 1.38912e-24 -1 -6.12323e-17

# Mesh 'defaultobject' with 28 faces
g defaultobject
usemtl DefaultMaterial
f  1//1 2//1 3//1
f  2//2 1//2 4//2
f  4//2 1//2 5//3
f  6//4 1//4 7//4
f  1//5 6//5 8//5
f  1//6 8//6 5//6
f  9//7 1//7 3//7
f  1//8 9//8 7//8
f  7//9 9//9 10//9
f  7//10 10//10 11//10
f  11//11 6//11 7//11
f  6//11 11//11 12//12
f  12//13 8//13 6//13
f  8//14 12//14 5//14
f  5//15 12//15 4//15
f  4//16 12//16 13//16
f  4//17 13//17 14//17
f  4//18 14//18 15//18
f  2//19 9//19 3//19
f  9//20 2//20 4//20
f  9//21 4//21 16//21
f  16//22 4//22 15//22
f  10//23 12//23 11//23
f  12//23 10//23 9//24
f  12//23 9//24 16//25
f  12//23 16//25 13//26
f  13//26 16//25 14//27
f  14//27 16//25 15//28

