# {"id":"ID_43414","idOriginal":"ID_43414","origin":[14.276347293573147,48.31759264260442],"elevation":293.554}
# Longitude: 14.276347293573147
# Latitude: 48.31759264260442
# Elevation: 293.554

# File produced by Open Asset Import Library (http://www.assimp.sf.net)
# (assimp v3.1.0)

mtllib ID_43414.obj.mtl

# 16 vertex positions
v  0 2.801 1.71512e-16
v  1.873 2.801 3.235
v  1.259 2.801 -0.216
v  0.626 2.801 3.453
v  1.259 2.801 3.343
v  7.1 2.801 2.315
v  1.875 2.801 3.245
v  6.523 2.801 -1.121
v  6.523 6.86415e-17 -1.121
v  1.259 1.32262e-17 -0.216
v  0 0 0
v  0.626 -2.11435e-16 3.453
v  1.873 -1.98087e-16 3.235
v  1.259 -2.047e-16 3.343
v  1.875 -1.98699e-16 3.245
v  7.1 -1.41753e-16 2.315

# 0 UV coordinates

# 17 vertex normals
vn -0 1 0
vn -0.169437 0 -0.985541
vn -0.169094 -0 -0.9856
vn -0.169094 6.03506e-17 -0.9856
vn -0.983961 -1.09229e-17 0.178384
vn -0.983961 0 0.178384
vn 0.17121 -0 0.985235
vn 0.173236 -0.00047185 0.98488
vn 0.172208 0 0.985061
vn 1.1294e-21 1 6.12375e-17
vn 0.175236 -0 0.984526
vn 0.986192 0 -0.165609
vn 2.84479e-24 -1 -6.12323e-17
vn 2.83758e-24 -1 -6.12323e-17
vn -1.18236e-23 -1 -6.12323e-17
vn -1.1917e-23 -1 -6.12323e-17
vn -1.00391e-21 -1 -6.12385e-17

# Mesh 'defaultobject' with 24 faces
g defaultobject
usemtl DefaultMaterial
f  1//1 2//1 3//1
f  2//1 1//1 4//1
f  2//1 4//1 5//1
f  6//1 3//1 7//1
f  3//1 6//1 8//1
f  9//2 3//2 8//2
f  3//2 9//2 10//2
f  3//3 10//3 1//3
f  1//3 10//3 11//4
f  11//5 4//5 1//5
f  4//5 11//5 12//6
f  12//7 5//7 4//7
f  5//8 12//8 2//8
f  2//9 12//9 13//9
f  13//10 12//10 14//10
f  15//11 6//11 7//11
f  6//11 15//11 16//11
f  16//12 8//12 6//12
f  8//12 16//12 9//12
f  16//13 10//13 9//13
f  10//13 16//13 15//14
f  13//15 11//15 10//13
f  11//15 13//15 12//16
f  12//16 13//15 14//17

