# {"id":"_18004","idOriginal":"_18004","origin":[14.271275644794619,48.29999002360986],"elevation":320.37,"wof":[{"Id":85898445,"Name":"St. Margarethen","Placetype":"neighbourhood","Offset":-1},{"Id":102049853,"Name":"Linz","Placetype":"county","Offset":-1},{"Id":85632785,"Name":"Austria","Placetype":"country","Offset":-1},{"Id":101748071,"Name":"Linz","Placetype":"locality","Offset":-1},{"Id":85681677,"Name":"Oberösterreich","Placetype":"region","Offset":-1}]}

# Attribution: City of Linz <http://geo.data.linz.gv.at/katalog/geodata/3d_geo_daten_lod2/>
# Longitude: 14.271275644794619
# Latitude: 48.29999002360986
# Elevation: 320.37

# File produced by Open Asset Import Library (http://www.assimp.sf.net)
# (assimp v3.1.0)


# 16 vertex positions
v  13.201 12.36 5.987
v  3.578 9.471 11.994
v  13.285 9.473 12.01
v  0.048 12.363 5.954
v  0.097 9.47 11.988
v  13.118 9.511 0.043
v  9.47 9.472 -0.048
v  0 9.508 5.82197e-16
v  0 0 0
v  0.097 -7.34053e-16 11.988
v  0.048 -3.64577e-16 5.954
v  13.285 -7.354e-16 12.01
v  3.578 -7.34421e-16 11.994
v  13.118 -2.63299e-18 0.043
v  13.201 -3.66598e-16 5.987
v  9.47 2.93915e-18 -0.048

# 0 UV coordinates

# 27 vertex normals
vn -0.000898255 0.901754 0.432249
vn -0.000878856 0.901742 0.432275
vn -0.00100415 0.901713 0.432334
vn 0.00129015 0.901759 -0.432237
vn 0.0011494 0.901638 -0.43249
vn 0.00123623 0.901691 -0.432379
vn -0.999968 -4.93627e-19 0.00806155
vn -0.999967 -2.3022e-05 0.00810935
vn -0.999967 0 0.00809116
vn 0 1 6.12333e-17
vn -0.00172379 0 0.999999
vn -0.00164827 -2.77581e-05 0.999999
vn -0.0016682 0 0.999999
vn 2.70346e-22 1 6.10712e-17
vn 0.999903 0 -0.0139451
vn 0.999903 -6.79984e-06 -0.0139591
vn 0.999903 0 -0.0139537
vn 6.87179e-19 1 6.12341e-17
vn -0.00506857 0 -0.999987
vn -0.00506857 0 -0.999987
vn 0.0249374 0 -0.999689
vn 0.0249374 0 -0.999689
vn 1.00818e-23 -1 -6.12323e-17
vn 0 -1 -6.12323e-17
vn -4.91183e-24 -1 -6.12323e-17
vn -1.92815e-23 -1 -6.12323e-17
vn -9.76918e-24 -1 -6.12323e-17

# Mesh 'defaultobject' with 28 faces
g defaultobject
usemtl DefaultMaterial
f  1//1 2//1 3//1
f  2//2 1//2 4//2
f  2//3 4//3 5//3
f  6//4 4//4 1//4
f  4//5 6//5 7//5
f  4//6 7//6 8//6
f  9//7 4//7 8//7
f  4//8 9//8 5//8
f  5//9 9//9 10//9
f  10//10 9//10 11//10
f  10//11 2//11 5//11
f  2//12 10//12 3//12
f  3//13 10//13 12//13
f  12//14 10//10 13//14
f  12//15 1//15 3//15
f  1//16 12//16 6//16
f  6//16 12//16 14//17
f  14//18 12//14 15//18
f  7//19 9//19 8//19
f  9//19 7//19 16//20
f  14//21 7//21 6//21
f  7//21 14//21 16//22
f  11//23 13//23 10//23
f  13//23 11//23 9//24
f  13//23 9//24 12//25
f  12//25 9//24 16//24
f  12//25 16//24 15//26
f  15//26 16//24 14//27

