# {"id":"ID_25830","idOriginal":"ID_25830","origin":[14.364451865110745,48.24663466834864],"elevation":255.159,"wof":[{"Id":102049853,"Name":"Linz","Placetype":"county","Offset":-1},{"Id":85632785,"Name":"Austria","Placetype":"country","Offset":-1},{"Id":101748071,"Name":"Linz","Placetype":"locality","Offset":-1},{"Id":85681677,"Name":"Oberösterreich","Placetype":"region","Offset":-1},{"Id":85898441,"Name":"Posch","Placetype":"neighbourhood","Offset":-1}]}

# Attribution: City of Linz <http://geo.data.linz.gv.at/katalog/geodata/3d_geo_daten_lod2/>
# Longitude: 14.364451865110745
# Latitude: 48.24663466834864
# Elevation: 255.159

# File produced by Open Asset Import Library (http://www.assimp.sf.net)
# (assimp v3.1.0)


# 12 vertex positions
v  6.633 7.647 -4.105
v  7.691 6.368 3.648
v  12.277 6.373 -6.118
v  5.652 7.647 -2.025
v  0 6.369 3.89989e-16
v  4.607 6.369 -9.776
v  2.055 6.368 -4.367
v  0 0 0
v  7.691 -2.23376e-16 3.648
v  12.277 3.74619e-16 -6.118
v  4.607 5.98607e-16 -9.776
v  2.055 2.67402e-16 -4.367

# 0 UV coordinates

# 20 vertex normals
vn 0.259913 0.957825 0.122542
vn 0.259849 0.957841 0.122554
vn -0.123304 0.957643 0.260223
vn 0.123469 0.9577 -0.259935
vn -0.260536 0.95762 -0.122821
vn -0.260573 0.957617 -0.122763
vn -0.260369 0.957668 -0.122799
vn -0.428556 -5.53244e-17 0.903515
vn -0.428556 0 0.903515
vn 0.905167 0 0.425056
vn 0.905167 0 0.425056
vn 0.430472 0 -0.902604
vn 0.430472 0 -0.902604
vn -0.904394 0 -0.426699
vn -0.904823 -0.000946652 -0.425787
vn -0.904394 0.000763606 -0.426699
vn -0.904823 2.60719e-17 -0.425787
vn -1.15286e-24 -1 -6.12323e-17
vn 1.28991e-24 -1 -6.12323e-17
vn 5.20831e-25 -1 -6.12323e-17

# Mesh 'defaultobject' with 20 faces
g defaultobject
usemtl DefaultMaterial
f  1//1 2//1 3//1
f  2//2 1//2 4//2
f  4//3 5//3 2//3
f  1//4 3//4 6//4
f  4//5 7//5 5//5
f  7//6 4//6 6//6
f  6//7 4//7 1//7
f  8//8 2//8 5//8
f  2//8 8//8 9//9
f  2//10 10//10 3//10
f  10//10 2//10 9//11
f  10//12 6//12 3//12
f  6//12 10//12 11//13
f  11//14 7//14 6//14
f  7//15 11//15 5//15
f  5//16 11//16 12//16
f  5//17 12//17 8//17
f  8//18 10//18 9//18
f  10//18 8//18 12//19
f  10//18 12//19 11//20

