# {"id":"ID_37572","idOriginal":"ID_37572","origin":[14.33387277112829,48.23633957251132],"elevation":292.651}
# Longitude: 14.33387277112829
# Latitude: 48.23633957251132
# Elevation: 292.651

# File produced by Open Asset Import Library (http://www.assimp.sf.net)
# (assimp v3.1.0)

mtllib ID_37572.obj.mtl

# 11 vertex positions
v  4.054 3.867 6.429
v  0 3.199 1.95882e-16
v  1.618 3.199 6.993
v  2.999 3.867 1.872
v  6.49 3.199 5.865
v  4.871 3.199 -1.128
v  1.618 -4.28198e-16 6.993
v  4.054 -3.93663e-16 6.429
v  6.49 -3.59128e-16 5.865
v  4.871 6.90701e-17 -1.128
v  0 0 0

# 0 UV coordinates

# 15 vertex normals
vn -0.251458 0.966118 0.058181
vn -0.251539 0.966094 0.0582343
vn 0.251451 0.966118 -0.0582139
vn 0.251453 0.966117 -0.0582156
vn -0.0582313 0.966115 -0.251458
vn 0.225561 -0 0.974229
vn 0.22556 0 0.974229
vn 0.974231 0 -0.225551
vn -0.225604 0 -0.974219
vn -0.225604 5.96537e-17 -0.974219
vn -0.974262 -1.38029e-17 0.225419
vn -0.974262 0 0.225419
vn -4.4244e-24 -1 -6.12323e-17
vn -2.35968e-23 -1 -6.12323e-17
vn 1.47513e-24 -1 -6.12323e-17

# Mesh 'defaultobject' with 18 faces
g defaultobject
usemtl DefaultMaterial
f  1//1 2//1 3//1
f  2//2 1//2 4//2
f  5//3 4//3 1//3
f  4//3 5//3 6//4
f  4//5 6//5 2//5
f  7//6 1//6 3//6
f  1//6 7//6 5//7
f  5//7 7//6 8//6
f  5//7 8//6 9//6
f  9//8 6//8 5//8
f  6//8 9//8 10//8
f  10//9 2//9 6//9
f  2//9 10//9 11//10
f  11//11 3//11 2//11
f  3//11 11//11 7//12
f  8//13 10//13 9//13
f  10//13 8//13 7//14
f  10//13 7//14 11//15

