# {"id":"ID_55","idOriginal":"ID_55","origin":[14.325254540464048,48.26736518470288],"elevation":256.675,"wof":[{"Id":85681677,"Name":"Oberösterreich","Placetype":"region","Offset":-1},{"Id":85898429,"Name":"Kleinmünchen","Placetype":"neighbourhood","Offset":-1},{"Id":102049853,"Name":"Linz","Placetype":"county","Offset":-1},{"Id":85632785,"Name":"Austria","Placetype":"country","Offset":-1},{"Id":101748071,"Name":"Linz","Placetype":"locality","Offset":-1}]}

# Attribution: City of Linz <http://geo.data.linz.gv.at/katalog/geodata/3d_geo_daten_lod2/>
# Longitude: 14.325254540464048
# Latitude: 48.26736518470288
# Elevation: 256.675

# File produced by Open Asset Import Library (http://www.assimp.sf.net)
# (assimp v3.1.0)


# 180 vertex positions
v  124.389 10.125 27.931
v  25.197 8.515 56.894
v  125.982 8.515 35.319
v  23.605 10.125 49.506
v  23.605 -3.03137e-15 49.506
v  25.197 -3.48375e-15 56.894
v  125.982 -2.16266e-15 35.319
v  124.389 -1.71028e-15 27.931
v  1.332 9.497 6.306
v  12.277 9.497 -2.638
v  0 9.497 5.81524e-16
v  3.129 9.497 14.812
v  15.466 9.497 12.171
v  37.192 9.497 -7.99
v  18.222 9.497 24.968
v  18.271 9.498 25.06
v  18.341 9.498 25.045
v  18.395 9.499 25.297
v  18.961 9.499 27.955
v  18.993 9.499 28.103
v  20.918 9.518 30.101
v  96.124 9.518 13.965
v  43.361 9.497 -9.315
v  83.651 9.497 -17.97
v  90.536 9.497 -19.45
v  97.125 9.497 11.223
v  91.896 9.497 -13.119
v  93.73 9.497 -4.583
v  96.464 9.497 8.144
v  18.993 -1.72081e-15 28.103
v  18.341 -1.53356e-15 25.045
v  18.395 -1.54899e-15 25.297
v  18.961 -1.71175e-15 27.955
v  0 0 0
v  1.332 -3.86131e-16 6.306
v  3.129 -9.06973e-16 14.812
v  15.466 -7.45259e-16 12.171
v  18.222 -1.52885e-15 24.968
v  18.243 9.497 25.066
v  18.243 -1.53485e-15 25.066
v  20.918 -1.84315e-15 30.101
v  96.124 -8.5511e-16 13.965
v  18.271 -1.53448e-15 25.06
v  97.125 -6.87211e-16 11.223
v  96.464 -4.98676e-16 8.144
v  93.73 2.80628e-16 -4.583
v  91.896 8.03307e-16 -13.119
v  90.536 1.19097e-15 -19.45
v  83.651 1.10035e-15 -17.97
v  43.361 5.70379e-16 -9.315
v  37.192 4.89246e-16 -7.99
v  12.277 1.61531e-16 -2.638
v  122.876 9.965 20.91
v  23.605 8.555 49.506
v  124.389 8.555 27.931
v  22.092 9.965 42.484
v  22.092 -2.60139e-15 42.484
v  122.876 -1.28037e-15 20.91
v  108.252 3.745 -7.691
v  93.864 3.745 -10.772
v  95.125 3.745 -4.881
v  98.787 3.745 -11.804
v  98.287 3.745 -14.204
v  99.637 3.745 -14.444
v  104.697 3.745 -13.004
v  107.027 3.745 -13.494
v  104.197 3.745 -15.394
v  93.661 3.745 -13.497
v  93.713 3.745 -13.246
v  92.715 3.745 -18.024
v  98.623 3.745 -19.26
v  99.57 3.745 -14.765
v  92.715 1.10365e-15 -18.024
v  93.661 8.26453e-16 -13.497
v  93.713 8.11084e-16 -13.246
v  98.287 8.69744e-16 -14.204
v  98.787 7.22787e-16 -11.804
v  93.864 6.59595e-16 -10.772
v  95.125 2.98875e-16 -4.881
v  108.252 4.70938e-16 -7.691
v  107.027 8.26269e-16 -13.494
v  104.697 7.96265e-16 -13.004
v  104.197 9.42611e-16 -15.394
v  99.637 8.8444e-16 -14.444
v  98.623 1.17933e-15 -19.26
v  99.57 9.04095e-16 -14.765
v  121.449 9.925 14.291
v  22.092 8.555 42.484
v  122.876 8.555 20.91
v  20.665 9.925 35.865
v  20.665 -2.1961e-15 35.865
v  121.449 -8.75071e-16 14.291
v  96.464 14.463 8.144
v  93.85 14.463 -4.608
v  93.73 14.463 -4.583
v  93.981 14.463 -3.995
v  95.256 14.463 -4.269
v  97.125 14.463 11.223
v  103.637 14.463 -6.177
v  103.557 14.463 -6.584
v  119.745 14.463 6.38
v  116.488 14.463 -8.928
v  118.493 14.463 0.494
v  119.086 14.463 3.279
v  95.125 14.463 -4.881
v  108.252 14.463 -7.691
v  95.236 14.463 -4.362
v  108.277 14.463 -7.574
v  119.745 -3.90662e-16 6.38
v  116.488 5.46682e-16 -8.928
v  119.086 -2.00781e-16 3.279
v  118.493 -3.02488e-17 0.494
v  103.637 3.78232e-16 -6.177
v  103.557 4.03154e-16 -6.584
v  108.277 4.63774e-16 -7.574
v  93.981 2.44623e-16 -3.995
v  93.85 2.82159e-16 -4.608
v  95.256 2.61401e-16 -4.269
v  95.236 2.67095e-16 -4.362
v  127.534 10.251 42.522
v  103.972 8.717 57.8
v  129.624 8.729 52.216
v  26.749 10.259 64.097
v  104.034 8.665 58.134
v  81.062 8.655 63.131
v  81.092 8.631 63.288
v  80.601 8.631 63.387
v  69.704 8.786 64.695
v  69.89 8.651 65.556
v  28.778 8.781 73.511
v  69.704 -3.96143e-15 64.695
v  28.778 -4.50125e-15 73.511
v  69.89 -4.01415e-15 65.556
v  80.601 -3.88133e-15 63.387
v  81.092 -3.87527e-15 63.288
v  104.034 -3.55968e-15 58.134
v  81.062 -3.86566e-15 63.131
v  129.624 -3.19731e-15 52.216
v  103.972 -3.53923e-15 57.8
v  26.749 -3.92481e-15 64.097
v  127.534 -2.60372e-15 42.522
v  90.536 3.745 -19.45
v  92.023 3.745 -13.146
v  90.668 3.745 -19.478
v  91.896 3.745 -13.119
v  93.85 3.745 -4.608
v  93.73 3.745 -4.583
v  92.023 8.0496e-16 -13.146
v  90.668 1.19268e-15 -19.478
v  125.982 10.255 35.319
v  26.749 8.615 64.097
v  127.534 8.615 42.522
v  25.197 10.255 56.894
v  18.222 3.745 24.968
v  6.583 3.745 27.625
v  18.243 3.745 25.066
v  5.836 3.745 27.632
v  5.868 3.745 27.782
v  5.836 -1.69197e-15 27.632
v  5.868 -1.70116e-15 27.782
v  6.583 -1.69154e-15 27.625
v  19.058 10.161 28.408
v  20.918 9.747 30.101
v  18.993 10.224 28.103
v  20.665 8.615 35.865
v  121.449 8.615 14.291
v  96.124 9.754 13.965
v  97.125 10.255 11.223
v  119.891 10.113 7.065
v  119.745 10.255 6.38
v  119.891 -4.32607e-16 7.065
v  19.058 -1.73949e-15 28.408
v  18.222 12.691 24.968
v  5.265 12.691 24.925
v  5.836 12.691 27.632
v  4.07 12.691 19.27
v  3.129 12.691 14.812
v  15.466 12.691 12.171
v  4.07 -1.17995e-15 19.27
v  5.265 -1.52622e-15 24.925

# 0 UV coordinates

# 229 vertex normals
vn 0.0436134 0.978054 0.203735
vn 0.0436149 0.978053 0.20374
vn -0.977562 0 0.21065
vn -0.977562 0 0.21065
vn 0.209327 -0 0.977846
vn 0.977534 0 -0.210776
vn -0.209329 0 -0.977845
vn 4.34967e-24 -1 -6.12323e-17
vn 4.34951e-24 -1 -6.12323e-17
vn 0 1 0
vn -0.00981195 0.999936 -0.00564757
vn -7.39286e-06 1 -3.45012e-05
vn -0.00501409 0.999983 -0.00289151
vn 7.72586e-05 1 -1.64516e-05
vn 7.69094e-05 1 -1.66292e-05
vn -0.00644135 0.999974 -0.0033033
vn -0.000130225 1 -0.000606946
vn -0.000130312 1 -0.000606712
vn -0.000130326 1 -0.000606681
vn -0.000130406 1 -0.00060665
vn 0.0132061 0.999909 -0.00283686
vn -0.928249 0.315093 0.197663
vn -0.108237 -0.99385 0.0234021
vn -0.978017 0 0.208524
vn -0.978017 0 0.208524
vn 0 -1 -6.12273e-17
vn -4.88669e-20 1 6.12424e-17
vn -0.978411 -1.26547e-17 0.206667
vn -0.978404 -2.28703e-05 0.2067
vn -0.978411 3.08494e-05 0.206667
vn -0.978404 0 0.2067
vn -0.977586 0 0.210536
vn -0.977802 0 0.209529
vn -0.72014 0 0.693829
vn -0.72014 0 0.693829
vn 0.209783 -0 0.977748
vn 0.209329 -0 0.977845
vn 0.209522 0.000745297 0.977804
vn 0.209529 0 0.977802
vn 1.31219e-17 -1 0
vn 0.939363 -0 0.342925
vn 0.939363 0 0.342925
vn 0.977723 0 -0.209899
vn 0.977696 -4.35004e-05 -0.210027
vn 0.977723 0.000179845 -0.209899
vn 0.977696 0 -0.210027
vn 0.977688 0 -0.210061
vn 0.977696 0 -0.210025
vn -0.21016 0 -0.977667
vn -0.210026 -0 -0.977696
vn -0.209994 -0 -0.977703
vn -0.210019 -0 -0.977697
vn -0.210078 -0 -0.977685
vn -0.210078 5.98659e-17 -0.977685
vn -7.74585e-22 -1 -6.12317e-17
vn 7.0687e-22 -1 -6.12325e-17
vn -1.93061e-24 -1 -6.12323e-17
vn 0 -1 -6.12323e-17
vn -7.59102e-24 -1 -6.12324e-17
vn 7.13716e-23 -1 -6.12323e-17
vn -1.99291e-24 -1 -6.12323e-17
vn 3.92867e-24 -1 -6.12323e-17
vn 0 -1 -6.12323e-17
vn -2.42944e-24 -1 -6.12323e-17
vn -1.28013e-23 -1 -6.12323e-17
vn 5.72583e-23 -1 -6.12324e-17
vn -1.84789e-23 -1 -6.12323e-17
vn -6.88839e-24 -1 -6.12323e-17
vn -1.39309e-23 -1 -6.12323e-17
vn 0.0403256 0.981269 0.188374
vn 0.0403186 0.981274 0.18835
vn -0.977565 0 0.210632
vn 0.209329 -0 0.977845
vn 0.977559 0 -0.210661
vn -0.20932 0 -0.977847
vn -4.57641e-24 -1 -6.12324e-17
vn -0.978856 0 0.204551
vn -0.979211 0 0.202843
vn -0.97898 0 0.203954
vn -0.977848 0 0.209314
vn 0.204996 -0 0.978763
vn 0.209321 -0 0.977847
vn -0.205169 0 -0.978727
vn -0.205799 0 -0.978594
vn -0.203954 0 -0.97898
vn -0.204774 0 -0.978809
vn 0.978437 0 -0.206546
vn 0.97881 0 -0.204772
vn 0.978903 0 -0.204323
vn 0.97852 -0.000163666 -0.206153
vn 0.978545 0 -0.206031
vn 1.12808e-19 1 6.11986e-17
vn 8.95217e-24 -1 -6.12323e-17
vn 2.93327e-23 -1 -6.12324e-17
vn 3.49101e-24 -1 -6.12323e-17
vn -3.24552e-23 -1 -6.12324e-17
vn -1.5923e-23 -1 -6.12323e-17
vn -1.36883e-22 -1 -6.12321e-17
vn 3.81863e-24 -1 -6.12324e-17
vn 1.30918e-24 -1 -6.12323e-17
vn -2.99914e-23 -1 -6.12323e-17
vn 0.0415108 0.980139 0.19392
vn 0.0415108 0.980139 0.19392
vn -0.97754 0 0.210749
vn -0.97754 0 0.210749
vn 0.20932 -0 0.977847
vn 0.97754 0 -0.21075
vn 0.97754 0 -0.21075
vn 0 -1 -6.12323e-17
vn 0.978156 0 -0.207871
vn 0.978074 -8.67704e-05 -0.208259
vn 0.978099 -3.59506e-05 -0.208139
vn 0.978106 0 -0.208107
vn 0 1 6.12255e-17
vn -1.26377e-19 -1 -6.11981e-17
vn 0.981224 0 -0.192874
vn 0.977922 0 -0.20897
vn 0.977918 0 -0.208991
vn -0.209326 0 -0.977846
vn -0.209321 0 -0.977847
vn -0.210106 0 -0.977679
vn -0.203959 0 -0.978979
vn 0.205279 -0 0.978704
vn 0.209358 -0 0.977839
vn -0.977885 0 0.209143
vn -0.977655 -4.01664e-05 0.210213
vn -0.97785 0 0.209306
vn 2.99373e-20 1 6.12254e-17
vn -0.977696 0 0.210027
vn -0.977723 0.000118073 0.209899
vn -0.977696 -2.85642e-05 0.210027
vn -0.977723 0 0.209899
vn 1.30539e-22 -1 -6.12323e-17
vn 1.11278e-23 -1 -6.12323e-17
vn -2.29377e-23 -1 -6.12324e-17
vn -2.90684e-24 -1 -6.12324e-17
vn 0 -1 -6.12323e-17
vn -2.05138e-22 -1 -6.1232e-17
vn 0.0318256 0.988426 0.148326
vn 0.0318328 0.988424 0.148337
vn 0.0318057 0.988477 0.147991
vn 0.0318285 0.98843 0.148299
vn 0.0317856 0.988907 0.145099
vn 0.0319214 0.986873 0.158314
vn 0.0318346 0.988463 0.14808
vn 0.0318378 0.988459 0.148107
vn 0.0318299 0.988427 0.148323
vn 0.210583 0 0.977576
vn 0.210583 0 0.977576
vn 0.198473 -0 0.980106
vn 0.198473 0 0.980106
vn 0.197655 0 0.980272
vn 0.212555 0 0.977149
vn 0.212555 0 0.977149
vn 0.212702 0 0.977117
vn 0.212702 0 0.977117
vn -0.977453 0 0.211154
vn -0.977453 0 0.211154
vn -0.977553 0 0.210692
vn 0.982221 0 -0.187728
vn 0.982221 0 -0.187728
vn 0.983206 0 -0.182501
vn 0.983206 0 -0.182501
vn 0.977539 0 -0.210754
vn 0.977539 0 -0.210754
vn -0.209327 0 -0.977846
vn -0.209327 0 -0.977846
vn -3.41351e-24 -1 -6.12323e-17
vn 1.70419e-23 -1 -6.12323e-17
vn 5.89137e-24 -1 -6.12323e-17
vn -1.6213e-23 -1 -6.12324e-17
vn -1.67135e-22 -1 -6.12331e-17
vn -3.87463e-24 -1 -6.12328e-17
vn -7.54898e-24 -1 -6.12323e-17
vn -2.6528e-23 -1 -6.12324e-17
vn 1.30142e-23 -1 -6.12323e-17
vn -0.977688 0 0.210061
vn -0.977696 0 0.210025
vn 0.203959 -0 0.978979
vn 0.977863 0 -0.209247
vn 0.977861 0 -0.209255
vn -0.207509 0 -0.978233
vn 3.73589e-22 -1 -6.12325e-17
vn 0.0454781 0.976114 0.212446
vn 0.0454781 0.976114 0.212446
vn -0.977565 0 0.210632
vn 0.209327 -0 0.977846
vn 0.977566 0 -0.210631
vn 0.977566 0 -0.210631
vn -0.977993 0 0.208639
vn 0.21447 -0 0.97673
vn 0.214366 2.07962e-05 0.976753
vn 0.214372 0 0.976752
vn -1.70979e-19 -1 -6.22363e-17
vn 0.977802 0 -0.209529
vn -0.210273 0 -0.977643
vn 2.72443e-23 -1 -6.12321e-17
vn 0.0420411 0.980198 0.193506
vn 0.0412995 0.980074 0.194291
vn 0.0415924 0.98006 0.194301
vn 0.0415792 0.980077 0.194216
vn 0.0415785 0.98007 0.194251
vn 0.041584 0.980078 0.194211
vn 0.0416 0.98006 0.1943
vn 0.977536 0 -0.210767
vn 0.978117 0.00203225 -0.208048
vn 0.97758 0 -0.210566
vn 1.72707e-20 -1 -6.12364e-17
vn -0.209358 0 -0.977839
vn -0.209783 0 -0.977748
vn -0.939363 0 -0.342925
vn -0.939363 -0 -0.342925
vn -0.978036 0 0.208435
vn -0.977561 -6.95786e-05 0.210652
vn -0.977577 0 0.210578
vn -3.90237e-20 1 6.12379e-17
vn 0.72014 0 -0.693829
vn 0.72014 0 -0.693829
vn 0.20932 -0 0.977847
vn -5.69786e-23 -1 -6.12323e-17
vn -0.97844 0 0.20653
vn -0.978393 -8.11603e-05 0.206752
vn -0.978469 0.00021731 0.206393
vn -0.978426 0 0.206599
vn 2.02411e-19 1 6.1204e-17
vn -3.61342e-20 -1 -6.12249e-17
vn 0.210273 -0 0.977643
vn 0.977586 0 -0.210536
vn -0.209329 0 -0.977845

# Mesh 'defaultobject' with 371 faces
g defaultobject
usemtl DefaultMaterial
f  1//1 2//1 3//1
f  2//1 1//1 4//2
f  5//3 2//3 4//3
f  2//3 5//3 6//4
f  6//5 3//5 2//5
f  3//5 6//5 7//5
f  3//6 8//6 1//6
f  8//6 3//6 7//6
f  8//7 4//7 1//7
f  4//7 8//7 5//7
f  8//8 6//8 5//8
f  6//8 8//8 7//9
f  9//10 10//10 11//10
f  10//10 9//10 12//10
f  10//10 12//10 13//10
f  10//10 13//10 14//10
f  14//10 13//10 15//10
f  14//11 15//11 16//11
f  14//12 16//12 17//12
f  14//13 17//13 18//13
f  14//14 18//14 19//14
f  14//14 19//14 20//15
f  14//16 20//16 21//16
f  14//17 21//17 22//17
f  14//17 22//17 23//18
f  23//18 22//17 24//19
f  24//19 22//17 25//20
f  25//21 22//21 26//21
f  25//10 26//10 27//10
f  27//10 26//10 28//10
f  28//10 26//10 29//10
f  17//22 19//22 18//22
f  19//23 17//23 20//23
f  20//24 17//24 30//24
f  30//24 17//24 31//25
f  30//26 31//26 32//26
f  30//27 32//27 33//27
f  34//28 9//28 11//28
f  9//29 34//29 12//29
f  12//30 34//30 35//30
f  12//31 35//31 36//31
f  37//32 15//32 13//32
f  15//32 37//32 38//32
f  15//33 38//33 39//33
f  39//33 38//33 40//33
f  20//34 41//34 21//34
f  41//34 20//34 30//35
f  41//36 22//36 21//36
f  22//36 41//36 42//36
f  36//37 13//37 12//37
f  13//37 36//37 37//37
f  39//38 17//38 16//38
f  17//39 39//39 31//39
f  31//39 39//39 40//39
f  31//26 40//40 43//40
f  42//41 26//41 22//41
f  26//41 42//41 44//42
f  44//43 29//43 26//43
f  29//44 44//44 28//44
f  28//45 44//45 45//45
f  28//46 45//46 46//46
f  28//47 46//47 27//47
f  27//47 46//47 47//47
f  27//48 47//48 25//48
f  25//48 47//48 48//48
f  48//49 24//49 25//49
f  24//49 48//49 49//49
f  24//50 49//50 23//50
f  23//50 49//50 50//50
f  23//51 50//51 14//51
f  14//51 50//51 51//51
f  14//52 51//52 10//52
f  10//52 51//52 52//52
f  10//53 52//53 11//53
f  11//53 52//53 34//54
f  38//55 43//40 40//40
f  43//40 38//55 31//26
f  31//26 38//55 37//56
f  35//57 37//56 36//57
f  37//56 35//57 34//58
f  30//26 42//59 41//59
f  42//59 30//26 33//60
f  42//59 33//60 32//26
f  42//59 32//26 31//26
f  42//59 31//26 37//56
f  42//59 37//56 34//58
f  42//59 34//58 52//61
f  42//59 52//61 51//62
f  42//59 51//62 50//63
f  42//59 50//63 49//64
f  42//59 49//64 44//65
f  44//65 49//64 45//66
f  45//66 49//64 46//67
f  46//67 49//64 47//68
f  47//68 49//64 48//69
f  53//70 54//70 55//70
f  54//71 53//71 56//71
f  57//72 54//72 56//72
f  54//72 57//72 5//72
f  5//73 55//73 54//73
f  55//73 5//73 8//73
f  55//74 58//74 53//74
f  58//74 55//74 8//74
f  58//75 56//75 53//75
f  56//75 58//75 57//75
f  58//76 5//8 57//76
f  5//8 58//76 8//8
f  59//10 60//10 61//10
f  60//10 59//10 62//10
f  62//10 59//10 63//10
f  63//10 59//10 64//10
f  64//10 59//10 65//10
f  65//10 59//10 66//10
f  67//10 64//10 65//10
f  63//10 68//10 69//10
f  68//10 63//10 70//10
f  70//10 63//10 71//10
f  71//10 63//10 64//10
f  71//10 64//10 72//10
f  73//77 68//77 70//77
f  68//77 73//77 74//77
f  68//78 74//78 69//78
f  69//78 74//78 75//78
f  76//79 62//79 63//79
f  62//79 76//79 77//79
f  78//80 61//80 60//80
f  61//80 78//80 79//80
f  75//81 63//81 69//81
f  63//81 75//81 76//81
f  79//82 59//82 61//82
f  59//82 79//82 80//82
f  77//83 60//83 62//83
f  60//83 77//83 78//83
f  81//84 65//84 66//84
f  65//84 81//84 82//84
f  83//85 64//85 67//85
f  64//85 83//85 84//85
f  85//86 70//86 71//86
f  70//86 85//86 73//86
f  80//87 66//87 59//87
f  66//87 80//87 81//87
f  82//88 67//88 65//88
f  67//88 82//88 83//88
f  84//89 72//89 64//89
f  72//90 84//90 71//90
f  71//91 84//91 85//91
f  85//92 84//92 86//92
f  76//93 82//93 77//93
f  82//93 76//93 84//94
f  82//93 84//94 83//95
f  74//96 76//93 75//96
f  76//93 74//96 73//97
f  76//93 73//97 84//94
f  84//94 73//97 86//98
f  86//98 73//97 85//99
f  78//100 80//100 79//100
f  80//100 78//100 82//93
f  80//100 82//93 81//101
f  82//93 78//100 77//93
f  87//102 88//102 89//102
f  88//102 87//102 90//103
f  91//104 88//104 90//104
f  88//104 91//104 57//105
f  57//106 89//106 88//106
f  89//106 57//106 58//106
f  89//107 92//107 87//107
f  92//107 89//107 58//108
f  92//75 90//75 87//75
f  90//75 92//75 91//75
f  92//109 57//76 91//109
f  57//76 92//109 58//76
f  93//10 94//10 95//10
f  94//10 93//10 96//10
f  96//10 93//10 97//10
f  98//10 99//10 100//10
f  99//10 98//10 101//10
f  99//10 101//10 102//10
f  102//10 101//10 103//10
f  103//10 101//10 104//10
f  105//10 100//10 106//10
f  100//10 105//10 107//10
f  100//10 107//10 97//10
f  100//10 97//10 93//10
f  100//10 93//10 98//10
f  106//10 100//10 108//10
f  109//110 104//110 101//110
f  104//111 109//111 103//111
f  103//112 109//112 102//112
f  102//113 109//113 110//113
f  110//114 109//114 111//114
f  110//115 111//115 112//115
f  113//116 100//116 99//116
f  100//116 113//116 114//116
f  115//117 106//117 108//117
f  106//117 115//117 80//117
f  116//118 94//118 96//118
f  94//118 116//118 117//118
f  110//119 99//119 102//119
f  99//119 110//119 113//119
f  80//120 105//120 106//120
f  105//120 80//120 79//120
f  118//121 96//121 97//121
f  96//121 118//121 116//121
f  117//122 95//122 94//122
f  95//122 117//122 46//122
f  114//123 108//123 100//123
f  108//123 114//123 115//123
f  44//124 101//124 98//124
f  101//124 44//124 109//124
f  79//125 107//125 105//125
f  107//126 79//126 97//126
f  97//127 79//80 118//127
f  118//128 79//128 119//128
f  46//129 93//129 95//129
f  93//130 46//130 98//130
f  98//131 46//131 45//131
f  98//132 45//132 44//132
f  117//133 116//133 46//67
f  79//100 114//134 113//134
f  114//134 79//100 80//100
f  114//134 80//100 115//135
f  45//66 109//136 44//65
f  109//136 45//66 116//133
f  116//133 45//66 46//67
f  109//136 116//133 118//137
f  109//136 118//137 119//138
f  109//136 119//138 79//100
f  109//136 79//100 113//134
f  109//136 113//134 110//115
f  109//136 110//115 112//115
f  109//136 112//115 111//115
f  120//139 121//139 122//139
f  121//140 120//140 123//140
f  121//141 123//141 124//141
f  124//142 123//142 125//142
f  125//143 123//143 126//143
f  126//144 123//144 127//144
f  127//145 123//145 128//145
f  127//146 128//146 129//146
f  128//147 123//147 130//147
f  130//148 131//148 128//148
f  131//148 130//148 132//149
f  133//150 127//150 129//150
f  127//150 133//150 134//151
f  127//152 134//152 126//152
f  126//152 134//152 135//152
f  125//153 136//153 124//153
f  136//153 125//153 137//154
f  121//155 138//155 122//155
f  138//155 121//155 139//156
f  131//157 129//157 128//157
f  129//157 131//157 133//158
f  140//159 130//159 123//159
f  130//159 140//159 132//159
f  126//160 137//160 125//160
f  137//160 126//160 135//161
f  124//162 139//162 121//162
f  139//162 124//162 136//163
f  122//164 141//164 120//164
f  141//164 122//164 138//165
f  120//166 140//166 123//166
f  140//166 120//166 141//167
f  141//168 132//168 140//168
f  132//168 141//168 131//169
f  131//169 141//168 133//170
f  133//170 141//168 137//171
f  133//170 137//171 134//172
f  134//172 137//171 135//173
f  137//171 141//168 139//174
f  137//171 139//174 136//175
f  139//174 141//168 138//176
f  142//10 143//10 144//10
f  143//10 142//10 145//10
f  143//10 145//10 146//10
f  146//10 145//10 147//10
f  145//177 46//177 147//177
f  46//177 145//177 47//177
f  47//178 145//178 142//178
f  47//178 142//178 48//178
f  46//179 146//179 147//179
f  146//179 46//179 117//179
f  117//180 143//180 146//180
f  143//180 117//180 148//180
f  143//180 148//180 144//181
f  144//181 148//180 149//181
f  149//182 142//182 144//182
f  142//182 149//182 48//182
f  47//68 117//133 46//67
f  117//133 47//68 148//183
f  148//183 47//68 48//69
f  148//183 48//69 149//109
f  150//184 151//184 152//184
f  151//184 150//184 153//185
f  6//186 151//186 153//186
f  151//186 6//186 140//186
f  140//187 152//187 151//187
f  152//187 140//187 141//187
f  152//188 7//188 150//188
f  7//188 152//188 141//189
f  7//167 153//167 150//167
f  153//167 7//167 6//167
f  7//9 140//168 6//8
f  140//168 7//9 141//168
f  154//10 155//10 156//10
f  155//10 154//10 157//10
f  155//10 157//10 158//10
f  159//190 158//190 157//190
f  158//190 159//190 160//190
f  160//191 155//191 158//191
f  155//192 160//192 156//192
f  156//193 160//193 40//193
f  40//40 160//194 161//194
f  40//195 154//195 156//195
f  154//195 40//195 38//195
f  38//196 157//196 154//196
f  157//196 38//196 159//196
f  38//55 160//194 159//197
f  160//194 38//55 161//194
f  161//194 38//55 40//40
f  162//198 163//198 164//198
f  163//199 162//199 165//199
f  163//200 165//200 166//200
f  163//201 166//201 167//201
f  167//202 166//202 168//202
f  168//203 166//201 169//203
f  168//204 169//204 170//204
f  92//205 169//205 166//205
f  169//206 92//206 170//206
f  170//207 92//207 109//207
f  109//136 92//109 171//208
f  109//209 168//209 170//209
f  168//209 109//209 44//209
f  42//210 163//210 167//210
f  163//210 42//210 41//210
f  44//211 167//211 168//211
f  167//211 44//211 42//212
f  30//213 162//213 164//213
f  162//214 30//214 165//214
f  165//215 30//215 91//215
f  91//216 30//27 172//216
f  163//217 30//217 164//217
f  30//217 163//217 41//218
f  91//219 166//219 165//219
f  166//219 91//219 92//219
f  91//109 41//59 92//109
f  41//59 91//109 172//220
f  41//59 172//220 30//26
f  92//109 41//59 42//59
f  92//109 42//59 44//65
f  92//109 44//65 171//208
f  171//208 44//65 109//136
f  173//10 174//10 175//10
f  174//10 173//10 176//10
f  176//10 173//10 177//10
f  177//10 173//10 178//10
f  36//221 176//221 177//221
f  176//222 36//222 174//222
f  174//223 36//223 175//223
f  175//224 36//224 159//224
f  159//225 36//225 179//225
f  159//197 179//226 180//226
f  159//227 173//227 175//227
f  173//227 159//227 38//227
f  38//228 178//228 173//228
f  178//228 38//228 37//228
f  37//229 177//229 178//229
f  177//229 37//229 36//229
f  180//226 38//55 159//197
f  38//55 180//226 179//226
f  38//55 179//226 36//57
f  38//55 36//57 37//56

