# {"id":"ID_10208","idOriginal":"ID_10208","origin":[14.301164946322048,48.330344321789944],"elevation":260.132,"wof":[{"Id":101748071,"Name":"Linz","Placetype":"locality","Offset":-1},{"Id":102049853,"Name":"Linz","Placetype":"county","Offset":-1},{"Id":85681677,"Name":"Oberösterreich","Placetype":"region","Offset":-1},{"Id":85898425,"Name":"Harbach","Placetype":"neighbourhood","Offset":-1},{"Id":85632785,"Name":"Austria","Placetype":"country","Offset":-1}]}

# Attribution: City of Linz <http://geo.data.linz.gv.at/katalog/geodata/3d_geo_daten_lod2/>
# Longitude: 14.301164946322048
# Latitude: 48.330344321789944
# Elevation: 260.132

# File produced by Open Asset Import Library (http://www.assimp.sf.net)
# (assimp v3.1.0)


# 8 vertex positions
v  9.883 9.606 -0.284
v  0.68 10.479 24.059
v  10.576 9.606 23.787
v  0 10.478 6.41592e-16
v  10.576 -1.45653e-15 23.787
v  9.883 1.739e-17 -0.284
v  0 0 0
v  0.68 -1.47319e-15 24.059

# 0 UV coordinates

# 10 vertex normals
vn 0.087807 0.996134 -0.00252795
vn 0.0878186 0.996133 -0.00252351
vn 0.999586 0 -0.0287779
vn -0.0287244 0 -0.999587
vn -0.999601 0 0.0282526
vn -0.999601 0 0.0282526
vn 0.0274754 -0 0.999623
vn 0.0274754 0 0.999622
vn 5.21856e-24 -1 -6.12323e-17
vn -2.22465e-25 -1 -6.12323e-17

# Mesh 'defaultobject' with 12 faces
g defaultobject
usemtl DefaultMaterial
f  1//1 2//1 3//1
f  2//2 1//2 4//2
f  5//3 1//3 3//3
f  1//3 5//3 6//3
f  1//4 7//4 4//4
f  7//4 1//4 6//4
f  4//5 8//5 2//5
f  8//5 4//5 7//6
f  8//7 3//7 2//7
f  3//7 8//7 5//8
f  8//9 6//9 5//9
f  6//9 8//9 7//10

