# {"id":"ID_39588","idOriginal":"ID_39588","origin":[14.310269781792094,48.24476662305405],"elevation":258.422}
# Longitude: 14.310269781792094
# Latitude: 48.24476662305405
# Elevation: 258.422

# File produced by Open Asset Import Library (http://www.assimp.sf.net)
# (assimp v3.1.0)

mtllib ID_39588.obj.mtl

# 12 vertex positions
v  1.233 3.754 2.287
v  7.68 2.403 1.763
v  6.448 3.754 -0.524
v  2.465 2.403 4.574
v  5.215 2.403 -2.811
v  0 2.403 1.47141e-16
v  5.215 1.72124e-16 -2.811
v  6.448 3.20857e-17 -0.524
v  7.68 -1.07953e-16 1.763
v  0 0 0
v  1.233 -1.40038e-16 2.287
v  2.465 -2.80077e-16 4.574

# 0 UV coordinates

# 17 vertex normals
vn 0.218927 0.887191 0.406156
vn -0.218895 0.887226 -0.406097
vn -0.218895 0.887226 -0.406097
vn 0.880224 0 -0.474559
vn 0.880342 -0.00017244 -0.474339
vn 0.880224 0.000366288 -0.474559
vn 0.880385 0 -0.47426
vn -0.474482 0 -0.880265
vn -0.474482 5.39007e-17 -0.880265
vn -0.880224 -2.90583e-17 0.474559
vn -0.880342 0.000172476 0.474339
vn -0.880224 -0.000366364 0.474559
vn -0.880385 0 0.47426
vn 0.474482 -0 0.880265
vn -4.29909e-25 -1 -6.12323e-17
vn 0 -1 -6.12323e-17
vn 0 -1 -6.12323e-17

# Mesh 'defaultobject' with 20 faces
g defaultobject
usemtl DefaultMaterial
f  1//1 2//1 3//1
f  2//1 1//1 4//1
f  5//2 1//2 3//2
f  1//2 5//2 6//3
f  3//4 7//4 5//4
f  7//5 3//5 2//5
f  7//6 2//6 8//6
f  8//7 2//7 9//7
f  7//8 6//8 5//8
f  6//8 7//8 10//9
f  10//10 1//10 6//10
f  1//11 10//11 4//11
f  4//12 10//12 11//12
f  4//13 11//13 12//13
f  12//14 2//14 4//14
f  2//14 12//14 9//14
f  8//15 10//15 7//15
f  10//15 8//15 9//16
f  10//15 9//16 11//17
f  11//17 9//16 12//16

