# {"id":"ID_58619","idOriginal":"ID_58619","origin":[14.327964518981421,48.24826004705513],"elevation":256.611}
# Longitude: 14.327964518981421
# Latitude: 48.24826004705513
# Elevation: 256.611

# File produced by Open Asset Import Library (http://www.assimp.sf.net)
# (assimp v3.1.0)

mtllib ID_58619.obj.mtl

# 10 vertex positions
v  3.581 12.255 0.694
v  3.254 12.255 0.689
v  2.147 12.255 2.073
v  3.277 12.255 -0.027
v  0 12.255 7.50402e-16
v  3.581 -4.24952e-17 0.694
v  3.254 -4.21891e-17 0.689
v  3.277 1.65327e-18 -0.027
v  0 0 0
v  2.147 -1.26935e-16 2.073

# 0 UV coordinates

# 11 vertex normals
vn 0 1 0
vn 0.0152887 0 -0.999883
vn -0.00823896 0 -0.999966
vn -0.00823896 6.12303e-17 -0.999966
vn 0.999484 -0 0.0321063
vn 0.693149 -0 0.720794
vn -0.6946 -4.40503e-17 0.719396
vn -0.6946 0 0.719396
vn -3.78061e-24 -1 -6.12323e-17
vn 2.60947e-23 -1 -6.12323e-17
vn -9.05515e-26 -1 -6.12323e-17

# Mesh 'defaultobject' with 16 faces
g defaultobject
usemtl DefaultMaterial
f  1//1 2//1 3//1
f  4//1 3//1 2//1
f  5//1 3//1 4//1
f  6//2 2//2 1//2
f  2//2 6//2 7//2
f  8//3 5//3 4//3
f  5//3 8//3 9//4
f  7//5 4//5 2//5
f  4//5 7//5 8//5
f  10//6 1//6 3//6
f  1//6 10//6 6//6
f  9//7 3//7 5//7
f  3//7 9//7 10//8
f  6//9 10//9 7//9
f  8//10 7//9 10//9
f  9//11 8//10 10//9

