# {"id":"ID_50985","idOriginal":"ID_50985","origin":[14.267438959017971,48.28950442335735],"elevation":333.186,"wof":[{"Id":102049853,"Name":"Linz","Placetype":"county","Offset":-1},{"Id":85632785,"Name":"Austria","Placetype":"country","Offset":-1},{"Id":101748071,"Name":"Linz","Placetype":"locality","Offset":-1},{"Id":85681677,"Name":"Oberösterreich","Placetype":"region","Offset":-1},{"Id":85898459,"Name":"Wegscheid","Placetype":"neighbourhood","Offset":-1}]}

# Attribution: City of Linz <http://geo.data.linz.gv.at/katalog/geodata/3d_geo_daten_lod2/>
# Longitude: 14.267438959017971
# Latitude: 48.28950442335735
# Elevation: 333.186

# File produced by Open Asset Import Library (http://www.assimp.sf.net)
# (assimp v3.1.0)


# 12 vertex positions
v  1.61 3.374 1.754
v  2.67 3.374 -2.864
v  0 3.374 2.06598e-16
v  5.222 3.374 -2.113
v  4.063 3.374 -3.151
v  3.513 3.374 -3.715
v  5.222 1.29384e-16 -2.113
v  4.063 1.92943e-16 -3.151
v  3.513 2.27478e-16 -3.715
v  2.67 1.75369e-16 -2.864
v  0 0 0
v  1.61 -1.07402e-16 1.754

# 0 UV coordinates

# 13 vertex normals
vn 0 1 0
vn 0.667152 0 -0.744922
vn 0.715936 0 -0.698165
vn -0.710438 0 -0.70376
vn -0.731446 0 -0.6819
vn -0.731446 4.17543e-17 -0.6819
vn -0.736701 -4.14065e-17 0.676219
vn -0.736701 0 0.676219
vn 0.730791 -0 0.682601
vn 0 -1 -6.12323e-17
vn -9.72857e-24 -1 -6.12323e-17
vn 0 -1 -6.12323e-17
vn 0 -1 -6.12323e-17

# Mesh 'defaultobject' with 20 faces
g defaultobject
usemtl DefaultMaterial
f  1//1 2//1 3//1
f  2//1 1//1 4//1
f  2//1 4//1 5//1
f  2//1 5//1 6//1
f  7//2 5//2 4//2
f  5//2 7//2 8//2
f  8//3 6//3 5//3
f  6//3 8//3 9//3
f  9//4 2//4 6//4
f  2//4 9//4 10//4
f  10//5 3//5 2//5
f  3//5 10//5 11//6
f  11//7 1//7 3//7
f  1//7 11//7 12//8
f  12//9 4//9 1//9
f  4//9 12//9 7//9
f  12//10 8//10 7//10
f  8//10 12//10 9//11
f  9//11 12//10 10//12
f  10//12 12//10 11//13

