# {"id":"ID_10132","idOriginal":"ID_10132","origin":[14.291278458409229,48.316894135085974],"elevation":258.79,"wof":[{"Id":101748071,"Name":"Linz","Placetype":"locality","Offset":-1},{"Id":85681677,"Name":"Oberösterreich","Placetype":"region","Offset":-1},{"Id":85898449,"Name":"Steeg","Placetype":"neighbourhood","Offset":-1},{"Id":102049853,"Name":"Linz","Placetype":"county","Offset":-1},{"Id":85632785,"Name":"Austria","Placetype":"country","Offset":-1}]}

# Attribution: City of Linz <http://geo.data.linz.gv.at/katalog/geodata/3d_geo_daten_lod2/>
# Longitude: 14.291278458409229
# Latitude: 48.316894135085974
# Elevation: 258.79

# File produced by Open Asset Import Library (http://www.assimp.sf.net)
# (assimp v3.1.0)


# 14 vertex positions
v  14.905 15.71 -8.744
v  12.888 16.263 8.404
v  21.411 16.263 -4.575
v  6.416 15.71 4.183
v  8.311 16.27 -12.968
v  8.228 16.27 -12.839
v  0 16.258 9.95515e-16
v  8.311 7.94061e-16 -12.968
v  0 0 0
v  8.228 7.86162e-16 -12.839
v  12.888 -5.14597e-16 8.404
v  6.416 -2.56135e-16 4.183
v  21.411 2.80138e-16 -4.575
v  14.905 5.35416e-16 -8.744

# 0 UV coordinates

# 22 vertex normals
vn -0.0596721 0.997449 -0.0391852
vn -0.0596708 0.997449 -0.0391851
vn 0.0596267 0.997452 0.0391561
vn 0.061107 0.997357 0.0393165
vn 0.0596591 0.99745 0.0391655
vn -0.840967 0 -0.541086
vn -0.841943 -1.70165e-05 -0.539567
vn -0.841933 3.30399e-17 -0.539582
vn 0 1 6.13333e-17
vn -0.546144 -5.12938e-17 0.837691
vn -0.546284 8.15835e-05 0.8376
vn -0.546212 0 0.837647
vn -2.21513e-20 -1 -6.11819e-17
vn 0.835885 -0 0.548905
vn 0.539527 0 -0.841968
vn 0.539397 -7.6216e-05 -0.842052
vn 0.539464 0 -0.842009
vn -2.34027e-20 1 6.12682e-17
vn -7.25245e-24 -1 -6.12323e-17
vn -1.43677e-21 -1 -6.12326e-17
vn 6.9946e-24 -1 -6.12323e-17
vn 7.06015e-24 -1 -6.12323e-17

# Mesh 'defaultobject' with 24 faces
g defaultobject
usemtl DefaultMaterial
f  1//1 2//1 3//1
f  2//1 1//1 4//2
f  5//3 4//3 1//3
f  4//4 5//4 6//4
f  4//5 6//5 7//5
f  8//6 6//6 5//6
f  6//7 8//7 7//7
f  7//8 8//8 9//8
f  9//9 8//9 10//9
f  9//10 4//10 7//10
f  4//11 9//11 2//11
f  2//12 9//12 11//12
f  11//13 9//13 12//13
f  11//14 3//14 2//14
f  3//14 11//14 13//14
f  13//15 1//15 3//15
f  1//16 13//16 5//16
f  5//17 13//17 8//17
f  8//9 13//18 14//18
f  10//19 12//13 9//13
f  12//13 10//19 8//20
f  12//13 8//20 14//21
f  12//13 14//21 11//13
f  11//13 14//21 13//22

