# {"id":"ID_42926","idOriginal":"ID_42926","origin":[14.267179900116911,48.28857057856047],"elevation":333.161,"wof":[{"Id":102049853,"Name":"Linz","Placetype":"county","Offset":-1},{"Id":85681677,"Name":"Oberösterreich","Placetype":"region","Offset":-1},{"Id":85632785,"Name":"Austria","Placetype":"country","Offset":-1},{"Id":85898459,"Name":"Wegscheid","Placetype":"neighbourhood","Offset":-1},{"Id":101748071,"Name":"Linz","Placetype":"locality","Offset":-1}]}

# Attribution: City of Linz <http://geo.data.linz.gv.at/katalog/geodata/3d_geo_daten_lod2/>
# Longitude: 14.267179900116911
# Latitude: 48.28857057856047
# Elevation: 333.161

# File produced by Open Asset Import Library (http://www.assimp.sf.net)
# (assimp v3.1.0)


# 12 vertex positions
v  2.12 4.179 -2.345
v  2.751 4.179 -0.448
v  2.728 4.179 -2.5
v  0 4.179 2.5589e-16
v  7.369 4.179 6.86
v  8.895 4.179 5.17
v  2.728 1.53081e-16 -2.5
v  2.12 1.4359e-16 -2.345
v  0 0 0
v  7.369 -4.20054e-16 6.86
v  8.895 -3.16571e-16 5.17
v  2.751 2.74321e-17 -0.448

# 0 UV coordinates

# 13 vertex normals
vn -0 1 0
vn -0.247033 0 -0.969007
vn -0.741798 0 -0.670623
vn -0.741798 4.10638e-17 -0.670623
vn -0.681376 -4.4818e-17 0.731933
vn -0.681376 0 0.731933
vn 0.742201 -0 0.670177
vn 0.67481 0 -0.737991
vn 0.999937 0 -0.0112079
vn 1.50786e-23 -1 -6.12323e-17
vn 0 -1 -6.12323e-17
vn 0 -1 -6.12323e-17
vn 8.37809e-24 -1 -6.12323e-17

# Mesh 'defaultobject' with 20 faces
g defaultobject
usemtl DefaultMaterial
f  1//1 2//1 3//1
f  2//1 1//1 4//1
f  2//1 4//1 5//1
f  5//1 6//1 2//1
f  7//2 1//2 3//2
f  1//2 7//2 8//2
f  8//3 4//3 1//3
f  4//3 8//3 9//4
f  9//5 5//5 4//5
f  5//5 9//5 10//6
f  10//7 6//7 5//7
f  6//7 10//7 11//7
f  11//8 2//8 6//8
f  2//8 11//8 12//8
f  12//9 3//9 2//9
f  3//9 12//9 7//9
f  7//10 9//10 8//10
f  9//10 7//10 12//11
f  9//10 12//11 10//12
f  10//12 12//11 11//13

