# File produced by Open Asset Import Library (http://www.assimp.sf.net)
# (assimp v3.1.0)

mtllib ID_10520.obj.mtl

# 23 vertex positions
v  11.327 16.036 8.321
v  8.594 13.252 16.788
v  19.782 13.258 11.06
v  5.6 16.036 -2.867
v  14.417 13.252 0.549
v  11.201 13.251 -5.734
v  13.737 13.59 0.897
v  13.996 13.59 1.403
v  15.325 13.59 4
v  15.672 13.417 3.822
v  15.993 13.258 3.658
v  0 13.252 8.11451e-16
v  14.417 -3.36166e-17 0.549
v  11.201 3.51106e-16 -5.734
v  19.782 -6.7723e-16 11.06
v  15.993 -2.23988e-16 3.658
v  15.325 -2.44929e-16 4
v  13.737 -5.49254e-17 0.897
v  13.996 -8.5909e-17 1.403
v  0 0 0
v  5.6 1.75553e-16 -2.867
v  15.672 -2.3403e-16 3.822
v  8.594 -1.02797e-15 16.788

# 0 UV coordinates

# 38 vertex normals
vn 0.183863 0.914623 0.360081
vn 0.360228 0.914431 -0.184531
vn 0.360187 0.914477 -0.184386
vn 0.360177 0.914485 -0.18436
vn 0.360182 0.914481 -0.184373
vn 0.360234 0.914466 -0.184348
vn 0.360195 0.914473 -0.184388
vn 0.359244 0.914946 -0.183893
vn 0.360907 0.914097 -0.184856
vn -0.360217 0.914464 0.184391
vn -0.360226 0.914457 0.184404
vn 0.890165 0 -0.455638
vn 0.890165 0 -0.455638
vn 0.890154 0 -0.45566
vn 0.890206 0 -0.455558
vn 0.890165 -1.95904e-05 -0.455639
vn 0.890199 0 -0.455571
vn -4.3744e-20 1 6.12416e-17
vn -0.455649 0 -0.89016
vn -0.455704 -2.42277e-05 -0.890132
vn -0.455681 5.45056e-17 -0.890143
vn 0 1 6.1269e-17
vn -0.456421 0 -0.889764
vn -0.454983 -4.69494e-05 -0.8905
vn -0.455721 0 -0.890123
vn -1.97824e-20 1 6.11959e-17
vn -0.890145 -2.79022e-17 0.455677
vn -0.890145 0 0.455677
vn 0.455722 0 0.890122
vn 0.455572 -0 0.890199
vn 0.455572 0 0.890199
vn 3.39336e-23 -1 -6.12323e-17
vn 1.88832e-20 -1 -6.11941e-17
vn 0 -1 -6.12323e-17
vn 4.92472e-25 -1 -6.12323e-17
vn 1.53453e-25 -1 -6.12323e-17
vn 0 -1 -6.12323e-17
vn 0 -1 -6.1232e-17

# Mesh 'defaultobject' with 42 faces
g defaultobject
usemtl DefaultMaterial
f  1//1 2//1 3//1
f  4//2 5//2 6//2
f  5//3 4//3 7//3
f  7//4 4//4 8//4
f  8//5 4//5 1//5
f  8//6 1//6 9//6
f  9//7 1//7 3//7
f  10//8 3//8 11//8
f  3//9 10//9 9//9
f  12//10 1//10 4//10
f  1//11 12//11 2//11
f  13//12 6//12 5//12
f  6//12 13//12 14//13
f  15//14 11//14 3//14
f  11//14 15//14 16//14
f  17//15 8//15 9//15
f  8//16 17//16 7//16
f  7//17 17//17 18//17
f  18//18 17//18 19//18
f  14//19 4//19 6//19
f  4//20 14//20 12//20
f  12//21 14//21 20//21
f  20//22 14//22 21//22
f  10//23 17//23 9//23
f  17//24 10//24 11//24
f  17//25 11//25 16//25
f  17//18 16//26 22//26
f  20//27 2//27 12//27
f  2//27 20//27 23//28
f  2//29 15//29 3//29
f  15//29 2//29 23//29
f  18//30 5//30 7//30
f  5//30 18//30 13//31
f  15//32 17//32 16//32
f  22//33 16//32 17//32
f  23//34 20//34 15//32
f  17//32 15//32 20//34
f  19//34 17//32 20//34
f  18//35 19//34 20//34
f  13//36 18//35 20//34
f  14//37 13//36 20//34
f  21//38 14//37 20//34

