# File produced by Open Asset Import Library (http://www.assimp.sf.net)
# (assimp v3.1.0)

mtllib ID_14110.obj.mtl

# 28 vertex positions
v  19.153 4.319 8.904
v  7.851 3.818 10.104
v  19.184 3.817 9.575
v  18.936 7.511 4.634
v  0.257 7.511 5.506
v  4.473 3.806 10.277
v  4.499 3.396 10.826
v  0.488 3.806 10.463
v  0.449 4.427 9.632
v  0.442 4.537 9.485
v  7.877 3.396 10.668
v  0 3.395 2.07884e-16
v  18.688 3.867 -0.24
v  18.658 3.396 -0.87
v  0.488 -6.40674e-16 10.463
v  4.473 -6.29285e-16 10.277
v  4.499 -6.62901e-16 10.826
v  7.877 -6.53227e-16 10.668
v  7.851 -6.18692e-16 10.104
v  19.184 -5.863e-16 9.575
v  0 0 0
v  0.257 -3.37145e-16 5.506
v  0.442 -5.80789e-16 9.485
v  0.449 -5.8979e-16 9.632
v  19.153 -5.45213e-16 8.904
v  18.936 -2.83751e-16 4.634
v  18.688 1.46958e-17 -0.24
v  18.658 5.32721e-17 -0.87

# 0 UV coordinates

# 48 vertex normals
vn 0.0279832 0.801021 0.597982
vn 0.0279292 0.801312 0.597594
vn 0.0278957 0.801347 0.59755
vn 0.0277635 0.801248 0.597688
vn 0.0277421 0.801545 0.59729
vn 0.0278936 0.801299 0.597613
vn -0.309774 0.754611 0.578448
vn 0.535209 0.688357 0.489608
vn 0.0279718 0.800986 0.59803
vn -0.0279126 0.801239 -0.597693
vn -0.0279129 0.801275 -0.597645
vn -0.0279015 0.801254 -0.597674
vn 0.0466242 -0 0.998913
vn 0.0467222 -0 0.998908
vn 0.0466271 -0 0.998912
vn 0.0466271 0 0.998912
vn -0.99888 0 0.0473059
vn -0.99888 0 0.0473059
vn -0.998912 -2.85499e-18 0.0466256
vn -0.998912 0 0.0466256
vn -0.998921 0 0.0464439
vn -0.998921 0 0.0464439
vn -0.998868 0 0.047565
vn -0.9989 2.2253e-05 0.0468964
vn -0.998868 -0.000149951 0.047565
vn -0.998901 0 0.0468798
vn 0.998939 0 -0.0460504
vn 0.998939 0 -0.0460504
vn 0.998934 0 -0.0461507
vn 0.99868 -0.000810917 -0.0513586
vn 0.998719 -0.000304029 -0.05059
vn 0.998874 0.0109904 -0.0461479
vn 0.998711 7.93267e-05 -0.050754
vn 0.998708 0 -0.0508167
vn 0.998868 0 -0.0475632
vn 0.998868 0 -0.0475632
vn -0.0465782 0 -0.998915
vn -0.0465782 6.11659e-17 -0.998915
vn -3.4659e-24 -1 -6.12324e-17
vn -8.68336e-25 -1 -6.12323e-17
vn -5.45544e-25 -1 -6.12323e-17
vn -3.8234e-24 -1 -6.12323e-17
vn -3.70849e-24 -1 -6.12323e-17
vn 0 -1 -6.12323e-17
vn -1.19336e-23 -1 -6.12323e-17
vn 9.631e-24 -1 -6.12323e-17
vn 2.3323e-19 -1 -6.12472e-17
vn -3.21862e-19 -1 -6.12242e-17

# Mesh 'defaultobject' with 52 faces
g defaultobject
usemtl DefaultMaterial
f  1//1 2//1 3//1
f  2//2 1//2 4//2
f  2//3 4//3 5//3
f  2//4 5//4 6//4
f  2//5 6//5 7//5
f  6//6 5//6 8//6
f  8//7 5//7 9//7
f  9//8 5//8 10//8
f  7//9 11//9 2//9
f  12//10 13//10 14//10
f  13//11 12//11 4//11
f  4//12 12//12 5//12
f  15//13 6//13 8//13
f  6//13 15//13 16//13
f  17//14 11//14 7//14
f  11//14 17//14 18//14
f  19//15 3//15 2//15
f  3//15 19//15 20//16
f  16//17 7//17 6//17
f  7//17 16//17 17//18
f  21//19 5//19 12//19
f  5//19 21//19 22//20
f  5//21 22//21 10//21
f  10//21 22//21 23//22
f  10//23 23//23 9//23
f  9//24 23//24 8//24
f  8//25 23//25 24//25
f  8//26 24//26 15//26
f  11//27 19//27 2//27
f  19//27 11//27 18//28
f  20//29 1//29 3//29
f  1//30 20//30 4//30
f  4//31 20//31 13//31
f  13//32 20//32 25//32
f  13//33 25//33 26//33
f  13//34 26//34 27//34
f  13//35 27//35 14//35
f  14//35 27//35 28//36
f  28//37 12//37 14//37
f  12//37 28//37 21//38
f  17//39 19//39 18//39
f  19//39 25//40 20//40
f  25//40 19//39 26//41
f  26//41 19//39 27//42
f  27//42 19//39 28//43
f  28//43 19//39 21//44
f  21//44 19//39 16//45
f  16//45 19//39 17//39
f  21//44 16//45 22//46
f  22//46 16//45 15//44
f  22//46 15//44 24//47
f  22//46 24//47 23//48

