# File produced by Open Asset Import Library (http://www.assimp.sf.net)
# (assimp v3.1.0)

mtllib ID_24092.obj.mtl

# 22 vertex positions
v  9.924 5.82 -2.71
v  14.756 5.127 5.512
v  17.035 5.129 0.594
v  14.286 5.127 6.526
v  12.046 5.344 5.512
v  9.426 5.597 4.326
v  7.121 5.82 3.283
v  0 5.129 3.14061e-16
v  3.028 5.15 -5.914
v  2.813 5.129 -6.014
v  0.243 5.155 0.169
v  2.813 3.68251e-16 -6.014
v  0 0 0
v  0.243 -1.03483e-17 0.169
v  7.121 -2.01026e-16 3.283
v  9.426 -2.64891e-16 4.326
v  12.046 -3.37513e-16 5.512
v  14.286 -3.99602e-16 6.526
v  17.035 -3.6372e-17 0.594
v  14.756 -3.37513e-16 5.512
v  9.924 1.6594e-16 -2.71
v  3.028 3.62128e-16 -5.914

# 0 UV coordinates

# 37 vertex normals
vn 0.0794941 0.996139 0.0372427
vn 0.0798694 0.996118 0.0370203
vn 0.0797064 0.996128 0.0370981
vn 0.079359 0.996152 0.0371891
vn 0.0795391 0.996137 0.0372014
vn -0.0799087 0.996101 -0.0373766
vn -0.0795115 0.996141 -0.0371732
vn -0.0795163 0.99614 -0.0371907
vn -0.0771521 0.996121 -0.0423155
vn -0.90581 0 -0.423685
vn -0.90581 2.59432e-17 -0.423685
vn -0.570966 0 0.820974
vn -0.570965 0 0.820974
vn -0.412445 0 0.910982
vn -0.412445 0 0.910982
vn -0.412254 0 0.911069
vn -0.412383 6.38758e-05 0.911011
vn -0.412254 -7.90714e-05 0.911069
vn -0.412388 0 0.911008
vn -0.412393 0 0.911006
vn 0.907278 -0 0.420532
vn 0.907316 -1.9811e-05 0.42045
vn 0.907309 0 0.420464
vn 0 1 6.11775e-17
vn 0.42137 0 -0.906889
vn 0.421359 0 -0.906894
vn 0.421359 0 -0.906894
vn 0.42173 0 -0.906721
vn 0.42173 0 -0.906721
vn 0 -1 -6.12323e-17
vn -0 -1 -6.12323e-17
vn -5.63123e-24 -1 -6.12323e-17
vn -2.04881e-24 -1 -6.12323e-17
vn 0 -1 -6.12323e-17
vn -1.04065e-24 -1 -6.12323e-17
vn 1.08659e-22 -1 -6.12323e-17
vn 2.1017e-24 -1 -6.12323e-17

# Mesh 'defaultobject' with 40 faces
g defaultobject
usemtl DefaultMaterial
f  1//1 2//1 3//1
f  2//2 1//2 4//2
f  4//3 1//3 5//3
f  5//4 1//4 6//4
f  6//5 1//5 7//5
f  8//6 9//6 10//6
f  9//7 8//7 1//7
f  1//8 8//8 7//8
f  7//9 8//9 11//9
f  12//10 8//10 10//10
f  8//10 12//10 13//11
f  8//12 14//12 11//12
f  14//12 8//12 13//13
f  14//14 7//14 11//14
f  7//14 14//14 15//15
f  7//16 15//16 6//16
f  6//17 15//17 5//17
f  5//18 15//18 16//18
f  5//19 16//19 17//19
f  5//19 17//19 4//20
f  4//20 17//19 18//20
f  18//21 2//21 4//21
f  2//22 18//22 3//22
f  3//23 18//23 19//23
f  19//24 18//24 20//24
f  19//25 1//25 3//25
f  1//25 19//25 21//25
f  1//26 21//26 9//26
f  9//26 21//26 22//27
f  9//28 22//28 10//28
f  10//28 22//28 12//29
f  17//30 20//30 18//30
f  20//30 17//30 19//31
f  19//31 17//30 16//32
f  19//31 16//32 21//33
f  21//33 16//32 15//31
f  21//33 15//31 14//34
f  21//33 14//34 22//35
f  22//35 14//34 13//36
f  22//35 13//36 12//37

