# File produced by Open Asset Import Library (http://www.assimp.sf.net)
# (assimp v3.1.0)

mtllib ID_3303.obj.mtl

# 18 vertex positions
v  5.709 10.262 -2.655
v  27.607 7.932 29.492
v  11.418 7.932 -5.311
v  21.958 10.262 32.276
v  27.667 7.932 29.621
v  0.712 8.222 -0.331
v  0 7.932 4.85695e-16
v  15.93 7.932 34.246
v  16.249 7.932 34.932
v  0 0 0
v  0.712 2.02679e-17 -0.331
v  5.709 1.62572e-16 -2.655
v  11.418 3.25205e-16 -5.311
v  15.93 -2.09696e-15 34.246
v  16.249 -2.13897e-15 34.932
v  21.958 -1.97633e-15 32.276
v  27.667 -1.81376e-15 29.621
v  27.607 -1.80586e-15 29.492

# 0 UV coordinates

# 31 vertex normals
vn 0.314666 0.937849 -0.14637
vn 0.314683 0.937842 -0.146382
vn 0.31469 0.937842 -0.146367
vn -0.31476 0.93781 0.146418
vn -0.314188 0.938062 0.14603
vn -0.31467 0.937847 0.146373
vn -0.314684 0.937849 0.146333
vn -0.42156 0 -0.9068
vn -0.421708 1.55784e-05 -0.906732
vn -0.421792 7.20016e-05 -0.906693
vn -0.42156 -0.000332973 -0.9068
vn -0.421703 -9.87858e-05 -0.906734
vn -0.421816 0 -0.906682
vn -0.906705 -2.58257e-17 0.421766
vn -0.906705 0 0.421766
vn -0.906756 0 0.421655
vn 0.421816 -0 0.906682
vn 0.421709 7.18242e-05 0.906731
vn 0.421816 -0.000114033 0.906682
vn 0.421685 0 0.906742
vn 0.906722 0 -0.421728
vn 0.906706 -7.05556e-07 -0.421764
vn 0.906706 0 -0.421764
vn -5.55112e-17 1 5.55112e-17
vn 2.08373e-23 -1 -6.12323e-17
vn 1.60277e-23 -1 -6.12323e-17
vn -1.74601e-24 -1 -6.12323e-17
vn 8.56823e-22 -1 -6.12331e-17
vn -1.12427e-22 -1 -6.12322e-17
vn 3.20346e-23 -1 -6.12324e-17
vn -2.80372e-23 -1 -6.12323e-17

# Mesh 'defaultobject' with 32 faces
g defaultobject
usemtl DefaultMaterial
f  1//1 2//1 3//1
f  2//2 1//2 4//2
f  2//3 4//3 5//3
f  6//4 4//4 1//4
f  4//5 6//5 7//5
f  4//6 7//6 8//6
f  4//7 8//7 9//7
f  6//8 10//8 7//8
f  10//9 6//9 1//9
f  10//10 1//10 3//10
f  10//11 3//11 11//11
f  11//12 3//12 12//12
f  12//13 3//13 13//13
f  10//14 8//14 7//14
f  8//14 10//14 14//15
f  8//16 14//16 9//16
f  9//16 14//16 15//16
f  15//17 4//17 9//17
f  4//18 15//18 5//18
f  5//19 15//19 16//19
f  5//20 16//20 17//20
f  17//21 2//21 5//21
f  2//22 17//22 3//22
f  3//22 17//22 13//23
f  13//24 17//24 18//24
f  14//25 16//25 15//25
f  16//25 14//25 10//26
f  16//25 10//26 17//27
f  17//27 10//26 18//28
f  18//28 10//26 11//29
f  18//28 11//29 12//30
f  18//28 12//30 13//31

