# File produced by Open Asset Import Library (http://www.assimp.sf.net)
# (assimp v3.1.0)

mtllib ID_39174.obj.mtl

# 12 vertex positions
v  2.353 2.562 -1.36
v  7.635 2.106 2.352
v  4.705 2.106 -2.719
v  5.283 2.562 3.711
v  0 2.106 1.28955e-16
v  2.93 2.106 5.071
v  4.705 1.66491e-16 -2.719
v  2.353 8.3276e-17 -1.36
v  0 0 0
v  2.93 -3.10509e-16 5.071
v  5.283 -2.27233e-16 3.711
v  7.635 -1.44018e-16 2.352

# 0 UV coordinates

# 18 vertex normals
vn 0.143346 0.986201 -0.0828245
vn 0.143346 0.986201 -0.0828245
vn -0.143276 0.986214 0.082784
vn -0.500296 0 -0.865854
vn -0.500296 -0 -0.865855
vn -0.500412 -0 -0.865787
vn -0.500413 5.30142e-17 -0.865787
vn -0.865858 -3.06339e-17 0.500289
vn -0.865858 0 0.500289
vn 0.500413 -0 0.865787
vn 0.500413 0 0.865787
vn 0.500296 0 0.865855
vn 0.500296 0 0.865855
vn 0.865858 0 -0.500289
vn 0 -1 -6.12323e-17
vn 1.33099e-23 -1 -6.12323e-17
vn 0 -1 -6.12323e-17
vn 3.32768e-24 -1 -6.12323e-17

# Mesh 'defaultobject' with 20 faces
g defaultobject
usemtl DefaultMaterial
f  1//1 2//1 3//1
f  2//1 1//1 4//2
f  5//3 4//3 1//3
f  4//3 5//3 6//3
f  7//4 1//4 3//4
f  1//4 7//4 8//5
f  1//6 8//6 5//6
f  5//6 8//6 9//7
f  9//8 6//8 5//8
f  6//8 9//8 10//9
f  10//10 4//10 6//10
f  4//10 10//10 11//11
f  4//12 11//12 2//12
f  2//12 11//12 12//13
f  12//14 3//14 2//14
f  3//14 12//14 7//14
f  8//15 10//15 9//15
f  10//15 8//15 7//16
f  10//15 7//16 11//17
f  11//17 7//16 12//18

