# File produced by Open Asset Import Library (http://www.assimp.sf.net)
# (assimp v3.1.0)

mtllib ID_362.obj.mtl

# 59 vertex positions
v  60.822 9.011 -6.52
v  51.619 9.519 -13.88
v  50.425 9.017 -11.313
v  61.895 9.484 -8.96
v  61.895 5.48642e-16 -8.96
v  60.822 3.99235e-16 -6.52
v  51.619 8.49905e-16 -13.88
v  50.425 6.92721e-16 -11.313
v  31.63 7.908 -34.794
v  51.756 7.908 -14.367
v  56.185 7.908 -23.797
v  51.544 7.908 -13.916
v  60.914 7.908 -6.367
v  64.193 7.908 5.084
v  68.115 7.908 -3.047
v  59.354 7.908 15.148
v  52.139 7.908 11.856
v  60.782 7.908 -6.428
v  60.822 7.908 -6.52
v  50.425 7.908 -11.313
v  50.402 7.908 11.064
v  50.303 7.908 11.274
v  45.61 7.908 21.215
v  37.135 7.908 17.273
v  0 7.908 4.84225e-16
v  51.619 7.908 -13.88
v  31.731 7.908 -35.069
v  4.637 7.908 -9.967
v  13.239 7.908 -28.459
v  14.069 7.908 -30.244
v  18.921 7.908 -41.029
v  13.808 7.908 -30.392
v  18.83 7.908 -41.065
v  18.773 7.908 -41.088
v  14.267 7.908 -31.381
v  56.185 1.45715e-15 -23.797
v  31.63 2.13052e-15 -34.794
v  31.731 2.14736e-15 -35.069
v  18.921 2.5123e-15 -41.029
v  18.83 2.51451e-15 -41.065
v  68.115 1.86575e-16 -3.047
v  60.914 3.89866e-16 -6.367
v  60.782 3.93601e-16 -6.428
v  51.544 8.52109e-16 -13.916
v  18.773 2.51591e-15 -41.088
v  14.267 1.92153e-15 -31.381
v  13.808 1.86097e-15 -30.392
v  14.069 1.85191e-15 -30.244
v  13.239 1.74261e-15 -28.459
v  4.637 6.10303e-16 -9.967
v  0 0 0
v  37.135 -1.05767e-15 17.273
v  45.61 -1.29904e-15 21.215
v  50.402 -6.77475e-16 11.064
v  59.354 -9.27547e-16 15.148
v  52.139 -7.25971e-16 11.856
v  50.303 -6.90333e-16 11.274
v  64.193 -3.11305e-16 5.084
v  51.756 8.79725e-16 -14.367

# 0 UV coordinates

# 65 vertex normals
vn -0.0726264 0.98464 0.158774
vn -0.072721 0.984614 0.158891
vn 0.915398 0 0.402551
vn 0.915398 0 0.402551
vn 0.431841 0 -0.90195
vn -0.906715 0 -0.421744
vn -0.906715 -0 -0.421744
vn -0.418654 0 0.908146
vn -0.418654 0 0.908146
vn -1.73506e-24 -1 -6.12323e-17
vn 3.28277e-24 -1 -6.12323e-17
vn 0 1 0
vn 0.408733 0 -0.912654
vn 0.421839 0 -0.906671
vn 0.36786 0 -0.929881
vn 0.41869 0 -0.908129
vn 0.419494 0 -0.907758
vn 0.418654 0 -0.908146
vn 0.43273 0 -0.901524
vn 0.938691 -0 0.34476
vn 0.374235 0 -0.927334
vn -0.907038 0 -0.421048
vn -0.907071 -0 -0.420977
vn -0.906766 0 -0.421634
vn -0.906701 3.8506e-05 -0.421774
vn -0.906766 -0.000398937 -0.421633
vn -0.906701 -0 -0.421774
vn -0.90668 -0 -0.421819
vn -0.90668 2.5829e-17 -0.421819
vn -0.493266 0 0.869879
vn -0.421749 -5.55201e-17 0.906713
vn -0.421749 0 0.906713
vn -0.421743 0 0.906715
vn -0.414868 0 0.909881
vn -0.415104 6.25597e-05 0.909774
vn -0.415058 0 0.909795
vn -1.34932e-20 -1 -6.11513e-17
vn 0.904296 -0 0.426905
vn 0.904527 0 0.426416
vn 0.901234 -0 0.433334
vn 0.900695 0 0.434451
vn 0.917081 -0 0.398702
vn 0.906715 -0 0.421744
vn 0.905138 0 0.425117
vn 0.904999 -0.000431718 0.425414
vn 0.905138 2.06505e-05 0.425117
vn 0.904999 0 0.425414
vn -7.21319e-24 -1 -6.12323e-17
vn 0 -1 -6.12323e-17
vn -6.51466e-23 -1 -6.12324e-17
vn 1.31211e-24 -1 -6.12323e-17
vn 3.94859e-22 -1 -6.12309e-17
vn -8.86843e-23 -1 -6.12327e-17
vn 7.98283e-24 -1 -6.12323e-17
vn -5.63654e-24 -1 -6.12323e-17
vn -1.83816e-22 -1 -6.12325e-17
vn 0 -1 -6.12323e-17
vn 5.94211e-24 -1 -6.12323e-17
vn 0 -1 -6.12324e-17
vn 5.70354e-24 -1 -6.12323e-17
vn 1.19875e-22 -1 -6.12323e-17
vn 1.21442e-20 -1 -6.12262e-17
vn -7.50037e-22 -1 -6.12327e-17
vn 1.48956e-21 -1 -6.12317e-17
vn 2.96367e-24 -1 -6.12323e-17

# Mesh 'defaultobject' with 116 faces
g defaultobject
usemtl DefaultMaterial
f  1//1 2//1 3//1
f  2//2 1//2 4//2
f  1//3 5//3 4//3
f  5//3 1//3 6//4
f  4//5 7//5 2//5
f  7//5 4//5 5//5
f  7//6 3//6 2//6
f  3//6 7//6 8//7
f  8//8 1//8 3//8
f  1//8 8//8 6//9
f  8//10 5//10 6//10
f  5//10 8//10 7//11
f  9//12 10//12 11//12
f  10//12 9//12 12//12
f  13//12 14//12 15//12
f  14//12 13//12 16//12
f  16//12 13//12 17//12
f  17//12 13//12 18//12
f  17//12 18//12 19//12
f  17//12 19//12 20//12
f  17//12 20//12 21//12
f  21//12 20//12 22//12
f  22//12 20//12 23//12
f  23//12 20//12 24//12
f  24//12 20//12 25//12
f  25//12 20//12 26//12
f  25//12 26//12 12//12
f  25//12 12//12 9//12
f  25//12 9//12 27//12
f  25//12 27//12 28//12
f  28//12 27//12 29//12
f  29//12 27//12 30//12
f  30//12 27//12 31//12
f  30//12 31//12 32//12
f  32//12 31//12 33//12
f  32//12 33//12 34//12
f  32//12 34//12 35//12
f  36//13 9//13 11//13
f  9//13 36//13 37//13
f  38//14 31//14 27//14
f  31//14 38//14 39//14
f  40//15 31//15 39//15
f  41//16 13//16 15//16
f  13//16 41//16 42//16
f  13//17 42//17 18//17
f  18//17 42//17 43//17
f  6//18 20//18 19//18
f  20//18 6//18 8//18
f  7//19 12//19 26//19
f  12//19 7//19 44//19
f  37//20 27//20 9//20
f  27//20 37//20 38//20
f  40//15 33//15 31//15
f  33//21 40//21 34//21
f  34//21 40//21 45//21
f  45//22 35//22 34//22
f  35//22 45//22 46//22
f  35//23 46//23 32//23
f  32//23 46//23 47//23
f  48//24 29//24 30//24
f  29//25 48//25 28//25
f  28//26 48//26 49//26
f  28//27 49//27 50//27
f  28//28 50//28 25//28
f  25//28 50//28 51//29
f  47//30 30//30 32//30
f  30//30 47//30 48//30
f  51//31 24//31 25//31
f  24//31 51//31 52//32
f  24//31 52//32 23//33
f  23//33 52//32 53//33
f  54//34 17//34 21//34
f  17//35 54//35 16//35
f  16//36 54//36 55//36
f  55//37 54//37 56//37
f  53//38 22//38 23//38
f  22//38 53//38 57//38
f  22//39 57//39 21//39
f  21//39 57//39 54//39
f  55//40 14//40 16//40
f  14//40 55//40 58//40
f  14//41 58//41 15//41
f  15//41 58//41 41//41
f  43//42 19//42 18//42
f  19//42 43//42 6//42
f  8//43 26//43 20//43
f  26//43 8//43 7//43
f  10//44 36//44 11//44
f  36//45 10//45 12//45
f  36//46 12//46 59//46
f  59//47 12//47 44//47
f  52//48 57//48 53//48
f  57//48 52//48 54//37
f  54//37 52//48 42//49
f  42//49 52//48 43//50
f  43//50 52//48 6//10
f  6//10 52//48 8//10
f  8//10 52//48 51//51
f  8//10 51//51 7//11
f  7//11 51//51 44//52
f  44//52 51//51 59//53
f  59//53 51//51 36//54
f  36//54 51//51 37//55
f  37//55 51//51 38//56
f  38//56 51//51 50//57
f  38//56 50//57 49//58
f  38//56 49//58 48//59
f  38//56 48//59 39//60
f  39//60 48//59 47//61
f  39//60 47//61 46//62
f  39//60 46//62 40//63
f  40//63 46//62 45//64
f  56//37 58//49 55//37
f  58//49 56//37 41//65
f  41//65 56//37 42//49
f  42//49 56//37 54//37

