# File produced by Open Asset Import Library (http://www.assimp.sf.net)
# (assimp v3.1.0)

mtllib ID_37680.obj.mtl

# 12 vertex positions
v  0 3.435 2.10333e-16
v  8.49 3.435 0.521
v  5.819 3.435 -3.654
v  5.526 3.435 2.525
v  2.979 3.435 4.531
v  5.63 3.435 2.856
v  5.63 -1.7488e-16 2.856
v  5.526 -1.54612e-16 2.525
v  8.49 -3.19021e-17 0.521
v  2.979 -2.77444e-16 4.531
v  5.819 2.23743e-16 -3.654
v  0 0 0

# 0 UV coordinates

# 12 vertex normals
vn -0 1 0
vn 0.954017 0 -0.299752
vn 0.560106 -0 0.828421
vn 0.534149 -0 0.84539
vn 0.842363 0 -0.538911
vn -0.53179 0 -0.846876
vn -0.53179 5.18562e-17 -0.846876
vn -0.83558 -3.36392e-17 0.549369
vn -0.83558 0 0.549369
vn -3.88642e-25 -1 -6.12323e-17
vn 0 -1 -6.12323e-17
vn 0 -1 -6.12323e-17

# Mesh 'defaultobject' with 20 faces
g defaultobject
usemtl DefaultMaterial
f  1//1 2//1 3//1
f  2//1 1//1 4//1
f  4//1 1//1 5//1
f  4//1 5//1 6//1
f  7//2 4//2 6//2
f  4//2 7//2 8//2
f  8//3 2//3 4//3
f  2//3 8//3 9//3
f  10//4 6//4 5//4
f  6//4 10//4 7//4
f  9//5 3//5 2//5
f  3//5 9//5 11//5
f  11//6 1//6 3//6
f  1//6 11//6 12//7
f  12//8 5//8 1//8
f  5//8 12//8 10//9
f  9//10 12//10 11//10
f  12//10 9//10 8//11
f  12//10 8//11 7//12
f  12//10 7//12 10//11

