# File produced by Open Asset Import Library (http://www.assimp.sf.net)
# (assimp v3.1.0)

mtllib ID_48889.obj.mtl

# 8 vertex positions
v  0.327 1.907 -3.743
v  4.009 1.907 0.35
v  4.336 1.907 -3.393
v  0 1.907 1.1677e-16
v  4.336 2.07761e-16 -3.393
v  0.327 2.29193e-16 -3.743
v  0 0 0
v  4.009 -2.14313e-17 0.35

# 0 UV coordinates

# 9 vertex normals
vn 0 1 0
vn 0.0869727 0 -0.996211
vn -0.996206 0 -0.0870316
vn -0.996206 5.32915e-18 -0.0870316
vn -0.0869728 -6.10003e-17 0.996211
vn -0.0869728 0 0.996211
vn 0.996206 -0 0.0870316
vn 1.4005e-23 -1 -6.12323e-17
vn 7.00252e-24 -1 -6.12323e-17

# Mesh 'defaultobject' with 12 faces
g defaultobject
usemtl DefaultMaterial
f  1//1 2//1 3//1
f  2//1 1//1 4//1
f  5//2 1//2 3//2
f  1//2 5//2 6//2
f  6//3 4//3 1//3
f  4//3 6//3 7//4
f  7//5 2//5 4//5
f  2//5 7//5 8//6
f  8//7 3//7 2//7
f  3//7 8//7 5//7
f  8//8 6//8 5//8
f  6//8 8//8 7//9

