# File produced by Open Asset Import Library (http://www.assimp.sf.net)
# (assimp v3.1.0)

mtllib ID_55458.obj.mtl

# 8 vertex positions
v  0 2.417 1.47999e-16
v  3.729 2.417 0.834
v  2.723 2.417 -1.29
v  1.011 2.417 2.135
v  2.723 7.89897e-17 -1.29
v  0 0 0
v  1.011 -1.30731e-16 2.135
v  3.729 -5.10678e-17 0.834

# 0 UV coordinates

# 9 vertex normals
vn -0 1 0
vn -0.428129 0 -0.903718
vn -0.428129 5.53367e-17 -0.903718
vn -0.90379 -2.6206e-17 0.427977
vn -0.90379 0 0.427977
vn 0.431749 -0 0.901994
vn 0.903755 0 -0.42805
vn -9.34484e-25 -1 -6.12323e-17
vn 9.29646e-25 -1 -6.12323e-17

# Mesh 'defaultobject' with 12 faces
g defaultobject
usemtl DefaultMaterial
f  1//1 2//1 3//1
f  2//1 1//1 4//1
f  5//2 1//2 3//2
f  1//2 5//2 6//3
f  6//4 4//4 1//4
f  4//4 6//4 7//5
f  7//6 2//6 4//6
f  2//6 7//6 8//6
f  8//7 3//7 2//7
f  3//7 8//7 5//7
f  8//8 6//8 5//8
f  6//8 8//8 7//9

