# File produced by Open Asset Import Library (http://www.assimp.sf.net)
# (assimp v3.1.0)

mtllib ID_56313.obj.mtl

# 8 vertex positions
v  1.13 6.064 -0.494
v  2.083 6.064 4.643
v  3.21 6.064 4.134
v  0 6.064 3.71313e-16
v  3.21 -2.53134e-16 4.134
v  1.13 3.02488e-17 -0.494
v  0 0 0
v  2.083 -2.84302e-16 4.643

# 0 UV coordinates

# 9 vertex normals
vn 0 1 0
vn 0.912113 0 -0.409938
vn -0.400564 0 -0.916269
vn -0.400564 5.61053e-17 -0.916269
vn -0.912388 -2.5064e-17 0.409327
vn -0.912388 0 0.409327
vn 0.411609 -0 0.911361
vn 0 -1 -6.12323e-17
vn -1.68251e-23 -1 -6.12323e-17

# Mesh 'defaultobject' with 12 faces
g defaultobject
usemtl DefaultMaterial
f  1//1 2//1 3//1
f  2//1 1//1 4//1
f  5//2 1//2 3//2
f  1//2 5//2 6//2
f  6//3 4//3 1//3
f  4//3 6//3 7//4
f  7//5 2//5 4//5
f  2//5 7//5 8//6
f  8//7 3//7 2//7
f  3//7 8//7 5//7
f  5//8 7//8 6//8
f  7//8 5//8 8//9

