# File produced by Open Asset Import Library (http://www.assimp.sf.net)
# (assimp v3.1.0)

mtllib ID_6613.obj.mtl

# 37 vertex positions
v  23.982 8.54 0.469
v  24.015 8.54 5.065
v  24.224 8.54 0.474
v  23.914 8.54 5.12
v  27.693 8.54 5.194
v  27.695 8.54 5.08
v  27.691 8.596 5.376
v  23.81 10.695 12.174
v  23.694 13.092 20.021
v  27.429 13.069 23.1
v  27.428 13.092 23.176
v  24.015 -3.10142e-16 5.065
v  24.224 -2.90241e-17 0.474
v  27.428 -1.41912e-15 23.176
v  27.429 -1.41447e-15 23.1
v  27.691 -3.29185e-16 5.376
v  27.693 -3.18041e-16 5.194
v  27.695 -3.1106e-16 5.08
v  23.982 -2.8718e-17 0.469
v  23.914 -3.1351e-16 5.12
v  23.81 -7.45442e-16 12.174
v  23.694 -1.22593e-15 20.021
v  5.848 10.695 4.943
v  23.694 10.695 20.021
v  23.914 10.695 5.12
v  5.637 10.695 4.763
v  5.637 -2.9165e-16 4.763
v  5.848 -3.02671e-16 4.943
v  5.601 9.826 4.732
v  5.848 8.789 0.114
v  0 8.79 5.38232e-16
v  23.982 8.79 0.469
v  5.637 9.833 4.763
v  23.914 9.833 5.12
v  5.848 -6.98049e-18 0.114
v  0 0 0
v  5.601 -2.89751e-16 4.732

# 0 UV coordinates

# 59 vertex normals
vn 0 1 0
vn 0.00561777 0.956374 -0.29209
vn 0.00575754 0.955781 -0.294022
vn 0.23705 0.93009 -0.280608
vn 0.235457 0.931077 -0.278667
vn 0.0978919 0.965285 -0.242162
vn 0.998965 -0 0.0454771
vn 0.999913 -0 0.0131746
vn 0.999891 9.32723e-06 0.0147782
vn 0.999908 -0.00331199 0.013175
vn 0.999891 0 0.0147806
vn 0.99994 0 0.0109928
vn 0.999846 0.00013937 0.0175315
vn 0.99994 -8.73064e-05 0.0109928
vn 0.999846 0 0.0175315
vn 0.00407602 0 -0.999992
vn 0.0206567 0 -0.999787
vn -0.999893 0 -0.0146191
vn -0.999891 8.01778e-05 -0.0147663
vn -0.999893 -8.09438e-05 -0.0146191
vn -0.999891 3.2374e-05 -0.0147909
vn -0.999891 -2.34918e-05 -0.0147418
vn -0.999891 -0 -0.014781
vn -0.645401 0 0.763844
vn -5.32653e-24 -1 -6.12323e-17
vn 8.41458e-23 -1 -6.12323e-17
vn 1.14089e-24 -1 -6.12325e-17
vn 2.85374e-24 -1 -6.12323e-17
vn 0 -1 -6.12322e-17
vn 0 -1 -6.12323e-17
vn -1.26412e-23 -1 -6.12323e-17
vn 0 -1 -6.12323e-17
vn -7.37977e-22 -1 -6.12312e-17
vn -0.649008 0 0.760782
vn -0.645382 -0.000123345 0.76386
vn -0.645424 0 0.763824
vn -2.74536e-20 1 6.12215e-17
vn 0.999891 -0 0.014781
vn 0.999891 -2.87577e-05 0.0147418
vn 0.999891 2.58508e-05 0.014781
vn 0.999891 0 0.0147418
vn 0.019529 0 -0.999809
vn 9.00639e-25 -1 -6.12325e-17
vn 0.00443356 0.975744 -0.218872
vn 0.00423112 0.975742 -0.218883
vn 0.00306572 0.974666 -0.223644
vn 0.00427292 0.97577 -0.218757
vn -0.019529 0 0.999809
vn 0.999893 -0 0.0146191
vn 0.999893 0 0.0146191
vn 0.0195727 0 -0.999808
vn 0.0194901 0 -0.99981
vn 0.0194901 6.12207e-17 -0.99981
vn -0.652522 0 0.75777
vn -0.645366 4.54748e-05 0.763873
vn -0.652502 -0.00785083 0.757746
vn -0.645361 0 0.763878
vn 0 -1 -6.12323e-17
vn 6.08829e-22 -1 -6.12323e-17

# Mesh 'defaultobject' with 76 faces
g defaultobject
usemtl DefaultMaterial
f  1//1 2//1 3//1
f  2//1 1//1 4//1
f  2//1 5//1 6//1
f  5//1 2//1 4//1
f  7//2 4//2 8//2
f  4//3 7//3 5//3
f  9//4 10//4 8//4
f  10//5 9//5 11//5
f  7//6 8//6 10//6
f  12//7 3//7 2//7
f  3//7 12//7 13//7
f  14//8 10//8 11//8
f  10//9 14//9 7//9
f  7//10 14//10 15//10
f  7//9 15//11 16//11
f  7//12 16//12 5//12
f  5//13 16//13 6//13
f  6//14 16//14 17//14
f  6//15 17//15 18//15
f  18//16 2//16 6//16
f  2//16 18//16 12//16
f  13//17 1//17 3//17
f  1//17 13//17 19//17
f  19//18 4//18 1//18
f  4//19 19//19 8//19
f  8//20 19//20 20//20
f  8//21 20//21 9//21
f  9//22 20//22 21//22
f  9//23 21//23 22//23
f  22//24 11//24 9//24
f  11//24 22//24 14//24
f  13//25 20//25 19//25
f  20//25 13//25 12//26
f  20//25 12//26 18//27
f  20//25 18//27 21//28
f  21//28 18//27 17//29
f  21//28 17//29 16//30
f  21//28 16//30 15//31
f  21//28 15//31 22//32
f  22//32 15//31 14//33
f  8//1 23//1 24//1
f  23//1 8//1 25//1
f  23//1 25//1 26//1
f  27//34 23//34 26//34
f  23//35 27//35 24//35
f  24//36 27//36 22//36
f  22//37 27//37 28//37
f  22//38 8//38 24//38
f  8//39 22//39 25//39
f  25//40 22//40 21//40
f  25//41 21//41 20//41
f  20//42 26//42 25//42
f  26//42 20//42 27//42
f  20//25 28//43 27//43
f  28//43 20//25 22//32
f  22//32 20//25 21//28
f  29//44 30//44 31//44
f  30//45 29//45 32//45
f  32//46 29//46 33//46
f  32//47 33//47 34//47
f  27//48 34//48 33//48
f  34//48 27//48 20//48
f  20//49 32//49 34//49
f  32//49 20//49 19//50
f  19//51 30//51 32//51
f  30//51 19//51 35//51
f  30//52 35//52 31//52
f  31//52 35//52 36//53
f  29//54 27//54 33//54
f  27//55 29//55 31//55
f  27//56 31//56 37//56
f  37//57 31//57 36//57
f  27//43 19//25 20//25
f  19//25 27//43 35//58
f  35//58 27//43 37//59
f  35//58 37//59 36//32

