# File produced by Open Asset Import Library (http://www.assimp.sf.net)
# (assimp v3.1.0)

mtllib ID_26962.obj.mtl

# 20 vertex positions
v  10.207 6.295 7.49
v  2.856 5.592 10.458
v  10.47 5.592 8.527
v  2.562 5.592 10.533
v  1.423 8.758 5.85
v  8.885 9.161 3.324
v  1.278 9.161 5.254
v  7.236 5.585 -1.873
v  5.14 5.585 -1.341
v  0 5.609 3.43452e-16
v  7.236 1.14688e-16 -1.873
v  0 0 0
v  5.14 8.21126e-17 -1.341
v  1.278 -3.21715e-16 5.254
v  1.423 -3.58209e-16 5.85
v  2.562 -6.4496e-16 10.533
v  10.47 -5.22128e-16 8.527
v  2.856 -6.40368e-16 10.458
v  8.885 -2.03536e-16 3.324
v  10.207 -4.5863e-16 7.49

# 0 UV coordinates

# 34 vertex normals
vn 0.135 0.835717 0.532308
vn 0.136724 0.833099 0.535959
vn 0.134985 0.835782 0.53221
vn 0.135003 0.835813 0.532157
vn 0.13504 0.835744 0.532255
vn -0.135034 0.83576 -0.532232
vn -0.135099 0.835727 -0.532268
vn -0.134949 0.835786 -0.532213
vn -0.246016 0 -0.969266
vn -0.252455 -0.00257482 -0.967605
vn -0.250586 5.92787e-17 -0.968094
vn 1.73559e-22 1 6.12331e-17
vn -0.971668 -1.44724e-17 0.236352
vn -0.97166 -1.82445e-05 0.236382
vn -0.971671 1.23819e-05 0.236338
vn -0.971668 -1.40668e-05 0.236352
vn -0.971658 -5.57461e-05 0.236393
vn -0.971673 0 0.23633
vn 0.247185 -0 0.968968
vn 0.245829 7.592e-05 0.969313
vn 0.24588 0 0.9693
vn 7.9347e-21 -1 -6.11924e-17
vn 0.953164 2.2304e-05 -0.302453
vn 0.953165 0 -0.302451
vn 0.953169 -2.03114e-05 -0.302439
vn 0.95316 0 -0.302467
vn 0.969312 0 -0.245834
vn 0.969312 0 -0.245834
vn -7.24095e-23 -1 -6.12323e-17
vn 1.05798e-23 -1 -6.12324e-17
vn 0 -1 -6.12323e-17
vn -4.30164e-23 -1 -6.12323e-17
vn 0 -1 -6.12323e-17
vn -8.99554e-24 -1 -6.12323e-17

# Mesh 'defaultobject' with 36 faces
g defaultobject
usemtl DefaultMaterial
f  1//1 2//1 3//1
f  2//2 1//2 4//2
f  4//3 1//3 5//3
f  5//4 1//4 6//4
f  5//5 6//5 7//5
f  8//6 7//6 6//6
f  7//7 8//7 9//7
f  7//8 9//8 10//8
f  11//9 9//9 8//9
f  9//10 11//10 10//10
f  10//11 11//11 12//11
f  12//12 11//12 13//12
f  12//13 7//13 10//13
f  7//14 12//14 5//14
f  5//15 12//15 4//15
f  4//16 12//16 14//16
f  4//17 14//17 15//17
f  4//18 15//18 16//18
f  16//19 2//19 4//19
f  2//20 16//20 3//20
f  3//21 16//21 17//21
f  17//22 16//22 18//22
f  1//23 8//23 6//23
f  8//24 1//24 11//24
f  11//25 1//25 19//25
f  19//26 1//26 20//26
f  3//27 20//27 1//27
f  20//27 3//27 17//28
f  15//29 18//22 16//22
f  18//22 15//29 17//22
f  17//22 15//29 14//30
f  17//22 14//30 12//31
f  17//22 12//31 20//32
f  20//32 12//31 19//33
f  19//33 12//31 13//31
f  19//33 13//31 11//34

