# File produced by Open Asset Import Library (http://www.assimp.sf.net)
# (assimp v3.1.0)

mtllib ID_16553.obj.mtl

# 20 vertex positions
v  1.935 10.279 -5.83
v  13.378 7.06 4.604
v  15.425 10.279 -1
v  1.088 6.974 0.374
v  0.005 6.974 -0.014
v  0 6.966 4.26544e-16
v  3.833 7.027 -11.552
v  17.03 7.497 -5.903
v  17.384 7.027 -6.7
v  13.378 -2.81914e-16 4.604
v  15.457 10.227 -1.09
v  15.457 6.67433e-17 -1.09
v  15.425 6.12323e-17 -1
v  17.03 3.61455e-16 -5.903
v  17.384 4.10257e-16 -6.7
v  3.833 7.07356e-16 -11.552
v  1.935 3.56985e-16 -5.83
v  0.005 8.57253e-19 -0.014
v  0 0 0
v  1.088 -2.29009e-17 0.374

# 0 UV coordinates

# 33 vertex normals
vn -0.160065 0.880069 0.447054
vn -0.16001 0.880104 0.447005
vn -0.160137 0.880093 0.446981
vn -0.159825 0.880592 0.446109
vn 0.16027 0.879748 -0.447612
vn 0.159997 0.880107 -0.447004
vn 0.160071 0.88006 -0.447071
vn 0.939298 -0 0.343102
vn 0.941515 -0.00379569 0.33695
vn 0.939345 0 0.342975
vn 3.37325e-21 1 6.12337e-17
vn 0.950523 -0 0.310653
vn 0.950523 0 0.310653
vn 0.913906 -0 0.405926
vn 0.913906 0 0.405926
vn 0.337098 0 -0.94147
vn -0.949147 0 -0.314834
vn -0.949116 5.65905e-05 -0.314926
vn -0.949147 -0.000111601 -0.314834
vn -0.949107 -0 -0.314955
vn -0.941742 0 -0.336336
vn -0.941742 2.05947e-17 -0.336336
vn -0.325445 0 0.945561
vn -0.325084 0.000711078 0.945685
vn -0.325445 -6.38303e-05 0.945561
vn -0.32508 0 0.945687
vn 2.11458e-24 -1 -6.12323e-17
vn 5.84943e-24 -1 -6.12324e-17
vn -3.06688e-22 -1 -6.12321e-17
vn 0 -1 -6.12323e-17
vn 5.3548e-24 -1 -6.12323e-17
vn -6.11253e-23 -1 -6.12324e-17
vn 3.0047e-23 -1 -6.12323e-17

# Mesh 'defaultobject' with 35 faces
g defaultobject
usemtl DefaultMaterial
f  1//1 2//1 3//1
f  2//2 1//2 4//2
f  4//3 1//3 5//3
f  4//4 5//4 6//4
f  7//5 8//5 9//5
f  8//6 7//6 3//6
f  3//7 7//7 1//7
f  10//8 3//8 2//8
f  3//9 10//9 11//9
f  11//10 10//10 12//10
f  12//11 10//11 13//11
f  12//12 8//12 11//12
f  8//12 12//12 14//13
f  14//14 9//14 8//14
f  9//14 14//14 15//15
f  15//16 7//16 9//16
f  7//16 15//16 16//16
f  16//17 1//17 7//17
f  1//18 16//18 5//18
f  5//19 16//19 17//19
f  5//20 17//20 18//20
f  18//21 6//21 5//21
f  6//21 18//21 19//22
f  4//23 10//23 2//23
f  10//24 4//24 6//24
f  10//25 6//25 20//25
f  20//26 6//26 19//26
f  14//27 16//27 15//27
f  16//27 14//27 12//28
f  16//27 12//28 13//29
f  16//27 13//29 10//30
f  16//27 10//30 20//31
f  16//27 20//31 17//32
f  17//32 20//31 18//33
f  18//33 20//31 19//30

