# File produced by Open Asset Import Library (http://www.assimp.sf.net)
# (assimp v3.1.0)

mtllib ID_37445.obj.mtl

# 23 vertex positions
v  3.591 2.381 -7.382
v  7.545 2.366 -5.629
v  3.64 2.366 -7.486
v  3.774 2.907 -2.814
v  6.091 2.806 -2.572
v  5.753 2.907 -1.872
v  2.72 2.385 -5.55
v  0.685 2.377 -1.44
v  1.954 2.907 0.929
v  0 2.381 1.45794e-16
v  3.944 2.371 1.876
v  3.96 2.371 1.843
v  0 0 0
v  1.954 -5.68848e-17 0.929
v  3.944 -1.14872e-16 1.876
v  3.96 -1.12851e-16 1.843
v  5.753 1.14627e-16 -1.872
v  6.091 1.5749e-16 -2.572
v  7.545 3.44677e-16 -5.629
v  3.64 4.58385e-16 -7.486
v  2.72 3.39839e-16 -5.55
v  3.591 4.52017e-16 -7.382
v  0.685 8.81746e-17 -1.44

# 0 UV coordinates

# 39 vertex normals
vn 0.055563 0.991595 -0.116841
vn 0.0553706 0.991657 -0.116406
vn 0.0553836 0.991658 -0.116389
vn 0.055379 0.991664 -0.116343
vn -0.212913 0.97159 -0.103348
vn -0.212715 0.971625 -0.103431
vn -0.212714 0.971625 -0.10343
vn -0.212279 0.971694 -0.103679
vn 0.212537 0.971673 0.103344
vn 0.21308 0.971557 0.103312
vn -0.0553814 0.991663 0.116348
vn -0.429377 -5.53005e-17 0.903125
vn -0.429654 0.000228343 0.902993
vn -0.429377 -0.000336814 0.903125
vn -0.429705 0 0.90297
vn 0.899814 -0 0.436274
vn 0.900596 -2.77766e-05 0.434658
vn 0.899811 0.00254045 0.436273
vn 0.900594 0 0.434661
vn 0.900517 0 0.434821
vn 0.902968 -0.00157155 0.429705
vn 0.900485 0.00840855 0.434806
vn 0.903057 0 0.429521
vn 0.429458 0 -0.903087
vn -0.902766 0.0272351 -0.429268
vn -0.903205 0 -0.429209
vn -0.903205 -0 -0.429209
vn 3.242e-20 -1 -6.12171e-17
vn -0.896165 0 -0.443722
vn -0.896165 -0 -0.443721
vn -0.903034 -0 -0.429568
vn -0.903034 2.63035e-17 -0.429568
vn -7.23333e-24 -1 -6.12323e-17
vn 2.65827e-24 -1 -6.12323e-17
vn 0 -1 -6.12323e-17
vn 3.66556e-25 -1 -6.12323e-17
vn 0 -1 -6.12323e-17
vn -1.70512e-22 -1 -6.12318e-17
vn -4.09384e-23 -1 -6.12322e-17

# Mesh 'defaultobject' with 42 faces
g defaultobject
usemtl DefaultMaterial
f  1//1 2//1 3//1
f  2//2 1//2 4//2
f  2//3 4//3 5//3
f  5//4 4//4 6//4
f  7//5 4//5 1//5
f  4//6 7//6 8//6
f  4//6 8//6 9//7
f  9//8 8//8 10//8
f  11//9 4//9 9//9
f  4//10 11//10 12//10
f  4//11 12//11 6//11
f  13//12 9//12 10//12
f  9//13 13//13 11//13
f  11//14 13//14 14//14
f  11//15 14//15 15//15
f  15//16 12//16 11//16
f  12//17 15//17 6//17
f  6//18 15//18 16//18
f  6//19 16//19 17//19
f  6//20 17//20 5//20
f  5//21 17//21 2//21
f  2//22 17//22 18//22
f  2//23 18//23 19//23
f  19//24 3//24 2//24
f  3//24 19//24 20//24
f  3//25 7//25 1//25
f  7//26 3//26 20//26
f  7//26 20//26 21//27
f  21//28 20//28 22//28
f  21//29 8//29 7//29
f  8//29 21//29 23//30
f  8//31 23//31 10//31
f  10//31 23//31 13//32
f  18//33 20//28 19//33
f  20//28 18//33 22//28
f  22//28 18//33 21//28
f  21//28 18//33 23//34
f  23//34 18//33 17//35
f  23//34 17//35 16//36
f  23//34 16//36 13//37
f  13//37 16//36 14//38
f  14//38 16//36 15//39

