# File produced by Open Asset Import Library (http://www.assimp.sf.net)
# (assimp v3.1.0)

mtllib ID_33486.obj.mtl

# 12 vertex positions
v  1.907 9.279 -3.757
v  9.138 7.422 -4.812
v  3.814 7.423 -7.514
v  7.237 9.279 -1.051
v  0 7.423 4.54528e-16
v  5.337 7.423 2.71
v  5.337 -1.6594e-16 2.71
v  9.138 2.9465e-16 -4.812
v  7.237 6.43552e-17 -1.051
v  3.814 4.601e-16 -7.514
v  0 0 0
v  1.907 2.3005e-16 -3.757

# 0 UV coordinates

# 17 vertex normals
vn 0.18258 0.915142 -0.359416
vn 0.182546 0.915092 -0.35956
vn -0.182495 0.915142 0.359459
vn -0.182504 0.915156 0.359418
vn 0.892568 -0 0.450912
vn 0.892489 8.01202e-05 0.451069
vn 0.892521 0 0.451007
vn 2.81568e-20 -1 -6.12129e-17
vn 0.452565 0 -0.891731
vn 0.452565 0 -0.891731
vn -0.891705 0 -0.452617
vn -0.891705 0 -0.452617
vn -0.891705 2.77148e-17 -0.452617
vn -0.452752 -5.4597e-17 0.891637
vn -0.452752 0 0.891637
vn 8.41644e-24 -1 -6.12323e-17
vn 0 -1 -6.12323e-17

# Mesh 'defaultobject' with 20 faces
g defaultobject
usemtl DefaultMaterial
f  1//1 2//1 3//1
f  2//2 1//2 4//2
f  5//3 4//3 1//3
f  4//4 5//4 6//4
f  7//5 4//5 6//5
f  4//6 7//6 2//6
f  2//7 7//7 8//7
f  8//8 7//8 9//8
f  2//9 10//9 3//9
f  10//9 2//9 8//10
f  10//11 1//11 3//11
f  1//11 10//11 5//12
f  5//12 10//11 11//13
f  11//13 10//11 12//11
f  11//14 6//14 5//14
f  6//14 11//14 7//15
f  9//8 10//16 8//8
f  10//16 9//8 7//8
f  10//16 7//8 11//17
f  10//11 11//17 12//11

