# File produced by Open Asset Import Library (http://www.assimp.sf.net)
# (assimp v3.1.0)

mtllib ID_46434.obj.mtl

# 12 vertex positions
v  2.122 2.41 -0.309
v  0 2.198 1.34589e-16
v  2.435 2.199 1.822
v  3.569 2.2 -4.805
v  3.876 2.41 -2.683
v  5.994 2.199 -2.995
v  6.005 2.196 -3.01
v  2.435 -1.11565e-16 1.822
v  0 0 0
v  5.994 1.83391e-16 -2.995
v  6.005 1.84309e-16 -3.01
v  3.569 2.94221e-16 -4.805

# 0 UV coordinates

# 17 vertex normals
vn -0.0828974 0.990441 0.110244
vn -0.110885 0.990449 -0.0819494
vn -0.110941 0.990441 -0.081967
vn 0.110725 0.990478 0.0818081
vn 0.110726 0.990478 0.0818085
vn 0.0826682 0.99049 -0.109982
vn -0.599105 0 0.80067
vn -0.599105 0 0.80067
vn 0.804287 -0 0.594241
vn 0.806403 0 0.591366
vn 0.806403 0 0.591366
vn 0.59321 0 -0.805048
vn 0.59321 0 -0.805048
vn -0.802778 0 -0.596278
vn -0.802778 3.65115e-17 -0.596278
vn 0 -1 -6.12323e-17
vn -1.12058e-22 -1 -6.12322e-17

# Mesh 'defaultobject' with 19 faces
g defaultobject
usemtl DefaultMaterial
f  1//1 2//1 3//1
f  1//2 4//2 2//2
f  4//3 1//3 5//3
f  5//4 3//4 6//4
f  3//4 5//4 1//5
f  5//6 7//6 4//6
f  2//7 8//7 3//7
f  8//7 2//7 9//8
f  8//9 6//9 3//9
f  6//9 8//9 10//9
f  6//10 10//10 7//10
f  7//10 10//10 11//11
f  7//12 12//12 4//12
f  12//12 7//12 11//13
f  12//14 2//14 4//14
f  2//14 12//14 9//15
f  12//16 8//16 9//16
f  8//16 12//16 10//16
f  10//16 12//16 11//17

