# {"id":"ID_33306","idOriginal":"ID_33306","origin":[14.292588072798498,48.33359039993191],"elevation":267.435,"wof":[{"Id":102049853,"Name":"Linz","Placetype":"county","Offset":-1},{"Id":85681677,"Name":"Oberösterreich","Placetype":"region","Offset":-1},{"Id":85632785,"Name":"Austria","Placetype":"country","Offset":-1},{"Id":85898425,"Name":"Harbach","Placetype":"neighbourhood","Offset":-1},{"Id":101748071,"Name":"Linz","Placetype":"locality","Offset":-1}]}

# Attribution: City of Linz <http://geo.data.linz.gv.at/katalog/geodata/3d_geo_daten_lod2/>
# Longitude: 14.292588072798498
# Latitude: 48.33359039993191
# Elevation: 267.435

# File produced by Open Asset Import Library (http://www.assimp.sf.net)
# (assimp v3.1.0)


# 16 vertex positions
v  7.118 4.875 -2.724
v  8.788 2.66 3.706
v  9.592 2.649 3.435
v  2.616 2.639 6.135
v  2.66 4.875 -1.018
v  2.417 2.635 6.224
v  0.135 4.665 0.62
v  0 4.875 2.98508e-16
v  7.118 1.66797e-16 -2.724
v  9.592 -2.10333e-16 3.435
v  2.66 6.23345e-17 -1.018
v  0 0 0
v  0.135 -3.7964e-17 0.62
v  2.417 -3.8111e-16 6.224
v  8.788 -2.26927e-16 3.706
v  2.616 -3.7566e-16 6.135

# 0 UV coordinates

# 25 vertex normals
vn 0.11315 0.948085 0.297208
vn 0.113684 0.948066 0.297063
vn 0.11368 0.948067 0.297061
vn 0.113799 0.948054 0.297058
vn 0.113858 0.948047 0.297058
vn 0.113466 0.948274 0.296483
vn 0.927935 0 -0.372741
vn 0.927935 0 -0.372741
vn -0.357406 0 -0.933949
vn -0.357426 -2.04682e-05 -0.933942
vn -0.357406 1.22131e-05 -0.933949
vn -0.357426 5.71874e-17 -0.933942
vn -0.977105 -1.30276e-17 0.212757
vn -0.977105 0 0.212757
vn -0.926157 0 0.377139
vn 0.319408 -0 0.947617
vn 0.319408 0 0.947617
vn 0.366212 -0 0.930531
vn 0.408265 0 0.912864
vn 0.366212 0 0.930531
vn 0 -1 -6.12323e-17
vn 0 -1 -6.12323e-17
vn 0 -1 -6.12323e-17
vn 9.95825e-23 -1 -6.12323e-17
vn -1.6478e-23 -1 -6.12323e-17

# Mesh 'defaultobject' with 28 faces
g defaultobject
usemtl DefaultMaterial
f  1//1 2//1 3//1
f  2//2 1//2 4//2
f  4//2 1//2 5//3
f  4//4 5//4 6//4
f  6//5 5//5 7//5
f  7//6 5//6 8//6
f  3//7 9//7 1//7
f  9//7 3//7 10//8
f  9//9 5//9 1//9
f  5//10 9//10 8//10
f  8//11 9//11 11//11
f  8//12 11//12 12//12
f  12//13 7//13 8//13
f  7//13 12//13 13//14
f  13//15 6//15 7//15
f  6//15 13//15 14//15
f  15//16 3//16 2//16
f  3//16 15//16 10//17
f  15//18 2//18 4//18
f  6//19 16//19 4//19
f  16//19 6//19 14//19
f  15//18 4//18 16//20
f  11//21 13//21 12//21
f  13//21 11//21 14//22
f  14//22 11//21 9//23
f  14//22 9//23 16//24
f  16//24 9//23 15//22
f  15//22 9//23 10//25

