# {"id":"ID_51342","idOriginal":"ID_51342","origin":[14.365613265278927,48.25660525469931],"elevation":249.772,"wof":[{"Id":85681677,"Name":"Oberösterreich","Placetype":"region","Offset":-1},{"Id":85898441,"Name":"Posch","Placetype":"neighbourhood","Offset":-1},{"Id":102049853,"Name":"Linz","Placetype":"county","Offset":-1},{"Id":85632785,"Name":"Austria","Placetype":"country","Offset":-1},{"Id":101748071,"Name":"Linz","Placetype":"locality","Offset":-1}]}

# Attribution: City of Linz <http://geo.data.linz.gv.at/katalog/geodata/3d_geo_daten_lod2/>
# Longitude: 14.365613265278927
# Latitude: 48.25660525469931
# Elevation: 249.772

# File produced by Open Asset Import Library (http://www.assimp.sf.net)
# (assimp v3.1.0)


# 8 vertex positions
v  5.109 2.062 -0.582
v  0 2.062 1.26261e-16
v  3.928 2.062 1.883
v  1.172 2.062 -2.444
v  0 0 0
v  3.928 -1.153e-16 1.883
v  5.109 3.56372e-17 -0.582
v  1.172 1.49652e-16 -2.444

# 0 UV coordinates

# 9 vertex normals
vn 0 1 0
vn -0.432276 -5.52157e-17 0.901741
vn -0.432276 0 0.901741
vn 0.901837 -0 0.432077
vn 0.427543 0 -0.903995
vn -0.901684 0 -0.432395
vn -0.901684 2.64766e-17 -0.432395
vn 0 -1 -6.12323e-17
vn 0 -1 -6.12323e-17

# Mesh 'defaultobject' with 12 faces
g defaultobject
usemtl DefaultMaterial
f  1//1 2//1 3//1
f  2//1 1//1 4//1
f  5//2 3//2 2//2
f  3//2 5//2 6//3
f  6//4 1//4 3//4
f  1//4 6//4 7//4
f  7//5 4//5 1//5
f  4//5 7//5 8//5
f  8//6 2//6 4//6
f  2//6 8//6 5//7
f  8//8 6//8 5//8
f  6//8 8//8 7//9

