# {"id":"ID_11405","idOriginal":"ID_11405","origin":[14.310247227952711,48.287874787292765],"elevation":259.671}
# Longitude: 14.310247227952711
# Latitude: 48.287874787292765
# Elevation: 259.671

# File produced by Open Asset Import Library (http://www.assimp.sf.net)
# (assimp v3.1.0)

mtllib ID_11405.obj.mtl

# 26 vertex positions
v  4.659 4.075 -3.181
v  11.39 3.083 -1.854
v  8.713 3.094 -5.883
v  3.967 4.244 -2.708
v  0 5.211 3.19082e-16
v  17.685 3.093 7.923
v  9.044 5.207 13.89
v  20.209 3.094 11.822
v  19.803 3.192 12.091
v  13.965 4.602 15.948
v  11.828 5.211 18.213
v  14.391 4.603 16.612
v  14.169 4.656 16.757
v  8.713 3.6023e-16 -5.883
v  4.659 1.9478e-16 -3.181
v  3.967 1.65817e-16 -2.708
v  0 0 0
v  9.044 -8.50517e-16 13.89
v  11.828 -1.11522e-15 18.213
v  14.169 -1.02607e-15 16.757
v  14.391 -1.01719e-15 16.612
v  13.965 -9.76533e-16 15.948
v  19.803 -7.4036e-16 12.091
v  20.209 -7.23889e-16 11.822
v  17.685 -4.85144e-16 7.923
v  11.39 1.13525e-16 -1.854

# 0 UV coordinates

# 46 vertex normals
vn 0.165648 0.980321 -0.107386
vn 0.16572 0.980264 -0.107793
vn 0.165679 0.980319 -0.107356
vn 0.165628 0.980296 -0.107643
vn 0.165579 0.980317 -0.107529
vn 0.165622 0.980316 -0.107466
vn 0.165704 0.980347 -0.107057
vn 0.165579 0.980293 -0.107743
vn 0.16547 0.980342 -0.107469
vn 0.165366 0.980348 -0.10757
vn 0.199592 0.978495 -0.052074
vn -0.554605 0 -0.832113
vn -0.554605 -0 -0.832114
vn -0.564299 -0 -0.82557
vn -0.563775 0.000125445 -0.825929
vn -0.564299 -0.000562217 -0.82557
vn -0.563795 5.05727e-17 -0.825915
vn -0.838016 -3.34112e-17 0.545646
vn -0.838016 0 0.545646
vn -0.840742 0 0.541436
vn 0.528139 -0 0.849158
vn 0.528139 0 0.849158
vn 0.546844 -0 0.837235
vn 0.546844 0 0.837235
vn 0.551233 -0 0.834352
vn 0.551232 0 0.834352
vn 0.552327 0 0.833627
vn 0.552327 0 0.833627
vn 0.841672 0 -0.539989
vn 0.841672 0 -0.539989
vn 0.83946 0 -0.543421
vn 0.83946 0 -0.543421
vn 0.840796 0 -0.541353
vn 0.840796 0 -0.541353
vn 0.832908 0 -0.553411
vn -1.49403e-23 -1 -6.12324e-17
vn 1.79874e-22 -1 -6.12327e-17
vn 7.19638e-23 -1 -6.12325e-17
vn -3.41602e-24 -1 -6.12323e-17
vn -5.75039e-24 -1 -6.12323e-17
vn 1.29298e-23 -1 -6.12324e-17
vn -4.32547e-24 -1 -6.12323e-17
vn 0 -1 -6.12323e-17
vn -5.63443e-25 -1 -6.12323e-17
vn -9.58317e-25 -1 -6.12323e-17
vn 1.10847e-21 -1 -6.12309e-17

# Mesh 'defaultobject' with 48 faces
g defaultobject
usemtl DefaultMaterial
f  1//1 2//1 3//1
f  2//2 1//2 4//2
f  2//3 4//3 5//3
f  2//4 5//4 6//4
f  6//5 5//5 7//5
f  6//6 7//6 8//6
f  8//7 7//7 9//7
f  9//8 7//8 10//8
f  10//9 7//9 11//9
f  10//10 11//10 12//10
f  12//11 11//11 13//11
f  14//12 1//12 3//12
f  1//12 14//12 15//13
f  1//14 15//14 4//14
f  4//15 15//15 5//15
f  5//16 15//16 16//16
f  5//17 16//17 17//17
f  17//18 7//18 5//18
f  7//18 17//18 18//19
f  7//20 18//20 11//20
f  11//20 18//20 19//20
f  19//21 13//21 11//21
f  13//21 19//21 20//22
f  20//23 12//23 13//23
f  12//23 20//23 21//24
f  22//25 9//25 10//25
f  9//25 22//25 23//26
f  9//27 23//27 8//27
f  8//27 23//27 24//28
f  21//29 10//29 12//29
f  10//29 21//29 22//30
f  24//31 6//31 8//31
f  6//31 24//31 25//32
f  6//33 25//33 2//33
f  2//33 25//33 26//34
f  2//35 26//35 3//35
f  3//35 26//35 14//35
f  18//36 20//36 19//36
f  20//36 18//36 21//37
f  21//37 18//36 22//38
f  22//38 18//36 23//39
f  23//39 18//36 17//40
f  23//39 17//40 24//41
f  24//41 17//40 25//42
f  25//42 17//40 26//43
f  26//43 17//40 16//44
f  26//43 16//44 14//45
f  14//45 16//44 15//46

