# {"id":"ID_34634","idOriginal":"ID_34634","origin":[14.326935925073144,48.23881800096199],"elevation":260.59}
# Longitude: 14.326935925073144
# Latitude: 48.23881800096199
# Elevation: 260.59

# File produced by Open Asset Import Library (http://www.assimp.sf.net)
# (assimp v3.1.0)

mtllib ID_34634.obj.mtl

# 12 vertex positions
v  8.651 3.873 -3.289
v  2.699 2.882 4.461
v  10.516 2.864 1.588
v  0.033 3.873 -0.013
v  0.103 3.835 0.17
v  0 3.873 2.37153e-16
v  0 0 0
v  0.033 7.9602e-19 -0.013
v  8.651 2.01393e-16 -3.289
v  2.699 -2.73157e-16 4.461
v  0.103 -1.04095e-17 0.17
v  10.516 -9.7237e-17 1.588

# 0 UV coordinates

# 19 vertex normals
vn 0.0674398 0.981836 0.177342
vn 0.0674037 0.981843 0.177315
vn 0.0637271 0.981697 0.179473
vn 0.0697889 0.981705 0.177157
vn -0.366525 0 -0.930408
vn -0.355328 -0.000109948 -0.934742
vn -0.366375 0.0285684 -0.930029
vn -0.355328 0 -0.934742
vn -0.855265 -3.173e-17 0.51819
vn -0.855601 3.36206e-05 0.517635
vn -0.855592 0 0.517651
vn 0 -1 -6.12733e-17
vn 0.344971 -0 0.938613
vn 0.344971 0 0.938613
vn 0.934035 0 -0.357182
vn 0.934035 0 -0.357182
vn -3.71987e-24 -1 -6.12323e-17
vn -1.83165e-24 -1 -6.12323e-17
vn 2.43503e-24 -1 -6.12323e-17

# Mesh 'defaultobject' with 20 faces
g defaultobject
usemtl DefaultMaterial
f  1//1 2//1 3//1
f  2//2 1//2 4//2
f  2//3 4//3 5//3
f  5//4 4//4 6//4
f  4//5 7//5 6//5
f  7//6 4//6 1//6
f  7//7 1//7 8//7
f  8//8 1//8 9//8
f  7//9 5//9 6//9
f  5//10 7//10 2//10
f  2//11 7//11 10//11
f  10//12 7//12 11//12
f  10//13 3//13 2//13
f  3//13 10//13 12//14
f  3//15 9//15 1//15
f  9//15 3//15 12//16
f  8//17 11//12 7//12
f  11//12 8//17 9//18
f  11//12 9//18 10//12
f  10//12 9//18 12//19

