# File produced by Open Asset Import Library (http://www.assimp.sf.net)
# (assimp v3.1.0)

mtllib ID_9670.obj.mtl

# 33 vertex positions
v  4.506 6.118 -8.45
v  7.29 6.767 -10.921
v  6.16 6.106 -11.551
v  13.228 9.207 -11.865
v  11.299 6.81 -18.144
v  5.309 9.207 2.751
v  0 6.15 3.76579e-16
v  16.85 6.113 -5.85
v  10.747 6.075 5.57
v  15.847 6.689 -6.362
v  19.58 6.827 -13.816
v  19.656 6.739 -13.969
v  18.057 6.719 -14.843
v  18.613 6.118 -15.878
v  13.729 6.123 -18.398
v  13.293 6.686 -17.384
v  11.425 6.677 -18.372
v  0 0 0
v  5.309 -1.6845e-16 2.751
v  10.747 -3.41064e-16 5.57
v  16.85 3.58209e-16 -5.85
v  15.847 3.8956e-16 -6.362
v  19.58 8.45986e-16 -13.816
v  19.656 8.55355e-16 -13.969
v  18.057 9.08872e-16 -14.843
v  18.613 9.72247e-16 -15.878
v  13.729 1.12655e-15 -18.398
v  13.293 1.06446e-15 -17.384
v  11.425 1.12496e-15 -18.372
v  7.29 6.68718e-16 -10.921
v  6.16 7.07295e-16 -11.551
v  11.299 1.111e-15 -18.144
v  4.506 5.17413e-16 -8.45

# 0 UV coordinates

# 55 vertex normals
vn -0.400023 0.890492 -0.216809
vn -0.40033 0.890332 -0.216896
vn -0.40033 0.890331 -0.2169
vn -0.40008 0.890447 -0.216885
vn -0.400316 0.890352 -0.216842
vn 0.400338 0.890326 0.216908
vn 0.400437 0.890241 0.217072
vn 0.4003 0.890349 0.216884
vn 0.400235 0.890368 0.216924
vn 0.207733 0.888979 -0.408122
vn 0.209658 0.890432 -0.403949
vn 0.209177 0.890258 -0.404582
vn 0.209485 0.890343 -0.404235
vn 0.209575 0.890328 -0.404221
vn 0.209439 0.890354 -0.404234
vn 0.209299 0.890569 -0.403832
vn -0.460078 -5.43669e-17 0.887879
vn -0.46019 8.16663e-05 0.887821
vn -0.460078 -0.000168918 0.887879
vn -0.460227 0 0.887801
vn 0.881957 0 0.47133
vn 0.894139 -0 0.447789
vn 0.894139 0 0.447789
vn 0.895594 0 0.444872
vn 0.880935 -0 0.473238
vn 0.880935 0 0.473238
vn 0.454657 0 -0.890666
vn 0.454657 0 -0.890666
vn 0.479621 0 -0.877476
vn 0.479621 0 -0.877476
vn 0.458532 0 -0.888678
vn 0.458532 0 -0.888678
vn 0.467539 0 -0.883972
vn 0.467539 0 -0.883972
vn 0.486955 0 -0.873427
vn -0.918676 0 -0.395012
vn -0.918676 0 -0.395012
vn -0.874355 0.0035621 -0.485274
vn -0.874379 0 -0.485244
vn 0 -1 -6.12685e-17
vn -0.882382 0 -0.470534
vn -0.882337 -0.000147705 -0.470617
vn -0.882382 5.46045e-05 -0.470534
vn -0.882337 0 -0.470618
vn -2.40462e-23 -1 -6.12323e-17
vn -1.74975e-23 -1 -6.12323e-17
vn -1.77736e-24 -1 -6.12323e-17
vn 0 -1 -6.12323e-17
vn 3.2179e-24 -1 -6.12323e-17
vn -1.00339e-22 -1 -6.12324e-17
vn 2.73366e-23 -1 -6.12323e-17
vn -9.12262e-20 -1 -6.1304e-17
vn 0 -1 -6.12323e-17
vn 2.91123e-24 -1 -6.12323e-17
vn -2.56356e-23 -1 -6.12324e-17

# Mesh 'defaultobject' with 62 faces
g defaultobject
usemtl DefaultMaterial
f  1//1 2//1 3//1
f  2//2 4//2 5//2
f  4//2 2//2 6//3
f  6//4 2//4 1//4
f  6//5 1//5 7//5
f  8//6 6//6 9//6
f  6//7 8//7 10//7
f  6//8 10//8 4//8
f  4//9 10//9 11//9
f  12//10 4//10 11//10
f  4//11 12//11 13//11
f  4//12 13//12 14//12
f  4//13 14//13 15//13
f  4//14 15//14 16//14
f  16//15 5//15 4//15
f  5//16 16//16 17//16
f  18//17 6//17 7//17
f  6//18 18//18 9//18
f  9//19 18//19 19//19
f  9//20 19//20 20//20
f  9//21 21//21 8//21
f  21//21 9//21 20//21
f  22//22 11//22 10//22
f  11//22 22//22 23//23
f  11//24 23//24 12//24
f  12//24 23//24 24//24
f  25//25 14//25 13//25
f  14//25 25//25 26//26
f  8//27 22//27 10//27
f  22//27 8//27 21//28
f  24//29 13//29 12//29
f  13//29 24//29 25//30
f  14//31 27//31 15//31
f  27//31 14//31 26//32
f  28//33 17//33 16//33
f  17//33 28//33 29//34
f  30//35 3//35 2//35
f  3//35 30//35 31//35
f  15//36 28//36 16//36
f  28//36 15//36 27//37
f  17//38 2//38 5//38
f  2//39 17//39 29//39
f  2//39 29//39 30//39
f  30//40 29//40 32//40
f  1//41 18//41 7//41
f  18//42 1//42 3//42
f  18//43 3//43 33//43
f  33//44 3//44 31//44
f  28//45 32//40 29//40
f  32//40 28//45 30//40
f  26//46 28//45 27//46
f  28//45 26//46 19//47
f  19//47 26//46 25//48
f  19//47 25//48 20//49
f  20//49 25//48 22//50
f  22//50 25//48 24//51
f  22//50 24//51 23//52
f  20//49 22//50 21//53
f  30//40 33//54 31//54
f  33//54 30//40 18//55
f  18//55 30//40 19//47
f  19//47 30//40 28//45

