# {"id":"ID_24981","idOriginal":"ID_24981","origin":[14.306555945226282,48.27131820440017],"elevation":261.225}
# Longitude: 14.306555945226282
# Latitude: 48.27131820440017
# Elevation: 261.225

# File produced by Open Asset Import Library (http://www.assimp.sf.net)
# (assimp v3.1.0)

mtllib ID_24981.obj.mtl

# 13 vertex positions
v  6.339 10.981 1.274
v  14.144 6.977 1.087
v  6.155 6.977 -6.427
v  7.918 6.977 7.532
v  3.945 10.981 3.753
v  0 7.005 4.28933e-16
v  6.124 6.946 -6.456
v  0 0 0
v  6.124 3.95316e-16 -6.456
v  3.945 -2.29805e-16 3.753
v  7.918 -4.61202e-16 7.532
v  14.144 -6.65596e-17 1.087
v  6.155 3.9354e-16 -6.427

# 0 UV coordinates

# 21 vertex normals
vn 0.40402 0.807618 -0.42956
vn 0.424128 0.807618 0.409716
vn 0.424221 0.807591 0.409675
vn -0.424211 0.807545 -0.409776
vn -0.424182 0.807574 -0.409749
vn -0.424214 0.807598 -0.409668
vn -0.725515 0 -0.688206
vn -0.725516 0 -0.688206
vn -0.689256 -4.43639e-17 0.724518
vn -0.689211 -3.06756e-05 0.72456
vn -0.689256 6.62229e-05 0.724518
vn -0.689195 0 0.724576
vn 0.719221 -0 0.694782
vn 0.683153 0 -0.730275
vn 0.68512 -1.64085e-05 -0.72843
vn 0.683147 0.00423928 -0.730269
vn 0.68512 0 -0.72843
vn -1.07745e-24 -1 -6.12323e-17
vn 0 -1 -6.12323e-17
vn 5.40363e-25 -1 -6.12323e-17
vn -1.68216e-19 -1 -6.08941e-17

# Mesh 'defaultobject' with 22 faces
g defaultobject
usemtl DefaultMaterial
f  1//1 2//1 3//1
f  1//2 4//2 2//2
f  4//3 1//3 5//3
f  6//4 3//4 7//4
f  3//5 6//5 1//5
f  1//6 6//6 5//6
f  7//7 8//7 6//7
f  8//7 7//7 9//8
f  8//9 5//9 6//9
f  5//10 8//10 4//10
f  4//11 8//11 10//11
f  4//12 10//12 11//12
f  11//13 2//13 4//13
f  2//13 11//13 12//13
f  3//14 9//14 7//14
f  9//15 3//15 2//15
f  9//16 2//16 13//16
f  13//17 2//17 12//17
f  10//18 12//18 11//18
f  12//18 10//18 8//19
f  12//18 8//19 9//20
f  12//18 9//20 13//21

