# {"id":"ID_25439","idOriginal":"ID_25439","origin":[14.332982236542351,48.27519181372971],"elevation":257.125,"wof":[{"Id":102049853,"Name":"Linz","Placetype":"county","Offset":-1},{"Id":85632785,"Name":"Austria","Placetype":"country","Offset":-1},{"Id":101748071,"Name":"Linz","Placetype":"locality","Offset":-1},{"Id":85681677,"Name":"Oberösterreich","Placetype":"region","Offset":-1}]}

# Attribution: City of Linz <http://geo.data.linz.gv.at/katalog/geodata/3d_geo_daten_lod2/>
# Longitude: 14.332982236542351
# Latitude: 48.27519181372971
# Elevation: 257.125

# File produced by Open Asset Import Library (http://www.assimp.sf.net)
# (assimp v3.1.0)


# 8 vertex positions
v  12.835 3.399 -2.445
v  1.49 4.47 7.15
v  14.252 4.458 4.633
v  0 3.399 2.08129e-16
v  14.252 -2.83689e-16 4.633
v  12.835 1.49713e-16 -2.445
v  0 0 0
v  1.49 -4.37811e-16 7.15

# 0 UV coordinates

# 12 vertex normals
vn -0.0271922 0.989408 -0.14259
vn -0.0271543 0.989416 -0.142546
vn 0.980543 0 -0.196303
vn 0.980543 0 -0.196303
vn -0.18713 0 -0.982335
vn -0.18713 6.01507e-17 -0.982335
vn -0.978969 0 0.204009
vn -0.978969 0 0.204009
vn 0.193499 -0 0.9811
vn 0.193499 0 0.981101
vn 0 -1 -6.12323e-17
vn 1.10969e-24 -1 -6.12323e-17

# Mesh 'defaultobject' with 12 faces
g defaultobject
usemtl DefaultMaterial
f  1//1 2//1 3//1
f  2//2 1//2 4//2
f  5//3 1//3 3//3
f  1//3 5//3 6//4
f  6//5 4//5 1//5
f  4//5 6//5 7//6
f  4//7 8//7 2//7
f  8//7 4//7 7//8
f  8//9 3//9 2//9
f  3//9 8//9 5//10
f  8//11 6//11 5//11
f  6//11 8//11 7//12

