# {"id":"ID_29928","idOriginal":"ID_29928","origin":[14.338129487652388,48.278033355380465],"elevation":255.17,"wof":[{"Id":85632785,"Name":"Austria","Placetype":"country","Offset":-1},{"Id":102049853,"Name":"Linz","Placetype":"county","Offset":-1},{"Id":101748071,"Name":"Linz","Placetype":"locality","Offset":-1},{"Id":85681677,"Name":"Oberösterreich","Placetype":"region","Offset":-1}]}

# Attribution: City of Linz <http://geo.data.linz.gv.at/katalog/geodata/3d_geo_daten_lod2/>
# Longitude: 14.338129487652388
# Latitude: 48.278033355380465
# Elevation: 255.17

# File produced by Open Asset Import Library (http://www.assimp.sf.net)
# (assimp v3.1.0)


# 12 vertex positions
v  0 19.549 1.19703e-15
v  7.447 19.549 1.531
v  6.887 19.549 -1.391
v  8.718 19.549 8.158
v  1.762 19.549 9.456
v  0.587 19.549 3.151
v  1.762 -5.79013e-16 9.456
v  8.718 -4.99533e-16 8.158
v  6.887 8.51742e-17 -1.391
v  7.447 -9.37467e-17 1.531
v  0 0 0
v  0.587 -1.92943e-16 3.151

# 0 UV coordinates

# 15 vertex normals
vn -0 1 0
vn 0.183435 -0 0.983032
vn 0.9821 0 -0.188358
vn 0.982126 4.71699e-05 -0.188224
vn 0.982108 0 -0.188317
vn 0 -1 -6.12321e-17
vn -0.197977 0 -0.980207
vn -0.197977 6.00203e-17 -0.980207
vn -0.983075 0 0.183206
vn -0.983087 -2.21758e-05 0.183139
vn -0.983075 1.10825e-05 0.183206
vn -0.983087 0 0.183139
vn 0 -1 -6.12323e-17
vn 4.66805e-24 -1 -6.12323e-17
vn 4.66605e-24 -1 -6.12323e-17

# Mesh 'defaultobject' with 20 faces
g defaultobject
usemtl DefaultMaterial
f  1//1 2//1 3//1
f  2//1 1//1 4//1
f  4//1 1//1 5//1
f  5//1 1//1 6//1
f  7//2 4//2 5//2
f  4//2 7//2 8//2
f  8//3 2//3 4//3
f  2//4 8//4 3//4
f  3//5 8//5 9//5
f  9//6 8//6 10//6
f  9//7 1//7 3//7
f  1//7 9//7 11//8
f  6//9 7//9 5//9
f  7//10 6//10 1//10
f  7//11 1//11 12//11
f  12//12 1//12 11//12
f  10//6 11//13 9//6
f  11//13 10//6 8//6
f  11//13 8//6 12//14
f  12//14 8//6 7//15

