# {"id":"ID_48281","idOriginal":"ID_48281","origin":[14.30812573722785,48.33636336877637],"elevation":268.784}
# Longitude: 14.30812573722785
# Latitude: 48.33636336877637
# Elevation: 268.784

# File produced by Open Asset Import Library (http://www.assimp.sf.net)
# (assimp v3.1.0)

mtllib ID_48281.obj.mtl

# 12 vertex positions
v  4.519 2.785 2.678
v  0.914 2.545 4.089
v  4.637 2.591 3.211
v  3.8 4.031 -0.762
v  3.594 4.031 -0.721
v  0 4.031 2.46828e-16
v  3.8 4.6659e-17 -0.762
v  4.637 -1.96617e-16 3.211
v  4.519 -1.6398e-16 2.678
v  0 0 0
v  3.594 4.41485e-17 -0.721
v  0.914 -2.50379e-16 4.089

# 0 UV coordinates

# 19 vertex normals
vn 0.0658024 0.942248 0.328389
vn 0.0655125 0.94251 0.327693
vn 0.0651868 0.942591 0.327524
vn 0.0657611 0.942455 0.327802
vn 0.978848 0 -0.204591
vn 0.977092 0.0103047 -0.212566
vn 0.978521 0 -0.206147
vn -4.66568e-21 -1 -6.12313e-17
vn -0.1952 0 -0.980763
vn -0.196693 -7.93209e-05 -0.980465
vn -0.196612 6.00372e-17 -0.980481
vn 0 1 6.12249e-17
vn -0.975917 -1.33574e-17 0.218143
vn -0.975917 0 0.218143
vn 0.229535 0 0.9733
vn 0.229535 0 0.973301
vn -7.17222e-23 -1 -6.12323e-17
vn 0 -1 -6.12323e-17
vn -3.30339e-24 -1 -6.12323e-17

# Mesh 'defaultobject' with 20 faces
g defaultobject
usemtl DefaultMaterial
f  1//1 2//1 3//1
f  2//2 1//2 4//2
f  2//3 4//3 5//3
f  2//4 5//4 6//4
f  1//5 7//5 4//5
f  7//6 1//6 3//6
f  7//7 3//7 8//7
f  7//8 8//8 9//8
f  7//9 5//9 4//9
f  5//10 7//10 6//10
f  6//11 7//11 10//11
f  10//12 7//12 11//12
f  10//13 2//13 6//13
f  2//13 10//13 12//14
f  2//15 8//15 3//15
f  8//15 2//15 12//16
f  9//8 11//17 7//8
f  11//17 9//8 10//18
f  10//18 9//8 8//8
f  10//18 8//8 12//19

