# {"id":"ID_58770","idOriginal":"ID_58770","origin":[14.291284595804115,48.34037917507833],"elevation":304.987}
# Longitude: 14.291284595804115
# Latitude: 48.34037917507833
# Elevation: 304.987

# File produced by Open Asset Import Library (http://www.assimp.sf.net)
# (assimp v3.1.0)

mtllib ID_58770.obj.mtl

# 8 vertex positions
v  1.713 2.796 -3.041
v  0 2.796 1.71206e-16
v  1.125 2.796 0.267
v  0.603 2.796 -3.316
v  1.125 -1.6349e-17 0.267
v  1.713 1.86208e-16 -3.041
v  0.603 2.03046e-16 -3.316
v  0 0 0

# 0 UV coordinates

# 9 vertex normals
vn 0 1 0
vn 0.984567 -0 0.175008
vn 0.240478 0 -0.970655
vn -0.983865 0 -0.178912
vn -0.983865 1.09552e-17 -0.178912
vn -0.230919 -5.95774e-17 0.972973
vn -0.230919 0 0.972973
vn 0 -1 -6.12323e-17
vn 3.44069e-24 -1 -6.12323e-17

# Mesh 'defaultobject' with 12 faces
g defaultobject
usemtl DefaultMaterial
f  1//1 2//1 3//1
f  2//1 1//1 4//1
f  5//2 1//2 3//2
f  1//2 5//2 6//2
f  6//3 4//3 1//3
f  4//3 6//3 7//3
f  7//4 2//4 4//4
f  2//4 7//4 8//5
f  8//6 3//6 2//6
f  3//6 8//6 5//7
f  8//8 6//8 5//8
f  6//8 8//8 7//9

