# {"id":"ID_17244","idOriginal":"ID_17244","origin":[14.29161680934335,48.35027039225691],"elevation":308.983}
# Longitude: 14.29161680934335
# Latitude: 48.35027039225691
# Elevation: 308.983

# File produced by Open Asset Import Library (http://www.assimp.sf.net)
# (assimp v3.1.0)

mtllib ID_17244.obj.mtl

# 30 vertex positions
v  10.398 7.53 -2.691
v  1.691 11.471 7.201
v  12.194 11.471 3.102
v  9.863 6.707 -3.837
v  0.591 6.7 -0.23
v  0 6.7 4.10257e-16
v  14.815 6.706 9.931
v  14.184 7.101 9.525
v  12.496 6.706 10.836
v  14.688 7.066 9.387
v  15.089 6.706 9.824
v  14.924 7.049 9.323
v  4.005 6.705 14.15
v  3.379 6.706 14.394
v  8.817 6.705 12.272
v  10.398 1.64776e-16 -2.691
v  9.863 2.34948e-16 -3.837
v  0.591 1.40834e-17 -0.23
v  0 0 0
v  14.184 -5.83238e-16 9.525
v  14.924 -5.70869e-16 9.323
v  14.688 -5.74788e-16 9.387
v  1.691 -4.40934e-16 7.201
v  3.379 -8.81378e-16 14.394
v  4.005 -8.66438e-16 14.15
v  8.817 -7.51443e-16 12.272
v  12.496 -6.63514e-16 10.836
v  14.815 -6.08098e-16 9.931
v  15.089 -6.01547e-16 9.824
v  12.194 -1.89943e-16 3.102

# 0 UV coordinates

# 54 vertex normals
vn -0.198449 0.837886 -0.508492
vn -0.198832 0.837649 -0.508735
vn -0.19847 0.837846 -0.508551
vn -0.197956 0.8379 -0.508662
vn 0.198148 0.838414 0.50774
vn 0.197442 0.8381 0.508532
vn 0.198474 0.838031 0.508245
vn 0.19824 0.837981 0.508418
vn 0.199429 0.837822 0.508215
vn 0.198474 0.837846 0.508549
vn 0.198472 0.837846 0.508551
vn 0.198256 0.837921 0.508511
vn 0.198823 0.837833 0.508434
vn 0.906123 0 -0.423015
vn 0.906123 0 -0.423015
vn -0.362553 0 -0.931963
vn -0.362553 -0 -0.931963
vn -0.362675 -0 -0.931916
vn -0.362675 5.70634e-17 -0.931916
vn -0.264088 0 -0.964499
vn -0.261745 -0.000179567 -0.965137
vn -0.263338 0 -0.964704
vn 1.59149e-20 1 6.12909e-17
vn -0.973518 -1.39983e-17 0.22861
vn -0.973542 6.72905e-05 0.228508
vn -0.973518 -0.000162767 0.22861
vn -0.973552 0 0.228466
vn 0.363165 -0 0.931725
vn 0.363567 -4.32408e-05 0.931568
vn 0.363165 0.000332576 0.931725
vn 0.363567 0 0.931568
vn 0.363607 0 0.931553
vn 0.363551 3.50627e-05 0.931574
vn 0.363607 -2.20917e-05 0.931553
vn 0.363756 -8.17133e-05 0.931494
vn 0.363551 9.65473e-06 0.931574
vn 0.363756 0 0.931494
vn 0.949815 0 -0.312813
vn 0.949815 0 -0.312813
vn 0.955177 -0.000144155 -0.296035
vn 0.955179 0 -0.29603
vn 0.955149 0.000177415 -0.296124
vn 0.955205 0 -0.295945
vn -6.94082e-23 -1 -6.12323e-17
vn 3.02787e-23 -1 -6.12323e-17
vn -1.96874e-22 -1 -6.12327e-17
vn 6.18741e-23 -1 -6.12323e-17
vn -7.87152e-24 -1 -6.12323e-17
vn 0 -1 -6.12323e-17
vn 5.8769e-24 -1 -6.12323e-17
vn 2.454e-23 -1 -6.12323e-17
vn 6.48121e-24 -1 -6.12323e-17
vn -8.61252e-23 -1 -6.12323e-17
vn -9.1448e-23 -1 -6.12323e-17

# Mesh 'defaultobject' with 56 faces
g defaultobject
usemtl DefaultMaterial
f  1//1 2//1 3//1
f  2//2 1//2 4//2
f  2//3 4//3 5//3
f  2//4 5//4 6//4
f  7//5 8//5 9//5
f  8//6 7//6 10//6
f  10//7 7//7 11//7
f  10//8 11//8 12//8
f  13//9 2//9 14//9
f  2//10 13//10 15//10
f  2//10 15//10 3//11
f  3//12 15//12 9//12
f  3//13 9//13 8//13
f  16//14 4//14 1//14
f  4//14 16//14 17//15
f  17//16 5//16 4//16
f  5//16 17//16 18//17
f  5//18 18//18 6//18
f  6//18 18//18 19//19
f  10//20 20//20 8//20
f  20//21 10//21 12//21
f  20//22 12//22 21//22
f  20//23 21//23 22//23
f  19//24 2//24 6//24
f  2//25 19//25 14//25
f  14//26 19//26 23//26
f  14//27 23//27 24//27
f  24//28 13//28 14//28
f  13//29 24//29 15//29
f  15//30 24//30 25//30
f  15//31 25//31 26//31
f  15//32 26//32 9//32
f  9//33 26//33 7//33
f  7//34 26//34 27//34
f  7//35 27//35 11//35
f  11//36 27//36 28//36
f  11//37 28//37 29//37
f  11//38 21//38 12//38
f  21//38 11//38 29//39
f  8//40 1//40 3//40
f  1//41 8//41 16//41
f  16//42 8//42 30//42
f  30//43 8//43 20//43
f  28//44 21//44 29//44
f  21//44 28//44 27//45
f  21//44 27//45 22//46
f  22//46 27//45 20//47
f  20//47 27//45 30//48
f  30//48 27//45 26//49
f  30//48 26//49 16//50
f  16//50 26//49 25//51
f  16//50 25//51 17//52
f  17//52 25//51 18//49
f  18//49 25//51 24//53
f  18//49 24//53 23//54
f  18//49 23//54 19//49

