# {"id":"ID_44889","idOriginal":"ID_44889","origin":[14.267263937230874,48.314189625105186],"elevation":318.812,"wof":[{"Id":102049853,"Name":"Linz","Placetype":"county","Offset":-1},{"Id":85681677,"Name":"Oberösterreich","Placetype":"region","Offset":-1},{"Id":101748071,"Name":"Linz","Placetype":"locality","Offset":-1},{"Id":85898453,"Name":"Urfahr","Placetype":"neighbourhood","Offset":-1},{"Id":85632785,"Name":"Austria","Placetype":"country","Offset":-1}]}

# Attribution: City of Linz <http://geo.data.linz.gv.at/katalog/geodata/3d_geo_daten_lod2/>
# Longitude: 14.267263937230874
# Latitude: 48.314189625105186
# Elevation: 318.812

# File produced by Open Asset Import Library (http://www.assimp.sf.net)
# (assimp v3.1.0)


# 10 vertex positions
v  3.05 4.122 -1.429
v  4.587 3.276 1.215
v  5.695 3.276 -2.966
v  0 3.276 2.00597e-16
v  2.645 4.122 -1.537
v  1.108 3.276 -4.181
v  1.108 2.56012e-16 -4.181
v  0 0 0
v  4.587 -7.43973e-17 1.215
v  5.695 1.81615e-16 -2.966

# 0 UV coordinates

# 14 vertex normals
vn 0.352097 0.931301 0.0933086
vn -0.0932924 0.931261 0.352208
vn -0.0937184 0.931506 0.351444
vn 0.0932924 0.931261 -0.352208
vn 0.0937183 0.931506 -0.351444
vn -0.352097 0.931301 -0.0933086
vn -0.966633 0 -0.256166
vn -0.966633 1.56856e-17 -0.256166
vn -0.256049 -5.91911e-17 0.966664
vn -0.256049 0 0.966664
vn 0.966633 -0 0.256166
vn 0.256049 0 -0.966664
vn 5.15868e-24 -1 -6.12323e-17
vn -1.03174e-23 -1 -6.12323e-17

# Mesh 'defaultobject' with 16 faces
g defaultobject
usemtl DefaultMaterial
f  1//1 2//1 3//1
f  1//2 4//2 2//2
f  4//3 1//3 5//3
f  5//4 3//4 6//4
f  3//5 5//5 1//5
f  5//6 6//6 4//6
f  7//7 4//7 6//7
f  4//7 7//7 8//8
f  8//9 2//9 4//9
f  2//9 8//9 9//10
f  9//11 3//11 2//11
f  3//11 9//11 10//11
f  10//12 6//12 3//12
f  6//12 10//12 7//12
f  7//13 9//13 8//13
f  9//13 7//13 10//14

