# {"id":"ID_55769","idOriginal":"ID_55769","origin":[14.27546984355398,48.25947083888972],"elevation":279.852,"wof":[{"Id":102049853,"Name":"Linz","Placetype":"county","Offset":-1},{"Id":85681677,"Name":"Oberösterreich","Placetype":"region","Offset":-1},{"Id":85898435,"Name":"Oed","Placetype":"neighbourhood","Offset":-1},{"Id":85632785,"Name":"Austria","Placetype":"country","Offset":-1}]}

# Attribution: City of Linz <http://geo.data.linz.gv.at/katalog/geodata/3d_geo_daten_lod2/>
# Longitude: 14.27546984355398
# Latitude: 48.25947083888972
# Elevation: 279.852

# File produced by Open Asset Import Library (http://www.assimp.sf.net)
# (assimp v3.1.0)


# 12 vertex positions
v  3.04 1.392 2.864
v  1.151 1.392 1.441
v  1.253 1.392 2.895
v  2.752 1.392 -0.168
v  0 1.392 8.52354e-17
v  0.16 1.392 1.503
v  0 0 0
v  0.16 -9.20322e-17 1.503
v  1.151 -8.82358e-17 1.441
v  1.253 -1.77268e-16 2.895
v  3.04 -1.75369e-16 2.864
v  2.752 1.0287e-17 -0.168

# 0 UV coordinates

# 13 vertex normals
vn 0 1 0
vn -0.994382 -6.48179e-18 0.105856
vn -0.994382 0 0.105856
vn -0.997548 0 0.0699793
vn 0.062441 -0 0.998049
vn 0.0173448 -0 0.99985
vn 0.995519 0 -0.0945612
vn -0.0609331 0 -0.998142
vn -0.0609331 6.11186e-17 -0.998142
vn 2.59108e-24 -1 -6.12323e-17
vn 0 -1 -6.12323e-17
vn 0 -1 -6.12323e-17
vn 0 -1 -6.12323e-17

# Mesh 'defaultobject' with 20 faces
g defaultobject
usemtl DefaultMaterial
f  1//1 2//1 3//1
f  2//1 1//1 4//1
f  2//1 4//1 5//1
f  5//1 6//1 2//1
f  7//2 6//2 5//2
f  6//2 7//2 8//3
f  9//4 3//4 2//4
f  3//4 9//4 10//4
f  8//5 2//5 6//5
f  2//5 8//5 9//5
f  10//6 1//6 3//6
f  1//6 10//6 11//6
f  11//7 4//7 1//7
f  4//7 11//7 12//7
f  12//8 5//8 4//8
f  5//8 12//8 7//9
f  10//10 12//10 11//10
f  12//10 10//10 9//11
f  12//10 9//11 8//12
f  12//10 8//12 7//13

