# {"id":"ID_41467","idOriginal":"ID_41467","origin":[14.276259285275787,48.316751582338156],"elevation":284.285,"wof":[{"Id":102049853,"Name":"Linz","Placetype":"county","Offset":-1},{"Id":85681677,"Name":"Oberösterreich","Placetype":"region","Offset":-1},{"Id":85632785,"Name":"Austria","Placetype":"country","Offset":-1},{"Id":85898453,"Name":"Urfahr","Placetype":"neighbourhood","Offset":-1},{"Id":101748071,"Name":"Linz","Placetype":"locality","Offset":-1}]}

# Attribution: City of Linz <http://geo.data.linz.gv.at/katalog/geodata/3d_geo_daten_lod2/>
# Longitude: 14.276259285275787
# Latitude: 48.316751582338156
# Elevation: 284.285

# File produced by Open Asset Import Library (http://www.assimp.sf.net)
# (assimp v3.1.0)


# 18 vertex positions
v  0.597 3.091 3.764
v  4.254 2.711 -0.703
v  0 3.091 1.89269e-16
v  6.64 2.549 2.648
v  6.64 2.498 -1.097
v  6.986 2.467 -1.154
v  7.474 2.475 2.494
v  7.712 2.454 2.528
v  7.487 2.474 2.568
v  7.487 -1.57245e-16 2.568
v  7.712 -1.54795e-16 2.528
v  0.597 -2.30479e-16 3.764
v  6.64 -1.62143e-16 2.648
v  7.474 -1.52713e-16 2.494
v  6.986 7.06621e-17 -1.154
v  6.64 6.71719e-17 -1.097
v  4.254 4.30463e-17 -0.703
v  0 0 0

# 0 UV coordinates

# 32 vertex normals
vn 0.08671 0.996139 -0.0137529
vn 0.0868205 0.99613 -0.0136618
vn 0.0866864 0.996143 -0.0135657
vn 0.0870122 0.996115 -0.0135653
vn 0.0858686 0.996213 -0.0136715
vn 0.0898987 0.99585 -0.0142098
vn 0.0881812 0.996102 -0.00203144
vn 0.175034 -0 0.984562
vn 0.175034 0 0.984562
vn 0.181606 -0 0.983371
vn 0.181606 0 0.983371
vn 0.181583 0 0.983376
vn 0.181583 0 0.983376
vn 0.98111 0 -0.193451
vn 0.98111 0 -0.193451
vn -0.162549 0 -0.9867
vn -0.162928 -5.39701e-05 -0.986638
vn -0.162549 0.000338699 -0.9867
vn -0.162924 -0 -0.986639
vn -0.163045 -0 -0.986619
vn -0.163045 6.0413e-17 -0.986619
vn -0.987654 -9.59203e-18 0.15665
vn -0.987654 0 0.15665
vn -0.984917 0 0.173026
vn -0.984917 0 0.173026
vn 8.05446e-25 -1 -6.12323e-17
vn 0 -1 -6.12323e-17
vn 0 -1 -6.12323e-17
vn 0 -1 -6.12323e-17
vn -4.24524e-24 -1 -6.12323e-17
vn -8.45022e-23 -1 -6.12323e-17
vn -8.0544e-23 -1 -6.12324e-17

# Mesh 'defaultobject' with 32 faces
g defaultobject
usemtl DefaultMaterial
f  1//1 2//1 3//1
f  2//2 1//2 4//2
f  2//3 4//3 5//3
f  5//4 4//4 6//4
f  6//5 4//5 7//5
f  6//6 7//6 8//6
f  8//7 7//7 9//7
f  10//8 8//8 9//8
f  8//8 10//8 11//9
f  12//10 4//10 1//10
f  4//10 12//10 13//11
f  4//12 13//12 7//12
f  7//12 13//12 14//13
f  8//14 15//14 6//14
f  15//14 8//14 11//15
f  15//16 5//16 6//16
f  5//17 15//17 2//17
f  2//18 15//18 16//18
f  2//19 16//19 17//19
f  2//20 17//20 3//20
f  3//20 17//20 18//21
f  18//22 1//22 3//22
f  1//22 18//22 12//23
f  14//24 9//24 7//24
f  9//24 14//24 10//25
f  17//26 12//26 18//26
f  12//26 17//26 16//27
f  12//26 16//27 13//28
f  13//28 16//27 15//29
f  13//28 15//29 14//30
f  14//30 15//29 11//31
f  14//30 11//31 10//32

