# {"id":"ID_38982","idOriginal":"ID_38982","origin":[14.346441515725125,48.27936585816561],"elevation":253.279}
# Longitude: 14.346441515725125
# Latitude: 48.27936585816561
# Elevation: 253.279

# File produced by Open Asset Import Library (http://www.assimp.sf.net)
# (assimp v3.1.0)

mtllib ID_38982.obj.mtl

# 13 vertex positions
v  4 2.486 -0.439
v  4.554 0.555 3.547
v  8 0.555 -0.877
v  4.184 0.555 3.259
v  0 0.553 3.38615e-17
v  3.447 0.553 -4.424
v  2.861 0.553 -3.672
v  3.447 2.70892e-16 -4.424
v  2.861 2.24845e-16 -3.672
v  0 0 0
v  4.184 -1.99556e-16 3.259
v  4.554 -2.17191e-16 3.547
v  8 5.37008e-17 -0.877

# 0 UV coordinates

# 19 vertex normals
vn 0.438658 0.831162 0.341685
vn -0.348283 0.823705 0.447447
vn -0.348859 0.823503 0.44737
vn 0.348482 0.823438 -0.447783
vn -0.438991 0.830821 -0.342086
vn -0.43903 0.830809 -0.342066
vn -0.788787 0 -0.614667
vn -0.788831 -0 -0.61461
vn -0.788831 3.7634e-17 -0.61461
vn -0.614502 -4.83071e-17 0.788915
vn -0.614502 0 0.788915
vn -0.614236 0 0.789123
vn 0.78891 -0 0.614508
vn 0.614564 0 -0.788867
vn 0.614564 0 -0.788867
vn -4.28875e-24 -1 -6.12323e-17
vn -4.18787e-23 -1 -6.12323e-17
vn -6.5425e-24 -1 -6.12323e-17
vn -5.03357e-24 -1 -6.12323e-17

# Mesh 'defaultobject' with 22 faces
g defaultobject
usemtl DefaultMaterial
f  1//1 2//1 3//1
f  1//2 4//2 2//2
f  4//3 1//3 5//3
f  1//4 3//4 6//4
f  7//5 1//5 6//5
f  1//6 7//6 5//6
f  8//7 7//7 6//7
f  7//7 8//7 9//7
f  7//8 9//8 5//8
f  5//8 9//8 10//9
f  10//10 4//10 5//10
f  4//10 10//10 11//11
f  4//12 11//12 2//12
f  2//12 11//12 12//12
f  12//13 3//13 2//13
f  3//13 12//13 13//13
f  13//14 6//14 3//14
f  6//14 13//14 8//15
f  9//16 11//16 10//16
f  11//16 9//16 8//17
f  11//16 8//17 13//18
f  11//16 13//18 12//19

