# {"id":"ID_38357","idOriginal":"ID_38357","origin":[14.306200521243545,48.26090219720435],"elevation":261.919}
# Longitude: 14.306200521243545
# Latitude: 48.26090219720435
# Elevation: 261.919

# File produced by Open Asset Import Library (http://www.assimp.sf.net)
# (assimp v3.1.0)

mtllib ID_38357.obj.mtl

# 27 vertex positions
v  3.915 3.088 1.064
v  8.304 1.672 1.601
v  6.833 3.088 -0.75
v  3.839 1.662 4.4
v  3.346 2.177 3.518
v  1.826 1.611 -1.044
v  5.378 1.687 -3.076
v  0 1.571 9.6196e-17
v  0.037 1.611 0.067
v  0.099 1.676 0.179
v  3.071 2.192 3.025
v  2.095 1.611 3.609
v  1.218 1.611 2.207
v  2.017 1.564 3.656
v  0 0 0
v  2.017 -2.23865e-16 3.656
v  0.037 -4.10257e-18 0.067
v  0.099 -1.09606e-17 0.179
v  1.218 -1.3514e-16 2.207
v  3.071 -1.85228e-16 3.025
v  3.839 -2.69422e-16 4.4
v  3.346 -2.15415e-16 3.518
v  2.095 -2.20988e-16 3.609
v  8.304 -9.8033e-17 1.601
v  6.833 4.59243e-17 -0.75
v  5.378 1.88351e-16 -3.076
v  1.826 6.39266e-17 -1.044

# 0 UV coordinates

# 43 vertex normals
vn 0.240085 0.890623 0.3862
vn 0.24009 0.890631 0.386177
vn 0.239545 0.89076 0.38622
vn -0.240035 0.890602 -0.386278
vn -0.240111 0.890774 -0.385835
vn -0.240231 0.88611 -0.396356
vn -0.239953 0.891395 -0.384496
vn -0.240025 0.89068 -0.386105
vn -0.384511 0.890946 0.241591
vn -0.388866 0.888602 0.243249
vn -0.386699 0.889916 0.241894
vn -0.385704 0.890502 0.241326
vn -0.385473 0.890676 0.241054
vn -0.875521 0.00256799 0.483173
vn -0.875524 0.00054136 0.483175
vn -0.87552 0 0.483182
vn -0.875685 0.000534822 0.482883
vn -0.875588 0 0.483058
vn 0 -1 -6.12811e-17
vn -6.98253e-20 -1 -6.12019e-17
vn -2.49994e-20 -1 -6.12235e-17
vn -0.873321 0 0.487146
vn -0.872944 -0.000200431 0.487821
vn -0.873047 0 0.487636
vn -3.97692e-20 1 6.12445e-17
vn 0.513461 0 0.858113
vn 0.515403 0.00159937 0.856946
vn 0.513658 0 0.857995
vn 5.16767e-21 -1 -6.12266e-17
vn 0.531141 0 0.847283
vn 0.531141 0 0.847283
vn 0.847735 0 -0.53042
vn 0.847735 0 -0.53042
vn 0.847793 0 -0.530327
vn 0.847793 0 -0.530327
vn -0.49656 0 -0.868002
vn -0.49656 -0 -0.868002
vn -0.496344 -0 -0.868126
vn -0.496344 5.31574e-17 -0.868126
vn 3.62239e-24 -1 -6.12323e-17
vn 2.04413e-23 -1 -6.12323e-17
vn -3.69671e-24 -1 -6.12323e-17
vn -5.13373e-24 -1 -6.12324e-17

# Mesh 'defaultobject' with 50 faces
g defaultobject
usemtl DefaultMaterial
f  1//1 2//1 3//1
f  2//2 1//2 4//2
f  4//3 1//3 5//3
f  6//4 3//4 7//4
f  3//5 6//5 8//5
f  3//6 8//6 9//6
f  3//7 9//7 10//7
f  3//8 10//8 1//8
f  1//9 11//9 5//9
f  12//10 13//10 14//10
f  13//11 12//11 10//11
f  10//12 12//12 11//12
f  10//13 11//13 1//13
f  9//14 13//14 10//14
f  13//15 9//15 8//15
f  13//16 8//16 15//16
f  13//17 15//17 14//17
f  14//18 15//18 16//18
f  16//19 15//19 17//19
f  16//19 17//19 18//20
f  16//19 18//20 19//21
f  20//22 5//22 11//22
f  5//23 20//23 4//23
f  4//24 20//24 21//24
f  21//25 20//25 22//25
f  12//26 20//26 11//26
f  20//27 12//27 14//27
f  20//28 14//28 16//28
f  20//29 16//19 23//29
f  4//30 24//30 2//30
f  24//30 4//30 21//31
f  24//32 3//32 2//32
f  3//32 24//32 25//33
f  3//34 25//34 7//34
f  7//34 25//34 26//35
f  26//36 6//36 7//36
f  6//36 26//36 27//37
f  6//38 27//38 8//38
f  8//38 27//38 15//39
f  21//40 25//40 24//40
f  25//40 21//40 22//41
f  25//40 22//41 26//42
f  26//42 22//41 20//29
f  26//42 20//29 23//29
f  26//42 23//29 16//19
f  26//42 16//19 19//21
f  26//42 19//21 27//43
f  27//43 19//21 18//20
f  27//43 18//20 15//19
f  15//19 18//20 17//19

