# {"id":"_8100","idOriginal":"_8100","origin":[14.29171025979807,48.29782434291956],"elevation":261.506,"wof":[{"Id":102049853,"Name":"Linz","Placetype":"county","Offset":-1},{"Id":85632785,"Name":"Austria","Placetype":"country","Offset":-1},{"Id":101748071,"Name":"Linz","Placetype":"locality","Offset":-1},{"Id":85681677,"Name":"Oberösterreich","Placetype":"region","Offset":-1},{"Id":85898449,"Name":"Steeg","Placetype":"neighbourhood","Offset":-1}]}

# Attribution: City of Linz <http://geo.data.linz.gv.at/katalog/geodata/3d_geo_daten_lod2/>
# Longitude: 14.29171025979807
# Latitude: 48.29782434291956
# Elevation: 261.506

# File produced by Open Asset Import Library (http://www.assimp.sf.net)
# (assimp v3.1.0)


# 78 vertex positions
v  7.624 23.811 -0.396
v  13.088 23.167 11.308
v  13.202 23.138 11.269
v  10.035 23.811 10.159
v  11.111 23.164 11.994
v  7.917 23.169 13.068
v  13.216 23.133 11.264
v  8.516 23.168 -2.888
v  8.601 23.133 -2.916
v  5.794 23.164 -1.971
v  5.718 23.133 -1.945
v  7.782 23.133 13.113
v  7.797 23.139 13.108
v  13.202 -6.90027e-16 11.269
v  11.111 -7.34421e-16 11.994
v  7.917 -8.00184e-16 13.068
v  7.782 -8.0294e-16 13.113
v  13.088 -6.92415e-16 11.308
v  7.797 -8.02633e-16 13.108
v  13.216 -6.89721e-16 11.264
v  8.601 1.78554e-16 -2.916
v  8.516 1.76839e-16 -2.888
v  5.718 1.19097e-16 -1.945
v  5.794 1.20689e-16 -1.971
v  19.822 20.684 1.591
v  17.033 20.684 1.37
v  20.851 20.684 4.415
v  17.078 20.684 1.354
v  18.444 20.684 0.865
v  19.504 20.684 9.082
v  8.601 20.684 -2.916
v  13.216 20.684 11.264
v  18.931 20.684 6.98
v  18.807 20.684 6.527
v  18.875 20.684 6.505
v  20.237 20.684 6.063
v  20.901 20.684 4.685
v  14.787 20.684 -4.999
v  20.851 -2.70341e-16 4.415
v  19.822 -9.74207e-17 1.591
v  17.033 -8.38883e-17 1.37
v  14.787 3.061e-16 -4.999
v  19.504 -5.56112e-16 9.082
v  18.807 -3.99663e-16 6.527
v  18.931 -4.27402e-16 6.98
v  20.901 -2.86874e-16 4.685
v  18.444 -5.2966e-17 0.865
v  17.078 -8.29086e-17 1.354
v  20.237 -3.71252e-16 6.063
v  18.875 -3.98316e-16 6.505
v  0.872 18.023 -0.314
v  7.782 22.568 13.113
v  5.718 22.568 -1.945
v  0.896 18.032 -0.215
v  0 17.203 1.05338e-15
v  0.3 17.198 2.23
v  0.88 17.206 6.39
v  0.959 17.204 6.98
v  1.08 17.201 7.89
v  1.4 17.216 10.1
v  1.98 17.203 14.44
v  2.273 17.47 14.401
v  2.37 17.503 14.84
v  2.382 17.503 14.929
v  2.33 17.469 14.83
v  2.273 -8.81807e-16 14.401
v  2.33 -9.08076e-16 14.83
v  2.37 -9.08688e-16 14.84
v  2.382 -9.14138e-16 14.929
v  0.896 1.3165e-17 -0.215
v  0.872 1.9227e-17 -0.314
v  0 0 0
v  1.4 -6.18447e-16 10.1
v  1.98 -8.84195e-16 14.44
v  0.3 -1.36548e-16 2.23
v  0.959 -4.27402e-16 6.98
v  0.88 -3.91275e-16 6.39
v  1.08 -4.83123e-16 7.89

# 0 UV coordinates

# 116 vertex normals
vn 0.228976 0.971965 -0.0534159
vn 0.224573 0.973106 -0.0512976
vn 0.0958865 0.955049 0.280514
vn 0.0958304 0.955045 0.280546
vn 0.305826 0.947674 -0.0915659
vn 0.346347 0.93131 -0.112722
vn 0.350866 0.929433 -0.114227
vn -0.0959886 0.954965 -0.280765
vn -0.364992 0.930062 0.0420218
vn -0.37116 0.927174 0.0508749
vn -0.356239 0.933002 0.0509929
vn -0.226093 0.972754 0.0513037
vn -0.224527 0.973117 0.051287
vn 0.327739 0.0180425 0.944596
vn 0.234371 -0.67444 0.700144
vn 0.321993 -0.0261295 0.946382
vn 0.322107 0 0.946703
vn 0.316742 -0.00139675 0.948511
vn 0.327591 0.00143954 0.944818
vn 0.318719 1.61582e-05 0.947849
vn 0.316229 0 0.948683
vn 1.25783e-20 -1 -6.11962e-17
vn -8.19128e-17 -1 -3.05988e-16
vn 0.336345 -0 0.941739
vn 0.336345 0 0.941739
vn 0.950906 0 -0.30948
vn -0.319186 -0.017139 -0.947537
vn -0.319063 0 -0.947734
vn -0.32347 -0.000595076 -0.946238
vn -0.312871 0.000875019 -0.949795
vn -0.319376 -0 -0.947628
vn -3.63857e-21 1 6.12214e-17
vn -0.990736 0 0.1358
vn 2.15759e-21 -1 -6.1233e-17
vn 6.9939e-24 -1 -6.12323e-17
vn 8.1627e-21 -1 -6.12079e-17
vn 3.06421e-21 -1 -6.12351e-17
vn 0 1 -0
vn 0.93957 0 -0.342357
vn 0.943078 0 -0.332572
vn 0.964796 0 -0.263001
vn 0.964517 -0.000111183 -0.264019
vn 0.964746 0 -0.263181
vn -4.28859e-20 1 6.12441e-17
vn 0.983281 0 -0.182093
vn 0.466117 0 -0.884723
vn -0.337035 0 -0.941492
vn -0.335022 0.000149865 -0.94221
vn -0.336971 -0 -0.941515
vn -2.235e-20 -1 -6.12942e-17
vn -0.319122 0 -0.947714
vn -0.950906 0 0.30948
vn 0.327833 -0 0.944736
vn 0.307815 -0 0.951446
vn 0.308675 -3.12578e-06 0.951167
vn 0.308635 0 0.951181
vn 8.93612e-21 1 6.1266e-17
vn 0.900869 -0 0.434091
vn -1.70715e-23 -1 -6.12323e-17
vn 6.59961e-24 -1 -6.12324e-17
vn -4.60026e-23 -1 -6.12323e-17
vn -1.52711e-23 -1 -6.12323e-17
vn 1.37129e-23 -1 -6.12323e-17
vn -4.81346e-24 -1 -6.12323e-17
vn 4.50022e-24 -1 -6.12323e-17
vn -4.80427e-24 -1 -6.12323e-17
vn 4.32585e-25 -1 -6.12323e-17
vn -0.664758 0.741481 0.0911184
vn -0.669807 0.736377 0.0954377
vn -0.664486 0.741756 0.0908651
vn -0.664704 0.741534 0.0910845
vn -0.664859 0.741372 0.0912709
vn -0.665005 0.741206 0.0915547
vn -0.664661 0.741604 0.0908229
vn -0.664823 0.741409 0.0912321
vn -0.664788 0.741461 0.0910637
vn -0.662282 0.741983 0.104137
vn -0.664806 0.741433 0.0911571
vn -0.665153 0.741302 0.0896832
vn -0.657921 0.747791 0.0891581
vn -0.991288 0 0.131709
vn -0.991288 0 0.13171
vn -0.991032 0 0.133624
vn -0.97185 0 0.2356
vn -0.97185 0 0.2356
vn -0.991072 -8.16399e-18 0.133328
vn -0.99042 -0.000628653 0.138089
vn -0.991153 0.00140323 0.132718
vn -0.991273 0.00177744 0.131813
vn -0.989669 -0.0036039 0.143325
vn -0.991183 0.00288683 0.132471
vn -0.990529 -0.00124278 0.137301
vn -0.991188 0 0.132463
vn 0 1 6.12327e-17
vn 0 1 6.12326e-17
vn 9.76016e-22 -1 -6.12324e-17
vn 2.22531e-21 1 6.12323e-17
vn 0.131941 0 0.991258
vn -0.242541 0 0.970141
vn -0.242541 0 0.970141
vn 0.318754 0 0.947837
vn 0.318754 0 0.947837
vn 0.990736 0 -0.1358
vn -0.318984 0 -0.94776
vn -0.318984 -0 -0.94776
vn -0.233332 0 -0.972397
vn -0.233332 5.95422e-17 -0.972397
vn 4.16292e-23 -1 -6.12321e-17
vn -5.26876e-22 -1 -6.12339e-17
vn 3.78938e-21 -1 -6.12329e-17
vn -1.10959e-23 -1 -6.12323e-17
vn -3.65765e-23 -1 -6.12323e-17
vn 0 -1 -6.12323e-17
vn -2.90513e-23 -1 -6.12323e-17
vn -4.02887e-24 -1 -6.12324e-17
vn -8.16013e-24 -1 -6.12323e-17

# Mesh 'defaultobject' with 152 faces
g defaultobject
usemtl DefaultMaterial
f  1//1 2//1 3//1
f  2//2 1//2 4//2
f  4//3 5//3 2//3
f  5//4 4//4 6//4
f  1//5 3//5 7//5
f  8//6 7//6 9//6
f  7//7 8//7 1//7
f  1//8 8//8 10//8
f  11//9 1//9 10//9
f  1//10 11//10 12//10
f  1//11 12//11 13//11
f  6//12 1//12 13//12
f  1//13 6//13 4//13
f  5//14 3//14 2//14
f  3//15 5//15 6//15
f  3//16 6//16 13//16
f  3//17 13//17 14//17
f  14//18 13//18 12//18
f  14//19 12//19 15//19
f  15//20 12//20 16//20
f  16//21 12//21 17//21
f  14//22 15//22 18//22
f  16//23 17//23 19//23
f  14//24 7//24 3//24
f  7//24 14//24 20//25
f  20//26 9//26 7//26
f  9//26 20//26 21//26
f  9//27 10//27 8//27
f  10//28 9//28 21//28
f  10//29 21//29 11//29
f  11//30 21//30 22//30
f  11//31 22//31 23//31
f  23//32 22//32 24//32
f  23//33 12//33 11//33
f  12//33 23//33 17//33
f  14//22 21//34 20//34
f  21//34 14//22 18//22
f  21//34 18//22 15//22
f  21//34 15//22 16//23
f  21//34 16//23 19//23
f  21//34 19//23 17//23
f  21//34 17//23 23//35
f  21//34 23//35 22//36
f  22//36 23//35 24//37
f  25//38 26//38 27//38
f  26//38 25//38 28//38
f  28//38 25//38 29//38
f  30//38 31//38 32//38
f  31//38 30//38 33//38
f  31//38 33//38 34//38
f  31//38 34//38 35//38
f  31//38 35//38 36//38
f  31//38 36//38 37//38
f  31//38 37//38 27//38
f  31//38 27//38 26//38
f  31//38 26//38 38//38
f  39//39 25//39 27//39
f  25//39 39//39 40//39
f  41//40 38//40 26//40
f  38//40 41//40 42//40
f  43//41 33//41 30//41
f  33//42 43//42 34//42
f  34//43 43//43 44//43
f  44//44 43//44 45//44
f  46//45 27//45 37//45
f  27//45 46//45 39//45
f  40//46 29//46 25//46
f  29//46 40//46 47//46
f  47//47 28//47 29//47
f  28//48 47//48 26//48
f  26//49 47//49 41//49
f  41//50 47//50 48//50
f  42//51 31//51 38//51
f  31//51 42//51 21//51
f  21//52 32//52 31//52
f  32//52 21//52 20//52
f  20//53 30//53 32//53
f  30//53 20//53 43//53
f  44//54 35//54 34//54
f  35//55 44//55 36//55
f  36//56 44//56 49//56
f  49//57 44//44 50//57
f  49//58 37//58 36//58
f  37//58 49//58 46//58
f  21//34 43//59 20//34
f  43//59 21//34 45//60
f  45//60 21//34 44//61
f  44//61 21//34 50//62
f  50//62 21//34 49//63
f  49//63 21//34 46//64
f  46//64 21//34 39//65
f  39//65 21//34 41//50
f  41//50 21//34 42//66
f  41//50 40//67 39//65
f  40//67 41//50 48//50
f  40//67 48//50 47//50
f  51//68 52//68 53//68
f  52//69 51//69 54//69
f  52//70 54//70 55//70
f  52//71 55//71 56//71
f  52//72 56//72 57//72
f  52//73 57//73 58//73
f  52//74 58//74 59//74
f  52//75 59//75 60//75
f  52//76 60//76 61//76
f  52//77 61//77 62//77
f  52//78 62//78 63//78
f  52//79 63//79 64//79
f  63//80 62//80 65//80
f  66//81 65//81 62//81
f  65//81 66//81 67//82
f  68//83 64//83 63//83
f  64//83 68//83 69//83
f  51//84 70//84 54//84
f  70//84 51//84 71//85
f  72//86 56//86 55//86
f  56//87 72//87 57//87
f  57//88 72//88 58//88
f  58//89 72//89 59//89
f  59//90 72//90 60//90
f  60//91 72//91 61//91
f  61//92 72//92 73//92
f  61//93 73//93 74//93
f  73//94 72//94 75//94
f  73//94 75//94 76//95
f  76//96 75//96 77//96
f  73//94 76//95 78//97
f  61//98 66//98 62//98
f  66//98 61//98 74//98
f  65//99 68//99 63//99
f  68//99 65//99 67//100
f  64//101 17//101 52//101
f  17//101 64//101 69//102
f  17//103 53//103 52//103
f  53//103 17//103 23//103
f  23//104 51//104 53//104
f  51//104 23//104 71//105
f  70//106 55//106 54//106
f  55//106 70//106 72//107
f  17//23 68//108 66//108
f  68//108 17//23 69//109
f  66//108 68//108 67//110
f  17//23 71//111 23//35
f  71//111 17//23 70//112
f  70//112 17//23 72//113
f  72//113 17//23 75//96
f  75//96 17//23 77//96
f  77//96 17//23 76//96
f  76//96 17//23 78//114
f  78//114 17//23 73//115
f  73//115 17//23 74//116
f  74//116 17//23 66//108

