# {"id":"ID_4617","idOriginal":"ID_4617","origin":[14.308764552826185,48.27821712863545],"elevation":261.325}
# Longitude: 14.308764552826185
# Latitude: 48.27821712863545
# Elevation: 261.325

# File produced by Open Asset Import Library (http://www.assimp.sf.net)
# (assimp v3.1.0)

mtllib ID_4617.obj.mtl

# 29 vertex positions
v  19.68 5.722 -5.746
v  20.68 5.533 -3.955
v  21.571 5.722 -5.369
v  19.377 5.534 -4.223
v  1.843 5.722 -9.301
v  19.27 5.534 -4.245
v  17.711 4.578 3.486
v  0 4.572 2.79954e-16
v  0.06 4.614 -0.339
v  25.404 4.577 -14.239
v  26.729 4.627 -13.552
v  21.52 4.577 -15.014
v  9.667 4.576 -17.377
v  9.609 4.609 -17.116
v  3.635 4.609 -18.305
v  20.68 2.42174e-16 -3.955
v  26.729 8.29821e-16 -13.552
v  21.571 3.28756e-16 -5.369
v  25.404 8.71887e-16 -14.239
v  21.52 9.19342e-16 -15.014
v  9.667 1.06403e-15 -17.377
v  9.609 1.04805e-15 -17.116
v  3.635 1.12086e-15 -18.305
v  1.843 5.69522e-16 -9.301
v  0.06 2.07578e-17 -0.339
v  0 0 0
v  17.711 -2.13456e-16 3.486
v  19.27 2.59931e-16 -4.245
v  19.377 2.58584e-16 -4.223

# 0 UV coordinates

# 47 vertex normals
vn -0.0235022 0.992749 0.117885
vn -0.0234824 0.992751 0.117874
vn -0.0234925 0.992751 0.117872
vn -0.0260231 0.991616 0.126568
vn -0.0235294 0.992733 0.118015
vn -0.023576 0.992725 0.118072
vn 0.0117514 0.992088 0.124993
vn 0.0236776 0.992741 -0.117918
vn 0.0235407 0.992737 -0.117977
vn 0.0234359 0.99274 -0.117976
vn 0.0253521 0.992468 -0.11985
vn 0.0234792 0.99274 -0.117969
vn 0.0235338 0.992729 -0.118043
vn 0.0235242 0.992731 -0.118031
vn 0.846043 -0 0.533114
vn 0.845968 4.14385e-05 0.533234
vn 0.845977 0 0.53322
vn 0 -1 -6.12413e-17
vn 0.460298 0 -0.887765
vn 0.195679 0 -0.980668
vn 0.195512 -0.000147836 -0.980701
vn 0.195679 0.000451275 -0.980668
vn 0.195512 0 -0.980701
vn 0.195201 0 -0.980763
vn -0.976188 0 -0.216928
vn -0.976188 0 -0.216928
vn -0.980765 0 -0.195194
vn -0.980765 -0 -0.195194
vn -0.980778 -0 -0.195127
vn -0.980778 -0 -0.195127
vn -0.984696 0 -0.174282
vn -0.984696 1.06717e-17 -0.174282
vn -0.193122 0 0.981175
vn -0.193122 0 0.981175
vn -0.201393 0 0.979511
vn -0.201462 1.40346e-06 0.979496
vn -0.201457 0 0.979497
vn 0 -1 -6.12869e-17
vn 0.980267 0 0.197676
vn 0.980267 0 0.197676
vn 0 -1 -6.12323e-17
vn -1.28332e-24 -1 -6.12323e-17
vn -1.02182e-23 -1 -6.12323e-17
vn 3.88521e-23 -1 -6.12324e-17
vn -1.03674e-21 -1 -6.12316e-17
vn 1.2741e-23 -1 -6.12323e-17
vn -2.01575e-23 -1 -6.12323e-17

# Mesh 'defaultobject' with 54 faces
g defaultobject
usemtl DefaultMaterial
f  1//1 2//1 3//1
f  2//2 1//2 4//2
f  4//3 1//3 5//3
f  4//4 5//4 6//4
f  6//5 5//5 7//5
f  7//6 5//6 8//6
f  8//7 5//7 9//7
f  10//8 3//8 11//8
f  3//9 10//9 12//9
f  3//10 12//10 13//10
f  3//11 13//11 14//11
f  3//12 14//12 15//12
f  3//13 15//13 1//13
f  1//14 15//14 5//14
f  16//15 3//15 2//15
f  3//16 16//16 11//16
f  11//17 16//17 17//17
f  17//18 16//18 18//18
f  17//19 10//19 11//19
f  10//19 17//19 19//19
f  19//20 12//20 10//20
f  12//21 19//21 13//21
f  13//22 19//22 20//22
f  13//23 20//23 21//23
f  22//24 15//24 14//24
f  15//24 22//24 23//24
f  13//25 22//25 14//25
f  22//25 13//25 21//26
f  23//27 5//27 15//27
f  5//27 23//27 24//28
f  5//29 24//29 9//29
f  9//29 24//29 25//30
f  25//31 8//31 9//31
f  8//31 25//31 26//32
f  8//33 27//33 7//33
f  27//33 8//33 26//34
f  28//35 4//35 6//35
f  4//36 28//36 2//36
f  2//36 28//36 16//37
f  16//18 28//38 29//38
f  7//39 28//39 6//39
f  28//39 7//39 27//40
f  25//41 27//41 26//41
f  27//41 25//41 24//42
f  27//41 24//42 23//43
f  27//41 23//43 28//38
f  28//38 23//43 22//44
f  28//38 22//44 21//45
f  28//38 21//45 20//46
f  28//38 20//46 29//38
f  29//38 20//46 16//18
f  16//18 20//46 18//18
f  18//18 20//46 17//18
f  17//18 20//46 19//47

