# {"id":"ID_32496","idOriginal":"ID_32496","origin":[14.279902091186155,48.3288857602207],"elevation":287.42,"wof":[{"Id":102049853,"Name":"Linz","Placetype":"county","Offset":-1},{"Id":101748071,"Name":"Linz","Placetype":"locality","Offset":-1},{"Id":85681677,"Name":"Oberösterreich","Placetype":"region","Offset":-1},{"Id":85898425,"Name":"Harbach","Placetype":"neighbourhood","Offset":-1},{"Id":85632785,"Name":"Austria","Placetype":"country","Offset":-1}]}

# Attribution: City of Linz <http://geo.data.linz.gv.at/katalog/geodata/3d_geo_daten_lod2/>
# Longitude: 14.279902091186155
# Latitude: 48.3288857602207
# Elevation: 287.42

# File produced by Open Asset Import Library (http://www.assimp.sf.net)
# (assimp v3.1.0)


# 18 vertex positions
v  0.246 3.847 -0.517
v  1.824 3.847 0.822
v  7.6 3.847 3.539
v  0 3.847 2.35561e-16
v  2.9 3.847 -5.593
v  7.972 3.847 3.718
v  10.658 3.847 -1.935
v  2.702 3.847 -5.686
v  2.642 3.847 -5.56
v  7.972 -2.27662e-16 3.718
v  7.6 -2.16701e-16 3.539
v  1.824 -5.0333e-17 0.822
v  0 0 0
v  10.658 1.18485e-16 -1.935
v  2.9 3.42472e-16 -5.593
v  2.702 3.48167e-16 -5.686
v  2.642 3.40452e-16 -5.56
v  0.246 3.16571e-17 -0.517

# 0 UV coordinates

# 23 vertex normals
vn 0 1 0
vn -0.433597 0 0.901107
vn -0.425653 0.000943921 0.904886
vn -0.433551 -0.0145934 0.901011
vn -0.425654 0 0.904886
vn -0.410863 -5.58253e-17 0.911697
vn -0.410863 0 0.911697
vn 0.903226 -0 0.429164
vn 0.426482 0 -0.904496
vn 0.425136 0 -0.905129
vn -0.90286 0 -0.429935
vn -0.903238 -3.1895e-05 -0.429141
vn -0.902859 0.00127542 -0.429934
vn -0.903238 -0 -0.429141
vn -0.90299 -0 -0.429662
vn -0.90299 2.63092e-17 -0.429662
vn 3.09062e-23 -1 -6.12324e-17
vn 3.99367e-23 -1 -6.12323e-17
vn 0 -1 -6.12323e-17
vn 1.3145e-24 -1 -6.12323e-17
vn 5.38428e-25 -1 -6.12323e-17
vn 1.32593e-24 -1 -6.12323e-17
vn -2.3051e-23 -1 -6.12323e-17

# Mesh 'defaultobject' with 32 faces
g defaultobject
usemtl DefaultMaterial
f  1//1 2//1 3//1
f  2//1 1//1 4//1
f  5//1 6//1 7//1
f  6//1 5//1 8//1
f  6//1 8//1 9//1
f  6//1 9//1 1//1
f  6//1 1//1 3//1
f  3//2 10//2 6//2
f  10//3 3//3 2//3
f  10//4 2//4 11//4
f  11//5 2//5 12//5
f  13//6 2//6 4//6
f  2//6 13//6 12//7
f  10//8 7//8 6//8
f  7//8 10//8 14//8
f  14//9 5//9 7//9
f  5//9 14//9 15//9
f  5//10 15//10 8//10
f  8//10 15//10 16//10
f  16//11 9//11 8//11
f  9//12 16//12 1//12
f  1//13 16//13 17//13
f  1//14 17//14 18//14
f  1//15 18//15 4//15
f  4//15 18//15 13//16
f  15//17 17//17 16//17
f  17//17 15//17 18//18
f  18//18 15//17 14//19
f  18//18 14//19 13//20
f  13//20 14//19 12//21
f  12//21 14//19 11//22
f  11//22 14//19 10//23

