# {"id":"ID_29483","idOriginal":"ID_29483","origin":[14.328096075659326,48.24814180134034],"elevation":256.696}
# Longitude: 14.328096075659326
# Latitude: 48.24814180134034
# Elevation: 256.696

# File produced by Open Asset Import Library (http://www.assimp.sf.net)
# (assimp v3.1.0)

mtllib ID_29483.obj.mtl

# 14 vertex positions
v  0.046 3.015 0.001
v  0.008 3.015 -0.39
v  0 3.015 1.84616e-16
v  6.061 3.015 -11.528
v  0.23 3.015 -11.643
v  6.073 3.015 0.121
v  6.303 3.015 -11.523
v  0.23 7.12928e-16 -11.643
v  0.008 2.38806e-17 -0.39
v  0 0 0
v  6.073 -7.40911e-18 0.121
v  0.046 -6.12323e-20 0.001
v  6.303 7.0558e-16 -11.523
v  6.061 7.05886e-16 -11.528

# 0 UV coordinates

# 18 vertex normals
vn 0 1 0
vn -0.999805 0 -0.0197242
vn -0.99979 -0 -0.0205085
vn -0.99979 1.25578e-18 -0.0205085
vn -0.021734 -6.12179e-17 0.999764
vn -0.0199065 -2.78954e-05 0.999802
vn -0.0199203 0 0.999802
vn 2.03941e-22 1 6.1228e-17
vn 0.999805 -0 0.0197488
vn 0.0197183 0 -0.999806
vn 0.0206572 -0.0018166 -0.999785
vn 0.0197183 7.53944e-05 -0.999806
vn 0.0206572 0 -0.999787
vn -4.60876e-23 -1 -6.12323e-17
vn 8.79232e-26 -1 -6.12323e-17
vn -3.87195e-25 -1 -6.12323e-17
vn -1.19736e-23 -1 -6.12323e-17
vn -1.85724e-21 -1 -6.11387e-17

# Mesh 'defaultobject' with 24 faces
g defaultobject
usemtl DefaultMaterial
f  1//1 2//1 3//1
f  2//1 4//1 5//1
f  4//1 2//1 1//1
f  4//1 1//1 6//1
f  4//1 6//1 7//1
f  8//2 2//2 5//2
f  2//2 8//2 9//2
f  2//3 9//3 3//3
f  3//3 9//3 10//4
f  10//5 1//5 3//5
f  1//6 10//6 6//6
f  6//7 10//7 11//7
f  11//8 10//8 12//8
f  11//9 7//9 6//9
f  7//9 11//9 13//9
f  4//10 8//10 5//10
f  8//11 4//11 7//11
f  8//12 7//12 14//12
f  14//13 7//13 13//13
f  9//14 12//14 10//14
f  12//14 9//14 11//15
f  11//15 9//14 8//16
f  11//15 8//16 13//17
f  13//17 8//16 14//18

