# {"id":"ID_52834","idOriginal":"ID_52834","origin":[14.266499555505087,48.314880372204456],"elevation":311.221}
# Longitude: 14.266499555505087
# Latitude: 48.314880372204456
# Elevation: 311.221

# File produced by Open Asset Import Library (http://www.assimp.sf.net)
# (assimp v3.1.0)

mtllib ID_52834.obj.mtl

# 8 vertex positions
v  3.291 4.087 -3.041
v  0 4.087 2.50257e-16
v  3.176 4.087 0.116
v  0.115 4.087 -3.157
v  3.176 -7.10295e-18 0.116
v  3.291 1.86208e-16 -3.041
v  0.115 1.9331e-16 -3.157
v  0 0 0

# 0 UV coordinates

# 9 vertex normals
vn 0 1 0
vn 0.999337 -0 0.0364028
vn 0.0364996 0 -0.999334
vn -0.999337 0 -0.0364028
vn -0.999337 2.22903e-18 -0.0364028
vn -0.0364996 -6.11915e-17 0.999334
vn -0.0364996 0 0.999334
vn 1.64777e-25 -1 -6.12323e-17
vn 2.63644e-24 -1 -6.12323e-17

# Mesh 'defaultobject' with 12 faces
g defaultobject
usemtl DefaultMaterial
f  1//1 2//1 3//1
f  2//1 1//1 4//1
f  5//2 1//2 3//2
f  1//2 5//2 6//2
f  6//3 4//3 1//3
f  4//3 6//3 7//3
f  7//4 2//4 4//4
f  2//4 7//4 8//5
f  8//6 3//6 2//6
f  3//6 8//6 5//7
f  8//8 6//8 5//8
f  6//8 8//8 7//9

