# File produced by Open Asset Import Library (http://www.assimp.sf.net)
# (assimp v3.1.0)

mtllib ID_16266.obj.mtl

# 24 vertex positions
v  10.794 5.44 8.099
v  12.901 5.44 5.223
v  6.21 5.44 4.773
v  0 5.44 3.33104e-16
v  2.438 5.44 -2.805
v  2.217 5.44 -2.965
v  7.966 5.44 -9.998
v  7.975 5.44 -10.009
v  8.11 5.44 -10.185
v  18.77 5.44 -2.042
v  13.187 5.44 5.387
v  18.659 5.44 -1.894
v  18.77 1.25036e-16 -2.042
v  8.11 6.23651e-16 -10.185
v  2.438 1.71757e-16 -2.805
v  2.217 1.81554e-16 -2.965
v  7.975 6.12875e-16 -10.009
v  7.966 6.12201e-16 -9.998
v  0 0 0
v  6.21 -2.92262e-16 4.773
v  10.794 -4.95921e-16 8.099
v  12.901 -3.19817e-16 5.223
v  13.187 -3.29859e-16 5.387
v  18.659 1.15974e-16 -1.894

# 0 UV coordinates

# 26 vertex normals
vn 0 1 0
vn 0.607038 0 -0.794673
vn 0.586427 0 -0.810002
vn -0.793463 0 -0.608619
vn -0.773954 0 -0.633241
vn -0.792894 0 -0.609359
vn -0.800874 0 -0.598832
vn -0.800874 3.66679e-17 -0.598832
vn -0.609396 -4.8549e-17 0.792866
vn -0.609396 0 0.792866
vn -0.587269 0 0.809392
vn -0.497445 0 0.867496
vn 0.806681 -0 0.590987
vn 0.8 0 0.6
vn 0.799407 -3.35956e-05 0.60079
vn 0.799999 0.00165399 0.599999
vn 0.799407 0 0.60079
vn 3.65171e-24 -1 -6.12323e-17
vn 0 -1 -6.12323e-17
vn 6.13586e-24 -1 -6.12323e-17
vn 1.15163e-23 -1 -6.12323e-17
vn -8.73332e-21 -1 -6.12315e-17
vn 0 -1 -6.12323e-17
vn -3.38174e-24 -1 -6.12323e-17
vn 0 -1 -6.12323e-17
vn 1.27319e-19 -1 -6.12405e-17

# Mesh 'defaultobject' with 44 faces
g defaultobject
usemtl DefaultMaterial
f  1//1 2//1 3//1
f  4//1 5//1 6//1
f  5//1 4//1 3//1
f  5//1 3//1 7//1
f  7//1 3//1 8//1
f  8//1 3//1 9//1
f  9//1 3//1 10//1
f  10//1 3//1 2//1
f  10//1 2//1 11//1
f  10//1 11//1 12//1
f  13//2 9//2 10//2
f  9//2 13//2 14//2
f  15//3 6//3 5//3
f  6//3 15//3 16//3
f  14//4 8//4 9//4
f  8//4 14//4 17//4
f  17//5 7//5 8//5
f  7//5 17//5 18//5
f  18//6 5//6 7//6
f  5//6 18//6 15//6
f  16//7 4//7 6//7
f  4//7 16//7 19//8
f  19//9 3//9 4//9
f  3//9 19//9 20//10
f  20//11 1//11 3//11
f  1//11 20//11 21//11
f  22//12 11//12 2//12
f  11//12 22//12 23//12
f  21//13 2//13 1//13
f  2//13 21//13 22//13
f  12//14 13//14 10//14
f  13//15 12//15 11//15
f  13//16 11//16 24//16
f  24//17 11//17 23//17
f  16//18 20//18 19//18
f  20//18 16//18 15//19
f  20//18 15//19 18//20
f  20//18 18//20 21//21
f  21//21 18//20 17//22
f  21//21 17//22 14//23
f  21//21 14//23 22//23
f  22//23 14//23 13//24
f  22//23 13//24 23//25
f  23//25 13//24 24//26

