# File produced by Open Asset Import Library (http://www.assimp.sf.net)
# (assimp v3.1.0)

mtllib ID_29194.obj.mtl

# 18 vertex positions
v  0 8.351 5.11351e-16
v  11.367 8.351 1.002
v  8.648 8.351 -4.386
v  12.004 8.351 2.265
v  11.95 8.351 2.293
v  7.131 8.351 4.737
v  2.394 8.351 4.737
v  3.36 8.351 6.649
v  1.599 8.351 3.164
v  12.004 -1.38691e-16 2.265
v  8.648 2.68565e-16 -4.386
v  11.367 -6.13548e-17 1.002
v  0 0 0
v  2.394 -2.90058e-16 4.737
v  3.36 -4.07134e-16 6.649
v  1.599 -1.93739e-16 3.164
v  7.131 -2.90058e-16 4.737
v  11.95 -1.40406e-16 2.293

# 0 UV coordinates

# 25 vertex normals
vn -0 1 0
vn 0.892866 0 -0.450321
vn 0.892764 -3.84924e-05 -0.450524
vn 0.892784 0 -0.450486
vn 0 1 6.12424e-17
vn -0.452321 0 -0.891855
vn -0.452321 5.46104e-17 -0.891855
vn -0.892501 -2.76186e-17 0.451046
vn -0.89249 -1.04319e-05 0.451068
vn -0.892552 7.74858e-05 0.450944
vn -0.892497 -3.12738e-05 0.451053
vn -0.892552 0 0.450944
vn -3.45326e-19 1 6.12954e-17
vn 0.452221 -0 0.891906
vn 0.452314 -5.30909e-05 0.891859
vn 0.452221 6.79571e-05 0.891906
vn 0.460312 -0.00582069 0.887738
vn 0.452314 6.55272e-05 0.891859
vn 0.460319 0 0.887753
vn -4.52313e-25 -1 -6.12323e-17
vn 0 -1 -6.12323e-17
vn 0 -1 -6.12321e-17
vn 0 -1 -6.12323e-17
vn 0 -1 -6.12323e-17
vn 6.8958e-19 -1 -6.10278e-17

# Mesh 'defaultobject' with 32 faces
g defaultobject
usemtl DefaultMaterial
f  1//1 2//1 3//1
f  2//1 1//1 4//1
f  4//1 1//1 5//1
f  5//1 1//1 6//1
f  6//1 1//1 7//1
f  6//1 7//1 8//1
f  7//1 1//1 9//1
f  10//2 2//2 4//2
f  2//3 10//3 3//3
f  3//4 10//4 11//4
f  11//5 10//5 12//5
f  11//6 1//6 3//6
f  1//6 11//6 13//7
f  13//8 9//8 1//8
f  9//9 13//9 7//9
f  7//10 13//10 8//10
f  8//11 13//11 14//11
f  8//12 14//12 15//12
f  14//13 13//13 16//13
f  15//14 6//14 8//14
f  6//15 15//15 5//15
f  5//16 15//16 17//16
f  5//17 17//17 4//17
f  4//18 17//18 18//18
f  4//19 18//19 10//19
f  12//20 13//20 11//20
f  13//20 12//20 10//21
f  13//20 10//21 18//22
f  13//20 18//22 17//21
f  13//20 17//21 14//23
f  14//23 17//21 15//24
f  13//20 14//23 16//25

