# File produced by Open Asset Import Library (http://www.assimp.sf.net)
# (assimp v3.1.0)

mtllib ID_49812.obj.mtl

# 14 vertex positions
v  4.294 6.57 -2.664
v  4.564 6.334 -2.24
v  4.311 6.57 -2.675
v  5.658 5.311 -0.355
v  0 6.57 4.02296e-16
v  1.769 5.247 2.219
v  1.517 5.243 2.386
v  1.517 -1.461e-16 2.386
v  5.658 2.17375e-17 -0.355
v  1.769 -1.35875e-16 2.219
v  4.311 1.63797e-16 -2.675
v  4.564 1.3716e-16 -2.24
v  4.294 1.63123e-16 -2.664
v  0 0 0

# 0 UV coordinates

# 20 vertex normals
vn 0.230881 0.905196 0.356812
vn 0.222973 0.905182 0.36184
vn 0.224078 0.905172 0.361182
vn 0.224081 0.905218 0.361066
vn 0.22463 0.905249 0.360646
vn 0.552408 -0 0.833574
vn 0.551926 3.3292e-05 0.833893
vn 0.551955 0 0.833874
vn -9.7388e-20 -1 -6.12895e-17
vn 0.864427 0 -0.502759
vn 0.864875 -7.09286e-05 -0.501987
vn 0.864805 0 -0.502109
vn 0 1 6.12284e-17
vn -0.543255 0 -0.839568
vn -0.527185 0 -0.84975
vn -0.527185 5.20322e-17 -0.84975
vn -0.84388 -3.28531e-17 0.536532
vn -0.84388 0 0.536532
vn 0 -1 -6.12323e-17
vn 0 -1 -6.12323e-17

# Mesh 'defaultobject' with 24 faces
g defaultobject
usemtl DefaultMaterial
f  1//1 2//1 3//1
f  2//2 1//2 4//2
f  4//3 1//3 5//3
f  4//4 5//4 6//4
f  6//5 5//5 7//5
f  8//6 6//6 7//6
f  6//7 8//7 4//7
f  4//8 8//8 9//8
f  9//9 8//9 10//9
f  2//10 11//10 3//10
f  11//11 2//11 4//11
f  11//12 4//12 9//12
f  11//13 9//13 12//13
f  11//14 1//14 3//14
f  1//14 11//14 13//14
f  13//15 5//15 1//15
f  5//15 13//15 14//16
f  14//17 7//17 5//17
f  7//17 14//17 8//18
f  12//19 13//19 11//19
f  13//19 12//19 14//20
f  14//20 12//19 9//9
f  14//20 9//9 10//9
f  14//20 10//9 8//9

