# File produced by Open Asset Import Library (http://www.assimp.sf.net)
# (assimp v3.1.0)

mtllib ID_50507.obj.mtl

# 11 vertex positions
v  2.142 7.898 -3.084
v  4.173 7.311 0.021
v  4.242 7.31 -3.067
v  2.124 7.897 -2.083
v  0 7.311 4.4767e-16
v  0.042 7.31 -3.1
v  0.042 1.8982e-16 -3.1
v  2.142 1.88841e-16 -3.084
v  4.242 1.878e-16 -3.067
v  0 0 0
v  4.173 -1.28588e-18 0.021

# 0 UV coordinates

# 18 vertex normals
vn 0.269583 0.96296 0.00571191
vn 0.269448 0.962997 0.00580712
vn -0.00135637 0.962991 0.26953
vn -0.2696 0.962964 -0.00388601
vn -0.269566 0.962974 -0.0039628
vn 0.0078569 -0.000850657 -0.999969
vn 0.0078569 0 -0.999969
vn 0.00761873 0.00013685 -0.999971
vn 0.00809507 0 -0.999967
vn -0.999908 0 -0.0135471
vn -0.999908 0 -0.0135471
vn -0.00503229 -6.12316e-17 0.999987
vn -0.00503229 0 0.999987
vn 0.99975 -0 0.0223391
vn 0.99975 0 0.0223391
vn -1.00369e-23 -1 -6.12323e-17
vn 8.12852e-24 -1 -6.12323e-17
vn 0 -1 -6.12323e-17

# Mesh 'defaultobject' with 18 faces
g defaultobject
usemtl DefaultMaterial
f  1//1 2//1 3//1
f  2//2 1//2 4//2
f  4//3 5//3 2//3
f  6//4 4//4 1//4
f  4//5 6//5 5//5
f  3//6 6//6 1//6
f  6//7 3//7 7//7
f  7//8 3//8 8//8
f  8//9 3//9 9//9
f  6//10 10//10 5//10
f  10//10 6//10 7//11
f  10//12 2//12 5//12
f  2//12 10//12 11//13
f  11//14 3//14 2//14
f  3//14 11//14 9//15
f  8//16 10//16 7//16
f  10//16 8//16 9//17
f  10//16 9//17 11//18

