# {"id":"ID_12417","idOriginal":"ID_12417","origin":[14.283560033332108,48.2530108631635],"elevation":265.75,"wof":[{"Id":85898447,"Name":"Scharlinz","Placetype":"neighbourhood","Offset":-1},{"Id":102049853,"Name":"Linz","Placetype":"county","Offset":-1},{"Id":101748071,"Name":"Linz","Placetype":"locality","Offset":-1},{"Id":85632785,"Name":"Austria","Placetype":"country","Offset":-1},{"Id":85681677,"Name":"Oberösterreich","Placetype":"region","Offset":-1}]}

# Attribution: City of Linz <http://geo.data.linz.gv.at/katalog/geodata/3d_geo_daten_lod2/>
# Longitude: 14.283560033332108
# Latitude: 48.2530108631635
# Elevation: 265.75

# File produced by Open Asset Import Library (http://www.assimp.sf.net)
# (assimp v3.1.0)


# 30 vertex positions
v  5.206 18.919 -4.683
v  6.041 18.72 -2.218
v  7.06 18.918 -5.342
v  5.998 18.73 -2.344
v  20.691 17.887 3.958
v  3.988 17.838 10.793
v  20.914 17.838 4.565
v  16.943 18.722 -6.263
v  9.407 18.722 -3.492
v  8.868 18.722 -3.29
v  7.94 18.722 -2.949
v  7.905 18.73 -3.045
v  5.758 18.72 -2.114
v  0 18.72 1.14627e-15
v  3.76 17.888 10.178
v  16.943 3.83498e-16 -6.263
v  8.868 2.01454e-16 -3.29
v  7.94 1.80574e-16 -2.949
v  9.407 2.13823e-16 -3.492
v  5.206 2.86751e-16 -4.683
v  7.06 3.27103e-16 -5.342
v  6.041 1.35813e-16 -2.218
v  0 0 0
v  5.758 1.29445e-16 -2.114
v  7.905 1.86452e-16 -3.045
v  20.691 -2.42358e-16 3.958
v  20.914 -2.79526e-16 4.565
v  5.998 1.43529e-16 -2.344
v  3.988 -6.60881e-16 10.793
v  3.76 -6.23223e-16 10.178

# 0 UV coordinates

# 50 vertex normals
vn 0.0260178 0.997088 0.0716823
vn -0.462977 0.857068 0.226022
vn 0.0260911 0.997142 0.0709084
vn 0.0264398 0.997071 0.07176
vn 0.0263657 0.997077 0.0717041
vn 0.0269555 0.997046 0.0719259
vn 0.0263536 0.997077 0.0717193
vn 0.0290424 0.996947 0.0724844
vn 0.0266303 0.997063 0.0718089
vn 0.0261034 0.997084 0.07171
vn 0.0263676 0.997074 0.071751
vn 0.0263415 0.997075 0.0717475
vn -0.314359 0.929659 0.192126
vn -0.345111 0 -0.938562
vn -0.350932 -0.0026637 -0.936397
vn -0.344908 0.00029002 -0.938636
vn -0.345501 -3.33222e-05 -0.938419
vn -0.344908 -0 -0.938636
vn -2.30528e-21 1 6.12259e-17
vn -0.334919 0 -0.942247
vn -0.334919 0 -0.942247
vn -0.344936 0 -0.938626
vn -0.344647 4.95629e-06 -0.938732
vn -0.344661 5.74805e-17 -0.938727
vn 0 -1 -6.12858e-17
vn 0.93851 0 -0.345251
vn 0.939497 -0.000374749 -0.342558
vn 0.938551 0 -0.345142
vn 7.3065e-20 1 6.1192e-17
vn 0.938867 0 -0.344279
vn 0.938669 0.000350563 -0.34482
vn 0.938868 -2.18439e-05 -0.344279
vn 0.93866 0 -0.344845
vn -0.947174 0 0.320719
vn -0.946414 -0.000311411 0.322956
vn -0.947135 0 0.320835
vn -1.89857e-20 1 6.1239e-17
vn -0.938038 -2.12191e-17 0.346534
vn -0.937656 -0.000666719 0.347565
vn -0.938015 0 0.346595
vn 5.82166e-20 1 6.12099e-17
vn 0.34532 -0 0.938485
vn -5.2765e-24 -1 -6.12323e-17
vn -8.67835e-20 -1 -6.12006e-17
vn -2.34949e-23 -1 -6.12324e-17
vn 0 -1 -6.12322e-17
vn -3.716e-23 -1 -6.12323e-17
vn -6.3523e-23 -1 -6.12322e-17
vn -2.55104e-23 -1 -6.12323e-17
vn 4.84511e-24 -1 -6.12323e-17

# Mesh 'defaultobject' with 56 faces
g defaultobject
usemtl DefaultMaterial
f  1//1 2//1 3//1
f  2//2 1//2 4//2
f  5//3 6//3 7//3
f  6//4 5//4 8//4
f  6//5 8//5 9//5
f  6//6 9//6 10//6
f  6//7 10//7 11//7
f  6//8 11//8 12//8
f  6//9 12//9 3//9
f  6//10 3//10 2//10
f  6//11 2//11 13//11
f  6//12 13//12 14//12
f  6//13 14//13 15//13
f  16//14 9//14 8//14
f  9//15 16//15 10//15
f  10//16 16//16 11//16
f  11//17 16//17 17//17
f  11//18 17//18 18//18
f  17//19 16//19 19//19
f  3//20 20//20 1//20
f  20//20 3//20 21//21
f  22//22 13//22 2//22
f  13//23 22//23 14//23
f  14//24 22//24 23//24
f  23//25 22//25 24//25
f  12//26 21//26 3//26
f  21//27 12//27 11//27
f  21//28 11//28 18//28
f  21//29 18//29 25//29
f  5//30 16//30 8//30
f  16//31 5//31 7//31
f  16//32 7//32 26//32
f  26//33 7//33 27//33
f  20//34 4//34 1//34
f  4//35 20//35 2//35
f  2//36 20//36 22//36
f  22//37 20//37 28//37
f  23//38 15//38 14//38
f  15//39 23//39 6//39
f  6//40 23//40 29//40
f  29//41 23//41 30//41
f  29//42 7//42 6//42
f  7//42 29//42 27//42
f  21//43 18//43 20//43
f  18//43 21//43 25//44
f  30//45 27//45 29//45
f  27//45 30//45 23//25
f  27//45 23//25 24//25
f  27//45 24//25 22//25
f  27//45 22//25 28//46
f  27//45 28//46 18//43
f  18//43 28//46 20//43
f  27//45 18//43 17//47
f  27//45 17//47 19//48
f  27//45 19//48 26//49
f  26//49 19//48 16//50

