# {"id":"ID_6309","idOriginal":"ID_6309","origin":[14.329758986358398,48.32653035770295],"elevation":253.368,"wof":[{"Id":85681677,"Name":"Oberösterreich","Placetype":"region","Offset":-1},{"Id":85898427,"Name":"Katzbach","Placetype":"neighbourhood","Offset":-1},{"Id":101758517,"Name":"Plesching","Placetype":"locality","Offset":-1},{"Id":102049853,"Name":"Linz","Placetype":"county","Offset":-1},{"Id":85632785,"Name":"Austria","Placetype":"country","Offset":-1}]}

# Attribution: City of Linz <http://geo.data.linz.gv.at/katalog/geodata/3d_geo_daten_lod2/>
# Longitude: 14.329758986358398
# Latitude: 48.32653035770295
# Elevation: 253.368

# File produced by Open Asset Import Library (http://www.assimp.sf.net)
# (assimp v3.1.0)


# 14 vertex positions
v  1.151 3.274 3.876
v  38.381 1.101 -3.523
v  37.16 3.274 -7.404
v  2.368 1.101 7.759
v  2.31 1.101 7.777
v  0 1.115 6.82741e-17
v  35.932 1.089 -11.306
v  0 0 0
v  35.932 6.92293e-16 -11.306
v  1.151 -2.37337e-16 3.876
v  2.31 -4.76204e-16 7.777
v  2.368 -4.75102e-16 7.759
v  38.381 2.15722e-16 -3.523
v  37.16 4.53364e-16 -7.404

# 0 UV coordinates

# 23 vertex normals
vn 0.140831 0.882072 0.449572
vn 0.14082 0.882107 0.449508
vn 0.13962 0.882106 0.449884
vn -0.14083 0.882056 -0.449604
vn -0.140817 0.882097 -0.449527
vn -0.300143 0 -0.953894
vn -0.300143 0 -0.953894
vn -0.958626 -1.7431e-17 0.284669
vn -0.958626 0 0.284669
vn -0.958587 0 0.284799
vn 0.296401 -0 0.955064
vn 0.298949 -0.000147253 0.954269
vn 0.295176 0.0909064 0.951108
vn 0.298949 0 0.954269
vn 0.953878 0 -0.300195
vn 0.953878 0 -0.300195
vn 0.953905 0 -0.300108
vn 0.953905 0 -0.300108
vn 0 -1 -6.12325e-17
vn -1.37892e-24 -1 -6.12323e-17
vn 6.92837e-25 -1 -6.12323e-17
vn -6.88987e-25 -1 -6.12323e-17
vn -1.38778e-19 -1 -6.1201e-17

# Mesh 'defaultobject' with 24 faces
g defaultobject
usemtl DefaultMaterial
f  1//1 2//1 3//1
f  2//2 1//2 4//2
f  4//3 1//3 5//3
f  6//4 3//4 7//4
f  3//5 6//5 1//5
f  7//6 8//6 6//6
f  8//6 7//6 9//7
f  8//8 1//8 6//8
f  1//8 8//8 10//9
f  1//10 10//10 5//10
f  5//10 10//10 11//10
f  11//11 4//11 5//11
f  4//12 11//12 2//12
f  2//13 11//13 12//13
f  2//14 12//14 13//14
f  3//15 9//15 7//15
f  9//15 3//15 14//16
f  14//17 3//17 2//17
f  14//17 2//17 13//18
f  10//19 12//19 11//19
f  12//19 10//19 13//20
f  13//20 10//19 8//21
f  13//20 8//21 9//22
f  13//20 9//22 14//23

