# {"id":"ID_58940","idOriginal":"ID_58940","origin":[14.269759847545084,48.28457741655888],"elevation":309.966}
# Longitude: 14.269759847545084
# Latitude: 48.28457741655888
# Elevation: 309.966

# File produced by Open Asset Import Library (http://www.assimp.sf.net)
# (assimp v3.1.0)

mtllib ID_58940.obj.mtl

# 8 vertex positions
v  0.305 3.626 -3.233
v  1.067 3.626 0.119
v  1.481 3.626 -3.155
v  0 3.626 2.22028e-16
v  1.067 -7.28665e-18 0.119
v  1.481 1.93188e-16 -3.155
v  0.305 1.97964e-16 -3.233
v  0 0 0

# 0 UV coordinates

# 9 vertex normals
vn 0 1 0
vn 0.9921 -0 0.125452
vn 0.0661812 0 -0.997808
vn -0.99558 0 -0.0939226
vn -0.99558 5.7511e-18 -0.0939226
vn -0.11084 -6.0855e-17 0.993838
vn -0.11084 0 0.993838
vn 0 -1 -6.12323e-17
vn 0 -1 -6.12323e-17

# Mesh 'defaultobject' with 12 faces
g defaultobject
usemtl DefaultMaterial
f  1//1 2//1 3//1
f  2//1 1//1 4//1
f  5//2 3//2 2//2
f  3//2 5//2 6//2
f  6//3 1//3 3//3
f  1//3 6//3 7//3
f  7//4 4//4 1//4
f  4//4 7//4 8//5
f  8//6 2//6 4//6
f  2//6 8//6 5//7
f  5//8 7//8 6//8
f  7//8 5//8 8//9

