# {"id":"ID_60593","idOriginal":"ID_60593","origin":[14.337631846637434,48.2536435426298],"elevation":262.135}
# Longitude: 14.337631846637434
# Latitude: 48.2536435426298
# Elevation: 262.135

# File produced by Open Asset Import Library (http://www.assimp.sf.net)
# (assimp v3.1.0)

mtllib ID_60593.obj.mtl

# 8 vertex positions
v  1.32 2.638 -0.563
v  0 2.638 1.61531e-16
v  0.895 2.638 0.397
v  0.425 2.638 -0.96
v  0.895 -2.43092e-17 0.397
v  1.32 3.44738e-17 -0.563
v  0.425 5.8783e-17 -0.96
v  0 0 0

# 0 UV coordinates

# 9 vertex normals
vn 0 1 0
vn 0.9144 -0 0.404812
vn 0.405475 0 -0.914106
vn -0.9144 0 -0.404812
vn -0.9144 2.47876e-17 -0.404812
vn -0.405475 -5.59729e-17 0.914106
vn -0.405475 0 0.914106
vn -8.04709e-25 -1 -6.12323e-17
vn -2.41413e-24 -1 -6.12323e-17

# Mesh 'defaultobject' with 12 faces
g defaultobject
usemtl DefaultMaterial
f  1//1 2//1 3//1
f  2//1 1//1 4//1
f  5//2 1//2 3//2
f  1//2 5//2 6//2
f  6//3 4//3 1//3
f  4//3 6//3 7//3
f  7//4 2//4 4//4
f  2//4 7//4 8//5
f  8//6 3//6 2//6
f  3//6 8//6 5//7
f  8//8 6//8 5//8
f  6//8 8//8 7//9

