# {"id":"ID_37460","idOriginal":"ID_37460","origin":[14.278161841946782,48.317128899488765],"elevation":276.374}
# Longitude: 14.278161841946782
# Latitude: 48.317128899488765
# Elevation: 276.374

# File produced by Open Asset Import Library (http://www.assimp.sf.net)
# (assimp v3.1.0)

mtllib ID_37460.obj.mtl

# 12 vertex positions
v  0 6.178 3.78293e-16
v  5.24 6.178 6.729
v  2.184 6.178 -0.78
v  3.789 6.178 9.566
v  11.386 6.178 6.521
v  10.597 6.178 4.632
v  10.597 -2.83628e-16 4.632
v  5.24 -4.12032e-16 6.729
v  2.184 4.77612e-17 -0.78
v  0 0 0
v  3.789 -5.85749e-16 9.566
v  11.386 -3.99296e-16 6.521

# 0 UV coordinates

# 13 vertex normals
vn -0 1 0
vn -0.364517 0 -0.931197
vn -0.336336 0 -0.941742
vn -0.336336 5.76651e-17 -0.941742
vn 0.926231 0 -0.376956
vn -0.929725 -2.25491e-17 0.368255
vn -0.929725 0 0.368255
vn 0.372044 -0 0.928215
vn 0.922744 0 -0.385413
vn 0 -1 -6.12323e-17
vn 2.16462e-23 -1 -6.12323e-17
vn -5.98623e-24 -1 -6.12324e-17
vn -4.49635e-24 -1 -6.12323e-17

# Mesh 'defaultobject' with 20 faces
g defaultobject
usemtl DefaultMaterial
f  1//1 2//1 3//1
f  2//1 1//1 4//1
f  2//1 4//1 5//1
f  5//1 6//1 2//1
f  7//2 2//2 6//2
f  2//2 7//2 8//2
f  9//3 1//3 3//3
f  1//3 9//3 10//4
f  8//5 3//5 2//5
f  3//5 8//5 9//5
f  10//6 4//6 1//6
f  4//6 10//6 11//7
f  11//8 5//8 4//8
f  5//8 11//8 12//8
f  12//9 6//9 5//9
f  6//9 12//9 7//9
f  10//10 9//10 11//10
f  8//11 11//10 9//10
f  12//12 11//10 8//11
f  7//13 12//12 8//11

