# {"id":"ID_7254","idOriginal":"ID_7254","origin":[14.279977022052545,48.31288788560096],"elevation":264.415}
# Longitude: 14.279977022052545
# Latitude: 48.31288788560096
# Elevation: 264.415

# File produced by Open Asset Import Library (http://www.assimp.sf.net)
# (assimp v3.1.0)

mtllib ID_7254.obj.mtl

# 14 vertex positions
v  22.329 4.164 17.32
v  22.046 4.164 16.828
v  12.885 4.164 22.73
v  0 4.164 2.54971e-16
v  19.92 4.164 13.249
v  11.009 4.164 -2.502
v  9.503 4.164 -5.567
v  9.503 3.4088e-16 -5.567
v  0 0 0
v  12.885 -1.39181e-15 22.73
v  22.329 -1.06054e-15 17.32
v  11.009 1.53203e-16 -2.502
v  22.046 -1.03042e-15 16.828
v  19.92 -8.11267e-16 13.249

# 0 UV coordinates

# 17 vertex normals
vn 0 1 0
vn -0.505468 0 -0.862845
vn -0.505468 5.2834e-17 -0.862845
vn -0.869946 -3.01966e-17 0.493148
vn -0.869946 0 0.493148
vn 0.497069 -0 0.867711
vn 0.89751 0 -0.440995
vn 0.86683 0 -0.498604
vn 0.859751 -0.00191142 -0.51071
vn 0.866745 0.0140179 -0.498555
vn 0.859753 0 -0.510711
vn 0.870367 0 -0.492403
vn 0 -1 -6.12323e-17
vn -9.5711e-23 -1 -6.12322e-17
vn -9.82038e-24 -1 -6.12323e-17
vn 4.32826e-24 -1 -6.12323e-17
vn 2.82265e-24 -1 -6.12323e-17

# Mesh 'defaultobject' with 24 faces
g defaultobject
usemtl DefaultMaterial
f  1//1 2//1 3//1
f  4//1 3//1 2//1
f  5//1 4//1 2//1
f  6//1 4//1 5//1
f  7//1 4//1 6//1
f  8//2 4//2 7//2
f  4//2 8//2 9//3
f  9//4 3//4 4//4
f  3//4 9//4 10//5
f  10//6 1//6 3//6
f  1//6 10//6 11//6
f  12//7 7//7 6//7
f  7//7 12//7 8//7
f  11//8 2//8 1//8
f  2//9 11//9 5//9
f  5//10 11//10 13//10
f  5//11 13//11 14//11
f  5//12 14//12 6//12
f  6//12 14//12 12//12
f  9//13 11//13 10//13
f  11//13 9//13 13//14
f  13//14 9//13 14//15
f  14//15 9//13 12//16
f  12//16 9//13 8//17

