# {"id":"_3084","idOriginal":"_3084","origin":[14.289848552920184,48.29372192915653],"elevation":262.253}
# Longitude: 14.289848552920184
# Latitude: 48.29372192915653
# Elevation: 262.253

# File produced by Open Asset Import Library (http://www.assimp.sf.net)
# (assimp v3.1.0)

mtllib _3084.obj.mtl

# 28 vertex positions
v  6.948 30.814 4.174
v  6.233 31.207 3.628
v  6.184 31.207 3.715
v  11.055 28.699 6.641
v  11.45 28.496 6.878
v  12.345 28.054 7.33
v  29.274 27.999 -22.975
v  19.906 31.207 -21.053
v  29.231 28.023 -23.008
v  28.045 28.023 -23.913
v  28.002 28.023 -23.946
v  17.643 28.023 -31.848
v  11.779 28.1 -20.904
v  0.444 28.026 -0.788
v  0 28.023 1.71591e-15
v  17.643 1.95013e-15 -31.848
v  29.274 1.40681e-15 -22.975
v  29.231 1.40883e-15 -23.008
v  28.045 1.46425e-15 -23.913
v  28.002 1.46627e-15 -23.946
v  11.779 1.28e-15 -20.904
v  0 0 0
v  0.444 4.82511e-17 -0.788
v  11.45 -4.21156e-16 6.878
v  6.184 -2.27478e-16 3.715
v  6.948 -2.55584e-16 4.174
v  11.055 -4.06644e-16 6.641
v  12.345 -4.48833e-16 7.33

# 0 UV coordinates

# 49 vertex normals
vn 0.351654 0.914939 0.198057
vn 0.354126 0.914714 0.194659
vn 0.333292 0.91482 0.228083
vn 0.350753 0.914844 0.200084
vn 0.353356 0.914783 0.195732
vn 0.353418 0.914747 0.195789
vn 0.35419 0.912989 0.202487
vn 0.245032 0.914792 -0.321114
vn 0.245545 0.915061 -0.319956
vn 0.244997 0.91478 -0.321175
vn -0.35332 0.914793 -0.195752
vn -0.353321 0.914796 -0.195736
vn -0.353349 0.914784 -0.195741
vn -0.353414 0.914778 -0.195651
vn -0.351932 0.914798 -0.198214
vn 0.606617 -0.00621468 -0.79497
vn 0.600098 0.168606 -0.781955
vn 0.606339 -0.0231423 -0.79487
vn 0.606531 0 -0.79506
vn -3.71312e-19 1 6.16378e-17
vn 2.92164e-19 1 6.09162e-17
vn -4.11194e-19 1 6.16791e-17
vn -0.881442 0 -0.472293
vn -0.87121 0 -0.490911
vn -0.871221 -1.87597e-05 -0.490891
vn -0.87121 3.00596e-17 -0.49091
vn 2.2249e-19 1 6.14071e-17
vn -0.514978 3.46303e-05 0.857204
vn -0.514949 -6.23188e-05 0.857221
vn -0.514952 0 0.857219
vn -0.514572 -0.000198978 0.857447
vn -0.514936 0 0.857229
vn 0 1 6.12811e-17
vn 0 1 6.127e-17
vn -8.40078e-20 1 6.13737e-17
vn -0.4508 0 0.892625
vn -0.4508 0 0.892625
vn 0.873019 -0 0.487686
vn 0.873019 0 0.487686
vn 0 -1 -6.12323e-17
vn -2.54353e-24 -1 -6.12323e-17
vn -6.21493e-24 -1 -6.12323e-17
vn 9.34071e-23 -1 -6.12323e-17
vn 1.05822e-23 -1 -6.12323e-17
vn -1.36859e-23 -1 -6.12323e-17
vn -4.72356e-24 -1 -6.12323e-17
vn 1.06773e-20 -1 -6.12448e-17
vn 3.64353e-19 -1 -6.17092e-17
vn 3.97756e-19 -1 -6.17535e-17

# Mesh 'defaultobject' with 51 faces
g defaultobject
usemtl DefaultMaterial
f  1//1 2//1 3//1
f  2//2 1//2 4//2
f  2//3 4//3 5//3
f  2//4 5//4 6//4
f  2//5 6//5 7//5
f  2//6 7//6 8//6
f  8//7 7//7 9//7
f  10//8 8//8 9//8
f  8//9 10//9 11//9
f  8//10 11//10 12//10
f  13//11 8//11 12//11
f  8//12 13//12 2//12
f  2//13 13//13 14//13
f  2//14 14//14 15//14
f  2//15 15//15 3//15
f  7//16 10//16 9//16
f  10//17 7//17 11//17
f  11//18 7//18 12//18
f  12//19 7//19 16//19
f  16//19 7//19 17//19
f  16//20 17//20 18//20
f  16//20 18//20 19//21
f  16//20 19//21 20//22
f  12//23 21//23 13//23
f  21//23 12//23 16//23
f  21//24 14//24 13//24
f  14//25 21//25 15//25
f  15//26 21//24 22//26
f  22//27 21//27 23//27
f  15//28 1//28 3//28
f  1//29 15//29 4//29
f  4//30 15//30 22//30
f  4//31 22//31 5//31
f  5//32 22//32 24//32
f  24//33 22//27 25//33
f  24//33 25//33 26//34
f  24//33 26//34 27//35
f  24//36 6//36 5//36
f  6//36 24//36 28//37
f  28//38 7//38 6//38
f  7//38 28//38 17//39
f  23//40 25//40 22//40
f  25//40 23//40 21//41
f  25//40 21//41 27//42
f  27//42 21//41 24//43
f  24//43 21//41 28//44
f  28//44 21//41 17//45
f  17//45 21//41 16//46
f  17//45 16//46 19//47
f  19//47 16//46 20//48
f  17//45 19//47 18//49

