# {"id":"_15363","idOriginal":"_15363","origin":[14.291241078530662,48.30843964885679],"elevation":255.319,"wof":[{"Id":102049853,"Name":"Linz","Placetype":"county","Offset":-1},{"Id":85681677,"Name":"Oberösterreich","Placetype":"region","Offset":-1},{"Id":85632785,"Name":"Austria","Placetype":"country","Offset":-1},{"Id":85898449,"Name":"Steeg","Placetype":"neighbourhood","Offset":-1},{"Id":101748071,"Name":"Linz","Placetype":"locality","Offset":-1}]}

# Attribution: City of Linz <http://geo.data.linz.gv.at/katalog/geodata/3d_geo_daten_lod2/>
# Longitude: 14.291241078530662
# Latitude: 48.30843964885679
# Elevation: 255.319

# File produced by Open Asset Import Library (http://www.assimp.sf.net)
# (assimp v3.1.0)


# 48 vertex positions
v  6.955 4.951 15.653
v  5.495 4.951 22.975
v  9.695 4.951 20.522
v  5.139 4.951 22.301
v  2.78 4.951 18.092
v  2.78 -1.10782e-15 18.092
v  5.139 -1.36554e-15 22.301
v  5.495 -1.40681e-15 22.975
v  9.695 -1.25661e-15 20.522
v  6.955 -9.5847e-16 15.653
v  0 17.671 1.08204e-15
v  6.13 17.671 -3.085
v  5.712 17.671 -3.913
v  6.629 17.671 -2.098
v  8.468 17.671 1.21
v  8.143 17.671 1.469
v  4.726 17.671 7.999
v  14.764 17.671 12.879
v  8.735 17.671 14.613
v  17.068 17.671 15.97
v  15.211 17.671 12.538
v  6.955 17.671 15.653
v  17.079 17.671 16.155
v  15.806 17.671 16.91
v  11.483 17.671 19.442
v  9.695 17.671 20.522
v  10.01 17.671 20.338
v  17.216 17.671 16.232
v  17.16 17.671 16.265
v  17.47 17.671 16.683
v  8.735 -8.94788e-16 14.613
v  4.726 -4.89797e-16 7.999
v  0 0 0
v  17.079 -9.89208e-16 16.155
v  17.47 -1.02154e-15 16.683
v  17.16 -9.95944e-16 16.265
v  15.211 -7.67731e-16 12.538
v  14.764 -7.88611e-16 12.879
v  5.712 2.39602e-16 -3.913
v  10.01 -1.24534e-15 20.338
v  15.806 -1.03544e-15 16.91
v  11.483 -1.19048e-15 19.442
v  8.143 -8.99503e-17 1.469
v  8.468 -7.40911e-17 1.21
v  17.216 -9.93923e-16 16.232
v  17.068 -9.7788e-16 15.97
v  6.629 1.28465e-16 -2.098
v  6.13 1.88902e-16 -3.085

# 0 UV coordinates

# 50 vertex normals
vn 0 1 -0
vn -0.872333 0 0.488912
vn -0.884234 0 0.467044
vn 0.504331 -0 0.86351
vn 0.871485 0 -0.490423
vn -0.504424 0 -0.863456
vn -4.64499e-23 -1 -6.12324e-17
vn -1.47225e-23 -1 -6.12323e-17
vn 1.76394e-23 -1 -6.12324e-17
vn -0.855168 0 0.51835
vn -0.860948 -0.00493502 0.508669
vn -0.855153 0.00592826 0.518341
vn -0.860959 0 0.508675
vn -0.871485 0 0.490423
vn -0.805239 0 0.592951
vn -0.803218 -2.62833e-05 0.595685
vn -0.803639 0 0.595117
vn -2.56679e-19 1 6.1425e-17
vn -0.504474 0 -0.863427
vn -0.606525 0 -0.795065
vn -0.565155 0 -0.824985
vn -0.565155 5.05157e-17 -0.824985
vn 0.504382 -0 0.863481
vn 0.519689 -0 0.854355
vn 0.505396 0.001624 0.862886
vn 0.510117 -0.000463747 0.860105
vn 0.509069 0.000101928 0.860725
vn 0.510117 0 0.860105
vn 7.36432e-22 -1 -6.12314e-17
vn 0.623226 -0 0.782042
vn 0.871318 0 -0.490719
vn 0.870688 -3.75275e-05 -0.491835
vn 0.879506 0.000806564 -0.475887
vn 0.871312 -0.00371942 -0.490716
vn 0.878885 0 -0.477034
vn -4.94818e-21 -1 -6.12288e-17
vn 0.864926 0 -0.5019
vn 0.87402 0 -0.48589
vn 0.892429 0 -0.451188
vn 0.892695 3.69657e-05 -0.45066
vn 0.892551 0 -0.450947
vn -1.0922e-20 -1 -6.12288e-17
vn 4.15853e-24 -1 -6.12323e-17
vn 0 -1 -6.12323e-17
vn 8.53091e-24 -1 -6.12323e-17
vn -5.15082e-24 -1 -6.12323e-17
vn -9.0442e-24 -1 -6.12323e-17
vn 3.95286e-22 -1 -6.12317e-17
vn -6.20423e-22 -1 -6.1233e-17
vn -6.45511e-23 -1 -6.12321e-17

# Mesh 'defaultobject' with 92 faces
g defaultobject
usemtl DefaultMaterial
f  1//1 2//1 3//1
f  2//1 1//1 4//1
f  4//1 1//1 5//1
f  6//2 4//2 5//2
f  4//2 6//2 7//2
f  7//3 2//3 4//3
f  2//3 7//3 8//3
f  8//4 3//4 2//4
f  3//4 8//4 9//4
f  9//5 1//5 3//5
f  1//5 9//5 10//5
f  10//6 5//6 1//6
f  5//6 10//6 6//6
f  7//7 9//7 8//7
f  9//7 7//7 6//8
f  9//7 6//8 10//9
f  11//1 12//1 13//1
f  12//1 11//1 14//1
f  14//1 11//1 15//1
f  15//1 11//1 16//1
f  16//1 11//1 17//1
f  16//1 17//1 18//1
f  18//1 17//1 19//1
f  18//1 20//1 21//1
f  20//1 18//1 19//1
f  20//1 19//1 22//1
f  20//1 22//1 23//1
f  23//1 22//1 24//1
f  24//1 22//1 25//1
f  25//1 22//1 26//1
f  25//1 26//1 27//1
f  23//1 28//1 20//1
f  28//1 23//1 29//1
f  28//1 29//1 30//1
f  17//10 31//10 19//10
f  31//11 17//11 11//11
f  31//12 11//12 32//12
f  32//13 11//13 33//13
f  10//14 26//14 22//14
f  26//14 10//14 9//14
f  34//15 29//15 23//15
f  29//16 34//16 30//16
f  30//17 34//17 35//17
f  35//18 34//18 36//18
f  31//19 22//19 19//19
f  22//19 31//19 10//19
f  37//20 18//20 21//20
f  18//20 37//20 38//20
f  39//21 11//21 13//21
f  11//21 39//21 33//22
f  9//23 27//23 26//23
f  27//23 9//23 40//23
f  40//24 25//24 27//24
f  25//25 40//25 24//25
f  24//26 40//26 23//26
f  23//27 40//27 41//27
f  23//28 41//28 34//28
f  41//29 40//29 42//29
f  43//30 15//30 16//30
f  15//30 43//30 44//30
f  35//31 28//31 30//31
f  28//32 35//32 20//32
f  20//33 35//33 21//33
f  21//34 35//34 45//34
f  21//35 45//35 37//35
f  37//36 45//36 46//36
f  38//37 16//37 18//37
f  16//37 38//37 43//37
f  44//38 14//38 15//38
f  14//38 44//38 47//38
f  47//39 12//39 14//39
f  12//40 47//40 13//40
f  13//41 47//41 39//41
f  39//42 47//42 48//42
f  48//42 33//43 39//42
f  33//43 48//42 32//44
f  32//44 48//42 47//42
f  32//44 47//42 43//44
f  43//44 47//42 44//45
f  32//44 43//44 38//46
f  32//44 38//46 31//47
f  46//36 38//46 37//36
f  31//47 9//7 10//9
f  9//7 31//47 38//46
f  9//7 38//46 46//36
f  9//7 46//36 42//29
f  42//29 46//36 34//48
f  34//48 46//36 45//36
f  9//7 42//29 40//29
f  42//29 34//48 41//29
f  34//48 45//36 36//49
f  36//49 45//36 35//50

