# {"id":"ID_56932","idOriginal":"ID_56932","origin":[14.318372182458871,48.33247850679152],"elevation":258.503,"wof":[{"Id":102049853,"Name":"Linz","Placetype":"county","Offset":-1},{"Id":101748071,"Name":"Linz","Placetype":"locality","Offset":-1},{"Id":85632785,"Name":"Austria","Placetype":"country","Offset":-1},{"Id":85681677,"Name":"Oberösterreich","Placetype":"region","Offset":-1},{"Id":85898419,"Name":"Furth","Placetype":"neighbourhood","Offset":-1}]}

# Attribution: City of Linz <http://geo.data.linz.gv.at/katalog/geodata/3d_geo_daten_lod2/>
# Longitude: 14.318372182458871
# Latitude: 48.33247850679152
# Elevation: 258.503

# File produced by Open Asset Import Library (http://www.assimp.sf.net)
# (assimp v3.1.0)


# 8 vertex positions
v  0.657 2.286 -2.444
v  2.164 2.286 0.582
v  2.821 2.286 -1.863
v  0 2.286 1.39977e-16
v  2.821 1.14076e-16 -1.863
v  0.657 1.49652e-16 -2.444
v  0 0 0
v  2.164 -3.56372e-17 0.582

# 0 UV coordinates

# 9 vertex normals
vn 0 1 0
vn 0.259301 0 -0.965796
vn -0.965715 0 -0.259605
vn -0.965715 1.58962e-17 -0.259605
vn -0.259717 -5.91311e-17 0.965685
vn -0.259717 0 0.965685
vn 0.965741 -0 0.259506
vn 9.33234e-24 -1 -6.12323e-17
vn 0 -1 -6.12323e-17

# Mesh 'defaultobject' with 12 faces
g defaultobject
usemtl DefaultMaterial
f  1//1 2//1 3//1
f  2//1 1//1 4//1
f  5//2 1//2 3//2
f  1//2 5//2 6//2
f  6//3 4//3 1//3
f  4//3 6//3 7//4
f  7//5 2//5 4//5
f  2//5 7//5 8//6
f  8//7 3//7 2//7
f  3//7 8//7 5//7
f  8//8 6//8 5//8
f  6//8 8//8 7//9

