# {"id":"ID_43838","idOriginal":"ID_43838","origin":[14.315639186642938,48.28717416109255],"elevation":255.837,"wof":[{"Id":85681677,"Name":"Oberösterreich","Placetype":"region","Offset":-1},{"Id":102049853,"Name":"Linz","Placetype":"county","Offset":-1},{"Id":101748071,"Name":"Linz","Placetype":"locality","Offset":-1},{"Id":85632785,"Name":"Austria","Placetype":"country","Offset":-1},{"Id":85898459,"Name":"Wegscheid","Placetype":"neighbourhood","Offset":-1}]}

# Attribution: City of Linz <http://geo.data.linz.gv.at/katalog/geodata/3d_geo_daten_lod2/>
# Longitude: 14.315639186642938
# Latitude: 48.28717416109255
# Elevation: 255.837

# File produced by Open Asset Import Library (http://www.assimp.sf.net)
# (assimp v3.1.0)


# 24 vertex positions
v  0.829 1.954 0.057
v  5.138 0.218 -0.959
v  0.967 0.217 -1.247
v  0.746 3.55 1.259
v  4.966 3.55 1.55
v  0 1.954 1.19648e-16
v  0.815 0.303 -1.192
v  0.086 0.304 -1.242
v  0.951 0.303 -1.183
v  0.729 1.954 0.05
v  0.574 0.217 3.768
v  4.793 0.217 4.059
v  0 0 0
v  0.086 7.60506e-17 -1.242
v  0.829 -3.49024e-18 0.057
v  0.746 -7.70915e-17 1.259
v  0.574 -2.30723e-16 3.768
v  0.729 -3.06162e-18 0.05
v  4.793 -2.48542e-16 4.059
v  4.966 -9.49101e-17 1.55
v  5.138 5.87218e-17 -0.959
v  0.967 7.63567e-17 -1.247
v  0.951 7.24379e-17 -1.183
v  0.815 7.29889e-17 -1.192

# 0 UV coordinates

# 36 vertex normals
vn 0.0548472 0.602248 -0.796423
vn 0.0550041 0.602513 -0.796211
vn 0.0549092 0.602433 -0.796278
vn 0.0554445 0.602312 -0.796333
vn 0.0527498 0.601536 -0.797102
vn 0.0488423 0.602131 -0.796902
vn 0.0557457 0.602239 -0.796367
vn 0.0546289 0.60218 -0.796489
vn -0.0549152 0.602318 0.796365
vn -0.0549276 0.602328 0.796356
vn -0.997611 0 -0.0690778
vn -0.997611 0 -0.0690778
vn -0.997641 -0.000187186 -0.0686402
vn -0.997648 0 -0.068553
vn -0.997608 0.00574847 -0.0688864
vn -0.997658 -0 -0.0683927
vn -0.0684264 -6.10888e-17 0.997656
vn -0.0698291 0.000525828 0.997559
vn -0.0685956 0 0.997644
vn 1.25485e-22 -1 -6.12343e-17
vn -0.0688102 0 0.99763
vn 0.997631 -0 0.0687884
vn 0.997631 0 0.0687884
vn 0.997658 0 0.0683927
vn 0.997658 0 0.0683927
vn 0.0688842 0 -0.997625
vn 0.0660325 0 -0.997818
vn 0.0684277 0.00107989 -0.997656
vn 0.0660314 -0.00576679 -0.997801
vn 0.0684263 0 -0.997656
vn 3.90532e-23 -1 -6.12323e-17
vn -8.63808e-24 -1 -6.12323e-17
vn -9.33278e-25 -1 -6.12323e-17
vn -9.33083e-25 -1 -6.12323e-17
vn -3.11028e-25 -1 -6.12323e-17
vn 9.05882e-25 -1 -6.12323e-17

# Mesh 'defaultobject' with 42 faces
g defaultobject
usemtl DefaultMaterial
f  1//1 2//1 3//1
f  2//2 1//2 4//2
f  2//3 4//3 5//3
f  6//4 7//4 8//4
f  7//5 6//5 9//5
f  9//6 1//6 3//6
f  1//7 9//7 10//7
f  10//8 9//8 6//8
f  11//9 5//9 4//9
f  5//10 11//10 12//10
f  8//11 13//11 6//11
f  13//11 8//11 14//12
f  1//13 11//13 4//13
f  11//14 1//14 15//14
f  11//15 15//15 16//15
f  11//16 16//16 17//16
f  13//17 10//17 6//17
f  10//18 13//18 1//18
f  1//19 13//19 15//19
f  15//20 13//20 18//20
f  17//21 12//21 11//21
f  12//21 17//21 19//21
f  19//22 5//22 12//22
f  5//22 19//22 20//23
f  5//24 20//24 2//24
f  2//24 20//24 21//25
f  21//26 3//26 2//26
f  3//26 21//26 22//26
f  23//27 7//27 9//27
f  7//28 23//28 8//28
f  8//29 23//29 24//29
f  8//30 24//30 14//30
f  13//20 24//31 23//31
f  24//31 13//20 14//32
f  17//33 20//33 19//33
f  20//33 17//33 16//34
f  20//33 16//34 21//35
f  21//35 16//34 15//20
f  21//35 15//20 22//36
f  22//36 15//20 18//20
f  22//36 18//20 23//31
f  23//31 18//20 13//20

