# {"id":"ID_19443","idOriginal":"ID_19443","origin":[14.31961593950724,48.2634794978039],"elevation":258.486}
# Longitude: 14.31961593950724
# Latitude: 48.2634794978039
# Elevation: 258.486

# File produced by Open Asset Import Library (http://www.assimp.sf.net)
# (assimp v3.1.0)

mtllib ID_19443.obj.mtl

# 14 vertex positions
v  1.152 2.801 4.571
v  10.477 3.819 -2.473
v  0 3.804 2.32928e-16
v  23.712 2.805 -0.618
v  29.377 3.812 -6.767
v  23.731 2.768 -0.446
v  30.426 2.772 -1.997
v  30.426 1.22281e-16 -1.997
v  23.731 2.73096e-17 -0.446
v  23.712 3.78416e-17 -0.618
v  1.152 -2.79893e-16 4.571
v  29.377 4.14359e-16 -6.767
v  10.477 1.51428e-16 -2.473
v  0 0 0

# 0 UV coordinates

# 19 vertex normals
vn 0.046493 0.978095 0.202903
vn 0.0464973 0.978093 0.202908
vn 0.046483 0.978075 0.203
vn 0.0486528 0.97757 0.204916
vn 0.0464512 0.97807 0.203032
vn 0.225688 0 0.9742
vn 0.225688 0 0.9742
vn 0.224156 0 0.974553
vn 0.976662 0 -0.214784
vn -0.22155 0 -0.975149
vn -0.22155 -0 -0.975149
vn -0.229728 -0 -0.973255
vn -0.229728 5.95947e-17 -0.973255
vn -0.969679 -1.49641e-17 0.244382
vn -0.969679 0 0.244382
vn -0.993953 0 0.109803
vn 2.08673e-24 -1 -6.12323e-17
vn 0 -1 -6.12323e-17
vn -3.63857e-23 -1 -6.12324e-17

# Mesh 'defaultobject' with 24 faces
g defaultobject
usemtl DefaultMaterial
f  1//1 2//1 3//1
f  2//1 1//1 4//2
f  2//3 4//3 5//3
f  5//4 4//4 6//4
f  5//5 6//5 7//5
f  6//6 8//6 7//6
f  8//6 6//6 9//7
f  1//8 10//8 4//8
f  10//8 1//8 11//8
f  7//9 12//9 5//9
f  12//9 7//9 8//9
f  12//10 2//10 5//10
f  2//10 12//10 13//11
f  2//12 13//12 3//12
f  3//12 13//12 14//13
f  14//14 1//14 3//14
f  1//14 14//14 11//15
f  10//16 6//16 4//16
f  6//16 10//16 9//16
f  13//17 11//17 14//17
f  11//17 13//17 10//18
f  10//18 13//17 12//18
f  10//18 12//18 9//19
f  9//19 12//18 8//18

