# {"id":"ID_25936","idOriginal":"ID_25936","origin":[14.278863450259713,48.274879533609145],"elevation":278.379}
# Longitude: 14.278863450259713
# Latitude: 48.274879533609145
# Elevation: 278.379

# File produced by Open Asset Import Library (http://www.assimp.sf.net)
# (assimp v3.1.0)

mtllib ID_25936.obj.mtl

# 23 vertex positions
v  13.435 2.678 1.388
v  6.831 9.209 0.61
v  9.451 9.209 4.186
v  13.62 2.299 1.162
v  13.098 2.298 0.449
v  8.412 2.379 -5.845
v  13.041 2.299 0.372
v  8.464 2.299 -5.875
v  5.236 2.287 7.147
v  8.038 2.32 -5.632
v  0 2.387 1.46162e-16
v  2.599 9.209 3.547
v  0 0 0
v  2.599 -2.17191e-16 3.547
v  5.236 -4.37628e-16 7.147
v  9.451 -2.56319e-16 4.186
v  13.435 -8.49905e-17 1.388
v  13.62 -7.1152e-17 1.162
v  13.098 -2.74933e-17 0.449
v  13.041 -2.27784e-17 0.372
v  8.464 3.5974e-16 -5.875
v  8.038 3.44861e-16 -5.632
v  8.412 3.57903e-16 -5.845

# 0 UV coordinates

# 37 vertex normals
vn 0.646794 0.597573 -0.473882
vn 0.647057 0.597936 -0.473064
vn 0.646645 0.597436 -0.474258
vn 0.646805 0.597572 -0.473868
vn -0.0273328 0.999075 0.0332084
vn 0.64658 0.597925 -0.473731
vn -0.647185 0.596922 0.474168
vn -0.478845 0.541914 -0.690678
vn -0.479316 0.541693 -0.690525
vn -0.479269 0.541651 -0.690591
vn 0.479244 0.541717 0.690556
vn -0.806636 -3.61913e-17 0.591048
vn -0.806687 4.13824e-05 0.590978
vn -0.806636 -0.000294356 0.591048
vn -0.806725 0 0.590926
vn 0.57483 0 0.818273
vn 0.57483 0 0.818273
vn 0.57473 0 0.818343
vn 0.57473 0 0.818343
vn 0.773806 -0 0.633423
vn 0.773806 0 0.633423
vn 0.806872 0 -0.590726
vn 0.803732 -0.00203592 -0.594988
vn 0.806659 6.62597e-05 -0.591017
vn 0.806871 0.00143272 -0.590725
vn 0.803636 -0.0165558 -0.594891
vn 0.806659 0 -0.591017
vn -0.495336 0.00378845 -0.868693
vn -0.49548 -0 -0.868619
vn -0.49548 0 -0.868619
vn -3.30612e-20 -1 -6.12897e-17
vn -0.573831 0 -0.818973
vn 0 -1 -6.12327e-17
vn 0 -1 -6.12323e-17
vn 0 -1 -6.12324e-17
vn 0 -1 -6.12323e-17
vn -5.75877e-25 -1 -6.12324e-17

# Mesh 'defaultobject' with 42 faces
g defaultobject
usemtl DefaultMaterial
f  1//1 2//1 3//1
f  2//2 1//2 4//2
f  2//3 4//3 5//3
f  2//4 5//4 6//4
f  6//5 5//5 7//5
f  6//6 7//6 8//6
f  2//7 9//7 3//7
f  10//8 2//8 6//8
f  2//9 10//9 11//9
f  2//10 11//10 12//10
f  2//11 12//11 9//11
f  13//12 12//12 11//12
f  12//13 13//13 9//13
f  9//14 13//14 14//14
f  9//15 14//15 15//15
f  16//16 9//16 15//16
f  9//16 16//16 3//17
f  3//18 16//18 17//18
f  3//18 17//18 1//19
f  17//20 4//20 1//20
f  4//20 17//20 18//21
f  18//22 5//22 4//22
f  5//23 18//23 7//23
f  7//24 18//24 8//24
f  8//25 18//25 19//25
f  8//26 19//26 20//26
f  8//27 20//27 21//27
f  8//28 10//28 6//28
f  10//29 8//29 22//29
f  22//29 8//29 21//30
f  22//31 21//31 23//31
f  10//32 13//32 11//32
f  13//32 10//32 22//32
f  20//33 23//31 21//31
f  23//31 20//33 22//31
f  22//31 20//33 13//34
f  13//34 20//33 19//34
f  13//34 19//34 18//35
f  13//34 18//35 17//36
f  13//34 17//36 16//34
f  13//34 16//34 14//34
f  14//34 16//34 15//37

