# {"id":"ID_22574","idOriginal":"ID_22574","origin":[14.268303240525848,48.31660860046511],"elevation":322.939}
# Longitude: 14.268303240525848
# Latitude: 48.31660860046511
# Elevation: 322.939

# File produced by Open Asset Import Library (http://www.assimp.sf.net)
# (assimp v3.1.0)

mtllib ID_22574.obj.mtl

# 38 vertex positions
v  10.296 7.923 -5.398
v  11.918 10.208 1.416
v  14.303 7.925 -3.451
v  1.716 10.208 -3.528
v  9.36 7.92 -5.859
v  4.096 7.917 -8.42
v  6.511 7.924 4.822
v  3.044 8.553 1.482
v  2.373 7.919 2.829
v  0.223 8.77 -0.458
v  0 8.556 5.23904e-16
v  7.16 8.555 3.471
v  10.203 8.553 4.951
v  10.25 8.597 4.857
v  10.327 8.627 4.816
v  11.432 8.972 4.441
v  11.875 10.167 1.504
v  11.653 9.031 4.392
v  12.373 9.718 2.929
v  6.511 -2.95262e-16 4.822
v  2.373 -1.73226e-16 2.829
v  7.16 -2.12537e-16 3.471
v  10.203 -3.03161e-16 4.951
v  0 0 0
v  3.044 -9.07463e-17 1.482
v  10.25 -2.97405e-16 4.857
v  10.327 -2.94895e-16 4.816
v  12.373 -1.7935e-16 2.929
v  11.653 -2.68932e-16 4.392
v  11.875 -9.20934e-17 1.504
v  14.303 2.11313e-16 -3.451
v  11.918 -8.6705e-17 1.416
v  11.432 -2.71933e-16 4.441
v  4.096 5.15576e-16 -8.42
v  10.296 3.30532e-16 -5.398
v  9.36 3.5876e-16 -5.859
v  1.716 2.16028e-16 -3.528
v  0.223 2.80444e-17 -0.458

# 0 UV coordinates

# 59 vertex normals
vn 0.169283 0.921578 -0.349337
vn 0.169293 0.921576 -0.349339
vn 0.169221 0.921499 -0.349577
vn 0.169368 0.921612 -0.349207
vn -0.169383 0.921547 0.349372
vn -0.168805 0.921949 0.34859
vn -0.169335 0.921576 0.349319
vn -0.169323 0.921579 0.349316
vn -0.169125 0.921651 0.349222
vn -0.1693 0.921574 0.34934
vn -0.167712 0.922404 0.347913
vn -0.171494 0.920394 0.351375
vn -0.169219 0.92162 0.34926
vn -0.169352 0.921538 0.349409
vn -0.168399 0.922437 0.347493
vn -0.16854 0.921627 0.349568
vn -0.169169 0.921543 0.349486
vn -0.433927 0 0.900948
vn -0.437375 0 0.899279
vn -0.437737 -5.50542e-17 0.899103
vn -0.437737 0 0.899103
vn 0.901388 0 0.433013
vn 0.901388 0 0.433013
vn 0.894428 0 0.447212
vn 0.894428 0 0.447212
vn 0.469994 0 0.88267
vn 0.897231 0 0.441563
vn 0.89723 0 0.441563
vn 0.898225 0.00134089 0.439533
vn 0.897987 0 0.440023
vn 1.77352e-19 -1 -6.12751e-17
vn 0.321365 0 0.946955
vn 0.321365 0 0.946956
vn 0.216462 0 0.976291
vn 0.216462 0 0.976291
vn 0.944013 0 -0.329908
vn 0.437039 0 -0.899443
vn 0.441829 0.00299972 -0.897094
vn 0.437485 -0.000359801 -0.899226
vn 0.43771 0 -0.899116
vn -2.80374e-21 -1 -6.1228e-17
vn 1.78786e-21 1 6.12269e-17
vn -0.899227 0 -0.437482
vn -0.899282 -6.66461e-05 -0.437369
vn -0.899227 5.96062e-05 -0.437482
vn -0.899118 0.00015698 -0.437707
vn -0.899294 -2.79347e-05 -0.437344
vn -0.899089 2.68054e-17 -0.437766
vn -0.895091 0 -0.445884
vn 2.44097e-23 -1 -6.12323e-17
vn 2.57875e-24 -1 -6.12323e-17
vn 1.85883e-24 -1 -6.12323e-17
vn -3.72181e-23 -1 -6.12322e-17
vn -6.1285e-22 -1 -6.1233e-17
vn -2.49349e-24 -1 -6.12323e-17
vn 0 -1 -6.12323e-17
vn -1.14465e-24 -1 -6.12323e-17
vn -7.64043e-25 -1 -6.12323e-17
vn -1.92259e-24 -1 -6.12323e-17

# Mesh 'defaultobject' with 72 faces
g defaultobject
usemtl DefaultMaterial
f  1//1 2//1 3//1
f  2//2 1//2 4//2
f  4//3 1//3 5//3
f  4//4 5//4 6//4
f  7//5 8//5 9//5
f  8//6 10//6 11//6
f  10//7 8//7 4//7
f  4//8 8//8 7//8
f  4//9 7//9 12//9
f  4//10 12//10 13//10
f  4//11 13//11 14//11
f  4//12 14//12 15//12
f  4//13 15//13 16//13
f  4//14 16//14 17//14
f  4//15 17//15 2//15
f  17//16 16//16 18//16
f  17//17 18//17 19//17
f  9//18 20//18 7//18
f  20//18 9//18 21//18
f  22//19 13//19 12//19
f  13//19 22//19 23//19
f  24//20 8//20 11//20
f  8//20 24//20 25//21
f  7//22 22//22 12//22
f  22//22 7//22 20//23
f  13//24 26//24 14//24
f  26//24 13//24 23//25
f  14//26 27//26 15//26
f  27//26 14//26 26//26
f  18//27 28//27 19//27
f  28//27 18//27 29//28
f  17//29 3//29 2//29
f  3//30 17//30 30//30
f  3//30 30//30 31//30
f  31//31 30//31 32//31
f  15//32 33//32 16//32
f  33//32 15//32 27//33
f  16//34 29//34 18//34
f  29//34 16//34 33//35
f  19//36 30//36 17//36
f  30//36 19//36 28//36
f  31//37 1//37 3//37
f  1//38 31//38 5//38
f  5//39 31//39 6//39
f  6//40 31//40 34//40
f  34//41 31//31 35//41
f  34//42 35//42 36//42
f  34//43 4//43 6//43
f  4//44 34//44 10//44
f  10//45 34//45 37//45
f  10//46 37//46 11//46
f  11//47 37//47 38//47
f  11//48 38//48 24//48
f  25//49 9//49 8//49
f  9//49 25//49 21//49
f  29//50 33//50 28//50
f  28//50 22//51 30//31
f  22//51 28//50 26//52
f  22//51 26//52 23//53
f  26//52 28//50 27//54
f  27//54 28//50 33//50
f  36//55 37//55 34//41
f  37//55 36//55 35//41
f  37//55 35//41 38//56
f  38//56 35//41 31//31
f  38//56 31//31 24//57
f  24//57 31//31 32//31
f  24//57 32//31 25//56
f  25//56 32//31 21//58
f  21//58 32//31 22//51
f  21//58 22//51 20//59
f  22//51 32//31 30//31

