# {"id":"ID_27510","idOriginal":"ID_27510","origin":[14.281039220316973,48.323765696122344],"elevation":268.043}
# Longitude: 14.281039220316973
# Latitude: 48.323765696122344
# Elevation: 268.043

# File produced by Open Asset Import Library (http://www.assimp.sf.net)
# (assimp v3.1.0)

mtllib ID_27510.obj.mtl

# 12 vertex positions
v  23.849 4.243 9.442
v  14.406 3.114 7.935
v  22.317 3.114 12.293
v  23.781 4.243 9.405
v  1.539 4.229 -2.803
v  0 3.114 1.90678e-16
v  23.849 -5.78156e-16 9.442
v  22.317 -7.52729e-16 12.293
v  1.539 1.71634e-16 -2.803
v  23.781 -5.7589e-16 9.405
v  0 0 0
v  14.406 -4.85879e-16 7.935

# 0 UV coordinates

# 16 vertex normals
vn -0.158929 0.944197 0.288502
vn -0.159482 0.942689 0.293092
vn -0.158943 0.944196 0.288499
vn -0.15885 0.944244 0.288392
vn 0.880878 0 0.473344
vn 0.880878 0 0.473344
vn 0.477959 0 -0.878382
vn 0.481159 6.65256e-05 -0.876633
vn 0.481149 0 -0.876639
vn 1.18109e-19 -1 -6.14166e-17
vn -0.876566 0 -0.481282
vn -0.876566 2.947e-17 -0.481282
vn -0.482509 0 0.875891
vn -0.482465 0 0.875915
vn 1.81109e-24 -1 -6.12323e-17
vn 4.02644e-24 -1 -6.12323e-17

# Mesh 'defaultobject' with 20 faces
g defaultobject
usemtl DefaultMaterial
f  1//1 2//1 3//1
f  2//2 1//2 4//2
f  2//3 4//3 5//3
f  2//4 5//4 6//4
f  3//5 7//5 1//5
f  7//5 3//5 8//6
f  7//7 4//7 1//7
f  4//8 7//8 5//8
f  5//9 7//9 9//9
f  9//10 7//10 10//10
f  9//11 6//11 5//11
f  6//11 9//11 11//12
f  2//13 8//13 3//13
f  8//13 2//13 12//13
f  12//14 2//14 6//14
f  12//14 6//14 11//14
f  12//15 7//10 8//15
f  7//10 12//15 10//10
f  10//10 12//15 9//10
f  9//10 12//15 11//16

