# {"id":"ID_31512","idOriginal":"ID_31512","origin":[14.343540886647887,48.27487385634631],"elevation":256.651,"wof":[{"Id":85681677,"Name":"Oberösterreich","Placetype":"region","Offset":-1},{"Id":85898451,"Name":"Ufer","Placetype":"neighbourhood","Offset":-1},{"Id":102049853,"Name":"Linz","Placetype":"county","Offset":-1},{"Id":85632785,"Name":"Austria","Placetype":"country","Offset":-1},{"Id":101748071,"Name":"Linz","Placetype":"locality","Offset":-1}]}

# Attribution: City of Linz <http://geo.data.linz.gv.at/katalog/geodata/3d_geo_daten_lod2/>
# Longitude: 14.343540886647887
# Latitude: 48.27487385634631
# Elevation: 256.651

# File produced by Open Asset Import Library (http://www.assimp.sf.net)
# (assimp v3.1.0)


# 12 vertex positions
v  0 2.275 1.39304e-16
v  6.816 2.275 4.2
v  5.697 2.275 -1.197
v  7.8 2.275 8.943
v  0.882 2.275 4.2
v  2.129 2.275 10.134
v  2.129 -6.20529e-16 10.134
v  7.8 -5.47601e-16 8.943
v  6.816 -2.57176e-16 4.2
v  5.697 7.32951e-17 -1.197
v  0 0 0
v  0.882 -2.57176e-16 4.2

# 0 UV coordinates

# 12 vertex normals
vn -0 1 0
vn 0.205532 -0 0.97865
vn 0.97915 0 -0.203138
vn 0.979175 0 -0.20302
vn -0.205621 0 -0.978632
vn -0.205621 5.99239e-17 -0.978632
vn -0.978625 0 0.205653
vn -0.978653 0 0.205517
vn 2.82903e-24 -1 -6.12323e-17
vn -0 -1 -6.12323e-17
vn -0 -1 -6.12323e-17
vn -1.05951e-24 -1 -6.12323e-17

# Mesh 'defaultobject' with 20 faces
g defaultobject
usemtl DefaultMaterial
f  1//1 2//1 3//1
f  2//1 1//1 4//1
f  4//1 1//1 5//1
f  4//1 5//1 6//1
f  7//2 4//2 6//2
f  4//2 7//2 8//2
f  8//3 2//3 4//3
f  2//3 8//3 9//3
f  2//4 9//4 3//4
f  3//4 9//4 10//4
f  10//5 1//5 3//5
f  1//5 10//5 11//6
f  5//7 7//7 6//7
f  7//7 5//7 12//7
f  12//8 5//8 1//8
f  12//8 1//8 11//8
f  7//9 9//9 8//9
f  9//9 7//9 12//10
f  9//9 12//10 10//11
f  10//11 12//10 11//12

