# {"id":"ID_61433","idOriginal":"ID_61433","origin":[14.359946086845046,48.257859511024165],"elevation":251.54,"wof":[{"Id":102049853,"Name":"Linz","Placetype":"county","Offset":-1},{"Id":101748071,"Name":"Linz","Placetype":"locality","Offset":-1},{"Id":85681677,"Name":"Oberösterreich","Placetype":"region","Offset":-1},{"Id":85898441,"Name":"Posch","Placetype":"neighbourhood","Offset":-1},{"Id":85632785,"Name":"Austria","Placetype":"country","Offset":-1}]}

# Attribution: City of Linz <http://geo.data.linz.gv.at/katalog/geodata/3d_geo_daten_lod2/>
# Longitude: 14.359946086845046
# Latitude: 48.257859511024165
# Elevation: 251.54

# File produced by Open Asset Import Library (http://www.assimp.sf.net)
# (assimp v3.1.0)


# 8 vertex positions
v  0 0 0
v  0.206 8.898 -0.005
v  0 8.898 5.44845e-16
v  0.206 3.06162e-19 -0.005
v  0.206 8.898 -0.225
v  0.206 1.37773e-17 -0.225
v  0 8.898 -0.22
v  0 1.34711e-17 -0.22

# 0 UV coordinates

# 5 vertex normals
vn 0.0242647 -6.12143e-17 0.999706
vn 0.0242647 0 0.999706
vn 1 -0 0
vn -0.0242647 0 -0.999706
vn -1 0 0

# Mesh 'defaultobject' with 8 faces
g defaultobject
usemtl DefaultMaterial
f  1//1 2//1 3//1
f  2//1 1//1 4//2
f  4//3 5//3 2//3
f  5//3 4//3 6//3
f  6//4 7//4 5//4
f  7//4 6//4 8//4
f  8//5 3//5 7//5
f  3//5 8//5 1//5

