# {"id":"ID_10595","idOriginal":"ID_10595","origin":[14.312550678275421,48.253921020653536],"elevation":258.308}
# Longitude: 14.312550678275421
# Latitude: 48.253921020653536
# Elevation: 258.308

# File produced by Open Asset Import Library (http://www.assimp.sf.net)
# (assimp v3.1.0)

mtllib ID_10595.obj.mtl

# 98 vertex positions
v  6.424 6.551 14.506
v  6.154 7.092 8.426
v  5.294 6.551 8.4
v  8.591 8.625 8.499
v  6.438 6.56 14.506
v  6.477 6.585 14.507
v  9.619 8.625 14.602
v  1.486 6.551 8.286
v  1.71 6.551 9.244
v  5.225 6.551 8.795
v  5.967 6.551 14.492
v  9.619 -8.94115e-16 14.602
v  6.438 -8.88236e-16 14.506
v  6.477 -8.88298e-16 14.507
v  1.71 -5.66032e-16 9.244
v  5.225 -5.38538e-16 8.795
v  6.424 -8.88236e-16 14.506
v  5.967 -8.87379e-16 14.492
v  8.591 -5.20414e-16 8.499
v  5.294 -5.14352e-16 8.4
v  1.486 -5.07371e-16 8.286
v  6.154 -5.15944e-16 8.426
v  9.943 9.838 -5.385
v  13.83 7.279 -2.734
v  13.23 7.302 -6.107
v  13.832 7.279 -2.721
v  13.895 7.275 -2.38
v  10.51 9.838 -2.025
v  14.61 7.233 1.531
v  11.406 9.838 3.293
v  14.813 7.221 2.638
v  15.459 7.167 6.044
v  15.527 7.181 6.559
v  12.301 9.838 8.611
v  15.806 7.214 8.48
v  15.841 7.218 8.717
v  16.278 7.27 11.728
v  13.33 9.838 14.713
v  16.318 7.275 12.004
v  16.749 7.299 14.746
v  16.755 7.302 14.816
v  7.295 7.795 -4.804
v  6.378 7.092 -4.637
v  6.946 7.092 -1.264
v  6.866 7.117 -1.203
v  4.466 9.838 3.922
v  5.736 7.092 -1.005
v  3.637 7.092 -0.557
v  7.769 9.838 3.618
v  0.023 7.092 0.216
v  0.511 9.751 4.129
v  0.368 9.327 3.519
v  0.544 9.838 4.271
v  1.404 7.305 7.938
v  1.486 7.092 8.286
v  5.294 7.092 8.4
v  8.591 7.092 8.499
v  9.619 7.092 14.602
v  16.755 -9.07218e-16 14.816
v  13.33 -9.00911e-16 14.713
v  16.749 7.298 14.746
v  16.749 -9.02932e-16 14.746
v  15.527 -4.01623e-16 6.559
v  15.841 -5.33762e-16 8.717
v  16.278 -7.18133e-16 11.728
v  16.318 -7.35033e-16 12.004
v  15.806 -5.1925e-16 8.48
v  15.459 -3.70088e-16 6.044
v  13.832 1.66613e-16 -2.721
v  13.895 1.45733e-16 -2.38
v  14.813 -1.61531e-16 2.638
v  14.61 -9.37467e-17 1.531
v  13.83 1.67409e-16 -2.734
v  13.23 3.73946e-16 -6.107
v  7.295 2.9416e-16 -4.804
v  9.943 3.29736e-16 -5.385
v  6.378 2.83934e-16 -4.637
v  6.946 7.73977e-17 -1.264
v  6.858 7.092 -1.245
v  6.858 7.62343e-17 -1.245
v  6.866 7.36625e-17 -1.203
v  5.736 6.15385e-17 -1.005
v  0.023 -1.32262e-17 0.216
v  3.637 3.41064e-17 -0.557
v  0.368 -2.15477e-16 3.519
v  0.511 -2.52828e-16 4.129
v  0.544 -2.61523e-16 4.271
v  1.404 -4.86062e-16 7.938
v  6.858 6.551 -1.245
v  6.378 6.551 -4.637
v  6.176 6.551 -4.6
v  6.946 6.551 -1.264
v  6.176 2.81669e-16 -4.6
v  0 6.551 4.01133e-16
v  3.637 6.551 -0.557
v  5.736 6.551 -1.005
v  0.023 6.551 0.216
v  0 0 0

# 0 UV coordinates

# 152 vertex normals
vn -0.532018 0.840989 0.0984572
vn -0.531987 0.841009 0.0984576
vn -0.538295 0.837392 0.0949338
vn -0.538965 0.837004 0.0945593
vn -0.544212 0.833925 0.0916681
vn 0 1 0
vn -0.0302218 0 0.999543
vn -0.0267156 0.00167442 0.999642
vn -0.0301657 0 0.999545
vn 1.00316e-20 -1 -6.15632e-17
vn 0.126709 -0 0.99194
vn -0 0 1
vn -0.0306201 0 0.999531
vn 0.986109 0 -0.166102
vn 0.0299414 0 -0.999552
vn 0.0301695 7.84424e-05 -0.999545
vn 0.0299234 -4.55202e-05 -0.999552
vn 0.0300138 5.25752e-05 -0.999549
vn 0.0299234 0 -0.999552
vn 1.42099e-21 -1 -6.12797e-17
vn -0.973736 0 0.227679
vn -0.991625 0 0.129153
vn -2.96846e-24 -1 -6.12323e-17
vn 1.3161e-23 -1 -6.12322e-17
vn -1.39884e-23 -1 -6.12323e-17
vn 0 -1 -6.12326e-17
vn 0.593887 0.798285 -0.100199
vn 0.590061 0.80224 -0.090772
vn 0.593979 0.798194 -0.100377
vn 0.593908 0.798266 -0.100222
vn 0.593935 0.798273 -0.100009
vn 0.59397 0.798238 -0.100075
vn 0.593897 0.79827 -0.100255
vn 0.593945 0.798267 -0.0999946
vn 0.593999 0.79821 -0.100131
vn 0.593914 0.798295 -0.0999535
vn 0.593906 0.798299 -0.0999707
vn 0.593805 0.798224 -0.101163
vn 0.593854 0.798337 -0.099976
vn 0.59394 0.79825 -0.100158
vn 0.593701 0.798384 -0.100509
vn 0.593815 0.798323 -0.100326
vn 0.59456 0.799523 -0.0852191
vn -0.593899 0.798273 0.100221
vn -0.593817 0.798353 0.100068
vn -0.59379 0.798383 0.0999919
vn -0.59378 0.798384 0.100043
vn -0.122318 0.851738 -0.509491
vn -0.107434 0.856407 -0.505
vn -0.107796 0.856331 -0.505051
vn -0.0432708 0.873868 -0.484234
vn -0.04455 0.87391 -0.484042
vn -0.117239 0.828139 -0.548124
vn -0.117398 0.828133 -0.5481
vn -0.0458206 0.855394 -0.515947
vn -0.0457493 0.856496 -0.514123
vn 0.0498057 0.827192 0.559707
vn -0.0159117 0.851137 0.524703
vn -0.015711 0.851078 0.524804
vn -0.0158667 0.851063 0.524823
vn -0.0147423 0.870384 0.492152
vn 0.0466797 0.860575 0.507181
vn -0.593772 0.798393 0.100016
vn -0.593888 0.798291 0.100149
vn -0.593896 0.798309 0.0999504
vn 0.0432781 0.873823 0.484315
vn -0.0299785 0.000109254 0.999551
vn -0.0299753 0 0.999551
vn -0.0300593 -8.46324e-05 0.999548
vn -0.0298977 0 0.999553
vn -0.0299234 0 0.999552
vn -0.0302188 0.000158749 0.999543
vn -0.0299414 -2.39836e-05 0.999552
vn -0.0299653 0 0.999551
vn -4.23833e-21 1 6.1375e-17
vn 0.996348 0 -0.0853819
vn 0.987871 0 -0.155278
vn 0.989638 0.00453961 -0.143511
vn 0.989611 0.00445795 -0.143704
vn 0.989262 0.00238511 -0.146133
vn 0.989596 0.00445334 -0.143802
vn 0.989043 0 -0.147626
vn 1.59541e-21 -1 -6.12327e-17
vn 4.26434e-21 -1 -6.1233e-17
vn -3.56797e-21 -1 -6.12318e-17
vn 7.14276e-20 -1 -6.12402e-17
vn 0.991395 0 -0.130904
vn 0.991395 0 -0.130904
vn 0.982485 0 -0.186343
vn 0.9836 0.00293166 -0.180339
vn 0.983697 0.00327848 -0.179802
vn 0.98336 0.00104712 -0.181666
vn 0.983205 0 -0.182507
vn 1.52374e-20 -1 -6.12353e-17
vn 0 -1 -6.12323e-17
vn -4.35852e-20 -1 -6.12208e-17
vn 0.988373 0 -0.152046
vn 0.984545 0 -0.175134
vn -0.214426 0.000153241 -0.97674
vn -0.214438 0 -0.976738
vn -0.214438 -0 -0.976738
vn -2.66971e-20 -1 -6.13594e-17
vn -0.179168 0 -0.983818
vn -0.179168 -0 -0.983818
vn -0.211045 0 -0.977476
vn -0.172592 0 -0.984993
vn -0.172592 -0 -0.984993
vn -0.208734 0 -0.977973
vn -0.20916 -0.000131816 -0.977882
vn -0.209003 -0 -0.977915
vn -1.91523e-21 1 6.12262e-17
vn -0.986116 0 0.166058
vn -0.982337 0 0.18712
vn -0.982337 0 0.18712
vn -0.994589 0 0.103885
vn -0.994589 0 0.103885
vn -0.973827 -0.00159059 0.227287
vn -0.973603 -1.35969e-05 0.228247
vn -0.973602 0 0.228253
vn -0.973413 -0.000511395 0.229055
vn -0.973583 0 0.228333
vn 3.53574e-19 1 6.10799e-17
vn -8.34597e-20 1 6.12594e-17
vn 9.35969e-21 1 6.12311e-17
vn -0.986109 0 0.166102
vn -6.28635e-25 -1 -6.12324e-17
vn -1.90879e-24 -1 -6.12323e-17
vn 3.93427e-22 -1 -6.12328e-17
vn -4.58972e-23 -1 -6.12323e-17
vn -1.21573e-23 -1 -6.12323e-17
vn 1.15848e-23 -1 -6.12323e-17
vn 4.96633e-24 -1 -6.12323e-17
vn 0 -1 -6.12323e-17
vn 3.26117e-23 -1 -6.12323e-17
vn 0 -1 -6.12307e-17
vn 0 -1 -6.12322e-17
vn 0 -1 -6.12323e-17
vn 1.43158e-20 -1 -6.12349e-17
vn -9.39723e-24 -1 -6.12323e-17
vn 0.211045 -0 0.977476
vn 0.986116 0 -0.166058
vn -0.180172 0 -0.983635
vn -0.979958 0 0.199204
vn 1.71771e-22 -1 -6.12324e-17
vn 0.209159 -0 0.977882
vn 0.208734 0.000245723 0.977973
vn 0.209003 0 0.977915
vn -0.17258 0 -0.984995
vn -0.17258 6.03136e-17 -0.984995
vn -0.994379 -6.48346e-18 0.105883
vn -0.994379 0 0.105883
vn 1.03604e-24 -1 -6.12323e-17

# Mesh 'defaultobject' with 201 faces
g defaultobject
usemtl DefaultMaterial
f  1//1 2//1 3//1
f  2//2 1//2 4//2
f  4//3 1//3 5//3
f  4//4 5//4 6//4
f  4//5 6//5 7//5
f  8//6 9//6 3//6
f  10//6 3//6 9//6
f  11//6 3//6 10//6
f  1//6 3//6 11//6
f  6//7 12//7 7//7
f  12//8 6//8 5//8
f  12//9 5//9 13//9
f  12//10 13//10 14//10
f  15//11 10//11 9//11
f  10//11 15//11 16//11
f  1//12 13//12 5//12
f  13//12 1//12 17//12
f  18//13 1//13 11//13
f  1//13 18//13 17//13
f  12//14 4//14 7//14
f  4//14 12//14 19//14
f  19//15 2//15 4//15
f  2//16 19//16 3//16
f  3//17 19//17 8//17
f  8//18 19//18 20//18
f  8//19 20//19 21//19
f  20//20 19//20 22//20
f  21//21 9//21 8//21
f  9//21 21//21 15//21
f  16//22 11//22 10//22
f  11//22 16//22 18//22
f  20//20 15//23 21//23
f  15//23 20//20 22//20
f  15//23 22//20 16//24
f  16//24 22//20 19//20
f  16//24 19//20 18//25
f  18//25 19//20 14//10
f  14//10 19//20 12//10
f  18//25 14//10 13//10
f  18//25 13//10 17//26
f  23//27 24//27 25//27
f  24//28 23//28 26//28
f  26//29 23//29 27//29
f  27//30 23//30 28//30
f  27//31 28//31 29//31
f  29//32 28//32 30//32
f  29//33 30//33 31//33
f  31//34 30//34 32//34
f  32//35 30//35 33//35
f  33//36 30//36 34//36
f  33//37 34//37 35//37
f  35//38 34//38 36//38
f  36//39 34//39 37//39
f  37//40 34//40 38//40
f  37//41 38//41 39//41
f  39//42 38//42 40//42
f  40//43 38//43 41//43
f  42//44 28//44 23//44
f  28//45 42//45 43//45
f  28//46 43//46 44//46
f  28//47 44//47 30//47
f  44//48 45//48 46//48
f  47//49 46//49 45//49
f  48//50 46//50 47//50
f  44//51 49//51 30//51
f  49//52 44//52 46//52
f  50//53 51//53 48//53
f  51//54 50//54 52//54
f  51//55 46//55 48//55
f  46//56 51//56 53//56
f  46//57 53//57 54//57
f  55//58 46//58 54//58
f  46//59 55//59 56//59
f  46//60 56//60 2//60
f  49//61 2//61 57//61
f  49//62 46//62 2//62
f  38//63 57//63 58//63
f  57//64 38//64 34//64
f  57//65 34//65 30//65
f  49//66 57//66 30//66
f  58//67 41//67 38//67
f  41//68 58//68 59//68
f  59//69 58//69 60//69
f  60//70 58//70 12//70
f  21//71 56//71 55//71
f  56//72 21//72 2//72
f  2//73 21//73 57//73
f  57//74 21//74 19//74
f  19//75 21//75 22//75
f  22//20 21//23 20//20
f  59//76 61//76 41//76
f  61//76 59//76 62//76
f  62//77 39//77 61//77
f  39//78 62//78 37//78
f  37//79 62//79 36//79
f  36//80 62//80 35//80
f  35//81 62//81 33//81
f  33//82 62//82 63//82
f  63//83 62//83 64//83
f  64//83 62//83 65//84
f  65//84 62//83 66//85
f  63//83 64//83 67//86
f  63//87 32//87 33//87
f  32//87 63//87 68//88
f  68//89 31//89 32//89
f  31//90 68//90 29//90
f  29//91 68//91 27//91
f  27//92 68//92 26//92
f  26//93 68//93 69//93
f  69//94 68//94 70//94
f  70//94 68//94 71//95
f  70//94 71//95 72//96
f  69//97 24//97 26//97
f  24//97 69//97 73//97
f  24//98 74//98 25//98
f  74//98 24//98 73//98
f  25//99 42//99 23//99
f  42//100 25//100 74//100
f  42//100 74//100 75//101
f  75//102 74//102 76//102
f  75//103 43//103 42//103
f  43//103 75//103 77//104
f  78//105 79//105 44//105
f  79//105 78//105 80//105
f  81//106 47//106 45//106
f  47//106 81//106 82//107
f  82//108 48//108 47//108
f  48//109 82//109 50//109
f  50//110 82//110 83//110
f  83//111 82//111 84//111
f  77//112 44//112 43//112
f  44//112 77//112 78//112
f  79//113 81//113 45//113
f  81//113 79//113 80//114
f  50//115 85//115 52//115
f  85//115 50//115 83//116
f  51//117 54//117 53//117
f  54//118 51//118 52//118
f  54//119 52//119 85//119
f  54//120 85//120 55//120
f  55//121 85//121 21//121
f  21//75 85//122 86//122
f  21//75 86//122 87//123
f  21//75 87//123 88//124
f  19//125 58//125 57//125
f  58//125 19//125 12//125
f  88//126 20//20 21//23
f  20//20 88//126 87//127
f  20//20 87//127 86//128
f  20//20 86//128 85//129
f  20//20 85//129 22//20
f  22//20 85//129 83//130
f  22//20 83//130 19//20
f  19//20 83//130 84//131
f  19//20 84//131 59//132
f  59//132 84//131 62//83
f  62//83 84//131 66//85
f  66//85 84//131 65//84
f  65//84 84//131 82//133
f  65//84 82//133 64//83
f  64//83 82//133 81//134
f  64//83 81//134 67//86
f  67//86 81//134 63//83
f  63//83 81//134 80//135
f  63//83 80//135 78//136
f  63//83 78//136 77//137
f  63//83 77//137 68//94
f  68//94 77//137 71//95
f  71//95 77//137 75//102
f  71//95 75//102 72//96
f  72//96 75//102 76//102
f  72//96 76//102 70//94
f  70//94 76//102 69//94
f  69//94 76//102 74//102
f  69//94 74//102 73//138
f  19//20 60//139 12//10
f  60//139 19//20 59//132
f  89//6 90//6 91//6
f  90//6 89//6 92//6
f  80//140 92//140 89//140
f  92//140 80//140 78//140
f  78//141 90//141 92//141
f  90//141 78//141 77//141
f  77//142 91//142 90//142
f  91//142 77//142 93//142
f  93//143 89//143 91//143
f  89//143 93//143 80//143
f  93//144 78//136 80//135
f  78//136 93//144 77//137
f  94//6 95//6 96//6
f  95//6 94//6 97//6
f  83//145 95//145 97//145
f  95//146 83//146 96//146
f  96//147 83//147 82//147
f  82//133 83//130 84//131
f  82//148 94//148 96//148
f  94//148 82//148 98//149
f  98//150 97//150 94//150
f  97//150 98//150 83//151
f  98//152 84//131 83//130
f  84//131 98//152 82//133

