# {"id":"ID_5268","idOriginal":"ID_5268","origin":[14.282710241249797,48.31958050669608],"elevation":262.288,"wof":[{"Id":85681677,"Name":"Oberösterreich","Placetype":"region","Offset":-1},{"Id":102049853,"Name":"Linz","Placetype":"county","Offset":-1},{"Id":85632785,"Name":"Austria","Placetype":"country","Offset":-1},{"Id":101748071,"Name":"Linz","Placetype":"locality","Offset":-1},{"Id":85898453,"Name":"Urfahr","Placetype":"neighbourhood","Offset":-1}]}

# Attribution: City of Linz <http://geo.data.linz.gv.at/katalog/geodata/3d_geo_daten_lod2/>
# Longitude: 14.282710241249797
# Latitude: 48.31958050669608
# Elevation: 262.288

# File produced by Open Asset Import Library (http://www.assimp.sf.net)
# (assimp v3.1.0)


# 40 vertex positions
v  25.411 15.043 13.039
v  22.998 16.462 -0.741
v  23.402 16.462 13.098
v  25.007 15.043 -0.794
v  18.568 17.912 13.239
v  18.163 17.912 -0.613
v  14.318 15.359 13.507
v  16.55 16.701 13.298
v  13.673 14.972 13.492
v  13.265 14.972 -0.483
v  16.55 -8.14268e-16 13.298
v  25.411 -7.98408e-16 13.039
v  18.568 -8.10655e-16 13.239
v  23.402 -8.02021e-16 13.098
v  14.318 -8.27065e-16 13.507
v  13.673 -8.26147e-16 13.492
v  25.007 4.86185e-17 -0.794
v  13.265 2.95752e-17 -0.483
v  22.998 4.53732e-17 -0.741
v  18.163 3.75354e-17 -0.613
v  0 2.836 1.73655e-16
v  9.436 2.836 13.479
v  9.032 2.836 -0.356
v  6.74 2.836 13.472
v  0.57 2.836 13.549
v  0.57 -8.29637e-16 13.549
v  6.74 -8.24922e-16 13.472
v  9.436 -8.25351e-16 13.479
v  9.032 2.17987e-17 -0.356
v  0 0 0
v  9.436 5.812 13.479
v  10.191 5.812 -0.402
v  9.032 5.812 -0.356
v  13.265 5.812 -0.483
v  11.934 5.812 13.451
v  13.673 5.812 13.492
v  10.053 5.812 13.481
v  10.053 -8.25473e-16 13.481
v  11.934 -8.23636e-16 13.451
v  10.191 2.46154e-17 -0.402

# 0 UV coordinates

# 51 vertex normals
vn 0.576511 0.816916 -0.0168301
vn 0.576544 0.816892 -0.0168382
vn 0.287077 0.957871 -0.00838063
vn 0.287043 0.957881 -0.00839249
vn -0.514632 0.857362 0.00919778
vn -0.514299 0.857479 0.015015
vn -0.514307 0.857475 0.0150114
vn -0.514177 0.857552 0.0150333
vn 0.0291789 7.58577e-05 0.999574
vn 0.0291762 0 0.999574
vn 0.0293145 -5.76186e-05 0.99957
vn 0.0292168 0 0.999573
vn 7.64869e-21 -1 -6.09448e-17
vn 4.8876e-21 1 6.13998e-17
vn 0.09323 0 0.995645
vn -0.0232501 0 0.99973
vn -0.0232501 0 0.99973
vn 0.999574 0 -0.029193
vn -0.0265324 -0.00022714 -0.999648
vn -0.0264373 0 -0.99965
vn -0.0265144 -2.94879e-05 -0.999648
vn -0.0264768 -0 -0.999649
vn -1.67251e-22 1 6.12271e-17
vn 3.86381e-22 1 6.1244e-17
vn -0.999574 0 0.0291826
vn 3.04558e-23 -1 -6.12323e-17
vn 0 -1 -6.12323e-17
vn -6.91754e-25 -1 -6.12323e-17
vn 3.89836e-25 -1 -6.12323e-17
vn 0 -1 -6.12323e-17
vn -0 1 0
vn 0.0124787 -0 0.999922
vn -0.00259642 0 0.999997
vn 0.999574 0 -0.0291889
vn -0.0393848 0 -0.999224
vn -0.0393848 6.11848e-17 -0.999224
vn -0.999116 -2.57374e-18 0.0420323
vn -0.999116 0 0.0420323
vn 2.92092e-23 -1 -6.12323e-17
vn -9.94844e-24 -1 -6.12323e-17
vn 0.0159468 -0 0.999873
vn -0.0235699 0 0.999722
vn -0.00324124 0 0.999995
vn 0.999574 0 -0.0291826
vn -0.0263409 0 -0.999653
vn -0.0396572 -0.00704953 -0.999188
vn -0.0299889 -0 -0.99955
vn -5.43912e-24 1 6.12322e-17
vn -0.999574 0 0.0291889
vn 2.49321e-23 -1 -6.12323e-17
vn 6.19534e-25 -1 -6.12323e-17

# Mesh 'defaultobject' with 76 faces
g defaultobject
usemtl DefaultMaterial
f  1//1 2//1 3//1
f  2//2 1//2 4//2
f  2//3 5//3 3//3
f  5//4 2//4 6//4
f  7//5 8//5 9//5
f  9//6 6//6 10//6
f  6//6 9//6 8//7
f  6//8 8//8 5//8
f  8//9 3//9 5//9
f  3//10 8//10 11//10
f  3//11 11//11 1//11
f  1//12 11//12 12//12
f  12//13 11//13 13//13
f  12//14 13//14 14//14
f  7//15 11//15 8//15
f  11//15 7//15 15//15
f  9//16 15//16 7//16
f  15//16 9//16 16//17
f  12//18 4//18 1//18
f  4//18 12//18 17//18
f  4//19 6//19 2//19
f  6//20 4//20 17//20
f  6//21 17//21 10//21
f  10//22 17//22 18//22
f  18//23 17//23 19//23
f  18//23 19//23 20//24
f  18//25 9//25 10//25
f  9//25 18//25 16//25
f  12//13 19//26 17//26
f  19//26 12//13 14//27
f  19//26 14//27 20//28
f  20//28 14//27 13//13
f  20//28 13//13 18//29
f  18//29 13//13 11//13
f  18//29 11//13 15//27
f  18//29 15//27 16//30
f  21//31 22//31 23//31
f  22//31 21//31 24//31
f  24//31 21//31 25//31
f  26//32 24//32 25//32
f  24//32 26//32 27//32
f  24//33 27//33 22//33
f  22//33 27//33 28//33
f  28//34 23//34 22//34
f  23//34 28//34 29//34
f  29//35 21//35 23//35
f  21//35 29//35 30//36
f  30//37 25//37 21//37
f  25//37 30//37 26//38
f  27//39 29//39 28//39
f  29//39 27//39 26//40
f  29//39 26//40 30//30
f  31//31 32//31 33//31
f  32//31 31//31 34//31
f  34//31 31//31 35//31
f  34//31 35//31 36//31
f  35//31 31//31 37//31
f  38//41 35//41 37//41
f  35//41 38//41 39//41
f  39//42 36//42 35//42
f  36//42 39//42 16//42
f  28//43 37//43 31//43
f  37//43 28//43 38//43
f  16//44 34//44 36//44
f  34//44 16//44 18//44
f  18//45 32//45 34//45
f  32//46 18//46 33//46
f  33//47 18//47 29//47
f  29//48 18//23 40//48
f  29//49 31//49 33//49
f  31//49 29//49 28//49
f  39//50 18//29 16//30
f  18//29 39//50 40//51
f  40//51 39//50 38//27
f  40//51 38//27 29//39
f  29//39 38//27 28//39

