# {"id":"ID_22325","idOriginal":"ID_22325","origin":[14.28056940580384,48.318731919655406],"elevation":275.448}
# Longitude: 14.28056940580384
# Latitude: 48.318731919655406
# Elevation: 275.448

# File produced by Open Asset Import Library (http://www.assimp.sf.net)
# (assimp v3.1.0)

mtllib ID_22325.obj.mtl

# 24 vertex positions
v  11.332 8.087 0.262
v  0 8.048 4.92798e-16
v  11.332 8.048 0.3
v  6.352 13.36 -5.046
v  5.403 13.36 -5.071
v  11.687 8.115 -10.053
v  11.755 8.026 -9.518
v  11.752 8.049 -10.05
v  11.337 8.098 -0.15
v  6.887 8.046 -10.248
v  1.277 8.143 -10.301
v  0.507 8.176 -10.289
v  0.381 8.048 -10.287
v  11.337 9.18485e-18 -0.15
v  11.332 -1.83697e-17 0.3
v  11.332 -1.60429e-17 0.262
v  11.755 5.82809e-16 -9.518
v  11.752 6.15385e-16 -10.05
v  6.887 6.27509e-16 -10.248
v  11.687 6.15569e-16 -10.053
v  1.277 6.30754e-16 -10.301
v  0.381 6.29897e-16 -10.287
v  0.507 6.3002e-16 -10.289
v  0 0 0

# 0 UV coordinates

# 40 vertex normals
vn -0.0189577 0.697744 0.716097
vn -0.018907 0.70039 0.71351
vn -0.0187983 0.700324 0.713578
vn 0.71164 0.70205 0.0263381
vn 0.713091 0.700592 0.025911
vn 0.713302 0.700358 0.0264448
vn 0.71285 0.700782 0.027361
vn 0.0189185 0.700383 -0.713517
vn 0.0188508 0.70038 -0.713521
vn 0.018796 0.700408 -0.713495
vn 0.0188956 0.700367 -0.713533
vn -0.712592 0.701026 -0.0278405
vn -0.71333 0.70033 -0.0264197
vn 0.999926 0 0.0121353
vn 1 0.000587569 0.000603029
vn 0.999938 0 0.0111107
vn 0 -1 -6.12323e-17
vn 0.999006 -0 0.0445757
vn 0.999006 0 0.0445757
vn 0.999984 0 -0.00563949
vn 0.999984 0 -0.00563949
vn 0.0406679 -0.00536874 -0.999158
vn 0.0406652 0 -0.999173
vn 0.0406652 0 -0.999173
vn -4.67177e-21 1 6.13473e-17
vn 0.0094469 0 -0.999955
vn 0.0094469 0 -0.999955
vn -0.0155826 0 -0.999879
vn -0.0158448 -2.46948e-05 -0.999874
vn -0.015623 -0 -0.999878
vn 2.31813e-20 1 6.27159e-17
vn -0.999315 0 -0.0370117
vn -0.999315 2.26631e-18 -0.0370117
vn -0.0264644 -6.12109e-17 0.99965
vn -0.0264644 0 0.99965
vn 4.61183e-21 -1 -6.13457e-17
vn -2.87705e-24 -1 -6.12323e-17
vn -3.61068e-24 -1 -6.12323e-17
vn 1.15799e-24 -1 -6.12323e-17
vn 0 -1 -6.12323e-17

# Mesh 'defaultobject' with 43 faces
g defaultobject
usemtl DefaultMaterial
f  1//1 2//1 3//1
f  2//2 1//2 4//2
f  2//3 4//3 5//3
f  6//4 7//4 8//4
f  7//5 6//5 4//5
f  7//6 4//6 9//6
f  9//7 4//7 1//7
f  10//8 4//8 6//8
f  4//9 10//9 11//9
f  4//10 11//10 5//10
f  5//11 11//11 12//11
f  13//12 5//12 12//12
f  5//13 13//13 2//13
f  1//14 14//14 9//14
f  14//15 1//15 3//15
f  14//16 3//16 15//16
f  14//17 15//17 16//17
f  14//18 7//18 9//18
f  7//18 14//18 17//19
f  7//20 18//20 8//20
f  18//20 7//20 17//21
f  8//22 10//22 6//22
f  10//23 8//23 18//23
f  10//23 18//23 19//24
f  19//25 18//25 20//25
f  10//26 21//26 11//26
f  21//26 10//26 19//27
f  21//28 12//28 11//28
f  12//29 21//29 13//29
f  13//30 21//30 22//30
f  22//31 21//31 23//31
f  22//32 2//32 13//32
f  2//32 22//32 24//33
f  24//34 3//34 2//34
f  3//34 24//34 15//35
f  18//36 19//36 20//36
f  19//36 18//36 17//37
f  19//36 17//37 21//38
f  21//38 17//37 22//39
f  22//39 17//37 24//40
f  24//40 17//37 14//17
f  24//40 14//17 16//17
f  24//40 16//17 15//17

