# {"id":"ID_4082","idOriginal":"ID_4082","origin":[14.316981647623768,48.33167939654383],"elevation":257.358,"wof":[{"Id":102049853,"Name":"Linz","Placetype":"county","Offset":-1},{"Id":101748071,"Name":"Linz","Placetype":"locality","Offset":-1},{"Id":85632785,"Name":"Austria","Placetype":"country","Offset":-1},{"Id":85681677,"Name":"Oberösterreich","Placetype":"region","Offset":-1},{"Id":85898419,"Name":"Furth","Placetype":"neighbourhood","Offset":-1}]}

# Attribution: City of Linz <http://geo.data.linz.gv.at/katalog/geodata/3d_geo_daten_lod2/>
# Longitude: 14.316981647623768
# Latitude: 48.33167939654383
# Elevation: 257.358

# File produced by Open Asset Import Library (http://www.assimp.sf.net)
# (assimp v3.1.0)


# 38 vertex positions
v  7.628 5.203 -18.652
v  8.262 5.203 -18.05
v  8.359 5.203 -18.365
v  7.485 5.203 -18.708
v  7.317 5.203 -18.311
v  12.328 5.203 -16.785
v  23.246 5.203 -1.332
v  27.14 5.203 -10.51
v  12.149 5.203 -16.39
v  4.932 5.203 -11.858
v  4.649 5.203 -12.013
v  22.278 5.203 -1.764
v  0.037 5.203 -0.089
v  21.714 5.203 -0.46
v  20.962 5.203 1.28
v  18.297 5.203 7.738
v  18.066 5.203 7.685
v  7.628 5.203 3.245
v  0 5.203 3.18592e-16
v  8.359 1.12453e-15 -18.365
v  7.485 1.14553e-15 -18.708
v  7.628 1.14211e-15 -18.652
v  4.649 7.35584e-16 -12.013
v  7.317 1.12123e-15 -18.311
v  4.932 7.26093e-16 -11.858
v  0.037 5.44968e-18 -0.089
v  0 0 0
v  12.328 1.02778e-15 -16.785
v  12.149 1.0036e-15 -16.39
v  7.628 -1.98699e-16 3.245
v  18.066 -4.70571e-16 7.685
v  22.278 1.08014e-16 -1.764
v  23.246 8.15615e-17 -1.332
v  18.297 -4.73816e-16 7.738
v  20.962 -7.83774e-17 1.28
v  21.714 2.81669e-17 -0.46
v  8.262 1.10524e-15 -18.05
v  27.14 6.43552e-16 -10.51

# 0 UV coordinates

# 37 vertex normals
vn 0 1 0
vn 0.365456 0 -0.930829
vn 0.364643 -0.000131795 -0.931147
vn 0.365323 0 -0.930881
vn 3.64262e-19 1 6.03045e-17
vn -0.920935 0 -0.389717
vn -0.920786 3.17121e-05 -0.390069
vn -0.920794 -0 -0.390048
vn -7.50151e-19 -1 -6.15124e-17
vn -0.92332 0 -0.38403
vn -0.923384 -0 -0.383879
vn -0.923384 2.35058e-17 -0.383879
vn -0.91084 0 -0.41276
vn -0.480371 0 0.877066
vn -0.391457 -5.63458e-17 0.920196
vn -0.391457 0 0.920196
vn -0.391428 0 0.920209
vn -0.407538 0 0.913188
vn -0.223626 0 0.974675
vn 0.924384 -0 0.381462
vn 0.91794 0 0.396719
vn 0.955713 -0 0.294299
vn 0.91783 0 0.396975
vn 0.920571 -0 0.390575
vn 0.390082 0 -0.92078
vn 0.392748 0 -0.919646
vn 0 -1 -6.12323e-17
vn -4.18952e-18 -1 -6.07481e-17
vn -5.28143e-24 -1 -6.12323e-17
vn -7.89898e-23 -1 -6.12323e-17
vn 5.92164e-23 -1 -6.12324e-17
vn 1.63045e-23 -1 -6.12323e-17
vn 0 -1 -6.12324e-17
vn -1.10236e-21 -1 -6.12326e-17
vn 3.53663e-23 -1 -6.12323e-17
vn 3.43201e-23 -1 -6.12323e-17
vn 2.49977e-22 -1 -6.12326e-17

# Mesh 'defaultobject' with 72 faces
g defaultobject
usemtl DefaultMaterial
f  1//1 2//1 3//1
f  2//1 1//1 4//1
f  2//1 4//1 5//1
f  6//1 7//1 8//1
f  7//1 6//1 9//1
f  7//1 9//1 2//1
f  7//1 2//1 5//1
f  7//1 5//1 10//1
f  10//1 5//1 11//1
f  7//1 10//1 12//1
f  12//1 10//1 13//1
f  12//1 13//1 14//1
f  14//1 13//1 15//1
f  15//1 13//1 16//1
f  16//1 13//1 17//1
f  17//1 13//1 18//1
f  18//1 13//1 19//1
f  20//2 1//2 3//2
f  1//3 20//3 4//3
f  4//4 20//4 21//4
f  21//5 20//5 22//5
f  21//6 5//6 4//6
f  5//7 21//7 11//7
f  11//8 21//8 23//8
f  23//9 21//9 24//9
f  25//10 13//10 10//10
f  13//10 25//10 26//10
f  13//11 26//11 19//11
f  19//11 26//11 27//12
f  28//13 9//13 6//13
f  9//13 28//13 29//13
f  23//14 10//14 11//14
f  10//14 23//14 25//14
f  27//15 18//15 19//15
f  18//15 27//15 30//16
f  18//17 30//17 17//17
f  17//17 30//17 31//17
f  32//18 7//18 12//18
f  7//18 32//18 33//18
f  31//19 16//19 17//19
f  16//19 31//19 34//19
f  34//20 15//20 16//20
f  15//20 34//20 35//20
f  15//21 35//21 36//21
f  37//22 3//22 2//22
f  3//22 37//22 20//22
f  36//21 14//21 15//21
f  14//23 36//23 12//23
f  12//23 36//23 32//23
f  33//24 8//24 7//24
f  8//24 33//24 38//24
f  38//25 6//25 8//25
f  6//25 38//25 28//25
f  29//26 2//26 9//26
f  2//26 29//26 37//26
f  27//27 25//27 30//27
f  25//27 27//27 26//28
f  33//29 28//29 38//29
f  28//29 33//29 32//27
f  28//29 32//27 36//30
f  28//29 36//30 35//31
f  28//29 35//31 34//32
f  28//29 34//32 31//33
f  28//29 31//33 30//27
f  28//29 30//27 29//34
f  29//34 30//27 37//35
f  37//35 30//27 22//36
f  22//36 30//27 21//9
f  21//9 30//27 24//9
f  24//9 30//27 25//27
f  24//9 25//27 23//9
f  22//36 20//37 37//35

