# {"id":"ID_32742","idOriginal":"ID_32742","origin":[14.285477688896199,48.280132416946195],"elevation":270.872}
# Longitude: 14.285477688896199
# Latitude: 48.280132416946195
# Elevation: 270.872

# File produced by Open Asset Import Library (http://www.assimp.sf.net)
# (assimp v3.1.0)

mtllib ID_32742.obj.mtl

# 12 vertex positions
v  2.471 4.164 -7.597
v  7.658 8.741 -1.744
v  8.891 4.151 -5.554
v  1.236 8.741 -3.8
v  6.428 4.16 2.058
v  0 4.16 2.54727e-16
v  0 0 0
v  6.428 -1.26016e-16 2.058
v  7.658 1.06789e-16 -1.744
v  8.891 3.40084e-16 -5.554
v  2.471 4.65182e-16 -7.597
v  1.236 2.32683e-16 -3.8

# 0 UV coordinates

# 18 vertex normals
vn 0.229709 0.657414 -0.717663
vn 0.229766 0.657374 -0.717682
vn -0.229772 0.65735 0.717702
vn -0.229782 0.657343 0.717705
vn -0.304916 -5.83164e-17 0.952379
vn -0.304916 0 0.952379
vn 0.951434 4.26582e-05 0.307853
vn 0.951434 0 0.307854
vn 0.951449 -9.43472e-05 0.307807
vn 0.951419 0 0.3079
vn 0.30324 0 -0.952914
vn -0.950961 2.52884e-06 -0.30931
vn -0.950961 1.89398e-17 -0.30931
vn -0.950961 -5.55955e-06 -0.309312
vn -0.950962 0 -0.309307
vn 3.92447e-24 -1 -6.12323e-17
vn -7.86616e-24 -1 -6.12323e-17
vn 0 -1 -6.12323e-17

# Mesh 'defaultobject' with 20 faces
g defaultobject
usemtl DefaultMaterial
f  1//1 2//1 3//1
f  2//2 1//2 4//2
f  4//3 5//3 2//3
f  5//4 4//4 6//4
f  7//5 5//5 6//5
f  5//5 7//5 8//6
f  5//7 3//7 2//7
f  3//8 5//8 8//8
f  3//9 8//9 9//9
f  3//10 9//10 10//10
f  3//11 11//11 1//11
f  11//11 3//11 10//11
f  1//12 6//12 4//12
f  6//12 1//12 7//13
f  7//13 1//12 12//14
f  12//14 1//12 11//15
f  9//16 11//16 10//16
f  11//16 9//16 8//17
f  11//16 8//17 12//18
f  12//18 8//17 7//18

