# {"id":"ID_36759","idOriginal":"ID_36759","origin":[14.30283364697246,48.28237199140697],"elevation":260.652,"wof":[{"Id":102049853,"Name":"Linz","Placetype":"county","Offset":-1},{"Id":101748071,"Name":"Linz","Placetype":"locality","Offset":-1},{"Id":85681677,"Name":"Oberösterreich","Placetype":"region","Offset":-1},{"Id":85898459,"Name":"Wegscheid","Placetype":"neighbourhood","Offset":-1},{"Id":85632785,"Name":"Austria","Placetype":"country","Offset":-1}]}

# Attribution: City of Linz <http://geo.data.linz.gv.at/katalog/geodata/3d_geo_daten_lod2/>
# Longitude: 14.30283364697246
# Latitude: 48.28237199140697
# Elevation: 260.652

# File produced by Open Asset Import Library (http://www.assimp.sf.net)
# (assimp v3.1.0)


# 18 vertex positions
v  7.21 2.773 4.889
v  7.105 2.773 4.471
v  1.414 2.773 6.257
v  0 2.773 1.69797e-16
v  6.542 2.773 2.038
v  6.405 2.773 1.491
v  5.878 2.773 -0.819
v  5.775 2.773 -1.298
v  5.763 2.773 -1.355
v  7.21 -2.99365e-16 4.889
v  7.105 -2.7377e-16 4.471
v  6.542 -1.24791e-16 2.038
v  6.405 -9.12974e-17 1.491
v  5.878 5.01493e-17 -0.819
v  5.763 8.29698e-17 -1.355
v  5.775 7.94796e-17 -1.298
v  0 0 0
v  1.414 -3.83131e-16 6.257

# 0 UV coordinates

# 21 vertex normals
vn 0 1 0
vn 0.969869 0 -0.243628
vn 0.974256 0 -0.225444
vn 0.970038 0 -0.242952
vn 0.97495 0 -0.222424
vn 0.977597 0.0106738 -0.210214
vn 0.974948 -0.00220732 -0.222423
vn 0.978549 0.000761325 -0.206012
vn 0.977749 0 -0.209779
vn -5.71751e-20 -1 -6.12203e-17
vn -0.228879 0 -0.973455
vn -0.228879 5.96069e-17 -0.973455
vn -0.975403 -1.34973e-17 0.220428
vn -0.975403 0 0.220428
vn 0.229713 -0 0.973258
vn 5.27858e-23 -1 -6.12321e-17
vn -4.72344e-25 -1 -6.12323e-17
vn -1.20344e-23 -1 -6.12323e-17
vn 0 -1 -6.12323e-17
vn 0 -1 -6.12325e-17
vn 0 -1 -6.12323e-17

# Mesh 'defaultobject' with 32 faces
g defaultobject
usemtl DefaultMaterial
f  1//1 2//1 3//1
f  4//1 3//1 2//1
f  5//1 4//1 2//1
f  6//1 4//1 5//1
f  7//1 4//1 6//1
f  8//1 4//1 7//1
f  9//1 4//1 8//1
f  10//2 2//2 1//2
f  2//2 10//2 11//2
f  11//3 5//3 2//3
f  5//3 11//3 12//3
f  12//4 6//4 5//4
f  6//4 12//4 13//4
f  13//5 7//5 6//5
f  7//6 13//6 8//6
f  8//7 13//7 14//7
f  8//8 14//8 9//8
f  9//9 14//9 15//9
f  15//10 14//10 16//10
f  15//11 4//11 9//11
f  4//11 15//11 17//12
f  17//13 3//13 4//13
f  3//13 17//13 18//14
f  18//15 1//15 3//15
f  1//15 18//15 10//15
f  16//10 17//16 15//10
f  17//16 16//10 14//10
f  17//16 14//10 13//17
f  17//16 13//17 12//18
f  17//16 12//18 11//19
f  17//16 11//19 10//20
f  17//16 10//20 18//21

