# {"id":"ID_32073","idOriginal":"ID_32073","origin":[14.340673260639567,48.32779632476667],"elevation":273.236}
# Longitude: 14.340673260639567
# Latitude: 48.32779632476667
# Elevation: 273.236

# File produced by Open Asset Import Library (http://www.assimp.sf.net)
# (assimp v3.1.0)

mtllib ID_32073.obj.mtl

# 14 vertex positions
v  1.312 4.874 5.169
v  3.322 4.126 -0.843
v  0 4.126 2.52645e-16
v  7.899 4.126 -2.004
v  6.503 4.874 3.854
v  10.381 4.126 -2.634
v  11.694 4.875 2.54
v  11.694 -1.5553e-16 2.54
v  10.381 1.61286e-16 -2.634
v  7.899 1.2271e-16 -2.004
v  3.322 5.16189e-17 -0.843
v  0 0 0
v  1.312 -3.1651e-16 5.169
v  6.503 -2.35989e-16 3.854

# 0 UV coordinates

# 19 vertex normals
vn -0.0341652 0.990306 -0.134634
vn -0.03415 0.990307 -0.134629
vn -0.0340913 0.990317 -0.134576
vn -0.0341634 0.990312 -0.134593
vn -0.0342772 0.990299 -0.134659
vn 0.969277 0 -0.245972
vn 0.969277 0 -0.245972
vn -0.246026 0 -0.969263
vn -0.245873 -0 -0.969302
vn -0.245967 -0 -0.969278
vn -0.245967 5.93512e-17 -0.969278
vn -0.969265 0 0.24602
vn 0.245391 0 0.969424
vn 0.245566 -0 0.96938
vn 0 -1 -6.12323e-17
vn -3.70658e-24 -1 -6.12323e-17
vn 4.203e-24 -1 -6.12323e-17
vn 0 -1 -6.12323e-17
vn -7.7459e-24 -1 -6.12323e-17

# Mesh 'defaultobject' with 24 faces
g defaultobject
usemtl DefaultMaterial
f  1//1 2//1 3//1
f  2//2 1//2 4//2
f  4//3 1//3 5//3
f  4//4 5//4 6//4
f  6//5 5//5 7//5
f  8//6 6//6 7//6
f  6//6 8//6 9//7
f  9//8 4//8 6//8
f  4//8 9//8 10//8
f  4//9 10//9 2//9
f  2//9 10//9 11//9
f  2//10 11//10 3//10
f  3//10 11//10 12//11
f  3//12 13//12 1//12
f  13//12 3//12 12//12
f  5//13 8//13 7//13
f  8//13 5//13 14//13
f  14//14 5//14 1//14
f  14//14 1//14 13//14
f  11//15 13//15 12//15
f  13//15 11//15 14//16
f  14//16 11//15 10//17
f  14//16 10//17 8//18
f  8//18 10//17 9//19

