# {"id":"ID_46476","idOriginal":"ID_46476","origin":[14.299634208329527,48.28209915278817],"elevation":261.146}
# Longitude: 14.299634208329527
# Latitude: 48.28209915278817
# Elevation: 261.146

# File produced by Open Asset Import Library (http://www.assimp.sf.net)
# (assimp v3.1.0)

mtllib ID_46476.obj.mtl

# 12 vertex positions
v  6.764 1.797 -1.12
v  2.818 1.797 -0.012
v  5.756 1.797 1.051
v  1.697 1.797 -3.637
v  0 1.797 1.10035e-16
v  2.372 1.797 1.072
v  2.372 -6.56411e-17 1.072
v  2.818 7.34788e-19 -0.012
v  5.756 -6.43552e-17 1.051
v  6.764 6.85802e-17 -1.12
v  1.697 2.22702e-16 -3.637
v  0 0 0

# 0 UV coordinates

# 13 vertex normals
vn 0 1 0
vn 0.924784 -0 0.380492
vn -0.340226 0 0.940344
vn 0.907003 -0 0.421124
vn 0.444879 0 -0.895591
vn -0.906209 0 -0.422831
vn -0.906209 2.58909e-17 -0.422831
vn -0.411834 -5.57985e-17 0.911259
vn -0.411834 0 0.911259
vn 3.91056e-24 -1 -6.12323e-17
vn 1.11939e-23 -1 -6.12323e-17
vn 0 -1 -6.12323e-17
vn 0 -1 -6.12323e-17

# Mesh 'defaultobject' with 20 faces
g defaultobject
usemtl DefaultMaterial
f  1//1 2//1 3//1
f  2//1 1//1 4//1
f  2//1 4//1 5//1
f  5//1 6//1 2//1
f  7//2 2//2 6//2
f  2//2 7//2 8//2
f  8//3 3//3 2//3
f  3//3 8//3 9//3
f  9//4 1//4 3//4
f  1//4 9//4 10//4
f  10//5 4//5 1//5
f  4//5 10//5 11//5
f  11//6 5//6 4//6
f  5//6 11//6 12//7
f  12//8 6//8 5//8
f  6//8 12//8 7//9
f  9//10 11//10 10//10
f  11//10 9//10 8//11
f  11//10 8//11 7//12
f  11//10 7//12 12//13

