# {"id":"ID_59456","idOriginal":"ID_59456","origin":[14.362561946627928,48.257815935862276],"elevation":251.681}
# Longitude: 14.362561946627928
# Latitude: 48.257815935862276
# Elevation: 251.681

# File produced by Open Asset Import Library (http://www.assimp.sf.net)
# (assimp v3.1.0)

mtllib ID_59456.obj.mtl

# 12 vertex positions
v  0 9.418 5.76686e-16
v  0.823 9.418 -0.672
v  0.6 9.418 -0.832
v  2.806 9.418 0.759
v  2.448 9.418 1.771
v  3.051 9.418 0.936
v  0.6 5.09453e-17 -0.832
v  0.823 4.11481e-17 -0.672
v  2.806 -4.64753e-17 0.759
v  3.051 -5.73135e-17 0.936
v  0 0 0
v  2.448 -1.08442e-16 1.771

# 0 UV coordinates

# 16 vertex normals
vn 0 1 0
vn 0.58296 0 -0.812501
vn 0.585177 -7.95883e-05 -0.810906
vn 0.58561 -0.000234015 -0.810593
vn 0.58296 0.000813924 -0.8125
vn 0.585177 1.71949e-05 -0.810906
vn 0.585611 0 -0.810592
vn -0.81109 0 -0.584921
vn -0.81109 3.58161e-17 -0.584921
vn -0.586143 -4.96109e-17 0.810208
vn -0.586143 0 0.810208
vn 0.810705 -0 0.585455
vn 5.8762e-24 -1 -6.12323e-17
vn 0 -1 -6.12323e-17
vn 0 -1 -6.12323e-17
vn -1.06285e-23 -1 -6.12323e-17

# Mesh 'defaultobject' with 20 faces
g defaultobject
usemtl DefaultMaterial
f  1//1 2//1 3//1
f  2//1 1//1 4//1
f  4//1 1//1 5//1
f  4//1 5//1 6//1
f  2//2 7//2 3//2
f  7//3 2//3 4//3
f  7//4 4//4 6//4
f  7//5 6//5 8//5
f  8//6 6//6 9//6
f  9//7 6//7 10//7
f  7//8 1//8 3//8
f  1//8 7//8 11//9
f  11//10 5//10 1//10
f  5//10 11//10 12//11
f  12//12 6//12 5//12
f  6//12 12//12 10//12
f  8//13 11//13 7//13
f  11//13 8//13 12//14
f  12//14 8//13 9//15
f  12//14 9//15 10//16

