# {"id":"ID_36018","idOriginal":"ID_36018","origin":[14.280630647371117,48.27056370417335],"elevation":279.174,"wof":[{"Id":102049853,"Name":"Linz","Placetype":"county","Offset":-1},{"Id":85681677,"Name":"Oberösterreich","Placetype":"region","Offset":-1},{"Id":85898435,"Name":"Oed","Placetype":"neighbourhood","Offset":-1},{"Id":101748071,"Name":"Linz","Placetype":"locality","Offset":-1},{"Id":85632785,"Name":"Austria","Placetype":"country","Offset":-1}]}

# Attribution: City of Linz <http://geo.data.linz.gv.at/katalog/geodata/3d_geo_daten_lod2/>
# Longitude: 14.280630647371117
# Latitude: 48.27056370417335
# Elevation: 279.174

# File produced by Open Asset Import Library (http://www.assimp.sf.net)
# (assimp v3.1.0)


# 14 vertex positions
v  5.676 3.022 11.166
v  8.404 3.022 9.779
v  3.622 3.022 7.125
v  0 3.022 1.85044e-16
v  8.54 3.022 9.71
v  2.864 3.022 -1.456
v  2.044 3.022 4.021
v  5.676 -6.8372e-16 11.166
v  8.404 -5.98791e-16 9.779
v  8.54 -5.94566e-16 9.71
v  2.864 8.91543e-17 -1.456
v  0 0 0
v  2.044 -2.46215e-16 4.021
v  3.622 -4.3628e-16 7.125

# 0 UV coordinates

# 15 vertex normals
vn 0 1 0
vn 0.453216 -0 0.891401
vn 0.452454 0 0.891788
vn 0.891438 0 -0.453144
vn -0.45318 0 -0.891419
vn -0.45318 5.45837e-17 -0.891419
vn -0.891437 -2.77471e-17 0.453145
vn -0.891437 0 0.453145
vn -0.891421 0 0.453177
vn -0.891452 0 0.453116
vn 0 -1 -6.12323e-17
vn 1.4612e-23 -1 -6.12323e-17
vn 9.46503e-24 -1 -6.12323e-17
vn 3.83119e-23 -1 -6.12324e-17
vn 3.81608e-24 -1 -6.12323e-17

# Mesh 'defaultobject' with 24 faces
g defaultobject
usemtl DefaultMaterial
f  1//1 2//1 3//1
f  4//1 5//1 6//1
f  5//1 4//1 7//1
f  5//1 7//1 3//1
f  5//1 3//1 2//1
f  8//2 2//2 1//2
f  2//2 8//2 9//2
f  2//3 9//3 5//3
f  5//3 9//3 10//3
f  10//4 6//4 5//4
f  6//4 10//4 11//4
f  11//5 4//5 6//5
f  4//5 11//5 12//6
f  12//7 7//7 4//7
f  7//7 12//7 13//8
f  7//9 13//9 3//9
f  3//9 13//9 14//9
f  3//10 14//10 1//10
f  1//10 14//10 8//10
f  10//11 12//11 11//11
f  12//11 10//11 13//12
f  13//12 10//11 14//13
f  14//13 10//11 9//14
f  14//13 9//14 8//15

