# {"id":"ID_48371","idOriginal":"ID_48371","origin":[14.28426146886655,48.24899603694971],"elevation":265.448}
# Longitude: 14.28426146886655
# Latitude: 48.24899603694971
# Elevation: 265.448

# File produced by Open Asset Import Library (http://www.assimp.sf.net)
# (assimp v3.1.0)

mtllib ID_48371.obj.mtl

# 11 vertex positions
v  2.251 2.431 1.877
v  4.471 2.092 3.418
v  4.128 2.092 -0.374
v  2.407 2.431 3.605
v  0 2.092 1.28098e-16
v  0.343 2.092 3.792
v  0 0 0
v  0.343 -2.32193e-16 3.792
v  2.407 -2.20743e-16 3.605
v  4.471 -2.09292e-16 3.418
v  4.128 2.29009e-17 -0.374

# 0 UV coordinates

# 15 vertex normals
vn 0.160795 0.986881 -0.0145445
vn 0.160775 0.986884 -0.0145144
vn -0.0145659 0.986884 -0.16077
vn -0.160772 0.986884 0.0145424
vn -0.160725 0.986893 0.0145099
vn -0.995934 -5.51616e-18 0.0900858
vn -0.995934 0 0.0900858
vn 0.0902312 -0 0.995921
vn 0.0902312 0 0.995921
vn 0.995934 0 -0.0900859
vn -0.0902312 0 -0.995921
vn -0.0902312 6.09826e-17 -0.995921
vn -4.19312e-25 -1 -6.12323e-17
vn 3.3545e-24 -1 -6.12323e-17
vn 3.77381e-24 -1 -6.12323e-17

# Mesh 'defaultobject' with 18 faces
g defaultobject
usemtl DefaultMaterial
f  1//1 2//1 3//1
f  2//2 1//2 4//2
f  1//3 3//3 5//3
f  4//4 5//4 6//4
f  5//5 4//5 1//5
f  7//6 6//6 5//6
f  6//6 7//6 8//7
f  8//8 4//8 6//8
f  4//8 8//8 2//9
f  2//9 8//8 9//8
f  2//9 9//8 10//8
f  10//10 3//10 2//10
f  3//10 10//10 11//10
f  11//11 5//11 3//11
f  5//11 11//11 7//12
f  11//13 8//13 7//13
f  8//13 11//13 9//14
f  9//14 11//13 10//15

