# {"id":"ID_36555","idOriginal":"ID_36555","origin":[14.315271101610726,48.28794997679624],"elevation":257.958,"wof":[{"Id":102049853,"Name":"Linz","Placetype":"county","Offset":-1},{"Id":85632785,"Name":"Austria","Placetype":"country","Offset":-1},{"Id":101748071,"Name":"Linz","Placetype":"locality","Offset":-1},{"Id":85681677,"Name":"Oberösterreich","Placetype":"region","Offset":-1},{"Id":85898459,"Name":"Wegscheid","Placetype":"neighbourhood","Offset":-1}]}

# Attribution: City of Linz <http://geo.data.linz.gv.at/katalog/geodata/3d_geo_daten_lod2/>
# Longitude: 14.315271101610726
# Latitude: 48.28794997679624
# Elevation: 257.958

# File produced by Open Asset Import Library (http://www.assimp.sf.net)
# (assimp v3.1.0)


# 12 vertex positions
v  0 4.16 2.54727e-16
v  5.594 3.686 2.048
v  5.601 4.16 -0.061
v  5.584 3.041 4.915
v  0.215 2.568 7.079
v  5.61 2.594 6.905
v  5.61 -4.22809e-16 6.905
v  5.584 -3.00957e-16 4.915
v  5.594 -1.25404e-16 2.048
v  5.601 3.73517e-18 -0.061
v  0 0 0
v  0.215 -4.33464e-16 7.079

# 0 UV coordinates

# 18 vertex normals
vn 0.00238825 0.975657 0.219288
vn 0.00230851 0.975611 0.219495
vn 0.00245283 0.975646 0.219339
vn 0.00236539 0.975692 0.219132
vn 0.999915 0 -0.0130642
vn 0.999915 0 -0.0130642
vn 0.999994 0 0.00348786
vn 0.999994 0 0.00348786
vn 0.999994 0 0.00331908
vn -0.0108903 0 -0.999941
vn -0.0108903 6.12287e-17 -0.999941
vn -0.999539 -1.85886e-18 0.0303575
vn -0.999539 0 0.0303575
vn 0.0322354 0 0.99948
vn 0 -1 -6.12323e-17
vn -1.35189e-24 -1 -6.12323e-17
vn 0 -1 -6.12323e-17
vn -7.54743e-24 -1 -6.12323e-17

# Mesh 'defaultobject' with 20 faces
g defaultobject
usemtl DefaultMaterial
f  1//1 2//1 3//1
f  2//2 1//2 4//2
f  4//3 1//3 5//3
f  4//4 5//4 6//4
f  7//5 4//5 6//5
f  4//5 7//5 8//6
f  4//7 8//7 2//7
f  2//7 8//7 9//8
f  2//9 9//9 3//9
f  3//9 9//9 10//9
f  10//10 1//10 3//10
f  1//10 10//10 11//11
f  11//12 5//12 1//12
f  5//12 11//12 12//13
f  5//14 7//14 6//14
f  7//14 5//14 12//14
f  9//15 11//15 10//15
f  11//15 9//15 12//16
f  12//16 9//15 8//17
f  12//16 8//17 7//18

