# {"id":"_58894","idOriginal":"_58894","origin":[14.31403381400167,48.299061422243774],"elevation":258.834}
# Longitude: 14.31403381400167
# Latitude: 48.299061422243774
# Elevation: 258.834

# File produced by Open Asset Import Library (http://www.assimp.sf.net)
# (assimp v3.1.0)

mtllib _58894.obj.mtl

# 8 vertex positions
v  0 3.285 2.01148e-16
v  4.423 3.285 0.094
v  4.274 3.285 -0.778
v  0.141 3.285 0.827
v  4.423 -5.75584e-18 0.094
v  4.274 4.76388e-17 -0.778
v  0 0 0
v  0.141 -5.06391e-17 0.827

# 0 UV coordinates

# 9 vertex normals
vn -0 1 0
vn 0.985714 0 -0.16843
vn -0.179088 0 -0.983833
vn -0.179088 6.02424e-17 -0.983833
vn -0.985775 -1.02913e-17 0.16807
vn -0.985775 0 0.16807
vn 0.168727 -0 0.985663
vn 0 -1 -6.12323e-17
vn -1.13481e-25 -1 -6.12323e-17

# Mesh 'defaultobject' with 12 faces
g defaultobject
usemtl DefaultMaterial
f  1//1 2//1 3//1
f  2//1 1//1 4//1
f  5//2 3//2 2//2
f  3//2 5//2 6//2
f  6//3 1//3 3//3
f  1//3 6//3 7//4
f  7//5 4//5 1//5
f  4//5 7//5 8//6
f  8//7 2//7 4//7
f  2//7 8//7 5//7
f  5//8 7//8 6//8
f  7//8 5//8 8//9

