# {"id":"ID_41283","idOriginal":"ID_41283","origin":[14.329019840117738,48.326684984654946],"elevation":253.768}
# Longitude: 14.329019840117738
# Latitude: 48.326684984654946
# Elevation: 253.768

# File produced by Open Asset Import Library (http://www.assimp.sf.net)
# (assimp v3.1.0)

mtllib ID_41283.obj.mtl

# 14 vertex positions
v  7.014 2.967 2.169
v  2.515 2.967 4.638
v  7.032 2.967 2.203
v  0 2.967 1.81676e-16
v  4.577 2.967 -2.351
v  4.524 2.967 -2.449
v  4.315 2.967 -2.336
v  7.032 -1.34895e-16 2.203
v  7.014 -1.32813e-16 2.169
v  4.577 1.43957e-16 -2.351
v  4.524 1.49958e-16 -2.449
v  0 0 0
v  4.315 1.43039e-16 -2.336
v  2.515 -2.83996e-16 4.638

# 0 UV coordinates

# 18 vertex normals
vn 0 1 -0
vn 0.883787 0 -0.467889
vn 0.880215 -9.83078e-05 -0.474576
vn 0.883711 0.0131164 -0.46785
vn 0.880215 0 -0.474576
vn 0.879605 0 -0.475705
vn -0.475605 0 -0.879659
vn -0.47608 -4.32471e-05 -0.879402
vn -0.476058 5.38486e-17 -0.879414
vn -4.19903e-20 1 6.10539e-17
vn -0.879074 -2.91886e-17 0.476686
vn -0.879074 0 0.476686
vn 0.474518 -0 0.880246
vn -1.6845e-23 -1 -6.12324e-17
vn -1.4358e-23 -1 -6.12324e-17
vn 0 -1 -6.12323e-17
vn 0 -1 -6.12323e-17
vn 0 -1 -6.12323e-17

# Mesh 'defaultobject' with 24 faces
g defaultobject
usemtl DefaultMaterial
f  1//1 2//1 3//1
f  2//1 1//1 4//1
f  4//1 1//1 5//1
f  4//1 5//1 6//1
f  4//1 6//1 7//1
f  8//2 1//2 3//2
f  1//3 8//3 5//3
f  5//4 8//4 9//4
f  5//5 9//5 10//5
f  5//6 10//6 6//6
f  6//6 10//6 11//6
f  11//7 7//7 6//7
f  7//8 11//8 4//8
f  4//9 11//9 12//9
f  12//10 11//10 13//10
f  12//11 2//11 4//11
f  2//11 12//11 14//12
f  14//13 3//13 2//13
f  3//13 14//13 8//13
f  10//14 13//14 11//14
f  13//14 10//14 12//15
f  12//15 10//14 14//16
f  14//16 10//14 9//17
f  14//16 9//17 8//18

