# {"id":"ID_25452","idOriginal":"ID_25452","origin":[14.30437901314821,48.271918599569084],"elevation":270.91}
# Longitude: 14.30437901314821
# Latitude: 48.271918599569084
# Elevation: 270.91

# File produced by Open Asset Import Library (http://www.assimp.sf.net)
# (assimp v3.1.0)

mtllib ID_25452.obj.mtl

# 20 vertex positions
v  0 14.905 9.12668e-16
v  6.835 14.905 -3.162
v  5.932 14.905 -4.384
v  12.465 14.905 4.604
v  0.929 14.905 1.258
v  6.689 14.905 8.903
v  12.934 14.905 5.238
v  12.697 14.905 6.999
v  8.857 14.905 9.839
v  7.263 14.905 9.679
v  7.263 -5.92668e-16 9.679
v  8.857 -6.02465e-16 9.839
v  12.697 -4.28565e-16 6.999
v  12.934 -3.20735e-16 5.238
v  12.465 -2.81914e-16 4.604
v  5.932 2.68443e-16 -4.384
v  6.835 1.93617e-16 -3.162
v  0 0 0
v  6.689 -5.45152e-16 8.903
v  0.929 -7.70303e-17 1.258

# 0 UV coordinates

# 26 vertex normals
vn 0 1 0
vn -0.0998744 0 0.995
vn 0.594626 -0 0.804002
vn 0.991065 -0 0.13338
vn 0.803939 0 -0.594712
vn 0.809628 0.000509435 -0.586944
vn 0.804231 -0.0058382 -0.594288
vn 0.803923 -0.00624881 -0.5947
vn 0.808896 0 -0.587952
vn 7.97053e-22 1 6.12316e-17
vn -0.594345 0 -0.80421
vn -0.594345 4.92437e-17 -0.80421
vn -0.804429 -3.6375e-17 0.594049
vn -0.798681 -0.00100844 0.601753
vn -0.803948 0.00558449 0.594673
vn -0.799493 -0.000484059 0.600675
vn -0.803961 0 0.594682
vn 0 1 6.12336e-17
vn -2.36176e-24 -1 -6.12323e-17
vn 0 -1 -6.12323e-17
vn 1.49651e-24 -1 -6.12323e-17
vn 3.07253e-24 -1 -6.12323e-17
vn -1.86466e-23 -1 -6.12324e-17
vn 0 -1 -6.12323e-17
vn -1.03486e-23 -1 -6.12324e-17
vn 6.4355e-24 -1 -6.12323e-17

# Mesh 'defaultobject' with 36 faces
g defaultobject
usemtl DefaultMaterial
f  1//1 2//1 3//1
f  2//1 1//1 4//1
f  4//1 1//1 5//1
f  4//1 5//1 6//1
f  4//1 6//1 7//1
f  7//1 6//1 8//1
f  8//1 6//1 9//1
f  9//1 6//1 10//1
f  11//2 9//2 10//2
f  9//2 11//2 12//2
f  12//3 8//3 9//3
f  8//3 12//3 13//3
f  13//4 7//4 8//4
f  7//4 13//4 14//4
f  14//5 4//5 7//5
f  4//6 14//6 2//6
f  2//7 14//7 3//7
f  3//8 14//8 15//8
f  3//9 15//9 16//9
f  16//10 15//10 17//10
f  16//11 1//11 3//11
f  1//11 16//11 18//12
f  18//13 5//13 1//13
f  5//14 18//14 6//14
f  6//15 18//15 10//15
f  10//16 18//16 19//16
f  10//17 19//17 11//17
f  19//18 18//18 20//18
f  17//19 18//19 16//19
f  18//19 17//19 20//20
f  20//20 17//19 15//21
f  20//20 15//21 19//22
f  19//22 15//21 14//23
f  19//22 14//23 13//24
f  19//22 13//24 11//25
f  11//25 13//24 12//26

