# {"id":"ID_30777","idOriginal":"ID_30777","origin":[14.303554290538743,48.331544478137324],"elevation":260.462,"wof":[{"Id":102049853,"Name":"Linz","Placetype":"county","Offset":-1},{"Id":85632785,"Name":"Austria","Placetype":"country","Offset":-1},{"Id":85681677,"Name":"Oberösterreich","Placetype":"region","Offset":-1},{"Id":85898425,"Name":"Harbach","Placetype":"neighbourhood","Offset":-1},{"Id":101748071,"Name":"Linz","Placetype":"locality","Offset":-1}]}

# Attribution: City of Linz <http://geo.data.linz.gv.at/katalog/geodata/3d_geo_daten_lod2/>
# Longitude: 14.303554290538743
# Latitude: 48.331544478137324
# Elevation: 260.462

# File produced by Open Asset Import Library (http://www.assimp.sf.net)
# (assimp v3.1.0)


# 23 vertex positions
v  0.981 6.735 2.732
v  6.036 9.839 2.88
v  0 6.725 4.11788e-16
v  1.023 6.735 2.85
v  2.245 6.725 6.356
v  6.704 9.839 4.772
v  3.009 7.258 6.085
v  11.158 6.728 3.19
v  9.315 6.717 -2.075
v  8.919 6.725 -3.162
v  3.009 6.725 -1.067
v  8.96 6.715 -3.089
v  8.919 1.93617e-16 -3.162
v  8.96 1.89147e-16 -3.089
v  3.009 6.53349e-17 -1.067
v  0 0 0
v  0.981 -1.67287e-16 2.732
v  2.245 -3.89193e-16 6.356
v  1.023 -1.74512e-16 2.85
v  6.704 -2.92201e-16 4.772
v  11.158 -1.95331e-16 3.19
v  3.009 -3.72599e-16 6.085
v  9.315 1.27057e-16 -2.075

# 0 UV coordinates

# 40 vertex normals
vn -0.518314 0.835369 0.183057
vn -0.518207 0.835129 0.184448
vn -0.518339 0.835355 0.183047
vn -0.518362 0.835348 0.183016
vn -0.123905 0.585039 0.801484
vn 0.518425 0.835304 -0.183038
vn 0.518415 0.835271 -0.183215
vn 0.518803 0.835109 -0.182857
vn -0.183681 0.835324 -0.518165
vn -0.183731 0.835333 -0.518133
vn 0.871892 0 -0.489698
vn 0.871892 0 -0.489698
vn -0.334113 0 -0.942533
vn -0.334212 -9.85429e-05 -0.942498
vn -0.334113 5.01624e-05 -0.942533
vn -0.334212 5.77113e-17 -0.942498
vn -0.941164 -2.06935e-17 0.337951
vn -0.942102 0.00120209 0.335324
vn -0.944274 0.00415146 0.329134
vn -0.941151 -0.00521969 0.337946
vn -0.944215 0 0.329329
vn 0 -1 -6.12364e-17
vn 0.334304 -0 0.942465
vn 0.334876 -6.77943e-05 0.942262
vn 0.334711 1.63239e-05 0.942321
vn 0.334743 -3.13929e-05 0.94231
vn 0.334701 0 0.942324
vn 0 1 6.12266e-17
vn 0.943844 0 -0.33039
vn 0.943829 -3.74078e-05 -0.330433
vn 0.943842 0 -0.330397
vn 1.95807e-19 1 6.11895e-17
vn 0 -1 -6.12323e-17
vn -7.27145e-24 -1 -6.12323e-17
vn -3.88291e-24 -1 -6.12323e-17
vn 0 -1 -6.12323e-17
vn 1.66203e-24 -1 -6.12323e-17
vn 0 -1 -6.12323e-17
vn -2.59513e-21 -1 -6.12315e-17
vn -4.22586e-22 -1 -6.12322e-17

# Mesh 'defaultobject' with 41 faces
g defaultobject
usemtl DefaultMaterial
f  1//1 2//1 3//1
f  2//2 1//2 4//2
f  2//3 4//3 5//3
f  2//4 5//4 6//4
f  6//5 5//5 7//5
f  8//6 2//6 6//6
f  2//7 8//7 9//7
f  2//8 9//8 10//8
f  11//9 2//9 10//9
f  2//10 11//10 3//10
f  12//11 13//11 10//11
f  13//11 12//11 14//12
f  13//13 11//13 10//13
f  11//14 13//14 3//14
f  3//15 13//15 15//15
f  3//16 15//16 16//16
f  16//17 1//17 3//17
f  1//18 16//18 4//18
f  4//19 16//19 5//19
f  5//20 16//20 17//20
f  5//21 17//21 18//21
f  18//22 17//22 19//22
f  18//23 7//23 5//23
f  7//24 18//24 6//24
f  6//25 18//25 8//25
f  8//26 18//26 20//26
f  8//27 20//27 21//27
f  20//28 18//28 22//28
f  21//29 9//29 8//29
f  9//30 21//30 12//30
f  12//31 21//29 14//31
f  14//32 21//32 23//32
f  19//22 22//33 18//22
f  22//33 19//22 20//34
f  20//34 19//22 17//22
f  20//34 17//22 16//35
f  20//34 16//35 15//36
f  20//34 15//36 21//37
f  21//37 15//36 13//38
f  21//37 13//38 23//39
f  23//39 13//38 14//40

