# {"id":"ID_3544","idOriginal":"ID_3544","origin":[14.27673738536236,48.303588124661196],"elevation":304.548,"wof":[{"Id":102049853,"Name":"Linz","Placetype":"county","Offset":-1},{"Id":101748071,"Name":"Linz","Placetype":"locality","Offset":-1},{"Id":85632785,"Name":"Austria","Placetype":"country","Offset":-1},{"Id":85681677,"Name":"Oberösterreich","Placetype":"region","Offset":-1},{"Id":85898453,"Name":"Urfahr","Placetype":"neighbourhood","Offset":-1}]}

# Attribution: City of Linz <http://geo.data.linz.gv.at/katalog/geodata/3d_geo_daten_lod2/>
# Longitude: 14.27673738536236
# Latitude: 48.303588124661196
# Elevation: 304.548

# File produced by Open Asset Import Library (http://www.assimp.sf.net)
# (assimp v3.1.0)


# 61 vertex positions
v  20.894 19.16 -3.7
v  19.179 13.848 4.468
v  29.072 14.686 -1.773
v  14.529 19.16 -0.424
v  18.79 13.872 4.636
v  17.929 13.924 5.008
v  17.057 13.977 5.384
v  4.603 14.73 10.761
v  2.473 19.16 5.781
v  25.505 13.842 -9.587
v  27.942 14.264 -4.641
v  28.424 13.865 -4.866
v  25.08 14.217 -9.331
v  17.391 19.16 -9.295
v  23.23 14.212 -12.3
v  19.677 14.202 -18.001
v  16.418 19.16 -10.85
v  18.257 14.768 -18.858
v  18.897 14.2 -19.252
v  29.594 14.224 -2.102
v  7.833 13.861 -13.754
v  15.492 14.751 -17.154
v  14.939 13.842 -18.228
v  8.345 14.636 -12.864
v  8.167 14.635 -12.754
v  11.027 13.766 -6.019
v  11.151 13.913 -6.185
v  10.973 13.766 -6.106
v  7.618 14.145 -12.408
v  2.065 13.766 -2.136
v  2.245 13.766 -1.499
v  2.361 14.109 -1.088
v  0 14.017 8.58294e-16
v  0 0 0
v  4.603 -6.58921e-16 10.761
v  2.473 -3.53984e-16 5.781
v  8.345 7.87693e-16 -12.864
v  7.833 8.4219e-16 -13.754
v  7.618 7.59771e-16 -12.408
v  11.151 3.78722e-16 -6.185
v  17.057 -3.29675e-16 5.384
v  19.179 -2.73586e-16 4.468
v  18.79 -2.83873e-16 4.636
v  17.929 -3.06652e-16 5.008
v  29.594 1.2871e-16 -2.102
v  29.072 1.08565e-16 -1.773
v  27.942 2.84179e-16 -4.641
v  28.424 2.97957e-16 -4.866
v  25.505 5.87034e-16 -9.587
v  25.08 5.71359e-16 -9.331
v  18.897 1.17885e-15 -19.252
v  23.23 7.53158e-16 -12.3
v  19.677 1.10224e-15 -18.001
v  15.492 1.05038e-15 -17.154
v  14.939 1.11614e-15 -18.228
v  18.257 1.15472e-15 -18.858
v  8.167 7.80957e-16 -12.754
v  2.065 1.30792e-16 -2.136
v  10.973 3.73885e-16 -6.106
v  2.361 6.66208e-17 -1.088
v  2.245 9.17873e-17 -1.499

# 0 UV coordinates

# 105 vertex normals
vn 0.290178 0.773252 0.563806
vn 0.290185 0.77325 0.563806
vn 0.290958 0.773386 0.56322
vn 0.290257 0.773292 0.563711
vn 0.290106 0.773284 0.563799
vn 0.290163 0.773282 0.563773
vn 0.290164 0.773282 0.563773
vn 0.511083 0.797788 -0.31989
vn 0.511331 0.797586 -0.319995
vn 0.510793 0.797715 -0.320533
vn 0.511251 0.797599 -0.320091
vn 0.511282 0.797646 -0.319926
vn 0.511234 0.797642 -0.320012
vn 0.51134 0.797595 -0.319958
vn 0.511134 0.797669 -0.320104
vn 0.511072 0.797779 -0.319929
vn 0.511529 0.800452 -0.312435
vn 0.511298 0.79756 -0.320111
vn -0.319538 0.798041 -0.510907
vn -0.319605 0.797893 -0.511097
vn -0.319701 0.797959 -0.510934
vn -0.319936 0.798168 -0.51046
vn -0.319839 0.797843 -0.511028
vn -0.514984 0.795371 0.319651
vn -0.511287 0.796305 0.32324
vn -0.511193 0.797718 0.319889
vn -0.511301 0.797555 0.320122
vn -0.511273 0.797655 0.319916
vn -0.510774 0.798047 0.319735
vn 0 1 0
vn -0.289981 0.77327 -0.563883
vn -0.29008 0.773438 -0.563602
vn -0.290222 0.773213 -0.563837
vn -0.290189 0.773236 -0.563823
vn -0.290193 0.773236 -0.563821
vn -0.91942 3.60167e-05 0.393278
vn -0.919419 0 0.39328
vn -0.919419 0 0.39328
vn -1.05434e-19 -1 -6.12046e-17
vn -0.866801 0 0.498654
vn -0.869624 0 0.493714
vn -0.869624 0 0.493714
vn 0.396382 -0 0.918085
vn 0.395973 0.000432407 0.918262
vn 0.396382 -3.20312e-05 0.918086
vn 0.396617 -4.94649e-05 0.917984
vn 0.39648 -2.91822e-05 0.918043
vn 0.39632 0 0.918113
vn 3.82836e-20 1 6.13207e-17
vn 2.5513e-20 1 6.12873e-17
vn 0.533552 -0 0.845767
vn 0.533332 0.000207487 0.845906
vn 0.533535 0 0.845778
vn 4.4102e-21 -1 -6.12268e-17
vn 0.422989 -0 0.906135
vn 0.422989 0 0.906135
vn 0.838195 0 -0.545371
vn 0.850549 0 -0.525896
vn 0.850549 0 -0.525896
vn 0.84872 0 -0.528842
vn 0.848675 -2.09798e-05 -0.528915
vn 0.84857 -0.000164386 -0.529084
vn 0.848675 0 -0.528914
vn 0 1 6.1239e-17
vn 2.67846e-20 1 6.12163e-17
vn 0.889067 0 -0.457777
vn -0.515977 0 -0.856602
vn -0.524644 -0.000617101 -0.851321
vn -0.524572 -0 -0.851366
vn -0.524572 0 -0.851366
vn -1.15456e-20 1 6.12147e-17
vn -0.532801 0 -0.846241
vn -0.525698 0 -0.850672
vn -0.533101 -0.000124774 -0.846051
vn -0.53136 -0 -0.847146
vn 1.51926e-20 1 6.12567e-17
vn -0.405661 0 -0.914024
vn -0.407071 -2.18237e-05 -0.913397
vn -0.407043 -0 -0.913409
vn 0 1 6.11344e-17
vn -0.418521 0 -0.908207
vn -0.418521 5.56116e-17 -0.908207
vn -0.962318 0 0.271926
vn -0.962402 0 0.271627
vn -0.962351 5.85961e-06 0.271809
vn -1.88333e-20 -1 -6.12271e-17
vn 5.40391e-25 -1 -6.12323e-17
vn -6.69558e-24 -1 -6.12323e-17
vn -2.15081e-23 -1 -6.12323e-17
vn 1.95963e-23 -1 -6.12323e-17
vn 9.62065e-23 -1 -6.12327e-17
vn -6.62194e-24 -1 -6.12323e-17
vn 6.38707e-23 -1 -6.12324e-17
vn 0 -1 -6.12321e-17
vn 0 -1 -6.12324e-17
vn -5.16562e-24 -1 -6.12323e-17
vn -1.04769e-23 -1 -6.12323e-17
vn 1.9358e-23 -1 -6.12323e-17
vn -2.54733e-23 -1 -6.12323e-17
vn 0 -1 -6.12323e-17
vn 1.51318e-23 -1 -6.12324e-17
vn 5.91106e-24 -1 -6.12323e-17
vn 6.90859e-24 -1 -6.12323e-17
vn 1.19453e-23 -1 -6.12323e-17
vn 9.37218e-23 -1 -6.12324e-17

# Mesh 'defaultobject' with 118 faces
g defaultobject
usemtl DefaultMaterial
f  1//1 2//1 3//1
f  2//1 1//1 4//2
f  2//3 4//3 5//3
f  5//4 4//4 6//4
f  6//5 4//5 7//5
f  7//6 4//6 8//6
f  8//6 4//6 9//7
f  10//8 11//8 12//8
f  11//9 10//9 1//9
f  1//10 10//10 13//10
f  1//11 13//11 14//11
f  14//12 13//12 15//12
f  14//13 15//13 16//13
f  14//14 16//14 17//14
f  17//15 16//15 18//15
f  18//16 16//16 19//16
f  20//17 1//17 3//17
f  1//18 20//18 11//18
f  21//19 22//19 23//19
f  22//20 21//20 17//20
f  17//21 21//21 24//21
f  17//22 24//22 25//22
f  17//23 18//23 22//23
f  26//24 27//24 28//24
f  27//25 26//25 1//25
f  27//26 1//26 25//26
f  25//27 1//27 14//27
f  25//28 14//28 17//28
f  25//29 29//29 27//29
f  30//30 26//30 28//30
f  26//30 30//30 31//30
f  9//31 32//31 33//31
f  32//32 26//32 31//32
f  26//33 32//33 9//33
f  26//34 9//34 4//34
f  26//34 4//34 1//35
f  33//36 8//36 9//36
f  8//37 33//37 34//37
f  8//37 34//37 35//38
f  35//39 34//39 36//39
f  21//40 37//40 24//40
f  37//40 21//40 38//40
f  39//41 27//41 29//41
f  27//41 39//41 40//42
f  35//43 7//43 8//43
f  7//44 35//44 6//44
f  6//45 35//45 41//45
f  6//46 41//46 5//46
f  5//47 41//47 2//47
f  2//48 41//48 42//48
f  42//49 41//49 43//49
f  43//49 41//49 44//50
f  42//51 3//51 2//51
f  3//52 42//52 20//52
f  20//53 42//53 45//53
f  45//54 42//54 46//54
f  47//55 12//55 11//55
f  12//55 47//55 48//56
f  20//57 47//57 11//57
f  47//57 20//57 45//57
f  48//58 10//58 12//58
f  10//58 48//58 49//59
f  50//60 15//60 13//60
f  15//61 50//61 16//61
f  16//62 50//62 19//62
f  19//63 50//63 51//63
f  51//64 50//64 52//64
f  51//64 52//64 53//65
f  54//66 23//66 22//66
f  23//66 54//66 55//66
f  10//67 50//67 13//67
f  50//67 10//67 49//67
f  19//68 22//68 18//68
f  22//69 19//69 54//69
f  54//69 19//69 51//70
f  54//71 51//64 56//71
f  23//72 38//72 21//72
f  38//72 23//72 55//72
f  37//73 25//73 24//73
f  25//74 37//74 29//74
f  29//75 37//75 39//75
f  39//76 37//76 57//76
f  40//77 28//77 27//77
f  28//78 40//78 30//78
f  30//79 40//79 58//79
f  58//80 40//80 59//80
f  60//81 33//81 32//81
f  33//81 60//81 34//82
f  58//83 31//83 30//83
f  31//84 60//84 32//84
f  60//85 31//85 58//85
f  60//86 58//86 61//86
f  36//39 41//87 35//39
f  41//87 36//39 34//39
f  41//87 34//39 60//86
f  41//87 60//86 61//86
f  41//87 61//86 58//86
f  41//87 58//86 59//88
f  41//87 59//88 44//89
f  44//89 59//88 43//90
f  43//90 59//88 42//54
f  42//54 59//88 46//54
f  46//54 59//88 40//91
f  46//54 40//91 39//92
f  46//54 39//92 57//93
f  46//54 57//93 37//94
f  46//54 37//94 38//95
f  46//54 38//95 54//96
f  54//96 38//95 55//97
f  46//54 54//96 45//54
f  45//54 54//96 47//98
f  47//98 54//96 48//99
f  48//99 54//96 50//100
f  50//100 54//96 52//101
f  54//96 53//102 52//101
f  53//102 54//96 56//103
f  53//102 56//103 51//104
f  49//105 48//99 50//100

