# {"id":"ID_53914","idOriginal":"ID_53914","origin":[14.318001354794331,48.2464291080015],"elevation":256.881,"wof":[{"Id":85898429,"Name":"Kleinmünchen","Placetype":"neighbourhood","Offset":-1},{"Id":102049853,"Name":"Linz","Placetype":"county","Offset":-1},{"Id":85681677,"Name":"Oberösterreich","Placetype":"region","Offset":-1},{"Id":101748071,"Name":"Linz","Placetype":"locality","Offset":-1},{"Id":85632785,"Name":"Austria","Placetype":"country","Offset":-1}]}

# Attribution: City of Linz <http://geo.data.linz.gv.at/katalog/geodata/3d_geo_daten_lod2/>
# Longitude: 14.318001354794331
# Latitude: 48.2464291080015
# Elevation: 256.881

# File produced by Open Asset Import Library (http://www.assimp.sf.net)
# (assimp v3.1.0)


# 8 vertex positions
v  2.666 2.332 -1.584
v  1.435 2.332 2.416
v  4.102 2.332 0.832
v  0 2.332 1.42794e-16
v  4.102 -5.09453e-17 0.832
v  2.666 9.6992e-17 -1.584
v  0 0 0
v  1.435 -1.47937e-16 2.416

# 0 UV coordinates

# 9 vertex normals
vn 0 1 -0
vn 0.85962 0 -0.510933
vn -0.510792 0 -0.859704
vn -0.510792 5.26417e-17 -0.859704
vn -0.859777 -3.12695e-17 0.51067
vn -0.859777 0 0.51067
vn 0.51065 -0 0.859788
vn 3.03619e-24 -1 -6.12323e-17
vn -3.03758e-24 -1 -6.12323e-17

# Mesh 'defaultobject' with 12 faces
g defaultobject
usemtl DefaultMaterial
f  1//1 2//1 3//1
f  2//1 1//1 4//1
f  5//2 1//2 3//2
f  1//2 5//2 6//2
f  6//3 4//3 1//3
f  4//3 6//3 7//4
f  7//5 2//5 4//5
f  2//5 7//5 8//6
f  8//7 3//7 2//7
f  3//7 8//7 5//7
f  8//8 6//8 5//8
f  6//8 8//8 7//9

