# {"id":"_32103","idOriginal":"_32103","origin":[14.26932944726895,48.29500797393917],"elevation":362.6}
# Longitude: 14.26932944726895
# Latitude: 48.29500797393917
# Elevation: 362.6

# File produced by Open Asset Import Library (http://www.assimp.sf.net)
# (assimp v3.1.0)

mtllib _32103.obj.mtl

# 28 vertex positions
v  0.19 1.739 2.383
v  2.524 1.739 -0.245
v  0 1.739 1.06483e-16
v  9.212 1.739 -0.895
v  2.732 1.739 2.127
v  2.865 1.739 2.114
v  9.855 1.739 4.498
v  3.07 1.739 5.966
v  3.113 1.739 6.779
v  3.141 1.739 6.78
v  5.678 1.739 6.885
v  9.898 1.739 6.475
v  9.779 1.739 7.054
v  9.911 1.739 7.059
v  3.113 -4.15094e-16 6.779
v  3.141 -4.15155e-16 6.78
v  5.678 -4.21585e-16 6.885
v  9.779 -4.31933e-16 7.054
v  9.911 -4.32239e-16 7.059
v  0.19 -1.45917e-16 2.383
v  2.732 -1.30241e-16 2.127
v  2.865 -1.29445e-16 2.114
v  9.855 -2.75423e-16 4.498
v  9.898 -3.96479e-16 6.475
v  9.212 5.48029e-17 -0.895
v  2.524 1.50019e-17 -0.245
v  0 0 0
v  3.07 -3.65312e-16 5.966

# 0 UV coordinates

# 30 vertex normals
vn 0 1 0
vn -0.0356888 0 0.999363
vn -0.0413523 9.13145e-05 0.999145
vn -0.0356876 -0.00827493 0.999329
vn -0.0413523 0 0.999145
vn -0.0411744 0 0.999152
vn -0.0378525 0 0.999283
vn 0.100201 -0 0.994967
vn 0.0972807 0 0.995257
vn 0.999752 0 -0.0222556
vn 0.999764 0.000171521 -0.0217451
vn 0.999761 0 -0.0218615
vn 0 -1 -6.12322e-17
vn 0.992967 0 -0.11839
vn -0.0967332 0 -0.99531
vn -0.0966141 -0 -0.995322
vn -0.0966141 6.09459e-17 -0.995322
vn -0.996837 -4.8667e-18 0.0794792
vn -0.996837 0 0.0794792
vn -0.998604 0 0.0528167
vn -0.998587 0 0.0531439
vn 5.45882e-25 -1 -6.12323e-17
vn -3.29657e-24 -1 -6.12323e-17
vn 1.64803e-24 -1 -6.12323e-17
vn -8.26695e-23 -1 -6.12325e-17
vn 0 -1 -6.12323e-17
vn -7.11639e-24 -1 -6.12324e-17
vn 1.07081e-22 -1 -6.1232e-17
vn 1.73221e-23 -1 -6.12323e-17
vn -8.5122e-24 -1 -6.12323e-17

# Mesh 'defaultobject' with 52 faces
g defaultobject
usemtl DefaultMaterial
f  1//1 2//1 3//1
f  2//1 1//1 4//1
f  4//1 1//1 5//1
f  4//1 5//1 6//1
f  4//1 6//1 7//1
f  7//1 6//1 8//1
f  7//1 8//1 9//1
f  7//1 9//1 10//1
f  7//1 10//1 11//1
f  7//1 11//1 12//1
f  12//1 11//1 13//1
f  12//1 13//1 14//1
f  15//2 10//2 9//2
f  10//3 15//3 11//3
f  11//4 15//4 16//4
f  11//5 16//5 17//5
f  11//6 17//6 13//6
f  13//6 17//6 18//6
f  13//7 18//7 14//7
f  14//7 18//7 19//7
f  20//8 5//8 1//8
f  5//8 20//8 21//8
f  5//9 21//9 6//9
f  6//9 21//9 22//9
f  19//10 12//10 14//10
f  12//11 19//11 7//11
f  7//12 19//12 23//12
f  23//13 19//13 24//13
f  23//14 4//14 7//14
f  4//14 23//14 25//14
f  25//15 2//15 4//15
f  2//15 25//15 26//15
f  2//16 26//16 3//16
f  3//16 26//16 27//17
f  27//18 1//18 3//18
f  1//18 27//18 20//19
f  8//20 15//20 9//20
f  15//20 8//20 28//20
f  28//21 8//21 6//21
f  28//21 6//21 22//21
f  26//22 20//22 27//22
f  20//22 26//22 25//23
f  20//22 25//23 21//24
f  21//24 25//23 22//25
f  22//25 25//23 28//26
f  28//26 25//23 23//13
f  28//26 23//13 15//27
f  15//27 23//13 16//28
f  16//28 23//13 17//29
f  17//29 23//13 18//30
f  18//30 23//13 24//13
f  18//30 24//13 19//13

