# {"id":"ID_31503","idOriginal":"ID_31503","origin":[14.293370432986325,48.29315631124897],"elevation":263.159,"wof":[{"Id":102049853,"Name":"Linz","Placetype":"county","Offset":-1},{"Id":85632785,"Name":"Austria","Placetype":"country","Offset":-1},{"Id":101748071,"Name":"Linz","Placetype":"locality","Offset":-1},{"Id":85681677,"Name":"Oberösterreich","Placetype":"region","Offset":-1},{"Id":85898459,"Name":"Wegscheid","Placetype":"neighbourhood","Offset":-1}]}

# Attribution: City of Linz <http://geo.data.linz.gv.at/katalog/geodata/3d_geo_daten_lod2/>
# Longitude: 14.293370432986325
# Latitude: 48.29315631124897
# Elevation: 263.159

# File produced by Open Asset Import Library (http://www.assimp.sf.net)
# (assimp v3.1.0)


# 12 vertex positions
v  1.973 2.759 -3.492
v  14.925 2.759 4.123
v  15.051 2.759 3.9
v  13.085 2.759 7.384
v  13.072 2.759 7.377
v  0 2.759 1.6894e-16
v  15.051 -2.38806e-16 3.9
v  1.973 2.13823e-16 -3.492
v  0 0 0
v  13.072 -4.51711e-16 7.377
v  14.925 -2.52461e-16 4.123
v  13.085 -4.5214e-16 7.384

# 0 UV coordinates

# 14 vertex normals
vn 0 1 0
vn 0.492062 0 -0.87056
vn -0.870642 0 -0.491918
vn -0.870642 3.01213e-17 -0.491918
vn -0.491475 -5.33267e-17 0.870891
vn -0.491475 0 0.870891
vn 0.870637 0 0.491927
vn 0.870926 5.45994e-05 0.491415
vn 0.870636 -0.000798158 0.491927
vn 0.870926 0 0.491415
vn -1.75725e-24 -1 -6.12323e-17
vn 0 -1 -6.12323e-17
vn 3.76414e-24 -1 -6.12324e-17
vn -4.81033e-20 -1 -6.11873e-17

# Mesh 'defaultobject' with 18 faces
g defaultobject
usemtl DefaultMaterial
f  1//1 2//1 3//1
f  2//1 1//1 4//1
f  4//1 1//1 5//1
f  5//1 1//1 6//1
f  7//2 1//2 3//2
f  1//2 7//2 8//2
f  8//3 6//3 1//3
f  6//3 8//3 9//4
f  9//5 5//5 6//5
f  5//5 9//5 10//6
f  2//7 7//7 3//7
f  7//8 2//8 4//8
f  7//9 4//9 11//9
f  11//10 4//10 12//10
f  7//11 9//11 8//11
f  9//11 7//11 11//12
f  9//11 11//12 12//13
f  9//11 12//13 10//14

