# {"id":"ID_54478","idOriginal":"ID_54478","origin":[14.325945267340241,48.33333815271517],"elevation":266.434}
# Longitude: 14.325945267340241
# Latitude: 48.33333815271517
# Elevation: 266.434

# File produced by Open Asset Import Library (http://www.assimp.sf.net)
# (assimp v3.1.0)

mtllib ID_54478.obj.mtl

# 8 vertex positions
v  0 2.018 1.23567e-16
v  2.858 2.018 -2.843
v  0.151 2.018 -2.98
v  2.706 2.018 0.138
v  0 0 0
v  2.706 -8.45006e-18 0.138
v  2.858 1.74084e-16 -2.843
v  0.151 1.82472e-16 -2.98

# 0 UV coordinates

# 9 vertex normals
vn 0 1 0
vn -0.0509316 -6.11529e-17 0.998702
vn -0.0509316 0 0.998702
vn 0.998703 -0 0.0509235
vn 0.0505449 0 -0.998722
vn -0.998719 0 -0.0506062
vn -0.998719 3.09874e-18 -0.0506062
vn 2.04556e-25 -1 -6.12323e-17
vn 2.45468e-24 -1 -6.12323e-17

# Mesh 'defaultobject' with 12 faces
g defaultobject
usemtl DefaultMaterial
f  1//1 2//1 3//1
f  2//1 1//1 4//1
f  5//2 4//2 1//2
f  4//2 5//2 6//3
f  6//4 2//4 4//4
f  2//4 6//4 7//4
f  7//5 3//5 2//5
f  3//5 7//5 8//5
f  8//6 1//6 3//6
f  1//6 8//6 5//7
f  5//8 7//8 6//8
f  7//8 5//8 8//9

