# {"id":"ID_55883","idOriginal":"ID_55883","origin":[14.33298344440906,48.329180463005706],"elevation":260.95,"wof":[{"Id":102049853,"Name":"Linz","Placetype":"county","Offset":-1},{"Id":85632785,"Name":"Austria","Placetype":"country","Offset":-1},{"Id":101758517,"Name":"Plesching","Placetype":"locality","Offset":-1},{"Id":85681677,"Name":"Oberösterreich","Placetype":"region","Offset":-1},{"Id":85898427,"Name":"Katzbach","Placetype":"neighbourhood","Offset":-1}]}

# Attribution: City of Linz <http://geo.data.linz.gv.at/katalog/geodata/3d_geo_daten_lod2/>
# Longitude: 14.33298344440906
# Latitude: 48.329180463005706
# Elevation: 260.95

# File produced by Open Asset Import Library (http://www.assimp.sf.net)
# (assimp v3.1.0)


# 8 vertex positions
v  0.227 6.937 -0.977
v  6.411 6.937 1.488
v  6.642 6.937 0.491
v  0 6.937 4.24769e-16
v  6.642 -3.00651e-17 0.491
v  0.227 5.9824e-17 -0.977
v  0 0 0
v  6.411 -9.11137e-17 1.488

# 0 UV coordinates

# 9 vertex normals
vn 0 1 0
vn 0.223072 0 -0.974802
vn -0.974054 0 -0.226316
vn -0.974054 1.38578e-17 -0.226316
vn -0.226091 -5.96468e-17 0.974106
vn -0.226091 0 0.974106
vn 0.974193 -0 0.225716
vn 1.96513e-24 -1 -6.12323e-17
vn 0 -1 -6.12323e-17

# Mesh 'defaultobject' with 12 faces
g defaultobject
usemtl DefaultMaterial
f  1//1 2//1 3//1
f  2//1 1//1 4//1
f  5//2 1//2 3//2
f  1//2 5//2 6//2
f  6//3 4//3 1//3
f  4//3 6//3 7//4
f  7//5 2//5 4//5
f  2//5 7//5 8//6
f  8//7 3//7 2//7
f  3//7 8//7 5//7
f  8//8 6//8 5//8
f  6//8 8//8 7//9

