# {"id":"ID_37826","idOriginal":"ID_37826","origin":[14.304620660288032,48.24325395565401],"elevation":258.832}
# Longitude: 14.304620660288032
# Latitude: 48.24325395565401
# Elevation: 258.832

# File produced by Open Asset Import Library (http://www.assimp.sf.net)
# (assimp v3.1.0)

mtllib ID_37826.obj.mtl

# 11 vertex positions
v  7.383 2.071 4.19
v  3.459 2.974 1.505
v  4.901 2.974 5.167
v  4.965 2.071 -1.954
v  2.419 2.071 6.144
v  0 2.071 1.26812e-16
v  2.419 -3.76212e-16 6.144
v  4.901 -3.16388e-16 5.167
v  7.383 -2.56564e-16 4.19
v  4.965 1.19648e-16 -1.954
v  0 0 0

# 0 UV coordinates

# 16 vertex normals
vn 0.298361 0.947195 -0.117487
vn 0.298308 0.947222 -0.117401
vn -0.298361 0.947195 0.117487
vn -0.298386 0.947188 0.11748
vn -0.117437 0.947188 -0.298402
vn 0.366279 -0 0.930505
vn 0.366279 0 0.930505
vn 0.366279 0 0.930505
vn 0.93053 0 -0.366215
vn -0.366215 0 -0.93053
vn -0.366215 5.69785e-17 -0.93053
vn -0.930479 -2.24322e-17 0.366346
vn -0.930479 0 0.366346
vn 7.51479e-24 -1 -6.12323e-17
vn 0 -1 -6.12323e-17
vn 0 -1 -6.12323e-17

# Mesh 'defaultobject' with 18 faces
g defaultobject
usemtl DefaultMaterial
f  1//1 2//1 3//1
f  2//2 1//2 4//2
f  2//3 5//3 3//3
f  5//4 2//4 6//4
f  2//5 4//5 6//5
f  7//6 3//6 5//6
f  3//6 7//6 8//6
f  3//6 8//6 1//7
f  1//7 8//6 9//8
f  9//9 4//9 1//9
f  4//9 9//9 10//9
f  10//10 6//10 4//10
f  6//10 10//10 11//11
f  11//12 5//12 6//12
f  5//12 11//12 7//13
f  8//14 10//14 9//14
f  10//14 8//14 7//15
f  10//14 7//15 11//16

