# {"id":"_34970","idOriginal":"_34970","origin":[14.289673723106139,48.29486588657049],"elevation":262.051}
# Longitude: 14.289673723106139
# Latitude: 48.29486588657049
# Elevation: 262.051

# File produced by Open Asset Import Library (http://www.assimp.sf.net)
# (assimp v3.1.0)

mtllib _34970.obj.mtl

# 12 vertex positions
v  0 4.886 2.99181e-16
v  4.774 4.886 -4.975
v  3.364 4.886 -5.802
v  9.091 4.886 -2.512
v  6.411 4.886 2.064
v  5.727 4.886 3.268
v  9.091 1.53816e-16 -2.512
v  4.774 3.04631e-16 -4.975
v  3.364 3.5527e-16 -5.802
v  0 0 0
v  5.727 -2.00107e-16 3.268
v  6.411 -1.26384e-16 2.064

# 0 UV coordinates

# 15 vertex normals
vn 0 1 0
vn 0.495554 0 -0.868577
vn 0.505924 0 -0.862578
vn -0.865106 0 -0.501589
vn -0.865106 3.07134e-17 -0.501589
vn -0.495616 -5.31828e-17 0.868542
vn -0.495616 0 0.868542
vn 0.862902 0 0.505371
vn 0.869396 0.0142962 0.493909
vn 0.862896 -0.00373338 0.505367
vn 0.869485 0 0.49396
vn 1.4487e-23 -1 -6.12323e-17
vn -1.59286e-24 -1 -6.12323e-17
vn -7.59137e-25 -1 -6.12323e-17
vn -2.89901e-24 -1 -6.12323e-17

# Mesh 'defaultobject' with 20 faces
g defaultobject
usemtl DefaultMaterial
f  1//1 2//1 3//1
f  2//1 1//1 4//1
f  4//1 1//1 5//1
f  5//1 1//1 6//1
f  7//2 2//2 4//2
f  2//2 7//2 8//2
f  2//3 8//3 3//3
f  3//3 8//3 9//3
f  9//4 1//4 3//4
f  1//4 9//4 10//5
f  10//6 6//6 1//6
f  6//6 10//6 11//7
f  5//8 7//8 4//8
f  7//9 5//9 6//9
f  7//10 6//10 12//10
f  12//11 6//11 11//11
f  8//12 10//12 9//12
f  10//12 8//12 7//13
f  10//12 7//13 12//14
f  10//12 12//14 11//15

