# {"id":"ID_51067","idOriginal":"ID_51067","origin":[14.288298942899853,48.32936487428148],"elevation":265.887,"wof":[{"Id":102049853,"Name":"Linz","Placetype":"county","Offset":-1},{"Id":85681677,"Name":"Oberösterreich","Placetype":"region","Offset":-1},{"Id":85898425,"Name":"Harbach","Placetype":"neighbourhood","Offset":-1},{"Id":101748071,"Name":"Linz","Placetype":"locality","Offset":-1},{"Id":85632785,"Name":"Austria","Placetype":"country","Offset":-1}]}

# Attribution: City of Linz <http://geo.data.linz.gv.at/katalog/geodata/3d_geo_daten_lod2/>
# Longitude: 14.288298942899853
# Latitude: 48.32936487428148
# Elevation: 265.887

# File produced by Open Asset Import Library (http://www.assimp.sf.net)
# (assimp v3.1.0)


# 12 vertex positions
v  0 1.199 7.34176e-17
v  4.898 3.412 -0.395
v  2.155 3.365 -2.613
v  4.692 3.213 -0.162
v  2.621 1.213 2.183
v  2.773 1.199 2.339
v  2.621 -1.3367e-16 2.183
v  0 0 0
v  2.773 -1.43222e-16 2.339
v  4.692 9.91964e-18 -0.162
v  4.898 2.41868e-17 -0.395
v  2.155 1.6e-16 -2.613

# 0 UV coordinates

# 20 vertex normals
vn -0.347421 0.842446 0.411804
vn -0.347295 0.842256 0.4123
vn -0.347416 0.84249 0.411719
vn -0.346118 0.842471 0.41285
vn -0.639983 0 0.768389
vn -0.639983 0 0.76839
vn -0.716229 0 0.697865
vn -0.716229 0 0.697865
vn 0.793366 0 0.608745
vn 0.793366 0 0.608745
vn 0.749181 0 0.662365
vn 0.749181 0 0.662365
vn 0.628766 0 -0.777595
vn 0.628766 0 -0.777595
vn -0.771478 0 -0.636256
vn -0.771478 3.89594e-17 -0.636256
vn 4.58231e-24 -1 -6.12323e-17
vn 4.80165e-24 -1 -6.12323e-17
vn 0 -1 -6.12323e-17
vn -9.73847e-24 -1 -6.12324e-17

# Mesh 'defaultobject' with 20 faces
g defaultobject
usemtl DefaultMaterial
f  1//1 2//1 3//1
f  2//2 1//2 4//2
f  4//3 1//3 5//3
f  4//4 5//4 6//4
f  1//5 7//5 5//5
f  7//5 1//5 8//6
f  7//7 6//7 5//7
f  6//7 7//7 9//8
f  6//9 10//9 4//9
f  10//9 6//9 9//10
f  4//11 11//11 2//11
f  11//11 4//11 10//12
f  11//13 3//13 2//13
f  3//13 11//13 12//14
f  12//15 1//15 3//15
f  1//15 12//15 8//16
f  12//17 7//17 8//17
f  7//17 12//17 10//18
f  10//18 12//17 11//19
f  7//17 10//18 9//20

