# File produced by Open Asset Import Library (http://www.assimp.sf.net)
# (assimp v3.1.0)

mtllib ID_44242.obj.mtl

# 8 vertex positions
v  0 2.876 1.76104e-16
v  7.119 2.152 0.193
v  1.768 2.152 -2.981
v  5.351 2.876 3.175
v  0 0 0
v  1.768 1.82534e-16 -2.981
v  5.351 -1.94413e-16 3.175
v  7.119 -1.18178e-17 0.193

# 0 UV coordinates

# 9 vertex normals
vn 0.104319 0.978871 -0.175869
vn 0.104318 0.978881 -0.175813
vn -0.860104 0 -0.510119
vn -0.510283 -5.26602e-17 0.860007
vn -0.510283 0 0.860007
vn 0.860179 -0 0.509992
vn 0.860179 0 0.509992
vn 0.510164 0 -0.860077
vn 0 -1 -6.12323e-17

# Mesh 'defaultobject' with 12 faces
g defaultobject
usemtl DefaultMaterial
f  1//1 2//1 3//1
f  2//2 1//2 4//2
f  3//3 5//3 1//3
f  5//3 3//3 6//3
f  5//4 4//4 1//4
f  4//4 5//4 7//5
f  7//6 2//6 4//6
f  2//6 7//6 8//7
f  8//8 3//8 2//8
f  3//8 8//8 6//8
f  8//9 5//9 6//9
f  5//9 8//9 7//9

