# File produced by Open Asset Import Library (http://www.assimp.sf.net)
# (assimp v3.1.0)

mtllib ID_36436.obj.mtl

# 12 vertex positions
v  0.609 3.778 -2.394
v  8.862 2.94 -2.824
v  1.217 2.94 -4.781
v  8.251 3.778 -0.437
v  0 2.938 1.79901e-16
v  7.641 2.941 1.945
v  1.217 2.92752e-16 -4.781
v  0.609 1.4659e-16 -2.394
v  0 0 0
v  7.641 -1.19097e-16 1.945
v  8.251 2.67585e-17 -0.437
v  8.862 1.7292e-16 -2.824

# 0 UV coordinates

# 19 vertex normals
vn 0.0798714 0.946713 -0.312017
vn 0.0798792 0.946743 -0.311925
vn -0.0798675 0.946759 0.311879
vn -0.0798403 0.946657 0.312195
vn -0.969058 0 -0.246832
vn -0.96912 -0.000163909 -0.246588
vn -0.969058 0.000258254 -0.246832
vn -0.969134 1.50959e-17 -0.246534
vn -0.246681 0 0.969097
vn -0.246681 0 0.969097
vn 0.968739 -0 0.248082
vn 0.968762 -5.90628e-05 0.247994
vn 0.968739 9.28732e-05 0.248082
vn 0.968767 0 0.247975
vn 0.247988 0 -0.968763
vn -2.71805e-24 -1 -6.12323e-17
vn -1.09022e-23 -1 -6.12323e-17
vn 0 -1 -6.12323e-17
vn -7.88231e-20 -1 -6.12652e-17

# Mesh 'defaultobject' with 20 faces
g defaultobject
usemtl DefaultMaterial
f  1//1 2//1 3//1
f  2//2 1//2 4//2
f  5//3 4//3 1//3
f  4//4 5//4 6//4
f  7//5 1//5 3//5
f  1//6 7//6 5//6
f  5//7 7//7 8//7
f  5//8 8//8 9//8
f  5//9 10//9 6//9
f  10//9 5//9 9//10
f  10//11 4//11 6//11
f  4//12 10//12 2//12
f  2//13 10//13 11//13
f  2//14 11//14 12//14
f  12//15 3//15 2//15
f  3//15 12//15 7//15
f  8//16 10//16 9//16
f  10//16 8//16 7//17
f  10//16 7//17 12//18
f  10//16 12//18 11//19

