# {"id":"ID_56354","idOriginal":"ID_56354","origin":[14.286471817049087,48.279029745856974],"elevation":271.674}
# Longitude: 14.286471817049087
# Latitude: 48.279029745856974
# Elevation: 271.674

# File produced by Open Asset Import Library (http://www.assimp.sf.net)
# (assimp v3.1.0)

mtllib ID_56354.obj.mtl

# 8 vertex positions
v  0.475 1.274 -2.759
v  2.381 1.274 0.156
v  2.71 1.274 -2.395
v  0 1.274 7.801e-17
v  2.71 1.46651e-16 -2.395
v  0.475 1.6894e-16 -2.759
v  0 0 0
v  2.381 -9.55225e-18 0.156

# 0 UV coordinates

# 9 vertex normals
vn 0 1 0
vn 0.160746 0 -0.986996
vn -0.985501 0 -0.169668
vn -0.985501 1.03891e-17 -0.169668
vn -0.0653785 -6.11013e-17 0.99786
vn -0.0653785 0 0.99786
vn 0.991786 -0 0.12791
vn 6.78523e-24 -1 -6.12323e-17
vn 2.70089e-25 -1 -6.12323e-17

# Mesh 'defaultobject' with 12 faces
g defaultobject
usemtl DefaultMaterial
f  1//1 2//1 3//1
f  2//1 1//1 4//1
f  5//2 1//2 3//2
f  1//2 5//2 6//2
f  6//3 4//3 1//3
f  4//3 6//3 7//4
f  7//5 2//5 4//5
f  2//5 7//5 8//6
f  8//7 3//7 2//7
f  3//7 8//7 5//7
f  5//8 7//8 6//8
f  7//8 5//8 8//9

