# {"id":"ID_16124","idOriginal":"ID_16124","origin":[14.267676929519281,48.28929688387838],"elevation":333.4,"wof":[{"Id":102049853,"Name":"Linz","Placetype":"county","Offset":-1},{"Id":85632785,"Name":"Austria","Placetype":"country","Offset":-1},{"Id":101748071,"Name":"Linz","Placetype":"locality","Offset":-1},{"Id":85681677,"Name":"Oberösterreich","Placetype":"region","Offset":-1},{"Id":85898459,"Name":"Wegscheid","Placetype":"neighbourhood","Offset":-1}]}

# Attribution: City of Linz <http://geo.data.linz.gv.at/katalog/geodata/3d_geo_daten_lod2/>
# Longitude: 14.267676929519281
# Latitude: 48.28929688387838
# Elevation: 333.4

# File produced by Open Asset Import Library (http://www.assimp.sf.net)
# (assimp v3.1.0)


# 22 vertex positions
v  10.645 4.202 -7.019
v  15.853 10.176 4.714
v  19.653 4.216 -0.014
v  9.172 6.64 -5.021
v  3.699 10.176 -4.713
v  5.911 6.655 -7.531
v  0 4.289 2.62626e-16
v  5.775 4.226 4.559
v  13.827 6.998 7.235
v  11.16 4.168 8.81
v  12.132 4.131 9.612
v  5.911 4.61141e-16 -7.531
v  3.699 2.88588e-16 -4.713
v  0 0 0
v  9.172 3.07448e-16 -5.021
v  10.645 4.2979e-16 -7.019
v  5.775 -2.79158e-16 4.559
v  11.16 -5.39457e-16 8.81
v  12.132 -5.88565e-16 9.612
v  13.827 -4.43016e-16 7.235
v  15.853 -2.88649e-16 4.714
v  19.653 8.57253e-19 -0.014

# 0 UV coordinates

# 34 vertex normals
vn 0.42958 0.713248 -0.553839
vn 0.429447 0.713339 -0.553826
vn 0.42961 0.713194 -0.553886
vn 0.429609 0.713193 -0.553888
vn -0.429557 0.713279 0.553817
vn -0.429558 0.713146 0.553987
vn -0.429603 0.713226 0.55385
vn -0.429608 0.713153 0.553941
vn -0.429762 0.713198 0.553763
vn -0.786629 -3.25991e-05 -0.617426
vn -0.786634 0 -0.61742
vn -0.786609 8.95008e-05 -0.617452
vn -0.786648 3.78049e-17 -0.617401
vn -0.804904 0 -0.593405
vn -0.804904 0 -0.593405
vn -0.619627 -4.80611e-17 0.784897
vn -0.619627 0 0.784897
vn -0.619616 0 0.784905
vn -0.63643 0 0.771335
vn -0.63643 0 0.771335
vn 0.814196 0 0.58059
vn 0.779465 2.26836e-05 0.626445
vn 0.779461 0 0.626451
vn 0.779479 -6.40659e-05 0.626428
vn 0.779451 0 0.626463
vn 0.613874 0 -0.789404
vn 0.613874 0 -0.789404
vn 0.609946 0 -0.792443
vn -1.61041e-24 -1 -6.12323e-17
vn -4.48895e-25 -1 -6.12323e-17
vn -1.98352e-23 -1 -6.12324e-17
vn 0 -1 -6.12323e-17
vn -1.02912e-24 -1 -6.12323e-17
vn -7.54511e-25 -1 -6.12323e-17

# Mesh 'defaultobject' with 40 faces
g defaultobject
usemtl DefaultMaterial
f  1//1 2//1 3//1
f  2//2 1//2 4//2
f  2//3 4//3 5//3
f  5//3 4//3 6//4
f  7//5 2//5 5//5
f  2//6 7//6 8//6
f  2//7 8//7 9//7
f  9//8 8//8 10//8
f  9//9 10//9 11//9
f  6//10 7//10 5//10
f  7//11 6//11 12//11
f  7//12 12//12 13//12
f  7//13 13//13 14//13
f  1//14 15//14 4//14
f  15//14 1//14 16//15
f  14//16 8//16 7//16
f  8//16 14//16 17//17
f  8//18 17//18 10//18
f  10//18 17//18 18//18
f  18//19 11//19 10//19
f  11//19 18//19 19//20
f  11//21 20//21 9//21
f  20//21 11//21 19//21
f  9//22 3//22 2//22
f  3//23 9//23 20//23
f  3//24 20//24 21//24
f  3//25 21//25 22//25
f  22//26 1//26 3//26
f  1//26 22//26 16//27
f  4//28 12//28 6//28
f  12//28 4//28 15//28
f  13//29 15//29 14//29
f  15//29 13//29 12//30
f  18//31 20//31 19//31
f  20//31 18//31 17//32
f  20//31 17//32 21//33
f  21//33 17//32 22//34
f  22//34 17//32 14//29
f  22//34 14//29 15//29
f  22//34 15//29 16//32

