# {"id":"ID_35687","idOriginal":"ID_35687","origin":[14.326046781316391,48.2396461560737],"elevation":259.685,"wof":[{"Id":102049853,"Name":"Linz","Placetype":"county","Offset":-1},{"Id":101748071,"Name":"Linz","Placetype":"locality","Offset":-1},{"Id":85681677,"Name":"Oberösterreich","Placetype":"region","Offset":-1},{"Id":85898451,"Name":"Ufer","Placetype":"neighbourhood","Offset":-1},{"Id":85632785,"Name":"Austria","Placetype":"country","Offset":-1}]}

# Attribution: City of Linz <http://geo.data.linz.gv.at/katalog/geodata/3d_geo_daten_lod2/>
# Longitude: 14.326046781316391
# Latitude: 48.2396461560737
# Elevation: 259.685

# File produced by Open Asset Import Library (http://www.assimp.sf.net)
# (assimp v3.1.0)


# 10 vertex positions
v  0 3.77 2.30846e-16
v  10.436 2.386 -0.032
v  8.626 3.74 -3.967
v  6.596 2.4 1.733
v  1.85 2.386 4.024
v  8.626 2.42909e-16 -3.967
v  10.436 1.95943e-18 -0.032
v  0 0 0
v  1.85 -2.46399e-16 4.024
v  6.596 -1.06116e-16 1.733

# 0 UV coordinates

# 15 vertex normals
vn 0.127404 0.954447 0.269814
vn 0.12741 0.954499 0.269628
vn 0.127383 0.954477 0.269716
vn 0.908499 0 -0.417886
vn -0.417822 0 -0.908529
vn -0.417822 0 -0.908529
vn -0.90858 -2.55775e-17 0.417712
vn -0.90858 0 0.417712
vn 0.417632 -0 0.908616
vn 0.417632 0 0.908616
vn 0.434723 0 0.900564
vn 0.434723 0 0.900564
vn -2.01145e-26 -1 -6.12323e-17
vn -1.13023e-26 -1 -6.12323e-17
vn -2.26855e-24 -1 -6.12323e-17

# Mesh 'defaultobject' with 16 faces
g defaultobject
usemtl DefaultMaterial
f  1//1 2//1 3//1
f  2//2 1//2 4//2
f  4//3 1//3 5//3
f  2//4 6//4 3//4
f  6//4 2//4 7//4
f  3//5 8//5 1//5
f  8//5 3//5 6//6
f  8//7 5//7 1//7
f  5//7 8//7 9//8
f  10//9 2//9 4//9
f  2//9 10//9 7//10
f  5//11 10//11 4//11
f  10//11 5//11 9//12
f  7//13 8//13 6//13
f  8//13 7//13 10//14
f  8//13 10//14 9//15

