# {"id":"ID_14300","idOriginal":"ID_14300","origin":[14.308344952928978,48.3122334990195],"elevation":256.686,"wof":[{"Id":85681677,"Name":"Oberösterreich","Placetype":"region","Offset":-1},{"Id":85898449,"Name":"Steeg","Placetype":"neighbourhood","Offset":-1},{"Id":102049853,"Name":"Linz","Placetype":"county","Offset":-1},{"Id":101748071,"Name":"Linz","Placetype":"locality","Offset":-1},{"Id":85632785,"Name":"Austria","Placetype":"country","Offset":-1}]}

# Attribution: City of Linz <http://geo.data.linz.gv.at/katalog/geodata/3d_geo_daten_lod2/>
# Longitude: 14.308344952928978
# Latitude: 48.3122334990195
# Elevation: 256.686

# File produced by Open Asset Import Library (http://www.assimp.sf.net)
# (assimp v3.1.0)


# 20 vertex positions
v  3.225 8.982 4.527
v  17.838 8.858 -5.272
v  17.566 8.982 -5.657
v  20.779 7.522 -1.154
v  6.464 7.51 9.069
v  3.761 8.738 5.283
v  0 7.515 4.60161e-16
v  14.354 7.515 -10.193
v  7.257 7.509 -5.182
v  2.24 8.533 3.136
v  14.354 6.24141e-16 -10.193
v  7.257 3.17306e-16 -5.182
v  0 0 0
v  2.24 -1.92025e-16 3.136
v  6.464 -5.55316e-16 9.069
v  3.225 -2.77199e-16 4.527
v  3.761 -3.2349e-16 5.283
v  20.779 7.06621e-17 -1.154
v  17.838 3.22817e-16 -5.272
v  17.566 3.46391e-16 -5.657

# 0 UV coordinates

# 35 vertex normals
vn 0.147295 0.967099 0.20742
vn 0.147777 0.966871 0.208141
vn 0.147737 0.966906 0.208007
vn 0.306427 0.94776 0.0886213
vn -0.143846 0.968646 -0.202567
vn -0.147869 0.966837 -0.208232
vn -0.147721 0.966888 -0.208101
vn -0.147493 0.96701 -0.207698
vn -0.576787 0 -0.816895
vn -0.576787 -0 -0.816895
vn -0.581122 -0 -0.813817
vn -0.581122 4.98319e-17 -0.813817
vn -0.813734 -3.55906e-17 0.581238
vn -0.816423 0.00209781 0.577451
vn -0.815586 0.00120124 0.578634
vn -0.813993 -0.000839345 0.580875
vn -0.813733 -0.0015015 0.581238
vn -0.814632 0 0.579978
vn 0 1 6.12346e-17
vn -1.49424e-20 1 6.12378e-17
vn 0.581163 0 0.813787
vn 0.581163 0 0.813787
vn 0.813774 0 -0.581182
vn 0.81725 0.00343629 -0.576273
vn 0.815817 0.00190441 -0.578307
vn 0.813769 -0.00330157 -0.581179
vn 0.816158 0 -0.577829
vn 3.73938e-20 1 6.11763e-17
vn 0 -1 -6.12323e-17
vn 6.97864e-24 -1 -6.12323e-17
vn -2.56608e-23 -1 -6.12324e-17
vn 1.52994e-23 -1 -6.12323e-17
vn -4.32389e-24 -1 -6.12323e-17
vn 1.0738e-24 -1 -6.12323e-17
vn -4.67384e-20 -1 -6.11969e-17

# Mesh 'defaultobject' with 36 faces
g defaultobject
usemtl DefaultMaterial
f  1//1 2//1 3//1
f  2//2 1//2 4//2
f  4//3 1//3 5//3
f  5//4 1//4 6//4
f  7//5 8//5 9//5
f  8//6 7//6 10//6
f  8//7 10//7 3//7
f  3//8 10//8 1//8
f  11//9 9//9 8//9
f  9//9 11//9 12//10
f  9//11 12//11 7//11
f  7//11 12//11 13//12
f  13//13 10//13 7//13
f  10//14 13//14 1//14
f  1//15 13//15 6//15
f  6//16 13//16 5//16
f  5//17 13//17 14//17
f  5//18 14//18 15//18
f  15//19 14//19 16//19
f  15//19 16//19 17//20
f  5//21 18//21 4//21
f  18//21 5//21 15//22
f  18//23 2//23 4//23
f  2//24 18//24 3//24
f  3//25 18//25 8//25
f  8//26 18//26 19//26
f  8//27 19//27 11//27
f  11//28 19//28 20//28
f  12//29 14//29 13//29
f  14//29 12//29 16//30
f  16//30 12//29 17//31
f  17//31 12//29 15//32
f  15//32 12//29 18//33
f  18//33 12//29 19//29
f  19//29 12//29 11//34
f  19//29 11//34 20//35

