# File produced by Open Asset Import Library (http://www.assimp.sf.net)
# (assimp v3.1.0)

mtllib _14259.obj.mtl

# 26 vertex positions
v  11.498 10.236 6.678
v  3.138 10.9 9.291
v  3.354 10.236 9.932
v  20.882 10.236 2.928
v  20.778 10.48 2.702
v  20.636 10.888 2.312
v  1.824 14.93 5.4
v  19.066 15.391 -1.995
v  1.674 15.391 4.955
v  14.032 10.244 -5.623
v  17.263 10.221 -6.939
v  3.231 10.276 -1.272
v  0 10.259 6.28183e-16
v  17.263 4.24891e-16 -6.939
v  14.032 3.44309e-16 -5.623
v  3.231 7.78875e-17 -1.272
v  0 0 0
v  3.354 -6.0816e-16 9.932
v  1.824 -3.30655e-16 5.4
v  1.674 -3.03406e-16 4.955
v  3.138 -5.6891e-16 9.291
v  11.498 -4.0891e-16 6.678
v  20.882 -1.79288e-16 2.928
v  20.636 -1.41569e-16 2.312
v  19.066 1.22159e-16 -1.995
v  20.778 -1.6545e-16 2.702

# 0 UV coordinates

# 42 vertex normals
vn 0.260122 0.713093 0.651025
vn 0.260069 0.713322 0.650797
vn 0.260021 0.713477 0.650646
vn 0.260192 0.712966 0.651137
vn 0.260091 0.713236 0.650882
vn 0.260091 0.713235 0.650883
vn 0.260156 0.713081 0.651026
vn -0.260057 0.713187 -0.650949
vn -0.260108 0.713207 -0.650907
vn -0.260088 0.713227 -0.650893
vn -0.260001 0.713256 -0.650896
vn -0.377215 0 -0.926126
vn -0.373651 0.00130927 -0.927568
vn -0.377211 -0.00435231 -0.926117
vn -0.373655 -0 -0.927568
vn -0.366321 -0 -0.930489
vn -0.366321 5.6976e-17 -0.930489
vn -0.947504 0.000348547 0.319744
vn -0.947422 3.75898e-05 0.319986
vn -0.947422 0 0.319988
vn -0.947539 0.000331342 0.319639
vn -0.947436 0 0.319946
vn 0 -1 -6.1232e-17
vn -4.72553e-20 -1 -6.12192e-17
vn 1.38364e-19 -1 -6.12769e-17
vn 0.371037 -0 0.928618
vn 0.371084 -4.31475e-05 0.9286
vn 0.371037 4.96332e-05 0.928618
vn 0.371084 0 0.9286
vn 0.939501 -7.25756e-05 -0.342545
vn 0.939509 -0.000425502 -0.342523
vn 0.939506 1.70077e-05 -0.342534
vn 0.9395 0 -0.34255
vn -6.15764e-20 1 6.12685e-17
vn 0.908429 0 -0.418039
vn 0.939653 0 -0.34213
vn 0 -1 -6.12323e-17
vn 6.32674e-24 -1 -6.12323e-17
vn 0 -1 -6.12323e-17
vn 0 -1 -6.12323e-17
vn -5.81597e-24 -1 -6.12323e-17
vn 3.47607e-24 -1 -6.12323e-17

# Mesh 'defaultobject' with 48 faces
g defaultobject
usemtl DefaultMaterial
f  1//1 2//1 3//1
f  2//2 1//2 4//2
f  2//3 4//3 5//3
f  2//4 5//4 6//4
f  2//5 6//5 7//5
f  7//5 6//5 8//6
f  7//7 8//7 9//7
f  10//8 8//8 11//8
f  8//9 10//9 9//9
f  9//10 10//10 12//10
f  9//11 12//11 13//11
f  14//12 10//12 11//12
f  10//13 14//13 12//13
f  12//14 14//14 15//14
f  12//15 15//15 16//15
f  12//16 16//16 13//16
f  13//16 16//16 17//17
f  13//18 7//18 9//18
f  7//19 13//19 2//19
f  2//20 13//20 17//20
f  2//21 17//21 3//21
f  3//22 17//22 18//22
f  18//23 17//23 19//23
f  19//23 17//23 20//24
f  18//23 19//23 21//25
f  18//26 1//26 3//26
f  1//27 18//27 4//27
f  4//28 18//28 22//28
f  4//29 22//29 23//29
f  6//30 11//30 8//30
f  11//31 6//31 5//31
f  11//32 5//32 24//32
f  11//33 24//33 14//33
f  14//34 24//34 25//34
f  4//35 26//35 5//35
f  26//35 4//35 23//35
f  24//36 5//36 26//36
f  22//37 26//37 23//37
f  26//37 22//37 24//38
f  24//38 22//37 25//39
f  25//39 22//37 14//40
f  14//40 22//37 15//41
f  15//41 22//37 16//42
f  16//42 22//37 18//23
f  16//42 18//23 21//25
f  16//42 21//25 19//23
f  16//42 19//23 20//24
f  16//42 20//24 17//23

