# File produced by Open Asset Import Library (http://www.assimp.sf.net)
# (assimp v3.1.0)

mtllib _51000.obj.mtl

# 18 vertex positions
v  0 2.148 1.31527e-16
v  0.152 2.163 0.093
v  0.102 2.146 -0.022
v  0.173 2.327 1.244
v  5.639 2.354 0.915
v  0.164 2.354 1.438
v  2.558 1.99 -1.355
v  5.392 2.037 -1.294
v  5.359 1.995 -1.587
v  5.359 9.71757e-17 -1.587
v  2.558 8.29698e-17 -1.355
v  0 0 0
v  0.102 1.34711e-18 -0.022
v  0.152 -5.69461e-18 0.093
v  0.173 -7.6173e-17 1.244
v  0.164 -8.80521e-17 1.438
v  5.639 -5.60276e-17 0.915
v  5.392 7.92346e-17 -1.294

# 0 UV coordinates

# 28 vertex normals
vn -0.0111096 0.989876 -0.141501
vn -0.0115199 0.989965 -0.140845
vn -0.0133653 0.989947 -0.140808
vn -0.0132242 0.990283 -0.138437
vn -0.0133965 0.990004 -0.140403
vn -0.0133933 0.989985 -0.140533
vn -0.0134026 0.98998 -0.140567
vn -0.0825449 0 -0.996587
vn -0.0825449 -0 -0.996587
vn -0.210838 0 -0.977521
vn -0.515647 0 -0.856801
vn -0.515647 0 -0.856801
vn 0.91707 0 -0.398726
vn 0.91707 0 -0.398726
vn -0.990468 0 0.137742
vn -0.998926 0 -0.0463419
vn -0.998926 0 -0.0463419
vn 0.0950922 -0 0.995468
vn 0.993807 0 -0.111123
vn 0.993807 0 -0.111123
vn 0.993717 0 -0.11192
vn 0.993717 0 -0.11192
vn 1.95562e-24 -1 -6.12323e-17
vn -5.25338e-25 -1 -6.12323e-17
vn 2.39071e-24 -1 -6.12323e-17
vn -4.02952e-24 -1 -6.12323e-17
vn 0 -1 -6.12323e-17
vn -5.0316e-20 -1 -6.12283e-17

# Mesh 'defaultobject' with 32 faces
g defaultobject
usemtl DefaultMaterial
f  1//1 2//1 3//1
f  2//2 1//2 4//2
f  2//3 4//3 5//3
f  5//4 4//4 6//4
f  7//5 8//5 9//5
f  8//6 7//6 2//6
f  8//7 2//7 5//7
f  10//8 7//8 9//8
f  7//8 10//8 11//9
f  3//10 12//10 1//10
f  12//10 3//10 13//10
f  7//11 14//11 2//11
f  14//11 7//11 11//12
f  14//13 3//13 2//13
f  3//13 14//13 13//14
f  1//15 15//15 4//15
f  15//15 1//15 12//15
f  4//16 16//16 6//16
f  16//16 4//16 15//17
f  16//18 5//18 6//18
f  5//18 16//18 17//18
f  17//19 8//19 5//19
f  8//19 17//19 18//20
f  8//21 18//21 9//21
f  9//21 18//21 10//22
f  15//23 17//23 16//23
f  17//23 15//23 14//24
f  14//24 15//23 12//25
f  14//24 12//25 13//26
f  17//23 14//24 11//27
f  17//23 11//27 10//27
f  17//23 10//27 18//28

