# File produced by Open Asset Import Library (http://www.assimp.sf.net)
# (assimp v3.1.0)

mtllib _744.obj.mtl

# 112 vertex positions
v  35.169 18.797 -26.509
v  42.372 18.797 -17.721
v  43.892 18.797 -24.631
v  33.651 18.797 -19.628
v  33.651 1.20187e-15 -19.628
v  42.372 1.0851e-15 -17.721
v  43.892 1.50821e-15 -24.631
v  35.169 1.62321e-15 -26.509
v  20.109 18.803 -47.188
v  19.88 18.803 -46.204
v  47.553 18.803 -41.278
v  17.85 18.803 -47.637
v  17.055 18.803 -44.023
v  19.216 18.803 -47.344
v  19.004 18.803 -46.433
v  46.751 18.803 -37.63
v  46.751 2.30417e-15 -37.63
v  47.553 2.52755e-15 -41.278
v  19.004 2.8432e-15 -46.433
v  19.216 2.89898e-15 -47.344
v  20.109 2.88943e-15 -47.188
v  19.88 2.82918e-15 -46.204
v  17.85 2.91693e-15 -47.637
v  17.055 2.69563e-15 -44.023
v  9.731 19.346 -45.6
v  4.49 18.94 -50.406
v  3.637 19.346 -46.912
v  4.522 18.925 -50.535
v  10.525 18.922 -49.277
v  9.731 2.79219e-15 -45.6
v  10.525 3.01735e-15 -49.277
v  4.522 3.09438e-15 -50.535
v  3.657 2.8781e-15 -47.003
v  3.657 19.336 -47.003
v  4.49 3.08648e-15 -50.406
v  3.637 2.87253e-15 -46.912
v  17.055 25.423 -44.023
v  8.776 25.423 -41.183
v  16.085 25.423 -39.61
v  17.85 25.423 -47.637
v  9.731 25.423 -45.6
v  11.538 25.423 -47.948
v  11.774 25.423 -48.94
v  10.536 25.423 -48.244
v  10.525 25.423 -49.277
v  10.72 25.423 -49.108
v  10.746 25.423 -49.231
v  10.536 2.95409e-15 -48.244
v  10.746 3.01453e-15 -49.231
v  10.72 3.007e-15 -49.108
v  16.085 2.42541e-15 -39.61
v  11.774 2.99671e-15 -48.94
v  11.538 2.93597e-15 -47.948
v  8.776 2.52173e-15 -41.183
v  7.037 22.086 1.528
v  5.527 22.086 -25.654
v  0 22.086 1.35238e-15
v  12.674 22.086 -24.102
v  7.017 22.086 -32.569
v  14.196 22.086 -31.024
v  7.037 -9.3563e-17 1.528
v  12.674 1.47582e-15 -24.102
v  14.196 1.89967e-15 -31.024
v  7.017 1.99428e-15 -32.569
v  0 0 0
v  5.527 1.57085e-15 -25.654
v  16.085 29.943 -39.61
v  7.017 29.943 -32.569
v  14.196 29.943 -31.024
v  7.039 29.943 -32.672
v  6.941 29.943 -32.693
v  8.776 29.943 -41.183
v  6.941 2.00187e-15 -32.693
v  7.039 2.00058e-15 -32.672
v  46.751 18.823 -37.63
v  51.91 18.823 -40.34
v  47.553 18.823 -41.278
v  43.892 18.823 -24.631
v  42.372 18.823 -17.721
v  43.185 18.823 -17.543
v  46.723 18.823 -16.755
v  46.723 1.02595e-15 -16.755
v  51.91 2.47011e-15 -40.34
v  43.185 1.0742e-15 -17.543
v  16.465 18.673 3.576
v  12.674 18.673 -24.102
v  7.037 18.673 1.528
v  23.532 18.673 -29.014
v  14.196 18.673 -31.024
v  16.465 -2.18967e-16 3.576
v  23.532 1.7766e-15 -29.014
v  6.941 21.99 -32.693
v  1.835 21.99 -38.137
v  0.976 21.99 -33.953
v  2.728 21.99 -42.485
v  8.776 21.99 -41.183
v  3.637 21.99 -46.912
v  9.731 21.99 -45.6
v  0.976 2.07902e-15 -33.953
v  2.728 2.60146e-15 -42.485
v  1.835 2.33522e-15 -38.137
v  46.751 21.933 -37.63
v  35.169 21.933 -26.509
v  43.892 21.933 -24.631
v  35.193 21.933 -26.618
v  17.055 21.933 -44.023
v  23.556 21.933 -29.124
v  16.085 21.933 -39.61
v  14.196 21.933 -31.024
v  23.532 21.933 -29.014
v  23.556 1.78333e-15 -29.124
v  35.193 1.62988e-15 -26.618

# 0 UV coordinates

# 126 vertex normals
vn 0 1 0
vn -0.21362 0 0.976917
vn 0.97665 -0 0.214834
vn 0.21047 0 -0.9776
vn -0.97652 0 -0.215427
vn -1.34655e-23 -1 -6.12323e-17
vn 0 -1 -6.12323e-17
vn 0.976676 -0 0.214719
vn 0.973975 -0 0.226654
vn 0.210521 0 -0.977589
vn 0.252917 0 -0.967488
vn 0.209724 0 -0.977761
vn -0.973972 0 -0.226666
vn -0.976649 0 -0.214841
vn -0.21046 0 0.977603
vn 1.51945e-23 -1 -6.12323e-17
vn 5.16208e-24 -1 -6.12323e-17
vn -1.00804e-23 -1 -6.12323e-17
vn 5.8503e-23 -1 -6.12325e-17
vn -2.23653e-23 -1 -6.12323e-17
vn 1.81757e-23 -1 -6.12324e-17
vn 0.0236176 0.993684 -0.1097
vn 0.023614 0.993685 -0.109696
vn 0.023448 0.993708 -0.109522
vn 0.977471 -0 0.211072
vn 0.977471 0 0.211072
vn 0.205106 0 -0.97874
vn 0.205106 0 -0.97874
vn -0.971323 0 -0.237764
vn -0.970599 -0.000559518 -0.240702
vn -0.971296 0 -0.237874
vn 1.47269e-19 1 6.12638e-17
vn -0.976689 0 -0.214658
vn -0.210471 0 0.9776
vn 1.52389e-23 -1 -6.12322e-17
vn -2.66293e-23 -1 -6.12324e-17
vn -1.38341e-19 -1 -6.12663e-17
vn -1.29911e-19 -1 -6.12665e-17
vn 0.978067 -0 0.208291
vn 0.97838 -5.23845e-05 0.206817
vn 0.978106 0 0.208108
vn -5.92877e-20 1 6.12201e-17
vn 0.976684 -0 0.214681
vn 0.976649 2.92031e-05 0.214841
vn 0.976668 0 0.214753
vn -3.08342e-19 -1 -6.13118e-17
vn 0.203783 0 -0.979016
vn 0.209683 0 -0.977769
vn 0.283304 0 -0.95903
vn -0.977471 0 -0.211072
vn -0.977415 3.8649e-05 -0.211327
vn -0.97744 -0 -0.211211
vn 4.2921e-19 -1 -6.11386e-17
vn -0.972848 0 -0.231445
vn -0.210397 0 0.977616
vn -1.66766e-23 -1 -6.12323e-17
vn -3.68302e-22 -1 -6.12318e-17
vn 8.12356e-22 -1 -6.12321e-17
vn 7.46921e-22 -1 -6.1232e-17
vn 3.31662e-23 -1 -6.12327e-17
vn 0.976657 -0 0.214804
vn 0.976669 0 0.214749
vn 0.210394 0 -0.977617
vn -0.977564 0 -0.210639
vn -0.97757 -9.06295e-06 -0.210612
vn -0.977569 1.28966e-17 -0.210617
vn 6.45479e-19 1 6.14818e-17
vn -0.212193 -5.98379e-17 0.977228
vn -0.212193 0 0.977228
vn 1.62752e-23 -1 -6.12323e-17
vn -1.63729e-23 -1 -6.12323e-17
vn -6.61999e-24 -1 -6.12323e-17
vn 0 -1 -6.12323e-17
vn -0.209528 0 0.977803
vn -0.210394 0 0.977617
vn -0.977942 0 -0.208878
vn -0.97743 0 -0.211259
vn 0.976643 -0 0.21487
vn 0.210397 0 -0.977616
vn -2.71794e-22 -1 -6.1233e-17
vn -1.21716e-21 -1 -6.12335e-17
vn 0.976659 -0 0.214795
vn 0.210464 0 -0.977602
vn -0.976676 0 -0.214719
vn -0.976657 1.75982e-05 -0.214806
vn -0.976651 4.39398e-05 -0.214834
vn -0.976676 -0.000106889 -0.214719
vn -0.976655 -0 -0.214816
vn -0.217398 0 0.976083
vn -0.213878 0.000694211 0.97686
vn -0.217398 -0.000159396 0.976083
vn -0.213878 0 0.97686
vn -3.14808e-23 -1 -6.12323e-17
vn -1.65214e-23 -1 -6.12323e-17
vn 0.977287 -0 0.21192
vn 0.210473 0 -0.9776
vn -0.976669 0 -0.214749
vn -0.976657 2.133e-05 -0.214804
vn -0.97666 -0 -0.214792
vn -0.212275 0 0.97721
vn -1.31637e-24 -1 -6.12323e-17
vn 0.977415 0 0.211327
vn 0.97743 1.44095e-05 0.211259
vn 0.977415 -2.76964e-05 0.211327
vn 0.97743 0 0.211259
vn 0.210471 0 -0.9776
vn -0.979564 0 -0.201135
vn -0.979554 1.00049e-05 -0.201182
vn -0.979568 -1.96827e-05 -0.201111
vn -0.979562 -0 -0.201143
vn -3.3141e-18 -1 -6.1518e-17
vn -1.53293e-19 1 6.12021e-17
vn -0.206671 0 0.97841
vn 7.82482e-24 -1 -6.12323e-17
vn 0.977016 -0 0.213167
vn 0.976657 -0 0.214806
vn -0.210522 0 0.977589
vn -0.21047 0 0.9776
vn -0.210473 0 0.9776
vn -0.976603 0 -0.215052
vn -0.976684 0 -0.214681
vn -0.976643 4.00273e-05 -0.21487
vn -0.976657 -0 -0.214806
vn 0.21046 0 -0.977603
vn -1.57815e-22 -1 -6.12316e-17
vn -1.07842e-23 -1 -6.12323e-17

# Mesh 'defaultobject' with 235 faces
g defaultobject
usemtl DefaultMaterial
f  1//1 2//1 3//1
f  2//1 1//1 4//1
f  5//2 2//2 4//2
f  2//2 5//2 6//2
f  6//3 3//3 2//3
f  3//3 6//3 7//3
f  7//4 1//4 3//4
f  1//4 7//4 8//4
f  8//5 4//5 1//5
f  4//5 8//5 5//5
f  8//6 6//6 5//6
f  6//6 8//6 7//7
f  9//1 10//1 11//1
f  12//1 13//1 14//1
f  15//1 14//1 13//1
f  16//1 15//1 13//1
f  10//1 15//1 16//1
f  11//1 10//1 16//1
f  17//8 11//8 16//8
f  11//8 17//8 18//8
f  19//9 14//9 15//9
f  14//9 19//9 20//9
f  18//10 9//10 11//10
f  9//10 18//10 21//10
f  22//11 15//11 10//11
f  15//11 22//11 19//11
f  20//12 12//12 14//12
f  12//12 20//12 23//12
f  21//13 10//13 9//13
f  10//13 21//13 22//13
f  23//14 13//14 12//14
f  13//14 23//14 24//14
f  24//15 16//15 13//15
f  16//15 24//15 17//15
f  19//16 23//16 20//16
f  23//16 19//16 24//17
f  17//18 24//17 19//16
f  22//19 17//18 19//16
f  21//20 17//18 22//19
f  18//21 17//18 21//20
f  25//22 26//22 27//22
f  26//22 25//22 28//23
f  28//24 25//24 29//24
f  30//25 29//25 25//25
f  29//25 30//25 31//26
f  29//27 32//27 28//27
f  32//27 29//27 31//28
f  26//29 33//29 34//29
f  33//30 26//30 28//30
f  33//31 28//31 32//31
f  33//32 32//32 35//32
f  34//33 36//33 27//33
f  36//33 34//33 33//33
f  36//34 25//34 27//34
f  25//34 36//34 30//34
f  36//35 31//35 30//35
f  31//35 36//35 32//36
f  32//36 36//35 35//37
f  35//37 36//35 33//38
f  37//1 38//1 39//1
f  38//1 37//1 40//1
f  38//1 40//1 41//1
f  41//1 40//1 42//1
f  42//1 40//1 43//1
f  41//1 44//1 45//1
f  44//1 41//1 42//1
f  45//1 44//1 46//1
f  45//1 46//1 47//1
f  48//39 46//39 44//39
f  46//40 48//40 47//40
f  47//41 48//41 49//41
f  49//42 48//42 50//42
f  51//43 37//43 39//43
f  37//44 51//44 40//44
f  40//45 51//45 23//45
f  23//16 51//46 24//17
f  49//47 45//47 47//47
f  45//47 49//47 31//47
f  23//48 43//48 40//48
f  43//48 23//48 52//48
f  53//49 44//49 42//49
f  44//49 53//49 48//49
f  31//50 41//50 45//50
f  41//51 31//51 38//51
f  38//52 31//52 54//52
f  54//53 31//35 30//35
f  52//54 42//54 43//54
f  42//54 52//54 53//54
f  54//55 39//55 38//55
f  39//55 54//55 51//55
f  30//35 51//46 54//53
f  51//46 30//35 24//17
f  24//17 30//35 48//56
f  48//56 30//35 31//35
f  24//17 48//56 53//57
f  48//56 31//35 50//58
f  50//58 31//35 49//59
f  53//57 23//16 24//17
f  23//16 53//57 52//60
f  55//1 56//1 57//1
f  56//1 55//1 58//1
f  56//1 58//1 59//1
f  59//1 58//1 60//1
f  61//61 58//61 55//61
f  58//61 61//61 62//61
f  58//62 62//62 60//62
f  60//62 62//62 63//62
f  63//63 59//63 60//63
f  59//63 63//63 64//63
f  64//64 56//64 59//64
f  56//65 64//65 57//65
f  57//66 64//66 65//66
f  65//67 64//67 66//67
f  65//68 55//68 57//68
f  55//68 65//68 61//69
f  62//70 64//70 63//70
f  64//70 62//70 66//71
f  66//71 62//70 61//72
f  66//71 61//72 65//73
f  67//1 68//1 69//1
f  68//1 67//1 70//1
f  70//1 67//1 71//1
f  71//1 67//1 72//1
f  73//74 70//74 71//74
f  70//74 73//74 74//74
f  64//75 69//75 68//75
f  69//75 64//75 63//75
f  74//76 68//76 70//76
f  68//76 74//76 64//76
f  54//77 71//77 72//77
f  71//77 54//77 73//77
f  63//78 67//78 69//78
f  67//78 63//78 51//78
f  51//79 72//79 67//79
f  72//79 51//79 54//79
f  64//70 51//46 63//70
f  51//46 64//70 74//80
f  51//46 74//80 73//81
f  51//46 73//81 54//53
f  75//1 76//1 77//1
f  76//1 75//1 78//1
f  76//1 78//1 79//1
f  76//1 79//1 80//1
f  76//1 80//1 81//1
f  82//82 76//82 81//82
f  76//82 82//82 83//82
f  83//83 77//83 76//83
f  77//83 83//83 18//83
f  18//84 75//84 77//84
f  75//85 18//85 78//85
f  78//86 18//86 79//86
f  79//87 18//87 17//87
f  79//88 17//88 6//88
f  6//6 17//18 7//7
f  80//89 82//89 81//89
f  82//90 80//90 79//90
f  82//91 79//91 84//91
f  84//92 79//92 6//92
f  82//93 18//21 83//93
f  18//21 82//93 17//18
f  17//18 82//93 7//7
f  7//7 82//93 84//94
f  7//7 84//94 6//6
f  85//1 86//1 87//1
f  86//1 85//1 88//1
f  86//1 88//1 89//1
f  90//95 88//95 85//95
f  88//95 90//95 91//95
f  91//96 89//96 88//96
f  89//96 91//96 63//96
f  63//97 86//97 89//97
f  86//98 63//98 87//98
f  87//99 63//99 61//99
f  61//72 63//70 62//70
f  61//100 85//100 87//100
f  85//100 61//100 90//100
f  61//72 91//101 90//101
f  91//101 61//72 62//70
f  91//101 62//70 63//70
f  92//1 93//1 94//1
f  93//1 92//1 95//1
f  95//1 92//1 96//1
f  95//1 96//1 97//1
f  97//1 96//1 98//1
f  96//102 30//102 98//102
f  30//103 96//103 92//103
f  30//104 92//104 54//104
f  54//105 92//105 73//105
f  30//106 97//106 98//106
f  97//106 30//106 36//106
f  36//107 95//107 97//107
f  95//108 36//108 93//108
f  93//109 36//109 94//109
f  94//110 36//107 99//110
f  99//111 36//35 100//111
f  99//112 100//112 101//112
f  99//113 92//113 94//113
f  92//113 99//113 73//113
f  54//53 36//35 30//35
f  36//35 54//53 100//111
f  100//111 54//53 73//81
f  100//111 73//81 101//114
f  101//114 73//81 99//111
f  102//1 103//1 104//1
f  103//1 102//1 105//1
f  105//1 102//1 106//1
f  105//1 106//1 107//1
f  107//1 106//1 108//1
f  107//1 108//1 109//1
f  109//1 110//1 107//1
f  91//115 107//115 110//115
f  107//115 91//115 111//115
f  7//116 102//116 104//116
f  102//116 7//116 17//116
f  111//117 105//117 107//117
f  105//117 111//117 112//117
f  8//118 104//118 103//118
f  104//118 8//118 7//118
f  63//119 110//119 109//119
f  110//119 63//119 91//119
f  112//120 103//120 105//120
f  103//120 112//120 8//120
f  24//121 108//121 106//121
f  108//122 24//122 109//122
f  109//123 24//123 63//123
f  63//70 24//17 51//46
f  17//124 106//124 102//124
f  106//124 17//124 24//124
f  8//6 112//125 7//7
f  7//7 24//17 17//18
f  24//17 7//7 112//125
f  24//17 112//125 111//126
f  24//17 111//126 91//101
f  24//17 91//101 51//46
f  51//46 91//101 63//70

