# {"id":"ID_8912","idOriginal":"ID_8912","origin":[14.281948373817922,48.321871365367684],"elevation":266.022,"wof":[{"Id":102049853,"Name":"Linz","Placetype":"county","Offset":-1},{"Id":85632785,"Name":"Austria","Placetype":"country","Offset":-1},{"Id":101748071,"Name":"Linz","Placetype":"locality","Offset":-1},{"Id":85681677,"Name":"Oberösterreich","Placetype":"region","Offset":-1},{"Id":85898453,"Name":"Urfahr","Placetype":"neighbourhood","Offset":-1}]}

# Attribution: City of Linz <http://geo.data.linz.gv.at/katalog/geodata/3d_geo_daten_lod2/>
# Longitude: 14.281948373817922
# Latitude: 48.321871365367684
# Elevation: 266.022

# File produced by Open Asset Import Library (http://www.assimp.sf.net)
# (assimp v3.1.0)


# 19 vertex positions
v  5.991 17.394 -0.167
v  12.532 11.934 20.861
v  12.01 11.934 -0.334
v  6.363 17.394 14.959
v  0.491 11.934 21.097
v  0.655 12.554 -0.018
v  0 11.96 7.32339e-16
v  0.198 11.937 9.075
v  0.236 11.932 10.828
v  0.461 11.907 21.098
v  0 0 0
v  0.198 -5.55683e-16 9.075
v  0.236 -6.63024e-16 10.828
v  0.461 -1.29188e-15 21.098
v  12.532 -1.27737e-15 20.861
v  0.491 -1.29182e-15 21.097
v  12.01 2.04516e-17 -0.334
v  5.991 1.02258e-17 -0.167
v  0.655 1.10218e-18 -0.018

# 0 UV coordinates

# 29 vertex normals
vn 0.671532 0.740791 -0.0165388
vn 0.671488 0.740832 -0.0165142
vn 0.0131627 0.740817 0.671579
vn -0.671499 0.740822 0.0165144
vn -0.671432 0.740883 0.0164693
vn -0.67151 0.740811 0.0165286
vn -0.671584 0.740741 0.0166707
vn -0.671528 0.740795 0.0165155
vn -0.668411 0.743469 0.0219224
vn -0.999762 -1.33566e-18 0.021813
vn -0.999765 0.000106983 0.0216723
vn -0.99976 -0.000102409 0.021903
vn -0.999762 5.70978e-05 0.021813
vn -0.999765 0.00019949 0.021672
vn -0.99976 0 0.0219032
vn 0.0195937 0.0152343 0.999692
vn 0.01963 0 0.999807
vn 0.01963 0 0.999807
vn -5.05057e-21 -1 -6.14897e-17
vn 0.999697 0 -0.024621
vn -0.0277348 0 -0.999615
vn -0.0278702 -4.68785e-05 -0.999612
vn -0.0276273 0.000172971 -0.999618
vn -0.0277994 6.12087e-17 -0.999613
vn 0 1 6.12312e-17
vn 1.67094e-23 -1 -6.12319e-17
vn 4.12081e-21 -1 -6.12324e-17
vn 3.3168e-24 -1 -6.12323e-17
vn 0 -1 -6.12323e-17

# Mesh 'defaultobject' with 34 faces
g defaultobject
usemtl DefaultMaterial
f  1//1 2//1 3//1
f  2//2 1//2 4//2
f  4//3 5//3 2//3
f  6//4 4//4 1//4
f  4//5 6//5 7//5
f  4//6 7//6 8//6
f  4//7 8//7 9//7
f  4//8 9//8 10//8
f  4//9 10//9 5//9
f  11//10 8//10 7//10
f  8//11 11//11 9//11
f  9//12 11//12 10//12
f  10//13 11//13 12//13
f  10//14 12//14 13//14
f  10//15 13//15 14//15
f  10//16 2//16 5//16
f  2//17 10//17 14//17
f  2//17 14//17 15//18
f  15//19 14//19 16//19
f  15//20 3//20 2//20
f  3//20 15//20 17//20
f  17//21 1//21 3//21
f  1//22 17//22 6//22
f  6//23 17//23 7//23
f  7//24 17//24 11//24
f  11//25 17//25 18//25
f  11//26 18//26 19//26
f  13//27 16//19 14//19
f  16//19 13//27 15//19
f  15//19 13//27 17//28
f  17//28 13//27 12//29
f  17//28 12//29 19//26
f  19//26 12//29 11//26
f  17//28 19//26 18//26

