# {"id":"ID_3701","idOriginal":"ID_3701","origin":[14.35729483431224,48.233969758934094],"elevation":278.667,"wof":[{"Id":102049853,"Name":"Linz","Placetype":"county","Offset":-1},{"Id":85681677,"Name":"Oberösterreich","Placetype":"region","Offset":-1},{"Id":85898451,"Name":"Ufer","Placetype":"neighbourhood","Offset":-1},{"Id":85632785,"Name":"Austria","Placetype":"country","Offset":-1}]}

# Attribution: City of Linz <http://geo.data.linz.gv.at/katalog/geodata/3d_geo_daten_lod2/>
# Longitude: 14.35729483431224
# Latitude: 48.233969758934094
# Elevation: 278.667

# File produced by Open Asset Import Library (http://www.assimp.sf.net)
# (assimp v3.1.0)


# 89 vertex positions
v  16.638 8.953 8.066
v  12.58 5.685 11.642
v  17.155 8.953 10.855
v  12.055 5.755 8.262
v  19.01 9.893 7.964
v  19.188 9.778 10.506
v  19.471 9.893 10.457
v  18.628 9.551 10.602
v  18.674 9.76 7.979
v  18.147 9.551 8.001
v  24.328 5.702 7.737
v  21.885 7.946 10.042
v  24.666 5.702 9.564
v  23.069 6.694 7.791
v  12.055 -5.05902e-16 8.262
v  12.58 -7.12867e-16 11.642
v  17.155 -6.64677e-16 10.855
v  18.628 -6.49185e-16 10.602
v  19.188 -6.43307e-16 10.506
v  19.471 -6.40307e-16 10.457
v  21.885 -6.14895e-16 10.042
v  24.666 -5.85626e-16 9.564
v  24.328 -4.73755e-16 7.737
v  23.069 -4.77061e-16 7.791
v  19.01 -4.87654e-16 7.964
v  18.674 -4.88573e-16 7.979
v  18.147 -4.8992e-16 8.001
v  16.638 -4.939e-16 8.066
v  5.216 10.158 18.335
v  12.324 6.46 12.297
v  4.374 6.395 13.579
v  12.594 6.062 11.733
v  19.602 10.158 15.861
v  12.591 6.048 11.715
v  12.531 6.155 11.864
v  13.466 10.158 16.916
v  6.131 6.068 23.503
v  14.421 6.068 22.078
v  26.578 6.068 19.988
v  24.666 6.057 9.564
v  26.594 6.057 19.985
v  18.628 10.158 10.602
v  19.471 9.585 10.457
v  17.155 9.157 10.855
v  12.58 6.049 11.642
v  12.594 -7.18439e-16 11.733
v  12.591 -7.17337e-16 11.715
v  4.374 -8.31474e-16 13.579
v  5.216 -1.12269e-15 18.335
v  6.131 -1.43914e-15 23.503
v  12.324 -7.52974e-16 12.297
v  12.531 -7.2646e-16 11.864
v  14.421 -1.35189e-15 22.078
v  26.578 -1.22391e-15 19.988
v  26.594 -1.22373e-15 19.985
v  17.332 10.127 3.597
v  16.638 9.074 8.066
v  18.147 10.127 8.001
v  12.022 5.872 8.136
v  22.675 5.845 -0.97
v  22.764 5.817 -0.714
v  22.716 5.817 -0.972
v  24.328 5.817 7.737
v  19.01 9.525 7.964
v  10.254 5.845 -0.439
v  11.051 10.127 3.866
v  1.854 5.845 -0.079
v  2.617 10.127 4.227
v  0 5.845 3.57903e-16
v  0.242 10.127 4.328
v  11.795 6.13 7.885
v  11.613 6.335 7.684
v  3.282 6.392 7.983
v  0.451 6.411 8.085
v  12.038 5.88 8.154
v  12.055 5.878 8.262
v  0.451 -4.95063e-16 8.085
v  11.613 -4.70509e-16 7.684
v  3.282 -4.88818e-16 7.983
v  22.764 4.37199e-17 -0.714
v  22.716 5.95178e-17 -0.972
v  22.675 5.93954e-17 -0.97
v  10.254 2.6881e-17 -0.439
v  1.854 4.83735e-18 -0.079
v  0 0 0
v  0.242 -2.65014e-16 4.328
v  12.038 -4.99288e-16 8.154
v  11.795 -4.82817e-16 7.885
v  12.022 -4.98186e-16 8.136

# 0 UV coordinates

# 173 vertex normals
vn -0.566032 0.817679 0.104926
vn -0.566074 0.817658 0.104859
vn -0.365535 0.92834 0.067594
vn -0.36484 0.928616 0.0675578
vn -0.365331 0.92843 0.0674627
vn -0.364566 0.928689 0.0680376
vn -0.36513 0.928493 0.0676847
vn -0.368309 0.907395 -0.202443
vn 0.612067 0.782657 -0.113234
vn 0.611886 0.782757 -0.113522
vn 0.611833 0.782792 -0.11357
vn 0.612034 0.782691 -0.113176
vn -0.988151 0 0.153485
vn -0.988151 0 0.153485
vn 0.169532 -0 0.985525
vn 0.169213 0.000167806 0.98558
vn 0.168791 0.000443127 0.985652
vn 0.171051 -0.00112961 0.985262
vn 0.169445 2.18097e-05 0.985539
vn 0.169532 -8.23709e-05 0.985525
vn 0.169397 4.16619e-07 0.985548
vn 0.169279 0.000160083 0.985568
vn 0.168965 0.000502345 0.985622
vn 0.170605 -0.00111982 0.985339
vn 0.169428 -1.60294e-05 0.985542
vn 0.169396 0 0.985548
vn 0.983314 0 -0.181916
vn -0.0428517 0 -0.999081
vn -0.0425358 5.95303e-05 -0.999095
vn -0.0442568 -0.000867294 -0.99902
vn -0.0419066 0.000496685 -0.999121
vn -0.0429608 -0.000186814 -0.999077
vn -0.0427337 8.62433e-06 -0.999086
vn -0.0428517 -0.00024354 -0.999081
vn -0.0425826 0.000272419 -0.999093
vn -0.0445993 -0.00216942 -0.999003
vn -0.04171 0.00115992 -0.999129
vn -0.0430347 -0.000244951 -0.999073
vn -0.0427277 -0 -0.999087
vn -1.51474e-23 -1 -6.12324e-17
vn 5.31532e-23 -1 -6.12323e-17
vn -7.77915e-24 -1 -6.12323e-17
vn -4.26284e-24 -1 -6.12323e-17
vn 7.27082e-23 -1 -6.12324e-17
vn -1.47231e-23 -1 -6.12324e-17
vn -9.03737e-23 -1 -6.12323e-17
vn -5.80873e-23 -1 -6.12323e-17
vn 0 -1 -6.12323e-17
vn 1.6574e-23 -1 -6.12323e-17
vn -4.02076e-24 -1 -6.12323e-17
vn 2.97062e-24 -1 -6.12323e-17
vn -0.104125 0.788844 -0.605708
vn -0.111131 0.79335 -0.598536
vn -0.102031 0.787339 -0.608019
vn -0.10431 0.788923 -0.605574
vn -0.104153 0.788797 -0.605765
vn -0.10419 0.788798 -0.605757
vn 0.104196 0.788771 0.605792
vn 0.104123 0.788819 0.605741
vn 0.104148 0.78882 0.605736
vn 0.104135 0.788826 0.60573
vn 0.550516 0.828588 -0.101852
vn 0.547064 0.830948 -0.101221
vn 0.547031 0.830965 -0.101258
vn 0.546674 0.831202 -0.101247
vn 0.545871 0.830881 -0.107987
vn 0.0963939 0.375381 -0.921844
vn -0.547204 0.830841 0.101346
vn -0.547 0.830992 0.101215
vn -0.548335 0.830958 0.0940057
vn -0.988837 0 0.148999
vn -0.986391 0 0.164416
vn -0.988372 -3.77638e-05 0.152057
vn 1.47511e-19 1 6.121e-17
vn -0.984687 -7.14577e-06 0.174334
vn -0.984687 0 0.174334
vn -0.984688 9.59916e-06 0.174329
vn -0.984686 0 0.17434
vn -0.902205 0 -0.431308
vn -0.90125 -0.00017223 -0.4333
vn -0.901972 0 -0.431794
vn 2.04517e-19 1 6.13297e-17
vn -0.159201 0 -0.987246
vn -0.169396 0 -0.985548
vn -0.169438 -1.50878e-05 -0.985541
vn -0.171305 -0.00105678 -0.985217
vn -0.168654 0.000472633 -0.985675
vn -0.169321 6.3988e-05 -0.985561
vn -0.169484 -7.3094e-05 -0.985533
vn -0.169396 0.000106268 -0.985548
vn -0.169428 5.56764e-05 -0.985542
vn -0.170605 -0.00132456 -0.985339
vn -0.168965 0.000520145 -0.985622
vn -0.169279 0.000196839 -0.985568
vn -0.169532 -0 -0.985525
vn 0.169409 -0 0.985546
vn 0.169432 0 0.985542
vn 0.184296 0 0.982871
vn 0.184296 0 0.982871
vn 0.983313 0 -0.181924
vn -7.6232e-22 -1 -6.12322e-17
vn 6.47972e-24 -1 -6.12323e-17
vn 0 -1 -6.12323e-17
vn -4.68431e-24 -1 -6.12323e-17
vn -8.48095e-24 -1 -6.12323e-17
vn 3.75075e-18 -1 -6.15124e-17
vn -6.96832e-23 -1 -6.12327e-17
vn -2.07079e-19 -1 -6.13311e-17
vn -0.566071 0.817673 0.104756
vn -0.565753 0.817881 0.104855
vn 0.557467 0.823695 -0.103715
vn 0.564622 0.818413 -0.106781
vn 0.565818 0.817854 -0.104714
vn 0.565491 0.818196 -0.103804
vn 0.565913 0.817788 -0.104716
vn 0.565951 0.817759 -0.104734
vn 0.4124 0.631552 -0.656558
vn -0.0300163 0.711412 -0.702134
vn -0.0300687 0.711455 -0.702088
vn -0.0300894 0.711457 -0.702085
vn -0.0300531 0.711417 -0.702127
vn -0.0299186 0.711408 -0.702142
vn -0.0298603 0.711392 -0.702161
vn 0.0310019 0.71086 0.70265
vn 0.0284691 0.712595 0.700997
vn 0.0300708 0.711407 0.702136
vn 0.0300699 0.71149 0.702053
vn 0.0300647 0.711488 0.702055
vn 0.0298693 0.711183 0.702372
vn 0.0300536 0.711406 0.702138
vn -0.563069 0.814744 0.138366
vn -0.56589 0.817867 0.104222
vn 0.0427277 -0 0.999087
vn 0.0432018 -0.000239902 0.999066
vn 0.0420329 0.000464556 0.999116
vn 0.0439937 -0.000867677 0.999031
vn 0.0426586 0.000109055 0.99909
vn 0.0427277 -4.92263e-06 0.999087
vn 0.0430347 -0.000300422 0.999074
vn 0.0427756 -0.00010953 0.999085
vn 0.0417099 0.00102482 0.999129
vn 0.0445994 -0.00178887 0.999003
vn 0.0425826 5.83508e-05 0.999093
vn 0.0428517 0 0.999081
vn 0.0360064 -0 0.999352
vn 0.0358674 6.16583e-05 0.999357
vn 0.0359023 0 0.999355
vn 7.53027e-21 -1 -6.10253e-17
vn 0.983303 0 -0.181977
vn 0.98313 0 -0.182909
vn -0.0487215 0 -0.998812
vn -0.0427112 4.22542e-05 -0.999088
vn -0.0487178 -0.0127977 -0.998731
vn -0.0427112 -0 -0.999088
vn -0.0428178 -0 -0.999083
vn -0.0425719 -0 -0.999093
vn -0.0425719 6.11768e-17 -0.999093
vn -0.998448 0.000144071 0.0556857
vn -0.998448 0 0.0556957
vn -0.998448 0 0.0556957
vn -4.5619e-20 -1 -6.12306e-17
vn -0.987837 0 0.155495
vn -0.987837 0 0.155495
vn -0.741274 0 0.671203
vn -0.741662 2.55743e-05 0.670774
vn -0.747425 0 0.664347
vn -0.741723 3.50329e-05 0.670707
vn 2.15787e-20 -1 -6.12475e-17
vn -6.812e-20 -1 -6.11706e-17
vn -2.05684e-25 -1 -6.12323e-17
vn 0 -1 -6.12323e-17
vn 0 -1 -6.12323e-17
vn 0 -1 -6.12324e-17

# Mesh 'defaultobject' with 200 faces
g defaultobject
usemtl DefaultMaterial
f  1//1 2//1 3//1
f  2//2 1//2 4//2
f  5//3 6//3 7//3
f  6//4 5//4 8//4
f  8//5 5//5 3//5
f  3//6 5//6 9//6
f  3//7 9//7 1//7
f  1//8 9//8 10//8
f  11//9 12//9 13//9
f  12//10 11//10 14//10
f  12//11 14//11 7//11
f  7//12 14//12 5//12
f  15//13 2//13 4//13
f  2//13 15//13 16//14
f  16//15 3//15 2//15
f  3//16 16//16 8//16
f  8//17 16//17 6//17
f  6//18 16//18 7//18
f  7//19 16//19 12//19
f  12//20 16//20 17//20
f  12//21 17//21 13//21
f  13//22 17//22 18//22
f  13//23 18//23 19//23
f  13//24 19//24 20//24
f  13//25 20//25 21//25
f  13//21 21//26 22//26
f  22//27 11//27 13//27
f  11//27 22//27 23//27
f  23//28 14//28 11//28
f  14//29 23//29 5//29
f  5//30 23//30 9//30
f  9//31 23//31 10//31
f  10//32 23//32 1//32
f  1//33 23//33 4//33
f  4//34 23//34 24//34
f  4//35 24//35 25//35
f  4//36 25//36 26//36
f  4//37 26//37 27//37
f  4//38 27//38 28//38
f  4//39 28//39 15//39
f  21//40 23//40 22//40
f  23//40 21//40 24//41
f  24//41 21//40 25//42
f  25//42 21//40 20//43
f  25//42 20//43 19//44
f  25//42 19//44 26//45
f  26//45 19//44 18//46
f  26//45 18//46 27//47
f  27//47 18//46 17//48
f  27//47 17//48 28//49
f  28//49 17//48 16//50
f  28//49 16//50 15//51
f  29//52 30//52 31//52
f  32//53 33//53 34//53
f  33//54 32//54 35//54
f  33//55 35//55 30//55
f  33//56 30//56 36//56
f  36//57 30//57 29//57
f  37//58 36//58 29//58
f  36//59 37//59 38//59
f  36//60 38//60 33//60
f  33//61 38//61 39//61
f  40//62 39//62 41//62
f  39//63 40//63 33//63
f  33//64 40//64 6//64
f  33//65 6//65 42//65
f  6//66 40//66 12//66
f  6//67 12//67 43//67
f  44//68 33//68 42//68
f  33//69 44//69 34//69
f  34//70 44//70 45//70
f  16//71 34//71 45//71
f  34//72 46//72 32//72
f  46//73 34//73 16//73
f  46//74 16//74 47//74
f  31//75 37//75 29//75
f  37//75 31//75 48//76
f  37//77 48//77 49//77
f  37//75 49//78 50//78
f  35//79 51//79 30//79
f  51//80 35//80 32//80
f  51//81 32//81 46//81
f  51//82 46//74 52//82
f  51//83 31//83 30//83
f  31//83 51//83 48//83
f  22//84 12//84 40//84
f  12//85 22//85 43//85
f  43//86 22//86 6//86
f  6//87 22//87 42//87
f  42//88 22//88 44//88
f  44//89 22//89 45//89
f  45//90 22//90 21//90
f  45//91 21//91 20//91
f  45//92 20//92 19//92
f  45//93 19//93 18//93
f  45//94 18//94 17//94
f  45//95 17//95 16//95
f  50//96 38//96 37//96
f  38//96 50//96 53//96
f  38//97 53//97 39//97
f  39//97 53//97 54//97
f  39//98 54//98 41//98
f  41//98 54//98 55//99
f  55//100 40//100 41//100
f  40//100 55//100 22//27
f  54//101 22//40 55//101
f  22//40 54//101 53//102
f  22//40 53//102 21//40
f  21//40 53//102 19//44
f  19//44 53//102 50//103
f  19//44 50//103 18//46
f  18//46 50//103 17//48
f  17//48 50//103 51//104
f  51//104 50//103 48//105
f  48//105 50//103 49//106
f  17//48 46//107 16//50
f  46//107 17//48 51//104
f  46//107 51//104 52//108
f  56//109 57//109 58//109
f  57//110 56//110 59//110
f  60//111 61//111 62//111
f  61//112 60//112 56//112
f  61//113 56//113 63//113
f  63//114 56//114 14//114
f  14//115 56//115 64//115
f  64//116 56//116 58//116
f  64//117 58//117 9//117
f  65//118 56//118 60//118
f  56//119 65//119 66//119
f  66//120 65//120 67//120
f  66//121 67//121 68//121
f  68//122 67//122 69//122
f  68//123 69//123 70//123
f  56//124 71//124 59//124
f  71//125 56//125 72//125
f  72//126 56//126 66//126
f  73//127 70//127 74//127
f  70//127 73//127 72//128
f  70//129 72//129 68//129
f  68//130 72//130 66//130
f  57//131 59//131 75//131
f  57//132 75//132 76//132
f  15//133 57//133 76//133
f  57//134 15//134 58//134
f  58//135 15//135 9//135
f  9//136 15//136 64//136
f  64//137 15//137 14//137
f  14//138 15//133 28//138
f  14//139 28//139 27//139
f  14//140 27//140 63//140
f  63//141 27//141 26//141
f  63//142 26//142 25//142
f  63//143 25//143 24//143
f  63//144 24//144 23//144
f  77//145 73//145 74//145
f  73//146 77//146 72//146
f  72//147 77//147 78//147
f  78//148 77//148 79//148
f  23//149 61//149 63//149
f  61//149 23//149 80//149
f  61//150 80//150 62//150
f  62//150 80//150 81//150
f  81//151 60//151 62//151
f  60//152 81//152 65//152
f  65//153 81//153 82//153
f  65//154 82//154 83//154
f  65//155 83//155 67//155
f  67//155 83//155 84//155
f  67//156 84//156 69//156
f  69//156 84//156 85//157
f  69//158 74//158 70//158
f  74//159 69//159 85//159
f  74//159 85//159 77//160
f  77//148 85//161 86//161
f  87//162 76//162 75//162
f  76//162 87//162 15//163
f  78//164 71//164 72//164
f  71//165 78//165 59//165
f  59//166 87//166 75//166
f  87//167 59//167 78//167
f  87//168 78//148 88//168
f  87//168 88//168 89//169
f  84//170 86//161 85//161
f  86//161 84//170 83//171
f  86//161 83//171 77//148
f  77//148 83//171 79//148
f  79//148 83//171 78//148
f  78//148 83//171 82//172
f  78//148 82//172 88//168
f  88//168 82//172 89//169
f  89//169 82//172 87//168
f  87//168 82//172 15//51
f  15//51 82//172 28//49
f  28//49 82//172 27//47
f  27//47 82//172 26//45
f  26//45 82//172 81//173
f  26//45 81//173 80//171
f  26//45 80//171 25//42
f  25//42 80//171 23//40
f  25//42 23//40 24//41

