# {"id":"ID_47914","idOriginal":"ID_47914","origin":[14.306365830835695,48.3270530776583],"elevation":254.606}
# Longitude: 14.306365830835695
# Latitude: 48.3270530776583
# Elevation: 254.606

# File produced by Open Asset Import Library (http://www.assimp.sf.net)
# (assimp v3.1.0)

mtllib ID_47914.obj.mtl

# 8 vertex positions
v  0 3.109 1.90371e-16
v  5.506 3.109 4.98
v  1.818 3.109 -1.069
v  3.426 3.109 6.32
v  5.506 -3.04937e-16 4.98
v  1.818 6.54574e-17 -1.069
v  0 0 0
v  3.426 -3.86988e-16 6.32

# 0 UV coordinates

# 9 vertex normals
vn -0 1 0
vn 0.853822 0 -0.520565
vn -0.506875 0 -0.862019
vn -0.506875 5.27835e-17 -0.862019
vn -0.879137 -2.91815e-17 0.47657
vn -0.879137 0 0.47657
vn 0.541574 -0 0.840653
vn 1.41743e-23 -1 -6.12323e-17
vn 0 -1 -6.12323e-17

# Mesh 'defaultobject' with 12 faces
g defaultobject
usemtl DefaultMaterial
f  1//1 2//1 3//1
f  2//1 1//1 4//1
f  5//2 3//2 2//2
f  3//2 5//2 6//2
f  6//3 1//3 3//3
f  1//3 6//3 7//4
f  7//5 4//5 1//5
f  4//5 7//5 8//6
f  8//7 2//7 4//7
f  2//7 8//7 5//7
f  5//8 7//8 6//8
f  7//8 5//8 8//9

