# {"id":"_35830","idOriginal":"_35830","origin":[14.328417200661042,48.302398481054006],"elevation":256.158,"wof":[{"Id":102049853,"Name":"Linz","Placetype":"county","Offset":-1},{"Id":85681677,"Name":"Oberösterreich","Placetype":"region","Offset":-1},{"Id":85898449,"Name":"Steeg","Placetype":"neighbourhood","Offset":-1},{"Id":101748071,"Name":"Linz","Placetype":"locality","Offset":-1},{"Id":85632785,"Name":"Austria","Placetype":"country","Offset":-1}]}

# Attribution: City of Linz <http://geo.data.linz.gv.at/katalog/geodata/3d_geo_daten_lod2/>
# Longitude: 14.328417200661042
# Latitude: 48.302398481054006
# Elevation: 256.158

# File produced by Open Asset Import Library (http://www.assimp.sf.net)
# (assimp v3.1.0)


# 13 vertex positions
v  8.733 1.825 2.492
v  3.76 1.835 5.734
v  3.768 1.826 5.747
v  8.724 1.834 2.479
v  4.366 3.769 1.246
v  0 1.826 1.1181e-16
v  4.965 1.826 -3.256
v  4.965 1.99373e-16 -3.256
v  0 0 0
v  3.76 -3.51106e-16 5.734
v  3.768 -3.51902e-16 5.747
v  8.733 -1.52591e-16 2.492
v  8.724 -1.51795e-16 2.479

# 0 UV coordinates

# 15 vertex normals
vn 0.278682 0.861314 0.424822
vn 0.271445 0.869007 0.413697
vn 0.270047 0.870453 0.411565
vn -0.457908 0.837226 0.298953
vn 0.456791 0.837257 -0.300571
vn -0.269923 0.870476 -0.411599
vn -0.548388 0 -0.836224
vn -0.548388 5.1204e-17 -0.836224
vn -0.836244 0 0.548357
vn 0.54827 -0 0.836301
vn 0.836355 0 -0.548188
vn -2.60254e-22 -1 -6.12327e-17
vn 1.30056e-24 -1 -6.12323e-17
vn -2.36074e-22 -1 -6.12315e-17
vn 0 -1 -6.12323e-17

# Mesh 'defaultobject' with 18 faces
g defaultobject
usemtl DefaultMaterial
f  1//1 2//1 3//1
f  2//2 1//2 4//2
f  5//3 2//3 4//3
f  5//4 6//4 2//4
f  5//5 4//5 7//5
f  5//6 7//6 6//6
f  8//7 6//7 7//7
f  6//7 8//7 9//8
f  6//9 10//9 2//9
f  10//9 6//9 9//9
f  11//10 1//10 3//10
f  1//10 11//10 12//10
f  13//11 7//11 4//11
f  7//11 13//11 8//11
f  10//12 12//12 11//12
f  12//12 10//12 9//13
f  12//12 9//13 13//14
f  13//14 9//13 8//15

