# File produced by Open Asset Import Library (http://www.assimp.sf.net)
# (assimp v3.1.0)

mtllib ID_15580.obj.mtl

# 22 vertex positions
v  4.19 10.516 7.122
v  14.495 10.861 -0.08
v  3.691 10.861 6.274
v  6.453 8.953 10.969
v  7.382 8.311 12.549
v  17.654 8.666 5.33
v  18.168 8.311 6.205
v  12.962 9.796 -2.705
v  0 8.311 5.08902e-16
v  10.812 8.311 -6.36
v  10.031 8.311 -5.901
v  18.168 -3.79947e-16 6.205
v  17.654 -3.26368e-16 5.33
v  14.495 4.89859e-18 -0.08
v  10.812 3.89438e-16 -6.36
v  12.962 1.65633e-16 -2.705
v  0 0 0
v  10.031 3.61332e-16 -5.901
v  3.691 -3.84172e-16 6.274
v  7.382 -7.68405e-16 12.549
v  4.19 -4.36097e-16 7.122
v  6.453 -6.71658e-16 10.969

# 0 UV coordinates

# 36 vertex normals
vn 0.167741 0.943671 0.285217
vn 0.167523 0.943801 0.284912
vn 0.167582 0.943779 0.284951
vn 0.167676 0.943748 0.284998
vn 0.167405 0.94391 0.28462
vn -0.167617 0.943756 -0.285007
vn -0.167596 0.943766 -0.284987
vn -0.167579 0.9438 -0.284883
vn 0 1 0
vn 0.862238 0 -0.506503
vn 0.863615 0.000319135 -0.504151
vn 0.863499 0.000164799 -0.50435
vn 0.862333 -0.00226095 -0.506336
vn 0.862235 -0.002598 -0.506502
vn 0.863558 0.00166159 -0.504247
vn 0.862601 0 -0.505885
vn -2.60573e-21 1 6.12346e-17
vn -0.506682 0 -0.862133
vn -0.507046 -4.60207e-05 -0.861919
vn -0.50702 5.27782e-17 -0.861934
vn 0 1 6.11717e-17
vn -0.86191 -3.10486e-17 0.507062
vn -0.861866 -5.74652e-05 0.507136
vn -0.861923 3.07849e-05 0.507039
vn -0.86191 -6.96555e-06 0.507062
vn -0.862012 0.000115815 0.506888
vn -0.861945 0 0.507002
vn 0 -1 -6.12392e-17
vn -1.8935e-19 -1 -6.11285e-17
vn 0.506978 -0 0.861959
vn 1.38492e-23 -1 -6.12323e-17
vn -1.32591e-24 -1 -6.12323e-17
vn 0 -1 -6.12323e-17
vn -2.35971e-22 -1 -6.12322e-17
vn 0 -1 -6.12323e-17
vn -1.37813e-23 -1 -6.12323e-17

# Mesh 'defaultobject' with 40 faces
g defaultobject
usemtl DefaultMaterial
f  1//1 2//1 3//1
f  2//2 1//2 4//2
f  2//3 4//3 5//3
f  2//4 5//4 6//4
f  6//5 5//5 7//5
f  8//6 3//6 2//6
f  3//7 8//7 9//7
f  9//8 8//8 10//8
f  9//9 10//9 11//9
f  12//10 6//10 7//10
f  6//11 12//11 2//11
f  2//12 12//12 8//12
f  8//13 12//13 10//13
f  10//14 12//14 13//14
f  10//15 13//15 14//15
f  10//16 14//16 15//16
f  15//17 14//17 16//17
f  15//18 11//18 10//18
f  11//19 15//19 9//19
f  9//20 15//20 17//20
f  17//21 15//17 18//21
f  17//22 3//22 9//22
f  3//23 17//23 1//23
f  1//24 17//24 4//24
f  4//25 17//22 19//25
f  4//26 19//26 5//26
f  5//27 19//27 20//27
f  20//28 19//28 21//28
f  20//28 21//28 22//29
f  20//30 7//30 5//30
f  7//30 20//30 12//30
f  22//29 12//31 20//28
f  12//31 22//29 21//28
f  12//31 21//28 19//28
f  12//31 19//28 17//32
f  12//31 17//32 18//33
f  12//31 18//33 13//34
f  13//34 18//33 14//33
f  14//33 18//33 16//35
f  16//35 18//33 15//36

