# {"id":"ID_5856","idOriginal":"ID_5856","origin":[14.30015173290165,48.311273980287545],"elevation":255.474}
# Longitude: 14.30015173290165
# Latitude: 48.311273980287545
# Elevation: 255.474

# File produced by Open Asset Import Library (http://www.assimp.sf.net)
# (assimp v3.1.0)

mtllib ID_5856.obj.mtl

# 38 vertex positions
v  1.539 18.68 1.874
v  1.875 18.68 -1.559
v  0 18.68 1.14382e-15
v  11.598 18.68 -9.575
v  16.612 18.68 -3.531
v  6.49 18.68 7.873
v  18.131 18.68 -1.678
v  8.532 18.68 10.347
v  18.209 18.68 -1.744
v  20.046 18.68 -3.292
v  20.924 18.68 -4.033
v  20.932 18.68 -4.023
v  26.658 18.68 2.904
v  10.669 18.68 12.936
v  12.222 18.68 14.795
v  23.827 18.68 5.236
v  17.624 18.68 10.347
v  14.09 18.68 13.259
v  23.915 18.68 5.164
v  11.598 5.863e-16 -9.575
v  0 0 0
v  1.875 9.54612e-17 -1.559
v  20.924 2.4695e-16 -4.033
v  18.131 1.02748e-16 -1.678
v  20.046 2.01577e-16 -3.292
v  18.209 1.06789e-16 -1.744
v  12.222 -9.05932e-16 14.795
v  1.539 -1.14749e-16 1.874
v  6.49 -4.82082e-16 7.873
v  8.532 -6.33571e-16 10.347
v  10.669 -7.92102e-16 12.936
v  14.09 -8.1188e-16 13.259
v  26.658 -1.77819e-16 2.904
v  23.915 -3.16204e-16 5.164
v  17.624 -6.33571e-16 10.347
v  23.827 -3.20613e-16 5.236
v  20.932 2.46338e-16 -4.023
v  16.612 2.16211e-16 -3.531

# 0 UV coordinates

# 48 vertex normals
vn 0 1 0
vn -0.636124 0 -0.771586
vn -0.639334 -0.0028135 -0.768924
vn -0.636646 4.72197e-17 -0.771156
vn -8.26169e-22 1 6.12315e-17
vn -0.644966 0 -0.764211
vn -0.644392 4.61809e-05 -0.764695
vn -0.645946 -0.00034055 -0.763383
vn -0.644616 -0 -0.764506
vn -1.37745e-20 -1 -6.12413e-17
vn -1.98793e-20 1 6.12099e-17
vn -0.772798 -3.88612e-17 0.634651
vn -0.771258 -0.000314614 0.636522
vn -0.771228 -0.000340517 0.636559
vn -0.771216 -0.000353947 0.636573
vn -0.76743 -0.00565614 0.641108
vn -0.770961 0 0.636883
vn 6.29592e-21 1 6.12278e-17
vn -7.33741e-21 1 6.1238e-17
vn 4.57899e-21 1 6.12303e-17
vn -7.71486e-21 1 6.12378e-17
vn 0.635127 -0 0.772407
vn 0.635921 -0.000133158 0.771754
vn 0.635904 -0.000124448 0.771769
vn 0.63323 0.00265716 0.773959
vn 0.635885 -0.000125719 0.771784
vn 0.635127 0.000856568 0.772407
vn 0.635886 0 0.771783
vn 0 -1 -6.05576e-17
vn -2.38587e-19 -1 -6.15553e-17
vn -4.71432e-21 -1 -6.1238e-17
vn 0.77076 0 -0.637126
vn 0.780875 0.00773059 -0.62464
vn 0.770774 0 -0.637108
vn -4.4952e-20 -1 -6.11955e-17
vn 0.769639 0 -0.638479
vn 0.773359 -0.00245997 -0.633963
vn 0.769639 0.000750563 -0.638479
vn 0.773362 0 -0.633965
vn -4.96955e-24 -1 -6.12323e-17
vn 5.51297e-24 -1 -6.12323e-17
vn 0 -1 -6.12323e-17
vn 7.0001e-24 -1 -6.12323e-17
vn 0 -1 -6.12324e-17
vn -2.06388e-22 -1 -6.12323e-17
vn 5.40018e-23 -1 -6.12323e-17
vn 1.11379e-23 -1 -6.12323e-17
vn 0 -1 -6.12323e-17

# Mesh 'defaultobject' with 72 faces
g defaultobject
usemtl DefaultMaterial
f  1//1 2//1 3//1
f  2//1 1//1 4//1
f  4//1 1//1 5//1
f  5//1 1//1 6//1
f  5//1 6//1 7//1
f  7//1 6//1 8//1
f  7//1 8//1 9//1
f  9//1 8//1 10//1
f  10//1 8//1 11//1
f  11//1 8//1 12//1
f  12//1 8//1 13//1
f  13//1 8//1 14//1
f  13//1 14//1 15//1
f  13//1 15//1 16//1
f  16//1 15//1 17//1
f  17//1 15//1 18//1
f  13//1 16//1 19//1
f  20//2 2//2 4//2
f  2//3 20//3 3//3
f  3//4 20//4 21//4
f  21//5 20//5 22//5
f  23//6 10//6 11//6
f  10//7 23//7 9//7
f  9//8 23//8 7//8
f  7//9 23//9 24//9
f  24//10 23//10 25//10
f  24//11 25//11 26//11
f  21//12 1//12 3//12
f  1//13 21//13 6//13
f  6//14 21//14 8//14
f  8//15 21//15 14//15
f  14//16 21//16 15//16
f  15//17 21//17 27//17
f  27//18 21//5 28//18
f  27//18 28//18 29//19
f  27//18 29//19 30//20
f  27//18 30//20 31//21
f  27//22 18//22 15//22
f  18//23 27//23 17//23
f  17//24 27//24 16//24
f  16//25 27//25 19//25
f  19//26 27//26 13//26
f  13//27 27//27 32//27
f  13//28 32//28 33//28
f  33//29 32//29 34//29
f  34//29 32//29 35//30
f  34//29 35//30 36//31
f  33//32 12//32 13//32
f  12//33 33//33 11//33
f  11//34 33//34 23//34
f  23//10 33//29 37//35
f  5//36 20//36 4//36
f  20//37 5//37 7//37
f  20//38 7//38 38//38
f  38//39 7//39 24//39
f  34//29 37//35 33//29
f  37//35 34//29 23//10
f  23//10 34//29 25//10
f  25//10 34//29 36//31
f  25//10 36//31 35//30
f  25//10 35//30 26//40
f  26//40 35//30 24//10
f  24//10 35//30 38//41
f  38//41 35//30 20//42
f  20//42 35//30 22//43
f  22//43 35//30 32//29
f  22//43 32//29 27//42
f  22//43 27//42 31//44
f  22//43 31//44 30//45
f  22//43 30//45 29//46
f  22//43 29//46 28//47
f  22//43 28//47 21//48

