# {"id":"ID_42152","idOriginal":"ID_42152","origin":[14.27717976781927,48.27589901245633],"elevation":267.558,"wof":[{"Id":101748071,"Name":"Linz","Placetype":"locality","Offset":-1},{"Id":102049853,"Name":"Linz","Placetype":"county","Offset":-1},{"Id":85681677,"Name":"Oberösterreich","Placetype":"region","Offset":-1},{"Id":85898459,"Name":"Wegscheid","Placetype":"neighbourhood","Offset":-1},{"Id":85632785,"Name":"Austria","Placetype":"country","Offset":-1}]}

# Attribution: City of Linz <http://geo.data.linz.gv.at/katalog/geodata/3d_geo_daten_lod2/>
# Longitude: 14.27717976781927
# Latitude: 48.27589901245633
# Elevation: 267.558

# File produced by Open Asset Import Library (http://www.assimp.sf.net)
# (assimp v3.1.0)


# 18 vertex positions
v  0.468 2.867 -0.494
v  2.814 2.867 -2.825
v  2.74 2.867 -2.893
v  5.856 2.867 -0.051
v  5.199 2.867 0.668
v  7.454 2.867 2.68
v  5.526 2.867 4.794
v  0 2.867 1.75553e-16
v  0.131 2.867 0.114
v  5.526 -2.93548e-16 4.794
v  7.454 -1.64103e-16 2.68
v  5.199 -4.09032e-17 0.668
v  5.856 3.12285e-18 -0.051
v  2.814 1.72981e-16 -2.825
v  2.74 1.77145e-16 -2.893
v  0.468 3.02488e-17 -0.494
v  0 0 0
v  0.131 -6.98049e-18 0.114

# 0 UV coordinates

# 19 vertex normals
vn 0 1 0
vn 0.738864 -0 0.673855
vn 0.738219 -0 0.674562
vn 0.665759 0 -0.746167
vn 0.673808 0 -0.738906
vn 0.676625 0 -0.736328
vn -0.726064 0 -0.687627
vn -0.725953 -0 -0.687745
vn -0.725953 4.21122e-17 -0.687745
vn -0.655277 0 0.755389
vn -0.656458 -0.00391522 0.754352
vn -0.655277 9.5199e-05 0.755389
vn -0.656464 0 0.754358
vn 1.24567e-23 -1 -6.12323e-17
vn 0 -1 -6.12323e-17
vn -3.83371e-26 -1 -6.12323e-17
vn 1.03195e-25 -1 -6.12323e-17
vn 0 -1 -6.12323e-17
vn 6.12287e-24 -1 -6.12323e-17

# Mesh 'defaultobject' with 32 faces
g defaultobject
usemtl DefaultMaterial
f  1//1 2//1 3//1
f  2//1 1//1 4//1
f  4//1 1//1 5//1
f  5//1 1//1 6//1
f  6//1 1//1 7//1
f  7//1 1//1 8//1
f  7//1 8//1 9//1
f  10//2 6//2 7//2
f  6//2 10//2 11//2
f  12//3 4//3 5//3
f  4//3 12//3 13//3
f  11//4 5//4 6//4
f  5//4 11//4 12//4
f  13//5 2//5 4//5
f  2//5 13//5 14//5
f  2//6 14//6 3//6
f  3//6 14//6 15//6
f  15//7 1//7 3//7
f  1//7 15//7 16//7
f  1//8 16//8 8//8
f  8//8 16//8 17//9
f  9//10 10//10 7//10
f  10//11 9//11 8//11
f  10//12 8//12 18//12
f  18//13 8//13 17//13
f  14//14 16//14 15//14
f  16//14 14//14 13//15
f  16//14 13//15 17//15
f  17//15 13//15 18//16
f  18//16 13//15 12//17
f  18//16 12//17 10//18
f  10//18 12//17 11//19

