# {"id":"ID_41837","idOriginal":"ID_41837","origin":[14.31167664792948,48.24614583226257],"elevation":257.894,"wof":[{"Id":85898447,"Name":"Scharlinz","Placetype":"neighbourhood","Offset":-1},{"Id":101748071,"Name":"Linz","Placetype":"locality","Offset":-1},{"Id":85681677,"Name":"Oberösterreich","Placetype":"region","Offset":-1},{"Id":102049853,"Name":"Linz","Placetype":"county","Offset":-1},{"Id":85632785,"Name":"Austria","Placetype":"country","Offset":-1}]}

# Attribution: City of Linz <http://geo.data.linz.gv.at/katalog/geodata/3d_geo_daten_lod2/>
# Longitude: 14.31167664792948
# Latitude: 48.24614583226257
# Elevation: 257.894

# File produced by Open Asset Import Library (http://www.assimp.sf.net)
# (assimp v3.1.0)


# 12 vertex positions
v  2.649 4.689 -3.398
v  3.003 4.689 -1.556
v  3.73 4.689 -2.555
v  0 4.689 2.87118e-16
v  6.038 4.689 4.708
v  8.218 4.689 2.33
v  3.73 1.56449e-16 -2.555
v  2.649 2.08067e-16 -3.398
v  8.218 -1.42671e-16 2.33
v  3.003 9.52775e-17 -1.556
v  0 0 0
v  6.038 -2.88282e-16 4.708

# 0 UV coordinates

# 11 vertex normals
vn 0 1 0
vn 0.61495 0 -0.788566
vn 0.597512 0 -0.80186
vn -0.788664 0 -0.614824
vn -0.788664 3.76471e-17 -0.614824
vn -0.614899 -4.82882e-17 0.788606
vn -0.614899 0 0.788606
vn 0.737128 -0 0.675753
vn 0.808561 -0 0.588412
vn -2.24079e-24 -1 -6.12323e-17
vn 0 -1 -6.12323e-17

# Mesh 'defaultobject' with 20 faces
g defaultobject
usemtl DefaultMaterial
f  1//1 2//1 3//1
f  2//1 1//1 4//1
f  2//1 4//1 5//1
f  5//1 6//1 2//1
f  7//2 1//2 3//2
f  1//2 7//2 8//2
f  9//3 2//3 6//3
f  2//3 9//3 10//3
f  8//4 4//4 1//4
f  4//4 8//4 11//5
f  11//6 5//6 4//6
f  5//6 11//6 12//7
f  12//8 6//8 5//8
f  6//8 12//8 9//8
f  10//9 3//9 2//9
f  3//9 10//9 7//9
f  7//10 11//10 8//10
f  11//10 7//10 10//11
f  11//10 10//11 12//11
f  12//11 10//11 9//11

