# {"id":"_5265","idOriginal":"_5265","origin":[14.277654018077987,48.301811669771745],"elevation":286.797}
# Longitude: 14.277654018077987
# Latitude: 48.301811669771745
# Elevation: 286.797

# File produced by Open Asset Import Library (http://www.assimp.sf.net)
# (assimp v3.1.0)

mtllib _5265.obj.mtl

# 99 vertex positions
v  5.48 1.468 23.016
v  6.78 1.468 25.911
v  5.623 1.468 22.965
v  6.797 1.468 26.63
v  7.056 1.468 26.515
v  9.825 1.468 25.286
v  9.637 1.468 24.807
v  6.797 -1.63062e-15 26.63
v  9.825 -1.54832e-15 25.286
v  7.056 -1.62358e-15 26.515
v  9.637 -1.51899e-15 24.807
v  6.78 -1.58659e-15 25.911
v  5.623 -1.4062e-15 22.965
v  5.48 -1.40932e-15 23.016
v  8.507 1.468 21.93
v  6.78 2.209 25.911
v  6.861 1.891 22.521
v  5.623 2.209 22.965
v  8.507 -1.34283e-15 21.93
v  6.861 -1.37901e-15 22.521
v  20.411 1.468 14.087
v  24.793 1.468 12.393
v  19.661 1.468 12.099
v  18.213 1.468 -5.383
v  22.5 1.468 0.221
v  20.07 1.468 -6.093
v  24.145 1.468 10.387
v  25.171 1.468 7.742
v  28.733 1.468 6.548
v  28.79 1.468 6.529
v  28.794 1.468 17.399
v  26.016 1.468 15.646
v  26.945 1.468 18.114
v  26.004 1.468 -1.107
v  24.145 -6.3602e-16 10.387
v  19.661 -7.4085e-16 12.099
v  26.004 6.77842e-17 -1.107
v  22.5 -1.35323e-17 0.221
v  20.07 3.73089e-16 -6.093
v  18.213 3.29614e-16 -5.383
v  20.411 -8.6258e-16 14.087
v  24.793 -7.58852e-16 12.393
v  26.016 -9.58041e-16 15.646
v  26.945 -1.10916e-15 18.114
v  28.794 -1.06538e-15 17.399
v  25.171 -4.74061e-16 7.742
v  28.733 -4.00949e-16 6.548
v  28.79 -3.99786e-16 6.529
v  3.827 2.71 18.481
v  7.402 2.398 19.117
v  6.745 2.702 17.444
v  8.507 1.887 21.93
v  5.48 1.894 23.016
v  5.623 1.894 22.965
v  7.402 -1.17058e-15 19.117
v  6.745 -1.06814e-15 17.444
v  3.827 -1.13163e-15 18.481
v  0 13.013 7.96816e-16
v  7.789 13.013 14.613
v  2.053 13.013 -0.797
v  6.839 13.013 17.411
v  8.561 13.013 16.412
v  14.086 13.013 16.533
v  13.39 13.013 14.523
v  6.745 13.013 17.444
v  7.402 13.013 19.117
v  14.311 13.013 17.184
v  8.507 13.013 21.93
v  26.016 13.013 15.646
v  20.411 13.013 14.087
v  24.793 13.013 12.393
v  20.666 13.013 14.762
v  7.941 13.013 14.563
v  14.311 -1.05222e-15 17.184
v  13.39 -8.89277e-16 14.523
v  14.086 -1.01235e-15 16.533
v  8.561 -1.00495e-15 16.412
v  7.941 -8.91727e-16 14.563
v  7.789 -8.94788e-16 14.613
v  2.053 4.88022e-17 -0.797
v  20.666 -9.03912e-16 14.762
v  0 0 0
v  6.839 -1.06612e-15 17.411
v  26.016 9.993 15.646
v  9.637 9.313 24.807
v  26.945 9.313 18.114
v  8.507 9.993 21.93
v  9.637 4.014 24.807
v  10.025 3.973 25.197
v  26.945 4.032 18.114
v  9.825 3.971 25.286
v  10.989 3.77 27.464
v  28.794 4.034 17.399
v  30.009 3.75 20.638
v  28.146 3.752 21.307
v  10.989 -1.68168e-15 27.464
v  28.146 -1.30468e-15 21.307
v  30.009 -1.26371e-15 20.638
v  10.025 -1.54287e-15 25.197

# 0 UV coordinates

# 129 vertex normals
vn -0 1 0
vn 0.40581 -0 0.913957
vn 0.405679 2.76426e-05 0.914016
vn 0.40569 0 0.914011
vn 1.07789e-18 -1 -5.88526e-17
vn 0.93087 0 -0.365351
vn 0.93079 0 -0.365555
vn -0.360444 0 -0.932781
vn -0.335922 0 -0.94189
vn -0.939558 0 0.34239
vn 2.62421e-23 -1 -6.12324e-17
vn -8.9679e-22 -1 -6.1232e-17
vn 9.81692e-23 -1 -6.12324e-17
vn 0.218871 0.971959 -0.0859662
vn 0.21892 0.97195 -0.0859433
vn 0.218841 0.971968 -0.0859468
vn -0.93079 0 0.365555
vn 0.360444 -0 0.932781
vn 0.930779 0 -0.365582
vn -0.337589 0 -0.941294
vn -0.33788 0.000215649 -0.941189
vn -0.337589 -0.000431523 -0.941294
vn -0.33793 0 -0.941171
vn -6.36162e-23 -1 -6.12324e-17
vn 5.87851e-23 -1 -6.12324e-17
vn -0.356688 0 -0.934223
vn -0.354397 0 -0.935095
vn -0.357125 0 -0.934057
vn -0.935631 0 0.35298
vn -0.936033 0 0.351912
vn -0.935892 0 0.352286
vn -0.935973 0 0.352073
vn 0.360576 -0 0.93273
vn 0.360668 -0 0.932694
vn 0.317824 -0 0.94815
vn 0.316223 0 0.948685
vn 0.936277 0 -0.351262
vn 0.939426 0 -0.342751
vn 0.933269 0 -0.359177
vn 0 -1 -6.12323e-17
vn 1.57436e-23 -1 -6.12323e-17
vn -1.23248e-23 -1 -6.12323e-17
vn 0 -1 -6.12323e-17
vn -5.29767e-24 -1 -6.12323e-17
vn -5.43223e-24 -1 -6.12323e-17
vn 0 -1 -6.12323e-17
vn -3.07212e-23 -1 -6.12323e-17
vn -4.55715e-23 -1 -6.12323e-17
vn -3.92949e-24 -1 -6.12323e-17
vn -1.98883e-24 -1 -6.12324e-17
vn 0.0582458 0.985992 0.156291
vn 0.0582576 0.986001 0.156229
vn 0.0583071 0.986009 0.156163
vn -0.13519 0.913926 -0.382704
vn -0.265404 0.613012 -0.744162
vn 0.335922 -0 0.94189
vn 0.337588 -0.000141828 0.941294
vn 0.337929 -0.000422305 0.941172
vn 0.337695 0 0.941255
vn -1.43923e-20 1 6.11817e-17
vn 1.15185e-19 1 6.15643e-17
vn 0.930764 0 -0.365622
vn 0.930764 0 -0.365622
vn 0.930799 0 -0.365532
vn 0.930799 0 -0.365532
vn -0.334863 0 -0.942267
vn -0.334863 0 -0.942267
vn -0.939533 0 0.342458
vn -0.939533 0 0.342458
vn 1.18952e-24 -1 -6.12323e-17
vn 0.337804 -0 0.941217
vn 0.936033 0 -0.351912
vn 0.945141 0 -0.326661
vn 0.944953 -3.05745e-05 -0.327207
vn 0.944999 0 -0.327074
vn -6.25566e-20 1 6.12585e-17
vn 0.948118 0 -0.317919
vn 0.937181 0 -0.348843
vn -0.360576 0 -0.93273
vn -0.35613 0 -0.934436
vn -0.364298 0 -0.931283
vn -0.312477 0 -0.949925
vn -0.361898 0 -0.932218
vn -0.361898 5.70819e-17 -0.932218
vn -0.331253 0 -0.943542
vn -0.935472 0 0.353402
vn -0.93077 -2.23868e-17 0.365604
vn -0.93077 0 0.365604
vn -0.930764 0 0.365622
vn -0.930799 -2.24257e-05 0.365532
vn -0.930764 1.33369e-05 0.365622
vn -0.930799 0 0.365532
vn 7.02774e-23 -1 -6.12322e-17
vn 7.59019e-23 -1 -6.12324e-17
vn -9.80893e-22 -1 -6.12328e-17
vn 7.65554e-23 -1 -6.12323e-17
vn 7.9775e-24 -1 -6.12323e-17
vn -1.06865e-23 -1 -6.12323e-17
vn 6.25522e-20 -1 -6.12542e-17
vn 0.0900616 0.968322 0.232898
vn 0.0726105 0.976625 0.202313
vn -0.337804 0 -0.941217
vn -0.930779 0 0.365582
vn 0.360672 -0 0.932693
vn 0.935892 0 -0.352286
vn 0.0285119 0.996669 0.0764118
vn 0.0254053 0.996512 0.0794861
vn 0.0287632 0.996615 0.0770116
vn 0.0285844 0.996644 0.0767073
vn 0.0285646 0.996647 0.0766723
vn -0.0358715 0.994048 -0.102866
vn 0.337771 -0 0.941228
vn 0.337771 0 0.941228
vn 0.337967 0 0.941158
vn 0.337967 0 0.941158
vn 0.936294 0 -0.351218
vn -0.360669 0 -0.932694
vn -0.360672 -1.87276e-06 -0.932693
vn -0.360668 1.91754e-05 -0.932694
vn -0.360672 -0 -0.932693
vn -0.93087 0 0.365351
vn -0.93087 0 0.365351
vn 0.406558 0 0.913625
vn 0.406558 0 0.913625
vn -0.920254 0 0.391321
vn -0.920254 0 0.391321
vn 3.67255e-23 -1 -6.12323e-17
vn -1.70287e-23 -1 -6.12324e-17
vn 9.37281e-24 -1 -6.12323e-17

# Mesh 'defaultobject' with 216 faces
g defaultobject
usemtl DefaultMaterial
f  1//1 2//1 3//1
f  2//1 1//1 4//1
f  2//1 4//1 5//1
f  2//1 5//1 6//1
f  6//1 7//1 2//1
f  8//2 5//2 4//2
f  5//3 8//3 6//3
f  6//4 8//4 9//4
f  9//5 8//5 10//5
f  9//6 7//6 6//6
f  7//6 9//6 11//6
f  12//7 3//7 2//7
f  3//7 12//7 13//7
f  11//8 2//8 7//8
f  2//8 11//8 12//8
f  13//9 1//9 3//9
f  1//9 13//9 14//9
f  14//10 4//10 1//10
f  4//10 14//10 8//10
f  9//5 12//11 11//11
f  12//11 9//5 10//5
f  12//11 10//5 8//5
f  12//11 8//5 14//12
f  14//12 13//13 12//11
f  15//14 16//14 7//14
f  16//15 15//15 17//15
f  16//16 17//16 18//16
f  13//17 16//17 18//17
f  16//17 13//17 12//17
f  12//18 7//18 16//18
f  7//18 12//18 11//18
f  11//19 15//19 7//19
f  15//19 11//19 19//19
f  17//20 13//20 18//20
f  13//21 17//21 15//21
f  13//22 15//22 20//22
f  20//23 15//23 19//23
f  20//24 12//11 13//13
f  12//11 20//24 11//11
f  11//11 20//24 19//25
f  21//1 22//1 23//1
f  24//1 25//1 26//1
f  25//1 24//1 27//1
f  25//1 27//1 28//1
f  25//1 28//1 29//1
f  25//1 29//1 30//1
f  28//1 27//1 31//1
f  31//1 27//1 22//1
f  22//1 27//1 23//1
f  31//1 22//1 32//1
f  31//1 32//1 33//1
f  30//1 34//1 25//1
f  35//26 23//26 27//26
f  23//26 35//26 36//26
f  37//27 25//27 34//27
f  25//27 37//27 38//27
f  39//28 24//28 26//28
f  24//28 39//28 40//28
f  36//29 21//29 23//29
f  21//29 36//29 41//29
f  42//30 32//30 22//30
f  32//30 42//30 43//30
f  32//31 43//31 33//31
f  33//31 43//31 44//31
f  40//32 27//32 24//32
f  27//32 40//32 35//32
f  41//33 22//33 21//33
f  22//33 41//33 42//33
f  44//34 31//34 33//34
f  31//34 44//34 45//34
f  46//35 29//35 28//35
f  29//35 46//35 47//35
f  29//36 47//36 30//36
f  30//36 47//36 48//36
f  45//37 28//37 31//37
f  28//37 45//37 46//37
f  48//38 34//38 30//38
f  34//38 48//38 37//38
f  38//39 26//39 25//39
f  26//39 38//39 39//39
f  48//40 38//40 37//40
f  38//40 40//41 39//41
f  40//41 38//40 35//42
f  35//42 38//40 46//43
f  46//43 38//40 47//44
f  47//44 38//40 48//40
f  35//42 46//43 45//45
f  35//42 45//45 42//46
f  42//46 45//45 43//47
f  43//47 45//45 44//48
f  42//46 36//49 35//42
f  36//49 42//46 41//50
f  49//51 50//51 51//51
f  50//52 49//52 52//52
f  52//53 49//53 53//53
f  52//54 53//54 17//54
f  17//55 53//55 54//55
f  14//56 54//56 53//56
f  54//57 14//57 17//57
f  17//58 14//58 52//58
f  52//59 14//59 19//59
f  19//60 14//60 13//60
f  19//60 13//60 20//61
f  19//62 50//62 52//62
f  50//62 19//62 55//63
f  50//64 55//64 51//64
f  51//64 55//64 56//65
f  51//66 57//66 49//66
f  57//66 51//66 56//67
f  57//68 53//68 49//68
f  53//68 57//68 14//69
f  55//70 57//70 56//70
f  57//70 55//70 14//12
f  14//12 55//70 19//25
f  14//12 19//25 20//24
f  14//12 20//24 13//13
f  58//1 59//1 60//1
f  59//1 58//1 61//1
f  59//1 61//1 62//1
f  62//1 63//1 64//1
f  63//1 62//1 61//1
f  63//1 61//1 65//1
f  63//1 65//1 66//1
f  63//1 66//1 67//1
f  67//1 66//1 68//1
f  67//1 68//1 69//1
f  70//1 69//1 71//1
f  69//1 70//1 72//1
f  69//1 72//1 67//1
f  62//1 73//1 59//1
f  19//71 69//71 68//71
f  69//71 19//71 43//71
f  43//72 71//72 69//72
f  71//72 43//72 42//72
f  74//73 63//73 67//73
f  63//74 74//74 64//74
f  64//75 74//75 75//75
f  75//76 74//76 76//76
f  77//77 73//77 62//77
f  73//77 77//77 78//77
f  79//78 60//78 59//78
f  60//78 79//78 80//78
f  42//79 70//79 71//79
f  70//79 42//79 41//79
f  81//80 67//80 72//80
f  67//80 81//80 74//80
f  75//81 62//81 64//81
f  62//81 75//81 77//81
f  78//82 59//82 73//82
f  59//82 78//82 79//82
f  80//83 58//83 60//83
f  58//83 80//83 82//84
f  83//85 65//85 61//85
f  65//85 83//85 56//85
f  41//86 72//86 70//86
f  72//86 41//86 81//86
f  82//87 61//87 58//87
f  61//87 82//87 83//88
f  66//89 19//89 68//89
f  19//90 66//90 65//90
f  19//91 65//91 55//91
f  55//92 65//92 56//92
f  42//46 81//93 41//50
f  80//46 83//46 82//46
f  83//46 80//46 79//94
f  83//46 79//94 78//95
f  83//46 78//95 77//96
f  83//46 77//96 55//70
f  55//70 77//96 19//25
f  19//25 77//96 75//97
f  19//25 75//97 74//98
f  19//25 74//98 43//47
f  74//98 75//97 76//99
f  43//47 74//98 81//93
f  43//47 81//93 42//46
f  55//70 56//70 83//46
f  84//100 85//100 86//100
f  87//101 85//101 84//101
f  43//102 87//102 84//102
f  87//102 43//102 19//102
f  19//103 85//103 87//103
f  85//103 19//103 11//103
f  11//104 86//104 85//104
f  86//104 11//104 44//34
f  86//105 43//105 84//105
f  43//105 86//105 44//105
f  43//47 11//11 19//25
f  11//11 43//47 44//48
f  88//106 89//106 90//106
f  89//107 88//107 91//107
f  90//108 89//108 92//108
f  90//109 92//109 93//109
f  93//110 92//110 94//110
f  94//111 92//111 95//111
f  96//112 95//112 92//112
f  95//112 96//112 97//113
f  95//114 97//114 94//114
f  94//114 97//114 98//115
f  94//116 45//116 93//116
f  45//116 94//116 98//116
f  45//117 90//117 93//117
f  90//117 45//117 88//118
f  88//119 45//119 44//119
f  88//118 44//120 11//120
f  11//121 91//121 88//121
f  91//121 11//121 9//122
f  91//123 99//123 89//123
f  99//123 91//123 9//124
f  99//125 92//125 89//125
f  92//125 99//125 96//126
f  97//127 45//45 98//127
f  45//45 97//127 44//48
f  44//48 97//127 96//128
f  44//48 96//128 99//129
f  44//48 99//129 11//11
f  11//11 99//129 9//5

