# {"id":"ID_20451","idOriginal":"ID_20451","origin":[14.256510271808942,48.31947728177965],"elevation":459.46}
# Longitude: 14.256510271808942
# Latitude: 48.31947728177965
# Elevation: 459.46

# File produced by Open Asset Import Library (http://www.assimp.sf.net)
# (assimp v3.1.0)

mtllib ID_20451.obj.mtl

# 24 vertex positions
v  0 3.196 1.95699e-16
v  2.755 3.196 1.36
v  2.592 3.196 -0.29
v  0.856 3.196 8.764
v  1.355 3.196 8.71
v  6.285 3.196 1.03
v  8.645 3.196 1.11
v  8.616 3.196 0.812
v  10.125 3.196 16.25
v  1.665 3.196 12.61
v  1.235 3.196 12.65
v  1.675 3.196 17.14
v  1.665 -7.7214e-16 12.61
v  1.235 -7.74589e-16 12.65
v  8.616 -4.97207e-17 0.812
v  6.285 -6.30693e-17 1.03
v  2.755 -8.3276e-17 1.36
v  2.592 1.77574e-17 -0.29
v  0 0 0
v  1.675 -1.04952e-15 17.14
v  0.856 -5.3664e-16 8.764
v  1.355 -5.33334e-16 8.71
v  10.125 -9.95026e-16 16.25
v  8.645 -6.79679e-17 1.11

# 0 UV coordinates

# 27 vertex normals
vn -0 1 0
vn -0.0926233 0 -0.995701
vn -0.0931157 0 -0.995655
vn -0.0930786 2.73377e-05 -0.995659
vn -0.0931158 -4.13913e-05 -0.995655
vn -0.0930786 -0 -0.995659
vn -0.111189 0 -0.993799
vn -0.111189 6.08527e-17 -0.993799
vn -0.995233 0 0.0975284
vn -0.995264 -5.95238e-18 0.0972097
vn -0.995264 0 0.0972097
vn -0.996856 0 0.0792372
vn 0.104746 -0 0.994499
vn 0.107588 -0 0.994196
vn 0.995256 0 -0.0972905
vn 0.995298 0 -0.0968588
vn 0.995156 0 -0.0983094
vn 1.15264e-24 -1 -6.12323e-17
vn 9.75798e-23 -1 -6.12323e-17
vn -8.30117e-24 -1 -6.12323e-17
vn 0 -1 -6.12323e-17
vn 1.66536e-22 -1 -6.12322e-17
vn 2.62849e-23 -1 -6.12323e-17
vn -5.2235e-24 -1 -6.12323e-17
vn -6.64536e-24 -1 -6.12323e-17
vn -5.53076e-24 -1 -6.12324e-17
vn 1.08689e-22 -1 -6.12324e-17

# Mesh 'defaultobject' with 44 faces
g defaultobject
usemtl DefaultMaterial
f  1//1 2//1 3//1
f  2//1 1//1 4//1
f  2//1 4//1 5//1
f  6//1 7//1 8//1
f  7//1 6//1 9//1
f  9//1 6//1 2//1
f  9//1 2//1 5//1
f  9//1 5//1 10//1
f  9//1 10//1 11//1
f  9//1 11//1 12//1
f  13//2 11//2 10//2
f  11//2 13//2 14//2
f  15//3 6//3 8//3
f  6//4 15//4 2//4
f  2//5 15//5 16//5
f  2//6 16//6 17//6
f  18//7 1//7 3//7
f  1//7 18//7 19//8
f  14//9 12//9 11//9
f  12//9 14//9 20//9
f  19//10 4//10 1//10
f  4//10 19//10 21//11
f  22//12 10//12 5//12
f  10//12 22//12 13//12
f  20//13 9//13 12//13
f  9//13 20//13 23//13
f  21//14 5//14 4//14
f  5//14 21//14 22//14
f  23//15 7//15 9//15
f  7//15 23//15 24//15
f  7//16 24//16 8//16
f  8//16 24//16 15//16
f  17//17 3//17 2//17
f  3//17 17//17 18//17
f  18//18 21//18 19//18
f  21//18 18//18 17//19
f  21//18 17//19 16//20
f  21//18 16//20 15//21
f  21//18 15//21 24//22
f  21//18 24//22 22//23
f  22//23 24//22 23//24
f  22//23 23//24 13//25
f  13//25 23//24 20//26
f  20//26 14//27 13//25

