# {"id":"ID_32868","idOriginal":"ID_32868","origin":[14.286196545646957,48.27993576031235],"elevation":270.671,"wof":[{"Id":85681677,"Name":"Oberösterreich","Placetype":"region","Offset":-1},{"Id":102049853,"Name":"Linz","Placetype":"county","Offset":-1},{"Id":85898459,"Name":"Wegscheid","Placetype":"neighbourhood","Offset":-1},{"Id":101748071,"Name":"Linz","Placetype":"locality","Offset":-1},{"Id":85632785,"Name":"Austria","Placetype":"country","Offset":-1}]}

# Attribution: City of Linz <http://geo.data.linz.gv.at/katalog/geodata/3d_geo_daten_lod2/>
# Longitude: 14.286196545646957
# Latitude: 48.27993576031235
# Elevation: 270.671

# File produced by Open Asset Import Library (http://www.assimp.sf.net)
# (assimp v3.1.0)


# 12 vertex positions
v  1.546 9.091 -3.711
v  9.193 4.074 -4.67
v  3.082 4.074 -7.4
v  7.637 9.091 -0.991
v  0 4.043 2.47562e-16
v  6.083 4.084 2.682
v  6.083 -1.64225e-16 2.682
v  7.637 6.06812e-17 -0.991
v  9.193 2.85955e-16 -4.67
v  3.082 4.53119e-16 -7.4
v  1.546 2.27233e-16 -3.711
v  0 0 0

# 0 UV coordinates

# 16 vertex normals
vn 0.31909 0.622896 -0.714271
vn 0.319016 0.622804 -0.714384
vn -0.319001 0.622848 0.714352
vn -0.319095 0.622962 0.714211
vn 0.920988 -4.9484e-05 0.389591
vn 0.920988 0 0.389591
vn 0.920964 0.000121792 0.389648
vn 0.921012 0 0.389534
vn 0.407884 0 -0.913034
vn -0.923136 7.67839e-05 -0.384473
vn -0.923136 0 -0.384474
vn -0.923173 -0.000191788 -0.384384
vn -0.923099 2.35477e-17 -0.384562
vn -0.403429 0 0.915011
vn -7.92204e-24 -1 -6.12323e-17
vn 0 -1 -6.12323e-17

# Mesh 'defaultobject' with 20 faces
g defaultobject
usemtl DefaultMaterial
f  1//1 2//1 3//1
f  2//2 1//2 4//2
f  5//3 4//3 1//3
f  4//4 5//4 6//4
f  6//5 2//5 4//5
f  2//6 6//6 7//6
f  2//7 7//7 8//7
f  2//8 8//8 9//8
f  9//9 3//9 2//9
f  3//9 9//9 10//9
f  3//10 5//10 1//10
f  5//11 3//11 10//11
f  5//12 10//12 11//12
f  5//13 11//13 12//13
f  5//14 7//14 6//14
f  7//14 5//14 12//14
f  8//15 10//15 9//15
f  10//15 8//15 7//16
f  10//15 7//16 11//16
f  11//16 7//16 12//16

