# {"id":"ID_25580","idOriginal":"ID_25580","origin":[14.28985124762287,48.31944669737981],"elevation":259.025,"wof":[{"Id":102049853,"Name":"Linz","Placetype":"county","Offset":-1},{"Id":85632785,"Name":"Austria","Placetype":"country","Offset":-1},{"Id":85681677,"Name":"Oberösterreich","Placetype":"region","Offset":-1},{"Id":85898449,"Name":"Steeg","Placetype":"neighbourhood","Offset":-1},{"Id":101748071,"Name":"Linz","Placetype":"locality","Offset":-1}]}

# Attribution: City of Linz <http://geo.data.linz.gv.at/katalog/geodata/3d_geo_daten_lod2/>
# Longitude: 14.28985124762287
# Latitude: 48.31944669737981
# Elevation: 259.025

# File produced by Open Asset Import Library (http://www.assimp.sf.net)
# (assimp v3.1.0)


# 32 vertex positions
v  10.008 20.214 -0.074
v  6.701 15.019 -8.889
v  3.616 20.214 -4.796
v  6.981 14.548 -9.26
v  10.45 14.553 -6.691
v  13.397 14.434 -4.659
v  10.73 14.13 -7.003
v  13.577 14.127 -4.903
v  2.296 17.991 -3.045
v  0.361 14.734 -0.479
v  0 14.126 8.64968e-16
v  2.296 14.126 1.697
v  4.78 14.126 3.532
v  5.97 14.126 4.411
v  6.803 14.749 4.262
v  6.438 14.126 4.757
v  6.981 5.67011e-16 -9.26
v  6.701 5.44294e-16 -8.889
v  0.361 2.93303e-17 -0.479
v  0 0 0
v  3.616 2.9367e-16 -4.796
v  2.296 1.86452e-16 -3.045
v  10.45 4.09706e-16 -6.691
v  10.73 4.2881e-16 -7.003
v  5.97 -2.70096e-16 4.411
v  6.438 -2.91282e-16 4.757
v  2.296 -1.03911e-16 1.697
v  4.78 -2.16273e-16 3.532
v  13.397 2.85281e-16 -4.659
v  13.577 3.00222e-16 -4.903
v  10.008 4.53119e-18 -0.074
v  6.803 -2.60972e-16 4.262

# 0 UV coordinates

# 53 vertex normals
vn 0.422986 0.702307 -0.572581
vn 0.422851 0.702389 -0.572579
vn 0.423013 0.702295 -0.572574
vn 0.423128 0.702258 -0.572535
vn 0.423095 0.70232 -0.572483
vn 0.42282 0.7027 -0.57222
vn -0.423026 0.702238 0.572635
vn -0.423009 0.702355 0.572504
vn -0.422969 0.702274 0.572633
vn -0.423059 0.702419 0.572388
vn -0.422961 0.702344 0.572553
vn -0.422938 0.702338 0.572578
vn -0.422841 0.702332 0.572657
vn -0.423067 0.702535 0.572241
vn -0.798545 4.05152e-05 -0.601935
vn -0.798798 -0.000998235 -0.601598
vn -0.798533 0 -0.601951
vn -0.798461 5.18869e-05 -0.602047
vn -0.798556 -6.69324e-05 -0.60192
vn -0.798189 0.000433423 -0.602407
vn -0.798516 5.71305e-06 -0.601973
vn -0.798597 3.68536e-17 -0.601866
vn 0 -1 -6.12177e-17
vn -4.96966e-20 -1 -6.12263e-17
vn -0.744242 0 -0.66791
vn -0.744242 0 -0.66791
vn -0.594381 -4.9242e-17 0.804183
vn -0.594182 -5.01484e-05 0.804331
vn -0.594144 -6.99333e-05 0.804359
vn -0.594487 0.000154566 0.804105
vn -0.594251 -1.21171e-05 0.80428
vn -0.594487 0 0.804105
vn 1.54112e-20 1 6.12133e-17
vn 0 1 6.12409e-17
vn 0.804167 -3.55002e-06 0.594404
vn 0.804185 0.00110817 0.594378
vn 0.804203 0 0.594355
vn 0.80449 -0.00039165 0.593967
vn 0.804203 1.88739e-05 0.594355
vn 0.804725 0 0.593648
vn 0 -1 -6.12652e-17
vn 0 -1 -6.12251e-17
vn 0.593604 0 -0.804757
vn 0.593604 0 -0.804757
vn 0.595133 0 -0.803627
vn 0.595133 0 -0.803627
vn -1.23383e-23 -1 -6.12323e-17
vn -7.71779e-23 -1 -6.12323e-17
vn 8.79034e-24 -1 -6.12323e-17
vn -3.04418e-22 -1 -6.12318e-17
vn 1.19127e-22 -1 -6.12323e-17
vn 0 -1 -6.12323e-17
vn 3.86442e-24 -1 -6.12323e-17

# Mesh 'defaultobject' with 60 faces
g defaultobject
usemtl DefaultMaterial
f  1//1 2//1 3//1
f  2//2 1//2 4//2
f  4//3 1//3 5//3
f  5//4 1//4 6//4
f  5//5 6//5 7//5
f  7//6 6//6 8//6
f  9//7 1//7 3//7
f  1//8 9//8 10//8
f  1//9 10//9 11//9
f  1//10 11//10 12//10
f  1//11 12//11 13//11
f  1//12 13//12 14//12
f  1//13 14//13 15//13
f  15//14 14//14 16//14
f  2//15 9//15 3//15
f  9//16 2//16 4//16
f  9//17 4//17 17//17
f  9//18 17//18 10//18
f  10//19 17//19 11//19
f  11//20 17//20 18//20
f  11//21 18//21 19//21
f  11//22 19//22 20//22
f  19//23 18//23 21//23
f  19//23 21//23 22//24
f  7//25 23//25 5//25
f  23//25 7//25 24//26
f  20//27 12//27 11//27
f  12//28 20//28 13//28
f  13//29 20//29 14//29
f  14//30 20//30 16//30
f  16//31 20//31 25//31
f  16//32 25//32 26//32
f  25//33 20//33 27//33
f  25//33 27//33 28//34
f  15//35 6//35 1//35
f  6//36 15//36 16//36
f  6//37 16//37 26//37
f  6//38 26//38 8//38
f  8//39 26//39 29//39
f  8//40 29//40 30//40
f  29//41 26//41 31//41
f  31//41 26//41 32//42
f  8//43 24//43 7//43
f  24//43 8//43 30//44
f  23//45 4//45 5//45
f  4//45 23//45 17//46
f  29//41 24//47 30//47
f  24//47 29//41 31//41
f  24//47 31//41 23//48
f  23//48 31//41 17//49
f  17//49 31//41 18//23
f  18//23 31//41 21//23
f  21//23 31//41 32//42
f  21//23 32//42 22//24
f  22//24 32//42 19//23
f  19//23 32//42 26//41
f  19//23 26//41 25//50
f  19//23 25//50 28//51
f  19//23 28//51 27//52
f  19//23 27//52 20//53

