# {"id":"ID_11043","idOriginal":"ID_11043","origin":[14.306529361816754,48.32893814201596],"elevation":257.91,"wof":[{"Id":102049853,"Name":"Linz","Placetype":"county","Offset":-1},{"Id":85681677,"Name":"Oberösterreich","Placetype":"region","Offset":-1},{"Id":85898419,"Name":"Furth","Placetype":"neighbourhood","Offset":-1},{"Id":101748071,"Name":"Linz","Placetype":"locality","Offset":-1},{"Id":85632785,"Name":"Austria","Placetype":"country","Offset":-1}]}

# Attribution: City of Linz <http://geo.data.linz.gv.at/katalog/geodata/3d_geo_daten_lod2/>
# Longitude: 14.306529361816754
# Latitude: 48.32893814201596
# Elevation: 257.91

# File produced by Open Asset Import Library (http://www.assimp.sf.net)
# (assimp v3.1.0)


# 46 vertex positions
v  13.227 9.69 -4.829
v  13.075 9.69 1.844
v  15.485 9.69 0.895
v  2.354 9.69 5.963
v  13.146 9.69 2.023
v  0 9.69 5.93341e-16
v  2.348 9.69 5.948
v  0.05 9.69 0.129
v  2.354 -3.65128e-16 5.963
v  2.348 -3.6421e-16 5.948
v  0.05 -7.89897e-18 0.129
v  0 0 0
v  13.146 -1.23873e-16 2.023
v  13.075 -1.12912e-16 1.844
v  15.485 -5.48029e-17 0.895
v  13.227 2.95691e-16 -4.829
v  2.44 12.866 6.181
v  13.146 12.866 2.023
v  2.354 12.866 5.963
v  2.972 12.866 7.535
v  13.727 12.866 3.5
v  3.381 12.866 8.579
v  14.167 12.866 4.614
v  3.419 12.866 8.674
v  3.514 12.866 8.914
v  16.606 12.866 3.738
v  19.371 12.866 10.743
v  6.091 12.866 15.453
v  17.028 12.866 11.6
v  6.143 12.866 15.585
v  14.26 12.866 4.577
v  16.577 12.866 3.665
v  6.143 -9.54306e-16 15.585
v  19.371 -6.57819e-16 10.743
v  17.028 -7.10295e-16 11.6
v  16.577 -2.24417e-16 3.665
v  16.606 -2.28886e-16 3.738
v  14.167 -2.82526e-16 4.614
v  13.727 -2.14313e-16 3.5
v  14.26 -2.8026e-16 4.577
v  2.44 -3.78477e-16 6.181
v  2.972 -4.61386e-16 7.535
v  6.091 -9.46223e-16 15.453
v  3.514 -5.45825e-16 8.914
v  3.419 -5.31129e-16 8.674
v  3.381 -5.25312e-16 8.579

# 0 UV coordinates

# 58 vertex normals
vn 0 1 -0
vn -0.928475 0 0.371396
vn -0.930099 -7.33294e-06 0.367308
vn -0.932403 -0.00411521 0.361396
vn -0.92847 0.00299313 0.371394
vn -0.930099 9.06108e-05 0.367308
vn -0.932411 0 0.3614
vn 0.342945 -0 0.939355
vn 0.366393 -0 0.93046
vn 0.929547 0 -0.368703
vn 0.930237 0 -0.366959
vn -0.342946 0 -0.939355
vn -0.342946 5.75189e-17 -0.939355
vn -4.78764e-23 -1 -6.12325e-17
vn 6.64332e-24 -1 -6.12323e-17
vn 0 -1 -6.12323e-17
vn -4.5131e-19 -1 -6.10397e-17
vn 6.02462e-22 -1 -6.12321e-17
vn 0.343786 -0 0.939048
vn 0.343513 0.000261903 0.939148
vn 0.343737 0 0.939066
vn -1.25947e-20 -1 -6.12669e-17
vn 0.930161 0 -0.367151
vn 0.929346 -0.00129507 -0.369208
vn 0.930153 0 -0.367173
vn 1.08704e-19 1 6.11897e-17
vn 0.93008 0 -0.367356
vn 0.930591 0.000129534 -0.366062
vn 0.930371 0 -0.366619
vn 0 -1 -6.12329e-17
vn -0.366261 0 -0.930512
vn -0.369663 -0.000708127 -0.929165
vn -0.366393 -0 -0.93046
vn 2.3131e-20 1 6.12907e-17
vn -0.342945 0 -0.939356
vn -0.930232 0 0.366972
vn -0.930735 2.50032e-05 0.365695
vn -0.931098 0.000155588 0.364769
vn -0.928475 -0.00140031 0.371392
vn -0.929806 -0.00058579 0.368049
vn -0.930358 -0.000215501 0.366651
vn -0.930408 -0.00010766 0.366525
vn -0.930232 -0.000494684 0.366972
vn -0.930463 0 0.366387
vn 0 1 6.12337e-17
vn 1.06842e-17 1 5.69628e-17
vn -4.43646e-20 1 6.12453e-17
vn 7.68902e-20 1 6.12019e-17
vn 2.98612e-20 1 6.12205e-17
vn 0 -1 -6.12324e-17
vn 1.58426e-24 -1 -6.12323e-17
vn 8.22294e-24 -1 -6.12323e-17
vn -1.209e-22 -1 -6.12325e-17
vn -1.38313e-22 -1 -6.12325e-17
vn 1.04906e-23 -1 -6.12323e-17
vn 2.80268e-22 -1 -6.12325e-17
vn 0 -1 -6.12323e-17
vn -2.14763e-21 -1 -6.12322e-17

# Mesh 'defaultobject' with 88 faces
g defaultobject
usemtl DefaultMaterial
f  1//1 2//1 3//1
f  2//1 4//1 5//1
f  4//1 2//1 1//1
f  4//1 1//1 6//1
f  4//1 6//1 7//1
f  7//1 6//1 8//1
f  7//2 9//2 4//2
f  9//3 7//3 8//3
f  9//4 8//4 6//4
f  9//5 6//5 10//5
f  10//6 6//6 11//6
f  11//7 6//7 12//7
f  9//8 5//8 4//8
f  5//8 9//8 13//8
f  14//9 3//9 2//9
f  3//9 14//9 15//9
f  13//10 2//10 5//10
f  2//10 13//10 14//10
f  15//11 1//11 3//11
f  1//11 15//11 16//11
f  16//12 6//12 1//12
f  6//12 16//12 12//13
f  9//14 14//14 13//14
f  14//14 16//15 15//15
f  16//15 14//14 12//16
f  12//16 14//14 9//14
f  12//16 9//14 10//17
f  12//16 10//17 11//18
f  17//1 18//1 19//1
f  18//1 17//1 20//1
f  18//1 20//1 21//1
f  21//1 20//1 22//1
f  21//1 22//1 23//1
f  23//1 22//1 24//1
f  23//1 24//1 25//1
f  23//1 25//1 26//1
f  26//1 25//1 27//1
f  27//1 25//1 28//1
f  27//1 28//1 29//1
f  29//1 28//1 30//1
f  31//1 26//1 32//1
f  26//1 31//1 23//1
f  33//19 29//19 30//19
f  29//20 33//20 27//20
f  27//21 33//21 34//21
f  34//22 33//22 35//22
f  34//23 26//23 27//23
f  26//24 34//24 32//24
f  32//25 34//25 36//25
f  36//26 34//26 37//26
f  38//27 21//27 23//27
f  21//28 38//28 18//28
f  18//29 38//29 13//29
f  13//14 38//30 39//30
f  36//31 31//31 32//31
f  31//32 36//32 23//32
f  23//33 36//33 38//33
f  38//34 36//26 40//34
f  13//35 19//35 18//35
f  19//35 13//35 9//35
f  9//36 17//36 19//36
f  17//37 9//37 20//37
f  20//38 9//38 22//38
f  22//39 9//39 24//39
f  24//40 9//40 25//40
f  25//41 9//41 28//41
f  28//42 9//42 30//42
f  30//43 9//43 41//43
f  30//44 41//44 33//44
f  33//45 41//45 42//45
f  33//45 42//45 43//46
f  43//46 42//45 44//47
f  44//47 42//45 45//48
f  45//48 42//45 46//49
f  13//14 41//50 9//14
f  41//50 13//14 42//51
f  42//51 13//14 46//52
f  46//52 13//14 45//53
f  45//53 13//14 44//54
f  44//54 13//14 43//55
f  43//55 13//14 33//22
f  33//22 13//14 39//30
f  33//22 39//30 38//30
f  33//22 38//30 35//22
f  35//22 38//30 40//56
f  35//22 40//56 36//57
f  35//22 36//57 37//58
f  35//22 37//58 34//22

