# {"id":"_15767","idOriginal":"_15767","origin":[14.296998010375933,48.301686980180165],"elevation":259.706,"wof":[{"Id":102049853,"Name":"Linz","Placetype":"county","Offset":-1},{"Id":101748071,"Name":"Linz","Placetype":"locality","Offset":-1},{"Id":85632785,"Name":"Austria","Placetype":"country","Offset":-1},{"Id":85681677,"Name":"Oberösterreich","Placetype":"region","Offset":-1},{"Id":85898449,"Name":"Steeg","Placetype":"neighbourhood","Offset":-1}]}

# Attribution: City of Linz <http://geo.data.linz.gv.at/katalog/geodata/3d_geo_daten_lod2/>
# Longitude: 14.296998010375933
# Latitude: 48.301686980180165
# Elevation: 259.706

# File produced by Open Asset Import Library (http://www.assimp.sf.net)
# (assimp v3.1.0)


# 37 vertex positions
v  10.358 11.703 -3.751
v  6.716 16.745 5.58
v  13.222 16.745 2.914
v  10.178 11.385 -4.171
v  3.823 11.385 -1.567
v  2.91 16.745 7.139
v  0.153 11.667 0.375
v  0 11.385 6.9713e-16
v  15.616 12.529 8.487
v  16.114 11.469 9.931
v  9.6 11.402 12.705
v  5.7 11.607 13.983
v  9.247 11.398 12.855
v  9.287 11.316 12.966
v  5.801 11.425 14.225
v  5.858 11.316 14.372
v  15.616 -5.19679e-16 8.487
v  16.114 -6.08098e-16 9.931
v  13.222 -1.78431e-16 2.914
v  9.247 -7.87142e-16 12.855
v  9.287 -7.93939e-16 12.966
v  10.178 2.554e-16 -4.171
v  10.358 2.29683e-16 -3.751
v  0 0 0
v  3.823 9.59511e-17 -1.567
v  5.7 -8.56212e-16 13.983
v  0.153 -2.29621e-17 0.375
v  2.91 -4.37138e-16 7.139
v  5.801 -8.7103e-16 14.225
v  5.858 -8.80031e-16 14.372
v  9.6 -7.77957e-16 12.705
v  5.858 4.463 14.372
v  10.125 4.463 15.306
v  9.287 4.463 12.966
v  6.752 4.463 16.685
v  6.752 -1.02166e-15 16.685
v  10.125 -9.37222e-16 15.306

# 0 UV coordinates

# 56 vertex normals
vn -0.216425 0.821103 -0.528156
vn -0.217294 0.820772 -0.528316
vn -0.216425 0.821088 -0.528181
vn -0.216362 0.821088 -0.528207
vn -0.216412 0.821076 -0.528205
vn -0.216715 0.820665 -0.528719
vn 0.216435 0.821085 0.528181
vn 0.216478 0.821122 0.528105
vn 0.216378 0.821059 0.528245
vn 0.216443 0.821141 0.528091
vn 0.216264 0.821084 0.528252
vn 0.218481 0.815516 0.535911
vn 0.216426 0.820915 0.528449
vn 0.216231 0.821519 0.52759
vn 0.21577 0.822513 0.526228
vn 0.945359 0 -0.326031
vn 0.945359 0 -0.326031
vn 0.918812 0 -0.394695
vn 0.94078 0 -0.339019
vn 0.94078 0 -0.339019
vn 0.918812 0 -0.394695
vn 0.918767 0 -0.394801
vn 0.919031 0.000416053 -0.394184
vn 0.918789 0 -0.394749
vn -5.40255e-20 -1 -6.12088e-17
vn -0.37916 0 -0.925331
vn -0.379264 -6.78774e-05 -0.925288
vn -0.379199 5.66592e-17 -0.925315
vn 1.65804e-20 1 6.12811e-17
vn -0.926021 -3.5372e-05 0.377472
vn -0.92602 0.000455752 0.377474
vn -0.926018 0 0.37748
vn -0.926018 0 0.37748
vn 0 -1 -6.10846e-17
vn 1.59744e-19 1 6.11821e-17
vn -0.932361 0 0.361528
vn -0.922851 0 0.385157
vn -0.922851 0 0.385157
vn 0.379379 -0 0.925241
vn 0.391805 0 0.920048
vn 0.391088 -0.000483169 0.920353
vn 0.391805 2.63536e-05 0.920048
vn 0.391084 0 0.920355
vn -1.04778e-22 -1 -6.12326e-17
vn 5.79908e-24 -1 -6.12323e-17
vn 7.80544e-22 -1 -6.12332e-17
vn -4.79315e-23 -1 -6.12323e-17
vn 1.93157e-24 -1 -6.12323e-17
vn -1.49748e-24 -1 -6.12323e-17
vn 0 -1 -6.12324e-17
vn -0 1 0
vn -0.932752 0 0.360519
vn 0.37843 -0 0.92563
vn 0.94145 0 -0.337152
vn -0.379379 0 -0.925242
vn 1.17193e-23 -1 -6.12324e-17

# Mesh 'defaultobject' with 70 faces
g defaultobject
usemtl DefaultMaterial
f  1//1 2//1 3//1
f  2//2 1//2 4//2
f  2//3 4//3 5//3
f  2//4 5//4 6//4
f  6//5 5//5 7//5
f  7//6 5//6 8//6
f  2//7 9//7 3//7
f  9//8 2//8 10//8
f  10//9 2//9 6//9
f  10//10 6//10 11//10
f  11//11 6//11 12//11
f  11//12 12//12 13//12
f  13//13 12//13 14//13
f  14//14 12//14 15//14
f  14//15 15//15 16//15
f  10//16 17//16 9//16
f  17//16 10//16 18//17
f  19//18 9//18 17//18
f  14//19 20//19 13//19
f  20//19 14//19 21//20
f  19//18 3//21 9//18
f  3//22 19//22 1//22
f  1//23 19//23 4//23
f  4//24 19//24 22//24
f  22//25 19//25 23//25
f  22//26 5//26 4//26
f  5//27 22//27 8//27
f  8//28 22//28 24//28
f  24//29 22//29 25//29
f  7//30 12//30 6//30
f  12//31 7//31 8//31
f  12//32 8//32 24//32
f  12//32 24//32 26//33
f  26//34 24//34 27//34
f  26//35 27//35 28//35
f  29//36 16//36 15//36
f  16//36 29//36 30//36
f  26//37 15//37 12//37
f  15//37 26//37 29//38
f  30//39 14//39 16//39
f  14//39 30//39 21//39
f  11//40 18//40 10//40
f  18//41 11//41 13//41
f  18//42 13//42 31//42
f  31//43 13//43 20//43
f  29//44 21//44 30//44
f  21//44 29//44 26//34
f  21//44 26//34 28//45
f  21//44 28//45 20//46
f  20//46 28//45 31//47
f  31//47 28//45 18//48
f  18//48 28//45 17//49
f  17//49 28//45 19//25
f  19//25 28//45 27//34
f  19//25 27//34 23//25
f  23//25 27//34 24//34
f  23//25 24//34 25//50
f  23//25 25//50 22//25
f  32//51 33//51 34//51
f  33//51 32//51 35//51
f  30//52 35//52 32//52
f  35//52 30//52 36//52
f  36//53 33//53 35//53
f  33//53 36//53 37//53
f  37//54 34//54 33//54
f  34//54 37//54 21//54
f  21//55 32//55 34//55
f  32//55 21//55 30//55
f  30//44 37//56 36//56
f  37//56 30//44 21//44

