# {"id":"_15536","idOriginal":"_15536","origin":[14.311524097342415,48.302637997432775],"elevation":257.43}
# Longitude: 14.311524097342415
# Latitude: 48.302637997432775
# Elevation: 257.43

# File produced by Open Asset Import Library (http://www.assimp.sf.net)
# (assimp v3.1.0)

mtllib _15536.obj.mtl

# 34 vertex positions
v  2.266 19.341 -2.038
v  14.921 20.836 -3.716
v  10.873 19.343 -8.835
v  3.933 20.836 4.975
v  1.823 19.341 -1.688
v  0.167 19.386 -0.123
v  0 19.385 1.18699e-15
v  1.43 19.34 -1.378
v  0.489 19.348 -0.59
v  0.227 19.348 -0.387
v  0.06 19.347 -0.258
v  7.975 19.345 10.087
v  7.984 19.342 10.098
v  9.18 19.343 9.142
v  11.483 19.342 7.327
v  11.883 19.342 7.011
v  18.972 19.342 1.407
v  0.06 1.57979e-17 -0.258
v  0.227 2.36969e-17 -0.387
v  0.489 3.61271e-17 -0.59
v  0.167 7.53158e-18 -0.123
v  0 0 0
v  10.873 5.40988e-16 -8.835
v  1.43 8.43782e-17 -1.378
v  2.266 1.24791e-16 -2.038
v  1.823 1.0336e-16 -1.688
v  7.984 -6.18324e-16 10.098
v  3.933 -3.04631e-16 4.975
v  7.975 -6.17651e-16 10.087
v  18.972 -8.61539e-17 1.407
v  11.883 -4.293e-16 7.011
v  11.483 -4.48649e-16 7.327
v  9.18 -5.59786e-16 9.142
v  14.921 2.27539e-16 -3.716

# 0 UV coordinates

# 55 vertex normals
vn -0.138352 0.974816 -0.174907
vn -0.138353 0.974813 -0.17492
vn -0.138224 0.974826 -0.174953
vn -0.1387 0.974787 -0.174794
vn -0.136031 0.974807 -0.176771
vn -0.148228 0.971537 -0.184783
vn -0.137603 0.975045 -0.174218
vn -0.132173 0.976438 -0.170587
vn -0.138614 0.975315 -0.17189
vn 0.138357 0.974812 0.174924
vn 0.121962 0.978375 0.167057
vn 0.139384 0.974581 0.175397
vn 0.138292 0.974819 0.174937
vn 0.138173 0.974842 0.174903
vn 0.138288 0.974821 0.174933
vn -0.611313 0 -0.791389
vn -0.612477 1.60608e-05 -0.790488
vn -0.611313 -2.52258e-05 -0.791389
vn -0.612477 0 -0.790488
vn -0.593035 0 -0.805177
vn -0.593035 4.93029e-17 -0.805177
vn -0.619757 0 -0.784794
vn -0.619931 -0.000126376 -0.784656
vn -0.619321 0.000337459 -0.785138
vn -0.619747 -0 -0.784802
vn -7.92111e-20 -1 -6.13252e-17
vn 2.63193e-20 -1 -6.12112e-17
vn -0.642026 0 -0.766683
vn -0.783693 0 0.621149
vn -0.783693 0 0.621149
vn -0.784471 -3.79742e-17 0.620166
vn -0.784422 -2.37692e-05 0.620227
vn -0.775205 -0.00977121 0.631634
vn -0.784433 0 0.620213
vn 4.26353e-20 1 6.12243e-17
vn 2.20702e-19 1 6.10578e-17
vn 0.624376 -0 0.781124
vn 0.618981 0.000545237 0.785406
vn 0.619898 0.000275626 0.784682
vn 0.62015 0.000193044 0.784483
vn 0.620359 0 0.784318
vn -6.27528e-21 -1 -6.12342e-17
vn 1.21756e-20 -1 -6.12191e-17
vn -7.70323e-21 -1 -6.12415e-17
vn 0.784397 0 -0.62026
vn 0.784385 -5.6934e-06 -0.620274
vn 0.784391 0 -0.620267
vn 5.09277e-19 1 6.08586e-17
vn 0 -1 -6.12323e-17
vn -4.2217e-21 -1 -6.12337e-17
vn 0 -1 -6.12323e-17
vn -2.51693e-24 -1 -6.12323e-17
vn 0 -1 -6.12323e-17
vn -1.4515e-23 -1 -6.12324e-17
vn -5.68931e-24 -1 -6.12324e-17

# Mesh 'defaultobject' with 64 faces
g defaultobject
usemtl DefaultMaterial
f  1//1 2//1 3//1
f  2//2 1//2 4//2
f  4//3 1//3 5//3
f  4//4 5//4 6//4
f  4//5 6//5 7//5
f  8//6 6//6 5//6
f  6//7 8//7 9//7
f  10//8 6//8 9//8
f  6//9 10//9 11//9
f  12//10 2//10 4//10
f  2//11 12//11 13//11
f  2//12 13//12 14//12
f  2//13 14//13 15//13
f  2//14 15//14 16//14
f  2//13 16//15 17//15
f  10//16 18//16 11//16
f  18//17 10//17 9//17
f  18//18 9//18 19//18
f  19//19 9//19 20//19
f  21//20 7//20 6//20
f  7//20 21//20 22//21
f  23//22 1//22 3//22
f  1//23 23//23 5//23
f  5//24 23//24 8//24
f  8//25 23//25 24//25
f  24//26 23//26 25//26
f  24//26 25//26 26//27
f  8//28 20//28 9//28
f  20//28 8//28 24//28
f  11//29 21//29 6//29
f  21//29 11//29 18//30
f  22//31 4//31 7//31
f  4//32 22//32 12//32
f  12//33 22//33 13//33
f  13//34 22//34 27//34
f  27//35 22//35 28//35
f  27//35 28//35 29//36
f  27//37 14//37 13//37
f  14//38 27//38 15//38
f  15//39 27//39 16//39
f  16//40 27//40 17//40
f  17//41 27//41 30//41
f  30//42 27//42 31//42
f  31//42 27//42 32//43
f  32//43 27//42 33//44
f  30//45 2//45 17//45
f  2//46 30//46 3//46
f  3//47 30//45 23//47
f  23//48 30//48 34//48
f  31//42 34//49 30//42
f  34//49 31//42 32//43
f  34//49 32//43 33//44
f  34//49 33//44 27//42
f  34//49 27//42 29//50
f  34//49 29//50 28//49
f  34//49 28//49 23//26
f  23//26 28//49 21//51
f  21//51 28//49 22//52
f  23//26 21//51 25//26
f  25//26 21//51 26//27
f  26//27 21//51 24//26
f  24//26 21//51 20//53
f  21//51 19//54 20//53
f  19//54 21//51 18//55

