# {"id":"ID_54407","idOriginal":"ID_54407","origin":[14.317858716010402,48.26044129679892],"elevation":259.66,"wof":[{"Id":102049853,"Name":"Linz","Placetype":"county","Offset":-1},{"Id":101748071,"Name":"Linz","Placetype":"locality","Offset":-1},{"Id":85681677,"Name":"Oberösterreich","Placetype":"region","Offset":-1},{"Id":85898429,"Name":"Kleinmünchen","Placetype":"neighbourhood","Offset":-1},{"Id":85632785,"Name":"Austria","Placetype":"country","Offset":-1}]}

# Attribution: City of Linz <http://geo.data.linz.gv.at/katalog/geodata/3d_geo_daten_lod2/>
# Longitude: 14.317858716010402
# Latitude: 48.26044129679892
# Elevation: 259.66

# File produced by Open Asset Import Library (http://www.assimp.sf.net)
# (assimp v3.1.0)


# 8 vertex positions
v  3.925 2.329 1.135
v  0 2.329 1.4261e-16
v  0.977 2.329 2.357
v  2.948 2.329 -1.222
v  0.977 -1.44325e-16 2.357
v  3.925 -6.94987e-17 1.135
v  2.948 7.48259e-17 -1.222
v  0 0 0

# 0 UV coordinates

# 8 vertex normals
vn 0 1 0
vn 0.382924 -0 0.92378
vn 0.923783 0 -0.382917
vn -0.382924 0 -0.92378
vn -0.382924 5.65652e-17 -0.92378
vn -0.923783 -2.34469e-17 0.382917
vn -0.923783 0 0.382917
vn 1.62544e-24 -1 -6.12323e-17

# Mesh 'defaultobject' with 12 faces
g defaultobject
usemtl DefaultMaterial
f  1//1 2//1 3//1
f  2//1 1//1 4//1
f  5//2 1//2 3//2
f  1//2 5//2 6//2
f  6//3 4//3 1//3
f  4//3 6//3 7//3
f  7//4 2//4 4//4
f  2//4 7//4 8//5
f  8//6 3//6 2//6
f  3//6 8//6 5//7
f  8//8 6//8 5//8
f  6//8 8//8 7//8

