# {"id":"_58637","idOriginal":"_58637","origin":[14.303683940735075,48.29626209860043],"elevation":260.466,"wof":[{"Id":102049853,"Name":"Linz","Placetype":"county","Offset":-1},{"Id":101748071,"Name":"Linz","Placetype":"locality","Offset":-1},{"Id":85681677,"Name":"Oberösterreich","Placetype":"region","Offset":-1},{"Id":85898449,"Name":"Steeg","Placetype":"neighbourhood","Offset":-1},{"Id":85632785,"Name":"Austria","Placetype":"country","Offset":-1}]}

# Attribution: City of Linz <http://geo.data.linz.gv.at/katalog/geodata/3d_geo_daten_lod2/>
# Longitude: 14.303683940735075
# Latitude: 48.29626209860043
# Elevation: 260.466

# File produced by Open Asset Import Library (http://www.assimp.sf.net)
# (assimp v3.1.0)


# 8 vertex positions
v  0 2.65 1.62266e-16
v  2.781 2.65 -0.983
v  0.398 2.65 -1.583
v  2.383 2.65 0.6
v  0.398 9.69308e-17 -1.583
v  0 0 0
v  2.383 -3.67394e-17 0.6
v  2.781 6.01914e-17 -0.983

# 0 UV coordinates

# 9 vertex normals
vn 0 1 0
vn -0.969817 0 -0.243833
vn -0.969817 1.49305e-17 -0.243833
vn -0.244163 -5.93791e-17 0.969734
vn -0.244163 0 0.969734
vn 0.969817 -0 0.243833
vn 0.244163 0 -0.969734
vn -1.64979e-24 -1 -6.12323e-17
vn -8.24894e-25 -1 -6.12323e-17

# Mesh 'defaultobject' with 12 faces
g defaultobject
usemtl DefaultMaterial
f  1//1 2//1 3//1
f  2//1 1//1 4//1
f  5//2 1//2 3//2
f  1//2 5//2 6//3
f  6//4 4//4 1//4
f  4//4 6//4 7//5
f  7//6 2//6 4//6
f  2//6 7//6 8//6
f  8//7 3//7 2//7
f  3//7 8//7 5//7
f  8//8 6//8 5//8
f  6//8 8//8 7//9

