# {"id":"ID_11181","idOriginal":"ID_11181","origin":[14.25985394885772,48.32528733811326],"elevation":501.03}
# Longitude: 14.25985394885772
# Latitude: 48.32528733811326
# Elevation: 501.03

# File produced by Open Asset Import Library (http://www.assimp.sf.net)
# (assimp v3.1.0)

mtllib ID_11181.obj.mtl

# 42 vertex positions
v  0.541 14.047 7.027
v  0.307 11.512 3.331
v  0.139 11.524 3.365
v  9.367 9.195 -0.905
v  0 9.221 5.64623e-16
v  16.912 14.047 5.512
v  10.104 9.195 -0.973
v  16.279 11.536 1.889
v  16.008 9.249 -1.44
v  16.151 10.273 0.048
v  16.478 11.553 1.895
v  17.102 11.837 8.735
v  17.294 11.848 8.701
v  12.469 9.419 12.709
v  17.541 9.463 12.175
v  6.419 9.431 13.252
v  6.436 9.193 13.599
v  1.075 11.729 10.376
v  1.436 9.473 13.651
v  0.911 11.73 10.39
v  12.533 9.191 13.037
v  12.469 -7.78202e-16 12.709
v  12.533 -7.98286e-16 13.037
v  17.102 -5.34864e-16 8.735
v  17.541 -7.45504e-16 12.175
v  17.294 -5.32783e-16 8.701
v  16.478 -1.16035e-16 1.895
v  16.912 -3.37513e-16 5.512
v  16.279 -1.15668e-16 1.889
v  16.151 -2.93915e-18 0.048
v  16.008 8.81746e-17 -1.44
v  0.911 -6.36204e-16 10.39
v  1.075 -6.35347e-16 10.376
v  1.436 -8.35883e-16 13.651
v  6.419 -8.11451e-16 13.252
v  6.436 -8.32699e-16 13.599
v  9.367 5.54153e-17 -0.905
v  10.104 5.95791e-17 -0.973
v  0 0 0
v  0.139 -2.06047e-16 3.365
v  0.307 -2.03965e-16 3.331
v  0.541 -4.3028e-16 7.027

# 0 UV coordinates

# 66 vertex normals
vn -0.0548861 0.825041 -0.562401
vn -0.0520713 0.82505 -0.562655
vn -0.0520419 0.825083 -0.56261
vn -0.0520666 0.825068 -0.562629
vn -0.0519222 0.824998 -0.562745
vn -0.0519623 0.825015 -0.562716
vn -0.0520473 0.825092 -0.562596
vn -0.0661707 0.824936 -0.561339
vn -0.0535208 0.825074 -0.562484
vn 0.0523656 0.825041 0.562641
vn 0.0520869 0.825013 0.562708
vn 0.0520322 0.825046 0.562664
vn 0.0520714 0.825033 0.56268
vn 0.0521309 0.825086 0.562598
vn 0.0521762 0.824733 0.56311
vn 0.0519083 0.825 0.562744
vn 0.0520049 0.825075 0.562625
vn 0.0530533 0.825035 0.562586
vn 0.052176 0.824734 0.563109
vn 0.981491 0 -0.191511
vn 0.98149 0 -0.191511
vn 0.991955 0 -0.12659
vn 0.99289 -0.000145572 -0.119035
vn 0.992889 0 -0.119042
vn 0.992889 0 -0.119042
vn 0 1 6.12314e-17
vn 0.997592 0 -0.0693601
vn 0.995414 0 -0.0956612
vn 0.995414 0 -0.0956612
vn 0.104705 0 0.994503
vn 0.174367 0 0.984681
vn 0.174366 0 0.984681
vn 0.0850561 -0 0.996376
vn 0.0798168 -0 0.99681
vn 0.0798168 0 0.99681
vn 0.0917874 -0 0.995779
vn 0.0917874 0 0.995779
vn 0.0301371 0 -0.999546
vn 0.0301371 0 -0.999546
vn -0.0788526 0 -0.996886
vn -0.0918724 -0.0084183 -0.995735
vn -0.0803 -0 -0.996771
vn -1.44378e-23 1 6.12322e-17
vn -0.096168 0 -0.995365
vn -0.096168 0 -0.995365
vn -0.198359 0 -0.980129
vn -0.198359 0 -0.980129
vn -0.99578 0 0.0917756
vn -0.994015 -0.000176539 0.109241
vn -0.994016 0 0.109236
vn 3.51309e-20 1 6.12331e-17
vn -0.99398 0 0.109565
vn -0.99398 0 0.109565
vn -0.998802 0 0.0489318
vn -0.998802 0 0.0489318
vn 0 -1 -6.12323e-17
vn 3.15676e-24 -1 -6.12323e-17
vn -3.81584e-25 -1 -6.12323e-17
vn -4.28145e-24 -1 -6.12324e-17
vn -5.25199e-21 -1 -6.12311e-17
vn 0 -1 -6.12323e-17
vn 3.81441e-23 -1 -6.12323e-17
vn 0 -1 -6.12323e-17
vn -7.43996e-23 -1 -6.12323e-17
vn -8.79726e-23 -1 -6.12323e-17
vn 4.49094e-24 -1 -6.12323e-17

# Mesh 'defaultobject' with 80 faces
g defaultobject
usemtl DefaultMaterial
f  1//1 2//1 3//1
f  2//2 4//2 5//2
f  4//3 2//3 1//3
f  4//4 1//4 6//4
f  4//5 6//5 7//5
f  7//6 6//6 8//6
f  7//7 8//7 9//7
f  9//8 8//8 10//8
f  8//9 6//9 11//9
f  6//10 12//10 13//10
f  12//11 14//11 15//11
f  14//12 12//12 6//12
f  14//13 6//13 1//13
f  14//14 1//14 16//14
f  14//15 16//15 17//15
f  16//16 1//16 18//16
f  16//17 18//17 19//17
f  18//18 1//18 20//18
f  17//15 21//19 14//15
f  21//20 22//20 14//20
f  22//20 21//20 23//21
f  15//22 24//22 12//22
f  24//22 15//22 25//22
f  13//23 11//23 6//23
f  11//24 13//24 26//24
f  11//24 26//24 27//25
f  27//26 26//26 28//26
f  29//27 10//27 8//27
f  10//27 29//27 30//27
f  30//28 9//28 10//28
f  9//28 30//28 31//29
f  14//30 25//30 15//30
f  25//30 14//30 22//30
f  12//31 26//31 13//31
f  26//31 12//31 24//32
f  32//33 18//33 20//33
f  18//33 32//33 33//33
f  34//34 16//34 19//34
f  16//34 34//34 35//35
f  36//36 21//36 17//36
f  21//36 36//36 23//37
f  27//38 8//38 11//38
f  8//38 27//38 29//39
f  31//40 7//40 9//40
f  7//41 31//41 4//41
f  4//42 31//42 37//42
f  37//43 31//43 38//43
f  4//44 39//44 5//44
f  39//44 4//44 37//45
f  2//46 40//46 3//46
f  40//46 2//46 41//47
f  5//48 41//48 2//48
f  41//48 5//48 39//48
f  3//49 20//49 1//49
f  20//50 3//50 40//50
f  20//50 40//50 32//50
f  32//51 40//51 42//51
f  33//52 19//52 18//52
f  19//52 33//52 34//53
f  35//54 17//54 16//54
f  17//54 35//54 36//55
f  37//56 41//56 39//56
f  41//56 37//56 33//57
f  33//57 37//56 34//56
f  34//56 37//56 35//58
f  35//58 23//59 36//59
f  23//59 35//58 37//56
f  23//59 37//56 22//60
f  22//60 37//56 38//61
f  41//56 42//62 40//62
f  42//62 41//56 32//61
f  32//61 41//56 33//57
f  31//61 22//60 38//61
f  22//60 31//61 29//61
f  29//61 31//61 30//63
f  28//64 24//64 27//64
f  24//64 28//64 26//65
f  22//60 24//64 25//66
f  24//64 22//60 29//61
f  24//64 29//61 27//64

