# {"id":"ID_44672","idOriginal":"ID_44672","origin":[14.27747599237015,48.27592799225116],"elevation":269.362,"wof":[{"Id":85681677,"Name":"Oberösterreich","Placetype":"region","Offset":-1},{"Id":85632785,"Name":"Austria","Placetype":"country","Offset":-1},{"Id":85898459,"Name":"Wegscheid","Placetype":"neighbourhood","Offset":-1},{"Id":101748071,"Name":"Linz","Placetype":"locality","Offset":-1},{"Id":102049853,"Name":"Linz","Placetype":"county","Offset":-1}]}

# Attribution: City of Linz <http://geo.data.linz.gv.at/katalog/geodata/3d_geo_daten_lod2/>
# Longitude: 14.27747599237015
# Latitude: 48.27592799225116
# Elevation: 269.362

# File produced by Open Asset Import Library (http://www.assimp.sf.net)
# (assimp v3.1.0)


# 12 vertex positions
v  0 3.135 1.91963e-16
v  2.128 2.626 -2.021
v  1.974 2.625 -2.167
v  6.651 2.427 0.456
v  2.865 2.437 -2.825
v  3.91 3.135 3.471
v  2.128 1.23751e-16 -2.021
v  2.865 1.72981e-16 -2.825
v  0 0 0
v  1.974 1.3269e-16 -2.167
v  6.651 -2.79219e-17 0.456
v  3.91 -2.12537e-16 3.471

# 0 UV coordinates

# 17 vertex normals
vn 0.114521 0.985199 -0.127543
vn 0.113313 0.985312 -0.127751
vn 0.113678 0.985182 -0.128427
vn 0.113656 0.985236 -0.128031
vn -0.737154 0 -0.675725
vn -0.737154 0 -0.675725
vn -0.73926 0 -0.67342
vn 0.688006 0 -0.725705
vn 0.688006 0 -0.725705
vn 0.654908 0 -0.755709
vn -0.663877 -4.57921e-17 0.747842
vn -0.663877 0 0.747842
vn 0.739929 -0 0.672685
vn 0.739929 0 0.672685
vn 0 -1 -6.12323e-17
vn 3.61611e-22 -1 -6.12324e-17
vn -3.86397e-23 -1 -6.12323e-17

# Mesh 'defaultobject' with 20 faces
g defaultobject
usemtl DefaultMaterial
f  1//1 2//1 3//1
f  2//2 4//2 5//2
f  4//3 2//3 1//3
f  4//4 1//4 6//4
f  5//5 7//5 2//5
f  7//5 5//5 8//6
f  3//7 9//7 1//7
f  9//7 3//7 10//7
f  7//8 3//8 2//8
f  3//8 7//8 10//9
f  4//10 8//10 5//10
f  8//10 4//10 11//10
f  9//11 6//11 1//11
f  6//11 9//11 12//12
f  12//13 4//13 6//13
f  4//13 12//13 11//14
f  10//15 12//15 9//15
f  12//15 10//15 7//16
f  12//15 7//16 8//17
f  12//15 8//17 11//15

