# {"id":"ID_29385","idOriginal":"ID_29385","origin":[14.324395865577781,48.23939586538662],"elevation":259.511,"wof":[{"Id":85898451,"Name":"Ufer","Placetype":"neighbourhood","Offset":-1},{"Id":85681677,"Name":"Oberösterreich","Placetype":"region","Offset":-1},{"Id":102049853,"Name":"Linz","Placetype":"county","Offset":-1},{"Id":101748071,"Name":"Linz","Placetype":"locality","Offset":-1},{"Id":85632785,"Name":"Austria","Placetype":"country","Offset":-1}]}

# Attribution: City of Linz <http://geo.data.linz.gv.at/katalog/geodata/3d_geo_daten_lod2/>
# Longitude: 14.324395865577781
# Latitude: 48.23939586538662
# Elevation: 259.511

# File produced by Open Asset Import Library (http://www.assimp.sf.net)
# (assimp v3.1.0)


# 22 vertex positions
v  3.673 7.997 -1.754
v  8.774 4.409 -0.625
v  7.24 4.496 -3.457
v  7.631 7.997 6.117
v  10.277 4.433 2.423
v  10.83 4.802 4.452
v  11.182 4.451 4.269
v  0.051 4.392 0.102
v  3.004 7.34 -1.434
v  0 4.392 2.68932e-16
v  4.02 4.392 7.995
v  7.24 2.1168e-16 -3.457
v  3.673 1.07402e-16 -1.754
v  3.004 8.78072e-17 -1.434
v  0 0 0
v  4.02 -4.89553e-16 7.995
v  0.051 -6.2457e-18 0.102
v  7.631 -3.74558e-16 6.117
v  10.83 -2.72606e-16 4.452
v  11.182 -2.61401e-16 4.269
v  8.774 3.82702e-17 -0.625
v  10.277 -1.48366e-16 2.423

# 0 UV coordinates

# 38 vertex normals
vn 0.592434 0.748514 -0.297907
vn 0.592434 0.748513 -0.29791
vn 0.592312 0.748585 -0.29797
vn 0.592623 0.748472 -0.297637
vn 0.592088 0.748921 -0.297573
vn -0.593059 0.748566 0.29653
vn -0.596012 0.748499 0.290723
vn -0.592393 0.748553 0.29789
vn -0.592391 0.748557 0.297884
vn -0.430847 0 -0.902425
vn -0.431303 -0.000250107 -0.902207
vn -0.430852 6.96974e-05 -0.902423
vn -0.430847 8.0589e-05 -0.902425
vn -0.431503 -0.000593799 -0.902111
vn -0.430796 5.52591e-17 -0.902449
vn -0.894427 -2.73839e-17 0.447214
vn -0.893406 -5.91459e-05 0.44925
vn -0.893419 0 0.449224
vn 0 1 6.11869e-17
vn 0.461407 -0 0.887189
vn 0.461598 -0.000109785 0.887089
vn 0.461407 0.000235041 0.887189
vn 0.461684 0 0.887044
vn 0.461273 0 0.887258
vn 0.879292 0 -0.476283
vn 0.879292 0 -0.476283
vn 0.897902 0 -0.440196
vn 0.896888 -0.00106514 -0.442256
vn 0.897269 0 -0.441484
vn -6.57676e-21 1 6.12362e-17
vn -4.8693e-23 -1 -6.12323e-17
vn 0 -1 -6.12323e-17
vn 0 -1 -6.12323e-17
vn 7.40395e-25 -1 -6.12323e-17
vn 0 -1 -6.12323e-17
vn -5.85503e-23 -1 -6.12323e-17
vn 4.00454e-23 -1 -6.12323e-17
vn 0 -1 -6.12323e-17

# Mesh 'defaultobject' with 40 faces
g defaultobject
usemtl DefaultMaterial
f  1//1 2//1 3//1
f  2//1 1//1 4//2
f  2//3 4//3 5//3
f  5//4 4//4 6//4
f  5//5 6//5 7//5
f  8//6 9//6 10//6
f  9//7 8//7 1//7
f  1//8 8//8 4//8
f  4//8 8//8 11//9
f  12//10 1//10 3//10
f  1//11 12//11 9//11
f  9//12 12//12 10//12
f  10//13 12//13 13//13
f  10//14 13//14 14//14
f  10//15 14//15 15//15
f  15//16 8//16 10//16
f  8//17 15//17 11//17
f  11//18 15//18 16//18
f  16//19 15//19 17//19
f  16//20 4//20 11//20
f  4//21 16//21 6//21
f  6//22 16//22 18//22
f  6//23 18//23 19//23
f  6//24 19//24 7//24
f  7//24 19//24 20//24
f  2//25 12//25 3//25
f  12//25 2//25 21//26
f  20//27 5//27 7//27
f  5//28 20//28 2//28
f  2//29 20//29 21//29
f  21//30 20//30 22//30
f  19//31 22//31 20//31
f  22//31 19//31 18//32
f  22//31 18//32 16//33
f  22//31 16//33 17//34
f  22//31 17//34 21//35
f  21//35 17//34 12//35
f  12//35 17//34 13//36
f  13//36 17//34 14//37
f  14//37 17//34 15//38

