# {"id":"ID_23663","idOriginal":"ID_23663","origin":[14.330894690092684,48.27359517879577],"elevation":257.097,"wof":[{"Id":101748071,"Name":"Linz","Placetype":"locality","Offset":-1},{"Id":102049853,"Name":"Linz","Placetype":"county","Offset":-1},{"Id":85632785,"Name":"Austria","Placetype":"country","Offset":-1},{"Id":85681677,"Name":"Oberösterreich","Placetype":"region","Offset":-1},{"Id":85898429,"Name":"Kleinmünchen","Placetype":"neighbourhood","Offset":-1}]}

# Attribution: City of Linz <http://geo.data.linz.gv.at/katalog/geodata/3d_geo_daten_lod2/>
# Longitude: 14.330894690092684
# Latitude: 48.27359517879577
# Elevation: 257.097

# File produced by Open Asset Import Library (http://www.assimp.sf.net)
# (assimp v3.1.0)


# 16 vertex positions
v  1.214 42.389 6.136
v  0.277 42.389 -0.057
v  0 42.389 2.59558e-15
v  1.485 42.389 -0.305
v  15.325 42.389 -3.148
v  18.054 42.389 2.674
v  16.791 42.389 -2.823
v  16.654 42.389 -3.421
v  16.654 2.09476e-16 -3.421
v  0.277 3.49024e-18 -0.057
v  0 0 0
v  15.325 1.92759e-16 -3.148
v  1.485 1.86759e-17 -0.305
v  1.214 -3.75722e-16 6.136
v  18.054 -1.63735e-16 2.674
v  16.791 1.72859e-16 -2.823

# 0 UV coordinates

# 18 vertex normals
vn 0 1 0
vn -0.201216 0 -0.979547
vn -0.201218 -4.25951e-08 -0.979547
vn -0.201104 4.23849e-05 -0.97957
vn -0.201553 -0.000138548 -0.979478
vn -0.201209 2.34357e-06 -0.979548
vn -0.201553 5.99757e-17 -0.979478
vn 0 -1 -5.9296e-17
vn -1.6348e-21 -1 -6.12329e-17
vn -0.980984 -1.18844e-17 0.194087
vn -0.980984 0 0.194087
vn 0.201371 -0 0.979515
vn 0.974747 0 -0.223313
vn 0.974606 9.11657e-06 -0.223927
vn 0.974747 -8.38144e-05 -0.223313
vn 0.974606 0 -0.223927
vn 9.35264e-25 -1 -6.12323e-17
vn 0 -1 -6.12323e-17

# Mesh 'defaultobject' with 28 faces
g defaultobject
usemtl DefaultMaterial
f  1//1 2//1 3//1
f  2//1 1//1 4//1
f  4//1 1//1 5//1
f  5//1 1//1 6//1
f  5//1 6//1 7//1
f  5//1 7//1 8//1
f  9//2 5//2 8//2
f  5//2 9//2 4//3
f  4//4 9//4 2//4
f  2//5 9//5 3//5
f  3//6 9//2 10//6
f  3//7 10//7 11//7
f  10//8 9//8 12//8
f  10//8 12//8 13//9
f  11//10 1//10 3//10
f  1//10 11//10 14//11
f  14//12 6//12 1//12
f  6//12 14//12 15//12
f  7//13 9//13 8//13
f  9//14 7//14 6//14
f  9//15 6//15 16//15
f  16//16 6//14 15//16
f  10//8 14//17 11//17
f  14//17 10//8 15//18
f  15//18 10//8 13//9
f  15//18 13//9 12//8
f  15//18 12//8 16//18
f  16//18 12//8 9//8

