# {"id":"ID_19807","idOriginal":"ID_19807","origin":[14.301861776382964,48.27508003313176],"elevation":279.616,"wof":[{"Id":102049853,"Name":"Linz","Placetype":"county","Offset":-1},{"Id":85632785,"Name":"Austria","Placetype":"country","Offset":-1},{"Id":85681677,"Name":"Oberösterreich","Placetype":"region","Offset":-1},{"Id":85898459,"Name":"Wegscheid","Placetype":"neighbourhood","Offset":-1},{"Id":101748071,"Name":"Linz","Placetype":"locality","Offset":-1}]}

# Attribution: City of Linz <http://geo.data.linz.gv.at/katalog/geodata/3d_geo_daten_lod2/>
# Longitude: 14.301861776382964
# Latitude: 48.27508003313176
# Elevation: 279.616

# File produced by Open Asset Import Library (http://www.assimp.sf.net)
# (assimp v3.1.0)


# 22 vertex positions
v  8.876 7.059 6.969
v  3.73 7.67 8.725
v  3.92 7.078 9.17
v  1.963 13.17 4.59
v  12.639 7.044 5.298
v  15.375 7.033 4.083
v  15.344 7.39 3.777
v  14.843 13.17 -1.175
v  13.826 7.063 -6.189
v  14.516 9.396 -4.409
v  0 7.063 4.32484e-16
v  3.92 -5.61501e-16 9.17
v  8.876 -4.26728e-16 6.969
v  12.639 -3.24409e-16 5.298
v  15.375 -2.50012e-16 4.083
v  15.344 -2.31275e-16 3.777
v  14.516 2.69973e-16 -4.409
v  14.843 7.1948e-17 -1.175
v  13.826 3.78967e-16 -6.189
v  0 0 0
v  1.963 -2.81056e-16 4.59
v  3.73 -5.34252e-16 8.725

# 0 UV coordinates

# 38 vertex normals
vn 0.316309 0.63279 0.706771
vn 0.31629 0.632907 0.706675
vn 0.316317 0.632926 0.706646
vn 0.316336 0.632955 0.706611
vn 0.316376 0.633051 0.706507
vn 0.316311 0.632875 0.706694
vn -0.317341 0.632763 -0.706332
vn -0.316309 0.632883 -0.706688
vn -0.316347 0.632843 -0.706707
vn 0.405882 -0 0.913926
vn 0.405882 0 0.913926
vn 0.405846 0 0.913942
vn 0.405859 -8.8677e-06 0.913936
vn 0.405846 6.45505e-06 0.913942
vn 0.405859 0 0.913936
vn 0.994924 2.46337e-05 -0.100629
vn 0.994928 0.000171801 -0.100593
vn 0.994923 0 -0.10064
vn 0.994908 -0.000137941 -0.100792
vn 0.994923 0 -0.100635
vn -1.14426e-19 -1 -6.12182e-17
vn 0.932397 0 -0.361435
vn 0.932397 0 -0.361435
vn -0.408569 0 -0.912728
vn -0.408569 5.58884e-17 -0.912728
vn -0.919445 -2.40777e-17 0.393218
vn -0.919523 7.47064e-05 0.393037
vn -0.919445 -0.000169117 0.393218
vn -0.919629 0.000104212 0.392789
vn -0.919559 -2.08659e-05 0.392953
vn -0.919679 0 0.392672
vn 4.53829e-23 -1 -6.12323e-17
vn -1.05469e-23 -1 -6.12323e-17
vn -2.79599e-24 -1 -6.12323e-17
vn -5.15777e-24 -1 -6.12323e-17
vn 0 -1 -6.12323e-17
vn 0 -1 -6.12323e-17
vn 5.04454e-24 -1 -6.12323e-17

# Mesh 'defaultobject' with 40 faces
g defaultobject
usemtl DefaultMaterial
f  1//1 2//1 3//1
f  2//2 1//2 4//2
f  4//3 1//3 5//3
f  4//4 5//4 6//4
f  4//5 6//5 7//5
f  4//6 7//6 8//6
f  9//7 8//7 10//7
f  8//8 9//8 4//8
f  4//9 9//9 11//9
f  12//10 1//10 3//10
f  1//10 12//10 13//11
f  1//12 13//12 5//12
f  5//13 13//13 6//13
f  6//14 13//12 14//14
f  6//13 14//15 15//15
f  7//16 10//16 8//16
f  10//17 7//17 6//17
f  10//18 6//18 15//18
f  10//19 15//19 16//19
f  10//18 16//20 17//20
f  17//21 16//21 18//21
f  17//22 9//22 10//22
f  9//22 17//22 19//23
f  19//24 11//24 9//24
f  11//24 19//24 20//25
f  20//26 4//26 11//26
f  4//27 20//27 2//27
f  2//28 20//28 21//28
f  2//29 21//29 3//29
f  3//30 21//30 22//30
f  3//31 22//31 12//31
f  14//32 16//21 15//32
f  16//21 14//32 18//21
f  18//21 14//32 17//21
f  17//21 14//32 19//33
f  19//33 14//32 20//34
f  20//34 14//32 13//35
f  20//34 13//35 21//36
f  21//36 13//35 22//37
f  22//37 13//35 12//38

