# {"id":"_35087","idOriginal":"_35087","origin":[14.327537622151816,48.30323397378744],"elevation":256.139,"wof":[{"Id":102049853,"Name":"Linz","Placetype":"county","Offset":-1},{"Id":85632785,"Name":"Austria","Placetype":"country","Offset":-1},{"Id":101748071,"Name":"Linz","Placetype":"locality","Offset":-1},{"Id":85681677,"Name":"Oberösterreich","Placetype":"region","Offset":-1},{"Id":85898449,"Name":"Steeg","Placetype":"neighbourhood","Offset":-1}]}

# Attribution: City of Linz <http://geo.data.linz.gv.at/katalog/geodata/3d_geo_daten_lod2/>
# Longitude: 14.327537622151816
# Latitude: 48.30323397378744
# Elevation: 256.139

# File produced by Open Asset Import Library (http://www.assimp.sf.net)
# (assimp v3.1.0)


# 11 vertex positions
v  4.358 3.771 2.265
v  8.088 2.786 4.728
v  7.042 3.771 1.416
v  2.093 2.786 6.623
v  5.995 2.786 -1.895
v  0 2.786 1.70593e-16
v  5.995 1.16035e-16 -1.895
v  0 0 0
v  2.093 -4.05542e-16 6.623
v  8.088 -2.89507e-16 4.728
v  7.042 -8.6705e-17 1.416

# 0 UV coordinates

# 16 vertex normals
vn 0.0822849 0.96206 0.260133
vn 0.0822448 0.962049 0.260189
vn -0.0822992 0.962047 -0.260178
vn -0.0822342 0.962059 -0.260155
vn -0.260178 0.962054 0.0822213
vn -0.301398 0 -0.953499
vn -0.301398 5.83849e-17 -0.953499
vn -0.95352 -1.84512e-17 0.301331
vn -0.95352 0 0.301331
vn 0.301398 -0 0.953499
vn 0.953465 0 -0.301503
vn 0.953551 -0.000263762 -0.30123
vn 0.953465 0.000450338 -0.301503
vn 0.953574 0 -0.301159
vn -1.21235e-24 -1 -6.12323e-17
vn 0 -1 -6.12323e-17

# Mesh 'defaultobject' with 18 faces
g defaultobject
usemtl DefaultMaterial
f  1//1 2//1 3//1
f  2//2 1//2 4//2
f  5//3 1//3 3//3
f  1//4 5//4 6//4
f  1//5 6//5 4//5
f  7//6 6//6 5//6
f  6//6 7//6 8//7
f  8//8 4//8 6//8
f  4//8 8//8 9//9
f  9//10 2//10 4//10
f  2//10 9//10 10//10
f  3//11 7//11 5//11
f  7//12 3//12 2//12
f  7//13 2//13 11//13
f  11//14 2//14 10//14
f  11//15 8//15 7//15
f  8//15 11//15 9//16
f  9//16 11//15 10//16

