# {"id":"ID_47383","idOriginal":"ID_47383","origin":[14.292931974509598,48.34395400972841],"elevation":290.297}
# Longitude: 14.292931974509598
# Latitude: 48.34395400972841
# Elevation: 290.297

# File produced by Open Asset Import Library (http://www.assimp.sf.net)
# (assimp v3.1.0)

mtllib ID_47383.obj.mtl

# 16 vertex positions
v  0.241 2.619 5.346
v  2.613 2.619 -0.166
v  0 2.619 1.60368e-16
v  2.762 2.619 3.087
v  2.862 2.619 3.083
v  4.057 2.619 3.032
v  2.96 2.619 5.272
v  4.2 2.619 5.239
v  2.613 1.01646e-17 -0.166
v  0 0 0
v  4.057 -1.85656e-16 3.032
v  2.762 -1.89024e-16 3.087
v  2.862 -1.88779e-16 3.083
v  0.241 -3.27348e-16 5.346
v  2.96 -3.22817e-16 5.272
v  4.2 -3.20796e-16 5.239

# 0 UV coordinates

# 17 vertex normals
vn 0 1 0
vn -0.0634007 0 -0.997988
vn -0.0634007 6.11092e-17 -0.997988
vn -0.0426389 0 -0.999091
vn -0.0399675 0.00122103 -0.9992
vn -0.0424327 -0 -0.999099
vn -3.33169e-22 -1 -6.12404e-17
vn -0.998985 -2.75758e-18 0.0450347
vn -0.998985 0 0.0450347
vn 0.0272059 -0 0.99963
vn 0.0266035 0 0.999646
vn 0.997907 0 -0.0646581
vn 0.998953 0 -0.045756
vn 7.69429e-24 -1 -6.12323e-17
vn -1.32142e-23 -1 -6.12324e-17
vn -5.66332e-24 -1 -6.12323e-17
vn 0 -1 -6.12323e-17

# Mesh 'defaultobject' with 28 faces
g defaultobject
usemtl DefaultMaterial
f  1//1 2//1 3//1
f  2//1 1//1 4//1
f  4//1 1//1 5//1
f  5//1 1//1 6//1
f  6//1 1//1 7//1
f  6//1 7//1 8//1
f  9//2 3//2 2//2
f  3//2 9//2 10//3
f  11//4 5//4 6//4
f  5//5 11//5 4//5
f  4//6 11//6 12//6
f  12//7 11//7 13//7
f  10//8 1//8 3//8
f  1//8 10//8 14//9
f  14//10 7//10 1//10
f  7//10 14//10 15//10
f  7//11 15//11 8//11
f  8//11 15//11 16//11
f  16//12 6//12 8//12
f  6//12 16//12 11//12
f  12//13 2//13 4//13
f  2//13 12//13 9//13
f  15//14 11//7 16//14
f  11//7 15//14 14//15
f  11//7 14//15 13//7
f  13//7 14//15 12//7
f  12//7 14//15 10//16
f  12//7 10//16 9//17

