# File produced by Open Asset Import Library (http://www.assimp.sf.net)
# (assimp v3.1.0)

mtllib ID_12163.obj.mtl

# 26 vertex positions
v  19.5 9.616 3.367
v  11.679 9.616 6.434
v  16.385 9.616 9.026
v  0.247 9.616 0.136
v  14.746 9.616 0.732
v  14.668 9.616 0.689
v  14.722 9.616 0.588
v  14.962 9.616 0.136
v  18.013 9.616 -5.596
v  0 9.616 5.8881e-16
v  3.121 9.616 -5.803
v  10.798 9.616 -9.617
v  6.46 9.616 -12.01
v  18.013 3.42656e-16 -5.596
v  10.798 5.88871e-16 -9.617
v  6.46 7.354e-16 -12.01
v  19.5 -2.06169e-16 3.367
v  14.668 -4.21891e-17 0.689
v  14.746 -4.48221e-17 0.732
v  3.121 3.55331e-16 -5.803
v  0 0 0
v  0.247 -8.3276e-18 0.136
v  11.679 -3.93969e-16 6.434
v  16.385 -5.52683e-16 9.026
v  14.722 -3.60046e-17 0.588
v  14.962 -8.3276e-18 0.136

# 0 UV coordinates

# 33 vertex normals
vn 0 1 0
vn 0.486814 0 -0.873505
vn 0.483015 -0.00372786 -0.875604
vn 0.486813 0.00223599 -0.873503
vn 0.483019 0 -0.87561
vn 0.484784 0 -0.874634
vn 0.48278 -0.00129401 -0.875741
vn 0.484751 0 -0.874652
vn -2.23911e-21 1 6.12365e-17
vn -0.880662 0 -0.473744
vn -0.880705 -6.58057e-05 -0.473665
vn -0.880662 6.15196e-05 -0.473744
vn -0.880705 2.90036e-17 -0.473665
vn -0.482327 -5.3639e-17 0.875991
vn -0.48253 6.80255e-06 0.875879
vn -0.482327 -0.000312335 0.875991
vn -0.48253 0 0.875879
vn -0.482447 0 0.875925
vn 0.876049 -0 0.482222
vn 0.881869 -0 0.471494
vn 0.883217 -3.41334e-05 0.468964
vn 0.882741 3.19842e-05 0.469861
vn 0.882761 0 0.469823
vn 0 1 6.1275e-17
vn 0 -1 -6.12569e-17
vn -3.0508e-24 -1 -6.12323e-17
vn -6.27851e-25 -1 -6.12323e-17
vn 0 -1 -6.12323e-17
vn -1.07525e-24 -1 -6.12323e-17
vn 0 -1 -6.12323e-17
vn 7.60064e-26 -1 -6.12323e-17
vn 1.70006e-25 -1 -6.12323e-17
vn 9.09713e-24 -1 -6.12323e-17

# Mesh 'defaultobject' with 48 faces
g defaultobject
usemtl DefaultMaterial
f  1//1 2//1 3//1
f  2//1 1//1 4//1
f  4//1 1//1 5//1
f  4//1 5//1 6//1
f  4//1 6//1 7//1
f  4//1 7//1 8//1
f  4//1 8//1 9//1
f  4//1 9//1 10//1
f  10//1 9//1 11//1
f  11//1 9//1 12//1
f  11//1 12//1 13//1
f  14//2 12//2 9//2
f  12//3 14//3 13//3
f  13//4 14//4 15//4
f  13//5 15//5 16//5
f  17//6 5//6 1//6
f  5//7 17//7 6//7
f  6//8 17//8 18//8
f  18//9 17//9 19//9
f  16//10 11//10 13//10
f  11//11 16//11 10//11
f  10//12 16//12 20//12
f  10//13 20//13 21//13
f  21//14 4//14 10//14
f  4//15 21//15 2//15
f  2//16 21//16 22//16
f  2//15 22//17 23//17
f  2//18 23//18 3//18
f  3//18 23//18 24//18
f  24//19 1//19 3//19
f  1//19 24//19 17//19
f  18//20 7//20 6//20
f  7//21 18//21 8//21
f  8//22 18//22 9//22
f  9//23 18//23 14//23
f  14//24 18//9 25//24
f  14//25 25//25 26//25
f  23//26 17//26 24//26
f  17//26 23//26 22//27
f  17//26 22//27 19//28
f  19//28 22//27 18//29
f  18//29 22//27 25//25
f  25//25 22//27 26//25
f  26//25 22//27 14//25
f  14//25 22//27 21//30
f  14//25 21//30 20//31
f  14//25 20//31 15//32
f  15//32 20//31 16//33

