# File produced by Open Asset Import Library (http://www.assimp.sf.net)
# (assimp v3.1.0)

mtllib ID_30673.obj.mtl

# 10 vertex positions
v  2.759 7.846 12.359
v  4.964 6.312 -1.078
v  0 6.312 3.86499e-16
v  5.167 6.426 -0.155
v  7.707 7.843 11.255
v  7.707 -6.8917e-16 11.255
v  5.167 9.49101e-18 -0.155
v  4.964 6.60085e-17 -1.078
v  0 0 0
v  2.759 -7.56771e-16 12.359

# 0 UV coordinates

# 16 vertex normals
vn -0.0255215 0.992742 -0.117522
vn -0.0241669 0.992802 -0.117306
vn -0.0256327 0.992733 -0.117581
vn 0.976107 0 -0.217293
vn 0.976106 0 -0.217293
vn 0.976658 0 -0.214801
vn 0.976658 0 -0.214801
vn -0.212217 0 -0.977223
vn -0.212217 5.98376e-17 -0.977223
vn -0.975977 0 0.217875
vn -0.975977 0 0.217875
vn 0.217766 -0 0.976001
vn 0.217766 0 0.976001
vn -1.72308e-25 -1 -6.12323e-17
vn -1.115e-25 -1 -6.12323e-17
vn 1.3194e-23 -1 -6.12323e-17

# Mesh 'defaultobject' with 16 faces
g defaultobject
usemtl DefaultMaterial
f  1//1 2//1 3//1
f  2//2 1//2 4//2
f  4//3 1//3 5//3
f  6//4 4//4 5//4
f  4//4 6//4 7//5
f  4//6 7//6 2//6
f  2//6 7//6 8//7
f  8//8 3//8 2//8
f  3//8 8//8 9//9
f  3//10 10//10 1//10
f  10//10 3//10 9//11
f  10//12 5//12 1//12
f  5//12 10//12 6//13
f  7//14 9//14 8//14
f  9//14 7//14 6//15
f  9//14 6//15 10//16

