# File produced by Open Asset Import Library (http://www.assimp.sf.net)
# (assimp v3.1.0)

mtllib ID_33289.obj.mtl

# 8 vertex positions
v  0 2.416 1.47937e-16
v  10.044 5.254 3.355
v  8.897 2.42 -2.111
v  1.101 5.254 5.485
v  10.044 -2.05434e-16 3.355
v  8.897 1.29261e-16 -2.111
v  0 0 0
v  1.101 -3.35859e-16 5.485

# 0 UV coordinates

# 10 vertex normals
vn -0.104875 0.891696 -0.440317
vn -0.104874 0.891694 -0.440321
vn 0.978684 0 -0.20537
vn -0.230861 0 -0.972987
vn -0.230861 5.95783e-17 -0.972987
vn -0.980443 0 0.196804
vn -0.980443 0 0.196804
vn 0.231694 -0 0.972789
vn 2.07393e-24 -1 -6.12323e-17
vn 2.06001e-24 -1 -6.12323e-17

# Mesh 'defaultobject' with 12 faces
g defaultobject
usemtl DefaultMaterial
f  1//1 2//1 3//1
f  2//1 1//1 4//2
f  5//3 3//3 2//3
f  3//3 5//3 6//3
f  6//4 1//4 3//4
f  1//4 6//4 7//5
f  1//6 8//6 4//6
f  8//6 1//6 7//7
f  8//8 2//8 4//8
f  2//8 8//8 5//8
f  5//9 7//9 6//9
f  7//9 5//9 8//10

