# {"id":"ID_33599","idOriginal":"ID_33599","origin":[14.31780815532888,48.26618891701],"elevation":258.69,"wof":[{"Id":102049853,"Name":"Linz","Placetype":"county","Offset":-1},{"Id":85898429,"Name":"Kleinmünchen","Placetype":"neighbourhood","Offset":-1},{"Id":85632785,"Name":"Austria","Placetype":"country","Offset":-1},{"Id":101748071,"Name":"Linz","Placetype":"locality","Offset":-1},{"Id":85681677,"Name":"Oberösterreich","Placetype":"region","Offset":-1}]}

# Attribution: City of Linz <http://geo.data.linz.gv.at/katalog/geodata/3d_geo_daten_lod2/>
# Longitude: 14.31780815532888
# Latitude: 48.26618891701
# Elevation: 258.69

# File produced by Open Asset Import Library (http://www.assimp.sf.net)
# (assimp v3.1.0)


# 10 vertex positions
v  6.255 3.281 -1.804
v  13.95 4.487 -0.343
v  12.944 3.259 -3.874
v  1.142 4.532 3.629
v  0 3.259 1.99556e-16
v  6.255 1.10463e-16 -1.804
v  12.944 2.37214e-16 -3.874
v  0 0 0
v  1.142 -2.22212e-16 3.629
v  13.95 2.10027e-17 -0.343

# 0 UV coordinates

# 14 vertex normals
vn -0.0909295 0.948352 -0.303909
vn -0.0909235 0.948344 -0.303934
vn -0.0910153 0.94831 -0.304012
vn -0.295631 0 -0.955302
vn -0.277114 0 -0.960837
vn -0.277114 5.88343e-17 -0.960837
vn -0.953884 0 0.300175
vn -0.953884 0 0.300175
vn 0.296202 -0 0.955125
vn 0.296202 0 0.955125
vn 0.961729 0 -0.274001
vn -2.13815e-24 -1 -6.12323e-17
vn -2.14865e-24 -1 -6.12323e-17
vn -1.0299e-24 -1 -6.12323e-17

# Mesh 'defaultobject' with 16 faces
g defaultobject
usemtl DefaultMaterial
f  1//1 2//1 3//1
f  2//2 1//2 4//2
f  4//3 1//3 5//3
f  3//4 6//4 1//4
f  6//4 3//4 7//4
f  6//5 5//5 1//5
f  5//5 6//5 8//6
f  5//7 9//7 4//7
f  9//7 5//7 8//8
f  9//9 2//9 4//9
f  2//9 9//9 10//10
f  10//11 3//11 2//11
f  3//11 10//11 7//11
f  6//12 9//12 8//12
f  9//12 6//12 10//13
f  10//13 6//12 7//14

