# {"id":"_60830","idOriginal":"_60830","origin":[14.309760107368938,48.30383417671274],"elevation":259.8,"wof":[{"Id":102049853,"Name":"Linz","Placetype":"county","Offset":-1},{"Id":101748071,"Name":"Linz","Placetype":"locality","Offset":-1},{"Id":85632785,"Name":"Austria","Placetype":"country","Offset":-1},{"Id":85681677,"Name":"Oberösterreich","Placetype":"region","Offset":-1},{"Id":85898449,"Name":"Steeg","Placetype":"neighbourhood","Offset":-1}]}

# Attribution: City of Linz <http://geo.data.linz.gv.at/katalog/geodata/3d_geo_daten_lod2/>
# Longitude: 14.309760107368938
# Latitude: 48.30383417671274
# Elevation: 259.8

# File produced by Open Asset Import Library (http://www.assimp.sf.net)
# (assimp v3.1.0)


# 6 vertex positions
v  0 11.84 7.24991e-16
v  1.18 11.84 -0.913
v  0.322 11.84 -1.112
v  0 0 0
v  1.18 5.59051e-17 -0.913
v  0.322 6.80904e-17 -1.112

# 0 UV coordinates

# 7 vertex normals
vn 0 1 0
vn 0.611943 -4.84288e-17 0.790902
vn 0.611943 0 0.790902
vn 0.225937 0 -0.974142
vn -0.96054 0 -0.278142
vn -0.96054 1.70313e-17 -0.278142
vn -1.62483e-24 -1 -6.12323e-17

# Mesh 'defaultobject' with 8 faces
g defaultobject
usemtl DefaultMaterial
f  1//1 2//1 3//1
f  4//2 2//2 1//2
f  2//2 4//2 5//3
f  5//4 3//4 2//4
f  3//4 5//4 6//4
f  6//5 1//5 3//5
f  1//5 6//5 4//6
f  5//7 4//7 6//7

