# {"id":"ID_18423","idOriginal":"ID_18423","origin":[14.330464614227523,48.283034344240974],"elevation":255.631,"wof":[{"Id":102049853,"Name":"Linz","Placetype":"county","Offset":-1},{"Id":85681677,"Name":"Oberösterreich","Placetype":"region","Offset":-1},{"Id":101748071,"Name":"Linz","Placetype":"locality","Offset":-1},{"Id":85898459,"Name":"Wegscheid","Placetype":"neighbourhood","Offset":-1},{"Id":85632785,"Name":"Austria","Placetype":"country","Offset":-1}]}

# Attribution: City of Linz <http://geo.data.linz.gv.at/katalog/geodata/3d_geo_daten_lod2/>
# Longitude: 14.330464614227523
# Latitude: 48.283034344240974
# Elevation: 255.631

# File produced by Open Asset Import Library (http://www.assimp.sf.net)
# (assimp v3.1.0)


# 128 vertex positions
v  6.753 15.629 -6.998
v  8.068 15.629 -6.926
v  7.362 15.629 -6.998
v  6.652 15.629 -6.998
v  5.946 15.629 -6.926
v  8.763 15.629 -6.783
v  5.251 15.629 -6.783
v  9.441 15.629 -6.571
v  10.093 15.629 -6.291
v  4.573 15.629 -6.571
v  10.713 15.629 -5.947
v  4.374 15.629 -6.486
v  3.921 15.629 -6.291
v  11.296 15.629 -5.541
v  3.301 15.629 -5.947
v  2.718 15.629 -5.541
v  11.835 15.629 -5.079
v  12.324 15.629 -4.564
v  2.179 15.629 -5.079
v  1.69 15.629 -4.564
v  12.758 15.629 -4.003
v  13.134 15.629 -3.401
v  1.256 15.629 -4.003
v  13.446 15.629 -2.763
v  0.88 15.629 -3.401
v  0.568 15.629 -2.763
v  13.693 15.629 -2.098
v  13.871 15.629 -1.411
v  0.321 15.629 -2.098
v  13.978 15.629 -0.709
v  0.143 15.629 -1.411
v  14.014 15.629 9.57e-16
v  0.036 15.629 -0.709
v  13.978 15.629 0.709
v  0 15.629 9.57e-16
v  13.871 15.629 1.411
v  0.036 15.629 0.709
v  13.693 15.629 2.098
v  0.143 15.629 1.41
v  0.321 15.629 2.098
v  13.446 15.629 2.763
v  13.133 15.629 3.401
v  0.568 15.629 2.763
v  0.88 15.629 3.4
v  12.758 15.629 4.003
v  1.256 15.629 4.003
v  12.324 15.629 4.564
v  11.834 15.629 5.079
v  1.69 15.629 4.564
v  2.179 15.629 5.079
v  11.296 15.629 5.541
v  10.713 15.629 5.946
v  2.718 15.629 5.541
v  10.093 15.629 6.291
v  3.3 15.629 5.946
v  3.921 15.629 6.291
v  9.44 15.629 6.571
v  8.763 15.629 6.783
v  4.573 15.629 6.571
v  8.068 15.629 6.926
v  5.251 15.629 6.783
v  5.946 15.629 6.926
v  7.362 15.629 6.998
v  6.652 15.629 6.998
v  3.921 3.85213e-16 -6.291
v  4.374 3.97153e-16 -6.486
v  4.573 4.02358e-16 -6.571
v  3.301 3.64149e-16 -5.947
v  2.718 3.39288e-16 -5.541
v  2.179 3.10999e-16 -5.079
v  1.69 2.79464e-16 -4.564
v  1.256 2.45113e-16 -4.003
v  0.88 2.08251e-16 -3.401
v  0.568 1.69185e-16 -2.763
v  0.321 1.28465e-16 -2.098
v  0.143 8.63988e-17 -1.411
v  0.036 4.34137e-17 -0.709
v  0 0 0
v  0.036 -4.34137e-17 0.709
v  0.143 -8.63376e-17 1.41
v  0.321 -1.28465e-16 2.098
v  0.568 -1.69185e-16 2.763
v  0.88 -2.0819e-16 3.4
v  1.256 -2.45113e-16 4.003
v  1.69 -2.79464e-16 4.564
v  2.179 -3.10999e-16 5.079
v  2.718 -3.39288e-16 5.541
v  3.3 -3.64087e-16 5.946
v  3.921 -3.85213e-16 6.291
v  4.573 -4.02358e-16 6.571
v  8.763 -4.15339e-16 6.783
v  8.068 -4.24095e-16 6.926
v  9.44 -4.02358e-16 6.571
v  5.251 -4.15339e-16 6.783
v  5.946 -4.24095e-16 6.926
v  6.652 -4.28504e-16 6.998
v  7.362 -4.28504e-16 6.998
v  10.093 -3.85213e-16 6.291
v  10.713 -3.64087e-16 5.946
v  11.296 -3.39288e-16 5.541
v  11.834 -3.10999e-16 5.079
v  12.324 -2.79464e-16 4.564
v  12.758 -2.45113e-16 4.003
v  13.133 -2.08251e-16 3.401
v  13.446 -1.69185e-16 2.763
v  13.693 -1.28465e-16 2.098
v  13.871 -8.63988e-17 1.411
v  13.978 -4.34137e-17 0.709
v  14.014 0 0
v  13.978 4.34137e-17 -0.709
v  13.871 8.63988e-17 -1.411
v  13.693 1.28465e-16 -2.098
v  13.446 1.69185e-16 -2.763
v  13.134 2.08251e-16 -3.401
v  12.758 2.45113e-16 -4.003
v  12.324 2.79464e-16 -4.564
v  11.835 3.10999e-16 -5.079
v  11.296 3.39288e-16 -5.541
v  10.713 3.64149e-16 -5.947
v  10.093 3.85213e-16 -6.291
v  9.441 4.02358e-16 -6.571
v  8.763 4.15339e-16 -6.783
v  8.068 4.24095e-16 -6.926
v  7.362 4.28504e-16 -6.998
v  6.652 4.28504e-16 -6.998
v  6.753 4.28504e-16 -6.998
v  5.946 4.24095e-16 -6.926
v  5.251 4.15339e-16 -6.783

# 0 UV coordinates

# 128 vertex normals
vn 0 1 0
vn -0.395387 0 -0.918514
vn -0.392804 -8.87018e-05 -0.919622
vn -0.395387 3.89192e-05 -0.918514
vn -0.392804 0 -0.919622
vn -0.485164 0 -0.874423
vn -0.571477 0 -0.820618
vn -0.650791 0 -0.759257
vn -0.725175 0 -0.688564
vn -0.790944 0 -0.611889
vn -0.848156 0 -0.529746
vn -0.898335 0 -0.439311
vn -0.937425 0 -0.348187
vn -0.968035 0 -0.250815
vn -0.988582 0 -0.150681
vn -0.998713 0 -0.0507104
vn -0.998713 3.10512e-18 -0.0507104
vn -0.998713 -3.10512e-18 0.0507104
vn -0.998713 0 0.0507104
vn -0.98855 0 0.150891
vn -0.968123 0 0.250474
vn -0.937425 0 0.348187
vn -0.898063 0 0.439867
vn -0.848551 0 0.529113
vn -0.790944 0 0.611889
vn -0.725175 0 0.688564
vn -0.650791 0 0.759257
vn -0.571189 0 0.820819
vn -0.485643 0 0.874157
vn -0.3946 0 0.918853
vn 0.201534 0 0.979482
vn 0.298837 -0 0.954304
vn -0.298435 0 0.95443
vn -0.201534 0 0.979482
vn -0.101457 0 0.99484
vn 0 0 1
vn 0.101457 -0 0.99484
vn 0.394089 -0 0.919072
vn 0.486241 -0 0.873825
vn 0.570529 -0 0.821278
vn 0.651488 -0 0.758659
vn 0.724472 -0 0.689304
vn 0.790944 -0 0.611889
vn 0.848789 -0 0.528731
vn 0.897779 -0 0.440446
vn 0.937425 -0 0.348186
vn 0.968035 -0 0.250816
vn 0.988582 -0 0.150681
vn 0.998713 -0 0.0507108
vn 0.998713 -3.10514e-18 0.0507108
vn 0.998713 3.10514e-18 -0.0507108
vn 0.998713 0 -0.0507108
vn 0.988582 0 -0.150681
vn 0.968035 0 -0.250816
vn 0.937425 0 -0.348186
vn 0.898335 0 -0.439311
vn 0.848157 0 -0.529745
vn 0.790944 0 -0.611889
vn 0.725175 0 -0.688565
vn 0.650791 0 -0.759257
vn 0.571477 0 -0.820618
vn 0.485164 0 -0.874423
vn 0.3946 0 -0.918853
vn 0.298435 0 -0.95443
vn 0.201534 0 -0.979482
vn 0.101457 0 -0.99484
vn 0 0 -1
vn -0.101457 0 -0.99484
vn -0.201534 0 -0.979482
vn -0.298435 0 -0.95443
vn 5.49643e-22 -1 -6.12315e-17
vn 3.27519e-23 -1 -6.12323e-17
vn -4.34697e-23 -1 -6.12324e-17
vn -2.28657e-22 -1 -6.12326e-17
vn 3.43011e-22 -1 -6.12317e-17
vn -7.06285e-23 -1 -6.12324e-17
vn 1.08726e-22 -1 -6.12322e-17
vn -7.30022e-23 -1 -6.12324e-17
vn 6.13637e-23 -1 -6.12323e-17
vn -1.24137e-23 -1 -6.12324e-17
vn -1.24473e-22 -1 -6.12325e-17
vn 4.31528e-24 -1 -6.12323e-17
vn 0 -1 -6.12324e-17
vn -6.67591e-24 -1 -6.12323e-17
vn 0 -1 -6.12323e-17
vn 0 -1 -6.12323e-17
vn -3.87169e-23 -1 -6.12324e-17
vn 0 -1 -6.12323e-17
vn 3.27971e-23 -1 -6.12323e-17
vn -2.86937e-23 -1 -6.12324e-17
vn 1.0182e-23 -1 -6.12323e-17
vn 0 -1 -6.12323e-17
vn -3.08444e-24 -1 -6.12323e-17
vn 0 -1 -6.12323e-17
vn 2.30476e-23 -1 -6.12323e-17
vn 8.42135e-24 -1 -6.12323e-17
vn -1.37523e-23 -1 -6.12324e-17
vn -4.32687e-23 -1 -6.12324e-17
vn -2.14001e-23 -1 -6.12324e-17
vn 4.26621e-23 -1 -6.12323e-17
vn -4.26311e-23 -1 -6.12324e-17
vn 4.01995e-23 -1 -6.12323e-17
vn -1.6225e-23 -1 -6.12324e-17
vn -4.39558e-23 -1 -6.12324e-17
vn -5.61265e-24 -1 -6.12323e-17
vn -4.61086e-23 -1 -6.12324e-17
vn 1.8547e-23 -1 -6.12323e-17
vn -4.02732e-23 -1 -6.12324e-17
vn -2.71172e-23 -1 -6.12323e-17
vn 8.96677e-24 -1 -6.12323e-17
vn -3.05557e-23 -1 -6.12323e-17
vn 1.94732e-23 -1 -6.12323e-17
vn 0 -1 -6.12323e-17
vn -2.6013e-23 -1 -6.12324e-17
vn -4.25795e-23 -1 -6.12324e-17
vn 6.89288e-23 -1 -6.12322e-17
vn -2.67037e-23 -1 -6.12324e-17
vn -3.52952e-23 -1 -6.12324e-17
vn -4.14231e-23 -1 -6.12323e-17
vn -9.34681e-23 -1 -6.12325e-17
vn 4.79363e-23 -1 -6.12323e-17
vn -7.77101e-23 -1 -6.12324e-17
vn -4.47506e-23 -1 -6.12324e-17
vn 1.4176e-22 -1 -6.12321e-17
vn -5.91957e-23 -1 -6.12324e-17
vn -4.37179e-23 -1 -6.12324e-17
vn 4.34542e-23 -1 -6.12323e-17
vn 4.96651e-22 -1 -6.12316e-17

# Mesh 'defaultobject' with 252 faces
g defaultobject
usemtl DefaultMaterial
f  1//1 2//1 3//1
f  2//1 1//1 4//1
f  2//1 4//1 5//1
f  2//1 5//1 6//1
f  6//1 5//1 7//1
f  6//1 7//1 8//1
f  8//1 7//1 9//1
f  9//1 7//1 10//1
f  9//1 10//1 11//1
f  11//1 10//1 12//1
f  11//1 12//1 13//1
f  11//1 13//1 14//1
f  14//1 13//1 15//1
f  14//1 15//1 16//1
f  14//1 16//1 17//1
f  17//1 16//1 18//1
f  18//1 16//1 19//1
f  18//1 19//1 20//1
f  18//1 20//1 21//1
f  21//1 20//1 22//1
f  22//1 20//1 23//1
f  22//1 23//1 24//1
f  24//1 23//1 25//1
f  24//1 25//1 26//1
f  24//1 26//1 27//1
f  27//1 26//1 28//1
f  28//1 26//1 29//1
f  28//1 29//1 30//1
f  30//1 29//1 31//1
f  30//1 31//1 32//1
f  32//1 31//1 33//1
f  32//1 33//1 34//1
f  34//1 33//1 35//1
f  34//1 35//1 36//1
f  36//1 35//1 37//1
f  36//1 37//1 38//1
f  38//1 37//1 39//1
f  38//1 39//1 40//1
f  38//1 40//1 41//1
f  41//1 40//1 42//1
f  42//1 40//1 43//1
f  42//1 43//1 44//1
f  42//1 44//1 45//1
f  45//1 44//1 46//1
f  45//1 46//1 47//1
f  47//1 46//1 48//1
f  48//1 46//1 49//1
f  48//1 49//1 50//1
f  48//1 50//1 51//1
f  51//1 50//1 52//1
f  52//1 50//1 53//1
f  52//1 53//1 54//1
f  54//1 53//1 55//1
f  54//1 55//1 56//1
f  54//1 56//1 57//1
f  57//1 56//1 58//1
f  58//1 56//1 59//1
f  58//1 59//1 60//1
f  60//1 59//1 61//1
f  60//1 61//1 62//1
f  60//1 62//1 63//1
f  63//1 62//1 64//1
f  12//2 65//2 13//2
f  65//3 12//3 10//3
f  65//4 10//4 66//4
f  66//5 10//5 67//5
f  65//6 15//6 13//6
f  15//6 65//6 68//6
f  68//7 16//7 15//7
f  16//7 68//7 69//7
f  69//8 19//8 16//8
f  19//8 69//8 70//8
f  70//9 20//9 19//9
f  20//9 70//9 71//9
f  71//10 23//10 20//10
f  23//10 71//10 72//10
f  72//11 25//11 23//11
f  25//11 72//11 73//11
f  73//12 26//12 25//12
f  26//12 73//12 74//12
f  74//13 29//13 26//13
f  29//13 74//13 75//13
f  75//14 31//14 29//14
f  31//14 75//14 76//14
f  76//15 33//15 31//15
f  33//15 76//15 77//15
f  77//16 35//16 33//16
f  35//16 77//16 78//17
f  78//18 37//18 35//18
f  37//18 78//18 79//19
f  79//20 39//20 37//20
f  39//20 79//20 80//20
f  80//21 40//21 39//21
f  40//21 80//21 81//21
f  81//22 43//22 40//22
f  43//22 81//22 82//22
f  82//23 44//23 43//23
f  44//23 82//23 83//23
f  83//24 46//24 44//24
f  46//24 83//24 84//24
f  84//25 49//25 46//25
f  49//25 84//25 85//25
f  85//26 50//26 49//26
f  50//26 85//26 86//26
f  86//27 53//27 50//27
f  53//27 86//27 87//27
f  87//28 55//28 53//28
f  55//28 87//28 88//28
f  88//29 56//29 55//29
f  56//29 88//29 89//29
f  89//30 59//30 56//30
f  59//30 89//30 90//30
f  91//31 60//31 92//31
f  60//31 91//31 58//31
f  91//32 57//32 58//32
f  57//32 91//32 93//32
f  90//33 61//33 59//33
f  61//33 90//33 94//33
f  94//34 62//34 61//34
f  62//34 94//34 95//34
f  95//35 64//35 62//35
f  64//35 95//35 96//35
f  96//36 63//36 64//36
f  63//36 96//36 97//36
f  97//37 60//37 63//37
f  60//37 97//37 92//37
f  93//38 54//38 57//38
f  54//38 93//38 98//38
f  98//39 52//39 54//39
f  52//39 98//39 99//39
f  99//40 51//40 52//40
f  51//40 99//40 100//40
f  100//41 48//41 51//41
f  48//41 100//41 101//41
f  101//42 47//42 48//42
f  47//42 101//42 102//42
f  102//43 45//43 47//43
f  45//43 102//43 103//43
f  103//44 42//44 45//44
f  42//44 103//44 104//44
f  104//45 41//45 42//45
f  41//45 104//45 105//45
f  105//46 38//46 41//46
f  38//46 105//46 106//46
f  106//47 36//47 38//47
f  36//47 106//47 107//47
f  107//48 34//48 36//48
f  34//48 107//48 108//48
f  108//49 32//49 34//49
f  32//49 108//49 109//50
f  109//51 30//51 32//51
f  30//51 109//51 110//52
f  110//53 28//53 30//53
f  28//53 110//53 111//53
f  111//54 27//54 28//54
f  27//54 111//54 112//54
f  112//55 24//55 27//55
f  24//55 112//55 113//55
f  113//56 22//56 24//56
f  22//56 113//56 114//56
f  114//57 21//57 22//57
f  21//57 114//57 115//57
f  115//58 18//58 21//58
f  18//58 115//58 116//58
f  116//59 17//59 18//59
f  17//59 116//59 117//59
f  117//60 14//60 17//60
f  14//60 117//60 118//60
f  118//61 11//61 14//61
f  11//61 118//61 119//61
f  119//62 9//62 11//62
f  9//62 119//62 120//62
f  120//63 8//63 9//63
f  8//63 120//63 121//63
f  121//64 6//64 8//64
f  6//64 121//64 122//64
f  122//65 2//65 6//65
f  2//65 122//65 123//65
f  123//66 3//66 2//66
f  3//66 123//66 124//66
f  124//67 1//67 3//67
f  1//67 124//67 4//67
f  4//67 124//67 125//67
f  125//67 124//67 126//18
f  125//68 5//68 4//68
f  5//68 125//68 127//68
f  127//69 7//69 5//69
f  7//69 127//69 128//69
f  128//70 10//70 7//70
f  10//70 128//70 67//70
f  65//71 69//71 68//71
f  69//71 65//71 70//72
f  70//72 65//71 71//73
f  71//73 65//71 66//74
f  71//73 66//74 67//75
f  71//73 67//75 128//76
f  71//73 128//76 72//77
f  72//77 128//76 73//78
f  73//78 128//76 127//79
f  73//78 127//79 74//80
f  74//80 127//79 125//81
f  74//80 125//81 126//18
f  74//80 126//18 75//82
f  75//82 126//18 124//83
f  75//82 124//83 76//84
f  76//84 124//83 123//85
f  76//84 123//85 77//86
f  77//86 123//85 122//87
f  77//86 122//87 78//88
f  78//88 122//87 121//89
f  78//88 121//89 79//88
f  79//88 121//89 120//90
f  79//88 120//90 80//91
f  80//91 120//90 119//92
f  80//91 119//92 81//93
f  81//93 119//92 118//94
f  81//93 118//94 117//95
f  81//93 117//95 82//96
f  82//96 117//95 83//97
f  83//97 117//95 116//98
f  83//97 116//98 84//99
f  84//99 116//98 115//100
f  84//99 115//100 114//101
f  84//99 114//101 85//102
f  85//102 114//101 86//103
f  86//103 114//101 113//104
f  86//103 113//104 87//105
f  87//105 113//104 112//106
f  87//105 112//106 111//86
f  87//105 111//86 88//107
f  88//107 111//86 89//108
f  89//108 111//86 110//109
f  89//108 110//109 90//110
f  90//110 110//109 109//111
f  90//110 109//111 94//112
f  94//112 109//111 108//113
f  94//112 108//113 95//114
f  95//114 108//113 107//115
f  95//114 107//115 96//116
f  96//116 107//115 106//117
f  96//116 106//117 97//86
f  97//86 106//117 105//118
f  97//86 105//118 104//119
f  97//86 104//119 92//120
f  92//120 104//119 91//121
f  91//121 104//119 103//122
f  91//121 103//122 93//123
f  93//123 103//122 102//124
f  93//123 102//124 98//125
f  98//125 102//124 101//126
f  98//125 101//126 100//127
f  98//125 100//127 99//128

