# {"id":"_11488","idOriginal":"_11488","origin":[14.314971020892852,48.29484019576945],"elevation":258.316}
# Longitude: 14.314971020892852
# Latitude: 48.29484019576945
# Elevation: 258.316

# File produced by Open Asset Import Library (http://www.assimp.sf.net)
# (assimp v3.1.0)

mtllib _11488.obj.mtl

# 22 vertex positions
v  19.651 7.964 9.761
v  17.358 7.952 11.112
v  19.669 7.946 9.792
v  11.331 11.062 7.541
v  9.124 7.973 15.815
v  8.255 11.062 2.243
v  11.191 7.958 -4.833
v  10.472 7.967 -6.049
v  7.617 7.964 -4.409
v  0 7.97 4.88022e-16
v  0.027 7.998 0.047
v  9.015 7.909 15.877
v  10.472 3.70394e-16 -6.049
v  11.191 2.95936e-16 -4.833
v  19.651 -5.97689e-16 9.761
v  19.669 -5.99587e-16 9.792
v  0 0 0
v  7.617 2.69973e-16 -4.409
v  9.015 -9.72186e-16 15.877
v  0.027 -2.87792e-18 0.047
v  9.124 -9.68389e-16 15.815
v  17.358 -6.80414e-16 11.112

# 0 UV coordinates

# 35 vertex normals
vn 0.224309 0.893665 0.388649
vn 0.226919 0.891075 0.393056
vn 0.226838 0.891046 0.393168
vn 0.394716 0.890372 -0.226799
vn 0.392604 0.89101 -0.227955
vn 0.392596 0.891017 -0.22794
vn -0.226814 0.891029 -0.39322
vn -0.2269 0.891014 -0.393205
vn -0.223914 0.888448 -0.400652
vn -0.393157 0.890694 0.228236
vn -0.392615 0.891013 0.227923
vn -0.392636 0.890994 0.227963
vn 0.860786 0 -0.508968
vn 0.865147 -0.0015326 -0.501517
vn 0.860642 0.018283 -0.508883
vn 0.865147 0 -0.501518
vn 0.864794 0 -0.502127
vn 0.864794 0 -0.502127
vn -0.4981 0 -0.867119
vn -0.500965 -0.0013674 -0.865467
vn -0.500185 5.30222e-17 -0.865918
vn -1.10505e-21 1 6.12331e-17
vn -0.869542 0.00966675 0.493765
vn -0.869598 0 0.49376
vn 0 -1 -6.1283e-17
vn 0.494425 -0 0.86922
vn 0.495968 -2.79488e-05 0.868341
vn 0.494421 0.00211932 0.86922
vn 0.495969 0 0.868341
vn 0.495977 0 0.868336
vn 0.495977 0 0.868336
vn -7.82567e-24 -1 -6.12324e-17
vn -1.03697e-24 -1 -6.12323e-17
vn 0 -1 -6.12321e-17
vn -1.25025e-19 -1 -6.12623e-17

# Mesh 'defaultobject' with 39 faces
g defaultobject
usemtl DefaultMaterial
f  1//1 2//1 3//1
f  2//2 1//2 4//2
f  2//3 4//3 5//3
f  6//4 7//4 8//4
f  7//5 6//5 1//5
f  1//6 6//6 4//6
f  9//7 6//7 8//7
f  6//8 9//8 10//8
f  6//9 10//9 11//9
f  5//10 11//10 12//10
f  11//11 5//11 4//11
f  11//12 4//12 6//12
f  7//13 13//13 8//13
f  13//14 7//14 1//14
f  13//15 1//15 14//15
f  14//16 1//16 15//16
f  15//17 1//17 3//17
f  15//17 3//17 16//18
f  13//19 9//19 8//19
f  9//20 13//20 10//20
f  10//21 13//21 17//21
f  17//22 13//22 18//22
f  10//23 12//23 11//23
f  12//24 10//24 17//24
f  12//24 17//24 19//24
f  19//25 17//25 20//25
f  19//26 5//26 12//26
f  5//27 19//27 2//27
f  2//28 19//28 21//28
f  2//29 21//29 22//29
f  2//29 22//29 3//30
f  3//30 22//29 16//31
f  14//32 18//32 13//32
f  18//32 14//32 17//25
f  17//25 14//32 15//33
f  17//25 15//33 20//25
f  20//25 15//33 19//25
f  19//25 15//33 16//34
f  19//25 16//34 22//35

