# {"id":"ID_32366","idOriginal":"ID_32366","origin":[14.368546241176812,48.241980814226906],"elevation":254.719}
# Longitude: 14.368546241176812
# Latitude: 48.241980814226906
# Elevation: 254.719

# File produced by Open Asset Import Library (http://www.assimp.sf.net)
# (assimp v3.1.0)

mtllib ID_32366.obj.mtl

# 10 vertex positions
v  0 3.463 2.12048e-16
v  11.054 3.463 4.783
v  3.86 3.463 -3.396
v  10.726 3.463 5.071
v  7.239 3.463 8.139
v  11.054 -2.92874e-16 4.783
v  3.86 2.07945e-16 -3.396
v  0 0 0
v  7.239 -4.9837e-16 8.139
v  10.726 -3.10509e-16 5.071

# 0 UV coordinates

# 13 vertex normals
vn -0 1 0
vn 0.750874 0 -0.660446
vn -0.66054 0 -0.750791
vn -0.66054 4.59727e-17 -0.750791
vn -0.747212 -4.06942e-17 0.664586
vn -0.747212 0 0.664586
vn 0.659801 0 0.75144
vn 0.66056 0.000127317 0.750773
vn 0.659801 -0.00135472 0.75144
vn 0.66056 0 0.750773
vn 0 -1 -6.12323e-17
vn 0 -1 -6.12323e-17
vn 4.18578e-24 -1 -6.12323e-17

# Mesh 'defaultobject' with 16 faces
g defaultobject
usemtl DefaultMaterial
f  1//1 2//1 3//1
f  2//1 1//1 4//1
f  4//1 1//1 5//1
f  6//2 3//2 2//2
f  3//2 6//2 7//2
f  7//3 1//3 3//3
f  1//3 7//3 8//4
f  8//5 5//5 1//5
f  5//5 8//5 9//6
f  4//7 6//7 2//7
f  6//8 4//8 5//8
f  6//9 5//9 10//9
f  10//10 5//10 9//10
f  6//11 8//11 7//11
f  8//11 6//11 10//12
f  8//11 10//12 9//13

