# {"id":"_23010","idOriginal":"_23010","origin":[14.299060117768422,48.29378207820176],"elevation":260.175}
# Longitude: 14.299060117768422
# Latitude: 48.29378207820176
# Elevation: 260.175

# File produced by Open Asset Import Library (http://www.assimp.sf.net)
# (assimp v3.1.0)

mtllib _23010.obj.mtl

# 12 vertex positions
v  4.682 4.346 -2.758
v  12.549 5.182 16.167
v  14.939 4.346 14.805
v  2.312 5.182 -1.362
v  0 4.367 2.67402e-16
v  10.078 4.318 17.576
v  10.078 -1.07622e-15 17.576
v  14.939 -9.06545e-16 14.805
v  12.549 -9.89943e-16 16.167
v  4.682 1.68879e-16 -2.758
v  0 0 0
v  2.312 8.33984e-17 -1.362

# 0 UV coordinates

# 18 vertex normals
vn 0.251104 0.956787 -0.146648
vn 0.251116 0.956783 -0.146652
vn -0.250956 0.956839 0.146559
vn -0.25098 0.95683 0.146579
vn 0.495344 -0 0.868697
vn 0.495152 0.000120909 0.868806
vn 0.495234 0 0.86876
vn 3.9491e-20 -1 -6.11584e-17
vn 0.863524 0 -0.504308
vn -0.507528 0 -0.861635
vn -0.507567 -2.40384e-05 -0.861612
vn -0.507551 5.27591e-17 -0.861622
vn 0 1 6.12396e-17
vn -0.867507 -3.04585e-17 0.497425
vn -0.867507 0 0.497425
vn 9.46268e-24 -1 -6.12323e-17
vn 1.92357e-24 -1 -6.12323e-17
vn 0 -1 -6.12396e-17

# Mesh 'defaultobject' with 20 faces
g defaultobject
usemtl DefaultMaterial
f  1//1 2//1 3//1
f  2//2 1//2 4//2
f  5//3 2//3 4//3
f  2//4 5//4 6//4
f  7//5 2//5 6//5
f  2//6 7//6 3//6
f  3//7 7//7 8//7
f  8//8 7//8 9//8
f  8//9 1//9 3//9
f  1//9 8//9 10//9
f  10//10 4//10 1//10
f  4//11 10//11 5//11
f  5//12 10//12 11//12
f  11//13 10//13 12//13
f  11//14 6//14 5//14
f  6//14 11//14 7//15
f  9//8 10//16 8//8
f  10//16 9//8 7//8
f  10//16 7//8 11//17
f  10//16 11//17 12//18

