# File produced by Open Asset Import Library (http://www.assimp.sf.net)
# (assimp v3.1.0)

mtllib ID_19503.obj.mtl

# 12 vertex positions
v  11.515 7.661 -0.552
v  12.131 7.661 11.841
v  11.516 7.661 -0.537
v  0 7.661 4.69101e-16
v  0.574 7.661 12.409
v  0.001 7.661 0.032
v  0.574 -7.59832e-16 12.409
v  12.131 -7.25052e-16 11.841
v  11.516 3.28818e-17 -0.537
v  11.515 3.38003e-17 -0.552
v  0 0 0
v  0.001 -1.95943e-18 0.032

# 0 UV coordinates

# 13 vertex normals
vn 0 1 0
vn 0.0490885 -0 0.998794
vn 0.998768 0 -0.0496237
vn 0.997788 0 -0.0664827
vn -0.0478825 0 -0.998853
vn -0.0478825 6.11621e-17 -0.998853
vn -0.99893 0 0.046246
vn -0.999217 -0.0242889 0.0312255
vn -0.99893 6.27784e-05 0.046246
vn -0.999512 0 0.0312348
vn -1.79016e-24 -1 -6.12324e-17
vn 0 -1 -6.12323e-17
vn 0 -1 -6.12323e-17

# Mesh 'defaultobject' with 20 faces
g defaultobject
usemtl DefaultMaterial
f  1//1 2//1 3//1
f  2//1 1//1 4//1
f  2//1 4//1 5//1
f  5//1 4//1 6//1
f  7//2 2//2 5//2
f  2//2 7//2 8//2
f  8//3 3//3 2//3
f  3//3 8//3 9//3
f  3//4 9//4 1//4
f  1//4 9//4 10//4
f  10//5 4//5 1//5
f  4//5 10//5 11//6
f  6//7 7//7 5//7
f  7//8 6//8 4//8
f  7//9 4//9 12//9
f  12//10 4//10 11//10
f  9//11 11//11 10//11
f  11//11 9//11 8//12
f  11//11 8//12 12//12
f  12//12 8//12 7//13

