# File produced by Open Asset Import Library (http://www.assimp.sf.net)
# (assimp v3.1.0)

mtllib ID_13765.obj.mtl

# 24 vertex positions
v  0 10.274 6.29101e-16
v  11.804 10.274 -8.983
v  8.315 10.274 -11.511
v  0.857 10.274 0.619
v  2.612 10.274 1.887
v  8.554 10.274 6.179
v  14.225 10.274 -7.229
v  19.732 10.274 -3.238
v  10.306 10.274 7.445
v  11.417 10.274 8.247
v  11.56 10.274 8.081
v  19.65 10.274 -3.055
v  0 0 0
v  0.857 -3.79028e-17 0.619
v  2.612 -1.15545e-16 1.887
v  8.554 -3.78355e-16 6.179
v  10.306 -4.55875e-16 7.445
v  11.417 -5.04983e-16 8.247
v  11.56 -4.94819e-16 8.081
v  19.65 1.87065e-16 -3.055
v  19.732 1.9827e-16 -3.238
v  14.225 4.42649e-16 -7.229
v  8.315 7.04845e-16 -11.511
v  11.804 5.5005e-16 -8.983

# 0 UV coordinates

# 31 vertex normals
vn 0 1 0
vn -0.585525 -4.96383e-17 0.810654
vn -0.585642 1.48819e-05 0.81057
vn -0.58554 -2.45674e-05 0.810643
vn -0.585525 -4.39021e-05 0.810654
vn -0.585693 0.000147897 0.810533
vn -0.585642 7.66551e-05 0.81057
vn -0.585304 -0.000309249 0.810814
vn -0.58554 -7.85144e-07 0.810643
vn -0.585693 6.40931e-05 0.810533
vn -0.585304 0 0.810814
vn 0.757641 -0 0.652672
vn 0.809044 -0 0.587748
vn 0.912572 -0 0.408916
vn 0.586816 0 -0.809721
vn 0.586699 -9.56306e-05 -0.809805
vn 0.586735 -5.2438e-05 -0.809779
vn 0.586816 8.36372e-05 -0.80972
vn 0.58672 0 -0.80979
vn 0 -1 -6.11348e-17
vn -0.810629 0 -0.58556
vn -0.810629 3.58552e-17 -0.58556
vn -3.46111e-24 -1 -6.12323e-17
vn 1.76405e-24 -1 -6.12323e-17
vn 0 -1 -6.12323e-17
vn 2.03532e-24 -1 -6.12323e-17
vn 0 -1 -6.12323e-17
vn -1.72723e-24 -1 -6.12323e-17
vn -8.17454e-24 -1 -6.12323e-17
vn 0 -1 -6.12336e-17
vn 1.00779e-21 -1 -6.12316e-17

# Mesh 'defaultobject' with 44 faces
g defaultobject
usemtl DefaultMaterial
f  1//1 2//1 3//1
f  2//1 1//1 4//1
f  2//1 4//1 5//1
f  2//1 5//1 6//1
f  2//1 6//1 7//1
f  7//1 6//1 8//1
f  8//1 6//1 9//1
f  8//1 9//1 10//1
f  8//1 10//1 11//1
f  8//1 11//1 12//1
f  13//2 4//2 1//2
f  4//3 13//3 5//3
f  5//4 13//4 6//4
f  6//5 13//5 14//5
f  6//6 14//6 9//6
f  9//7 14//7 15//7
f  9//8 15//8 10//8
f  10//9 15//9 16//9
f  10//10 16//10 17//10
f  10//11 17//11 18//11
f  18//12 11//12 10//12
f  11//12 18//12 19//12
f  19//13 12//13 11//13
f  12//13 19//13 20//13
f  20//14 8//14 12//14
f  8//14 20//14 21//14
f  21//15 7//15 8//15
f  7//16 21//16 2//16
f  2//17 21//17 3//17
f  3//18 21//18 22//18
f  3//19 22//19 23//19
f  23//20 22//20 24//20
f  23//21 1//21 3//21
f  1//21 23//21 13//22
f  24//20 13//23 23//20
f  13//23 24//20 14//24
f  14//24 24//20 15//25
f  15//25 24//20 16//26
f  16//26 24//20 22//20
f  16//26 22//20 21//27
f  16//26 21//27 17//28
f  17//28 21//27 18//29
f  18//29 21//27 20//30
f  18//29 20//30 19//31

