# File produced by Open Asset Import Library (http://www.assimp.sf.net)
# (assimp v3.1.0)

mtllib ID_58797.obj.mtl

# 8 vertex positions
v  1.753 8.923 1.267
v  1.043 8.923 -1.441
v  0 8.923 5.46376e-16
v  2.797 8.923 -0.175
v  0 0 0
v  1.753 -7.75814e-17 1.267
v  2.797 1.07157e-17 -0.175
v  1.043 8.82358e-17 -1.441

# 0 UV coordinates

# 9 vertex normals
vn 0 1 0
vn -0.585777 -4.96271e-17 0.810472
vn -0.585777 0 0.810472
vn 0.809997 -0 0.586434
vn 0.585254 0 -0.81085
vn -0.810071 0 -0.586332
vn -0.810071 3.59025e-17 -0.586332
vn -6.87964e-24 -1 -6.12323e-17
vn 6.87353e-24 -1 -6.12323e-17

# Mesh 'defaultobject' with 12 faces
g defaultobject
usemtl DefaultMaterial
f  1//1 2//1 3//1
f  2//1 1//1 4//1
f  5//2 1//2 3//2
f  1//2 5//2 6//3
f  6//4 4//4 1//4
f  4//4 6//4 7//4
f  7//5 2//5 4//5
f  2//5 7//5 8//5
f  8//6 3//6 2//6
f  3//6 8//6 5//7
f  8//8 6//8 5//8
f  6//8 8//8 7//9

