# File produced by Open Asset Import Library (http://www.assimp.sf.net)
# (assimp v3.1.0)

mtllib ID_5655.obj.mtl

# 60 vertex positions
v  16.05 12.825 18.823
v  23.675 12.274 13.625
v  23.049 12.274 12.887
v  24.337 12.274 14.401
v  29.782 12.274 20.793
v  19.749 12.825 23.155
v  26.078 12.567 23.966
v  19.379 12.854 23.453
v  24.195 12.716 25.58
v  22.327 12.85 26.814
v  22.276 12.854 26.861
v  24.225 12.716 25.615
v  22.499 12.85 27.017
v  22.686 12.835 26.859
v  22.737 12.835 26.916
v  22.499 -1.65431e-15 27.017
v  22.686 -1.64464e-15 26.859
v  22.737 -1.64813e-15 26.916
v  24.225 -1.56847e-15 25.615
v  24.195 -1.56632e-15 25.58
v  29.782 -1.2732e-15 20.793
v  26.078 -1.46749e-15 23.966
v  22.276 -1.64476e-15 26.861
v  22.327 -1.64188e-15 26.814
v  16.05 -1.15258e-15 18.823
v  19.749 -1.41783e-15 23.155
v  19.379 -1.43608e-15 23.453
v  23.675 -8.34291e-16 13.625
v  23.049 -7.89101e-16 12.887
v  24.337 -8.81807e-16 14.401
v  7.211 10.039 9.161
v  4.692 9.998 5.504
v  4.344 10.039 5.801
v  6.991 9.172 -5.929
v  0 9.998 6.12201e-16
v  20.397 9.17 9.763
v  10.416 9.998 12.219
v  10.071 10.039 12.514
v  12.903 9.998 15.136
v  13.54 9.998 15.884
v  16.05 9.998 18.823
v  21.291 9.17 10.816
v  21.386 9.159 10.735
v  22.654 9.171 12.422
v  23.049 9.171 12.887
v  22.753 9.159 12.338
v  13.54 -9.72614e-16 15.884
v  10.416 -7.48198e-16 12.219
v  12.903 -9.26813e-16 15.136
v  0 0 0
v  4.692 -3.37023e-16 5.504
v  4.344 -3.55209e-16 5.801
v  10.071 -7.66261e-16 12.514
v  7.211 -5.60949e-16 9.161
v  22.654 -7.60628e-16 12.422
v  22.753 -7.55485e-16 12.338
v  21.386 -6.57329e-16 10.735
v  21.291 -6.62289e-16 10.816
v  6.991 3.63047e-16 -5.929
v  20.397 -5.97811e-16 9.763

# 0 UV coordinates

# 90 vertex normals
vn 0.0457041 0.998202 -0.0387679
vn 0.0456084 0.998201 -0.0389082
vn 0.0456293 0.998202 -0.0388691
vn 0.0456442 0.998197 -0.0389746
vn 0.045671 0.9982 -0.0388615
vn 0.0458422 0.998139 -0.0402171
vn 0.0457357 0.9982 -0.0387922
vn 0.0458329 0.998187 -0.039013
vn 0.043902 0.998339 -0.0373192
vn 0.0457175 0.998185 -0.0391875
vn 0.046661 0.998128 -0.0395355
vn 0.0447909 0.998192 -0.0400742
vn 0.0464709 0.998197 -0.0379961
vn 0.645394 -0 0.763849
vn 0.645394 0 0.763849
vn 0.658218 -0 0.752827
vn 0.658218 0 0.752827
vn 0.650792 -0 0.759256
vn 0.650574 5.64417e-05 0.759443
vn 0.650646 0 0.759381
vn -1.21005e-19 -1 -6.13497e-17
vn 0.677684 -0 0.735354
vn -0.745256 0 0.666778
vn -0.760482 0 0.649359
vn -0.761917 0 0.647674
vn -0.762958 0 0.646448
vn 0.759248 0 -0.650802
vn 0.761245 0 -0.648464
vn 0.760777 -0.000494258 -0.649014
vn 0.762601 0.00166712 -0.646867
vn 0.761195 -0.000171326 -0.648523
vn 0.762602 0 -0.646868
vn 1.2833e-20 1 6.12218e-17
vn -0.646816 0 -0.762646
vn -0.646816 0 -0.762646
vn -0.627256 0 -0.778813
vn -0.627256 0 -0.778813
vn 9.38442e-22 -1 -6.12312e-17
vn -2.95251e-22 -1 -6.1231e-17
vn 2.98043e-23 -1 -6.12323e-17
vn -1.13142e-23 -1 -6.12324e-17
vn -1.217e-23 -1 -6.12323e-17
vn 5.52437e-23 -1 -6.12329e-17
vn -2.04947e-21 -1 -6.12309e-17
vn 0.0678987 0.996009 -0.0579362
vn 0.0682978 0.995965 -0.0582219
vn 0.0682983 0.995965 -0.0582217
vn 0.0682948 0.995966 -0.0582085
vn 0.0682955 0.995965 -0.0582254
vn 0.0684402 0.995946 -0.0583773
vn 0.068295 0.995965 -0.0582275
vn 0.0683249 0.995965 -0.0581857
vn 0.0682409 0.995965 -0.0582799
vn 0.0684984 0.995955 -0.0581554
vn 0.0622502 0.996117 -0.0622619
vn 0.0681829 0.995966 -0.0583323
vn 0.0684025 0.995964 -0.0581054
vn 0.0700225 0.995757 -0.0597135
vn -0.760424 0 0.649427
vn -0.761336 -0.0005433 0.648357
vn -0.760967 -0.000266853 0.648791
vn -0.760424 0.000458355 0.649426
vn -0.761042 0 0.648703
vn -1.54112e-19 -1 -6.11023e-17
vn -0.761011 -3.97238e-17 0.648739
vn -0.761011 0 0.648739
vn -0.760709 0 0.649093
vn -0.760824 7.79666e-05 0.648958
vn -0.760766 0 0.649026
vn -3.07031e-20 -1 -6.12526e-17
vn 0.646816 -0 0.762646
vn 0.646816 0 0.762646
vn 0.646972 -0 0.762514
vn 0.646972 0 0.762514
vn 0.649884 -0 0.760034
vn 0.649884 0 0.760034
vn 0.762141 0 -0.647411
vn 0.760896 0 -0.648874
vn 0.762314 0 -0.647208
vn 0.760316 -0.000464166 -0.649553
vn 0.760441 0 -0.649407
vn -1.92881e-20 1 6.12494e-17
vn -0.648814 0 -0.760947
vn -0.648814 0 -0.760947
vn -0.646802 0 -0.762658
vn -0.64917 0 -0.760644
vn 5.44345e-23 -1 -6.12324e-17
vn 6.38814e-24 -1 -6.12323e-17
vn 1.11836e-24 -1 -6.12323e-17
vn 0 -1 -6.12476e-17

# Mesh 'defaultobject' with 116 faces
g defaultobject
usemtl DefaultMaterial
f  1//1 2//1 3//1
f  2//2 1//2 4//2
f  4//3 1//3 5//3
f  5//4 1//4 6//4
f  5//5 6//5 7//5
f  7//6 6//6 8//6
f  7//7 8//7 9//7
f  9//8 8//8 10//8
f  10//9 8//9 11//9
f  9//10 10//10 12//10
f  13//11 14//11 10//11
f  12//12 14//12 15//12
f  14//13 12//13 10//13
f  16//14 14//14 13//14
f  14//14 16//14 17//15
f  18//16 12//16 15//16
f  12//16 18//16 19//17
f  20//18 7//18 9//18
f  7//19 20//19 5//19
f  5//20 20//20 21//20
f  21//21 20//21 22//21
f  23//22 10//22 11//22
f  10//22 23//22 24//22
f  17//23 15//23 14//23
f  15//23 17//23 18//23
f  25//24 6//24 1//24
f  6//24 25//24 26//24
f  27//25 11//25 8//25
f  11//25 27//25 23//25
f  24//26 13//26 10//26
f  13//26 24//26 16//26
f  19//27 9//27 12//27
f  9//27 19//27 20//27
f  21//28 4//28 5//28
f  4//29 21//29 2//29
f  2//30 21//30 3//30
f  3//31 21//31 28//31
f  3//32 28//32 29//32
f  28//33 21//33 30//33
f  3//34 25//34 1//34
f  25//34 3//34 29//35
f  6//36 27//36 8//36
f  27//36 6//36 26//37
f  18//38 17//38 19//38
f  16//39 24//39 17//38
f  28//40 25//40 29//40
f  25//40 28//40 30//41
f  25//40 30//41 21//21
f  25//40 21//21 26//42
f  26//42 21//21 22//21
f  26//42 22//21 27//43
f  27//43 22//21 20//21
f  27//43 20//21 24//39
f  27//43 24//39 23//44
f  24//39 20//21 19//38
f  24//39 19//38 17//38
f  31//45 32//45 33//45
f  32//46 34//46 35//46
f  34//46 32//46 36//47
f  36//48 32//48 31//48
f  36//47 31//49 37//49
f  37//50 31//50 38//50
f  36//47 37//49 39//51
f  36//52 39//52 40//52
f  36//53 40//53 41//53
f  36//54 41//54 42//54
f  42//55 41//55 43//55
f  43//56 41//56 44//56
f  44//57 41//57 45//57
f  46//58 43//58 44//58
f  40//59 25//59 41//59
f  25//60 40//60 39//60
f  25//61 39//61 37//61
f  25//62 37//62 47//62
f  47//63 37//63 48//63
f  47//64 48//64 49//64
f  50//65 32//65 35//65
f  32//65 50//65 51//66
f  52//67 31//67 33//67
f  31//68 52//68 38//68
f  38//69 52//69 53//69
f  53//70 52//70 54//70
f  25//71 45//71 41//71
f  45//71 25//71 29//72
f  55//73 46//73 44//73
f  46//73 55//73 56//74
f  53//75 37//75 38//75
f  37//75 53//75 48//76
f  29//77 44//77 45//77
f  44//77 29//77 55//77
f  56//78 43//78 46//78
f  43//78 56//78 57//78
f  58//79 36//79 42//79
f  36//80 58//80 34//80
f  34//81 58//81 59//81
f  59//82 58//82 60//82
f  43//83 58//83 42//83
f  58//83 43//83 57//84
f  34//85 50//85 35//85
f  50//85 34//85 59//85
f  32//86 52//86 33//86
f  52//86 32//86 51//86
f  56//87 55//87 57//87
f  59//88 51//88 50//88
f  51//88 59//88 60//89
f  51//88 60//89 54//70
f  54//70 60//89 48//64
f  54//70 48//64 53//70
f  48//64 60//89 49//64
f  49//64 60//89 47//64
f  47//64 60//89 25//40
f  25//40 60//89 55//87
f  25//40 55//87 29//40
f  55//87 60//89 58//90
f  55//87 58//90 57//87
f  54//70 52//70 51//88

