# File produced by Open Asset Import Library (http://www.assimp.sf.net)
# (assimp v3.1.0)

mtllib ID_57563.obj.mtl

# 8 vertex positions
v  2.211 10.946 -0.101
v  0.105 10.946 2.319
v  2.317 10.946 2.218
v  0 10.946 6.70249e-16
v  0.105 -1.41998e-16 2.319
v  2.317 -1.35813e-16 2.218
v  2.211 6.18447e-18 -0.101
v  0 0 0

# 0 UV coordinates

# 9 vertex normals
vn 0 1 -0
vn 0.0456125 -0 0.998959
vn 0.998957 0 -0.0456617
vn -0.0456331 0 -0.998958
vn -0.0456331 6.11685e-17 -0.998958
vn -0.998977 -2.76965e-18 0.0452318
vn -0.998977 0 0.0452318
vn -5.14953e-24 -1 -6.12323e-17
vn -5.15175e-24 -1 -6.12323e-17

# Mesh 'defaultobject' with 12 faces
g defaultobject
usemtl DefaultMaterial
f  1//1 2//1 3//1
f  2//1 1//1 4//1
f  5//2 3//2 2//2
f  3//2 5//2 6//2
f  6//3 1//3 3//3
f  1//3 6//3 7//3
f  7//4 4//4 1//4
f  4//4 7//4 8//5
f  8//6 2//6 4//6
f  2//6 8//6 5//7
f  8//8 6//8 5//8
f  6//8 8//8 7//9

