# {"id":"ID_25696","idOriginal":"ID_25696","origin":[14.329957394581315,48.240217749863746],"elevation":272.632,"wof":[{"Id":102049853,"Name":"Linz","Placetype":"county","Offset":-1},{"Id":85632785,"Name":"Austria","Placetype":"country","Offset":-1},{"Id":101748071,"Name":"Linz","Placetype":"locality","Offset":-1},{"Id":85681677,"Name":"Oberösterreich","Placetype":"region","Offset":-1},{"Id":85898451,"Name":"Ufer","Placetype":"neighbourhood","Offset":-1}]}

# Attribution: City of Linz <http://geo.data.linz.gv.at/katalog/geodata/3d_geo_daten_lod2/>
# Longitude: 14.329957394581315
# Latitude: 48.240217749863746
# Elevation: 272.632

# File produced by Open Asset Import Library (http://www.assimp.sf.net)
# (assimp v3.1.0)


# 14 vertex positions
v  1.201 10.488 -4.252
v  12.509 6.748 -5.649
v  2.402 6.748 -8.504
v  11.308 10.488 -1.397
v  10.107 6.748 2.855
v  0.118 7.115 -0.417
v  0 6.748 4.13196e-16
v  2.402 5.2072e-16 -8.504
v  1.201 2.6036e-16 -4.252
v  0.118 2.55339e-17 -0.417
v  0 0 0
v  10.107 -1.74818e-16 2.855
v  12.509 3.45901e-16 -5.649
v  11.308 8.55416e-17 -1.397

# 0 UV coordinates

# 21 vertex normals
vn 0.175631 0.763268 -0.621752
vn 0.175631 0.763268 -0.621752
vn -0.175676 0.763127 0.621912
vn -0.175613 0.763283 0.621738
vn -0.175631 0.763268 0.621752
vn -0.962348 0 -0.27182
vn -0.962358 -1.62064e-05 -0.271783
vn -0.962348 2.9214e-05 -0.27182
vn -0.962264 0.000202155 -0.272117
vn -0.962362 -3.41748e-05 -0.27177
vn -0.962217 1.66725e-17 -0.272282
vn -0.27184 -5.89265e-17 0.962342
vn -0.27184 0 0.962342
vn 0.962348 1.4428e-07 0.27182
vn 0.962348 0 0.27182
vn 5.55112e-17 -1 -4.16334e-17
vn 0.27184 0 -0.962342
vn 0 -1 -6.12323e-17
vn 0 -1 -6.12323e-17
vn -6.32457e-25 -1 -6.12323e-17
vn -5.70422e-25 -1 -6.12323e-17

# Mesh 'defaultobject' with 24 faces
g defaultobject
usemtl DefaultMaterial
f  1//1 2//1 3//1
f  2//1 1//1 4//2
f  5//3 6//3 7//3
f  6//4 5//4 1//4
f  1//5 5//5 4//5
f  8//6 1//6 3//6
f  1//7 8//7 6//7
f  6//8 8//8 9//8
f  6//9 9//9 7//9
f  7//10 9//10 10//10
f  7//11 10//11 11//11
f  11//12 5//12 7//12
f  5//12 11//12 12//13
f  5//14 2//14 4//14
f  2//14 5//14 12//15
f  2//14 12//15 13//15
f  13//16 12//16 14//16
f  13//17 3//17 2//17
f  3//17 13//17 8//17
f  11//18 14//16 12//16
f  14//16 11//18 10//19
f  14//16 10//19 9//20
f  14//16 9//20 13//16
f  13//16 9//20 8//21

