# {"id":"ID_60039","idOriginal":"ID_60039","origin":[14.322342747801574,48.31404658557988],"elevation":254.304}
# Longitude: 14.322342747801574
# Latitude: 48.31404658557988
# Elevation: 254.304

# File produced by Open Asset Import Library (http://www.assimp.sf.net)
# (assimp v3.1.0)

mtllib ID_60039.obj.mtl

# 8 vertex positions
v  0.729 5.434 -0.619
v  1.597 5.434 1.861
v  2.318 5.434 1.252
v  0 5.434 3.32737e-16
v  1.597 -1.13953e-16 1.861
v  2.318 -7.66629e-17 1.252
v  0.729 3.79028e-17 -0.619
v  0 0 0

# 0 UV coordinates

# 9 vertex normals
vn 0 1 0
vn 0.645277 -0 0.763949
vn 0.762211 0 -0.647329
vn -0.647254 0 -0.762275
vn -0.647254 4.66759e-17 -0.762275
vn -0.758882 -3.98762e-17 0.651228
vn -0.758882 0 0.651228
vn 2.85642e-24 -1 -6.12323e-17
vn -2.82168e-24 -1 -6.12323e-17

# Mesh 'defaultobject' with 12 faces
g defaultobject
usemtl DefaultMaterial
f  1//1 2//1 3//1
f  2//1 1//1 4//1
f  5//2 3//2 2//2
f  3//2 5//2 6//2
f  6//3 1//3 3//3
f  1//3 6//3 7//3
f  7//4 4//4 1//4
f  4//4 7//4 8//5
f  8//6 2//6 4//6
f  2//6 8//6 5//7
f  5//8 7//8 6//8
f  7//8 5//8 8//9

