# {"id":"ID_11764","idOriginal":"ID_11764","origin":[14.294015630647815,48.322987579296274],"elevation":259.308}
# Longitude: 14.294015630647815
# Latitude: 48.322987579296274
# Elevation: 259.308

# File produced by Open Asset Import Library (http://www.assimp.sf.net)
# (assimp v3.1.0)

mtllib ID_11764.obj.mtl

# 18 vertex positions
v  3.624 15.567 -3.714
v  22.301 10.268 7.572
v  7.26 10.268 -7.441
v  18.622 15.567 11.256
v  13.27 10.256 13.287
v  0.264 10.671 -0.271
v  0 10.286 6.29836e-16
v  13.56 10.667 13.005
v  15.221 10.667 14.663
v  0 0 0
v  13.27 -8.13594e-16 13.287
v  13.56 -7.96327e-16 13.005
v  15.221 -8.9785e-16 14.663
v  22.301 -4.63651e-16 7.572
v  18.622 -6.89231e-16 11.256
v  7.26 4.5563e-16 -7.441
v  0.264 1.6594e-17 -0.271
v  3.624 2.27417e-16 -3.714

# 0 UV coordinates

# 25 vertex normals
vn 0.503914 0.700853 -0.504853
vn 0.503915 0.700849 -0.504857
vn -0.503896 0.700879 0.504834
vn -0.503916 0.700851 0.504853
vn -0.503308 0.701411 0.504682
vn -0.50394 0.700813 0.504882
vn -0.503952 0.700818 0.504863
vn -0.707559 -4.32701e-17 0.706654
vn -0.707559 0 0.706654
vn -0.706468 0 0.707745
vn 0.697149 0 0.716927
vn 0.707658 9.94781e-05 0.706555
vn 0.707655 0 0.706558
vn 0.707655 0 0.706558
vn -4.1722e-20 -1 -6.12688e-17
vn 0.706448 0 -0.707765
vn -0.715736 7.78875e-05 -0.698371
vn -0.715738 0 -0.698369
vn -0.716024 -0.000384614 -0.698075
vn -0.715738 2.94641e-05 -0.698369
vn -0.716297 4.27276e-17 -0.697795
vn 2.66496e-20 -1 -6.12142e-17
vn -3.51435e-24 -1 -6.12324e-17
vn -6.59516e-22 -1 -6.12322e-17
vn 4.34657e-24 -1 -6.12323e-17

# Mesh 'defaultobject' with 32 faces
g defaultobject
usemtl DefaultMaterial
f  1//1 2//1 3//1
f  2//1 1//1 4//2
f  5//3 6//3 7//3
f  6//4 5//4 1//4
f  1//5 5//5 8//5
f  1//6 8//6 4//6
f  4//7 8//7 9//7
f  10//8 5//8 7//8
f  5//8 10//8 11//9
f  12//10 9//10 8//10
f  9//10 12//10 13//10
f  5//11 12//11 8//11
f  12//11 5//11 11//11
f  9//12 2//12 4//12
f  2//13 9//13 13//13
f  2//13 13//13 14//14
f  14//15 13//15 15//15
f  14//16 3//16 2//16
f  3//16 14//16 16//16
f  3//17 6//17 1//17
f  6//18 3//18 16//18
f  6//19 16//19 7//19
f  7//20 16//20 17//20
f  7//21 17//21 10//21
f  17//22 16//22 18//22
f  12//23 15//15 13//15
f  15//15 16//22 14//15
f  16//22 15//15 12//23
f  16//22 12//23 11//24
f  16//22 11//24 18//22
f  18//22 11//24 10//25
f  18//22 10//25 17//22

