# File produced by Open Asset Import Library (http://www.assimp.sf.net)
# (assimp v3.1.0)

mtllib ID_47200.obj.mtl

# 20 vertex positions
v  4.245 2.71 -3.007
v  1.077 3.055 1.32
v  5.146 3.055 -1.562
v  0.019 2.71 -0.013
v  0.116 2.747 0.142
v  0 2.71 1.6594e-16
v  4.77 2.69 0.909
v  2.121 2.721 2.601
v  6.141 2.674 0.034
v  6.1 2.69 -0.032
v  2.121 -1.59265e-16 2.601
v  4.77 -5.56602e-17 0.909
v  6.141 -2.0819e-18 0.034
v  4.245 1.84126e-16 -3.007
v  6.1 1.95943e-18 -0.032
v  5.146 9.56449e-17 -1.562
v  0.019 7.9602e-19 -0.013
v  0 0 0
v  0.116 -8.69499e-18 0.142
v  1.077 -8.08267e-17 1.32

# 0 UV coordinates

# 34 vertex normals
vn -0.114958 0.980021 -0.162305
vn -0.11502 0.980007 -0.162349
vn -0.11736 0.980034 -0.160498
vn -0.112085 0.980103 -0.163816
vn 0.114888 0.980095 0.161912
vn 0.114907 0.980057 0.162123
vn 0.115725 0.97939 0.165539
vn 0.114869 0.980053 0.162179
vn 0.538295 -0 0.842756
vn 0.538295 0 0.842756
vn 0.537989 0 0.842952
vn 0.537989 -1.17436e-09 0.842952
vn 0.849442 7.35142e-10 -0.527682
vn 0.848553 -4.8563e-05 -0.52911
vn 0.848563 -3.78337e-05 -0.529095
vn 0.848578 0 -0.52907
vn -1.16376e-19 1 6.12717e-17
vn nan nan inf
vn -0.578092 0 -0.815971
vn -0.564684 -0 -0.825307
vn -0.564684 5.05355e-17 -0.825307
vn -0.774443 -3.87382e-17 0.632644
vn -0.774871 4.51481e-05 0.63212
vn -0.775134 0.000277188 0.631797
vn -0.774442 -0.00107044 0.632644
vn -0.774865 -0.000292329 0.632127
vn -0.775169 0 0.631754
vn 0 -1 -6.12323e-17
vn -8.9584e-24 -1 -6.12323e-17
vn -3.25903e-24 -1 -6.12323e-17
vn -6.10601e-24 -1 -6.12323e-17
vn 0 -1 -6.12323e-17
vn -2.38456e-23 -1 -6.12323e-17
vn 0 -1 -6.12323e-17

# Mesh 'defaultobject' with 36 faces
g defaultobject
usemtl DefaultMaterial
f  1//1 2//1 3//1
f  2//2 1//2 4//2
f  2//3 4//3 5//3
f  5//4 4//4 6//4
f  7//5 2//5 8//5
f  2//6 7//6 9//6
f  2//7 9//7 10//7
f  2//8 10//8 3//8
f  11//9 7//9 8//9
f  7//9 11//9 12//10
f  7//11 12//11 9//11
f  9//11 12//11 13//12
f  13//13 10//13 9//13
f  10//14 13//14 3//14
f  3//15 13//15 1//15
f  1//16 13//16 14//16
f  14//17 13//17 15//17
f  14//17 15//17 16//18
f  14//19 4//19 1//19
f  4//19 14//19 17//19
f  4//20 17//20 6//20
f  6//20 17//20 18//21
f  18//22 5//22 6//22
f  5//23 18//23 2//23
f  2//24 18//24 8//24
f  8//25 18//25 19//25
f  8//26 19//26 20//26
f  8//27 20//27 11//27
f  12//28 15//28 13//28
f  15//28 12//28 16//18
f  16//18 12//28 11//29
f  16//18 11//29 14//30
f  14//30 11//29 17//31
f  17//31 11//29 20//32
f  17//31 20//32 19//33
f  17//31 19//33 18//34

