# {"id":"ID_17820","idOriginal":"ID_17820","origin":[14.258712112654745,48.31457014048269],"elevation":382.465}
# Longitude: 14.258712112654745
# Latitude: 48.31457014048269
# Elevation: 382.465

# File produced by Open Asset Import Library (http://www.assimp.sf.net)
# (assimp v3.1.0)

mtllib ID_17820.obj.mtl

# 37 vertex positions
v  13.49 5.451 1.581
v  12.725 7.633 -4.823
v  12.257 7.635 -5.234
v  16.381 7.646 -1.673
v  20.317 7.66 1.719
v  13.5 5.451 1.59
v  13.838 5.446 1.899
v  20.853 7.648 2.216
v  17.78 5.381 5.503
v  17.868 5.446 5.409
v  9.242 7.71 -2.104
v  12.116 7.71 -5.359
v  13.399 5.501 1.498
v  7.958 5.486 -9.015
v  5.067 5.486 -5.74
v  4.081 7.71 3.743
v  0 5.486 3.35921e-16
v  8.016 5.565 7.352
v  13.389 5.501 1.508
v  7.958 5.5201e-16 -9.015
v  5.067 3.51474e-16 -5.74
v  0 0 0
v  4.081 -2.29193e-16 3.743
v  8.016 -4.5018e-16 7.352
v  13.399 -9.1726e-17 1.498
v  17.78 -3.36962e-16 5.503
v  13.49 -9.68083e-17 1.581
v  13.5 -9.73594e-17 1.59
v  13.838 -1.1628e-16 1.899
v  13.389 -9.23384e-17 1.508
v  20.853 -1.35691e-16 2.216
v  17.868 -3.31206e-16 5.409
v  20.317 -1.05258e-16 1.719
v  16.381 1.02442e-16 -1.673
v  12.725 2.95324e-16 -4.823
v  12.257 3.2049e-16 -5.234
v  12.116 3.28144e-16 -5.359

# 0 UV coordinates

# 63 vertex normals
vn -0.294373 0.893338 0.339547
vn -0.295735 0.892885 0.339555
vn -0.295772 0.892885 0.339522
vn -0.296671 0.89628 0.32965
vn -0.295891 0.893378 0.338117
vn -0.295578 0.892643 0.340326
vn -0.295636 0.892951 0.339467
vn -0.768389 0.538597 -0.345676
vn 0.277214 0.929108 0.244766
vn 0.279277 0.927957 0.24678
vn 0.285341 0.926505 0.245292
vn -0.279409 0.927937 -0.246704
vn -0.279458 0.927926 -0.246691
vn -0.279468 0.927926 -0.24668
vn -0.279443 0.927934 -0.246679
vn 0.27952 0.927898 0.246725
vn 0.279399 0.927937 0.246718
vn 0.264092 0.927632 0.264109
vn -0.749691 0 -0.661788
vn -0.749689 2.04341e-06 -0.66179
vn -0.749691 -3.50185e-06 -0.661788
vn -0.749689 4.0523e-17 -0.66179
vn -0.675929 -4.51262e-17 0.736967
vn -0.675922 -7.06561e-06 0.736973
vn -0.675929 1.21931e-05 0.736967
vn -0.67592 0 0.736975
vn -0.673886 0 0.738836
vn -0.668954 -0.000150363 0.743304
vn -0.674735 4.52381e-05 0.73806
vn -0.674757 4.85772e-05 0.73804
vn -0.674725 0 0.73807
vn -1.27319e-19 -1 -6.12405e-17
vn 0 -1 -6.12357e-17
vn 0 -1 -6.18352e-17
vn 0.736149 -0 0.676819
vn 0.736149 0 0.676819
vn 0.707098 -0 0.707115
vn 0.7305 0 0.682913
vn 0.730162 -0.000395849 0.683274
vn 0.730486 0 0.682928
vn 2.71448e-19 1 6.16187e-17
vn 0.679925 0 -0.733281
vn 0.652818 0 -0.757515
vn 0.652735 -7.45582e-05 -0.757587
vn 0.652818 6.94927e-05 -0.757515
vn 0.65987 0.00598897 -0.751356
vn 0.667185 0.0130076 -0.744779
vn 0.652734 -0.00110909 -0.757586
vn 0.660333 -4.90904e-05 -0.750973
vn 0.659867 -0.000766965 -0.751382
vn 0.663371 0.0041155 -0.748279
vn 0.660318 0 -0.750986
vn 1.65695e-23 -1 -6.12323e-17
vn -2.31877e-24 -1 -6.12323e-17
vn -2.51259e-24 -1 -6.12323e-17
vn -1.47686e-23 -1 -6.12323e-17
vn 1.2303e-22 -1 -6.12324e-17
vn 4.44483e-24 -1 -6.12323e-17
vn 0 -1 -6.12331e-17
vn 0 -1 -6.12323e-17
vn -1.33722e-23 -1 -6.12323e-17
vn 0 -1 -6.12323e-17
vn 0 -1 -6.12323e-17

# Mesh 'defaultobject' with 70 faces
g defaultobject
usemtl DefaultMaterial
f  1//1 2//1 3//1
f  2//2 1//2 4//2
f  4//3 1//3 5//3
f  5//4 1//4 6//4
f  5//5 6//5 7//5
f  5//6 7//6 8//6
f  8//7 7//7 9//7
f  8//8 9//8 10//8
f  11//9 3//9 12//9
f  3//10 11//10 13//10
f  3//11 13//11 1//11
f  14//12 11//12 12//12
f  11//13 14//13 15//13
f  11//14 15//14 16//14
f  16//15 15//15 17//15
f  18//16 11//16 16//16
f  11//17 18//17 19//17
f  11//18 19//18 13//18
f  20//19 15//19 14//19
f  15//19 20//19 17//20
f  17//20 20//19 21//21
f  17//20 21//21 22//22
f  22//23 16//23 17//23
f  16//24 22//24 18//24
f  18//25 22//25 23//25
f  18//24 23//26 24//26
f  25//27 1//27 13//27
f  1//28 25//28 6//28
f  6//29 25//29 7//29
f  7//30 25//30 9//30
f  9//31 25//31 26//31
f  26//32 25//32 27//32
f  26//32 27//32 28//33
f  26//32 28//33 29//34
f  24//35 19//35 18//35
f  19//35 24//35 30//36
f  30//37 13//37 19//37
f  13//37 30//37 25//37
f  10//38 31//38 8//38
f  31//39 10//39 9//39
f  31//40 9//40 26//40
f  31//41 26//41 32//41
f  8//42 33//42 5//42
f  33//42 8//42 31//42
f  33//43 4//43 5//43
f  4//44 33//44 2//44
f  2//45 33//45 34//45
f  2//46 34//46 3//46
f  3//47 34//47 12//47
f  12//48 34//48 35//48
f  12//49 35//49 14//49
f  14//50 35//50 36//50
f  14//51 36//51 37//51
f  14//52 37//52 20//52
f  32//53 33//53 31//53
f  33//53 32//53 34//54
f  34//54 32//53 26//32
f  34//54 26//32 29//34
f  34//54 29//34 35//55
f  35//55 29//34 36//56
f  36//56 29//34 28//33
f  36//56 28//33 37//57
f  37//57 28//33 27//32
f  37//57 27//32 25//32
f  37//57 25//32 20//58
f  20//58 25//32 30//59
f  20//58 30//59 24//60
f  20//58 24//60 21//61
f  21//61 24//60 23//62
f  21//61 23//62 22//63

