# {"id":"ID_42899","idOriginal":"ID_42899","origin":[14.302773283859171,48.263131615621475],"elevation":261.691,"wof":[{"Id":101748071,"Name":"Linz","Placetype":"locality","Offset":-1},{"Id":102049853,"Name":"Linz","Placetype":"county","Offset":-1},{"Id":85632785,"Name":"Austria","Placetype":"country","Offset":-1},{"Id":85681677,"Name":"Oberösterreich","Placetype":"region","Offset":-1},{"Id":85898435,"Name":"Oed","Placetype":"neighbourhood","Offset":-1}]}

# Attribution: City of Linz <http://geo.data.linz.gv.at/katalog/geodata/3d_geo_daten_lod2/>
# Longitude: 14.302773283859171
# Latitude: 48.263131615621475
# Elevation: 261.691

# File produced by Open Asset Import Library (http://www.assimp.sf.net)
# (assimp v3.1.0)


# 22 vertex positions
v  5.679 2.785 -1.511
v  6.761 2.62 -0.545
v  6.888 2.619 -0.705
v  4.044 2.619 3.127
v  1.992 2.911 1.595
v  4.793 2.911 -2.179
v  3.799 2.77 -2.927
v  1.88 2.895 1.511
v  0 2.621 1.6049e-16
v  2.756 2.621 -3.711
v  2.634 2.619 -3.566
v  2.756 2.27233e-16 -3.711
v  2.634 2.18355e-16 -3.566
v  0 0 0
v  1.88 -9.25221e-17 1.511
v  4.044 -1.91474e-16 3.127
v  1.992 -9.76656e-17 1.595
v  6.761 3.33716e-17 -0.545
v  6.888 4.31688e-17 -0.705
v  5.679 9.25221e-17 -1.511
v  4.793 1.33425e-16 -2.179
v  3.799 1.79227e-16 -2.927

# 0 UV coordinates

# 38 vertex normals
vn 0.0919156 0.993527 0.0667489
vn 0.0910931 0.99354 0.0676725
vn 0.0909085 0.993562 0.0676082
vn 0.0906045 0.993614 0.0672451
vn -0.0904384 0.993638 -0.0671219
vn -0.0913279 0.993532 -0.067474
vn -0.0907728 0.993599 -0.0672359
vn -0.0910866 0.993543 -0.0676461
vn -0.137655 0.98519 -0.10223
vn -0.765185 0 -0.643811
vn -0.804364 0 -0.594137
vn -0.804364 0 -0.594137
vn -0.626463 0 0.779451
vn -0.599097 -0.00958056 0.800619
vn -0.59834 0 0.801242
vn -0.59834 0 0.801242
vn 1.68778e-20 1 6.12327e-17
vn 0.803871 0 0.594803
vn 0.803871 0 0.594803
vn 0.783251 -0 0.621705
vn 0.783251 0 0.621705
vn 0.5547 0 -0.83205
vn 0.5547 0 -0.83205
vn 0.602017 0 -0.798483
vn 0.601316 -0.000334648 -0.799012
vn 0.600926 -0.000748631 -0.799304
vn 0.602016 0.00115689 -0.798483
vn 0.601285 0.00026624 -0.799034
vn 0.600858 0 -0.799356
vn -1.11856e-23 -1 -6.12323e-17
vn -8.02391e-24 -1 -6.12323e-17
vn 5.08893e-24 -1 -6.12323e-17
vn 4.53683e-24 -1 -6.12323e-17
vn 4.32354e-24 -1 -6.12323e-17
vn 1.75611e-23 -1 -6.12323e-17
vn -9.86663e-23 -1 -6.12324e-17
vn 9.36594e-24 -1 -6.12323e-17
vn 1.17001e-21 -1 -6.12337e-17

# Mesh 'defaultobject' with 40 faces
g defaultobject
usemtl DefaultMaterial
f  1//1 2//1 3//1
f  2//2 1//2 4//2
f  4//3 1//3 5//3
f  5//4 1//4 6//4
f  7//5 5//5 6//5
f  5//6 7//6 8//6
f  8//7 7//7 9//7
f  9//8 7//8 10//8
f  9//9 10//9 11//9
f  12//10 11//10 10//10
f  11//10 12//10 13//10
f  11//11 14//11 9//11
f  14//11 11//11 13//12
f  9//13 15//13 8//13
f  15//13 9//13 14//13
f  8//14 4//14 5//14
f  4//15 8//15 15//15
f  4//15 15//15 16//16
f  16//17 15//17 17//17
f  4//18 18//18 2//18
f  18//18 4//18 16//19
f  18//20 3//20 2//20
f  3//20 18//20 19//21
f  3//22 20//22 1//22
f  20//22 3//22 19//23
f  20//24 6//24 1//24
f  6//25 20//25 7//25
f  7//26 20//26 10//26
f  10//27 20//27 21//27
f  10//28 21//28 22//28
f  10//29 22//29 12//29
f  18//30 20//30 19//30
f  20//30 18//30 16//31
f  20//30 16//31 21//32
f  21//32 16//31 22//33
f  22//33 16//31 12//34
f  12//34 16//31 17//35
f  12//34 17//35 13//36
f  13//36 17//35 14//37
f  14//37 17//35 15//38

