# {"id":"ID_27947","idOriginal":"ID_27947","origin":[14.27241993178599,48.33018302278996],"elevation":336.228,"wof":[{"Id":85681677,"Name":"Oberösterreich","Placetype":"region","Offset":-1},{"Id":85898425,"Name":"Harbach","Placetype":"neighbourhood","Offset":-1},{"Id":102049853,"Name":"Linz","Placetype":"county","Offset":-1},{"Id":85632785,"Name":"Austria","Placetype":"country","Offset":-1},{"Id":101748071,"Name":"Linz","Placetype":"locality","Offset":-1}]}

# Attribution: City of Linz <http://geo.data.linz.gv.at/katalog/geodata/3d_geo_daten_lod2/>
# Longitude: 14.27241993178599
# Latitude: 48.33018302278996
# Elevation: 336.228

# File produced by Open Asset Import Library (http://www.assimp.sf.net)
# (assimp v3.1.0)


# 12 vertex positions
v  3.027 9.863 2.237
v  12.134 6.673 -4.344
v  9.107 9.863 -6.494
v  6.014 6.673 4.444
v  6.145 6.741 -8.597
v  0 6.63 4.0597e-16
v  6.145 5.26414e-16 -8.597
v  9.107 3.97643e-16 -6.494
v  12.134 2.65993e-16 -4.344
v  0 0 0
v  6.014 -2.72117e-16 4.444
v  3.027 -1.36977e-16 2.237

# 0 UV coordinates

# 19 vertex normals
vn 0.534802 0.758479 0.37242
vn 0.534814 0.758457 0.372447
vn -0.534892 0.758385 -0.372482
vn -0.534802 0.758452 -0.372475
vn 0.578994 -0.00010874 -0.815332
vn 0.578995 0 -0.815331
vn 0.578918 0.000103981 -0.815386
vn 0.579071 0 -0.815277
vn -0.813542 0 -0.581507
vn -0.813542 3.5607e-17 -0.581507
vn -0.594293 -5.53606e-05 0.804249
vn -0.594293 0 0.804248
vn -0.594293 0 0.804248
vn -3.98215e-20 1 6.12853e-17
vn 0.820616 -0 0.57148
vn -8.27455e-24 -1 -6.12323e-17
vn 2.69842e-24 -1 -6.12323e-17
vn 1.32269e-24 -1 -6.12323e-17
vn 3.98215e-20 -1 -6.12853e-17

# Mesh 'defaultobject' with 20 faces
g defaultobject
usemtl DefaultMaterial
f  1//1 2//1 3//1
f  2//2 1//2 4//2
f  5//3 1//3 3//3
f  1//4 5//4 6//4
f  2//5 5//5 3//5
f  5//6 2//6 7//6
f  7//7 2//7 8//7
f  8//8 2//8 9//8
f  7//9 6//9 5//9
f  6//9 7//9 10//10
f  6//11 4//11 1//11
f  4//12 6//12 10//12
f  4//12 10//12 11//13
f  11//14 10//14 12//14
f  11//15 2//15 4//15
f  2//15 11//15 9//15
f  8//16 10//16 7//16
f  10//16 8//16 9//17
f  10//16 9//17 11//18
f  10//16 11//18 12//19

