# {"id":"ID_31705","idOriginal":"ID_31705","origin":[14.30666412597111,48.267556281959955],"elevation":261.52}
# Longitude: 14.30666412597111
# Latitude: 48.267556281959955
# Elevation: 261.52

# File produced by Open Asset Import Library (http://www.assimp.sf.net)
# (assimp v3.1.0)

mtllib ID_31705.obj.mtl

# 25 vertex positions
v  3.669 5.584 5.566
v  1.295 10.72 3.167
v  2.461 5.662 6.021
v  5.641 10.72 1.344
v  11.044 5.661 2.422
v  0.098 5.53 0.239
v  8.781 5.63 -3.19
v  11.17 5.511 2.368
v  8.603 5.846 -3.108
v  4.436 10.72 -1.603
v  3.563 9.698 -1.287
v  0 5.53 3.38615e-16
v  0.072 5.53 0.177
v  8.603 1.9031e-16 -3.108
v  8.781 1.95331e-16 -3.19
v  4.436 9.81554e-17 -1.603
v  0 0 0
v  3.563 7.8806e-17 -1.287
v  0.098 -1.46345e-17 0.239
v  0.072 -1.08381e-17 0.177
v  1.295 -1.93923e-16 3.167
v  2.461 -3.6868e-16 6.021
v  3.669 -3.40819e-16 5.566
v  11.044 -1.48305e-16 2.422
v  11.17 -1.44998e-16 2.368

# 0 UV coordinates

# 42 vertex normals
vn 0.330207 0.52045 0.787461
vn 0.330293 0.520468 0.787413
vn 0.330246 0.52049 0.787418
vn -0.330304 0.520423 -0.787439
vn 0.683352 0.674559 -0.279283
vn 0.685317 0.672239 -0.280063
vn 0.686691 0.671552 -0.278338
vn 0.685197 0.672317 -0.28017
vn -0.685376 0.672104 0.280244
vn -0.685283 0.672254 0.280112
vn -0.684964 0.672265 0.280864
vn 0 1 0
vn -0.41841 0 -0.908258
vn -0.41841 0 -0.908258
vn -0.339694 0 -0.940536
vn -0.340027 -0.000321083 -0.940416
vn -0.339769 6.007e-05 -0.940509
vn -0.339789 5.80447e-05 -0.940502
vn -0.339853 5.75877e-17 -0.940479
vn 5.61513e-21 -1 -6.12274e-17
vn -0.926295 -2.30722e-17 0.376798
vn -0.925238 -9.6608e-05 0.379386
vn -1.49851e-21 1 6.12328e-17
vn -0.92568 6.84254e-05 0.378307
vn -0.925679 -6.26205e-05 0.37831
vn -0.925722 0 0.378203
vn -0.922194 0 0.386727
vn -0.925638 0 0.378411
vn 0.352481 -0 0.935819
vn 0.352481 0 0.935819
vn 0.392157 0 0.919898
vn 0.393918 0 0.919146
vn 0.918726 0 -0.394897
vn 0.918726 0 -0.394897
vn 0 -1 -6.12323e-17
vn 3.25014e-24 -1 -6.12323e-17
vn 2.21095e-24 -1 -6.12323e-17
vn 0 -1 -6.12323e-17
vn -2.572e-23 -1 -6.12324e-17
vn 0 -1 -6.12323e-17
vn -1.78774e-22 -1 -6.12323e-17
vn -1.19691e-23 -1 -6.12323e-17

# Mesh 'defaultobject' with 46 faces
g defaultobject
usemtl DefaultMaterial
f  1//1 2//1 3//1
f  2//2 1//2 4//2
f  4//3 1//3 5//3
f  4//4 6//4 2//4
f  7//5 5//5 8//5
f  5//6 7//6 4//6
f  4//7 7//7 9//7
f  4//8 9//8 10//8
f  11//9 4//9 10//9
f  4//10 11//10 6//10
f  6//11 11//11 12//11
f  6//12 12//12 13//12
f  7//13 14//13 9//13
f  14//13 7//13 15//14
f  16//15 9//15 14//15
f  9//16 11//16 10//16
f  11//17 9//17 16//17
f  11//18 16//18 12//18
f  12//19 16//19 17//19
f  17//20 16//20 18//20
f  17//21 13//21 12//21
f  13//22 17//22 19//22
f  19//23 17//23 20//23
f  6//24 3//24 2//24
f  3//25 6//25 21//25
f  3//26 21//26 22//26
f  19//27 6//27 13//27
f  6//28 19//28 21//28
f  22//29 1//29 3//29
f  1//29 22//29 23//30
f  24//31 1//31 23//31
f  24//31 5//31 1//31
f  5//32 24//32 8//32
f  8//32 24//32 25//32
f  8//33 15//33 7//33
f  15//33 8//33 25//34
f  18//20 20//35 17//20
f  20//35 18//20 19//36
f  19//36 18//20 21//37
f  21//37 18//20 22//38
f  22//38 18//20 16//20
f  22//38 16//20 14//38
f  22//38 14//38 23//39
f  23//39 14//38 24//40
f  24//40 14//38 15//41
f  24//40 15//41 25//42

