# {"id":"ID_51291","idOriginal":"ID_51291","origin":[14.320172991108931,48.331955422171134],"elevation":257.682}
# Longitude: 14.320172991108931
# Latitude: 48.331955422171134
# Elevation: 257.682

# File produced by Open Asset Import Library (http://www.assimp.sf.net)
# (assimp v3.1.0)

mtllib ID_51291.obj.mtl

# 10 vertex positions
v  8.066 16.401 3.347
v  0.454 16.401 -1.277
v  0 16.401 1.00427e-15
v  4.479 16.401 0.387
v  8.588 16.401 2.086
v  0.454 7.81937e-17 -1.277
v  0 0 0
v  8.066 -2.04945e-16 3.347
v  8.588 -1.27731e-16 2.086
v  4.479 -2.36969e-17 0.387

# 0 UV coordinates

# 13 vertex normals
vn 0 1 0
vn -0.942225 0 -0.334981
vn -0.942225 2.05116e-17 -0.334981
vn -0.383265 -5.65565e-17 0.923638
vn -0.383265 0 0.923638
vn 0.923963 -0 0.382481
vn 0.382054 0 -0.92414
vn 0.382107 -1.50521e-05 -0.924118
vn 0.382054 1.53666e-05 -0.92414
vn 0.382107 0 -0.924118
vn 5.6124e-25 -1 -6.12323e-17
vn -1.11502e-24 -1 -6.12323e-17
vn 0 -1 -6.12323e-17

# Mesh 'defaultobject' with 16 faces
g defaultobject
usemtl DefaultMaterial
f  1//1 2//1 3//1
f  2//1 1//1 4//1
f  4//1 1//1 5//1
f  6//2 3//2 2//2
f  3//2 6//2 7//3
f  7//4 1//4 3//4
f  1//4 7//4 8//5
f  8//6 5//6 1//6
f  5//6 8//6 9//6
f  4//7 6//7 2//7
f  6//8 4//8 5//8
f  6//9 5//9 10//9
f  10//10 5//10 9//10
f  10//11 7//11 6//11
f  7//11 10//11 8//12
f  8//12 10//11 9//13

