# {"id":"ID_33473","idOriginal":"ID_33473","origin":[14.307434600130682,48.33631181303117],"elevation":272.532}
# Longitude: 14.307434600130682
# Latitude: 48.33631181303117
# Elevation: 272.532

# File produced by Open Asset Import Library (http://www.assimp.sf.net)
# (assimp v3.1.0)

mtllib ID_33473.obj.mtl

# 22 vertex positions
v  9.866 4.662 3.477
v  8.95 5.149 -0.36
v  1.645 4.657 5.771
v  8.545 5.365 -2.058
v  8.472 5.365 -2.038
v  3.096 5.369 -0.601
v  3.074 5.375 -0.648
v  2.98 5.402 -0.849
v  0.308 5.398 -0.088
v  0 5.398 3.30532e-16
v  0.153 5.398 -0.044
v  8.545 1.26016e-16 -2.058
v  8.95 2.20436e-17 -0.36
v  9.866 -2.12905e-16 3.477
v  3.096 3.68006e-17 -0.601
v  8.472 1.24791e-16 -2.038
v  2.98 5.19863e-17 -0.849
v  0 0 0
v  0.308 5.38845e-18 -0.088
v  0.153 2.69422e-18 -0.044
v  3.074 3.96786e-17 -0.648
v  1.645 -3.53372e-16 5.771

# 0 UV coordinates

# 35 vertex normals
vn 0.0323882 0.992458 0.118233
vn 0.0325905 0.992423 0.118471
vn 0.0324163 0.992446 0.11832
vn 0.0323499 0.992455 0.118262
vn 0.0227217 0.992974 0.116128
vn 0.0323105 0.992463 0.118205
vn 0.032172 0.992471 0.118178
vn 0.0336674 0.992462 0.117836
vn -0 1 -0
vn 0.972714 0 -0.232008
vn 0.972669 6.54349e-05 -0.232195
vn 0.972714 -0.000170154 -0.232008
vn 0.972667 0 -0.232203
vn -0.264235 0 -0.964458
vn -0.258233 8.77243e-05 -0.966083
vn -0.258314 -0 -0.966061
vn -5.0529e-21 -1 -6.12209e-17
vn -0.273913 0 -0.961755
vn -0.273081 0.000444963 -0.961991
vn -0.27638 -0.00142315 -0.961047
vn -0.273996 5.8889e-17 -0.961731
vn 0 1 6.12328e-17
vn 0 1 6.12327e-17
vn 0.905838 0 -0.423625
vn 0.90569 1.43489e-05 -0.42394
vn 0.90581 0 -0.423685
vn -5.1423e-20 -1 -6.12448e-17
vn -0.961694 -1.67854e-17 0.274127
vn -0.961694 0 0.274127
vn 0.268774 0 0.963203
vn 0.268774 0 0.963203
vn 0 -1 -6.12323e-17
vn 2.18991e-22 -1 -6.12324e-17
vn 2.18143e-24 -1 -6.12323e-17
vn 3.56453e-22 -1 -6.12325e-17

# Mesh 'defaultobject' with 40 faces
g defaultobject
usemtl DefaultMaterial
f  1//1 2//1 3//1
f  4//2 3//2 2//2
f  5//3 3//3 4//3
f  6//4 3//4 5//4
f  7//5 3//5 6//5
f  8//6 3//6 7//6
f  9//7 3//7 8//7
f  10//8 3//8 9//8
f  11//9 10//9 9//9
f  2//10 12//10 4//10
f  12//11 2//11 1//11
f  12//12 1//12 13//12
f  13//13 1//13 14//13
f  12//14 5//14 4//14
f  5//15 12//15 6//15
f  6//16 12//16 15//16
f  15//17 12//17 16//17
f  17//18 9//18 8//18
f  9//19 17//19 11//19
f  11//20 17//20 10//20
f  10//21 17//21 18//21
f  18//22 17//22 19//22
f  18//22 19//22 20//23
f  7//24 17//24 8//24
f  17//25 7//25 6//25
f  17//26 6//26 15//26
f  17//27 15//17 21//27
f  18//28 3//28 10//28
f  3//28 18//28 22//29
f  3//30 14//30 1//30
f  14//30 3//30 22//31
f  20//32 22//32 18//32
f  22//32 20//32 19//33
f  22//32 19//33 17//27
f  22//32 17//27 21//27
f  22//32 21//27 15//17
f  22//32 15//17 16//17
f  22//32 16//17 14//34
f  14//34 16//17 13//35
f  13//35 16//17 12//17

