# {"id":"ID_12477","idOriginal":"ID_12477","origin":[14.303541884226767,48.275597600598125],"elevation":276.126}
# Longitude: 14.303541884226767
# Latitude: 48.275597600598125
# Elevation: 276.126

# File produced by Open Asset Import Library (http://www.assimp.sf.net)
# (assimp v3.1.0)

mtllib ID_12477.obj.mtl

# 26 vertex positions
v  1.87 8.305 -10.221
v  21.753 8.867 -6.025
v  21.802 8.305 -6.503
v  21.427 12.627 -2.83
v  20.906 14.738 -1.099
v  0.885 14.738 -4.834
v  19.299 8.222 4.243
v  16.373 8.946 3.07
v  16.186 8.396 3.512
v  19.325 8.327 4.157
v  7.802 8.956 1.463
v  0.049 9.28 -0.264
v  0 8.965 5.48948e-16
v  0 0 0
v  7.802 -8.95829e-17 1.463
v  16.373 -1.87983e-16 3.07
v  16.186 -2.15048e-16 3.512
v  19.299 -2.59809e-16 4.243
v  21.802 3.98194e-16 -6.503
v  1.87 6.25856e-16 -10.221
v  21.427 1.73288e-16 -2.83
v  19.325 -2.54543e-16 4.157
v  20.906 6.72943e-17 -1.099
v  21.753 3.68925e-16 -6.025
v  0.885 2.95997e-16 -4.834
v  0.049 1.61653e-17 -0.264

# 0 UV coordinates

# 40 vertex normals
vn 0.139573 0.648576 -0.748243
vn 0.139652 0.648189 -0.748564
vn 0.139624 0.648242 -0.748524
vn 0.139644 0.648214 -0.748544
vn -0.139433 0.648675 0.748184
vn -0.139944 0.64775 0.748889
vn -0.139653 0.648158 0.748591
vn -0.479083 0.623664 0.617675
vn -0.139538 0.648712 0.748132
vn -0.139659 0.648175 0.748575
vn -0.13959 0.648225 0.748544
vn -0.184304 -6.01834e-17 0.982869
vn -0.184282 -1.99448e-05 0.982873
vn -0.184304 2.19707e-05 0.982869
vn -0.184282 0 0.982873
vn -0.228604 0 0.97352
vn -0.228604 0 0.97352
vn -0.920969 0 -0.389637
vn -0.920968 -0 -0.389637
vn 0.183371 0 -0.983044
vn 0.957591 7.18474e-05 0.28813
vn 0.958001 -0.00236044 0.286755
vn 0.957599 0 0.288106
vn 0.957599 0 0.288105
vn -2.36218e-19 1 6.11804e-17
vn 0 -1 -6.12235e-17
vn 0.994835 -0 0.101507
vn 0.994801 0.000119719 0.101836
vn 0.994829 0 0.101568
vn -2.73387e-20 -1 -6.12352e-17
vn -0.983691 0 -0.179866
vn -0.983681 2.1161e-05 -0.179922
vn -0.983691 -4.09654e-05 -0.179866
vn -0.983382 0.000815639 -0.181548
vn -0.983651 1.1027e-17 -0.180085
vn 0 -1 -6.12324e-17
vn 5.76986e-23 -1 -6.12326e-17
vn 0 -1 -6.12321e-17
vn -1.00362e-24 -1 -6.12323e-17
vn -9.34803e-24 -1 -6.12323e-17

# Mesh 'defaultobject' with 48 faces
g defaultobject
usemtl DefaultMaterial
f  1//1 2//1 3//1
f  2//2 1//2 4//2
f  4//3 1//3 5//3
f  5//4 1//4 6//4
f  7//5 8//5 9//5
f  8//6 7//6 6//6
f  6//7 7//7 5//7
f  5//8 7//8 10//8
f  11//9 12//9 13//9
f  12//10 11//10 6//10
f  6//11 11//11 8//11
f  14//12 11//12 13//12
f  11//13 14//13 8//13
f  8//14 14//14 15//14
f  8//15 15//15 16//15
f  17//16 7//16 9//16
f  7//16 17//16 18//17
f  16//18 9//18 8//18
f  9//18 16//18 17//19
f  19//20 1//20 3//20
f  1//20 19//20 20//20
f  10//21 4//21 5//21
f  4//22 10//22 7//22
f  4//23 7//23 18//23
f  4//23 18//23 21//24
f  21//25 18//25 22//25
f  21//26 22//26 23//26
f  21//27 2//27 4//27
f  2//28 21//28 3//28
f  3//29 21//29 19//29
f  19//30 21//26 24//30
f  20//31 6//31 1//31
f  6//32 20//32 12//32
f  12//33 20//33 25//33
f  12//34 25//34 13//34
f  13//35 25//35 14//35
f  14//36 25//36 26//36
f  17//37 22//26 18//37
f  22//26 17//37 23//26
f  23//26 17//37 21//26
f  21//26 17//37 24//30
f  24//30 17//37 19//30
f  19//30 17//37 16//38
f  19//30 16//38 20//39
f  20//39 16//38 15//40
f  20//39 15//40 25//36
f  25//36 15//40 26//36
f  26//36 15//40 14//36

