# {"id":"ID_20362","idOriginal":"ID_20362","origin":[14.279281609656813,48.3283788781614],"elevation":286.862,"wof":[{"Id":85681677,"Name":"Oberösterreich","Placetype":"region","Offset":-1},{"Id":85898415,"Name":"Bachl","Placetype":"neighbourhood","Offset":-1},{"Id":102049853,"Name":"Linz","Placetype":"county","Offset":-1},{"Id":101748071,"Name":"Linz","Placetype":"locality","Offset":-1},{"Id":85632785,"Name":"Austria","Placetype":"country","Offset":-1}]}

# Attribution: City of Linz <http://geo.data.linz.gv.at/katalog/geodata/3d_geo_daten_lod2/>
# Longitude: 14.279281609656813
# Latitude: 48.3283788781614
# Elevation: 286.862

# File produced by Open Asset Import Library (http://www.assimp.sf.net)
# (assimp v3.1.0)


# 16 vertex positions
v  19.11 3.799 -17.486
v  20.403 3.799 -11
v  22.925 3.799 -13.304
v  20.024 3.799 -11.416
v  0 3.799 2.32622e-16
v  6.074 3.799 1.286
v  3.865 3.799 4.168
v  6.452 3.799 1.701
v  20.403 6.73556e-16 -11
v  22.925 8.14635e-16 -13.304
v  3.865 -2.55216e-16 4.168
v  6.452 -1.04156e-16 1.701
v  6.074 -7.87448e-17 1.286
v  20.024 6.99028e-16 -11.416
v  19.11 1.07071e-15 -17.486
v  0 0 0

# 0 UV coordinates

# 15 vertex normals
vn 0 1 0
vn 0.674478 -0 0.738295
vn 0.690123 -0 0.723692
vn 0.673258 -0 0.739407
vn 0.73878 0 -0.673947
vn 0.739295 0 -0.673382
vn -0.675063 0 -0.73776
vn -0.675063 4.51747e-17 -0.73776
vn -0.733257 -4.1635e-17 0.679952
vn -0.733257 0 0.679952
vn -0.739217 0 0.673468
vn 3.09811e-23 -1 -6.12323e-17
vn 4.33259e-24 -1 -6.12323e-17
vn 0 -1 -6.12323e-17
vn 1.31944e-23 -1 -6.12323e-17

# Mesh 'defaultobject' with 28 faces
g defaultobject
usemtl DefaultMaterial
f  1//1 2//1 3//1
f  2//1 1//1 4//1
f  4//1 1//1 5//1
f  4//1 5//1 6//1
f  6//1 5//1 7//1
f  7//1 8//1 6//1
f  9//2 3//2 2//2
f  3//2 9//2 10//2
f  11//3 8//3 7//3
f  8//3 11//3 12//3
f  13//4 4//4 6//4
f  4//4 13//4 14//4
f  10//5 1//5 3//5
f  1//5 10//5 15//5
f  12//6 6//6 8//6
f  6//6 12//6 13//6
f  15//7 5//7 1//7
f  5//7 15//7 16//8
f  16//9 7//9 5//9
f  7//9 16//9 11//10
f  14//11 2//11 4//11
f  2//11 14//11 9//11
f  9//12 14//12 10//12
f  10//12 16//13 15//13
f  16//13 10//12 14//12
f  16//13 14//12 13//14
f  16//13 13//14 11//14
f  11//14 13//14 12//15

