# {"id":"ID_48025","idOriginal":"ID_48025","origin":[14.371003568875992,48.25016286700617],"elevation":250.261,"wof":[{"Id":85681677,"Name":"Oberösterreich","Placetype":"region","Offset":-1},{"Id":85898441,"Name":"Posch","Placetype":"neighbourhood","Offset":-1},{"Id":102049853,"Name":"Linz","Placetype":"county","Offset":-1},{"Id":85632785,"Name":"Austria","Placetype":"country","Offset":-1},{"Id":101748071,"Name":"Linz","Placetype":"locality","Offset":-1}]}

# Attribution: City of Linz <http://geo.data.linz.gv.at/katalog/geodata/3d_geo_daten_lod2/>
# Longitude: 14.371003568875992
# Latitude: 48.25016286700617
# Elevation: 250.261

# File produced by Open Asset Import Library (http://www.assimp.sf.net)
# (assimp v3.1.0)


# 8 vertex positions
v  0 1.636 1.00176e-16
v  6.245 2.477 0.125
v  1.434 2.477 -2.565
v  4.811 1.636 2.69
v  1.434 1.57061e-16 -2.565
v  0 0 0
v  4.811 -1.64715e-16 2.69
v  6.245 -7.65404e-18 0.125

# 0 UV coordinates

# 8 vertex normals
vn -0.134277 0.961404 0.240151
vn -0.872854 0 -0.487981
vn -0.872854 2.98803e-17 -0.487981
vn -0.488029 -5.34453e-17 0.872828
vn -0.488029 0 0.872828
vn 0.872854 0 0.487981
vn 0.488029 0 -0.872828
vn 0 -1 -6.12323e-17

# Mesh 'defaultobject' with 12 faces
g defaultobject
usemtl DefaultMaterial
f  1//1 2//1 3//1
f  2//1 1//1 4//1
f  5//2 1//2 3//2
f  1//2 5//2 6//3
f  6//4 4//4 1//4
f  4//4 6//4 7//5
f  4//6 8//6 2//6
f  8//6 4//6 7//6
f  8//7 3//7 2//7
f  3//7 8//7 5//7
f  8//8 6//8 5//8
f  6//8 8//8 7//8

