# {"id":"ID_18412","idOriginal":"ID_18412","origin":[14.3295720609488,48.27868608710403],"elevation":256.078,"wof":[{"Id":102049853,"Name":"Linz","Placetype":"county","Offset":-1},{"Id":85632785,"Name":"Austria","Placetype":"country","Offset":-1},{"Id":101748071,"Name":"Linz","Placetype":"locality","Offset":-1},{"Id":85681677,"Name":"Oberösterreich","Placetype":"region","Offset":-1},{"Id":85898459,"Name":"Wegscheid","Placetype":"neighbourhood","Offset":-1}]}

# Attribution: City of Linz <http://geo.data.linz.gv.at/katalog/geodata/3d_geo_daten_lod2/>
# Longitude: 14.3295720609488
# Latitude: 48.27868608710403
# Elevation: 256.078

# File produced by Open Asset Import Library (http://www.assimp.sf.net)
# (assimp v3.1.0)


# 40 vertex positions
v  0.889 12.845 4.496
v  1.766 7.477 -0.404
v  0 7.509 4.59794e-16
v  2.749 12.845 4.101
v  1.476 16.369 7.466
v  2.869 13.503 4.653
v  10.122 13.343 2.971
v  2.463 16.415 7.296
v  8.302 16.387 6.03
v  19.076 12.956 0.727
v  8.466 17.637 7.093
v  11.437 17.698 6.515
v  26.906 12.919 -0.97
v  37.607 17.62 0.883
v  29.97 12.845 -1.686
v  35.998 12.701 -3.094
v  36.907 12.845 -3.161
v  34.814 3.049 -11.317
v  34.385 3.109 -11.173
v  36.023 6.812 -8.27
v  0 0 0
v  1.766 2.47379e-17 -0.404
v  34.385 6.84149e-16 -11.173
v  34.814 6.92966e-16 -11.317
v  35.998 1.89453e-16 -3.094
v  29.97 1.03238e-16 -1.686
v  26.906 5.93954e-17 -0.97
v  19.076 -4.45159e-17 0.727
v  10.122 -1.81921e-16 2.971
v  2.869 -2.84914e-16 4.653
v  1.476 -4.57161e-16 7.466
v  0.889 -2.75301e-16 4.496
v  8.466 -4.34321e-16 7.093
v  8.302 -3.69231e-16 6.03
v  2.463 -4.46751e-16 7.296
v  11.437 -3.98929e-16 6.515
v  37.607 -5.40682e-17 0.883
v  36.023 5.06391e-16 -8.27
v  36.907 1.93555e-16 -3.161
v  2.749 -2.51114e-16 4.101

# 0 UV coordinates

# 66 vertex normals
vn -0.157941 0.651516 -0.742011
vn -0.157581 0.651588 -0.742025
vn -0.157577 0.651608 -0.742009
vn -0.158312 0.651382 -0.742051
vn -0.157694 0.651613 -0.74198
vn -0.158225 0.650881 -0.742509
vn -0.15778 0.651437 -0.742116
vn -0.157832 0.651414 -0.742124
vn -0.157675 0.651645 -0.741955
vn -0.157733 0.651578 -0.742001
vn -0.157736 0.651576 -0.742003
vn -0.157746 0.651561 -0.742014
vn -0.157685 0.651462 -0.742114
vn -0.157758 0.651535 -0.742034
vn -0.157906 0.651549 -0.741991
vn -0.157942 0.651524 -0.742005
vn -0.157741 0.651531 -0.742042
vn -0.157903 0.651513 -0.742022
vn -0.223005 0 -0.974817
vn -0.223005 0 -0.974817
vn -0.318215 0 -0.948018
vn -0.227454 0 -0.973789
vn -0.227552 -4.8496e-05 -0.973766
vn -0.211746 0.0116492 -0.977255
vn -0.227443 -0.00988945 -0.973741
vn -0.22754 -0.00997519 -0.973718
vn -0.243875 -0.0203876 -0.969592
vn -0.211761 0.0222167 -0.977069
vn -0.225632 0.0124148 -0.974134
vn -0.243085 -0.00974805 -0.969956
vn -0.225909 -0 -0.974148
vn -0.981023 0 0.193892
vn -0.98101 1.56989e-05 0.193958
vn -0.981013 0 0.193943
vn -8.98966e-20 -1 -6.12196e-17
vn -0.988307 0 0.152476
vn -0.988307 0 0.152476
vn -0.980646 0 0.19579
vn 0.16974 0 0.985489
vn 0.16974 0 0.985489
vn 0.211895 -0 0.977292
vn 0.211895 0 0.977293
vn 0.190967 0 0.981596
vn 0.190967 0 0.981597
vn 0.210391 -0 0.977617
vn 0.210391 0 0.977617
vn 0.985348 0 -0.170559
vn 0.985355 1.50785e-05 -0.170512
vn 0.985354 0 -0.170523
vn -1.5377e-19 -1 -6.12007e-17
vn 0.929504 0 -0.368812
vn 0.929504 0 -0.368812
vn 0.977176 0 -0.212429
vn 0.97702 -3.23897e-05 -0.213149
vn 0.97703 0 -0.213103
vn 0 1 6.12211e-17
vn -9.15427e-24 -1 -6.12323e-17
vn -1.58445e-24 -1 -6.12323e-17
vn -6.45397e-23 -1 -6.12323e-17
vn -1.34023e-23 -1 -6.12323e-17
vn 3.9961e-24 -1 -6.12323e-17
vn 5.04401e-25 -1 -6.12323e-17
vn -2.23219e-24 -1 -6.12324e-17
vn 0 -1 -6.12323e-17
vn -1.52635e-24 -1 -6.12323e-17
vn 4.43574e-24 -1 -6.12323e-17

# Mesh 'defaultobject' with 76 faces
g defaultobject
usemtl DefaultMaterial
f  1//1 2//1 3//1
f  2//2 1//2 4//2
f  4//3 1//3 5//3
f  4//4 5//4 6//4
f  6//5 5//5 7//5
f  7//6 5//6 8//6
f  7//7 8//7 9//7
f  7//8 9//8 10//8
f  10//9 9//9 11//9
f  10//10 11//10 12//10
f  10//10 12//10 13//11
f  13//12 12//12 14//12
f  13//13 14//13 15//13
f  15//14 14//14 16//14
f  16//15 14//15 17//15
f  16//16 18//16 19//16
f  18//17 16//17 20//17
f  20//18 16//18 17//18
f  2//19 21//19 3//19
f  21//19 2//19 22//20
f  18//21 23//21 19//21
f  23//21 18//21 24//21
f  25//22 15//22 16//22
f  15//23 25//23 13//23
f  13//24 25//24 10//24
f  10//25 25//25 26//25
f  10//26 26//26 27//26
f  10//27 27//27 7//27
f  7//28 27//28 28//28
f  7//29 28//29 6//29
f  6//30 28//30 29//30
f  6//31 29//31 30//31
f  1//32 31//32 5//32
f  31//33 1//33 3//33
f  31//34 3//34 21//34
f  31//35 21//35 32//35
f  9//36 33//36 11//36
f  33//36 9//36 34//37
f  19//38 25//38 16//38
f  25//38 19//38 23//38
f  5//39 35//39 8//39
f  35//39 5//39 31//40
f  35//41 9//41 8//41
f  9//41 35//41 34//42
f  11//43 36//43 12//43
f  36//43 11//43 33//44
f  36//45 14//45 12//45
f  14//45 36//45 37//46
f  37//47 17//47 14//47
f  17//48 37//48 20//48
f  20//49 37//49 38//49
f  38//50 37//50 39//50
f  38//51 18//51 20//51
f  18//51 38//51 24//52
f  30//53 4//53 6//53
f  4//54 30//54 2//54
f  2//55 30//55 22//55
f  22//56 30//56 40//56
f  34//57 36//57 33//57
f  22//58 40//58 21//35
f  30//59 21//35 40//58
f  24//60 38//50 23//60
f  39//50 23//60 38//50
f  25//61 23//60 39//50
f  37//50 25//61 39//50
f  26//62 25//61 37//50
f  36//57 26//62 37//50
f  27//63 26//62 36//57
f  28//64 27//63 36//57
f  29//65 28//64 36//57
f  30//59 29//65 36//57
f  34//57 30//59 36//57
f  35//66 30//59 34//57
f  21//35 30//59 35//66
f  32//35 21//35 35//66
f  31//35 32//35 35//66

