# {"id":"ID_34278","idOriginal":"ID_34278","origin":[14.28856466559002,48.33636214087646],"elevation":309.309}
# Longitude: 14.28856466559002
# Latitude: 48.33636214087646
# Elevation: 309.309

# File produced by Open Asset Import Library (http://www.assimp.sf.net)
# (assimp v3.1.0)

mtllib ID_34278.obj.mtl

# 10 vertex positions
v  1.909 4.631 5.982
v  7.125 2.806 -2.258
v  0 2.802 1.71573e-16
v  7.181 2.86 -2.081
v  9.037 4.631 3.708
v  9.037 -2.2705e-16 3.708
v  7.181 1.27424e-16 -2.081
v  7.125 1.38263e-16 -2.258
v  0 0 0
v  1.909 -3.66292e-16 5.982

# 0 UV coordinates

# 13 vertex normals
vn -0.0849751 0.9601 -0.266434
vn -0.0845573 0.960204 -0.266192
vn -0.0850074 0.96009 -0.266461
vn 0.952256 0 -0.305301
vn 0.952256 0 -0.305301
vn 0.95342 0 -0.301646
vn -0.302104 0 -0.953275
vn -0.302104 5.83713e-17 -0.953275
vn -0.952666 0 0.304019
vn 0.303932 -0 0.952694
vn -2.86145e-23 -1 -6.12324e-17
vn -1.16522e-24 -1 -6.12323e-17
vn 0 -1 -6.12323e-17

# Mesh 'defaultobject' with 16 faces
g defaultobject
usemtl DefaultMaterial
f  1//1 2//1 3//1
f  2//2 1//2 4//2
f  4//3 1//3 5//3
f  6//4 4//4 5//4
f  4//4 6//4 7//5
f  4//6 7//6 2//6
f  2//6 7//6 8//6
f  8//7 3//7 2//7
f  3//7 8//7 9//8
f  3//9 10//9 1//9
f  10//9 3//9 9//9
f  10//10 5//10 1//10
f  5//10 10//10 6//10
f  7//11 9//11 8//11
f  9//11 7//11 6//12
f  9//11 6//12 10//13

