# {"id":"ID_53735","idOriginal":"ID_53735","origin":[14.3261494519424,48.245780588468875],"elevation":258.107,"wof":[{"Id":85898451,"Name":"Ufer","Placetype":"neighbourhood","Offset":-1},{"Id":85681677,"Name":"Oberösterreich","Placetype":"region","Offset":-1},{"Id":102049853,"Name":"Linz","Placetype":"county","Offset":-1},{"Id":101748071,"Name":"Linz","Placetype":"locality","Offset":-1},{"Id":85632785,"Name":"Austria","Placetype":"country","Offset":-1}]}

# Attribution: City of Linz <http://geo.data.linz.gv.at/katalog/geodata/3d_geo_daten_lod2/>
# Longitude: 14.3261494519424
# Latitude: 48.245780588468875
# Elevation: 258.107

# File produced by Open Asset Import Library (http://www.assimp.sf.net)
# (assimp v3.1.0)


# 8 vertex positions
v  5.35 8.719 -0.686
v  0 8.719 5.33885e-16
v  5.096 8.719 0.974
v  0.375 8.719 -1.758
v  5.096 -5.96403e-17 0.974
v  5.35 4.20054e-17 -0.686
v  0.375 1.07646e-16 -1.758
v  0 0 0

# 0 UV coordinates

# 9 vertex normals
vn 0 1 0
vn 0.988495 -0 0.151252
vn 0.210643 0 -0.977563
vn -0.977997 0 -0.208617
vn -0.977997 1.27741e-17 -0.208617
vn -0.187732 -6.01436e-17 0.98222
vn -0.187732 0 0.98222
vn 3.80018e-25 -1 -6.12323e-17
vn 0 -1 -6.12323e-17

# Mesh 'defaultobject' with 12 faces
g defaultobject
usemtl DefaultMaterial
f  1//1 2//1 3//1
f  2//1 1//1 4//1
f  5//2 1//2 3//2
f  1//2 5//2 6//2
f  6//3 4//3 1//3
f  4//3 6//3 7//3
f  7//4 2//4 4//4
f  2//4 7//4 8//5
f  8//6 3//6 2//6
f  3//6 8//6 5//7
f  8//8 6//8 5//8
f  6//8 8//8 7//9

