# {"id":"ID_2243","idOriginal":"ID_2243","origin":[14.335273833642736,48.27512670652881],"elevation":256.958}
# Longitude: 14.335273833642736
# Latitude: 48.27512670652881
# Elevation: 256.958

# File produced by Open Asset Import Library (http://www.assimp.sf.net)
# (assimp v3.1.0)

mtllib ID_2243.obj.mtl

# 20 vertex positions
v  30.23 5.509 17.857
v  4.654 5.509 22.764
v  4.749 5.509 23.231
v  0 5.509 3.37329e-16
v  9.652 5.509 -2.095
v  9.147 5.509 -4.458
v  30.103 5.509 17.25
v  29.494 5.509 14.329
v  24.892 5.509 -7.763
v  25.541 5.509 -4.65
v  4.749 -1.42249e-15 23.231
v  30.23 -1.09343e-15 17.857
v  30.103 -1.05626e-15 17.25
v  29.494 -8.77398e-16 14.329
v  25.541 2.8473e-16 -4.65
v  24.892 4.75347e-16 -7.763
v  9.147 2.72974e-16 -4.458
v  9.652 1.28282e-16 -2.095
v  0 0 0
v  4.654 -1.39389e-15 22.764

# 0 UV coordinates

# 24 vertex normals
vn 0 1 0
vn 0.206363 -0 0.978476
vn 0.978806 0 -0.20479
vn 0.97895 7.90737e-05 -0.204102
vn 0.97899 0.000209408 -0.203907
vn 0.9788 -0.00355298 -0.204788
vn 0.978949 -0.000701311 -0.204102
vn 0.97899 0 -0.203907
vn 0.978952 0 -0.204092
vn -0.205431 0 -0.978672
vn -0.212114 0 -0.977245
vn -0.212114 5.9839e-17 -0.977245
vn -0.977917 0 0.208992
vn -0.97993 0 0.199343
vn -0.979734 8.46566e-05 0.200302
vn -0.979921 -0.00412738 0.199342
vn -0.979734 0 0.200302
vn 0 -1 -6.12323e-17
vn 1.27299e-25 -1 -6.12323e-17
vn 3.52987e-23 -1 -6.12324e-17
vn -3.40057e-22 -1 -6.12323e-17
vn 5.49307e-24 -1 -6.12323e-17
vn 0 -1 -6.12322e-17
vn -9.22821e-25 -1 -6.12323e-17

# Mesh 'defaultobject' with 36 faces
g defaultobject
usemtl DefaultMaterial
f  1//1 2//1 3//1
f  2//1 1//1 4//1
f  4//1 1//1 5//1
f  5//1 1//1 6//1
f  6//1 1//1 7//1
f  6//1 7//1 8//1
f  6//1 8//1 9//1
f  9//1 8//1 10//1
f  11//2 1//2 3//2
f  1//2 11//2 12//2
f  12//3 7//3 1//3
f  7//4 12//4 8//4
f  8//5 12//5 10//5
f  10//6 12//6 13//6
f  10//7 13//7 14//7
f  10//8 14//8 15//8
f  10//9 15//9 9//9
f  9//9 15//9 16//9
f  16//10 6//10 9//10
f  6//10 16//10 17//10
f  18//11 4//11 5//11
f  4//11 18//11 19//12
f  17//13 5//13 6//13
f  5//13 17//13 18//13
f  2//14 11//14 3//14
f  11//15 2//15 4//15
f  11//16 4//16 20//16
f  20//17 4//17 19//17
f  15//18 17//18 16//18
f  17//18 15//18 14//19
f  17//18 14//19 13//20
f  17//18 13//20 12//21
f  17//18 12//21 18//22
f  18//22 12//21 11//18
f  18//22 11//18 20//23
f  18//22 20//23 19//24

