# {"id":"ID_47702","idOriginal":"ID_47702","origin":[14.289431540114963,48.338336735610184],"elevation":328.83}
# Longitude: 14.289431540114963
# Latitude: 48.338336735610184
# Elevation: 328.83

# File produced by Open Asset Import Library (http://www.assimp.sf.net)
# (assimp v3.1.0)

mtllib ID_47702.obj.mtl

# 12 vertex positions
v  0 0.96 5.8783e-17
v  3.804 0.96 -0.069
v  2.987 0.96 -1.616
v  6.132 0.96 0.992
v  1.792 0.96 3.465
v  5.278 0.96 -0.94
v  6.132 -6.07425e-17 0.992
v  5.278 5.75584e-17 -0.94
v  3.804 4.22503e-18 -0.069
v  2.987 9.89515e-17 -1.616
v  0 0 0
v  1.792 -2.1217e-16 3.465

# 0 UV coordinates

# 11 vertex normals
vn 0 1 0
vn 0.91463 0 -0.404293
vn 0.88426 0 -0.466995
vn -0.508729 0 -0.860927
vn -0.475837 0 -0.879533
vn -0.475837 5.38559e-17 -0.879533
vn -0.888243 -2.81286e-17 0.459374
vn -0.888243 0 0.459374
vn 0.495082 -0 0.868846
vn 0 -1 -6.12323e-17
vn -3.68495e-24 -1 -6.12323e-17

# Mesh 'defaultobject' with 20 faces
g defaultobject
usemtl DefaultMaterial
f  1//1 2//1 3//1
f  2//1 1//1 4//1
f  4//1 1//1 5//1
f  4//1 6//1 2//1
f  7//2 6//2 4//2
f  6//2 7//2 8//2
f  9//3 3//3 2//3
f  3//3 9//3 10//3
f  8//4 2//4 6//4
f  2//4 8//4 9//4
f  10//5 1//5 3//5
f  1//5 10//5 11//6
f  11//7 5//7 1//7
f  5//7 11//7 12//8
f  12//9 4//9 5//9
f  4//9 12//9 7//9
f  10//10 12//10 11//10
f  12//10 10//10 9//10
f  12//10 9//10 7//10
f  7//10 9//10 8//11

