# {"id":"_11624","idOriginal":"_11624","origin":[14.290338833685787,48.29868084976058],"elevation":261.847,"wof":[{"Id":102049853,"Name":"Linz","Placetype":"county","Offset":-1},{"Id":85632785,"Name":"Austria","Placetype":"country","Offset":-1},{"Id":101748071,"Name":"Linz","Placetype":"locality","Offset":-1},{"Id":85681677,"Name":"Oberösterreich","Placetype":"region","Offset":-1},{"Id":85898449,"Name":"Steeg","Placetype":"neighbourhood","Offset":-1}]}

# Attribution: City of Linz <http://geo.data.linz.gv.at/katalog/geodata/3d_geo_daten_lod2/>
# Longitude: 14.290338833685787
# Latitude: 48.29868084976058
# Elevation: 261.847

# File produced by Open Asset Import Library (http://www.assimp.sf.net)
# (assimp v3.1.0)


# 22 vertex positions
v  1.15 15.21 -5.21
v  11.522 10.437 -8.412
v  2.285 10.477 -10.354
v  21.438 15.21 -0.844
v  13.306 10.403 -8.067
v  17.368 10.377 -7.222
v  22.549 10.345 -6.144
v  20.343 10.416 4.378
v  0.098 10.826 -0.445
v  0 10.416 6.37796e-16
v  20.44 10.841 3.915
v  2.285 6.34e-16 -10.354
v  0.098 2.72484e-17 -0.445
v  0 0 0
v  1.15 3.1902e-16 -5.21
v  20.343 -2.68075e-16 4.378
v  20.44 -2.39725e-16 3.915
v  22.549 3.76212e-16 -6.144
v  21.438 5.16801e-17 -0.844
v  11.522 5.15086e-16 -8.412
v  13.306 4.93961e-16 -8.067
v  17.368 4.4222e-16 -7.222

# 0 UV coordinates

# 36 vertex normals
vn 0.140592 0.743848 -0.653394
vn 0.140606 0.743865 -0.653372
vn 0.140518 0.743941 -0.653304
vn 0.140687 0.743815 -0.653411
vn 0.140539 0.743882 -0.653367
vn -0.140727 0.743369 0.65391
vn -0.140586 0.743878 0.653361
vn -0.14059 0.743873 0.653367
vn -0.140612 0.743842 0.653397
vn -0.976512 0 -0.215463
vn -0.976491 3.30061e-05 -0.215556
vn -0.976553 -0.000234559 -0.215277
vn -0.976499 2.01817e-05 -0.215522
vn -0.976598 1.31693e-17 -0.215071
vn 1.31816e-19 -1 -6.11957e-17
vn -0.210392 -5.98618e-17 0.977617
vn -0.210392 0 0.977617
vn 0.978719 -4.53707e-05 0.205203
vn 0.978721 0.000161202 0.205194
vn 0.978721 0 0.205195
vn 0.978751 -0.000151615 0.205052
vn 0.97872 0 0.205201
vn 0 1 6.12324e-17
vn 0.205744 0 -0.978606
vn 0.205744 0 -0.978606
vn 0.189868 0 -0.98181
vn 0.189868 0 -0.98181
vn 0.203666 0 -0.979041
vn 0.203666 0 -0.979041
vn 0.203705 0 -0.979032
vn 0.203705 0 -0.979032
vn 0 -1 -6.12323e-17
vn 0 -1 -6.12323e-17
vn -3.38457e-22 -1 -6.12323e-17
vn 3.00713e-24 -1 -6.12323e-17
vn -1.95225e-23 -1 -6.12324e-17

# Mesh 'defaultobject' with 40 faces
g defaultobject
usemtl DefaultMaterial
f  1//1 2//1 3//1
f  2//2 1//2 4//2
f  2//3 4//3 5//3
f  5//4 4//4 6//4
f  6//5 4//5 7//5
f  8//6 9//6 10//6
f  9//7 8//7 1//7
f  1//7 8//7 11//8
f  1//9 11//9 4//9
f  12//10 1//10 3//10
f  1//11 12//11 9//11
f  9//12 12//12 10//12
f  10//13 12//13 13//13
f  10//14 13//14 14//14
f  13//15 12//15 15//15
f  14//16 8//16 10//16
f  8//16 14//16 16//17
f  11//18 7//18 4//18
f  7//19 11//19 8//19
f  7//20 8//20 16//20
f  7//21 16//21 17//21
f  7//20 17//22 18//22
f  18//23 17//23 19//23
f  2//24 12//24 3//24
f  12//24 2//24 20//25
f  20//26 2//26 5//26
f  20//26 5//26 21//27
f  21//28 5//28 6//28
f  21//28 6//28 22//29
f  22//30 6//30 7//30
f  22//30 7//30 18//31
f  19//32 22//32 18//32
f  22//32 19//32 17//33
f  22//32 17//33 16//34
f  22//32 16//34 14//32
f  22//32 14//32 21//35
f  21//35 14//32 20//36
f  20//36 14//32 15//15
f  20//36 15//15 12//15
f  15//15 14//32 13//15

