# {"id":"_28198","idOriginal":"_28198","origin":[14.303322744472863,48.3031024538971],"elevation":256.082,"wof":[{"Id":85681677,"Name":"Oberösterreich","Placetype":"region","Offset":-1},{"Id":85898449,"Name":"Steeg","Placetype":"neighbourhood","Offset":-1},{"Id":102049853,"Name":"Linz","Placetype":"county","Offset":-1},{"Id":101748071,"Name":"Linz","Placetype":"locality","Offset":-1},{"Id":85632785,"Name":"Austria","Placetype":"country","Offset":-1}]}

# Attribution: City of Linz <http://geo.data.linz.gv.at/katalog/geodata/3d_geo_daten_lod2/>
# Longitude: 14.303322744472863
# Latitude: 48.3031024538971
# Elevation: 256.082

# File produced by Open Asset Import Library (http://www.assimp.sf.net)
# (assimp v3.1.0)


# 16 vertex positions
v  0 24.987 1.53001e-15
v  2.145 24.987 -2.981
v  0.005 24.987 -2.98
v  2.15 24.987 -2.335
v  32.443 24.987 -0.123
v  30.236 24.987 -2.381
v  32.432 24.987 -2.996
v  30.233 24.987 -2.995
v  2.145 1.82534e-16 -2.981
v  0.005 1.82472e-16 -2.98
v  32.432 1.83452e-16 -2.996
v  30.233 1.83391e-16 -2.995
v  30.236 1.45794e-16 -2.381
v  2.15 1.42978e-16 -2.335
v  0 0 0
v  32.443 7.53158e-18 -0.123

# 0 UV coordinates

# 15 vertex normals
vn 0 1 0
vn -0.000467256 0 -1
vn -0.000454828 0 -1
vn -0.00163782 0 -0.999999
vn -0.999999 0 -0.00167785
vn -0.999999 1.02739e-19 -0.00167785
vn -0.999988 0 0.00488636
vn 0.00379124 -6.12319e-17 0.999993
vn 0.00379124 0 0.999993
vn 0.999993 0 -0.00382927
vn 0.99997 0 -0.00773988
vn -1.54962e-24 -1 -6.12323e-17
vn 2.1915e-26 -1 -6.12323e-17
vn 0 -1 -6.12323e-17
vn -8.14621e-24 -1 -6.12324e-17

# Mesh 'defaultobject' with 28 faces
g defaultobject
usemtl DefaultMaterial
f  1//1 2//1 3//1
f  2//1 1//1 4//1
f  4//1 1//1 5//1
f  4//1 5//1 6//1
f  6//1 5//1 7//1
f  7//1 8//1 6//1
f  9//2 3//2 2//2
f  3//2 9//2 10//2
f  11//3 8//3 7//3
f  8//3 11//3 12//3
f  13//4 4//4 6//4
f  4//4 13//4 14//4
f  10//5 1//5 3//5
f  1//5 10//5 15//6
f  12//7 6//7 8//7
f  6//7 12//7 13//7
f  15//8 5//8 1//8
f  5//8 15//8 16//9
f  16//10 7//10 5//10
f  7//10 16//10 11//10
f  14//11 2//11 4//11
f  2//11 14//11 9//11
f  9//12 14//12 10//12
f  15//13 14//12 16//13
f  14//12 15//13 10//12
f  16//13 14//12 13//14
f  16//13 13//14 11//14
f  11//14 13//14 12//15

