# {"id":"ID_9365","idOriginal":"ID_9365","origin":[14.28749168597763,48.303578280988646],"elevation":262.911,"wof":[{"Id":102049853,"Name":"Linz","Placetype":"county","Offset":-1},{"Id":85632785,"Name":"Austria","Placetype":"country","Offset":-1},{"Id":101748071,"Name":"Linz","Placetype":"locality","Offset":-1},{"Id":85681677,"Name":"Oberösterreich","Placetype":"region","Offset":-1},{"Id":85898449,"Name":"Steeg","Placetype":"neighbourhood","Offset":-1}]}

# Attribution: City of Linz <http://geo.data.linz.gv.at/katalog/geodata/3d_geo_daten_lod2/>
# Longitude: 14.28749168597763
# Latitude: 48.303578280988646
# Elevation: 262.911

# File produced by Open Asset Import Library (http://www.assimp.sf.net)
# (assimp v3.1.0)


# 41 vertex positions
v  14.19 13.355 -8.826
v  14.291 13.337 -8.525
v  14.354 13.346 -8.562
v  9.301 12.657 -5.893
v  7.781 13.206 -17.115
v  8.69 13.337 -17.678
v  8.125 13.194 -16.357
v  4.485 12.674 -14.171
v  9.358 12.665 -5.794
v  17.631 13.309 -2.704
v  1.66 12.983 2.801
v  9.273 12.665 -5.741
v  0 12.679 7.76365e-16
v  3.649 13.337 6.028
v  12.893 13.337 0.481
v  17.777 13.337 -2.449
v  17.777 1.49958e-16 -2.449
v  17.631 1.65572e-16 -2.704
v  14.291 5.22006e-16 -8.525
v  14.354 5.24271e-16 -8.562
v  8.69 1.08247e-15 -17.678
v  14.19 5.40437e-16 -8.826
v  3.649 -3.69109e-16 6.028
v  12.893 -2.94528e-17 0.481
v  7.781 1.04799e-15 -17.115
v  8.125 1.00158e-15 -16.357
v  4.485 8.67723e-16 -14.171
v  9.358 3.5478e-16 -5.794
v  0 0 0
v  9.273 3.51535e-16 -5.741
v  9.301 3.60842e-16 -5.893
v  1.66 -1.71512e-16 2.801
v  8.69 8.875 -17.678
v  20.157 8.875 -12.407
v  14.606 8.875 -21.341
v  14.19 8.875 -8.826
v  20.333 8.875 -12.123
v  14.354 8.875 -8.562
v  20.333 7.4232e-16 -12.123
v  14.606 1.30676e-15 -21.341
v  20.157 7.5971e-16 -12.407

# 0 UV coordinates

# 65 vertex normals
vn -0.0892776 0.991997 0.0892779
vn -0.0882808 0.992116 0.0889506
vn -0.104197 0.992577 0.062722
vn -0.105056 0.992444 0.0633886
vn -0.104163 0.992584 0.0626669
vn -0.104141 0.992589 0.0626259
vn -0.13595 0.990714 -0.00178721
vn -0.100649 0.992955 0.0625274
vn -0.0478446 0.995669 -0.0797077
vn -0.0478624 0.995667 -0.0797236
vn -0.0478302 0.99567 -0.0797083
vn -0.0492024 0.995667 -0.0789096
vn -0.0477219 0.995672 -0.0797442
vn -0.0488104 0.995489 -0.0813617
vn 0.867824 0 -0.496871
vn 0.867361 0 -0.497679
vn 0.867361 0 -0.497679
vn 0.849396 -0.00268918 -0.527749
vn 0.849398 0 -0.527753
vn -1.58603e-18 1 6.18553e-17
vn 0.50643 0 0.862281
vn 0.50643 0 0.862281
vn 0.514537 -0 0.857468
vn 0.514444 8.73568e-05 0.857524
vn 0.514505 0 0.857488
vn -1.59607e-20 -1 -6.1257e-17
vn -0.526548 0 -0.850145
vn -0.526548 -0 -0.850145
vn -0.514842 0 -0.857285
vn -0.514842 -0 -0.857285
vn -0.529101 0 -0.848559
vn -0.526392 2.52196e-05 -0.850242
vn -0.526417 5.20613e-17 -0.850226
vn 0 -1 -6.11656e-17
vn -0.910613 0 0.41326
vn -0.864362 0 0.502871
vn -0.866742 0.00360518 0.498744
vn -0.864388 0 0.502825
vn 3.35123e-21 -1 -6.12344e-17
vn -0.860272 0 0.509836
vn -0.860272 0 0.509836
vn -0.851287 0 0.524701
vn -0.851287 0 0.524701
vn 1.29553e-24 -1 -6.12323e-17
vn -1.56822e-23 -1 -6.12323e-17
vn 2.74951e-24 -1 -6.12323e-17
vn -2.76293e-22 -1 -6.12319e-17
vn 8.24464e-23 -1 -6.12325e-17
vn -5.20662e-24 -1 -6.12323e-17
vn 3.45252e-23 -1 -6.12324e-17
vn -7.49688e-24 -1 -6.12324e-17
vn -0 1 0
vn -0.84944 0 0.527684
vn -0.849397 2.88966e-06 0.527755
vn -0.84944 -9.68961e-05 0.527684
vn -0.849397 0 0.527755
vn 0.511704 -0 0.859162
vn 0.850009 0 -0.526769
vn 0.849395 -4.38307e-05 -0.527758
vn 0.849414 0 -0.527728
vn 0 1 6.12537e-17
vn -0.526429 0 -0.850219
vn -4.1312e-23 -1 -6.12324e-17
vn 8.52426e-24 -1 -6.12324e-17
vn -8.68017e-24 -1 -6.12323e-17

# Mesh 'defaultobject' with 80 faces
g defaultobject
usemtl DefaultMaterial
f  1//1 2//1 3//1
f  2//2 1//2 4//2
f  5//3 1//3 6//3
f  1//4 5//4 7//4
f  1//5 7//5 8//5
f  1//6 8//6 4//6
f  2//7 4//7 9//7
f  9//8 10//8 2//8
f  11//9 12//9 13//9
f  12//10 11//10 14//10
f  12//11 14//11 15//11
f  12//12 15//12 9//12
f  9//13 15//13 10//13
f  10//14 15//14 16//14
f  17//15 10//15 16//15
f  10//15 17//15 18//15
f  10//16 18//16 19//16
f  19//16 2//17 10//16
f  3//18 6//18 1//18
f  6//19 3//19 20//19
f  6//19 20//19 21//19
f  21//20 20//20 22//20
f  2//21 20//21 3//21
f  20//21 2//21 19//22
f  23//23 15//23 14//23
f  15//24 23//24 16//24
f  16//25 23//25 17//25
f  17//26 23//26 24//26
f  21//27 5//27 6//27
f  5//27 21//27 25//28
f  26//29 8//29 7//29
f  8//29 26//29 27//30
f  28//31 12//31 9//31
f  12//32 28//32 13//32
f  13//33 28//33 29//33
f  29//34 28//34 30//34
f  25//35 7//35 5//35
f  7//35 25//35 26//35
f  27//36 4//36 8//36
f  4//37 27//37 9//37
f  9//38 27//38 28//38
f  28//34 27//39 31//39
f  13//40 32//40 11//40
f  32//40 13//40 29//41
f  11//42 23//42 14//42
f  23//42 11//42 32//43
f  32//44 24//26 23//26
f  24//26 32//44 29//34
f  24//26 29//34 17//26
f  17//26 29//34 30//34
f  17//26 30//34 18//45
f  18//45 30//34 19//46
f  19//46 30//34 28//34
f  19//46 28//34 31//39
f  19//46 31//39 27//39
f  19//46 27//39 20//47
f  20//47 27//39 22//48
f  22//48 27//39 26//49
f  22//48 26//49 21//50
f  21//50 26//49 25//51
f  33//52 34//52 35//52
f  34//52 33//52 36//52
f  34//52 36//52 37//52
f  37//52 36//52 38//52
f  36//53 20//53 38//53
f  20//54 36//54 33//54
f  20//55 33//55 22//55
f  22//56 33//54 21//56
f  20//57 37//57 38//57
f  37//57 20//57 39//57
f  39//58 34//58 37//58
f  34//59 39//59 35//59
f  35//60 39//60 40//60
f  40//61 39//61 41//61
f  40//62 33//62 35//62
f  33//62 40//62 21//62
f  22//48 39//63 20//47
f  39//63 22//48 21//50
f  39//63 21//50 41//64
f  41//64 21//50 40//65

