# {"id":"ID_12981","idOriginal":"ID_12981","origin":[14.287413425576366,48.328163718057475],"elevation":266.545,"wof":[{"Id":102049853,"Name":"Linz","Placetype":"county","Offset":-1},{"Id":85632785,"Name":"Austria","Placetype":"country","Offset":-1},{"Id":101748071,"Name":"Linz","Placetype":"locality","Offset":-1},{"Id":85681677,"Name":"Oberösterreich","Placetype":"region","Offset":-1},{"Id":85898425,"Name":"Harbach","Placetype":"neighbourhood","Offset":-1}]}

# Attribution: City of Linz <http://geo.data.linz.gv.at/katalog/geodata/3d_geo_daten_lod2/>
# Longitude: 14.287413425576366
# Latitude: 48.328163718057475
# Elevation: 266.545

# File produced by Open Asset Import Library (http://www.assimp.sf.net)
# (assimp v3.1.0)


# 22 vertex positions
v  4.027 10.982 -5.43
v  11.213 11.374 -14.22
v  10.785 10.984 -14.544
v  0 10.981 6.72392e-16
v  0.413 11.358 0.315
v  15.36 15.145 -11.086
v  4.567 15.145 3.478
v  13.412 10.978 1.19
v  9.132 10.982 6.954
v  15.81 10.986 -2.065
v  19.938 10.982 -7.626
v  0 0 0
v  0.413 -1.92882e-17 0.315
v  4.567 -2.12966e-16 3.478
v  9.132 -4.2581e-16 6.954
v  13.412 -7.28665e-17 1.19
v  15.81 1.26445e-16 -2.065
v  19.938 4.66958e-16 -7.626
v  15.36 6.78822e-16 -11.086
v  11.213 8.70724e-16 -14.22
v  10.785 8.90563e-16 -14.544
v  4.027 3.32492e-16 -5.43

# 0 UV coordinates

# 40 vertex normals
vn -0.472239 0.809012 -0.349986
vn -0.472975 0.808307 -0.350619
vn -0.471947 0.809271 -0.349782
vn -0.471783 0.809419 -0.34966
vn -0.47175 0.809463 -0.349601
vn 0.471783 0.809377 0.349756
vn 0.471777 0.809439 0.349622
vn 0.471865 0.809389 0.349618
vn 0.471795 0.809422 0.349637
vn -0.605809 4.82712e-06 0.79561
vn -0.605838 -0.00105797 0.795587
vn -0.605838 0 0.795588
vn -0.606449 0.000802497 0.795122
vn -0.605807 -3.62585e-06 0.795612
vn -0.605812 0 0.795608
vn 0.802866 -0 0.59616
vn 0.805106 -0.00246634 0.593126
vn 0.802865 0.00138609 0.596159
vn 0.802953 0.00133185 0.596041
vn 0.805103 -0.00228282 0.59313
vn 0.802953 0 0.596042
vn 0.602951 0 -0.797778
vn 0.602927 -1.16402e-05 -0.797796
vn 0.603309 0.00044928 -0.797507
vn 0.602952 -1.93364e-05 -0.797778
vn 0.60292 -3.97934e-05 -0.797802
vn 0.60357 0 -0.79731
vn -0.803267 0 -0.595619
vn -0.803267 -0 -0.595619
vn -0.803219 -0 -0.595684
vn -0.803219 3.64751e-17 -0.595684
vn -5.32844e-24 -1 -6.12323e-17
vn -1.17644e-23 -1 -6.12323e-17
vn 1.92023e-23 -1 -6.12324e-17
vn -1.75475e-22 -1 -6.12323e-17
vn -2.05382e-23 -1 -6.12323e-17
vn 6.50473e-24 -1 -6.12323e-17
vn 0 -1 -6.12323e-17
vn 1.0914e-23 -1 -6.12323e-17
vn 0 -1 -6.12314e-17

# Mesh 'defaultobject' with 40 faces
g defaultobject
usemtl DefaultMaterial
f  1//1 2//1 3//1
f  2//2 1//2 4//2
f  2//3 4//3 5//3
f  2//4 5//4 6//4
f  6//5 5//5 7//5
f  8//6 7//6 9//6
f  7//7 8//7 6//7
f  6//8 8//8 10//8
f  6//9 10//9 11//9
f  5//10 9//10 7//10
f  9//11 5//11 4//11
f  9//12 4//12 12//12
f  9//13 12//13 13//13
f  9//10 13//14 14//14
f  9//10 14//14 15//15
f  15//16 8//16 9//16
f  8//17 15//17 10//17
f  10//18 15//18 16//18
f  10//19 16//19 11//19
f  11//20 16//20 17//20
f  11//21 17//21 18//21
f  18//22 6//22 11//22
f  6//23 18//23 2//23
f  2//24 18//24 3//24
f  3//25 18//25 19//25
f  3//26 19//26 20//26
f  3//27 20//27 21//27
f  21//28 1//28 3//28
f  1//28 21//28 22//29
f  1//30 22//30 4//30
f  4//30 22//30 12//31
f  17//32 19//32 18//32
f  19//32 17//32 20//33
f  20//33 17//32 16//34
f  20//33 16//34 21//35
f  21//35 16//34 15//36
f  21//35 15//36 22//37
f  22//37 15//36 14//38
f  22//37 14//38 12//39
f  12//39 14//38 13//40

