# File produced by Open Asset Import Library (http://www.assimp.sf.net)
# (assimp v3.1.0)

mtllib ID_37390.obj.mtl

# 20 vertex positions
v  0.161 2.783 4.178
v  8.666 2.783 -0.385
v  0 2.783 1.7041e-16
v  0.351 2.783 4.179
v  0.514 2.783 4.174
v  1.534 2.783 4.127
v  7.424 2.783 3.852
v  8.478 2.783 3.809
v  8.621 2.783 3.801
v  8.84 2.783 3.806
v  8.84 -2.3305e-16 3.806
v  8.666 2.35745e-17 -0.385
v  0 0 0
v  0.161 -2.55829e-16 4.178
v  8.621 -2.32744e-16 3.801
v  0.351 -2.5589e-16 4.179
v  0.514 -2.55584e-16 4.174
v  1.534 -2.52706e-16 4.127
v  7.424 -2.35867e-16 3.852
v  8.478 -2.33234e-16 3.809

# 0 UV coordinates

# 25 vertex normals
vn 0 1 0
vn 0.999139 0 -0.0414817
vn -0.0443827 0 -0.999015
vn -0.0443827 6.1172e-17 -0.999015
vn -0.999258 -2.35785e-18 0.0385066
vn -0.999258 0 0.0385066
vn -0.0228246 0 0.999739
vn -0.0052627 0 0.999986
vn 0.0306611 -0 0.99953
vn 0.0460295 -0.000901184 0.99894
vn 0.0466384 -0.00116056 0.998911
vn 0.0306372 0.039488 0.99875
vn 0.0460295 0.00129161 0.998939
vn 0.0407599 0.0124593 0.999091
vn 0.0466384 -0.00222915 0.998909
vn 0.040763 0 0.999169
vn 0.0558558 -0 0.998439
vn -3.64914e-25 -1 -6.12323e-17
vn 1.72433e-23 -1 -6.12323e-17
vn 4.69617e-23 -1 -6.12323e-17
vn 1.18251e-23 -1 -6.12323e-17
vn -2.68845e-25 -1 -6.12323e-17
vn 8.09286e-24 -1 -6.12323e-17
vn -9.96811e-23 -1 -6.12323e-17
vn -4.9256e-22 -1 -6.12442e-17

# Mesh 'defaultobject' with 36 faces
g defaultobject
usemtl DefaultMaterial
f  1//1 2//1 3//1
f  2//1 1//1 4//1
f  2//1 4//1 5//1
f  2//1 5//1 6//1
f  2//1 6//1 7//1
f  2//1 7//1 8//1
f  2//1 8//1 9//1
f  2//1 9//1 10//1
f  11//2 2//2 10//2
f  2//2 11//2 12//2
f  12//3 3//3 2//3
f  3//3 12//3 13//4
f  13//5 1//5 3//5
f  1//5 13//5 14//6
f  15//7 10//7 9//7
f  10//7 15//7 11//7
f  14//8 4//8 1//8
f  4//8 14//8 16//8
f  16//9 5//9 4//9
f  5//10 16//10 6//10
f  6//11 16//11 7//11
f  7//12 16//12 17//12
f  7//13 17//13 18//13
f  7//14 18//14 8//14
f  8//15 18//15 19//15
f  8//16 19//16 20//16
f  20//17 9//17 8//17
f  9//17 20//17 15//17
f  12//18 14//18 13//18
f  14//18 12//18 16//19
f  16//19 12//18 17//20
f  17//20 12//18 18//21
f  18//21 12//18 19//22
f  19//22 12//18 15//23
f  15//23 12//18 11//24
f  19//22 15//23 20//25

