# {"id":"ID_60144","idOriginal":"ID_60144","origin":[14.269858234266245,48.2901926525954],"elevation":333.013,"wof":[{"Id":102049853,"Name":"Linz","Placetype":"county","Offset":-1},{"Id":85632785,"Name":"Austria","Placetype":"country","Offset":-1},{"Id":101748071,"Name":"Linz","Placetype":"locality","Offset":-1},{"Id":85681677,"Name":"Oberösterreich","Placetype":"region","Offset":-1},{"Id":85898459,"Name":"Wegscheid","Placetype":"neighbourhood","Offset":-1}]}

# Attribution: City of Linz <http://geo.data.linz.gv.at/katalog/geodata/3d_geo_daten_lod2/>
# Longitude: 14.269858234266245
# Latitude: 48.2901926525954
# Elevation: 333.013

# File produced by Open Asset Import Library (http://www.assimp.sf.net)
# (assimp v3.1.0)


# 8 vertex positions
v  0.512 3.354 -0.719
v  1.913 3.354 1.398
v  2.475 3.354 0.683
v  0 3.354 2.05373e-16
v  2.475 -4.18217e-17 0.683
v  0.512 4.4026e-17 -0.719
v  0 0 0
v  1.913 -8.56028e-17 1.398

# 0 UV coordinates

# 9 vertex normals
vn 0 1 0
vn 0.581199 0 -0.813761
vn -0.814575 0 -0.580059
vn -0.814575 3.55184e-17 -0.580059
vn -0.590027 -4.9438e-17 0.807383
vn -0.590027 0 0.807383
vn 0.786204 -0 0.617967
vn 3.01964e-24 -1 -6.12323e-17
vn 0 -1 -6.12323e-17

# Mesh 'defaultobject' with 12 faces
g defaultobject
usemtl DefaultMaterial
f  1//1 2//1 3//1
f  2//1 1//1 4//1
f  5//2 1//2 3//2
f  1//2 5//2 6//2
f  6//3 4//3 1//3
f  4//3 6//3 7//4
f  7//5 2//5 4//5
f  2//5 7//5 8//6
f  8//7 3//7 2//7
f  3//7 8//7 5//7
f  8//8 6//8 5//8
f  6//8 8//8 7//9

