# File produced by Open Asset Import Library (http://www.assimp.sf.net)
# (assimp v3.1.0)

mtllib ID_25197.obj.mtl

# 20 vertex positions
v  0.141 3.083 2.915
v  14.899 3.303 -1.003
v  0 3.303 2.0225e-16
v  0.302 2.831 6.264
v  4.53 2.822 6.099
v  8.525 2.815 5.929
v  11.262 2.81 5.805
v  15.171 2.81 5.541
v  15.175 2.804 5.627
v  15.062 3.008 2.915
v  0.302 -3.83559e-16 6.264
v  0.141 -1.78492e-16 2.915
v  0 0 0
v  4.53 -3.73456e-16 6.099
v  8.525 -3.63047e-16 5.929
v  11.262 -3.55454e-16 5.805
v  15.175 -3.44554e-16 5.627
v  15.171 -3.39288e-16 5.541
v  15.062 -1.78492e-16 2.915
v  14.899 6.1416e-17 -1.003

# 0 UV coordinates

# 31 vertex normals
vn 0.00504993 0.99717 0.0750138
vn 0.0049915 0.997186 0.0747947
vn 0.00504575 0.997178 0.0749031
vn 0.00492731 0.997192 0.0747311
vn 0.0052195 0.99717 0.0749983
vn 0.00505937 0.997177 0.0749132
vn 0.00468575 0.997579 0.0693811
vn -0.742603 0.664822 0.0809478
vn -0.998846 0 0.0480186
vn -0.998846 0 0.0480186
vn -0.998832 0 0.048314
vn -0.998832 0 0.048314
vn 0.0389959 -0 0.999239
vn 0.0425147 0 0.999096
vn 0.0425147 0 0.999096
vn 0.0452587 0 0.998975
vn 0.0452587 0 0.998975
vn 0.0454424 0 0.998967
vn 0.0454424 0 0.998967
vn 0.99892 0 -0.0464691
vn 0.99914 0.000153604 -0.0414604
vn 0.999136 6.16115e-05 -0.0415623
vn 0.998872 -0.00980484 -0.0464665
vn 0.99914 0.000112794 -0.041472
vn 0.999136 0 -0.0415669
vn -0.0671679 0 -0.997742
vn -0.0671679 6.10941e-17 -0.997742
vn 6.13217e-25 -1 -6.12323e-17
vn 0 -1 -6.12323e-17
vn 0 -1 -6.12323e-17
vn -7.46356e-24 -1 -6.12323e-17

# Mesh 'defaultobject' with 36 faces
g defaultobject
usemtl DefaultMaterial
f  1//1 2//1 3//1
f  2//2 1//2 4//2
f  2//3 4//3 5//3
f  2//4 5//4 6//4
f  2//5 6//5 7//5
f  2//6 7//6 8//6
f  8//7 7//7 9//7
f  2//8 8//8 10//8
f  1//9 11//9 4//9
f  11//9 1//9 12//10
f  12//11 1//11 3//11
f  12//11 3//11 13//12
f  11//13 5//13 4//13
f  5//13 11//13 14//13
f  5//14 14//14 6//14
f  6//14 14//14 15//15
f  6//16 15//16 7//16
f  7//16 15//16 16//17
f  7//18 16//18 9//18
f  9//18 16//18 17//19
f  17//20 8//20 9//20
f  8//21 17//21 10//21
f  10//22 17//22 2//22
f  2//23 17//23 18//23
f  2//24 18//24 19//24
f  2//25 19//25 20//25
f  20//26 3//26 2//26
f  3//26 20//26 13//27
f  16//28 18//28 17//28
f  19//29 13//29 20//29
f  13//29 19//29 18//28
f  13//29 18//28 16//28
f  13//29 16//28 15//30
f  13//29 15//30 14//29
f  13//29 14//29 12//29
f  12//29 14//29 11//31

