# File produced by Open Asset Import Library (http://www.assimp.sf.net)
# (assimp v3.1.0)

mtllib ID_38775.obj.mtl

# 8 vertex positions
v  0.473 3.221 -9.489
v  3.46 5.063 0.172
v  3.932 5.063 -9.317
v  0 3.221 1.97229e-16
v  3.932 5.70502e-16 -9.317
v  0.473 5.81034e-16 -9.489
v  0 0 0
v  3.46 -1.0532e-17 0.172

# 0 UV coordinates

# 8 vertex normals
vn -0.469 0.88289 -0.0233289
vn -0.468892 0.882946 -0.023373
vn 0.049664 0 -0.998766
vn -0.99876 0 -0.0497854
vn -0.99876 3.04847e-18 -0.0497854
vn -0.0496497 0 0.998767
vn 0.998765 -0 0.0496804
vn 0 -1 -6.12323e-17

# Mesh 'defaultobject' with 12 faces
g defaultobject
usemtl DefaultMaterial
f  1//1 2//1 3//1
f  2//2 1//2 4//2
f  5//3 1//3 3//3
f  1//3 5//3 6//3
f  6//4 4//4 1//4
f  4//4 6//4 7//5
f  4//6 8//6 2//6
f  8//6 4//6 7//6
f  8//7 3//7 2//7
f  3//7 8//7 5//7
f  8//8 6//8 5//8
f  6//8 8//8 7//8

