# File produced by Open Asset Import Library (http://www.assimp.sf.net)
# (assimp v3.1.0)

mtllib ID_34031.obj.mtl

# 8 vertex positions
v  0.671 2.489 -6.512
v  7.294 2.489 0.751
v  7.964 2.489 -5.761
v  0 2.489 1.52407e-16
v  0.671 3.98745e-16 -6.512
v  0 0 0
v  7.294 -4.59855e-17 0.751
v  7.964 3.52759e-16 -5.761

# 0 UV coordinates

# 9 vertex normals
vn 0 1 0
vn -0.994733 0 -0.102498
vn -0.994733 6.27618e-18 -0.102498
vn -0.10242 -6.09103e-17 0.994741
vn -0.10242 0 0.994741
vn 0.994749 -0 0.102347
vn 0.102434 0 -0.99474
vn -4.4114e-24 -1 -6.12323e-17
vn -8.82415e-24 -1 -6.12323e-17

# Mesh 'defaultobject' with 12 faces
g defaultobject
usemtl DefaultMaterial
f  1//1 2//1 3//1
f  2//1 1//1 4//1
f  5//2 4//2 1//2
f  4//2 5//2 6//3
f  6//4 2//4 4//4
f  2//4 6//4 7//5
f  7//6 3//6 2//6
f  3//6 7//6 8//6
f  8//7 1//7 3//7
f  1//7 8//7 5//7
f  5//8 7//8 6//8
f  7//8 5//8 8//9

