# File produced by Open Asset Import Library (http://www.assimp.sf.net)
# (assimp v3.1.0)

mtllib ID_54290.obj.mtl

# 8 vertex positions
v  0.105 1.244 -2.592
v  3.185 1.244 0.129
v  3.29 1.244 -2.464
v  0 1.244 7.6173e-17
v  3.29 1.50876e-16 -2.464
v  0.105 1.58714e-16 -2.592
v  0 0 0
v  3.185 -7.89897e-18 0.129

# 0 UV coordinates

# 9 vertex normals
vn 0 1 0
vn 0.040156 0 -0.999193
vn -0.99918 0 -0.0404761
vn -0.99918 2.47844e-18 -0.0404761
vn -0.0404692 -6.11822e-17 0.999181
vn -0.0404692 0 0.999181
vn 0.999181 -0 0.0404605
vn 0 -1 -6.12323e-17
vn 3.20106e-24 -1 -6.12323e-17

# Mesh 'defaultobject' with 12 faces
g defaultobject
usemtl DefaultMaterial
f  1//1 2//1 3//1
f  2//1 1//1 4//1
f  5//2 1//2 3//2
f  1//2 5//2 6//2
f  6//3 4//3 1//3
f  4//3 6//3 7//4
f  7//5 2//5 4//5
f  2//5 7//5 8//6
f  8//7 3//7 2//7
f  3//7 8//7 5//7
f  8//8 6//8 5//8
f  6//8 8//8 7//9

