# File produced by Open Asset Import Library (http://www.assimp.sf.net)
# (assimp v3.1.0)

mtllib ID_50929.obj.mtl

# 12 vertex positions
v  4.822 1.231 1.665
v  4.121 1.754 1.859
v  4.829 1.231 1.705
v  4.297 1.231 -1.193
v  0.584 4.366 2.629
v  0 4.438 2.71749e-16
v  0.584 -1.6098e-16 2.629
v  4.121 -1.13831e-16 1.859
v  4.829 -1.04401e-16 1.705
v  4.297 7.30502e-17 -1.193
v  4.822 -1.01952e-16 1.665
v  0 0 0

# 0 UV coordinates

# 18 vertex normals
vn 0.576834 0.8106 -0.100946
vn 0.575667 0.810818 -0.105747
vn 0.575724 0.810778 -0.105737
vn 0.575756 0.810762 -0.105693
vn 0.212716 -0 0.977114
vn 0.212544 0 0.977151
vn 0.212544 0 0.977151
vn 0.985031 0 -0.17238
vn 0.983543 -0.000277901 -0.180672
vn 0.983564 0 -0.180558
vn 5.32545e-20 1 6.12227e-17
vn -0.267517 0 -0.963553
vn -0.976204 -1.32783e-17 0.216852
vn -0.976205 0 0.216852
vn 1.40687e-23 -1 -6.12323e-17
vn -1.10013e-23 -1 -6.12323e-17
vn 0 -1 -6.12323e-17
vn 2.20701e-24 -1 -6.12323e-17

# Mesh 'defaultobject' with 20 faces
g defaultobject
usemtl DefaultMaterial
f  1//1 2//1 3//1
f  2//2 1//2 4//2
f  2//3 4//3 5//3
f  5//4 4//4 6//4
f  7//5 2//5 5//5
f  2//5 7//5 8//5
f  2//6 8//6 3//6
f  3//6 8//6 9//7
f  9//8 1//8 3//8
f  1//9 9//9 4//9
f  4//10 9//10 10//10
f  10//11 9//11 11//11
f  4//12 12//12 6//12
f  12//12 4//12 10//12
f  12//13 5//13 6//13
f  5//13 12//13 7//14
f  8//15 11//15 9//15
f  11//15 8//15 10//16
f  10//16 8//15 7//17
f  10//16 7//17 12//18

