# {"id":"ID_17323","idOriginal":"ID_17323","origin":[14.27176353392542,48.28456351449497],"elevation":311.209,"wof":[{"Id":102049847,"Name":"Linz - Land","Placetype":"county","Offset":-1},{"Id":101748071,"Name":"Linz","Placetype":"locality","Offset":-1},{"Id":85681677,"Name":"Oberösterreich","Placetype":"region","Offset":-1},{"Id":85898459,"Name":"Wegscheid","Placetype":"neighbourhood","Offset":-1},{"Id":85632785,"Name":"Austria","Placetype":"country","Offset":-1}]}

# Attribution: City of Linz <http://geo.data.linz.gv.at/katalog/geodata/3d_geo_daten_lod2/>
# Longitude: 14.27176353392542
# Latitude: 48.28456351449497
# Elevation: 311.209

# File produced by Open Asset Import Library (http://www.assimp.sf.net)
# (assimp v3.1.0)


# 64 vertex positions
v  12.737 11.225 -4.146
v  12.112 9.968 0.689
v  12.457 9.971 0.699
v  9.063 9.849 0.966
v  12.075 9.856 1.119
v  0.244 11.225 -4.899
v  6.446 9.222 3.24
v  6.133 9.304 2.903
v  4.179 9.844 0.692
v  0.262 9.854 0.416
v  0.26 9.952 0.035
v  0 9.957 6.0969e-16
v  0.125 10.688 -2.826
v  12.753 11.152 -4.425
v  13.071 9.463 -10.954
v  13.072 9.456 -10.982
v  12.756 9.459 -10.988
v  12.806 9.344 -11.434
v  11.288 9.324 -11.602
v  9.63 9.333 -11.668
v  8.452 9.259 -12.026
v  7.854 9.236 -12.151
v  7.252 9.222 -12.241
v  6.718 9.239 -12.208
v  6.185 9.262 -12.151
v  5.13 9.328 -11.956
v  1.073 9.34 -12.157
v  0.884 9.466 -11.678
v  0.632 9.476 -11.653
v  0.633 9.47 -11.676
v  12.112 -4.21891e-17 0.689
v  12.075 -6.8519e-17 1.119
v  12.457 -4.28014e-17 0.699
v  12.737 2.53869e-16 -4.146
v  13.071 6.70739e-16 -10.954
v  12.753 2.70953e-16 -4.425
v  13.072 6.72454e-16 -10.982
v  12.756 6.72821e-16 -10.988
v  12.806 7.00131e-16 -11.434
v  0 0 0
v  0.26 -2.14313e-18 0.035
v  0.262 -2.54727e-17 0.416
v  4.179 -4.23728e-17 0.692
v  9.063 -5.91504e-17 0.966
v  6.446 -1.98393e-16 3.24
v  11.288 7.10418e-16 -11.602
v  9.63 7.14459e-16 -11.668
v  9.045 9.291 -11.864
v  9.045 7.2646e-16 -11.864
v  8.452 7.3638e-16 -12.026
v  7.854 7.44034e-16 -12.151
v  7.252 7.49545e-16 -12.241
v  6.718 7.47524e-16 -12.208
v  6.185 7.44034e-16 -12.151
v  5.655 7.38891e-16 -12.067
v  5.655 9.292 -12.067
v  5.13 7.32094e-16 -11.956
v  1.073 7.44402e-16 -12.157
v  0.633 7.14949e-16 -11.676
v  0.884 7.15071e-16 -11.678
v  0.632 7.1354e-16 -11.653
v  0.244 2.99977e-16 -4.899
v  0.125 1.73043e-16 -2.826
v  6.133 -1.77757e-16 2.903

# 0 UV coordinates

# 109 vertex normals
vn -0.0156545 0.9682 0.249688
vn -0.0149903 0.967918 0.25082
vn -0.0150975 0.968191 0.249758
vn -0.0150556 0.968184 0.249786
vn -0.0149958 0.968207 0.249702
vn -0.0161145 0.967983 0.250499
vn -0.0149082 0.968222 0.249648
vn -0.0151291 0.968181 0.249793
vn -0.355778 0.904656 0.23456
vn -0.0150135 0.96817 0.249842
vn -0.0276089 0.968062 0.249187
vn 0.015206 0.967534 -0.252282
vn 0.0151131 0.968198 -0.249729
vn 0.0190956 0.970126 -0.24185
vn 0.0139674 0.967641 -0.251945
vn 0.0160468 0.968637 -0.247961
vn 0.0149126 0.968132 -0.249996
vn 0.0151903 0.968238 -0.249569
vn 0.0150711 0.9682 -0.249723
vn 0.0149826 0.968177 -0.249819
vn 0.0148525 0.968146 -0.249947
vn 0.0154101 0.968266 -0.249448
vn 0.0150728 0.968199 -0.249728
vn 0.0142916 0.968055 -0.250329
vn 0.0152356 0.9682 -0.249714
vn 0.0115115 0.968145 -0.250126
vn 0.0136257 0.968168 -0.249932
vn 0.0134172 0.967676 -0.251838
vn 0.996318 0 0.0857312
vn 0.996318 0 0.0857312
vn 0.998334 -0 0.0576952
vn 0.998357 -0.000170826 0.0573008
vn 0.998762 -0.00371666 0.0496069
vn 0.998315 0.00627113 0.0576941
vn 0.998799 0 0.0490011
vn 2.68953e-20 1 6.12331e-17
vn 0.999364 -0 0.0356721
vn 0.993774 -0 0.11141
vn -0.0289734 0 0.99958
vn -0.0289734 0 0.99958
vn -0.133412 -6.0685e-17 0.991061
vn -0.133412 0 0.991061
vn -0.0702878 0 0.997527
vn -0.0702878 0 0.997527
vn -0.0507314 0 0.998712
vn 0.655907 0 0.754841
vn 0.655907 0 0.754841
vn 0.0189825 0 -0.99982
vn 0.0189825 0 -0.99982
vn 0.11 0 -0.993932
vn 0.11 0 -0.993932
vn 0.0397755 0 -0.999209
vn 0.0397755 0 -0.999209
vn 0.317686 0 -0.948196
vn 0.26353 0 -0.964651
vn 0.26353 0 -0.964651
vn 0.204608 0 -0.978844
vn 0.147859 0 -0.989008
vn 0.147859 0 -0.989009
vn -0.0616801 0 -0.998096
vn -0.106336 0 -0.99433
vn -0.106336 0 -0.99433
vn -0.156536 0 -0.987672
vn -0.156536 0 -0.987672
vn -0.206856 0 -0.978371
vn 0.0494831 0 -0.998775
vn -0.0079673 0 -0.999968
vn -0.0079673 0 -0.999968
vn -0.930208 0 -0.367034
vn -0.930208 0 -0.367034
vn -0.999056 0 -0.0434371
vn -0.998353 3.38712e-05 -0.0573616
vn -0.998356 2.44363e-06 -0.0573097
vn -0.998878 -0.00897071 -0.0465029
vn -0.998977 -0.0125758 -0.043433
vn -0.998533 3.31606e-18 -0.0541554
vn -1.67506e-21 1 6.12323e-17
vn 1.37204e-21 1 6.12324e-17
vn -0.999986 0 0.00524928
vn -0.999986 0 0.00524928
vn -0.749313 0 0.662216
vn -0.749313 0 0.662215
vn -0.732716 0 0.680535
vn -0.732716 0 0.680535
vn 0 -1 -6.12323e-17
vn -1.02579e-23 -1 -6.12323e-17
vn -1.10895e-24 -1 -6.12323e-17
vn -1.20009e-23 -1 -6.12323e-17
vn 0 -1 -6.12324e-17
vn 1.15732e-22 -1 -6.12324e-17
vn 0 -1 -6.12323e-17
vn -1.44177e-24 -1 -6.12323e-17
vn -3.06929e-21 -1 -6.12323e-17
vn 0 -1 -6.12325e-17
vn 0 -1 -6.12324e-17
vn 5.06882e-24 -1 -6.12324e-17
vn 2.10553e-24 -1 -6.12323e-17
vn -1.69853e-23 -1 -6.12323e-17
vn 0 -1 -6.12323e-17
vn 0 -1 -6.12323e-17
vn -1.28553e-22 -1 -6.12322e-17
vn 1.02425e-22 -1 -6.12323e-17
vn -6.65453e-24 -1 -6.12323e-17
vn 1.13265e-23 -1 -6.12324e-17
vn 5.16375e-23 -1 -6.12326e-17
vn -1.26359e-22 -1 -6.12319e-17
vn -7.42602e-23 -1 -6.12321e-17
vn -6.16773e-22 -1 -6.12303e-17
vn -1.38678e-22 -1 -6.12305e-17

# Mesh 'defaultobject' with 122 faces
g defaultobject
usemtl DefaultMaterial
f  1//1 2//1 3//1
f  2//2 4//2 5//2
f  4//3 2//3 1//3
f  4//4 1//4 6//4
f  4//5 6//5 7//5
f  7//6 6//6 8//6
f  8//7 6//7 9//7
f  9//8 6//8 10//8
f  10//9 6//9 11//9
f  11//10 6//10 12//10
f  12//11 6//11 13//11
f  14//12 6//12 1//12
f  6//13 14//13 15//13
f  6//14 15//14 16//14
f  6//15 16//15 17//15
f  6//16 17//16 18//16
f  6//17 18//17 19//17
f  6//18 19//18 20//18
f  6//19 20//19 21//19
f  6//20 21//20 22//20
f  6//21 22//21 23//21
f  6//22 23//22 24//22
f  6//19 24//23 25//23
f  6//24 25//24 26//24
f  6//25 26//25 27//25
f  6//26 27//26 28//26
f  6//27 28//27 29//27
f  29//28 28//28 30//28
f  5//29 31//29 2//29
f  31//29 5//29 32//30
f  33//31 1//31 3//31
f  1//32 33//32 14//32
f  14//33 33//33 15//33
f  15//34 33//34 34//34
f  15//35 34//35 35//35
f  35//36 34//36 36//36
f  35//37 16//37 15//37
f  16//37 35//37 37//37
f  38//38 18//38 17//38
f  18//38 38//38 39//38
f  2//39 33//39 3//39
f  33//39 2//39 31//40
f  40//41 11//41 12//41
f  11//41 40//41 41//42
f  42//43 9//43 10//43
f  9//43 42//43 43//44
f  4//45 32//45 5//45
f  32//45 4//45 44//45
f  7//46 44//46 4//46
f  44//46 7//46 45//47
f  16//48 38//48 17//48
f  38//48 16//48 37//49
f  39//50 19//50 18//50
f  19//50 39//50 46//51
f  19//52 47//52 20//52
f  47//52 19//52 46//53
f  47//54 48//54 20//54
f  48//54 47//54 49//54
f  49//55 21//55 48//55
f  21//55 49//55 50//56
f  50//57 22//57 21//57
f  22//57 50//57 51//57
f  51//58 23//58 22//58
f  23//58 51//58 52//59
f  23//60 53//60 24//60
f  53//60 23//60 52//60
f  24//61 54//61 25//61
f  54//61 24//61 53//62
f  25//63 55//63 56//63
f  55//63 25//63 54//64
f  56//65 57//65 26//65
f  57//65 56//65 55//65
f  26//66 58//66 27//66
f  58//66 26//66 57//66
f  28//67 59//67 30//67
f  59//67 28//67 60//68
f  27//69 60//69 28//69
f  60//69 27//69 58//70
f  59//71 29//71 30//71
f  29//72 59//72 6//72
f  6//73 59//73 13//73
f  13//74 59//74 12//74
f  12//75 59//75 61//75
f  12//76 61//76 40//76
f  40//77 61//77 62//77
f  40//77 62//77 63//78
f  41//79 10//79 11//79
f  10//79 41//79 42//80
f  43//81 8//81 9//81
f  8//81 43//81 64//82
f  64//83 7//83 8//83
f  7//83 64//83 45//84
f  63//85 41//85 40//85
f  39//86 38//86 46//86
f  41//85 43//87 42//87
f  43//87 41//85 63//85
f  43//87 63//85 62//88
f  43//87 62//88 64//89
f  64//89 62//88 45//90
f  45//90 62//88 44//85
f  44//85 62//88 61//91
f  44//85 61//91 32//92
f  32//92 61//91 59//93
f  32//92 59//93 60//94
f  32//92 60//94 58//95
f  32//92 58//95 31//96
f  31//96 58//95 33//97
f  33//97 58//95 57//98
f  33//97 57//98 34//91
f  34//91 57//98 55//99
f  34//91 55//99 54//100
f  34//91 54//100 36//101
f  36//101 54//100 38//86
f  36//101 38//86 35//102
f  38//86 54//100 53//103
f  38//86 53//103 47//104
f  47//104 53//103 52//105
f  47//104 52//105 51//106
f  47//104 51//106 50//107
f  47//104 50//107 49//108
f  38//86 47//104 46//86
f  35//102 38//86 37//109

