# {"id":"ID_13907","idOriginal":"ID_13907","origin":[14.368537178694275,48.249444935489144],"elevation":250.373,"wof":[{"Id":102049853,"Name":"Linz","Placetype":"county","Offset":-1},{"Id":101748071,"Name":"Linz","Placetype":"locality","Offset":-1},{"Id":85681677,"Name":"Oberösterreich","Placetype":"region","Offset":-1},{"Id":85898441,"Name":"Posch","Placetype":"neighbourhood","Offset":-1},{"Id":85632785,"Name":"Austria","Placetype":"country","Offset":-1}]}

# Attribution: City of Linz <http://geo.data.linz.gv.at/katalog/geodata/3d_geo_daten_lod2/>
# Longitude: 14.368537178694275
# Latitude: 48.249444935489144
# Elevation: 250.373

# File produced by Open Asset Import Library (http://www.assimp.sf.net)
# (assimp v3.1.0)


# 37 vertex positions
v  11.569 5.933 -14.558
v  16.84 7.262 -8.418
v  18.009 5.925 -13.126
v  9.295 7.253 -10.167
v  16.84 5.15454e-16 -8.418
v  9.295 6.22549e-16 -10.167
v  18.009 8.03736e-16 -13.126
v  11.569 8.9142e-16 -14.558
v  9.295 7.496 -10.167
v  16.445 7.934 -6.828
v  16.84 7.496 -8.418
v  15.559 7.923 -7.073
v  14.881 8.771 -3.979
v  14.601 9.115 -2.724
v  6.619 9.115 -4.575
v  7.966 7.521 -10.38
v  9.247 7.523 -10.074
v  2.642 7.511 -11.651
v  1.316 9.115 -5.805
v  5.273 7.522 1.223
v  0 7.522 4.6059e-16
v  13.294 7.522 3.083
v  13.375 7.608 2.771
v  13.394 7.629 2.696
v  15.559 4.33096e-16 -7.073
v  14.881 2.43643e-16 -3.979
v  13.394 -1.65082e-16 2.696
v  14.601 1.66797e-16 -2.724
v  16.445 4.18094e-16 -6.828
v  13.294 -1.88779e-16 3.083
v  13.375 -1.69675e-16 2.771
v  0 0 0
v  5.273 -7.48871e-17 1.223
v  9.247 6.16855e-16 -10.074
v  2.642 7.13418e-16 -11.651
v  7.966 6.35592e-16 -10.38
v  1.316 3.55454e-16 -5.805

# 0 UV coordinates

# 61 vertex normals
vn 0.0588257 0.96404 -0.259166
vn 0.0589501 0.964005 -0.259265
vn -0.225821 0 0.974169
vn -0.225821 0 0.974169
vn 0.970529 -0 0.240983
vn 0.970529 0 0.240983
vn 0.217059 0 -0.976158
vn -0.887987 0 -0.459869
vn -1.14133e-23 -1 -6.12323e-17
vn 1.6547e-23 -1 -6.12323e-17
vn 0.0583307 0.966063 -0.251632
vn 0.0565711 0.967107 -0.248001
vn 0.0585819 0.965974 -0.251916
vn 0.0583993 0.966026 -0.251762
vn 0.0583797 0.96603 -0.251749
vn 0.0586086 0.966038 -0.251666
vn 0.0582837 0.966038 -0.251741
vn 0.0584043 0.966015 -0.251803
vn -0.0584124 0.966003 0.251847
vn -0.0584147 0.966002 0.251848
vn -0.0584021 0.966002 0.251851
vn -0.0584038 0.966002 0.251852
vn -0.0368074 0.965802 0.256657
vn -0.182458 0.957829 0.221976
vn 0.976822 0 0.214055
vn 0.975914 -0.00151428 0.218149
vn 0.976147 -0.000993883 0.217109
vn 0.976817 0.00310885 0.214054
vn 0.976073 0 0.217441
vn -1.88149e-20 -1 -6.1238e-17
vn 0.9705 -0 0.241099
vn 0.9705 0 0.241099
vn 0.969377 0 0.245577
vn 0.967917 -5.97762e-05 0.251271
vn 0.968199 0 0.250182
vn 2.67301e-20 1 6.12389e-17
vn -0.266522 0 0.963829
vn -0.266522 0 0.963829
vn -0.225939 -5.9649e-17 0.974141
vn -0.225897 -3.07344e-05 0.974151
vn -0.225939 4.67979e-05 0.974141
vn -0.225897 0 0.974151
vn 0.225821 0 -0.974169
vn 0.232339 0 -0.972635
vn 0.232205 -2.40965e-05 -0.972667
vn 0.232231 0 -0.972661
vn -1.0665e-19 1 6.16968e-17
vn -0.888618 0 -0.458648
vn -0.888618 0 -0.458648
vn -0.975228 0 -0.221203
vn -0.975249 -6.41593e-05 -0.221108
vn -0.975228 9.07766e-05 -0.221203
vn -0.975253 1.35379e-17 -0.221091
vn 0 -1 -6.12323e-17
vn -2.16029e-24 -1 -6.12323e-17
vn 8.90825e-24 -1 -6.12323e-17
vn 1.29517e-24 -1 -6.12323e-17
vn 4.91671e-24 -1 -6.12324e-17
vn -2.30122e-22 -1 -6.12317e-17
vn 1.30168e-23 -1 -6.12324e-17
vn -1.6243e-22 -1 -6.1232e-17

# Mesh 'defaultobject' with 69 faces
g defaultobject
usemtl DefaultMaterial
f  1//1 2//1 3//1
f  2//2 1//2 4//2
f  4//3 5//3 2//3
f  5//3 4//3 6//4
f  5//5 3//5 2//5
f  3//5 5//5 7//6
f  3//7 8//7 1//7
f  8//7 3//7 7//7
f  1//8 6//8 4//8
f  6//8 1//8 8//8
f  8//9 5//9 6//9
f  5//9 8//9 7//10
f  9//11 10//11 11//11
f  10//12 9//12 12//12
f  12//13 9//13 13//13
f  13//14 9//14 14//14
f  14//15 9//15 15//15
f  16//16 15//16 17//16
f  15//17 16//17 18//17
f  15//18 18//18 19//18
f  20//19 19//19 21//19
f  19//19 20//19 15//20
f  15//21 20//21 22//21
f  15//21 22//21 14//22
f  14//23 22//23 23//23
f  14//24 23//24 24//24
f  13//25 25//25 12//25
f  25//26 13//26 14//26
f  25//27 14//27 24//27
f  25//28 24//28 26//28
f  26//29 24//29 27//29
f  26//30 27//30 28//30
f  29//31 11//31 10//31
f  11//31 29//31 5//32
f  23//33 27//33 24//33
f  27//34 23//34 22//34
f  27//35 22//35 30//35
f  27//36 30//36 31//36
f  12//37 29//37 10//37
f  29//37 12//37 25//38
f  32//39 20//39 21//39
f  20//40 32//40 22//40
f  22//41 32//41 33//41
f  22//42 33//42 30//42
f  5//43 9//43 11//43
f  9//43 5//43 6//43
f  34//44 16//44 17//44
f  16//45 34//45 18//45
f  18//46 34//46 35//46
f  35//47 34//47 36//47
f  9//48 34//48 17//48
f  34//48 9//48 6//49
f  35//50 19//50 18//50
f  19//51 35//51 21//51
f  21//52 35//52 37//52
f  21//53 37//53 32//53
f  37//54 33//54 32//54
f  33//54 37//54 30//55
f  30//55 37//54 31//56
f  31//56 37//54 27//30
f  27//30 37//54 28//30
f  28//30 37//54 35//57
f  28//30 35//57 26//30
f  26//30 35//57 25//58
f  25//58 35//57 29//59
f  29//59 35//57 36//60
f  29//59 36//60 34//61
f  29//59 34//61 5//9
f  5//9 34//61 6//9

