# File produced by Open Asset Import Library (http://www.assimp.sf.net)
# (assimp v3.1.0)

mtllib ID_26808.obj.mtl

# 49 vertex positions
v  3.983 7.423 1.976
v  0.433 6.676 0.382
v  0.392 6.679 0.502
v  0.5 6.673 0.201
v  4.087 7.423 1.757
v  4.917 6.726 -8.507
v  4.811 6.725 -8.297
v  8.039 7.423 -6.615
v  0.206 6.557 -0.599
v  0 6.57 4.02296e-16
v  0.414 6.543 -1.202
v  1.264 6.538 -3.069
v  2.393 6.539 -5.445
v  3.13 6.557 -6.788
v  4.231 6.594 -8.671
v  11.246 6.684 -4.385
v  11.379 6.678 -4.59
v  11.201 6.532 -2.436
v  12.027 6.511 -3.928
v  10.154 6.543 -0.351
v  9.451 6.545 1.109
v  8.4 6.532 3.497
v  7.427 6.729 3.149
v  7.343 6.727 3.355
v  5.42 7.125 2.566
v  9.451 -6.79067e-17 1.109
v  8.4 -2.14129e-16 3.497
v  11.201 1.49162e-16 -2.436
v  10.154 2.14926e-17 -0.351
v  12.027 2.40521e-16 -3.928
v  11.246 2.68504e-16 -4.385
v  11.379 2.81056e-16 -4.59
v  4.917 5.20904e-16 -8.507
v  8.039 4.05052e-16 -6.615
v  4.811 5.08045e-16 -8.297
v  4.231 5.30946e-16 -8.671
v  3.13 4.15645e-16 -6.788
v  2.393 3.3341e-16 -5.445
v  0.414 7.36013e-17 -1.202
v  1.264 1.87922e-16 -3.069
v  0 0 0
v  0.206 3.66782e-17 -0.599
v  0.433 -2.33908e-17 0.382
v  0.5 -1.23077e-17 0.201
v  0.392 -3.07386e-17 0.502
v  3.983 -1.20995e-16 1.976
v  7.343 -2.05434e-16 3.355
v  5.42 -1.57122e-16 2.566
v  7.427 -1.92821e-16 3.149

# 0 UV coordinates

# 84 vertex normals
vn -0.169604 0.982053 -0.0824974
vn -0.170929 0.982067 -0.079551
vn -0.170266 0.982075 -0.0808566
vn -0.170066 0.982084 -0.0811665
vn -0.170223 0.982165 -0.0798566
vn -0.170798 0.982083 -0.0796333
vn -0.170333 0.982101 -0.0804057
vn -0.171479 0.981774 -0.0819442
vn -0.170236 0.982139 -0.0801348
vn -0.170462 0.982064 -0.0805848
vn -0.170419 0.98209 -0.0803583
vn -0.170412 0.982079 -0.0804997
vn -0.170131 0.982154 -0.0801777
vn 0.169732 0.982125 0.0813727
vn 0.170421 0.982076 0.0805256
vn 0.170314 0.982094 0.0805246
vn 0.170416 0.982083 0.0804449
vn 0.170376 0.982096 0.0803745
vn 0.1705 0.982043 0.0807517
vn 0.17046 0.982082 0.0803687
vn 0.167218 0.981954 0.088339
vn 0.171022 0.982073 0.0792711
vn 0.169263 0.982082 0.0828582
vn 0.170424 0.982042 0.0809316
vn 0.915275 0 0.402829
vn 0.915275 0 0.402829
vn 0.900993 -0 0.433834
vn 0.893656 0.00411324 0.448735
vn 0.896692 0 0.442655
vn 0 -1 -6.12323e-17
vn 0.874875 -0 0.484348
vn 0.874875 0 0.484348
vn 0.838912 -0 0.544267
vn 0.505039 0 -0.863097
vn 0.505039 0 -0.863097
vn 0.518443 0 -0.855112
vn 0.518293 -9.27914e-05 -0.855203
vn 0.518363 0 -0.855161
vn -3.82572e-20 1 6.1288e-17
vn 0.541928 0 -0.840425
vn 0.541929 0 -0.840425
vn -0.89272 0 -0.450611
vn -0.89272 -0 -0.450611
vn -0.863263 0 -0.504754
vn -0.863263 -0 -0.504754
vn -0.87667 0 -0.481092
vn -0.87667 -0 -0.481092
vn -0.903219 0 -0.429181
vn -0.910103 -0.00658577 -0.41433
vn -0.90627 -0 -0.422698
vn 0 1 6.12323e-17
vn -0.94534 0 -0.326087
vn -0.945642 -9.02239e-05 -0.32521
vn -0.94549 1.99404e-17 -0.325651
vn 0 1 6.12352e-17
vn -0.937811 0 -0.347146
vn -0.946291 0 -0.323316
vn -0.946291 0 -0.323316
vn -0.37299 0 0.927835
vn -0.379726 0 0.925099
vn -0.379803 4.34831e-05 0.925067
vn -0.379609 -0.000116646 0.925147
vn -0.379726 2.49809e-05 0.925099
vn -0.379683 0 0.925117
vn 0 1 6.12378e-17
vn -0.336766 0 0.941588
vn -0.336766 0 0.941589
vn 0.925976 0 0.377583
vn 0.925976 0 0.377583
vn 0 -1 -6.12323e-17
vn 3.36694e-24 -1 -6.12323e-17
vn -1.13063e-23 -1 -6.12323e-17
vn 0 -1 -6.12323e-17
vn 0 -1 -6.12323e-17
vn 8.75714e-24 -1 -6.12323e-17
vn 2.89865e-23 -1 -6.12323e-17
vn 2.5611e-24 -1 -6.12323e-17
vn -2.91518e-22 -1 -6.12323e-17
vn 4.79408e-22 -1 -6.12324e-17
vn -3.81351e-22 -1 -6.12324e-17
vn 1.09004e-23 -1 -6.12323e-17
vn -1.95872e-23 -1 -6.12323e-17
vn 6.58954e-23 -1 -6.12325e-17
vn -2.14471e-24 -1 -6.12323e-17

# Mesh 'defaultobject' with 94 faces
g defaultobject
usemtl DefaultMaterial
f  1//1 2//1 3//1
f  2//2 1//2 4//2
f  4//3 1//3 5//3
f  6//4 7//4 8//4
f  4//5 9//5 10//5
f  9//6 4//6 5//6
f  9//7 5//7 8//7
f  9//8 8//8 11//8
f  11//9 8//9 12//9
f  12//10 8//10 13//10
f  13//11 8//11 14//11
f  14//12 8//12 7//12
f  14//13 7//13 15//13
f  8//14 16//14 17//14
f  16//15 18//15 19//15
f  18//16 16//16 8//16
f  18//17 8//17 5//17
f  18//18 5//18 20//18
f  20//19 5//19 21//19
f  21//20 5//20 22//20
f  22//21 5//21 23//21
f  23//22 5//22 24//22
f  24//23 5//23 25//23
f  25//24 5//24 1//24
f  22//25 26//25 21//25
f  26//25 22//25 27//26
f  26//27 20//27 21//27
f  20//28 26//28 18//28
f  18//29 26//29 28//29
f  28//30 26//30 29//30
f  28//31 19//31 18//31
f  19//31 28//31 30//32
f  31//33 17//33 16//33
f  17//33 31//33 32//33
f  19//34 31//34 16//34
f  31//34 19//34 30//35
f  32//36 8//36 17//36
f  8//37 32//37 6//37
f  6//38 32//38 33//38
f  33//39 32//39 34//39
f  35//40 15//40 7//40
f  15//40 35//40 36//41
f  33//42 7//42 6//42
f  7//42 33//42 35//43
f  36//44 14//44 15//44
f  14//44 36//44 37//45
f  37//46 13//46 14//46
f  13//46 37//46 38//47
f  38//48 12//48 13//48
f  12//49 38//49 11//49
f  11//50 38//50 39//50
f  39//51 38//51 40//51
f  39//52 9//52 11//52
f  9//53 39//53 10//53
f  10//54 39//54 41//54
f  41//55 39//51 42//55
f  4//56 43//56 2//56
f  43//56 4//56 44//56
f  2//57 45//57 3//57
f  45//57 2//57 43//58
f  10//59 44//59 4//59
f  44//59 10//59 41//59
f  45//60 1//60 3//60
f  1//61 45//61 25//61
f  25//62 45//62 24//62
f  24//63 45//63 46//63
f  24//64 46//64 47//64
f  47//65 46//65 48//65
f  49//66 22//66 23//66
f  22//66 49//66 27//67
f  24//68 49//68 23//68
f  49//68 24//68 47//69
f  42//70 44//70 41//70
f  44//70 42//70 39//70
f  43//71 46//71 45//71
f  46//71 43//71 44//70
f  46//71 44//70 39//70
f  46//71 39//70 40//72
f  46//71 40//72 38//73
f  46//71 38//73 37//74
f  46//71 37//74 48//75
f  48//75 37//74 36//76
f  48//75 36//76 47//77
f  47//77 36//76 35//78
f  47//77 35//78 33//79
f  47//77 33//79 34//70
f  47//77 34//70 49//80
f  49//80 34//70 27//81
f  27//81 34//70 26//30
f  26//30 34//70 31//82
f  31//82 34//70 32//83
f  26//30 31//82 29//30
f  29//30 31//82 28//30
f  30//84 28//30 31//82

