# File produced by Open Asset Import Library (http://www.assimp.sf.net)
# (assimp v3.1.0)

mtllib ID_24689.obj.mtl

# 52 vertex positions
v  5.658 7.042 -4.125
v  3.86 8.302 5.008
v  9.782 8.302 -0.345
v  5.542 7.047 -3.989
v  4.917 6.846 -4.621
v  4.861 6.829 -4.677
v  4.049 6.846 -3.837
v  3.829 6.851 -3.609
v  3.264 6.866 -3.009
v  2.493 6.874 -2.268
v  2.427 6.874 -2.208
v  1.338 6.877 -1.206
v  0.543 6.88 -0.468
v  0.607 7.088 0.713
v  0 6.876 4.21034e-16
v  0.46 7.088 0.851
v  8.473 6.896 9.218
v  7.4 7.108 8.926
v  7.923 6.906 9.654
v  9.911 6.869 8.078
v  11.472 6.873 6.643
v  13.095 6.906 4.978
v  7.192 7.113 9.082
v  14.136 6.943 3.815
v  13.38 7.158 3.222
v  13.518 7.16 3.08
v  0.607 -4.36587e-17 0.713
v  0 0 0
v  0.46 -5.21087e-17 0.851
v  3.86 -3.06652e-16 5.008
v  7.192 -5.56112e-16 9.082
v  7.4 -5.4656e-16 8.926
v  7.923 -5.91137e-16 9.654
v  5.542 2.44256e-16 -3.989
v  5.658 2.52583e-16 -4.125
v  4.861 2.86384e-16 -4.677
v  3.829 2.20988e-16 -3.609
v  3.264 1.84248e-16 -3.009
v  4.049 2.34948e-16 -3.837
v  0.543 2.86567e-17 -0.468
v  2.493 1.38875e-16 -2.268
v  1.338 7.38462e-17 -1.206
v  2.427 1.35201e-16 -2.208
v  9.911 -4.94635e-16 8.078
v  8.473 -5.6444e-16 9.218
v  11.472 -4.06766e-16 6.643
v  13.095 -3.04815e-16 4.978
v  14.136 -2.33601e-16 3.815
v  13.518 -1.88596e-16 3.08
v  13.38 -1.97291e-16 3.222
v  9.782 2.11252e-17 -0.345
v  4.917 2.82955e-16 -4.621

# 0 UV coordinates

# 90 vertex normals
vn -0.147962 0.975353 -0.16369
vn -0.150374 0.974914 -0.164105
vn -0.148095 0.975325 -0.163735
vn -0.134211 0.977531 -0.162545
vn -0.148941 0.9752 -0.163713
vn -0.147504 0.975417 -0.163718
vn -0.147951 0.975352 -0.163705
vn -0.147278 0.975442 -0.163772
vn -0.148627 0.975286 -0.163487
vn -0.14789 0.97537 -0.163651
vn -0.148138 0.97535 -0.163545
vn -0.147765 0.975368 -0.163776
vn -0.148303 0.975294 -0.163734
vn -0.151248 0.975278 -0.161112
vn 0.147975 0.975249 0.164298
vn 0.148135 0.975315 0.163759
vn 0.148185 0.975281 0.163915
vn 0.148025 0.975354 0.163622
vn 0.14686 0.975374 0.164551
vn 0.147973 0.975375 0.163546
vn 0.147974 0.975386 0.163482
vn 0.148092 0.975153 0.164757
vn 0.146701 0.976751 0.156323
vn 0.148016 0.975334 0.16375
vn -0.761438 0 0.648237
vn -0.761438 0 0.648237
vn -0.774065 0 0.633106
vn -0.774074 9.52166e-06 0.633095
vn -0.774065 -1.24829e-05 0.633106
vn -0.774076 0 0.633093
vn -0.812148 0 0.583452
vn -0.812148 0 0.583452
vn -0.684436 0 -0.729073
vn -0.760833 0 -0.648947
vn -0.760833 0 -0.648947
vn -0.718988 0 -0.695022
vn -0.719621 -0.000155397 -0.694367
vn -0.728054 -0.0028058 -0.685514
vn -0.719122 0.0015475 -0.694882
vn -0.728022 -0 -0.685554
vn 3.44515e-20 1 6.12645e-17
vn -0.652857 0 -0.757481
vn -0.652857 4.63824e-17 -0.757481
vn -0.69294 0 -0.720995
vn -0.692941 0 -0.720995
vn -0.672674 0 -0.739939
vn -0.677101 -7.78388e-05 -0.735891
vn -0.680347 -0.00108647 -0.73289
vn -0.676849 0.000750331 -0.736121
vn -0.680345 -0 -0.732892
vn 1.67152e-20 1 6.12445e-17
vn 0.6 -0 0.8
vn 0.621214 -0 0.783641
vn 0.621233 -2.50674e-06 0.783626
vn 0.621228 0 0.78363
vn -8.34754e-19 1 6.01023e-17
vn 0.67677 0 0.736194
vn 0.716081 0 0.698017
vn 0.716081 0 0.698017
vn 0.745107 0 0.666944
vn 0.745107 0 0.666944
vn 0.717137 0 0.696932
vn 0.617178 0 -0.786824
vn 0.67576 0 -0.737121
vn 0.6757 -4.95704e-05 -0.737176
vn 0.67576 7.33731e-05 -0.737121
vn 0.675692 0 -0.737184
vn 0.711033 0 -0.703158
vn 0.707216 -0.000702843 -0.706997
vn 0.710713 0 -0.703482
vn 5.27959e-22 1 6.12311e-17
vn 2.11437e-23 -1 -6.12323e-17
vn 3.02742e-23 -1 -6.12324e-17
vn 5.29743e-23 -1 -6.12324e-17
vn -3.18753e-24 -1 -6.12323e-17
vn 3.84524e-24 -1 -6.12323e-17
vn -4.10468e-23 -1 -6.12322e-17
vn 0 -1 -6.12323e-17
vn 0 -1 -6.12323e-17
vn -9.41982e-26 -1 -6.12323e-17
vn 2.30285e-25 -1 -6.12323e-17
vn -2.97916e-24 -1 -6.12324e-17
vn 1.31424e-24 -1 -6.12323e-17
vn 2.31325e-24 -1 -6.12323e-17
vn 0 -1 -6.12298e-17
vn 0 -1 -6.12323e-17
vn 8.4251e-23 -1 -6.12323e-17
vn 1.72185e-23 -1 -6.12323e-17
vn -2.23533e-23 -1 -6.12324e-17
vn -2.35788e-23 -1 -6.12324e-17

# Mesh 'defaultobject' with 100 faces
g defaultobject
usemtl DefaultMaterial
f  1//1 2//1 3//1
f  2//2 1//2 4//2
f  2//3 4//3 5//3
f  2//4 5//4 6//4
f  2//5 6//5 7//5
f  2//6 7//6 8//6
f  2//7 8//7 9//7
f  2//8 9//8 10//8
f  2//9 10//9 11//9
f  2//10 11//10 12//10
f  2//11 12//11 13//11
f  2//12 13//12 14//12
f  14//13 13//13 15//13
f  2//14 14//14 16//14
f  17//15 18//15 19//15
f  18//16 17//16 20//16
f  18//17 20//17 21//17
f  18//18 21//18 22//18
f  18//19 2//19 23//19
f  2//20 18//20 22//20
f  2//21 22//21 24//21
f  2//22 24//22 25//22
f  2//23 25//23 26//23
f  2//24 26//24 3//24
f  15//25 27//25 14//25
f  27//25 15//25 28//26
f  29//27 2//27 16//27
f  2//28 29//28 23//28
f  23//29 29//29 30//29
f  23//28 30//30 31//30
f  32//31 19//31 18//31
f  19//31 32//31 33//32
f  27//33 16//33 14//33
f  16//33 27//33 29//33
f  1//34 34//34 4//34
f  34//34 1//34 35//35
f  36//36 7//36 6//36
f  7//37 36//37 8//37
f  8//38 36//38 9//38
f  9//39 36//39 37//39
f  9//40 37//40 38//40
f  37//41 36//41 39//41
f  40//42 15//42 13//42
f  15//42 40//42 28//43
f  9//44 41//44 10//44
f  41//44 9//44 38//45
f  41//46 11//46 10//46
f  11//47 41//47 12//47
f  12//48 41//48 13//48
f  13//49 41//49 42//49
f  13//50 42//50 40//50
f  42//51 41//51 43//51
f  31//52 18//52 23//52
f  18//52 31//52 32//52
f  33//53 17//53 19//53
f  17//54 33//54 20//54
f  20//54 33//54 44//55
f  44//56 33//56 45//56
f  20//57 46//57 21//57
f  46//57 20//57 44//57
f  21//58 47//58 22//58
f  47//58 21//58 46//59
f  22//60 48//60 24//60
f  48//60 22//60 47//61
f  25//62 49//62 26//62
f  49//62 25//62 50//62
f  24//63 50//63 25//63
f  50//63 24//63 48//63
f  49//64 3//64 26//64
f  3//65 49//65 1//65
f  1//66 49//66 51//66
f  1//67 51//67 35//67
f  34//68 5//68 4//68
f  5//69 34//69 6//69
f  6//70 34//70 36//70
f  36//41 34//71 52//71
f  45//72 32//72 44//72
f  32//72 45//72 33//73
f  51//74 34//74 35//74
f  34//74 51//74 38//75
f  38//75 51//74 41//76
f  41//76 51//74 43//77
f  43//77 51//74 42//78
f  42//78 51//74 40//79
f  40//79 51//74 28//80
f  28//80 51//74 27//81
f  27//81 51//74 29//82
f  29//82 51//74 30//79
f  30//79 51//74 49//83
f  30//79 49//83 31//84
f  31//84 49//83 50//85
f  31//84 50//85 48//86
f  31//84 48//86 32//72
f  32//72 48//86 47//87
f  32//72 47//87 46//88
f  32//72 46//88 44//72
f  52//89 39//89 36//89
f  39//89 52//89 34//74
f  39//89 34//74 37//90
f  37//90 34//74 38//75

