# File produced by Open Asset Import Library (http://www.assimp.sf.net)
# (assimp v3.1.0)

mtllib ID_34743.obj.mtl

# 12 vertex positions
v  0 2.967 1.81676e-16
v  7.853 1.898 -3.696
v  2.331 1.925 -5.839
v  6.535 2.967 2.741
v  8.866 1.898 -3.271
v  8.877 1.893 -3.299
v  0 0 0
v  2.331 3.57536e-16 -5.839
v  6.535 -1.67838e-16 2.741
v  8.866 2.00291e-16 -3.271
v  8.877 2.02005e-16 -3.299
v  7.853 2.26315e-16 -3.696

# 0 UV coordinates

# 17 vertex normals
vn 0.0633347 0.986538 -0.150769
vn 0.0632825 0.986525 -0.150876
vn 0.0632981 0.986525 -0.150873
vn 0.0634471 0.986461 -0.151228
vn -0.928729 0 -0.37076
vn -0.928729 0 -0.37076
vn -0.386789 -5.64665e-17 0.922168
vn -0.386789 0 0.922168
vn 0.932371 -0 0.361503
vn 0.932371 0 0.361503
vn 0.930756 0 0.365642
vn 0.361794 0 -0.932258
vn 0.361794 0 -0.932258
vn 0.36148 0 -0.93238
vn 0.36148 0 -0.93238
vn -1.51784e-22 -1 -6.1232e-17
vn 4.75358e-24 -1 -6.12323e-17

# Mesh 'defaultobject' with 20 faces
g defaultobject
usemtl DefaultMaterial
f  1//1 2//1 3//1
f  2//2 1//2 4//2
f  2//3 4//3 5//3
f  2//4 5//4 6//4
f  3//5 7//5 1//5
f  7//5 3//5 8//6
f  7//7 4//7 1//7
f  4//7 7//7 9//8
f  9//9 5//9 4//9
f  5//9 9//9 10//10
f  5//11 10//11 6//11
f  6//11 10//11 11//11
f  2//12 8//12 3//12
f  8//12 2//12 12//13
f  12//14 2//14 6//14
f  12//14 6//14 11//15
f  11//16 10//16 12//16
f  8//17 9//17 7//17
f  9//17 8//17 12//16
f  9//17 12//16 10//16

