# File produced by Open Asset Import Library (http://www.assimp.sf.net)
# (assimp v3.1.0)

mtllib ID_43108.obj.mtl

# 20 vertex positions
v  3.901 5.065 2.959
v  4.916 4.105 -1.878
v  2.411 5.065 -0.921
v  5.39 4.14 -0.37
v  6.31 4.142 2.04
v  6.1 3.652 -2.33
v  5.481 4.105 -0.405
v  6.66 3.654 -0.85
v  1.49 4.141 3.88
v  0 4.141 2.53563e-16
v  0 0 0
v  1.49 -2.37581e-16 3.88
v  6.31 -1.24914e-16 2.04
v  3.901 -1.81186e-16 2.959
v  5.39 2.2656e-17 -0.37
v  6.66 5.20475e-17 -0.85
v  5.481 2.47991e-17 -0.405
v  6.1 1.42671e-16 -2.33
v  4.916 1.14994e-16 -1.878
v  2.411 5.6395e-17 -0.921

# 0 UV coordinates

# 29 vertex normals
vn 0.314647 0.941487 -0.120831
vn 0.314784 0.941446 -0.120794
vn 0.314614 0.941491 -0.120883
vn 0.314228 0.941653 -0.120625
vn 0.315875 0.941193 -0.119914
vn 0.314729 0.94152 -0.120359
vn -0.314658 0.941482 0.120835
vn -0.933532 -2.19515e-17 0.358495
vn -0.933532 0 0.358495
vn 0.356849 -0 0.934162
vn 0.356495 0.000192955 0.934297
vn 0.35664 0 0.934242
vn -1.11022e-20 -1 -6.12488e-17
vn 0.358979 -0 0.933346
vn 0.353172 0.000147585 0.935558
vn 0.353544 0 0.935418
vn -2.1486e-21 -1 -6.1235e-17
vn 0.934242 0 -0.35664
vn 0.935286 0 -0.353892
vn 0.935286 0 -0.353892
vn -0.356651 0 -0.934238
vn -0.356907 -8.45926e-05 -0.93414
vn -0.35684 -2.81177e-05 -0.934166
vn -0.356651 0.000289842 -0.934237
vn -0.356879 -2.00106e-05 -0.934151
vn -0.356849 5.72009e-17 -0.934162
vn 0 -1 -6.12323e-17
vn -1.55919e-24 -1 -6.12323e-17
vn 1.23345e-24 -1 -6.12323e-17

# Mesh 'defaultobject' with 36 faces
g defaultobject
usemtl DefaultMaterial
f  1//1 2//1 3//1
f  2//2 1//2 4//2
f  4//3 1//3 5//3
f  4//4 6//4 2//4
f  6//5 4//5 7//5
f  6//6 7//6 8//6
f  9//7 3//7 10//7
f  3//7 9//7 1//7
f  11//8 9//8 10//8
f  9//8 11//8 12//9
f  12//10 1//10 9//10
f  1//11 12//11 5//11
f  5//12 12//12 13//12
f  13//13 12//13 14//13
f  15//14 7//14 4//14
f  7//15 15//15 8//15
f  8//16 15//16 16//16
f  16//17 15//17 17//17
f  13//18 4//18 5//18
f  4//18 13//18 15//18
f  16//19 6//19 8//19
f  6//19 16//19 18//20
f  18//21 2//21 6//21
f  2//22 18//22 3//22
f  3//23 18//23 10//23
f  10//24 18//24 19//24
f  10//25 19//25 20//25
f  10//26 20//26 11//26
f  16//17 19//27 18//27
f  19//27 16//17 20//28
f  20//28 16//17 17//17
f  20//28 17//17 15//17
f  20//28 15//17 13//13
f  20//28 13//13 11//29
f  11//29 13//13 14//13
f  11//29 14//13 12//13

