# File produced by Open Asset Import Library (http://www.assimp.sf.net)
# (assimp v3.1.0)

mtllib ID_54762.obj.mtl

# 8 vertex positions
v  4.144 5.109 1.533
v  0.724 5.109 -1.577
v  0 5.109 3.12836e-16
v  4.847 5.109 -0.154
v  0 0 0
v  4.144 -9.38692e-17 1.533
v  4.847 9.42978e-18 -0.154
v  0.724 9.65634e-17 -1.577

# 0 UV coordinates

# 9 vertex normals
vn 0 1 0
vn -0.346953 -5.74287e-17 0.937882
vn -0.346953 0 0.937882
vn 0.923061 -0 0.384654
vn 0.326252 0 -0.945283
vn -0.908801 0 -0.41723
vn -0.908801 2.5548e-17 -0.41723
vn -3.46237e-24 -1 -6.12323e-17
vn 3.32708e-24 -1 -6.12323e-17

# Mesh 'defaultobject' with 12 faces
g defaultobject
usemtl DefaultMaterial
f  1//1 2//1 3//1
f  2//1 1//1 4//1
f  5//2 1//2 3//2
f  1//2 5//2 6//3
f  6//4 4//4 1//4
f  4//4 6//4 7//4
f  7//5 2//5 4//5
f  2//5 7//5 8//5
f  8//6 3//6 2//6
f  3//6 8//6 5//7
f  8//8 6//8 5//8
f  6//8 8//8 7//9

