# File produced by Open Asset Import Library (http://www.assimp.sf.net)
# (assimp v3.1.0)

mtllib ID_56331.obj.mtl

# 8 vertex positions
v  2.486 3.916 0.965
v  0.849 3.916 -2.187
v  0 3.916 2.39786e-16
v  3.335 3.916 -1.221
v  3.335 7.47647e-17 -1.221
v  0.849 1.33915e-16 -2.187
v  0 0 0
v  2.486 -5.90892e-17 0.965

# 0 UV coordinates

# 9 vertex normals
vn 0 1 0
vn 0.362193 0 -0.932103
vn -0.93222 0 -0.361891
vn -0.93222 2.21594e-17 -0.361891
vn -0.361867 -5.70826e-17 0.93223
vn -0.361867 0 0.93223
vn 0.932165 -0 0.362035
vn 1.0576e-24 -1 -6.12323e-17
vn 0 -1 -6.12323e-17

# Mesh 'defaultobject' with 12 faces
g defaultobject
usemtl DefaultMaterial
f  1//1 2//1 3//1
f  2//1 1//1 4//1
f  5//2 2//2 4//2
f  2//2 5//2 6//2
f  6//3 3//3 2//3
f  3//3 6//3 7//4
f  7//5 1//5 3//5
f  1//5 7//5 8//6
f  8//7 4//7 1//7
f  4//7 8//7 5//7
f  5//8 7//8 6//8
f  7//8 5//8 8//9

