# File produced by Open Asset Import Library (http://www.assimp.sf.net)
# (assimp v3.1.0)

mtllib ID_50207.obj.mtl

# 8 vertex positions
v  0 2.113 1.29384e-16
v  5.395 2.576 -0.62
v  1.266 2.576 -2.618
v  4.129 2.113 1.997
v  5.395 3.7964e-17 -0.62
v  1.266 1.60306e-16 -2.618
v  0 0 0
v  4.129 -1.22281e-16 1.997

# 0 UV coordinates

# 11 vertex normals
vn -0.0684875 0.987561 0.141534
vn -0.0684804 0.987554 0.14159
vn 0.435578 0 -0.900151
vn -0.900264 0 -0.435345
vn -0.900264 2.66572e-17 -0.435345
vn -0.435401 -5.51236e-17 0.900236
vn -0.435401 0 0.900236
vn 0.900198 0 0.43548
vn 0.900198 0 0.43548
vn 0 -1 -6.12323e-17
vn -4.96291e-25 -1 -6.12323e-17

# Mesh 'defaultobject' with 12 faces
g defaultobject
usemtl DefaultMaterial
f  1//1 2//1 3//1
f  2//2 1//2 4//2
f  5//3 3//3 2//3
f  3//3 5//3 6//3
f  6//4 1//4 3//4
f  1//4 6//4 7//5
f  7//6 4//6 1//6
f  4//6 7//6 8//7
f  4//8 5//8 2//8
f  5//8 4//8 8//9
f  5//10 7//10 6//10
f  7//10 5//10 8//11

