# File produced by Open Asset Import Library (http://www.assimp.sf.net)
# (assimp v3.1.0)

mtllib ID_13992.obj.mtl

# 8 vertex positions
v  16.315 6.338 -14.466
v  6.099 6.338 6.852
v  22.323 6.338 -7.717
v  0 6.338 3.88091e-16
v  22.323 4.7253e-16 -7.717
v  16.315 8.85787e-16 -14.466
v  0 0 0
v  6.099 -4.19564e-16 6.852

# 0 UV coordinates

# 9 vertex normals
vn 0 1 -0
vn 0.746921 0 -0.664913
vn -0.663435 0 -0.748234
vn -0.663435 4.58161e-17 -0.748234
vn -0.746958 -4.07116e-17 0.664871
vn -0.746958 0 0.664871
vn 0.668138 -0 0.744037
vn 0 -1 -6.12323e-17
vn 1.05867e-24 -1 -6.12323e-17

# Mesh 'defaultobject' with 12 faces
g defaultobject
usemtl DefaultMaterial
f  1//1 2//1 3//1
f  2//1 1//1 4//1
f  5//2 1//2 3//2
f  1//2 5//2 6//2
f  6//3 4//3 1//3
f  4//3 6//3 7//4
f  7//5 2//5 4//5
f  2//5 7//5 8//6
f  8//7 3//7 2//7
f  3//7 8//7 5//7
f  5//8 7//8 6//8
f  7//8 5//8 8//9

