# File produced by Open Asset Import Library (http://www.assimp.sf.net)
# (assimp v3.1.0)

mtllib ID_14336.obj.mtl

# 54 vertex positions
v  10.281 10.319 1.758
v  7.297 10.319 3.617
v  10.342 10.319 1.863
v  7.232 10.319 3.5
v  0.523 10.319 0.941
v  3.928 10.319 -2.262
v  0 10.319 6.31857e-16
v  3.246 10.319 5.775
v  7.182 10.319 3.528
v  7.02 10.319 -4.043
v  14.66 10.319 -8.443
v  10.368 10.319 1.708
v  18.021 10.319 -2.671
v  18.097 10.319 -10.422
v  18.107 10.319 -2.72
v  18.155 10.319 -2.637
v  21.355 10.319 -4.479
v  21.267 10.319 -4.64
v  21.66 10.319 -12.474
v  21.333 10.319 -4.677
v  24.917 10.319 -6.692
v  7.232 -2.14313e-16 3.5
v  7.182 -2.16028e-16 3.528
v  3.246 -3.53617e-16 5.775
v  7.297 -2.21477e-16 3.617
v  10.342 -1.14076e-16 1.863
v  10.281 -1.07646e-16 1.758
v  18.021 1.63552e-16 -2.671
v  18.107 1.66552e-16 -2.72
v  10.368 -1.04585e-16 1.708
v  18.155 1.6147e-16 -2.637
v  21.355 2.7426e-16 -4.479
v  21.267 2.84118e-16 -4.64
v  24.917 4.09767e-16 -6.692
v  21.333 2.86384e-16 -4.677
v  0 0 0
v  0.523 -5.76196e-17 0.941
v  21.66 7.63812e-16 -12.474
v  18.097 6.38163e-16 -10.422
v  14.66 5.16985e-16 -8.443
v  7.02 2.47562e-16 -4.043
v  3.928 1.38508e-16 -2.262
v  18.155 9.662 -2.637
v  23.242 12.931 -1.011
v  21.355 9.656 -4.479
v  20.106 12.918 0.77
v  20.106 -4.71489e-17 0.77
v  23.242 6.19059e-17 -1.011
v  10.342 10.256 1.863
v  9.193 11.314 7.038
v  12.312 11.313 5.247
v  7.297 10.258 3.617
v  9.193 -4.30953e-16 7.038
v  12.312 -3.21286e-16 5.247

# 0 UV coordinates

# 64 vertex normals
vn 0 1 -0
vn 0.488604 0 0.872506
vn 0.495782 4.57972e-05 0.868447
vn 0.488601 -0.003622 0.8725
vn 0.495783 0 0.868447
vn 0.499139 -0 0.866522
vn 0.498285 -0 0.867013
vn 0.49664 1.84431e-05 0.867957
vn 0.495048 0.00160152 0.868864
vn 0.496658 -1.77763e-05 0.867946
vn 0.495049 0 0.868865
vn 6.30809e-20 -1 -6.10623e-17
vn 0.498878 -0 0.866672
vn 0.489008 -0 0.87228
vn 0.490076 -8.98791e-06 0.871679
vn 0.490057 0 0.87169
vn 0 1 6.1201e-17
vn -0.874157 0 0.485643
vn -0.865663 0 0.500628
vn -0.87407 -2.97467e-17 0.485801
vn -0.871277 -0.000596683 0.490792
vn -0.871733 0 0.489982
vn 0 1 6.12327e-17
vn 0.864674 0 -0.502334
vn 0.87748 0 -0.479613
vn 0.871278 0 -0.490791
vn -0.49907 0 -0.866562
vn -0.498987 3.78319e-05 -0.866609
vn -0.49907 -3.64808e-05 -0.866562
vn -0.499068 -3.56094e-05 -0.866563
vn -0.498987 7.90428e-05 -0.866609
vn -0.499068 -0 -0.866563
vn -0.499124 -0 -0.866531
vn -0.499035 3.55792e-05 -0.866582
vn -0.499124 -4.51962e-05 -0.866531
vn -0.499035 5.30628e-17 -0.866582
vn 3.86964e-23 -1 -6.12323e-17
vn -4.67312e-23 -1 -6.12324e-17
vn 0 -1 -6.12323e-17
vn -1.0685e-22 -1 -6.12321e-17
vn 2.22951e-24 -1 -6.12323e-17
vn -4.46695e-24 -1 -6.12323e-17
vn -1.75858e-24 -1 -6.12323e-17
vn -3.52646e-24 -1 -6.12323e-17
vn 7.74852e-22 -1 -6.12323e-17
vn -0.317467 0.769592 -0.554024
vn -0.317657 0.769735 -0.553716
vn -0.867788 0 0.496934
vn -0.867788 0 0.496934
vn 0.493838 0 0.869554
vn 0.493838 0 0.869554
vn 0.878389 0 -0.477947
vn -0.498878 0 -0.866672
vn -0.498878 0 -0.866672
vn 0 -1 -6.12323e-17
vn -0.129546 0.965442 -0.226142
vn -0.12964 0.965425 -0.22616
vn -0.874651 0 0.484753
vn -0.874651 0 0.484753
vn 0.497964 -0 0.867198
vn 0.497964 0 0.867198
vn 0.864223 0 -0.503109
vn -0.499139 0 -0.866522
vn 3.7637e-24 -1 -6.12323e-17

# Mesh 'defaultobject' with 102 faces
g defaultobject
usemtl DefaultMaterial
f  1//1 2//1 3//1
f  2//1 1//1 4//1
f  5//1 6//1 7//1
f  6//1 5//1 8//1
f  6//1 8//1 9//1
f  6//1 9//1 10//1
f  10//1 9//1 1//1
f  10//1 1//1 11//1
f  11//1 1//1 12//1
f  11//1 12//1 13//1
f  11//1 13//1 14//1
f  14//1 13//1 15//1
f  14//1 15//1 16//1
f  14//1 16//1 17//1
f  14//1 17//1 18//1
f  18//1 19//1 14//1
f  19//1 18//1 20//1
f  19//1 20//1 21//1
f  9//2 22//2 4//2
f  22//3 9//3 8//3
f  22//4 8//4 23//4
f  23//5 8//5 24//5
f  25//6 3//6 2//6
f  3//6 25//6 26//6
f  27//7 12//7 1//7
f  12//8 27//8 13//8
f  13//9 27//9 15//9
f  15//10 27//10 28//10
f  15//11 28//11 29//11
f  28//12 27//12 30//12
f  31//13 17//13 16//13
f  17//13 31//13 32//13
f  33//14 20//14 18//14
f  20//15 33//15 21//15
f  21//16 33//16 34//16
f  34//17 33//17 35//17
f  22//18 2//18 4//18
f  2//18 22//18 25//18
f  29//19 16//19 15//19
f  16//19 29//19 31//19
f  36//20 5//20 7//20
f  5//21 36//21 8//21
f  8//22 36//22 24//22
f  24//23 36//23 37//23
f  26//24 1//24 3//24
f  1//24 26//24 27//24
f  32//25 18//25 17//25
f  18//25 32//25 33//25
f  34//26 19//26 21//26
f  19//26 34//26 38//26
f  38//27 14//27 19//27
f  14//28 38//28 11//28
f  11//29 38//29 39//29
f  11//29 39//29 10//30
f  10//31 39//31 40//31
f  10//32 40//32 41//32
f  10//33 41//33 6//33
f  6//34 41//34 7//34
f  7//35 41//35 42//35
f  7//36 42//36 36//36
f  22//37 26//37 25//37
f  26//37 22//37 27//12
f  31//38 29//38 32//38
f  34//39 39//39 38//39
f  39//39 34//39 35//39
f  39//39 35//39 40//39
f  40//39 35//39 33//40
f  40//39 33//40 32//38
f  40//39 32//38 29//38
f  40//39 29//38 28//12
f  40//39 28//12 41//39
f  41//39 28//12 30//12
f  41//39 30//12 42//41
f  42//41 30//12 27//12
f  42//41 27//12 23//42
f  42//41 23//42 36//43
f  36//43 23//42 24//44
f  36//43 24//44 37//45
f  43//46 44//46 45//46
f  44//47 43//47 46//47
f  43//48 47//48 46//48
f  47//48 43//48 31//49
f  46//50 48//50 44//50
f  48//50 46//50 47//51
f  48//52 45//52 44//52
f  45//52 48//52 32//52
f  45//53 31//53 43//53
f  31//53 45//53 32//54
f  31//38 48//55 47//55
f  48//55 31//38 32//38
f  49//56 50//56 51//56
f  50//57 49//57 52//57
f  52//58 53//58 50//58
f  53//58 52//58 25//59
f  53//60 51//60 50//60
f  51//60 53//60 54//61
f  54//62 49//62 51//62
f  49//62 54//62 26//62
f  49//63 25//63 52//63
f  25//63 49//63 26//63
f  25//37 54//64 53//64
f  54//64 25//37 26//37

