# File produced by Open Asset Import Library (http://www.assimp.sf.net)
# (assimp v3.1.0)

mtllib ID_38528.obj.mtl

# 8 vertex positions
v  5.723 2.67 -2.13
v  1.912 2.67 5.137
v  7.635 2.67 3.007
v  0 2.67 1.6349e-16
v  7.635 -1.84126e-16 3.007
v  5.723 1.30425e-16 -2.13
v  0 0 0
v  1.912 -3.14551e-16 5.137

# 0 UV coordinates

# 9 vertex normals
vn 0 1 -0
vn 0.937189 0 -0.348823
vn -0.348807 0 -0.937194
vn -0.348807 5.73866e-17 -0.937194
vn -0.937189 -2.13593e-17 0.348823
vn -0.937189 0 0.348823
vn 0.348807 -0 0.937194
vn 6.3265e-24 -1 -6.12323e-17
vn -3.16325e-24 -1 -6.12323e-17

# Mesh 'defaultobject' with 12 faces
g defaultobject
usemtl DefaultMaterial
f  1//1 2//1 3//1
f  2//1 1//1 4//1
f  5//2 1//2 3//2
f  1//2 5//2 6//2
f  6//3 4//3 1//3
f  4//3 6//3 7//4
f  7//5 2//5 4//5
f  2//5 7//5 8//6
f  8//7 3//7 2//7
f  3//7 8//7 5//7
f  8//8 6//8 5//8
f  6//8 8//8 7//9

