# File produced by Open Asset Import Library (http://www.assimp.sf.net)
# (assimp v3.1.0)

mtllib ID_33239.obj.mtl

# 20 vertex positions
v  2.495 6.735 3.965
v  2.98 6.735 3.655
v  0 6.735 4.124e-16
v  11.559 6.735 17.402
v  12.513 6.735 16.769
v  0.028 6.735 -3.069
v  14.511 6.735 18.196
v  0.928 6.735 -3.627
v  1.326 6.735 -0.949
v  13.688 6.735 18.704
v  11.559 -1.06557e-15 17.402
v  12.513 -1.02681e-15 16.769
v  13.688 -1.14529e-15 18.704
v  14.511 -1.11418e-15 18.196
v  2.495 -2.42786e-16 3.965
v  2.98 -2.23804e-16 3.655
v  0.028 1.87922e-16 -3.069
v  1.326 5.81095e-17 -0.949
v  0 0 0
v  0.928 2.2209e-16 -3.627

# 0 UV coordinates

# 21 vertex normals
vn 0 1 0
vn 0.552885 -0 0.833257
vn 0.525252 -0 0.850947
vn 0.53856 -0 0.842587
vn -0.854753 0 0.519035
vn -0.852844 0 0.522166
vn -0.846375 -3.26115e-17 0.532587
vn -0.846375 0 0.532587
vn -0.848355 0 0.529427
vn 0.848982 0 -0.528421
vn -0.52694 0 -0.849903
vn -0.581992 0 -0.813194
vn -0.581992 4.97938e-17 -0.813194
vn 0 -1 -6.12324e-17
vn 0 -1 -6.12324e-17
vn -2.91699e-23 -1 -6.12323e-17
vn 0 -1 -6.12323e-17
vn 1.34469e-22 -1 -6.12324e-17
vn -3.62698e-23 -1 -6.12322e-17
vn -9.9912e-23 -1 -6.12323e-17
vn -1.96329e-23 -1 -6.12323e-17

# Mesh 'defaultobject' with 36 faces
g defaultobject
usemtl DefaultMaterial
f  1//1 2//1 3//1
f  4//1 5//1 2//1
f  6//1 7//1 8//1
f  7//1 6//1 9//1
f  7//1 9//1 2//1
f  2//1 9//1 3//1
f  7//1 2//1 5//1
f  7//1 5//1 10//1
f  11//2 5//2 4//2
f  5//2 11//2 12//2
f  13//3 7//3 10//3
f  7//3 13//3 14//3
f  15//4 2//4 1//4
f  2//4 15//4 16//4
f  12//5 10//5 5//5
f  10//5 12//5 13//5
f  17//6 9//6 6//6
f  9//6 17//6 18//6
f  19//7 1//7 3//7
f  1//7 19//7 15//8
f  16//9 4//9 2//9
f  4//9 16//9 11//9
f  14//10 8//10 7//10
f  8//10 14//10 20//10
f  20//11 6//11 8//11
f  6//11 20//11 17//11
f  18//12 3//12 9//12
f  3//12 18//12 19//13
f  14//14 17//14 20//14
f  17//14 14//14 18//15
f  18//15 14//14 16//16
f  18//15 16//16 19//17
f  16//16 14//14 12//18
f  12//18 14//14 13//19
f  11//20 16//16 12//18
f  15//21 19//17 16//16

