# File produced by Open Asset Import Library (http://www.assimp.sf.net)
# (assimp v3.1.0)

mtllib ID_50293.obj.mtl

# 8 vertex positions
v  1.603 2.265 -1.46
v  4.11 2.265 4.512
v  5.713 2.265 3.052
v  0 2.265 1.38691e-16
v  5.713 -1.86881e-16 3.052
v  1.603 8.93992e-17 -1.46
v  0 0 0
v  4.11 -2.7628e-16 4.512

# 0 UV coordinates

# 9 vertex normals
vn 0 1 0
vn 0.739272 0 -0.673406
vn -0.673361 0 -0.739314
vn -0.673361 4.52699e-17 -0.739314
vn -0.739272 -4.12343e-17 0.673406
vn -0.739272 0 0.673406
vn 0.673361 -0 0.739314
vn -4.00047e-24 -1 -6.12323e-17
vn 0 -1 -6.12323e-17

# Mesh 'defaultobject' with 12 faces
g defaultobject
usemtl DefaultMaterial
f  1//1 2//1 3//1
f  2//1 1//1 4//1
f  5//2 1//2 3//2
f  1//2 5//2 6//2
f  6//3 4//3 1//3
f  4//3 6//3 7//4
f  7//5 2//5 4//5
f  2//5 7//5 8//6
f  8//7 3//7 2//7
f  3//7 8//7 5//7
f  8//8 6//8 5//8
f  6//8 8//8 7//9

