# File produced by Open Asset Import Library (http://www.assimp.sf.net)
# (assimp v3.1.0)

mtllib _3362.obj.mtl

# 22 vertex positions
v  0 16.09 9.85228e-16
v  13.483 16.09 -6.341
v  11.81 16.09 -8.592
v  34.422 16.09 -8.82
v  38.639 16.09 3.767
v  37.116 16.09 -9.139
v  12.878 16.09 6.779
v  4.744 16.09 7.831
v  13 16.09 6.765
v  12.715 16.09 6.899
v  6.806 16.09 11.234
v  6.806 -6.87884e-16 11.234
v  12.878 -4.15094e-16 6.779
v  12.715 -4.22442e-16 6.899
v  38.639 -2.30662e-16 3.767
v  13 -4.14237e-16 6.765
v  37.116 5.59602e-16 -9.139
v  13.483 3.88274e-16 -6.341
v  34.422 5.40069e-16 -8.82
v  11.81 5.26108e-16 -8.592
v  0 0 0
v  4.744 -4.7951e-16 7.831

# 0 UV coordinates

# 28 vertex normals
vn 0 1 0
vn 0.591517 -0 0.806292
vn 0.592863 -0.00076048 0.805303
vn 0.591554 0 0.806266
vn -8.81702e-20 1 6.11113e-17
vn 0.114006 -0 0.99348
vn 0.11614 -1.63979e-05 0.993233
vn 0.11613 0 0.993234
vn -1.55406e-20 1 6.11058e-17
vn 0.993109 0 -0.117194
vn -0.11759 0 -0.993062
vn -0.11757 3.30296e-06 -0.993065
vn -0.117573 -0 -0.993064
vn 4.72034e-20 -1 -6.07979e-17
vn 0.802603 0 -0.596514
vn -0.588302 0 -0.808641
vn -0.588302 4.9515e-17 -0.808641
vn -0.855245 0 0.518224
vn -0.855298 -2.50268e-05 0.518137
vn -0.855245 5.75883e-05 0.518224
vn -0.855298 0 0.518137
vn 0 -1 -6.12323e-17
vn 2.52574e-24 -1 -6.12323e-17
vn 0 -1 -6.12323e-17
vn 2.10217e-22 -1 -6.12324e-17
vn -7.98984e-23 -1 -6.1232e-17
vn 0 -1 -6.12323e-17
vn 0 -1 -6.12576e-17

# Mesh 'defaultobject' with 40 faces
g defaultobject
usemtl DefaultMaterial
f  1//1 2//1 3//1
f  4//1 5//1 6//1
f  5//1 4//1 2//1
f  5//1 2//1 1//1
f  5//1 1//1 7//1
f  7//1 1//1 8//1
f  5//1 7//1 9//1
f  7//1 8//1 10//1
f  10//1 8//1 11//1
f  12//2 10//2 11//2
f  10//3 12//3 7//3
f  7//4 12//4 13//4
f  13//5 12//5 14//5
f  13//6 9//6 7//6
f  9//7 13//7 5//7
f  5//8 13//8 15//8
f  15//9 13//5 16//9
f  15//10 6//10 5//10
f  6//10 15//10 17//10
f  17//11 4//11 6//11
f  4//12 17//12 2//12
f  2//12 17//12 18//13
f  18//14 17//14 19//14
f  18//15 3//15 2//15
f  3//15 18//15 20//15
f  20//16 1//16 3//16
f  1//16 20//16 21//17
f  8//18 12//18 11//18
f  12//19 8//19 1//19
f  12//20 1//20 22//20
f  22//21 1//21 21//21
f  15//22 19//14 17//14
f  19//14 15//22 16//23
f  19//14 16//23 18//14
f  18//14 16//23 20//24
f  20//24 16//23 21//24
f  21//24 16//23 13//25
f  21//24 13//25 14//26
f  21//24 14//26 12//27
f  21//24 12//27 22//28

