# File produced by Open Asset Import Library (http://www.assimp.sf.net)
# (assimp v3.1.0)

mtllib _55214.obj.mtl

# 8 vertex positions
v  5.648 5.805 -0.787
v  0.202 5.805 1.283
v  5.833 5.805 0.465
v  0 5.805 3.55454e-16
v  5.833 -2.8473e-17 0.465
v  5.648 4.81898e-17 -0.787
v  0 0 0
v  0.202 -7.85611e-17 1.283

# 0 UV coordinates

# 8 vertex normals
vn 0 1 -0
vn 0.989258 0 -0.146177
vn -0.138008 0 -0.990431
vn -0.138008 6.06464e-17 -0.990431
vn -0.987832 -9.52332e-18 0.155528
vn -0.987832 0 0.155528
vn 0.143758 -0 0.989613
vn 0 -1 -6.12323e-17

# Mesh 'defaultobject' with 12 faces
g defaultobject
usemtl DefaultMaterial
f  1//1 2//1 3//1
f  2//1 1//1 4//1
f  5//2 1//2 3//2
f  1//2 5//2 6//2
f  6//3 4//3 1//3
f  4//3 6//3 7//4
f  7//5 2//5 4//5
f  2//5 7//5 8//6
f  8//7 3//7 2//7
f  3//7 8//7 5//7
f  8//8 6//8 5//8
f  6//8 8//8 7//8

