# {"id":"_56727","idOriginal":"_56727","origin":[14.285789814193517,48.295268770932076],"elevation":264.065}
# Longitude: 14.285789814193517
# Latitude: 48.295268770932076
# Elevation: 264.065

# File produced by Open Asset Import Library (http://www.assimp.sf.net)
# (assimp v3.1.0)

mtllib _56727.obj.mtl

# 8 vertex positions
v  0 2.574 1.57612e-16
v  4.015 2.574 0.039
v  3.437 2.574 -1.467
v  0.572 2.574 1.428
v  3.437 8.98278e-17 -1.467
v  0 0 0
v  0.572 -8.74398e-17 1.428
v  4.015 -2.38806e-18 0.039

# 0 UV coordinates

# 9 vertex normals
vn -0 1 0
vn -0.392562 0 -0.919725
vn -0.392562 5.63169e-17 -0.919725
vn -0.928297 -2.27686e-17 0.371839
vn -0.928297 0 0.371839
vn 0.374129 -0 0.927377
vn 0.933601 0 -0.358314
vn 0 -1 -6.12323e-17
vn 3.62093e-26 -1 -6.12323e-17

# Mesh 'defaultobject' with 12 faces
g defaultobject
usemtl DefaultMaterial
f  1//1 2//1 3//1
f  2//1 1//1 4//1
f  5//2 1//2 3//2
f  1//2 5//2 6//3
f  6//4 4//4 1//4
f  4//4 6//4 7//5
f  7//6 2//6 4//6
f  2//6 7//6 8//6
f  8//7 3//7 2//7
f  3//7 8//7 5//7
f  8//8 6//8 5//8
f  6//8 8//8 7//9

