# {"id":"ID_41292","idOriginal":"ID_41292","origin":[14.281590842606192,48.27511100225413],"elevation":278.337}
# Longitude: 14.281590842606192
# Latitude: 48.27511100225413
# Elevation: 278.337

# File produced by Open Asset Import Library (http://www.assimp.sf.net)
# (assimp v3.1.0)

mtllib ID_41292.obj.mtl

# 16 vertex positions
v  3.985 2.218 -2.357
v  4.981 3.892 3.86
v  6.972 2.218 2.679
v  3.816 2.36 -2.257
v  1.993 3.892 -1.178
v  2.99 2.218 5.041
v  0.209 2.393 -0.123
v  0 2.218 1.35813e-16
v  0 0 0
v  2.99 -3.08672e-16 5.041
v  4.981 -2.36357e-16 3.86
v  6.972 -1.64041e-16 2.679
v  3.985 1.44325e-16 -2.357
v  3.816 1.38201e-16 -2.257
v  1.993 7.21317e-17 -1.178
v  0.209 7.53158e-18 -0.123

# 0 UV coordinates

# 26 vertex normals
vn 0.503992 0.810328 -0.298933
vn 0.503987 0.810331 -0.298933
vn 0.504026 0.810306 -0.298934
vn -0.503301 0.810907 0.298526
vn -0.504069 0.810285 0.298919
vn -0.504001 0.810328 0.298919
vn -0.860086 -3.12376e-17 0.510148
vn -0.860086 0 0.510148
vn 0.510169 -0 0.860074
vn 0.510169 -3.70076e-08 0.860074
vn 0.510169 9.28695e-08 0.860074
vn 0.51017 0 0.860074
vn 0.860089 0 -0.510144
vn -0.509243 0 -0.860623
vn -0.509356 -1.09256e-05 -0.860556
vn -0.509118 0.000153925 -0.860697
vn -0.509243 -0.00011365 -0.860623
vn -0.509349 -0.00032974 -0.86056
vn -0.507901 0.00112721 -0.861415
vn -0.509022 -0.000231234 -0.860754
vn -0.5072 5.27718e-17 -0.861828
vn -7.81146e-24 -1 -6.12323e-17
vn -1.56229e-23 -1 -6.12323e-17
vn 0 -1 -6.12323e-17
vn 0 -1 -6.12323e-17
vn 0 -1 -6.12476e-17

# Mesh 'defaultobject' with 28 faces
g defaultobject
usemtl DefaultMaterial
f  1//1 2//1 3//1
f  2//1 1//1 4//2
f  2//3 4//3 5//3
f  6//4 7//4 8//4
f  7//5 6//5 5//5
f  5//6 6//6 2//6
f  9//7 6//7 8//7
f  6//7 9//7 10//8
f  10//9 2//9 6//9
f  2//9 10//9 3//10
f  3//10 10//9 11//11
f  3//10 11//11 12//12
f  12//13 1//13 3//13
f  1//13 12//13 13//13
f  13//14 4//14 1//14
f  4//15 13//15 5//15
f  5//16 13//16 7//16
f  7//17 13//17 14//17
f  7//18 14//18 15//18
f  7//19 15//19 8//19
f  8//20 15//20 16//20
f  8//21 16//21 9//21
f  11//22 13//22 12//22
f  13//22 11//22 10//23
f  13//22 10//23 15//24
f  15//24 10//23 16//25
f  16//25 10//23 9//24
f  13//22 15//24 14//26

