# {"id":"ID_18400","idOriginal":"ID_18400","origin":[14.342927475288034,48.34045413106789],"elevation":333.602}
# Longitude: 14.342927475288034
# Latitude: 48.34045413106789
# Elevation: 333.602

# File produced by Open Asset Import Library (http://www.assimp.sf.net)
# (assimp v3.1.0)

mtllib ID_18400.obj.mtl

# 20 vertex positions
v  2.692 8.901 -4.522
v  17.803 4.487 -1.424
v  5.393 4.447 -9.059
v  15.202 8.901 3.119
v  13.301 5.675 6.439
v  12.565 4.462 7.674
v  12.586 4.462 7.687
v  5.782 4.462 3.532
v  2.219 4.462 1.356
v  0 4.462 2.73219e-16
v  0 0 0
v  2.692 2.76893e-16 -4.522
v  5.393 5.54704e-16 -9.059
v  2.219 -8.30311e-17 1.356
v  5.782 -2.16273e-16 3.532
v  12.565 -4.69897e-16 7.674
v  12.586 -4.70693e-16 7.687
v  13.301 -3.94275e-16 6.439
v  15.202 -1.90984e-16 3.119
v  17.803 8.71949e-17 -1.424

# 0 UV coordinates

# 33 vertex normals
vn 0.336088 0.76435 -0.550285
vn 0.336088 0.764375 -0.55025
vn -0.339442 0.764258 0.548351
vn -0.336086 0.764284 0.550379
vn -0.336056 0.764382 0.55026
vn -0.335763 0.765091 0.549453
vn -0.336088 0.764368 0.550261
vn -0.336099 0.764357 0.550268
vn -0.859262 -6.79477e-06 -0.511536
vn -0.859262 3.13225e-17 -0.511536
vn -0.859265 1.36106e-05 -0.511531
vn -0.859259 0 -0.51154
vn -0.521434 -5.2249e-17 0.853291
vn -0.521208 -0.000154761 0.85343
vn -0.521434 0.000248538 0.853291
vn -0.521208 0 0.85343
vn -0.52116 0 0.853459
vn -0.526339 0 0.850275
vn 0.867687 -0 0.497112
vn 0.867842 -7.9077e-05 0.496841
vn 0.867813 -4.46579e-05 0.496891
vn 0.867687 0.000549121 0.497111
vn 0.867809 5.38892e-05 0.496899
vn 0.867831 0 0.496859
vn 0.524002 0 -0.851717
vn -1.07172e-21 -1 -6.1233e-17
vn 3.47509e-24 -1 -6.12323e-17
vn -1.73633e-24 -1 -6.12323e-17
vn -2.85502e-24 -1 -6.12323e-17
vn 2.41645e-24 -1 -6.12323e-17
vn 0 -1 -6.12323e-17
vn 1.54484e-23 -1 -6.12323e-17
vn 0 -1 -6.1162e-17

# Mesh 'defaultobject' with 36 faces
g defaultobject
usemtl DefaultMaterial
f  1//1 2//1 3//1
f  2//2 1//2 4//2
f  5//3 6//3 7//3
f  6//4 5//4 8//4
f  8//5 5//5 9//5
f  9//6 5//6 10//6
f  10//7 5//7 1//7
f  1//8 5//8 4//8
f  3//9 10//9 1//9
f  10//9 3//9 11//10
f  11//11 3//11 12//11
f  12//12 3//9 13//12
f  11//13 9//13 10//13
f  9//14 11//14 8//14
f  8//15 11//15 14//15
f  8//16 14//16 15//16
f  8//17 15//17 6//17
f  6//17 15//17 16//17
f  6//18 16//18 7//18
f  7//18 16//18 17//18
f  17//19 5//19 7//19
f  5//20 17//20 4//20
f  4//21 17//21 2//21
f  2//22 17//22 18//22
f  2//23 18//23 19//23
f  2//24 19//24 20//24
f  20//25 3//25 2//25
f  3//25 20//25 13//25
f  16//26 18//26 17//26
f  18//26 16//26 15//27
f  18//26 15//27 19//28
f  19//28 15//27 20//29
f  20//29 15//27 14//30
f  20//29 14//30 13//31
f  13//31 14//30 11//32
f  13//31 11//32 12//33

