# {"id":"ID_31601","idOriginal":"ID_31601","origin":[14.377438273658626,48.2492514747119],"elevation":249.304}
# Longitude: 14.377438273658626
# Latitude: 48.2492514747119
# Elevation: 249.304

# File produced by Open Asset Import Library (http://www.assimp.sf.net)
# (assimp v3.1.0)

mtllib ID_31601.obj.mtl

# 10 vertex positions
v  0 2.561 1.56816e-16
v  9.618 3.575 -5.846
v  0.147 3.575 -6.312
v  9.343 2.553 0.508
v  9.36 2.616 0.118
v  9.618 3.57964e-16 -5.846
v  0.147 3.86499e-16 -6.312
v  0 0 0
v  9.343 -3.1106e-17 0.508
v  9.36 -7.22542e-18 0.118

# 0 UV coordinates

# 14 vertex normals
vn -0.00779525 0.987339 0.158431
vn -0.00777097 0.987333 0.15847
vn -0.9139 0.40513 0.0256093
vn 0.0491433 0 -0.998792
vn -0.999729 0 -0.0232827
vn -0.999729 1.42565e-18 -0.0232827
vn -0.0542921 -6.1142e-17 0.998525
vn -0.0542921 0 0.998525
vn 0.999066 0 0.0432192
vn 0.999055 -0.000546269 0.0434583
vn 0.999066 5.0084e-05 0.0432192
vn 0.999051 0 0.0435465
vn -1.76909e-24 -1 -6.12323e-17
vn 0 -1 -6.12323e-17

# Mesh 'defaultobject' with 16 faces
g defaultobject
usemtl DefaultMaterial
f  1//1 2//1 3//1
f  2//2 1//2 4//2
f  2//3 4//3 5//3
f  6//4 3//4 2//4
f  3//4 6//4 7//4
f  7//5 1//5 3//5
f  1//5 7//5 8//6
f  8//7 4//7 1//7
f  4//7 8//7 9//8
f  5//9 6//9 2//9
f  6//10 5//10 4//10
f  6//11 4//11 10//11
f  10//12 4//12 9//12
f  6//13 8//13 7//13
f  8//13 6//13 10//14
f  8//13 10//14 9//14

