# {"id":"ID_45850","idOriginal":"ID_45850","origin":[14.278235611753548,48.314138439338635],"elevation":282.263,"wof":[{"Id":102049853,"Name":"Linz","Placetype":"county","Offset":-1},{"Id":101748071,"Name":"Linz","Placetype":"locality","Offset":-1},{"Id":85632785,"Name":"Austria","Placetype":"country","Offset":-1},{"Id":85681677,"Name":"Oberösterreich","Placetype":"region","Offset":-1},{"Id":85898453,"Name":"Urfahr","Placetype":"neighbourhood","Offset":-1}]}

# Attribution: City of Linz <http://geo.data.linz.gv.at/katalog/geodata/3d_geo_daten_lod2/>
# Longitude: 14.278235611753548
# Latitude: 48.314138439338635
# Elevation: 282.263

# File produced by Open Asset Import Library (http://www.assimp.sf.net)
# (assimp v3.1.0)


# 16 vertex positions
v  3.485 3.031 -1.372
v  2.835 2.628 2.332
v  6.089 2.628 -1.646
v  2.564 3.031 -0.245
v  0.026 2.638 0.022
v  2.82 2.623 2.35
v  3.214 2.628 -3.949
v  0 2.631 1.61102e-16
v  3.196 2.623 -3.964
v  6.089 1.00788e-16 -1.646
v  3.214 2.41807e-16 -3.949
v  0 0 0
v  3.196 2.42725e-16 -3.964
v  2.82 -1.43896e-16 2.35
v  0.026 -1.34711e-18 0.022
v  2.835 -1.42794e-16 2.332

# 0 UV coordinates

# 23 vertex normals
vn 0.165425 0.976895 0.135317
vn 0.165621 0.976858 0.135347
vn -0.13049 0.977974 0.162911
vn -0.133715 0.976877 0.166829
vn 0.133632 0.976889 -0.166822
vn -0.1615 0.97798 -0.132184
vn -0.16542 0.976888 -0.135373
vn -0.165319 0.976943 -0.135101
vn -0.164044 0.9794 -0.117754
vn 0.625191 0 -0.780471
vn -0.778487 0 -0.62766
vn -0.639826 -0.0361746 0.767668
vn -0.640184 0 0.768221
vn -0.640184 0 0.768221
vn 0 1 6.12566e-17
vn 0.77332 -0.0427214 0.632575
vn 0.774 0 0.633185
vn -9.62899e-20 1 6.11923e-17
vn 0 -1 -6.12324e-17
vn -2.83236e-24 -1 -6.12323e-17
vn -7.48775e-23 -1 -6.12324e-17
vn -2.82266e-24 -1 -6.12323e-17
vn 5.54727e-22 -1 -6.12319e-17

# Mesh 'defaultobject' with 26 faces
g defaultobject
usemtl DefaultMaterial
f  1//1 2//1 3//1
f  2//2 1//2 4//2
f  2//3 5//3 6//3
f  5//4 2//4 4//4
f  1//5 3//5 7//5
f  8//6 7//6 9//6
f  7//7 8//7 1//7
f  1//8 8//8 4//8
f  4//9 8//9 5//9
f  10//10 7//10 3//10
f  7//10 10//10 11//10
f  9//11 12//11 8//11
f  12//11 9//11 13//11
f  8//12 6//12 5//12
f  6//13 8//13 12//13
f  6//13 12//13 14//14
f  14//15 12//15 15//15
f  6//16 3//16 2//16
f  3//17 6//17 14//17
f  3//17 14//17 10//17
f  10//18 14//15 16//18
f  15//19 16//19 14//19
f  16//19 15//19 10//20
f  10//20 15//19 12//21
f  10//20 12//21 11//22
f  11//22 12//21 13//23

