# {"id":"ID_20408","idOriginal":"ID_20408","origin":[14.309665073245089,48.31775198591155],"elevation":253.304}
# Longitude: 14.309665073245089
# Latitude: 48.31775198591155
# Elevation: 253.304

# File produced by Open Asset Import Library (http://www.assimp.sf.net)
# (assimp v3.1.0)

mtllib ID_20408.obj.mtl

# 31 vertex positions
v  6.701 15.02 2.37
v  9.275 10.902 -4.012
v  8.965 10.899 -4.632
v  10.21 10.911 -2.137
v  10.278 11.121 -1.419
v  10.511 10.914 -1.535
v  14.864 11.106 7.603
v  10.487 15.02 9.852
v  8.944 10.899 -4.621
v  0 10.899 6.67371e-16
v  0.123 11.116 0.244
v  5.011 10.906 10.489
v  3.683 11.118 7.273
v  3.443 10.901 7.403
v  5.263 11.131 10.361
v  6.141 11.135 12.085
v  10.511 9.39916e-17 -1.535
v  10.21 1.30854e-16 -2.137
v  8.965 2.83628e-16 -4.632
v  9.275 2.45664e-16 -4.012
v  10.278 8.68887e-17 -1.419
v  14.864 -4.65549e-16 7.603
v  0 0 0
v  8.944 2.82955e-16 -4.621
v  3.683 -4.45343e-16 7.273
v  3.443 -4.53303e-16 7.403
v  0.123 -1.49407e-17 0.244
v  5.011 -6.42266e-16 10.489
v  6.141 -7.39993e-16 12.085
v  5.263 -6.34428e-16 10.361
v  10.487 -6.03261e-16 9.852

# 0 UV coordinates

# 50 vertex normals
vn 0.555002 0.782847 -0.281289
vn 0.555646 0.782551 -0.280839
vn 0.555027 0.782752 -0.281504
vn 0.555178 0.78265 -0.281488
vn 0.555419 0.782646 -0.281025
vn 0.555429 0.782628 -0.281055
vn -0.28984 0.780916 -0.553321
vn -0.285722 0.782645 -0.553019
vn -0.286316 0.78308 -0.552096
vn -0.555455 0.782644 0.280959
vn -0.555353 0.782685 0.281049
vn -0.555375 0.782676 0.281028
vn -0.555354 0.782753 0.280856
vn -0.555778 0.782373 0.281075
vn -0.55532 0.782726 0.280998
vn 0.894427 0 -0.447213
vn 0.894904 6.57751e-05 -0.446259
vn 0.894428 -0.000204726 -0.447212
vn 0.894427 -0.000205051 -0.447213
vn 0.894786 0 -0.446496
vn 4.27239e-21 1 6.12297e-17
vn 0.891443 0 -0.453132
vn 0.891443 0 -0.453132
vn -0.464014 0 -0.885828
vn -0.459015 1.22566e-05 -0.888429
vn -0.459027 5.44002e-17 -0.888423
vn 0 -1 -6.11884e-17
vn -0.476283 0 -0.879292
vn -0.476283 -0 -0.879292
vn -0.892103 -0.00238296 0.451827
vn -0.892134 0 0.451771
vn 0 1 6.12313e-17
vn -0.89152 0 0.452982
vn -0.89152 0 0.452982
vn -0.891095 0 0.453817
vn -0.891095 0 0.453817
vn 0.452866 0 0.891578
vn 0.457016 -8.12969e-06 0.889458
vn 0.457016 0 0.889458
vn -1.7028e-19 1 6.09601e-17
vn 0.445677 -0 0.895194
vn 0 -1 -6.12323e-17
vn 2.80012e-24 -1 -6.12323e-17
vn -1.76056e-23 -1 -6.12322e-17
vn 1.09594e-23 -1 -6.12323e-17
vn -1.61987e-24 -1 -6.12323e-17
vn 0 -1 -6.12323e-17
vn -2.93844e-23 -1 -6.12323e-17
vn 9.1598e-22 -1 -6.12328e-17
vn -5.16897e-22 -1 -6.12319e-17

# Mesh 'defaultobject' with 58 faces
g defaultobject
usemtl DefaultMaterial
f  1//1 2//1 3//1
f  2//2 1//2 4//2
f  4//3 1//3 5//3
f  4//4 5//4 6//4
f  5//5 1//5 7//5
f  7//6 1//6 8//6
f  9//7 1//7 3//7
f  1//8 9//8 10//8
f  1//9 10//9 11//9
f  12//10 13//10 14//10
f  13//11 1//11 11//11
f  1//12 13//12 8//12
f  8//13 13//13 15//13
f  15//14 13//14 12//14
f  8//15 15//15 16//15
f  17//16 4//16 6//16
f  4//17 17//17 2//17
f  2//18 17//18 3//18
f  3//18 17//18 18//19
f  3//20 18//20 19//20
f  19//21 18//21 20//21
f  7//22 21//22 5//22
f  21//22 7//22 22//23
f  19//24 9//24 3//24
f  9//25 19//25 10//25
f  10//26 19//26 23//26
f  23//27 19//27 24//27
f  25//28 14//28 13//28
f  14//28 25//28 26//29
f  10//30 13//30 11//30
f  13//31 10//31 25//31
f  25//31 10//31 23//31
f  25//32 23//32 27//32
f  14//33 28//33 12//33
f  28//33 14//33 26//34
f  15//35 29//35 16//35
f  29//35 15//35 30//36
f  12//37 30//37 15//37
f  30//37 12//37 28//37
f  16//38 7//38 8//38
f  7//38 16//38 29//39
f  7//38 29//39 22//39
f  22//40 29//40 31//40
f  21//41 6//41 5//41
f  6//41 21//41 17//41
f  26//42 30//42 28//42
f  30//42 31//43 29//43
f  31//43 30//42 26//42
f  31//43 26//42 25//44
f  31//43 25//44 27//45
f  31//43 27//45 22//46
f  22//46 27//45 21//47
f  21//47 27//45 23//27
f  21//47 23//27 24//27
f  21//47 24//27 17//48
f  17//48 24//27 18//49
f  18//49 24//27 20//50
f  20//50 24//27 19//27

