# {"id":"_12797","idOriginal":"_12797","origin":[14.285336340778688,48.299086509902416],"elevation":263.023,"wof":[{"Id":102049853,"Name":"Linz","Placetype":"county","Offset":-1},{"Id":85681677,"Name":"Oberösterreich","Placetype":"region","Offset":-1},{"Id":85632785,"Name":"Austria","Placetype":"country","Offset":-1},{"Id":101748071,"Name":"Linz","Placetype":"locality","Offset":-1},{"Id":85898459,"Name":"Wegscheid","Placetype":"neighbourhood","Offset":-1}]}

# Attribution: City of Linz <http://geo.data.linz.gv.at/katalog/geodata/3d_geo_daten_lod2/>
# Longitude: 14.285336340778688
# Latitude: 48.299086509902416
# Elevation: 263.023

# File produced by Open Asset Import Library (http://www.assimp.sf.net)
# (assimp v3.1.0)


# 30 vertex positions
v  14.83 17.333 0.209
v  14.601 17.448 0.265
v  16.864 17.313 10.297
v  17.087 17.31 11.401
v  7.195 20.869 -1.25
v  9.985 20.869 12.878
v  14.066 17.426 -2.679
v  0 17.287 1.05852e-15
v  0.445 17.487 0.153
v  0.419 17.502 -0.134
v  2.578 17.336 12.538
v  2.429 17.261 12.573
v  1.588 16.838 12.77
v  1.961 16.849 14.546
v  2.785 17.261 14.375
v  14.066 1.64041e-16 -2.679
v  0.445 -9.36855e-18 0.153
v  7.195 7.65404e-17 -1.25
v  0.419 8.20513e-18 -0.134
v  0 0 0
v  2.578 -7.67731e-16 12.538
v  1.588 -7.81937e-16 12.77
v  2.429 -7.69874e-16 12.573
v  14.601 -1.62266e-17 0.265
v  14.83 -1.27976e-17 0.209
v  17.087 -6.9811e-16 11.401
v  16.864 -6.30509e-16 10.297
v  1.961 -8.90686e-16 14.546
v  2.785 -8.80215e-16 14.375
v  9.985 -7.8855e-16 12.878

# 0 UV coordinates

# 47 vertex normals
vn 0.430469 0.898593 -0.085012
vn 0.432142 0.897758 -0.0853396
vn 0.431479 0.898136 -0.0847147
vn 0.432159 0.897744 -0.0854048
vn 0.432137 0.89777 -0.085239
vn -0.432897 0.89732 0.0861195
vn -0.432737 0.89746 0.0854698
vn -0.432088 0.897786 0.0853288
vn -0.432133 0.89776 0.0853695
vn -0.432133 0.897857 0.0843487
vn -0.432136 0.897954 0.0832917
vn -0.432087 0.8978 0.0851871
vn 0.028782 0.333517 0.942305
vn -0.20356 0.000120897 -0.979062
vn -0.203561 0 -0.979062
vn -0.203561 -0 -0.979062
vn 0 -1 -6.1234e-17
vn -0.304611 0 -0.952477
vn -0.304611 5.83224e-17 -0.952477
vn -0.228674 0 -0.973503
vn -0.228074 5.45987e-06 -0.973644
vn -0.228163 -0 -0.973623
vn 6.07011e-20 -1 -6.09742e-17
vn -0.237542 0 -0.971377
vn -0.237542 0 -0.971377
vn 0.995922 0 -0.0902228
vn 0.980203 0 -0.197994
vn 0.980273 2.29203e-05 -0.197648
vn 0.980266 0 -0.197682
vn 0 -1 -6.12698e-17
vn 0.983886 0 -0.178797
vn 0.983886 0 -0.178797
vn -0.979509 0 0.201402
vn -0.979509 0 0.201402
vn -0.978649 0 0.205538
vn -0.978649 0 0.205538
vn 0.203588 -5.17783e-05 0.979057
vn 0.203591 -0.000826473 0.979056
vn 0.203567 0 0.979061
vn 0.203566 0 0.979061
vn -3.21493e-20 1 6.10837e-17
vn 9.77309e-21 1 6.12577e-17
vn 6.51456e-23 -1 -6.12323e-17
vn 9.71965e-24 -1 -6.12323e-17
vn 1.0065e-23 -1 -6.12323e-17
vn -2.55255e-24 -1 -6.12323e-17
vn 0 -1 -6.12323e-17

# Mesh 'defaultobject' with 56 faces
g defaultobject
usemtl DefaultMaterial
f  1//1 2//1 3//1
f  4//2 5//2 6//2
f  5//3 4//3 3//3
f  5//4 3//4 2//4
f  5//5 2//5 7//5
f  8//6 9//6 10//6
f  9//7 8//7 11//7
f  9//8 6//8 5//8
f  6//9 9//9 11//9
f  6//10 11//10 12//10
f  6//11 12//11 13//11
f  6//12 13//12 14//12
f  6//13 14//13 15//13
f  7//14 9//14 5//14
f  9//15 7//15 16//15
f  9//15 16//15 17//16
f  17//17 16//17 18//17
f  19//18 8//18 10//18
f  8//18 19//18 20//19
f  21//20 12//20 11//20
f  12//21 21//21 13//21
f  13//22 21//22 22//22
f  22//23 21//23 23//23
f  1//24 24//24 2//24
f  24//24 1//24 25//25
f  9//26 19//26 10//26
f  19//26 9//26 17//26
f  26//27 3//27 4//27
f  3//28 26//28 1//28
f  1//29 26//29 25//29
f  25//30 26//30 27//30
f  24//31 7//31 2//31
f  7//31 24//31 16//32
f  8//33 21//33 11//33
f  21//33 8//33 20//34
f  13//35 28//35 14//35
f  28//35 13//35 22//36
f  15//37 4//37 6//37
f  4//38 15//38 14//38
f  4//39 14//39 28//39
f  4//39 28//39 26//40
f  26//41 28//41 29//41
f  26//41 29//41 30//42
f  28//43 21//23 29//43
f  21//23 28//43 23//23
f  23//23 28//43 22//23
f  30//44 27//30 26//30
f  27//30 30//44 25//30
f  25//30 30//44 24//45
f  24//45 30//44 16//17
f  16//17 30//44 18//17
f  18//17 30//44 29//43
f  18//17 29//43 21//23
f  18//17 21//23 17//17
f  17//17 21//23 20//46
f  17//17 20//46 19//47

