# {"id":"ID_8459","idOriginal":"ID_8459","origin":[14.285812795441082,48.319959856501704],"elevation":261.459,"wof":[{"Id":102049853,"Name":"Linz","Placetype":"county","Offset":-1},{"Id":101748071,"Name":"Linz","Placetype":"locality","Offset":-1},{"Id":85898453,"Name":"Urfahr","Placetype":"neighbourhood","Offset":-1},{"Id":85632785,"Name":"Austria","Placetype":"country","Offset":-1},{"Id":85681677,"Name":"Oberösterreich","Placetype":"region","Offset":-1}]}

# Attribution: City of Linz <http://geo.data.linz.gv.at/katalog/geodata/3d_geo_daten_lod2/>
# Longitude: 14.285812795441082
# Latitude: 48.319959856501704
# Elevation: 261.459

# File produced by Open Asset Import Library (http://www.assimp.sf.net)
# (assimp v3.1.0)


# 30 vertex positions
v  18.765 16.237 10.84
v  0 10.864 6.65228e-16
v  14.608 10.865 14.802
v  2.807 16.601 -5.886
v  17.915 16.282 9.91
v  18.155 16.601 9.668
v  8.703 10.892 -8.599
v  11.577 11.501 -4.76
v  12.036 10.865 -5.263
v  21.626 11.996 6.178
v  21.976 11.532 5.826
v  8.195 11.514 -8.167
v  5.341 11.518 -11.054
v  5.053 12.011 -10.595
v  5.275 11.557 -11.061
v  5.275 6.77291e-16 -11.061
v  0 0 0
v  2.807 3.60414e-16 -5.886
v  5.053 6.48757e-16 -10.595
v  8.195 5.00085e-16 -8.167
v  8.703 5.26537e-16 -8.599
v  14.608 -9.06361e-16 14.802
v  18.765 -6.63759e-16 10.84
v  17.915 -6.06812e-16 9.91
v  21.976 -3.5674e-16 5.826
v  18.155 -5.91994e-16 9.668
v  21.626 -3.78293e-16 6.178
v  11.577 2.91466e-16 -4.76
v  12.036 3.22266e-16 -5.263
v  5.341 6.76862e-16 -11.054

# 0 UV coordinates

# 48 vertex normals
vn -0.486297 0.73023 0.479874
vn -0.48629 0.730248 0.479853
vn -0.485472 0.73129 0.479096
vn -0.486421 0.730079 0.479979
vn 0.48617 0.730349 -0.479822
vn 0.486087 0.730524 -0.47964
vn 0.486327 0.730229 -0.479846
vn 0.486278 0.730267 -0.479838
vn 0.486265 0.730228 -0.47991
vn 0.486184 0.730335 -0.47983
vn 0.486349 0.730258 -0.479778
vn 0.482584 0.731035 -0.482389
vn 0.483063 0.730967 -0.482014
vn -0.902602 -2.99822e-05 -0.430475
vn -0.902622 0.000440017 -0.430434
vn -0.902611 0 -0.430456
vn -0.902611 2.63578e-17 -0.430456
vn -9.95716e-19 1 6.12365e-17
vn 0 -1 -6.12463e-17
vn -0.647822 0 -0.761791
vn -0.647822 0 -0.761791
vn -0.711756 0 0.702427
vn -0.711756 0 0.702427
vn 0.689925 0 0.723881
vn 0.689925 0 0.723881
vn 0.709534 0.000758401 0.70467
vn 0.709099 0 0.705109
vn 0.709112 -8.2485e-06 0.705095
vn 0.709101 0 0.705107
vn 0 -1 -6.12088e-17
vn -1.60106e-19 1 6.10691e-17
vn 0.738676 -0 0.674061
vn 0.738142 0 -0.674645
vn 0.738142 0 -0.674645
vn 0.71338 0 -0.700778
vn 0.71338 0 -0.700778
vn 0.707425 0 -0.706789
vn 0.707425 0 -0.706789
vn 0.71116 0 -0.703031
vn 0.71116 0 -0.703031
vn 0.105469 0 -0.994423
vn -3.37781e-23 -1 -6.12323e-17
vn -3.83844e-24 -1 -6.12323e-17
vn -2.91006e-23 -1 -6.12323e-17
vn -1.75808e-24 -1 -6.12323e-17
vn 1.83205e-19 -1 -6.11905e-17
vn 1.46369e-23 -1 -6.12323e-17
vn -3.87221e-22 -1 -6.12326e-17

# Mesh 'defaultobject' with 56 faces
g defaultobject
usemtl DefaultMaterial
f  1//1 2//1 3//1
f  2//2 1//2 4//2
f  4//3 1//3 5//3
f  4//4 5//4 6//4
f  7//5 8//5 9//5
f  8//6 10//6 11//6
f  10//7 8//7 6//7
f  6//8 8//8 4//8
f  4//9 8//9 12//9
f  12//10 8//10 7//10
f  4//11 12//11 13//11
f  4//12 13//12 14//12
f  14//13 13//13 15//13
f  14//14 2//14 4//14
f  2//15 14//15 15//15
f  2//16 15//16 16//16
f  2//16 16//16 17//17
f  17//18 16//18 18//18
f  18//19 16//19 19//19
f  7//20 20//20 12//20
f  20//20 7//20 21//21
f  2//22 22//22 3//22
f  22//22 2//22 17//23
f  3//24 23//24 1//24
f  23//24 3//24 22//25
f  5//26 10//26 6//26
f  10//27 5//27 24//27
f  10//28 24//28 11//28
f  11//29 24//27 25//29
f  25//30 24//30 26//30
f  25//31 26//31 27//31
f  28//32 9//32 8//32
f  9//32 28//32 29//32
f  1//33 24//33 5//33
f  24//33 1//33 23//34
f  25//35 8//35 11//35
f  8//35 25//35 28//36
f  9//37 21//37 7//37
f  21//37 9//37 29//38
f  12//39 30//39 13//39
f  30//39 12//39 20//40
f  13//41 16//41 15//41
f  16//41 13//41 30//41
f  29//42 20//42 21//42
f  20//42 29//42 17//43
f  17//43 29//42 28//44
f  17//43 28//44 22//45
f  22//45 28//44 24//30
f  24//30 28//44 26//30
f  26//30 28//44 25//30
f  26//30 25//30 27//46
f  22//45 24//30 23//47
f  30//48 19//19 16//19
f  19//19 30//48 20//42
f  19//19 20//42 18//19
f  18//19 20//42 17//43

