# {"id":"_46055","idOriginal":"_46055","origin":[14.269610402488482,48.30844331888803],"elevation":316.265}
# Longitude: 14.269610402488482
# Latitude: 48.30844331888803
# Elevation: 316.265

# File produced by Open Asset Import Library (http://www.assimp.sf.net)
# (assimp v3.1.0)

mtllib _46055.obj.mtl

# 8 vertex positions
v  0 11.944 7.31359e-16
v  3.811 0.607 -4.999
v  0.259 0.415 -5.19
v  3.668 11.944 0.108
v  0 0 0
v  0.259 3.17796e-16 -5.19
v  3.668 -6.61309e-18 0.108
v  3.811 3.061e-16 -4.999

# 0 UV coordinates

# 11 vertex normals
vn 0.0267956 0.410846 -0.911311
vn 0.0268322 0.410856 -0.911305
vn -0.998757 0 -0.0498416
vn -0.998757 0 -0.0498416
vn -0.0294311 -6.12058e-17 0.999567
vn -0.0294311 0 0.999567
vn 0.999608 -0 0.0279898
vn 0.0536949 0 -0.998557
vn 0.0536949 0 -0.998557
vn -1.43201e-24 -1 -6.12323e-17
vn 0 -1 -6.12323e-17

# Mesh 'defaultobject' with 12 faces
g defaultobject
usemtl DefaultMaterial
f  1//1 2//1 3//1
f  2//2 1//2 4//2
f  3//3 5//3 1//3
f  5//3 3//3 6//4
f  5//5 4//5 1//5
f  4//5 5//5 7//6
f  7//7 2//7 4//7
f  2//7 7//7 8//7
f  8//8 3//8 2//8
f  3//8 8//8 6//9
f  8//10 5//10 6//10
f  5//10 8//10 7//11

