# {"id":"_3095","idOriginal":"_3095","origin":[14.315151508109539,48.30682000797691],"elevation":254.767}
# Longitude: 14.315151508109539
# Latitude: 48.30682000797691
# Elevation: 254.767

# File produced by Open Asset Import Library (http://www.assimp.sf.net)
# (assimp v3.1.0)

mtllib _3095.obj.mtl

# 16 vertex positions
v  0 4.266 2.61217e-16
v  28.059 4.266 15.516
v  18.991 4.266 -7.52
v  3.437 4.266 8.929
v  4.724 4.266 12.405
v  5.125 4.266 13.419
v  7.212 4.266 18.694
v  8.95 4.266 23.085
v  8.95 -1.41355e-15 23.085
v  28.059 -9.50081e-16 15.516
v  18.991 4.60467e-16 -7.52
v  0 0 0
v  3.437 -5.46744e-16 8.929
v  4.724 -7.59587e-16 12.405
v  5.125 -8.21677e-16 13.419
v  7.212 -1.14468e-15 18.694

# 0 UV coordinates

# 19 vertex normals
vn -0 1 0
vn 0.36826 -0 0.929723
vn 0.930502 0 -0.366287
vn -0.368164 0 -0.929761
vn -0.368164 5.69314e-17 -0.929761
vn -0.933249 -2.19966e-17 0.359231
vn -0.933249 0 0.359231
vn -0.937785 0 0.347218
vn -0.929924 0 0.367751
vn -0.929868 -3.89444e-05 0.367893
vn -0.929924 0.000202556 0.367751
vn -0.929868 0 0.367893
vn -0.929814 0 0.368029
vn 0 -1 -6.12323e-17
vn 0 -1 -6.12323e-17
vn 2.71281e-24 -1 -6.12323e-17
vn -2.24222e-22 -1 -6.12324e-17
vn -6.39529e-20 -1 -6.12136e-17
vn -1.6137e-19 -1 -6.11591e-17

# Mesh 'defaultobject' with 28 faces
g defaultobject
usemtl DefaultMaterial
f  1//1 2//1 3//1
f  2//1 1//1 4//1
f  2//1 4//1 5//1
f  2//1 5//1 6//1
f  2//1 6//1 7//1
f  2//1 7//1 8//1
f  9//2 2//2 8//2
f  2//2 9//2 10//2
f  10//3 3//3 2//3
f  3//3 10//3 11//3
f  11//4 1//4 3//4
f  1//4 11//4 12//5
f  12//6 4//6 1//6
f  4//6 12//6 13//7
f  4//8 13//8 5//8
f  5//8 13//8 14//8
f  5//9 14//9 6//9
f  6//10 14//10 7//10
f  7//11 14//11 15//11
f  7//12 15//12 16//12
f  7//13 16//13 8//13
f  8//13 16//13 9//13
f  10//14 12//14 11//14
f  12//14 10//14 13//15
f  13//15 10//14 9//16
f  13//15 9//16 14//17
f  14//17 9//16 15//18
f  15//18 9//16 16//19

