# File produced by Open Asset Import Library (http://www.assimp.sf.net)
# (assimp v3.1.0)

mtllib ID_11922.obj.mtl

# 40 vertex positions
v  3.519 15.745 -3.828
v  0 10.633 6.51083e-16
v  18.399 15.745 11.029
v  1.855 10.636 1.847
v  13.079 10.655 13.026
v  14.23 10.657 14.173
v  14.735 10.653 14.682
v  21.982 10.643 7.279
v  21.755 11.082 7.683
v  22.071 10.643 7.368
v  20.023 13.489 9.41
v  20.445 10.64 5.74
v  20.197 10.64 5.492
v  19.04 10.64 4.337
v  15.286 10.641 0.59
v  14.038 10.641 -0.655
v  14.018 10.641 -0.675
v  6.703 11.12 -7.291
v  7.031 10.643 -7.648
v  0 0 0
v  1.855 -1.13096e-16 1.847
v  13.079 -7.97612e-16 13.026
v  14.735 -8.99013e-16 14.682
v  14.23 -8.67846e-16 14.173
v  21.755 -4.70448e-16 7.683
v  22.071 -4.5116e-16 7.368
v  18.399 -6.75331e-16 11.029
v  20.023 -5.76196e-16 9.41
v  15.273 10.641 0.577
v  21.982 -4.4571e-16 7.279
v  20.445 -3.51474e-16 5.74
v  20.197 -3.36288e-16 5.492
v  19.04 -2.65565e-16 4.337
v  15.286 -3.61271e-17 0.59
v  7.031 4.68305e-16 -7.648
v  14.038 4.01072e-17 -0.655
v  15.273 -3.53311e-17 0.577
v  14.018 4.13318e-17 -0.675
v  6.703 4.46445e-16 -7.291
v  3.519 2.34397e-16 -3.828

# 0 UV coordinates

# 68 vertex normals
vn -0.49556 0.712797 0.496327
vn -0.495675 0.712482 0.496665
vn -0.495595 0.712737 0.496378
vn -0.49571 0.712785 0.496195
vn -0.495141 0.712724 0.49685
vn 0.49593 0.712822 -0.495922
vn 0.496349 0.712749 -0.495607
vn 0.49276 0.712847 -0.499036
vn 0.495551 0.712809 -0.496318
vn 0.49554 0.71284 -0.496286
vn 0.495226 0.713797 -0.495222
vn 0.495573 0.712716 -0.496431
vn 0.495533 0.712857 -0.496269
vn 0.49556 0.712499 -0.496754
vn 0.495589 0.713284 -0.495598
vn 0.495571 0.712792 -0.496323
vn 0.495749 0.712517 -0.49654
vn -0.705577 -4.33913e-17 0.708633
vn -0.705685 3.74927e-05 0.708526
vn -0.705577 -0.000225941 0.708633
vn -0.705685 0 0.708526
vn -0.705875 0 0.708336
vn -0.709887 0.000866016 0.704315
vn -0.707107 0 0.707107
vn 1.79848e-20 -1 -6.12503e-17
vn 0.706029 1.95235e-05 0.708183
vn 0.706035 0 0.708177
vn 0.706067 -2.51303e-05 0.708145
vn 0.706014 4.12906e-05 0.708198
vn 0.706047 -3.63605e-06 0.708165
vn 0.705985 0 0.708226
vn -7.50151e-19 1 6.03871e-17
vn 1.46467e-19 1 6.14187e-17
vn 0.707112 0 -0.707101
vn 0.707566 7.59169e-06 -0.706647
vn 0.707107 -0.000132763 -0.707106
vn 0.706495 -0.000348514 -0.707718
vn 0.706446 -0.00037616 -0.707766
vn 0.707092 0.000446496 -0.707121
vn 0.706246 -0.000632854 -0.707966
vn 0.707099 0.000653375 -0.707114
vn 0.706397 -0.000408289 -0.707816
vn 0.707106 0.0016061 -0.707106
vn 0.707563 0.00288509 -0.706644
vn 0.707106 0.00172913 -0.707106
vn 0.706495 0.000215734 -0.707718
vn 0.706447 0.00010677 -0.707766
vn 0.706378 0 -0.707835
vn 0 -1 -6.12352e-17
vn -1.72932e-19 1 6.13908e-17
vn 0 1 6.00121e-17
vn -0.736167 -4.27496e-05 -0.6768
vn -0.736179 0.000306849 -0.676787
vn -0.736178 0 -0.676787
vn -0.736382 -0.000295266 -0.676566
vn -0.736168 4.1442e-17 -0.676798
vn 0 1 6.1227e-17
vn -2.94587e-23 -1 -6.12324e-17
vn 6.47898e-23 -1 -6.12324e-17
vn 4.70353e-24 -1 -6.12323e-17
vn -4.01295e-23 -1 -6.12323e-17
vn -2.18268e-23 -1 -6.12323e-17
vn 3.12486e-24 -1 -6.12323e-17
vn 0 -1 -6.12323e-17
vn -1.02886e-23 -1 -6.12325e-17
vn 1.54902e-23 -1 -6.12323e-17
vn 1.67196e-22 -1 -6.12322e-17
vn 0 -1 -6.12323e-17

# Mesh 'defaultobject' with 75 faces
g defaultobject
usemtl DefaultMaterial
f  1//1 2//1 3//1
f  4//2 3//2 2//2
f  5//3 3//3 4//3
f  6//4 3//4 5//4
f  7//5 3//5 6//5
f  8//6 9//6 10//6
f  9//7 8//7 11//7
f  11//8 8//8 3//8
f  3//9 8//9 1//9
f  1//10 8//10 12//10
f  1//11 12//11 13//11
f  1//12 13//12 14//12
f  1//13 14//13 15//13
f  1//14 15//14 16//14
f  1//15 16//15 17//15
f  1//16 17//16 18//16
f  18//17 17//17 19//17
f  20//18 4//18 2//18
f  4//19 20//19 5//19
f  5//20 20//20 21//20
f  5//21 21//21 22//21
f  5//22 22//22 6//22
f  6//23 22//23 7//23
f  7//24 22//24 23//24
f  23//25 22//25 24//25
f  7//26 11//26 3//26
f  11//27 7//27 23//27
f  11//28 23//28 9//28
f  9//29 23//29 10//29
f  10//30 23//30 25//30
f  10//31 25//31 26//31
f  25//32 23//32 27//32
f  25//32 27//32 28//33
f  26//34 8//34 10//34
f  8//35 26//35 12//35
f  12//36 26//36 13//36
f  13//37 26//37 14//37
f  14//38 26//38 15//38
f  15//39 26//39 29//39
f  29//40 26//40 16//40
f  16//41 26//41 17//41
f  17//42 26//42 19//42
f  19//43 26//43 30//43
f  19//44 30//44 31//44
f  19//45 31//45 32//45
f  19//46 32//46 33//46
f  19//47 33//47 34//47
f  19//48 34//48 35//48
f  35//49 34//49 36//49
f  36//50 34//50 37//50
f  35//51 36//50 38//51
f  18//52 2//52 1//52
f  2//53 18//53 19//53
f  2//54 19//54 35//54
f  2//55 35//55 39//55
f  2//56 39//56 20//56
f  20//57 39//57 40//57
f  25//58 30//58 26//58
f  30//58 25//58 31//59
f  31//59 25//58 28//60
f  31//59 28//60 27//61
f  31//59 27//61 32//62
f  32//62 27//61 23//25
f  32//62 23//25 33//63
f  33//63 23//25 34//49
f  34//49 23//25 24//25
f  34//49 24//25 22//25
f  34//49 22//25 21//64
f  34//49 21//64 37//65
f  37//65 21//64 36//49
f  36//49 21//64 38//66
f  38//66 21//64 35//49
f  35//49 21//64 39//67
f  39//67 21//64 40//64
f  40//64 21//64 20//68

