# File produced by Open Asset Import Library (http://www.assimp.sf.net)
# (assimp v3.1.0)

mtllib ID_29675.obj.mtl

# 22 vertex positions
v  3.828 9.507 -3.779
v  7.956 7.61 -7.253
v  7.657 7.609 -7.559
v  7.245 7.962 -6.55
v  9.727 7.968 -4.009
v  12.441 7.61 -2.699
v  10.438 7.615 -4.712
v  8.607 9.507 1.072
v  0 7.61 4.65978e-16
v  4.614 7.61 4.682
v  4.773 7.61 4.844
v  4.773 -2.96609e-16 4.844
v  12.441 1.65266e-16 -2.699
v  8.607 -6.56411e-17 1.072
v  7.245 4.01072e-16 -6.55
v  7.956 4.44118e-16 -7.253
v  10.438 2.88527e-16 -4.712
v  9.727 2.4548e-16 -4.009
v  7.657 4.62855e-16 -7.559
v  0 0 0
v  3.828 2.31397e-16 -3.779
v  4.614 -2.8669e-16 4.682

# 0 UV coordinates

# 33 vertex normals
vn 0.23639 0.943045 -0.234064
vn 0.241813 0.943224 -0.227718
vn 0.236916 0.943018 -0.233642
vn 0.237156 0.942959 -0.233636
vn 0.23696 0.943119 -0.233186
vn 0.236979 0.943047 -0.233461
vn -0.236926 0.943073 0.23341
vn -0.236932 0.943051 0.23349
vn -0.237387 0.94306 0.232991
vn 0.701319 -0 0.712847
vn 0.701241 6.24649e-05 0.712925
vn 0.701272 0 0.712894
vn 2.7645e-20 -1 -6.1206e-17
vn 0.703095 -0 0.711096
vn 0.703095 0 0.711096
vn 0.708865 0 -0.705344
vn 0.708865 0 -0.705344
vn 0.715363 0 -0.698753
vn 0.715363 0 -0.698753
vn 0.715241 0 -0.698878
vn -0.703095 0 -0.711096
vn -0.702539 0 -0.711646
vn -0.702538 7.92842e-07 -0.711647
vn -0.702538 4.35758e-17 -0.711646
vn 2.22045e-18 -1 -6.21725e-17
vn -0.713684 0 0.700468
vn -0.71226 6.05497e-05 0.701916
vn -0.713683 -0.00175346 0.700467
vn -0.71226 0 0.701916
vn -9.32247e-24 -1 -6.12323e-17
vn 8.33687e-23 -1 -6.12322e-17
vn 0 -1 -6.12325e-17
vn -7.48754e-25 -1 -6.12323e-17

# Mesh 'defaultobject' with 40 faces
g defaultobject
usemtl DefaultMaterial
f  1//1 2//1 3//1
f  2//2 1//2 4//2
f  4//3 1//3 5//3
f  5//4 6//4 7//4
f  6//5 5//5 1//5
f  6//6 1//6 8//6
f  9//7 8//7 1//7
f  8//8 9//8 10//8
f  8//9 10//9 11//9
f  12//10 8//10 11//10
f  8//11 12//11 6//11
f  6//12 12//12 13//12
f  13//13 12//13 14//13
f  15//14 2//14 4//14
f  2//14 15//14 16//15
f  6//16 17//16 7//16
f  17//16 6//16 13//17
f  18//18 4//18 5//18
f  4//18 18//18 15//19
f  16//20 3//20 2//20
f  3//20 16//20 19//20
f  7//21 18//21 5//21
f  18//21 7//21 17//21
f  19//22 1//22 3//22
f  1//22 19//22 9//23
f  9//23 19//22 20//24
f  20//25 19//25 21//25
f  10//26 12//26 11//26
f  12//27 10//27 9//27
f  12//28 9//28 22//28
f  22//29 9//29 20//29
f  13//13 18//30 17//30
f  16//31 21//25 19//25
f  21//25 16//31 15//32
f  21//25 15//32 18//30
f  21//25 18//30 20//25
f  20//25 18//30 13//13
f  20//25 13//13 14//13
f  20//25 14//13 22//33
f  22//33 14//13 12//13

