# File produced by Open Asset Import Library (http://www.assimp.sf.net)
# (assimp v3.1.0)

mtllib ID_31006.obj.mtl

# 16 vertex positions
v  0.508 3.369 0.811
v  0.604 3.369 0.731
v  0 3.369 2.06292e-16
v  0.115 3.369 -0.099
v  10.757 3.369 3.782
v  5.221 3.369 -4.461
v  0.963 3.369 1.164
v  6.261 3.369 7.549
v  0 0 0
v  0.508 -4.96594e-17 0.811
v  0.604 -4.47608e-17 0.731
v  6.261 -4.62243e-16 7.549
v  0.963 -7.12744e-17 1.164
v  10.757 -2.31581e-16 3.782
v  5.221 2.73157e-16 -4.461
v  0.115 6.062e-18 -0.099

# 0 UV coordinates

# 17 vertex normals
vn 0 1 0
vn -0.84747 -3.25048e-17 0.530844
vn -0.84747 0 0.530844
vn -0.769822 0 0.638259
vn -0.769573 -6.50807e-05 0.638559
vn -0.769589 0 0.63854
vn 0 1 6.13299e-17
vn 0.640184 -0 0.768221
vn 0.642228 -0 0.766514
vn 0.830155 0 -0.557532
vn -0.652418 0 -0.757859
vn -0.64954 -0.000170787 -0.760328
vn -0.652399 0.00755811 -0.757838
vn -0.64954 0 -0.760328
vn 0 -1 -6.12323e-17
vn 0 -1 -6.12323e-17
vn -2.73859e-20 -1 -6.12074e-17

# Mesh 'defaultobject' with 28 faces
g defaultobject
usemtl DefaultMaterial
f  1//1 2//1 3//1
f  4//1 5//1 6//1
f  5//1 4//1 3//1
f  5//1 3//1 2//1
f  5//1 2//1 7//1
f  5//1 7//1 8//1
f  9//2 1//2 3//2
f  1//2 9//2 10//3
f  11//4 7//4 2//4
f  7//5 11//5 8//5
f  8//6 11//6 12//6
f  12//7 11//7 13//7
f  10//8 2//8 1//8
f  2//8 10//8 11//8
f  12//9 5//9 8//9
f  5//9 12//9 14//9
f  14//10 6//10 5//10
f  6//10 14//10 15//10
f  4//11 9//11 3//11
f  9//12 4//12 6//12
f  9//13 6//13 16//13
f  16//14 6//14 15//14
f  9//15 11//15 10//15
f  13//16 14//16 12//16
f  14//16 13//16 15//16
f  15//16 13//16 11//15
f  15//16 11//15 9//15
f  15//16 9//15 16//17

