# File produced by Open Asset Import Library (http://www.assimp.sf.net)
# (assimp v3.1.0)

mtllib ID_45249.obj.mtl

# 11 vertex positions
v  1.747 2.606 2.376
v  0.109 1.988 4.804
v  4.244 1.985 4.776
v  0.055 2.603 2.402
v  4.092 1.985 -0.1
v  0 1.988 1.2173e-16
v  0 0 0
v  0.055 -1.4708e-16 2.402
v  0.109 -2.9416e-16 4.804
v  4.244 -2.92446e-16 4.776
v  4.092 6.12323e-18 -0.1

# 0 UV coordinates

# 15 vertex normals
vn 0.0023833 0.968712 0.248175
vn 0.00209306 0.96876 0.247991
vn 0.24834 0.968642 -0.00774154
vn -0.00535126 0.968736 -0.248035
vn -0.00552723 0.968767 -0.247913
vn -0.999738 -1.40171e-18 0.0228916
vn -0.999738 0 0.0228916
vn -0.999747 0 0.0224756
vn -0.999747 0 0.0224756
vn 0.00677128 -0 0.999977
vn 0.00677128 0 0.999977
vn 0.999514 0 -0.0311579
vn -0.0244306 0 -0.999701
vn 0 -1 -6.12323e-17
vn 0 -1 -6.12323e-17

# Mesh 'defaultobject' with 18 faces
g defaultobject
usemtl DefaultMaterial
f  1//1 2//1 3//1
f  2//2 1//2 4//2
f  1//3 3//3 5//3
f  6//4 1//4 5//4
f  1//5 6//5 4//5
f  7//6 4//6 6//6
f  4//6 7//6 8//7
f  4//8 8//8 2//8
f  2//8 8//8 9//9
f  9//10 3//10 2//10
f  3//10 9//10 10//11
f  10//12 5//12 3//12
f  5//12 10//12 11//12
f  5//13 7//13 6//13
f  7//13 5//13 11//13
f  8//14 10//14 9//14
f  10//14 8//14 7//15
f  10//14 7//15 11//14

