# File produced by Open Asset Import Library (http://www.assimp.sf.net)
# (assimp v3.1.0)

mtllib ID_7098.obj.mtl

# 20 vertex positions
v  13.692 12.454 -1.07
v  15.218 12.255 7.763
v  14.535 12.255 -1.136
v  7.275 13.968 -0.569
v  8.784 13.968 19.085
v  15.401 12.255 10.143
v  16.046 12.255 18.542
v  15.287 12.434 18.599
v  1.538 12.259 19.627
v  0 12.252 7.50219e-16
v  14.535 6.95599e-17 -1.136
v  13.692 6.55186e-17 -1.07
v  0 0 0
v  7.275 3.48412e-17 -0.569
v  1.538 -1.20181e-15 19.627
v  8.784 -1.16862e-15 19.085
v  15.287 -1.13886e-15 18.599
v  16.046 -1.13537e-15 18.542
v  15.401 -6.2108e-16 10.143
v  15.218 -4.75347e-16 7.763

# 0 UV coordinates

# 36 vertex normals
vn 0.228412 0.973407 -0.0175307
vn 0.228301 0.973433 -0.0175108
vn 0.22832 0.973428 -0.01753
vn 0.228282 0.973437 -0.0175527
vn 0.228307 0.973431 -0.0175328
vn 0.2374 0.960577 0.144684
vn -0.228241 0.973447 0.0175381
vn -0.228279 0.973438 0.0175268
vn -0.078053 0 -0.996949
vn -0.0778335 1.49487e-05 -0.996966
vn -0.0779626 -5.25663e-05 -0.996956
vn -0.078053 -0.000160541 -0.996949
vn -0.0779103 6.10462e-17 -0.99696
vn 5.09202e-22 1 6.12346e-17
vn -0.996944 0 0.0781219
vn -0.996944 0 0.0781219
vn 0.0745917 -0 0.997214
vn 0.074534 3.01283e-05 0.997218
vn 0.0745917 -3.40943e-05 0.997214
vn 0.0748474 -0.000168544 0.997195
vn 0.0745269 2.24213e-05 0.997219
vn 0.0748869 0 0.997192
vn 0.997064 0 -0.0765693
vn 0.997057 -6.54708e-05 -0.0766643
vn 0.997068 5.76156e-05 -0.0765252
vn 0.997064 -1.36909e-05 -0.0765694
vn 0.997057 -0.000101633 -0.0766643
vn 0.997068 0 -0.0765252
vn 6.19263e-24 -1 -6.12323e-17
vn 0 -1 -6.12323e-17
vn 0 -1 -6.12323e-17
vn -1.21947e-23 -1 -6.12323e-17
vn -1.47698e-24 -1 -6.12323e-17
vn 0 -1 -6.12323e-17
vn 0 -1 -6.12323e-17
vn -5.09239e-22 -1 -6.12431e-17

# Mesh 'defaultobject' with 36 faces
g defaultobject
usemtl DefaultMaterial
f  1//1 2//1 3//1
f  2//2 1//2 4//2
f  2//3 4//3 5//3
f  2//4 5//4 6//4
f  6//5 5//5 7//5
f  7//6 5//6 8//6
f  9//7 4//7 10//7
f  4//8 9//8 5//8
f  11//9 1//9 3//9
f  1//10 11//10 4//10
f  4//11 11//11 10//11
f  10//12 11//12 12//12
f  10//13 12//13 13//13
f  13//14 12//14 14//14
f  10//15 15//15 9//15
f  15//15 10//15 13//16
f  15//17 5//17 9//17
f  5//18 15//18 8//18
f  8//19 15//19 16//19
f  8//20 16//20 7//20
f  7//21 16//21 17//21
f  7//22 17//22 18//22
f  18//23 6//23 7//23
f  6//24 18//24 2//24
f  2//25 18//25 3//25
f  3//26 18//26 19//26
f  3//27 19//27 20//27
f  3//28 20//28 11//28
f  17//29 19//29 18//29
f  19//29 17//29 16//30
f  19//29 16//30 15//31
f  19//29 15//31 20//32
f  20//32 15//31 13//33
f  20//32 13//33 12//34
f  20//32 12//34 11//35
f  12//34 13//33 14//36

