# {"id":"ID_31727","idOriginal":"ID_31727","origin":[14.373725927365454,48.24219572922888],"elevation":252.815}
# Longitude: 14.373725927365454
# Latitude: 48.24219572922888
# Elevation: 252.815

# File produced by Open Asset Import Library (http://www.assimp.sf.net)
# (assimp v3.1.0)

mtllib ID_31727.obj.mtl

# 12 vertex positions
v  4.541 2.226 -0.275
v  3.055 2.907 12.794
v  5.325 2.226 12.657
v  2.271 2.907 -0.138
v  0 2.226 1.36303e-16
v  0.784 2.226 12.932
v  0.784 -7.91857e-16 12.932
v  3.055 -7.83407e-16 12.794
v  5.325 -7.75018e-16 12.657
v  4.541 1.68389e-17 -0.275
v  2.271 8.45006e-18 -0.138
v  0 0 0

# 0 UV coordinates

# 19 vertex normals
vn 0.286343 0.95797 -0.0173595
vn 0.286343 0.95797 -0.0173595
vn -0.286221 0.958007 0.0173521
vn -0.286221 0.958007 0.0173521
vn 0.0606545 -0 0.998159
vn 0.060321 0.000261491 0.998179
vn 0.0606545 -0.00042134 0.998159
vn 0.0602429 0 0.998184
vn 0.998167 0 -0.0605137
vn -0.0602428 0 -0.998184
vn -0.0605762 -0.00026131 -0.998163
vn -0.0602428 0.000421348 -0.998184
vn -0.0606543 6.11196e-17 -0.998159
vn -0.998167 -3.7054e-18 0.0605137
vn -0.998167 0 0.0605137
vn -1.48237e-23 -1 -6.12323e-17
vn 0 -1 -6.12323e-17
vn 0 -1 -6.12323e-17
vn 0 -1 -6.12337e-17

# Mesh 'defaultobject' with 20 faces
g defaultobject
usemtl DefaultMaterial
f  1//1 2//1 3//1
f  2//1 1//1 4//2
f  5//3 2//3 4//3
f  2//3 5//3 6//4
f  7//5 2//5 6//5
f  2//6 7//6 3//6
f  3//7 7//7 8//7
f  3//8 8//8 9//8
f  9//9 1//9 3//9
f  1//9 9//9 10//9
f  10//10 4//10 1//10
f  4//11 10//11 5//11
f  5//12 10//12 11//12
f  5//13 11//13 12//13
f  12//14 6//14 5//14
f  6//14 12//14 7//15
f  8//16 10//16 9//16
f  10//16 8//16 7//17
f  10//16 7//17 12//18
f  10//16 12//18 11//19

