# {"id":"ID_8039","idOriginal":"ID_8039","origin":[14.30435229573175,48.318355635863384],"elevation":253.42,"wof":[{"Id":85632785,"Name":"Austria","Placetype":"country","Offset":-1},{"Id":102049853,"Name":"Linz","Placetype":"county","Offset":-1},{"Id":101748071,"Name":"Linz","Placetype":"locality","Offset":-1},{"Id":85681677,"Name":"Oberösterreich","Placetype":"region","Offset":-1},{"Id":85898449,"Name":"Steeg","Placetype":"neighbourhood","Offset":-1}]}

# Attribution: City of Linz <http://geo.data.linz.gv.at/katalog/geodata/3d_geo_daten_lod2/>
# Longitude: 14.30435229573175
# Latitude: 48.318355635863384
# Elevation: 253.42

# File produced by Open Asset Import Library (http://www.assimp.sf.net)
# (assimp v3.1.0)


# 164 vertex positions
v  10.48 19.174 -6.108
v  11.185 19.174 -4.477
v  12.828 18.709 -7.133
v  11.407 19.13 -4.572
v  11.492 19.114 -4.598
v  11.58 19.098 -4.608
v  11.668 19.084 -4.602
v  11.754 19.071 -4.581
v  11.852 19.058 -4.535
v  11.939 19.049 -4.468
v  12.008 19.043 -4.385
v  12.058 19.042 -4.288
v  13.049 19.043 -1.977
v  15.209 18.615 -2.923
v  13.576 18.641 -6.34
v  14.643 18.456 -6.446
v  14.75 18.456 -6.199
v  16.016 18.456 -3.277
v  12.008 2.68504e-16 -4.385
v  12.058 2.62564e-16 -4.288
v  13.049 1.21056e-16 -1.977
v  10.48 3.74007e-16 -6.108
v  11.185 2.74137e-16 -4.477
v  11.754 2.80505e-16 -4.581
v  11.852 2.77689e-16 -4.535
v  11.939 2.73586e-16 -4.468
v  16.016 2.00658e-16 -3.277
v  15.209 1.78982e-16 -2.923
v  11.407 2.79954e-16 -4.572
v  14.643 3.94704e-16 -6.446
v  14.75 3.79579e-16 -6.199
v  12.828 4.3677e-16 -7.133
v  13.576 3.88213e-16 -6.34
v  11.492 2.81546e-16 -4.598
v  11.58 2.82159e-16 -4.608
v  11.668 2.81791e-16 -4.602
v  23.691 18.615 14.442
v  20.375 18.615 16.011
v  20.286 18.615 16.079
v  20.448 18.615 15.927
v  20.464 18.615 15.879
v  20.545 18.615 15.625
v  20.536 18.615 15.521
v  16.016 18.615 -3.277
v  20.507 18.615 15.421
v  13.049 18.615 -1.977
v  27.845 18.615 24.745
v  28.098 18.615 24.615
v  19.811 18.615 29.906
v  19.693 18.615 29.64
v  19.52 18.615 29.405
v  19.3 18.615 29.213
v  19.045 18.615 29.073
v  18.78 18.615 28.994
v  18.505 18.615 28.97
v  18.231 18.615 29.003
v  17.969 18.615 29.091
v  13.866 18.615 19.625
v  20.185 18.615 16.127
v  20.11 18.615 16.16
v  15.375 18.615 18.255
v  15.284 18.615 18.296
v  15.191 18.615 18.334
v  15.093 18.615 18.355
v  14.993 18.615 18.356
v  14.894 18.615 18.338
v  14.769 18.615 18.284
v  14.661 18.615 18.201
v  11.699 18.615 14.776
v  14.579 18.615 18.092
v  14.527 18.615 17.966
v  8.78 18.615 4.666
v  7.623 18.615 5.178
v  27.232 18.615 26.276
v  25.047 18.615 27.576
v  27.332 18.615 26.559
v  27.194 18.615 25.978
v  20.349 18.615 29.667
v  27.218 18.615 25.679
v  27.305 18.615 25.391
v  27.441 18.615 25.141
v  27.623 18.615 24.923
v  20.052 18.615 29.799
v  23.691 -8.84317e-16 14.442
v  28.098 -1.50723e-15 24.615
v  14.894 -1.12288e-15 18.338
v  14.769 -1.11957e-15 18.284
v  14.661 -1.11449e-15 18.201
v  14.579 -1.10782e-15 18.092
v  8.78 -2.8571e-16 4.666
v  20.448 -9.75247e-16 15.927
v  20.375 -9.80391e-16 16.011
v  20.286 -9.84555e-16 16.079
v  20.185 -9.87494e-16 16.127
v  15.375 -1.1178e-15 18.255
v  15.284 -1.12031e-15 18.296
v  20.11 -9.89515e-16 16.16
v  15.191 -1.12263e-15 18.334
v  7.623 -3.17061e-16 5.178
v  20.507 -9.44264e-16 15.421
v  11.699 -9.04769e-16 14.776
v  17.969 -1.78131e-15 29.091
v  13.866 -1.20168e-15 19.625
v  19.045 -1.78021e-15 29.073
v  19.3 -1.78878e-15 29.213
v  19.52 -1.80054e-15 29.405
v  19.693 -1.81493e-15 29.64
v  19.811 -1.83121e-15 29.906
v  20.536 -9.50387e-16 15.521
v  20.545 -9.56755e-16 15.625
v  20.464 -9.72308e-16 15.879
v  15.093 -1.12392e-15 18.355
v  14.993 -1.12398e-15 18.356
v  14.527 -1.1001e-15 17.966
v  27.332 -1.62627e-15 26.559
v  27.232 -1.60894e-15 26.276
v  27.194 -1.59069e-15 25.978
v  27.218 -1.57239e-15 25.679
v  27.305 -1.55475e-15 25.391
v  18.231 -1.77592e-15 29.003
v  18.505 -1.7739e-15 28.97
v  18.78 -1.77537e-15 28.994
v  20.052 -1.82466e-15 29.799
v  25.047 -1.68854e-15 27.576
v  20.349 -1.81658e-15 29.667
v  27.441 -1.53944e-15 25.141
v  27.623 -1.52609e-15 24.923
v  27.845 -1.51519e-15 24.745
v  5.672 7.279 -4.008
v  11.185 7.279 -4.477
v  10.48 7.279 -6.108
v  6.365 7.279 -2.417
v  5.672 2.45419e-16 -4.008
v  6.365 1.47999e-16 -2.417
v  1.236 7.736 3.009
v  0.743 9.403 -0.808
v  0 7.844 4.80306e-16
v  6.238 16.197 0.849
v  0.693 9.958 -1.818
v  4.034 15.63 -3.293
v  5.224 16.122 -1.356
v  5.218 16.24 -1.56
v  5.672 18.405 -4.008
v  5.213 16.17 -1.458
v  5.238 16.331 -1.66
v  5.342 16.613 -1.876
v  5.435 16.81 -1.98
v  5.546 17.019 -2.063
v  5.672 17.235 -2.121
v  6.365 18.405 -2.417
v  5.546 1.26322e-16 -2.063
v  5.435 1.2124e-16 -1.98
v  5.672 1.29874e-16 -2.121
v  6.238 -5.19863e-17 0.849
v  1.236 -1.84248e-16 3.009
v  5.342 1.14872e-16 -1.876
v  5.238 1.01646e-16 -1.66
v  5.224 8.30311e-17 -1.356
v  0.693 1.1132e-16 -1.818
v  4.034 2.01638e-16 -3.293
v  0.743 4.94757e-17 -0.808
v  0 0 0
v  5.213 8.92767e-17 -1.458
v  5.218 9.55225e-17 -1.56

# 0 UV coordinates

# 217 vertex normals
vn 0.163925 0.983925 -0.0708569
vn 0.16495 0.9838 -0.0702014
vn 0.163474 0.983986 -0.0710506
vn 0.171134 0.982977 -0.0668525
vn 0.161482 0.984259 -0.0718207
vn 0.165745 0.983696 -0.0697834
vn 0.163692 0.983976 -0.0706871
vn 0.158032 0.984738 -0.0729158
vn 0.168703 0.983237 -0.0691646
vn 0.159502 0.984563 -0.0720715
vn 0.164037 0.983912 -0.0707678
vn 0.16397 0.983924 -0.0707656
vn 0.165174 0.983673 -0.0714525
vn 0.163587 0.983993 -0.0706913
vn 0.162965 0.984103 -0.0705963
vn 0.162929 0.984109 -0.0705917
vn -0.888865 0 0.45817
vn -0.888865 0 0.45817
vn -0.919063 0 0.394111
vn -0.919063 0 0.394111
vn -0.917918 0 0.396771
vn -0.424905 0 0.905238
vn -0.424905 0 0.905238
vn -0.610151 0 0.792285
vn -0.610151 0 0.792285
vn -0.768978 0 0.639275
vn -0.768978 0 0.639275
vn 0.401175 -0 0.916002
vn 0.401699 -7.25421e-05 0.915772
vn 0.401321 0 0.915938
vn -1.63092e-20 1 6.11922e-17
vn 0.39342 -0 0.919359
vn 0.39342 0 0.919359
vn 0.917578 0 -0.397555
vn 0.9176 9.54419e-06 -0.397504
vn 0.91758 0 -0.397551
vn -1.32501e-18 -1 -6.06717e-17
vn 0.727445 0 -0.686166
vn 0.727445 0 -0.686166
vn -0.0988573 0 -0.995102
vn -0.0988573 0 -0.995102
vn -0.400082 0 -0.91648
vn -0.400082 0 -0.91648
vn 0.292504 -0 0.956264
vn 0.112907 -0 0.993606
vn 0.112907 0 0.993606
vn -0.0680188 0 0.997684
vn -0.237222 0 0.971456
vn -0.237222 0 0.971456
vn -5.81471e-24 -1 -6.12324e-17
vn -8.04654e-24 -1 -6.12324e-17
vn 1.77469e-22 -1 -6.12321e-17
vn 1.71804e-22 -1 -6.12321e-17
vn -1.20995e-22 -1 -6.12325e-17
vn -7.04447e-23 -1 -6.12324e-17
vn 7.63743e-24 -1 -6.12323e-17
vn 8.23322e-23 -1 -6.12323e-17
vn -1.12297e-22 -1 -6.12324e-17
vn -7.49034e-23 -1 -6.12324e-17
vn 1.39053e-22 -1 -6.12322e-17
vn 4.77653e-24 -1 -6.12323e-17
vn 1.63108e-20 -1 -6.12091e-17
vn 0 1 0
vn 0.917617 0 -0.397466
vn 0.917598 4.77632e-05 -0.397509
vn 0.917617 -2.74228e-05 -0.397466
vn 0.917598 0 -0.397509
vn 0.39657 0 -0.918004
vn 0.609357 0 -0.792896
vn 0.799123 0 -0.601167
vn 0.917966 0 -0.396658
vn -0.401711 0 -0.915766
vn -0.401175 2.77291e-05 -0.916001
vn -0.401321 -0 -0.915938
vn -0.754798 0 -0.655958
vn -0.60712 0 -0.79461
vn -0.429242 0 -0.903189
vn -0.402734 0 -0.915317
vn -0.404615 -9.04807e-06 -0.914487
vn -0.410785 -0.00191863 -0.91173
vn -0.404585 3.64085e-05 -0.9145
vn -0.410786 -0 -0.911732
vn -4.55507e-19 1 6.01877e-17
vn -0.378245 0 -0.925706
vn -0.404671 0 -0.914462
vn -0.919112 0 0.393996
vn -0.92044 0 0.390885
vn -0.912979 0 0.408007
vn -0.917513 0.00321463 0.397692
vn -0.915988 0 0.401205
vn 0 -1 -6.1232e-17
vn -0.481258 0 0.876579
vn -0.657535 0 0.753424
vn -0.805312 0 0.592851
vn -0.914095 0 0.4055
vn -0.960431 0 0.278518
vn -0.996276 0 0.0862236
vn -0.952729 0 -0.303821
vn -0.94868 0.000187063 -0.316239
vn -0.952094 -0 -0.305805
vn -1.09743e-19 -1 -6.12675e-17
vn -0.209529 0 -0.977802
vn -0.010013 0 -0.99995
vn 0.1789 0 -0.983867
vn 0.924373 0 -0.381489
vn 0.918027 -0.000119447 -0.396517
vn -2.60493e-20 1 6.1242e-17
vn 0.942867 0 -0.333169
vn 0.991967 0 -0.126493
vn 0.996794 -0 0.0800108
vn 0.957276 -0 0.289177
vn 0.318395 -0 0.947958
vn 0.119578 -0 0.992825
vn -0.0869424 0 0.996213
vn -0.285691 0 0.958322
vn 0.405789 -0 0.913967
vn 0.406137 -5.4031e-06 0.913812
vn 0.406626 -2.2299e-05 0.913595
vn 0.406621 -2.06986e-05 0.913597
vn 0.406578 0 0.913616
vn -2.25885e-19 1 6.07065e-17
vn 1.12916e-18 1 6.36703e-17
vn 1.48267e-19 1 6.15604e-17
vn 0.878433 -0 0.477866
vn 0.767646 -0 0.640875
vn 0.625551 -0 0.780184
vn 0.457033 -0 0.88945
vn 1.94538e-22 -1 -6.1232e-17
vn -3.07008e-22 -1 -6.12329e-17
vn 2.41192e-22 -1 -6.12322e-17
vn 1.43792e-22 -1 -6.12322e-17
vn -6.18821e-23 -1 -6.12325e-17
vn 2.64783e-21 -1 -6.12298e-17
vn -9.02182e-22 -1 -6.1232e-17
vn 0 -1 -6.12323e-17
vn -4.15142e-22 -1 -6.12325e-17
vn 5.11547e-22 -1 -6.12322e-17
vn 0 -1 -6.12324e-17
vn -1.18673e-21 -1 -6.12327e-17
vn 2.06961e-22 -1 -6.12322e-17
vn 1.93328e-22 -1 -6.12322e-17
vn 0 -1 -6.12324e-17
vn 0 -1 -6.12323e-17
vn -4.44695e-22 -1 -6.12326e-17
vn -1.6918e-22 -1 -6.12326e-17
vn 7.70826e-22 -1 -6.12304e-17
vn -5.34538e-21 -1 -6.12421e-17
vn 1.29552e-20 -1 -6.1209e-17
vn 9.55128e-23 -1 -6.12321e-17
vn -3.28962e-21 -1 -6.12359e-17
vn -7.03027e-22 -1 -6.12331e-17
vn 1.74123e-21 -1 -6.12306e-17
vn -1.1846e-21 -1 -6.12334e-17
vn 6.66082e-22 -1 -6.12318e-17
vn -1.07036e-22 -1 -6.12324e-17
vn -6.98172e-22 -1 -6.12328e-17
vn -1.61057e-20 -1 -6.12184e-17
vn 1.03372e-21 -1 -6.12333e-17
vn -2.19672e-23 -1 -6.12323e-17
vn 2.00653e-24 -1 -6.12323e-17
vn 4.9488e-24 -1 -6.12323e-17
vn 1.81914e-20 -1 -6.12369e-17
vn -0.916804 0 0.399337
vn 0.392998 -0 0.919539
vn 0.917918 0 -0.396771
vn -0.400259 0 -0.916402
vn -4.36497e-24 -1 -6.12323e-17
vn -0.770678 0.54144 0.336003
vn -0.770708 0.541404 0.335992
vn -0.770754 0.541508 0.335718
vn -0.77073 0.541364 0.336006
vn -0.770772 0.541283 0.336039
vn -0.770683 0.54147 0.335945
vn -0.770013 0.543048 0.334932
vn -0.771648 0.5394 0.337055
vn -0.838252 0.476181 0.265677
vn -0.770744 0.541463 0.335814
vn -0.771112 0.541142 0.335487
vn -0.769642 0.542475 0.336708
vn -0.771959 0.540252 0.334973
vn -0.770774 0.541472 0.33573
vn 0.598845 0 0.800865
vn 0.418144 0 0.908381
vn 0.418144 0 0.908381
vn 0.392798 0 0.919625
vn 0.396443 0 0.918059
vn 0.396443 0 0.918059
vn 0.745429 0 0.666585
vn 0.745429 0 0.666585
vn 0.901001 0 0.433816
vn 0.901001 0 0.433816
vn 0.916804 0 -0.399337
vn 0.908537 0 -0.417804
vn 0.908537 0 -0.417804
vn -0.400055 0 -0.916491
vn -0.4033 -0.000405168 -0.915068
vn -0.402622 -0 -0.915367
vn -4.85942e-22 1 6.12326e-17
vn -0.736094 0 -0.676879
vn -0.736094 4.14469e-17 -0.676879
vn -0.998777 0 0.0494444
vn -0.998777 0 0.0494444
vn -0.925002 -2.32659e-17 0.379961
vn -0.925002 0 0.379961
vn 0.994235 0 -0.107223
vn 0.998801 0 0.0489619
vn 0.980581 0 0.196116
vn -1.32253e-22 -1 -6.12324e-17
vn 6.39079e-23 -1 -6.12324e-17
vn -6.0414e-21 -1 -6.12335e-17
vn 6.59773e-23 -1 -6.12323e-17
vn -4.54063e-23 -1 -6.12324e-17
vn -4.02644e-23 -1 -6.12323e-17
vn 7.13201e-23 -1 -6.12323e-17
vn 0 -1 -6.12323e-17
vn 2.62629e-24 -1 -6.12323e-17
vn 0 -1 -6.12324e-17

# Mesh 'defaultobject' with 328 faces
g defaultobject
usemtl DefaultMaterial
f  1//1 2//1 3//1
f  4//2 3//2 2//2
f  5//3 3//3 4//3
f  6//4 3//4 5//4
f  7//5 3//5 6//5
f  8//6 3//6 7//6
f  9//7 3//7 8//7
f  10//8 3//8 9//8
f  11//9 3//9 10//9
f  12//10 3//10 11//10
f  13//11 3//11 12//11
f  14//12 3//12 13//12
f  15//13 3//13 14//13
f  16//14 15//14 14//14
f  17//15 16//15 14//15
f  18//16 17//16 14//16
f  19//17 12//17 11//17
f  12//17 19//17 20//18
f  12//19 21//19 13//19
f  21//19 12//19 20//20
f  22//21 2//21 1//21
f  2//21 22//21 23//21
f  24//22 9//22 8//22
f  9//22 24//22 25//23
f  25//24 10//24 9//24
f  10//24 25//24 26//25
f  26//26 11//26 10//26
f  11//26 26//26 19//27
f  21//28 14//28 13//28
f  14//29 21//29 18//29
f  18//30 21//30 27//30
f  27//31 21//31 28//31
f  23//32 4//32 2//32
f  4//32 23//32 29//33
f  27//34 17//34 18//34
f  17//35 27//35 16//35
f  16//36 27//34 30//36
f  30//37 27//37 31//37
f  15//38 32//38 3//38
f  32//38 15//38 33//39
f  16//40 33//40 15//40
f  33//40 16//40 30//41
f  3//42 22//42 1//42
f  22//42 3//42 32//43
f  29//44 5//44 4//44
f  5//44 29//44 34//44
f  34//45 6//45 5//45
f  6//45 34//45 35//46
f  35//47 7//47 6//47
f  7//47 35//47 36//47
f  36//48 8//48 7//48
f  8//48 36//48 24//49
f  32//50 23//50 22//50
f  23//50 32//50 33//51
f  23//50 33//51 29//52
f  29//52 33//51 34//53
f  34//53 33//51 35//54
f  35//54 33//51 36//55
f  36//55 33//51 24//56
f  24//56 33//51 25//57
f  25//57 33//51 26//58
f  26//58 33//51 19//59
f  19//59 33//51 20//60
f  20//60 33//51 21//61
f  21//61 33//51 30//37
f  21//61 30//37 31//37
f  21//61 31//37 27//37
f  21//61 27//37 28//62
f  37//63 38//63 39//63
f  38//63 37//63 40//63
f  40//63 37//63 41//63
f  41//63 37//63 42//63
f  42//63 37//63 43//63
f  43//63 37//63 44//63
f  43//63 44//63 45//63
f  45//63 44//63 14//63
f  45//63 14//63 46//63
f  37//63 47//63 48//63
f  47//63 37//63 49//63
f  49//63 37//63 50//63
f  50//63 37//63 51//63
f  51//63 37//63 52//63
f  52//63 37//63 53//63
f  53//63 37//63 54//63
f  54//63 37//63 55//63
f  55//63 37//63 56//63
f  56//63 37//63 57//63
f  57//63 37//63 58//63
f  58//63 37//63 39//63
f  58//63 39//63 59//63
f  58//63 59//63 60//63
f  58//63 60//63 61//63
f  58//63 61//63 62//63
f  58//63 62//63 63//63
f  58//63 63//63 64//63
f  58//63 64//63 65//63
f  58//63 65//63 66//63
f  58//63 66//63 67//63
f  58//63 67//63 68//63
f  58//63 68//63 69//63
f  69//63 68//63 70//63
f  69//63 70//63 71//63
f  69//63 71//63 72//63
f  69//63 72//63 73//63
f  74//63 75//63 76//63
f  75//63 74//63 77//63
f  75//63 77//63 78//63
f  78//63 77//63 79//63
f  78//63 79//63 80//63
f  78//63 80//63 81//63
f  78//63 81//63 82//63
f  78//63 82//63 83//63
f  83//63 82//63 49//63
f  49//63 82//63 47//63
f  37//64 27//64 44//64
f  27//65 37//65 48//65
f  27//66 48//66 84//66
f  84//67 48//67 85//67
f  86//68 67//68 66//68
f  67//68 86//68 87//68
f  87//69 68//69 67//69
f  68//69 87//69 88//69
f  88//70 70//70 68//70
f  70//70 88//70 89//70
f  90//71 72//71 71//71
f  27//72 14//72 44//72
f  14//73 27//73 46//73
f  46//74 27//74 21//74
f  21//61 27//37 28//62
f  91//75 38//75 40//75
f  38//75 91//75 92//75
f  92//76 39//76 38//76
f  39//76 92//76 93//76
f  93//77 59//77 39//77
f  59//77 93//77 94//77
f  94//78 60//78 59//78
f  60//79 94//79 61//79
f  61//80 94//80 62//80
f  62//81 94//81 95//81
f  62//82 95//82 96//82
f  95//83 94//83 97//83
f  98//84 62//84 96//84
f  90//85 73//85 72//85
f  73//85 90//85 99//85
f  21//86 45//86 46//86
f  45//86 21//86 100//86
f  99//87 69//87 73//87
f  69//87 99//87 101//87
f  101//88 58//88 69//88
f  58//89 101//89 57//89
f  57//90 101//90 102//90
f  102//91 101//91 103//91
f  104//92 52//92 53//92
f  52//92 104//92 105//92
f  105//93 51//93 52//93
f  51//93 105//93 106//93
f  106//94 50//94 51//94
f  50//94 106//94 107//94
f  107//95 49//95 50//95
f  49//95 107//95 108//95
f  100//96 43//96 45//96
f  43//96 100//96 109//96
f  109//97 42//97 43//97
f  42//97 109//97 110//97
f  110//98 41//98 42//98
f  41//99 110//99 40//99
f  40//100 110//100 91//100
f  91//101 110//101 111//101
f  98//84 63//84 62//84
f  98//102 64//102 63//102
f  64//102 98//102 112//102
f  112//103 65//103 64//103
f  65//103 112//103 113//103
f  113//104 66//104 65//104
f  66//104 113//104 86//104
f  89//105 71//105 70//105
f  71//106 89//106 90//106
f  90//107 89//107 114//107
f  115//108 74//108 76//108
f  74//108 115//108 116//108
f  116//109 77//109 74//109
f  77//109 116//109 117//109
f  117//110 79//110 77//110
f  79//110 117//110 118//110
f  118//111 80//111 79//111
f  80//111 118//111 119//111
f  102//112 56//112 57//112
f  56//112 102//112 120//112
f  120//113 55//113 56//113
f  55//113 120//113 121//113
f  121//114 54//114 55//114
f  54//114 121//114 122//114
f  122//115 53//115 54//115
f  53//115 122//115 104//115
f  108//116 83//116 49//116
f  83//117 108//117 78//117
f  78//118 108//118 75//118
f  75//118 108//118 76//119
f  76//120 108//120 115//120
f  115//121 108//121 123//121
f  115//121 123//121 124//122
f  124//122 123//121 125//123
f  119//124 81//124 80//124
f  81//124 119//124 126//124
f  126//125 82//125 81//125
f  82//125 126//125 127//125
f  127//126 47//126 82//126
f  47//126 127//126 128//126
f  128//127 48//127 47//127
f  48//127 128//127 85//127
f  124//128 116//128 115//128
f  116//128 124//128 117//129
f  117//129 124//128 118//130
f  118//130 124//128 119//131
f  119//131 124//128 126//132
f  126//132 124//128 127//133
f  128//134 84//134 85//134
f  84//134 128//134 127//133
f  84//134 127//133 124//128
f  84//134 124//128 125//135
f  84//134 125//135 123//136
f  84//134 123//136 108//137
f  84//134 108//137 107//138
f  84//134 107//138 106//139
f  84//134 106//139 105//140
f  84//134 105//140 104//141
f  84//134 104//141 122//142
f  84//134 122//142 121//143
f  84//134 121//143 120//144
f  84//134 120//144 102//91
f  84//134 102//91 103//91
f  84//134 103//91 93//145
f  84//134 93//145 92//146
f  93//145 103//91 94//147
f  94//147 103//91 97//148
f  97//148 103//91 95//149
f  95//149 103//91 96//150
f  96//150 103//91 98//151
f  98//151 103//91 112//152
f  112//152 103//91 113//153
f  113//153 103//91 86//154
f  86//154 103//91 87//155
f  87//155 103//91 88//156
f  88//156 103//91 101//91
f  88//156 101//91 89//157
f  89//157 101//91 114//158
f  114//158 101//91 90//159
f  90//159 101//91 99//160
f  84//134 109//161 27//37
f  109//161 84//134 110//101
f  110//101 84//134 111//101
f  111//101 84//134 91//101
f  91//101 84//134 92//146
f  27//37 109//161 100//162
f  27//37 100//162 28//62
f  28//62 100//162 21//61
f  129//63 130//63 131//63
f  130//63 129//63 132//63
f  133//163 132//163 129//163
f  132//163 133//163 134//163
f  134//164 130//164 132//164
f  130//164 134//164 23//164
f  23//165 131//165 130//165
f  131//165 23//165 22//165
f  22//166 129//166 131//166
f  129//166 22//166 133//166
f  133//167 23//50 134//167
f  23//50 133//167 22//50
f  135//168 136//168 137//168
f  136//169 135//169 138//169
f  136//170 138//170 139//170
f  139//171 138//171 140//171
f  140//172 138//172 141//172
f  140//173 142//173 143//173
f  142//174 140//174 144//174
f  144//175 140//175 141//175
f  143//176 142//176 145//176
f  143//177 145//177 146//177
f  143//178 146//178 147//178
f  143//179 147//179 148//179
f  143//180 148//180 149//180
f  143//181 149//181 150//181
f  147//182 151//182 148//182
f  151//182 147//182 152//182
f  148//183 153//183 149//183
f  153//183 148//183 151//184
f  149//185 134//185 150//185
f  134//185 149//185 153//185
f  135//186 154//186 138//186
f  154//186 135//186 155//187
f  146//188 152//188 147//188
f  152//188 146//188 156//189
f  145//190 156//190 146//190
f  156//190 145//190 157//191
f  134//192 143//192 150//192
f  143//192 134//192 133//192
f  154//193 141//193 138//193
f  141//193 154//193 158//194
f  133//195 140//195 143//195
f  140//196 133//196 139//196
f  139//197 133//197 159//197
f  159//198 133//198 160//198
f  161//199 137//199 136//199
f  137//199 161//199 162//200
f  159//201 136//201 139//201
f  136//201 159//201 161//202
f  162//203 135//203 137//203
f  135//203 162//203 155//204
f  141//205 163//205 144//205
f  163//205 141//205 158//205
f  144//206 164//206 142//206
f  164//206 144//206 163//206
f  142//207 157//207 145//207
f  157//207 142//207 164//207
f  160//208 163//208 158//208
f  163//208 160//208 164//209
f  164//209 160//208 133//167
f  164//209 133//167 157//210
f  157//210 133//167 156//211
f  156//211 133//167 152//212
f  152//212 133//167 151//213
f  151//213 133//167 153//214
f  153//214 133//167 134//167
f  161//215 155//215 162//215
f  155//215 161//215 154//216
f  154//216 161//215 159//217
f  154//216 159//217 160//208
f  154//216 160//208 158//208

