# File produced by Open Asset Import Library (http://www.assimp.sf.net)
# (assimp v3.1.0)

mtllib ID_14563.obj.mtl

# 34 vertex positions
v  12.24 19.568 4.623
v  4.226 16.667 3.032
v  7.538 16.669 8.141
v  4.917 19.568 -6.693
v  2.302 15.717 3.592
v  1.641 16.699 -1.082
v  0 15.726 9.6294e-16
v  0.386 16.692 -2.996
v  0.216 16.691 -3.255
v  0.194 16.691 -3.288
v  2.004 17.794 -4.593
v  2.612 15.716 4.076
v  18.142 15.929 0.208
v  18.162 15.917 0.193
v  18.437 15.747 -0.013
v  11.328 15.662 -11.315
v  10.959 15.887 -11.049
v  0.194 2.01332e-16 -3.288
v  0.216 1.99311e-16 -3.255
v  0.386 1.83452e-16 -2.996
v  1.641 6.62534e-17 -1.082
v  0 0 0
v  2.612 -2.49583e-16 4.076
v  2.302 -2.19947e-16 3.592
v  7.538 -4.98492e-16 8.141
v  4.226 -1.85656e-16 3.032
v  11.328 6.92844e-16 -11.315
v  10.959 6.76556e-16 -11.049
v  2.004 2.8124e-16 -4.593
v  4.917 4.09828e-16 -6.693
v  12.24 -2.83077e-16 4.623
v  18.437 7.9602e-19 -0.013
v  18.162 -1.18178e-17 0.193
v  18.142 -1.27363e-17 0.208

# 0 UV coordinates

# 55 vertex normals
vn -0.37229 0.896282 0.240993
vn -0.372284 0.896305 0.240919
vn -0.372423 0.896254 0.240894
vn -0.372252 0.896308 0.240957
vn -0.372501 0.896201 0.24097
vn -0.372364 0.896283 0.240879
vn -0.372327 0.896285 0.240926
vn -0.368792 0.896407 0.245861
vn 0.496727 0.187379 0.847438
vn -0.372568 0.896305 0.240481
vn 0.372355 0.896263 -0.240965
vn 0.367969 0.900918 -0.230098
vn 0.372679 0.895897 -0.241825
vn 0.372352 0.896268 -0.240951
vn 0.629956 0.129512 0.765755
vn -0.83205 0 0.5547
vn -0.836002 1.70186e-05 0.548727
vn -0.836261 2.69084e-05 0.548332
vn -0.832051 -0.00117895 0.554698
vn -0.836002 -6.4749e-05 0.548727
vn -0.836261 0 0.548332
vn -0.841939 -3.30393e-17 0.539572
vn -0.842082 7.17799e-05 0.53935
vn -0.841956 0 0.539546
vn -2.24411e-19 -1 -6.10806e-17
vn -0.839107 0 0.543966
vn -0.550466 0 -0.834857
vn -0.550466 5.11203e-17 -0.834857
vn -0.584767 0 -0.811201
vn -0.584815 -1.67277e-06 -0.811167
vn -0.584792 9.31158e-06 -0.811183
vn -0.584828 -1.90976e-05 -0.811157
vn -0.584768 4.32094e-05 -0.811201
vn -0.584806 4.95828e-06 -0.811173
vn -0.584836 -0 -0.811152
vn 0 -1 -6.12669e-17
vn 0.543122 0 0.839654
vn 0.543122 0 0.839654
vn 0.599073 -0 0.800694
vn 0.59901 2.35888e-05 0.800741
vn 0.599718 -0.000711428 0.800211
vn 0.599389 -0.000368586 0.800458
vn 0.599073 -2.78039e-05 0.800694
vn 0.599028 0 0.800728
vn 3.92999e-21 1 6.12372e-17
vn -5.44245e-21 1 6.12275e-17
vn 0.846472 0 -0.532434
vn 0.846472 0 -0.532434
vn 0 -1 -6.12323e-17
vn -2.54615e-21 -1 -6.12323e-17
vn 0 -1 -6.12323e-17
vn -2.37002e-23 -1 -6.12323e-17
vn 0 -1 -6.12323e-17
vn 2.24473e-22 -1 -6.12319e-17
vn -2.87485e-23 -1 -6.12324e-17

# Mesh 'defaultobject' with 64 faces
g defaultobject
usemtl DefaultMaterial
f  1//1 2//1 3//1
f  2//2 1//2 4//2
f  2//3 4//3 5//3
f  5//4 4//4 6//4
f  5//5 6//5 7//5
f  6//6 4//6 8//6
f  8//7 4//7 9//7
f  9//8 4//8 10//8
f  10//9 4//9 11//9
f  5//10 12//10 2//10
f  13//11 4//11 1//11
f  4//12 13//12 14//12
f  4//13 14//13 15//13
f  4//14 15//14 16//14
f  4//15 16//15 17//15
f  18//16 9//16 10//16
f  9//17 18//17 8//17
f  8//18 18//18 6//18
f  6//19 18//19 19//19
f  6//20 19//20 20//20
f  6//21 20//21 21//21
f  22//22 5//22 7//22
f  5//23 22//23 12//23
f  12//24 22//24 23//24
f  23//25 22//25 24//25
f  2//26 25//26 3//26
f  25//26 2//26 26//26
f  21//27 7//27 6//27
f  7//27 21//27 22//28
f  27//29 17//29 16//29
f  17//30 27//30 4//30
f  4//31 27//31 11//31
f  11//32 27//32 10//32
f  10//33 27//33 28//33
f  10//34 28//34 29//34
f  10//35 29//35 18//35
f  29//36 28//36 30//36
f  12//37 26//37 2//37
f  26//37 12//37 23//38
f  25//39 1//39 3//39
f  1//40 25//40 13//40
f  13//41 25//41 14//41
f  14//42 25//42 15//42
f  15//43 25//43 31//43
f  15//44 31//44 32//44
f  32//45 31//45 33//45
f  33//45 31//45 34//46
f  32//47 16//47 15//47
f  16//47 32//47 27//48
f  33//49 27//49 32//49
f  27//49 33//49 34//50
f  27//49 34//50 31//51
f  27//49 31//51 25//51
f  27//49 25//51 28//36
f  28//36 25//51 30//36
f  30//36 25//51 26//52
f  30//36 26//52 29//36
f  29//36 26//52 23//25
f  29//36 23//25 24//25
f  29//36 24//25 21//53
f  21//53 24//25 22//25
f  29//36 19//54 18//54
f  19//54 29//36 20//55
f  20//55 29//36 21//53

