# File produced by Open Asset Import Library (http://www.assimp.sf.net)
# (assimp v3.1.0)

mtllib ID_3355.obj.mtl

# 28 vertex positions
v  6.093 19.709 3.08
v  14.029 17.322 -27.726
v  0 17.352 1.0625e-15
v  21.984 19.709 -28.113
v  16.143 17.45 -31.059
v  15.802 17.319 -31.231
v  12.252 17.358 5.99
v  10.117 18.152 5.114
v  12.139 17.36 6.198
v  14.168 17.358 2.229
v  18.244 17.344 -5.682
v  20.191 17.353 -9.559
v  26.177 17.338 -21.214
v  28.057 17.36 -25.049
v  15.802 1.91235e-15 -31.231
v  0 0 0
v  14.029 1.69773e-15 -27.726
v  10.117 -3.13142e-16 5.114
v  6.093 -1.88596e-16 3.08
v  12.139 -3.79518e-16 6.198
v  12.252 -3.66782e-16 5.99
v  14.168 -1.36487e-16 2.229
v  18.244 3.47922e-16 -5.682
v  20.191 5.8532e-16 -9.559
v  26.177 1.29898e-15 -21.214
v  28.057 1.53381e-15 -25.049
v  21.984 1.72142e-15 -28.113
v  16.143 1.90182e-15 -31.059

# 0 UV coordinates

# 46 vertex normals
vn -0.29077 0.945254 -0.148149
vn -0.290837 0.945231 -0.148164
vn -0.290837 0.945231 -0.148166
vn -0.289189 0.945903 -0.147095
vn 0.290508 0.945243 0.148731
vn 0.290842 0.945229 0.148167
vn 0.290758 0.945259 0.148138
vn 0.290818 0.945238 0.148154
vn 0.290776 0.945253 0.148144
vn 0.290571 0.94532 0.148117
vn 0.290783 0.945253 0.148129
vn 0.290918 0.945226 0.148037
vn -0.89233 0 -0.451384
vn -0.89228 2.50305e-05 -0.451482
vn -0.892286 2.76446e-17 -0.451471
vn 5.03503e-19 -1 -6.10497e-17
vn -0.451135 -5.46472e-17 0.892456
vn -0.451115 -7.61061e-06 0.892466
vn -0.451126 0 0.89246
vn -6.99133e-20 1 6.1244e-17
vn -0.472488 0 0.881337
vn 0.878702 -0 0.477371
vn 0.878702 0 0.477371
vn 0.891038 -0 0.453929
vn 0.888946 0.00111531 0.458011
vn 0.893628 -0.00672963 0.448758
vn 0.891037 -0.000910373 0.453929
vn 0.889536 0.00160353 0.456863
vn 0.88894 0.00356744 0.45801
vn 0.893621 -0.00685213 0.44877
vn 0.897854 -0.0141644 0.440066
vn 0.889527 0.00459385 0.45686
vn 0.897912 0 0.440176
vn 0.450445 0 -0.892804
vn 0.450341 -4.00371e-05 -0.892856
vn 0.450362 -2.25024e-05 -0.892846
vn 0.450445 5.12591e-05 -0.892804
vn 0.450331 0 -0.892862
vn -4.56506e-20 -1 -6.12631e-17
vn -1.21853e-23 -1 -6.12323e-17
vn 0 -1 -6.12323e-17
vn 0 -1 -6.12323e-17
vn -1.3751e-23 -1 -6.12323e-17
vn -7.1466e-24 -1 -6.12323e-17
vn -9.38199e-24 -1 -6.12323e-17
vn 7.19897e-24 -1 -6.12324e-17

# Mesh 'defaultobject' with 52 faces
g defaultobject
usemtl DefaultMaterial
f  1//1 2//1 3//1
f  2//2 1//2 4//2
f  2//2 4//2 5//3
f  2//4 5//4 6//4
f  7//5 8//5 9//5
f  8//6 4//6 1//6
f  4//7 8//7 7//7
f  4//8 7//8 10//8
f  4//9 10//9 11//9
f  4//10 11//10 12//10
f  4//11 12//11 13//11
f  4//12 13//12 14//12
f  15//13 2//13 6//13
f  2//14 15//14 3//14
f  3//15 15//15 16//15
f  16//16 15//16 17//16
f  16//17 1//17 3//17
f  1//18 16//18 8//18
f  8//19 16//17 18//19
f  18//20 16//20 19//20
f  18//21 9//21 8//21
f  9//21 18//21 20//21
f  20//22 7//22 9//22
f  7//22 20//22 21//23
f  21//24 10//24 7//24
f  10//25 21//25 11//25
f  11//26 21//26 12//26
f  12//27 21//27 22//27
f  12//28 22//28 13//28
f  13//29 22//29 23//29
f  13//30 23//30 24//30
f  13//31 24//31 14//31
f  14//32 24//32 25//32
f  14//33 25//33 26//33
f  26//34 4//34 14//34
f  4//35 26//35 5//35
f  5//36 26//36 6//36
f  6//37 26//37 27//37
f  6//38 27//38 15//38
f  15//16 27//39 28//39
f  18//40 21//40 20//40
f  21//40 18//40 22//41
f  22//41 18//40 19//42
f  22//41 19//42 16//16
f  22//41 16//16 17//16
f  22//41 17//16 23//43
f  23//43 17//16 24//44
f  24//44 17//16 25//45
f  25//45 17//16 26//46
f  26//46 17//16 27//39
f  27//39 17//16 28//39
f  28//39 17//16 15//16

