# File produced by Open Asset Import Library (http://www.assimp.sf.net)
# (assimp v3.1.0)

mtllib ID_3364.obj.mtl

# 52 vertex positions
v  8.18 5.01 11.562
v  25.37 5.01 3.726
v  23.897 5.01 1.394
v  24.915 5.01 4.067
v  29.46 5.01 11.812
v  29.475 5.01 11.837
v  27.424 5.01 13.129
v  24.027 5.01 15.269
v  14.279 5.01 21.409
v  14.279 -1.31092e-15 21.409
v  24.027 -9.34957e-16 15.269
v  27.424 -8.03919e-16 13.129
v  29.475 -7.24807e-16 11.837
v  24.915 -2.49032e-16 4.067
v  25.37 -2.28152e-16 3.726
v  29.46 -7.23276e-16 11.812
v  23.897 -8.53579e-17 1.394
v  8.18 -7.07968e-16 11.562
v  0.448 5.111 0.664
v  0.46 5.111 -0.307
v  0 5.111 3.12958e-16
v  1.098 5.111 0.272
v  3.837 5.111 -2.557
v  7.877 5.111 11.072
v  4.251 5.111 -2.833
v  5.829 5.111 -3.843
v  8.18 5.111 11.562
v  23.897 5.111 1.394
v  7.771 5.111 -5.086
v  8.459 5.111 -5.526
v  14.179 5.111 -9.188
v  15.78 5.111 -10.213
v  16.046 5.111 -10.383
v  16.256 5.111 -10.517
v  18.245 5.111 -7.455
v  20.44 5.111 -4.077
v  16.256 6.43981e-16 -10.517
v  20.44 2.49644e-16 -4.077
v  18.245 4.56487e-16 -7.455
v  16.046 6.35775e-16 -10.383
v  15.78 6.25366e-16 -10.213
v  14.179 5.62603e-16 -9.188
v  8.459 3.3837e-16 -5.526
v  7.771 3.11428e-16 -5.086
v  5.829 2.35316e-16 -3.843
v  4.251 1.73471e-16 -2.833
v  0 0 0
v  3.837 1.56571e-16 -2.557
v  0.46 1.87983e-17 -0.307
v  0.448 -4.06583e-17 0.664
v  1.098 -1.66552e-17 0.272
v  7.877 -6.77964e-16 11.072

# 0 UV coordinates

# 57 vertex normals
vn 0 1 0
vn 0.532961 -0 0.84614
vn 0.533018 0 0.846104
vn 0.532999 0 0.846116
vn 0.599718 -0 0.800211
vn 0.85747 0 -0.514534
vn 0.862463 5.6942e-05 -0.506119
vn 0.862447 0 -0.506147
vn -1.65458e-19 -1 -6.11367e-17
vn 0.845463 0 -0.534034
vn -0.543183 0 -0.839615
vn -0.85014 0 0.526557
vn -1.21755e-21 -1 -6.12344e-17
vn 0 -1 -6.12323e-17
vn -8.16458e-24 -1 -6.12323e-17
vn 0 -1 -6.12323e-17
vn -1.69314e-23 -1 -6.12323e-17
vn 0.845375 0 -0.534173
vn 0.838415 -0.0160789 -0.544796
vn 0.838502 -0.0157652 -0.54467
vn 0.841695 0 -0.539954
vn 0 1 6.12324e-17
vn 0 -1 -6.12366e-17
vn -0.537912 0 -0.843001
vn -0.538515 -3.48688e-05 -0.842616
vn -0.539188 -0.00012323 -0.842185
vn -0.539179 -0.000117901 -0.842191
vn -0.53791 0.00260663 -0.842998
vn -0.538514 0.00134529 -0.842615
vn -0.539188 -1.47232e-05 -0.842185
vn -0.539179 -0 -0.842191
vn -0.538776 -0 -0.842449
vn -0.539091 -5.97027e-05 -0.842248
vn -0.538776 0.000168562 -0.842449
vn -0.539084 3.5729e-06 -0.842252
vn -0.539091 -2.91331e-06 -0.842248
vn -0.539084 -0 -0.842252
vn -0.5547 0 -0.83205
vn -0.554473 2.66123e-05 -0.832202
vn -0.555117 -0.000664038 -0.831772
vn -0.554565 5.09539e-17 -0.832141
vn 1.27906e-19 -1 -6.1139e-17
vn -3.80526e-21 1 6.12267e-17
vn -0.828964 -3.42473e-17 0.559301
vn -0.828964 0 0.559301
vn -0.846975 0 0.531633
vn -0.850524 0 0.525936
vn 0.516432 -0 0.856328
vn 0.543183 -0 0.839615
vn -3.73465e-24 -1 -6.12323e-17
vn -2.64087e-24 -1 -6.12323e-17
vn -2.45494e-23 -1 -6.12324e-17
vn 7.98706e-24 -1 -6.12324e-17
vn -6.48992e-24 -1 -6.12323e-17
vn 4.40629e-24 -1 -6.12323e-17
vn -6.297e-23 -1 -6.12323e-17
vn 0 -1 -6.12323e-17

# Mesh 'defaultobject' with 100 faces
g defaultobject
usemtl DefaultMaterial
f  1//1 2//1 3//1
f  2//1 1//1 4//1
f  4//1 1//1 5//1
f  5//1 1//1 6//1
f  6//1 1//1 7//1
f  7//1 1//1 8//1
f  8//1 1//1 9//1
f  10//2 8//2 9//2
f  8//2 10//2 11//2
f  8//3 11//3 7//3
f  7//3 11//3 12//3
f  7//4 12//4 6//4
f  6//4 12//4 13//4
f  14//5 2//5 4//5
f  2//5 14//5 15//5
f  13//6 5//6 6//6
f  5//7 13//7 4//7
f  4//8 13//8 14//8
f  14//9 13//9 16//9
f  15//10 3//10 2//10
f  3//10 15//10 17//10
f  17//11 1//11 3//11
f  1//11 17//11 18//11
f  18//12 9//12 1//12
f  9//12 18//12 10//12
f  12//13 16//9 13//9
f  16//9 12//13 14//9
f  14//9 12//13 11//14
f  14//9 11//14 10//15
f  14//9 10//15 17//14
f  17//14 10//15 18//16
f  17//14 15//17 14//9
f  19//1 20//1 21//1
f  20//1 19//1 22//1
f  20//1 22//1 23//1
f  23//1 22//1 24//1
f  23//1 24//1 25//1
f  25//1 24//1 26//1
f  26//1 24//1 27//1
f  26//1 27//1 28//1
f  26//1 28//1 29//1
f  29//1 28//1 30//1
f  30//1 28//1 31//1
f  31//1 28//1 32//1
f  32//1 28//1 33//1
f  33//1 28//1 34//1
f  34//1 28//1 35//1
f  35//1 28//1 36//1
f  17//18 36//18 28//18
f  36//19 17//19 35//19
f  35//20 17//20 34//20
f  34//21 17//21 37//21
f  37//22 17//22 38//22
f  37//23 38//23 39//23
f  37//24 33//24 34//24
f  33//25 37//25 32//25
f  32//26 37//26 31//26
f  31//27 37//27 30//27
f  30//28 37//28 40//28
f  30//29 40//29 41//29
f  30//30 41//30 42//30
f  30//31 42//31 43//31
f  30//32 43//32 29//32
f  29//33 43//33 26//33
f  26//34 43//34 44//34
f  26//35 44//35 25//35
f  25//36 44//36 45//36
f  25//35 45//36 46//37
f  46//38 23//38 25//38
f  23//39 46//39 20//39
f  20//40 46//40 21//40
f  21//41 46//41 47//41
f  47//42 46//42 48//42
f  47//43 48//43 49//43
f  47//44 19//44 21//44
f  19//44 47//44 50//45
f  51//46 24//46 22//46
f  24//46 51//46 52//46
f  24//47 52//47 27//47
f  27//47 52//47 18//47
f  50//48 22//48 19//48
f  22//48 50//48 51//48
f  18//49 28//49 27//49
f  28//49 18//49 17//49
f  49//50 50//50 47//42
f  50//50 49//50 51//51
f  51//51 49//50 48//42
f  52//52 17//14 18//16
f  17//14 52//52 51//51
f  17//14 51//51 48//42
f  17//14 48//42 46//42
f  17//14 46//42 45//53
f  17//14 45//53 44//54
f  17//14 44//54 43//14
f  17//14 43//14 42//55
f  17//14 42//55 41//56
f  17//14 41//56 40//57
f  17//14 40//57 37//23
f  17//14 37//23 39//23
f  17//14 39//23 38//23

