# File produced by Open Asset Import Library (http://www.assimp.sf.net)
# (assimp v3.1.0)

mtllib ID_33184.obj.mtl

# 14 vertex positions
v  4.764 6.216 2.666
v  1.068 4.825 -1.643
v  0 4.806 2.94283e-16
v  4.962 4.806 -8.294
v  9.542 6.166 -5.7
v  6.26 6.216 0.165
v  4.838 6.238 2.707
v  0 0 0
v  4.764 -1.63245e-16 2.666
v  4.838 -1.65756e-16 2.707
v  9.542 3.49024e-16 -5.7
v  6.26 -1.01033e-17 0.165
v  4.962 5.07861e-16 -8.294
v  1.068 1.00605e-16 -1.643

# 0 UV coordinates

# 22 vertex normals
vn -0.214718 0.968202 -0.128376
vn -0.214649 0.96821 -0.128438
vn -0.214753 0.968186 -0.128437
vn -0.214045 0.968397 -0.128033
vn -0.216098 0.967777 -0.129261
vn -0.488347 -5.34344e-17 0.87265
vn -0.483537 -0.00482802 0.875311
vn -0.488347 5.75272e-05 0.87265
vn -0.484641 0 0.874713
vn 0.872728 -0 0.488206
vn 0.872658 6.70628e-05 0.488331
vn 0.872679 0 0.488294
vn 0 -1 -6.12771e-17
vn 0.492821 0 -0.870131
vn 0.492821 0 -0.870131
vn -0.838432 0 -0.545006
vn -0.838432 3.3372e-17 -0.545006
vn -0.862973 0 -0.50525
vn -1.19721e-23 -1 -6.12323e-17
vn -5.09373e-24 -1 -6.12323e-17
vn -2.44188e-24 -1 -6.12323e-17
vn 1.35129e-20 -1 -6.12677e-17

# Mesh 'defaultobject' with 24 faces
g defaultobject
usemtl DefaultMaterial
f  1//1 2//1 3//1
f  2//2 1//2 4//2
f  4//3 1//3 5//3
f  5//4 1//4 6//4
f  6//5 1//5 7//5
f  8//6 1//6 3//6
f  1//7 8//7 7//7
f  7//8 8//8 9//8
f  7//9 9//9 10//9
f  10//10 6//10 7//10
f  6//11 10//11 5//11
f  5//12 10//12 11//12
f  11//13 10//13 12//13
f  11//14 4//14 5//14
f  4//14 11//14 13//15
f  14//16 3//16 2//16
f  3//16 14//16 8//17
f  4//18 14//18 2//18
f  14//18 4//18 13//18
f  12//13 13//19 11//13
f  13//19 12//13 14//20
f  14//20 12//13 10//13
f  14//20 10//13 8//21
f  8//21 10//13 9//22

