# File produced by Open Asset Import Library (http://www.assimp.sf.net)
# (assimp v3.1.0)

mtllib ID_43257.obj.mtl

# 12 vertex positions
v  0.712 7.627 -1.384
v  7.704 7.403 0.411
v  1.48 7.403 -2.875
v  6.915 7.627 1.891
v  0 7.419 4.54283e-16
v  6.093 7.394 3.43
v  1.48 1.76043e-16 -2.875
v  0 0 0
v  0.712 8.47456e-17 -1.384
v  6.093 -2.10027e-16 3.43
v  7.704 -2.51665e-17 0.411
v  6.915 -1.1579e-16 1.891

# 0 UV coordinates

# 19 vertex normals
vn 0.0618102 0.991198 -0.117074
vn 0.0618087 0.991199 -0.117069
vn -0.0618495 0.991187 0.117146
vn -0.0618222 0.991201 0.117045
vn -0.888997 0 -0.457914
vn -0.889221 -0.000108034 -0.457477
vn -0.889108 2.80259e-17 -0.457697
vn 0 1 6.12257e-17
vn -0.490553 -5.33585e-17 0.871411
vn -0.490553 0 0.871411
vn 0.882067 -0 0.471124
vn 0.882425 -0.000173633 0.470454
vn 0.882248 0 0.470785
vn -1.15636e-20 1 6.12294e-17
vn 0.466882 0 -0.88432
vn -2.43403e-24 -1 -6.12323e-17
vn 0 -1 -6.12323e-17
vn 4.39624e-24 -1 -6.12323e-17
vn -1.15636e-20 -1 -6.12351e-17

# Mesh 'defaultobject' with 20 faces
g defaultobject
usemtl DefaultMaterial
f  1//1 2//1 3//1
f  2//1 1//1 4//2
f  5//3 4//3 1//3
f  4//4 5//4 6//4
f  7//5 1//5 3//5
f  1//6 7//6 5//6
f  5//7 7//7 8//7
f  8//8 7//8 9//8
f  8//9 6//9 5//9
f  6//9 8//9 10//10
f  10//11 4//11 6//11
f  4//12 10//12 2//12
f  2//13 10//13 11//13
f  11//14 10//14 12//14
f  11//15 3//15 2//15
f  3//15 11//15 7//15
f  9//16 10//16 8//16
f  10//16 9//16 7//17
f  10//16 7//17 11//18
f  10//16 11//18 12//19

