# File produced by Open Asset Import Library (http://www.assimp.sf.net)
# (assimp v3.1.0)

mtllib ID_43790.obj.mtl

# 14 vertex positions
v  4.449 4.268 2.641
v  0.201 4.268 -0.35
v  0 4.268 2.6134e-16
v  1.182 4.268 -2.264
v  1.953 4.268 -3.767
v  2.027 4.268 -3.724
v  6.59 4.268 -1.058
v  1.953 2.30662e-16 -3.767
v  0.201 2.14313e-17 -0.35
v  1.182 1.3863e-16 -2.264
v  0 0 0
v  4.449 -1.61715e-16 2.641
v  6.59 6.47838e-17 -1.058
v  2.027 2.28029e-16 -3.724

# 0 UV coordinates

# 19 vertex normals
vn 0 1 0
vn -0.889762 0 -0.456425
vn -0.889919 -0.000136268 -0.456118
vn -0.88985 -0 -0.456253
vn -2.11632e-20 1 6.12358e-17
vn -0.867174 0 -0.498006
vn -0.867174 3.0494e-17 -0.498006
vn -0.510454 -5.2654e-17 0.859905
vn -0.510454 0 0.859905
vn 0.86548 -0 0.500944
vn 0.502418 0 -0.864625
vn 0.504471 -4.76507e-05 -0.863429
vn 0.502416 0.00294231 -0.864621
vn 0.504471 0 -0.863429
vn 5.9856e-25 -1 -6.12323e-17
vn 1.58022e-24 -1 -6.12323e-17
vn 5.73734e-25 -1 -6.12323e-17
vn 1.46112e-24 -1 -6.12323e-17
vn 0 -1 -6.12299e-17

# Mesh 'defaultobject' with 24 faces
g defaultobject
usemtl DefaultMaterial
f  1//1 2//1 3//1
f  2//1 1//1 4//1
f  4//1 1//1 5//1
f  5//1 1//1 6//1
f  6//1 1//1 7//1
f  8//2 4//2 5//2
f  4//3 8//3 2//3
f  2//4 8//4 9//4
f  9//5 8//5 10//5
f  9//6 3//6 2//6
f  3//6 9//6 11//7
f  11//8 1//8 3//8
f  1//8 11//8 12//9
f  12//10 7//10 1//10
f  7//10 12//10 13//10
f  6//11 8//11 5//11
f  8//12 6//12 7//12
f  8//13 7//13 14//13
f  14//14 7//14 13//14
f  11//15 13//15 12//15
f  13//15 11//15 9//16
f  13//15 9//16 10//17
f  13//15 10//17 8//18
f  13//15 8//18 14//19

