# File produced by Open Asset Import Library (http://www.assimp.sf.net)
# (assimp v3.1.0)

mtllib ID_5980.obj.mtl

# 47 vertex positions
v  14.341 17.667 -11.167
v  14.331 17.74 -10.311
v  14.716 17.667 -10.981
v  17.595 17.668 -9.519
v  17.266 17.746 -8.764
v  17.778 17.668 -9.426
v  7.478 17.674 -14.545
v  11.075 18.446 -3.62
v  14.768 17.715 -10.385
v  21.117 18.446 1.433
v  15.211 17.697 -10.379
v  15.647 17.686 -10.294
v  16.059 17.682 -10.131
v  16.454 17.686 -9.883
v  16.794 17.699 -9.564
v  17.068 17.719 -9.187
v  19.947 17.669 -8.325
v  21.878 17.67 -7.344
v  24.76 17.671 -5.88
v  24.806 17.671 -5.857
v  7.489 17.671 -14.567
v  0.032 17.667 0.016
v  0 17.664 1.08161e-15
v  17.41 17.667 8.76
v  17.266 5.3664e-16 -8.764
v  17.068 5.62541e-16 -9.187
v  16.794 5.85626e-16 -9.564
v  16.454 6.05159e-16 -9.883
v  16.059 6.20345e-16 -10.131
v  14.716 6.72392e-16 -10.981
v  7.489 8.91972e-16 -14.567
v  14.341 6.83782e-16 -11.167
v  24.806 3.58638e-16 -5.857
v  24.76 3.60046e-16 -5.88
v  17.778 5.77176e-16 -9.426
v  17.595 5.82871e-16 -9.519
v  21.878 4.4969e-16 -7.344
v  19.947 5.09759e-16 -8.325
v  15.647 6.30326e-16 -10.294
v  15.211 6.3553e-16 -10.379
v  14.768 6.35898e-16 -10.385
v  14.331 6.31367e-16 -10.311
v  0 0 0
v  7.478 8.90624e-16 -14.545
v  17.41 -5.36395e-16 8.76
v  21.117 -8.77459e-17 1.433
v  0.032 -9.79717e-19 0.016

# 0 UV coordinates

# 76 vertex normals
vn 0.0418682 0.995551 -0.0844118
vn 0.0427921 0.995529 -0.0842037
vn 0.0425336 0.995528 -0.0843515
vn 0.0424135 0.995529 -0.0844036
vn 0.042681 0.995528 -0.0842733
vn 0.0424646 0.995527 -0.0843914
vn 0.0415894 0.995604 -0.0839259
vn 0.041468 0.995614 -0.0838658
vn 0.0431568 0.995476 -0.0846447
vn 0.0430223 0.995487 -0.0845866
vn 0.0402288 0.9957 -0.0834497
vn 0.0443754 0.995387 -0.0850585
vn 0.0529854 0.994684 -0.0882931
vn 0.0425331 0.995524 -0.0844033
vn 0.042357 0.995536 -0.08435
vn 0.0423355 0.995537 -0.0843475
vn 0.0424944 0.995531 -0.0843332
vn 0.0422327 0.995531 -0.0844636
vn 0.0542835 0.992643 -0.10823
vn -0.0745966 0.996502 -0.0376671
vn -0.084256 0.995533 -0.042607
vn -0.0424493 0.99553 0.0843646
vn -0.0424518 0.99553 0.0843659
vn 0.90569 0 -0.42394
vn 0.808921 0 -0.587917
vn 0.684227 0 -0.72927
vn 0.684227 0 -0.72927
vn 0.531731 0 -0.846914
vn 0.531731 0 -0.846914
vn 0.444344 0 -0.895856
vn 0.444492 3.91582e-06 -0.895783
vn 0.444485 0 -0.895786
vn 0 -1 -6.11022e-17
vn 0.447221 0 -0.894423
vn 0.452897 1.84973e-05 -0.891563
vn 0.45293 2.53651e-05 -0.891546
vn 0.452632 -7.76198e-05 -0.891697
vn 0.45305 0.000131771 -0.891485
vn 0.447222 -0.00285475 -0.894419
vn 0.452823 -2.9562e-06 -0.8916
vn 0.45305 0 -0.891485
vn 5.09978e-20 1 6.11464e-17
vn -4.51433e-20 1 6.13346e-17
vn -0.916742 0 -0.399479
vn -0.916742 0 -0.399479
vn 0.367886 0 -0.929871
vn 0.367886 0 -0.929871
vn 0.191352 0 -0.981521
vn 0.0135439 0 -0.999908
vn 0.0135439 0 -0.999908
vn -0.166961 0 -0.985964
vn -0.885645 0.0914344 -0.455272
vn -0.889352 0 -0.457222
vn -0.889352 2.79968e-17 -0.457222
vn 1.87221e-19 -1 -6.12214e-17
vn 0.867047 -0 0.498227
vn 0.867047 0 0.498227
vn 0.892298 -0 0.451447
vn 0.892264 3.35029e-05 0.451514
vn 0.89228 0 0.451482
vn -8.04509e-20 -1 -6.13036e-17
vn -0.44927 0.0301406 0.892888
vn -0.44947 0 0.893296
vn -0.44947 0 0.893296
vn 0 -1 -6.13036e-17
vn 2.56204e-24 -1 -6.12323e-17
vn 1.3479e-22 -1 -6.12323e-17
vn 0 -1 -6.12323e-17
vn 0 -1 -6.12324e-17
vn -2.07665e-22 -1 -6.12323e-17
vn 4.47996e-22 -1 -6.12324e-17
vn -2.377e-22 -1 -6.12323e-17
vn 0 -1 -6.12323e-17
vn -3.53775e-22 -1 -6.12323e-17
vn 0 -1 -6.12323e-17
vn 0 -1 -6.12323e-17

# Mesh 'defaultobject' with 90 faces
g defaultobject
usemtl DefaultMaterial
f  1//1 2//1 3//1
f  4//2 5//2 6//2
f  7//3 8//3 1//3
f  2//4 1//4 8//4
f  9//5 2//5 8//5
f  10//6 9//6 8//6
f  11//7 9//7 10//7
f  12//8 11//8 10//8
f  13//9 12//9 10//9
f  14//10 13//10 10//10
f  15//11 14//11 10//11
f  16//12 15//12 10//12
f  5//13 16//13 10//13
f  6//14 5//14 10//14
f  17//15 6//15 10//15
f  18//16 17//16 10//16
f  19//17 18//17 10//17
f  20//18 19//18 10//18
f  7//19 1//19 21//19
f  22//20 7//20 23//20
f  7//21 22//21 8//21
f  24//22 8//22 22//22
f  8//22 24//22 10//23
f  25//24 16//24 5//24
f  16//24 25//24 26//24
f  26//25 15//25 16//25
f  15//25 26//25 27//25
f  27//26 14//26 15//26
f  14//26 27//26 28//27
f  28//28 13//28 14//28
f  13//28 28//28 29//29
f  30//30 1//30 3//30
f  1//31 30//31 21//31
f  21//31 30//31 31//32
f  31//33 30//33 32//33
f  33//34 19//34 20//34
f  19//35 33//35 18//35
f  18//36 33//36 17//36
f  17//37 33//37 6//37
f  6//38 33//38 4//38
f  4//39 33//39 34//39
f  4//40 34//40 35//40
f  4//41 35//41 36//41
f  35//42 34//42 37//42
f  35//42 37//42 38//43
f  4//44 25//44 5//44
f  25//44 4//44 36//45
f  13//46 39//46 12//46
f  39//46 13//46 29//47
f  12//48 40//48 11//48
f  40//48 12//48 39//48
f  11//49 41//49 9//49
f  41//49 11//49 40//50
f  9//51 42//51 2//51
f  42//51 9//51 41//51
f  21//52 23//52 7//52
f  23//53 21//53 31//53
f  23//53 31//53 43//54
f  43//55 31//33 44//55
f  42//56 3//56 2//56
f  3//56 42//56 30//57
f  45//58 10//58 24//58
f  10//59 45//59 20//59
f  20//60 45//60 33//60
f  33//61 45//61 46//61
f  23//62 24//62 22//62
f  24//63 23//63 43//63
f  24//63 43//63 45//64
f  45//61 43//55 47//65
f  30//33 42//66 32//33
f  35//67 25//67 36//67
f  32//33 44//55 31//33
f  44//55 32//33 43//55
f  43//55 32//33 47//65
f  47//65 32//33 42//66
f  47//65 42//66 45//61
f  45//61 42//66 41//68
f  45//61 41//68 40//69
f  45//61 40//69 39//70
f  45//61 39//70 29//71
f  45//61 29//71 28//72
f  45//61 28//72 27//73
f  45//61 27//73 26//74
f  45//61 26//74 25//67
f  45//61 25//67 35//67
f  45//61 35//67 38//75
f  45//61 38//75 37//76
f  45//61 37//76 34//76
f  45//61 34//76 46//61
f  46//61 34//76 33//61

