# {"id":"ID_46768","idOriginal":"ID_46768","origin":[14.284311915933806,48.317355826914614],"elevation":264.825}
# Longitude: 14.284311915933806
# Latitude: 48.317355826914614
# Elevation: 264.825

# File produced by Open Asset Import Library (http://www.assimp.sf.net)
# (assimp v3.1.0)

mtllib ID_46768.obj.mtl

# 14 vertex positions
v  2.381 4.374 2.067
v  0.406 2.545 -0.5
v  0 2.558 1.56632e-16
v  3.02 2.465 -3.714
v  6.016 4.374 -2.107
v  3.454 2.461 -4.221
v  3.441 2.451 -4.232
v  2.381 -1.26567e-16 2.067
v  0 0 0
v  6.016 1.29017e-16 -2.107
v  3.454 2.58462e-16 -4.221
v  3.441 2.59135e-16 -4.232
v  0.406 3.06162e-17 -0.5
v  3.02 2.27417e-16 -3.714

# 0 UV coordinates

# 22 vertex normals
vn -0.376184 0.866549 -0.327992
vn -0.376464 0.866517 -0.327753
vn -0.376357 0.866563 -0.327757
vn -0.375857 0.866469 -0.328576
vn -0.381337 0.862286 -0.333234
vn -0.655558 0 0.755145
vn -0.655558 0 0.755145
vn 0.754119 -0 0.656738
vn 0.636446 0 -0.771322
vn 0.645931 0 -0.763396
vn 0.645931 0 -0.763396
vn -0.776304 0 -0.630359
vn -0.775806 -0.000199726 -0.630971
vn -0.776303 0.00133284 -0.630358
vn -0.775804 0 -0.630974
vn -0.776022 0 -0.630706
vn -0.776022 0 -0.630705
vn -1.51673e-24 -1 -6.12323e-17
vn 0 -1 -6.12323e-17
vn 0 -1 -6.12342e-17
vn -9.5109e-22 -1 -6.12331e-17
vn -1.8196e-21 -1 -6.12339e-17

# Mesh 'defaultobject' with 24 faces
g defaultobject
usemtl DefaultMaterial
f  1//1 2//1 3//1
f  2//2 1//2 4//2
f  4//3 1//3 5//3
f  4//4 5//4 6//4
f  4//5 6//5 7//5
f  3//6 8//6 1//6
f  8//6 3//6 9//7
f  8//8 5//8 1//8
f  5//8 8//8 10//8
f  10//9 6//9 5//9
f  6//9 10//9 11//9
f  6//10 11//10 7//10
f  7//10 11//10 12//11
f  2//12 9//12 3//12
f  9//13 2//13 4//13
f  9//14 4//14 13//14
f  13//15 4//15 14//15
f  14//16 4//16 7//16
f  14//16 7//16 12//17
f  9//18 10//18 8//18
f  10//18 9//18 11//19
f  11//19 9//18 13//20
f  11//19 13//20 14//21
f  11//19 14//21 12//22

