# {"id":"ID_28863","idOriginal":"ID_28863","origin":[14.299756740555287,48.26656139995499],"elevation":262.177}
# Longitude: 14.299756740555287
# Latitude: 48.26656139995499
# Elevation: 262.177

# File produced by Open Asset Import Library (http://www.assimp.sf.net)
# (assimp v3.1.0)

mtllib ID_28863.obj.mtl

# 13 vertex positions
v  4.983 4.869 2.13
v  10.706 3.323 6.118
v  7.134 3.321 -2.837
v  7.129 4.869 7.513
v  0 3.323 2.03475e-16
v  3.552 3.323 8.908
v  0 0 0
v  3.552 -5.45458e-16 8.908
v  7.129 -4.60039e-16 7.513
v  10.706 -3.74619e-16 6.118
v  7.134 3.32 -2.837
v  7.134 1.73716e-16 -2.837
v  0.041 9.79717e-19 -0.016

# 0 UV coordinates

# 17 vertex normals
vn 0.347197 0.927479 -0.138698
vn 0.346975 0.927617 -0.138326
vn -0.138463 0.926898 -0.348837
vn -0.346935 0.927631 0.138338
vn -0.346976 0.927617 0.138326
vn -0.928879 -2.26795e-17 0.370384
vn -0.928879 0 0.370384
vn 0.363338 -0 0.931657
vn 0.928834 0 -0.370496
vn 0.928834 0 -0.370496
vn -0.369526 0 -0.92922
vn -0.36956 -8.56663e-05 -0.929207
vn -0.363542 5.70427e-17 -0.931578
vn 1.43022e-24 -1 -6.12323e-17
vn 0 -1 -6.12323e-17
vn -2.89277e-24 -1 -6.12323e-17
vn 0 -1 -6.12323e-17

# Mesh 'defaultobject' with 20 faces
g defaultobject
usemtl DefaultMaterial
f  1//1 2//1 3//1
f  2//2 1//2 4//2
f  1//3 3//3 5//3
f  6//4 1//4 5//4
f  1//5 6//5 4//5
f  7//6 6//6 5//6
f  6//6 7//6 8//7
f  8//8 4//8 6//8
f  4//8 8//8 2//8
f  2//8 8//8 9//8
f  2//8 9//8 10//8
f  10//9 11//9 2//9
f  11//9 10//9 12//10
f  12//11 5//11 11//11
f  5//12 12//12 13//12
f  5//13 13//13 7//13
f  9//14 12//14 10//14
f  12//14 9//14 8//15
f  12//14 8//15 13//16
f  13//16 8//15 7//17

