# {"id":"ID_9402","idOriginal":"ID_9402","origin":[14.283992082930245,48.32760790388],"elevation":270.53,"wof":[{"Id":85898425,"Name":"Harbach","Placetype":"neighbourhood","Offset":-1},{"Id":85681677,"Name":"Oberösterreich","Placetype":"region","Offset":-1},{"Id":85632785,"Name":"Austria","Placetype":"country","Offset":-1},{"Id":101748071,"Name":"Linz","Placetype":"locality","Offset":-1},{"Id":102049853,"Name":"Linz","Placetype":"county","Offset":-1}]}

# Attribution: City of Linz <http://geo.data.linz.gv.at/katalog/geodata/3d_geo_daten_lod2/>
# Longitude: 14.283992082930245
# Latitude: 48.32760790388
# Elevation: 270.53

# File produced by Open Asset Import Library (http://www.assimp.sf.net)
# (assimp v3.1.0)


# 46 vertex positions
v  7.705 16.414 5.488
v  0.307 16.379 -0.438
v  0 16.414 1.00507e-15
v  6.826 15.652 -9.726
v  6.897 15.644 -9.827
v  11.352 15.638 -6.766
v  11.703 15.609 -7.062
v  13.756 15.61 -5.587
v  14.652 15.527 -6.527
v  14.933 15.532 -6.242
v  15.833 15.546 -5.327
v  10.353 16.414 7.374
v  16.926 15.532 -4.82
v  17.418 15.526 -4.592
v  17.372 15.532 -4.502
v  16.805 15.61 -3.41
v  18.344 15.61 -2.319
v  15.946 16.414 11.359
v  22.848 15.609 0.877
v  23.37 15.602 1.104
v  22.913 15.601 0.767
v  23.286 15.61 1.211
v  15.974 16.411 11.32
v  13.756 3.42105e-16 -5.587
v  14.652 3.99663e-16 -6.527
v  11.352 4.14298e-16 -6.766
v  11.703 4.32423e-16 -7.062
v  6.897 6.0173e-16 -9.827
v  6.826 5.95546e-16 -9.726
v  0.307 2.68198e-17 -0.438
v  0 0 0
v  22.848 -5.37008e-17 0.877
v  22.913 -4.69652e-17 0.767
v  23.37 -6.76005e-17 1.104
v  16.805 2.08802e-16 -3.41
v  18.344 1.41998e-16 -2.319
v  17.418 2.81179e-16 -4.592
v  15.833 3.26185e-16 -5.327
v  16.926 2.9514e-16 -4.82
v  14.933 3.82212e-16 -6.242
v  10.353 -4.51527e-16 7.374
v  15.946 -6.95538e-16 11.359
v  7.705 -3.36043e-16 5.488
v  23.286 -7.41524e-17 1.211
v  15.974 -6.9315e-16 11.32
v  17.372 2.75668e-16 -4.502

# 0 UV coordinates

# 79 vertex normals
vn 0.0378822 0.997866 -0.0531856
vn 0.0370301 0.997954 -0.0521224
vn 0.0382065 0.997906 -0.0521879
vn 0.0371656 0.997948 -0.0521351
vn 0.0389277 0.997908 -0.0516082
vn 0.0370291 0.997949 -0.0522156
vn 0.0385144 0.997935 -0.0514031
vn 0.0359096 0.997953 -0.0529105
vn 0.0373598 0.997947 -0.0520164
vn 0.0371567 0.997947 -0.0521691
vn 0.0370109 0.997949 -0.0522321
vn 0.0365018 0.997953 -0.0525068
vn 0.0947245 0.995342 -0.0179371
vn 0.039459 0.997929 -0.0507925
vn 0.0370356 0.997947 -0.0522437
vn 0.037154 0.997948 -0.0521461
vn 0.0372161 0.997946 -0.0521352
vn 0.0357602 0.998035 -0.0514566
vn 0.0341744 0.998272 -0.0478027
vn 0.037395 0.997945 -0.0520251
vn 0.0021873 0.997171 -0.0751406
vn -0.723845 0 -0.689963
vn -0.723845 0 -0.689963
vn -0.644672 0 -0.764459
vn -0.644672 0 -0.764459
vn -0.81809 0 -0.575091
vn -0.818511 -5.78284e-06 -0.574491
vn -0.818898 -0.000478106 -0.573938
vn -0.818088 0.000549679 -0.575092
vn -0.818511 2.09711e-05 -0.574491
vn -0.81888 3.51452e-17 -0.573964
vn -0.860925 0 -0.508733
vn -0.860925 0 -0.508733
vn 0.583481 0 -0.812127
vn 0.583481 0 -0.812127
vn 0.566301 0 -0.824199
vn 0.566301 0 -0.824198
vn 0.593499 0 -0.804835
vn 0.5787 0 -0.81554
vn 0.578326 -0.000162266 -0.815806
vn 0.578605 0 -0.815608
vn 5.53893e-21 1 6.12273e-17
vn 0.420462 0 -0.90731
vn 0.420794 1.2778e-05 -0.907156
vn 0.420691 0 -0.907204
vn 0 -1 -6.12422e-17
vn 0.712926 0 -0.701239
vn 0.712088 -9.87007e-05 -0.70209
vn 0.712727 0 -0.701442
vn 4.57879e-20 1 6.11862e-17
vn -0.580148 -4.98744e-17 0.814511
vn -0.580132 -1.10806e-05 0.814522
vn -0.580274 0.000123488 0.814422
vn -0.580144 -6.67194e-05 0.814514
vn -0.580274 0 0.814422
vn 8.95341e-20 1 6.10623e-17
vn 0.812329 -0 0.5832
vn 0.810259 1.0357e-05 0.586072
vn 0.810266 0 0.586062
vn 3.97929e-19 -1 -6.08832e-17
vn 0.786568 -0 0.617504
vn 0.786568 0 0.617504
vn 0.887496 -0 0.460815
vn 0.890423 -0.000506297 0.455133
vn 0.887721 0 0.460382
vn -2.79677e-20 1 6.12179e-17
vn -7.17411e-23 -1 -6.12322e-17
vn 2.46418e-23 -1 -6.12324e-17
vn 7.09857e-24 -1 -6.12324e-17
vn -2.42289e-23 -1 -6.12323e-17
vn 5.73036e-24 -1 -6.12323e-17
vn -7.93358e-23 -1 -6.12322e-17
vn -1.72628e-24 -1 -6.12323e-17
vn 0 -1 -6.12323e-17
vn 0 -1 -6.12323e-17
vn -9.52327e-22 -1 -6.12308e-17
vn -3.47827e-22 -1 -6.12322e-17
vn 8.82003e-24 -1 -6.12324e-17
vn -3.50298e-23 -1 -6.12324e-17

# Mesh 'defaultobject' with 88 faces
g defaultobject
usemtl DefaultMaterial
f  1//1 2//1 3//1
f  2//2 1//2 4//2
f  4//3 1//3 5//3
f  5//4 1//4 6//4
f  6//5 1//5 7//5
f  7//6 1//6 8//6
f  8//7 1//7 9//7
f  9//8 1//8 10//8
f  10//9 1//9 11//9
f  11//10 1//10 12//10
f  11//11 12//11 13//11
f  13//12 12//12 14//12
f  14//13 12//13 15//13
f  15//14 12//14 16//14
f  16//15 12//15 17//15
f  17//16 12//16 18//16
f  17//17 18//17 19//17
f  19//18 20//18 21//18
f  20//19 19//19 22//19
f  22//20 19//20 23//20
f  23//21 19//21 18//21
f  9//22 24//22 8//22
f  24//22 9//22 25//23
f  7//24 26//24 6//24
f  26//24 7//24 27//25
f  28//26 4//26 5//26
f  4//27 28//27 2//27
f  2//28 28//28 3//28
f  3//29 28//29 29//29
f  3//30 29//30 30//30
f  3//31 30//31 31//31
f  21//32 32//32 19//32
f  32//32 21//32 33//33
f  24//34 7//34 8//34
f  7//34 24//34 27//35
f  6//36 28//36 5//36
f  28//36 6//36 26//37
f  34//38 21//38 20//38
f  21//38 34//38 33//38
f  32//39 17//39 19//39
f  17//40 32//40 16//40
f  16//41 32//41 35//41
f  35//42 32//42 36//42
f  37//43 13//43 14//43
f  13//44 37//44 11//44
f  11//45 37//45 38//45
f  38//46 37//46 39//46
f  38//47 10//47 11//47
f  10//48 38//48 9//48
f  9//49 38//49 25//49
f  25//50 38//50 40//50
f  31//51 1//51 3//51
f  1//52 31//52 12//52
f  12//53 31//53 18//53
f  18//54 31//54 41//54
f  18//55 41//55 42//55
f  41//56 31//56 43//56
f  42//57 23//57 18//57
f  23//58 42//58 22//58
f  22//59 42//59 44//59
f  44//60 42//60 45//60
f  44//61 20//61 22//61
f  20//61 44//61 34//62
f  35//63 15//63 16//63
f  15//64 35//64 14//64
f  14//65 35//65 37//65
f  37//66 35//42 46//66
f  46//67 39//46 37//46
f  39//46 46//67 38//46
f  38//46 46//67 35//68
f  38//46 35//68 24//69
f  24//69 35//68 26//70
f  34//71 32//71 33//71
f  32//71 34//71 44//60
f  26//70 29//72 28//72
f  29//72 26//70 30//73
f  30//73 26//70 35//68
f  30//73 35//68 36//74
f  30//73 36//74 32//71
f  30//73 32//71 44//60
f  30//73 44//60 45//60
f  30//73 45//60 31//75
f  31//75 45//60 43//76
f  43//76 45//60 41//77
f  41//77 45//60 42//60
f  26//70 27//78 24//69
f  40//79 24//69 25//79
f  24//69 40//79 38//46

