# {"id":"ID_28809","idOriginal":"ID_28809","origin":[14.356246553422453,48.258137748453336],"elevation":251.276,"wof":[{"Id":102049853,"Name":"Linz","Placetype":"county","Offset":-1},{"Id":85632785,"Name":"Austria","Placetype":"country","Offset":-1},{"Id":85681677,"Name":"Oberösterreich","Placetype":"region","Offset":-1},{"Id":85898441,"Name":"Posch","Placetype":"neighbourhood","Offset":-1},{"Id":101748071,"Name":"Linz","Placetype":"locality","Offset":-1}]}

# Attribution: City of Linz <http://geo.data.linz.gv.at/katalog/geodata/3d_geo_daten_lod2/>
# Longitude: 14.356246553422453
# Latitude: 48.258137748453336
# Elevation: 251.276

# File produced by Open Asset Import Library (http://www.assimp.sf.net)
# (assimp v3.1.0)


# 18 vertex positions
v  0.35 6.448 9.789
v  2.871 6.448 -0.104
v  0 6.448 3.94826e-16
v  4.554 6.448 -0.164
v  7.458 6.448 -0.269
v  7.562 6.448 -0.273
v  7.746 6.448 9.525
v  7.912 6.448 9.52
v  3.633 6.448 9.672
v  7.912 -5.82932e-16 9.52
v  7.562 1.67164e-17 -0.273
v  2.871 6.36816e-18 -0.104
v  0 0 0
v  7.458 1.64715e-17 -0.269
v  4.554 1.00421e-17 -0.164
v  0.35 -5.99403e-16 9.789
v  3.633 -5.92239e-16 9.672
v  7.746 -5.83238e-16 9.525

# 0 UV coordinates

# 21 vertex normals
vn 0 1 0
vn 0.999362 0 -0.0357171
vn -0.0384333 0 -0.999261
vn -0.0361334 3.71489e-05 -0.999347
vn -0.035628 0.00027323 -0.999365
vn -0.0362006 -0.000143865 -0.999345
vn -0.0360031 8.80486e-05 -0.999352
vn -0.0362006 6.11922e-17 -0.999345
vn 0 -1 -6.12316e-17
vn -2.08887e-23 -1 -6.1233e-17
vn -0.999361 -2.18793e-18 0.0357316
vn -0.999361 0 0.0357316
vn 0.0356154 -0 0.999366
vn 0.0357176 -5.20993e-05 0.999362
vn 0.0356154 6.52712e-05 0.999366
vn 0.0301015 0.00358642 0.99954
vn 0.0357176 -0.000144722 0.999362
vn 0.0301017 0 0.999547
vn 1.31616e-23 -1 -6.12323e-17
vn -4.59544e-24 -1 -6.12323e-17
vn 2.35612e-22 -1 -6.12323e-17

# Mesh 'defaultobject' with 32 faces
g defaultobject
usemtl DefaultMaterial
f  1//1 2//1 3//1
f  2//1 1//1 4//1
f  4//1 1//1 5//1
f  5//1 1//1 6//1
f  6//1 1//1 7//1
f  6//1 7//1 8//1
f  7//1 1//1 9//1
f  10//2 6//2 8//2
f  6//2 10//2 11//2
f  11//3 5//3 6//3
f  5//4 11//4 4//4
f  4//5 11//5 2//5
f  2//6 11//6 3//6
f  3//7 11//7 12//7
f  3//8 12//8 13//8
f  12//9 11//9 14//9
f  12//9 14//9 15//10
f  13//11 1//11 3//11
f  1//11 13//11 16//12
f  16//13 9//13 1//13
f  9//14 16//14 7//14
f  7//15 16//15 17//15
f  7//16 17//16 8//16
f  8//17 17//17 18//17
f  8//18 18//18 10//18
f  13//19 17//19 16//19
f  17//19 13//19 12//9
f  17//19 12//9 15//10
f  17//19 15//10 18//20
f  18//20 15//10 14//9
f  18//20 14//9 10//21
f  10//21 14//9 11//9

