# {"id":"ID_7972","idOriginal":"ID_7972","origin":[14.323872879620897,48.2569008271711],"elevation":257.094,"wof":[{"Id":101748071,"Name":"Linz","Placetype":"locality","Offset":-1},{"Id":85681677,"Name":"Oberösterreich","Placetype":"region","Offset":-1},{"Id":85898429,"Name":"Kleinmünchen","Placetype":"neighbourhood","Offset":-1},{"Id":102049853,"Name":"Linz","Placetype":"county","Offset":-1},{"Id":85632785,"Name":"Austria","Placetype":"country","Offset":-1}]}

# Attribution: City of Linz <http://geo.data.linz.gv.at/katalog/geodata/3d_geo_daten_lod2/>
# Longitude: 14.323872879620897
# Latitude: 48.2569008271711
# Elevation: 257.094

# File produced by Open Asset Import Library (http://www.assimp.sf.net)
# (assimp v3.1.0)


# 28 vertex positions
v  4.349 17.126 -4.523
v  11.868 15.769 -6.51
v  9.071 15.753 -9.434
v  17.461 17.126 8.645
v  12.704 15.581 -6.995
v  19.762 15.734 1.169
v  20.14 15.571 0.401
v  22.27 15.728 3.644
v  2.712 15.872 2.646
v  0 15.861 9.71206e-16
v  1.9 15.572 3.943
v  10.128 15.755 10.917
v  9.357 15.578 11.388
v  12.78 15.765 13.513
v  11.868 3.98623e-16 -6.51
v  12.704 4.2832e-16 -6.995
v  9.071 5.77666e-16 -9.434
v  0 0 0
v  4.349 2.76954e-16 -4.523
v  2.712 -1.62021e-16 2.646
v  1.9 -2.41439e-16 3.943
v  19.762 -7.15806e-17 1.169
v  22.27 -2.23131e-16 3.644
v  20.14 -2.45542e-17 0.401
v  9.357 -6.97314e-16 11.388
v  12.78 -8.27433e-16 13.513
v  10.128 -6.68473e-16 10.917
v  17.461 -5.29354e-16 8.645

# 0 UV coordinates

# 44 vertex normals
vn 0.140088 0.980282 -0.139367
vn 0.14006 0.980272 -0.139464
vn 0.139638 0.980353 -0.139316
vn 0.140025 0.980282 -0.139427
vn 0.139819 0.980337 -0.139249
vn 0.139959 0.980289 -0.139448
vn -0.140066 0.980268 0.139485
vn -0.140078 0.980267 0.139482
vn -0.139944 0.980334 0.13914
vn -0.140049 0.980267 0.139509
vn -0.13992 0.980307 0.139355
vn -0.140102 0.980282 0.139348
vn -0.501811 0 -0.864978
vn -0.720842 0 -0.6931
vn -0.720837 2.89196e-06 -0.693105
vn -0.720839 4.24403e-17 -0.693103
vn 1.26162e-18 -1 -5.99268e-17
vn -0.847594 0 -0.530645
vn -0.847594 -0 -0.530645
vn 0.722626 0 -0.691239
vn 0.722626 0 -0.69124
vn 0.702408 0 -0.711774
vn 0.702408 0 -0.711774
vn 0.705197 0 -0.709011
vn -0.698344 0 0.715763
vn -0.698344 0 0.715763
vn -0.706537 0 0.707676
vn -0.706537 0 0.707676
vn -0.699522 0 0.714611
vn -0.699522 0 0.714611
vn 0.521316 0 0.853364
vn 0.521316 0 0.853364
vn 0.720816 -0 0.693126
vn 0.720809 4.08944e-06 0.693134
vn 0.720812 0 0.693131
vn -1.21557e-18 -1 -6.28046e-17
vn 0.897213 -0 0.441597
vn 0.897213 0 0.441597
vn -8.34779e-24 -1 -6.12324e-17
vn 2.2887e-23 -1 -6.12324e-17
vn -2.00467e-24 -1 -6.12323e-17
vn -2.08926e-24 -1 -6.12323e-17
vn -1.3133e-24 -1 -6.12323e-17
vn 0 -1 -6.12323e-17

# Mesh 'defaultobject' with 52 faces
g defaultobject
usemtl DefaultMaterial
f  1//1 2//1 3//1
f  2//2 1//2 4//2
f  2//3 4//3 5//3
f  5//4 4//4 6//4
f  5//5 6//5 7//5
f  6//6 4//6 8//6
f  9//7 1//7 10//7
f  1//8 9//8 4//8
f  4//9 9//9 11//9
f  4//10 11//10 12//10
f  12//11 11//11 13//11
f  4//12 12//12 14//12
f  5//13 15//13 2//13
f  15//13 5//13 16//13
f  17//14 1//14 3//14
f  1//14 17//14 10//15
f  10//15 17//14 18//16
f  18//17 17//17 19//17
f  20//18 11//18 9//18
f  11//18 20//18 21//19
f  15//20 3//20 2//20
f  3//20 15//20 17//21
f  8//22 22//22 6//22
f  22//22 8//22 23//23
f  7//24 16//24 5//24
f  16//24 7//24 24//24
f  10//25 20//25 9//25
f  20//25 10//25 18//26
f  11//27 25//27 13//27
f  25//27 11//27 21//28
f  12//29 26//29 14//29
f  26//29 12//29 27//30
f  13//31 27//31 12//31
f  27//31 13//31 25//32
f  26//33 4//33 14//33
f  4//34 26//34 8//34
f  8//34 26//33 23//35
f  23//36 26//36 28//36
f  22//37 7//37 6//37
f  7//37 22//37 24//38
f  19//17 15//39 18//17
f  15//39 19//17 17//17
f  21//40 27//40 25//40
f  27//40 21//40 23//36
f  23//36 21//40 22//41
f  22//41 21//40 24//42
f  24//42 21//40 16//43
f  16//43 21//40 20//44
f  16//43 20//44 15//39
f  15//39 20//44 18//17
f  27//40 28//36 26//36
f  28//36 27//40 23//36

