# {"id":"_16568","idOriginal":"_16568","origin":[14.298006984128476,48.30075880976477],"elevation":259.845}
# Longitude: 14.298006984128476
# Latitude: 48.30075880976477
# Elevation: 259.845

# File produced by Open Asset Import Library (http://www.assimp.sf.net)
# (assimp v3.1.0)

mtllib _16568.obj.mtl

# 35 vertex positions
v  17.891 10.225 5.76
v  11.332 10.405 7.786
v  11.407 10.246 8.162
v  10.619 11.201 6.034
v  19.163 10.242 5.238
v  5.562 11.206 7.935
v  2.206 12.85 5.028
v  3.795 11.188 8.649
v  11.327 12.85 1.576
v  19.187 10.231 5.228
v  17.691 10.282 1.301
v  17.137 10.517 1.405
v  16.628 10.409 -0.839
v  14.775 10.46 -5.801
v  4.923 10.292 -2.5
v  14.584 10.231 -6.311
v  5.203 10.603 -1.814
v  0 10.542 6.45511e-16
v  4.923 1.53081e-16 -2.5
v  14.584 3.86437e-16 -6.311
v  5.203 1.11075e-16 -1.814
v  0 0 0
v  17.137 -8.60314e-17 1.405
v  17.691 -7.96633e-17 1.301
v  10.619 -3.69476e-16 6.034
v  11.332 -4.76755e-16 7.786
v  11.407 -4.99778e-16 8.162
v  3.795 -5.29599e-16 8.649
v  2.206 -3.07876e-16 5.028
v  5.562 -4.85879e-16 7.935
v  17.891 -3.52698e-16 5.76
v  19.187 -3.20123e-16 5.228
v  19.163 -3.20735e-16 5.238
v  14.775 3.55209e-16 -5.801
v  16.628 5.13739e-17 -0.839

# 0 UV coordinates

# 58 vertex normals
vn 0.137253 0.921844 0.362444
vn 0.137372 0.921669 0.362844
vn 0.137344 0.920952 0.364669
vn 0.137222 0.921696 0.362832
vn 0.137282 0.921711 0.362771
vn 0.137259 0.921667 0.362892
vn 0.137272 0.921738 0.362706
vn 0.368479 0.920724 -0.128415
vn 0.366875 0.921449 -0.127808
vn 0.366353 0.921697 -0.127515
vn 0.366358 0.921703 -0.12746
vn 0.366403 0.921699 -0.127356
vn -0.13719 0.921817 -0.362535
vn -0.137268 0.921711 -0.362775
vn -0.138128 0.922034 -0.361627
vn -0.137324 0.921676 -0.362842
vn -0.137307 0.921681 -0.362837
vn -0.366954 0 -0.930239
vn -0.366954 0 -0.930239
vn -0.32921 0 -0.944257
vn -0.32921 5.7819e-17 -0.944257
vn -0.184502 0 -0.982832
vn -0.184502 0 -0.982832
vn -0.925848 0 0.377897
vn -0.926236 0 0.376944
vn -0.980681 0 0.195614
vn -0.915739 -2.46016e-17 0.401774
vn -0.915714 -2.61098e-05 0.40183
vn -0.915727 0 0.401802
vn -1.35311e-19 1 6.12618e-17
vn 0.374645 0 0.927168
vn 0.351874 -0 0.936047
vn 0.34738 -0 0.937724
vn 0.34738 0 0.937724
vn 0.379652 -0 0.925129
vn 0.384339 -0.000680779 0.923192
vn 0.379744 0 0.925091
vn 4.8708e-20 1 6.1351e-17
vn 0.934488 0 -0.355995
vn 0.934488 0 -0.355995
vn 0.93648 0 -0.350721
vn 0.936809 -4.89278e-05 -0.349841
vn 0.93648 0.000478443 -0.350721
vn 0.936809 0 -0.34984
vn 0.975227 0 -0.221207
vn 0.975227 0 -0.221207
vn 6.19202e-22 -1 -6.12326e-17
vn -1.83301e-23 -1 -6.12323e-17
vn -3.98467e-24 -1 -6.12323e-17
vn -2.01786e-22 -1 -6.12323e-17
vn -3.55243e-23 -1 -6.12323e-17
vn 2.05475e-23 -1 -6.12323e-17
vn -3.62218e-23 -1 -6.12324e-17
vn -3.71502e-22 -1 -6.12324e-17
vn -4.23659e-24 -1 -6.12323e-17
vn 0 -1 -6.12323e-17
vn 2.35386e-23 -1 -6.12323e-17
vn 0 -1 -6.11907e-17

# Mesh 'defaultobject' with 66 faces
g defaultobject
usemtl DefaultMaterial
f  1//1 2//1 3//1
f  2//2 1//2 4//2
f  4//3 1//3 5//3
f  6//4 7//4 8//4
f  7//5 6//5 4//5
f  7//6 4//6 5//6
f  7//7 5//7 9//7
f  10//8 11//8 5//8
f  12//9 5//9 11//9
f  9//10 5//10 12//10
f  13//11 9//11 12//11
f  14//12 9//12 13//12
f  15//13 14//13 16//13
f  14//14 15//14 9//14
f  9//15 15//15 17//15
f  9//16 17//16 7//16
f  7//17 17//17 18//17
f  16//18 19//18 15//18
f  19//18 16//18 20//19
f  21//20 18//20 17//20
f  18//20 21//20 22//21
f  11//22 23//22 12//22
f  23//22 11//22 24//23
f  15//24 21//24 17//24
f  21//24 15//24 19//24
f  25//25 2//25 4//25
f  2//25 25//25 26//25
f  26//26 3//26 2//26
f  3//26 26//26 27//26
f  22//27 7//27 18//27
f  7//28 22//28 8//28
f  8//29 22//29 28//29
f  28//30 22//30 29//30
f  8//31 30//31 6//31
f  30//31 8//31 28//31
f  30//32 4//32 6//32
f  4//32 30//32 25//32
f  27//33 1//33 3//33
f  1//33 27//33 31//34
f  31//35 5//35 1//35
f  5//36 31//36 10//36
f  10//37 31//37 32//37
f  32//38 31//38 33//38
f  10//39 24//39 11//39
f  24//39 10//39 32//40
f  14//41 20//41 16//41
f  20//42 14//42 13//42
f  20//43 13//43 34//43
f  34//44 13//44 35//44
f  23//45 13//45 12//45
f  13//45 23//45 35//46
f  33//47 24//47 32//47
f  24//47 33//47 31//48
f  24//47 31//48 23//49
f  23//49 31//48 35//50
f  35//50 31//48 34//51
f  34//51 31//48 27//52
f  34//51 27//52 20//53
f  20//53 27//52 26//54
f  30//55 21//55 25//55
f  21//55 30//55 22//56
f  22//56 30//55 28//57
f  22//56 28//57 29//58
f  20//53 25//55 19//56
f  25//55 20//53 26//54
f  19//56 25//55 21//55

