# {"id":"ID_2286","idOriginal":"ID_2286","origin":[14.323745382329541,48.26886113809555],"elevation":257.288,"wof":[{"Id":102049853,"Name":"Linz","Placetype":"county","Offset":-1},{"Id":101748071,"Name":"Linz","Placetype":"locality","Offset":-1},{"Id":85632785,"Name":"Austria","Placetype":"country","Offset":-1},{"Id":85681677,"Name":"Oberösterreich","Placetype":"region","Offset":-1},{"Id":85898429,"Name":"Kleinmünchen","Placetype":"neighbourhood","Offset":-1}]}

# Attribution: City of Linz <http://geo.data.linz.gv.at/katalog/geodata/3d_geo_daten_lod2/>
# Longitude: 14.323745382329541
# Latitude: 48.26886113809555
# Elevation: 257.288

# File produced by Open Asset Import Library (http://www.assimp.sf.net)
# (assimp v3.1.0)


# 24 vertex positions
v  5.228 5.361 -7.637
v  39.437 4.354 2.498
v  9.968 4.354 -15.573
v  35.043 5.361 10.645
v  39.819 4.354 2.731
v  0.861 4.433 -0.326
v  30.346 4.371 18.428
v  0.751 4.433 -0.392
v  0.377 4.433 -0.616
v  0 4.354 2.66606e-16
v  0.376 4.354 0.23
v  30.266 4.354 18.559
v  0.377 3.77191e-17 -0.616
v  0.751 2.40031e-17 -0.392
v  0.861 1.99617e-17 -0.326
v  39.819 -1.67226e-16 2.731
v  9.968 9.53571e-16 -15.573
v  39.437 -1.52958e-16 2.498
v  0 0 0
v  5.228 4.67631e-16 -7.637
v  30.266 -1.13641e-15 18.559
v  0.376 -1.40834e-17 0.23
v  30.346 -1.12839e-15 18.428
v  35.043 -6.51818e-16 10.645

# 0 UV coordinates

# 38 vertex normals
vn 0.0566172 0.994118 -0.0923275
vn 0.0566205 0.994117 -0.0923389
vn 0.0563959 0.994118 -0.0924602
vn -0.0566319 0.994114 0.0923576
vn -0.0566101 0.994122 0.0922888
vn -0.0349115 0.997695 0.0581851
vn -0.0338522 0.997827 0.0565211
vn -0.0568473 0.99407 0.0926953
vn -0.0763507 0.989238 0.124816
vn -0.0575434 0.993923 0.0938389
vn 0.513821 0 -0.857897
vn 0.514496 -7.73529e-05 -0.857493
vn 0.513821 2.27616e-05 -0.857897
vn 0.514496 0 -0.857493
vn 0.520727 0 -0.853723
vn 0.522759 0.000244784 -0.852481
vn 0.522733 0 -0.852497
vn 9.20583e-20 -1 -6.13108e-17
vn -0.852939 0 -0.52201
vn -0.852939 3.19639e-17 -0.52201
vn -0.858522 0 -0.512777
vn -0.858522 -0 -0.512777
vn -0.858507 -0 -0.512802
vn -0.521817 -5.22347e-17 0.853057
vn -0.522755 0.000111381 0.852483
vn -0.522744 0 0.85249
vn 0 -1 -6.10822e-17
vn 0.853444 -0 0.521185
vn 0.85618 -0.000185186 0.516677
vn 0.85341 0.00890485 0.521163
vn 0.85617 0 0.516694
vn 0.856173 0 0.51669
vn 0 -1 -6.12317e-17
vn 2.6575e-24 -1 -6.12323e-17
vn 1.16004e-24 -1 -6.12324e-17
vn 2.21955e-24 -1 -6.12323e-17
vn -1.31369e-24 -1 -6.12323e-17
vn 2.65093e-24 -1 -6.12324e-17

# Mesh 'defaultobject' with 44 faces
g defaultobject
usemtl DefaultMaterial
f  1//1 2//1 3//1
f  2//2 1//2 4//2
f  2//3 4//3 5//3
f  6//4 4//4 1//4
f  4//5 6//5 7//5
f  7//6 6//6 8//6
f  7//7 8//7 9//7
f  7//8 9//8 10//8
f  7//9 10//9 11//9
f  7//10 11//10 12//10
f  8//11 13//11 9//11
f  13//12 8//12 6//12
f  13//13 6//13 14//13
f  14//14 6//14 15//14
f  16//15 2//15 5//15
f  2//16 16//16 3//16
f  3//17 16//17 17//17
f  17//18 16//18 18//18
f  13//19 10//19 9//19
f  10//19 13//19 19//20
f  17//21 1//21 3//21
f  1//21 17//21 20//22
f  1//23 20//23 6//23
f  6//23 20//23 15//23
f  19//24 11//24 10//24
f  11//25 19//25 12//25
f  12//26 19//26 21//26
f  21//27 19//27 22//27
f  21//28 7//28 12//28
f  7//29 21//29 4//29
f  4//30 21//30 23//30
f  4//31 23//31 24//31
f  4//31 24//31 5//32
f  5//32 24//31 16//32
f  22//27 23//33 21//27
f  23//33 22//27 24//34
f  24//34 22//27 16//18
f  16//18 22//27 18//18
f  18//18 22//27 15//35
f  15//35 22//27 14//36
f  14//36 22//27 19//27
f  14//36 19//27 13//37
f  18//18 20//38 17//18
f  20//38 18//18 15//35

