# File produced by Open Asset Import Library (http://www.assimp.sf.net)
# (assimp v3.1.0)

mtllib ID_20785.obj.mtl

# 22 vertex positions
v  10.565 8.976 -5.128
v  8.76 4.019 1.409
v  8.835 4.019 1.43
v  4.983 4.018 0.365
v  0 3.304 2.02312e-16
v  2.069 8.976 -7.478
v  4.723 3.304 1.307
v  4.139 3.304 -14.957
v  10.919 4.019 -12.067
v  11.18 3.304 -13.009
v  12.295 4.019 -11.686
v  4.983 -2.23498e-17 0.365
v  4.723 -8.00307e-17 1.307
v  8.835 -8.75622e-17 1.43
v  10.565 3.13999e-16 -5.128
v  12.295 7.15561e-16 -11.686
v  10.919 7.38891e-16 -12.067
v  11.18 7.96571e-16 -13.009
v  8.76 -8.62764e-17 1.409
v  0 0 0
v  4.139 9.15852e-16 -14.957
v  2.069 4.57895e-16 -7.478

# 0 UV coordinates

# 34 vertex normals
vn -0.15911 0.807321 0.568257
vn -0.157415 0.807323 0.568727
vn -0.157338 0.807299 0.568783
vn -0.157329 0.807292 0.568795
vn -0.157344 0.80744 0.568581
vn 0.157425 0.807123 -0.569008
vn 0.157467 0.807332 -0.568699
vn 0.157279 0.807352 -0.568723
vn 0.157313 0.807337 -0.568736
vn 0.963957 0 0.26606
vn 0.963956 0 0.26606
vn 0.966922 -0 0.255074
vn 0.966922 0 0.255074
vn 0.966922 0 0.255074
vn 0.963693 -0 0.267011
vn 0.963693 0 0.267011
vn -0.26642 0 0.963857
vn -0.269629 0.00324999 0.962959
vn -0.266482 0 0.96384
vn 1.21966e-21 -1 -6.1237e-17
vn -0.266707 -5.90144e-17 0.963778
vn -0.266707 0 0.963778
vn 0.266849 0 -0.963738
vn 0.266648 0 -0.963794
vn -0.963767 0 -0.266747
vn -0.963767 -0 -0.266746
vn -0.963791 -0 -0.26666
vn -0.963791 1.63282e-17 -0.26666
vn -7.96842e-24 -1 -6.12323e-17
vn 3.73524e-24 -1 -6.12323e-17
vn 0 -1 -6.12324e-17
vn -1.09308e-23 -1 -6.12323e-17
vn 3.0961e-24 -1 -6.12323e-17
vn 0 -1 -6.12323e-17

# Mesh 'defaultobject' with 40 faces
g defaultobject
usemtl DefaultMaterial
f  1//1 2//1 3//1
f  2//2 1//2 4//2
f  4//3 1//3 5//3
f  5//4 1//4 6//4
f  5//5 7//5 4//5
f  8//6 9//6 10//6
f  9//7 1//7 11//7
f  1//8 9//8 8//8
f  1//9 8//9 6//9
f  7//10 12//10 4//10
f  12//10 7//10 13//11
f  14//12 1//12 3//12
f  1//12 14//12 15//12
f  1//12 15//12 11//13
f  11//13 15//12 16//14
f  17//15 10//15 9//15
f  10//15 17//15 18//16
f  12//17 2//17 4//17
f  2//18 12//18 3//18
f  3//19 12//19 14//19
f  14//20 12//20 19//20
f  20//21 7//21 5//21
f  7//21 20//21 13//22
f  16//23 9//23 11//23
f  9//23 16//23 17//23
f  18//24 8//24 10//24
f  8//24 18//24 21//24
f  21//25 6//25 8//25
f  6//25 21//25 22//26
f  6//27 22//27 5//27
f  5//27 22//27 20//28
f  15//29 19//20 12//20
f  19//20 15//29 14//20
f  18//30 22//30 21//30
f  22//30 18//30 17//31
f  22//30 17//31 16//32
f  22//30 16//32 15//29
f  22//30 15//29 20//33
f  20//33 15//29 12//20
f  20//33 12//20 13//34

