# File produced by Open Asset Import Library (http://www.assimp.sf.net)
# (assimp v3.1.0)

mtllib ID_31998.obj.mtl

# 14 vertex positions
v  4.849 10.363 -1.993
v  11.729 7.394 1.054
v  9.698 7.394 -3.986
v  11.748 7.394 1.101
v  6.898 10.363 3.091
v  0 7.394 4.52752e-16
v  2.048 7.394 5.081
v  9.698 2.44072e-16 -3.986
v  4.849 1.22036e-16 -1.993
v  0 0 0
v  2.048 -3.11122e-16 5.081
v  6.898 -1.89269e-16 3.091
v  11.748 -6.74168e-17 1.101
v  11.729 -6.45389e-17 1.054

# 0 UV coordinates

# 18 vertex normals
vn 0.457078 0.870146 -0.184191
vn 0.457267 0.869906 -0.184853
vn 0.457082 0.870138 -0.184217
vn -0.457069 0.870146 0.184212
vn -0.457075 0.870138 0.184233
vn -0.380155 0 -0.924923
vn -0.380155 0 -0.924923
vn -0.380155 5.66352e-17 -0.924923
vn -0.927491 -2.28914e-17 0.373844
vn -0.927491 0 0.373844
vn 0.379598 -0 0.925151
vn 0.379598 0 0.925151
vn 0.927109 0 -0.374791
vn 0.927522 7.5515e-06 -0.373769
vn 0.927518 0 -0.373779
vn -3.49127e-19 -1 -6.12717e-17
vn -1.84334e-24 -1 -6.12323e-17
vn 3.68257e-24 -1 -6.12323e-17

# Mesh 'defaultobject' with 24 faces
g defaultobject
usemtl DefaultMaterial
f  1//1 2//1 3//1
f  2//2 1//2 4//2
f  4//3 1//3 5//3
f  6//4 5//4 1//4
f  5//5 6//5 7//5
f  8//6 1//6 3//6
f  1//6 8//6 6//7
f  6//7 8//6 9//6
f  6//7 9//6 10//8
f  10//9 7//9 6//9
f  7//9 10//9 11//10
f  11//11 5//11 7//11
f  5//11 11//11 4//11
f  4//11 11//11 12//11
f  4//11 12//11 13//12
f  13//13 2//13 4//13
f  2//14 13//14 3//14
f  3//15 13//15 8//15
f  8//16 13//16 14//16
f  9//17 11//17 10//17
f  11//17 9//17 8//16
f  11//17 8//16 12//18
f  12//18 8//16 14//16
f  12//18 14//16 13//16

