# File produced by Open Asset Import Library (http://www.assimp.sf.net)
# (assimp v3.1.0)

mtllib ID_50951.obj.mtl

# 10 vertex positions
v  1.973 2.824 -0.515
v  1.458 2.631 -2.489
v  0 2.631 1.61102e-16
v  5.154 2.631 -0.323
v  3.181 2.824 0.192
v  3.696 2.631 2.166
v  1.458 1.52407e-16 -2.489
v  0 0 0
v  3.696 -1.32629e-16 2.166
v  5.154 1.9778e-17 -0.323

# 0 UV coordinates

# 14 vertex normals
vn -0.114457 0.991163 -0.0670462
vn 0.0670419 0.99117 -0.114398
vn 0.0670507 0.99115 -0.114565
vn -0.0670419 0.99117 0.114398
vn -0.0670507 0.99115 0.114565
vn 0.114457 0.991163 0.0670462
vn -0.86286 0 -0.505444
vn -0.86286 3.09495e-17 -0.505444
vn -0.505612 -5.28289e-17 0.862761
vn -0.505612 0 0.862761
vn 0.86286 -0 0.505444
vn 0.505612 0 -0.862761
vn 5.35506e-25 -1 -6.12323e-17
vn -2.67753e-25 -1 -6.12323e-17

# Mesh 'defaultobject' with 16 faces
g defaultobject
usemtl DefaultMaterial
f  1//1 2//1 3//1
f  1//2 4//2 2//2
f  4//3 1//3 5//3
f  5//4 3//4 6//4
f  3//5 5//5 1//5
f  5//6 6//6 4//6
f  7//7 3//7 2//7
f  3//7 7//7 8//8
f  8//9 6//9 3//9
f  6//9 8//9 9//10
f  9//11 4//11 6//11
f  4//11 9//11 10//11
f  10//12 2//12 4//12
f  2//12 10//12 7//12
f  10//13 8//13 7//13
f  8//13 10//13 9//14

