# {"id":"ID_33315","idOriginal":"ID_33315","origin":[14.363960315337055,48.25514372954024],"elevation":250.672,"wof":[{"Id":102049853,"Name":"Linz","Placetype":"county","Offset":-1},{"Id":85632785,"Name":"Austria","Placetype":"country","Offset":-1},{"Id":85681677,"Name":"Oberösterreich","Placetype":"region","Offset":-1},{"Id":85898441,"Name":"Posch","Placetype":"neighbourhood","Offset":-1},{"Id":101748071,"Name":"Linz","Placetype":"locality","Offset":-1}]}

# Attribution: City of Linz <http://geo.data.linz.gv.at/katalog/geodata/3d_geo_daten_lod2/>
# Longitude: 14.363960315337055
# Latitude: 48.25514372954024
# Elevation: 250.672

# File produced by Open Asset Import Library (http://www.assimp.sf.net)
# (assimp v3.1.0)


# 24 vertex positions
v  4.486 3.339 -3.898
v  8.11 3.339 1.635
v  11.336 3.339 -0.881
v  4.21 3.339 4.654
v  1.817 3.339 -1.398
v  1.457 3.339 -1.63
v  3.743 3.339 5.009
v  3.514 3.339 5.183
v  2.603 3.339 3.369
v  0 3.339 2.04455e-16
v  2.239 3.339 3.645
v  2.523 3.339 3.429
v  2.239 -2.23192e-16 3.645
v  3.514 -3.17367e-16 5.183
v  1.457 9.98087e-17 -1.63
v  1.817 8.56028e-17 -1.398
v  0 0 0
v  2.603 -2.06292e-16 3.369
v  11.336 5.39457e-17 -0.881
v  3.743 -3.06713e-16 5.009
v  4.21 -2.84975e-16 4.654
v  8.11 -1.00115e-16 1.635
v  4.486 2.38684e-16 -3.898
v  2.523 -2.09966e-16 3.429

# 0 UV coordinates

# 27 vertex normals
vn 0 1 0
vn -0.76986 0 0.638213
vn -0.541701 0 0.840571
vn -0.791321 -3.74375e-17 0.611401
vn -0.791321 0 0.611401
vn 0.604996 -0 0.796229
vn 0.60517 -1.88442e-05 0.796096
vn 0.612127 -0.00231501 0.790756
vn 0.614966 -0.00861476 0.788506
vn 0.612695 0 0.79032
vn 0 1 6.1237e-17
vn 0 1 6.12321e-17
vn -1.44832e-21 1 6.12291e-17
vn 0.403074 0 -0.915167
vn -0.599366 0 -0.800475
vn -0.609795 0 -0.792559
vn -0.609795 4.85302e-17 -0.792559
vn -0.605368 0 -0.795946
vn -0.6 -0.000718818 -0.8
vn -0.605368 0.000201458 -0.795946
vn -0.6 0 -0.8
vn 1.08872e-23 -1 -6.12323e-17
vn 1.63705e-20 -1 -6.12111e-17
vn 3.60055e-24 -1 -6.12323e-17
vn 0 -1 -6.12323e-17
vn 1.96309e-24 -1 -6.12323e-17
vn 0 -1 -6.12323e-17

# Mesh 'defaultobject' with 44 faces
g defaultobject
usemtl DefaultMaterial
f  1//1 2//1 3//1
f  2//1 1//1 4//1
f  4//1 1//1 5//1
f  5//1 1//1 6//1
f  4//1 5//1 7//1
f  7//1 5//1 8//1
f  8//1 5//1 9//1
f  10//1 9//1 5//1
f  9//1 11//1 8//1
f  11//1 9//1 12//1
f  13//2 8//2 11//2
f  8//2 13//2 14//2
f  15//3 5//3 6//3
f  5//3 15//3 16//3
f  17//4 9//4 10//4
f  9//4 17//4 18//5
f  14//6 7//6 8//6
f  7//7 14//7 4//7
f  4//8 14//8 2//8
f  2//9 14//9 3//9
f  3//10 14//10 19//10
f  19//11 14//11 20//11
f  19//11 20//11 21//12
f  19//11 21//12 22//13
f  19//14 1//14 3//14
f  1//14 19//14 23//14
f  23//15 6//15 1//15
f  6//15 23//15 15//15
f  16//16 10//16 5//16
f  10//16 16//16 17//17
f  12//18 13//18 11//18
f  13//19 12//19 9//19
f  13//20 9//20 24//20
f  24//21 9//21 18//21
f  13//22 18//22 14//22
f  18//22 13//22 24//23
f  20//24 16//24 21//24
f  16//24 20//24 18//22
f  16//24 18//22 17//25
f  18//22 20//24 14//22
f  22//26 23//26 19//26
f  23//26 22//26 21//24
f  23//26 21//24 16//24
f  23//26 16//24 15//27

