# {"id":"ID_61122","idOriginal":"ID_61122","origin":[14.29829264340931,48.27887392433875],"elevation":282.698,"wof":[{"Id":102049853,"Name":"Linz","Placetype":"county","Offset":-1},{"Id":101748071,"Name":"Linz","Placetype":"locality","Offset":-1},{"Id":85632785,"Name":"Austria","Placetype":"country","Offset":-1},{"Id":85681677,"Name":"Oberösterreich","Placetype":"region","Offset":-1},{"Id":85898459,"Name":"Wegscheid","Placetype":"neighbourhood","Offset":-1}]}

# Attribution: City of Linz <http://geo.data.linz.gv.at/katalog/geodata/3d_geo_daten_lod2/>
# Longitude: 14.29829264340931
# Latitude: 48.27887392433875
# Elevation: 282.698

# File produced by Open Asset Import Library (http://www.assimp.sf.net)
# (assimp v3.1.0)


# 8 vertex positions
v  0 3.679 2.25274e-16
v  0.521 3.679 0.253
v  0.387 3.679 -0.134
v  0.134 3.679 0.387
v  0.387 8.20513e-18 -0.134
v  0 0 0
v  0.134 -2.36969e-17 0.387
v  0.521 -1.54918e-17 0.253

# 0 UV coordinates

# 9 vertex normals
vn -0 1 0
vn -0.327194 0 -0.944957
vn -0.327194 5.78619e-17 -0.944957
vn -0.944957 -2.00349e-17 0.327194
vn -0.944957 0 0.327194
vn 0.327194 -0 0.944957
vn 0.944957 0 -0.327195
vn 0 -1 -6.12323e-17
vn 2.46588e-24 -1 -6.12323e-17

# Mesh 'defaultobject' with 12 faces
g defaultobject
usemtl DefaultMaterial
f  1//1 2//1 3//1
f  2//1 1//1 4//1
f  5//2 1//2 3//2
f  1//2 5//2 6//3
f  6//4 4//4 1//4
f  4//4 6//4 7//5
f  7//6 2//6 4//6
f  2//6 7//6 8//6
f  8//7 3//7 2//7
f  3//7 8//7 5//7
f  8//8 6//8 5//8
f  6//8 8//8 7//9

