# {"id":"ID_44768","idOriginal":"ID_44768","origin":[14.28071637782947,48.28759154760055],"elevation":311.119,"wof":[{"Id":102049853,"Name":"Linz","Placetype":"county","Offset":-1},{"Id":101748071,"Name":"Linz","Placetype":"locality","Offset":-1},{"Id":85681677,"Name":"Oberösterreich","Placetype":"region","Offset":-1},{"Id":85632785,"Name":"Austria","Placetype":"country","Offset":-1},{"Id":85898459,"Name":"Wegscheid","Placetype":"neighbourhood","Offset":-1}]}

# Attribution: City of Linz <http://geo.data.linz.gv.at/katalog/geodata/3d_geo_daten_lod2/>
# Longitude: 14.28071637782947
# Latitude: 48.28759154760055
# Elevation: 311.119

# File produced by Open Asset Import Library (http://www.assimp.sf.net)
# (assimp v3.1.0)


# 14 vertex positions
v  6.735 0.794 0.668
v  5.977 0.794 2.564
v  6.188 0.794 2.655
v  0 0.794 4.86185e-17
v  1.014 0.794 -2.535
v  7.022 0.794 -0.374
v  1.193 0.794 -2.983
v  1.193 1.82656e-16 -2.983
v  1.014 1.55224e-16 -2.535
v  0 0 0
v  5.977 -1.57e-16 2.564
v  6.188 -1.62572e-16 2.655
v  6.735 -4.09032e-17 0.668
v  7.022 2.29009e-17 -0.374

# 0 UV coordinates

# 16 vertex normals
vn 0 1 0
vn -0.92862 0 -0.371033
vn -0.928477 0.000233968 -0.371391
vn -0.928619 -0.00132387 -0.371033
vn -0.928477 2.27411e-17 -0.371391
vn -0.394235 -5.62731e-17 0.91901
vn -0.394235 0 0.91901
vn -0.396019 0 0.918242
vn 0.964134 -0 0.265416
vn 0.964099 0 0.265543
vn 0.408534 0 -0.912743
vn -2.99809e-23 -1 -6.12323e-17
vn -9.96911e-25 -1 -6.12323e-17
vn -9.17867e-25 -1 -6.12323e-17
vn 0 -1 -6.12323e-17
vn 0 -1 -6.12324e-17

# Mesh 'defaultobject' with 24 faces
g defaultobject
usemtl DefaultMaterial
f  1//1 2//1 3//1
f  2//1 1//1 4//1
f  4//1 1//1 5//1
f  5//1 1//1 6//1
f  5//1 6//1 7//1
f  8//2 5//2 7//2
f  5//3 8//3 4//3
f  4//4 8//4 9//4
f  4//5 9//5 10//5
f  10//6 2//6 4//6
f  2//6 10//6 11//7
f  2//8 11//8 3//8
f  3//8 11//8 12//8
f  12//9 1//9 3//9
f  1//9 12//9 13//9
f  1//10 13//10 6//10
f  6//10 13//10 14//10
f  14//11 7//11 6//11
f  7//11 14//11 8//11
f  11//12 13//12 12//12
f  13//12 11//12 10//13
f  13//12 10//13 14//14
f  14//14 10//13 9//15
f  14//14 9//15 8//16

