# {"id":"ID_48078","idOriginal":"ID_48078","origin":[14.344509913444691,48.267988720876794],"elevation":252.506,"wof":[{"Id":102049853,"Name":"Linz","Placetype":"county","Offset":-1},{"Id":85632785,"Name":"Austria","Placetype":"country","Offset":-1},{"Id":85681677,"Name":"Oberösterreich","Placetype":"region","Offset":-1},{"Id":85898451,"Name":"Ufer","Placetype":"neighbourhood","Offset":-1},{"Id":101748071,"Name":"Linz","Placetype":"locality","Offset":-1}]}

# Attribution: City of Linz <http://geo.data.linz.gv.at/katalog/geodata/3d_geo_daten_lod2/>
# Longitude: 14.344509913444691
# Latitude: 48.267988720876794
# Elevation: 252.506

# File produced by Open Asset Import Library (http://www.assimp.sf.net)
# (assimp v3.1.0)


# 12 vertex positions
v  0 2.274 1.39242e-16
v  1.646 2.274 1.276
v  0.163 2.274 -0.21
v  0.306 2.274 -0.106
v  5.355 2.274 -6.588
v  6.846 2.274 -5.433
v  6.846 3.32675e-16 -5.433
v  5.355 4.03399e-16 -6.588
v  0.306 6.49063e-18 -0.106
v  0.163 1.28588e-17 -0.21
v  0 0 0
v  1.646 -7.81325e-17 1.276

# 0 UV coordinates

# 13 vertex normals
vn -0 1 0
vn 0.612398 0 -0.79055
vn 0.588172 0 -0.808736
vn -0.788913 0 -0.614505
vn -0.789959 0 -0.613159
vn -0.789959 3.75452e-17 -0.613159
vn -0.612677 -4.8394e-17 0.790334
vn -0.612677 0 0.790334
vn 0.790385 -0 0.61261
vn 2.98811e-24 -1 -6.12323e-17
vn 0 -1 -6.12323e-17
vn -1.35191e-23 -1 -6.12323e-17
vn 0 -1 -6.12323e-17

# Mesh 'defaultobject' with 20 faces
g defaultobject
usemtl DefaultMaterial
f  1//1 2//1 3//1
f  4//1 3//1 2//1
f  5//1 4//1 2//1
f  6//1 5//1 2//1
f  7//2 5//2 6//2
f  5//2 7//2 8//2
f  9//3 3//3 4//3
f  3//3 9//3 10//3
f  8//4 4//4 5//4
f  4//4 8//4 9//4
f  10//5 1//5 3//5
f  1//5 10//5 11//6
f  11//7 2//7 1//7
f  2//7 11//7 12//8
f  12//9 6//9 2//9
f  6//9 12//9 7//9
f  11//10 10//10 12//10
f  9//11 12//10 10//10
f  8//12 12//10 9//11
f  7//13 12//10 8//12

