# {"id":"ID_45653","idOriginal":"ID_45653","origin":[14.275892209923857,48.25875412242588],"elevation":267.718}
# Longitude: 14.275892209923857
# Latitude: 48.25875412242588
# Elevation: 267.718

# File produced by Open Asset Import Library (http://www.assimp.sf.net)
# (assimp v3.1.0)

mtllib ID_45653.obj.mtl

# 8 vertex positions
v  0 3.277 2.00658e-16
v  3.779 3.277 5.408
v  3.395 3.277 -0.286
v  0.466 3.277 5.714
v  3.395 1.75124e-17 -0.286
v  0 0 0
v  0.466 -3.49882e-16 5.714
v  3.779 -3.31144e-16 5.408

# 0 UV coordinates

# 9 vertex normals
vn -0 1 0
vn -0.0839442 0 -0.99647
vn -0.0839442 6.10162e-17 -0.99647
vn -0.996691 -4.97722e-18 0.0812842
vn -0.996691 0 0.0812842
vn 0.0919719 -0 0.995762
vn 0.997734 0 -0.0672866
vn 0 -1 -6.12323e-17
vn 0 -1 -6.12323e-17

# Mesh 'defaultobject' with 12 faces
g defaultobject
usemtl DefaultMaterial
f  1//1 2//1 3//1
f  2//1 1//1 4//1
f  5//2 1//2 3//2
f  1//2 5//2 6//3
f  6//4 4//4 1//4
f  4//4 6//4 7//5
f  7//6 2//6 4//6
f  2//6 7//6 8//6
f  8//7 3//7 2//7
f  3//7 8//7 5//7
f  8//8 6//8 5//8
f  6//8 8//8 7//9

