# File produced by Open Asset Import Library (http://www.assimp.sf.net)
# (assimp v3.1.0)

mtllib ID_1918.obj.mtl

# 52 vertex positions
v  22.798 6.973 11.619
v  9.921 6.973 -0.716
v  15.78 6.973 7.626
v  21.068 6.973 -1.741
v  27.389 6.973 3.454
v  21.158 6.973 -1.749
v  21.519 6.973 -2.387
v  53.699 6.973 -59.259
v  31.226 6.973 -3.37
v  42.099 6.973 -22.707
v  60.644 6.973 -55.423
v  55.883 6.973 -58.146
v  9.8 6.973 5.314
v  1.188 6.973 6.109
v  1.222 6.973 6.363
v  1.179 6.973 6.045
v  0 6.973 4.26973e-16
v  0.384 6.973 -0.043
v  0.524 6.973 -0.059
v  9.882 6.973 -1.107
v  9.915 6.973 5.075
v  9.949 6.973 5.222
v  9.966 6.973 5.294
v  10.954 6.973 4.88
v  11.312 6.973 5.083
v  0.55 6.973 6.041
v  0 0 0
v  0.384 2.63299e-18 -0.043
v  0.524 3.61271e-18 -0.059
v  9.882 6.77842e-17 -1.107
v  21.158 1.07095e-16 -1.749
v  9.921 4.38424e-17 -0.716
v  21.068 1.06606e-16 -1.741
v  0.55 -3.69905e-16 6.041
v  1.179 -3.70149e-16 6.045
v  1.222 -3.89621e-16 6.363
v  1.188 -3.74068e-16 6.109
v  9.8 -3.25389e-16 5.314
v  9.966 -3.24164e-16 5.294
v  9.915 -3.10754e-16 5.075
v  10.954 -2.98814e-16 4.88
v  22.798 -7.11459e-16 11.619
v  27.389 -2.11496e-16 3.454
v  31.226 2.06353e-16 -3.37
v  42.099 1.3904e-15 -22.707
v  60.644 3.39368e-15 -55.423
v  9.949 -3.19755e-16 5.222
v  11.312 -3.11244e-16 5.083
v  15.78 -4.66958e-16 7.626
v  55.883 3.56042e-15 -58.146
v  53.699 3.62857e-15 -59.259
v  21.519 1.46162e-16 -2.387

# 0 UV coordinates

# 55 vertex normals
vn 0 1 0
vn -0.111284 0 -0.993789
vn -0.113547 0.000126199 -0.993533
vn -0.111294 -4.52319e-05 -0.993787
vn -0.111284 -6.01164e-05 -0.993789
vn -0.113546 0.00306134 -0.993528
vn -0.111294 0 -0.993787
vn -0.0885411 0 -0.996073
vn -0.0915667 -3.93644e-05 -0.995799
vn -0.0915424 -0 -0.995801
vn 4.3072e-21 1 6.12828e-17
vn -0.995881 -5.55191e-18 0.0906695
vn -0.995881 0 0.0906695
vn -0.990257 0 0.139254
vn -0.99116 6.15445e-05 0.132675
vn -0.990981 0 0.134001
vn 7.52145e-21 -1 -6.12331e-17
vn -0.00635947 0 0.99998
vn 0.121385 -0 0.992605
vn 0.119617 0 0.99282
vn 0.18446 -0 0.98284
vn 0.871658 -0 0.490114
vn 0.871657 0 0.490116
vn 0.871654 0 0.490122
vn 0.869954 0 0.493132
vn 0.973242 0 -0.229783
vn 0.974279 4.83461e-05 -0.225346
vn 0.97394 0 -0.226806
vn -1.34165e-19 -1 -6.12025e-17
vn 0.995063 0 -0.0992506
vn -0.493258 0 0.869883
vn -0.494651 9.45442e-05 0.869092
vn -0.494524 -2.15116e-05 0.869164
vn -0.493257 -0.00286593 0.869879
vn -0.494651 0.00016877 0.869092
vn -0.494524 0 0.869164
vn 0.496473 0 -0.868052
vn 0.454054 0 -0.890974
vn -0.870334 0 -0.492463
vn -0.870335 -0 -0.49246
vn 3.28532e-23 -1 -6.12323e-17
vn 4.11002e-23 -1 -6.12323e-17
vn 2.62377e-23 -1 -6.12323e-17
vn 2.39253e-24 -1 -6.12323e-17
vn 2.9661e-24 -1 -6.12323e-17
vn 0 -1 -6.12323e-17
vn 1.80307e-23 -1 -6.12323e-17
vn -1.89751e-22 -1 -6.12323e-17
vn 1.75649e-24 -1 -6.12323e-17
vn 1.20491e-23 -1 -6.12323e-17
vn -1.34143e-24 -1 -6.12324e-17
vn 4.05827e-23 -1 -6.12323e-17
vn -9.82697e-23 -1 -6.12322e-17
vn 9.08742e-25 -1 -6.12323e-17
vn 2.53485e-23 -1 -6.12323e-17

# Mesh 'defaultobject' with 100 faces
g defaultobject
usemtl DefaultMaterial
f  1//1 2//1 3//1
f  2//1 1//1 4//1
f  4//1 1//1 5//1
f  4//1 5//1 6//1
f  6//1 5//1 7//1
f  7//1 5//1 8//1
f  8//1 5//1 9//1
f  8//1 9//1 10//1
f  8//1 10//1 11//1
f  8//1 11//1 12//1
f  13//1 14//1 15//1
f  14//1 13//1 16//1
f  16//1 13//1 17//1
f  17//1 13//1 18//1
f  18//1 13//1 19//1
f  19//1 13//1 20//1
f  20//1 13//1 21//1
f  21//1 13//1 22//1
f  22//1 13//1 23//1
f  20//1 21//1 2//1
f  2//1 21//1 24//1
f  2//1 24//1 25//1
f  2//1 25//1 3//1
f  17//1 26//1 16//1
f  18//2 27//2 17//2
f  27//3 18//3 19//3
f  27//4 19//4 20//4
f  27//5 20//5 28//5
f  28//6 20//6 29//6
f  29//7 20//7 30//7
f  31//8 4//8 6//8
f  4//9 31//9 2//9
f  2//10 31//10 32//10
f  32//11 31//11 33//11
f  27//12 26//12 17//12
f  26//12 27//12 34//13
f  35//14 14//14 16//14
f  14//15 35//15 15//15
f  15//16 35//16 36//16
f  36//17 35//17 37//17
f  34//18 16//18 26//18
f  16//18 34//18 35//18
f  36//19 13//19 15//19
f  13//19 36//19 38//19
f  13//20 38//20 23//20
f  23//20 38//20 39//20
f  40//21 24//21 21//21
f  24//21 40//21 41//21
f  42//22 5//22 1//22
f  5//22 42//22 43//22
f  5//22 43//22 9//23
f  9//23 43//22 44//23
f  9//23 44//23 10//24
f  10//24 44//23 45//24
f  10//25 45//25 11//25
f  11//25 45//25 46//25
f  39//26 22//26 23//26
f  22//27 39//27 21//27
f  21//28 39//28 40//28
f  40//29 39//29 47//29
f  32//30 20//30 2//30
f  20//30 32//30 30//30
f  41//31 25//31 24//31
f  25//32 41//32 3//32
f  3//33 41//33 1//33
f  1//34 41//34 48//34
f  1//35 48//35 49//35
f  1//36 49//36 42//36
f  46//37 12//37 11//37
f  12//37 46//37 50//37
f  50//38 8//38 12//38
f  8//38 50//38 51//38
f  51//39 7//39 8//39
f  7//39 51//39 52//39
f  7//39 52//39 6//40
f  6//40 52//39 31//40
f  45//41 50//41 46//41
f  50//41 45//41 51//42
f  51//42 45//41 52//43
f  52//43 45//41 44//44
f  52//43 44//44 43//45
f  52//43 43//45 42//46
f  52//43 42//46 31//47
f  31//47 42//46 33//48
f  33//48 42//46 32//49
f  32//49 42//46 49//50
f  32//49 29//51 30//51
f  29//51 32//49 41//46
f  41//46 32//49 48//52
f  48//52 32//49 49//50
f  29//51 41//46 40//29
f  29//51 40//29 47//29
f  29//51 47//29 39//29
f  29//51 39//29 38//53
f  29//51 38//53 36//17
f  29//51 36//17 28//54
f  28//54 36//17 37//17
f  28//54 37//17 35//17
f  28//54 35//17 27//46
f  34//55 27//46 35//17

