# {"id":"ID_14516","idOriginal":"ID_14516","origin":[14.300661698507339,48.27140395032514],"elevation":279.712}
# Longitude: 14.300661698507339
# Latitude: 48.27140395032514
# Elevation: 279.712

# File produced by Open Asset Import Library (http://www.assimp.sf.net)
# (assimp v3.1.0)

mtllib ID_14516.obj.mtl

# 20 vertex positions
v  4.246 12.733 -2.675
v  10.334 6.45 16.294
v  14.578 12.733 13.616
v  2.043 6.446 3.228
v  0 6.45 3.94949e-16
v  14.493 6.45 4.112
v  18.829 6.439 10.933
v  12.796 6.454 1.443
v  8.482 6.465 -5.343
v  8.193 6.893 -5.161
v  8.482 3.27164e-16 -5.343
v  8.193 3.1602e-16 -5.161
v  4.246 1.63797e-16 -2.675
v  0 0 0
v  2.043 -1.97658e-16 3.228
v  10.334 -9.9772e-16 16.294
v  14.578 -8.3374e-16 13.616
v  18.829 -6.69453e-16 10.933
v  12.796 -8.83583e-17 1.443
v  14.493 -2.51787e-16 4.112

# 0 UV coordinates

# 36 vertex normals
vn -0.659846 0.624079 0.418484
vn -0.659803 0.624124 0.418485
vn -0.659885 0.624085 0.418414
vn 0.659873 0.624064 -0.418464
vn 0.659729 0.62417 -0.418533
vn 0.65988 0.62404 -0.418488
vn 0.66018 0.623728 -0.418481
vn 0.659836 0.624094 -0.418478
vn -0.532992 -4.55561e-05 -0.84612
vn -0.53299 -9.41322e-05 -0.846121
vn -0.532991 0 -0.846121
vn -0.532891 0.000183558 -0.846184
vn -0.532944 8.87521e-05 -0.846151
vn -0.533041 5.1808e-17 -0.84609
vn -0.844985 -3.27465e-17 0.534791
vn -0.844355 -0.000696914 0.535784
vn -0.844981 0.00282074 0.534789
vn -0.844355 0 0.535784
vn 0.53369 -3.91621e-05 0.84568
vn 0.53369 0 0.84568
vn 0.533648 7.6559e-05 0.845707
vn 0.533731 0 0.845654
vn 0.843907 0 -0.536489
vn 0.843907 0 -0.536489
vn 0.84387 0 -0.536548
vn 0.843921 -4.70192e-05 -0.536467
vn 0.84387 0.000120442 -0.536548
vn 0.843921 0 -0.536467
vn -7.81789e-24 -1 -6.12323e-17
vn -2.08821e-23 -1 -6.12323e-17
vn 1.02238e-24 -1 -6.12323e-17
vn 8.34248e-25 -1 -6.12323e-17
vn 0 -1 -6.12323e-17
vn 5.52956e-24 -1 -6.12323e-17
vn -1.96384e-19 -1 -6.155e-17
vn 1.98254e-20 -1 -6.12209e-17

# Mesh 'defaultobject' with 36 faces
g defaultobject
usemtl DefaultMaterial
f  1//1 2//1 3//1
f  2//2 1//2 4//2
f  4//3 1//3 5//3
f  6//4 3//4 7//4
f  3//5 6//5 8//5
f  3//6 8//6 9//6
f  3//7 9//7 10//7
f  3//8 10//8 1//8
f  10//9 5//9 1//9
f  5//10 10//10 9//10
f  5//11 9//11 11//11
f  5//12 11//12 12//12
f  5//13 12//13 13//13
f  5//14 13//14 14//14
f  14//15 4//15 5//15
f  4//16 14//16 2//16
f  2//17 14//17 15//17
f  2//18 15//18 16//18
f  2//19 7//19 3//19
f  7//20 2//20 16//20
f  7//21 16//21 17//21
f  7//22 17//22 18//22
f  8//23 11//23 9//23
f  11//23 8//23 19//24
f  19//25 8//25 6//25
f  19//26 6//26 7//26
f  19//27 7//27 20//27
f  20//28 7//28 18//28
f  17//29 20//29 18//29
f  20//29 17//29 16//30
f  20//29 16//30 15//31
f  20//29 15//31 19//32
f  19//32 15//31 11//33
f  11//33 15//31 14//34
f  11//33 14//34 12//35
f  12//35 14//34 13//36

