# {"id":"ID_30472","idOriginal":"ID_30472","origin":[14.27490799089835,48.31803392332208],"elevation":286.044,"wof":[{"Id":102049853,"Name":"Linz","Placetype":"county","Offset":-1},{"Id":101748071,"Name":"Linz","Placetype":"locality","Offset":-1},{"Id":85632785,"Name":"Austria","Placetype":"country","Offset":-1},{"Id":85681677,"Name":"Oberösterreich","Placetype":"region","Offset":-1},{"Id":85898453,"Name":"Urfahr","Placetype":"neighbourhood","Offset":-1}]}

# Attribution: City of Linz <http://geo.data.linz.gv.at/katalog/geodata/3d_geo_daten_lod2/>
# Longitude: 14.27490799089835
# Latitude: 48.31803392332208
# Elevation: 286.044

# File produced by Open Asset Import Library (http://www.assimp.sf.net)
# (assimp v3.1.0)


# 18 vertex positions
v  6.94 7.53 -8.675
v  7.424 10.711 -3.77
v  8.098 7.529 -8.51
v  0.676 10.711 -4.737
v  5.11 7.531 -8.936
v  1.321 7.675 -9.26
v  1.351 7.533 -9.471
v  0 7.532 4.61202e-16
v  6.75 7.532 0.967
v  1.351 5.79931e-16 -9.471
v  5.11 5.47172e-16 -8.936
v  8.098 5.21087e-16 -8.51
v  6.94 5.31191e-16 -8.675
v  1.321 5.67011e-16 -9.26
v  0 0 0
v  0.676 2.90058e-16 -4.737
v  6.75 -5.92117e-17 0.967
v  7.424 2.30846e-16 -3.77

# 0 UV coordinates

# 28 vertex normals
vn 0.0787858 0.832835 -0.547886
vn 0.078512 0.832865 -0.547879
vn 0.0785841 0.83291 -0.5478
vn 0.0785014 0.832877 -0.547862
vn 0.0785632 0.832196 -0.548888
vn -0.0784976 0.832932 0.547779
vn -0.0784781 0.832917 0.547805
vn 0.140905 0 -0.990023
vn 0.141194 -0.000147092 -0.989982
vn 0.141062 -4.73404e-05 -0.990001
vn 0.140905 9.63125e-05 -0.990023
vn 0.141143 0 -0.989989
vn -2.87623e-20 -1 -6.10335e-17
vn -0.989977 7.51415e-05 -0.141226
vn -0.989978 0.000684349 -0.141216
vn -0.989979 0 -0.141217
vn -0.990043 -0.000579251 -0.140765
vn -0.989977 8.64765e-18 -0.141227
vn 0 -1 -6.12211e-17
vn -0.141811 -6.06135e-17 0.989894
vn -0.141811 0 0.989894
vn 0.990035 -6.64236e-05 0.140822
vn 0.990035 0 0.140822
vn 0.990035 0 0.140822
vn -2.09427e-19 1 6.12049e-17
vn 0 -1 -6.12323e-17
vn 6.49363e-24 -1 -6.12323e-17
vn 1.45796e-22 -1 -6.12323e-17

# Mesh 'defaultobject' with 32 faces
g defaultobject
usemtl DefaultMaterial
f  1//1 2//1 3//1
f  2//2 1//2 4//2
f  4//3 1//3 5//3
f  4//4 5//4 6//4
f  6//5 5//5 7//5
f  8//6 2//6 4//6
f  2//7 8//7 9//7
f  5//8 10//8 7//8
f  10//9 5//9 1//9
f  10//10 1//10 3//10
f  10//11 3//11 11//11
f  11//12 3//12 12//12
f  11//13 12//13 13//13
f  6//14 8//14 4//14
f  8//15 6//15 7//15
f  8//16 7//16 10//16
f  8//17 10//17 14//17
f  8//18 14//18 15//18
f  15//19 14//19 16//19
f  15//20 9//20 8//20
f  9//20 15//20 17//21
f  9//22 3//22 2//22
f  3//23 9//23 17//23
f  3//23 17//23 12//24
f  12//25 17//25 18//25
f  16//19 17//26 15//19
f  17//26 16//19 14//19
f  17//26 14//19 18//27
f  18//27 14//19 10//28
f  18//27 10//28 11//13
f  18//27 11//13 13//13
f  18//27 13//13 12//13

