# {"id":"ID_22916","idOriginal":"ID_22916","origin":[14.272956571426288,48.293278297859835],"elevation":333.605,"wof":[{"Id":85681677,"Name":"Oberösterreich","Placetype":"region","Offset":-1},{"Id":102049853,"Name":"Linz","Placetype":"county","Offset":-1},{"Id":85898459,"Name":"Wegscheid","Placetype":"neighbourhood","Offset":-1},{"Id":101748071,"Name":"Linz","Placetype":"locality","Offset":-1},{"Id":85632785,"Name":"Austria","Placetype":"country","Offset":-1}]}

# Attribution: City of Linz <http://geo.data.linz.gv.at/katalog/geodata/3d_geo_daten_lod2/>
# Longitude: 14.272956571426288
# Latitude: 48.293278297859835
# Elevation: 333.605

# File produced by Open Asset Import Library (http://www.assimp.sf.net)
# (assimp v3.1.0)


# 24 vertex positions
v  15.288 7.105 4.14
v  4.923 11.021 4.809
v  9.892 7.047 9.663
v  11.862 9.845 0.795
v  11.432 11.021 -1.68
v  12.878 9.871 -0.283
v  10.351 10.161 -2.724
v  9.645 9.586 -3.44
v  8.507 9.564 -2.358
v  5.477 7.084 -5.46
v  0 7.084 4.3377e-16
v  4.819 7.077 -4.821
v  9.645 2.10639e-16 -3.44
v  8.507 1.44386e-16 -2.358
v  5.477 3.34329e-16 -5.46
v  0 0 0
v  4.819 2.95201e-16 -4.821
v  11.862 -4.86797e-17 0.795
v  15.288 -2.53502e-16 4.14
v  12.878 1.73288e-17 -0.283
v  10.351 1.66797e-16 -2.724
v  11.432 1.0287e-16 -1.68
v  4.923 -2.94466e-16 4.809
v  9.892 -5.91688e-16 9.663

# 0 UV coordinates

# 38 vertex normals
vn 0.350628 0.867975 0.351681
vn 0.350617 0.867918 0.351833
vn 0.350492 0.868074 0.351573
vn 0.350735 0.868006 0.351498
vn -0.350711 0.867896 -0.351792
vn -0.350424 0.868087 -0.351607
vn -0.351596 0.86739 -0.352157
vn -0.350422 0.868049 -0.351703
vn -0.350597 0.867985 -0.351688
vn -0.355522 0.863956 -0.356629
vn -0.68905 0 -0.724713
vn -0.68905 -0 -0.724713
vn -0.696673 0 -0.717388
vn -0.707254 -0.00192555 -0.706957
vn -0.706007 4.33651e-17 -0.708205
vn 0 1 6.12316e-17
vn 0.71536 0 -0.698756
vn 0.71536 0 -0.698756
vn 0.698598 0 -0.715515
vn 0.694753 -0.000154331 -0.719248
vn 0.694762 0 -0.71924
vn 0 1 6.12409e-17
vn 0.712062 0 -0.702116
vn 0.712062 0 -0.702116
vn -0.698776 -4.3802e-17 0.715341
vn -0.698779 3.06555e-06 0.715337
vn -0.698776 -6.60721e-06 0.715341
vn -0.698781 0 0.715336
vn 0.715283 0 0.698835
vn 0.727724 0 0.68587
vn 0.727724 0 0.68587
vn -4.44401e-24 -1 -6.12323e-17
vn 0 -1 -6.12323e-17
vn 0 -1 -6.12323e-17
vn -1.28989e-23 -1 -6.12323e-17
vn 3.99472e-24 -1 -6.12323e-17
vn -5.58049e-23 -1 -6.12323e-17
vn -5.72762e-24 -1 -6.12323e-17

# Mesh 'defaultobject' with 44 faces
g defaultobject
usemtl DefaultMaterial
f  1//1 2//1 3//1
f  2//2 1//2 4//2
f  2//3 4//3 5//3
f  5//4 4//4 6//4
f  7//5 2//5 5//5
f  2//6 7//6 8//6
f  2//7 8//7 9//7
f  2//8 9//8 10//8
f  2//9 10//9 11//9
f  11//10 10//10 12//10
f  13//11 9//11 8//11
f  9//11 13//11 14//12
f  15//13 12//13 10//13
f  12//14 15//14 11//14
f  11//15 15//15 16//15
f  16//16 15//16 17//16
f  14//17 10//17 9//17
f  10//17 14//17 15//18
f  1//19 18//19 4//19
f  18//19 1//19 19//19
f  6//20 7//20 5//20
f  7//21 6//21 20//21
f  7//21 20//21 21//21
f  21//22 20//22 22//22
f  21//23 8//23 7//23
f  8//23 21//23 13//24
f  16//25 2//25 11//25
f  2//25 16//25 3//26
f  3//27 16//25 23//27
f  3//27 23//27 24//28
f  3//29 19//29 1//29
f  19//29 3//29 24//29
f  4//30 20//30 6//30
f  20//30 4//30 18//31
f  20//32 18//32 22//32
f  17//33 23//33 16//33
f  23//33 17//33 15//34
f  23//33 15//34 14//35
f  23//33 14//35 24//36
f  24//36 14//35 13//37
f  24//36 13//37 21//33
f  24//36 21//33 22//32
f  24//36 22//32 18//32
f  24//36 18//32 19//38

