# {"id":"ID_58522","idOriginal":"ID_58522","origin":[14.280201290017642,48.27257413714968],"elevation":278.649,"wof":[{"Id":102049853,"Name":"Linz","Placetype":"county","Offset":-1},{"Id":85632785,"Name":"Austria","Placetype":"country","Offset":-1},{"Id":101748071,"Name":"Linz","Placetype":"locality","Offset":-1},{"Id":85681677,"Name":"Oberösterreich","Placetype":"region","Offset":-1},{"Id":85898459,"Name":"Wegscheid","Placetype":"neighbourhood","Offset":-1}]}

# Attribution: City of Linz <http://geo.data.linz.gv.at/katalog/geodata/3d_geo_daten_lod2/>
# Longitude: 14.280201290017642
# Latitude: 48.27257413714968
# Elevation: 278.649

# File produced by Open Asset Import Library (http://www.assimp.sf.net)
# (assimp v3.1.0)


# 8 vertex positions
v  0 1.599 9.79105e-17
v  2.95 1.599 0.06
v  2.01 1.599 -1.36
v  0.94 1.599 1.42
v  2.01 8.3276e-17 -1.36
v  0 0 0
v  0.94 -8.69499e-17 1.42
v  2.95 -3.67394e-18 0.06

# 0 UV coordinates

# 8 vertex normals
vn -0 1 0
vn -0.560392 0 -0.828227
vn -0.560392 5.07143e-17 -0.828227
vn -0.833853 -3.37995e-17 0.551987
vn -0.833853 0 0.551987
vn 0.560392 -0 0.828227
vn 0.833853 0 -0.551987
vn 0 -1 -6.12323e-17

# Mesh 'defaultobject' with 12 faces
g defaultobject
usemtl DefaultMaterial
f  1//1 2//1 3//1
f  2//1 1//1 4//1
f  5//2 1//2 3//2
f  1//2 5//2 6//3
f  6//4 4//4 1//4
f  4//4 6//4 7//5
f  7//6 2//6 4//6
f  2//6 7//6 8//6
f  8//7 3//7 2//7
f  3//7 8//7 5//7
f  8//8 6//8 5//8
f  6//8 8//8 7//8

