# {"id":"ID_27473","idOriginal":"ID_27473","origin":[14.284239333141203,48.27397328620985],"elevation":278.242,"wof":[{"Id":102049853,"Name":"Linz","Placetype":"county","Offset":-1},{"Id":85681677,"Name":"Oberösterreich","Placetype":"region","Offset":-1},{"Id":85898435,"Name":"Oed","Placetype":"neighbourhood","Offset":-1},{"Id":85632785,"Name":"Austria","Placetype":"country","Offset":-1},{"Id":101748071,"Name":"Linz","Placetype":"locality","Offset":-1}]}

# Attribution: City of Linz <http://geo.data.linz.gv.at/katalog/geodata/3d_geo_daten_lod2/>
# Longitude: 14.284239333141203
# Latitude: 48.27397328620985
# Elevation: 278.242

# File produced by Open Asset Import Library (http://www.assimp.sf.net)
# (assimp v3.1.0)


# 16 vertex positions
v  7.393 4.24 -7.413
v  10.593 7.887 0.465
v  12.963 4.181 -1.92
v  7.037 4.795 -7.056
v  3.706 9.994 -3.716
v  9.245 9.994 1.822
v  0 4.211 2.57849e-16
v  5.547 4.211 5.545
v  7.393 4.53915e-16 -7.413
v  7.037 4.32055e-16 -7.056
v  3.706 2.27539e-16 -3.716
v  0 0 0
v  5.547 -3.39533e-16 5.545
v  9.245 -1.11565e-16 1.822
v  10.593 -2.8473e-17 0.465
v  12.963 1.17566e-16 -1.92

# 0 UV coordinates

# 25 vertex normals
vn 0.523633 0.671929 -0.523756
vn 0.523052 0.672396 -0.523736
vn 0.523565 0.671951 -0.523796
vn 0.523507 0.672147 -0.523601
vn -0.52358 0.672033 0.523675
vn -0.523565 0.671983 0.523754
vn -0.708098 0 -0.706114
vn -0.708055 6.34276e-06 -0.706157
vn -0.708061 2.27327e-06 -0.706152
vn -0.708098 -0.000127573 -0.706115
vn -0.70806 -2.11247e-06 -0.706152
vn -0.708059 4.32394e-17 -0.706153
vn -0.706979 -4.33056e-17 0.707234
vn -0.706979 0 0.707234
vn 0.709485 -0 0.704721
vn 0.709466 1.39232e-05 0.70474
vn 0.709485 -1.01504e-05 0.704721
vn 0.70936 3.29813e-05 0.704847
vn 0.709455 -0.00013869 0.70475
vn 0.709334 0 0.704873
vn 0.702168 0 -0.712011
vn -5.14446e-24 -1 -6.12323e-17
vn 0 -1 -6.12323e-17
vn 7.07656e-24 -1 -6.12323e-17
vn 8.05077e-24 -1 -6.12323e-17

# Mesh 'defaultobject' with 28 faces
g defaultobject
usemtl DefaultMaterial
f  1//1 2//1 3//1
f  2//2 1//2 4//2
f  2//3 4//3 5//3
f  2//4 5//4 6//4
f  7//5 6//5 5//5
f  6//6 7//6 8//6
f  9//7 4//7 1//7
f  4//8 9//8 5//8
f  5//8 9//8 7//9
f  7//10 9//10 10//10
f  7//9 10//11 11//11
f  7//9 11//11 12//12
f  12//13 8//13 7//13
f  8//13 12//13 13//14
f  13//15 6//15 8//15
f  6//16 13//16 2//16
f  2//17 13//17 14//17
f  2//18 14//18 3//18
f  3//19 14//19 15//19
f  3//20 15//20 16//20
f  3//21 9//21 1//21
f  9//21 3//21 16//21
f  11//22 13//22 12//22
f  13//22 11//22 10//23
f  13//22 10//23 9//23
f  13//22 9//23 14//23
f  14//23 9//23 15//24
f  15//24 9//23 16//25

