# {"id":"ID_59946","idOriginal":"ID_59946","origin":[14.311970023638159,48.27510443055143],"elevation":260.486,"wof":[{"Id":102049853,"Name":"Linz","Placetype":"county","Offset":-1},{"Id":101748071,"Name":"Linz","Placetype":"locality","Offset":-1},{"Id":85681677,"Name":"Oberösterreich","Placetype":"region","Offset":-1},{"Id":85898435,"Name":"Oed","Placetype":"neighbourhood","Offset":-1},{"Id":85632785,"Name":"Austria","Placetype":"country","Offset":-1}]}

# Attribution: City of Linz <http://geo.data.linz.gv.at/katalog/geodata/3d_geo_daten_lod2/>
# Longitude: 14.311970023638159
# Latitude: 48.27510443055143
# Elevation: 260.486

# File produced by Open Asset Import Library (http://www.assimp.sf.net)
# (assimp v3.1.0)


# 12 vertex positions
v  0.758 12.347 -0.226
v  1.887 12.347 1.208
v  1.419 12.347 -0.424
v  0 12.347 7.56036e-16
v  0.355 12.347 1.239
v  0.463 12.347 1.617
v  0 0 0
v  0.463 -9.90127e-17 1.617
v  0.355 -7.58669e-17 1.239
v  1.887 -7.39687e-17 1.208
v  1.419 2.59625e-17 -0.424
v  0.758 1.38385e-17 -0.226

# 0 UV coordinates

# 14 vertex normals
vn -0 1 0
vn -0.961319 -1.68657e-17 0.275438
vn -0.961524 7.78746e-05 0.274721
vn -0.961367 0 0.275271
vn -8.75363e-21 -1 -6.12316e-17
vn 0.276058 -0 0.961141
vn 0.961257 0 -0.275655
vn -0.285724 0 -0.958312
vn -0.286949 8.19282e-05 -0.957946
vn -0.285724 -7.14713e-05 -0.958312
vn -0.286949 0 -0.957946
vn -1.77524e-24 -1 -6.12323e-17
vn 0 -1 -6.12323e-17
vn -1.12982e-23 -1 -6.12323e-17

# Mesh 'defaultobject' with 20 faces
g defaultobject
usemtl DefaultMaterial
f  1//1 2//1 3//1
f  2//1 1//1 4//1
f  2//1 4//1 5//1
f  2//1 5//1 6//1
f  7//2 5//2 4//2
f  5//3 7//3 6//3
f  6//4 7//4 8//4
f  8//5 7//5 9//5
f  8//6 2//6 6//6
f  2//6 8//6 10//6
f  10//7 3//7 2//7
f  3//7 10//7 11//7
f  1//8 7//8 4//8
f  7//9 1//9 3//9
f  7//10 3//10 12//10
f  12//11 3//11 11//11
f  9//5 10//12 8//5
f  10//12 9//5 7//5
f  10//12 7//5 12//13
f  10//12 12//13 11//14

