# {"id":"_12695","idOriginal":"_12695","origin":[14.315736351120094,48.30686663976202],"elevation":254.453}
# Longitude: 14.315736351120094
# Latitude: 48.30686663976202
# Elevation: 254.453

# File produced by Open Asset Import Library (http://www.assimp.sf.net)
# (assimp v3.1.0)

mtllib _12695.obj.mtl

# 16 vertex positions
v  4.074 5.106 10.409
v  13.182 5.106 -4.994
v  0 5.106 3.12652e-16
v  14.163 5.106 -5.366
v  19.277 5.106 7.58
v  5.285 5.106 12.824
v  5.094 5.106 12.896
v  18.318 5.106 7.94
v  19.277 -4.64141e-16 7.58
v  14.163 3.28573e-16 -5.366
v  0 0 0
v  13.182 3.05794e-16 -4.994
v  4.074 -6.37367e-16 10.409
v  5.094 -7.89652e-16 12.896
v  5.285 -7.85244e-16 12.824
v  18.318 -4.86185e-16 7.94

# 0 UV coordinates

# 19 vertex normals
vn 0 1 0
vn 0.930063 0 -0.367399
vn -0.354568 0 -0.93503
vn -0.354278 6.38185e-05 -0.93514
vn -0.354298 5.72604e-17 -0.935133
vn 0 -1 -6.12282e-17
vn -0.931215 -2.23174e-17 0.36447
vn -0.931215 0 0.36447
vn -0.925209 0 0.379458
vn 0.352732 -0 0.935725
vn 0.350911 7.77625e-05 0.936409
vn 0.352724 -0.00530706 0.935712
vn 0.350911 0 0.936409
vn 0.351445 0 0.936209
vn -2.68802e-24 -1 -6.12323e-17
vn 2.00447e-24 -1 -6.12323e-17
vn 3.29709e-24 -1 -6.12323e-17
vn 4.82623e-23 -1 -6.12323e-17
vn 0 -1 -6.12968e-17

# Mesh 'defaultobject' with 28 faces
g defaultobject
usemtl DefaultMaterial
f  1//1 2//1 3//1
f  2//1 1//1 4//1
f  4//1 1//1 5//1
f  5//1 1//1 6//1
f  6//1 1//1 7//1
f  5//1 6//1 8//1
f  9//2 4//2 5//2
f  4//2 9//2 10//2
f  10//3 2//3 4//3
f  2//4 10//4 3//4
f  3//5 10//5 11//5
f  11//6 10//6 12//6
f  11//7 1//7 3//7
f  1//7 11//7 13//8
f  1//9 13//9 7//9
f  7//9 13//9 14//9
f  14//10 6//10 7//10
f  6//11 14//11 8//11
f  8//12 14//12 15//12
f  8//13 15//13 16//13
f  8//14 16//14 5//14
f  5//14 16//14 9//14
f  12//6 13//15 11//6
f  13//15 12//6 10//6
f  13//15 10//6 9//16
f  13//15 9//16 15//17
f  13//15 15//17 14//18
f  15//17 9//16 16//19

