# File produced by Open Asset Import Library (http://www.assimp.sf.net)
# (assimp v3.1.0)

mtllib ID_10558.obj.mtl

# 20 vertex positions
v  10.5 11.36 -3.981
v  16.066 10.904 14.682
v  11.406 10.904 -4.204
v  10.201 13.856 16.13
v  5.541 13.856 -2.756
v  4.337 10.905 17.577
v  0.607 11.211 -0.156
v  0 10.905 6.67739e-16
v  0.357 11.247 -1.475
v  0.283 11.21 -1.456
v  0.607 9.55225e-18 -0.156
v  0 0 0
v  11.406 2.57421e-16 -4.204
v  0.283 8.91543e-17 -1.456
v  10.5 2.43766e-16 -3.981
v  5.541 1.68756e-16 -2.756
v  0.357 9.03177e-17 -1.475
v  4.337 -1.07628e-15 17.577
v  16.066 -8.99013e-16 14.682
v  10.201 -9.87678e-16 16.13

# 0 UV coordinates

# 34 vertex normals
vn 0.426305 0.898443 -0.105188
vn 0.426255 0.898468 -0.105173
vn 0.426245 0.898473 -0.105173
vn -0.425989 0.898602 0.10511
vn -0.426238 0.898478 0.10516
vn -0.426207 0.898492 0.105164
vn -0.423102 0.900006 0.104757
vn -0.426173 0.898493 0.105298
vn -0.248913 0 -0.968526
vn -0.248913 5.93051e-17 -0.968526
vn -0.239004 0 -0.971019
vn -0.239851 -7.16856e-05 -0.97081
vn -0.239856 -7.39127e-05 -0.970809
vn -0.245759 -0.00623687 -0.969311
vn -0.239844 -0 -0.970811
vn 2.85845e-21 1 6.12281e-17
vn 0 1 6.12356e-17
vn -3.93786e-21 1 6.12163e-17
vn -0.970318 0 0.241833
vn -0.970318 0 0.241833
vn -0.970882 -1.46687e-17 0.239558
vn -0.970882 0 0.239558
vn 0.239574 -0 0.970878
vn 0.239671 -4.34217e-05 0.970854
vn 0.239633 0 0.970864
vn 5.40459e-20 1 6.14442e-17
vn 0.970882 0 -0.239559
vn 0 -1 -6.12323e-17
vn -1.48834e-22 -1 -6.12322e-17
vn 0 -1 -6.12325e-17
vn 0 -1 -6.12324e-17
vn -1.63088e-23 -1 -6.12323e-17
vn 1.26139e-23 -1 -6.12323e-17
vn 0 -1 -6.12323e-17

# Mesh 'defaultobject' with 36 faces
g defaultobject
usemtl DefaultMaterial
f  1//1 2//1 3//1
f  2//2 1//2 4//2
f  4//3 1//3 5//3
f  6//4 7//4 8//4
f  7//5 6//5 5//5
f  5//6 6//6 4//6
f  7//7 9//7 10//7
f  9//8 7//8 5//8
f  11//9 8//9 7//9
f  8//9 11//9 12//10
f  13//11 1//11 3//11
f  1//12 13//12 5//12
f  5//12 13//12 9//13
f  9//14 13//14 10//14
f  10//15 13//15 14//15
f  14//16 13//16 15//16
f  14//16 15//16 16//17
f  14//16 16//17 17//18
f  10//19 11//19 7//19
f  11//19 10//19 14//20
f  12//21 6//21 8//21
f  6//21 12//21 18//22
f  18//23 4//23 6//23
f  4//24 18//24 2//24
f  2//25 18//25 19//25
f  19//26 18//26 20//26
f  19//27 3//27 2//27
f  3//27 19//27 13//27
f  12//28 20//28 18//28
f  20//28 12//28 11//29
f  20//28 11//29 14//30
f  20//28 14//30 17//31
f  20//28 17//31 16//32
f  20//28 16//32 19//33
f  19//33 16//32 15//28
f  19//33 15//28 13//34

