# File produced by Open Asset Import Library (http://www.assimp.sf.net)
# (assimp v3.1.0)

mtllib ID_15325.obj.mtl

# 24 vertex positions
v  14.306 13.61 -12.386
v  14.855 13.297 -10.513
v  15.23 13.298 -12.177
v  9.294 15.306 -13.522
v  11.894 13.297 2.597
v  5.947 15.306 1.298
v  2.374 13.297 -10.513
v  4.157 13.568 -14.686
v  3.358 13.298 -14.867
v  2.199 13.298 -9.736
v  1.274 13.297 -5.642
v  0 13.298 8.14268e-16
v  3.358 9.10341e-16 -14.867
v  0 0 0
v  2.199 5.96158e-16 -9.736
v  2.374 6.43736e-16 -10.513
v  1.274 3.45473e-16 -5.642
v  11.894 -1.5902e-16 2.597
v  5.947 -7.94796e-17 1.298
v  14.855 6.43736e-16 -10.513
v  15.23 7.45626e-16 -12.177
v  14.306 7.58424e-16 -12.386
v  9.294 8.27984e-16 -13.522
v  4.157 8.99258e-16 -14.686

# 0 UV coordinates

# 39 vertex normals
vn 0.305038 0.949814 0.0693145
vn 0.305681 0.949624 0.0690942
vn 0.305705 0.949619 0.069046
vn 0.305716 0.949616 0.0690439
vn -0.305357 0.94975 -0.0687923
vn -0.305671 0.949638 -0.0689336
vn -0.305713 0.949617 -0.0690432
vn -0.303923 0.950145 -0.0696745
vn -0.305924 0.949561 -0.0688885
vn -0.305556 0.949659 -0.0691648
vn -0.975401 0 -0.22044
vn -0.975563 -0.000247278 -0.219721
vn -0.975413 2.19969e-05 -0.220385
vn -0.975441 -6.86661e-05 -0.220261
vn -0.975428 1.34907e-17 -0.220319
vn 8.8464e-19 1 6.14825e-17
vn -5.05589e-20 1 6.1223e-17
vn -6.84478e-20 1 6.12265e-17
vn -0.213241 -5.9824e-17 0.977
vn -0.21338 5.64334e-05 0.976969
vn -0.21332 0 0.976982
vn -4.45015e-21 -1 -6.12162e-17
vn 0.97543 -0 0.220309
vn 0.975534 0 0.219847
vn 0.220617 0 -0.975361
vn 0.221059 3.15813e-05 -0.97526
vn 0.220988 2.57768e-06 -0.975276
vn 0.220946 -3.38941e-05 -0.975286
vn 0.220617 -0.000342627 -0.97536
vn 0.221049 3.16495e-05 -0.975263
vn 0.220989 3.42599e-06 -0.975276
vn 0.220935 0 -0.975289
vn -1.63807e-23 -1 -6.12324e-17
vn 2.41628e-23 -1 -6.12324e-17
vn -1.45991e-23 -1 -6.12323e-17
vn 4.46578e-23 -1 -6.12323e-17
vn 0 -1 -6.12323e-17
vn -7.65157e-23 -1 -6.12323e-17
vn 8.28775e-24 -1 -6.12323e-17

# Mesh 'defaultobject' with 44 faces
g defaultobject
usemtl DefaultMaterial
f  1//1 2//1 3//1
f  2//2 1//2 4//2
f  2//3 4//3 5//3
f  5//4 4//4 6//4
f  7//5 8//5 9//5
f  8//6 7//6 4//6
f  4//7 7//7 6//7
f  6//8 7//8 10//8
f  6//9 10//9 11//9
f  6//10 11//10 12//10
f  13//11 7//11 9//11
f  7//12 13//12 10//12
f  10//13 13//13 11//13
f  11//14 13//14 12//14
f  12//15 13//15 14//15
f  14//16 13//16 15//16
f  15//16 13//16 16//17
f  14//16 15//16 17//18
f  14//19 6//19 12//19
f  6//20 14//20 5//20
f  5//21 14//21 18//21
f  18//22 14//22 19//22
f  18//23 2//23 5//23
f  2//23 18//23 20//23
f  2//24 20//24 3//24
f  3//24 20//24 21//24
f  21//25 1//25 3//25
f  1//26 21//26 4//26
f  4//27 21//27 8//27
f  8//28 21//28 9//28
f  9//29 21//29 22//29
f  9//30 22//30 23//30
f  9//31 23//31 24//31
f  9//32 24//32 13//32
f  20//33 22//33 21//33
f  22//33 20//33 23//34
f  23//34 20//33 18//22
f  23//34 18//22 24//35
f  24//35 18//22 19//22
f  24//35 19//22 13//36
f  13//36 19//22 16//37
f  16//37 19//22 15//38
f  15//38 19//22 17//39
f  17//39 19//22 14//22

