# File produced by Open Asset Import Library (http://www.assimp.sf.net)
# (assimp v3.1.0)

mtllib ID_12514.obj.mtl

# 17 vertex positions
v  6.392 15.229 3.476
v  15.719 10.619 16.858
v  9.854 10.629 -2.917
v  10.776 15.229 18.324
v  0 10.624 6.50532e-16
v  2.731 10.628 9.25
v  3.694 10.627 12.513
v  6.323 11.076 19.645
v  5.843 10.628 19.788
v  5.843 -1.21167e-15 19.788
v  6.323 -1.20291e-15 19.645
v  15.719 -1.03225e-15 16.858
v  10.776 -1.12202e-15 18.324
v  9.854 1.78615e-16 -2.917
v  0 0 0
v  2.731 -5.66399e-16 9.25
v  3.694 -7.662e-16 12.513

# 0 UV coordinates

# 27 vertex normals
vn 0.639861 0.744786 -0.189398
vn 0.639264 0.745463 -0.188748
vn -0.189545 0.745461 -0.639031
vn -0.639472 0.745354 0.188477
vn -0.639233 0.745492 0.188739
vn -0.639351 0.745345 0.188918
vn -0.639265 0.745471 0.188714
vn -0.639406 0.745335 0.188775
vn 0.284371 3.76351e-05 0.958714
vn 0.284426 0.00126962 0.958697
vn 0.284425 0 0.958698
vn 0.285515 -0.00110277 0.958374
vn 0.28437 0 0.958715
vn 9.85405e-20 -1 -6.09309e-17
vn 0.958722 0 -0.284344
vn -0.283846 0 -0.95887
vn -0.283846 5.87138e-17 -0.95887
vn -0.959073 -1.73385e-17 0.28316
vn -0.959073 0 0.28316
vn -0.959103 0 0.283057
vn -0.959033 -7.89341e-05 0.283294
vn -0.959103 0.000175976 0.283057
vn -0.959033 0 0.283294
vn 9.95611e-24 -1 -6.12323e-17
vn 0 -1 -6.12323e-17
vn 0 -1 -6.12323e-17
vn 0 -1 -6.12323e-17

# Mesh 'defaultobject' with 30 faces
g defaultobject
usemtl DefaultMaterial
f  1//1 2//1 3//1
f  2//2 1//2 4//2
f  1//3 3//3 5//3
f  6//4 1//4 5//4
f  1//5 6//5 4//5
f  4//6 6//6 7//6
f  4//7 7//7 8//7
f  8//8 7//8 9//8
f  8//9 2//9 4//9
f  2//10 8//10 9//10
f  2//11 9//11 10//11
f  2//12 10//12 11//12
f  2//13 11//13 12//13
f  12//14 11//14 13//14
f  2//15 14//15 3//15
f  14//15 2//15 12//15
f  14//16 5//16 3//16
f  5//16 14//16 15//17
f  15//18 6//18 5//18
f  6//18 15//18 16//19
f  6//20 16//20 7//20
f  7//21 16//21 9//21
f  9//22 16//22 17//22
f  9//23 17//23 10//23
f  13//14 14//24 12//14
f  14//24 13//14 11//14
f  14//24 11//14 10//25
f  14//24 10//25 17//26
f  14//24 17//26 16//27
f  14//24 16//27 15//26

