# File produced by Open Asset Import Library (http://www.assimp.sf.net)
# (assimp v3.1.0)

mtllib ID_11247.obj.mtl

# 12 vertex positions
v  7.481 12.486 19.234
v  9.508 12.486 -3.682
v  0 12.486 7.64547e-16
v  10.225 12.486 -3.956
v  17.041 12.486 15.518
v  17.689 12.486 15.376
v  17.689 -9.41508e-16 15.376
v  10.225 2.42235e-16 -3.956
v  0 0 0
v  9.508 2.25457e-16 -3.682
v  7.481 -1.17774e-15 19.234
v  17.041 -9.50203e-16 15.518

# 0 UV coordinates

# 14 vertex normals
vn 0 1 0
vn 0.932882 0 -0.360182
vn -0.35697 0 -0.934116
vn -0.361121 -0.000273373 -0.932519
vn -0.36083 5.71072e-17 -0.932631
vn 0 1 6.12308e-17
vn -0.931986 -2.21963e-17 0.362493
vn -0.931986 0 0.362493
vn 0.214056 -0 0.976821
vn 0.362296 -0 0.932063
vn -2.0127e-24 -1 -6.12323e-17
vn 0 -1 -6.12324e-17
vn 6.00733e-24 -1 -6.12323e-17
vn 8.37713e-23 -1 -6.12324e-17

# Mesh 'defaultobject' with 20 faces
g defaultobject
usemtl DefaultMaterial
f  1//1 2//1 3//1
f  2//1 1//1 4//1
f  4//1 1//1 5//1
f  4//1 5//1 6//1
f  7//2 4//2 6//2
f  4//2 7//2 8//2
f  8//3 2//3 4//3
f  2//4 8//4 3//4
f  3//5 8//5 9//5
f  9//6 8//6 10//6
f  9//7 1//7 3//7
f  1//7 9//7 11//8
f  12//9 6//9 5//9
f  6//9 12//9 7//9
f  11//10 5//10 1//10
f  5//10 11//10 12//10
f  10//11 11//11 9//11
f  11//11 10//11 8//12
f  11//11 8//12 12//13
f  12//13 8//12 7//14

