# File produced by Open Asset Import Library (http://www.assimp.sf.net)
# (assimp v3.1.0)

mtllib ID_15335.obj.mtl

# 34 vertex positions
v  13.647 10.504 15.731
v  4.73 15.13 -1.047
v  8.649 15.13 16.921
v  9.751 10.499 -2.159
v  0.666 11.382 -0.148
v  0 10.767 6.59289e-16
v  0.002 10.767 0.01
v  1.466 10.768 6.719
v  1.785 10.778 8.131
v  1.863 10.779 8.484
v  2.1 10.776 9.586
v  2.174 10.775 9.927
v  2.457 10.768 11.261
v  2.993 10.766 13.73
v  2.704 10.502 13.783
v  3.649 10.503 18.111
v  3.938 10.77 18.043
v  0 0 0
v  0.002 -6.12323e-19 0.01
v  1.466 -4.1142e-16 6.719
v  2.993 -8.4072e-16 13.73
v  2.457 -6.89537e-16 11.261
v  1.785 -4.9788e-16 8.131
v  1.863 -5.19495e-16 8.484
v  2.1 -5.86973e-16 9.586
v  2.174 -6.07853e-16 9.927
v  3.649 -1.10898e-15 18.111
v  2.704 -8.43965e-16 13.783
v  9.751 1.32201e-16 -2.159
v  4.73 6.41103e-17 -1.047
v  0.666 9.06239e-18 -0.148
v  3.938 -1.10482e-15 18.043
v  13.647 -9.63246e-16 15.731
v  8.649 -1.03611e-15 16.921

# 0 UV coordinates

# 51 vertex normals
vn 0.653825 0.743086 -0.142606
vn 0.653806 0.743105 -0.14259
vn -0.653791 0.743117 0.142598
vn -0.654142 0.742762 0.14284
vn -0.632948 0.763774 0.12659
vn -0.653756 0.743157 0.142548
vn -0.653635 0.743292 0.142405
vn -0.65356 0.743376 0.142305
vn -0.653793 0.743109 0.14263
vn -0.654824 0.741882 0.14428
vn -0.653825 0.743086 0.142604
vn -0.653791 0.743129 0.142535
vn -0.653205 0.74366 0.142453
vn -0.653785 0.74314 0.142508
vn -0.567515 0.717246 0.404333
vn -0.980581 -1.20086e-17 0.196116
vn -0.980581 0 0.196116
vn -0.977009 0 0.213197
vn -0.975399 -0.00470415 0.220396
vn -0.976446 -0.00103813 0.215761
vn -0.977639 0.00348914 0.210264
vn -0.977251 0.0018016 0.212078
vn -0.978204 0.00615887 0.207553
vn -0.977236 0.00113333 0.212151
vn -0.977009 -0.000263236 0.213197
vn -0.977093 0 0.212811
vn -8.63114e-21 -1 -6.12293e-17
vn -4.26875e-21 -1 -6.12315e-17
vn 3.82341e-20 -1 -6.12415e-17
vn 2.97363e-20 -1 -6.124e-17
vn -3.58792e-20 -1 -6.12264e-17
vn -0.976982 0 0.21332
vn -0.976982 0 0.21332
vn -0.180384 0 -0.983596
vn -0.21611 0.000137175 -0.976369
vn -0.216122 0 -0.976366
vn -0.216588 -0.000389547 -0.976263
vn -0.216178 5.97844e-17 -0.976354
vn -4.77556e-21 -1 -6.12609e-17
vn 0 1 6.12333e-17
vn 0.231653 3.72078e-05 0.972798
vn 0.231576 -0.00289671 0.972812
vn 0.231577 0 0.972817
vn 0.229042 0.00254858 0.973413
vn 0.231652 0 0.972799
vn -7.14531e-20 -1 -6.14815e-17
vn 0.977098 0 -0.212788
vn 0.977098 0 -0.212788
vn 1.54384e-24 -1 -6.12323e-17
vn 0 -1 -6.12247e-17
vn -5.63592e-22 -1 -6.12322e-17

# Mesh 'defaultobject' with 64 faces
g defaultobject
usemtl DefaultMaterial
f  1//1 2//1 3//1
f  2//2 1//2 4//2
f  2//3 5//3 3//3
f  6//4 3//4 5//4
f  7//5 3//5 6//5
f  8//6 3//6 7//6
f  9//7 3//7 8//7
f  10//8 3//8 9//8
f  11//9 3//9 10//9
f  12//10 3//10 11//10
f  13//11 3//11 12//11
f  14//12 3//12 13//12
f  15//13 16//13 14//13
f  3//14 14//14 16//14
f  17//15 3//15 16//15
f  18//16 7//16 6//16
f  7//16 18//16 19//17
f  19//18 8//18 7//18
f  8//19 19//19 9//19
f  9//20 19//20 10//20
f  10//21 19//21 11//21
f  11//22 19//22 12//22
f  12//23 19//23 13//23
f  13//24 19//24 14//24
f  14//25 19//25 20//25
f  14//26 20//26 21//26
f  21//27 20//27 22//27
f  22//27 20//27 23//28
f  22//27 23//28 24//29
f  22//27 24//29 25//30
f  22//27 25//30 26//31
f  15//32 27//32 16//32
f  27//32 15//32 28//33
f  21//34 15//34 14//34
f  15//34 21//34 28//34
f  4//35 5//35 2//35
f  5//36 4//36 29//36
f  5//37 29//37 6//37
f  6//38 29//38 18//38
f  18//39 29//39 30//39
f  18//40 30//40 31//40
f  17//41 1//41 3//41
f  1//42 17//42 16//42
f  1//43 16//43 27//43
f  1//44 27//44 32//44
f  1//45 32//45 33//45
f  33//46 32//46 34//46
f  33//47 4//47 1//47
f  4//47 33//47 29//48
f  21//27 29//39 33//46
f  29//39 21//27 22//27
f  29//39 22//27 26//31
f  29//39 26//31 25//30
f  29//39 25//30 24//29
f  29//39 24//29 23//28
f  29//39 23//28 20//27
f  29//39 20//27 19//49
f  29//39 19//49 30//39
f  30//39 19//49 18//39
f  30//39 18//39 31//50
f  28//51 32//46 27//51
f  32//46 28//51 34//46
f  34//46 28//51 33//46
f  33//46 28//51 21//27

