# File produced by Open Asset Import Library (http://www.assimp.sf.net)
# (assimp v3.1.0)

mtllib ID_16027.obj.mtl

# 18 vertex positions
v  1.662 10.552 5.507
v  18.2 7.348 6.626
v  16.518 10.552 1.118
v  6.195 7.348 10.172
v  3.325 7.348 11.02
v  7.527 7.387 -2.158
v  14.835 7.346 -4.394
v  6.195 7.381 -1.776
v  0 7.352 4.5018e-16
v  0 0 0
v  6.195 1.08749e-16 -1.776
v  7.527 1.32139e-16 -2.158
v  14.835 2.69055e-16 -4.394
v  1.662 -3.37207e-16 5.507
v  3.325 -6.7478e-16 11.02
v  18.2 -4.05725e-16 6.626
v  6.195 -6.22855e-16 10.172
v  16.518 -6.84578e-17 1.118

# 0 UV coordinates

# 31 vertex normals
vn 0.137749 0.873859 0.466258
vn 0.137739 0.873828 0.466318
vn 0.137775 0.873837 0.46629
vn -0.137746 0.873877 -0.466224
vn -0.137742 0.873874 -0.466232
vn -0.137627 0.873927 -0.466166
vn -0.137748 0.873879 -0.46622
vn -0.275582 0 -0.961278
vn -0.275675 8.42374e-05 -0.961251
vn -0.275582 -1.80294e-05 -0.961278
vn -0.275674 0 -0.961251
vn -0.292578 0 -0.956242
vn -0.292578 0 -0.956242
vn -0.957351 -1.76916e-17 0.288926
vn -0.957381 5.63828e-05 0.288827
vn -0.957351 -0.000105638 0.288926
vn -0.95739 0 0.288797
vn 0.28336 -0 0.959014
vn 0.283278 3.50861e-05 0.959038
vn 0.283294 0 0.959033
vn 3.2808e-20 -1 -6.11541e-17
vn 0.9564 0 -0.29206
vn 0.956408 1.55062e-05 -0.292033
vn 0.9564 -2.90343e-05 -0.29206
vn 0.956411 0 -0.292024
vn 2.9375e-24 -1 -6.12323e-17
vn 4.74794e-24 -1 -6.12323e-17
vn 2.37203e-24 -1 -6.12323e-17
vn -9.87179e-24 -1 -6.12324e-17
vn 8.30362e-24 -1 -6.12323e-17
vn -1.42819e-24 -1 -6.12323e-17

# Mesh 'defaultobject' with 32 faces
g defaultobject
usemtl DefaultMaterial
f  1//1 2//1 3//1
f  2//2 1//2 4//2
f  4//3 1//3 5//3
f  6//4 3//4 7//4
f  3//4 6//4 1//5
f  1//6 6//6 8//6
f  1//7 8//7 9//7
f  8//8 10//8 9//8
f  10//9 8//9 6//9
f  10//10 6//10 11//10
f  11//11 6//11 12//11
f  7//12 12//12 6//12
f  12//12 7//12 13//13
f  10//14 1//14 9//14
f  1//15 10//15 5//15
f  5//16 10//16 14//16
f  5//17 14//17 15//17
f  15//18 4//18 5//18
f  4//19 15//19 2//19
f  2//20 15//20 16//20
f  16//21 15//21 17//21
f  16//22 3//22 2//22
f  3//23 16//23 7//23
f  7//24 16//24 18//24
f  7//25 18//25 13//25
f  17//21 18//26 16//21
f  18//26 17//21 15//21
f  18//26 15//21 14//27
f  18//26 14//27 13//28
f  13//28 14//27 12//29
f  12//29 14//27 11//30
f  11//30 14//27 10//31

