# File produced by Open Asset Import Library (http://www.assimp.sf.net)
# (assimp v3.1.0)

mtllib ID_18543.obj.mtl

# 32 vertex positions
v  2.471 3.095 4.88
v  1.371 2.466 -0.637
v  0 2.458 1.50509e-16
v  21.315 3.095 -4.878
v  4.482 2.45 -2.401
v  18.56 2.445 -9.741
v  18.771 2.445 -9.851
v  20.889 2.215 -13.168
v  17.841 2.215 -11.59
v  20.914 2.222 -13.118
v  25.028 3.095 -6.8
v  21.263 2.22 -13.317
v  24.613 2.999 -7.519
v  20.914 8.03246e-16 -13.118
v  21.263 8.15431e-16 -13.317
v  20.889 8.06307e-16 -13.168
v  17.841 7.09683e-16 -11.59
v  18.771 6.032e-16 -9.851
v  4.482 1.47019e-16 -2.401
v  18.56 5.96464e-16 -9.741
v  1.371 3.9005e-17 -0.637
v  0 0 0
v  25.028 4.1638e-16 -6.8
v  24.613 4.60406e-16 -7.519
v  2.471 -2.98814e-16 4.88
v  21.315 2.98691e-16 -4.878
v  17.132 3.096 -12.916
v  20.889 2.124 -13.168
v  20.2 3.097 -14.507
v  17.841 2.125 -11.59
v  17.132 7.90877e-16 -12.916
v  20.2 8.88298e-16 -14.507

# 0 UV coordinates

# 52 vertex normals
vn -0.0534604 0.993286 -0.102587
vn -0.0531547 0.993296 -0.102649
vn -0.0531893 0.993277 -0.102814
vn -0.0531654 0.993296 -0.102647
vn -0.0534333 0.993297 -0.102495
vn -0.0532647 0.993266 -0.102884
vn -0.053 0.993298 -0.102717
vn -0.0748578 0.992019 -0.101458
vn -0.0531361 0.993297 -0.102651
vn -0.0529192 0.993294 -0.102791
vn -0.758393 0.53955 0.365687
vn -0.495334 0 -0.868702
vn -0.495334 0 -0.868702
vn -0.459756 0 -0.888045
vn -0.462277 0 -0.886736
vn -0.462316 -4.33326e-06 -0.886715
vn -0.462316 -0 -0.886715
vn -2.52323e-18 1 5.55112e-17
vn -0.493245 0 -0.86989
vn -0.493245 0 -0.86989
vn -0.421364 0 -0.906892
vn -0.421364 5.55311e-17 -0.906892
vn 0.894431 0 -0.447207
vn 0.866086 0 -0.499895
vn 0.865869 -0.000119907 -0.500271
vn 0.865887 0 -0.50024
vn 0 1 6.12625e-17
vn -0.881819 0 0.471588
vn -0.881819 0 0.471588
vn -0.892149 0 0.451742
vn -0.892149 0 0.451742
vn 0.459836 -0 0.888004
vn 0.459703 0 0.888073
vn 0 -1 -6.12323e-17
vn 1.53673e-23 -1 -6.12323e-17
vn 0 -1 -6.12323e-17
vn 1.79086e-24 -1 -6.12323e-17
vn 4.53416e-24 -1 -6.12323e-17
vn 3.97435e-23 -1 -6.12324e-17
vn 8.23917e-24 -1 -6.12323e-17
vn 6.57519e-22 -1 -6.1231e-17
vn 0 -1 -6.12324e-17
vn 0.249625 0.839922 0.481891
vn 0.249642 0.840046 0.481666
vn -0.881855 0 0.47152
vn 0.459756 -0 0.888045
vn 0.459756 0 0.888045
vn 0.889188 0 -0.457543
vn 0.889188 0 -0.457543
vn -0.460359 0 -0.887733
vn -0.460359 -0 -0.887733
vn -2.54704e-23 -1 -6.12324e-17

# Mesh 'defaultobject' with 60 faces
g defaultobject
usemtl DefaultMaterial
f  1//1 2//1 3//1
f  2//2 1//2 4//2
f  2//3 4//3 5//3
f  5//4 4//4 6//4
f  6//5 4//5 7//5
f  7//6 8//6 9//6
f  8//7 7//7 4//7
f  8//8 4//8 10//8
f  10//9 4//9 11//9
f  10//10 11//10 12//10
f  12//11 11//11 13//11
f  12//12 14//12 10//12
f  14//12 12//12 15//13
f  16//14 9//14 8//14
f  9//14 16//14 17//14
f  18//15 6//15 7//15
f  6//16 18//16 5//16
f  5//16 18//16 19//17
f  19//18 18//18 20//18
f  5//19 21//19 2//19
f  21//19 5//19 19//20
f  21//21 3//21 2//21
f  3//21 21//21 22//22
f  14//23 8//23 10//23
f  8//23 14//23 16//23
f  23//24 13//24 11//24
f  13//25 23//25 12//25
f  12//26 23//26 15//26
f  15//27 23//27 24//27
f  9//28 18//28 7//28
f  18//28 9//28 17//29
f  3//30 25//30 1//30
f  25//30 3//30 22//31
f  25//32 4//32 1//32
f  4//32 25//32 26//32
f  4//33 26//33 11//33
f  11//33 26//33 23//33
f  22//34 26//34 25//34
f  26//34 22//34 21//35
f  26//34 21//35 19//36
f  26//34 19//36 20//37
f  26//34 20//37 23//38
f  23//38 20//37 18//39
f  23//38 18//39 17//34
f  23//38 17//34 14//40
f  14//40 17//34 16//41
f  14//40 24//42 23//38
f  24//42 14//40 15//34
f  27//43 28//43 29//43
f  28//44 27//44 30//44
f  31//45 30//45 27//45
f  30//45 31//45 17//45
f  17//46 28//46 30//46
f  28//46 17//46 16//47
f  28//48 32//48 29//48
f  32//48 28//48 16//49
f  32//50 27//50 29//50
f  27//50 32//50 31//51
f  32//52 17//34 31//52
f  17//34 32//52 16//41

