# File produced by Open Asset Import Library (http://www.assimp.sf.net)
# (assimp v3.1.0)

mtllib ID_31294.obj.mtl

# 16 vertex positions
v  4.278 3.288 -4.761
v  9.027 3.141 -1.061
v  6.155 3.288 -6.85
v  0 3.288 2.01332e-16
v  9.824 3.1 0.544
v  5.643 3.101 5.163
v  9.961 3.093 0.821
v  5.916 3.092 5.413
v  6.155 4.19442e-16 -6.85
v  4.278 2.91527e-16 -4.761
v  0 0 0
v  5.643 -3.16143e-16 5.163
v  5.916 -3.31451e-16 5.413
v  9.027 6.49675e-17 -1.061
v  9.961 -5.02717e-17 0.821
v  9.824 -3.33104e-17 0.544

# 0 UV coordinates

# 27 vertex normals
vn 0.0182022 0.9997 0.016355
vn 0.018202 0.9997 0.0163554
vn 0.0182179 0.999698 0.016491
vn 0.0182294 0.999701 0.0162843
vn 0.0182028 0.999702 0.0162603
vn 0.0181318 0.999704 0.0161897
vn -0.743843 0 -0.668355
vn -0.74383 1.62681e-05 -0.668369
vn -0.743843 -3.69738e-05 -0.668355
vn -0.74383 4.09258e-17 -0.668369
vn -0.675032 -4.51765e-17 0.737789
vn -0.675032 0 0.737789
vn -0.675358 0 0.73749
vn -0.675358 0 0.73749
vn 0.895816 0 -0.444426
vn 0.895651 0 -0.444756
vn 0.896351 -0.000910655 -0.443345
vn 0.895756 0 -0.444546
vn 0 1 6.12315e-17
vn 0.750386 0 0.661
vn 0.750386 0 0.661
vn -4.67485e-23 -1 -6.12324e-17
vn -2.82823e-25 -1 -6.12323e-17
vn 6.25061e-25 -1 -6.12324e-17
vn 4.31555e-25 -1 -6.12323e-17
vn 6.88625e-25 -1 -6.12323e-17
vn 0 -1 -6.12323e-17

# Mesh 'defaultobject' with 28 faces
g defaultobject
usemtl DefaultMaterial
f  1//1 2//1 3//1
f  2//1 1//1 4//2
f  2//3 4//3 5//3
f  5//4 4//4 6//4
f  5//5 6//5 7//5
f  7//6 6//6 8//6
f  9//7 1//7 3//7
f  1//8 9//8 4//8
f  4//9 9//9 10//9
f  4//10 10//10 11//10
f  11//11 6//11 4//11
f  6//11 11//11 12//12
f  6//13 12//13 8//13
f  8//13 12//13 13//14
f  2//15 9//15 3//15
f  9//15 2//15 14//15
f  14//16 2//16 5//16
f  14//17 5//17 7//17
f  14//18 7//18 15//18
f  14//19 15//19 16//19
f  8//20 15//20 7//20
f  15//20 8//20 13//21
f  12//22 15//22 13//22
f  15//22 12//22 11//23
f  15//22 11//23 16//24
f  16//24 11//23 14//25
f  14//25 11//23 10//26
f  14//25 10//26 9//27

