# File produced by Open Asset Import Library (http://www.assimp.sf.net)
# (assimp v3.1.0)

mtllib ID_9698.obj.mtl

# 24 vertex positions
v  10.529 13.797 -3.888
v  18.291 13.506 14.779
v  11.352 13.506 -4.192
v  17.472 13.795 15.079
v  5.675 15.513 -2.096
v  12.609 15.513 16.862
v  7.691 13.776 18.666
v  4.182 13.505 11.448
v  6.923 13.504 18.948
v  2.774 13.506 7.593
v  0 13.507 8.27065e-16
v  0.766 13.778 -0.283
v  6.923 -1.16023e-15 18.948
v  18.291 -9.04953e-16 14.779
v  7.691 -1.14296e-15 18.666
v  12.609 -1.0325e-15 16.862
v  17.472 -9.23322e-16 15.079
v  11.352 2.56686e-16 -4.192
v  10.529 2.38071e-16 -3.888
v  0 0 0
v  5.675 1.28343e-16 -2.096
v  0.766 1.73288e-17 -0.283
v  2.774 -4.64937e-16 7.593
v  4.182 -7.00988e-16 11.448

# 0 UV coordinates

# 39 vertex normals
vn 0.29566 0.949152 -0.108143
vn 0.29539 0.949249 -0.10803
vn 0.295635 0.949163 -0.108119
vn 0.295666 0.949151 -0.108142
vn -0.296275 0.948931 0.108405
vn -0.295602 0.949179 0.108069
vn -0.295638 0.949161 0.108131
vn -0.295457 0.949214 0.108159
vn -0.295586 0.949179 0.108113
vn 0.219002 0.337172 0.915616
vn 0.344685 -0 0.938718
vn 0.344372 1.98066e-05 0.938833
vn 0.344258 6.70735e-05 0.938875
vn 0.344033 0.00026241 0.938957
vn 0.344308 0 0.938857
vn -2.65858e-20 -1 -6.12537e-17
vn 2.58512e-20 -1 -6.11467e-17
vn -1.68361e-20 -1 -6.12787e-17
vn 0.939149 0 -0.343511
vn -0.346497 0 -0.938051
vn -0.346329 1.1441e-05 -0.938113
vn -0.346438 -3.42127e-05 -0.938073
vn -0.346523 -0.000107901 -0.938042
vn -0.346497 -8.36953e-05 -0.938051
vn -0.346403 5.74412e-17 -0.938086
vn 0 1 6.12362e-17
vn 0 1 6.12206e-17
vn -0.939279 -2.10121e-17 0.343153
vn -0.939309 5.09369e-05 0.343073
vn -0.93924 -0.000129471 0.343261
vn -0.939279 4.21431e-05 0.343153
vn -0.939263 0 0.343197
vn 0 1 6.12336e-17
vn -3.00469e-24 -1 -6.12323e-17
vn 0 -1 -6.12323e-17
vn 1.30644e-23 -1 -6.12323e-17
vn -2.33389e-24 -1 -6.12323e-17
vn -6.03907e-21 -1 -6.12362e-17
vn 0 -1 -6.12462e-17

# Mesh 'defaultobject' with 44 faces
g defaultobject
usemtl DefaultMaterial
f  1//1 2//1 3//1
f  2//2 1//2 4//2
f  4//3 1//3 5//3
f  4//4 5//4 6//4
f  7//5 8//5 9//5
f  8//6 7//6 6//6
f  8//7 6//7 5//7
f  8//8 5//8 10//8
f  10//9 5//9 11//9
f  11//10 5//10 12//10
f  13//11 7//11 9//11
f  7//12 13//12 6//12
f  6//13 13//13 4//13
f  4//14 13//14 2//14
f  2//15 13//15 14//15
f  14//16 13//16 15//16
f  14//16 15//16 16//17
f  14//16 16//17 17//18
f  14//19 3//19 2//19
f  3//19 14//19 18//19
f  18//20 1//20 3//20
f  1//21 18//21 5//21
f  5//22 18//22 12//22
f  12//23 18//23 11//23
f  11//24 18//24 19//24
f  11//25 19//25 20//25
f  20//26 19//26 21//26
f  20//26 21//26 22//27
f  20//28 10//28 11//28
f  10//29 20//29 8//29
f  8//30 20//30 9//30
f  9//31 20//31 23//31
f  9//32 23//32 13//32
f  13//33 23//33 24//33
f  17//18 18//34 14//16
f  18//34 17//18 16//17
f  18//34 16//17 15//16
f  18//34 15//16 13//16
f  18//34 13//16 24//35
f  18//34 24//35 23//35
f  18//34 23//35 19//36
f  19//36 23//35 20//37
f  19//36 20//37 21//38
f  21//38 20//37 22//39

