# {"id":"ID_47733","idOriginal":"ID_47733","origin":[14.267176601992364,48.31473226132761],"elevation":308.037}
# Longitude: 14.267176601992364
# Latitude: 48.31473226132761
# Elevation: 308.037

# File produced by Open Asset Import Library (http://www.assimp.sf.net)
# (assimp v3.1.0)

mtllib ID_47733.obj.mtl

# 19 vertex positions
v  5.172 2.058 -3.034
v  2.305 2.169 1.056
v  3.56 2.058 0.484
v  1.563 2.27 0.716
v  2.595 2.27 -1.536
v  2.064 2.054 -4.504
v  5.189 2.054 -3.072
v  1.032 2.27 -2.252
v  0.018 2.058 -0.038
v  0 2.058 1.26016e-16
v  0 0 0
v  0.018 2.32683e-18 -0.038
v  1.032 1.37895e-16 -2.252
v  2.064 2.7579e-16 -4.504
v  2.305 -6.46614e-17 1.056
v  1.563 -4.38424e-17 0.716
v  3.56 -2.96365e-17 0.484
v  5.172 1.85779e-16 -3.034
v  5.189 1.88106e-16 -3.072

# 0 UV coordinates

# 28 vertex normals
vn 0.110958 0.992524 0.0508425
vn 0.111588 0.99243 0.0512866
vn 0.111294 0.992478 0.0510017
vn 0.0398478 0.995415 -0.0869584
vn 0.0360605 0.996226 -0.0789532
vn 0.0361773 0.99622 -0.0789736
vn -0.0361208 0.996232 0.0788503
vn -0.110614 0.992481 -0.0523964
vn -0.111294 0.992478 -0.0510017
vn -0.903738 0 -0.428086
vn -0.909191 0.000263861 -0.416379
vn -0.903651 -0.0138282 -0.428045
vn -0.909181 0 -0.4164
vn -0.90909 0 -0.416599
vn -0.416474 -5.56692e-17 0.909147
vn -0.416562 7.29473e-05 0.909107
vn -0.416505 0 0.909133
vn 2.23745e-20 -1 -6.12838e-17
vn 0.414731 -0 0.909944
vn 0.414731 0 0.909944
vn 0.909106 -0 0.416566
vn 0.912817 0 0.408369
vn 0.912817 0 0.408369
vn 0.416585 0 -0.909097
vn -9.10453e-23 -1 -6.12321e-17
vn 7.95869e-24 -1 -6.12323e-17
vn 6.21604e-24 -1 -6.12323e-17
vn 3.16197e-24 -1 -6.12323e-17

# Mesh 'defaultobject' with 34 faces
g defaultobject
usemtl DefaultMaterial
f  1//1 2//1 3//1
f  2//2 1//2 4//2
f  4//3 1//3 5//3
f  6//4 1//4 7//4
f  1//5 6//5 5//5
f  5//6 6//6 8//6
f  5//7 8//7 9//7
f  4//8 9//8 10//8
f  9//9 4//9 5//9
f  9//10 11//10 10//10
f  11//11 9//11 8//11
f  11//12 8//12 12//12
f  12//13 8//13 13//13
f  13//14 8//14 6//14
f  13//14 6//14 14//14
f  11//15 4//15 10//15
f  4//16 11//16 2//16
f  2//17 11//17 15//17
f  15//18 11//18 16//18
f  15//19 3//19 2//19
f  3//19 15//19 17//20
f  17//21 1//21 3//21
f  1//21 17//21 18//21
f  1//22 18//22 7//22
f  7//22 18//22 19//23
f  19//24 6//24 7//24
f  6//24 19//24 14//24
f  18//25 14//25 19//25
f  14//25 18//25 17//26
f  14//25 17//26 13//27
f  13//27 17//26 12//28
f  12//28 17//26 15//18
f  12//28 15//18 16//18
f  12//28 16//18 11//18

