# {"id":"ID_45342","idOriginal":"ID_45342","origin":[14.281397889095038,48.28852700780005],"elevation":301.453}
# Longitude: 14.281397889095038
# Latitude: 48.28852700780005
# Elevation: 301.453

# File produced by Open Asset Import Library (http://www.assimp.sf.net)
# (assimp v3.1.0)

mtllib ID_45342.obj.mtl

# 12 vertex positions
v  0 2.62 1.60429e-16
v  6.674 2.62 -1.099
v  1.033 2.62 -3
v  5.627 2.62 2.006
v  6.823 2.62 -1.049
v  5.78 2.62 2.061
v  5.78 -1.262e-16 2.061
v  6.823 6.42327e-17 -1.049
v  1.033 1.83697e-16 -3
v  6.674 6.72943e-17 -1.099
v  0 0 0
v  5.627 -1.22832e-16 2.006

# 0 UV coordinates

# 14 vertex normals
vn 0 1 0
vn 0.948102 -0 0.317965
vn 0.318135 0 -0.948045
vn 0.319351 7.69169e-05 -0.947637
vn 0.319319 0 -0.947647
vn 2.20633e-20 -1 -6.12917e-17
vn -0.945517 0 -0.325573
vn -0.945517 1.99356e-17 -0.325573
vn -0.338284 0 0.941044
vn -0.335796 0.000164047 0.941935
vn -0.338278 -0.00602747 0.941027
vn -0.335796 0 0.941935
vn 0 -1 -6.12323e-17
vn 3.41301e-23 -1 -6.12323e-17

# Mesh 'defaultobject' with 20 faces
g defaultobject
usemtl DefaultMaterial
f  1//1 2//1 3//1
f  2//1 1//1 4//1
f  2//1 4//1 5//1
f  5//1 4//1 6//1
f  7//2 5//2 6//2
f  5//2 7//2 8//2
f  8//3 2//3 5//3
f  2//4 8//4 3//4
f  3//5 8//5 9//5
f  9//6 8//6 10//6
f  9//7 1//7 3//7
f  1//7 9//7 11//8
f  4//9 7//9 6//9
f  7//10 4//10 1//10
f  7//11 1//11 12//11
f  12//12 1//12 11//12
f  10//6 11//13 9//6
f  11//13 10//6 8//6
f  11//13 8//6 12//13
f  12//13 8//6 7//14

