# {"id":"_42454","idOriginal":"_42454","origin":[14.260155524656799,48.30305370980164],"elevation":303.749,"wof":[{"Id":102049853,"Name":"Linz","Placetype":"county","Offset":-1},{"Id":85632785,"Name":"Austria","Placetype":"country","Offset":-1},{"Id":101748071,"Name":"Linz","Placetype":"locality","Offset":-1},{"Id":85681677,"Name":"Oberösterreich","Placetype":"region","Offset":-1},{"Id":85898445,"Name":"St. Margarethen","Placetype":"neighbourhood","Offset":-1}]}

# Attribution: City of Linz <http://geo.data.linz.gv.at/katalog/geodata/3d_geo_daten_lod2/>
# Longitude: 14.260155524656799
# Latitude: 48.30305370980164
# Elevation: 303.749

# File produced by Open Asset Import Library (http://www.assimp.sf.net)
# (assimp v3.1.0)


# 8 vertex positions
v  3.668 3.599 -4.033
v  3.297 2.995 3.098
v  7.02 2.995 -0.998
v  0 3.599 2.20375e-16
v  3.668 2.4695e-16 -4.033
v  0 0 0
v  3.297 -1.89698e-16 3.098
v  7.02 6.11099e-17 -0.998

# 0 UV coordinates

# 11 vertex normals
vn 0.0979742 0.991197 0.0890522
vn 0.0979107 0.991203 0.0890495
vn -0.739791 0 -0.672837
vn -0.739791 4.11994e-17 -0.672837
vn -0.684772 -4.46235e-17 0.728758
vn -0.684772 0 0.728758
vn 0.739997 -0 0.67261
vn 0.671185 0 -0.741289
vn 0.671185 0 -0.74129
vn -4.29351e-24 -1 -6.12323e-17
vn 0 -1 -6.12323e-17

# Mesh 'defaultobject' with 12 faces
g defaultobject
usemtl DefaultMaterial
f  1//1 2//1 3//1
f  2//2 1//2 4//2
f  5//3 4//3 1//3
f  4//3 5//3 6//4
f  6//5 2//5 4//5
f  2//5 6//5 7//6
f  7//7 3//7 2//7
f  3//7 7//7 8//7
f  3//8 5//8 1//8
f  5//8 3//8 8//9
f  5//10 7//10 6//10
f  7//10 5//10 8//11

