# {"id":"ID_21321","idOriginal":"ID_21321","origin":[14.362399557877248,48.24569872508672],"elevation":253.653}
# Longitude: 14.362399557877248
# Latitude: 48.24569872508672
# Elevation: 253.653

# File produced by Open Asset Import Library (http://www.assimp.sf.net)
# (assimp v3.1.0)

mtllib ID_21321.obj.mtl

# 34 vertex positions
v  16.209 5.358 0.637
v  12.337 5.704 8.231
v  18.541 5.704 4.384
v  13.36 5.196 -0.022
v  12.272 5.195 0.631
v  10.346 5.192 1.788
v  12.272 5.704 8.272
v  7.107 5.704 11.476
v  7.983 5.055 1.2
v  7.835 5.047 1.163
v  7.087 5.701 11.444
v  3.258 5.287 -2.017
v  7.713 5.052 1.066
v  6.138 5.057 -1.402
v  0 5.701 3.49086e-16
v  7.763 5.052 1.145
v  2.617 5.701 4.226
v  3.258 1.23506e-16 -2.017
v  6.138 8.58477e-17 -1.402
v  16.209 -3.9005e-17 0.637
v  13.36 1.34711e-18 -0.022
v  10.346 -1.09483e-16 1.788
v  7.835 -7.12132e-17 1.163
v  7.763 -7.0111e-17 1.145
v  7.983 -7.34788e-17 1.2
v  0 0 0
v  12.272 -3.86376e-17 0.631
v  2.617 -2.58768e-16 4.226
v  7.087 -7.00743e-16 11.444
v  7.107 -7.02702e-16 11.476
v  12.272 -5.06514e-16 8.272
v  12.337 -5.04003e-16 8.231
v  18.541 -2.68443e-16 4.384
v  7.713 -6.52737e-17 1.066

# 0 UV coordinates

# 53 vertex normals
vn -0.0411884 0.996941 -0.0664239
vn -0.0413089 0.996932 -0.066485
vn -0.0407812 0.996958 -0.0664211
vn -0.0414494 0.996931 -0.0664136
vn -0.0418197 0.996923 -0.0662986
vn -0.0412352 0.996936 -0.0664732
vn -0.0412567 0.996934 -0.0664803
vn -0.0373576 0.99711 -0.066159
vn -0.0430477 0.996854 -0.0665444
vn 0.0914286 0.994217 -0.0563326
vn 0.0914459 0.994214 -0.0563578
vn 0.0916654 0.994098 -0.0580163
vn 0.0833946 0.994873 -0.0572189
vn 0.0914714 0.994195 -0.0566461
vn 0 1 0
vn 0.208833 0 -0.977951
vn 0.208833 0 -0.977951
vn 0.225359 0 -0.974276
vn 0.241473 0 -0.970408
vn 0.24251 0.000515132 -0.970149
vn 0.242571 0.000547509 -0.970133
vn 0.241535 -1.51455e-05 -0.970392
vn 0.242536 0 -0.970142
vn 1.77709e-21 -1 -6.12395e-17
vn -0.526382 0 -0.850248
vn -0.514612 0 -0.857423
vn -0.514954 -9.7371e-05 -0.857218
vn -0.51483 -0 -0.857292
vn -1.16376e-20 1 6.12136e-17
vn -0.850184 -3.2238e-17 0.526486
vn -0.850184 0 0.526486
vn -0.850175 0 0.526501
vn -0.847995 0 0.530003
vn 0.527142 -0 0.849777
vn 0.533509 0 0.845794
vn 0.526991 0.000103578 0.849871
vn 0.533482 -0.00983748 0.845754
vn 0.526991 0 0.849871
vn 0.849002 0 -0.528389
vn 0.849002 0 -0.528389
vn 0.842972 0 -0.537958
vn 0.844977 -0.0021685 -0.534798
vn 0.842972 6.92483e-05 -0.537958
vn 0.844979 0 -0.534799
vn 0 -1 -6.12323e-17
vn 1.09438e-24 -1 -6.12323e-17
vn 4.23158e-22 -1 -6.12325e-17
vn 1.0071e-22 -1 -6.12323e-17
vn -6.98564e-23 -1 -6.12323e-17
vn -5.91789e-24 -1 -6.12323e-17
vn 2.90138e-24 -1 -6.12323e-17
vn -5.77414e-21 -1 -6.12304e-17
vn 0 -1 -6.12323e-17

# Mesh 'defaultobject' with 64 faces
g defaultobject
usemtl DefaultMaterial
f  1//1 2//1 3//1
f  2//2 1//2 4//2
f  2//3 4//3 5//3
f  2//4 5//4 6//4
f  2//5 6//5 7//5
f  7//6 6//6 8//6
f  8//7 6//7 9//7
f  8//8 9//8 10//8
f  8//9 10//9 11//9
f  12//10 13//10 14//10
f  13//11 12//11 15//11
f  13//12 15//12 16//12
f  16//13 11//13 10//13
f  11//14 16//14 15//14
f  11//15 15//15 17//15
f  14//16 18//16 12//16
f  18//16 14//16 19//17
f  20//18 4//18 1//18
f  4//18 20//18 21//18
f  22//19 9//19 6//19
f  9//20 22//20 10//20
f  10//21 22//21 16//21
f  16//22 22//22 23//22
f  16//23 23//23 24//23
f  23//24 22//24 25//24
f  12//25 26//25 15//25
f  26//25 12//25 18//25
f  21//26 5//26 4//26
f  5//27 21//27 6//27
f  6//28 21//28 22//28
f  22//29 21//29 27//29
f  26//30 17//30 15//30
f  17//30 26//30 28//31
f  17//32 28//32 11//32
f  11//32 28//32 29//32
f  11//33 29//33 8//33
f  8//33 29//33 30//33
f  30//34 7//34 8//34
f  7//34 30//34 31//34
f  7//35 31//35 2//35
f  2//36 31//36 3//36
f  3//37 31//37 32//37
f  3//38 32//38 33//38
f  33//39 1//39 3//39
f  1//39 33//39 20//40
f  13//41 19//41 14//41
f  19//42 13//42 16//42
f  19//43 16//43 34//43
f  34//44 16//44 24//44
f  32//45 20//45 33//45
f  20//45 32//45 21//46
f  21//46 32//45 27//45
f  27//45 32//45 22//24
f  22//24 32//45 31//47
f  22//24 31//47 30//45
f  22//24 30//45 25//24
f  25//24 30//45 23//24
f  23//24 30//45 24//48
f  24//48 30//45 34//49
f  34//49 30//45 19//50
f  19//50 30//45 18//51
f  18//51 30//45 29//52
f  18//51 29//52 28//53
f  18//51 28//53 26//53

