# {"id":"_3884","idOriginal":"_3884","origin":[14.299030733551756,48.300201080935906],"elevation":260.303}
# Longitude: 14.299030733551756
# Latitude: 48.300201080935906
# Elevation: 260.303

# File produced by Open Asset Import Library (http://www.assimp.sf.net)
# (assimp v3.1.0)

mtllib _3884.obj.mtl

# 45 vertex positions
v  9.352 19.758 3.225
v  16.631 16.897 6.116
v  17.182 16.602 5.936
v  11.881 19.758 9.353
v  16.758 16.949 6.69
v  17.458 16.694 7.069
v  19.636 16.688 12.322
v  15.979 19.758 19.286
v  21.571 16.673 16.934
v  17.246 16.694 6.559
v  18.792 16.001 6.402
v  18.562 16.205 6.115
v  18.671 16.001 6.452
v  24.985 16.008 3.854
v  17.823 16.573 5.727
v  16.306 19.758 0.378
v  22.669 19.758 -2.228
v  13.816 15.995 -5.657
v  0 15.995 9.79411e-16
v  20.348 15.995 -8.332
v  20.571 16.36 -7.739
v  5.019 15.988 12.163
v  9.144 15.988 22.16
v  9.48 16.173 22.019
v  9.144 -1.35691e-15 22.16
v  21.571 -1.03691e-15 16.934
v  9.48 -1.34827e-15 22.019
v  15.979 -1.18093e-15 19.286
v  19.636 -7.54505e-16 12.322
v  17.458 -4.32851e-16 7.069
v  17.246 -4.01623e-16 6.559
v  16.758 -4.09644e-16 6.69
v  20.348 5.10188e-16 -8.332
v  0 0 0
v  13.816 3.46391e-16 -5.657
v  16.631 -3.74497e-16 6.116
v  24.985 -2.35989e-16 3.854
v  22.669 1.36426e-16 -2.228
v  20.571 4.73877e-16 -7.739
v  17.823 -3.50678e-16 5.727
v  17.182 -3.63475e-16 5.936
v  18.671 -3.95071e-16 6.452
v  18.792 -3.92009e-16 6.402
v  18.562 -3.74436e-16 6.115
v  5.019 -7.44769e-16 12.163

# 0 UV coordinates

# 75 vertex normals
vn 0.419626 0.89064 -0.175142
vn 0.419028 0.891353 -0.172931
vn 0.418736 0.891399 -0.1734
vn 0.418674 0.891405 -0.173521
vn 0.419006 0.891406 -0.17271
vn 0.419051 0.891351 -0.172886
vn 0.419023 0.891361 -0.172905
vn 0.418922 0.891167 -0.17414
vn 0.191055 0.865869 0.462352
vn 0.189649 0.865656 0.463327
vn 0.189121 0.866619 0.461742
vn 0.189626 0.866733 0.46132
vn 0.189225 0.866354 0.462195
vn 0.189219 0.866354 0.462197
vn 0.189264 0.866386 0.46212
vn -0.189232 0.866372 -0.462158
vn -0.189206 0.866382 -0.46215
vn -0.189253 0.866383 -0.462131
vn -0.189222 0.866394 -0.462121
vn -0.189271 0.866374 -0.462139
vn -0.418467 0.891566 0.173191
vn -0.418938 0.891402 0.172894
vn -0.418949 0.891403 0.172868
vn -0.418982 0.891389 0.172857
vn -0.0400164 0.650589 0.758375
vn 0.387674 -6.23528e-05 0.921797
vn 0.387729 -0.00165715 0.921772
vn 0.387652 0 0.921806
vn 0.387652 0 0.921806
vn 1.42336e-19 1 6.16031e-17
vn -5.85561e-20 1 6.11325e-17
vn 0.922128 0 -0.386886
vn 0.923746 0.00126088 -0.383002
vn 0.923398 0.000677796 -0.383844
vn 0.922127 -0.00154169 -0.386885
vn 0.923747 3.0086e-05 -0.383004
vn 0.923398 0 -0.383844
vn -0.259263 0 -0.965807
vn -0.259263 0 -0.965807
vn -0.378975 0 -0.925407
vn -0.37892 2.62627e-05 -0.92543
vn -0.378937 5.66658e-17 -0.925422
vn 0 -1 -6.13189e-17
vn 0.976387 0 -0.216028
vn 0.976387 0 -0.216028
vn 0.934536 0 -0.355868
vn 0.934563 2.47527e-05 -0.355797
vn 0.935562 0.00216675 -0.353155
vn 0.934623 0 -0.355641
vn 0 -1 -6.12288e-17
vn -1.74555e-21 -1 -6.12313e-17
vn 0.31053 -0 0.950563
vn 0.309991 1.97868e-05 0.950739
vn 0.31024 0 0.950658
vn 4.84814e-20 -1 -6.1079e-17
vn 0.381902 -0 0.924203
vn 0.380487 1.25289e-05 0.924786
vn 0.380514 0 0.924775
vn 5.91383e-20 -1 -6.11096e-17
vn -0.464857 0 0.885386
vn -0.464857 0 0.885386
vn -0.95147 0 0.307743
vn -0.95147 0 0.307743
vn -0.924391 -2.33568e-17 0.381445
vn -0.924398 1.48481e-05 0.381429
vn -0.924391 -1.2222e-05 0.381445
vn -0.924398 0 0.381429
vn -6.35834e-24 -1 -6.12324e-17
vn 2.39197e-23 -1 -6.12324e-17
vn 3.69038e-25 -1 -6.12323e-17
vn 3.46296e-25 -1 -6.12323e-17
vn 3.6392e-25 -1 -6.12323e-17
vn 9.42186e-24 -1 -6.12323e-17
vn -2.35018e-20 -1 -6.12926e-17
vn -1.57467e-19 -1 -6.16033e-17

# Mesh 'defaultobject' with 86 faces
g defaultobject
usemtl DefaultMaterial
f  1//1 2//1 3//1
f  2//2 1//2 4//2
f  2//3 4//3 5//3
f  5//4 4//4 6//4
f  6//5 4//5 7//5
f  7//6 4//6 8//6
f  7//7 8//7 9//7
f  6//8 10//8 5//8
f  11//9 12//9 13//9
f  12//10 11//10 14//10
f  12//11 14//11 15//11
f  15//12 1//12 3//12
f  1//13 15//13 16//13
f  16//13 15//13 14//14
f  16//15 14//15 17//15
f  1//16 18//16 19//16
f  18//17 1//17 16//17
f  18//18 16//18 20//18
f  20//19 16//19 21//19
f  21//20 16//20 17//20
f  22//21 1//21 19//21
f  1//22 22//22 4//22
f  4//23 22//23 23//23
f  4//24 23//24 8//24
f  8//25 23//25 24//25
f  24//26 9//26 8//26
f  9//27 24//27 23//27
f  9//28 23//28 25//28
f  9//28 25//28 26//29
f  26//30 25//30 27//30
f  26//30 27//30 28//31
f  26//32 7//32 9//32
f  7//33 26//33 6//33
f  6//34 26//34 10//34
f  10//35 26//35 29//35
f  10//36 29//36 30//36
f  10//37 30//37 31//37
f  10//38 32//38 5//38
f  32//38 10//38 31//39
f  33//40 18//40 20//40
f  18//41 33//41 19//41
f  19//42 33//42 34//42
f  34//43 33//43 35//43
f  32//44 2//44 5//44
f  2//44 32//44 36//45
f  37//46 17//46 14//46
f  17//47 37//47 21//47
f  21//48 37//48 20//48
f  20//49 37//49 33//49
f  33//43 37//50 38//50
f  33//43 38//50 39//51
f  36//52 3//52 2//52
f  3//53 36//53 15//53
f  15//54 36//54 40//54
f  40//55 36//55 41//55
f  42//56 11//56 13//56
f  11//57 42//57 14//57
f  14//58 42//58 37//58
f  37//50 42//59 43//59
f  40//60 12//60 15//60
f  12//60 40//60 44//61
f  44//62 13//62 12//62
f  13//62 44//62 42//63
f  34//64 22//64 19//64
f  22//65 34//65 23//65
f  23//66 34//66 45//66
f  23//67 45//67 25//67
f  37//50 44//68 40//55
f  44//68 37//50 43//59
f  44//68 43//59 42//59
f  30//69 32//69 31//69
f  39//51 35//43 33//43
f  35//43 39//51 38//50
f  35//43 38//50 34//43
f  34//43 38//50 45//70
f  45//70 38//50 36//55
f  36//55 38//50 41//55
f  41//55 38//50 40//55
f  40//55 38//50 37//50
f  45//70 36//55 32//69
f  45//70 32//69 30//69
f  45//70 30//69 29//71
f  45//70 29//71 25//72
f  25//72 29//71 26//73
f  25//72 26//73 28//74
f  25//72 28//74 27//75

