# {"id":"ID_14422","idOriginal":"ID_14422","origin":[14.278163160304809,48.32916980204946],"elevation":295.226,"wof":[{"Id":102049853,"Name":"Linz","Placetype":"county","Offset":-1},{"Id":101748071,"Name":"Linz","Placetype":"locality","Offset":-1},{"Id":85632785,"Name":"Austria","Placetype":"country","Offset":-1},{"Id":85681677,"Name":"Oberösterreich","Placetype":"region","Offset":-1},{"Id":85898425,"Name":"Harbach","Placetype":"neighbourhood","Offset":-1}]}

# Attribution: City of Linz <http://geo.data.linz.gv.at/katalog/geodata/3d_geo_daten_lod2/>
# Longitude: 14.278163160304809
# Latitude: 48.32916980204946
# Elevation: 295.226

# File produced by Open Asset Import Library (http://www.assimp.sf.net)
# (assimp v3.1.0)


# 23 vertex positions
v  6.015 7.246 10.743
v  5.073 7.977 9.12
v  5.985 7.246 10.76
v  19.668 7.219 2.901
v  3.01 9.631 5.41
v  16.561 9.631 -2.453
v  18.692 7.977 1.219
v  16.579 9.631 -2.463
v  9.561 7.18 -5.664
v  13.911 7.542 -7.113
v  13.492 7.206 -7.867
v  0 7.219 4.42036e-16
v  0 0 0
v  3.01 -3.31267e-16 5.41
v  5.073 -5.58439e-16 9.12
v  5.985 -6.5886e-16 10.76
v  19.668 -1.77635e-16 2.901
v  6.015 -6.57819e-16 10.743
v  18.692 -7.46422e-17 1.219
v  16.579 1.50815e-16 -2.463
v  13.911 4.35546e-16 -7.113
v  13.492 4.81715e-16 -7.867
v  9.561 3.4682e-16 -5.664

# 0 UV coordinates

# 41 vertex normals
vn 0.178962 0.931792 0.315809
vn 0.182169 0.931799 0.313951
vn 0.182218 0.931749 0.31407
vn 0.182213 0.931766 0.314024
vn -0.775499 0.268905 0.571219
vn 0.176322 0.931764 0.317374
vn -0.182139 0.931785 -0.31401
vn -0.182159 0.931759 -0.314074
vn -0.178383 0.9301 -0.321083
vn -0.182209 0.931769 -0.314016
vn -0.182231 0.931761 -0.314028
vn -0.873852 -2.97706e-17 0.486191
vn -0.873945 0.000122652 0.486025
vn -0.873852 -0.000126949 0.486191
vn -0.873958 -1.10686e-05 0.486001
vn -0.873968 6.51093e-06 0.485983
vn -0.873956 0 0.486005
vn 0.49302 -0 0.870018
vn 0.498067 -2.7647e-05 0.867139
vn 0.498056 0 0.867145
vn 0 1 6.11564e-17
vn 0.864933 0 -0.501887
vn 0.867578 0.00129103 -0.497299
vn 0.867211 0.000816083 -0.497941
vn 0.864917 -0.0061628 -0.501877
vn 0.867328 -5.83212e-05 -0.497736
vn 0.867369 0 -0.497665
vn 0.874102 0 -0.485742
vn -0.509684 0 -0.860362
vn -0.509684 0 -0.860362
vn -0.48888 0 -0.872351
vn -0.48888 -0 -0.872351
vn -2.04546e-22 -1 -6.12322e-17
vn -3.58354e-24 -1 -6.12323e-17
vn 1.58082e-24 -1 -6.12323e-17
vn 0 -1 -6.12323e-17
vn -7.60976e-25 -1 -6.12323e-17
vn 6.12688e-24 -1 -6.12323e-17
vn -1.11004e-23 -1 -6.12323e-17
vn 4.39452e-24 -1 -6.12323e-17
vn 1.70244e-24 -1 -6.12323e-17

# Mesh 'defaultobject' with 42 faces
g defaultobject
usemtl DefaultMaterial
f  1//1 2//1 3//1
f  2//2 1//2 4//2
f  2//3 4//3 5//3
f  5//4 4//4 6//4
f  6//5 4//5 7//5
f  6//6 7//6 8//6
f  9//7 10//7 11//7
f  10//8 9//8 8//8
f  8//9 9//9 6//9
f  6//10 9//10 5//10
f  5//11 9//11 12//11
f  13//12 5//12 12//12
f  5//13 13//13 2//13
f  2//14 13//14 14//14
f  2//15 14//15 3//15
f  3//16 14//16 15//16
f  3//17 15//17 16//17
f  16//18 1//18 3//18
f  1//19 16//19 4//19
f  4//20 16//20 17//20
f  17//21 16//21 18//21
f  17//22 7//22 4//22
f  7//23 17//23 8//23
f  8//24 17//24 10//24
f  10//25 17//25 19//25
f  10//26 19//26 20//26
f  10//27 20//27 21//27
f  21//28 11//28 10//28
f  11//28 21//28 22//28
f  9//29 13//29 12//29
f  13//29 9//29 23//30
f  22//31 9//31 11//31
f  9//31 22//31 23//32
f  15//33 18//33 16//33
f  18//33 15//33 17//34
f  17//34 15//33 14//35
f  17//34 14//35 13//36
f  17//34 13//36 23//37
f  17//34 23//37 19//38
f  19//38 23//37 20//39
f  20//39 23//37 21//40
f  21//40 23//37 22//41

