# {"id":"_5186","idOriginal":"_5186","origin":[14.304390527946888,48.30920585394603],"elevation":257.041}
# Longitude: 14.304390527946888
# Latitude: 48.30920585394603
# Elevation: 257.041

# File produced by Open Asset Import Library (http://www.assimp.sf.net)
# (assimp v3.1.0)

mtllib _5186.obj.mtl

# 17 vertex positions
v  13.306 14.39 -7.879
v  24.622 14.413 11.569
v  24.77 14.39 11.481
v  18.117 15.427 15.421
v  10.593 15.427 2.713
v  13.074 14.39 -7.742
v  0 14.39 8.81133e-16
v  2.23 14.39 3.766
v  11.464 14.39 19.36
v  0 0 0
v  11.464 -1.18546e-15 19.36
v  2.23 -2.30601e-16 3.766
v  18.117 -9.44264e-16 15.421
v  24.622 -7.08397e-16 11.569
v  24.77 -7.03008e-16 11.481
v  13.306 4.8245e-16 -7.879
v  13.074 4.74061e-16 -7.742

# 0 UV coordinates

# 29 vertex normals
vn 0.113924 0.991196 -0.0674601
vn 0.114389 0.991124 -0.0677306
vn 0.1144 0.991123 -0.0677328
vn -0.0675141 0.991146 -0.11433
vn -0.067732 0.991125 -0.11438
vn -0.114371 0.991127 0.0677237
vn -0.114371 0.991127 0.0677248
vn -0.114388 0.991125 0.0677256
vn -0.860462 -3.11988e-17 0.509514
vn -0.860458 -2.36966e-06 0.509521
vn -0.860459 0 0.50952
vn -2.77556e-18 1 6.245e-17
vn 0.509466 -0 0.860491
vn 0.509523 -3.33759e-05 0.860457
vn 0.509466 3.72788e-05 0.860491
vn 0.510973 -0.000882374 0.859596
vn 0.509527 2.1539e-05 0.860455
vn 0.511075 0 0.859536
vn 0.860459 0 -0.50952
vn -0.509532 0 -0.860452
vn -0.508479 -0.00129088 -0.861073
vn -0.509532 2.28903e-05 -0.860452
vn -0.50848 0 -0.861074
vn -5.80758e-23 -1 -6.12323e-17
vn 9.95933e-24 -1 -6.12324e-17
vn -1.94759e-23 -1 -6.12323e-17
vn 6.04486e-24 -1 -6.12323e-17
vn 1.89993e-22 -1 -6.12322e-17
vn 0 -1 -6.12323e-17

# Mesh 'defaultobject' with 30 faces
g defaultobject
usemtl DefaultMaterial
f  1//1 2//1 3//1
f  2//2 1//2 4//2
f  4//3 1//3 5//3
f  6//4 5//4 1//4
f  5//5 6//5 7//5
f  8//6 5//6 7//6
f  5//6 8//6 9//7
f  5//8 9//8 4//8
f  10//9 8//9 7//9
f  8//9 10//9 9//10
f  9//10 10//9 11//11
f  11//12 10//12 12//12
f  11//13 4//13 9//13
f  4//14 11//14 2//14
f  2//15 11//15 13//15
f  2//16 13//16 3//16
f  3//17 13//17 14//17
f  3//18 14//18 15//18
f  15//19 1//19 3//19
f  1//19 15//19 16//19
f  6//20 10//20 7//20
f  10//21 6//21 1//21
f  10//22 1//22 17//22
f  17//23 1//23 16//23
f  14//24 16//24 15//24
f  16//24 14//24 13//25
f  16//24 13//25 11//26
f  16//24 11//26 12//27
f  16//24 12//27 17//28
f  17//28 12//27 10//29

