# {"id":"ID_1301","idOriginal":"ID_1301","origin":[14.295969455946281,48.24303695579359],"elevation":260.141,"wof":[{"Id":85898447,"Name":"Scharlinz","Placetype":"neighbourhood","Offset":-1},{"Id":102049853,"Name":"Linz","Placetype":"county","Offset":-1},{"Id":101748071,"Name":"Linz","Placetype":"locality","Offset":-1},{"Id":85632785,"Name":"Austria","Placetype":"country","Offset":-1},{"Id":85681677,"Name":"Oberösterreich","Placetype":"region","Offset":-1}]}

# Attribution: City of Linz <http://geo.data.linz.gv.at/katalog/geodata/3d_geo_daten_lod2/>
# Longitude: 14.295969455946281
# Latitude: 48.24303695579359
# Elevation: 260.141

# File produced by Open Asset Import Library (http://www.assimp.sf.net)
# (assimp v3.1.0)


# 26 vertex positions
v  0.263 10.376 -0.165
v  0.52 10.376 -0.102
v  0.437 10.376 -0.284
v  0 10.376 6.35347e-16
v  1.529 10.376 2.593
v  10.812 10.376 -6.168
v  45.554 10.376 4.774
v  31.852 10.376 -18.528
v  4.705 10.376 7.978
v  10 10.376 16.956
v  12.489 10.376 21.176
v  17.643 10.376 21.174
v  13.856 10.376 23.547
v  31.852 1.13451e-15 -18.528
v  10.812 3.77681e-16 -6.168
v  0.52 6.2457e-18 -0.102
v  0.437 1.739e-17 -0.284
v  0.263 1.01033e-17 -0.165
v  0 0 0
v  45.554 -2.92323e-16 4.774
v  1.529 -1.58775e-16 2.593
v  4.705 -4.88512e-16 7.978
v  10 -1.03826e-15 16.956
v  12.489 -1.29666e-15 21.176
v  13.856 -1.44184e-15 23.547
v  17.643 -1.29653e-15 21.174

# 0 UV coordinates

# 29 vertex normals
vn -0 1 0
vn -0.506519 0 -0.862229
vn -0.507759 -0 -0.861499
vn -0.564514 0 -0.825424
vn -0.531446 0 -0.847092
vn -0.531446 5.18694e-17 -0.847092
vn 0.909852 0 -0.414932
vn 0.862016 0 -0.506881
vn -0.861396 -3.1102e-17 0.507935
vn -0.86135 -2.62423e-05 0.508012
vn -0.861396 5.4471e-05 0.507934
vn -0.86135 0 0.508012
vn -0.861354 0 0.508005
vn -0.861341 0 0.508028
vn -0.866316 0.0046722 0.499474
vn -0.861338 -0.00260999 0.508026
vn -0.866325 0 0.49948
vn 0.530984 -0 0.847382
vn 0.506602 -0 0.86218
vn 0 -1 -6.12323e-17
vn 0 -1 -6.12323e-17
vn 0 -1 -6.12325e-17
vn 0 -1 -6.12324e-17
vn 1.83842e-24 -1 -6.12323e-17
vn -4.25318e-25 -1 -6.12323e-17
vn -1.65562e-24 -1 -6.12324e-17
vn 1.05668e-23 -1 -6.12323e-17
vn -2.34044e-24 -1 -6.12323e-17
vn -2.33478e-24 -1 -6.12323e-17

# Mesh 'defaultobject' with 48 faces
g defaultobject
usemtl DefaultMaterial
f  1//1 2//1 3//1
f  2//1 1//1 4//1
f  2//1 4//1 5//1
f  6//1 7//1 8//1
f  7//1 6//1 2//1
f  7//1 2//1 5//1
f  7//1 5//1 9//1
f  7//1 9//1 10//1
f  7//1 10//1 11//1
f  7//1 11//1 12//1
f  12//1 11//1 13//1
f  14//2 6//2 8//2
f  6//2 14//2 15//2
f  6//3 15//3 2//3
f  2//3 15//3 16//3
f  17//4 1//4 3//4
f  1//4 17//4 18//4
f  18//5 4//5 1//5
f  4//5 18//5 19//6
f  16//7 3//7 2//7
f  3//7 16//7 17//7
f  20//8 8//8 7//8
f  8//8 20//8 14//8
f  19//9 5//9 4//9
f  5//10 19//10 9//10
f  9//11 19//11 21//11
f  9//12 21//12 22//12
f  9//12 22//12 10//13
f  10//13 22//12 23//13
f  10//14 23//14 11//14
f  11//15 23//15 13//15
f  13//16 23//16 24//16
f  13//17 24//17 25//17
f  25//18 12//18 13//18
f  12//18 25//18 26//18
f  26//19 7//19 12//19
f  7//19 26//19 20//19
f  18//20 21//20 19//20
f  21//20 18//20 17//21
f  21//20 17//21 16//22
f  21//20 16//22 15//20
f  21//20 15//20 14//23
f  21//20 14//23 22//24
f  22//24 14//23 20//25
f  22//24 20//25 23//26
f  23//26 20//25 24//27
f  24//27 20//25 26//28
f  24//27 26//28 25//29

