# {"id":"ID_40330","idOriginal":"ID_40330","origin":[14.311092925593671,48.31222336603766],"elevation":254.275,"wof":[{"Id":102049853,"Name":"Linz","Placetype":"county","Offset":-1},{"Id":101748071,"Name":"Linz","Placetype":"locality","Offset":-1},{"Id":85681677,"Name":"Oberösterreich","Placetype":"region","Offset":-1},{"Id":85898449,"Name":"Steeg","Placetype":"neighbourhood","Offset":-1},{"Id":85632785,"Name":"Austria","Placetype":"country","Offset":-1}]}

# Attribution: City of Linz <http://geo.data.linz.gv.at/katalog/geodata/3d_geo_daten_lod2/>
# Longitude: 14.311092925593671
# Latitude: 48.31222336603766
# Elevation: 254.275

# File produced by Open Asset Import Library (http://www.assimp.sf.net)
# (assimp v3.1.0)


# 8 vertex positions
v  0 4.692 2.87302e-16
v  11.342 3.849 -3.65
v  10.055 4.713 -5.832
v  1.201 3.849 2.162
v  10.055 3.57107e-16 -5.832
v  0 0 0
v  1.201 -1.32384e-16 2.162
v  11.342 2.23498e-16 -3.65

# 0 UV coordinates

# 11 vertex normals
vn 0.160488 0.946459 0.280107
vn 0.160438 0.946517 0.279939
vn -0.501725 0 -0.865027
vn -0.501724 5.29677e-17 -0.865027
vn -0.874176 -2.97349e-17 0.485609
vn -0.874176 0 0.485609
vn 0.497244 -0 0.867611
vn 0.861335 0 -0.508038
vn 0.861335 0 -0.508038
vn 0 -1 -6.12324e-17
vn -1.43043e-23 -1 -6.12323e-17

# Mesh 'defaultobject' with 12 faces
g defaultobject
usemtl DefaultMaterial
f  1//1 2//1 3//1
f  2//2 1//2 4//2
f  5//3 1//3 3//3
f  1//3 5//3 6//4
f  6//5 4//5 1//5
f  4//5 6//5 7//6
f  7//7 2//7 4//7
f  2//7 7//7 8//7
f  2//8 5//8 3//8
f  5//8 2//8 8//9
f  5//10 7//10 6//10
f  7//10 5//10 8//11

