# {"id":"_32088","idOriginal":"_32088","origin":[14.286434900583858,48.29884586202107],"elevation":263.381,"wof":[{"Id":101748071,"Name":"Linz","Placetype":"locality","Offset":-1},{"Id":102049853,"Name":"Linz","Placetype":"county","Offset":-1},{"Id":85632785,"Name":"Austria","Placetype":"country","Offset":-1},{"Id":85681677,"Name":"Oberösterreich","Placetype":"region","Offset":-1},{"Id":85898459,"Name":"Wegscheid","Placetype":"neighbourhood","Offset":-1}]}

# Attribution: City of Linz <http://geo.data.linz.gv.at/katalog/geodata/3d_geo_daten_lod2/>
# Longitude: 14.286434900583858
# Latitude: 48.29884586202107
# Elevation: 263.381

# File produced by Open Asset Import Library (http://www.assimp.sf.net)
# (assimp v3.1.0)


# 18 vertex positions
v  0.328 3.75 6.245
v  5.435 3.75 -0.794
v  0 3.75 2.29621e-16
v  7.273 3.75 5.222
v  7.266 3.75 4.82
v  9.014 3.75 -1.178
v  9.696 3.75 3.685
v  9.742 3.75 4.557
v  9.817 3.75 4.549
v  0 0 0
v  0.328 -3.82396e-16 6.245
v  7.273 -3.19755e-16 5.222
v  7.266 -2.9514e-16 4.82
v  9.817 -2.78546e-16 4.549
v  9.742 -2.79036e-16 4.557
v  9.014 7.21317e-17 -1.178
v  9.696 -2.25641e-16 3.685
v  5.435 4.86185e-17 -0.794

# 0 UV coordinates

# 20 vertex normals
vn 0 1 0
vn -0.998624 -3.21162e-18 0.0524497
vn -0.998624 0 0.0524497
vn 0.145728 -0 0.989325
vn 0.105626 -0 0.994406
vn 0.106069 -0.000295997 0.994359
vn 0.105639 0 0.994405
vn -1.02814e-19 1 6.02647e-17
vn 0.999848 0 -0.0174102
vn 0.990335 0 -0.138693
vn 0.990309 -4.47293e-05 -0.138884
vn 0.990313 0 -0.138855
vn 1.28572e-19 1 6.12326e-17
vn -0.144556 0 -0.989497
vn -0.144556 6.05892e-17 -0.989497
vn -0.10668 0 -0.994293
vn 2.12776e-23 -1 -6.12322e-17
vn 0 -1 -6.12323e-17
vn 5.69696e-25 -1 -6.12323e-17
vn -4.17796e-22 -1 -6.12323e-17

# Mesh 'defaultobject' with 32 faces
g defaultobject
usemtl DefaultMaterial
f  1//1 2//1 3//1
f  2//1 1//1 4//1
f  2//1 4//1 5//1
f  2//1 5//1 6//1
f  5//1 7//1 6//1
f  7//1 5//1 8//1
f  7//1 8//1 9//1
f  10//2 1//2 3//2
f  1//2 10//2 11//3
f  11//4 4//4 1//4
f  4//4 11//4 12//4
f  13//5 8//5 5//5
f  8//6 13//6 9//6
f  9//7 13//7 14//7
f  14//8 13//8 15//8
f  12//9 5//9 4//9
f  5//9 12//9 13//9
f  14//10 7//10 9//10
f  7//11 14//11 6//11
f  6//12 14//12 16//12
f  16//13 14//8 17//13
f  18//14 3//14 2//14
f  3//14 18//14 10//15
f  16//16 2//16 6//16
f  2//16 16//16 18//16
f  11//17 13//17 12//17
f  13//17 11//17 16//18
f  16//18 11//17 18//19
f  18//19 11//17 10//18
f  15//20 17//20 14//20
f  17//20 15//20 13//17
f  17//20 13//17 16//18

