# {"id":"ID_27543","idOriginal":"ID_27543","origin":[14.28240863228658,48.3096703477588],"elevation":260.902,"wof":[{"Id":102049853,"Name":"Linz","Placetype":"county","Offset":-1},{"Id":101748071,"Name":"Linz","Placetype":"locality","Offset":-1},{"Id":85681677,"Name":"Oberösterreich","Placetype":"region","Offset":-1},{"Id":85898449,"Name":"Steeg","Placetype":"neighbourhood","Offset":-1},{"Id":85632785,"Name":"Austria","Placetype":"country","Offset":-1}]}

# Attribution: City of Linz <http://geo.data.linz.gv.at/katalog/geodata/3d_geo_daten_lod2/>
# Longitude: 14.28240863228658
# Latitude: 48.3096703477588
# Elevation: 260.902

# File produced by Open Asset Import Library (http://www.assimp.sf.net)
# (assimp v3.1.0)


# 108 vertex positions
v  25.121 24.246 7.465
v  23.733 24.569 6.643
v  23.647 24.653 6.972
v  23.632 24.52 6.15
v  23.465 24.519 5.819
v  22.275 23.92 -0.088
v  20.818 24.529 0.653
v  25.14 24.232 7.422
v  25.248 24.098 6.837
v  25.259 24.001 6.285
v  22.63 23.923 0.626
v  22.894 23.924 1.158
v  25.04 23.938 5.475
v  8.894 24.13 15.852
v  9.044 24.667 14.164
v  8.511 24.219 15.775
v  9.543 24.016 15.872
v  10.145 23.945 15.787
v  9.187 24.62 14.234
v  9.582 24.556 14.231
v  10.071 24.51 14.128
v  10.761 23.929 15.53
v  22.634 24.528 7.851
v  23.857 23.945 8.994
v  23.105 24.529 7.613
v  23.519 24.541 7.372
v  24.52 24.011 8.468
v  23.636 24.642 7.012
v  24.874 24.105 8.011
v  0.069 24.196 -0.759
v  1.751 24.686 -0.346
v  0.135 24.239 -0.886
v  0 24.045 1.47233e-15
v  0.219 23.936 1.083
v  1.72 24.661 -0.263
v  1.721 24.566 0.305
v  1.915 24.551 0.777
v  6.8 23.93 14.114
v  8.094 24.545 13.016
v  8.44 24.554 13.644
v  7.124 23.936 14.716
v  8.663 24.572 13.978
v  7.64 24.01 15.296
v  8.276 24.148 15.728
v  0.248 24.186 -1.103
v  1.162 23.96 -2.234
v  0.39 24.118 -1.377
v  1.862 24.605 -0.644
v  5.699 23.929 -4.573
v  2.173 24.557 -0.94
v  2.533 24.558 -1.116
v  7.642 24.55 -3.67
v  6.256 23.926 -4.86
v  6.883 23.922 -5.183
v  20.818 -3.99847e-17 0.653
v  22.275 5.38845e-18 -0.088
v  23.519 -4.51405e-16 7.372
v  23.105 -4.66162e-16 7.613
v  10.071 -8.6509e-16 14.128
v  22.634 -4.80735e-16 7.851
v  6.883 3.17367e-16 -5.183
v  5.699 2.80015e-16 -4.573
v  1.162 1.36793e-16 -2.234
v  6.256 2.97589e-16 -4.86
v  0.39 8.43169e-17 -1.377
v  0.069 4.64753e-17 -0.759
v  0.248 6.75393e-17 -1.103
v  0.135 5.42519e-17 -0.886
v  23.632 -3.76579e-16 6.15
v  23.465 -3.56311e-16 5.819
v  0.219 -6.63146e-17 1.083
v  6.8 -8.64233e-16 14.114
v  7.124 -9.01095e-16 14.716
v  7.64 -9.3661e-16 15.296
v  8.276 -9.63062e-16 15.728
v  23.733 -4.06766e-16 6.643
v  23.636 -4.29361e-16 7.012
v  23.647 -4.26912e-16 6.972
v  0 0 0
v  9.582 -8.71397e-16 14.231
v  9.187 -8.71581e-16 14.234
v  8.663 -8.55906e-16 13.978
v  9.044 -8.67295e-16 14.164
v  8.44 -8.35454e-16 13.644
v  8.094 -7.97e-16 13.016
v  1.915 -4.75775e-17 0.777
v  1.721 -1.86759e-17 0.305
v  7.642 2.24723e-16 -3.67
v  25.04 -3.35247e-16 5.475
v  22.894 -7.0907e-17 1.158
v  22.63 -3.83314e-17 0.626
v  1.72 1.61041e-17 -0.263
v  1.862 3.94336e-17 -0.644
v  1.751 2.11864e-17 -0.346
v  25.14 -4.54466e-16 7.422
v  25.248 -4.18646e-16 6.837
v  25.259 -3.84845e-16 6.285
v  2.173 5.75584e-17 -0.94
v  2.533 6.83353e-17 -1.116
v  10.145 -9.66675e-16 15.787
v  10.761 -9.50938e-16 15.53
v  23.857 -5.50724e-16 8.994
v  24.52 -5.18515e-16 8.468
v  24.874 -4.90532e-16 8.011
v  25.121 -4.57099e-16 7.465
v  8.894 -9.70655e-16 15.852
v  8.511 -9.6594e-16 15.775
v  9.543 -9.7188e-16 15.872

# 0 UV coordinates

# 187 vertex normals
vn 0.311518 0.937044 -0.157813
vn 0.311043 0.937357 -0.156888
vn 0.311444 0.937076 -0.157767
vn 0.304932 0.939396 -0.15669
vn 0.311909 0.936888 -0.157966
vn 0.321838 0.932913 -0.161536
vn 0.310518 0.937444 -0.157406
vn 0.31275 0.936544 -0.158341
vn 0.278869 0.949676 -0.142644
vn 0.346504 0.92183 -0.173681
vn 0.308447 0.9383 -0.156374
vn 0.155096 0.937345 0.311978
vn 0.155035 0.937355 0.311976
vn 0.154624 0.93738 0.312105
vn 0.155648 0.937434 0.311435
vn 0.154255 0.937385 0.312273
vn 0.153977 0.937396 0.312378
vn 0.154645 0.937306 0.312318
vn 0.154692 0.937306 0.312294
vn 0.154785 0.937244 0.312433
vn 0.15552 0.937364 0.311708
vn 0.154577 0.937351 0.312216
vn 0.154419 0.937365 0.312254
vn 0.153665 0.937274 0.312898
vn 0.168352 0.937634 0.304138
vn 0.154426 0.937394 0.312161
vn 0.152964 0.937887 0.311401
vn -0.31132 0.937474 0.155633
vn -0.311755 0.936925 0.158055
vn -0.311911 0.936987 0.157377
vn -0.300402 0.938453 0.170486
vn -0.311593 0.937109 0.157282
vn -0.311351 0.93711 0.15775
vn -0.311366 0.937117 0.15768
vn -0.311516 0.937059 0.157732
vn -0.311255 0.93709 0.158057
vn -0.311223 0.937084 0.158161
vn -0.311664 0.937033 0.15759
vn -0.311122 0.937024 0.158713
vn -0.311484 0.937099 0.157553
vn -0.311496 0.937098 0.157537
vn -0.315474 0.934304 0.165988
vn -0.156238 0.93667 -0.313431
vn -0.145417 0.941006 -0.305553
vn -0.154988 0.937327 -0.312083
vn -0.154369 0.937361 -0.31229
vn -0.154551 0.937358 -0.312208
vn -0.126745 0.949468 -0.287135
vn -0.155628 0.936916 -0.312999
vn -0.154551 0.937394 -0.3121
vn -0.155172 0.937672 -0.310955
vn -0.15455 0.937554 -0.311619
vn -0.453321 0 -0.891347
vn -0.453321 0 -0.891347
vn -0.503092 0 -0.864233
vn -0.451 0 -0.892524
vn -0.446957 9.73463e-05 -0.894555
vn -0.447104 -0 -0.894482
vn -6.31526e-21 -1 -6.12328e-17
vn -0.457957 0 -0.888975
vn -0.458033 -2.53791e-06 -0.888935
vn -0.458229 -1.47871e-05 -0.888834
vn -0.457993 5.65708e-05 -0.888956
vn -0.458229 -0 -0.888834
vn -1.95615e-19 1 6.08145e-17
vn -0.742992 0 -0.6693
vn -0.742992 0 -0.6693
vn -0.887108 -0.00160112 -0.461559
vn -0.88709 -0 -0.461596
vn -0.88785 2.64317e-05 -0.460133
vn -0.88709 -2.11689e-05 -0.461596
vn -0.887853 0 -0.460128
vn 2.14012e-20 1 6.12431e-17
vn -0.889973 0 0.456012
vn -0.892804 0.00147894 0.450443
vn -0.890144 0 0.455679
vn 5.9105e-21 -1 -6.12352e-17
vn -0.892625 0 0.450799
vn -0.892625 0 0.450799
vn -0.880565 0 0.473926
vn -0.747125 0 0.664683
vn -0.747125 0 0.664683
vn -0.561883 0 0.827217
vn -0.561883 0 0.827217
vn -0.979653 0 0.200699
vn -0.965631 0.0247503 -0.258735
vn -0.967142 -0 -0.254236
vn -0.967142 0 -0.254236
vn -3.46816e-20 -1 -6.12414e-17
vn -0.951034 0 -0.309087
vn -0.951034 -0 -0.309087
vn -0.995893 0 -0.0905357
vn -0.995893 5.54372e-18 -0.0905357
vn -0.980161 -1.21365e-17 0.198204
vn -0.980161 0 0.198204
vn -0.206111 0 -0.978529
vn -0.00759538 0 -0.999971
vn -0.00759538 0 -0.999971
vn 0.439116 -0.00205757 -0.898428
vn 0.438965 0 -0.898504
vn 0.438965 0 -0.898504
vn 3.21139e-19 1 6.05806e-17
vn 0.831666 0 -0.555276
vn 0.875863 0 -0.482561
vn 0.875863 0 -0.482561
vn 0.892685 0 -0.450682
vn 0.892685 0 -0.450682
vn 0.924921 0 -0.380158
vn 0.893836 0 -0.448395
vn 0.893836 0 -0.448395
vn 0.895462 0 -0.445138
vn 0.89577 0.000139679 -0.444518
vn 0.895428 -3.4123e-05 -0.445205
vn 0.895462 -1.47247e-05 -0.445138
vn 0.895574 0 -0.444912
vn 9.09423e-21 1 6.12269e-17
vn 0.924921 0 -0.380158
vn 0.999998 0 -0.00176043
vn 0.936954 -0.00165052 0.349448
vn 0.937035 0 0.349236
vn 0.937035 0 0.349236
vn -3.31311e-20 1 6.1218e-17
vn 0.983382 -0 0.181547
vn 0.983382 0 0.181547
vn 0.999801 -0 0.0199265
vn 0.965339 0 -0.260999
vn 0.965339 0 -0.260999
vn 0.689422 -0 0.72436
vn 0.689422 0 0.72436
vn 0.43921 -0 0.898384
vn 0.447143 -0.000144404 0.894462
vn 0.446625 0 0.894722
vn 1.30676e-21 1 6.12321e-17
vn 0.385041 -0 0.922899
vn 0.446557 0 0.894755
vn 0.446558 0 0.894755
vn 0.62152 0 0.783399
vn 0.62152 0 0.783399
vn 0.790562 0 0.612382
vn 0.790562 0 0.612382
vn 0.912576 -0.0164804 0.408576
vn 0.911371 0 0.411585
vn 0.911371 0 0.411585
vn -2.08846e-21 1 6.12312e-17
vn -0.196673 0.0019184 0.980467
vn -0.196727 0 0.980458
vn -0.196727 0 0.980458
vn 5.49246e-22 -1 -6.12343e-17
vn -0.0308012 0 0.999526
vn -0.0308012 0 0.999525
vn 0.139809 -0 0.990178
vn 0 -1 -6.12323e-17
vn 4.69089e-23 -1 -6.12323e-17
vn -5.98525e-23 -1 -6.12324e-17
vn 0 -1 -6.12323e-17
vn 0 -1 -6.12323e-17
vn -3.06707e-24 -1 -6.12323e-17
vn -1.53595e-22 -1 -6.12324e-17
vn 2.40703e-23 -1 -6.12323e-17
vn -1.24785e-23 -1 -6.12323e-17
vn 1.66294e-23 -1 -6.12324e-17
vn -2.78973e-24 -1 -6.12323e-17
vn 0 -1 -6.12323e-17
vn -5.26762e-24 -1 -6.12323e-17
vn -8.12927e-23 -1 -6.12324e-17
vn 4.28789e-24 -1 -6.12323e-17
vn 5.81216e-24 -1 -6.12323e-17
vn 4.14123e-20 -1 -6.12178e-17
vn 0 -1 -6.1231e-17
vn -3.27628e-23 -1 -6.12323e-17
vn -1.22465e-22 -1 -6.12324e-17
vn 2.21068e-23 -1 -6.12323e-17
vn 4.77547e-23 -1 -6.12323e-17
vn 4.16456e-23 -1 -6.12323e-17
vn -1.07494e-22 -1 -6.12324e-17
vn 6.20206e-22 -1 -6.1232e-17
vn -4.50629e-23 -1 -6.12324e-17
vn 2.89625e-23 -1 -6.12324e-17
vn -1.10412e-22 -1 -6.12325e-17
vn -7.88309e-24 -1 -6.12323e-17
vn 2.7666e-23 -1 -6.12323e-17
vn -3.06205e-23 -1 -6.12323e-17
vn -7.11457e-23 -1 -6.12324e-17
vn 6.83646e-23 -1 -6.12323e-17
vn 4.50315e-23 -1 -6.12323e-17
vn 0 -1 -6.1232e-17
vn 0 -1 -6.12323e-17

# Mesh 'defaultobject' with 212 faces
g defaultobject
usemtl DefaultMaterial
f  1//1 2//1 3//1
f  2//2 1//2 4//2
f  5//3 6//3 7//3
f  6//4 5//4 4//4
f  6//5 4//5 1//5
f  6//6 1//6 8//6
f  6//7 8//7 9//7
f  6//8 9//8 10//8
f  6//9 10//9 11//9
f  11//10 10//10 12//10
f  12//11 10//11 13//11
f  14//12 15//12 16//12
f  15//13 14//13 17//13
f  15//14 17//14 18//14
f  15//15 18//15 19//15
f  19//16 18//16 20//16
f  20//17 18//17 21//17
f  21//18 18//18 22//18
f  21//19 22//19 23//19
f  23//20 22//20 24//20
f  23//21 24//21 25//21
f  25//22 24//22 26//22
f  26//23 24//23 27//23
f  26//24 27//24 28//24
f  28//25 27//25 3//25
f  3//26 27//26 1//26
f  1//27 27//27 29//27
f  30//28 31//28 32//28
f  31//29 30//29 33//29
f  31//30 33//30 34//30
f  31//31 34//31 35//31
f  35//32 34//32 36//32
f  36//33 34//33 37//33
f  37//34 34//34 38//34
f  37//35 38//35 39//35
f  39//36 38//36 40//36
f  40//37 38//37 41//37
f  40//38 41//38 42//38
f  42//39 41//39 15//39
f  15//40 41//40 43//40
f  15//41 43//41 16//41
f  16//42 43//42 44//42
f  45//43 46//43 47//43
f  46//44 45//44 32//44
f  46//45 32//45 31//45
f  46//46 31//46 48//46
f  48//47 49//47 46//47
f  49//48 48//48 50//48
f  49//49 50//49 51//49
f  49//50 51//50 52//50
f  49//51 52//51 53//51
f  53//52 52//52 54//52
f  6//53 55//53 7//53
f  55//53 6//53 56//54
f  57//55 25//55 26//55
f  25//55 57//55 58//55
f  58//56 23//56 25//56
f  23//57 58//57 21//57
f  21//58 58//58 59//58
f  59//59 58//59 60//59
f  61//60 53//60 54//60
f  53//61 61//61 49//61
f  49//62 61//62 46//62
f  46//63 61//63 62//63
f  46//64 62//64 63//64
f  62//65 61//65 64//65
f  46//66 65//66 47//66
f  65//66 46//66 63//67
f  45//68 30//68 32//68
f  30//69 45//69 66//69
f  66//70 45//70 47//70
f  66//71 47//71 67//71
f  67//72 47//72 65//72
f  66//73 67//73 68//73
f  55//74 5//74 7//74
f  5//75 55//75 4//75
f  4//76 55//76 69//76
f  69//77 55//77 70//77
f  71//78 38//78 34//78
f  38//78 71//78 72//79
f  38//80 73//80 41//80
f  73//80 38//80 72//80
f  41//81 74//81 43//81
f  74//81 41//81 73//82
f  43//83 75//83 44//83
f  75//83 43//83 74//84
f  4//85 76//85 2//85
f  76//85 4//85 69//85
f  2//86 28//86 3//86
f  28//87 2//87 77//87
f  77//87 2//87 76//88
f  77//89 76//89 78//89
f  77//90 26//90 28//90
f  26//90 77//90 57//91
f  66//92 33//92 30//92
f  33//92 66//92 79//93
f  79//94 34//94 33//94
f  34//94 79//94 71//95
f  21//96 80//96 20//96
f  80//96 21//96 59//96
f  20//97 81//97 19//97
f  81//97 20//97 80//98
f  19//99 42//99 15//99
f  42//100 19//100 81//100
f  42//100 81//100 82//101
f  82//102 81//102 83//102
f  82//103 40//103 42//103
f  40//103 82//103 84//103
f  84//104 39//104 40//104
f  39//104 84//104 85//105
f  39//106 86//106 37//106
f  86//106 39//106 85//107
f  87//108 37//108 86//108
f  88//109 54//109 52//109
f  54//109 88//109 61//110
f  89//111 12//111 13//111
f  12//112 89//112 11//112
f  11//113 89//113 6//113
f  6//114 89//114 90//114
f  6//115 90//115 56//115
f  56//116 90//116 91//116
f  87//108 36//117 37//108
f  36//118 92//118 35//118
f  92//118 36//118 87//118
f  35//119 48//119 31//119
f  48//120 35//120 92//120
f  48//120 92//120 93//121
f  93//122 92//122 94//122
f  95//123 9//123 8//123
f  9//123 95//123 96//124
f  96//125 10//125 9//125
f  10//125 96//125 97//125
f  97//126 13//126 10//126
f  13//126 97//126 89//127
f  93//128 50//128 48//128
f  50//128 93//128 98//129
f  98//130 51//130 50//130
f  51//131 98//131 52//131
f  52//132 98//132 88//132
f  88//133 98//133 99//133
f  100//134 22//134 18//134
f  22//134 100//134 101//134
f  22//135 102//135 24//135
f  102//135 22//135 101//136
f  24//137 103//137 27//137
f  103//137 24//137 102//138
f  27//139 104//139 29//139
f  104//139 27//139 103//140
f  29//141 8//141 1//141
f  8//142 29//142 95//142
f  95//142 29//142 104//143
f  95//144 104//144 105//144
f  44//145 14//145 16//145
f  14//146 44//146 75//146
f  14//146 75//146 106//147
f  106//148 75//148 107//148
f  106//149 17//149 14//149
f  17//149 106//149 108//150
f  108//151 18//151 17//151
f  18//151 108//151 100//151
f  63//152 67//152 65//152
f  67//152 63//152 68//153
f  68//153 63//152 66//154
f  66//154 63//152 79//155
f  79//155 63//152 62//155
f  79//155 62//155 93//156
f  79//155 93//156 71//157
f  93//156 62//155 98//158
f  98//158 62//155 99//159
f  99//159 62//155 88//152
f  88//152 62//155 64//160
f  88//152 64//160 61//161
f  56//162 70//77 55//77
f  70//77 56//162 91//156
f  70//77 91//156 90//163
f  70//77 90//163 89//164
f  70//77 89//164 69//77
f  69//77 89//164 76//89
f  76//89 89//164 78//89
f  78//89 89//164 77//89
f  77//89 89//164 57//165
f  71//157 87//166 72//166
f  87//166 71//157 92//167
f  92//167 71//157 93//156
f  92//167 93//156 94//168
f  72//166 87//166 86//169
f  72//166 86//169 85//170
f  72//166 85//170 73//171
f  73//171 85//170 84//172
f  73//171 84//172 74//173
f  74//173 84//172 82//174
f  74//173 82//174 75//148
f  75//148 82//174 83//175
f  75//148 83//175 81//176
f  75//148 81//176 80//177
f  75//148 80//177 107//148
f  107//148 80//177 106//148
f  106//148 80//177 59//59
f  106//148 59//59 108//178
f  108//178 59//59 60//59
f  108//178 60//59 100//179
f  100//179 60//59 101//180
f  101//180 60//59 102//181
f  102//181 60//59 58//59
f  102//181 58//59 57//165
f  102//181 57//165 89//164
f  102//181 89//164 97//182
f  102//181 97//182 96//183
f  102//181 96//183 95//184
f  102//181 95//184 103//185
f  103//185 95//184 105//186
f  103//185 105//186 104//187

