# {"id":"ID_43027","idOriginal":"ID_43027","origin":[14.296587064353758,48.28608953748461],"elevation":261.222}
# Longitude: 14.296587064353758
# Latitude: 48.28608953748461
# Elevation: 261.222

# File produced by Open Asset Import Library (http://www.assimp.sf.net)
# (assimp v3.1.0)

mtllib ID_43027.obj.mtl

# 31 vertex positions
v  3.114 2.826 2.102
v  2.691 2.545 -0.549
v  2.593 2.545 -0.529
v  5.733 2.535 -1.295
v  2.671 2.535 -0.643
v  6.273 2.826 1.43
v  3.114 -1.2871e-16 2.102
v  6.273 -8.75622e-17 1.43
v  5.733 7.92959e-17 -1.295
v  2.671 3.93724e-17 -0.643
v  2.691 3.36166e-17 -0.549
v  2.593 3.23919e-17 -0.529
v  0 3.799 2.32622e-16
v  3.114 2.327 2.102
v  2.593 2.313 -0.529
v  0.575 3.785 2.643
v  0 0 0
v  0.575 -1.61837e-16 2.643
v  5.484 5.075 -2.55
v  2.671 1.672 -0.643
v  5.733 1.663 -1.295
v  2.65 1.925 -0.737
v  3.574 5.071 -2.138
v  2.198 1.934 -3.039
v  5.255 1.93 -3.708
v  2.152 1.81 -3.029
v  2.152 1.85473e-16 -3.029
v  2.65 4.51282e-17 -0.737
v  5.255 2.2705e-16 -3.708
v  5.484 1.56142e-16 -2.55
v  2.198 1.86085e-16 -3.039

# 0 UV coordinates

# 48 vertex normals
vn -0.0208359 0.994556 -0.102096
vn -0.0215542 0.99463 -0.101226
vn -0.0217328 0.994552 -0.101952
vn -0.0216792 0.994557 -0.101912
vn 0.20807 -0 0.978114
vn 0.980925 0 -0.194385
vn -0.208264 0 -0.978073
vn -0.19996 0 -0.979804
vn -0.978106 0 0.208107
vn -0.978106 0 0.208108
vn -0.980952 0 0.194252
vn -0.980952 0 0.194252
vn 0 -1 -6.12323e-17
vn 0 -1 -6.12324e-17
vn 0 -1 -6.12323e-17
vn 0.47938 0.871941 -0.0995683
vn 0.479438 0.871895 -0.0996861
vn -0.977143 -1.3017e-17 0.212583
vn -0.977143 0 0.212583
vn 0.208398 -0 0.978044
vn 0.208398 0 0.978044
vn 0.980952 0 -0.194252
vn -0.199893 0 -0.979818
vn -0.199893 0 -0.979818
vn 9.2455e-25 -1 -6.12323e-17
vn 0.195994 0.35108 0.915603
vn 0.189976 0.355754 0.915067
vn 0.196817 0.350036 0.915826
vn -0.199715 0.351338 -0.9147
vn -0.198227 0.349916 -0.915568
vn -0.917138 0.354863 0.181468
vn -0.918661 0.350755 0.181751
vn -0.977199 0 0.212324
vn -0.977199 0 0.212323
vn -0.975942 0 0.218029
vn 0.208264 -0 0.978073
vn 0.208264 0 0.978073
vn 0.980941 0.000117551 -0.194305
vn 0.980939 0 -0.194318
vn 0.980939 0 -0.194318
vn -2.79688e-20 -1 -6.12273e-17
vn -0.213782 0.000525073 -0.976881
vn -0.213763 -0 -0.976886
vn -0.212429 -0.00224566 -0.977174
vn -0.213783 0 -0.976881
vn -3.42921e-24 -1 -6.12324e-17
vn 5.81388e-24 -1 -6.12323e-17
vn 2.98869e-23 -1 -6.12325e-17

# Mesh 'defaultobject' with 58 faces
g defaultobject
usemtl DefaultMaterial
f  1//1 2//1 3//1
f  2//2 4//2 5//2
f  4//3 2//3 1//3
f  4//4 1//4 6//4
f  7//5 6//5 1//5
f  6//5 7//5 8//5
f  8//6 4//6 6//6
f  4//6 8//6 9//6
f  9//7 5//7 4//7
f  5//7 9//7 10//7
f  11//8 3//8 2//8
f  3//8 11//8 12//8
f  5//9 11//9 2//9
f  11//9 5//9 10//10
f  3//11 7//11 1//11
f  7//11 3//11 12//12
f  12//13 8//13 7//13
f  8//13 12//13 11//14
f  8//13 11//14 9//15
f  9//15 11//14 10//15
f  13//16 14//16 15//16
f  14//17 13//17 16//17
f  17//18 16//18 13//18
f  16//18 17//18 18//19
f  18//20 14//20 16//20
f  14//20 18//20 7//21
f  7//22 15//22 14//22
f  15//22 7//22 12//22
f  15//23 17//23 13//23
f  17//23 15//23 12//24
f  12//13 18//25 17//25
f  18//25 12//13 7//13
f  19//26 20//26 21//26
f  20//27 19//27 22//27
f  22//28 19//28 23//28
f  24//29 19//29 25//29
f  19//30 24//30 23//30
f  22//31 24//31 26//31
f  24//32 22//32 23//32
f  27//33 22//33 26//33
f  22//33 27//33 28//34
f  22//35 28//35 20//35
f  20//35 28//35 10//35
f  10//36 21//36 20//36
f  21//36 10//36 9//37
f  21//38 25//38 19//38
f  25//39 21//39 9//39
f  25//39 9//39 29//40
f  29//41 9//15 30//41
f  25//42 26//42 24//42
f  26//43 25//43 27//43
f  27//44 25//44 31//44
f  31//45 25//45 29//45
f  28//46 9//15 10//15
f  9//15 28//46 30//41
f  30//41 28//46 27//47
f  30//41 27//47 31//48
f  30//41 31//48 29//41

