# File produced by Open Asset Import Library (http://www.assimp.sf.net)
# (assimp v3.1.0)

mtllib ID_19054.obj.mtl

# 46 vertex positions
v  5.389 4.269 -1.384
v  3.048 4.269 6.988
v  7.664 4.269 5.431
v  5.292 4.269 -1.676
v  2.327 4.269 -0.737
v  2.807 4.269 6.277
v  0 4.269 2.61401e-16
v  0.015 4.269 0.043
v  2.164 4.269 6.441
v  0 0 0
v  2.164 -3.94397e-16 6.441
v  0.015 -2.63299e-18 0.043
v  2.807 -3.84355e-16 6.277
v  3.048 -4.27892e-16 6.988
v  7.664 -3.32553e-16 5.431
v  5.389 8.47456e-17 -1.384
v  5.292 1.02625e-16 -1.676
v  2.327 4.51282e-17 -0.737
v  3.048 3.865 6.988
v  8.54 3.865 8.056
v  7.664 3.865 5.431
v  6.831 3.865 18.141
v  11.912 3.865 14.547
v  12.091 3.865 14.485
v  14.806 3.865 18.697
v  13.22 3.865 14.096
v  5.688 3.865 18.603
v  13.645 3.865 19.079
v  5.331 3.865 18.748
v  13.548 3.865 19.111
v  13.939 3.865 20.296
v  6.687 3.865 22.753
v  9.559 3.865 7.732
v  6.831 -1.11082e-15 18.141
v  5.331 -1.14798e-15 18.748
v  5.688 -1.13911e-15 18.603
v  13.22 -8.63131e-16 14.096
v  11.912 -8.90747e-16 14.547
v  12.091 -8.8695e-16 14.485
v  9.559 -4.73448e-16 7.732
v  8.54 -4.93288e-16 8.056
v  6.687 -1.39322e-15 22.753
v  13.939 -1.24277e-15 20.296
v  13.548 -1.17021e-15 19.111
v  14.806 -1.14486e-15 18.697
v  13.645 -1.16825e-15 19.079

# 0 UV coordinates

# 48 vertex normals
vn 0 1 -0
vn -0.9442 -2.01682e-17 0.329372
vn -0.947955 0.000123661 0.318405
vn -0.94793 0 0.318479
vn 0 -1 -6.12301e-17
vn -0.947073 0 0.321019
vn 0.247143 -0 0.968979
vn 0.319613 -0 0.947548
vn 0.948544 0 -0.316645
vn 0.949008 0 -0.315253
vn -0.301935 0 -0.953328
vn -0.301916 -1.14386e-05 -0.953335
vn -0.301935 1.45747e-05 -0.953328
vn -0.301916 0 -0.953335
vn -4.53765e-24 -1 -6.12323e-17
vn 0 -1 -6.12324e-17
vn -6.78165e-24 -1 -6.12324e-17
vn 4.66899e-23 -1 -6.12323e-17
vn -0.374745 0 -0.927128
vn -0.376304 -0.000536613 -0.926496
vn -0.375116 -0 -0.926978
vn 6.46911e-20 1 6.13923e-17
vn -0.325758 0 -0.945453
vn -0.327293 -0.000501807 -0.944923
vn -0.325968 -0 -0.945381
vn -9.25899e-20 1 6.09641e-17
vn -0.303011 0 -0.952987
vn -0.319613 0 -0.947548
vn -0.947183 0 0.320694
vn -0.947006 0 0.321216
vn 0.320886 -0 0.947118
vn 0.313285 -0 0.949659
vn 0.312544 2.06306e-05 0.949903
vn 0.312601 0 0.949885
vn -3.90445e-19 -1 -6.24034e-17
vn 0.949641 0 -0.313341
vn 0.945408 0 -0.325889
vn 0.945245 0 -0.326363
vn 0.948575 0 -0.316553
vn -3.33787e-23 -1 -6.12323e-17
vn -1.10818e-23 -1 -6.12324e-17
vn 1.04307e-22 -1 -6.12323e-17
vn -5.28854e-22 -1 -6.12327e-17
vn 1.15679e-23 -1 -6.12323e-17
vn -1.47301e-23 -1 -6.12323e-17
vn -1.26325e-21 -1 -6.12324e-17
vn 4.45646e-23 -1 -6.12324e-17
vn -6.41723e-20 -1 -6.13902e-17

# Mesh 'defaultobject' with 88 faces
g defaultobject
usemtl DefaultMaterial
f  1//1 2//1 3//1
f  2//1 1//1 4//1
f  2//1 4//1 5//1
f  2//1 5//1 6//1
f  6//1 5//1 7//1
f  6//1 7//1 8//1
f  6//1 8//1 9//1
f  10//2 8//2 7//2
f  8//3 10//3 9//3
f  9//4 10//4 11//4
f  11//5 10//5 12//5
f  13//6 2//6 6//6
f  2//6 13//6 14//6
f  11//7 6//7 9//7
f  6//7 11//7 13//7
f  14//8 3//8 2//8
f  3//8 14//8 15//8
f  15//9 1//9 3//9
f  1//9 15//9 16//9
f  1//10 16//10 4//10
f  4//10 16//10 17//10
f  5//11 10//11 7//11
f  10//12 5//12 4//12
f  10//13 4//13 18//13
f  18//14 4//14 17//14
f  14//15 16//15 15//15
f  16//15 14//15 13//16
f  16//15 13//16 11//5
f  16//15 11//5 12//5
f  16//15 12//5 17//17
f  17//17 12//5 18//18
f  18//18 12//5 10//5
f  19//1 20//1 21//1
f  20//1 19//1 22//1
f  20//1 22//1 23//1
f  24//1 25//1 26//1
f  25//1 24//1 23//1
f  25//1 23//1 22//1
f  25//1 22//1 27//1
f  25//1 27//1 28//1
f  28//1 27//1 29//1
f  28//1 29//1 30//1
f  30//1 29//1 31//1
f  31//1 29//1 32//1
f  23//1 33//1 20//1
f  34//19 27//19 22//19
f  27//20 34//20 29//20
f  29//21 34//21 35//21
f  35//22 34//22 36//22
f  37//23 24//23 26//23
f  24//24 37//24 23//24
f  23//25 37//25 38//25
f  38//26 37//26 39//26
f  40//27 20//27 33//27
f  20//27 40//27 41//27
f  15//28 19//28 21//28
f  19//28 15//28 14//28
f  35//29 32//29 29//29
f  32//29 35//29 42//29
f  14//30 22//30 19//30
f  22//30 14//30 34//30
f  42//31 31//31 32//31
f  31//31 42//31 43//31
f  44//32 28//32 30//32
f  28//33 44//33 25//33
f  25//34 44//34 45//34
f  45//35 44//35 46//35
f  43//36 30//36 31//36
f  30//36 43//36 44//36
f  45//37 26//37 25//37
f  26//37 45//37 37//37
f  38//38 33//38 23//38
f  33//38 38//38 40//38
f  41//39 21//39 20//39
f  21//39 41//39 15//39
f  46//35 37//40 45//35
f  37//40 46//35 44//35
f  42//41 44//35 43//41
f  44//35 42//41 37//40
f  37//40 42//41 39//42
f  39//42 42//41 38//43
f  38//43 42//41 40//44
f  40//44 42//41 41//45
f  41//45 42//41 15//15
f  15//15 42//41 34//46
f  34//46 42//41 35//47
f  34//46 35//47 36//48
f  14//15 15//15 34//46

