# File produced by Open Asset Import Library (http://www.assimp.sf.net)
# (assimp v3.1.0)

mtllib ID_28303.obj.mtl

# 18 vertex positions
v  7.256 3.332 8.979
v  5.537 6.576 6.975
v  7.2 3.332 9.025
v  12.436 3.332 4.665
v  3.559 10.434 4.536
v  8.673 10.434 0.277
v  0 3.353 2.05312e-16
v  4.902 3.318 -4.119
v  2.525 8.418 3.262
v  2.525 -1.9974e-16 3.262
v  0 0 0
v  3.559 -2.7775e-16 4.536
v  5.537 -4.27096e-16 6.975
v  7.2 -5.52622e-16 9.025
v  12.436 -2.85649e-16 4.665
v  7.256 -5.49805e-16 8.979
v  8.673 -1.69614e-17 0.277
v  4.902 2.52216e-16 -4.119

# 0 UV coordinates

# 30 vertex normals
vn 0.492335 0.631156 0.599373
vn 0.496358 0.631202 0.595998
vn 0.496362 0.631242 0.595952
vn 0.496345 0.631222 0.595987
vn -0.496313 0.631213 -0.596023
vn -0.496345 0.63125 -0.595957
vn -0.49635 0.631211 -0.595993
vn -0.790773 0 0.61211
vn -0.776569 0.000154245 0.630032
vn -0.776606 0 0.629986
vn -0.776603 -3.59784e-06 0.62999
vn -0.776449 -0.000547035 0.630179
vn -0.776688 0.000110467 0.629885
vn -0.776601 0 0.629993
vn 0.634734 -0 0.772731
vn 0.639951 -0.000147251 0.768416
vn 0.639896 0 0.768462
vn 0 1 6.12415e-17
vn 0.759098 0 -0.650977
vn 0.75904 -4.9277e-05 -0.651044
vn 0.759098 0.000261144 -0.650976
vn 0.759001 0 -0.65109
vn -0.643313 0 -0.765603
vn -0.643313 0 -0.765603
vn -1.3837e-22 -1 -6.12323e-17
vn 0 -1 -6.12323e-17
vn 0 -1 -6.12323e-17
vn -1.01333e-23 -1 -6.12323e-17
vn 4.84837e-24 -1 -6.12323e-17
vn -1.38285e-24 -1 -6.12323e-17

# Mesh 'defaultobject' with 32 faces
g defaultobject
usemtl DefaultMaterial
f  1//1 2//1 3//1
f  2//2 1//2 4//2
f  2//3 4//3 5//3
f  5//4 4//4 6//4
f  7//5 6//5 8//5
f  6//6 7//6 9//6
f  6//7 9//7 5//7
f  7//8 10//8 9//8
f  10//8 7//8 11//8
f  9//9 2//9 5//9
f  2//10 9//10 10//10
f  2//10 10//10 3//11
f  3//12 10//12 12//12
f  3//13 12//13 13//13
f  3//11 13//14 14//14
f  14//15 1//15 3//15
f  1//16 14//16 4//16
f  4//17 14//17 15//17
f  15//18 14//18 16//18
f  15//19 6//19 4//19
f  6//20 15//20 8//20
f  8//21 15//21 17//21
f  8//22 17//22 18//22
f  8//23 11//23 7//23
f  11//23 8//23 18//24
f  13//25 16//25 14//25
f  16//25 13//25 15//26
f  15//26 13//25 17//27
f  17//27 13//25 12//28
f  17//27 12//28 10//29
f  17//27 10//29 18//30
f  18//30 10//29 11//26

