# File produced by Open Asset Import Library (http://www.assimp.sf.net)
# (assimp v3.1.0)

mtllib ID_26636.obj.mtl

# 50 vertex positions
v  9.917 2.686 -0.032
v  7.658 3.036 -2.027
v  9.593 2.688 0.19
v  9.818 2.709 -0.195
v  14.41 3.036 -7.092
v  16.201 2.713 -5.021
v  14.734 2.987 -6.72
v  7.331 3.036 -8.846
v  10.022 3.036 -12.389
v  6.572 3.036 -9.792
v  7.394 3.036 -8.768
v  7.544 3.036 -8.859
v  8.973 3.036 -6.855
v  1.79 3.036 2.377
v  5.655 3.036 -4.32
v  0 3.036 1.85901e-16
v  1.8 3.036 2.39
v  2.719 3.036 1.68
v  7.509 3.036 -2.022
v  7.562 3.036 -1.954
v  10.664 3.036 -11.392
v  10.362 3.036 -11.739
v  10.491 3.036 -11.883
v  9.818 1.19403e-17 -0.195
v  9.917 1.95943e-18 -0.032
v  16.201 3.07448e-16 -5.021
v  14.734 4.11481e-16 -6.72
v  14.41 4.3426e-16 -7.092
v  10.664 6.97559e-16 -11.392
v  10.362 7.18806e-16 -11.739
v  10.491 7.27624e-16 -11.883
v  10.022 7.58607e-16 -12.389
v  7.394 5.36885e-16 -8.768
v  7.544 5.42457e-16 -8.859
v  1.8 -1.46345e-16 2.39
v  7.509 1.23812e-16 -2.022
v  2.719 -1.0287e-16 1.68
v  7.562 1.19648e-16 -1.954
v  7.658 1.24118e-16 -2.027
v  9.593 -1.16341e-17 0.19
v  6.572 5.99587e-16 -9.792
v  8.973 4.19748e-16 -6.855
v  5.655 2.64524e-16 -4.32
v  0 0 0
v  7.331 5.41661e-16 -8.846
v  1.79 -1.45549e-16 2.377
v  7.658 2.673 -2.027
v  9.358 2.673 0.351
v  7.562 2.673 -1.954
v  9.358 -2.14926e-17 0.351

# 0 UV coordinates

# 66 vertex normals
vn 0.0706712 0.993042 0.0941948
vn 0.064929 0.992801 0.100655
vn 0.0705603 0.993063 0.0940618
vn 0.0728496 0.992598 0.0971756
vn 0.0545873 0.99501 0.0835194
vn 0 1 0
vn 0.854704 0 -0.519115
vn 0.756893 0 -0.653539
vn 0.753849 -0.00348583 -0.657038
vn 0.754005 -0.00327279 -0.656861
vn 0.756863 0.00896666 -0.653512
vn 0.754081 0.000206309 -0.656781
vn 0.754009 0 -0.656864
vn 0.754325 0 -0.656502
vn 0.733413 0 -0.679784
vn 0.603095 0 0.79767
vn 0.744834 -0 0.66725
vn 0.518683 -0 0.854967
vn 0.611374 -0 0.791342
vn 0.611513 -6.74026e-05 0.791234
vn 0.611491 0 0.791252
vn 0 1 6.12331e-17
vn 0.605292 -0 0.796003
vn 0.565232 -0 0.824932
vn 0.565232 0 0.824932
vn -0.601407 0 -0.798943
vn -0.607103 0 -0.794623
vn -0.607059 -0 -0.794657
vn -0.607059 4.86587e-17 -0.794657
vn -0.779983 0 0.6258
vn -0.77794 -0.00130142 0.628337
vn -0.779828 0 0.625994
vn -5.63766e-20 1 6.12793e-17
vn -0.8142 0 0.580584
vn -0.798829 -3.68348e-17 0.601558
vn -0.792579 -0.0100487 0.609686
vn -0.798795 0 0.601603
vn 9.13332e-20 1 6.11637e-17
vn -0.788728 0 0.614743
vn -0.753397 0 0.657566
vn -0.753397 0 0.657566
vn -7.03005e-22 -1 -6.12333e-17
vn 0 -1 -6.12323e-17
vn 5.92466e-24 -1 -6.12323e-17
vn -2.99897e-23 -1 -6.12323e-17
vn 2.74314e-23 -1 -6.1232e-17
vn 9.78376e-24 -1 -6.12323e-17
vn 0 -1 -6.12323e-17
vn 2.90729e-23 -1 -6.12324e-17
vn 2.39353e-24 -1 -6.12323e-17
vn 1.62669e-24 -1 -6.12323e-17
vn 0 -1 -6.12323e-17
vn -1.05863e-23 -1 -6.12324e-17
vn 0 -1 -6.12267e-17
vn -2.59896e-21 -1 -6.12306e-17
vn -1.06917e-19 -1 -6.11564e-17
vn -5.29404e-23 -1 -6.12323e-17
vn -2.9524e-23 -1 -6.12323e-17
vn -0.0427862 0.998616 0.0305873
vn -0.788818 0 0.614627
vn 0.565186 0 0.824963
vn 0.565186 0 0.824963
vn 0.753397 0 -0.657566
vn 0.753397 0 -0.657566
vn -0.605292 0 -0.796003
vn -3.9905e-23 -1 -6.12323e-17

# Mesh 'defaultobject' with 100 faces
g defaultobject
usemtl DefaultMaterial
f  1//1 2//1 3//1
f  2//2 1//2 4//2
f  2//3 4//3 5//3
f  4//4 6//4 7//4
f  4//5 7//5 5//5
f  8//6 9//6 10//6
f  9//6 8//6 11//6
f  9//6 11//6 12//6
f  9//6 12//6 13//6
f  14//6 15//6 16//6
f  15//6 14//6 17//6
f  15//6 17//6 18//6
f  15//6 18//6 19//6
f  15//6 19//6 13//6
f  13//6 19//6 20//6
f  13//6 20//6 2//6
f  13//6 2//6 5//6
f  13//6 5//6 21//6
f  13//6 21//6 22//6
f  13//6 22//6 9//6
f  23//6 9//6 22//6
f  1//7 24//7 4//7
f  24//7 1//7 25//7
f  26//8 7//8 6//8
f  7//9 26//9 5//9
f  5//10 26//10 21//10
f  21//11 26//11 27//11
f  21//12 27//12 28//12
f  21//13 28//13 29//13
f  21//14 29//14 22//14
f  22//14 29//14 30//14
f  31//15 9//15 23//15
f  9//15 31//15 32//15
f  4//16 26//16 6//16
f  26//16 4//16 24//16
f  30//17 23//17 22//17
f  23//17 30//17 31//17
f  33//18 12//18 11//18
f  12//18 33//18 34//18
f  35//19 18//19 17//19
f  18//20 35//20 19//20
f  19//21 35//21 36//21
f  36//22 35//22 37//22
f  38//23 2//23 20//23
f  2//23 38//23 39//23
f  40//24 1//24 3//24
f  1//24 40//24 25//25
f  32//26 10//26 9//26
f  10//26 32//26 41//26
f  42//27 15//27 13//27
f  15//27 42//27 43//27
f  15//28 43//28 16//28
f  16//28 43//28 44//29
f  41//30 8//30 10//30
f  8//31 41//31 11//31
f  11//32 41//32 33//32
f  33//33 41//33 45//33
f  34//34 13//34 12//34
f  13//34 34//34 42//34
f  44//35 14//35 16//35
f  14//36 44//36 17//36
f  17//37 44//37 35//37
f  35//22 44//38 46//38
f  36//39 20//39 19//39
f  20//39 36//39 38//39
f  39//40 3//40 2//40
f  3//40 39//40 40//41
f  46//42 37//42 35//42
f  37//42 46//42 44//43
f  37//42 44//43 43//43
f  37//42 43//43 36//44
f  36//44 43//43 39//45
f  45//46 34//46 33//46
f  34//46 45//46 41//47
f  39//45 25//48 40//48
f  25//48 39//45 24//49
f  24//49 39//45 26//50
f  26//50 39//45 43//43
f  26//50 43//43 42//51
f  26//50 42//51 34//46
f  26//50 34//46 41//47
f  26//50 41//47 30//52
f  30//52 41//47 32//53
f  26//50 30//52 29//54
f  26//50 29//54 27//55
f  27//55 29//54 28//56
f  30//52 32//53 31//57
f  39//45 38//58 36//44
f  3//59 47//59 48//59
f  48//6 47//6 49//6
f  38//60 48//60 49//60
f  48//60 38//60 50//60
f  48//61 40//61 3//61
f  40//61 48//61 50//62
f  40//63 47//63 3//63
f  47//63 40//63 39//64
f  39//65 49//65 47//65
f  49//65 39//65 38//65
f  39//45 50//66 38//58
f  50//66 39//45 40//48

