# File produced by Open Asset Import Library (http://www.assimp.sf.net)
# (assimp v3.1.0)

mtllib ID_34150.obj.mtl

# 18 vertex positions
v  2.13 6.919 3.606
v  5.974 5.682 -3.545
v  0 5.658 3.46453e-16
v  6.611 6.07 -2.426
v  13.777 6.907 -3.533
v  9.349 6.059 -4.136
v  11.39 6.132 -5.094
v  11.242 6.043 -5.352
v  12.508 6.135 -5.763
v  12.508 3.52882e-16 -5.763
v  11.39 3.11918e-16 -5.094
v  11.242 3.27715e-16 -5.352
v  6.611 1.4855e-16 -2.426
v  9.349 2.53257e-16 -4.136
v  5.974 2.17069e-16 -3.545
v  0 0 0
v  13.777 2.16334e-16 -3.533
v  2.13 -2.20804e-16 3.606

# 0 UV coordinates

# 27 vertex normals
vn -0.149976 0.957531 -0.246256
vn -0.150306 0.957437 -0.246417
vn -0.149867 0.957585 -0.246111
vn -0.149868 0.957582 -0.246124
vn -0.149842 0.957548 -0.24627
vn -0.149206 0.958004 -0.244881
vn -0.149892 0.957559 -0.246198
vn -0.51348 0 -0.858102
vn -0.540466 0 -0.841366
vn -0.529701 0.00472896 -0.848171
vn -0.534144 -0 -0.845393
vn 5.73072e-22 -1 -6.12315e-17
vn -0.510319 0 -0.859985
vn -0.510319 5.26589e-17 -0.859985
vn 0.867414 0 -0.497588
vn 0.867414 0 -0.497588
vn 0.869054 0 -0.494716
vn 0.869129 0 -0.494585
vn 0.869129 0 -0.494585
vn -0.861012 0 0.508584
vn -0.861012 0 0.508585
vn 0.52259 -0 0.852584
vn 0.52259 0 0.852584
vn -3.63932e-24 -1 -6.12323e-17
vn 5.53402e-24 -1 -6.12323e-17
vn 2.41833e-24 -1 -6.12324e-17
vn -1.58402e-23 -1 -6.12323e-17

# Mesh 'defaultobject' with 32 faces
g defaultobject
usemtl DefaultMaterial
f  1//1 2//1 3//1
f  2//2 1//2 4//2
f  4//3 1//3 5//3
f  4//4 5//4 6//4
f  6//5 5//5 7//5
f  6//6 7//6 8//6
f  7//7 5//7 9//7
f  10//8 7//8 9//8
f  7//8 10//8 11//8
f  12//9 6//9 8//9
f  6//10 12//10 4//10
f  4//11 12//11 13//11
f  13//12 12//12 14//12
f  15//13 3//13 2//13
f  3//13 15//13 16//14
f  11//15 8//15 7//15
f  8//15 11//15 12//16
f  13//17 2//17 4//17
f  2//17 13//17 15//17
f  17//18 9//18 5//18
f  9//18 17//18 10//19
f  3//20 18//20 1//20
f  18//20 3//20 16//21
f  18//22 5//22 1//22
f  5//22 18//22 17//23
f  15//24 18//24 16//24
f  18//24 15//24 13//12
f  18//24 13//12 17//25
f  17//25 13//12 14//12
f  17//25 14//12 11//26
f  11//26 14//12 12//12
f  17//25 11//26 10//27

