# File produced by Open Asset Import Library (http://www.assimp.sf.net)
# (assimp v3.1.0)

mtllib ID_37868.obj.mtl

# 16 vertex positions
v  0 2.577 1.57796e-16
v  8.365 2.577 1.422
v  5.973 2.577 -3.054
v  8.436 2.577 1.554
v  8.367 2.577 1.589
v  2.775 2.577 4.416
v  2.343 2.577 4.537
v  2.383 2.577 4.614
v  8.436 -9.51551e-17 1.554
v  5.973 1.87004e-16 -3.054
v  8.365 -8.70724e-17 1.422
v  0 0 0
v  2.343 -2.77811e-16 4.537
v  2.383 -2.82526e-16 4.614
v  2.775 -2.70402e-16 4.416
v  8.367 -9.72982e-17 1.589

# 0 UV coordinates

# 20 vertex normals
vn -0 1 0
vn 0.880685 0 -0.473702
vn 0.88196 0.000156921 -0.471324
vn 0.881923 0 -0.471393
vn 0 -1 -6.12377e-17
vn -0.455245 0 -0.890366
vn -0.455245 5.45192e-17 -0.890366
vn -0.888515 -2.80963e-17 0.458847
vn -0.888515 0 0.458847
vn -0.887405 0 0.460991
vn 0.450853 -0 0.892598
vn 0.451167 -6.00055e-05 0.89244
vn 0.450853 0.000856148 0.892598
vn 0.451167 0 0.89244
vn 0.452375 0 0.891828
vn -2.45271e-23 -1 -6.12323e-17
vn 0 -1 -6.12323e-17
vn 8.13474e-25 -1 -6.12323e-17
vn 0 -1 -6.12323e-17
vn -9.89504e-20 -1 -6.11513e-17

# Mesh 'defaultobject' with 28 faces
g defaultobject
usemtl DefaultMaterial
f  1//1 2//1 3//1
f  2//1 1//1 4//1
f  4//1 1//1 5//1
f  5//1 1//1 6//1
f  6//1 1//1 7//1
f  6//1 7//1 8//1
f  9//2 2//2 4//2
f  2//3 9//3 3//3
f  3//4 9//4 10//4
f  10//5 9//5 11//5
f  10//6 1//6 3//6
f  1//6 10//6 12//7
f  12//8 7//8 1//8
f  7//8 12//8 13//9
f  7//10 13//10 8//10
f  8//10 13//10 14//10
f  14//11 6//11 8//11
f  6//12 14//12 5//12
f  5//13 14//13 15//13
f  5//14 15//14 16//14
f  5//15 16//15 4//15
f  4//15 16//15 9//15
f  16//16 11//5 9//5
f  11//5 12//17 10//5
f  12//17 11//5 16//16
f  12//17 16//16 15//18
f  12//17 15//18 14//19
f  12//17 14//19 13//20

