# File produced by Open Asset Import Library (http://www.assimp.sf.net)
# (assimp v3.1.0)

mtllib ID_31012.obj.mtl

# 18 vertex positions
v  5.658 3.887 -6.938
v  8.158 9.695 1.086
v  11.063 3.918 -2.298
v  2.823 9.695 -3.462
v  5.401 4.414 -6.623
v  0 3.91 2.39418e-16
v  0.76 3.906 0.652
v  2.629 3.915 2.236
v  5.244 3.9 4.481
v  5.658 4.2483e-16 -6.938
v  5.401 4.05542e-16 -6.623
v  2.823 2.11986e-16 -3.462
v  0 0 0
v  0.76 -3.99235e-17 0.652
v  2.629 -1.36916e-16 2.236
v  5.244 -2.74382e-16 4.481
v  8.158 -6.64983e-17 1.086
v  11.063 1.40712e-16 -2.298

# 0 UV coordinates

# 31 vertex normals
vn 0.513579 0.611088 -0.602336
vn 0.513494 0.611144 -0.602351
vn 0.853689 0.112383 0.508514
vn -0.513523 0.611086 0.602385
vn -0.513536 0.611111 0.602349
vn -0.513504 0.611064 0.602424
vn -0.513581 0.611114 0.602307
vn -0.774977 -3.24578e-05 -0.63199
vn -0.774972 -0.00016932 -0.631996
vn -0.774972 0 -0.631996
vn -0.774833 0.000501565 -0.632165
vn -0.77495 9.60325e-05 -0.632022
vn -0.775004 3.86962e-17 -0.631957
vn -0.65112 -4.64738e-17 0.758975
vn -0.646541 -0.0015426 0.762878
vn -0.65137 0.00405793 0.75875
vn -0.651116 0.00346423 0.75897
vn -0.646536 -0.00562478 0.762863
vn -0.651389 0 0.758744
vn 0.75879 2.89653e-05 0.651335
vn 0.75879 0 0.651335
vn 0.758815 -8.54144e-05 0.651307
vn 0.758766 0 0.651364
vn 0.651369 0 -0.758761
vn 0.651369 0 -0.758761
vn 0 -1 -6.12323e-17
vn 0 -1 -6.12323e-17
vn 0 -1 -6.12323e-17
vn 3.60263e-24 -1 -6.12323e-17
vn -6.04102e-22 -1 -6.12323e-17
vn 6.64456e-24 -1 -6.12323e-17

# Mesh 'defaultobject' with 32 faces
g defaultobject
usemtl DefaultMaterial
f  1//1 2//1 3//1
f  2//2 1//2 4//2
f  4//3 1//3 5//3
f  6//4 2//4 4//4
f  2//5 6//5 7//5
f  2//6 7//6 8//6
f  2//7 8//7 9//7
f  5//8 6//8 4//8
f  6//9 5//9 1//9
f  6//10 1//10 10//10
f  6//11 10//11 11//11
f  6//12 11//12 12//12
f  6//13 12//13 13//13
f  13//14 7//14 6//14
f  7//15 13//15 8//15
f  8//16 13//16 9//16
f  9//17 13//17 14//17
f  9//18 14//18 15//18
f  9//19 15//19 16//19
f  9//20 3//20 2//20
f  3//21 9//21 16//21
f  3//22 16//22 17//22
f  3//23 17//23 18//23
f  18//24 1//24 3//24
f  1//24 18//24 10//25
f  12//26 14//26 13//26
f  14//26 12//26 15//27
f  15//27 12//26 11//28
f  15//27 11//28 16//29
f  16//29 11//28 10//30
f  16//29 10//30 17//31
f  17//31 10//30 18//27

