# File produced by Open Asset Import Library (http://www.assimp.sf.net)
# (assimp v3.1.0)

mtllib ID_41782.obj.mtl

# 18 vertex positions
v  7.387 2.86 3.32
v  7.165 2.854 3.525
v  7.399 2.854 3.335
v  4.839 3.455 3.056
v  4.591 2.862 5.58
v  2.563 3.455 0.253
v  2.827 2.86 -2.295
v  0.015 2.86 -0.012
v  0 2.854 1.74757e-16
v  4.579 2.869 5.565
v  0 0 0
v  4.579 -3.40758e-16 5.565
v  4.591 -3.41676e-16 5.58
v  7.165 -2.15844e-16 3.525
v  7.399 -2.0421e-16 3.335
v  2.827 1.40528e-16 -2.295
v  7.387 -2.03291e-16 3.32
v  0.015 7.34788e-19 -0.012

# 0 UV coordinates

# 28 vertex normals
vn 0.187936 0.954519 0.231459
vn 0.196935 0.950314 0.241081
vn 0.196571 0.950024 0.242517
vn 0.24227 0.95005 -0.19675
vn 0.242236 0.95007 -0.196693
vn -0.196665 0.950076 -0.242235
vn -0.242271 0.950042 0.196785
vn -0.242199 0.950086 0.196663
vn -0.772199 -3.89059e-17 0.635381
vn -0.772198 0 0.635381
vn -0.780864 0 0.624701
vn 0.623917 -0 0.781491
vn 0.623917 0 0.78149
vn 0.630343 0 0.776317
vn 0.776048 -0.0234956 -0.630236
vn 0.776274 0 -0.630395
vn 0.776274 0 -0.630395
vn 2.07518e-19 1 6.10104e-17
vn -0.624695 0 -0.780869
vn -0.630302 4.8363e-05 -0.77635
vn -0.624669 -0.00911885 -0.780836
vn -0.630302 0 -0.77635
vn 6.53693e-23 -1 -6.12323e-17
vn 1.11535e-24 -1 -6.12323e-17
vn -7.56729e-24 -1 -6.12323e-17
vn -7.80958e-22 -1 -6.12306e-17
vn 0 -1 -6.12317e-17
vn 4.04121e-24 -1 -6.12323e-17

# Mesh 'defaultobject' with 30 faces
g defaultobject
usemtl DefaultMaterial
f  1//1 2//1 3//1
f  2//2 1//2 4//2
f  2//3 4//3 5//3
f  6//4 1//4 7//4
f  1//5 6//5 4//5
f  6//6 7//6 8//6
f  4//7 9//7 10//7
f  9//8 4//8 6//8
f  11//9 10//9 9//9
f  10//9 11//9 12//10
f  10//11 12//11 5//11
f  5//11 12//11 13//11
f  13//12 2//12 5//12
f  2//12 13//12 14//13
f  2//14 14//14 3//14
f  3//14 14//14 15//14
f  3//15 7//15 1//15
f  7//16 3//16 15//16
f  7//16 15//16 16//17
f  16//18 15//18 17//18
f  8//19 11//19 9//19
f  11//20 8//20 7//20
f  11//21 7//21 18//21
f  18//22 7//22 16//22
f  12//23 14//23 13//23
f  14//23 12//23 11//24
f  14//23 11//24 15//25
f  15//25 11//24 17//26
f  17//26 11//24 18//27
f  17//26 18//27 16//28

