# File produced by Open Asset Import Library (http://www.assimp.sf.net)
# (assimp v3.1.0)

mtllib ID_4463.obj.mtl

# 94 vertex positions
v  8.627 6.551 1.777
v  5.498 6.551 0.191
v  6.943 6.551 2.755
v  34.085 6.551 -5.713
v  28.057 6.551 -9.395
v  31.283 6.551 -4.08
v  28.005 6.551 -9.48
v  21.1 6.551 -19.912
v  21.03 6.551 -20.034
v  19.168 6.551 -23.019
v  21.502 6.551 -24.36
v  38.258 6.551 -8.145
v  26.346 6.551 -27.143
v  35.133 6.551 -13.505
v  33.58 6.551 -16.169
v  31.555 6.551 -19.642
v  28.813 6.551 -24.344
v  26.972 6.551 -27.502
v  16.54 6.551 -18.687
v  15.872 6.551 -19.86
v  16.085 6.551 -19.218
v  17.165 6.551 -18.373
v  15.915 6.551 -20.535
v  17.863 6.551 -18.324
v  16.207 6.551 -21.146
v  18.526 6.551 -18.548
v  16.705 6.551 -21.603
v  20.94 6.551 -19.98
v  0.721 6.551 1.741
v  0.022 6.551 0.676
v  0.29 6.551 1.296
v  1.276 6.551 2.014
v  0 6.551 4.01133e-16
v  1.891 6.551 2.084
v  0.229 6.551 -0.636
v  2.304 6.551 1.986
v  0.675 6.551 -1.143
v  2.494 6.551 1.941
v  3.683 6.551 1.238
v  1.931 6.551 -1.871
v  3.769 6.551 1.187
v  7.094 6.551 -4.861
v  27.3 6.551 -9.071
v  6.904 6.551 -5.21
v  23.821 6.551 -15.038
v  23.889 6.551 -15.077
v  23.839 6.551 -15.164
v  26.972 1.68401e-15 -27.502
v  26.346 1.66203e-15 -27.143
v  21.502 1.49162e-15 -24.36
v  16.705 1.3228e-15 -21.603
v  19.168 1.40951e-15 -23.019
v  16.207 1.29482e-15 -21.146
v  15.915 1.25741e-15 -20.535
v  23.889 9.232e-16 -15.077
v  6.904 3.1902e-16 -5.21
v  23.821 9.20812e-16 -15.038
v  7.094 2.9765e-16 -4.861
v  1.931 1.14566e-16 -1.871
v  0.675 6.99886e-17 -1.143
v  0.229 3.89438e-17 -0.636
v  15.872 1.21607e-15 -19.86
v  16.085 1.17676e-15 -19.218
v  0 0 0
v  0.022 -4.13931e-17 0.676
v  16.54 1.14425e-15 -18.687
v  17.165 1.12502e-15 -18.373
v  21.03 1.22673e-15 -20.034
v  21.1 1.21926e-15 -19.912
v  23.839 9.28527e-16 -15.164
v  0.29 -7.93571e-17 1.296
v  0.721 -1.06606e-16 1.741
v  1.276 -1.23322e-16 2.014
v  5.498 -1.16954e-17 0.191
v  6.943 -1.68695e-16 2.755
v  28.005 5.80483e-16 -9.48
v  31.283 2.49828e-16 -4.08
v  28.057 5.75278e-16 -9.395
v  17.863 1.12202e-15 -18.324
v  18.526 1.13574e-15 -18.548
v  1.891 -1.27608e-16 2.084
v  2.494 -1.18852e-16 1.941
v  2.304 -1.21607e-16 1.986
v  20.94 1.22342e-15 -19.98
v  3.683 -7.58056e-17 1.238
v  3.769 -7.26828e-17 1.187
v  8.627 -1.0881e-16 1.777
v  27.3 5.55439e-16 -9.071
v  38.258 4.98737e-16 -8.145
v  34.085 3.4982e-16 -5.713
v  35.133 8.26943e-16 -13.505
v  33.58 9.90066e-16 -16.169
v  31.555 1.20273e-15 -19.642
v  28.813 1.49064e-15 -24.344

# 0 UV coordinates

# 102 vertex normals
vn 0 1 0
vn -0.497483 0 -0.867474
vn -0.498162 -8.61918e-05 -0.867084
vn -0.498178 -0.000104593 -0.867075
vn -0.497482 0.000996555 -0.867473
vn -0.498162 7.84361e-06 -0.867084
vn -0.498411 -0.000110514 -0.866941
vn -0.498298 -0 -0.867006
vn 1.02965e-19 1 6.14317e-17
vn -0.676128 0 -0.736784
vn -0.902259 0 -0.431195
vn -0.497504 0 -0.867462
vn -0.502335 -6.67581e-05 -0.864673
vn -0.502316 -0 -0.864684
vn -9.89504e-20 1 6.10524e-17
vn -0.501149 0 -0.865361
vn -0.501471 -0.000339016 -0.865175
vn -0.501149 8.2496e-05 -0.865361
vn -0.501471 -0 -0.865175
vn -0.750831 0 -0.660494
vn -0.997977 0 -0.0635752
vn -0.949126 0 0.314896
vn -0.940868 0 -0.338772
vn -0.940868 2.07438e-17 -0.338772
vn -0.999471 -1.99171e-18 0.0325272
vn -0.999471 0 0.0325272
vn -0.759356 0 0.650675
vn -0.44893 0 0.893567
vn -0.867367 0 0.497669
vn -0.866204 -5.00908e-05 0.499691
vn -0.867016 0.00134838 0.498278
vn -0.867365 0.00196337 0.497668
vn -0.866219 0 0.499665
vn -5.79568e-19 -1 -6.08971e-17
vn -0.87828 0 0.478147
vn -0.917915 0 0.396776
vn -0.718316 0 0.695717
vn -0.441384 0 0.897318
vn -0.871176 0 0.490971
vn -0.853031 0 0.52186
vn -0.854856 5.33525e-05 0.518865
vn -0.854827 0 0.518912
vn -1.4621e-19 -1 -6.11646e-17
vn -0.0700279 0 0.997545
vn 0.320084 -0 0.947389
vn -0.113091 0 0.993585
vn 0.230877 -0 0.972983
vn 0.230467 2.7353e-05 0.97308
vn 0.230748 0 0.973014
vn -3.25059e-20 -1 -6.13681e-17
vn 0.510193 -0 0.86006
vn 0.5145 -0.00214942 0.857488
vn 0.510348 0 0.859968
vn -9.96268e-20 1 6.10639e-17
vn 0.508949 -0 0.860797
vn 0.510077 -0.000276387 0.860129
vn 0.499157 0.00258313 0.866508
vn 0.50337 0 0.864071
vn -4.26085e-22 -1 -6.12326e-17
vn 0 -1 -6.12341e-17
vn 0.50221 -0 0.864746
vn 0.50233 0 0.864676
vn 0.501809 0 0.864978
vn 0.503526 -0 0.86398
vn 0.503523 1.50702e-06 0.863982
vn 0.503525 0 0.863981
vn 0 -1 -5.9952e-17
vn 0.863896 0 -0.503671
vn 0.86392 0 -0.503628
vn 0.863878 -3.96872e-05 -0.503701
vn 0.86392 5.17419e-05 -0.503628
vn 0.863878 0 -0.503701
vn 0.863845 0 -0.503757
vn 0.863918 0 -0.503633
vn 0 -1 -6.12323e-17
vn 3.5547e-23 -1 -6.12323e-17
vn -8.7235e-23 -1 -6.12323e-17
vn 6.44198e-23 -1 -6.12323e-17
vn -4.79887e-23 -1 -6.12323e-17
vn -1.01243e-22 -1 -6.12323e-17
vn 6.75159e-24 -1 -6.12323e-17
vn 6.44125e-23 -1 -6.12324e-17
vn -5.67897e-24 -1 -6.12323e-17
vn 2.12023e-21 -1 -6.12304e-17
vn 0 -1 -6.12323e-17
vn 0 -1 -6.12323e-17
vn -4.61871e-24 -1 -6.12323e-17
vn -2.54628e-24 -1 -6.12323e-17
vn -3.86368e-24 -1 -6.12323e-17
vn -1.97503e-23 -1 -6.12323e-17
vn 3.57637e-23 -1 -6.12323e-17
vn -5.87351e-23 -1 -6.12323e-17
vn -7.1695e-22 -1 -6.12319e-17
vn 2.14468e-23 -1 -6.12324e-17
vn 0 -1 -6.12324e-17
vn -1.08778e-22 -1 -6.12323e-17
vn -4.74369e-23 -1 -6.12323e-17
vn -3.63844e-24 -1 -6.12323e-17
vn 2.21765e-22 -1 -6.12324e-17
vn 1.00537e-22 -1 -6.12324e-17
vn 2.86037e-22 -1 -6.12324e-17
vn 7.52945e-22 -1 -6.12325e-17

# Mesh 'defaultobject' with 184 faces
g defaultobject
usemtl DefaultMaterial
f  1//1 2//1 3//1
f  4//1 5//1 6//1
f  5//1 4//1 7//1
f  7//1 4//1 8//1
f  8//1 4//1 9//1
f  9//1 4//1 10//1
f  10//1 4//1 11//1
f  11//1 4//1 12//1
f  11//1 12//1 13//1
f  13//1 12//1 14//1
f  13//1 14//1 15//1
f  13//1 15//1 16//1
f  13//1 16//1 17//1
f  13//1 17//1 18//1
f  19//1 20//1 21//1
f  20//1 19//1 22//1
f  20//1 22//1 23//1
f  23//1 22//1 24//1
f  23//1 24//1 25//1
f  25//1 24//1 26//1
f  25//1 26//1 27//1
f  27//1 26//1 28//1
f  27//1 28//1 10//1
f  10//1 28//1 9//1
f  29//1 30//1 31//1
f  30//1 29//1 32//1
f  30//1 32//1 33//1
f  33//1 32//1 34//1
f  33//1 34//1 35//1
f  35//1 34//1 36//1
f  35//1 36//1 37//1
f  37//1 36//1 38//1
f  37//1 38//1 39//1
f  37//1 39//1 40//1
f  40//1 39//1 41//1
f  40//1 41//1 2//1
f  40//1 2//1 42//1
f  42//1 2//1 1//1
f  42//1 1//1 43//1
f  42//1 43//1 44//1
f  44//1 43//1 45//1
f  45//1 43//1 7//1
f  45//1 7//1 46//1
f  46//1 7//1 47//1
f  47//1 7//1 8//1
f  48//2 13//2 18//2
f  13//3 48//3 11//3
f  11//4 48//4 10//4
f  10//5 48//5 49//5
f  10//6 49//6 50//6
f  10//7 50//7 27//7
f  27//8 50//8 51//8
f  51//9 50//9 52//9
f  51//10 25//10 27//10
f  25//10 51//10 53//10
f  53//11 23//11 25//11
f  23//11 53//11 54//11
f  55//12 45//12 46//12
f  45//13 55//13 44//13
f  44//14 55//14 56//14
f  56//15 55//15 57//15
f  58//16 40//16 42//16
f  40//17 58//17 37//17
f  37//18 58//18 59//18
f  37//19 59//19 60//19
f  60//20 35//20 37//20
f  35//20 60//20 61//20
f  54//21 20//21 23//21
f  20//21 54//21 62//21
f  62//22 21//22 20//22
f  21//22 62//22 63//22
f  61//23 33//23 35//23
f  33//23 61//23 64//24
f  64//25 30//25 33//25
f  30//25 64//25 65//26
f  63//27 19//27 21//27
f  19//27 63//27 66//27
f  66//28 22//28 19//28
f  22//28 66//28 67//28
f  68//29 8//29 9//29
f  8//30 68//30 47//30
f  47//31 68//31 46//31
f  46//32 68//32 69//32
f  46//33 69//33 55//33
f  55//34 69//34 70//34
f  56//35 42//35 44//35
f  42//35 56//35 58//35
f  65//36 31//36 30//36
f  31//36 65//36 71//36
f  71//37 29//37 31//37
f  29//37 71//37 72//37
f  72//38 32//38 29//38
f  32//38 72//38 73//38
f  74//39 3//39 2//39
f  3//39 74//39 75//39
f  76//40 5//40 7//40
f  5//41 76//41 6//41
f  6//42 76//42 77//42
f  77//43 76//43 78//43
f  67//44 24//44 22//44
f  24//44 67//44 79//44
f  79//45 26//45 24//45
f  26//45 79//45 80//45
f  73//46 34//46 32//46
f  34//46 73//46 81//46
f  81//47 36//47 34//47
f  36//48 81//48 38//48
f  38//49 81//49 82//49
f  82//50 81//50 83//50
f  80//51 28//51 26//51
f  28//52 80//52 9//52
f  9//53 80//53 68//53
f  68//54 80//54 84//54
f  82//55 39//55 38//55
f  39//56 82//56 41//56
f  41//57 82//57 2//57
f  2//58 82//58 74//58
f  74//59 82//50 85//59
f  74//59 85//59 86//60
f  75//61 1//61 3//61
f  1//61 75//61 87//61
f  1//62 87//62 43//62
f  43//62 87//62 88//62
f  43//63 88//63 7//63
f  7//63 88//63 76//63
f  77//64 4//64 6//64
f  4//64 77//64 12//65
f  12//65 77//64 89//66
f  89//67 77//43 90//67
f  89//68 14//68 12//68
f  14//68 89//68 91//68
f  14//69 91//69 15//69
f  15//70 91//70 16//70
f  16//71 91//71 92//71
f  16//72 92//72 93//72
f  16//73 93//73 17//73
f  17//73 93//73 94//73
f  17//74 94//74 18//74
f  18//74 94//74 48//74
f  90//67 91//75 89//67
f  91//75 90//67 92//76
f  92//76 90//67 93//77
f  93//77 90//67 94//78
f  94//78 90//67 48//79
f  48//79 90//67 77//43
f  48//79 77//43 49//80
f  49//80 77//43 50//81
f  50//81 77//43 78//43
f  50//81 78//43 76//43
f  50//81 76//43 88//82
f  50//81 88//82 55//34
f  55//34 88//82 87//83
f  55//34 87//83 57//84
f  57//84 87//83 58//85
f  58//85 87//83 59//86
f  59//86 87//83 74//59
f  74//59 87//83 75//87
f  59//86 74//59 86//60
f  59//86 86//60 85//59
f  59//86 85//59 82//50
f  59//86 82//50 60//88
f  60//88 82//50 83//50
f  60//88 83//50 81//50
f  60//88 81//50 73//75
f  60//88 73//75 61//89
f  61//89 73//75 72//86
f  61//89 72//86 64//86
f  64//86 72//86 71//75
f  64//86 71//75 65//90
f  56//91 57//84 58//85
f  50//81 68//92 52//92
f  68//92 50//81 70//34
f  70//34 50//81 55//34
f  68//92 70//34 69//34
f  52//92 68//92 84//93
f  52//92 84//93 80//94
f  52//92 80//94 51//95
f  51//95 80//94 79//96
f  51//95 79//96 67//97
f  51//95 67//97 53//98
f  53//98 67//97 66//99
f  53//98 66//99 54//100
f  54//100 66//99 63//101
f  54//100 63//101 62//102

