# File produced by Open Asset Import Library (http://www.assimp.sf.net)
# (assimp v3.1.0)

mtllib ID_43126.obj.mtl

# 12 vertex positions
v  1.914 2.23 -1.901
v  6.908 2.386 5.022
v  7.954 2.206 3.946
v  0.992 2.386 -0.985
v  0 2.219 1.35875e-16
v  5.934 2.219 6.024
v  1.914 1.16403e-16 -1.901
v  0 0 0
v  0.992 6.03139e-17 -0.985
v  5.934 -3.68864e-16 6.024
v  7.954 -2.41623e-16 3.946
v  6.908 -3.07509e-16 5.022

# 0 UV coordinates

# 16 vertex normals
vn 0.0848676 0.99288 -0.0835935
vn 0.084911 0.992873 -0.0836247
vn -0.0845128 0.99294 0.0832326
vn -0.0845573 0.992931 0.0832939
vn -0.704795 0 -0.709411
vn -0.704611 0.000141286 -0.709594
vn -0.704693 4.34451e-17 -0.709512
vn 2.63648e-20 -1 -6.12191e-17
vn -0.712409 -4.29707e-17 0.701765
vn -0.712409 0 0.701765
vn 0.717055 -0 0.697017
vn 0.717033 1.79186e-05 0.697039
vn 0.717043 0 0.697029
vn -1.92747e-19 -1 -6.12936e-17
vn 0.695534 0 -0.718493
vn 0.695534 0 -0.718493

# Mesh 'defaultobject' with 20 faces
g defaultobject
usemtl DefaultMaterial
f  1//1 2//1 3//1
f  2//2 1//2 4//2
f  5//3 2//3 4//3
f  2//4 5//4 6//4
f  7//5 4//5 1//5
f  4//6 7//6 5//6
f  5//7 7//7 8//7
f  8//8 7//8 9//8
f  8//9 6//9 5//9
f  6//9 8//9 10//10
f  10//11 2//11 6//11
f  2//12 10//12 3//12
f  3//13 10//13 11//13
f  11//14 10//14 12//14
f  3//15 7//15 1//15
f  7//15 3//15 11//16
f  9//8 10//14 8//8
f  10//14 9//8 7//8
f  10//14 7//8 12//14
f  12//14 7//8 11//14

