# File produced by Open Asset Import Library (http://www.assimp.sf.net)
# (assimp v3.1.0)

mtllib ID_55099.obj.mtl

# 8 vertex positions
v  0 2.652 1.62388e-16
v  4.31 2.652 -0.906
v  3.406 2.652 -2.4
v  0.847 2.652 1.571
v  3.406 1.46958e-16 -2.4
v  0 0 0
v  0.847 -9.6196e-17 1.571
v  4.31 5.54765e-17 -0.906

# 0 UV coordinates

# 9 vertex normals
vn 0 1 0
vn -0.576005 0 -0.817446
vn -0.576005 5.00542e-17 -0.817446
vn -0.880219 -2.90589e-17 0.474568
vn -0.880219 0 0.474568
vn 0.581771 -0 0.813352
vn 0.855567 0 -0.517692
vn 1.82345e-24 -1 -6.12323e-17
vn -8.77832e-25 -1 -6.12323e-17

# Mesh 'defaultobject' with 12 faces
g defaultobject
usemtl DefaultMaterial
f  1//1 2//1 3//1
f  2//1 1//1 4//1
f  5//2 1//2 3//2
f  1//2 5//2 6//3
f  6//4 4//4 1//4
f  4//4 6//4 7//5
f  7//6 2//6 4//6
f  2//6 7//6 8//6
f  8//7 3//7 2//7
f  3//7 8//7 5//7
f  8//8 6//8 5//8
f  6//8 8//8 7//9

