# File produced by Open Asset Import Library (http://www.assimp.sf.net)
# (assimp v3.1.0)

mtllib ID_50258.obj.mtl

# 12 vertex positions
v  6.037 6.745 0.265
v  0.032 8.029 0.084
v  0.852 6.745 2.243
v  0.257 8.079 -0.097
v  5.18 8.074 -1.965
v  0 8.022 4.91206e-16
v  0 0 0
v  0.852 -1.37344e-16 2.243
v  0.032 -5.14352e-18 0.084
v  6.037 -1.62266e-17 0.265
v  5.18 1.20322e-16 -1.965
v  0.257 5.93954e-18 -0.097

# 0 UV coordinates

# 17 vertex normals
vn 0.173197 0.874003 0.454006
vn 0.172912 0.872969 0.456099
vn 0.17324 0.873881 0.454225
vn -0.93453 0.00158078 0.35588
vn -0.934831 0 0.355094
vn -0.934831 0 0.355094
vn 1.27319e-19 -1 -6.12405e-17
vn 0.35643 -0 0.934322
vn 0.933443 0 -0.358727
vn 0.933443 0 -0.358727
vn -0.353117 0 -0.935579
vn -0.354763 5.98243e-05 -0.934956
vn -0.353117 -0.00114748 -0.935578
vn -0.354763 0 -0.934956
vn -4.18749e-24 -1 -6.12323e-17
vn 0 -1 -6.12323e-17
vn -2.63032e-25 -1 -6.12323e-17

# Mesh 'defaultobject' with 19 faces
g defaultobject
usemtl DefaultMaterial
f  1//1 2//1 3//1
f  2//2 1//2 4//2
f  4//3 1//3 5//3
f  6//4 3//4 2//4
f  3//5 6//5 7//5
f  3//5 7//5 8//6
f  8//7 7//7 9//7
f  8//8 1//8 3//8
f  1//8 8//8 10//8
f  1//9 11//9 5//9
f  11//9 1//9 10//10
f  4//11 7//11 6//11
f  7//12 4//12 5//12
f  7//13 5//13 12//13
f  12//14 5//14 11//14
f  12//15 9//7 7//7
f  9//7 12//15 8//7
f  8//7 12//15 10//16
f  10//16 12//15 11//17

