# File produced by Open Asset Import Library (http://www.assimp.sf.net)
# (assimp v3.1.0)

mtllib ID_8059.obj.mtl

# 19 vertex positions
v  16.42 14.158 16.253
v  0.008 12.553 0.014
v  11.227 12.553 19.289
v  8.226 14.158 2.176
v  20.96 12.755 13.598
v  21.612 12.553 13.216
v  18.702 12.553 8.216
v  16.208 12.553 3.932
v  10.397 12.556 -6.052
v  0 12.549 7.68405e-16
v  10.397 3.70578e-16 -6.052
v  0 0 0
v  11.227 -1.18111e-15 19.289
v  0.008 -8.57253e-19 0.014
v  21.612 -8.09247e-16 13.216
v  16.42 -9.95209e-16 16.253
v  20.96 -8.32637e-16 13.598
v  16.208 -2.40766e-16 3.932
v  18.702 -5.03085e-16 8.216

# 0 UV coordinates

# 33 vertex normals
vn -0.222806 0.966199 0.129684
vn -0.222822 0.966192 0.129701
vn 0.222761 0.966211 -0.129665
vn 0.223104 0.966079 -0.130065
vn 0.222787 0.966206 -0.129662
vn 0.222816 0.966192 -0.129716
vn 0.22275 0.966255 -0.129357
vn -0.130144 0.966216 -0.222462
vn -0.137212 0.970383 -0.198821
vn -0.50307 0 -0.864246
vn -0.50307 5.29198e-17 -0.864246
vn -0.863816 -0.0321127 0.502783
vn -0.864264 0 0.503038
vn -5.90544e-19 1 6.11213e-17
vn 0.504708 -0 0.86329
vn 0.504806 -4.80626e-05 0.863233
vn 0.505371 -0.000626959 0.862902
vn 0.504806 0 0.863233
vn -6.42639e-20 1 6.11021e-17
vn 2.4678e-20 1 6.12714e-17
vn 0.864268 0 -0.503031
vn 0.864218 9.26911e-05 -0.503118
vn 0.864268 -3.97748e-05 -0.503031
vn 0.86428 -4.90093e-05 -0.503011
vn 0.864251 0 -0.50306
vn -5.94975e-20 1 6.12527e-17
vn 6.05491e-24 -1 -6.12323e-17
vn -2.78361e-23 -1 -6.12323e-17
vn 1.21672e-23 -1 -6.12323e-17
vn -1.57847e-24 -1 -6.12323e-17
vn 3.55124e-24 -1 -6.12323e-17
vn 0 -1 -6.12323e-17
vn 0 -1 -6.12327e-17

# Mesh 'defaultobject' with 34 faces
g defaultobject
usemtl DefaultMaterial
f  1//1 2//1 3//1
f  2//2 1//2 4//2
f  5//3 4//3 1//3
f  4//4 5//4 6//4
f  4//5 6//5 7//5
f  4//6 7//6 8//6
f  4//7 8//7 9//7
f  4//8 9//8 10//8
f  4//9 10//9 2//9
f  11//10 10//10 9//10
f  10//10 11//10 12//11
f  10//12 3//12 2//12
f  3//13 10//13 12//13
f  3//13 12//13 13//13
f  13//14 12//14 14//14
f  13//15 1//15 3//15
f  1//16 13//16 5//16
f  5//17 13//17 6//17
f  6//18 13//18 15//18
f  15//19 13//14 16//19
f  15//19 16//19 17//20
f  8//21 11//21 9//21
f  11//22 8//22 7//22
f  11//23 7//23 18//23
f  18//24 7//24 6//24
f  18//25 6//25 15//25
f  18//26 15//19 19//26
f  17//27 19//27 15//27
f  19//27 17//27 16//28
f  19//27 16//28 13//29
f  19//27 13//29 14//30
f  19//27 14//30 18//31
f  18//31 14//30 11//32
f  11//32 14//30 12//33

