# {"id":"ID_3973","idOriginal":"ID_3973","origin":[14.318291265159397,48.32899784174359],"elevation":252.217}
# Longitude: 14.318291265159397
# Latitude: 48.32899784174359
# Elevation: 252.217

# File produced by Open Asset Import Library (http://www.assimp.sf.net)
# (assimp v3.1.0)

mtllib ID_3973.obj.mtl

# 24 vertex positions
v  23.507 7.134 -1.777
v  17.094 8.82 13.808
v  27.764 7.133 9.928
v  10.74 8.82 -3.682
v  21.592 7.134 -7.044
v  21.165 7.172 -7.467
v  21.406 7.134 -7.555
v  6.426 7.133 17.687
v  0.231 7.169 -0.062
v  0 7.133 4.3677e-16
v  0.302 7.17 0.107
v  5.492 7.99 -1.777
v  21.406 4.6261e-16 -7.555
v  21.165 4.57222e-16 -7.467
v  10.74 2.25457e-16 -3.682
v  5.492 1.0881e-16 -1.777
v  0.302 -6.55186e-18 0.107
v  0.231 3.7964e-18 -0.062
v  0 0 0
v  6.426 -1.08302e-15 17.687
v  17.094 -8.45496e-16 13.808
v  27.764 -6.07915e-16 9.928
v  21.592 4.31321e-16 -7.044
v  23.507 1.0881e-16 -1.777

# 0 UV coordinates

# 43 vertex normals
vn 0.13815 0.98914 -0.0501594
vn 0.138112 0.989145 -0.0501753
vn 0.138118 0.989142 -0.0502177
vn 0.138036 0.98914 -0.0504817
vn 0.137677 0.989209 -0.0501131
vn -0.140405 0.988779 0.0510117
vn -0.110985 0.992986 0.0407515
vn -0.138161 0.989136 0.0502104
vn -0.13821 0.989129 0.0502108
vn -0.138088 0.989151 0.0501191
vn -0.342995 0 -0.939337
vn -0.341263 6.59261e-05 -0.939968
vn -0.342994 -0.00230613 -0.939335
vn -0.341272 -0 -0.939964
vn -0.341211 -0 -0.939987
vn -0.341211 -0 -0.939987
vn -0.341219 -0 -0.939984
vn -0.259224 0 -0.965817
vn -0.259224 5.91393e-17 -0.965817
vn 0.921943 0 -0.387325
vn 0.921943 0 -0.387325
vn -0.93989 -2.09095e-17 0.341478
vn -0.93989 0 0.341478
vn 0.341722 -0 0.939801
vn 0.341722 0 0.939801
vn 0.341743 0 0.939793
vn 0.341743 0 0.939793
vn 0.939687 0 -0.342037
vn 0.939809 -2.72998e-05 -0.3417
vn 0.939686 0.000281349 -0.342037
vn 0.939809 0 -0.3417
vn 0.939777 0 -0.341788
vn 0.939777 0 -0.341788
vn -1.47575e-24 -1 -6.12323e-17
vn 0 -1 -6.12315e-17
vn 0 -1 -6.12323e-17
vn 8.24408e-24 -1 -6.12324e-17
vn -1.6306e-23 -1 -6.12323e-17
vn 0 -1 -6.12323e-17
vn -4.01041e-24 -1 -6.12323e-17
vn 2.65464e-22 -1 -6.12326e-17
vn 1.34247e-22 -1 -6.12324e-17
vn 0 -1 -6.1232e-17

# Mesh 'defaultobject' with 44 faces
g defaultobject
usemtl DefaultMaterial
f  1//1 2//1 3//1
f  2//2 1//2 4//2
f  4//3 1//3 5//3
f  4//4 5//4 6//4
f  6//5 5//5 7//5
f  8//6 9//6 10//6
f  9//7 8//7 11//7
f  11//8 8//8 2//8
f  12//9 2//9 4//9
f  2//10 12//10 11//10
f  13//11 6//11 7//11
f  6//12 13//12 4//12
f  4//13 13//13 14//13
f  4//14 14//14 15//14
f  4//15 15//15 12//15
f  12//15 15//15 16//16
f  12//15 16//16 11//17
f  11//17 16//16 17//17
f  18//18 10//18 9//18
f  10//18 18//18 19//19
f  17//20 9//20 11//20
f  9//20 17//20 18//21
f  19//22 8//22 10//22
f  8//22 19//22 20//23
f  20//24 2//24 8//24
f  2//24 20//24 21//25
f  2//26 21//26 3//26
f  3//26 21//26 22//27
f  5//28 13//28 7//28
f  13//29 5//29 1//29
f  13//30 1//30 23//30
f  23//31 1//31 24//31
f  24//32 1//32 3//32
f  24//32 3//32 22//33
f  18//34 20//34 19//34
f  20//34 18//34 17//35
f  20//34 17//35 21//36
f  21//36 17//35 16//37
f  21//36 16//37 15//38
f  21//36 15//38 14//39
f  21//36 14//39 22//40
f  22//40 14//39 24//41
f  24//41 14//39 13//42
f  24//41 13//42 23//43

