# {"id":"ID_42972","idOriginal":"ID_42972","origin":[14.326579260208696,48.25659376276101],"elevation":256.032}
# Longitude: 14.326579260208696
# Latitude: 48.25659376276101
# Elevation: 256.032

# File produced by Open Asset Import Library (http://www.assimp.sf.net)
# (assimp v3.1.0)

mtllib ID_42972.obj.mtl

# 12 vertex positions
v  1.981 3.004 -0.284
v  4.807 1.346 5.331
v  3.962 1.346 -0.568
v  2.826 3.004 5.615
v  0 1.346 8.24187e-17
v  0.845 1.346 5.899
v  0.845 -3.6121e-16 5.899
v  2.826 -3.4382e-16 5.615
v  4.807 -3.2643e-16 5.331
v  3.962 3.478e-17 -0.568
v  1.981 1.739e-17 -0.284
v  0 0 0

# 0 UV coordinates

# 17 vertex normals
vn 0.63153 0.770056 -0.0904633
vn 0.63153 0.770056 -0.0904633
vn -0.63153 0.770056 0.0904633
vn -0.63153 0.770056 0.0904633
vn 0.141911 -0 0.989879
vn 0.141911 1.08606e-07 0.989879
vn 0.141911 -3.98295e-07 0.989879
vn 0.141911 0 0.989879
vn 0.989896 0 -0.141797
vn -0.141911 0 -0.989879
vn -0.141911 6.06126e-17 -0.989879
vn -0.989896 -8.68258e-18 0.141797
vn -0.989896 0 0.141797
vn 1.66464e-24 -1 -6.12323e-17
vn -1.77562e-23 -1 -6.12323e-17
vn 0 -1 -6.12323e-17
vn -5.5488e-25 -1 -6.12323e-17

# Mesh 'defaultobject' with 20 faces
g defaultobject
usemtl DefaultMaterial
f  1//1 2//1 3//1
f  2//1 1//1 4//2
f  5//3 4//3 1//3
f  4//3 5//3 6//4
f  7//5 4//5 6//5
f  4//5 7//5 2//6
f  2//6 7//5 8//7
f  2//6 8//7 9//8
f  9//9 3//9 2//9
f  3//9 9//9 10//9
f  10//10 1//10 3//10
f  1//10 10//10 5//10
f  5//10 10//10 11//10
f  5//10 11//10 12//11
f  12//12 6//12 5//12
f  6//12 12//12 7//13
f  8//14 10//14 9//14
f  10//14 8//14 7//15
f  10//14 7//15 11//16
f  11//16 7//15 12//17

