# File produced by Open Asset Import Library (http://www.assimp.sf.net)
# (assimp v3.1.0)

mtllib ID_28132.obj.mtl

# 10 vertex positions
v  6.434 12.258 0.609
v  0.04 12.258 -2.336
v  0 12.258 7.50586e-16
v  0.967 12.258 -11.7
v  7.527 12.258 -11.1
v  7.527 6.79679e-16 -11.1
v  0.967 7.16418e-16 -11.7
v  0.04 1.43039e-16 -2.336
v  0 0 0
v  6.434 -3.72905e-17 0.609

# 0 UV coordinates

# 11 vertex normals
vn 0 1 0
vn 0.0910831 0 -0.995843
vn -0.995136 0 -0.0985146
vn -0.999853 0 -0.0171208
vn -0.999853 1.04835e-18 -0.0171208
vn -0.0942322 -6.09599e-17 0.99555
vn -0.0942322 0 0.99555
vn 0.995671 -0 0.0929429
vn -1.09341e-23 -1 -6.12323e-17
vn -1.35301e-23 -1 -6.12323e-17
vn 0 -1 -6.12323e-17

# Mesh 'defaultobject' with 16 faces
g defaultobject
usemtl DefaultMaterial
f  1//1 2//1 3//1
f  2//1 1//1 4//1
f  4//1 1//1 5//1
f  6//2 4//2 5//2
f  4//2 6//2 7//2
f  7//3 2//3 4//3
f  2//3 7//3 8//3
f  8//4 3//4 2//4
f  3//4 8//4 9//5
f  9//6 1//6 3//6
f  1//6 9//6 10//7
f  10//8 5//8 1//8
f  5//8 10//8 6//8
f  10//9 7//9 6//9
f  7//9 10//9 8//10
f  8//10 10//9 9//11

