# File produced by Open Asset Import Library (http://www.assimp.sf.net)
# (assimp v3.1.0)

mtllib ID_33387.obj.mtl

# 24 vertex positions
v  10.137 3.14 2.767
v  7.129 3.14 5.894
v  10.421 3.14 5.26
v  6.406 3.14 3.241
v  1.776 3.14 6.926
v  6.386 3.14 3.066
v  6.238 3.14 1.794
v  5.886 3.14 -1.246
v  1.463 3.14 6.986
v  0.865 3.14 4.129
v  5.614 3.14 -1.188
v  0 3.14 1.9227e-16
v  5.886 7.62955e-17 -1.246
v  0 0 0
v  5.614 7.2744e-17 -1.188
v  10.137 -1.6943e-16 2.767
v  6.406 -1.98454e-16 3.241
v  0.865 -2.52828e-16 4.129
v  1.463 -4.27769e-16 6.986
v  1.776 -4.24095e-16 6.926
v  7.129 -3.60903e-16 5.894
v  10.421 -3.22082e-16 5.26
v  6.238 -1.09851e-16 1.794
v  6.386 -1.87738e-16 3.066

# 0 UV coordinates

# 28 vertex normals
vn 0 1 -0
vn -0.208547 0 -0.978012
vn -0.207029 0.000137423 -0.978335
vn -0.207099 5.99048e-17 -0.97832
vn 5.34481e-21 -1 -6.1198e-17
vn -0.126031 0 -0.992026
vn -0.978753 -1.25552e-17 0.205043
vn -0.978753 0 0.205043
vn -0.978789 0 0.204871
vn 0.188265 -0 0.982118
vn 0.189303 -0.000107272 0.981919
vn 0.188265 0.00183546 0.982117
vn 0.189303 0 0.981919
vn 0.189113 0 0.981955
vn 0.993574 0 -0.113187
vn 0.993533 0 -0.113547
vn 0.993299 -0.000114414 -0.115573
vn 0.993363 0.000143302 -0.115021
vn 0.993327 -0.00030104 -0.115328
vn 0.993363 0 -0.115021
vn -5.75357e-20 1 6.12413e-17
vn 1.57802e-24 -1 -6.12323e-17
vn 4.52318e-24 -1 -6.12323e-17
vn 7.08333e-24 -1 -6.12323e-17
vn -1.04807e-22 -1 -6.12325e-17
vn 8.22656e-24 -1 -6.12323e-17
vn -1.83242e-22 -1 -6.12323e-17
vn -1.20596e-23 -1 -6.12323e-17

# Mesh 'defaultobject' with 44 faces
g defaultobject
usemtl DefaultMaterial
f  1//1 2//1 3//1
f  2//1 1//1 4//1
f  2//1 4//1 5//1
f  5//1 4//1 6//1
f  5//1 6//1 7//1
f  5//1 7//1 8//1
f  5//1 8//1 9//1
f  9//1 8//1 10//1
f  10//1 8//1 11//1
f  10//1 11//1 12//1
f  13//2 11//2 8//2
f  11//3 13//3 12//3
f  12//4 13//4 14//4
f  14//5 13//5 15//5
f  16//6 4//6 1//6
f  4//6 16//6 17//6
f  14//7 10//7 12//7
f  10//7 14//7 18//8
f  10//9 18//9 9//9
f  9//9 18//9 19//9
f  19//10 5//10 9//10
f  5//11 19//11 2//11
f  2//12 19//12 20//12
f  2//13 20//13 21//13
f  2//14 21//14 3//14
f  3//14 21//14 22//14
f  22//15 1//15 3//15
f  1//15 22//15 16//15
f  17//16 6//16 4//16
f  6//17 17//17 7//17
f  7//18 17//18 8//18
f  8//19 17//19 23//19
f  8//20 23//20 13//20
f  23//21 17//21 24//21
f  21//22 16//22 22//22
f  16//22 21//22 17//23
f  17//23 21//22 20//24
f  17//23 20//24 24//25
f  24//25 20//24 23//26
f  23//26 20//24 13//5
f  13//5 20//24 19//27
f  13//5 19//27 18//28
f  13//5 18//28 15//5
f  15//5 18//28 14//5

