# File produced by Open Asset Import Library (http://www.assimp.sf.net)
# (assimp v3.1.0)

mtllib ID_44983.obj.mtl

# 14 vertex positions
v  2.866 3.999 -4.214
v  3.448 2.035 1.939
v  6.122 2.022 -1.946
v  0 3.999 2.44868e-16
v  0.34 3.792 0.236
v  3.715 1.745 2.581
v  3.931 1.743 2.271
v  3.715 -1.58041e-16 2.581
v  3.931 -1.39059e-16 2.271
v  3.448 -1.1873e-16 1.939
v  6.122 1.19158e-16 -1.946
v  2.866 2.58033e-16 -4.214
v  0 0 0
v  0.34 -1.44508e-17 0.236

# 0 UV coordinates

# 20 vertex normals
vn 0.368754 0.895049 0.250814
vn 0.368776 0.895041 0.25081
vn 0.359706 0.894293 0.266179
vn 0.368565 0.895066 0.251032
vn 0.368423 0.895103 0.251107
vn 0.820473 -0 0.571685
vn 0.823739 -0 0.56697
vn 0.823739 0 0.56697
vn 0.566456 0 -0.824092
vn 0.566456 0 -0.824092
vn 0.571566 0 -0.820556
vn -0.826883 0 -0.562374
vn -0.826883 3.44355e-17 -0.562374
vn -0.570215 -5.03021e-17 0.821496
vn -0.570581 4.86814e-05 0.821241
vn -0.570566 0 0.821252
vn 3.31212e-20 -1 -6.12742e-17
vn -7.47086e-24 -1 -6.12323e-17
vn 1.59184e-24 -1 -6.12323e-17
vn 2.61841e-24 -1 -6.12323e-17

# Mesh 'defaultobject' with 24 faces
g defaultobject
usemtl DefaultMaterial
f  1//1 2//1 3//1
f  2//2 1//2 4//2
f  2//3 4//3 5//3
f  2//4 6//4 7//4
f  6//5 2//5 5//5
f  8//6 7//6 6//6
f  7//6 8//6 9//6
f  10//7 3//7 2//7
f  3//7 10//7 11//8
f  7//9 10//9 2//9
f  10//9 7//9 9//10
f  3//11 12//11 1//11
f  12//11 3//11 11//11
f  12//12 4//12 1//12
f  4//12 12//12 13//13
f  13//14 5//14 4//14
f  5//15 13//15 6//15
f  6//16 13//16 8//16
f  8//17 13//17 14//17
f  8//17 10//18 9//18
f  10//18 8//17 14//17
f  10//18 14//17 11//19
f  11//19 14//17 12//20
f  12//20 14//17 13//17

