# File produced by Open Asset Import Library (http://www.assimp.sf.net)
# (assimp v3.1.0)

mtllib ID_50880.obj.mtl

# 17 vertex positions
v  0.065 0.944 0.048
v  1.531 0.88 -2.071
v  0 0.88 5.38845e-17
v  2.709 2.8 0.401
v  1.596 0.944 -2.023
v  3.821 0.944 2.825
v  5.417 0.88 0.802
v  3.886 0.88 2.873
v  5.352 0.944 0.754
v  1.531 1.26812e-16 -2.071
v  0 0 0
v  0.065 -2.93915e-18 0.048
v  3.821 -1.72981e-16 2.825
v  3.886 -1.75921e-16 2.873
v  5.417 -4.91083e-17 0.802
v  5.352 -4.61692e-17 0.754
v  1.596 1.23873e-16 -2.023

# 0 UV coordinates

# 27 vertex normals
vn -0.499276 0.783897 -0.369093
vn -0.500253 0.782968 -0.369741
vn -0.497181 0.783891 -0.371922
vn -0.488415 0.570139 0.6606
vn 0.499276 0.783896 0.369093
vn 0.500282 0.782865 0.369919
vn 0.501597 0.78389 0.365946
vn 0.488488 0.569961 -0.660699
vn -0.804128 0 -0.594457
vn -0.804128 3.64e-17 -0.594457
vn -0.594043 -4.92573e-17 0.804433
vn -0.594505 4.92095e-05 0.804092
vn -0.594041 -0.0028381 0.80443
vn -0.594505 0 0.804092
vn -0.594045 0 0.804432
vn -0.594045 0 0.804432
vn 0.804128 -0 0.594457
vn 0.594045 0 -0.804432
vn 0.594505 4.89628e-05 -0.804092
vn 0.594044 -0.00282561 -0.804427
vn 0.594505 0 -0.804092
vn 0.594044 0 -0.804432
vn 1.27196e-22 -1 -6.12323e-17
vn -5.40723e-25 -1 -6.12323e-17
vn 2.44543e-19 -1 -6.11356e-17
vn 2.45625e-19 -1 -6.14061e-17
vn 0 -1 -6.12323e-17

# Mesh 'defaultobject' with 30 faces
g defaultobject
usemtl DefaultMaterial
f  1//1 2//1 3//1
f  2//2 1//2 4//2
f  2//3 4//3 5//3
f  1//4 6//4 4//4
f  7//5 6//5 8//5
f  6//6 7//6 4//6
f  4//7 7//7 9//7
f  9//8 5//8 4//8
f  10//9 3//9 2//9
f  3//9 10//9 11//10
f  11//11 1//11 3//11
f  1//12 11//12 6//12
f  6//13 11//13 12//13
f  6//14 12//14 13//14
f  6//15 13//15 8//15
f  8//15 13//15 14//16
f  14//17 7//17 8//17
f  7//17 14//17 15//17
f  15//18 9//18 7//18
f  9//19 15//19 5//19
f  5//20 15//20 16//20
f  5//21 16//21 17//21
f  5//22 17//22 2//22
f  2//22 17//22 10//22
f  10//23 12//23 11//23
f  12//23 10//23 16//24
f  16//24 10//23 17//25
f  12//23 14//26 13//26
f  14//26 12//23 15//27
f  15//27 12//23 16//24

