# File produced by Open Asset Import Library (http://www.assimp.sf.net)
# (assimp v3.1.0)

mtllib ID_58412.obj.mtl

# 10 vertex positions
v  0.188 10.157 0.756
v  4.561 10.157 -1.169
v  0 10.157 6.21937e-16
v  5.393 10.157 -0.556
v  5.197 10.157 -1.332
v  5.197 8.15615e-17 -1.332
v  0 0 0
v  4.561 7.15806e-17 -1.169
v  0.188 -4.62916e-17 0.756
v  5.393 3.40452e-17 -0.556

# 0 UV coordinates

# 12 vertex normals
vn 0 1 0
vn -0.248265 0 -0.968692
vn -0.248278 -8.63718e-07 -0.968689
vn -0.248277 5.93151e-17 -0.968689
vn -1.6137e-19 1 6.13205e-17
vn -0.970444 -1.4777e-17 0.241327
vn -0.970444 0 0.241327
vn 0.24442 -0 0.969669
vn 0.969552 0 -0.244887
vn -3.60831e-24 -1 -6.12324e-17
vn -3.09064e-24 -1 -6.12323e-17
vn 6.29652e-24 -1 -6.12323e-17

# Mesh 'defaultobject' with 16 faces
g defaultobject
usemtl DefaultMaterial
f  1//1 2//1 3//1
f  2//1 1//1 4//1
f  2//1 4//1 5//1
f  6//2 2//2 5//2
f  2//3 6//3 3//3
f  3//3 6//3 7//4
f  7//5 6//5 8//5
f  7//6 1//6 3//6
f  1//6 7//6 9//7
f  9//8 4//8 1//8
f  4//8 9//8 10//8
f  10//9 5//9 4//9
f  5//9 10//9 6//9
f  8//10 9//10 7//10
f  9//10 8//10 10//11
f  10//11 8//10 6//12

