# File produced by Open Asset Import Library (http://www.assimp.sf.net)
# (assimp v3.1.0)

mtllib ID_56041.obj.mtl

# 8 vertex positions
v  0.822 1.496 -0.742
v  3.862 1.496 4.271
v  4.721 1.496 3.496
v  0 1.496 9.16036e-17
v  4.721 -2.14068e-16 3.496
v  0.822 4.54344e-17 -0.742
v  0 0 0
v  3.862 -2.61523e-16 4.271

# 0 UV coordinates

# 9 vertex normals
vn 0 1 0
vn 0.735928 0 -0.67706
vn -0.670062 0 -0.742306
vn -0.670062 4.54531e-17 -0.742306
vn -0.741729 -4.10685e-17 0.6707
vn -0.741729 0 0.6707
vn 0.669871 -0 0.742477
vn 3.97315e-24 -1 -6.12323e-17
vn 0 -1 -6.12323e-17

# Mesh 'defaultobject' with 12 faces
g defaultobject
usemtl DefaultMaterial
f  1//1 2//1 3//1
f  2//1 1//1 4//1
f  5//2 1//2 3//2
f  1//2 5//2 6//2
f  6//3 4//3 1//3
f  4//3 6//3 7//4
f  7//5 2//5 4//5
f  2//5 7//5 8//6
f  8//7 3//7 2//7
f  3//7 8//7 5//7
f  8//8 6//8 5//8
f  6//8 8//8 7//9

