# {"id":"ID_6533","idOriginal":"ID_6533","origin":[14.313403809516043,48.24988225089974],"elevation":258.139}
# Longitude: 14.313403809516043
# Latitude: 48.24988225089974
# Elevation: 258.139

# File produced by Open Asset Import Library (http://www.assimp.sf.net)
# (assimp v3.1.0)

mtllib ID_6533.obj.mtl

# 56 vertex positions
v  1.421 11.732 3.184
v  3.494 11.732 2.259
v  0 11.732 7.18378e-16
v  2.554 11.732 6.458
v  5.505 11.732 12.583
v  7.67 11.732 11.617
v  5.323 11.732 12.665
v  16.401 11.732 0.153
v  13.603 11.732 -6.089
v  16.444 11.732 0.249
v  21.898 11.732 5.283
v  19.327 11.732 6.436
v  19.203 11.732 6.492
v  19.25 11.732 6.597
v  21.553 11.732 11.735
v  4.86 11.732 5.319
v  21.756 11.732 11.856
v  7.722 11.732 11.733
v  9.08 11.732 14.778
v  8.052 11.732 17.961
v  4.901 11.732 5.411
v  2.736 11.732 6.377
v  7.038 11.732 15.688
v  21.677 11.732 11.679
v  22.689 11.732 11.44
v  22.609 11.732 11.261
v  16.535 11.732 0.208
v  19.107 11.732 -0.945
v  19.107 5.78646e-17 -0.945
v  16.444 -1.52469e-17 0.249
v  16.535 -1.27363e-17 0.208
v  13.603 3.72844e-16 -6.089
v  0 0 0
v  4.901 -3.31328e-16 5.411
v  2.554 -3.95438e-16 6.458
v  2.736 -3.90479e-16 6.377
v  9.08 -9.04891e-16 14.778
v  7.038 -9.60613e-16 15.688
v  22.609 -6.89537e-16 11.261
v  21.553 -7.18562e-16 11.735
v  21.677 -7.15133e-16 11.679
v  16.401 -9.36855e-18 0.153
v  22.689 -7.00498e-16 11.44
v  19.203 -3.9752e-16 6.492
v  19.25 -4.0395e-16 6.597
v  21.898 -3.2349e-16 5.283
v  1.421 -1.94964e-16 3.184
v  3.494 -1.38324e-16 2.259
v  4.86 -3.25695e-16 5.319
v  5.323 -7.75508e-16 12.665
v  7.67 -7.11336e-16 11.617
v  7.722 -7.18439e-16 11.733
v  8.052 -1.09979e-15 17.961
v  5.505 -7.70487e-16 12.583
v  21.756 -7.25971e-16 11.856
v  19.327 -3.94091e-16 6.436

# 0 UV coordinates

# 60 vertex normals
vn 0 1 0
vn -0.409066 0 -0.912505
vn -0.410783 -0.000452158 -0.911733
vn -0.409125 -0 -0.912478
vn 1.95289e-21 1 6.1237e-17
vn -0.408559 0 -0.912732
vn -0.408559 5.58887e-17 -0.912732
vn -0.407469 0 -0.913219
vn -0.406605 0.000190993 -0.913604
vn -0.407402 -0 -0.913249
vn -2.77963e-20 -1 -6.12928e-17
vn -0.407051 0 -0.913405
vn -0.409225 0 -0.912434
vn -0.411584 -0.000225196 -0.911372
vn -0.409502 -0 -0.912309
vn 8.91676e-21 1 6.12518e-17
vn 0.912628 0 -0.408792
vn 0.912517 -2.42498e-06 -0.409039
vn 0.912519 0 -0.409035
vn 1.08845e-18 1 6.14976e-17
vn 0.912968 0 -0.40803
vn 0.912525 0 -0.40902
vn 0.91273 0.000240403 -0.408563
vn 0.912529 0 -0.409011
vn 1.01972e-19 -1 -6.12751e-17
vn 0.912556 0 -0.408951
vn -0.913184 -2.49551e-17 0.407548
vn -0.913184 0 0.407548
vn -0.913146 0 0.407633
vn -0.913402 0.000179708 0.407058
vn -0.913153 0 0.407616
vn 2.33715e-20 -1 -6.1245e-17
vn -0.913246 0 0.407408
vn -0.912509 0 0.409056
vn -0.913291 2.07569e-05 0.407307
vn -0.913263 0 0.407371
vn 6.51922e-20 -1 -6.12155e-17
vn -0.913247 0 0.407405
vn 0.407487 -0 0.913211
vn 0.41078 -0 0.911734
vn 0.407469 6.17419e-05 0.913219
vn 0.407726 0 0.913104
vn -1.156e-20 -1 -6.12526e-17
vn 0.406936 -0 0.913457
vn 0.407229 0 0.913326
vn 0.411587 -0 0.911371
vn 0.409198 3.03727e-05 0.912445
vn 0.409308 0 0.912396
vn 2.63648e-20 -1 -6.11664e-17
vn 2.75294e-24 -1 -6.12323e-17
vn 4.95598e-23 -1 -6.12322e-17
vn 2.50678e-23 -1 -6.12322e-17
vn 4.55135e-23 -1 -6.12322e-17
vn 0 -1 -6.12323e-17
vn 7.82998e-24 -1 -6.12323e-17
vn 4.22228e-24 -1 -6.12323e-17
vn 5.94644e-23 -1 -6.12323e-17
vn 1.95578e-23 -1 -6.12323e-17
vn 4.07195e-24 -1 -6.12323e-17
vn 3.34432e-24 -1 -6.12323e-17

# Mesh 'defaultobject' with 108 faces
g defaultobject
usemtl DefaultMaterial
f  1//1 2//1 3//1
f  4//1 5//1 6//1
f  5//1 4//1 7//1
f  3//1 8//1 9//1
f  8//1 3//1 10//1
f  10//1 3//1 11//1
f  11//1 3//1 12//1
f  12//1 3//1 13//1
f  13//1 3//1 14//1
f  14//1 3//1 15//1
f  15//1 3//1 2//1
f  15//1 2//1 16//1
f  15//1 16//1 17//1
f  17//1 16//1 18//1
f  17//1 18//1 19//1
f  17//1 19//1 20//1
f  18//1 16//1 21//1
f  18//1 21//1 6//1
f  6//1 21//1 22//1
f  6//1 22//1 4//1
f  20//1 19//1 23//1
f  24//1 25//1 26//1
f  25//1 24//1 17//1
f  17//1 24//1 15//1
f  27//1 11//1 28//1
f  11//1 27//1 10//1
f  29//2 27//2 28//2
f  27//3 29//3 10//3
f  10//4 29//4 30//4
f  30//5 29//5 31//5
f  32//6 3//6 9//6
f  3//6 32//6 33//7
f  34//8 22//8 21//8
f  22//9 34//9 4//9
f  4//10 34//10 35//10
f  35//11 34//11 36//11
f  37//12 23//12 19//12
f  23//12 37//12 38//12
f  39//13 24//13 26//13
f  24//14 39//14 15//14
f  15//15 39//15 40//15
f  40//16 39//16 41//16
f  30//17 8//17 10//17
f  8//18 30//18 9//18
f  9//18 30//18 32//19
f  32//20 30//5 42//20
f  43//21 26//21 25//21
f  26//21 43//21 39//21
f  40//22 14//22 15//22
f  14//23 40//23 13//23
f  13//24 40//24 44//24
f  44//25 40//25 45//25
f  46//26 28//26 11//26
f  28//26 46//26 29//26
f  33//27 1//27 3//27
f  1//27 33//27 47//28
f  48//29 16//29 2//29
f  16//30 48//30 21//30
f  21//31 48//31 34//31
f  34//11 48//32 49//32
f  35//33 7//33 4//33
f  7//33 35//33 50//33
f  51//34 18//34 6//34
f  18//35 51//35 19//35
f  19//36 51//36 37//36
f  37//37 51//37 52//37
f  38//38 20//38 23//38
f  20//38 38//38 53//38
f  47//39 2//39 1//39
f  2//39 47//39 48//39
f  50//40 5//40 7//40
f  5//41 50//41 6//41
f  6//42 50//42 51//42
f  51//37 50//43 54//43
f  53//44 17//44 20//44
f  17//44 53//44 55//44
f  17//45 55//45 25//45
f  25//45 55//45 43//45
f  44//46 12//46 13//46
f  12//47 44//47 11//47
f  11//48 44//48 46//48
f  46//49 44//25 56//49
f  56//49 29//50 46//49
f  29//50 56//49 44//25
f  55//51 39//51 43//51
f  39//51 55//51 41//52
f  41//52 55//51 53//53
f  41//52 53//53 40//25
f  40//25 53//53 45//25
f  45//25 53//53 44//25
f  44//25 53//53 29//50
f  29//50 53//53 31//54
f  31//54 53//53 30//55
f  30//55 53//53 42//56
f  42//56 53//53 37//37
f  37//37 53//53 38//57
f  50//43 36//11 34//11
f  36//11 50//43 35//11
f  37//37 32//58 42//56
f  32//58 37//37 52//37
f  32//58 52//37 49//32
f  32//58 49//32 48//32
f  32//58 48//32 33//59
f  49//32 52//37 51//37
f  49//32 51//37 34//11
f  34//11 51//37 54//43
f  34//11 54//43 50//43
f  33//59 48//32 47//60

