# {"id":"ID_24510","idOriginal":"ID_24510","origin":[14.282510828710645,48.28703817130817],"elevation":295.297}
# Longitude: 14.282510828710645
# Latitude: 48.28703817130817
# Elevation: 295.297

# File produced by Open Asset Import Library (http://www.assimp.sf.net)
# (assimp v3.1.0)

mtllib ID_24510.obj.mtl

# 22 vertex positions
v  13.806 6.895 -2.005
v  2.796 10.046 -4.159
v  10.989 10.046 2.062
v  13.539 6.895 -2.208
v  5.559 6.895 -8.267
v  0.643 6.917 0.368
v  2.232 9.402 -3.32
v  0 6.856 4.19809e-16
v  2.232 6.955 1.5
v  3.763 6.992 2.591
v  8.156 6.878 6.151
v  0.643 -2.25335e-17 0.368
v  0 0 0
v  3.763 -1.58653e-16 2.591
v  2.232 -9.18485e-17 1.5
v  8.156 -3.7664e-16 6.151
v  10.989 -1.26261e-16 2.062
v  13.806 1.22771e-16 -2.005
v  5.559 5.06208e-16 -8.267
v  13.539 1.35201e-16 -2.208
v  2.796 2.54665e-16 -4.159
v  2.232 2.03291e-16 -3.32

# 0 UV coordinates

# 34 vertex normals
vn 0.325085 0.84322 -0.428134
vn 0.325058 0.843532 -0.42754
vn 0.325076 0.843221 -0.428141
vn -0.325028 0.843239 0.42814
vn -0.327476 0.842932 0.426878
vn -0.325117 0.843187 0.428176
vn -0.325116 0.843245 0.428062
vn -0.325154 0.843422 0.427685
vn -0.325049 0.843247 0.42811
vn -0.49672 0 0.867911
vn -0.49672 0 0.867911
vn -0.58022 0 0.81446
vn -0.580333 3.89818e-05 0.814379
vn -0.580275 0 0.814421
vn 0 -1 -6.12294e-17
vn -0.6296 0 0.776919
vn -0.6296 0 0.776919
vn 0.821989 -0 0.569503
vn 0.822044 -4.74536e-05 0.569424
vn 0.821989 9.04202e-05 0.569503
vn 0.822061 0 0.569399
vn 0.605234 0 -0.796048
vn 0.604716 -3.16189e-05 -0.796441
vn 0.604733 0 -0.796428
vn 0 1 6.1227e-17
vn -0.829775 0 -0.558098
vn -0.82988 -9.32466e-05 -0.557941
vn -0.829864 -7.4554e-05 -0.557966
vn -0.829775 0.000157568 -0.558098
vn -0.829895 3.41627e-17 -0.557919
vn 3.15404e-19 -1 -6.0873e-17
vn 0 -1 -6.12324e-17
vn 0 -1 -6.12323e-17
vn 1.64583e-23 -1 -6.12323e-17

# Mesh 'defaultobject' with 40 faces
g defaultobject
usemtl DefaultMaterial
f  1//1 2//1 3//1
f  2//2 1//2 4//2
f  2//3 4//3 5//3
f  6//4 7//4 8//4
f  7//5 6//5 2//5
f  2//6 6//6 3//6
f  3//7 6//7 9//7
f  3//8 9//8 10//8
f  3//9 10//9 11//9
f  8//10 12//10 6//10
f  12//10 8//10 13//11
f  12//12 9//12 6//12
f  9//13 12//13 10//13
f  10//14 12//14 14//14
f  14//15 12//15 15//15
f  14//16 11//16 10//16
f  11//16 14//16 16//17
f  16//18 3//18 11//18
f  3//19 16//19 1//19
f  1//20 16//20 17//20
f  1//21 17//21 18//21
f  18//22 4//22 1//22
f  4//23 18//23 5//23
f  5//24 18//24 19//24
f  19//25 18//25 20//25
f  19//26 2//26 5//26
f  2//27 19//27 7//27
f  7//28 19//28 8//28
f  8//29 19//29 21//29
f  8//30 21//30 13//30
f  13//31 21//31 22//31
f  17//32 20//32 18//32
f  20//32 17//32 19//33
f  19//33 17//32 16//34
f  19//33 16//34 14//15
f  19//33 14//15 21//31
f  21//31 14//15 15//15
f  21//31 15//15 12//15
f  21//31 12//15 22//31
f  22//31 12//15 13//31

