# {"id":"ID_54189","idOriginal":"ID_54189","origin":[14.257999242109157,48.317738271585284],"elevation":441.488}
# Longitude: 14.257999242109157
# Latitude: 48.317738271585284
# Elevation: 441.488

# File produced by Open Asset Import Library (http://www.assimp.sf.net)
# (assimp v3.1.0)

mtllib ID_54189.obj.mtl

# 14 vertex positions
v  0.664 5.088 0.338
v  6.054 5.088 -10.92
v  0 5.088 3.1155e-16
v  1.138 5.088 -0.628
v  6.397 5.088 -10.171
v  6.211 5.088 -10.678
v  6.55 5.088 -10.46
v  0.664 -2.06965e-17 0.338
v  1.138 3.84539e-17 -0.628
v  6.397 6.22794e-16 -10.171
v  6.55 6.4049e-16 -10.46
v  6.211 6.53839e-16 -10.678
v  6.054 6.68657e-16 -10.92
v  0 0 0

# 0 UV coordinates

# 15 vertex normals
vn 0 1 0
vn 0.897748 -0 0.44051
vn 0.875814 -0 0.482648
vn 0.883788 0 0.467888
vn 0.540882 0 -0.841099
vn 0.838919 0 -0.544256
vn -0.874588 0 -0.484868
vn -0.874588 2.96896e-17 -0.484868
vn -0.453644 -5.45692e-17 0.891183
vn -0.453644 0 0.891183
vn 8.32511e-24 -1 -6.12323e-17
vn 8.51488e-23 -1 -6.12324e-17
vn 1.44756e-21 -1 -6.12319e-17
vn -7.00511e-24 -1 -6.12323e-17
vn 0 -1 -6.12323e-17

# Mesh 'defaultobject' with 24 faces
g defaultobject
usemtl DefaultMaterial
f  1//1 2//1 3//1
f  2//1 1//1 4//1
f  2//1 4//1 5//1
f  2//1 5//1 6//1
f  6//1 5//1 7//1
f  8//2 4//2 1//2
f  4//2 8//2 9//2
f  9//3 5//3 4//3
f  5//3 9//3 10//3
f  5//4 10//4 7//4
f  7//4 10//4 11//4
f  11//5 6//5 7//5
f  6//5 11//5 12//5
f  12//6 2//6 6//6
f  2//6 12//6 13//6
f  13//7 3//7 2//7
f  3//7 13//7 14//8
f  14//9 1//9 3//9
f  1//9 14//9 8//10
f  12//11 14//11 13//11
f  14//11 12//11 11//12
f  14//11 11//12 10//13
f  14//11 10//13 9//14
f  14//11 9//14 8//15

