# {"id":"ID_41808","idOriginal":"ID_41808","origin":[14.298410171735568,48.25304314025181],"elevation":262.483,"wof":[{"Id":102049853,"Name":"Linz","Placetype":"county","Offset":-1},{"Id":101748071,"Name":"Linz","Placetype":"locality","Offset":-1},{"Id":85681677,"Name":"Oberösterreich","Placetype":"region","Offset":-1},{"Id":85898447,"Name":"Scharlinz","Placetype":"neighbourhood","Offset":-1},{"Id":85632785,"Name":"Austria","Placetype":"country","Offset":-1}]}

# Attribution: City of Linz <http://geo.data.linz.gv.at/katalog/geodata/3d_geo_daten_lod2/>
# Longitude: 14.298410171735568
# Latitude: 48.25304314025181
# Elevation: 262.483

# File produced by Open Asset Import Library (http://www.assimp.sf.net)
# (assimp v3.1.0)


# 12 vertex positions
v  0 3.62 2.21661e-16
v  5.979 2.456 3.846
v  4.98 3.62 -1.023
v  5.667 2.455 3.915
v  1.045 2.404 5.09
v  5.696 2.424 4.048
v  4.98 6.26407e-17 -1.023
v  5.979 -2.355e-16 3.846
v  5.667 -2.39725e-16 3.915
v  5.696 -2.47869e-16 4.048
v  0 0 0
v  1.045 -3.11673e-16 5.09

# 0 UV coordinates

# 19 vertex normals
vn 0.0458814 0.973657 0.223352
vn 0.0461776 0.973743 0.222918
vn 0.0459909 0.973693 0.223173
vn 0.0445465 0.975032 0.217549
vn 0.979594 0 -0.200989
vn 0.979594 0 -0.200989
vn 0.977043 0 -0.213042
vn 0.977043 0 -0.213042
vn -0.20122 0 -0.979546
vn -0.20122 5.99799e-17 -0.979546
vn -0.979569 -1.23144e-17 0.20111
vn -0.979569 0 0.20111
vn 0.218619 0 0.97581
vn 0.215936 0 0.976407
vn 0.215936 0 0.976408
vn 0 -1 -6.12323e-17
vn 6.56613e-23 -1 -6.12323e-17
vn 0 -1 -6.12325e-17
vn -4.27579e-24 -1 -6.12323e-17

# Mesh 'defaultobject' with 20 faces
g defaultobject
usemtl DefaultMaterial
f  1//1 2//1 3//1
f  2//2 1//2 4//2
f  4//3 1//3 5//3
f  4//4 5//4 6//4
f  2//5 7//5 3//5
f  7//5 2//5 8//6
f  6//7 9//7 4//7
f  9//7 6//7 10//8
f  7//9 1//9 3//9
f  1//9 7//9 11//10
f  11//11 5//11 1//11
f  5//11 11//11 12//12
f  5//13 10//13 6//13
f  10//13 5//13 12//13
f  4//14 8//14 2//14
f  8//14 4//14 9//15
f  8//16 11//16 7//16
f  11//16 8//16 9//17
f  11//16 9//17 10//18
f  11//16 10//18 12//19

