# {"id":"ID_36225","idOriginal":"ID_36225","origin":[14.258110001617611,48.32330156622673],"elevation":516.151,"wof":[{"Id":101748071,"Name":"Linz","Placetype":"locality","Offset":-1},{"Id":102049853,"Name":"Linz","Placetype":"county","Offset":-1},{"Id":85632785,"Name":"Austria","Placetype":"country","Offset":-1},{"Id":85898453,"Name":"Urfahr","Placetype":"neighbourhood","Offset":-1},{"Id":85681677,"Name":"Oberösterreich","Placetype":"region","Offset":-1}]}

# Attribution: City of Linz <http://geo.data.linz.gv.at/katalog/geodata/3d_geo_daten_lod2/>
# Longitude: 14.258110001617611
# Latitude: 48.32330156622673
# Elevation: 516.151

# File produced by Open Asset Import Library (http://www.assimp.sf.net)
# (assimp v3.1.0)


# 8 vertex positions
v  0 2.987 1.82901e-16
v  9.958 4.581 -3.028
v  0.468 4.581 -4.11
v  9.489 2.987 1.082
v  0.468 2.51665e-16 -4.11
v  0 0 0
v  9.489 -6.62534e-17 1.082
v  9.958 1.85412e-16 -3.028

# 0 UV coordinates

# 11 vertex normals
vn -0.0407326 0.933118 0.357257
vn -0.0407358 0.933121 0.357248
vn -0.993579 0 -0.113137
vn -0.993579 6.92767e-18 -0.113137
vn -0.113293 -6.08381e-17 0.993562
vn -0.113293 0 0.993562
vn 0.993552 0 0.113376
vn 0.993552 0 0.113376
vn 0.113281 0 -0.993563
vn -3.34973e-25 -1 -6.12323e-17
vn 3.34999e-25 -1 -6.12323e-17

# Mesh 'defaultobject' with 12 faces
g defaultobject
usemtl DefaultMaterial
f  1//1 2//1 3//1
f  2//2 1//2 4//2
f  5//3 1//3 3//3
f  1//3 5//3 6//4
f  6//5 4//5 1//5
f  4//5 6//5 7//6
f  4//7 8//7 2//7
f  8//7 4//7 7//8
f  8//9 3//9 2//9
f  3//9 8//9 5//9
f  8//10 6//10 5//10
f  6//10 8//10 7//11

