# {"id":"ID_46298","idOriginal":"ID_46298","origin":[14.25990666000143,48.335893820175386],"elevation":394.114}
# Longitude: 14.25990666000143
# Latitude: 48.335893820175386
# Elevation: 394.114

# File produced by Open Asset Import Library (http://www.assimp.sf.net)
# (assimp v3.1.0)

mtllib ID_46298.obj.mtl

# 12 vertex positions
v  0.609 5.287 2.025
v  5.323 3.988 2.744
v  4.705 5.287 0.645
v  1.207 4.054 4.014
v  0 4.031 2.46828e-16
v  4.108 4.031 -1.384
v  4.108 8.47456e-17 -1.384
v  0 0 0
v  1.207 -2.45787e-16 4.014
v  0.609 -1.23995e-16 2.025
v  5.323 -1.68022e-16 2.744
v  4.705 -3.94949e-17 0.645

# 0 UV coordinates

# 18 vertex normals
vn 0.163079 0.859718 0.484036
vn 0.163107 0.859767 0.483939
vn -0.163112 0.859647 -0.48415
vn -0.163114 0.859652 -0.484141
vn -0.319271 0 -0.947663
vn -0.319271 5.80276e-17 -0.947663
vn -0.957642 6.72388e-05 0.28796
vn -0.957642 0 0.287961
vn -0.957642 0 0.287961
vn 0 -1 -6.12472e-17
vn 0.294836 -0 0.955548
vn 0.95931 0.000149022 -0.282354
vn 0.95931 0 -0.282355
vn 0.959335 -9.70675e-05 -0.282269
vn 0.959285 0 -0.282439
vn 2.95878e-24 -1 -6.12323e-17
vn 0 -1 -6.12323e-17
vn -7.2232e-25 -1 -6.12323e-17

# Mesh 'defaultobject' with 20 faces
g defaultobject
usemtl DefaultMaterial
f  1//1 2//1 3//1
f  2//2 1//2 4//2
f  5//3 3//3 6//3
f  3//3 5//3 1//4
f  7//5 5//5 6//5
f  5//5 7//5 8//6
f  5//7 4//7 1//7
f  4//8 5//8 8//8
f  4//8 8//8 9//9
f  9//10 8//10 10//10
f  9//11 2//11 4//11
f  2//11 9//11 11//11
f  2//12 6//12 3//12
f  6//13 2//13 7//13
f  7//14 2//14 12//14
f  12//15 2//15 11//15
f  10//10 11//16 9//10
f  11//16 10//10 8//10
f  11//16 8//10 12//17
f  12//17 8//10 7//18

