# File produced by Open Asset Import Library (http://www.assimp.sf.net)
# (assimp v3.1.0)

mtllib ID_51785.obj.mtl

# 8 vertex positions
v  1.632 0.796 -1.059
v  3.175 0.796 4.892
v  4.807 0.796 3.833
v  0 0.796 4.87409e-17
v  3.175 -2.99549e-16 4.892
v  4.807 -2.34704e-16 3.833
v  1.632 6.4845e-17 -1.059
v  0 0 0

# 0 UV coordinates

# 9 vertex normals
vn 0 1 0
vn 0.544338 -0 0.838866
vn 0.83882 0 -0.54441
vn -0.544338 0 -0.838866
vn -0.544338 5.13657e-17 -0.838866
vn -0.83882 -3.33355e-17 0.54441
vn -0.83882 0 0.54441
vn -1.39977e-23 -1 -6.12323e-17
vn 0 -1 -6.12323e-17

# Mesh 'defaultobject' with 12 faces
g defaultobject
usemtl DefaultMaterial
f  1//1 2//1 3//1
f  2//1 1//1 4//1
f  5//2 3//2 2//2
f  3//2 5//2 6//2
f  6//3 1//3 3//3
f  1//3 6//3 7//3
f  7//4 4//4 1//4
f  4//4 7//4 8//5
f  8//6 2//6 4//6
f  2//6 8//6 5//7
f  5//8 7//8 6//8
f  7//8 5//8 8//9

