# File produced by Open Asset Import Library (http://www.assimp.sf.net)
# (assimp v3.1.0)

mtllib ID_52593.obj.mtl

# 14 vertex positions
v  1.941 3.56 1.352
v  1.373 3.56 -2.205
v  0 3.56 2.17987e-16
v  4.169 3.56 -1.847
v  1.299 3.56 -3.151
v  1.625 3.56 -3.619
v  0.948 3.56 -2.435
v  1.625 2.216e-16 -3.619
v  1.299 1.92943e-16 -3.151
v  0.948 1.49101e-16 -2.435
v  1.373 1.35017e-16 -2.205
v  0 0 0
v  1.941 -8.27861e-17 1.352
v  4.169 1.13096e-16 -1.847

# 0 UV coordinates

# 15 vertex normals
vn 0 1 0
vn -0.820548 0 -0.571578
vn -0.897911 0 -0.440177
vn -0.848884 0 -0.528579
vn -0.848884 3.23662e-17 -0.528579
vn -0.47595 0 0.879472
vn -0.57156 -5.02448e-17 0.82056
vn -0.57156 0 0.82056
vn 0.820591 -0 0.571515
vn 0.571556 0 -0.820563
vn 0 -1 -6.12323e-17
vn -3.47935e-24 -1 -6.12323e-17
vn -4.90937e-24 -1 -6.12323e-17
vn 2.0086e-23 -1 -6.12323e-17
vn 3.34949e-22 -1 -6.12322e-17

# Mesh 'defaultobject' with 24 faces
g defaultobject
usemtl DefaultMaterial
f  1//1 2//1 3//1
f  2//1 1//1 4//1
f  2//1 4//1 5//1
f  5//1 4//1 6//1
f  5//1 7//1 2//1
f  8//2 5//2 6//2
f  5//2 8//2 9//2
f  9//3 7//3 5//3
f  7//3 9//3 10//3
f  11//4 3//4 2//4
f  3//4 11//4 12//5
f  10//6 2//6 7//6
f  2//6 10//6 11//6
f  12//7 1//7 3//7
f  1//7 12//7 13//8
f  13//9 4//9 1//9
f  4//9 13//9 14//9
f  14//10 6//10 4//10
f  6//10 14//10 8//10
f  12//11 14//11 13//11
f  14//11 12//11 11//12
f  14//11 11//12 8//13
f  8//13 11//12 10//14
f  8//13 10//14 9//15

