# {"id":"ID_9907","idOriginal":"ID_9907","origin":[14.278913763774552,48.28517858234619],"elevation":302.919}
# Longitude: 14.278913763774552
# Latitude: 48.28517858234619
# Elevation: 302.919

# File produced by Open Asset Import Library (http://www.assimp.sf.net)
# (assimp v3.1.0)

mtllib ID_9907.obj.mtl

# 26 vertex positions
v  13.518 8.381 -10.317
v  14.692 4.755 6.652
v  20.873 4.755 -6.993
v  7.339 8.381 3.323
v  5.867 4.738 -13.075
v  6.744 5.041 -13.378
v  6.128 4.737 -13.656
v  3.597 4.747 -8.017
v  3.296 4.748 -7.346
v  2.684 4.751 -5.982
v  2.262 4.752 -5.042
v  0 4.761 2.91527e-16
v  0.594 5.054 0.269
v  0 0 0
v  0.594 -1.64715e-17 0.269
v  7.339 -2.03475e-16 3.323
v  14.692 -4.07318e-16 6.652
v  20.873 4.28198e-16 -6.993
v  13.518 6.31734e-16 -10.317
v  6.744 8.19166e-16 -13.378
v  6.128 8.36189e-16 -13.656
v  2.262 3.08733e-16 -5.042
v  2.684 3.66292e-16 -5.982
v  3.296 4.49813e-16 -7.346
v  3.597 4.909e-16 -8.017
v  5.867 8.00613e-16 -13.075

# 0 UV coordinates

# 41 vertex normals
vn 0.373283 0.912178 0.169092
vn 0.373271 0.912182 0.169094
vn -0.373616 0.911983 -0.169407
vn -0.373586 0.912017 -0.169286
vn -0.373325 0.912154 -0.169125
vn -0.37328 0.912231 -0.168808
vn -0.373426 0.912033 -0.169554
vn -0.373104 0.912366 -0.16847
vn -0.373338 0.91215 -0.16912
vn -0.373343 0.912147 -0.169126
vn -0.392349 0.911091 -0.126394
vn -0.412532 -5.57792e-17 0.910943
vn -0.412466 -9.33687e-06 0.910973
vn -0.412532 6.03789e-05 0.910943
vn -0.412469 0 0.910971
vn -0.41244 0 0.910985
vn -0.41244 0 0.910985
vn 0.910901 -0 0.412626
vn 0.411832 0 -0.91126
vn 0.411785 0 -0.911281
vn 0.411349 0 -0.911478
vn 0.411349 0 -0.911478
vn -0.912388 0 -0.409326
vn -0.912284 0 -0.409557
vn -0.912284 0 -0.409557
vn -0.912372 0 -0.409363
vn -0.912404 0 -0.40929
vn -0.912404 0 -0.40929
vn -0.912333 0 -0.409449
vn -0.912333 0 -0.40945
vn -0.912186 0 -0.409776
vn -0.912186 0 -0.409776
vn 7.87875e-23 -1 -6.12322e-17
vn 1.95575e-23 -1 -6.12324e-17
vn 1.1775e-24 -1 -6.12323e-17
vn 2.65261e-24 -1 -6.12323e-17
vn 0 -1 -6.12323e-17
vn 6.83873e-25 -1 -6.12323e-17
vn 0 -1 -6.12323e-17
vn -7.69279e-21 -1 -6.12038e-17
vn 0 -1 -6.12351e-17

# Mesh 'defaultobject' with 48 faces
g defaultobject
usemtl DefaultMaterial
f  1//1 2//1 3//1
f  2//2 1//2 4//2
f  5//3 6//3 7//3
f  6//4 5//4 8//4
f  6//5 8//5 1//5
f  1//6 8//6 9//6
f  1//7 9//7 10//7
f  1//8 10//8 11//8
f  1//9 11//9 12//9
f  1//9 12//9 4//10
f  4//11 12//11 13//11
f  14//12 13//12 12//12
f  13//13 14//13 4//13
f  4//14 14//14 15//14
f  4//15 15//15 16//15
f  4//16 16//16 2//16
f  2//16 16//16 17//17
f  17//18 3//18 2//18
f  3//18 17//18 18//18
f  18//19 1//19 3//19
f  1//19 18//19 19//19
f  1//20 19//20 6//20
f  6//20 19//20 20//20
f  6//21 20//21 7//21
f  7//21 20//21 21//22
f  11//23 14//23 12//23
f  14//23 11//23 22//23
f  22//24 11//24 10//24
f  22//24 10//24 23//25
f  23//26 10//26 9//26
f  23//26 9//26 24//26
f  24//27 9//27 8//27
f  24//27 8//27 25//28
f  25//29 8//29 5//29
f  25//29 5//29 26//30
f  26//31 5//31 7//31
f  26//31 7//31 21//32
f  20//33 26//33 21//33
f  26//33 20//33 19//34
f  26//33 19//34 25//35
f  25//35 19//34 18//36
f  25//35 18//36 24//37
f  24//37 18//36 23//38
f  23//38 18//36 17//39
f  23//38 17//39 22//39
f  22//39 17//39 14//39
f  14//39 17//39 15//40
f  15//40 17//39 16//41

