# {"id":"ID_15726","idOriginal":"ID_15726","origin":[14.296819020166492,48.29173603182568],"elevation":261.9}
# Longitude: 14.296819020166492
# Latitude: 48.29173603182568
# Elevation: 261.9

# File produced by Open Asset Import Library (http://www.assimp.sf.net)
# (assimp v3.1.0)

mtllib ID_15726.obj.mtl

# 16 vertex positions
v  0 8.273 5.06575e-16
v  12.707 8.274 -8.16
v  12.683 8.276 -8.197
v  19.219 7.685 1.843
v  0.022 8.271 0.034
v  6.405 7.685 10.044
v  2.889 8.008 4.531
v  6.23 7.701 9.773
v  0 0 0
v  0.022 -2.0819e-18 0.034
v  2.889 -2.77444e-16 4.531
v  6.405 -6.15018e-16 10.044
v  6.23 -5.98424e-16 9.773
v  19.219 -1.12851e-16 1.843
v  12.707 4.99656e-16 -8.16
v  12.683 5.01921e-16 -8.197

# 0 UV coordinates

# 26 vertex normals
vn 0.0244223 0.998973 0.0381537
vn 0.026577 0.998785 0.041509
vn 0.0265727 0.998783 0.0415553
vn 0.0265755 0.998784 0.0415241
vn 0.409177 0.888221 -0.208895
vn 0.056544 0.998148 0.0224186
vn -0.83957 -3.32645e-17 0.543251
vn -0.843212 3.29999e-05 0.53758
vn -0.843281 0.000117919 0.537474
vn -0.840261 -0.00822057 0.54212
vn -0.839526 -0.0102465 0.543223
vn -0.843213 0.000138588 0.537579
vn -0.843126 0 0.537716
vn -2.43854e-20 1 6.12484e-17
vn 0.539056 -0 0.84227
vn 0.838059 0 -0.54558
vn 0.838958 0 -0.544197
vn 0.838958 0 -0.544197
vn -0.542801 0 -0.839861
vn -0.542801 5.14267e-17 -0.839861
vn -2.80696e-22 -1 -6.12328e-17
vn -5.87414e-25 -1 -6.12323e-17
vn 0 -1 -6.12323e-17
vn 0 -1 -6.12323e-17
vn -3.72308e-20 -1 -6.12075e-17
vn 2.66028e-20 -1 -6.12485e-17

# Mesh 'defaultobject' with 28 faces
g defaultobject
usemtl DefaultMaterial
f  1//1 2//1 3//1
f  2//2 1//2 4//2
f  4//3 1//3 5//3
f  4//4 5//4 6//4
f  6//5 5//5 7//5
f  6//6 7//6 8//6
f  9//7 5//7 1//7
f  5//8 9//8 7//8
f  7//9 9//9 8//9
f  8//10 9//10 6//10
f  6//11 9//11 10//11
f  6//12 10//12 11//12
f  6//13 11//13 12//13
f  12//14 11//14 13//14
f  12//15 4//15 6//15
f  4//15 12//15 14//15
f  14//16 2//16 4//16
f  2//16 14//16 15//16
f  2//17 15//17 3//17
f  3//17 15//17 16//18
f  16//19 1//19 3//19
f  1//19 16//19 9//20
f  15//21 9//21 16//21
f  9//21 15//21 14//22
f  9//21 14//22 10//23
f  10//23 14//22 12//24
f  10//23 12//24 11//25
f  11//25 12//24 13//26

