# {"id":"ID_47637","idOriginal":"ID_47637","origin":[14.320458806621083,48.27726378151344],"elevation":255.882,"wof":[{"Id":102049853,"Name":"Linz","Placetype":"county","Offset":-1},{"Id":101748071,"Name":"Linz","Placetype":"locality","Offset":-1},{"Id":85632785,"Name":"Austria","Placetype":"country","Offset":-1},{"Id":85681677,"Name":"Oberösterreich","Placetype":"region","Offset":-1},{"Id":85898429,"Name":"Kleinmünchen","Placetype":"neighbourhood","Offset":-1}]}

# Attribution: City of Linz <http://geo.data.linz.gv.at/katalog/geodata/3d_geo_daten_lod2/>
# Longitude: 14.320458806621083
# Latitude: 48.27726378151344
# Elevation: 255.882

# File produced by Open Asset Import Library (http://www.assimp.sf.net)
# (assimp v3.1.0)


# 22 vertex positions
v  0.072 12.447 0.179
v  0.094 12.377 -0.036
v  0 12.377 7.57873e-16
v  0.377 12.45 0.07
v  10.507 12.377 -4.038
v  0.615 12.691 0.689
v  18.042 12.713 -5.947
v  15.37 12.376 -5.908
v  17.808 12.487 -6.521
v  17.694 12.377 -6.801
v  17.934 12.608 -6.212
v  18.042 3.64149e-16 -5.947
v  17.694 4.16441e-16 -6.801
v  17.934 3.80375e-16 -6.212
v  17.808 3.99296e-16 -6.521
v  15.37 3.61761e-16 -5.908
v  0 0 0
v  10.507 2.47256e-16 -4.038
v  0.094 2.20436e-18 -0.036
v  0.072 -1.09606e-17 0.179
v  0.615 -4.21891e-17 0.689
v  0.377 -4.28626e-18 0.07

# 0 UV coordinates

# 34 vertex normals
vn -0.121993 0.940028 -0.318537
vn -0.123105 0.939862 -0.318597
vn -0.12275 0.93964 -0.31939
vn -0.122517 0.939864 -0.318818
vn -0.122837 0.939601 -0.31947
vn -0.123128 0.939143 -0.320701
vn -0.123156 0.939482 -0.319696
vn -0.123013 0.939708 -0.319086
vn 0.919071 0.0432729 -0.391708
vn 0.926047 0 -0.377407
vn 0.925977 -4.2189e-06 -0.37758
vn 0.926175 2.17708e-05 -0.377095
vn 0.926064 0 -0.377365
vn -8.27495e-19 -1 -6.08209e-17
vn -1.38451e-19 -1 -6.11723e-17
vn -0.358683 0 -0.933459
vn -0.358915 -4.99553e-05 -0.93337
vn -0.358745 6.33239e-05 -0.933436
vn -0.357647 0.00185419 -0.933855
vn -0.358683 0.000155239 -0.933459
vn -0.358792 5.71553e-17 -0.933418
vn 9.37372e-21 -1 -6.12291e-17
vn 6.26636e-22 -1 -6.12298e-17
vn -0.92776 0 0.373177
vn -0.92776 0 0.373177
vn -0.933384 0 0.358878
vn -0.933384 0 0.358878
vn 0.336532 0 0.941672
vn 0.336532 0 0.941672
vn 0.355862 0 0.934539
vn 0.355862 0 0.934539
vn 5.32483e-24 -1 -6.12323e-17
vn -1.63663e-24 -1 -6.12323e-17
vn 0 -1 -6.12323e-17

# Mesh 'defaultobject' with 40 faces
g defaultobject
usemtl DefaultMaterial
f  1//1 2//1 3//1
f  2//2 1//2 4//2
f  2//3 4//3 5//3
f  5//4 4//4 6//4
f  5//5 6//5 7//5
f  5//6 7//6 8//6
f  8//7 7//7 9//7
f  8//8 9//8 10//8
f  9//9 7//9 11//9
f  12//10 11//10 7//10
f  11//11 12//11 9//11
f  9//12 12//12 10//12
f  10//13 12//13 13//13
f  13//14 12//14 14//14
f  13//14 14//14 15//15
f  13//16 8//16 10//16
f  8//17 13//17 5//17
f  5//18 13//18 2//18
f  2//19 13//19 3//19
f  3//20 13//20 16//20
f  3//21 16//21 17//21
f  17//22 16//22 18//22
f  17//22 18//22 19//23
f  3//24 20//24 1//24
f  20//24 3//24 17//25
f  4//26 21//26 6//26
f  21//26 4//26 22//27
f  1//28 22//28 4//28
f  22//28 1//28 20//29
f  6//30 12//30 7//30
f  12//30 6//30 21//31
f  19//23 20//32 17//22
f  20//32 19//23 22//33
f  22//33 19//23 18//22
f  22//33 18//22 21//34
f  21//34 18//22 12//14
f  12//14 18//22 16//22
f  12//14 16//22 15//15
f  15//15 16//22 13//14
f  12//14 15//15 14//14

