# {"id":"ID_61144","idOriginal":"ID_61144","origin":[14.29851261896826,48.33402523467991],"elevation":264.933,"wof":[{"Id":85898425,"Name":"Harbach","Placetype":"neighbourhood","Offset":-1},{"Id":102049853,"Name":"Linz","Placetype":"county","Offset":-1},{"Id":85632785,"Name":"Austria","Placetype":"country","Offset":-1},{"Id":85681677,"Name":"Oberösterreich","Placetype":"region","Offset":-1},{"Id":101748071,"Name":"Linz","Placetype":"locality","Offset":-1}]}

# Attribution: City of Linz <http://geo.data.linz.gv.at/katalog/geodata/3d_geo_daten_lod2/>
# Longitude: 14.29851261896826
# Latitude: 48.33402523467991
# Elevation: 264.933

# File produced by Open Asset Import Library (http://www.assimp.sf.net)
# (assimp v3.1.0)


# 8 vertex positions
v  0 8.79 5.38232e-16
v  0.47 8.79 0.228
v  0.365 8.79 -0.129
v  0.124 8.79 0.351
v  0.365 7.89897e-18 -0.129
v  0 0 0
v  0.124 -2.14926e-17 0.351
v  0.47 -1.3961e-17 0.228

# 0 UV coordinates

# 9 vertex normals
vn -0 1 0
vn -0.333225 0 -0.942847
vn -0.333225 5.77327e-17 -0.942847
vn -0.942891 -2.03966e-17 0.333101
vn -0.942891 0 0.333101
vn 0.334956 -0 0.942234
vn 0.959365 0 -0.282166
vn 0 -1 -6.12323e-17
vn -3.02558e-24 -1 -6.12323e-17

# Mesh 'defaultobject' with 12 faces
g defaultobject
usemtl DefaultMaterial
f  1//1 2//1 3//1
f  2//1 1//1 4//1
f  5//2 1//2 3//2
f  1//2 5//2 6//3
f  6//4 4//4 1//4
f  4//4 6//4 7//5
f  7//6 2//6 4//6
f  2//6 7//6 8//6
f  8//7 3//7 2//7
f  3//7 8//7 5//7
f  8//8 6//8 5//8
f  6//8 8//8 7//9

