# {"id":"ID_7277","idOriginal":"ID_7277","origin":[14.282315566189594,48.33710859212531],"elevation":300.008,"wof":[{"Id":85681677,"Name":"Oberösterreich","Placetype":"region","Offset":-1},{"Id":85898425,"Name":"Harbach","Placetype":"neighbourhood","Offset":-1},{"Id":102049853,"Name":"Linz","Placetype":"county","Offset":-1},{"Id":101748071,"Name":"Linz","Placetype":"locality","Offset":-1},{"Id":85632785,"Name":"Austria","Placetype":"country","Offset":-1}]}

# Attribution: City of Linz <http://geo.data.linz.gv.at/katalog/geodata/3d_geo_daten_lod2/>
# Longitude: 14.282315566189594
# Latitude: 48.33710859212531
# Elevation: 300.008

# File produced by Open Asset Import Library (http://www.assimp.sf.net)
# (assimp v3.1.0)


# 20 vertex positions
v  0 9.26 5.67011e-16
v  20.529 12.178 11.407
v  4.485 12.178 -4.541
v  15.989 9.23 15.986
v  11.577 9.245 -6.536
v  21.773 9.683 4.95
v  22.432 9.26 4.299
v  24.372 9.682 7.53
v  10.902 9.674 -5.885
v  8.313 9.687 -8.417
v  22.432 -2.63238e-16 4.299
v  11.577 4.00215e-16 -6.536
v  8.313 5.15393e-16 -8.417
v  10.902 3.60352e-16 -5.885
v  21.773 -3.031e-16 4.95
v  24.372 -4.6108e-16 7.53
v  0 0 0
v  4.485 2.78056e-16 -4.541
v  15.989 -9.7886e-16 15.986
v  20.529 -6.98477e-16 11.407

# 0 UV coordinates

# 32 vertex normals
vn -0.293129 0.909458 0.294894
vn -0.293127 0.90946 0.294888
vn 0.292829 0.90964 -0.294629
vn 0.29313 0.909443 -0.294937
vn 0.293163 0.909436 -0.294928
vn 0.29313 0.909468 -0.29486
vn 0.293345 0.909329 -0.295075
vn 0.293085 0.909433 -0.295013
vn 0.706454 0 -0.707758
vn 0.706454 0 -0.707758
vn 0.699193 0 -0.714933
vn 0.699193 0 -0.714933
vn 0.704508 0 -0.709696
vn 0.704508 0 -0.709696
vn -0.694195 0 -0.719787
vn -0.694195 0 -0.719787
vn -0.711499 0 -0.702687
vn -0.711483 9.75861e-06 -0.702703
vn -0.711489 4.30278e-17 -0.702698
vn 0 -1 -6.13178e-17
vn -0.70704 -4.33019e-17 0.707173
vn -0.70704 0 0.707173
vn 0.710125 -0 0.704076
vn 0.710197 -5.41899e-05 0.704003
vn 0.710166 0 0.704035
vn 4.73241e-20 1 6.12847e-17
vn 0.702776 -0 0.711411
vn -9.31585e-24 -1 -6.12323e-17
vn -3.35443e-24 -1 -6.12323e-17
vn 0 -1 -6.12323e-17
vn -9.71251e-24 -1 -6.12323e-17
vn 0 -1 -6.12847e-17

# Mesh 'defaultobject' with 36 faces
g defaultobject
usemtl DefaultMaterial
f  1//1 2//1 3//1
f  2//1 1//1 4//2
f  5//3 6//3 7//3
f  6//4 2//4 8//4
f  2//5 6//5 3//5
f  3//6 6//6 9//6
f  9//7 6//7 5//7
f  3//8 9//8 10//8
f  11//9 5//9 7//9
f  5//9 11//9 12//10
f  9//11 13//11 10//11
f  13//11 9//11 14//12
f  8//13 15//13 6//13
f  15//13 8//13 16//14
f  5//15 14//15 9//15
f  14//15 5//15 12//16
f  13//17 3//17 10//17
f  3//18 13//18 1//18
f  1//19 13//19 17//19
f  17//20 13//20 18//20
f  17//21 4//21 1//21
f  4//21 17//21 19//22
f  19//23 2//23 4//23
f  2//24 19//24 8//24
f  8//25 19//25 16//25
f  16//26 19//26 20//26
f  15//27 7//27 6//27
f  7//27 15//27 11//27
f  11//28 15//28 12//28
f  14//29 18//20 13//20
f  18//20 14//29 17//20
f  17//20 14//29 19//30
f  19//30 14//29 12//28
f  19//30 12//28 15//28
f  19//30 15//28 16//31
f  19//30 16//31 20//32

