# {"id":"ID_46660","idOriginal":"ID_46660","origin":[14.335570879996755,48.27786791491299],"elevation":256.309,"wof":[{"Id":102049853,"Name":"Linz","Placetype":"county","Offset":-1},{"Id":85632785,"Name":"Austria","Placetype":"country","Offset":-1},{"Id":101748071,"Name":"Linz","Placetype":"locality","Offset":-1},{"Id":85681677,"Name":"Oberösterreich","Placetype":"region","Offset":-1},{"Id":85898459,"Name":"Wegscheid","Placetype":"neighbourhood","Offset":-1}]}

# Attribution: City of Linz <http://geo.data.linz.gv.at/katalog/geodata/3d_geo_daten_lod2/>
# Longitude: 14.335570879996755
# Latitude: 48.27786791491299
# Elevation: 256.309

# File produced by Open Asset Import Library (http://www.assimp.sf.net)
# (assimp v3.1.0)


# 8 vertex positions
v  0 27.816 1.70324e-15
v  8.792 28.286 0.232
v  8.388 27.814 -1.811
v  0.284 28.286 2.057
v  8.792 -1.42059e-17 0.232
v  8.388 1.10892e-16 -1.811
v  0 0 0
v  0.284 -1.25955e-16 2.057

# 0 UV coordinates

# 10 vertex normals
vn -0.0464317 0.975259 -0.216135
vn -0.0464212 0.975198 -0.216412
vn 0.981003 0 -0.193992
vn -0.211041 0 -0.977477
vn -0.211041 0 -0.977477
vn -0.990603 0 0.136768
vn -0.990603 0 0.136768
vn 0.209733 -0 0.977759
vn 1.85172e-25 -1 -6.12323e-17
vn 1.83621e-25 -1 -6.12323e-17

# Mesh 'defaultobject' with 12 faces
g defaultobject
usemtl DefaultMaterial
f  1//1 2//1 3//1
f  2//2 1//2 4//2
f  5//3 3//3 2//3
f  3//3 5//3 6//3
f  3//4 7//4 1//4
f  7//4 3//4 6//5
f  1//6 8//6 4//6
f  8//6 1//6 7//7
f  8//8 2//8 4//8
f  2//8 8//8 5//8
f  5//9 7//9 6//9
f  7//9 5//9 8//10

