# {"id":"ID_3295","idOriginal":"ID_3295","origin":[14.292494578986668,48.28888633054736],"elevation":263.215,"wof":[{"Id":85681677,"Name":"Oberösterreich","Placetype":"region","Offset":-1},{"Id":102049853,"Name":"Linz","Placetype":"county","Offset":-1},{"Id":85898459,"Name":"Wegscheid","Placetype":"neighbourhood","Offset":-1},{"Id":101748071,"Name":"Linz","Placetype":"locality","Offset":-1},{"Id":85632785,"Name":"Austria","Placetype":"country","Offset":-1}]}

# Attribution: City of Linz <http://geo.data.linz.gv.at/katalog/geodata/3d_geo_daten_lod2/>
# Longitude: 14.292494578986668
# Latitude: 48.28888633054736
# Elevation: 263.215

# File produced by Open Asset Import Library (http://www.assimp.sf.net)
# (assimp v3.1.0)


# 16 vertex positions
v  5.887 11.913 3.368
v  24.358 11.339 -27.287
v  23.437 11.913 -27.797
v  29.33 8.21 -24.421
v  11.781 8.21 6.741
v  0 8.215 5.03024e-16
v  20.751 10.239 -29.284
v  17.497 8.204 -31.111
v  0 0 0
v  17.497 1.905e-15 -31.111
v  5.887 -2.06231e-16 3.368
v  11.781 -4.12767e-16 6.741
v  29.33 1.49536e-15 -24.421
v  24.358 1.67085e-15 -27.287
v  20.751 1.79313e-15 -29.284
v  23.437 1.70208e-15 -27.797

# 0 UV coordinates

# 26 vertex normals
vn 0.417115 0.877975 0.234891
vn 0.417126 0.877969 0.234897
vn 0.417149 0.877952 0.234919
vn -0.417156 0.877948 -0.234921
vn -0.417131 0.877965 -0.234902
vn -0.417124 0.87797 -0.234895
vn -0.871611 0 -0.490199
vn -0.871611 0 -0.490199
vn -0.496583 -5.3149e-17 0.867989
vn -0.496668 5.52693e-05 0.867941
vn -0.496583 -0.000105227 0.867989
vn -0.496694 0 0.867926
vn 0.871332 -0 0.490694
vn 0.499401 0 -0.866371
vn 0.478657 -0.0120149 -0.87792
vn 0.487365 -0.00636277 -0.873175
vn 0.490799 -0.00258025 -0.871269
vn 0.499353 0.0138195 -0.866288
vn 0.484364 -0.00271259 -0.874862
vn 0.489574 0 -0.871962
vn 5.52743e-19 1 6.02489e-17
vn 0 -1 -6.12323e-17
vn 5.23731e-24 -1 -6.12323e-17
vn 0 -1 -6.12298e-17
vn -2.59136e-22 -1 -6.12316e-17
vn -5.72483e-19 -1 -6.02095e-17

# Mesh 'defaultobject' with 28 faces
g defaultobject
usemtl DefaultMaterial
f  1//1 2//1 3//1
f  2//2 1//2 4//2
f  4//3 1//3 5//3
f  6//4 7//4 8//4
f  7//5 6//5 3//5
f  3//6 6//6 1//6
f  8//7 9//7 6//7
f  9//7 8//7 10//8
f  9//9 1//9 6//9
f  1//10 9//10 5//10
f  5//11 9//11 11//11
f  5//12 11//12 12//12
f  12//13 4//13 5//13
f  4//13 12//13 13//13
f  13//14 2//14 4//14
f  2//15 13//15 3//15
f  3//16 13//16 7//16
f  7//17 13//17 8//17
f  8//18 13//18 14//18
f  8//19 14//19 15//19
f  8//20 15//20 10//20
f  15//21 14//21 16//21
f  11//22 13//22 12//22
f  13//22 11//22 9//22
f  13//22 9//22 10//23
f  13//22 10//23 15//24
f  13//22 15//24 14//25
f  14//25 15//24 16//26

