# {"id":"ID_13042","idOriginal":"ID_13042","origin":[14.284574793546879,48.322265706860556],"elevation":263.433,"wof":[{"Id":102049853,"Name":"Linz","Placetype":"county","Offset":-1},{"Id":85632785,"Name":"Austria","Placetype":"country","Offset":-1},{"Id":101748071,"Name":"Linz","Placetype":"locality","Offset":-1},{"Id":85681677,"Name":"Oberösterreich","Placetype":"region","Offset":-1},{"Id":85898453,"Name":"Urfahr","Placetype":"neighbourhood","Offset":-1}]}

# Attribution: City of Linz <http://geo.data.linz.gv.at/katalog/geodata/3d_geo_daten_lod2/>
# Longitude: 14.284574793546879
# Latitude: 48.322265706860556
# Elevation: 263.433

# File produced by Open Asset Import Library (http://www.assimp.sf.net)
# (assimp v3.1.0)


# 16 vertex positions
v  21.319 14.762 -5.165
v  7.292 15.144 7.586
v  7.579 14.728 7.884
v  3.784 20.225 3.936
v  17.583 20.225 -9.123
v  21.062 15.138 -5.438
v  0 14.745 9.02871e-16
v  13.835 14.745 -13.093
v  13.835 8.01715e-16 -13.093
v  0 0 0
v  7.579 -4.82756e-16 7.884
v  3.784 -2.4101e-16 3.936
v  7.292 -4.64509e-16 7.586
v  21.319 3.16265e-16 -5.165
v  21.062 3.32981e-16 -5.438
v  17.583 5.58623e-16 -9.123

# 0 UV coordinates

# 25 vertex normals
vn 0.487362 0.705157 0.515007
vn 0.486939 0.705803 0.514522
vn 0.486942 0.705792 0.514534
vn 0.749421 0.638686 0.174492
vn -0.486939 0.705794 -0.514534
vn -0.486938 0.705797 -0.514531
vn -0.687362 0 -0.726315
vn -0.687362 4.4474e-17 -0.726315
vn -0.720941 7.41156e-05 0.692997
vn -0.720939 0 0.692999
vn -0.720548 -0.000391672 0.693405
vn -0.720914 0 0.693025
vn -1.00291e-19 -1 -6.10773e-17
vn -3.35876e-20 1 6.12638e-17
vn 0.688639 0 0.725105
vn 0.727142 4.53271e-06 -0.686487
vn 0.727177 -0.00137324 -0.686449
vn 0.727176 0 -0.686451
vn 0.728122 0.00101984 -0.685447
vn 0.727139 -3.34377e-06 -0.68649
vn 0.727145 0 -0.686484
vn 3.71407e-23 -1 -6.12323e-17
vn 2.03935e-24 -1 -6.12323e-17
vn 0 -1 -6.13963e-17
vn -1.21511e-20 -1 -6.12222e-17

# Mesh 'defaultobject' with 28 faces
g defaultobject
usemtl DefaultMaterial
f  1//1 2//1 3//1
f  2//2 1//2 4//2
f  4//3 1//3 5//3
f  5//4 1//4 6//4
f  7//5 5//5 8//5
f  5//5 7//5 4//6
f  9//7 7//7 8//7
f  7//7 9//7 10//8
f  7//9 2//9 4//9
f  2//10 7//10 10//10
f  2//11 10//11 3//11
f  3//12 10//12 11//12
f  11//13 10//13 12//13
f  11//14 12//14 13//14
f  3//15 14//15 1//15
f  14//15 3//15 11//15
f  6//16 8//16 5//16
f  8//17 6//17 1//17
f  8//18 1//18 14//18
f  8//19 14//19 15//19
f  8//16 15//20 16//20
f  8//16 16//20 9//21
f  13//22 14//22 11//13
f  14//22 13//22 12//13
f  14//22 12//13 10//13
f  14//22 10//13 9//23
f  14//22 9//23 16//24
f  14//22 16//24 15//25

