# {"id":"ID_51631","idOriginal":"ID_51631","origin":[14.287866182639005,48.331985044073505],"elevation":272.821}
# Longitude: 14.287866182639005
# Latitude: 48.331985044073505
# Elevation: 272.821

# File produced by Open Asset Import Library (http://www.assimp.sf.net)
# (assimp v3.1.0)

mtllib ID_51631.obj.mtl

# 10 vertex positions
v  4.615 9.129 -2.141
v  0 9.129 5.5899e-16
v  2.122 9.129 1.49
v  2.154 9.129 -3.185
v  2.489 9.129 -3.672
v  0 0 0
v  2.122 -9.12362e-17 1.49
v  4.615 1.31098e-16 -2.141
v  2.489 2.24845e-16 -3.672
v  2.154 1.95025e-16 -3.185

# 0 UV coordinates

# 12 vertex normals
vn 0 1 0
vn -0.574652 -5.01124e-17 0.818398
vn -0.574652 0 0.818398
vn 0.824393 -0 0.566018
vn 0.584375 0 -0.811484
vn -0.828351 0 -0.56021
vn -0.823889 -0.00333141 -0.566741
vn -0.828351 0.000512145 -0.56021
vn -0.823894 0 -0.566744
vn 0 -1 -6.12323e-17
vn -2.62413e-24 -1 -6.12323e-17
vn -2.13708e-23 -1 -6.12323e-17

# Mesh 'defaultobject' with 16 faces
g defaultobject
usemtl DefaultMaterial
f  1//1 2//1 3//1
f  2//1 1//1 4//1
f  4//1 1//1 5//1
f  6//2 3//2 2//2
f  3//2 6//2 7//3
f  7//4 1//4 3//4
f  1//4 7//4 8//4
f  8//5 5//5 1//5
f  5//5 8//5 9//5
f  4//6 6//6 2//6
f  6//7 4//7 5//7
f  6//8 5//8 10//8
f  10//9 5//9 9//9
f  6//10 8//10 7//10
f  8//10 6//10 10//11
f  8//10 10//11 9//12

