# {"id":"ID_19650","idOriginal":"ID_19650","origin":[14.372604459200382,48.24905532735515],"elevation":249.678}
# Longitude: 14.372604459200382
# Latitude: 48.24905532735515
# Elevation: 249.678

# File produced by Open Asset Import Library (http://www.assimp.sf.net)
# (assimp v3.1.0)

mtllib ID_19650.obj.mtl

# 31 vertex positions
v  3.933 7.27 -4.342
v  11.121 5.392 2.655
v  12.314 7.27 -2.341
v  2.74 5.392 0.654
v  1.169 7.27 -5.002
v  0 5.392 3.30165e-16
v  5.247 5.355 -9.412
v  13.53 5.355 -7.435
v  5.224 5.392 -9.315
v  5.126 5.392 -9.338
v  2.338 5.392 -10.004
v  0 0 0
v  2.74 -4.00459e-17 0.654
v  11.121 -1.62572e-16 2.655
v  12.314 1.43345e-16 -2.341
v  13.53 4.55262e-16 -7.435
v  5.247 5.76319e-16 -9.412
v  5.224 5.70379e-16 -9.315
v  2.338 6.12568e-16 -10.004
v  5.126 5.71788e-16 -9.338
v  1.169 3.06284e-16 -5.002
v  6.006 2.617 -12.588
v  10.53 3.523 -10.248
v  10.815 2.618 -11.439
v  13.53 5.032 -7.435
v  14.004 3.523 -9.419
v  5.247 5.032 -9.412
v  14.004 5.76747e-16 -9.419
v  10.53 6.27509e-16 -10.248
v  10.815 7.00437e-16 -11.439
v  6.006 7.70793e-16 -12.588

# 0 UV coordinates

# 47 vertex normals
vn -0.0797442 0.939193 0.334001
vn -0.0797537 0.939193 0.333999
vn -0.0797191 0.939199 0.333991
vn 0.0797285 0.939182 -0.334037
vn 0.0838673 0.937503 -0.33772
vn 0.0797389 0.939202 -0.333979
vn 0.0784612 0.939192 -0.334307
vn 0.0797842 0.939193 -0.333992
vn 0.0797501 0.939199 -0.333984
vn -0.232164 -5.95593e-17 0.972677
vn -0.232227 3.37046e-05 0.972662
vn -0.232164 -0.00010297 0.972677
vn -0.232227 0 0.972662
vn 0.972654 -0 0.232261
vn 0.972667 -4.1881e-05 0.232203
vn 0.972654 7.29495e-05 0.232261
vn 0.972671 0 0.232188
vn 0.23216 0 -0.972678
vn 0.228492 0 -0.973546
vn 0.232343 7.38861e-05 -0.972634
vn 0.232213 0 -0.972665
vn 5.21558e-20 -1 -6.14627e-17
vn -0.973021 0 -0.230718
vn -0.97302 0 -0.230718
vn -0.973761 0 -0.227574
vn -0.973761 0 -0.227574
vn 4.74819e-24 -1 -6.12323e-17
vn 9.68205e-24 -1 -6.12324e-17
vn 0 -1 -6.12323e-17
vn 0 -1 -6.12323e-17
vn 0 -1 -6.12323e-17
vn 0.137955 0.804226 -0.578092
vn 0.138042 0.803932 -0.578479
vn 0.138078 0.803908 -0.578504
vn 0.138132 0.804009 -0.57835
vn -0.23216 0 0.972678
vn 0.972627 -0 0.232372
vn 0.972627 0 0.232372
vn 0.972543 -0 0.232724
vn 0.972543 0 0.232724
vn 0.232113 0 -0.972689
vn 0.232386 0 -0.972624
vn 0.232386 0 -0.972624
vn -0.972612 0 -0.232435
vn -0.972612 0 -0.232435
vn 1.20218e-23 -1 -6.12324e-17
vn 1.81664e-23 -1 -6.12323e-17

# Mesh 'defaultobject' with 58 faces
g defaultobject
usemtl DefaultMaterial
f  1//1 2//1 3//1
f  2//1 1//1 4//1
f  4//1 1//1 5//2
f  4//3 5//3 6//3
f  7//4 3//4 8//4
f  3//5 7//5 9//5
f  3//6 9//6 1//6
f  1//7 9//7 10//7
f  1//8 10//8 11//8
f  1//9 11//9 5//9
f  12//10 4//10 6//10
f  4//11 12//11 2//11
f  2//12 12//12 13//12
f  2//13 13//13 14//13
f  14//14 3//14 2//14
f  3//15 14//15 8//15
f  8//16 14//16 15//16
f  8//17 15//17 16//17
f  16//18 7//18 8//18
f  7//18 16//18 17//18
f  18//19 10//19 9//19
f  10//20 18//20 11//20
f  11//21 18//21 19//21
f  19//22 18//22 20//22
f  7//23 18//23 9//23
f  18//23 7//23 17//24
f  5//25 12//25 6//25
f  12//25 5//25 11//26
f  12//25 11//26 21//25
f  21//25 11//26 19//25
f  15//27 17//27 16//27
f  17//27 15//27 14//28
f  17//27 14//28 18//22
f  18//22 14//28 13//29
f  18//22 13//29 20//22
f  20//22 13//29 19//22
f  19//22 13//29 21//30
f  21//30 13//29 12//31
f  22//32 23//32 24//32
f  23//33 25//33 26//33
f  25//34 23//34 27//34
f  27//35 23//35 22//35
f  17//36 25//36 27//36
f  25//36 17//36 16//36
f  16//37 26//37 25//37
f  26//37 16//37 28//38
f  29//39 24//39 23//39
f  24//39 29//39 30//40
f  28//41 23//41 26//41
f  23//41 28//41 29//41
f  30//42 22//42 24//42
f  22//42 30//42 31//43
f  22//44 17//44 27//44
f  17//44 22//44 31//45
f  30//46 29//46 31//46
f  31//46 16//27 17//27
f  16//27 31//46 29//46
f  16//27 29//46 28//47

