# {"id":"_8828","idOriginal":"_8828","origin":[14.300779091832087,48.303853986068624],"elevation":258.737,"wof":[{"Id":85898449,"Name":"Steeg","Placetype":"neighbourhood","Offset":-1},{"Id":102049853,"Name":"Linz","Placetype":"county","Offset":-1},{"Id":85632785,"Name":"Austria","Placetype":"country","Offset":-1},{"Id":85681677,"Name":"Oberösterreich","Placetype":"region","Offset":-1},{"Id":101748071,"Name":"Linz","Placetype":"locality","Offset":-1}]}

# Attribution: City of Linz <http://geo.data.linz.gv.at/katalog/geodata/3d_geo_daten_lod2/>
# Longitude: 14.300779091832087
# Latitude: 48.303853986068624
# Elevation: 258.737

# File produced by Open Asset Import Library (http://www.assimp.sf.net)
# (assimp v3.1.0)


# 32 vertex positions
v  19.129 20.714 -4.256
v  15.389 15.55 6.028
v  22.661 15.543 1.823
v  2.113 20.714 5.606
v  13.275 15.551 7.251
v  5.163 18.412 7.456
v  7.036 15.556 10.859
v  1.771 20.235 6.558
v  1.433 15.554 -2.108
v  13.654 16.376 -7.9
v  13.133 15.551 -8.894
v  16.212 16.443 -9.277
v  1.959 16.303 -1.236
v  0 16.367 1.00219e-15
v  0.077 16.475 0.125
v  2.642 19.974 4.136
v  2.642 -2.53257e-16 4.136
v  0 0 0
v  0.077 -7.65404e-18 0.125
v  5.163 -4.56548e-16 7.456
v  7.036 -6.64922e-16 10.859
v  1.959 7.56832e-17 -1.236
v  1.433 1.29078e-16 -2.108
v  1.771 -4.01562e-16 6.558
v  2.113 -3.43268e-16 5.606
v  13.275 -4.43996e-16 7.251
v  22.661 -1.11627e-16 1.823
v  15.389 -3.69109e-16 6.028
v  16.212 5.68052e-16 -9.277
v  19.129 2.60605e-16 -4.256
v  13.654 4.83735e-16 -7.9
v  13.133 5.446e-16 -8.894

# 0 UV coordinates

# 55 vertex normals
vn 0.297174 0.805572 0.512583
vn 0.297071 0.805619 0.512569
vn 0.297024 0.805515 0.512759
vn 0.297072 0.805578 0.512633
vn 0.297079 0.805599 0.512596
vn 0.29741 0.805706 0.512235
vn -0.297187 0.805462 -0.512748
vn -0.297067 0.805567 -0.512653
vn -0.297122 0.805585 -0.512593
vn -0.297117 0.80553 -0.512682
vn -0.297116 0.805565 -0.512627
vn -0.297132 0.805419 -0.512848
vn -0.297119 0.805522 -0.512693
vn -0.297017 0.805698 -0.512476
vn -0.842466 0 0.53875
vn -0.849865 -0.00401611 0.526986
vn -0.842737 0 0.538325
vn -8.98893e-21 1 6.12326e-17
vn -0.876069 0 0.482185
vn -0.876069 0 0.482185
vn -0.856277 0 0.516516
vn -0.856278 0 0.516516
vn -0.941021 -0.00058008 -0.338348
vn -0.941001 -0 -0.338403
vn -0.941001 0 -0.338403
vn 3.04839e-20 1 6.12459e-17
vn -0.255924 0 0.966697
vn -0.255924 0 0.966697
vn 0.500615 -0 0.86567
vn 0.500762 -7.85417e-05 0.865585
vn 0.500581 5.09925e-05 0.86569
vn 0.500615 5.38046e-06 0.86567
vn 0.500622 0 0.865666
vn -2.47156e-20 -1 -6.12946e-17
vn 0.86466 2.87747e-05 -0.502357
vn 0.864659 0 -0.502359
vn 0.864659 0 -0.502359
vn 0 -1 -6.12706e-17
vn 0.885709 0 -0.46424
vn 0.885709 0 -0.46424
vn -0.473997 0 -0.880526
vn -0.473997 -0 -0.880526
vn -0.501718 0 -0.865031
vn -0.501718 0 -0.865031
vn -0.533603 0 -0.845735
vn -6.27974e-24 -1 -6.12323e-17
vn 6.98167e-24 -1 -6.12323e-17
vn -1.60978e-24 -1 -6.12323e-17
vn 0 -1 -6.12323e-17
vn -6.14489e-25 -1 -6.12323e-17
vn 0 -1 -6.12323e-17
vn 6.70496e-25 -1 -6.12323e-17
vn 6.4709e-25 -1 -6.12323e-17
vn -2.48778e-24 -1 -6.12323e-17
vn -2.24608e-24 -1 -6.12323e-17

# Mesh 'defaultobject' with 60 faces
g defaultobject
usemtl DefaultMaterial
f  1//1 2//1 3//1
f  2//2 1//2 4//2
f  2//3 4//3 5//3
f  5//4 4//4 6//4
f  5//5 6//5 7//5
f  6//6 4//6 8//6
f  9//7 10//7 11//7
f  10//8 1//8 12//8
f  1//9 10//9 9//9
f  1//10 9//10 13//10
f  1//11 13//11 14//11
f  1//12 14//12 15//12
f  1//13 15//13 16//13
f  1//14 16//14 4//14
f  15//15 17//15 16//15
f  17//16 15//16 14//16
f  17//17 14//17 18//17
f  17//18 18//18 19//18
f  20//19 7//19 6//19
f  7//19 20//19 21//20
f  9//21 22//21 13//21
f  22//21 9//21 23//22
f  16//23 8//23 4//23
f  8//24 16//24 24//24
f  24//24 16//24 17//25
f  24//26 17//18 25//26
f  24//27 6//27 8//27
f  6//27 24//27 20//28
f  21//29 5//29 7//29
f  5//30 21//30 2//30
f  2//31 21//31 3//31
f  3//32 21//29 26//32
f  3//32 26//32 27//33
f  27//34 26//34 28//34
f  3//35 12//35 1//35
f  12//36 3//36 27//36
f  12//36 27//36 29//37
f  29//38 27//34 30//38
f  31//39 11//39 10//39
f  11//39 31//39 32//40
f  29//41 10//41 12//41
f  10//41 29//41 31//42
f  11//43 23//43 9//43
f  23//43 11//43 32//44
f  13//45 18//45 14//45
f  18//45 13//45 22//45
f  30//38 31//46 29//38
f  31//46 23//47 32//47
f  23//47 31//46 30//38
f  23//47 30//38 27//34
f  23//47 27//34 22//48
f  22//48 27//34 18//49
f  18//49 27//34 19//50
f  19//50 27//34 17//51
f  17//51 27//34 28//34
f  17//51 28//34 25//52
f  25//52 28//34 24//53
f  24//53 28//34 26//34
f  24//53 26//34 20//54
f  20//54 26//34 21//55

