# {"id":"ID_32572","idOriginal":"ID_32572","origin":[14.296454545996802,48.25491877100859],"elevation":263.908}
# Longitude: 14.296454545996802
# Latitude: 48.25491877100859
# Elevation: 263.908

# File produced by Open Asset Import Library (http://www.assimp.sf.net)
# (assimp v3.1.0)

mtllib ID_32572.obj.mtl

# 10 vertex positions
v  0 2.774 1.69859e-16
v  7.127 2.774 0.053
v  5.539 2.774 -2.939
v  9.694 2.774 4.71
v  4.07 2.774 7.669
v  9.694 -2.88404e-16 4.71
v  7.127 -3.24531e-18 0.053
v  5.539 1.79962e-16 -2.939
v  0 0 0
v  4.07 -4.69591e-16 7.669

# 0 UV coordinates

# 11 vertex normals
vn -0 1 0
vn 0.875767 0 -0.482734
vn 0.883299 0 -0.46881
vn -0.468708 0 -0.883353
vn -0.468708 5.40898e-17 -0.883353
vn -0.883314 -2.87046e-17 0.468782
vn -0.883314 0 0.468782
vn 0.465623 -0 0.884983
vn -3.89448e-26 -1 -6.12323e-17
vn 0 -1 -6.12323e-17
vn 3.83804e-24 -1 -6.12323e-17

# Mesh 'defaultobject' with 16 faces
g defaultobject
usemtl DefaultMaterial
f  1//1 2//1 3//1
f  2//1 1//1 4//1
f  4//1 1//1 5//1
f  6//2 2//2 4//2
f  2//2 6//2 7//2
f  2//3 7//3 3//3
f  3//3 7//3 8//3
f  8//4 1//4 3//4
f  1//4 8//4 9//5
f  9//6 5//6 1//6
f  5//6 9//6 10//7
f  10//8 4//8 5//8
f  4//8 10//8 6//8
f  7//9 9//9 8//9
f  9//9 7//9 6//10
f  9//9 6//10 10//11

