# {"id":"ID_2619","idOriginal":"ID_2619","origin":[14.306772856859256,48.31700746011333],"elevation":253.221}
# Longitude: 14.306772856859256
# Latitude: 48.31700746011333
# Elevation: 253.221

# File produced by Open Asset Import Library (http://www.assimp.sf.net)
# (assimp v3.1.0)

mtllib ID_2619.obj.mtl

# 12 vertex positions
v  0 3.182 1.94841e-16
v  43.205 4.12 -8.625
v  40.918 3.182 -14.904
v  2.287 4.12 6.278
v  45.492 3.182 -2.347
v  4.573 3.182 12.557
v  0 0 0
v  2.287 -3.84417e-16 6.278
v  4.573 -7.68894e-16 12.557
v  45.492 1.43712e-16 -2.347
v  43.205 5.28129e-16 -8.625
v  40.918 9.12607e-16 -14.904

# 0 UV coordinates

# 19 vertex normals
vn -0.0475731 0.990292 -0.130609
vn -0.0475769 0.990289 -0.130628
vn 0.0475769 0.990289 0.130628
vn 0.0475745 0.990291 0.130616
vn -0.939597 -2.09588e-17 0.342284
vn -0.939597 0 0.342284
vn -0.939662 0 0.342104
vn -0.939662 0 0.342104
vn 0.342237 -0 0.939614
vn 0.939597 0 -0.342284
vn 0.939597 0 -0.342284
vn 0.939614 0 -0.342236
vn 0.939614 0 -0.342236
vn -0.342245 0 -0.939611
vn -0.342245 5.75346e-17 -0.939611
vn 2.18307e-24 -1 -6.12323e-17
vn 0 -1 -6.12323e-17
vn 0 -1 -6.12323e-17
vn -2.91067e-24 -1 -6.12323e-17

# Mesh 'defaultobject' with 20 faces
g defaultobject
usemtl DefaultMaterial
f  1//1 2//1 3//1
f  2//2 1//2 4//2
f  4//3 5//3 2//3
f  5//4 4//4 6//4
f  7//5 4//5 1//5
f  4//5 7//5 8//6
f  4//7 8//7 6//7
f  6//7 8//7 9//8
f  9//9 5//9 6//9
f  5//9 9//9 10//9
f  10//10 2//10 5//10
f  2//10 10//10 11//11
f  2//12 11//12 3//12
f  3//12 11//12 12//13
f  12//14 1//14 3//14
f  1//14 12//14 7//15
f  8//16 10//16 9//16
f  10//16 8//16 7//17
f  10//16 7//17 11//18
f  11//18 7//17 12//19

