# {"id":"ID_20597","idOriginal":"ID_20597","origin":[14.344254072683617,48.34045649565603],"elevation":339.969}
# Longitude: 14.344254072683617
# Latitude: 48.34045649565603
# Elevation: 339.969

# File produced by Open Asset Import Library (http://www.assimp.sf.net)
# (assimp v3.1.0)

mtllib ID_20597.obj.mtl

# 14 vertex positions
v  15.767 6.624 7.662
v  3.648 10.553 -2.457
v  12.12 10.553 10.119
v  10.272 6.624 -0.495
v  7.295 6.624 -4.914
v  8.472 6.624 12.576
v  0 6.624 4.05603e-16
v  7.295 3.00896e-16 -4.914
v  0 0 0
v  3.648 1.50448e-16 -2.457
v  8.472 -7.70058e-16 12.576
v  15.767 -4.69162e-16 7.662
v  12.12 -6.1961e-16 10.119
v  10.272 3.031e-17 -0.495

# 0 UV coordinates

# 19 vertex normals
vn 0.552581 0.745709 -0.372254
vn 0.552576 0.745716 -0.372245
vn 0.552576 0.745709 -0.372261
vn -0.552523 0.745771 0.372215
vn -0.558682 7.10875e-05 -0.829382
vn -0.558682 0 -0.829382
vn -0.558682 5.0785e-17 -0.829382
vn 0 -1 -6.12433e-17
vn -0.829362 -3.42112e-17 0.558711
vn -0.829362 0 0.558711
vn 0.558682 -7.11427e-05 0.829382
vn 0.558682 0 0.829382
vn -1.29296e-19 1 6.10709e-17
vn 0.829366 0 -0.558706
vn 0.829355 0 -0.558722
vn -2.25942e-24 -1 -6.12323e-17
vn 3.17512e-24 -1 -6.12323e-17
vn 0 -1 -6.12323e-17
vn 1.29196e-19 -1 -6.10235e-17

# Mesh 'defaultobject' with 24 faces
g defaultobject
usemtl DefaultMaterial
f  1//1 2//1 3//1
f  2//2 1//2 4//2
f  2//1 4//3 5//3
f  2//4 6//4 3//4
f  6//4 2//4 7//4
f  5//5 7//5 2//5
f  7//6 5//6 8//6
f  7//6 8//6 9//7
f  9//8 8//8 10//8
f  9//9 6//9 7//9
f  6//9 9//9 11//10
f  6//11 1//11 3//11
f  1//12 6//12 11//12
f  1//12 11//12 12//12
f  12//13 11//13 13//13
f  12//14 4//14 1//14
f  4//14 12//14 14//14
f  4//15 14//15 5//15
f  5//15 14//15 8//15
f  14//16 10//8 8//8
f  10//8 11//17 9//8
f  11//17 10//8 14//16
f  11//17 14//16 12//18
f  11//17 12//18 13//19

