# {"id":"ID_4473","idOriginal":"ID_4473","origin":[14.32202743442,48.32948712953573],"elevation":253.379,"wof":[{"Id":85681677,"Name":"Oberösterreich","Placetype":"region","Offset":-1},{"Id":85898419,"Name":"Furth","Placetype":"neighbourhood","Offset":-1},{"Id":102049853,"Name":"Linz","Placetype":"county","Offset":-1},{"Id":101748071,"Name":"Linz","Placetype":"locality","Offset":-1},{"Id":85632785,"Name":"Austria","Placetype":"country","Offset":-1}]}

# Attribution: City of Linz <http://geo.data.linz.gv.at/katalog/geodata/3d_geo_daten_lod2/>
# Longitude: 14.32202743442
# Latitude: 48.32948712953573
# Elevation: 253.379

# File produced by Open Asset Import Library (http://www.assimp.sf.net)
# (assimp v3.1.0)


# 12 vertex positions
v  19.084 17.642 -26.918
v  11.088 17.642 4.7
v  23.451 17.642 -25.061
v  14.213 17.642 -28.988
v  12.404 17.642 -29.757
v  0 17.642 1.08026e-15
v  12.404 1.82209e-15 -29.757
v  0 0 0
v  11.088 -2.87792e-16 4.7
v  23.451 1.53454e-15 -25.061
v  19.084 1.64825e-15 -26.918
v  14.213 1.775e-15 -28.988

# 0 UV coordinates

# 14 vertex normals
vn 0 1 -0
vn -0.923019 0 -0.384754
vn -0.923019 2.35594e-17 -0.384754
vn -0.390268 -5.63767e-17 0.920701
vn -0.390268 0 0.920701
vn 0.923489 -0 0.383626
vn 0.391323 0 -0.920253
vn 0.391113 -6.14661e-05 -0.920343
vn 0.391216 2.0213e-06 -0.920299
vn 0.391213 0 -0.9203
vn -1.55016e-20 1 6.12622e-17
vn 5.6993e-20 -1 -6.137e-17
vn 1.74536e-23 -1 -6.12323e-17
vn 0 -1 -6.12323e-17

# Mesh 'defaultobject' with 20 faces
g defaultobject
usemtl DefaultMaterial
f  1//1 2//1 3//1
f  2//1 1//1 4//1
f  2//1 4//1 5//1
f  2//1 5//1 6//1
f  7//2 6//2 5//2
f  6//2 7//2 8//3
f  8//4 2//4 6//4
f  2//4 8//4 9//5
f  9//6 3//6 2//6
f  3//6 9//6 10//6
f  10//7 1//7 3//7
f  1//8 10//8 4//8
f  4//9 10//9 5//9
f  5//9 10//9 7//10
f  7//11 10//11 11//11
f  7//12 11//12 12//12
f  7//12 9//13 8//13
f  9//13 7//12 12//12
f  9//13 12//12 10//14
f  10//14 12//12 11//12

