# {"id":"ID_27218","idOriginal":"ID_27218","origin":[14.30070794580001,48.33131237575722],"elevation":260.08,"wof":[{"Id":102049853,"Name":"Linz","Placetype":"county","Offset":-1},{"Id":101748071,"Name":"Linz","Placetype":"locality","Offset":-1},{"Id":85681677,"Name":"Oberösterreich","Placetype":"region","Offset":-1},{"Id":85898425,"Name":"Harbach","Placetype":"neighbourhood","Offset":-1},{"Id":85632785,"Name":"Austria","Placetype":"country","Offset":-1}]}

# Attribution: City of Linz <http://geo.data.linz.gv.at/katalog/geodata/3d_geo_daten_lod2/>
# Longitude: 14.30070794580001
# Latitude: 48.33131237575722
# Elevation: 260.08

# File produced by Open Asset Import Library (http://www.assimp.sf.net)
# (assimp v3.1.0)


# 12 vertex positions
v  0.096 7.12 3.686
v  1.814 7.12 -0.054
v  0 7.12 4.35974e-16
v  22.681 7.12 3.048
v  20.778 7.12 -0.619
v  22.566 7.12 -0.672
v  22.566 4.11481e-17 -0.672
v  20.778 3.79028e-17 -0.619
v  1.814 3.30655e-18 -0.054
v  0 0 0
v  0.096 -2.25702e-16 3.686
v  22.681 -1.86636e-16 3.048

# 0 UV coordinates

# 15 vertex normals
vn 0 1 0
vn -0.029629 0 -0.999561
vn -0.0297801 -3.79654e-05 -0.999556
vn -0.029629 0.000402626 -0.999561
vn -0.0297801 -0 -0.999556
vn -0.0297553 -0 -0.999557
vn -0.0297553 6.12052e-17 -0.999557
vn -0.999661 -1.59422e-18 0.0260357
vn -0.999661 0 0.0260357
vn 0.0282376 -0 0.999601
vn 0.999523 0 -0.0308992
vn 6.35456e-25 -1 -6.12323e-17
vn 7.83844e-24 -1 -6.12324e-17
vn 0 -1 -6.12323e-17
vn -7.95192e-24 -1 -6.12323e-17

# Mesh 'defaultobject' with 20 faces
g defaultobject
usemtl DefaultMaterial
f  1//1 2//1 3//1
f  2//1 1//1 4//1
f  2//1 4//1 5//1
f  5//1 4//1 6//1
f  7//2 5//2 6//2
f  5//3 7//3 2//3
f  2//4 7//4 8//4
f  2//5 8//5 9//5
f  2//6 9//6 3//6
f  3//6 9//6 10//7
f  10//8 1//8 3//8
f  1//8 10//8 11//9
f  11//10 4//10 1//10
f  4//10 11//10 12//10
f  12//11 6//11 4//11
f  6//11 12//11 7//11
f  10//12 12//12 11//12
f  12//12 10//12 9//13
f  12//12 9//13 8//14
f  12//12 8//14 7//15

