# {"id":"ID_43029","idOriginal":"ID_43029","origin":[14.305432055150632,48.32990653463509],"elevation":259.342,"wof":[{"Id":85681677,"Name":"Oberösterreich","Placetype":"region","Offset":-1},{"Id":85898419,"Name":"Furth","Placetype":"neighbourhood","Offset":-1},{"Id":102049853,"Name":"Linz","Placetype":"county","Offset":-1},{"Id":101748071,"Name":"Linz","Placetype":"locality","Offset":-1},{"Id":85632785,"Name":"Austria","Placetype":"country","Offset":-1}]}

# Attribution: City of Linz <http://geo.data.linz.gv.at/katalog/geodata/3d_geo_daten_lod2/>
# Longitude: 14.305432055150632
# Latitude: 48.32990653463509
# Elevation: 259.342

# File produced by Open Asset Import Library (http://www.assimp.sf.net)
# (assimp v3.1.0)


# 8 vertex positions
v  4.659 2.675 -1.807
v  1.719 2.675 4.431
v  6.378 2.675 2.623
v  0 2.675 1.63797e-16
v  6.378 -1.60612e-16 2.623
v  4.659 1.10647e-16 -1.807
v  0 0 0
v  1.719 -2.7132e-16 4.431

# 0 UV coordinates

# 9 vertex normals
vn 0 1 -0
vn 0.932273 0 -0.361756
vn -0.361606 0 -0.932331
vn -0.361606 5.70888e-17 -0.932331
vn -0.932301 -2.21468e-17 0.361685
vn -0.932301 0 0.361685
vn 0.36178 -0 0.932264
vn 0 -1 -6.12323e-17
vn 0 -1 -6.12323e-17

# Mesh 'defaultobject' with 12 faces
g defaultobject
usemtl DefaultMaterial
f  1//1 2//1 3//1
f  2//1 1//1 4//1
f  5//2 1//2 3//2
f  1//2 5//2 6//2
f  6//3 4//3 1//3
f  4//3 6//3 7//4
f  7//5 2//5 4//5
f  2//5 7//5 8//6
f  8//7 3//7 2//7
f  3//7 8//7 5//7
f  5//8 7//8 6//8
f  7//8 5//8 8//9

