# {"id":"ID_25784","idOriginal":"ID_25784","origin":[14.307795113303394,48.24660699777912],"elevation":258.511,"wof":[{"Id":85632785,"Name":"Austria","Placetype":"country","Offset":-1},{"Id":85681677,"Name":"Oberösterreich","Placetype":"region","Offset":-1},{"Id":85898447,"Name":"Scharlinz","Placetype":"neighbourhood","Offset":-1},{"Id":102049853,"Name":"Linz","Placetype":"county","Offset":-1},{"Id":101748071,"Name":"Linz","Placetype":"locality","Offset":-1}]}

# Attribution: City of Linz <http://geo.data.linz.gv.at/katalog/geodata/3d_geo_daten_lod2/>
# Longitude: 14.307795113303394
# Latitude: 48.24660699777912
# Elevation: 258.511

# File produced by Open Asset Import Library (http://www.assimp.sf.net)
# (assimp v3.1.0)


# 62 vertex positions
v  18.618 2.81 -5.857
v  14.788 4.403 -5.324
v  15.572 2.669 -3.874
v  12.987 3.192 -2.904
v  11.653 5.076 -4.189
v  12.548 3.203 -2.653
v  12.519 4.282 -3.83
v  10.625 7.227 -5.955
v  16.537 7.165 -9.43
v  14.788 3.26001e-16 -5.324
v  12.519 2.3452e-16 -3.83
v  18.618 3.58638e-16 -5.857
v  15.572 2.37214e-16 -3.874
v  12.548 1.62449e-16 -2.653
v  12.987 1.77819e-16 -2.904
v  10.625 3.64639e-16 -5.955
v  11.653 2.56502e-16 -4.189
v  16.537 5.77421e-16 -9.43
v  6.683 9.585 -1.209
v  12.548 9.322 -2.653
v  11.653 9.585 -4.189
v  7.561 9.339 0.204
v  5.797 9.337 -2.634
v  5.551 9.242 -3.235
v  5.458 9.242 -3.181
v  10.41 9.232 -6.225
v  5.519 9.232 -3.293
v  10.578 9.283 -5.927
v  10.625 9.283 -5.955
v  7.561 -1.24914e-17 0.204
v  5.797 1.61286e-16 -2.634
v  5.458 1.9478e-16 -3.181
v  6.683 7.40299e-17 -1.209
v  5.551 1.98087e-16 -3.235
v  5.519 2.01638e-16 -3.293
v  10.578 3.62924e-16 -5.927
v  10.41 3.81171e-16 -6.225
v  0.007 10.022 0.011
v  0.927 10.022 -0.54
v  0 10.035 6.14466e-16
v  2.079 6.227 3.345
v  5.458 9.959 -3.181
v  7.561 6.106 0.204
v  6.683 7.715 -1.209
v  0 0 0
v  0.007 -6.73556e-19 0.011
v  2.079 -2.04822e-16 3.345
v  0.927 3.30655e-17 -0.54
v  5.543 9.718 -7.32
v  10.41 9.317 -6.225
v  8.724 9.716 -9.212
v  5.663 9.686 -7.073
v  4.755 9.687 -6.535
v  4.93 9.645 -6.218
v  4.173 9.641 -5.723
v  5.519 9.318 -3.293
v  8.724 5.64072e-16 -9.212
v  5.543 4.48221e-16 -7.32
v  4.755 4.00153e-16 -6.535
v  5.663 4.33096e-16 -7.073
v  4.93 3.80743e-16 -6.218
v  4.173 3.50433e-16 -5.723

# 0 UV coordinates

# 105 vertex normals
vn 0.372958 0.688627 0.621848
vn 0.372947 0.688391 0.622115
vn 0.373553 0.688495 0.621638
vn 0.373936 0.688704 0.621175
vn 0.372822 0.688574 0.621988
vn 0.37282 0.688572 0.621992
vn 0.372929 0.688509 0.621996
vn 0.549934 0 0.835208
vn 0.549934 0 0.835208
vn 0.545588 0 0.838054
vn 0.545588 0 0.838054
vn 0.496353 -0 0.868121
vn 0.496353 0 0.868121
vn -0.879651 0 0.475619
vn -0.879651 0 0.475619
vn -0.86424 0 0.50308
vn -0.864088 -0.000121583 0.503341
vn -0.864139 0 0.503253
vn -1.69396e-20 1 6.12367e-17
vn 0.864121 0 -0.503284
vn 0.892491 0 -0.451064
vn 0.892491 0 -0.451064
vn -0.506733 0 -0.862103
vn -0.506733 0 -0.862103
vn -6.64917e-24 -1 -6.12323e-17
vn -9.33512e-25 -1 -6.12323e-17
vn 3.45953e-24 -1 -6.12323e-17
vn 2.28128e-23 -1 -6.12323e-17
vn 2.6098e-23 -1 -6.12324e-17
vn 0 -1 -6.12323e-17
vn 0.0752645 0.989231 0.125525
vn 0.0752504 0.98924 0.125466
vn -0.073362 0.98927 -0.126346
vn -0.0767916 0.988784 -0.1281
vn -0.0752356 0.989228 -0.125572
vn -0.0751377 0.989251 -0.125447
vn -0.0762657 0.98906 -0.126272
vn -0.0751847 0.989254 -0.125392
vn -0.0748315 0.989253 -0.12561
vn -0.84938 0 0.527782
vn -0.849238 4.65823e-05 0.52801
vn -0.849965 -0.000446831 0.526838
vn -0.849307 9.15303e-05 0.527899
vn -0.85 0 0.526782
vn 3.44469e-20 -1 -6.12638e-17
vn -0.875578 0 0.483078
vn 0.497094 -0 0.867697
vn 0.497094 0 0.867697
vn 0.864024 0 -0.503451
vn 0.864234 7.76463e-05 -0.50309
vn 0.864139 0 -0.503253
vn 0.871106 0 -0.491094
vn 0.871106 0 -0.491094
vn -0.511804 0 -0.859102
vn -0.51416 0 -0.857694
vn -0.502135 0 -0.864789
vn 1.18395e-22 -1 -6.12324e-17
vn -6.7868e-24 -1 -6.12323e-17
vn -2.40609e-21 -1 -6.1231e-17
vn 9.26885e-23 -1 -6.12324e-17
vn 0.362843 0.708032 0.605835
vn 0.357156 0.7189 0.59634
vn 0.3575 0.718853 0.596192
vn 0.357275 0.718994 0.596156
vn 0.357473 0.718854 0.596207
vn -0.495196 0.404875 0.768672
vn -0.843661 -3.28741e-17 0.536875
vn -0.849334 1.38615e-05 0.527856
vn -0.843637 -0.00672471 0.536872
vn -0.849341 0 0.527845
vn 0.497144 -0 0.867668
vn 0.497144 0 0.867668
vn 0.85 0 -0.526782
vn 0.849283 9.37917e-05 -0.527938
vn 0.849395 2.96122e-05 -0.527757
vn 0.849419 0 -0.527719
vn -0.503575 0 -0.863952
vn -0.503348 0.00013729 -0.864084
vn -0.503536 5.29032e-17 -0.863974
vn -4.51163e-21 -1 -6.12409e-17
vn -1.33496e-25 -1 -6.12323e-17
vn 0.05955 0.993297 0.0990704
vn 0.0593726 0.993231 0.0998348
vn 0.0595813 0.993331 0.0987101
vn 0.0595809 0.99333 0.0987163
vn 0.0595789 0.993288 0.0991415
vn 0.0595709 0.993299 0.0990342
vn 0.87085 0 -0.491548
vn 0.870851 0 -0.491548
vn -0.511194 0 -0.859465
vn -0.511194 0 -0.859465
vn -0.509751 0 -0.860322
vn -0.509751 0 -0.860322
vn -0.547279 0 -0.83695
vn -0.899468 0 0.436987
vn -0.899468 0 0.436987
vn -0.875457 0 0.483296
vn -0.875457 0 0.483296
vn -0.874768 0 0.484542
vn -0.874768 0 0.484542
vn 0.514161 -0 0.857694
vn 0.51416 0 0.857694
vn -8.6619e-24 -1 -6.12324e-17
vn 1.04546e-22 -1 -6.12322e-17
vn 1.84861e-23 -1 -6.12323e-17

# Mesh 'defaultobject' with 128 faces
g defaultobject
usemtl DefaultMaterial
f  1//1 2//1 3//1
f  4//2 5//2 6//2
f  5//3 4//3 7//3
f  5//4 7//4 8//4
f  8//5 7//5 2//5
f  8//5 2//5 9//6
f  9//7 2//7 1//7
f  7//8 10//8 2//8
f  10//8 7//8 11//9
f  3//10 12//10 1//10
f  12//10 3//10 13//11
f  14//12 4//12 6//12
f  4//12 14//12 15//13
f  10//14 3//14 2//14
f  3//14 10//14 13//15
f  16//16 5//16 8//16
f  5//17 16//17 6//17
f  6//18 16//18 14//18
f  14//19 16//19 17//19
f  1//20 18//20 9//20
f  18//20 1//20 12//20
f  4//21 11//21 7//21
f  11//21 4//21 15//22
f  9//23 16//23 8//23
f  16//23 9//23 18//24
f  13//25 10//25 12//25
f  12//25 16//26 18//26
f  16//26 12//25 10//25
f  16//26 10//25 11//27
f  16//26 11//27 17//28
f  17//28 11//27 15//29
f  17//28 15//29 14//30
f  19//31 20//31 21//31
f  20//32 19//32 22//32
f  23//33 24//33 25//33
f  24//34 26//34 27//34
f  26//35 24//35 23//35
f  26//36 23//36 19//36
f  26//37 19//37 28//37
f  28//38 19//38 21//38
f  28//39 21//39 29//39
f  19//40 30//40 22//40
f  30//41 19//41 23//41
f  30//42 23//42 25//42
f  30//43 25//43 31//43
f  31//44 25//44 32//44
f  30//45 31//45 33//45
f  27//46 34//46 24//46
f  34//46 27//46 35//46
f  30//47 20//47 22//47
f  20//47 30//47 14//48
f  14//49 21//49 20//49
f  21//50 14//50 29//50
f  29//51 14//51 16//51
f  16//26 14//30 17//28
f  36//52 26//52 28//52
f  26//52 36//52 37//53
f  16//54 28//54 29//54
f  28//54 16//54 36//54
f  37//55 27//55 26//55
f  27//55 37//55 35//55
f  34//56 25//56 24//56
f  25//56 34//56 32//56
f  17//28 36//57 16//26
f  36//57 35//58 37//58
f  35//58 36//57 17//28
f  35//58 17//28 14//30
f  35//58 14//30 30//45
f  35//58 30//45 34//59
f  34//59 30//45 32//60
f  32//60 30//45 33//45
f  32//60 33//45 31//45
f  38//61 39//61 40//61
f  39//62 38//62 41//62
f  39//63 41//63 42//63
f  42//64 41//64 23//64
f  23//65 41//65 43//65
f  23//66 43//66 44//66
f  45//67 38//67 40//67
f  38//68 45//68 41//68
f  41//69 45//69 46//69
f  41//70 46//70 47//70
f  47//71 43//71 41//71
f  43//71 47//71 30//72
f  23//73 32//73 42//73
f  32//74 23//74 44//74
f  32//75 44//75 43//75
f  32//76 43//76 30//76
f  32//60 30//45 33//45
f  32//60 33//45 31//45
f  32//77 39//77 42//77
f  39//78 32//78 40//78
f  40//79 32//79 45//79
f  45//80 32//60 48//80
f  46//81 30//45 47//81
f  30//45 46//81 33//45
f  33//45 46//81 31//45
f  31//45 46//81 45//80
f  31//45 45//80 48//80
f  31//45 48//80 32//60
f  49//82 50//82 51//82
f  50//83 49//83 52//83
f  50//84 52//84 53//84
f  50//84 53//84 54//85
f  50//86 54//86 55//86
f  50//87 55//87 56//87
f  50//88 57//88 51//88
f  57//88 50//88 37//89
f  51//90 58//90 49//90
f  58//90 51//90 57//91
f  52//92 59//92 53//92
f  59//92 52//92 60//93
f  61//94 55//94 54//94
f  55//94 61//94 62//94
f  58//95 52//95 49//95
f  52//95 58//95 60//96
f  59//97 54//97 53//97
f  54//97 59//97 61//98
f  62//99 56//99 55//99
f  56//99 62//99 35//100
f  35//101 50//101 56//101
f  50//101 35//101 37//102
f  60//103 61//103 59//103
f  57//104 60//103 58//104
f  60//103 57//104 35//58
f  35//58 57//104 37//58
f  61//103 35//58 62//105
f  35//58 61//103 60//103

