# {"id":"_31970","idOriginal":"_31970","origin":[14.253461259586107,48.307469458986844],"elevation":259.679,"wof":[{"Id":102049853,"Name":"Linz","Placetype":"county","Offset":-1},{"Id":101748071,"Name":"Linz","Placetype":"locality","Offset":-1},{"Id":85632785,"Name":"Austria","Placetype":"country","Offset":-1},{"Id":85681677,"Name":"Oberösterreich","Placetype":"region","Offset":-1},{"Id":85898445,"Name":"St. Margarethen","Placetype":"neighbourhood","Offset":-1}]}

# Attribution: City of Linz <http://geo.data.linz.gv.at/katalog/geodata/3d_geo_daten_lod2/>
# Longitude: 14.253461259586107
# Latitude: 48.307469458986844
# Elevation: 259.679

# File produced by Open Asset Import Library (http://www.assimp.sf.net)
# (assimp v3.1.0)


# 8 vertex positions
v  1.053 2.575 -9.073
v  6.253 2.575 0.734
v  7.289 2.575 -8.406
v  0 2.575 1.57673e-16
v  7.289 5.14719e-16 -8.406
v  1.053 5.55561e-16 -9.073
v  0 0 0
v  6.253 -4.49445e-17 0.734

# 0 UV coordinates

# 9 vertex normals
vn 0 1 0
vn 0.106353 0 -0.994328
vn -0.993332 0 -0.115285
vn -0.993332 7.05916e-18 -0.115285
vn -0.116583 -6.08148e-17 0.993181
vn -0.116583 0 0.993181
vn 0.993637 -0 0.112627
vn -7.34149e-24 -1 -6.12323e-17
vn 0 -1 -6.12323e-17

# Mesh 'defaultobject' with 12 faces
g defaultobject
usemtl DefaultMaterial
f  1//1 2//1 3//1
f  2//1 1//1 4//1
f  5//2 1//2 3//2
f  1//2 5//2 6//2
f  6//3 4//3 1//3
f  4//3 6//3 7//4
f  7//5 2//5 4//5
f  2//5 7//5 8//6
f  8//7 3//7 2//7
f  3//7 8//7 5//7
f  8//8 6//8 5//8
f  6//8 8//8 7//9

