# {"id":"ID_22939","idOriginal":"ID_22939","origin":[14.315874052925425,48.26792918895845],"elevation":258.365}
# Longitude: 14.315874052925425
# Latitude: 48.26792918895845
# Elevation: 258.365

# File produced by Open Asset Import Library (http://www.assimp.sf.net)
# (assimp v3.1.0)

mtllib ID_22939.obj.mtl

# 32 vertex positions
v  13.315 2.299 -4.415
v  16.1 2.299 0.87
v  14.214 2.299 -4.711
v  15.275 2.299 1.251
v  15.372 2.299 1.22
v  18.742 2.299 0.14
v  18.679 2.299 -0.043
v  20.871 2.299 6.291
v  15.383 2.299 1.254
v  16.343 2.299 4.335
v  17.364 2.299 7.285
v  17.27 2.299 7.312
v  15.372 -7.47035e-17 1.22
v  17.27 -4.47731e-16 7.312
v  15.383 -7.67854e-17 1.254
v  16.343 -2.65442e-16 4.335
v  13.315 2.70341e-16 -4.415
v  15.275 -7.66017e-17 1.251
v  20.871 -3.85213e-16 6.291
v  17.364 -4.46078e-16 7.285
v  18.742 -8.57253e-18 0.14
v  18.679 2.63299e-18 -0.043
v  16.1 -5.32721e-17 0.87
v  14.214 2.88466e-16 -4.711
v  1.83 3.949 5.523
v  4.675 3.949 -1.567
v  0 3.949 2.41807e-16
v  15.275 3.949 1.251
v  13.315 3.949 -4.415
v  1.83 -3.38186e-16 5.523
v  4.675 9.59511e-17 -1.567
v  0 0 0

# 0 UV coordinates

# 30 vertex normals
vn -0 1 0
vn -0.951439 0 0.307837
vn -0.954728 0.000168892 0.297481
vn -0.954782 0.000427395 0.297307
vn -0.954736 0 0.297454
vn 8.52706e-20 -1 -6.12456e-17
vn 5.77639e-20 -1 -6.12587e-17
vn -0.945053 0 0.326916
vn 0.276071 -0 0.961137
vn 0.272691 0.000149515 0.962102
vn 0.27278 0 0.962076
vn -2.64037e-20 -1 -6.132e-17
vn 0.304418 -0 0.952538
vn 0.944995 0 -0.327084
vn 0.945538 0 -0.325512
vn 0.947368 0 -0.320146
vn -0.333719 0 -0.942673
vn -0.312739 0 -0.949839
vn 1.56226e-24 -1 -6.12323e-17
vn -3.79796e-23 -1 -6.12323e-17
vn 3.9061e-23 -1 -6.12323e-17
vn 0.30282 -0 0.953048
vn 0.945053 0 -0.326916
vn -0.31306 0 -0.949733
vn -0.317809 -0 -0.948155
vn -0.317809 5.80577e-17 -0.948155
vn -0.949249 -1.92591e-17 0.314526
vn -0.949249 0 0.314526
vn 0 -1 -6.12323e-17
vn 0 -1 -6.12323e-17

# Mesh 'defaultobject' with 60 faces
g defaultobject
usemtl DefaultMaterial
f  1//1 2//1 3//1
f  2//1 1//1 4//1
f  2//1 4//1 5//1
f  2//1 6//1 7//1
f  6//1 2//1 8//1
f  8//1 2//1 5//1
f  8//1 5//1 9//1
f  8//1 9//1 10//1
f  8//1 10//1 11//1
f  11//1 10//1 12//1
f  13//2 9//2 5//2
f  9//3 13//3 10//3
f  10//4 13//4 12//4
f  12//5 13//5 14//5
f  14//6 13//6 15//6
f  14//6 15//6 16//7
f  17//8 4//8 1//8
f  4//8 17//8 18//8
f  14//9 11//9 12//9
f  11//10 14//10 8//10
f  8//11 14//11 19//11
f  19//12 14//6 20//12
f  18//13 5//13 4//13
f  5//13 18//13 13//13
f  19//14 6//14 8//14
f  6//14 19//14 21//14
f  6//15 21//15 7//15
f  7//15 21//15 22//15
f  23//16 3//16 2//16
f  3//16 23//16 24//16
f  22//17 2//17 7//17
f  2//17 22//17 23//17
f  24//18 1//18 3//18
f  1//18 24//18 17//18
f  21//19 23//19 22//19
f  23//19 21//19 19//12
f  23//19 19//12 13//6
f  13//6 19//12 15//6
f  15//6 19//12 16//7
f  16//7 19//12 20//12
f  16//7 20//12 14//6
f  23//19 17//20 24//20
f  17//20 23//19 18//21
f  18//21 23//19 13//6
f  25//1 26//1 27//1
f  26//1 25//1 28//1
f  26//1 28//1 29//1
f  30//22 28//22 25//22
f  28//22 30//22 18//22
f  18//23 29//23 28//23
f  29//23 18//23 17//23
f  17//24 26//24 29//24
f  26//24 17//24 31//24
f  26//25 31//25 27//25
f  27//25 31//25 32//26
f  32//27 25//27 27//27
f  25//27 32//27 30//28
f  32//29 18//21 30//29
f  18//21 32//29 31//30
f  18//21 31//30 17//20

