# {"id":"ID_37051","idOriginal":"ID_37051","origin":[14.332157700103643,48.235825942076474],"elevation":290.436,"wof":[{"Id":85898417,"Name":"Ebelsberg","Placetype":"neighbourhood","Offset":-1},{"Id":85681677,"Name":"Oberösterreich","Placetype":"region","Offset":-1},{"Id":102049853,"Name":"Linz","Placetype":"county","Offset":-1},{"Id":101748071,"Name":"Linz","Placetype":"locality","Offset":-1},{"Id":85632785,"Name":"Austria","Placetype":"country","Offset":-1}]}

# Attribution: City of Linz <http://geo.data.linz.gv.at/katalog/geodata/3d_geo_daten_lod2/>
# Longitude: 14.332157700103643
# Latitude: 48.235825942076474
# Elevation: 290.436

# File produced by Open Asset Import Library (http://www.assimp.sf.net)
# (assimp v3.1.0)


# 16 vertex positions
v  5.321 2.525 -1.163
v  4.103 3.329 6.157
v  6.753 2.525 5.596
v  2.671 3.329 -0.602
v  0.893 2.789 -0.225
v  0 2.516 1.54061e-16
v  0.849 2.537 3.658
v  1.495 2.537 6.709
v  0.849 -2.23988e-16 3.658
v  0 0 0
v  1.495 -4.10808e-16 6.709
v  4.103 -3.77008e-16 6.157
v  6.753 -3.42656e-16 5.596
v  5.321 7.12132e-17 -1.163
v  0.893 1.37773e-17 -0.225
v  2.671 3.68619e-17 -0.602

# 0 UV coordinates

# 26 vertex normals
vn 0.278369 0.958662 -0.0589768
vn 0.278369 0.958662 -0.0589768
vn -0.278618 0.958586 0.0590295
vn -0.27826 0.958702 0.05884
vn -0.278762 0.958534 0.0591961
vn -0.278619 0.958588 0.058993
vn -0.974108 0 0.226085
vn -0.974108 0 0.226085
vn -0.978311 0 0.207142
vn 0.207069 -0 0.978326
vn 0.207101 -2.57738e-05 0.97832
vn 0.207069 4.27526e-05 0.978326
vn 0.207108 0 0.978318
vn 0.978285 0 -0.207265
vn -0.244324 0 -0.969694
vn -0.244324 5.93766e-17 -0.969694
vn -0.207108 0 -0.978318
vn -0.207363 -0.000211897 -0.978264
vn -0.207108 0.000210736 -0.978318
vn -0.207424 -0 -0.978251
vn -6.36783e-24 -1 -6.12323e-17
vn -6.26664e-24 -1 -6.12323e-17
vn -5.30683e-24 -1 -6.12323e-17
vn -5.62737e-24 -1 -6.12323e-17
vn 0 -1 -6.12323e-17
vn -2.07845e-21 -1 -6.12394e-17

# Mesh 'defaultobject' with 28 faces
g defaultobject
usemtl DefaultMaterial
f  1//1 2//1 3//1
f  2//1 1//1 4//2
f  5//3 2//3 4//3
f  2//4 5//4 6//4
f  2//5 6//5 7//5
f  2//6 7//6 8//6
f  6//7 9//7 7//7
f  9//7 6//7 10//8
f  9//9 8//9 7//9
f  8//9 9//9 11//9
f  11//10 2//10 8//10
f  2//11 11//11 3//11
f  3//12 11//12 12//12
f  3//13 12//13 13//13
f  13//14 1//14 3//14
f  1//14 13//14 14//14
f  15//15 6//15 5//15
f  6//15 15//15 10//16
f  14//17 4//17 1//17
f  4//18 14//18 5//18
f  5//19 14//19 16//19
f  5//20 16//20 15//20
f  9//21 12//21 11//21
f  12//21 9//21 13//22
f  13//22 9//21 10//23
f  13//22 10//23 14//24
f  14//24 10//23 15//25
f  14//24 15//25 16//26

