# {"id":"ID_43419","idOriginal":"ID_43419","origin":[14.27608340208648,48.336444816759496],"elevation":351.63,"wof":[{"Id":102049853,"Name":"Linz","Placetype":"county","Offset":-1},{"Id":85681677,"Name":"Oberösterreich","Placetype":"region","Offset":-1},{"Id":85898425,"Name":"Harbach","Placetype":"neighbourhood","Offset":-1},{"Id":85632785,"Name":"Austria","Placetype":"country","Offset":-1}]}

# Attribution: City of Linz <http://geo.data.linz.gv.at/katalog/geodata/3d_geo_daten_lod2/>
# Longitude: 14.27608340208648
# Latitude: 48.336444816759496
# Elevation: 351.63

# File produced by Open Asset Import Library (http://www.assimp.sf.net)
# (assimp v3.1.0)


# 8 vertex positions
v  0 3.99 2.44317e-16
v  6.453 3.99 -3.249
v  3.309 3.99 -5.332
v  3.051 3.99 1.954
v  6.453 1.98944e-16 -3.249
v  3.309 3.26491e-16 -5.332
v  0 0 0
v  3.051 -1.19648e-16 1.954

# 0 UV coordinates

# 9 vertex normals
vn 0 1 0
vn 0.552311 0 -0.833638
vn -0.849677 0 -0.527303
vn -0.849677 3.2288e-17 -0.527303
vn -0.53932 -5.15638e-17 0.842101
vn -0.53932 0 0.842101
vn 0.836967 -0 0.547254
vn -3.35677e-24 -1 -6.12323e-17
vn -1.17529e-24 -1 -6.12323e-17

# Mesh 'defaultobject' with 12 faces
g defaultobject
usemtl DefaultMaterial
f  1//1 2//1 3//1
f  2//1 1//1 4//1
f  5//2 3//2 2//2
f  3//2 5//2 6//2
f  6//3 1//3 3//3
f  1//3 6//3 7//4
f  7//5 4//5 1//5
f  4//5 7//5 8//6
f  8//7 2//7 4//7
f  2//7 8//7 5//7
f  5//8 7//8 6//8
f  7//8 5//8 8//9

