# {"id":"ID_15473","idOriginal":"ID_15473","origin":[14.312073196419895,48.269595597015964],"elevation":258.451,"wof":[{"Id":102049853,"Name":"Linz","Placetype":"county","Offset":-1},{"Id":101748071,"Name":"Linz","Placetype":"locality","Offset":-1},{"Id":85632785,"Name":"Austria","Placetype":"country","Offset":-1},{"Id":85681677,"Name":"Oberösterreich","Placetype":"region","Offset":-1},{"Id":85898435,"Name":"Oed","Placetype":"neighbourhood","Offset":-1}]}

# Attribution: City of Linz <http://geo.data.linz.gv.at/katalog/geodata/3d_geo_daten_lod2/>
# Longitude: 14.312073196419895
# Latitude: 48.269595597015964
# Elevation: 258.451

# File produced by Open Asset Import Library (http://www.assimp.sf.net)
# (assimp v3.1.0)


# 39 vertex positions
v  9.45 7.459 9.387
v  15.563 5.3 13.892
v  17.045 5.308 13.423
v  7.724 5.26 16.373
v  6.993 6.139 14.011
v  17.007 5.266 12.901
v  17.161 5.265 13.386
v  14.502 5.287 5.031
v  12.901 5.885 5.553
v  5.976 7.459 -1.802
v  10.28 5.863 -3.1
v  5.413 6.14 8.91
v  2.492 5.288 7.591
v  2.903 5.441 7.468
v  1.343 5.427 2.568
v  0.347 5.229 1.241
v  0 5.242 3.2098e-16
v  0.795 5.229 2.684
v  0.752 5.214 2.693
v  3.056 5.261 9.663
v  1.343 -1.57245e-16 2.568
v  0.752 -1.64899e-16 2.693
v  0.795 -1.64348e-16 2.684
v  5.413 -5.4558e-16 8.91
v  3.056 -5.91688e-16 9.663
v  7.724 -1.00256e-15 16.373
v  15.563 -8.5064e-16 13.892
v  17.045 -8.21922e-16 13.423
v  17.161 -8.19656e-16 13.386
v  2.903 -4.57283e-16 7.468
v  2.492 -4.64815e-16 7.591
v  6.993 -8.57926e-16 14.011
v  0 0 0
v  0.347 -7.59893e-17 1.241
v  12.901 -3.40023e-16 5.553
v  14.502 -3.0806e-16 5.031
v  10.28 1.8982e-16 -3.1
v  5.976 1.10341e-16 -1.802
v  17.007 -7.89958e-16 12.901

# 0 UV coordinates

# 68 vertex normals
vn 0.0964157 0.942248 0.320738
vn 0.0966238 0.942312 0.320486
vn 0.097126 0.942227 0.320584
vn 0.317953 0.942922 -0.0990138
vn 0.319547 0.942375 -0.0990859
vn 0.319597 0.942345 -0.0992123
vn 0.319652 0.942334 -0.0991428
vn 0.319573 0.942353 -0.099222
vn 0.319536 0.942369 -0.0991836
vn -0.319609 0.942344 0.0991815
vn -0.3196 0.94236 0.0990608
vn -0.320158 0.941878 0.101806
vn -0.319503 0.942397 0.0990269
vn -0.319673 0.942315 0.0992533
vn -0.319632 0.942324 0.0993016
vn -0.319658 0.942321 0.0992517
vn -0.309833 0.945913 0.0961921
vn -0.319498 0.942381 0.0991928
vn -0.319691 0.942304 0.0992993
vn 0.20709 0 0.978322
vn 0.204943 -0.000235043 0.978774
vn 0.206928 0 0.978356
vn 1.66267e-20 1 6.13046e-17
vn 0.304321 0 0.952569
vn 0.304321 0 0.952569
vn 0.301742 -0 0.953389
vn 0.301742 0 0.953389
vn 0.301716 0 0.953398
vn 0.303685 -0.000604892 0.952772
vn 0.301716 5.27077e-05 0.953398
vn 0.303888 0 0.952708
vn -0.952875 0 0.303364
vn -0.952875 0 0.303364
vn -0.964893 0 0.262644
vn -0.964893 0 0.262644
vn -0.955227 0 0.295875
vn -0.95528 0.000157428 0.295702
vn -0.955227 -0.00011138 0.295875
vn -0.955297 0 0.295649
vn -0.963061 -1.64889e-17 0.269284
vn -0.963232 0.000156818 0.268672
vn -0.963153 0 0.268953
vn 0 -1 -6.1231e-17
vn -0.286707 0 -0.958018
vn -0.309986 0 -0.950741
vn -0.309986 0 -0.950741
vn -0.288735 0 -0.957409
vn -0.288706 1.83821e-05 -0.957418
vn -0.288735 -4.40309e-05 -0.957409
vn -0.2887 5.8625e-17 -0.95742
vn 0.953107 0 -0.302635
vn 0.952894 -6.78329e-05 -0.303304
vn 0.952906 0 -0.303265
vn 0 1 6.12166e-17
vn 0.957059 0 -0.289894
vn 0.957059 0 -0.289894
vn 4.85011e-23 -1 -6.12323e-17
vn 1.36845e-22 -1 -6.12324e-17
vn -7.94334e-23 -1 -6.12324e-17
vn -4.97023e-23 -1 -6.12323e-17
vn 2.34981e-23 -1 -6.12323e-17
vn 9.05233e-24 -1 -6.12323e-17
vn -1.05156e-22 -1 -6.12324e-17
vn -1.73358e-23 -1 -6.12323e-17
vn 1.93376e-23 -1 -6.12323e-17
vn 4.64839e-24 -1 -6.12323e-17
vn 7.17365e-24 -1 -6.12323e-17
vn 1.69347e-23 -1 -6.12323e-17

# Mesh 'defaultobject' with 74 faces
g defaultobject
usemtl DefaultMaterial
f  1//1 2//1 3//1
f  2//2 1//2 4//2
f  4//3 1//3 5//3
f  6//4 3//4 7//4
f  3//5 6//5 1//5
f  1//6 6//6 8//6
f  1//7 8//7 9//7
f  1//8 9//8 10//8
f  10//9 9//9 11//9
f  1//10 12//10 5//10
f  12//11 1//11 13//11
f  13//12 1//12 14//12
f  14//13 1//13 15//13
f  15//14 1//14 10//14
f  15//15 10//15 16//15
f  16//16 10//16 17//16
f  18//17 16//17 19//17
f  16//18 18//18 15//18
f  13//19 20//19 12//19
f  18//20 21//20 15//20
f  21//21 18//21 19//21
f  21//22 19//22 22//22
f  21//23 22//23 23//23
f  20//24 24//24 12//24
f  24//24 20//24 25//25
f  26//26 2//26 4//26
f  2//26 26//26 27//27
f  2//28 27//28 3//28
f  3//29 27//29 7//29
f  7//30 27//30 28//30
f  7//31 28//31 29//31
f  15//32 30//32 14//32
f  30//32 15//32 21//33
f  31//34 20//34 13//34
f  20//34 31//34 25//35
f  24//36 5//36 12//36
f  5//37 24//37 4//37
f  4//38 24//38 32//38
f  4//39 32//39 26//39
f  33//40 16//40 17//40
f  16//41 33//41 19//41
f  19//42 33//42 22//42
f  22//43 33//43 34//43
f  30//44 13//44 14//44
f  13//44 30//44 31//44
f  8//45 35//45 9//45
f  35//45 8//45 36//46
f  37//47 10//47 11//47
f  10//48 37//48 17//48
f  17//49 37//49 38//49
f  17//50 38//50 33//50
f  29//51 6//51 7//51
f  6//52 29//52 8//52
f  8//53 29//53 36//53
f  36//54 29//54 39//54
f  35//55 11//55 9//55
f  11//55 35//55 37//56
f  31//57 30//57 25//57
f  28//58 39//58 29//58
f  39//58 28//58 27//59
f  39//58 27//59 36//60
f  36//60 27//59 26//61
f  36//60 26//61 35//62
f  35//62 26//61 32//63
f  35//62 32//63 37//64
f  37//64 32//63 24//65
f  37//64 24//65 25//57
f  37//64 25//57 38//66
f  38//66 25//57 30//57
f  38//66 30//57 21//67
f  38//66 21//67 33//43
f  33//43 21//67 23//68
f  33//43 23//68 34//43
f  34//43 23//68 22//43

