# {"id":"ID_5871","idOriginal":"ID_5871","origin":[14.28803371558706,48.30253434304371],"elevation":263.052,"wof":[{"Id":85681677,"Name":"Oberösterreich","Placetype":"region","Offset":-1},{"Id":85898449,"Name":"Steeg","Placetype":"neighbourhood","Offset":-1},{"Id":85632785,"Name":"Austria","Placetype":"country","Offset":-1},{"Id":102049853,"Name":"Linz","Placetype":"county","Offset":-1},{"Id":101748071,"Name":"Linz","Placetype":"locality","Offset":-1}]}

# Attribution: City of Linz <http://geo.data.linz.gv.at/katalog/geodata/3d_geo_daten_lod2/>
# Longitude: 14.28803371558706
# Latitude: 48.30253434304371
# Elevation: 263.052

# File produced by Open Asset Import Library (http://www.assimp.sf.net)
# (assimp v3.1.0)


# 25 vertex positions
v  16.911 22.061 -1.904
v  19.449 18.543 -11.415
v  19.338 18.543 -11.601
v  26.658 18.543 0.535
v  19.315 18.522 -11.638
v  0 18.573 1.13727e-15
v  0.086 18.658 0.148
v  3.525 22.061 6.078
v  5.429 20.176 9.362
v  7.08 18.543 12.208
v  7.129 18.543 12.179
v  14.474 18.532 7.825
v  19.575 18.537 4.773
v  7.08 -7.47524e-16 12.208
v  26.658 -3.27593e-17 0.535
v  7.129 -7.45749e-16 12.179
v  14.474 -4.79143e-16 7.825
v  19.575 -2.92262e-16 4.773
v  19.449 6.98967e-16 -11.415
v  19.338 7.10356e-16 -11.601
v  19.315 7.12622e-16 -11.638
v  0 0 0
v  5.429 -5.73257e-16 9.362
v  0.086 -9.06239e-18 0.148
v  3.525 -3.7217e-16 6.078

# 0 UV coordinates

# 42 vertex normals
vn 0.383269 0.894869 -0.228726
vn 0.380761 0.89569 -0.229699
vn -0.211515 0.900615 -0.379676
vn -0.227743 0.895705 -0.381898
vn -0.227746 0.895638 -0.382053
vn -0.227742 0.895692 -0.381928
vn 0.227797 0.895639 0.38202
vn 0.227656 0.895729 0.381892
vn 0.225174 0.896959 0.380474
vn 0.22775 0.895685 0.38194
vn 0.227633 0.895722 0.381924
vn 0.227734 0.895715 0.38188
vn 0.509323 -0 0.860576
vn 0.509924 -2.14797e-06 0.860219
vn 0.513432 -0.00189615 0.858128
vn 0.513444 -0.00190757 0.858121
vn 0.512113 0 0.858918
vn 0 1 6.13438e-17
vn -8.54018e-22 1 6.12314e-17
vn 5.84328e-19 1 6.19388e-17
vn 0.856258 0 -0.516549
vn 0.858707 0.00359085 -0.512455
vn 0.851176 -0.00747972 -0.524827
vn 0.856257 -2.44677e-05 -0.516549
vn 0.858712 4.25483e-05 -0.512458
vn 0.849302 0 -0.527908
vn -0.516093 0 -0.856533
vn -0.516093 0 -0.856533
vn -0.865085 0.000114413 0.501625
vn -0.865255 0.0025411 0.501325
vn -0.86507 0 0.501652
vn -0.865006 -6.80968e-05 0.501762
vn -0.86507 2.85232e-05 0.501652
vn -0.864989 0 0.501791
vn -2.58191e-19 -1 -6.11914e-17
vn 1.43255e-19 -1 -6.12771e-17
vn 7.44454e-23 -1 -6.12322e-17
vn 1.68219e-25 -1 -6.12323e-17
vn 2.26691e-25 -1 -6.12323e-17
vn -2.51823e-24 -1 -6.12323e-17
vn 8.74981e-25 -1 -6.12323e-17
vn 0 -1 -6.12324e-17

# Mesh 'defaultobject' with 45 faces
g defaultobject
usemtl DefaultMaterial
f  1//1 2//1 3//1
f  2//2 1//2 4//2
f  5//3 1//3 3//3
f  1//4 5//4 6//4
f  1//5 6//5 7//5
f  1//6 7//6 8//6
f  9//7 1//7 8//7
f  1//8 9//8 10//8
f  1//9 10//9 11//9
f  1//10 11//10 12//10
f  1//11 12//11 13//11
f  1//12 13//12 4//12
f  14//13 11//13 10//13
f  11//14 14//14 12//14
f  12//15 14//15 13//15
f  13//16 14//16 4//16
f  4//17 14//17 15//17
f  15//18 14//18 16//18
f  15//18 16//18 17//19
f  15//18 17//19 18//20
f  15//21 2//21 4//21
f  2//22 15//22 3//22
f  3//23 15//23 5//23
f  5//24 15//24 19//24
f  5//25 19//25 20//25
f  5//26 20//26 21//26
f  5//27 22//27 6//27
f  22//27 5//27 21//28
f  7//29 9//29 8//29
f  9//30 7//30 6//30
f  9//31 6//31 22//31
f  9//32 22//32 10//32
f  10//33 22//33 23//33
f  10//34 23//34 14//34
f  23//35 22//35 24//35
f  23//35 24//35 25//36
f  19//37 22//35 21//37
f  22//35 19//37 15//38
f  22//35 15//38 18//39
f  22//35 18//39 17//40
f  22//35 17//40 24//35
f  24//35 17//40 25//36
f  25//36 17//40 16//41
f  25//36 16//41 23//35
f  23//35 16//41 14//42

