# {"id":"ID_52615","idOriginal":"ID_52615","origin":[14.270656796085266,48.33134872925892],"elevation":367.1,"wof":[{"Id":85632785,"Name":"Austria","Placetype":"country","Offset":-1},{"Id":85681677,"Name":"Oberösterreich","Placetype":"region","Offset":-1},{"Id":85898453,"Name":"Urfahr","Placetype":"neighbourhood","Offset":-1},{"Id":102049853,"Name":"Linz","Placetype":"county","Offset":-1},{"Id":101748071,"Name":"Linz","Placetype":"locality","Offset":-1}]}

# Attribution: City of Linz <http://geo.data.linz.gv.at/katalog/geodata/3d_geo_daten_lod2/>
# Longitude: 14.270656796085266
# Latitude: 48.33134872925892
# Elevation: 367.1

# File produced by Open Asset Import Library (http://www.assimp.sf.net)
# (assimp v3.1.0)


# 8 vertex positions
v  0 0.717 4.39036e-17
v  5.186 0.717 -1.657
v  4.136 0.717 -3.187
v  1.132 0.717 1.742
v  4.136 1.95147e-16 -3.187
v  0 0 0
v  1.132 -1.06667e-16 1.742
v  5.186 1.01462e-16 -1.657

# 0 UV coordinates

# 9 vertex normals
vn 0 1 0
vn -0.610368 0 -0.792118
vn -0.610368 4.85033e-17 -0.792118
vn -0.83851 -3.33647e-17 0.544887
vn -0.83851 0 0.544887
vn 0.642487 -0 0.766297
vn 0.824513 0 -0.565842
vn -4.10408e-24 -1 -6.12323e-17
vn -1.21313e-24 -1 -6.12323e-17

# Mesh 'defaultobject' with 12 faces
g defaultobject
usemtl DefaultMaterial
f  1//1 2//1 3//1
f  2//1 1//1 4//1
f  5//2 1//2 3//2
f  1//2 5//2 6//3
f  6//4 4//4 1//4
f  4//4 6//4 7//5
f  7//6 2//6 4//6
f  2//6 7//6 8//6
f  8//7 3//7 2//7
f  3//7 8//7 5//7
f  8//8 6//8 5//8
f  6//8 8//8 7//9

