# {"id":"_7515","idOriginal":"_7515","origin":[14.290069592495062,48.29701215322378],"elevation":261.855}
# Longitude: 14.290069592495062
# Latitude: 48.29701215322378
# Elevation: 261.855

# File produced by Open Asset Import Library (http://www.assimp.sf.net)
# (assimp v3.1.0)

mtllib _7515.obj.mtl

# 50 vertex positions
v  6.681 23.512 0.965
v  8.992 23.512 -19.864
v  1.256 20.217 0.24
v  0 19.449 1.19091e-15
v  0.342 19.415 -3.593
v  1.99 20.14 -7.526
v  0.879 19.469 -7.619
v  2.347 20.12 -11.056
v  1.663 19.699 -11.219
v  1.849 19.708 -12.76
v  2.178 19.725 -15.472
v  1.756 19.468 -15.537
v  2.119 19.441 -19.222
v  2.194 19.435 -19.986
v  2.059 19.353 -20.011
v  1.873 19.239 -20.046
v  2.128 19.353 -20.634
v  1.882 19.204 -20.662
v  15.756 19.413 -19.104
v  13.211 19.571 1.456
v  13.46 19.419 1.498
v  15.276 19.704 -19.158
v  13.164 19.577 1.796
v  13.184 19.565 1.797
v  12.619 19.905 1.759
v  2.178 9.47387e-16 -15.472
v  1.756 9.51367e-16 -15.537
v  2.347 6.76985e-16 -11.056
v  1.663 6.86966e-16 -11.219
v  1.256 -1.46958e-17 0.24
v  0 0 0
v  12.619 -1.07708e-16 1.759
v  6.681 -5.90892e-17 0.965
v  13.164 -1.09973e-16 1.796
v  13.184 -1.10035e-16 1.797
v  13.211 -8.91543e-17 1.456
v  13.46 -9.1726e-17 1.498
v  2.194 1.22379e-15 -19.986
v  1.873 1.22746e-15 -20.046
v  2.059 1.22532e-15 -20.011
v  1.849 7.81325e-16 -12.76
v  1.99 4.60835e-16 -7.526
v  0.879 4.66529e-16 -7.619
v  0.342 2.20008e-16 -3.593
v  1.882 1.26518e-15 -20.662
v  2.119 1.17701e-15 -19.222
v  15.756 1.16978e-15 -19.104
v  2.128 1.26347e-15 -20.634
v  15.276 1.17309e-15 -19.158
v  8.992 1.21632e-15 -19.864

# 0 UV coordinates

# 86 vertex normals
vn -0.512717 0.856671 -0.0568865
vn -0.512877 0.85657 -0.0569648
vn -0.512794 0.856623 -0.056916
vn -0.513091 0.856431 -0.0571224
vn -0.512655 0.856708 -0.0568889
vn -0.512504 0.856812 -0.0566853
vn -0.513324 0.856265 -0.0575148
vn -0.512778 0.856634 -0.0568893
vn -0.512736 0.856663 -0.0568314
vn -0.51286 0.856571 -0.0571032
vn -0.512726 0.856672 -0.0567843
vn -0.512737 0.856647 -0.0570624
vn -0.513413 0.857242 -0.0392831
vn -0.512233 0.856247 -0.0667718
vn -0.512764 0.856683 -0.0562797
vn -0.512568 0.856808 -0.0561707
vn 0.513171 0.856396 0.0569411
vn 0.512736 0.85666 0.0568853
vn 0.512743 0.856655 0.0568894
vn 0.198933 0.486169 0.850921
vn 0.511619 0.857412 0.055593
vn 0.512077 0.857134 0.0556612
vn 0.512693 0.856652 0.0573961
vn -0.152232 0 0.988345
vn -0.152232 0 0.988345
vn -0.231813 0 0.97276
vn -0.231813 0 0.97276
vn -0.187687 0 0.982229
vn -0.132499 6.07735e-05 0.991183
vn -0.132501 0 0.991183
vn -2.75681e-21 -1 -6.12233e-17
vn -0.067734 0 0.997703
vn -0.067734 0 0.997703
vn -0.0499329 0 0.998753
vn -0.0499329 0 0.998753
vn -0.166326 0 0.986071
vn -0.166326 0 0.986071
vn -0.182087 0 0.983283
vn -0.184914 -2.04026e-05 0.982755
vn -0.183732 0 0.982976
vn -6.98324e-20 1 6.16054e-17
vn -0.992722 0 -0.12043
vn -0.992794 -8.35262e-05 -0.119832
vn -0.992748 -0 -0.120213
vn 6.21075e-20 1 6.12393e-17
vn -0.994925 0 -0.10062
vn -0.994925 0 -0.10062
vn -0.991221 0 -0.132212
vn -0.9955 0 -0.0947568
vn -0.9955 0 -0.0947568
vn -0.999893 0 -0.0146087
vn -0.999893 0 -0.0146087
vn -0.995183 0 -0.0980329
vn -0.995216 6.40131e-05 -0.0976985
vn -0.995183 -1.32951e-05 -0.0980329
vn -0.995216 0 -0.097698
vn 0.0834166 0 -0.996515
vn 0.111563 -0.000138695 -0.993757
vn 0.11157 -0.000379131 -0.993757
vn 0.111568 0 -0.993757
vn 0.112635 0.000761105 -0.993636
vn 0.111568 -1.9753e-05 -0.993757
vn 0.11309 0 -0.993585
vn 9.55292e-20 1 6.03745e-17
vn -3.62818e-21 1 6.12654e-17
vn 0.99688 0 0.0789331
vn 0.99688 0 0.0789331
vn 0.993847 -0 0.11076
vn 0 -1 -6.12323e-17
vn -2.31607e-23 -1 -6.12322e-17
vn -1.28014e-23 -1 -6.12322e-17
vn 5.8467e-23 -1 -6.1235e-17
vn -8.47176e-23 -1 -6.12283e-17
vn -1.09701e-23 -1 -6.12324e-17
vn -8.96603e-24 -1 -6.12323e-17
vn -3.27804e-24 -1 -6.12323e-17
vn -4.05539e-23 -1 -6.12325e-17
vn -1.54302e-24 -1 -6.12323e-17
vn 1.67349e-22 -1 -6.1232e-17
vn -1.04568e-23 -1 -6.12324e-17
vn 2.66746e-23 -1 -6.12323e-17
vn 3.28595e-24 -1 -6.12323e-17
vn 2.95464e-22 -1 -6.12331e-17
vn -2.20742e-24 -1 -6.12323e-17
vn -9.6089e-24 -1 -6.12323e-17
vn -5.96353e-22 -1 -6.12234e-17

# Mesh 'defaultobject' with 96 faces
g defaultobject
usemtl DefaultMaterial
f  1//1 2//1 3//1
f  4//2 3//2 2//2
f  5//3 4//3 2//3
f  6//4 5//4 2//4
f  7//5 5//5 6//5
f  8//6 6//6 2//6
f  9//7 8//7 2//7
f  10//8 9//8 2//8
f  11//9 10//9 2//9
f  12//10 11//10 2//10
f  13//11 12//11 2//11
f  14//12 13//12 2//12
f  15//13 14//13 2//13
f  16//14 15//14 2//14
f  17//15 16//15 2//15
f  18//16 16//16 17//16
f  19//17 20//17 21//17
f  20//18 19//18 1//18
f  1//18 19//18 2//19
f  2//20 19//20 22//20
f  20//21 23//21 24//21
f  23//22 20//22 25//22
f  25//23 20//23 1//23
f  12//24 26//24 11//24
f  26//24 12//24 27//25
f  9//26 28//26 8//26
f  28//26 9//26 29//27
f  4//28 30//28 3//28
f  30//28 4//28 31//28
f  3//29 25//29 1//29
f  25//30 3//30 30//30
f  25//30 30//30 32//30
f  32//31 30//31 33//31
f  32//32 23//32 25//32
f  23//32 32//32 34//33
f  34//34 24//34 23//34
f  24//34 34//34 35//35
f  36//36 21//36 20//36
f  21//36 36//36 37//37
f  15//38 38//38 14//38
f  38//39 15//39 16//39
f  38//40 16//40 39//40
f  38//41 39//41 40//41
f  26//42 10//42 11//42
f  10//43 26//43 9//43
f  9//44 26//44 29//44
f  29//45 26//45 41//45
f  8//46 42//46 6//46
f  42//46 8//46 28//47
f  43//48 5//48 7//48
f  5//48 43//48 44//48
f  5//49 31//49 4//49
f  31//49 5//49 44//50
f  18//51 39//51 16//51
f  39//51 18//51 45//52
f  13//53 27//53 12//53
f  27//54 13//54 14//54
f  27//55 14//55 46//55
f  46//56 14//56 38//56
f  42//57 7//57 6//57
f  7//57 42//57 43//57
f  22//58 17//58 2//58
f  17//59 22//59 19//59
f  17//60 19//60 47//60
f  17//61 47//61 18//61
f  18//62 47//62 48//62
f  18//63 48//63 45//63
f  48//64 47//64 49//64
f  48//64 49//64 50//65
f  24//66 36//66 20//66
f  36//66 24//66 35//67
f  37//68 19//68 21//68
f  19//68 37//68 47//68
f  44//69 43//69 42//69
f  48//70 39//70 45//70
f  39//70 48//70 50//71
f  39//70 50//71 40//72
f  40//72 50//71 38//73
f  38//73 50//71 46//74
f  46//74 50//71 27//75
f  27//75 50//71 49//76
f  27//75 49//76 26//77
f  26//77 49//76 41//78
f  41//78 49//76 47//79
f  41//78 47//79 29//80
f  29//80 47//79 28//81
f  28//81 47//79 37//82
f  28//81 37//82 42//69
f  42//69 37//82 44//69
f  44//69 37//82 36//83
f  44//69 36//83 31//84
f  31//84 36//83 30//31
f  30//31 36//83 33//31
f  36//83 32//31 33//31
f  32//31 36//83 35//85
f  32//31 35//85 34//86

