# {"id":"ID_22544","idOriginal":"ID_22544","origin":[14.26776721674011,48.31348718366606],"elevation":327.552}
# Longitude: 14.26776721674011
# Latitude: 48.31348718366606
# Elevation: 327.552

# File produced by Open Asset Import Library (http://www.assimp.sf.net)
# (assimp v3.1.0)

mtllib ID_22544.obj.mtl

# 49 vertex positions
v  6.447 8.106 1.573
v  8.205 7.018 -5.001
v  4.51 7.118 -6.758
v  15.271 6.825 -1.64
v  14.79 7.018 -0.589
v  14.676 7.063 -0.34
v  3.969 7.018 -7.015
v  3.932 7.011 -7.033
v  3.513 7.018 -6.225
v  3.072 7.025 -5.375
v  2.177 7.035 -3.706
v  1.727 7.038 -2.891
v  1.68 7.038 -2.812
v  0.833 7.035 -1.379
v  5.189 8.106 3.751
v  0.277 7.028 -0.5
v  0.765 7.186 0.522
v  0 7.03 4.30463e-16
v  0.655 7.186 0.714
v  9.554 7.22 6.674
v  9.671 7.217 6.506
v  10.493 7.051 7.05
v  12.232 7.034 4.232
v  13.134 7.036 2.647
v  14.351 7.051 0.369
v  3.932 4.30647e-16 -7.033
v  3.072 3.29124e-16 -5.375
v  2.177 2.26927e-16 -3.706
v  3.513 3.81171e-16 -6.225
v  1.727 1.77023e-16 -2.891
v  0.833 8.44394e-17 -1.379
v  1.68 1.72185e-16 -2.812
v  0.277 3.06162e-17 -0.5
v  0 0 0
v  0.765 -3.19633e-17 0.522
v  0.655 -4.37199e-17 0.714
v  5.189 -2.29683e-16 3.751
v  9.554 -4.08665e-16 6.674
v  9.671 -3.98378e-16 6.506
v  10.493 -4.31688e-16 7.05
v  12.232 -2.59135e-16 4.232
v  13.134 -1.62082e-16 2.647
v  14.351 -2.25947e-17 0.369
v  14.79 3.60658e-17 -0.589
v  15.271 1.00421e-16 -1.64
v  14.676 2.0819e-17 -0.34
v  8.205 3.06223e-16 -5.001
v  4.51 4.13808e-16 -6.758
v  3.969 4.29545e-16 -7.015

# 0 UV coordinates

# 80 vertex normals
vn 0.0925191 0.986039 -0.138449
vn 0.0927554 0.986026 -0.138383
vn 0.0926499 0.985996 -0.138661
vn 0.0935334 0.986361 -0.135436
vn -0.142474 0.986242 -0.0838357
vn -0.146274 0.985783 -0.0826809
vn -0.1442 0.986035 -0.0833192
vn -0.144623 0.985987 -0.0831535
vn -0.144326 0.986018 -0.0833024
vn -0.144314 0.986019 -0.0833124
vn -0.142785 0.986101 -0.0849489
vn -0.144333 0.986021 -0.0832462
vn -0.144285 0.986021 -0.083338
vn -0.144235 0.986024 -0.0833814
vn -0.143963 0.986037 -0.0836986
vn -0.143961 0.986037 -0.0836994
vn -0.144588 0.986018 -0.0828369
vn 0.144319 0.986014 0.0833579
vn 0.144664 0.985982 0.0831425
vn 0.143668 0.986071 0.083809
vn 0.14447 0.986005 0.0832045
vn 0.144367 0.986001 0.0834267
vn 0.145089 0.985862 0.0838116
vn 0.134665 0.987781 0.0784478
vn -0.887738 0 -0.460349
vn -0.887644 2.65353e-05 -0.460531
vn -0.881269 0.00365585 -0.472601
vn -0.887684 -0.00369638 -0.460439
vn -0.881284 -0 -0.472588
vn 0 -1 -6.12127e-17
vn -0.875421 0 -0.483361
vn -0.859407 0 -0.511292
vn -0.860867 -3.73777e-05 -0.508831
vn -0.86079 -0 -0.508959
vn -6.04532e-20 1 6.1224e-17
vn -0.845123 0 -0.534572
vn -0.845123 -0 -0.534572
vn -0.874734 0 -0.484603
vn -0.874734 0 -0.484603
vn -0.867686 0 -0.497112
vn -0.563638 0 0.826022
vn -0.556517 0 0.830836
vn -0.556423 -7.63651e-05 0.830899
vn -0.556517 9.19288e-05 0.830836
vn -0.556412 0 0.830906
vn -0.551888 0 0.833919
vn 0.820607 -0 0.571493
vn 0.820607 0 0.571493
vn 0.851004 -0 0.525159
vn 0.869119 0 0.494603
vn 0.869119 0 0.494603
vn 0.88202 0 0.471211
vn 0.88202 0 0.471211
vn 0.909045 -0 0.416699
vn 0.909234 -5.01323e-05 0.416286
vn 0.909292 -7.10986e-05 0.416159
vn 0.909095 8.2195e-05 0.416589
vn 0.909297 0 0.416148
vn 1.67581e-20 1 6.12382e-17
vn 0.429542 0 -0.903047
vn 0.429431 0 -0.9031
vn 0.429091 0 -0.903261
vn 0.437349 0.000782 -0.899291
vn 0.42963 0 -0.903005
vn -4.80675e-20 -1 -6.11312e-17
vn -5.8542e-24 -1 -6.12323e-17
vn -1.28411e-23 -1 -6.12323e-17
vn -1.03116e-23 -1 -6.12323e-17
vn 2.87892e-23 -1 -6.12323e-17
vn -1.54544e-23 -1 -6.12323e-17
vn 9.77956e-23 -1 -6.12323e-17
vn 5.31855e-22 -1 -6.12325e-17
vn -9.00749e-24 -1 -6.12323e-17
vn 0 -1 -6.12323e-17
vn 8.24023e-24 -1 -6.12324e-17
vn 3.70873e-23 -1 -6.12323e-17
vn -7.04152e-23 -1 -6.12324e-17
vn 4.50765e-22 -1 -6.12322e-17
vn 8.8839e-24 -1 -6.12323e-17
vn 0 -1 -6.12322e-17

# Mesh 'defaultobject' with 93 faces
g defaultobject
usemtl DefaultMaterial
f  1//1 2//1 3//1
f  2//2 1//2 4//2
f  4//3 1//3 5//3
f  5//4 1//4 6//4
f  7//5 1//5 3//5
f  1//6 7//6 8//6
f  1//7 8//7 9//7
f  1//8 9//8 10//8
f  1//9 10//9 11//9
f  1//10 11//10 12//10
f  1//11 12//11 13//11
f  1//12 13//12 14//12
f  1//13 14//13 15//13
f  15//14 14//14 16//14
f  15//15 16//15 17//15
f  17//15 16//15 18//16
f  15//17 17//17 19//17
f  20//18 1//18 15//18
f  1//19 20//19 21//19
f  1//20 21//20 22//20
f  1//21 22//21 23//21
f  1//22 23//22 6//22
f  6//23 23//23 24//23
f  6//24 24//24 25//24
f  26//25 9//25 8//25
f  9//26 26//26 10//26
f  10//27 26//27 11//27
f  11//28 26//28 27//28
f  11//29 27//29 28//29
f  27//30 26//30 29//30
f  11//31 30//31 12//31
f  30//31 11//31 28//31
f  30//32 13//32 12//32
f  13//33 30//33 14//33
f  14//34 30//34 31//34
f  31//35 30//35 32//35
f  31//36 16//36 14//36
f  16//36 31//36 33//37
f  16//38 34//38 18//38
f  34//38 16//38 33//39
f  35//40 19//40 17//40
f  19//40 35//40 36//40
f  18//41 35//41 17//41
f  35//41 18//41 34//41
f  36//42 15//42 19//42
f  15//43 36//43 20//43
f  20//44 36//44 37//44
f  20//45 37//45 38//45
f  39//46 22//46 21//46
f  22//46 39//46 40//46
f  38//47 21//47 20//47
f  21//47 38//47 39//48
f  40//49 23//49 22//49
f  23//49 40//49 41//49
f  23//50 42//50 24//50
f  42//50 23//50 41//51
f  24//52 43//52 25//52
f  43//52 24//52 42//53
f  43//54 6//54 25//54
f  6//55 43//55 5//55
f  5//56 43//56 4//56
f  4//57 43//57 44//57
f  4//58 44//58 45//58
f  44//59 43//59 46//59
f  45//60 2//60 4//60
f  2//60 45//60 47//60
f  2//61 47//61 3//61
f  3//61 47//61 48//61
f  3//62 48//62 7//62
f  7//63 48//63 8//63
f  8//64 48//64 26//64
f  26//30 48//65 49//65
f  44//66 47//66 45//66
f  47//66 44//66 43//67
f  47//66 43//67 42//68
f  47//66 42//68 41//69
f  47//66 41//69 40//70
f  47//66 40//70 39//71
f  47//66 39//71 38//72
f  47//66 38//72 37//73
f  47//66 37//73 48//65
f  48//65 37//73 35//74
f  35//74 37//73 36//75
f  48//65 35//74 49//65
f  49//65 35//74 26//30
f  26//30 35//74 29//30
f  29//30 35//74 27//30
f  27//30 35//74 28//76
f  28//76 35//74 30//77
f  30//77 35//74 32//78
f  35//74 31//74 32//78
f  31//74 35//74 34//79
f  31//74 34//79 33//80

