# {"id":"_57711","idOriginal":"_57711","origin":[14.285941787253229,48.29906284108963],"elevation":263.476,"wof":[{"Id":102049853,"Name":"Linz","Placetype":"county","Offset":-1},{"Id":85632785,"Name":"Austria","Placetype":"country","Offset":-1},{"Id":101748071,"Name":"Linz","Placetype":"locality","Offset":-1},{"Id":85681677,"Name":"Oberösterreich","Placetype":"region","Offset":-1},{"Id":85898459,"Name":"Wegscheid","Placetype":"neighbourhood","Offset":-1}]}

# Attribution: City of Linz <http://geo.data.linz.gv.at/katalog/geodata/3d_geo_daten_lod2/>
# Longitude: 14.285941787253229
# Latitude: 48.29906284108963
# Elevation: 263.476

# File produced by Open Asset Import Library (http://www.assimp.sf.net)
# (assimp v3.1.0)


# 8 vertex positions
v  2.511 17.562 -0.499
v  0.427 17.562 1.932
v  2.921 17.562 1.391
v  0 17.562 1.07536e-15
v  2.921 -8.51742e-17 1.391
v  2.511 3.05549e-17 -0.499
v  0 0 0
v  0.427 -1.18301e-16 1.932

# 0 UV coordinates

# 9 vertex normals
vn 0 1 -0
vn 0.97727 0 -0.212
vn -0.194914 0 -0.98082
vn -0.194914 6.00579e-17 -0.98082
vn -0.976436 -1.32143e-17 0.215807
vn -0.976436 0 0.215807
vn 0.21199 -0 0.977272
vn 4.02238e-24 -1 -6.12323e-17
vn -1.30668e-24 -1 -6.12323e-17

# Mesh 'defaultobject' with 12 faces
g defaultobject
usemtl DefaultMaterial
f  1//1 2//1 3//1
f  2//1 1//1 4//1
f  5//2 1//2 3//2
f  1//2 5//2 6//2
f  6//3 4//3 1//3
f  4//3 6//3 7//4
f  7//5 2//5 4//5
f  2//5 7//5 8//6
f  8//7 3//7 2//7
f  3//7 8//7 5//7
f  8//8 6//8 5//8
f  6//8 8//8 7//9

