# {"id":"ID_5357","idOriginal":"ID_5357","origin":[14.299875377153535,48.27781447680878],"elevation":278.443}
# Longitude: 14.299875377153535
# Latitude: 48.27781447680878
# Elevation: 278.443

# File produced by Open Asset Import Library (http://www.assimp.sf.net)
# (assimp v3.1.0)

mtllib ID_5357.obj.mtl

# 78 vertex positions
v  0.721 13.812 1.694
v  1.414 13.812 -0.602
v  0 13.812 8.45741e-16
v  1.283 13.812 3.014
v  1.717 13.812 2.829
v  2.996 13.812 5.834
v  4.362 13.812 -4.485
v  3.976 13.812 -14.733
v  0.611 13.812 -13.301
v  4.401 13.812 -4.393
v  4.309 13.812 -4.354
v  0.506 13.812 -2.736
v  7.778 13.812 3.8
v  11.145 13.812 -17.783
v  7.897 13.812 3.749
v  8.889 13.812 6.082
v  10.451 13.812 9.752
v  15.749 13.812 -5.873
v  16.133 13.812 -4.97
v  20.91 13.812 5.302
v  11.294 13.812 -17.434
v  11.346 13.812 -17.311
v  12.76 13.812 -13.988
v  14.368 13.812 -9.998
v  13.162 13.812 -14.159
v  14.82 13.812 -8.935
v  15.086 13.812 -8.31
v  17.564 13.812 -2.47
v  16.483 13.812 -5.01
v  16.444 13.812 -5.102
v  16.778 13.812 -4.317
v  19.348 13.812 1.632
v  19.309 13.812 1.539
v  18.089 13.812 -2.694
v  19.801 13.812 1.329
v  17.079 13.812 -9.157
v  17.554 13.812 -8.04
v  18.058 13.812 -6.855
v  14.846 13.812 -10.201
v  19.801 -8.13778e-17 1.329
v  18.089 1.6496e-16 -2.694
v  17.564 1.51244e-16 -2.47
v  16.778 2.6434e-16 -4.317
v  16.483 3.06774e-16 -5.01
v  16.444 3.12407e-16 -5.102
v  16.133 3.04325e-16 -4.97
v  15.749 3.59618e-16 -5.873
v  18.058 4.19748e-16 -6.855
v  17.079 5.60705e-16 -9.157
v  17.554 4.92308e-16 -8.04
v  15.086 5.08841e-16 -8.31
v  14.368 6.12201e-16 -9.998
v  14.82 5.47111e-16 -8.935
v  14.846 6.24631e-16 -10.201
v  13.162 8.66989e-16 -14.159
v  12.76 8.56518e-16 -13.988
v  11.145 1.08889e-15 -17.783
v  11.346 1.05999e-15 -17.311
v  11.294 1.06752e-15 -17.434
v  20.91 -3.24654e-16 5.302
v  19.309 -9.42366e-17 1.539
v  19.348 -9.99312e-17 1.632
v  0.611 8.14451e-16 -13.301
v  3.976 9.02136e-16 -14.733
v  4.401 2.68994e-16 -4.393
v  0.506 1.67532e-16 -2.736
v  4.309 2.66606e-16 -4.354
v  1.414 3.68619e-17 -0.602
v  0 0 0
v  1.283 -1.84554e-16 3.014
v  1.717 -1.73226e-16 2.829
v  2.996 -3.57229e-16 5.834
v  7.897 -2.2956e-16 3.749
v  7.778 -2.32683e-16 3.8
v  10.451 -5.97138e-16 9.752
v  4.362 2.74627e-16 -4.485
v  0.721 -1.03728e-16 1.694
v  8.889 -3.72415e-16 6.082

# 0 UV coordinates

# 86 vertex normals
vn 0 1 0
vn 0.920148 0 -0.391572
vn 0.920147 0 -0.391573
vn 0.920104 -1.60888e-05 -0.391675
vn 0.920692 0.0002848 -0.390289
vn 0.920147 -4.05467e-06 -0.391573
vn 0.920104 -1.08917e-05 -0.391675
vn 0.920692 0 -0.390289
vn 0.920248 0 -0.391335
vn 0.920226 0 -0.391387
vn 0.920249 5.48938e-06 -0.391333
vn 0.920237 0 -0.391361
vn 4.31434e-19 -1 -6.14793e-17
vn 0.920132 0 -0.391609
vn 0.920261 1.6229e-05 -0.391305
vn 0.920213 0 -0.391418
vn 3.57807e-19 -1 -6.13894e-17
vn 0.920176 0 -0.391505
vn 0.920159 0 -0.391545
vn 0.921069 0.000609781 -0.389398
vn 0.91969 -0.000346427 -0.392644
vn 0.920145 0 -0.391577
vn 3.61678e-19 1 6.10784e-17
vn -1.71252e-19 1 6.1306e-17
vn 0.920128 0 -0.391618
vn 0.922195 0.00153461 -0.386723
vn 0.920179 0 -0.391498
vn 1.00614e-20 -1 -6.12365e-17
vn -0.392438 0 -0.919779
vn -0.390701 0 -0.920518
vn -0.391131 0 -0.920335
vn -0.391433 0 -0.920207
vn -0.391486 0 -0.920184
vn -0.391575 -5.45649e-05 -0.920146
vn -0.391514 -0 -0.920172
vn 3.8416e-20 1 6.1312e-17
vn -0.390293 0 -0.920691
vn -0.391494 -9.44032e-06 -0.920181
vn -0.391466 -0 -0.920193
vn 2.45625e-20 1 6.1357e-17
vn -0.391719 0 -0.920085
vn -0.391719 5.63389e-17 -0.920085
vn 0.391368 -0 0.920234
vn 0.390896 -0 0.920435
vn 0.392128 -0 0.919911
vn 0.39141 -0 0.920217
vn 0.393918 -0.00102642 0.919145
vn 0.391471 0 0.920191
vn 1.08158e-20 1 6.12579e-17
vn 0.391508 -0 0.920175
vn 0.392565 -0 0.919724
vn -0.920173 0 0.391512
vn -0.92069 0.000918536 0.390293
vn -0.920178 0 0.391499
vn 1.30495e-20 -1 -6.12373e-17
vn -0.920168 0 0.391524
vn -0.920125 -2.398e-17 0.391624
vn -0.92008 -1.55422e-05 0.391731
vn -0.920105 0 0.391671
vn 0 1 6.12255e-17
vn -0.920124 0 0.391627
vn -0.920263 0 0.391299
vn -0.920128 -6.36357e-05 0.391618
vn -0.92018 0 0.391494
vn 0 1 6.12344e-17
vn 9.77683e-24 -1 -6.12323e-17
vn 0 -1 -6.12323e-17
vn -7.79835e-25 -1 -6.12323e-17
vn 0 -1 -6.12323e-17
vn 0 -1 -6.12323e-17
vn 6.92175e-23 -1 -6.12324e-17
vn 5.83865e-25 -1 -6.12323e-17
vn 1.84806e-23 -1 -6.12324e-17
vn 1.46469e-23 -1 -6.12323e-17
vn 0 -1 -6.12323e-17
vn 7.7038e-23 -1 -6.12323e-17
vn -1.13173e-23 -1 -6.12323e-17
vn 6.20105e-22 -1 -6.12324e-17
vn -2.51823e-23 -1 -6.12323e-17
vn -4.13106e-19 -1 -6.10364e-17
vn 1.73566e-19 -1 -6.13065e-17
vn -1.14453e-22 -1 -6.12323e-17
vn 1.6591e-22 -1 -6.12324e-17
vn 3.25213e-23 -1 -6.12323e-17
vn 2.52675e-23 -1 -6.12324e-17
vn 2.12134e-23 -1 -6.12324e-17

# Mesh 'defaultobject' with 152 faces
g defaultobject
usemtl DefaultMaterial
f  1//1 2//1 3//1
f  2//1 1//1 4//1
f  2//1 4//1 5//1
f  2//1 5//1 6//1
f  7//1 8//1 9//1
f  8//1 7//1 10//1
f  2//1 11//1 12//1
f  11//1 2//1 6//1
f  11//1 6//1 13//1
f  11//1 13//1 10//1
f  10//1 13//1 8//1
f  8//1 13//1 14//1
f  14//1 13//1 15//1
f  14//1 15//1 16//1
f  14//1 16//1 17//1
f  14//1 17//1 18//1
f  18//1 17//1 19//1
f  19//1 17//1 20//1
f  14//1 18//1 21//1
f  21//1 18//1 22//1
f  22//1 18//1 23//1
f  23//1 18//1 24//1
f  23//1 24//1 25//1
f  24//1 18//1 26//1
f  26//1 18//1 27//1
f  19//1 20//1 28//1
f  19//1 28//1 29//1
f  19//1 29//1 30//1
f  29//1 28//1 31//1
f  28//1 20//1 32//1
f  28//1 32//1 33//1
f  28//1 33//1 34//1
f  35//1 34//1 33//1
f  18//1 36//1 27//1
f  36//1 18//1 37//1
f  37//1 18//1 38//1
f  39//1 25//1 24//1
f  40//2 34//2 35//2
f  34//2 40//2 41//2
f  42//3 31//3 28//3
f  31//4 42//4 29//4
f  29//5 42//5 30//5
f  30//6 42//3 43//6
f  30//7 43//7 44//7
f  30//8 44//8 45//8
f  46//9 18//9 19//9
f  18//9 46//9 47//9
f  48//10 37//10 38//10
f  37//11 48//11 36//11
f  36//12 48//12 49//12
f  49//13 48//13 50//13
f  51//14 26//14 27//14
f  26//15 51//15 24//15
f  24//16 51//16 52//16
f  52//17 51//17 53//17
f  54//18 25//18 39//18
f  25//18 54//18 55//18
f  56//19 22//19 23//19
f  22//20 56//20 21//20
f  21//21 56//21 14//21
f  14//22 56//22 57//22
f  57//23 56//23 58//23
f  57//23 58//23 59//24
f  60//25 32//25 20//25
f  32//26 60//26 33//26
f  33//27 60//27 61//27
f  61//28 60//28 62//28
f  41//29 28//29 34//29
f  28//29 41//29 42//29
f  45//30 19//30 30//30
f  19//30 45//30 46//30
f  49//31 27//31 36//31
f  27//31 49//31 51//31
f  55//32 23//32 25//32
f  23//32 55//32 56//32
f  57//33 8//33 14//33
f  8//34 57//34 9//34
f  9//35 57//35 63//35
f  63//36 57//23 64//36
f  65//37 11//37 10//37
f  11//38 65//38 12//38
f  12//39 65//39 66//39
f  66//40 65//40 67//40
f  68//41 3//41 2//41
f  3//41 68//41 69//42
f  47//43 38//43 18//43
f  38//43 47//43 48//43
f  52//44 39//44 24//44
f  39//44 52//44 54//44
f  70//45 5//45 4//45
f  5//45 70//45 71//45
f  72//46 13//46 6//46
f  13//47 72//47 15//47
f  15//48 72//48 73//48
f  73//49 72//49 74//49
f  75//50 20//50 17//50
f  20//50 75//50 60//50
f  61//51 35//51 33//51
f  35//51 61//51 40//51
f  63//52 7//52 9//52
f  7//53 63//53 10//53
f  10//54 63//54 65//54
f  65//55 63//55 76//55
f  66//56 2//56 12//56
f  2//56 66//56 68//56
f  69//57 1//57 3//57
f  1//58 69//58 4//58
f  4//59 69//59 70//59
f  70//60 69//60 77//60
f  71//61 6//61 5//61
f  6//61 71//61 72//61
f  73//62 16//62 15//62
f  16//63 73//63 17//63
f  17//64 73//64 75//64
f  75//65 73//49 78//65
f  77//66 71//66 70//66
f  71//66 77//66 69//67
f  71//66 74//68 72//68
f  74//68 71//66 69//67
f  74//68 69//67 68//67
f  74//68 68//67 66//69
f  74//68 66//69 67//70
f  74//68 67//70 73//71
f  78//72 60//28 75//72
f  60//28 78//72 73//71
f  60//28 73//71 67//70
f  60//28 67//70 65//55
f  60//28 65//55 76//55
f  60//28 76//55 63//55
f  60//28 63//55 64//73
f  60//28 64//73 46//67
f  46//67 64//73 47//74
f  47//74 64//73 57//75
f  60//28 46//67 62//28
f  62//28 46//67 61//28
f  61//28 46//67 42//76
f  61//28 42//76 40//77
f  47//74 57//75 52//17
f  47//74 52//17 53//17
f  47//74 53//17 51//17
f  52//17 57//75 56//78
f  52//17 56//78 54//79
f  56//78 57//75 58//80
f  58//80 57//75 59//81
f  55//82 54//79 56//78
f  51//17 48//13 47//74
f  48//13 51//17 50//13
f  50//13 51//17 49//13
f  46//67 43//83 42//76
f  43//83 46//67 44//84
f  44//84 46//67 45//85
f  41//86 40//77 42//76

