# {"id":"ID_56360","idOriginal":"ID_56360","origin":[14.301696973775833,48.26838656631821],"elevation":262.589}
# Longitude: 14.301696973775833
# Latitude: 48.26838656631821
# Elevation: 262.589

# File produced by Open Asset Import Library (http://www.assimp.sf.net)
# (assimp v3.1.0)

mtllib ID_56360.obj.mtl

# 10 vertex positions
v  0.713 1.653 1.171
v  2.212 1.653 -1.088
v  0 1.653 1.01217e-16
v  3.236 1.653 1.55
v  1.297 1.653 2.374
v  3.236 -9.49101e-17 1.55
v  2.212 6.66208e-17 -1.088
v  0 0 0
v  0.713 -7.17031e-17 1.171
v  1.297 -1.45366e-16 2.374

# 0 UV coordinates

# 11 vertex normals
vn 0 1 0
vn 0.93223 0 -0.361866
vn -0.441363 0 -0.897329
vn -0.441363 5.49455e-17 -0.897329
vn -0.854128 -3.18447e-17 0.520063
vn -0.854128 0 0.520063
vn -0.899601 0 0.436714
vn 0.391111 -0 0.920344
vn -4.44209e-24 -1 -6.12323e-17
vn 1.69539e-23 -1 -6.12323e-17
vn -3.93194e-24 -1 -6.12323e-17

# Mesh 'defaultobject' with 16 faces
g defaultobject
usemtl DefaultMaterial
f  1//1 2//1 3//1
f  2//1 1//1 4//1
f  4//1 1//1 5//1
f  6//2 2//2 4//2
f  2//2 6//2 7//2
f  7//3 3//3 2//3
f  3//3 7//3 8//4
f  8//5 1//5 3//5
f  1//5 8//5 9//6
f  9//7 5//7 1//7
f  5//7 9//7 10//7
f  10//8 4//8 5//8
f  4//8 10//8 6//8
f  10//9 7//9 6//9
f  7//9 10//9 9//10
f  7//9 9//10 8//11

