# {"id":"ID_6592","idOriginal":"ID_6592","origin":[14.302301347881778,48.33094583996746],"elevation":259.969}
# Longitude: 14.302301347881778
# Latitude: 48.33094583996746
# Elevation: 259.969

# File produced by Open Asset Import Library (http://www.assimp.sf.net)
# (assimp v3.1.0)

mtllib ID_6592.obj.mtl

# 28 vertex positions
v  0 13.018 7.97123e-16
v  10.344 13.775 21.485
v  6.335 13.775 -1.281
v  2.887 13.02 16.311
v  3.147 13.02 17.783
v  3.987 13.02 22.529
v  11.864 13.114 -2.399
v  11.021 13.694 21.373
v  16.594 13.033 20.458
v  12.661 13.019 -2.56
v  12.67 13.019 -2.514
v  16.675 13.019 20.23
v  16.711 13.019 20.438
v  16.707 13.019 20.413
v  0 0 0
v  2.887 -9.98761e-16 16.311
v  3.147 -1.08889e-15 17.783
v  3.987 -1.3795e-15 22.529
v  10.344 -1.31558e-15 21.485
v  16.594 -1.25269e-15 20.458
v  16.711 -1.25147e-15 20.438
v  11.021 -1.30872e-15 21.373
v  16.707 -1.24994e-15 20.413
v  12.67 1.53938e-16 -2.514
v  16.675 -1.23873e-15 20.23
v  12.661 1.56755e-16 -2.56
v  11.864 1.46896e-16 -2.399
v  6.335 7.84386e-17 -1.281

# 0 UV coordinates

# 49 vertex normals
vn -0.114602 0.993207 0.020181
vn -0.114542 0.993214 0.0201518
vn -0.114604 0.993205 0.0202426
vn -0.114627 0.993201 0.020288
vn 0.114656 0.9932 -0.0201904
vn 0.115489 0.993105 -0.0201348
vn 0.114491 0.993219 -0.0201729
vn 0.114323 0.993239 -0.0201381
vn 0.0245349 0.999687 -0.00480022
vn 0.114773 0.993186 -0.0202105
vn 0.115418 0.993116 -0.0199769
vn 0 1 0
vn -0.984695 -1.06721e-17 0.174288
vn -0.984695 0 0.174288
vn -0.984757 0 0.173938
vn -0.984696 -4.01643e-05 0.174282
vn -0.984757 0.000129511 0.173938
vn -0.984696 0 0.174282
vn 0.162057 -0 0.986781
vn 0.163158 -0.000521925 0.9866
vn 0.162024 7.66075e-05 0.986787
vn 0.167834 -0.00570011 0.985799
vn 0.162057 0.000103076 0.986781
vn 0.162146 5.87341e-05 0.986767
vn 0.168499 0 0.985702
vn 4.05742e-20 -1 -6.09789e-17
vn 0.987442 0 -0.157982
vn 0.985052 -2.81464e-05 -0.172257
vn 0.984848 -4.73263e-05 -0.173422
vn 0.987057 0.0279504 -0.157915
vn 0.984849 0 -0.173413
vn 6.67803e-19 1 6.11875e-17
vn 0.981393 0 -0.192008
vn -0.198008 0 -0.9802
vn -0.198197 -1.19384e-05 -0.980162
vn -0.198197 -1.21549e-05 -0.980162
vn -0.198008 0.000179474 -0.9802
vn -0.198197 6.00176e-17 -0.980162
vn -1.10141e-19 1 6.07979e-17
vn 1.02151e-21 -1 -6.12331e-17
vn 1.33692e-21 -1 -6.12323e-17
vn 8.45375e-22 -1 -6.12325e-17
vn 2.25675e-23 -1 -6.12323e-17
vn -4.23652e-23 -1 -6.12324e-17
vn -4.26945e-24 -1 -6.12323e-17
vn 1.64128e-24 -1 -6.12323e-17
vn -5.43946e-23 -1 -6.12323e-17
vn 0 -1 -6.12323e-17
vn 0 -1 -6.12323e-17

# Mesh 'defaultobject' with 52 faces
g defaultobject
usemtl DefaultMaterial
f  1//1 2//1 3//1
f  2//2 1//2 4//2
f  2//3 4//3 5//3
f  2//4 5//4 6//4
f  2//5 7//5 3//5
f  7//6 2//6 8//6
f  7//7 8//7 9//7
f  7//8 9//8 10//8
f  10//9 9//9 11//9
f  11//10 9//10 12//10
f  12//11 9//11 13//11
f  12//12 13//12 14//12
f  15//13 4//13 1//13
f  4//13 15//13 16//14
f  4//15 16//15 5//15
f  5//16 16//16 6//16
f  6//17 16//17 17//17
f  6//18 17//18 18//18
f  18//19 2//19 6//19
f  2//20 18//20 8//20
f  8//21 18//21 9//21
f  9//22 18//22 13//22
f  13//23 18//23 19//23
f  13//24 19//24 20//24
f  13//25 20//25 21//25
f  20//26 19//26 22//26
f  21//27 14//27 13//27
f  14//28 21//28 12//28
f  12//29 21//29 11//29
f  11//30 21//30 23//30
f  11//31 23//31 24//31
f  24//32 23//32 25//32
f  24//33 10//33 11//33
f  10//33 24//33 26//33
f  26//34 7//34 10//34
f  7//35 26//35 3//35
f  3//35 26//35 1//36
f  1//37 26//37 27//37
f  1//38 27//38 15//38
f  15//39 27//39 28//39
f  20//26 23//40 21//40
f  23//40 20//26 25//41
f  25//41 20//26 24//42
f  24//42 20//26 22//26
f  24//42 22//26 19//26
f  24//42 19//26 18//43
f  24//42 18//43 26//44
f  26//44 18//43 27//45
f  27//45 18//43 28//46
f  28//46 18//43 17//47
f  28//46 17//47 16//48
f  28//46 16//48 15//49

