# {"id":"ID_32462","idOriginal":"ID_32462","origin":[14.292768755444643,48.25506834232361],"elevation":264.726,"wof":[{"Id":85898447,"Name":"Scharlinz","Placetype":"neighbourhood","Offset":-1},{"Id":85681677,"Name":"Oberösterreich","Placetype":"region","Offset":-1},{"Id":102049853,"Name":"Linz","Placetype":"county","Offset":-1},{"Id":101748071,"Name":"Linz","Placetype":"locality","Offset":-1},{"Id":85632785,"Name":"Austria","Placetype":"country","Offset":-1}]}

# Attribution: City of Linz <http://geo.data.linz.gv.at/katalog/geodata/3d_geo_daten_lod2/>
# Longitude: 14.292768755444643
# Latitude: 48.25506834232361
# Elevation: 264.726

# File produced by Open Asset Import Library (http://www.assimp.sf.net)
# (assimp v3.1.0)


# 10 vertex positions
v  5.896 2.694 -4.22
v  4.333 2.694 6.21
v  10.274 2.694 2.084
v  4.245 2.694 6.084
v  0 2.694 1.6496e-16
v  4.333 -3.80253e-16 6.21
v  10.274 -1.27608e-16 2.084
v  5.896 2.584e-16 -4.22
v  0 0 0
v  4.245 -3.72538e-16 6.084

# 0 UV coordinates

# 12 vertex normals
vn 0 1 -0
vn 0.570424 -0 0.82135
vn 0.821356 0 -0.570415
vn -0.582021 0 -0.813174
vn -0.582021 4.97925e-17 -0.813174
vn -0.819842 0 0.57259
vn -0.820105 -2.6227e-05 0.572213
vn -0.819841 0.00126598 0.57259
vn -0.820105 0 0.572213
vn 0 -1 -6.12323e-17
vn 0 -1 -6.12324e-17
vn 3.93711e-24 -1 -6.12323e-17

# Mesh 'defaultobject' with 16 faces
g defaultobject
usemtl DefaultMaterial
f  1//1 2//1 3//1
f  2//1 1//1 4//1
f  4//1 1//1 5//1
f  6//2 3//2 2//2
f  3//2 6//2 7//2
f  7//3 1//3 3//3
f  1//3 7//3 8//3
f  8//4 5//4 1//4
f  5//4 8//4 9//5
f  4//6 6//6 2//6
f  6//7 4//7 5//7
f  6//8 5//8 10//8
f  10//9 5//9 9//9
f  6//10 8//10 7//10
f  8//10 6//10 10//11
f  8//10 10//11 9//12

