# {"id":"ID_24106","idOriginal":"ID_24106","origin":[14.339044005354996,48.27999759522262],"elevation":253.016,"wof":[{"Id":102049853,"Name":"Linz","Placetype":"county","Offset":-1},{"Id":101748071,"Name":"Linz","Placetype":"locality","Offset":-1},{"Id":85632785,"Name":"Austria","Placetype":"country","Offset":-1},{"Id":85681677,"Name":"Oberösterreich","Placetype":"region","Offset":-1},{"Id":85898451,"Name":"Ufer","Placetype":"neighbourhood","Offset":-1}]}

# Attribution: City of Linz <http://geo.data.linz.gv.at/katalog/geodata/3d_geo_daten_lod2/>
# Longitude: 14.339044005354996
# Latitude: 48.27999759522262
# Elevation: 253.016

# File produced by Open Asset Import Library (http://www.assimp.sf.net)
# (assimp v3.1.0)


# 14 vertex positions
v  0.317 14.462 1.594
v  10.304 14.462 -2.193
v  0 14.462 8.85542e-16
v  12.366 14.462 7.448
v  2.05 14.462 9.564
v  4.346 14.462 9.102
v  10.843 14.462 7.796
v  12.366 -4.56058e-16 7.448
v  10.304 1.34283e-16 -2.193
v  0 0 0
v  0.317 -9.76044e-17 1.594
v  2.05 -5.85626e-16 9.564
v  10.843 -4.77367e-16 7.796
v  4.346 -5.57337e-16 9.102

# 0 UV coordinates

# 14 vertex normals
vn 0 1 0
vn 0.977884 0 -0.209148
vn -0.208168 0 -0.978093
vn -0.208168 5.98909e-17 -0.978093
vn -0.980793 -1.19434e-17 0.195051
vn -0.980793 0 0.195051
vn -0.977166 0 0.212475
vn 0.222755 -0 0.974874
vn 0.197265 -0 0.98035
vn 0.197074 3.16833e-05 0.980389
vn 0.197124 0 0.980379
vn -4.3586e-21 -1 -6.12819e-17
vn 0 -1 -6.12323e-17
vn 3.0512e-24 -1 -6.12323e-17

# Mesh 'defaultobject' with 24 faces
g defaultobject
usemtl DefaultMaterial
f  1//1 2//1 3//1
f  2//1 1//1 4//1
f  4//1 1//1 5//1
f  4//1 5//1 6//1
f  4//1 6//1 7//1
f  8//2 2//2 4//2
f  2//2 8//2 9//2
f  9//3 3//3 2//3
f  3//3 9//3 10//4
f  10//5 1//5 3//5
f  1//5 10//5 11//6
f  11//7 5//7 1//7
f  5//7 11//7 12//7
f  13//8 4//8 7//8
f  4//8 13//8 8//8
f  12//9 6//9 5//9
f  6//10 12//10 7//10
f  7//11 12//11 13//11
f  13//12 12//12 14//12
f  8//13 10//13 9//13
f  10//13 8//13 11//14
f  11//14 8//13 12//12
f  12//12 8//13 14//12
f  14//12 8//13 13//12

