# {"id":"_22487","idOriginal":"_22487","origin":[14.290348874074956,48.29904816617713],"elevation":262.005,"wof":[{"Id":102049853,"Name":"Linz","Placetype":"county","Offset":-1},{"Id":85632785,"Name":"Austria","Placetype":"country","Offset":-1},{"Id":101748071,"Name":"Linz","Placetype":"locality","Offset":-1},{"Id":85681677,"Name":"Oberösterreich","Placetype":"region","Offset":-1},{"Id":85898449,"Name":"Steeg","Placetype":"neighbourhood","Offset":-1}]}

# Attribution: City of Linz <http://geo.data.linz.gv.at/katalog/geodata/3d_geo_daten_lod2/>
# Longitude: 14.290348874074956
# Latitude: 48.29904816617713
# Elevation: 262.005

# File produced by Open Asset Import Library (http://www.assimp.sf.net)
# (assimp v3.1.0)


# 26 vertex positions
v  0 11.482 7.0307e-16
v  8.647 7.464 5.367
v  7.849 7.49 -0.836
v  9.601 7.49 13.74
v  1.155 11.459 9.23
v  9.603 7.49 13.759
v  9.142 7.724 13.789
v  7.815 8.395 13.877
v  1.339 11.391 9.636
v  1.909 11.394 14.415
v  0.814 11.668 9.846
v  1.489 11.566 13.781
v  1.476 11.613 14.454
v  0.814 -6.02894e-16 9.846
v  1.489 -8.43843e-16 13.781
v  1.476 -8.85052e-16 14.454
v  0 0 0
v  1.155 -5.65174e-16 9.23
v  7.815 -8.49721e-16 13.877
v  1.909 -8.82664e-16 14.415
v  9.603 -8.42496e-16 13.759
v  9.142 -8.44333e-16 13.789
v  8.647 -3.28634e-16 5.367
v  9.601 -8.41332e-16 13.74
v  7.849 5.11902e-17 -0.836
v  1.339 -5.90035e-16 9.636

# 0 UV coordinates

# 44 vertex normals
vn 0.448109 0.892352 -0.0539077
vn 0.448068 0.892378 -0.0538228
vn 0.448099 0.892361 -0.0538492
vn 0.445227 0.89419 -0.0468625
vn 0.449009 0.891768 -0.0560384
vn 0.447789 0.892552 -0.0532593
vn 0.447936 0.892462 -0.0535295
vn 0.448183 0.892308 -0.0540158
vn 0.44895 0.891917 -0.0541071
vn 0.446444 0.893215 -0.0534287
vn 0.44682 0.893009 -0.0537336
vn -0.985604 0 0.169068
vn -0.999813 0 -0.0193127
vn -0.999813 0 -0.0193127
vn -0.992261 -7.60304e-18 0.124167
vn -0.992261 0 0.124167
vn 0.0897074 -0 0.995968
vn 0.0906991 -3.79953e-05 0.995878
vn 0.0906492 0 0.995883
vn 1.95978e-20 1 6.14487e-17
vn 0.0661699 -0 0.997808
vn 0.0650369 0.0001955 0.997883
vn 0.0658523 0 0.997829
vn 6.10071e-21 -1 -6.11402e-17
vn 0.994506 0 -0.104677
vn 0.993572 -2.1883e-05 -0.113205
vn 0.993574 0 -0.113186
vn 6.1296e-19 1 6.1181e-17
vn 0.991826 0 -0.127596
vn 0.991826 0 -0.127596
vn -0.105911 0 -0.994376
vn -0.105911 0 -0.994376
vn -0.371391 0 -0.928477
vn -0.371391 0 -0.928477
vn -0.910827 0 0.412788
vn -0.910827 0 0.412788
vn 0 -1 -6.12323e-17
vn 0 -1 -6.12323e-17
vn -1.59419e-24 -1 -6.12323e-17
vn 4.07347e-23 -1 -6.12324e-17
vn 1.44611e-23 -1 -6.12324e-17
vn -6.62813e-24 -1 -6.12323e-17
vn -1.77088e-24 -1 -6.12324e-17
vn -2.10419e-22 -1 -6.12322e-17

# Mesh 'defaultobject' with 48 faces
g defaultobject
usemtl DefaultMaterial
f  1//1 2//1 3//1
f  2//2 1//2 4//2
f  4//3 1//3 5//3
f  4//4 5//4 6//4
f  6//5 5//5 7//5
f  7//6 5//6 8//6
f  8//7 5//7 9//7
f  8//8 9//8 10//8
f  10//9 9//9 11//9
f  10//10 11//10 12//10
f  10//11 12//11 13//11
f  14//12 12//12 11//12
f  12//12 14//12 15//12
f  12//13 16//13 13//13
f  16//13 12//13 15//14
f  17//15 5//15 1//15
f  5//15 17//15 18//16
f  16//17 10//17 13//17
f  10//18 16//18 8//18
f  8//19 16//19 19//19
f  19//20 16//20 20//20
f  19//21 7//21 8//21
f  7//22 19//22 6//22
f  6//23 19//23 21//23
f  21//24 19//24 22//24
f  21//25 4//25 6//25
f  4//26 21//26 2//26
f  2//27 21//27 23//27
f  23//28 21//28 24//28
f  2//29 25//29 3//29
f  25//29 2//29 23//30
f  3//31 17//31 1//31
f  17//31 3//31 25//32
f  9//33 14//33 11//33
f  14//33 9//33 26//34
f  18//35 9//35 5//35
f  9//35 18//35 26//36
f  23//37 17//37 25//37
f  17//37 23//37 18//38
f  18//38 23//37 24//39
f  18//38 24//39 26//40
f  26//40 24//39 14//41
f  14//41 24//39 15//42
f  15//42 24//39 21//24
f  15//42 21//24 22//24
f  15//42 22//24 19//24
f  15//42 19//24 20//43
f  15//42 20//43 16//44

