# File produced by Open Asset Import Library (http://www.assimp.sf.net)
# (assimp v3.1.0)

mtllib ID_36693.obj.mtl

# 19 vertex positions
v  3.432 4.088 4.258
v  1.379 3.306 7.249
v  1.4 3.312 7.245
v  6.444 3.306 6.307
v  5.759 3.291 6.487
v  6.453 3.291 6.355
v  2.109 3.312 7.111
v  5.061 3.306 -0.963
v  2.531 4.088 -0.482
v  0 3.306 2.02434e-16
v  2.109 -4.35423e-16 7.111
v  1.379 -4.43873e-16 7.249
v  1.4 -4.43628e-16 7.245
v  5.759 -3.97214e-16 6.487
v  6.453 -3.89132e-16 6.355
v  5.061 5.89667e-17 -0.963
v  6.444 -3.86192e-16 6.307
v  2.531 2.9514e-17 -0.482
v  0 0 0

# 0 UV coordinates

# 30 vertex normals
vn -0.261238 0.962559 0.0723489
vn 0.0548623 0.955924 0.288443
vn 0.0541046 0.956811 0.285633
vn 0.054304 0.956856 0.285442
vn 0.0539177 0.956926 0.285281
vn 0.285363 0.956881 -0.0542856
vn 0.285441 0.956859 -0.0542579
vn -0.285322 0.956896 0.0542353
vn -0.285385 0.956874 0.0542897
vn 0.185708 0.00511212 0.982592
vn 0.185751 0 0.982597
vn 0.185751 0 0.982597
vn 2.61581e-19 -1 -5.98459e-17
vn 0.168514 -0 0.985699
vn 0.168514 0 0.985699
vn 0.186852 -0 0.982388
vn 0.982346 -0.00860373 -0.186875
vn 0.982386 0 -0.186865
vn 0.982386 0 -0.186865
vn 0 1 6.12785e-17
vn -0.186773 0 -0.982403
vn -0.187028 -0.0001633 -0.982355
vn -0.186773 0.000240631 -0.982403
vn -0.187076 6.01513e-17 -0.982345
vn -0.982382 -1.14432e-17 0.186882
vn -0.982382 0 0.186882
vn -1.19882e-23 -1 -6.12325e-17
vn 2.78422e-23 -1 -6.12323e-17
vn -1.37977e-24 -1 -6.12323e-17
vn 0 -1 -6.12323e-17

# Mesh 'defaultobject' with 34 faces
g defaultobject
usemtl DefaultMaterial
f  1//1 2//1 3//1
f  4//2 5//2 6//2
f  5//3 4//3 1//3
f  5//4 1//4 7//4
f  7//5 1//5 3//5
f  8//6 1//6 4//6
f  1//7 8//7 9//7
f  10//8 1//8 9//8
f  1//9 10//9 2//9
f  2//10 7//10 3//10
f  7//11 2//11 11//11
f  11//11 2//11 12//12
f  11//13 12//13 13//13
f  11//14 5//14 7//14
f  5//14 11//14 14//15
f  14//16 6//16 5//16
f  6//16 14//16 15//16
f  6//17 8//17 4//17
f  8//18 6//18 15//18
f  8//18 15//18 16//19
f  16//20 15//20 17//20
f  16//21 9//21 8//21
f  9//22 16//22 10//22
f  10//23 16//23 18//23
f  10//24 18//24 19//24
f  19//25 2//25 10//25
f  2//25 19//25 12//26
f  14//27 17//27 15//27
f  17//27 14//27 16//28
f  16//28 14//27 18//29
f  18//29 14//27 11//13
f  18//29 11//13 19//30
f  19//30 11//13 13//13
f  19//30 13//13 12//13

