# File produced by Open Asset Import Library (http://www.assimp.sf.net)
# (assimp v3.1.0)

mtllib ID_37743.obj.mtl

# 12 vertex positions
v  4.854 2.829 -0.923
v  3.768 3.609 6.587
v  6.195 2.829 6.126
v  2.427 3.609 -0.462
v  0 2.829 1.73226e-16
v  1.341 2.829 7.049
v  0 0 0
v  2.427 2.82893e-17 -0.462
v  4.854 5.65174e-17 -0.923
v  1.341 -4.31627e-16 7.049
v  3.768 -4.03337e-16 6.587
v  6.195 -3.75109e-16 6.126

# 0 UV coordinates

# 18 vertex normals
vn 0.295783 0.953596 -0.0562697
vn -0.295762 0.953603 0.0562658
vn -0.295762 0.953603 0.0562658
vn -0.187001 0 -0.98236
vn -0.186679 -0.000223846 -0.982421
vn -0.187 0.000347261 -0.98236
vn -0.18661 0 -0.982434
vn -0.982381 -1.14436e-17 0.186888
vn -0.982381 0 0.186888
vn 0.187 -0 0.98236
vn 0.186679 0.000223824 0.982421
vn 0.187 -0.000347227 0.98236
vn 0.18661 0 0.982434
vn 0.982381 0 -0.186888
vn -1.49315e-24 -1 -6.12323e-17
vn -2.3889e-23 -1 -6.12323e-17
vn 1.49336e-24 -1 -6.12323e-17
vn 2.98653e-24 -1 -6.12323e-17

# Mesh 'defaultobject' with 20 faces
g defaultobject
usemtl DefaultMaterial
f  1//1 2//1 3//1
f  2//1 1//1 4//1
f  5//2 2//2 4//2
f  2//2 5//2 6//3
f  4//4 7//4 5//4
f  7//5 4//5 1//5
f  7//6 1//6 8//6
f  8//7 1//7 9//7
f  7//8 6//8 5//8
f  6//8 7//8 10//9
f  10//10 2//10 6//10
f  2//11 10//11 3//11
f  3//12 10//12 11//12
f  3//13 11//13 12//13
f  12//14 1//14 3//14
f  1//14 12//14 9//14
f  8//15 10//15 7//15
f  10//15 8//15 9//16
f  10//15 9//16 11//17
f  11//17 9//16 12//18

