# File produced by Open Asset Import Library (http://www.assimp.sf.net)
# (assimp v3.1.0)

mtllib ID_56044.obj.mtl

# 8 vertex positions
v  3.125 1.994 -0.462
v  0.266 1.994 2.021
v  3.398 1.994 1.608
v  0 1.994 1.22097e-16
v  0.266 -1.23751e-16 2.021
v  3.398 -9.84616e-17 1.608
v  3.125 2.82893e-17 -0.462
v  0 0 0

# 0 UV coordinates

# 9 vertex normals
vn 0 1 -0
vn 0.130733 -0 0.991418
vn 0.991415 0 -0.130752
vn -0.14625 0 -0.989248
vn -0.14625 6.05739e-17 -0.989248
vn -0.991449 -7.99037e-18 0.130493
vn -0.991449 0 0.130493
vn 4.11045e-24 -1 -6.12323e-17
vn -2.00684e-24 -1 -6.12323e-17

# Mesh 'defaultobject' with 12 faces
g defaultobject
usemtl DefaultMaterial
f  1//1 2//1 3//1
f  2//1 1//1 4//1
f  5//2 3//2 2//2
f  3//2 5//2 6//2
f  6//3 1//3 3//3
f  1//3 6//3 7//3
f  7//4 4//4 1//4
f  4//4 7//4 8//5
f  8//6 2//6 4//6
f  2//6 8//6 5//7
f  8//8 6//8 5//8
f  6//8 8//8 7//9

