# File produced by Open Asset Import Library (http://www.assimp.sf.net)
# (assimp v3.1.0)

mtllib ID_5149.obj.mtl

# 48 vertex positions
v  7.985 10.885 25.216
v  9.55 11.446 24.714
v  6.939 10.879 21.963
v  4.45 10.869 14.189
v  6.044 11.442 13.677
v  3.43 10.864 11.014
v  1.037 10.887 3.226
v  2.603 11.449 2.723
v  0 10.882 6.6633e-16
v  6.848 12.954 1.542
v  1.658 11.477 -0.533
v  1.424 11.476 -1.26
v  9.854 11.448 25.66
v  12.721 12.954 20.108
v  8.541 11.454 21.448
v  5.095 11.462 10.479
v  20.357 10.86 24.091
v  10.379 10.86 27.296
v  20.342 10.877 24.045
v  17.057 10.893 13.819
v  14.05 10.86 3.994
v  10.803 10.877 -6.114
v  10.788 10.86 -6.159
v  9.016 10.86 -5.59
v  0.873 10.86 -2.974
v  6.044 -8.37475e-16 13.677
v  4.45 -8.68826e-16 14.189
v  9.55 -1.5133e-15 24.714
v  7.985 -1.54403e-15 25.216
v  10.379 -1.6714e-15 27.296
v  20.357 -1.47515e-15 24.091
v  2.603 -1.66736e-16 2.723
v  1.037 -1.97536e-16 3.226
v  8.541 -1.31331e-15 21.448
v  6.939 -1.34485e-15 21.963
v  9.854 -1.57122e-15 25.66
v  1.658 3.26368e-17 -0.533
v  0.873 1.82105e-16 -2.974
v  1.424 7.71528e-17 -1.26
v  0 0 0
v  5.095 -6.41654e-16 10.479
v  3.43 -6.74413e-16 11.014
v  10.788 3.7713e-16 -6.159
v  9.016 3.42289e-16 -5.59
v  17.057 -8.4617e-16 13.819
v  20.342 -1.47233e-15 24.045
v  14.05 -2.44562e-16 3.994
v  10.803 3.74375e-16 -6.114

# 0 UV coordinates

# 80 vertex normals
vn -0.308036 0.946386 0.097303
vn -0.308726 0.946121 0.0976912
vn -0.308244 0.946285 0.0976186
vn -0.308305 0.946259 0.0976827
vn -0.308265 0.946296 0.0974537
vn -0.308442 0.946184 0.0979765
vn -0.308746 0.946163 0.0972165
vn -0.30829 0.946276 0.0975673
vn -0.314171 0.946074 0.0789926
vn -0.308285 0.946274 0.0975977
vn -0.308191 0.946316 0.0974903
vn -0.308484 0.946224 0.0974594
vn -0.308521 0.946211 0.0974703
vn -0.30836 0.946261 0.0974899
vn 0.0990202 0.94613 0.308276
vn 0.0989564 0.946295 0.307786
vn 0.0925958 0.943403 0.31846
vn 0.308292 0.946277 -0.0975551
vn 0.308322 0.946269 -0.0975318
vn 0.308339 0.946262 -0.0975473
vn 0.308311 0.946281 -0.0974474
vn -0.117942 0.941301 -0.316294
vn -0.0988636 0.946273 -0.307885
vn -0.0989143 0.946264 -0.307897
vn -0.0985176 0.946151 -0.30837
vn 0.305816 0 0.952091
vn 0.305816 0 0.952091
vn 0.305437 0 0.952212
vn 0.305818 -0 0.95209
vn 0.305812 0 0.952092
vn 0.305812 0 0.952092
vn -0.952058 0 0.305918
vn -0.952058 0 0.305918
vn -0.951995 0 0.306113
vn -0.952049 0 0.305944
vn -0.95217 3.42933e-05 0.305568
vn -0.952128 0 0.305699
vn -3.81127e-20 -1 -6.12376e-17
vn -0.951905 -0.00106476 0.306392
vn -0.951984 0 0.306148
vn -0.951984 0 0.306148
vn 1.32627e-20 1 6.12274e-17
vn -0.952022 0 0.306028
vn -0.952064 0 0.305898
vn -0.952064 0 0.305898
vn -0.952075 0 0.305863
vn -0.952075 0 0.305864
vn -0.306047 0 -0.952016
vn -0.306047 -0 -0.952016
vn -0.305731 0 -0.952118
vn -0.305862 -2.35635e-05 -0.952076
vn -0.305838 -0 -0.952084
vn 0 1 6.1222e-17
vn -0.306046 0 -0.952017
vn -0.306046 5.82942e-17 -0.952017
vn -0.305917 0 -0.952058
vn 0.952011 0.0126204 -0.305804
vn 0.952075 0 -0.305865
vn -1.84422e-19 -1 -6.1136e-17
vn 0.956218 0 -0.292656
vn 0.951995 -0.0130896 -0.305832
vn 0.956131 0.0134834 -0.292629
vn 0.952083 0 -0.305839
vn 0.948687 0 -0.316216
vn 0.948687 0 -0.316216
vn 5.85657e-23 -1 -6.12322e-17
vn 5.35706e-24 -1 -6.12323e-17
vn -1.16081e-24 -1 -6.12323e-17
vn -2.82404e-24 -1 -6.12323e-17
vn 0 -1 -6.12323e-17
vn 0 -1 -6.12323e-17
vn -1.90008e-24 -1 -6.12323e-17
vn -1.23668e-24 -1 -6.12323e-17
vn 2.26838e-23 -1 -6.12324e-17
vn 3.6565e-24 -1 -6.12323e-17
vn 4.81396e-24 -1 -6.12323e-17
vn -6.46367e-25 -1 -6.12323e-17
vn 1.8853e-23 -1 -6.12324e-17
vn 3.20016e-23 -1 -6.12324e-17
vn -1.1873e-24 -1 -6.12323e-17

# Mesh 'defaultobject' with 92 faces
g defaultobject
usemtl DefaultMaterial
f  1//1 2//1 3//1
f  4//2 5//2 6//2
f  7//3 8//3 9//3
f  10//4 9//4 8//4
f  11//5 9//5 10//5
f  12//6 11//6 10//6
f  13//7 14//7 2//7
f  3//8 2//8 14//8
f  15//9 3//9 14//9
f  5//10 15//10 14//10
f  10//11 5//11 14//11
f  16//12 5//12 10//12
f  6//13 5//13 16//13
f  8//14 16//14 10//14
f  17//15 13//15 18//15
f  13//16 17//16 14//16
f  14//17 17//17 19//17
f  20//18 14//18 19//18
f  14//19 20//19 10//19
f  10//20 20//20 21//20
f  10//21 21//21 22//21
f  23//22 10//22 22//22
f  10//23 23//23 24//23
f  10//24 24//24 25//24
f  10//25 25//25 12//25
f  4//26 26//26 5//26
f  26//26 4//26 27//27
f  1//28 28//28 2//28
f  28//28 1//28 29//28
f  30//29 17//29 18//29
f  17//29 30//29 31//29
f  7//30 32//30 8//30
f  32//30 7//30 33//31
f  5//32 34//32 15//32
f  34//32 5//32 26//33
f  3//34 29//34 1//34
f  29//34 3//34 35//34
f  28//35 13//35 2//35
f  13//36 28//36 18//36
f  18//37 28//37 30//37
f  30//38 28//38 36//38
f  25//39 11//39 12//39
f  11//40 25//40 37//40
f  37//40 25//40 38//41
f  37//42 38//42 39//42
f  9//43 33//43 7//43
f  33//43 9//43 40//43
f  8//44 41//44 16//44
f  41//44 8//44 32//45
f  6//46 27//46 4//46
f  27//46 6//46 42//47
f  34//48 3//48 15//48
f  3//48 34//48 35//49
f  43//50 24//50 23//50
f  24//51 43//51 25//51
f  25//52 43//52 38//52
f  38//42 43//53 44//53
f  37//54 9//54 11//54
f  9//54 37//54 40//55
f  41//56 6//56 16//56
f  6//56 41//56 42//56
f  17//57 20//57 19//57
f  20//58 17//58 31//58
f  20//58 31//58 45//58
f  45//59 31//59 46//59
f  45//60 21//60 20//60
f  21//61 45//61 22//61
f  22//62 45//62 47//62
f  22//63 47//63 48//63
f  48//64 23//64 22//64
f  23//64 48//64 43//65
f  31//59 36//38 28//38
f  36//38 31//59 30//38
f  48//66 44//66 43//66
f  44//66 48//66 47//67
f  44//66 47//67 38//68
f  38//68 47//67 39//69
f  39//69 47//67 37//70
f  37//70 47//67 40//71
f  40//71 47//67 32//72
f  32//72 47//67 41//73
f  41//73 47//67 45//59
f  41//73 45//59 42//74
f  42//74 45//59 26//75
f  26//75 45//59 34//76
f  34//76 45//59 46//59
f  34//76 46//59 35//77
f  35//77 46//59 28//38
f  35//77 28//38 29//78
f  28//38 46//59 31//59
f  27//79 42//74 26//75
f  33//80 40//71 32//72

