# File produced by Open Asset Import Library (http://www.assimp.sf.net)
# (assimp v3.1.0)

mtllib ID_26875.obj.mtl

# 16 vertex positions
v  12.397 7.651 -6.722
v  6.121 9.325 0.136
v  12.258 7.643 0.277
v  6.29 9.325 -6.869
v  4.402 8.807 -6.914
v  4.249 8.812 0.093
v  0 7.647 4.68244e-16
v  0.169 7.647 -7.006
v  0 0 0
v  4.249 -5.69461e-18 0.093
v  12.258 -1.69614e-17 0.277
v  6.121 -8.3276e-18 0.136
v  12.397 4.11604e-16 -6.722
v  6.29 4.20605e-16 -6.869
v  0.169 4.28994e-16 -7.006
v  4.402 4.2336e-16 -6.914

# 0 UV coordinates

# 27 vertex normals
vn 0.264186 0.964451 0.0063491
vn 0.264212 0.964444 0.00637428
vn -0.26444 0.964381 -0.00637978
vn -0.264151 0.96446 -0.00645603
vn -0.264286 0.964423 -0.00645897
vn -0.264159 0.964458 -0.00637209
vn -0.0218823 -6.12177e-17 0.999761
vn -0.0231287 0.000601324 0.999732
vn -0.022854 0.000420915 0.999739
vn -0.0218823 -0.00113841 0.99976
vn -0.0229681 0 0.999736
vn 0 -1 -6.12687e-17
vn 0.999803 0 0.0198561
vn 0.999803 0 0.0198561
vn 0.0240637 0 -0.99971
vn 0.0238639 -0.000130938 -0.999715
vn 0.0221829 -0.00165777 -0.999753
vn 0.0240637 0.00135134 -0.99971
vn 0.0223764 0 -0.99975
vn 5.5427e-23 1 6.123e-17
vn -0.999709 0 -0.0241152
vn -0.999709 1.47663e-18 -0.0241152
vn -1.53993e-25 -1 -6.12323e-17
vn 0 -1 -6.12323e-17
vn -5.86521e-24 -1 -6.12323e-17
vn 1.23382e-24 -1 -6.12323e-17
vn -5.38873e-23 -1 -6.12298e-17

# Mesh 'defaultobject' with 28 faces
g defaultobject
usemtl DefaultMaterial
f  1//1 2//1 3//1
f  2//2 1//2 4//2
f  5//3 2//3 4//3
f  2//4 5//4 6//4
f  6//5 5//5 7//5
f  7//6 5//6 8//6
f  9//7 6//7 7//7
f  6//8 9//8 2//8
f  2//9 9//9 3//9
f  3//10 9//10 10//10
f  3//11 10//11 11//11
f  11//12 10//12 12//12
f  3//13 13//13 1//13
f  13//13 3//13 11//14
f  13//15 4//15 1//15
f  4//16 13//16 5//16
f  5//17 13//17 8//17
f  8//18 13//18 14//18
f  8//19 14//19 15//19
f  15//20 14//20 16//20
f  15//21 7//21 8//21
f  7//21 15//21 9//22
f  12//12 13//23 11//12
f  13//23 12//12 10//12
f  13//23 10//12 9//24
f  13//23 9//24 14//25
f  14//25 9//24 15//26
f  14//25 15//26 16//27

