# File produced by Open Asset Import Library (http://www.assimp.sf.net)
# (assimp v3.1.0)

mtllib ID_44810.obj.mtl

# 16 vertex positions
v  0.11 4.255 -1.014
v  4.017 2.404 -3.463
v  0.421 2.404 -3.864
v  3.797 4.255 -0.603
v  3.576 2.393 2.274
v  0.287 3.603 0.022
v  0.182 2.416 1.86
v  0 3.597 2.20253e-16
v  0.287 -1.34711e-18 0.022
v  0 0 0
v  0.182 -1.13892e-16 1.86
v  3.576 -1.39242e-16 2.274
v  0.11 6.20896e-17 -1.014
v  0.421 2.36602e-16 -3.864
v  3.797 3.69231e-17 -0.603
v  4.017 2.12048e-16 -3.463

# 0 UV coordinates

# 27 vertex normals
vn 0.0601133 0.840112 -0.539071
vn 0.0600941 0.8401 -0.539092
vn -0.0600675 0.840092 0.539109
vn -0.0599646 0.840169 0.539
vn -0.0600946 0.840097 0.539096
vn -0.0588764 0.840308 0.538902
vn -0.0764308 0 0.997075
vn -0.0764308 0 0.997075
vn -0.121082 0 0.992642
vn -0.121082 0 0.992642
vn -0.998372 0 -0.0570343
vn -0.998372 -0 -0.0570343
vn -0.994167 0 -0.107849
vn -0.994108 -0.000131616 -0.108394
vn -0.994167 0.000756143 -0.107848
vn -0.994099 0 -0.108479
vn 0.997063 -0 0.0765905
vn 0.997057 5.01974e-05 0.0766643
vn 0.997063 -0.000126983 0.0765905
vn 0.997054 0 0.0766966
vn 0.110826 0 -0.99384
vn -6.71411e-25 -1 -6.12323e-17
vn -1.03628e-24 -1 -6.12323e-17
vn 6.44736e-24 -1 -6.12323e-17
vn 1.31166e-24 -1 -6.12323e-17
vn 1.24444e-24 -1 -6.12323e-17
vn 2.55172e-24 -1 -6.12323e-17

# Mesh 'defaultobject' with 28 faces
g defaultobject
usemtl DefaultMaterial
f  1//1 2//1 3//1
f  2//2 1//2 4//2
f  5//3 6//3 7//3
f  6//4 5//4 1//4
f  1//5 5//5 4//5
f  1//6 8//6 6//6
f  8//7 9//7 6//7
f  9//7 8//7 10//8
f  11//9 5//9 7//9
f  5//9 11//9 12//10
f  9//11 7//11 6//11
f  7//11 9//11 11//12
f  1//13 10//13 8//13
f  10//14 1//14 3//14
f  10//15 3//15 13//15
f  13//16 3//16 14//16
f  12//17 4//17 5//17
f  4//18 12//18 2//18
f  2//19 12//19 15//19
f  2//20 15//20 16//20
f  16//21 3//21 2//21
f  3//21 16//21 14//21
f  11//22 15//22 12//22
f  15//22 11//22 9//23
f  15//22 9//23 10//24
f  15//22 10//24 13//25
f  15//22 13//25 16//26
f  16//26 13//25 14//27

