# File produced by Open Asset Import Library (http://www.assimp.sf.net)
# (assimp v3.1.0)

mtllib _11769.obj.mtl

# 38 vertex positions
v  14.336 15.941 8.799
v  21.156 11.242 9.43
v  17.919 15.94 5.743
v  13.688 10.99 16.144
v  13.956 10.985 15.922
v  21.434 10.838 9.747
v  14.908 11.573 2.314
v  10.87 15.944 4.743
v  14.527 11.58 1.88
v  14.955 11.058 1.526
v  14.825 11.056 1.37
v  3.943 15.944 -3.362
v  12.818 11.018 -1.041
v  8.002 10.927 -6.824
v  0.336 11.487 -0.287
v  0 11.072 6.77964e-16
v  6.802 10.917 8.212
v  10.461 10.832 12.63
v  13.5 10.76 16.299
v  13.557 10.829 16.252
v  0 0 0
v  6.802 -5.0284e-16 8.212
v  10.461 -7.73364e-16 12.63
v  13.5 -9.98026e-16 16.299
v  13.956 -9.74941e-16 15.922
v  21.434 -5.96832e-16 9.747
v  13.557 -9.95148e-16 16.252
v  13.688 -9.88535e-16 16.144
v  14.527 -1.15117e-16 1.88
v  14.955 -9.34406e-17 1.526
v  14.908 -1.41692e-16 2.314
v  21.156 -5.77421e-16 9.43
v  17.919 -3.51657e-16 5.743
v  12.818 6.37429e-17 -1.041
v  8.002 4.1785e-16 -6.824
v  14.825 -8.38883e-17 1.37
v  0.336 1.75737e-17 -0.287
v  3.943 2.05863e-16 -3.362

# 0 UV coordinates

# 67 vertex normals
vn 0.448948 0.722241 0.526131
vn 0.448851 0.722132 0.526363
vn 0.453134 0.71611 0.530901
vn 0.448926 0.722009 0.526467
vn -0.448578 0.722442 -0.52617
vn 0.52106 0.728502 -0.444726
vn 0.520643 0.728442 -0.445312
vn 0.530271 0.728691 -0.433385
vn 0.521648 0.728496 -0.444046
vn 0.520768 0.728496 -0.445078
vn 0.520756 0.728565 -0.444978
vn 0.520747 0.728476 -0.445134
vn -0.520758 0.728508 0.44507
vn -0.520659 0.728936 0.444484
vn -0.520732 0.728525 0.445073
vn -0.520509 0.728525 0.445333
vn -0.520552 0.728611 0.445141
vn -0.520485 0.728615 0.445214
vn -0.521609 0.727137 0.446313
vn 0.639103 -0.00406986 0.76911
vn -0.770124 -3.90597e-17 0.637894
vn -0.770124 0 0.637894
vn -0.770161 0 0.63785
vn -0.770128 -2.74819e-05 0.63789
vn -0.770161 2.31758e-05 0.63785
vn -0.770128 0 0.63789
vn 0.63789 -0.00241341 0.770124
vn 0.636756 0.00246716 0.771061
vn 0.63676 -0.000817946 0.771061
vn 0.636756 0 0.771065
vn 0.637187 -0.000530641 0.770709
vn 0.63673 0 0.771087
vn -3.45236e-19 1 6.08048e-17
vn 1.32571e-19 1 6.13895e-17
vn 0.637347 -0 0.770577
vn 0.751449 -4.40966e-05 -0.659791
vn 0.751435 -0.000641615 -0.659806
vn 0.751467 0 -0.659771
vn 0.751504 4.76529e-05 -0.659729
vn 0.751467 -2.75175e-06 -0.659771
vn 0.751503 0 -0.659729
vn -1.79068e-19 1 6.14204e-17
vn 1.68216e-19 1 6.11183e-17
vn 0.768221 0 -0.640185
vn 0.768561 9.75062e-06 -0.639777
vn 0.768429 -5.28732e-05 -0.639936
vn 0.76854 0.000120616 -0.639802
vn 0.768428 0 -0.639936
vn -7.8295e-20 -1 -6.12267e-17
vn -0.648847 0.000126335 -0.760919
vn -0.648852 0 -0.760915
vn -0.6492 -0.000400782 -0.760618
vn -0.648852 3.32597e-05 -0.760915
vn -0.649486 4.65595e-17 -0.760374
vn -3.52452e-20 -1 -6.12914e-17
vn 0 -1 -6.12323e-17
vn 4.70891e-25 -1 -6.12323e-17
vn 0 -1 -6.12364e-17
vn 0 -1 -6.12323e-17
vn -2.32424e-24 -1 -6.12323e-17
vn 4.32331e-24 -1 -6.12323e-17
vn 4.93845e-24 -1 -6.12323e-17
vn -2.47386e-23 -1 -6.12324e-17
vn -8.02129e-24 -1 -6.12324e-17
vn -9.39055e-23 -1 -6.12322e-17
vn 3.45236e-19 -1 -6.08156e-17
vn -1.29558e-19 -1 -6.13895e-17

# Mesh 'defaultobject' with 72 faces
g defaultobject
usemtl DefaultMaterial
f  1//1 2//1 3//1
f  2//2 1//2 4//2
f  2//3 4//3 5//3
f  2//4 5//4 6//4
f  1//5 3//5 7//5
f  7//6 8//6 1//6
f  8//7 7//7 9//7
f  8//8 9//8 10//8
f  8//9 10//9 11//9
f  8//10 11//10 12//10
f  12//11 11//11 13//11
f  12//12 13//12 14//12
f  15//13 8//13 12//13
f  8//14 15//14 16//14
f  8//15 16//15 17//15
f  8//16 17//16 1//16
f  1//17 17//17 18//17
f  1//18 18//18 4//18
f  4//19 18//19 19//19
f  4//20 19//20 20//20
f  21//21 17//21 16//21
f  17//21 21//21 22//22
f  17//23 22//23 18//23
f  18//24 22//24 19//24
f  19//25 22//25 23//25
f  19//26 23//26 24//26
f  20//27 5//27 4//27
f  5//28 20//28 6//28
f  6//29 20//29 19//29
f  6//30 19//30 24//30
f  6//31 24//31 25//31
f  6//32 25//32 26//32
f  25//33 24//33 27//33
f  25//33 27//33 28//34
f  29//35 10//35 9//35
f  10//35 29//35 30//35
f  2//36 7//36 3//36
f  7//37 2//37 6//37
f  7//38 6//38 26//38
f  7//39 26//39 9//39
f  9//40 26//38 31//40
f  9//41 31//41 29//41
f  31//42 26//42 32//42
f  31//42 32//42 33//43
f  30//44 11//44 10//44
f  11//45 30//45 13//45
f  13//46 30//46 14//46
f  14//47 30//47 34//47
f  14//48 34//48 35//48
f  34//49 30//49 36//49
f  14//50 15//50 12//50
f  15//51 14//51 35//51
f  15//52 35//52 16//52
f  16//53 35//53 37//53
f  16//54 37//54 21//54
f  37//55 35//55 38//55
f  34//49 38//55 35//55
f  38//55 34//49 37//55
f  37//55 34//49 36//49
f  37//55 36//49 21//56
f  21//56 36//49 22//57
f  22//57 36//49 30//49
f  22//57 30//49 29//58
f  22//57 29//58 31//59
f  22//57 31//59 33//60
f  22//57 33//60 32//61
f  22//57 32//61 23//62
f  23//62 32//61 26//63
f  23//62 26//63 25//64
f  23//62 25//64 24//65
f  24//65 25//64 27//66
f  27//66 25//64 28//67

