# File produced by Open Asset Import Library (http://www.assimp.sf.net)
# (assimp v3.1.0)

mtllib _15973.obj.mtl

# 22 vertex positions
v  16.268 15.648 -6.598
v  13.985 10.959 2.146
v  19.191 10.953 -2.15
v  3.253 15.648 4.164
v  6.501 10.968 8.322
v  1.967 13.796 2.518
v  0.202 10.961 -0.167
v  0 10.961 6.71168e-16
v  5.477 10.961 -4.529
v  6.68 10.961 -5.524
v  13.349 10.961 -11.039
v  0 0 0
v  3.253 -2.54971e-16 4.164
v  6.501 -5.09575e-16 8.322
v  1.967 -1.54183e-16 2.518
v  13.985 -1.31405e-16 2.146
v  19.191 1.3165e-16 -2.15
v  13.349 6.75944e-16 -11.039
v  16.268 4.04011e-16 -6.598
v  6.68 3.38247e-16 -5.524
v  5.477 2.77321e-16 -4.529
v  0.202 1.02258e-17 -0.167

# 0 UV coordinates

# 35 vertex normals
vn 0.422975 0.747952 0.511528
vn 0.422978 0.74795 0.511527
vn 0.422983 0.747983 0.511475
vn -0.422975 0.747886 -0.511622
vn -0.423035 0.747883 -0.511579
vn -0.422695 0.748124 -0.511507
vn -0.422953 0.747984 -0.511498
vn -0.422963 0.748058 -0.511381
vn -0.422951 0.748017 -0.511452
vn -0.788037 5.013e-05 0.615628
vn -0.78805 -4.84553e-06 0.615611
vn -0.78805 0 0.615611
vn -0.788036 -2.24451e-05 0.615629
vn -0.788065 0 0.615593
vn 0 1 6.11871e-17
vn 0.636487 -0 0.771287
vn 0.636476 1.33979e-05 0.771297
vn 0.636487 -9.33217e-06 0.771287
vn 0.636476 0 0.771297
vn 0.835677 -5.34389e-05 -0.549221
vn 0.835677 0 -0.549221
vn 7.93583e-20 1 6.11853e-17
vn -0.637281 0 -0.770631
vn -0.637345 -6.52059e-05 -0.770579
vn -0.637263 3.44725e-05 -0.770647
vn -0.637281 -3.45855e-06 -0.770631
vn -0.637177 0.000100295 -0.770717
vn -0.637275 4.71879e-17 -0.770636
vn 8.59306e-20 -1 -6.11826e-17
vn 0 -1 -6.12319e-17
vn -5.92936e-24 -1 -6.12323e-17
vn 0 -1 -6.12323e-17
vn -1.65106e-23 -1 -6.12323e-17
vn 1.85281e-23 -1 -6.12323e-17
vn -1.93309e-22 -1 -6.12323e-17

# Mesh 'defaultobject' with 40 faces
g defaultobject
usemtl DefaultMaterial
f  1//1 2//1 3//1
f  2//1 1//1 4//2
f  2//3 4//3 5//3
f  6//4 7//4 8//4
f  7//5 6//5 9//5
f  9//6 6//6 4//6
f  9//7 4//7 1//7
f  9//8 1//8 10//8
f  10//9 1//9 11//9
f  6//10 5//10 4//10
f  5//11 6//11 8//11
f  5//11 8//11 12//12
f  5//13 12//13 13//13
f  5//14 13//14 14//14
f  13//15 12//15 15//15
f  14//16 2//16 5//16
f  2//17 14//17 3//17
f  3//18 14//16 16//18
f  3//19 16//19 17//19
f  3//20 11//20 1//20
f  11//21 3//21 17//21
f  11//21 17//21 18//21
f  18//22 17//22 19//22
f  18//23 10//23 11//23
f  10//24 18//24 9//24
f  9//25 18//25 7//25
f  7//26 18//23 20//26
f  7//27 20//27 8//27
f  8//28 20//26 12//28
f  12//29 20//29 21//29
f  12//29 21//29 22//30
f  16//31 19//31 17//31
f  19//31 16//31 18//32
f  18//32 16//31 14//33
f  18//32 14//33 20//29
f  20//29 14//33 13//34
f  20//29 13//34 21//29
f  21//29 13//34 22//30
f  22//30 13//34 15//35
f  22//30 15//35 12//29

