# File produced by Open Asset Import Library (http://www.assimp.sf.net)
# (assimp v3.1.0)

mtllib _17306.obj.mtl

# 27 vertex positions
v  17.94 10.199 7.388
v  10.682 10.058 13.403
v  18.053 10.056 7.529
v  11.444 13.85 6.653
v  7.396 10.177 -5.894
v  11.698 10.056 -0.739
v  7.516 10.056 -5.99
v  3.759 13.85 -2.996
v  11.886 10.056 -0.503
v  12.639 10.056 0.442
v  12.832 10.056 0.685
v  18.049 10.056 7.236
v  17.908 10.199 7.348
v  0 10.054 6.1563e-16
v  7.516 3.66782e-16 -5.99
v  3.759 1.83452e-16 -2.996
v  0 0 0
v  7.396 3.60903e-16 -5.894
v  10.682 -8.20697e-16 13.403
v  18.053 -4.61018e-16 7.529
v  17.908 -4.49935e-16 7.348
v  18.049 -4.43077e-16 7.236
v  17.94 -4.52385e-16 7.388
v  12.832 -4.19442e-17 0.685
v  11.698 4.52507e-17 -0.739
v  11.886 3.07999e-17 -0.503
v  12.639 -2.70647e-17 0.442

# 0 UV coordinates

# 43 vertex normals
vn 0.386886 0.784145 0.485217
vn 0.386299 0.784861 0.484527
vn 0.483914 0.785682 -0.385398
vn 0.484812 0.784748 -0.38617
vn 0.48481 0.784769 -0.38613
vn 0.484741 0.784802 -0.386149
vn 0.484646 0.784846 -0.386179
vn 0.485664 0.784437 -0.385733
vn 0.484852 0.784749 -0.38612
vn 0.484261 0.783093 -0.390201
vn 0.484586 0.784151 -0.387664
vn -0.484773 0.784796 0.386123
vn -0.484815 0.784765 0.386133
vn -0.623223 -8.12992e-05 -0.782044
vn -0.623246 0.00234803 -0.782022
vn -0.623247 0 -0.782025
vn -0.623222 3.16311e-05 -0.782045
vn -0.623273 4.78839e-17 -0.782004
vn 0 -1 -6.12563e-17
vn -0.782017 0 0.623257
vn 0.623219 -0 0.782047
vn 0.621985 -0 0.783029
vn 0.621985 0 0.783029
vn 0.780872 0.00109468 -0.62469
vn 0.780451 0 -0.625217
vn 0.780451 0 -0.625217
vn 1.48279e-19 -1 -6.13488e-17
vn 0.782253 0 -0.622961
vn 0.783064 0.00108602 -0.62194
vn 0.782078 -0.00028259 -0.62318
vn 0.782161 -0.000152244 -0.623076
vn 0.782233 -3.4867e-05 -0.622986
vn 0.782253 1.95685e-05 -0.622961
vn 0.782239 0 -0.622979
vn -3.96508e-19 1 6.12605e-17
vn 0 1 6.12491e-17
vn 0 1 6.1236e-17
vn -2.62175e-24 -1 -6.12323e-17
vn -4.56862e-23 -1 -6.12322e-17
vn 0 -1 -6.12323e-17
vn -5.54045e-25 -1 -6.12323e-17
vn -1.42482e-25 -1 -6.12323e-17
vn 0 -1 -6.12323e-17

# Mesh 'defaultobject' with 50 faces
g defaultobject
usemtl DefaultMaterial
f  1//1 2//1 3//1
f  2//2 1//2 4//2
f  5//3 6//3 7//3
f  6//4 5//4 8//4
f  6//5 8//5 4//5
f  6//6 4//6 9//6
f  9//7 4//7 10//7
f  10//8 4//8 11//8
f  11//9 4//9 12//9
f  12//10 4//10 13//10
f  13//11 4//11 1//11
f  2//12 8//12 14//12
f  8//13 2//13 4//13
f  5//14 14//14 8//14
f  14//15 5//15 7//15
f  14//16 7//16 15//16
f  14//17 15//17 16//17
f  14//18 16//18 17//18
f  16//19 15//19 18//19
f  14//20 19//20 2//20
f  19//20 14//20 17//20
f  19//21 3//21 2//21
f  3//21 19//21 20//21
f  21//22 12//22 13//22
f  12//22 21//22 22//23
f  3//24 13//24 1//24
f  13//25 3//25 21//25
f  21//25 3//25 20//26
f  21//27 20//27 23//27
f  22//28 11//28 12//28
f  11//29 22//29 10//29
f  10//30 22//30 9//30
f  9//31 22//31 6//31
f  6//32 22//32 7//32
f  7//33 22//33 24//33
f  7//34 24//34 15//34
f  15//35 24//35 25//35
f  25//35 24//35 26//36
f  26//36 24//35 27//37
f  17//38 20//27 19//38
f  20//27 17//38 23//27
f  23//27 17//38 21//27
f  21//27 17//38 22//39
f  22//39 17//38 24//40
f  24//40 17//38 27//41
f  27//41 17//38 26//42
f  26//42 17//38 25//43
f  25//43 17//38 18//19
f  25//43 18//19 15//19
f  18//19 17//38 16//19

