# {"id":"_32031","idOriginal":"_32031","origin":[14.329706665854362,48.302039409002695],"elevation":254.316,"wof":[{"Id":85681677,"Name":"Oberösterreich","Placetype":"region","Offset":-1},{"Id":85898449,"Name":"Steeg","Placetype":"neighbourhood","Offset":-1},{"Id":102049853,"Name":"Linz","Placetype":"county","Offset":-1},{"Id":85632785,"Name":"Austria","Placetype":"country","Offset":-1},{"Id":101748071,"Name":"Linz","Placetype":"locality","Offset":-1}]}

# Attribution: City of Linz <http://geo.data.linz.gv.at/katalog/geodata/3d_geo_daten_lod2/>
# Longitude: 14.329706665854362
# Latitude: 48.302039409002695
# Elevation: 254.316

# File produced by Open Asset Import Library (http://www.assimp.sf.net)
# (assimp v3.1.0)


# 12 vertex positions
v  12.288 4.322 4.887
v  0.025 4.322 -0.058
v  0 4.322 2.64646e-16
v  1.722 4.322 -4.056
v  13.739 4.322 1.282
v  13.907 4.322 0.917
v  0 0 0
v  12.288 -2.99242e-16 4.887
v  13.739 -7.84999e-17 1.282
v  13.907 -5.61501e-17 0.917
v  1.722 2.48358e-16 -4.056
v  0.025 3.55148e-18 -0.058

# 0 UV coordinates

# 14 vertex normals
vn 0 1 0
vn -0.369552 -5.68977e-17 0.92921
vn -0.369552 0 0.92921
vn 0.927676 -0 0.373386
vn 0.908397 0 0.418109
vn 0.377866 0 -0.92586
vn -0.918324 0 -0.395829
vn -0.920509 8.11877e-05 -0.390721
vn -0.91831 -0.00558298 -0.395823
vn -0.920509 0 -0.390721
vn 2.50519e-24 -1 -6.12323e-17
vn -4.1467e-24 -1 -6.12323e-17
vn 3.68794e-24 -1 -6.12323e-17
vn 0 -1 -6.12323e-17

# Mesh 'defaultobject' with 20 faces
g defaultobject
usemtl DefaultMaterial
f  1//1 2//1 3//1
f  2//1 1//1 4//1
f  4//1 1//1 5//1
f  4//1 5//1 6//1
f  7//2 1//2 3//2
f  1//2 7//2 8//3
f  8//4 5//4 1//4
f  5//4 8//4 9//4
f  10//5 5//5 9//5
f  10//5 6//5 5//5
f  10//6 4//6 6//6
f  4//6 10//6 11//6
f  2//7 7//7 3//7
f  7//8 2//8 4//8
f  7//9 4//9 12//9
f  12//10 4//10 11//10
f  9//11 11//11 10//11
f  11//11 9//11 8//12
f  11//11 8//12 12//13
f  12//13 8//12 7//14

