# {"id":"ID_57504","idOriginal":"ID_57504","origin":[14.358389201009823,48.25827320543739],"elevation":250.577}
# Longitude: 14.358389201009823
# Latitude: 48.25827320543739
# Elevation: 250.577

# File produced by Open Asset Import Library (http://www.assimp.sf.net)
# (assimp v3.1.0)

mtllib ID_57504.obj.mtl

# 8 vertex positions
v  2.338 10.779 2.215
v  0 10.779 6.60023e-16
v  0.099 10.779 2.318
v  2.231 10.779 -0.102
v  0.099 -1.41937e-16 2.318
v  2.338 -1.3563e-16 2.215
v  2.231 6.2457e-18 -0.102
v  0 0 0

# 0 UV coordinates

# 9 vertex normals
vn 0 1 0
vn 0.0459542 -0 0.998944
vn 0.998935 0 -0.0461313
vn -0.0456717 0 -0.998957
vn -0.0456717 6.11685e-17 -0.998957
vn -0.999089 -2.6128e-18 0.0426703
vn -0.999089 0 0.0426703
vn 0 -1 -6.12323e-17
vn 5.10986e-24 -1 -6.12323e-17

# Mesh 'defaultobject' with 12 faces
g defaultobject
usemtl DefaultMaterial
f  1//1 2//1 3//1
f  2//1 1//1 4//1
f  5//2 1//2 3//2
f  1//2 5//2 6//2
f  6//3 4//3 1//3
f  4//3 6//3 7//3
f  7//4 2//4 4//4
f  2//4 7//4 8//5
f  8//6 3//6 2//6
f  3//6 8//6 5//7
f  8//8 6//8 5//8
f  6//8 8//8 7//9

