# {"id":"ID_44859","idOriginal":"ID_44859","origin":[14.323123355533227,48.32999267035979],"elevation":254.682,"wof":[{"Id":102049853,"Name":"Linz","Placetype":"county","Offset":-1},{"Id":101748071,"Name":"Linz","Placetype":"locality","Offset":-1},{"Id":85681677,"Name":"Oberösterreich","Placetype":"region","Offset":-1},{"Id":85898419,"Name":"Furth","Placetype":"neighbourhood","Offset":-1},{"Id":85632785,"Name":"Austria","Placetype":"country","Offset":-1}]}

# Attribution: City of Linz <http://geo.data.linz.gv.at/katalog/geodata/3d_geo_daten_lod2/>
# Longitude: 14.323123355533227
# Latitude: 48.32999267035979
# Elevation: 254.682

# File produced by Open Asset Import Library (http://www.assimp.sf.net)
# (assimp v3.1.0)


# 16 vertex positions
v  0.064 3.144 -1.243
v  1.351 3.144 -3.715
v  1.013 3.144 -3.843
v  5.277 3.144 -3.605
v  1.799 3.144 -4.913
v  3.451 3.144 1.354
v  0.375 3.144 -1.099
v  0 3.144 1.92514e-16
v  1.799 3.00834e-16 -4.913
v  1.351 2.27478e-16 -3.715
v  1.013 2.35316e-16 -3.843
v  0.064 7.61118e-17 -1.243
v  0.375 6.72943e-17 -1.099
v  0 0 0
v  5.277 2.20743e-16 -3.605
v  3.451 -8.29086e-17 1.354

# 0 UV coordinates

# 16 vertex normals
vn 0 1 0
vn -0.93665 0 -0.350266
vn -0.939381 0 -0.342874
vn -0.94642 0 -0.322937
vn -0.94642 1.97742e-17 -0.322937
vn 0.354154 0 -0.935187
vn 0.352008 0 -0.935997
vn -0.420168 0 0.907446
vn -0.365243 -5.70019e-17 0.930912
vn -0.365243 0 0.930912
vn 0.938405 -0 0.345539
vn -3.48094e-25 -1 -6.12323e-17
vn -3.47321e-23 -1 -6.12324e-17
vn -1.11386e-24 -1 -6.12323e-17
vn 2.68278e-24 -1 -6.12323e-17
vn 3.0776e-24 -1 -6.12323e-17

# Mesh 'defaultobject' with 28 faces
g defaultobject
usemtl DefaultMaterial
f  1//1 2//1 3//1
f  2//1 4//1 5//1
f  4//1 2//1 6//1
f  6//1 2//1 7//1
f  7//1 2//1 1//1
f  6//1 7//1 8//1
f  9//2 2//2 5//2
f  2//2 9//2 10//2
f  11//3 1//3 3//3
f  1//3 11//3 12//3
f  13//4 8//4 7//4
f  8//4 13//4 14//5
f  10//6 3//6 2//6
f  3//6 10//6 11//6
f  15//7 5//7 4//7
f  5//7 15//7 9//7
f  12//8 7//8 1//8
f  7//8 12//8 13//8
f  14//9 6//9 8//9
f  6//9 14//9 16//10
f  16//11 4//11 6//11
f  4//11 16//11 15//11
f  15//12 10//12 9//12
f  10//12 12//13 11//13
f  12//13 10//12 15//12
f  12//13 15//12 13//14
f  13//14 15//12 16//15
f  13//14 16//15 14//16

