# {"id":"ID_30898","idOriginal":"ID_30898","origin":[14.295961020316192,48.242937263541506],"elevation":260.323,"wof":[{"Id":85681677,"Name":"Oberösterreich","Placetype":"region","Offset":-1},{"Id":85898447,"Name":"Scharlinz","Placetype":"neighbourhood","Offset":-1},{"Id":102049853,"Name":"Linz","Placetype":"county","Offset":-1},{"Id":101748071,"Name":"Linz","Placetype":"locality","Offset":-1},{"Id":85632785,"Name":"Austria","Placetype":"country","Offset":-1}]}

# Attribution: City of Linz <http://geo.data.linz.gv.at/katalog/geodata/3d_geo_daten_lod2/>
# Longitude: 14.295961020316192
# Latitude: 48.242937263541506
# Elevation: 260.323

# File produced by Open Asset Import Library (http://www.assimp.sf.net)
# (assimp v3.1.0)


# 14 vertex positions
v  5.488 6.648 8.87
v  0.109 6.648 0.186
v  5.282 6.648 8.994
v  10.488 6.648 5.863
v  5.193 6.648 -3.115
v  0.212 6.648 -0.127
v  0 6.648 4.07073e-16
v  5.282 -5.50724e-16 8.994
v  10.488 -3.59005e-16 5.863
v  5.488 -5.43131e-16 8.87
v  5.193 1.90739e-16 -3.115
v  0 0 0
v  0.212 7.77651e-18 -0.127
v  0.109 -1.13892e-17 0.186

# 0 UV coordinates

# 15 vertex normals
vn 0 1 0
vn 0.51572 -0 0.856757
vn 0.515378 1.44678e-05 0.856963
vn 0.515391 0 0.856955
vn 1.88813e-19 -1 -6.09867e-17
vn 0.861354 0 -0.508005
vn -0.51442 0 -0.857538
vn -0.513901 0.000528923 -0.85785
vn -0.514399 5.25099e-17 -0.857551
vn 1.90381e-21 -1 -6.12302e-17
vn -0.862284 0 0.506425
vn -0.862767 -0.00146656 0.505599
vn -0.862284 3.09523e-05 0.506425
vn -0.862768 0 0.5056
vn -1.72448e-22 -1 -6.12323e-17

# Mesh 'defaultobject' with 24 faces
g defaultobject
usemtl DefaultMaterial
f  1//1 2//1 3//1
f  2//1 1//1 4//1
f  2//1 4//1 5//1
f  2//1 5//1 6//1
f  2//1 6//1 7//1
f  8//2 1//2 3//2
f  1//3 8//3 4//3
f  4//4 8//4 9//4
f  9//5 8//5 10//5
f  9//6 5//6 4//6
f  5//6 9//6 11//6
f  11//7 6//7 5//7
f  6//8 11//8 7//8
f  7//9 11//9 12//9
f  12//10 11//10 13//10
f  2//11 8//11 3//11
f  8//12 2//12 7//12
f  8//13 7//13 14//13
f  14//14 7//14 12//14
f  14//15 10//5 8//5
f  10//5 14//15 9//5
f  9//5 14//15 11//10
f  11//10 14//15 13//10
f  13//10 14//15 12//10

