# {"id":"_60263","idOriginal":"_60263","origin":[14.30678775718213,48.30421757424775],"elevation":259.35}
# Longitude: 14.30678775718213
# Latitude: 48.30421757424775
# Elevation: 259.35

# File produced by Open Asset Import Library (http://www.assimp.sf.net)
# (assimp v3.1.0)

mtllib _60263.obj.mtl

# 18 vertex positions
v  0.616 4.106 1.087
v  0.308 4.106 0.482
v  0.205 4.106 0.666
v  0.385 4.106 -0.266
v  1.027 4.106 0.556
v  3.079 4.106 1.118
v  3.092 4.106 0.556
v  0.265 4.106 -0.161
v  0 4.106 2.5142e-16
v  0.385 1.62878e-17 -0.266
v  0.265 9.85841e-18 -0.161
v  0 0 0
v  0.308 -2.9514e-17 0.482
v  0.205 -4.07807e-17 0.666
v  0.616 -6.65596e-17 1.087
v  3.079 -6.84578e-17 1.118
v  3.092 -3.40452e-17 0.556
v  1.027 -3.40452e-17 0.556

# 0 UV coordinates

# 17 vertex normals
vn 0 1 0
vn -0.658505 0 -0.752577
vn -0.519231 0 -0.854634
vn -0.519231 5.23312e-17 -0.854634
vn -0.872587 0 -0.488459
vn -0.842652 -3.29711e-17 0.538458
vn -0.842652 0 0.538458
vn -0.715554 0 0.698557
vn -0.0125853 0 0.999921
vn 0.999733 -0 0.0231255
vn 0 0 -1
vn 0.788112 0 -0.615532
vn 0 -1 -6.12323e-17
vn 0 -1 -6.12323e-17
vn -1.99261e-23 -1 -6.12323e-17
vn -1.6153e-24 -1 -6.12323e-17
vn -1.02054e-24 -1 -6.12323e-17

# Mesh 'defaultobject' with 32 faces
g defaultobject
usemtl DefaultMaterial
f  1//1 2//1 3//1
f  2//1 1//1 4//1
f  4//1 1//1 5//1
f  5//1 1//1 6//1
f  5//1 6//1 7//1
f  2//1 8//1 9//1
f  8//1 2//1 4//1
f  10//2 8//2 4//2
f  8//2 10//2 11//2
f  11//3 9//3 8//3
f  9//3 11//3 12//4
f  13//5 3//5 2//5
f  3//5 13//5 14//5
f  12//6 2//6 9//6
f  2//6 12//6 13//7
f  14//8 1//8 3//8
f  1//8 14//8 15//8
f  15//9 6//9 1//9
f  6//9 15//9 16//9
f  16//10 7//10 6//10
f  7//10 16//10 17//10
f  17//11 5//11 7//11
f  5//11 17//11 18//11
f  18//12 4//12 5//12
f  4//12 18//12 10//12
f  12//13 18//13 13//13
f  18//13 12//13 11//14
f  18//13 11//14 10//15
f  14//16 16//16 15//16
f  16//16 14//16 17//17
f  17//17 14//16 18//13
f  18//13 14//16 13//13

