# {"id":"ID_13790","idOriginal":"ID_13790","origin":[14.281574281568579,48.330771814349035],"elevation":281.763}
# Longitude: 14.281574281568579
# Latitude: 48.330771814349035
# Elevation: 281.763

# File produced by Open Asset Import Library (http://www.assimp.sf.net)
# (assimp v3.1.0)

mtllib ID_13790.obj.mtl

# 22 vertex positions
v  8.195 7.032 -8.238
v  16.423 13.003 7.686
v  20.602 7.032 3.536
v  4.042 13.003 -4.064
v  0.176 7.443 -0.177
v  0 7.19 4.40261e-16
v  3.965 7.055 3.947
v  5.562 7.056 5.461
v  6.909 7.058 6.737
v  12.266 7.062 11.814
v  12.532 7.442 11.55
v  0 0 0
v  3.965 -2.41684e-16 3.947
v  12.266 -7.23399e-16 11.814
v  5.562 -3.3439e-16 5.461
v  6.909 -4.12522e-16 6.737
v  12.532 -7.07234e-16 11.55
v  16.423 -4.70632e-16 7.686
v  20.602 -2.16518e-16 3.536
v  8.195 5.04432e-16 -8.238
v  4.042 2.48848e-16 -4.064
v  0.176 1.08381e-17 -0.177

# 0 UV coordinates

# 38 vertex normals
vn 0.490183 0.702076 -0.516536
vn 0.490217 0.702047 -0.516543
vn -0.490242 0.702011 0.516569
vn -0.490195 0.702227 0.516319
vn -0.49022 0.702099 0.51647
vn -0.490214 0.701989 0.516625
vn -0.490243 0.702118 0.516422
vn -0.490183 0.701983 0.516664
vn -0.240247 0.661733 0.710204
vn -0.705496 -4.33962e-17 0.708714
vn -0.705496 0 0.708714
vn -0.687997 0 0.725714
vn -0.687715 -0.0001212 0.725981
vn -0.687884 1.26543e-05 0.725821
vn -0.687878 0 0.725826
vn -1.02894e-19 1 6.13246e-17
vn 0 -1 -6.12216e-17
vn 0.704641 2.91223e-08 0.709564
vn 0.704633 -0.000277869 0.709571
vn 0.704634 0 0.709571
vn 0.704434 0.000471884 0.709769
vn 0.704641 -9.89263e-08 0.709564
vn 0.704641 0 0.709564
vn 0.688361 0 -0.725369
vn -0.708888 0 -0.705321
vn -0.708978 -5.79595e-05 -0.70523
vn -0.708888 0.000137616 -0.705321
vn -0.709019 -0 -0.705189
vn -0.709107 -0 -0.705101
vn -0.709107 4.3175e-17 -0.705101
vn -7.65928e-23 -1 -6.12323e-17
vn -2.61723e-24 -1 -6.12323e-17
vn -6.09215e-25 -1 -6.12323e-17
vn 1.05386e-24 -1 -6.12323e-17
vn 0 -1 -6.12323e-17
vn -6.5147e-24 -1 -6.12323e-17
vn 6.68809e-19 -1 -6.08616e-17
vn -3.51336e-20 -1 -6.12379e-17

# Mesh 'defaultobject' with 40 faces
g defaultobject
usemtl DefaultMaterial
f  1//1 2//1 3//1
f  2//2 1//2 4//2
f  5//3 2//3 4//3
f  2//4 5//4 6//4
f  2//5 6//5 7//5
f  2//6 7//6 8//6
f  2//7 8//7 9//7
f  2//8 9//8 10//8
f  2//9 10//9 11//9
f  12//10 7//10 6//10
f  7//10 12//10 13//11
f  13//12 8//12 7//12
f  8//13 13//13 9//13
f  9//14 13//14 10//14
f  10//15 13//15 14//15
f  14//16 13//16 15//16
f  14//17 15//17 16//17
f  11//18 3//18 2//18
f  3//19 11//19 10//19
f  3//18 10//20 14//20
f  3//21 14//21 17//21
f  3//18 17//22 18//22
f  3//18 18//22 19//23
f  19//24 1//24 3//24
f  1//24 19//24 20//24
f  20//25 4//25 1//25
f  4//26 20//26 5//26
f  5//27 20//27 21//27
f  5//28 21//28 22//28
f  5//29 22//29 6//29
f  6//29 22//29 12//30
f  16//17 17//31 14//17
f  17//31 16//17 18//32
f  18//32 16//17 19//33
f  19//33 16//17 20//34
f  20//34 16//17 15//17
f  20//34 15//17 13//35
f  20//34 13//35 12//36
f  20//34 12//36 22//37
f  20//34 22//37 21//38

