# {"id":"ID_25189","idOriginal":"ID_25189","origin":[14.279818238186287,48.318881472896244],"elevation":281.145}
# Longitude: 14.279818238186287
# Latitude: 48.318881472896244
# Elevation: 281.145

# File produced by Open Asset Import Library (http://www.assimp.sf.net)
# (assimp v3.1.0)

mtllib ID_25189.obj.mtl

# 20 vertex positions
v  2.69 11.818 -3.947
v  5.459 8.871 -5.77
v  4.4 8.918 -6.455
v  14.652 7.322 -1.287
v  6.534 7.275 -7.056
v  10.374 11.786 1.417
v  10.356 11.818 1.445
v  12.084 11.746 2.569
v  0 7.255 4.44241e-16
v  7.748 7.287 5.409
v  4.4 3.95255e-16 -6.455
v  0 0 0
v  2.69 2.41684e-16 -3.947
v  5.459 3.53311e-16 -5.77
v  6.534 4.32055e-16 -7.056
v  7.748 -3.31206e-16 5.409
v  10.374 -8.67662e-17 1.417
v  12.084 -1.57306e-16 2.569
v  10.356 -8.84807e-17 1.445
v  14.652 7.8806e-17 -1.287

# 0 UV coordinates

# 32 vertex normals
vn 0.397539 0.723021 -0.56498
vn 0.397397 0.723007 -0.565099
vn 0.397405 0.722984 -0.565123
vn 0.397413 0.723086 -0.564986
vn 0.398889 0.720603 -0.567115
vn 0.397485 0.723108 -0.564908
vn -0.397424 0.723044 0.565032
vn -0.397428 0.72306 0.565009
vn -0.826283 -0.000102863 -0.563256
vn -0.826295 0 -0.563237
vn -0.826295 3.44884e-17 -0.563238
vn 0 1 6.12703e-17
vn -0.767242 0 -0.641357
vn -0.572425 0 0.819957
vn -0.558723 0 0.829354
vn -0.558723 0 0.829354
vn 0.838285 -0.00552685 0.545204
vn 0.835447 0 0.54957
vn 2.12596e-20 1 6.12463e-17
vn 0.832316 -0 0.554302
vn 0.832316 0 0.554302
vn 0.57927 0 -0.815135
vn 0.57927 0 -0.815135
vn 0.54312 0 -0.839655
vn 0.54312 0 -0.839655
vn 0 -1 -6.12323e-17
vn -8.4155e-23 -1 -6.12323e-17
vn 0 -1 -6.12329e-17
vn 2.26959e-23 -1 -6.12323e-17
vn -7.07697e-24 -1 -6.12323e-17
vn 2.68733e-24 -1 -6.12323e-17
vn 0 -1 -6.12332e-17

# Mesh 'defaultobject' with 36 faces
g defaultobject
usemtl DefaultMaterial
f  1//1 2//1 3//1
f  2//2 4//2 5//2
f  4//3 2//3 1//3
f  4//4 1//4 6//4
f  6//5 1//5 7//5
f  8//6 4//6 6//6
f  9//7 7//7 1//7
f  7//8 9//8 10//8
f  3//9 9//9 1//9
f  9//10 3//10 11//10
f  9//10 11//10 12//11
f  12//12 11//12 13//12
f  5//13 14//13 2//13
f  14//13 5//13 15//13
f  9//14 16//14 10//14
f  16//14 9//14 12//14
f  17//15 8//15 6//15
f  8//15 17//15 18//16
f  10//17 6//17 7//17
f  6//18 10//18 17//18
f  17//18 10//18 16//18
f  17//19 16//19 19//19
f  18//20 4//20 8//20
f  4//20 18//20 20//21
f  20//22 5//22 4//22
f  5//22 20//22 15//23
f  2//24 11//24 3//24
f  11//24 2//24 14//25
f  18//26 15//26 20//26
f  15//26 18//26 17//27
f  15//26 17//27 19//28
f  15//26 19//28 16//29
f  15//26 16//29 14//30
f  14//30 16//29 12//26
f  14//30 12//26 11//31
f  11//31 12//26 13//32

