# File produced by Open Asset Import Library (http://www.assimp.sf.net)
# (assimp v3.1.0)

mtllib ID_19115.obj.mtl

# 16 vertex positions
v  12.206 7.003 4.9
v  9.063 10.998 12.248
v  13.97 7.014 10.775
v  4.909 10.998 -1.474
v  11.138 7.022 1.455
v  9.816 7.014 -2.947
v  4.123 6.988 13.731
v  0 7.013 4.29422e-16
v  13.97 -6.59778e-16 10.775
v  12.206 -3.00038e-16 4.9
v  11.138 -8.90931e-17 1.455
v  9.816 1.80452e-16 -2.947
v  4.909 9.02565e-17 -1.474
v  0 0 0
v  4.123 -8.40781e-16 13.731
v  9.063 -7.49974e-16 12.248

# 0 UV coordinates

# 28 vertex normals
vn 0.587526 0.789411 -0.177886
vn 0.587551 0.789397 -0.177867
vn 0.587506 0.78945 -0.177781
vn 0.587528 0.789411 -0.17788
vn -0.587459 0.789472 0.177839
vn -0.587469 0.789465 0.177836
vn 0.957759 0 -0.287572
vn 0.957759 0 -0.287572
vn 0.955153 0 -0.296112
vn 0.95773 0.0045521 -0.287632
vn 0.955137 -0.00581271 -0.296107
vn 0.957742 0 -0.287627
vn -0.287545 -4.80148e-05 -0.957767
vn -0.287545 0 -0.957767
vn -0.287509 5.45718e-05 -0.957778
vn -0.287581 5.86457e-17 -0.957756
vn -0.957755 -1.76095e-17 0.287585
vn -0.957755 0 0.287585
vn 0.287517 1.11629e-05 0.957775
vn 0.287517 0 0.957775
vn 0.287526 -1.26799e-05 0.957773
vn 0.287509 0 0.957778
vn -2.24816e-24 -1 -6.12323e-17
vn -1.1235e-24 -1 -6.12323e-17
vn -7.18966e-25 -1 -6.12323e-17
vn 0 -1 -6.12323e-17
vn -1.67329e-24 -1 -6.12323e-17
vn -1.85298e-23 -1 -6.12323e-17

# Mesh 'defaultobject' with 28 faces
g defaultobject
usemtl DefaultMaterial
f  1//1 2//1 3//1
f  2//2 1//2 4//2
f  4//3 1//3 5//3
f  4//4 5//4 6//4
f  4//5 7//5 2//5
f  7//6 4//6 8//6
f  9//7 1//7 3//7
f  1//7 9//7 10//8
f  1//9 10//9 5//9
f  5//10 10//10 6//10
f  6//11 10//11 11//11
f  6//12 11//12 12//12
f  6//13 8//13 4//13
f  8//14 6//14 12//14
f  8//15 12//15 13//15
f  8//16 13//16 14//16
f  14//17 7//17 8//17
f  7//17 14//17 15//18
f  7//19 3//19 2//19
f  3//20 7//20 15//20
f  3//21 15//21 16//21
f  3//20 16//22 9//22
f  11//23 13//23 12//23
f  13//23 11//23 14//24
f  14//24 11//23 10//25
f  14//24 10//25 15//26
f  15//26 10//25 16//27
f  16//27 10//25 9//28

