# {"id":"ID_42138","idOriginal":"ID_42138","origin":[14.294831002349575,48.33989824994203],"elevation":278.84}
# Longitude: 14.294831002349575
# Latitude: 48.33989824994203
# Elevation: 278.84

# File produced by Open Asset Import Library (http://www.assimp.sf.net)
# (assimp v3.1.0)

mtllib ID_42138.obj.mtl

# 21 vertex positions
v  2.996 4.353 1.975
v  0 3.227 1.97597e-16
v  1.253 3.208 2.8
v  3.859 5.166 0.574
v  3.075 4.353 1.938
v  3.5 3.264 3.075
v  7.18 3.257 1.363
v  7.659 3.256 1.14
v  5.941 3.226 -2.723
v  7.706 3.226 1.118
v  5.871 3.271 -2.691
v  1.253 -1.71451e-16 2.8
v  3.075 -1.18668e-16 1.938
v  2.996 -1.20934e-16 1.975
v  3.5 -1.88289e-16 3.075
v  7.18 -8.34597e-17 1.363
v  7.706 -6.84578e-17 1.118
v  7.659 -6.98049e-17 1.14
v  5.941 1.66736e-16 -2.723
v  0 0 0
v  5.871 1.64776e-16 -2.691

# 0 UV coordinates

# 33 vertex normals
vn -0.463832 0.859837 0.2134
vn -0.463787 0.859886 0.213304
vn 0.283844 0.743063 0.606044
vn 0.283456 0.743285 0.605953
vn 0.28332 0.743327 0.605966
vn 0.283509 0.743522 0.605639
vn 0.45478 0.865739 -0.208979
vn 0.46393 0.859883 -0.213003
vn 0.453696 0.86321 -0.221424
vn -0.283336 0.74329 -0.606005
vn 0.427819 -0 0.903865
vn 0.42414 0.00180094 0.905595
vn 0.42766 0 0.90394
vn 1.51192e-21 -1 -6.12298e-17
vn 0.421806 -0 0.906686
vn 0.422056 0 0.90657
vn 0.423778 -0.000308375 0.905766
vn 0.422225 0 0.906491
vn 1.85953e-20 1 6.12712e-17
vn -0.936701 0 0.35013
vn -0.936701 0 0.35013
vn 0.908657 0 -0.417542
vn -0.41666 -0.00169411 -0.909061
vn -0.41666 0 -0.909062
vn -0.41666 5.5664e-17 -0.909062
vn 1.0614e-19 1 6.13488e-17
vn -0.912773 -2.50113e-17 0.408466
vn -0.912773 0 0.408466
vn 7.91897e-23 -1 -6.12324e-17
vn 4.74052e-23 -1 -6.12324e-17
vn -6.17096e-24 -1 -6.12323e-17
vn -2.3724e-22 -1 -6.12324e-17
vn 2.69374e-24 -1 -6.12323e-17

# Mesh 'defaultobject' with 38 faces
g defaultobject
usemtl DefaultMaterial
f  1//1 2//1 3//1
f  2//2 1//2 4//2
f  5//3 4//3 1//3
f  4//4 5//4 6//4
f  4//5 6//5 7//5
f  4//6 7//6 8//6
f  9//7 8//7 10//7
f  8//8 9//8 4//8
f  4//9 9//9 11//9
f  11//10 2//10 4//10
f  12//11 1//11 3//11
f  1//12 12//12 5//12
f  5//13 12//13 13//13
f  13//14 12//14 14//14
f  15//15 7//15 6//15
f  7//15 15//15 16//15
f  7//16 16//16 8//16
f  8//17 16//17 10//17
f  10//18 16//18 17//18
f  17//19 16//19 18//19
f  13//20 6//20 5//20
f  6//20 13//20 15//21
f  17//22 9//22 10//22
f  9//22 17//22 19//22
f  9//23 2//23 11//23
f  2//24 9//24 19//24
f  2//24 19//24 20//25
f  20//26 19//26 21//26
f  20//27 3//27 2//27
f  3//27 20//27 12//28
f  18//29 19//29 17//29
f  19//29 18//29 16//30
f  19//29 16//30 15//31
f  19//29 15//31 21//32
f  21//32 15//31 13//14
f  21//32 13//14 20//33
f  20//33 13//14 14//14
f  20//33 14//14 12//14

