# {"id":"_2197","idOriginal":"_2197","origin":[14.308841358967072,48.30394440199041],"elevation":256.081,"wof":[{"Id":102049853,"Name":"Linz","Placetype":"county","Offset":-1},{"Id":85681677,"Name":"Oberösterreich","Placetype":"region","Offset":-1},{"Id":85898449,"Name":"Steeg","Placetype":"neighbourhood","Offset":-1},{"Id":85632785,"Name":"Austria","Placetype":"country","Offset":-1},{"Id":101748071,"Name":"Linz","Placetype":"locality","Offset":-1}]}

# Attribution: City of Linz <http://geo.data.linz.gv.at/katalog/geodata/3d_geo_daten_lod2/>
# Longitude: 14.308841358967072
# Latitude: 48.30394440199041
# Elevation: 256.081

# File produced by Open Asset Import Library (http://www.assimp.sf.net)
# (assimp v3.1.0)


# 32 vertex positions
v  8.379 9.216 10.887
v  6.355 9.216 -4.938
v  0 9.216 5.64317e-16
v  14.753 9.216 6
v  18.199 9.216 23.647
v  14.836 9.216 6.108
v  14.917 9.216 6.045
v  23.925 9.216 -0.938
v  24.018 9.216 -1.01
v  30.29 9.216 -5.911
v  33.69 9.216 11.771
v  40.1 9.216 6.857
v  24.655 9.216 18.698
v  23.974 9.216 -1.068
v  21.811 9.216 -16.946
v  15.573 9.216 -12.099
v  6.355 3.02365e-16 -4.938
v  0 0 0
v  21.811 1.03764e-15 -16.946
v  15.573 7.4085e-16 -12.099
v  24.018 6.18447e-17 -1.01
v  23.925 5.74359e-17 -0.938
v  14.917 -3.70149e-16 6.045
v  14.836 -3.74007e-16 6.108
v  8.379 -6.66636e-16 10.887
v  18.199 -1.44796e-15 23.647
v  23.974 6.53961e-17 -1.068
v  24.655 -1.14492e-15 18.698
v  33.69 -7.20766e-16 11.771
v  40.1 -4.1987e-16 6.857
v  30.29 3.61944e-16 -5.911
v  14.753 -3.67394e-16 6

# 0 UV coordinates

# 35 vertex normals
vn 0 1 0
vn -0.613571 0 -0.78964
vn -0.613571 4.83515e-17 -0.78964
vn -0.613564 0 -0.789645
vn -0.612171 0 -0.790725
vn -0.61267 -8.05656e-06 -0.790339
vn -0.61217 0.000781287 -0.790726
vn -0.61267 -0 -0.790339
vn -0.613942 -0 -0.789351
vn -0.79247 -3.73463e-17 0.609911
vn -0.79247 0 0.609911
vn -0.792485 0 0.609891
vn -0.795556 0 0.60588
vn -0.796687 0 0.604392
vn 0.608385 -0 0.793642
vn 0.608441 0 0.793599
vn 0.608406 0 0.793626
vn 0.79297 0 -0.60926
vn 0.792952 0 -0.609284
vn 0.793179 0 -0.608989
vn 0.792894 0.000692861 -0.609359
vn 0.793179 -6.84362e-06 -0.608989
vn 0.792896 0 -0.609357
vn 0 -1 -6.12323e-17
vn 0 -1 -6.12323e-17
vn 6.72647e-24 -1 -6.12323e-17
vn -8.08149e-23 -1 -6.12323e-17
vn 5.79995e-24 -1 -6.12323e-17
vn 3.51054e-24 -1 -6.12323e-17
vn -2.32729e-24 -1 -6.12323e-17
vn 3.2608e-24 -1 -6.12323e-17
vn 3.48603e-22 -1 -6.12324e-17
vn -3.63417e-22 -1 -6.12323e-17
vn 1.53299e-23 -1 -6.12323e-17
vn -6.537e-24 -1 -6.12323e-17

# Mesh 'defaultobject' with 60 faces
g defaultobject
usemtl DefaultMaterial
f  1//1 2//1 3//1
f  2//1 1//1 4//1
f  4//1 1//1 5//1
f  4//1 5//1 6//1
f  6//1 5//1 7//1
f  7//1 5//1 8//1
f  8//1 5//1 9//1
f  9//1 5//1 10//1
f  10//1 5//1 11//1
f  10//1 11//1 12//1
f  11//1 5//1 13//1
f  14//1 15//1 16//1
f  15//1 14//1 10//1
f  10//1 14//1 9//1
f  17//2 3//2 2//2
f  3//2 17//2 18//3
f  19//4 16//4 15//4
f  16//4 19//4 20//4
f  21//5 8//5 9//5
f  8//6 21//6 7//6
f  7//7 21//7 22//7
f  7//6 22//8 23//8
f  7//9 23//9 6//9
f  6//9 23//9 24//9
f  18//10 1//10 3//10
f  1//10 18//10 25//11
f  1//12 25//12 5//12
f  5//12 25//12 26//12
f  20//13 14//13 16//13
f  14//13 20//13 27//13
f  14//14 27//14 9//14
f  9//14 27//14 21//14
f  26//15 13//15 5//15
f  13//15 26//15 28//15
f  13//16 28//16 11//16
f  11//16 28//16 29//16
f  11//17 29//17 12//17
f  12//17 29//17 30//17
f  30//18 10//18 12//18
f  10//18 30//18 31//18
f  10//19 31//19 15//19
f  15//19 31//19 19//19
f  4//20 17//20 2//20
f  17//21 4//21 6//21
f  17//20 6//22 32//22
f  32//23 6//23 24//23
f  30//24 29//24 31//24
f  19//25 31//24 29//24
f  21//26 19//25 29//24
f  27//27 19//25 21//26
f  20//28 19//25 27//27
f  22//29 21//26 29//24
f  28//24 22//29 29//24
f  23//30 22//29 28//24
f  26//31 23//30 28//24
f  24//32 23//30 26//31
f  32//33 24//32 26//31
f  17//34 32//33 26//31
f  25//35 17//34 26//31
f  18//25 17//34 25//35

