# {"id":"ID_28721","idOriginal":"ID_28721","origin":[14.360507428893412,48.259462863228215],"elevation":253.14}
# Longitude: 14.360507428893412
# Latitude: 48.259462863228215
# Elevation: 253.14

# File produced by Open Asset Import Library (http://www.assimp.sf.net)
# (assimp v3.1.0)

mtllib ID_28721.obj.mtl

# 20 vertex positions
v  7.304 5.722 7.791
v  7.71 5.722 11.068
v  7.857 5.722 11.046
v  5.837 5.722 -0.837
v  7.458 5.722 11.106
v  4.892 5.722 -0.698
v  1.489 5.722 12.011
v  3.486 5.722 -0.498
v  2.171 5.722 -0.31
v  0 5.722 3.50371e-16
v  5.837 5.12515e-17 -0.837
v  0 0 0
v  3.486 3.04937e-17 -0.498
v  4.892 4.27402e-17 -0.698
v  2.171 1.8982e-17 -0.31
v  1.489 -7.35462e-16 12.011
v  7.458 -6.80046e-16 11.106
v  7.71 -6.7772e-16 11.068
v  7.857 -6.76372e-16 11.046
v  7.304 -4.77061e-16 7.791

# 0 UV coordinates

# 25 vertex normals
vn 0 1 0
vn -0.145524 0 -0.989355
vn -0.14083 0.000791776 -0.990034
vn -0.141527 0.000499555 -0.989934
vn -0.141357 0.000610198 -0.989958
vn -0.141944 6.06123e-17 -0.989875
vn 0 -1 -6.12322e-17
vn 0 -1 -6.12325e-17
vn -1.66082e-21 -1 -6.12244e-17
vn -0.992403 -7.53329e-18 0.123028
vn -0.992403 0 0.123028
vn 0.149903 -0 0.988701
vn 0.149108 0 0.988821
vn 0.148014 4.93047e-05 0.988985
vn 0.149108 -2.87569e-05 0.988821
vn 0.148014 0 0.988985
vn 0.985851 0 -0.167622
vn 0.985873 -0.000201114 -0.167493
vn 0.985851 7.58705e-05 -0.167622
vn 0.985873 0 -0.167492
vn 0 -1 -6.12323e-17
vn -1.12712e-23 -1 -6.12323e-17
vn -3.98509e-24 -1 -6.12323e-17
vn 6.78475e-23 -1 -6.12323e-17
vn -2.03149e-22 -1 -6.12323e-17

# Mesh 'defaultobject' with 36 faces
g defaultobject
usemtl DefaultMaterial
f  1//1 2//1 3//1
f  2//1 1//1 4//1
f  2//1 4//1 5//1
f  5//1 4//1 6//1
f  5//1 6//1 7//1
f  7//1 6//1 8//1
f  7//1 8//1 9//1
f  7//1 9//1 10//1
f  11//2 6//2 4//2
f  6//3 11//3 8//3
f  8//4 11//4 9//4
f  9//5 11//5 10//5
f  10//6 11//6 12//6
f  12//7 11//7 13//7
f  13//7 11//7 14//8
f  12//7 13//7 15//9
f  12//10 7//10 10//10
f  7//10 12//10 16//11
f  16//12 5//12 7//12
f  5//12 16//12 17//12
f  5//13 17//13 2//13
f  2//14 17//14 3//14
f  3//15 17//15 18//15
f  3//16 18//16 19//16
f  1//17 11//17 4//17
f  11//18 1//18 3//18
f  11//19 3//19 20//19
f  20//20 3//20 19//20
f  15//9 16//21 12//7
f  16//21 15//9 13//7
f  16//21 13//7 14//8
f  16//21 14//8 11//7
f  16//21 11//7 20//22
f  16//21 20//22 17//23
f  17//23 20//22 18//24
f  18//24 20//22 19//25

