# {"id":"ID_23216","idOriginal":"ID_23216","origin":[14.286536805118814,48.30298184191083],"elevation":264.87,"wof":[{"Id":85898449,"Name":"Steeg","Placetype":"neighbourhood","Offset":-1},{"Id":102049853,"Name":"Linz","Placetype":"county","Offset":-1},{"Id":101748071,"Name":"Linz","Placetype":"locality","Offset":-1},{"Id":85681677,"Name":"Oberösterreich","Placetype":"region","Offset":-1},{"Id":85632785,"Name":"Austria","Placetype":"country","Offset":-1}]}

# Attribution: City of Linz <http://geo.data.linz.gv.at/katalog/geodata/3d_geo_daten_lod2/>
# Longitude: 14.286536805118814
# Latitude: 48.30298184191083
# Elevation: 264.87

# File produced by Open Asset Import Library (http://www.assimp.sf.net)
# (assimp v3.1.0)


# 14 vertex positions
v  3.265 11.808 -1.774
v  15.122 12.064 -7.715
v  14.902 11.889 -8.098
v  0 11.786 7.21684e-16
v  0.026 11.808 0.05
v  3.049 14.41 5.853
v  17.964 14.41 -2.549
v  14.902 4.95859e-16 -8.098
v  3.265 1.08626e-16 -1.774
v  0 0 0
v  3.049 -3.58393e-16 5.853
v  0.026 -3.06162e-18 0.05
v  17.964 1.56081e-16 -2.549
v  15.122 4.72407e-16 -7.715

# 0 UV coordinates

# 23 vertex normals
vn -0.180862 0.929683 -0.320902
vn -0.183266 0.927508 -0.325794
vn -0.178783 0.931468 -0.316865
vn -0.181439 0.929155 -0.322104
vn -0.181458 0.929146 -0.32212
vn -0.477487 0 -0.878639
vn -0.477487 -0 -0.878639
vn -0.477418 -0 -0.878676
vn -0.477418 5.38034e-17 -0.878676
vn -0.886876 0 0.462007
vn -0.887156 -0.000334623 0.461469
vn -0.886879 0 0.462001
vn 0 1 6.1375e-17
vn 0.490808 -0 0.871268
vn 0.867127 0 -0.498088
vn 0.867127 0 -0.498088
vn 0.876166 0 -0.48201
vn 0.876166 0 -0.48201
vn -6.32117e-23 -1 -6.12324e-17
vn 4.3554e-24 -1 -6.12323e-17
vn -3.78336e-24 -1 -6.12323e-17
vn -3.1535e-25 -1 -6.12323e-17
vn -6.61306e-21 -1 -6.12281e-17

# Mesh 'defaultobject' with 24 faces
g defaultobject
usemtl DefaultMaterial
f  1//1 2//1 3//1
f  2//2 1//2 4//2
f  2//3 4//3 5//3
f  2//4 5//4 6//4
f  2//5 6//5 7//5
f  8//6 1//6 3//6
f  1//6 8//6 9//7
f  1//8 9//8 4//8
f  4//8 9//8 10//9
f  5//10 11//10 6//10
f  11//11 5//11 4//11
f  11//10 4//12 10//12
f  11//13 10//13 12//13
f  11//14 7//14 6//14
f  7//14 11//14 13//14
f  14//15 3//15 2//15
f  3//15 14//15 8//16
f  13//17 2//17 7//17
f  2//17 13//17 14//18
f  9//19 12//19 10//19
f  12//19 9//19 11//20
f  11//20 9//19 13//21
f  13//21 9//19 8//22
f  13//21 8//22 14//23

