# {"id":"ID_38041","idOriginal":"ID_38041","origin":[14.268989825088177,48.31880556170072],"elevation":297.204}
# Longitude: 14.268989825088177
# Latitude: 48.31880556170072
# Elevation: 297.204

# File produced by Open Asset Import Library (http://www.assimp.sf.net)
# (assimp v3.1.0)

mtllib ID_38041.obj.mtl

# 11 vertex positions
v  4.393 3.075 1.425
v  1.411 2.297 5.113
v  7.722 2.297 3.194
v  0.703 3.075 2.547
v  6.153 2.294 -1.903
v  0 2.303 1.41018e-16
v  0 0 0
v  6.153 1.16525e-16 -1.903
v  0.703 -1.55959e-16 2.547
v  1.411 -3.13081e-16 5.113
v  7.722 -1.95576e-16 3.194

# 0 UV coordinates

# 16 vertex normals
vn 0.0816401 0.959817 0.268489
vn 0.0816376 0.959818 0.268487
vn 0.268501 0.959678 -0.0832171
vn -0.08161 0.959841 -0.26841
vn -0.0816123 0.959843 -0.268404
vn -0.295471 0 -0.955352
vn -0.963956 -1.62916e-17 0.266062
vn -0.963975 6.07399e-05 0.265994
vn -0.963956 -0.00010249 0.266062
vn -0.963979 0 0.265977
vn 0.29092 -0 0.956747
vn 0.955742 0 -0.294204
vn 0.955742 0 -0.294204
vn 0 -1 -6.12323e-17
vn 3.03857e-24 -1 -6.12323e-17
vn 1.13101e-24 -1 -6.12323e-17

# Mesh 'defaultobject' with 18 faces
g defaultobject
usemtl DefaultMaterial
f  1//1 2//1 3//1
f  2//1 1//1 4//2
f  1//3 3//3 5//3
f  6//4 1//4 5//4
f  1//4 6//4 4//5
f  5//6 7//6 6//6
f  7//6 5//6 8//6
f  7//7 4//7 6//7
f  4//8 7//8 2//8
f  2//9 7//9 9//9
f  2//10 9//10 10//10
f  10//11 3//11 2//11
f  3//11 10//11 11//11
f  11//12 5//12 3//12
f  5//12 11//12 8//13
f  11//14 7//14 8//14
f  7//14 11//14 9//15
f  9//15 11//14 10//16

