# {"id":"_17650","idOriginal":"_17650","origin":[14.314048709805292,48.29877997866563],"elevation":258.625}
# Longitude: 14.314048709805292
# Latitude: 48.29877997866563
# Elevation: 258.625

# File produced by Open Asset Import Library (http://www.assimp.sf.net)
# (assimp v3.1.0)

mtllib _17650.obj.mtl

# 20 vertex positions
v  6.763 10.385 -1.198
v  14.111 7.16 3.761
v  13.036 7.16 -2.309
v  8.853 10.385 10.604
v  11.702 8.92 10.099
v  15.616 6.908 9.406
v  14.601 6.908 3.674
v  2.09 6.908 11.802
v  5.641 9.808 -0.999
v  0 6.908 4.22993e-16
v  13.036 1.41385e-16 -2.309
v  6.763 7.33563e-17 -1.198
v  5.641 6.11711e-17 -0.999
v  0 0 0
v  14.111 -2.30295e-16 3.761
v  14.601 -2.24968e-16 3.674
v  2.09 -7.22664e-16 11.802
v  8.853 -6.49308e-16 10.604
v  11.702 -6.18385e-16 10.099
v  15.616 -5.75951e-16 9.406

# 0 UV coordinates

# 33 vertex normals
vn 0.444734 0.892193 -0.0787626
vn 0.444731 0.892195 -0.0787568
vn 0.444817 0.892159 -0.0786741
vn 0.444703 0.892211 -0.0787318
vn 0.444831 0.892144 -0.078769
vn -0.444725 0.892198 0.0787558
vn -0.444835 0.892147 0.0787138
vn -0.444742 0.892189 0.0787587
vn -0.174394 0 -0.984676
vn -0.174579 -0.000115046 -0.984643
vn -0.174396 2.69832e-05 -0.984676
vn -0.174394 3.09019e-05 -0.984676
vn -0.174636 -0.000213469 -0.984633
vn -0.174383 6.02941e-17 -0.984678
vn -0.174817 0 -0.984601
vn -0.984679 -1.06774e-17 0.174375
vn -0.984679 0 0.174375
vn 0.174425 -0 0.984671
vn 0.174507 -5.5191e-05 0.984656
vn 0.174425 3.61295e-05 0.984671
vn 0.174372 5.36417e-05 0.98468
vn 0.174535 -0.00011079 0.984651
vn 0.174345 0 0.984685
vn 0.984681 0 -0.174364
vn 0.984677 0 -0.174387
vn -7.71006e-25 -1 -6.12323e-17
vn -6.20261e-23 -1 -6.12324e-17
vn 0 -1 -6.12323e-17
vn -1.2862e-24 -1 -6.12323e-17
vn -1.07841e-23 -1 -6.12323e-17
vn -9.4308e-24 -1 -6.12323e-17
vn 0 -1 -6.12324e-17
vn 5.71987e-24 -1 -6.12323e-17

# Mesh 'defaultobject' with 36 faces
g defaultobject
usemtl DefaultMaterial
f  1//1 2//1 3//1
f  2//1 1//1 4//2
f  2//3 4//3 5//3
f  2//4 5//4 6//4
f  6//5 7//5 2//5
f  8//6 9//6 10//6
f  9//7 8//7 1//7
f  1//8 8//8 4//8
f  11//9 1//9 3//9
f  1//10 11//10 9//10
f  9//11 11//11 10//11
f  10//11 11//11 12//12
f  10//13 12//13 13//13
f  10//14 13//14 14//14
f  7//15 15//15 2//15
f  15//15 7//15 16//15
f  14//16 8//16 10//16
f  8//16 14//16 17//17
f  17//18 4//18 8//18
f  4//19 17//19 5//19
f  5//20 17//20 18//20
f  5//21 18//21 6//21
f  6//22 18//22 19//22
f  6//23 19//23 20//23
f  20//24 7//24 6//24
f  7//24 20//24 16//24
f  15//25 3//25 2//25
f  3//25 15//25 11//25
f  13//26 17//26 14//26
f  17//26 13//26 12//27
f  17//26 12//27 11//28
f  17//26 11//28 18//29
f  18//29 11//28 15//30
f  18//29 15//30 19//31
f  19//31 15//30 16//32
f  19//31 16//32 20//33

