# {"id":"ID_52871","idOriginal":"ID_52871","origin":[14.294864874821156,48.252476358238155],"elevation":264.524,"wof":[{"Id":101748071,"Name":"Linz","Placetype":"locality","Offset":-1},{"Id":85681677,"Name":"Oberösterreich","Placetype":"region","Offset":-1},{"Id":85898447,"Name":"Scharlinz","Placetype":"neighbourhood","Offset":-1},{"Id":102049853,"Name":"Linz","Placetype":"county","Offset":-1},{"Id":85632785,"Name":"Austria","Placetype":"country","Offset":-1}]}

# Attribution: City of Linz <http://geo.data.linz.gv.at/katalog/geodata/3d_geo_daten_lod2/>
# Longitude: 14.294864874821156
# Latitude: 48.252476358238155
# Elevation: 264.524

# File produced by Open Asset Import Library (http://www.assimp.sf.net)
# (assimp v3.1.0)


# 8 vertex positions
v  3.146 6.076 -3.377
v  0 6.076 3.72048e-16
v  2.616 6.076 0.373
v  0.536 6.076 -3.749
v  2.616 -2.28397e-17 0.373
v  3.146 2.06782e-16 -3.377
v  0.536 2.2956e-16 -3.749
v  0 0 0

# 0 UV coordinates

# 9 vertex normals
vn 0 1 0
vn 0.99016 -0 0.139943
vn 0.141103 0 -0.989995
vn -0.989934 0 -0.141532
vn -0.989934 8.66635e-18 -0.141532
vn -0.141156 -6.06192e-17 0.989987
vn -0.141156 0 0.989987
vn -6.61236e-25 -1 -6.12323e-17
vn -3.31393e-24 -1 -6.12323e-17

# Mesh 'defaultobject' with 12 faces
g defaultobject
usemtl DefaultMaterial
f  1//1 2//1 3//1
f  2//1 1//1 4//1
f  5//2 1//2 3//2
f  1//2 5//2 6//2
f  6//3 4//3 1//3
f  4//3 6//3 7//3
f  7//4 2//4 4//4
f  2//4 7//4 8//5
f  8//6 3//6 2//6
f  3//6 8//6 5//7
f  8//8 6//8 5//8
f  6//8 8//8 7//9

