# {"id":"ID_54830","idOriginal":"ID_54830","origin":[14.312870563616636,48.27311579492143],"elevation":260.921}
# Longitude: 14.312870563616636
# Latitude: 48.27311579492143
# Elevation: 260.921

# File produced by Open Asset Import Library (http://www.assimp.sf.net)
# (assimp v3.1.0)

mtllib ID_54830.obj.mtl

# 10 vertex positions
v  0.056 10.174 -0.029
v  1.264 10.174 -3.718
v  0 10.174 6.22978e-16
v  4.763 10.174 -2.481
v  5.038 10.174 -2.624
v  5.038 1.60674e-16 -2.624
v  4.763 1.51917e-16 -2.481
v  0 0 0
v  0.056 1.77574e-18 -0.029
v  1.264 2.27662e-16 -3.718

# 0 UV coordinates

# 13 vertex normals
vn 0 1 0
vn 0.461353 0 0.887217
vn 0.461999 2.21984e-05 0.88688
vn 0.459856 -0.00131247 0.887993
vn 0.461353 -0.000369628 0.887217
vn 0.461974 0 0.886893
vn 3.26921e-20 1 6.1265e-17
vn 0.278416 0 -0.96046
vn -0.946782 0 -0.321875
vn -0.946782 1.97092e-17 -0.321875
vn -2.95234e-24 -1 -6.12323e-17
vn 1.83791e-24 -1 -6.12323e-17
vn -3.08592e-22 -1 -6.12324e-17

# Mesh 'defaultobject' with 16 faces
g defaultobject
usemtl DefaultMaterial
f  1//1 2//1 3//1
f  2//1 1//1 4//1
f  2//1 4//1 5//1
f  4//2 6//2 5//2
f  6//3 4//3 1//3
f  6//4 1//4 3//4
f  6//5 3//5 7//5
f  7//6 3//6 8//6
f  7//7 8//7 9//7
f  6//8 2//8 5//8
f  2//8 6//8 10//8
f  10//9 3//9 2//9
f  3//9 10//9 8//10
f  7//11 10//11 6//11
f  10//11 7//11 9//12
f  10//11 9//12 8//13

