# {"id":"ID_20969","idOriginal":"ID_20969","origin":[14.279698064172521,48.31690195365409],"elevation":276.897}
# Longitude: 14.279698064172521
# Latitude: 48.31690195365409
# Elevation: 276.897

# File produced by Open Asset Import Library (http://www.assimp.sf.net)
# (assimp v3.1.0)

mtllib ID_20969.obj.mtl

# 48 vertex positions
v  11.22 6.342 10.716
v  9.535 4.973 11.55
v  9.626 4.972 11.701
v  7.245 3.232 12.369
v  7.463 3.199 12.813
v  4.499 3.121 8.152
v  4.506 3.24 7.849
v  3.338 6.342 -2.226
v  4.374 3.114 7.963
v  1.443 3.335 2.569
v  1.299 3.213 2.655
v  0.105 3.423 0.142
v  0 3.411 2.08864e-16
v  3.099 6.139 -2.086
v  12.869 4.925 9.697
v  12.764 4.928 9.532
v  14.528 3.381 8.362
v  14.824 3.122 8.166
v  9.942 3.112 0.122
v  9.774 3.111 -0.155
v  5.129 4.874 -3.148
v  7.139 3.105 -4.497
v  5.055 4.887 -3.234
v  5.129 1.92759e-16 -3.148
v  7.139 2.75362e-16 -4.497
v  3.099 1.27731e-16 -2.086
v  5.055 1.98025e-16 -3.234
v  3.338 1.36303e-16 -2.226
v  0 0 0
v  1.443 -1.57306e-16 2.569
v  1.299 -1.62572e-16 2.655
v  4.506 -4.80613e-16 7.849
v  4.374 -4.87593e-16 7.963
v  12.764 -5.83667e-16 9.532
v  12.869 -5.9377e-16 9.697
v  14.824 -5.00023e-16 8.166
v  9.942 -7.47035e-18 0.122
v  9.774 9.49101e-18 -0.155
v  0.105 -8.69499e-18 0.142
v  7.245 -7.57383e-16 12.369
v  4.499 -4.99166e-16 8.152
v  7.463 -7.8457e-16 12.813
v  9.535 -7.07234e-16 11.55
v  9.626 -7.1648e-16 11.701
v  11.22 -6.56166e-16 10.716
v  14.503 3.403 8.379
v  14.528 -5.12025e-16 8.362
v  14.503 -5.13066e-16 8.379

# 0 UV coordinates

# 73 vertex normals
vn -0.503134 0.807246 0.308561
vn -0.503814 0.807277 0.307369
vn -0.504001 0.807322 0.306942
vn -0.504 0.807324 0.306939
vn -0.503804 0.807929 0.305666
vn -0.504062 0.807267 0.306986
vn -0.506411 0.806529 0.305056
vn -0.504138 0.807222 0.306981
vn -0.502391 0.808685 0.305994
vn -0.503952 0.807293 0.307099
vn -0.50517 0.807204 0.305327
vn -0.517818 0.806478 0.285409
vn 0.504028 0.807297 -0.306965
vn 0.500572 0.810635 -0.303807
vn 0.504168 0.807155 -0.307108
vn 0.503735 0.807652 -0.306512
vn 0.503984 0.807357 -0.306878
vn 0.504223 0.806505 -0.308722
vn 0.50401 0.807456 -0.306576
vn 0.504227 0.807117 -0.307112
vn 0.502121 0.807316 -0.310024
vn -0.557272 0 -0.83033
vn -0.557272 0 -0.83033
vn -0.505858 0.000658966 -0.862616
vn -0.506172 -0 -0.862432
vn -0.506172 0 -0.862433
vn 1.24409e-20 -1 -6.12091e-17
vn -0.558401 0 -0.829571
vn -0.558401 5.07966e-17 -0.829571
vn -0.512741 0 -0.858543
vn -0.512741 -0 -0.858543
vn -0.653619 0 -0.756823
vn 0.758009 0 -0.652244
vn 0.758009 0 -0.652244
vn 0.843662 0 -0.536875
vn 0.843662 0 -0.536875
vn 0.854875 0 -0.518834
vn 0.854875 0 -0.518834
vn 0.855032 0 -0.518576
vn 0.854894 -2.77265e-05 -0.518803
vn 0.855032 0.00043706 -0.518575
vn 0.854894 0 -0.518803
vn -0.804058 0 0.59455
vn -0.875736 0 0.482791
vn -0.875736 0 0.482791
vn -0.850876 0 0.525367
vn -0.834082 0 0.55164
vn -0.838 0.000518437 0.54567
vn -0.837826 0 0.545937
vn 5.20987e-20 -1 -6.12681e-17
vn -0.897638 0 0.440733
vn -0.856489 0 0.516165
vn 0.520483 0 0.853872
vn 0.525677 -3.45676e-06 0.850684
vn 0.525677 0 0.850684
vn 0 1 6.0624e-17
vn 0.552597 -0 0.833449
vn 0.559322 -0.00496559 0.828936
vn 0.552296 0.000330625 0.833648
vn 0.552736 -8.74795e-05 0.833356
vn 0.552095 0 0.833781
vn -1.00488e-19 1 6.10808e-17
vn -5.23695e-23 -1 -6.12324e-17
vn 1.72479e-22 -1 -6.12324e-17
vn -1.49147e-21 -1 -6.12317e-17
vn 0 -1 -6.12323e-17
vn 0 -1 -6.12323e-17
vn 5.31715e-22 -1 -6.1232e-17
vn 0 -1 -6.12323e-17
vn 0 -1 -6.12321e-17
vn 2.44237e-24 -1 -6.12323e-17
vn -1.62422e-23 -1 -6.12323e-17
vn 0 -1 -6.12324e-17

# Mesh 'defaultobject' with 91 faces
g defaultobject
usemtl DefaultMaterial
f  1//1 2//1 3//1
f  2//2 4//2 5//2
f  4//3 2//3 6//3
f  6//3 2//3 1//4
f  6//5 1//5 7//5
f  7//6 1//6 8//6
f  6//7 7//7 9//7
f  7//8 8//8 10//8
f  7//9 10//9 11//9
f  10//10 8//10 12//10
f  12//11 8//11 13//11
f  13//12 8//12 14//12
f  15//13 8//13 1//13
f  8//14 15//14 16//14
f  8//15 16//15 17//15
f  8//16 17//16 18//16
f  8//17 18//17 19//17
f  8//18 19//18 20//18
f  8//19 20//19 21//19
f  21//20 20//20 22//20
f  23//21 8//21 21//21
f  22//22 24//22 21//22
f  24//22 22//22 25//23
f  23//24 14//24 8//24
f  14//25 23//25 26//25
f  26//25 23//25 27//26
f  26//27 27//27 28//27
f  26//28 13//28 14//28
f  13//28 26//28 29//29
f  30//30 11//30 10//30
f  11//30 30//30 31//31
f  32//32 9//32 7//32
f  9//32 32//32 33//32
f  21//33 27//33 23//33
f  27//33 21//33 24//34
f  15//35 34//35 16//35
f  34//35 15//35 35//36
f  36//37 19//37 18//37
f  19//37 36//37 37//38
f  19//39 37//39 20//39
f  20//40 37//40 22//40
f  22//41 37//41 38//41
f  22//42 38//42 25//42
f  13//43 39//43 12//43
f  39//43 13//43 29//43
f  39//44 10//44 12//44
f  10//44 39//44 30//45
f  11//46 32//46 7//46
f  32//46 11//46 31//46
f  33//47 6//47 9//47
f  6//48 33//48 4//48
f  4//49 33//49 40//49
f  40//50 33//50 41//50
f  40//51 5//51 4//51
f  5//51 40//51 42//51
f  43//52 3//52 2//52
f  3//52 43//52 44//52
f  5//53 43//53 2//53
f  43//53 5//53 42//53
f  3//54 15//54 1//54
f  15//54 3//54 44//55
f  15//54 44//55 35//55
f  35//56 44//56 45//56
f  34//57 46//57 16//57
f  46//58 34//58 17//58
f  17//59 34//59 18//59
f  18//60 34//60 47//60
f  18//61 47//61 36//61
f  47//62 34//62 48//62
f  45//63 34//63 35//63
f  47//64 37//64 36//64
f  37//64 47//64 48//65
f  37//64 48//65 34//63
f  37//64 34//63 45//63
f  37//64 45//63 44//66
f  37//64 44//66 43//67
f  37//64 43//67 42//66
f  37//64 42//66 40//50
f  37//64 40//50 41//50
f  37//64 41//50 32//68
f  32//68 41//50 33//50
f  37//64 32//68 31//69
f  37//64 31//69 38//67
f  38//67 31//69 30//70
f  30//70 25//71 38//67
f  25//71 30//70 24//72
f  24//72 30//70 39//67
f  24//72 39//67 27//27
f  27//27 39//67 28//27
f  28//27 39//67 26//27
f  26//27 39//67 29//73

