# {"id":"_10361","idOriginal":"_10361","origin":[14.283481170972424,48.29674667392376],"elevation":267.025}
# Longitude: 14.283481170972424
# Latitude: 48.29674667392376
# Elevation: 267.025

# File produced by Open Asset Import Library (http://www.assimp.sf.net)
# (assimp v3.1.0)

mtllib _10361.obj.mtl

# 24 vertex positions
v  0.513 6.012 4.302
v  1.68 6.682 -0.315
v  0 6.667 4.08236e-16
v  8.214 7.843 -8.901
v  12.647 7.812 -9.267
v  0.357 5.025 10.899
v  13.74 6.13 1.8
v  13.716 5.025 9.171
v  14.459 5.025 9.075
v  2.093 7.868 -8.276
v  5.084 7.868 -8.663
v  2.101 7.892 -8.436
v  0 0 0
v  0.513 -2.63422e-16 4.302
v  0.357 -6.67371e-16 10.899
v  2.101 5.16556e-16 -8.436
v  1.68 1.92882e-17 -0.315
v  2.093 5.06759e-16 -8.276
v  13.716 -5.61562e-16 9.171
v  14.459 -5.55683e-16 9.075
v  13.74 -1.10218e-16 1.8
v  12.647 5.6744e-16 -9.267
v  8.214 5.45029e-16 -8.901
v  5.084 5.30456e-16 -8.663

# 0 UV coordinates

# 37 vertex normals
vn 0.0189743 0.988763 0.148281
vn 0.0192514 0.988748 0.148349
vn 0.0191581 0.988757 0.148296
vn 0.0192595 0.988742 0.148385
vn 0.0192393 0.988744 0.148373
vn 0.0191813 0.988758 0.148289
vn 0.0191598 0.988758 0.148289
vn 0.0193123 0.98861 0.149258
vn 0.0191878 0.988757 0.148297
vn 0.0191733 0.988758 0.148291
vn -0.992965 -7.2504e-18 0.118408
vn -0.992965 0 0.118408
vn -0.99972 0 -0.0236405
vn -0.998752 0 -0.0499385
vn -0.998657 3.80033e-05 -0.0518026
vn -0.998659 -0 -0.0517714
vn 1.7714e-19 -1 -6.12294e-17
vn 0.128282 -0 0.991738
vn 0.12814 0 0.991756
vn 0.995152 0 -0.0983524
vn 0.995158 0 -0.0982839
vn -0.0822827 0 -0.996609
vn -0.0757896 0.0036937 -0.997117
vn -0.075849 0.00363628 -0.997113
vn -0.0822816 -0.00501394 -0.996596
vn -0.0758194 2.24817e-05 -0.997122
vn -0.0758786 -0 -0.997117
vn -0.184289 0 -0.982872
vn -0.184289 6.01836e-17 -0.982872
vn 6.08907e-24 -1 -6.12323e-17
vn 1.67272e-23 -1 -6.12323e-17
vn 0 -1 -6.12323e-17
vn -1.61455e-24 -1 -6.12323e-17
vn -9.10409e-25 -1 -6.12323e-17
vn -1.21885e-24 -1 -6.12323e-17
vn -2.15141e-24 -1 -6.12323e-17
vn 1.99454e-23 -1 -6.12323e-17

# Mesh 'defaultobject' with 44 faces
g defaultobject
usemtl DefaultMaterial
f  1//1 2//1 3//1
f  2//2 1//2 4//2
f  4//3 1//3 5//3
f  5//4 1//4 6//4
f  5//5 6//5 7//5
f  7//6 6//6 8//6
f  7//7 8//7 9//7
f  10//8 11//8 12//8
f  11//9 10//9 2//9
f  11//10 2//10 4//10
f  13//11 1//11 3//11
f  1//11 13//11 14//12
f  14//13 6//13 1//13
f  6//13 14//13 15//13
f  16//14 10//14 12//14
f  10//15 16//15 2//15
f  2//16 16//16 17//16
f  17//17 16//17 18//17
f  15//18 8//18 6//18
f  8//18 15//18 19//18
f  8//19 19//19 9//19
f  9//19 19//19 20//19
f  20//20 7//20 9//20
f  7//20 20//20 21//20
f  7//21 21//21 5//21
f  5//21 21//21 22//21
f  22//22 4//22 5//22
f  4//23 22//23 11//23
f  11//24 22//24 12//24
f  12//25 22//25 23//25
f  12//26 23//26 24//26
f  12//27 24//27 16//27
f  17//28 3//28 2//28
f  3//28 17//28 13//29
f  24//30 18//17 16//17
f  18//17 24//30 17//17
f  17//17 24//30 23//31
f  17//17 23//31 22//32
f  17//17 22//32 21//33
f  17//17 21//33 14//34
f  14//34 21//33 15//35
f  15//35 21//33 19//36
f  19//36 21//33 20//37
f  14//34 13//32 17//17

