# {"id":"ID_25735","idOriginal":"ID_25735","origin":[14.318412463933964,48.25951324536729],"elevation":257.491,"wof":[{"Id":102049853,"Name":"Linz","Placetype":"county","Offset":-1},{"Id":101748071,"Name":"Linz","Placetype":"locality","Offset":-1},{"Id":85632785,"Name":"Austria","Placetype":"country","Offset":-1},{"Id":85681677,"Name":"Oberösterreich","Placetype":"region","Offset":-1},{"Id":85898429,"Name":"Kleinmünchen","Placetype":"neighbourhood","Offset":-1}]}

# Attribution: City of Linz <http://geo.data.linz.gv.at/katalog/geodata/3d_geo_daten_lod2/>
# Longitude: 14.318412463933964
# Latitude: 48.25951324536729
# Elevation: 257.491

# File produced by Open Asset Import Library (http://www.assimp.sf.net)
# (assimp v3.1.0)


# 16 vertex positions
v  1.834 3.982 12.15
v  8.567 3.184 10.861
v  0.67 3.98 4.337
v  3.593 3.775 11.889
v  0.026 3.982 0.179
v  7.541 3.094 -1.123
v  0 3.982 2.43827e-16
v  9.308 3.097 10.751
v  1.834 -7.43973e-16 12.15
v  3.593 -7.27991e-16 11.889
v  8.567 -6.65044e-16 10.861
v  9.308 -6.58309e-16 10.751
v  7.541 6.87639e-17 -1.123
v  0 0 0
v  0.026 -1.09606e-17 0.179
v  0.67 -2.65565e-16 4.337

# 0 UV coordinates

# 26 vertex normals
vn 0.114413 0.993283 -0.0172997
vn 0.114015 0.99329 -0.0193814
vn 0.114489 0.993285 -0.0166297
vn 0.114378 0.993287 -0.0172718
vn 0.114331 0.993293 -0.0172301
vn 0.114112 0.993324 -0.0169305
vn 0.146773 -0 0.98917
vn 0.146773 0 0.98917
vn 0.202397 -0 0.979304
vn 0.146839 -0 0.98916
vn 0.146839 0 0.98916
vn 0.989108 0 -0.147192
vn 0.989108 0 -0.147192
vn -0.147295 0 -0.989093
vn -0.147295 0 -0.989093
vn -0.989615 -8.80172e-18 0.143743
vn -0.988217 -0.000427814 0.153057
vn -0.989566 0.00995625 0.143736
vn -0.988217 0 0.153057
vn -0.989084 0 0.147356
vn 0 -1 -6.12323e-17
vn 0 -1 -6.12323e-17
vn 1.33239e-23 -1 -6.12323e-17
vn 3.71314e-23 -1 -6.12324e-17
vn 0 -1 -6.12323e-17
vn -5.18975e-23 -1 -6.12326e-17

# Mesh 'defaultobject' with 28 faces
g defaultobject
usemtl DefaultMaterial
f  1//1 2//1 3//1
f  2//2 1//2 4//2
f  5//3 6//3 7//3
f  6//4 5//4 8//4
f  8//5 5//5 3//5
f  8//6 3//6 2//6
f  9//7 4//7 1//7
f  4//7 9//7 10//8
f  10//9 2//9 4//9
f  2//9 10//9 11//9
f  11//10 8//10 2//10
f  8//10 11//10 12//11
f  12//12 6//12 8//12
f  6//12 12//12 13//13
f  6//14 14//14 7//14
f  14//14 6//14 13//15
f  14//16 5//16 7//16
f  5//17 14//17 3//17
f  3//18 14//18 15//18
f  3//19 15//19 16//19
f  3//20 16//20 1//20
f  1//20 16//20 9//20
f  12//21 14//21 13//21
f  14//21 12//21 15//22
f  15//22 12//21 16//23
f  16//23 12//21 11//24
f  16//23 11//24 9//25
f  9//25 11//24 10//26

