# {"id":"ID_7296","idOriginal":"ID_7296","origin":[14.285723287520767,48.26596137827216],"elevation":281.32,"wof":[{"Id":101748071,"Name":"Linz","Placetype":"locality","Offset":-1},{"Id":85681677,"Name":"Oberösterreich","Placetype":"region","Offset":-1},{"Id":85898435,"Name":"Oed","Placetype":"neighbourhood","Offset":-1},{"Id":102049853,"Name":"Linz","Placetype":"county","Offset":-1},{"Id":85632785,"Name":"Austria","Placetype":"country","Offset":-1}]}

# Attribution: City of Linz <http://geo.data.linz.gv.at/katalog/geodata/3d_geo_daten_lod2/>
# Longitude: 14.285723287520767
# Latitude: 48.26596137827216
# Elevation: 281.32

# File produced by Open Asset Import Library (http://www.assimp.sf.net)
# (assimp v3.1.0)


# 79 vertex positions
v  26.366 13.093 8.185
v  23.316 13.049 5.725
v  26.333 13.14 8.223
v  22.536 18.46 12.614
v  22.621 14.075 6.6
v  11.977 18.46 4.31
v  23.254 13.14 5.802
v  17.794 14.075 2.804
v  15.742 12.913 -0.421
v  15.43 11.532 -2.581
v  14.104 13.14 -1.395
v  14.511 12.121 -2.487
v  18.627 12.869 1.787
v  18.44 13.14 2.016
v  18.765 13.177 16.974
v  16.099 13.427 14.53
v  15.941 13.185 14.741
v  9.851 13.14 10.014
v  9.804 13.024 10.138
v  10.255 13.011 10.51
v  13.507 13.554 12.316
v  13.092 12.933 12.85
v  13.231 13.14 12.672
v  15.944 13.435 14.397
v  16.099 -8.89706e-16 14.53
v  15.944 -8.81562e-16 14.397
v  13.507 -7.54138e-16 12.316
v  15.941 -9.02626e-16 14.741
v  18.765 -1.03936e-15 16.974
v  9.804 -6.20773e-16 10.138
v  13.092 -7.86836e-16 12.85
v  10.255 -6.43552e-16 10.51
v  22.621 -4.04133e-16 6.6
v  23.316 -3.50555e-16 5.725
v  23.254 -3.5527e-16 5.802
v  22.536 -7.72385e-16 12.614
v  26.366 -5.01187e-16 8.185
v  26.333 -5.03514e-16 8.223
v  17.794 -1.71695e-16 2.804
v  18.627 -1.09422e-16 1.787
v  18.44 -1.23444e-16 2.016
v  13.231 -7.75936e-16 12.672
v  15.742 2.57788e-17 -0.421
v  15.43 1.58041e-16 -2.581
v  14.511 1.52285e-16 -2.487
v  14.104 8.54191e-17 -1.395
v  11.977 -2.63911e-16 4.31
v  9.851 -6.13181e-16 10.014
v  7.974 13.48 10.025
v  4.515 14.249 9.563
v  4.671 13.509 10.304
v  9.851 13.32 10.014
v  9.673 13.32 10.03
v  9.804 13.202 10.138
v  9.509 13.468 9.895
v  11.977 18.71 4.31
v  0.531 18.71 5.378
v  0.978 14.234 9.908
v  6.3 12.055 -1.958
v  9.364 12.332 -1.961
v  9.395 12.126 -2.175
v  14.104 13.32 -1.395
v  14.511 12.288 -2.487
v  6.485 13.32 -0.684
v  6.494 13.379 -0.624
v  0 13.397 8.2033e-16
v  4.515 -5.85565e-16 9.563
v  0.978 -6.0669e-16 9.908
v  4.671 -6.30938e-16 10.304
v  9.509 -6.05894e-16 9.895
v  7.974 -6.13854e-16 10.025
v  6.494 3.8209e-17 -0.624
v  6.3 1.19893e-16 -1.958
v  6.485 4.18829e-17 -0.684
v  0.531 -3.29308e-16 5.378
v  0 0 0
v  9.673 -6.1416e-16 10.03
v  9.364 1.20077e-16 -1.961
v  9.395 1.3318e-16 -2.175

# 0 UV coordinates

# 142 vertex normals
vn 0.422347 0.730458 -0.536707
vn 0.417816 0.736866 -0.531468
vn 0.418683 0.736597 -0.531159
vn 0.417897 0.736884 -0.531379
vn 0.6044 0.712829 -0.355775
vn 0.417896 0.736872 -0.531397
vn 0.417894 0.736871 -0.531399
vn 0.417806 0.736871 -0.531469
vn 0.418516 0.736786 -0.531028
vn 0.41777 0.736696 -0.531741
vn 0.417762 0.737116 -0.531164
vn 0.418056 0.736739 -0.531455
vn -0.41824 0.736549 0.531573
vn -0.417942 0.736817 0.531437
vn -0.41797 0.737057 0.531082
vn -0.417857 0.736225 0.532323
vn -0.418004 0.737036 0.531085
vn -0.418198 0.736573 0.531573
vn -0.000273068 0.652086 0.758145
vn -0.417888 0.736796 0.531509
vn -0.417946 0.736836 0.531407
vn -0.41799 0.736864 0.531333
vn -0.651191 0 0.758914
vn -0.649376 3.63276e-05 0.760468
vn -0.651191 -0.000564671 0.758914
vn -0.649377 0 0.760467
vn -0.620247 0 0.784406
vn -0.620247 0 0.784406
vn -0.636307 0 0.771436
vn -0.636298 -5.30164e-07 0.771443
vn -0.636299 0 0.771442
vn 6.28428e-18 1 5.2369e-17
vn -0.800454 0 -0.599394
vn -0.800454 -0 -0.599394
vn -0.783448 0 -0.621457
vn -0.779195 -0.000528251 -0.626781
vn -0.783047 0 -0.621963
vn 3.15046e-20 1 6.12585e-17
vn 0.756382 -5.77784e-05 0.654131
vn 0.756382 0 0.654131
vn 0.755643 0.000993259 0.654983
vn 0.756347 3.92714e-05 0.654171
vn 0.756404 0 0.654104
vn 5.41173e-19 -1 -6.07644e-17
vn 0.773345 -0 0.633986
vn 0.774479 -0.00013887 0.6326
vn 0.773618 0 0.633652
vn -2.00406e-20 1 6.1217e-17
vn 0.790308 0 0.61271
vn 0.788225 -0.000116256 0.615387
vn 0.789591 0 0.613633
vn 2.78951e-20 1 6.12552e-17
vn 0.627802 0 -0.778373
vn 0.627803 0 -0.778373
vn 0.61816 0 -0.786053
vn 0.607767 0 -0.794116
vn 0.607767 0 -0.794116
vn 0.989728 0 -0.14296
vn 0.989728 0 -0.14296
vn -0.101754 0 -0.99481
vn -0.101754 0 -0.99481
vn -0.937013 -5.521e-05 -0.349296
vn -0.937013 6.57957e-05 -0.349296
vn -0.937014 0 -0.349291
vn -0.935991 0.0029507 -0.352011
vn -0.936996 -0 -0.349342
vn 0 -1 -6.10623e-17
vn 0 -1 -6.12582e-17
vn 2.29751e-20 -1 -6.12238e-17
vn -1.39508e-22 -1 -6.12322e-17
vn 6.05684e-24 -1 -6.12323e-17
vn 0 -1 -6.12323e-17
vn 1.97195e-22 -1 -6.12324e-17
vn -2.72269e-22 -1 -6.1232e-17
vn -1.7194e-22 -1 -6.12323e-17
vn -4.80511e-24 -1 -6.12323e-17
vn 0 -1 -6.12323e-17
vn 5.20059e-23 -1 -6.12323e-17
vn 7.06454e-24 -1 -6.12323e-17
vn -2.4656e-23 -1 -6.12323e-17
vn -4.71372e-24 -1 -6.12323e-17
vn 1.99044e-23 -1 -6.12324e-17
vn -1.36729e-22 -1 -6.12321e-17
vn 0.0652366 0.71291 0.698214
vn 0.0629582 0.710952 0.700417
vn 0.0630612 0.709811 0.701563
vn 0.0656046 0.712942 0.698147
vn 0.0651344 0.713071 0.69806
vn 0.06507 0.713029 0.698108
vn 0.0653165 0.713131 0.697982
vn 0.0647242 0.712714 0.698462
vn -0.0652467 0.714172 -0.696923
vn -0.065251 0.712989 -0.698133
vn -0.06528 0.713075 -0.698041
vn -0.0651469 0.713054 -0.698075
vn -0.0644908 0.712798 -0.698398
vn -0.072401 0.716561 -0.693757
vn -0.0651345 0.713069 -0.698062
vn -0.0650976 0.71309 -0.698044
vn 0.0970796 0 0.995277
vn 0.084169 -0 0.996452
vn 0.0843875 -5.3919e-05 0.996433
vn 0.0842385 0 0.996446
vn 1.03224e-20 1 6.13537e-17
vn -0.97855 0 0.206011
vn -0.97855 0 0.206011
vn -0.988937 0 0.148338
vn -0.989618 -2.12361e-05 0.143725
vn -0.98959 0 0.143913
vn -5.65356e-21 1 6.1233e-17
vn -0.995164 3.02719e-05 0.0982282
vn -0.995164 0 0.0982307
vn -0.995167 -2.40205e-05 0.0981986
vn -0.995161 0 0.0982578
vn -0.635539 0 0.772069
vn -0.636114 1.18853e-05 0.771595
vn -0.635797 0 0.771856
vn -1.14142e-20 -1 -6.12183e-17
vn 0.937013 5.44639e-05 0.349296
vn 0.936995 -0.00616495 0.349289
vn 0.936992 0 0.349351
vn 0.937014 -5.93147e-05 0.349291
vn 0.936995 0 0.349342
vn 0 1 6.11905e-17
vn -4.74353e-20 1 6.12271e-17
vn 7.0468e-20 1 6.12719e-17
vn 0.98967 -0 0.143364
vn 0.98967 0 0.143364
vn -0.101666 0 -0.994819
vn -0.0699414 0 -0.997551
vn -0.0699414 -0 -0.997551
vn -0.0956482 0 -0.995415
vn -0.0956482 0 -0.995415
vn 7.09712e-25 -1 -6.12323e-17
vn 6.35626e-25 -1 -6.12323e-17
vn -2.32538e-23 -1 -6.12323e-17
vn 3.73205e-25 -1 -6.12323e-17
vn 3.40865e-24 -1 -6.12323e-17
vn 0 -1 -6.12323e-17
vn 8.61466e-24 -1 -6.12324e-17
vn -1.03224e-20 -1 -6.13507e-17
vn 1.10449e-23 -1 -6.12323e-17

# Mesh 'defaultobject' with 160 faces
g defaultobject
usemtl DefaultMaterial
f  1//1 2//1 3//1
f  4//2 3//2 2//2
f  5//3 4//3 2//3
f  6//4 4//4 5//4
f  7//5 5//5 2//5
f  8//6 6//6 5//6
f  9//7 6//6 8//6
f  10//8 6//8 9//8
f  11//9 6//9 10//9
f  12//10 11//10 10//10
f  13//11 9//11 14//11
f  8//12 14//12 9//12
f  15//13 16//13 17//13
f  18//14 4//14 6//14
f  4//15 18//15 19//15
f  4//16 19//16 20//16
f  4//17 20//17 21//17
f  21//18 20//18 22//18
f  21//19 22//19 23//19
f  4//20 21//20 24//20
f  4//21 24//21 16//21
f  4//22 16//22 15//22
f  24//23 25//23 16//23
f  25//24 24//24 21//24
f  25//25 21//25 26//25
f  26//26 21//26 27//26
f  28//27 15//27 17//27
f  15//27 28//27 29//28
f  30//29 20//29 19//29
f  20//30 30//30 22//30
f  22//30 30//30 31//31
f  31//32 30//32 32//32
f  25//33 17//33 16//33
f  17//33 25//33 28//34
f  7//35 33//35 5//35
f  33//36 7//36 2//36
f  33//37 2//37 34//37
f  33//38 34//38 35//38
f  15//39 3//39 4//39
f  3//40 15//40 29//40
f  3//41 29//41 1//41
f  1//42 29//42 36//42
f  1//43 36//43 37//43
f  37//44 36//44 38//44
f  39//45 14//45 8//45
f  14//46 39//46 13//46
f  13//47 39//47 40//47
f  40//48 39//48 41//48
f  23//49 27//49 21//49
f  27//50 23//50 22//50
f  27//51 22//51 31//51
f  27//52 31//32 42//52
f  37//53 2//53 1//53
f  2//53 37//53 34//54
f  33//55 8//55 5//55
f  8//55 33//55 39//55
f  13//56 43//56 9//56
f  43//56 13//56 40//57
f  43//58 10//58 9//58
f  10//58 43//58 44//59
f  10//60 45//60 12//60
f  45//60 10//60 44//61
f  11//62 18//62 6//62
f  18//63 11//63 12//63
f  18//64 12//64 45//64
f  18//65 45//65 19//65
f  19//66 45//66 30//66
f  30//67 45//67 46//67
f  30//67 46//67 47//68
f  30//67 47//68 48//69
f  29//70 28//70 25//70
f  45//67 43//71 46//67
f  43//71 45//67 44//72
f  48//69 32//73 30//67
f  32//73 48//69 31//74
f  31//74 48//69 47//68
f  31//74 47//68 42//75
f  42//75 47//68 27//76
f  27//76 47//68 26//77
f  26//77 47//68 25//70
f  25//70 47//68 29//70
f  29//70 47//68 36//44
f  36//44 47//68 46//67
f  36//44 46//67 39//78
f  39//78 46//67 41//79
f  41//79 46//67 43//71
f  41//79 43//71 40//80
f  36//44 33//81 38//44
f  33//81 36//44 39//78
f  38//44 33//81 35//82
f  38//44 35//82 34//83
f  38//44 34//83 37//44
f  49//84 50//84 51//84
f  52//85 53//85 54//85
f  53//86 52//86 55//86
f  55//87 52//87 56//87
f  55//88 56//88 57//88
f  50//89 57//89 58//89
f  57//90 50//90 49//90
f  57//91 49//91 55//91
f  59//92 60//92 61//92
f  60//93 62//93 63//93
f  62//94 60//94 56//94
f  56//95 60//95 59//95
f  56//96 59//96 64//96
f  56//97 64//97 65//97
f  56//98 65//98 57//98
f  57//99 65//99 66//99
f  58//100 67//100 50//100
f  67//100 58//100 68//100
f  69//101 49//101 51//101
f  49//102 69//102 55//102
f  55//103 69//103 70//103
f  70//104 69//104 71//104
f  67//105 51//105 50//105
f  51//105 67//105 69//106
f  64//107 72//107 65//107
f  72//108 64//108 59//108
f  72//109 59//109 73//109
f  72//110 73//110 74//110
f  66//111 58//111 57//111
f  58//112 66//112 68//112
f  68//113 66//113 75//113
f  75//114 66//114 76//114
f  70//115 53//115 55//115
f  53//116 70//116 54//116
f  54//117 70//117 30//117
f  30//67 70//118 77//118
f  52//119 62//119 56//119
f  62//120 52//120 54//120
f  62//121 54//121 30//121
f  62//122 30//122 63//122
f  63//123 30//123 45//123
f  45//124 30//32 47//124
f  47//124 30//32 48//125
f  45//124 47//124 46//126
f  78//127 61//127 60//127
f  61//127 78//127 79//128
f  63//129 78//129 60//129
f  78//129 63//129 45//129
f  79//130 59//130 61//130
f  59//130 79//130 73//131
f  65//132 76//132 66//132
f  76//132 65//132 72//133
f  46//67 78//72 45//67
f  78//72 73//134 79//134
f  73//134 78//72 74//135
f  74//135 78//72 46//67
f  74//135 46//67 47//68
f  74//135 47//68 72//136
f  72//136 47//68 76//137
f  76//137 47//68 75//138
f  75//138 47//68 48//69
f  75//138 48//69 70//118
f  75//138 70//118 67//139
f  70//118 48//69 77//118
f  77//118 48//69 30//67
f  70//118 69//140 67//139
f  69//140 70//118 71//141
f  68//142 75//138 67//139

