# {"id":"ID_34674","idOriginal":"ID_34674","origin":[14.271487253201363,48.289069326763276],"elevation":328.452,"wof":[{"Id":102049853,"Name":"Linz","Placetype":"county","Offset":-1},{"Id":101748071,"Name":"Linz","Placetype":"locality","Offset":-1},{"Id":85898459,"Name":"Wegscheid","Placetype":"neighbourhood","Offset":-1},{"Id":85681677,"Name":"Oberösterreich","Placetype":"region","Offset":-1},{"Id":85632785,"Name":"Austria","Placetype":"country","Offset":-1}]}

# Attribution: City of Linz <http://geo.data.linz.gv.at/katalog/geodata/3d_geo_daten_lod2/>
# Longitude: 14.271487253201363
# Latitude: 48.289069326763276
# Elevation: 328.452

# File produced by Open Asset Import Library (http://www.assimp.sf.net)
# (assimp v3.1.0)


# 8 vertex positions
v  0 1.483 9.08076e-17
v  8.056 1.483 -5.104
v  1.192 1.483 -6.39
v  6.861 1.483 1.265
v  8.056 3.1253e-16 -5.104
v  1.192 3.91275e-16 -6.39
v  0 0 0
v  6.861 -7.74589e-17 1.265

# 0 UV coordinates

# 9 vertex normals
vn 0 1 0
vn 0.18415 0 -0.982898
vn -0.983042 0 -0.183378
vn -0.983042 1.12287e-17 -0.183378
vn -0.181319 -6.02174e-17 0.983424
vn -0.181319 0 0.983424
vn 0.982849 -0 0.18441
vn 4.67937e-24 -1 -6.12323e-17
vn 0 -1 -6.12323e-17

# Mesh 'defaultobject' with 12 faces
g defaultobject
usemtl DefaultMaterial
f  1//1 2//1 3//1
f  2//1 1//1 4//1
f  5//2 3//2 2//2
f  3//2 5//2 6//2
f  6//3 1//3 3//3
f  1//3 6//3 7//4
f  7//5 4//5 1//5
f  4//5 7//5 8//6
f  8//7 2//7 4//7
f  2//7 8//7 5//7
f  8//8 6//8 5//8
f  6//8 8//8 7//9

