# {"id":"ID_36365","idOriginal":"ID_36365","origin":[14.28621390540659,48.33821525078983],"elevation":335.004,"wof":[{"Id":85681677,"Name":"Oberösterreich","Placetype":"region","Offset":-1},{"Id":85898425,"Name":"Harbach","Placetype":"neighbourhood","Offset":-1},{"Id":102049853,"Name":"Linz","Placetype":"county","Offset":-1},{"Id":101748071,"Name":"Linz","Placetype":"locality","Offset":-1},{"Id":85632785,"Name":"Austria","Placetype":"country","Offset":-1}]}

# Attribution: City of Linz <http://geo.data.linz.gv.at/katalog/geodata/3d_geo_daten_lod2/>
# Longitude: 14.28621390540659
# Latitude: 48.33821525078983
# Elevation: 335.004

# File produced by Open Asset Import Library (http://www.assimp.sf.net)
# (assimp v3.1.0)


# 12 vertex positions
v  5.617 2.544 7.911
v  0.541 3.241 4.261
v  1.079 2.544 8.504
v  5.068 3.241 3.669
v  4.52 2.546 -0.561
v  0 2.541 1.55591e-16
v  0 0 0
v  0.541 -2.60911e-16 4.261
v  1.079 -5.2072e-16 8.504
v  5.617 -4.84409e-16 7.911
v  5.068 -2.24661e-16 3.669
v  4.52 3.43513e-17 -0.561

# 0 UV coordinates

# 17 vertex normals
vn 0.0208411 0.98698 0.159489
vn 0.0208542 0.986982 0.159471
vn -0.0208531 0.986984 -0.159462
vn -0.0208869 0.986979 -0.15949
vn -0.992036 -7.71248e-18 0.125954
vn -0.992036 0 0.125954
vn -0.992057 0 0.12579
vn 0.129573 -0 0.99157
vn 0.991729 0 -0.12835
vn 0.991729 0 -0.12835
vn 0.991712 0 -0.128477
vn -0.12317 0 -0.992386
vn -0.12317 6.07661e-17 -0.992386
vn 0 -1 -6.12323e-17
vn -5.3871e-24 -1 -6.12323e-17
vn 1.08682e-23 -1 -6.12323e-17
vn 0 -1 -6.12323e-17

# Mesh 'defaultobject' with 20 faces
g defaultobject
usemtl DefaultMaterial
f  1//1 2//1 3//1
f  2//2 1//2 4//2
f  5//3 2//3 4//3
f  2//4 5//4 6//4
f  7//5 2//5 6//5
f  2//5 7//5 8//6
f  2//7 8//7 3//7
f  3//7 8//7 9//7
f  9//8 1//8 3//8
f  1//8 9//8 10//8
f  10//9 4//9 1//9
f  4//9 10//9 11//10
f  4//11 11//11 5//11
f  5//11 11//11 12//11
f  12//12 6//12 5//12
f  6//12 12//12 7//13
f  8//14 10//14 9//14
f  10//14 8//14 7//15
f  10//14 7//15 11//16
f  11//16 7//15 12//17

