# {"id":"ID_25105","idOriginal":"ID_25105","origin":[14.282536505393706,48.23944182428649],"elevation":263.933}
# Longitude: 14.282536505393706
# Latitude: 48.23944182428649
# Elevation: 263.933

# File produced by Open Asset Import Library (http://www.assimp.sf.net)
# (assimp v3.1.0)

mtllib ID_25105.obj.mtl

# 16 vertex positions
v  11.433 9.584 -1.857
v  6.394 4.849 6.734
v  13.873 4.849 1.99
v  2.44 9.584 3.847
v  4.88 4.849 7.694
v  4.271 6.031 6.734
v  0 4.849 2.96916e-16
v  8.993 4.849 -5.704
v  8.993 3.49269e-16 -5.704
v  0 0 0
v  2.44 -2.35561e-16 3.847
v  4.271 -4.12339e-16 6.734
v  4.88 -4.71122e-16 7.694
v  13.873 -1.21852e-16 1.99
v  6.394 -4.12339e-16 6.734
v  11.433 1.13708e-16 -1.857

# 0 UV coordinates

# 27 vertex normals
vn 0.385999 0.693319 0.608534
vn 0.385972 0.693338 0.608529
vn 0.3859 0.693319 0.608596
vn 0.927031 0.252723 -0.277029
vn -0.385982 0.693319 -0.608544
vn -0.535617 0 -0.844461
vn -0.535617 5.17083e-17 -0.844461
vn -0.844465 -3.27967e-17 0.535611
vn -0.844475 8.65995e-06 0.535595
vn -0.844465 -1.54118e-05 0.535611
vn -0.844443 -3.88782e-05 0.535646
vn -0.84448 2.55718e-05 0.535588
vn -0.844421 0 0.53568
vn 0.535503 -0 0.844533
vn 0.53564 -5.99792e-05 0.844446
vn 0.535617 0 0.844461
vn 1.23358e-19 1 6.14323e-17
vn 0.844465 8.84239e-08 -0.535611
vn 0.844465 0 -0.535611
vn 0.844465 -1.7269e-07 -0.535611
vn 0.844465 0 -0.535611
vn 0 -1 -6.12323e-17
vn -1.1633e-23 -1 -6.12323e-17
vn 7.87019e-23 -1 -6.12323e-17
vn -5.50911e-23 -1 -6.12323e-17
vn -1.04968e-23 -1 -6.12323e-17
vn 0 -1 -6.12323e-17

# Mesh 'defaultobject' with 28 faces
g defaultobject
usemtl DefaultMaterial
f  1//1 2//1 3//1
f  2//2 1//2 4//2
f  2//3 4//3 5//3
f  5//4 4//4 6//4
f  7//5 1//5 8//5
f  1//5 7//5 4//5
f  9//6 7//6 8//6
f  7//6 9//6 10//7
f  10//8 4//8 7//8
f  4//9 10//9 6//9
f  6//10 10//10 11//10
f  6//11 11//11 5//11
f  5//12 11//12 12//12
f  5//13 12//13 13//13
f  13//14 2//14 5//14
f  2//15 13//15 3//15
f  3//16 13//16 14//16
f  14//17 13//17 15//17
f  3//18 8//18 1//18
f  8//18 3//18 9//19
f  9//19 3//18 16//20
f  16//20 3//18 14//21
f  9//22 11//22 10//22
f  11//22 9//22 12//23
f  12//23 9//22 13//24
f  13//24 9//22 15//25
f  15//25 9//22 16//26
f  15//25 16//26 14//27

