# {"id":"_34658","idOriginal":"_34658","origin":[14.292849028849053,48.30182081121827],"elevation":260.961}
# Longitude: 14.292849028849053
# Latitude: 48.30182081121827
# Elevation: 260.961

# File produced by Open Asset Import Library (http://www.assimp.sf.net)
# (assimp v3.1.0)

mtllib _34658.obj.mtl

# 12 vertex positions
v  5.558 2.496 9.111
v  3.541 2.496 5.962
v  5.453 2.411 9.18
v  9.154 5.408 6.756
v  3.377 5.408 -2.264
v  0 2.654 1.62511e-16
v  3.377 1.3863e-16 -2.264
v  0 0 0
v  3.541 -3.65067e-16 5.962
v  5.453 -5.62113e-16 9.18
v  9.154 -4.13686e-16 6.756
v  5.558 -5.57888e-16 9.111

# 0 UV coordinates

# 18 vertex normals
vn -0.471868 0.828246 0.302241
vn -0.472303 0.827896 0.30252
vn -0.472304 0.827905 0.302494
vn -0.472357 0.827878 0.302486
vn -0.556855 0 -0.83061
vn -0.556855 5.08602e-17 -0.83061
vn -0.859787 -3.12684e-17 0.510652
vn -0.859787 0 0.510652
vn -0.859701 0 0.510798
vn -0.859701 0 0.510798
vn 0.547863 0 0.836568
vn 0.548471 0.00125147 0.836169
vn 0.547901 0 0.836543
vn -1.86906e-19 -1 -6.14922e-17
vn 0.842093 0 -0.539332
vn 4.50723e-22 -1 -6.12326e-17
vn 2.2996e-24 -1 -6.12323e-17
vn 0 -1 -6.12323e-17

# Mesh 'defaultobject' with 20 faces
g defaultobject
usemtl DefaultMaterial
f  1//1 2//1 3//1
f  2//2 1//2 4//2
f  2//3 4//3 5//3
f  2//4 5//4 6//4
f  7//5 6//5 5//5
f  6//5 7//5 8//6
f  8//7 2//7 6//7
f  2//7 8//7 9//8
f  2//9 9//9 3//9
f  3//9 9//9 10//10
f  1//11 11//11 4//11
f  11//12 1//12 3//12
f  11//13 3//13 10//13
f  11//14 10//14 12//14
f  11//15 5//15 4//15
f  5//15 11//15 7//15
f  9//16 12//14 10//14
f  12//14 9//16 11//14
f  11//14 9//16 7//17
f  7//17 9//16 8//18

