# {"id":"_27634","idOriginal":"_27634","origin":[14.299097691725924,48.3057777758655],"elevation":259.874,"wof":[{"Id":101748071,"Name":"Linz","Placetype":"locality","Offset":-1},{"Id":85681677,"Name":"Oberösterreich","Placetype":"region","Offset":-1},{"Id":85898449,"Name":"Steeg","Placetype":"neighbourhood","Offset":-1},{"Id":102049853,"Name":"Linz","Placetype":"county","Offset":-1},{"Id":85632785,"Name":"Austria","Placetype":"country","Offset":-1}]}

# Attribution: City of Linz <http://geo.data.linz.gv.at/katalog/geodata/3d_geo_daten_lod2/>
# Longitude: 14.299097691725924
# Latitude: 48.3057777758655
# Elevation: 259.874

# File produced by Open Asset Import Library (http://www.assimp.sf.net)
# (assimp v3.1.0)


# 16 vertex positions
v  0.344 6.269 2.341
v  4.803 6.269 -1.028
v  0 6.269 3.83866e-16
v  7.209 6.269 0.89
v  30.672 6.269 -6.691
v  28.775 6.269 -3.729
v  32.88 6.269 -4.611
v  32.474 6.269 -7.176
v  32.88 2.82342e-16 -4.611
v  32.474 4.39403e-16 -7.176
v  30.672 4.09706e-16 -6.691
v  4.803 6.29468e-17 -1.028
v  0 0 0
v  0.344 -1.43345e-16 2.341
v  7.209 -5.44968e-17 0.89
v  28.775 2.28335e-16 -3.729

# 0 UV coordinates

# 17 vertex normals
vn 0 1 0
vn 0.987704 0 -0.156339
vn -0.259897 0 -0.965636
vn -0.213847 0 -0.976867
vn -0.209293 -0 -0.977853
vn -0.209293 5.98762e-17 -0.977853
vn -0.989375 -8.90223e-18 0.145384
vn -0.989375 0 0.145384
vn 0.206793 -0 0.978385
vn 0.20943 0 0.977824
vn 0.210066 0 0.977687
vn -1.14119e-24 -1 -6.12323e-17
vn -1.589e-24 -1 -6.12323e-17
vn 0 -1 -6.12323e-17
vn 0 -1 -6.12323e-17
vn -6.31083e-24 -1 -6.12323e-17
vn -2.74638e-23 -1 -6.12323e-17

# Mesh 'defaultobject' with 28 faces
g defaultobject
usemtl DefaultMaterial
f  1//1 2//1 3//1
f  2//1 1//1 4//1
f  2//1 4//1 5//1
f  5//1 4//1 6//1
f  5//1 6//1 7//1
f  5//1 7//1 8//1
f  9//2 8//2 7//2
f  8//2 9//2 10//2
f  10//3 5//3 8//3
f  5//3 10//3 11//3
f  11//4 2//4 5//4
f  2//4 11//4 12//4
f  2//5 12//5 3//5
f  3//5 12//5 13//6
f  13//7 1//7 3//7
f  1//7 13//7 14//8
f  14//9 4//9 1//9
f  4//9 14//9 15//9
f  4//10 15//10 6//10
f  6//10 15//10 16//10
f  6//11 16//11 7//11
f  7//11 16//11 9//11
f  12//12 14//12 13//12
f  14//12 12//12 15//13
f  15//13 12//12 11//14
f  15//13 11//14 16//15
f  16//15 11//14 9//16
f  9//16 11//14 10//17

