# {"id":"_25518","idOriginal":"_25518","origin":[14.315027489913604,48.29417955828937],"elevation":258.711}
# Longitude: 14.315027489913604
# Latitude: 48.29417955828937
# Elevation: 258.711

# File produced by Open Asset Import Library (http://www.assimp.sf.net)
# (assimp v3.1.0)

mtllib _25518.obj.mtl

# 11 vertex positions
v  6.007 11.896 1.684
v  8.926 7.324 7.203
v  14.071 7.324 0.811
v  4.463 11.896 3.602
v  5.136 7.325 -6.38
v  0 7.324 4.48466e-16
v  5.136 3.90662e-16 -6.38
v  0 0 0
v  4.463 -2.20559e-16 3.602
v  8.926 -4.41057e-16 7.203
v  14.071 -4.96594e-17 0.811

# 0 UV coordinates

# 17 vertex normals
vn 0.485628 0.781903 0.390888
vn 0.485599 0.78191 0.39091
vn 0.390819 0.782021 -0.485494
vn -0.485605 0.781962 -0.390797
vn -0.485566 0.781943 -0.390884
vn -0.778959 0 -0.627074
vn -0.778959 3.83972e-17 -0.627074
vn -0.627996 -8.51105e-05 0.778216
vn -0.627996 0 0.778216
vn -0.628049 0.000106255 0.778174
vn -0.627943 0 0.778259
vn 0.778999 -0 0.627026
vn 0.626978 0 -0.779037
vn 0.626978 0 -0.779037
vn 0 -1 -6.12323e-17
vn 0 -1 -6.12323e-17
vn 1.12507e-24 -1 -6.12323e-17

# Mesh 'defaultobject' with 18 faces
g defaultobject
usemtl DefaultMaterial
f  1//1 2//1 3//1
f  2//2 1//2 4//2
f  1//3 3//3 5//3
f  6//4 1//4 5//4
f  1//5 6//5 4//5
f  7//6 6//6 5//6
f  6//6 7//6 8//7
f  6//8 2//8 4//8
f  2//9 6//9 8//9
f  2//10 8//10 9//10
f  2//11 9//11 10//11
f  10//12 3//12 2//12
f  3//12 10//12 11//12
f  3//13 7//13 5//13
f  7//13 3//13 11//14
f  11//15 8//15 7//15
f  8//15 11//15 9//16
f  9//16 11//15 10//17

