# {"id":"ID_13106","idOriginal":"ID_13106","origin":[14.284281647864324,48.310172785226726],"elevation":258.103}
# Longitude: 14.284281647864324
# Latitude: 48.310172785226726
# Elevation: 258.103

# File produced by Open Asset Import Library (http://www.assimp.sf.net)
# (assimp v3.1.0)

mtllib ID_13106.obj.mtl

# 55 vertex positions
v  5.021 11.814 10.836
v  10.383 10.024 17.383
v  5.513 10.024 10.539
v  5.021 -6.63514e-16 10.836
v  5.513 -6.45328e-16 10.539
v  10.383 -1.0644e-15 17.383
v  3.323 12.498 -1.999
v  5.019 11.249 -2.406
v  4.635 11.277 -2.882
v  14.455 12.498 13.644
v  16.62 8.339 7.399
v  18.752 8.339 10.395
v  8.108 8.339 -4.563
v  12.192 9.994 16.056
v  5.513 8.261 10.539
v  10.383 8.261 17.383
v  12.338 10.449 15.245
v  5.567 8.31 10.506
v  5.807 9.364 8.49
v  4.841 8.377 9.336
v  0.35 9.492 0.536
v  2.518 11.749 -1.458
v  0.074 9.507 0.113
v  0 9.512 5.82442e-16
v  2.145 11.503 -1.432
v  2.411 11.757 -1.626
v  18.752 -6.3651e-16 10.395
v  8.108 2.79403e-16 -4.563
v  16.62 -4.53058e-16 7.399
v  4.635 1.76472e-16 -2.882
v  5.019 1.47325e-16 -2.406
v  2.411 9.95638e-17 -1.626
v  2.518 8.92767e-17 -1.458
v  3.323 1.22403e-16 -1.999
v  2.145 8.76847e-17 -1.432
v  0 0 0
v  5.807 -5.19863e-16 8.49
v  4.841 -5.71665e-16 9.336
v  5.567 -6.43307e-16 10.506
v  0.35 -3.28205e-17 0.536
v  0.074 -6.91925e-18 0.113
v  12.192 -9.83146e-16 16.056
v  12.338 -9.33487e-16 15.245
v  14.455 -8.35454e-16 13.644
v  8.849 10.053 18.508
v  10.383 10.05 17.383
v  7.46 10.599 16.282
v  4.753 11.82 10.998
v  4.462 10.753 11.174
v  5.115 10.338 12.523
v  5.115 -7.66813e-16 12.523
v  8.849 -1.13329e-15 18.508
v  7.46 -9.96985e-16 16.282
v  4.462 -6.8421e-16 11.174
v  4.753 -6.73433e-16 10.998

# 0 UV coordinates

# 83 vertex normals
vn 0.775981 0.304903 -0.552166
vn -0.516798 0 -0.856107
vn -0.516798 0 -0.856107
vn -0.773646 0 0.633617
vn 0.814778 0 -0.579773
vn 0 -1 -6.12323e-17
vn 0.497666 0.791428 -0.354922
vn 0.4979 0.791551 -0.35432
vn 0.498053 0.791419 -0.3544
vn 0.498036 0.791425 -0.35441
vn 0.498063 0.791406 -0.354415
vn -0.498112 0.791362 0.354443
vn -0.498061 0.791432 0.354359
vn -0.498052 0.791446 0.354339
vn -0.498365 0.789885 0.357372
vn -0.498049 0.791393 0.354463
vn -0.498032 0.791426 0.354413
vn -0.498151 0.791346 0.354425
vn -0.49802 0.791434 0.354413
vn -0.498811 0.79138 0.35342
vn -0.498752 0.791385 0.353491
vn -0.494964 0.791218 0.359146
vn -0.49716 0.791416 0.355657
vn -0.497451 0.791738 0.354533
vn 0.814761 0 -0.579797
vn 0.814772 8.38167e-06 -0.579781
vn 0.81477 0 -0.579784
vn 8.22387e-19 -1 -6.08567e-17
vn 0.77831 0 -0.62788
vn 0.843454 0 -0.537201
vn -0.572518 0 -0.819892
vn -0.558066 0.000431642 -0.829796
vn -0.558133 -0 -0.829752
vn -3.23605e-21 -1 -6.12454e-17
vn -0.589254 0 -0.807947
vn -0.555237 0 -0.831692
vn -0.555237 5.09265e-17 -0.831692
vn -0.658836 0 -0.752287
vn -0.521451 0 -0.853281
vn -0.836578 -3.3546e-17 0.547848
vn -0.837492 2.37318e-05 0.54645
vn -0.8373 0 0.546744
vn 0 -1 -6.12437e-17
vn -0.824592 0 0.565728
vn -0.824592 0 0.565728
vn -0.849707 0 0.527255
vn -0.849707 0 0.527255
vn -0.814778 0 0.579773
vn 0.591479 0 0.80632
vn 0.59148 0 0.80632
vn 0.603152 6.19456e-05 0.797626
vn 0.603139 0 0.797636
vn 0.60319 -6.17872e-05 0.797597
vn 0.603114 0 0.797655
vn 0.984179 0 0.177176
vn 2.98283e-23 -1 -6.12323e-17
vn 2.36984e-23 -1 -6.12324e-17
vn 1.03013e-23 -1 -6.12323e-17
vn -2.24757e-23 -1 -6.12323e-17
vn 5.06855e-24 -1 -6.12324e-17
vn 2.68767e-22 -1 -6.12327e-17
vn -1.04571e-23 -1 -6.12324e-17
vn 1.63517e-24 -1 -6.12323e-17
vn 0.122043 0.978915 0.163802
vn 0.123281 0.978865 0.163173
vn 0.121143 0.978968 0.164153
vn -0.817676 0.303674 0.489068
vn -0.817825 0.303157 0.48914
vn -0.848442 0 0.529289
vn -0.848388 -4.23539e-05 0.529375
vn -0.84842 0 0.529323
vn -4.13645e-20 1 6.13022e-17
vn -0.900092 0 0.4357
vn 0.591386 -0 0.806388
vn 0.773646 0 -0.633617
vn -0.51731 0 -0.855798
vn -0.517502 -5.94139e-06 -0.855682
vn -0.517419 -0 -0.855732
vn 1.59882e-20 1 6.12509e-17
vn 2.92495e-23 -1 -6.12323e-17
vn 2.93891e-23 -1 -6.12324e-17
vn -7.12791e-23 -1 -6.12324e-17
vn -1.59882e-20 -1 -6.12669e-17

# Mesh 'defaultobject' with 108 faces
g defaultobject
usemtl DefaultMaterial
f  1//1 2//1 3//1
f  3//2 4//2 1//2
f  4//2 3//2 5//3
f  4//4 2//4 1//4
f  2//4 4//4 6//4
f  6//5 3//5 2//5
f  3//5 6//5 5//5
f  6//6 4//6 5//6
f  7//7 8//7 9//7
f  8//8 7//8 10//8
f  8//9 10//9 11//9
f  11//10 10//10 12//10
f  11//11 13//11 8//11
f  14//12 15//12 16//12
f  15//13 14//13 17//13
f  15//14 17//14 10//14
f  15//15 10//15 18//15
f  18//16 10//16 19//16
f  19//17 10//17 7//17
f  18//18 19//18 20//18
f  19//19 7//19 21//19
f  21//20 7//20 22//20
f  21//21 22//21 23//21
f  23//22 22//22 24//22
f  24//23 22//23 25//23
f  26//24 25//24 22//24
f  27//25 11//25 12//25
f  11//26 27//26 13//26
f  13//26 27//26 28//27
f  28//28 27//28 29//28
f  8//29 30//29 9//29
f  30//29 8//29 31//29
f  22//30 32//30 26//30
f  32//30 22//30 33//30
f  13//31 31//31 8//31
f  31//31 13//31 28//31
f  9//32 22//32 7//32
f  22//33 9//33 33//33
f  33//33 9//33 30//33
f  33//34 30//34 34//34
f  32//35 25//35 26//35
f  25//35 32//35 35//35
f  35//36 24//36 25//36
f  24//36 35//36 36//37
f  37//38 20//38 19//38
f  20//38 37//38 38//38
f  39//39 15//39 18//39
f  15//39 39//39 5//39
f  36//40 23//40 24//40
f  23//41 36//41 21//41
f  21//42 36//42 40//42
f  40//43 36//43 41//43
f  40//44 19//44 21//44
f  19//44 40//44 37//45
f  38//46 18//46 20//46
f  18//46 38//46 39//47
f  5//48 16//48 15//48
f  16//48 5//48 6//48
f  16//49 42//49 14//49
f  42//49 16//49 6//50
f  17//51 12//51 10//51
f  12//52 17//52 43//52
f  12//53 43//53 44//53
f  12//54 44//54 27//54
f  14//55 43//55 17//55
f  43//55 14//55 42//55
f  35//56 33//34 36//43
f  33//34 35//56 32//57
f  30//34 31//58 34//34
f  5//6 42//59 6//6
f  42//59 5//6 43//6
f  43//6 5//6 44//60
f  44//60 5//6 27//28
f  27//28 5//6 29//28
f  29//28 5//6 39//61
f  29//28 39//61 38//62
f  29//28 38//62 37//63
f  29//28 37//63 28//28
f  28//28 37//63 31//58
f  31//58 37//63 40//43
f  31//58 40//43 41//43
f  31//58 41//43 36//43
f  31//58 36//43 33//34
f  31//58 33//34 34//34
f  1//64 45//64 46//64
f  45//65 1//65 47//65
f  47//66 1//66 48//66
f  49//67 47//67 48//67
f  47//68 49//68 50//68
f  51//69 47//69 50//69
f  47//70 51//70 45//70
f  45//71 51//71 52//71
f  52//72 51//72 53//72
f  54//73 50//73 49//73
f  50//73 54//73 51//73
f  52//74 46//74 45//74
f  46//74 52//74 6//74
f  46//75 4//75 1//75
f  4//75 46//75 6//75
f  4//76 48//76 1//76
f  48//77 4//77 49//77
f  49//78 4//78 54//78
f  54//79 4//79 55//79
f  53//80 6//6 52//80
f  6//6 53//80 4//6
f  4//6 53//80 51//81
f  4//6 51//81 54//82
f  4//6 54//82 55//83

