# {"id":"ID_6431","idOriginal":"ID_6431","origin":[14.287544842448833,48.314670319492],"elevation":259.5}
# Longitude: 14.287544842448833
# Latitude: 48.314670319492
# Elevation: 259.5

# File produced by Open Asset Import Library (http://www.assimp.sf.net)
# (assimp v3.1.0)

mtllib ID_6431.obj.mtl

# 62 vertex positions
v  16.617 4.319 -3.232
v  21.034 4.319 14.151
v  27.785 4.319 4.356
v  9.876 4.319 6.549
v  9.876 -4.01011e-16 6.549
v  21.034 -8.66499e-16 14.151
v  27.785 -2.66728e-16 4.356
v  16.617 1.97903e-16 -3.232
v  16.373 4.292 -3.398
v  9.876 3.22 6.549
v  16.617 3.22 -3.232
v  9.632 4.292 6.383
v  15.666 5.26 -3.879
v  8.925 5.26 5.901
v  14.564 6.027 -4.627
v  7.825 6.027 5.151
v  13.176 6.52 -5.57
v  6.437 6.52 4.206
v  11.637 6.69 -6.616
v  4.9 6.69 3.158
v  10.098 6.52 -7.662
v  3.362 6.52 2.111
v  8.709 6.027 -8.605
v  1.975 6.027 1.166
v  7.608 5.26 -9.354
v  0.874 5.26 0.416
v  0.083 4.292 0.057
v  6.9 4.292 -9.834
v  0.302 4.477 0.026
v  0.232 4.497 0.16
v  6.656 3.22 -10
v  6.568 2.831 -10.06
v  6.45 2.822 -9.893
v  4.347 3.22 -6.649
v  1.32 3.793 -1.98
v  0 3.926 2.40398e-16
v  0.232 -9.79717e-18 0.16
v  0 0 0
v  0.083 -3.49024e-18 0.057
v  0.302 -1.59204e-18 0.026
v  0.874 -2.54727e-17 0.416
v  1.975 -7.13969e-17 1.166
v  3.362 -1.29261e-16 2.111
v  4.9 -1.93372e-16 3.158
v  6.437 -2.57543e-16 4.206
v  7.825 -3.15408e-16 5.151
v  8.925 -3.61332e-16 5.901
v  9.632 -3.90846e-16 6.383
v  16.373 2.08067e-16 -3.398
v  15.666 2.3752e-16 -3.879
v  14.564 2.83322e-16 -4.627
v  13.176 3.41064e-16 -5.57
v  11.637 4.05113e-16 -6.616
v  10.098 4.69162e-16 -7.662
v  8.709 5.26904e-16 -8.605
v  7.608 5.72767e-16 -9.354
v  6.9 6.02159e-16 -9.834
v  6.568 6.15997e-16 -10.06
v  6.656 6.12323e-16 -10
v  6.45 6.05772e-16 -9.893
v  4.347 4.07134e-16 -6.649
v  1.32 1.2124e-16 -1.98

# 0 UV coordinates

# 108 vertex normals
vn 0 1 0
vn -0.563047 0 0.826425
vn 0.823377 -0 0.567495
vn 0.561994 0 -0.827141
vn -0.82339 0 -0.567475
vn -5.28136e-24 -1 -6.12323e-17
vn -5.27361e-24 -1 -6.12323e-17
vn 0.793859 0.265415 0.547122
vn 0.793859 0.265414 0.547122
vn 0.617101 0.662045 0.425302
vn 0.616901 0.662292 0.425208
vn 0.410901 0.866572 0.283219
vn 0.411032 0.866489 0.283283
vn 0.232103 0.959447 0.159966
vn 0.231944 0.959499 0.159889
vn 0.0749076 0.995853 0.0516369
vn 0.0749303 0.99585 0.0516478
vn -0.0749098 0.995853 -0.0516337
vn -0.0749211 0.995851 -0.0516391
vn -0.231994 0.959485 -0.159901
vn -0.232066 0.959461 -0.159936
vn -0.410976 0.866531 -0.283237
vn -0.410831 0.866623 -0.283166
vn -0.617015 0.662157 -0.425254
vn -0.618183 0.660345 -0.426374
vn -0.619107 0.662133 -0.42224
vn -0.61684 0.662381 -0.425159
vn -0.793852 0.265414 -0.547133
vn -0.794227 0.264079 -0.547235
vn -0.794611 0.262788 -0.547299
vn -0.793834 0.265372 -0.547179
vn -0.793492 0.266478 -0.547139
vn -0.793928 0.265249 -0.547103
vn -0.568636 0 0.82259
vn -0.566444 0.000112354 0.8241
vn -0.567733 0 0.823213
vn 0 -1 -6.1231e-17
vn -0.563337 0 0.826227
vn -0.562959 -6.02234e-05 0.826485
vn -0.563054 -2.13648e-05 0.82642
vn -0.563337 0.000172826 0.826227
vn -0.562723 -0.000169944 0.826645
vn -0.562987 6.2706e-05 0.826465
vn -0.56306 0.000108762 0.826416
vn -0.563338 0.000202583 0.826226
vn -0.562736 -0.000213108 0.826636
vn -0.562827 -0.00018195 0.826575
vn -0.563353 0.00019253 0.826216
vn -0.56326 0.00016102 0.82628
vn -0.562782 -0.000169764 0.826605
vn -0.563309 -8.59646e-06 0.826247
vn -0.563337 8.72034e-06 0.826227
vn -0.562833 -0.000112777 0.826571
vn -0.563094 0 0.826393
vn 3.02257e-20 1 6.11835e-17
vn 0.82339 -0 0.567475
vn 0.886349 -0 0.463018
vn 0.886349 0 0.463018
vn 0.562507 4.39239e-06 -0.826793
vn 0.5625 0 -0.826797
vn 0.561483 -0.000268828 -0.827488
vn 0.562493 0.000234041 -0.826802
vn 0.562503 0.000238061 -0.826795
vn 0.561992 0.000101765 -0.827142
vn 0.561611 -0.000110837 -0.827401
vn 0.562123 4.82381e-05 -0.827054
vn 0.561968 -5.09075e-05 -0.827159
vn 0.562119 -7.47089e-08 -0.827057
vn 0.562119 7.86048e-08 -0.827056
vn 0.561724 -0.000136336 -0.827325
vn 0.562119 0.000144219 -0.827056
vn 0.562366 0.000227594 -0.826888
vn 0.56169 -0.000240017 -0.827347
vn 0.561451 -0.000313178 -0.82751
vn 0.562475 0.000317176 -0.826814
vn 0.561934 0.000187003 -0.827182
vn 0.561158 -0.00014826 -0.827709
vn 0.563127 6.99473e-05 -0.82637
vn 0.56272 0 -0.826648
vn -1.61464e-21 -1 -6.12302e-17
vn -0.816698 0 -0.577065
vn -0.816698 -0 -0.577065
vn -0.839105 0 -0.54397
vn -0.839105 -0 -0.54397
vn -0.839088 -0 -0.543996
vn -0.839088 -0 -0.543996
vn -0.83205 -0 -0.5547
vn -0.83205 3.39656e-17 -0.5547
vn 0 -1 -6.12324e-17
vn 0 -1 -6.12325e-17
vn 2.14233e-24 -1 -6.12323e-17
vn 0 -1 -6.12323e-17
vn 0 -1 -6.12323e-17
vn -9.66158e-24 -1 -6.12323e-17
vn 7.29991e-24 -1 -6.12323e-17
vn -1.82628e-23 -1 -6.12323e-17
vn 1.21313e-23 -1 -6.12323e-17
vn 1.02087e-23 -1 -6.12323e-17
vn -1.58829e-23 -1 -6.12323e-17
vn 6.75971e-24 -1 -6.12323e-17
vn 2.58191e-19 -1 -6.17077e-17
vn -1.46024e-20 -1 -6.12098e-17
vn -3.85494e-19 -1 -6.06511e-17
vn -3.26921e-20 -1 -6.11996e-17
vn -6.54613e-20 -1 -6.11408e-17
vn 9.44067e-20 -1 -6.13644e-17
vn -3.1782e-20 -1 -6.11803e-17
vn -5.3931e-21 -1 -6.12224e-17

# Mesh 'defaultobject' with 120 faces
g defaultobject
usemtl DefaultMaterial
f  1//1 2//1 3//1
f  2//1 1//1 4//1
f  5//2 2//2 4//2
f  2//2 5//2 6//2
f  6//3 3//3 2//3
f  3//3 6//3 7//3
f  7//4 1//4 3//4
f  1//4 7//4 8//4
f  8//5 4//5 1//5
f  4//5 8//5 5//5
f  8//6 6//6 5//6
f  6//6 8//6 7//7
f  9//8 10//8 11//8
f  10//8 9//8 12//9
f  13//10 12//10 9//10
f  12//11 13//11 14//11
f  15//12 14//12 13//12
f  14//13 15//13 16//13
f  17//14 16//14 15//14
f  16//15 17//15 18//15
f  19//16 18//16 17//16
f  18//17 19//17 20//17
f  21//18 20//18 19//18
f  20//19 21//19 22//19
f  23//20 22//20 21//20
f  22//21 23//21 24//21
f  25//22 24//22 23//22
f  24//23 25//23 26//23
f  27//24 25//24 28//24
f  25//25 27//25 29//25
f  29//26 27//26 30//26
f  26//27 25//27 29//27
f  31//28 27//28 28//28
f  27//29 31//29 32//29
f  27//30 32//30 33//30
f  27//31 33//31 34//31
f  27//32 34//32 35//32
f  27//33 35//33 36//33
f  27//34 37//34 30//34
f  37//35 27//35 36//35
f  37//36 36//36 38//36
f  37//37 38//37 39//37
f  40//38 26//38 29//38
f  26//39 40//39 24//39
f  24//40 40//40 22//40
f  22//41 40//41 41//41
f  22//42 41//42 20//42
f  20//43 41//43 42//43
f  20//44 42//44 43//44
f  20//45 43//45 18//45
f  18//46 43//46 44//46
f  18//47 44//47 16//47
f  16//48 44//48 45//48
f  16//49 45//49 14//49
f  14//50 45//50 46//50
f  14//51 46//51 12//51
f  12//52 46//52 47//52
f  12//53 47//53 10//53
f  10//54 47//54 5//54
f  5//55 47//55 48//55
f  5//56 11//56 10//56
f  11//56 5//56 8//56
f  37//57 29//57 30//57
f  29//57 37//57 40//58
f  11//59 13//59 9//59
f  13//59 11//59 8//60
f  13//61 8//61 15//61
f  15//62 8//62 49//62
f  15//63 49//63 50//63
f  15//64 50//64 17//64
f  17//65 50//65 51//65
f  17//66 51//66 19//66
f  19//67 51//67 52//67
f  19//68 52//68 21//68
f  21//68 52//68 53//69
f  21//70 53//70 23//70
f  23//71 53//71 54//71
f  23//72 54//72 25//72
f  25//73 54//73 55//73
f  25//74 55//74 28//74
f  28//75 55//75 56//75
f  28//76 56//76 31//76
f  31//77 56//77 57//77
f  31//78 57//78 32//78
f  32//79 57//79 58//79
f  58//80 57//80 59//80
f  58//81 33//81 32//81
f  33//81 58//81 60//82
f  60//83 34//83 33//83
f  34//83 60//83 61//84
f  34//85 61//85 35//85
f  35//85 61//85 62//86
f  35//87 62//87 36//87
f  36//87 62//87 38//88
f  62//89 39//37 38//37
f  39//37 62//89 37//37
f  37//37 62//89 40//90
f  40//90 62//89 41//91
f  41//91 62//89 42//92
f  42//92 62//89 43//93
f  43//93 62//89 61//94
f  43//93 61//94 44//95
f  44//95 61//94 45//96
f  45//96 61//94 46//97
f  46//97 61//94 47//98
f  47//98 61//94 48//99
f  48//99 61//94 5//6
f  5//6 61//94 8//6
f  8//6 61//94 60//100
f  8//6 60//100 57//80
f  57//80 60//100 59//80
f  59//80 60//100 58//80
f  8//6 57//80 55//101
f  55//101 57//80 56//102
f  8//6 55//101 52//103
f  52//103 55//101 53//104
f  53//104 55//101 54//105
f  8//6 52//103 51//106
f  8//6 51//106 49//107
f  49//107 51//106 50//108

