# {"id":"_38408","idOriginal":"_38408","origin":[14.283952733155951,48.29411888254144],"elevation":278.362}
# Longitude: 14.283952733155951
# Latitude: 48.29411888254144
# Elevation: 278.362

# File produced by Open Asset Import Library (http://www.assimp.sf.net)
# (assimp v3.1.0)

mtllib _38408.obj.mtl

# 12 vertex positions
v  3.346 3.857 -1.417
v  5.99 3.857 2.614
v  4.342 3.422 -1.839
v  0 5.317 3.25572e-16
v  5.125 5.317 7.813
v  7.55 4.268 6.827
v  0 0 0
v  4.342 1.12606e-16 -1.839
v  3.346 8.67662e-17 -1.417
v  5.125 -4.78408e-16 7.813
v  7.55 -4.18033e-16 6.827
v  5.99 -1.60061e-16 2.614

# 0 UV coordinates

# 18 vertex normals
vn 0.316362 0.925665 -0.207507
vn 0.316139 0.925774 -0.207361
vn 0.316145 0.925768 -0.207378
vn 0.316147 0.925768 -0.207377
vn -0.389963 0 -0.92083
vn -0.390079 0.000118198 -0.920782
vn -0.39 0 -0.920815
vn -1.94639e-20 -1 -6.12725e-17
vn -0.83616 -3.35851e-17 0.548486
vn -0.83616 0 0.548486
vn 0.376654 -0 0.926354
vn 0.376654 0 0.926354
vn 0.937776 0 -0.347242
vn 0.937835 0 -0.347081
vn 0.937835 0 -0.347081
vn 2.06366e-23 -1 -6.12324e-17
vn 0 -1 -6.12323e-17
vn 6.75555e-24 -1 -6.12323e-17

# Mesh 'defaultobject' with 20 faces
g defaultobject
usemtl DefaultMaterial
f  1//1 2//1 3//1
f  2//2 1//2 4//2
f  2//3 4//3 5//3
f  2//3 5//3 6//4
f  1//5 7//5 4//5
f  7//6 1//6 3//6
f  7//7 3//7 8//7
f  7//8 8//8 9//8
f  7//9 5//9 4//9
f  5//9 7//9 10//10
f  10//11 6//11 5//11
f  6//11 10//11 11//12
f  11//13 2//13 6//13
f  2//13 11//13 12//13
f  2//14 12//14 3//14
f  3//14 12//14 8//15
f  12//16 9//8 8//8
f  9//8 12//16 7//8
f  7//8 12//16 10//17
f  10//17 12//16 11//18

