# {"id":"ID_19551","idOriginal":"ID_19551","origin":[14.278034790232198,48.25513552232374],"elevation":266.426}
# Longitude: 14.278034790232198
# Latitude: 48.25513552232374
# Elevation: 266.426

# File produced by Open Asset Import Library (http://www.assimp.sf.net)
# (assimp v3.1.0)

mtllib ID_19551.obj.mtl

# 16 vertex positions
v  0 5.232 3.20368e-16
v  2.752 5.232 -0.621
v  0.082 5.232 -0.273
v  0.293 5.232 0.253
v  4.274 5.232 3.39
v  18.145 5.232 -4.346
v  12.455 5.232 9.954
v  19.407 5.232 1.504
v  19.407 -9.20934e-17 1.504
v  18.145 2.66116e-16 -4.346
v  2.752 3.80253e-17 -0.621
v  0.082 1.67164e-17 -0.273
v  0 0 0
v  0.293 -1.54918e-17 0.253
v  4.274 -2.07578e-16 3.39
v  12.455 -6.09507e-16 9.954

# 0 UV coordinates

# 19 vertex normals
vn 0 1 0
vn 0.977513 0 -0.210875
vn -0.235204 0 -0.971946
vn -0.129244 0 -0.991613
vn -0.95773 0 -0.28767
vn -0.95773 1.76147e-17 -0.28767
vn -0.653553 -4.63456e-17 0.756881
vn -0.653553 0 0.756881
vn -0.618928 0 0.785448
vn -0.625788 0.00851856 0.779947
vn -0.618831 -0.0176264 0.785326
vn -0.625811 0 0.779975
vn 0.772236 -0 0.635336
vn 1.18106e-24 -1 -6.12323e-17
vn 9.41895e-25 -1 -6.12323e-17
vn -1.1824e-24 -1 -6.12323e-17
vn -3.14131e-24 -1 -6.12323e-17
vn 4.11614e-24 -1 -6.12323e-17
vn 0 -1 -6.12323e-17

# Mesh 'defaultobject' with 28 faces
g defaultobject
usemtl DefaultMaterial
f  1//1 2//1 3//1
f  2//1 1//1 4//1
f  2//1 4//1 5//1
f  2//1 5//1 6//1
f  6//1 5//1 7//1
f  6//1 7//1 8//1
f  9//2 6//2 8//2
f  6//2 9//2 10//2
f  10//3 2//3 6//3
f  2//3 10//3 11//3
f  11//4 3//4 2//4
f  3//4 11//4 12//4
f  12//5 1//5 3//5
f  1//5 12//5 13//6
f  13//7 4//7 1//7
f  4//7 13//7 14//8
f  14//9 5//9 4//9
f  5//10 14//10 7//10
f  7//11 14//11 15//11
f  7//12 15//12 16//12
f  16//13 8//13 7//13
f  8//13 16//13 9//13
f  11//14 13//14 12//14
f  13//14 11//14 14//15
f  14//15 11//14 15//16
f  15//16 11//14 10//17
f  15//16 10//17 16//18
f  16//18 10//17 9//19

