# {"id":"ID_24316","idOriginal":"ID_24316","origin":[14.273829298234936,48.258504772588324],"elevation":267.965}
# Longitude: 14.273829298234936
# Latitude: 48.258504772588324
# Elevation: 267.965

# File produced by Open Asset Import Library (http://www.assimp.sf.net)
# (assimp v3.1.0)

mtllib ID_24316.obj.mtl

# 20 vertex positions
v  1.531 8.383 3.501
v  12.827 4.041 4.615
v  10.605 8.383 -0.467
v  3.754 4.041 8.583
v  3.114 4.041 -3.244
v  3.805 5.391 -1.664
v  8.23 4.041 -5.482
v  9.076 5.396 -3.962
v  8.924 5.396 -3.896
v  0 5.391 3.30104e-16
v  9.076 2.42603e-16 -3.962
v  8.924 2.38561e-16 -3.896
v  8.23 3.35676e-16 -5.482
v  3.114 1.98638e-16 -3.244
v  3.805 1.01891e-16 -1.664
v  0 0 0
v  10.605 2.85955e-17 -0.467
v  12.827 -2.82587e-16 4.615
v  1.531 -2.14374e-16 3.501
v  3.754 -5.25557e-16 8.583

# 0 UV coordinates

# 30 vertex normals
vn 0.246974 0.78742 0.564778
vn 0.246985 0.787441 0.564743
vn -0.24705 0.787417 -0.564748
vn -0.247006 0.787356 -0.564853
vn -0.244522 0.789356 -0.56314
vn -0.246887 0.787471 -0.564744
vn -0.247221 0.78726 -0.564892
vn -0.247022 0.787349 -0.564855
vn -0.398284 0 -0.917262
vn -0.400781 0 -0.916174
vn -0.40068 0 -0.916218
vn -0.40068 5.61022e-17 -0.916218
vn 0.916131 0 -0.40088
vn 0.916206 -0.000135345 -0.400708
vn 0.916214 0 -0.40069
vn 0.916163 0.000290822 -0.400805
vn 0.916248 0 -0.400611
vn -0.916211 0 0.400697
vn -0.916211 0 0.400697
vn -0.916203 -6.56899e-05 0.400715
vn -0.916199 0 0.400724
vn -0.916223 0.000141188 0.400668
vn -0.916182 0 0.400762
vn 0.400697 -0 0.916211
vn 5.49751e-24 -1 -6.12323e-17
vn 0 -1 -6.12323e-17
vn -9.19159e-24 -1 -6.12323e-17
vn 8.10104e-24 -1 -6.12323e-17
vn -2.73012e-22 -1 -6.12323e-17
vn 4.72234e-20 -1 -6.12488e-17

# Mesh 'defaultobject' with 36 faces
g defaultobject
usemtl DefaultMaterial
f  1//1 2//1 3//1
f  2//2 1//2 4//2
f  5//3 6//3 7//3
f  8//4 1//4 3//4
f  1//5 8//5 9//5
f  1//6 9//6 7//6
f  1//7 7//7 6//7
f  1//8 6//8 10//8
f  11//9 9//9 8//9
f  9//9 11//9 12//9
f  13//10 5//10 7//10
f  5//10 13//10 14//10
f  15//11 10//11 6//11
f  10//11 15//11 16//12
f  12//13 7//13 9//13
f  7//13 12//13 13//13
f  2//14 8//14 3//14
f  8//15 2//15 11//15
f  11//16 2//16 17//16
f  17//17 2//17 18//17
f  5//18 15//18 6//18
f  15//18 5//18 14//19
f  10//20 4//20 1//20
f  4//21 10//21 16//21
f  4//22 16//22 19//22
f  4//23 19//23 20//23
f  20//24 2//24 4//24
f  2//24 20//24 18//24
f  13//25 15//25 14//25
f  15//25 19//26 16//26
f  19//26 15//25 20//27
f  20//27 15//25 18//26
f  18//26 15//25 12//28
f  12//28 15//25 13//25
f  18//26 12//28 11//29
f  18//26 11//29 17//30

