# {"id":"ID_40842","idOriginal":"ID_40842","origin":[14.269913363597157,48.28912159796167],"elevation":327.844,"wof":[{"Id":85681677,"Name":"Oberösterreich","Placetype":"region","Offset":-1},{"Id":85898459,"Name":"Wegscheid","Placetype":"neighbourhood","Offset":-1},{"Id":102049853,"Name":"Linz","Placetype":"county","Offset":-1},{"Id":101748071,"Name":"Linz","Placetype":"locality","Offset":-1},{"Id":85632785,"Name":"Austria","Placetype":"country","Offset":-1}]}

# Attribution: City of Linz <http://geo.data.linz.gv.at/katalog/geodata/3d_geo_daten_lod2/>
# Longitude: 14.269913363597157
# Latitude: 48.28912159796167
# Elevation: 327.844

# File produced by Open Asset Import Library (http://www.assimp.sf.net)
# (assimp v3.1.0)


# 18 vertex positions
v  0.081 5.409 -0.495
v  9.111 5.667 0.912
v  1.065 5.667 -2.763
v  0 5.359 3.28144e-16
v  0.126 5.36 0.05
v  0.092 5.347 0.172
v  3.112 5.351 1.503
v  7.948 5.332 3.91
v  3.015 5.329 1.695
v  7.948 -2.39418e-16 3.91
v  3.015 -1.03789e-16 1.695
v  3.112 -9.20322e-17 1.503
v  0.092 -1.0532e-17 0.172
v  9.111 -5.58439e-17 0.912
v  1.065 1.69185e-16 -2.763
v  0.081 3.031e-17 -0.495
v  0 0 0
v  0.126 -3.06162e-18 0.05

# 0 UV coordinates

# 28 vertex normals
vn -0.0431304 0.994597 0.0944292
vn -0.0429793 0.994697 0.0934409
vn -0.0423334 0.995328 0.0867752
vn -0.0430033 0.994643 0.0940021
vn -0.043059 0.994573 0.0947109
vn -0.0430888 0.994599 0.0944225
vn -0.0422115 0.994803 0.0926614
vn -0.409619 0 0.912257
vn -0.403297 0 0.915069
vn -0.403297 0 0.915069
vn 0.932308 0 0.361666
vn 0.415463 0 -0.90961
vn -0.917378 0 -0.398016
vn -0.917378 -0 -0.398016
vn -0.89256 0 -0.450928
vn -0.89256 -0 -0.450929
vn -0.986875 0 -0.161489
vn -0.986875 9.88832e-18 -0.161489
vn -0.963291 0 -0.268458
vn -0.368846 0 0.929491
vn -0.368846 0 0.929491
vn 1.21063e-24 -1 -6.12323e-17
vn 7.21827e-25 -1 -6.12323e-17
vn 6.07082e-25 -1 -6.12323e-17
vn -3.6748e-25 -1 -6.12323e-17
vn 0 -1 -6.12323e-17
vn -8.31352e-24 -1 -6.12324e-17
vn 1.5243e-24 -1 -6.12323e-17

# Mesh 'defaultobject' with 32 faces
g defaultobject
usemtl DefaultMaterial
f  1//1 2//1 3//1
f  2//2 1//2 4//2
f  2//3 4//3 5//3
f  2//4 5//4 6//4
f  2//5 6//5 7//5
f  2//6 7//6 8//6
f  8//7 7//7 9//7
f  9//8 10//8 8//8
f  10//8 9//8 11//8
f  6//9 12//9 7//9
f  12//9 6//9 13//10
f  8//11 14//11 2//11
f  14//11 8//11 10//11
f  14//12 3//12 2//12
f  3//12 14//12 15//12
f  15//13 1//13 3//13
f  1//13 15//13 16//14
f  12//15 9//15 7//15
f  9//15 12//15 11//16
f  16//17 4//17 1//17
f  4//17 16//17 17//18
f  18//19 6//19 5//19
f  6//19 18//19 13//19
f  4//20 18//20 5//20
f  18//20 4//20 17//21
f  14//22 16//22 15//22
f  16//22 14//22 17//23
f  17//23 14//22 18//24
f  18//24 14//22 13//25
f  13//25 14//22 12//26
f  12//26 14//22 11//27
f  11//27 14//22 10//28

