# {"id":"ID_16399","idOriginal":"ID_16399","origin":[14.309219597780201,48.27241596618237],"elevation":260.418,"wof":[{"Id":102049853,"Name":"Linz","Placetype":"county","Offset":-1},{"Id":85632785,"Name":"Austria","Placetype":"country","Offset":-1},{"Id":101748071,"Name":"Linz","Placetype":"locality","Offset":-1},{"Id":85681677,"Name":"Oberösterreich","Placetype":"region","Offset":-1},{"Id":85898435,"Name":"Oed","Placetype":"neighbourhood","Offset":-1}]}

# Attribution: City of Linz <http://geo.data.linz.gv.at/katalog/geodata/3d_geo_daten_lod2/>
# Longitude: 14.309219597780201
# Latitude: 48.27241596618237
# Elevation: 260.418

# File produced by Open Asset Import Library (http://www.assimp.sf.net)
# (assimp v3.1.0)


# 31 vertex positions
v  9.111 7.14 -5.626
v  14.072 9.622 -2.405
v  11.265 7.14 -6.956
v  11.89 9.622 -1.057
v  0 7.14 4.37199e-16
v  2.754 9.622 4.584
v  5.543 7.109 9.225
v  5.892 7.14 8.931
v  16.88 7.138 2.15
v  14.67 7.139 3.514
v  14.559 7.139 3.582
v  14.608 7.094 3.666
v  5.945 7.094 9.015
v  16.88 -1.3165e-16 2.15
v  14.67 -2.1517e-16 3.514
v  14.559 -2.19334e-16 3.582
v  5.892 -5.46866e-16 8.931
v  5.543 -5.64868e-16 9.225
v  5.945 -5.5201e-16 9.015
v  14.608 -2.24478e-16 3.666
v  14.072 1.47264e-16 -2.405
v  11.265 4.25932e-16 -6.956
v  0 0 0
v  9.111 3.44493e-16 -5.626
v  2.754 -2.80689e-16 4.584
v  5.945 2.745 9.015
v  16.193 3.2 6.371
v  14.608 2.73 3.666
v  7.521 3.186 11.498
v  7.521 -7.04049e-16 11.498
v  16.193 -3.90111e-16 6.371

# 0 UV coordinates

# 54 vertex normals
vn -0.221201 0.907045 -0.358245
vn -0.221265 0.907063 -0.35816
vn -0.22119 0.907063 -0.358206
vn -0.221191 0.907052 -0.358234
vn 0.2212 0.907055 0.358221
vn 0.221298 0.907034 0.358214
vn 0.221233 0.907015 0.358302
vn 0.221172 0.907273 0.357685
vn 0.221195 0.905927 0.361068
vn 0.221189 0.907488 0.357129
vn 0.221182 0.907054 0.358233
vn 0.220798 0.9074 0.357595
vn 0.525214 0 0.85097
vn 0.522382 -0.0012094 0.852711
vn 0.525214 6.06198e-05 0.85097
vn 0.522382 0 0.852711
vn 0.644271 0 0.764797
vn 0.644272 0 0.764797
vn 0.525374 -0 0.850872
vn 0.851247 0 -0.524765
vn 0.85115 -0.000103146 -0.524922
vn 0.851247 0.00017478 -0.524765
vn 0.851125 0 -0.524963
vn 0.86378 0 -0.50387
vn -0.525375 0 -0.850871
vn -0.525399 -1.01535e-05 -0.850856
vn -0.525395 5.21001e-17 -0.850859
vn 0 1 6.09534e-17
vn -0.857196 -3.15341e-17 0.514991
vn -0.857147 -5.28368e-05 0.515072
vn -0.857196 9.11114e-05 0.514991
vn -0.857134 0 0.515093
vn -0.84573 0 0.533611
vn -0.84573 0 0.533611
vn 0 -1 -6.12323e-17
vn 2.6504e-22 -1 -6.12319e-17
vn -1.86188e-24 -1 -6.12323e-17
vn 2.05327e-23 -1 -6.12324e-17
vn 2.98058e-23 -1 -6.12325e-17
vn 0 -1 -6.12323e-17
vn 9.2426e-25 -1 -6.12323e-17
vn -1.56247e-23 -1 -6.12323e-17
vn 7.82194e-24 -1 -6.12323e-17
vn -0.076653 0.988947 -0.126917
vn -0.0766689 0.988938 -0.12698
vn -0.844291 0 0.535885
vn 0.508923 0 0.860812
vn 0.508923 0 0.860812
vn 0.862794 0 -0.505556
vn 0.862794 0 -0.505556
vn -0.525374 0 -0.850872
vn -0.525374 0 -0.850872
vn -7.07269e-24 -1 -6.12324e-17
vn -6.70459e-24 -1 -6.12323e-17

# Mesh 'defaultobject' with 58 faces
g defaultobject
usemtl DefaultMaterial
f  1//1 2//1 3//1
f  2//2 1//2 4//2
f  4//3 1//3 5//3
f  4//4 5//4 6//4
f  7//5 8//5 6//5
f  4//6 9//6 2//6
f  9//7 4//7 6//7
f  9//8 6//8 10//8
f  10//9 6//9 11//9
f  11//10 6//10 12//10
f  12//11 6//11 8//11
f  12//12 8//12 13//12
f  10//13 14//13 9//13
f  14//14 10//14 11//14
f  14//15 11//15 15//15
f  15//16 11//16 16//16
f  7//17 17//17 8//17
f  17//17 7//17 18//18
f  19//19 12//19 13//19
f  12//19 19//19 20//19
f  14//20 2//20 9//20
f  2//21 14//21 3//21
f  3//22 14//22 21//22
f  3//23 21//23 22//23
f  12//24 16//24 11//24
f  16//24 12//24 20//24
f  22//25 1//25 3//25
f  1//26 22//26 5//26
f  5//27 22//27 23//27
f  23//28 22//28 24//28
f  23//29 6//29 5//29
f  6//30 23//30 7//30
f  7//31 23//31 25//31
f  7//32 25//32 18//32
f  17//33 13//33 8//33
f  13//33 17//33 19//34
f  25//35 17//35 18//35
f  17//35 20//36 19//36
f  20//36 17//35 25//35
f  20//36 25//35 23//37
f  20//36 23//37 16//38
f  16//38 23//37 15//39
f  15//39 23//37 14//40
f  14//40 23//37 24//41
f  14//40 24//41 21//42
f  21//42 24//41 22//43
f  26//44 27//44 28//44
f  27//45 26//45 29//45
f  26//46 30//46 29//46
f  30//46 26//46 19//46
f  29//47 31//47 27//47
f  31//47 29//47 30//48
f  31//49 28//49 27//49
f  28//49 31//49 20//50
f  28//51 19//51 26//51
f  19//51 28//51 20//52
f  20//36 30//53 19//36
f  30//53 20//36 31//54

