# {"id":"ID_21750","idOriginal":"ID_21750","origin":[14.281300519311337,48.24949264403931],"elevation":266.254,"wof":[{"Id":102049853,"Name":"Linz","Placetype":"county","Offset":-1},{"Id":85681677,"Name":"Oberösterreich","Placetype":"region","Offset":-1},{"Id":101748071,"Name":"Linz","Placetype":"locality","Offset":-1},{"Id":85898447,"Name":"Scharlinz","Placetype":"neighbourhood","Offset":-1},{"Id":85632785,"Name":"Austria","Placetype":"country","Offset":-1}]}

# Attribution: City of Linz <http://geo.data.linz.gv.at/katalog/geodata/3d_geo_daten_lod2/>
# Longitude: 14.281300519311337
# Latitude: 48.24949264403931
# Elevation: 266.254

# File produced by Open Asset Import Library (http://www.assimp.sf.net)
# (assimp v3.1.0)


# 16 vertex positions
v  4.517 8.272 -0.979
v  2.716 6.63 12.991
v  7.243 8.272 12.046
v  0.868 6.632 4.134
v  0 6.631 4.06032e-16
v  9.041 6.628 -1.958
v  11.767 6.631 11.102
v  8.79 6.719 -1.906
v  9.041 1.19893e-16 -1.958
v  8.79 1.16709e-16 -1.906
v  0 0 0
v  4.517 5.99465e-17 -0.979
v  0.868 -2.53134e-16 4.134
v  2.716 -7.95469e-16 12.991
v  11.767 -6.79801e-16 11.102
v  7.243 -7.37605e-16 12.046

# 0 UV coordinates

# 24 vertex normals
vn -0.327499 0.942362 0.0685421
vn -0.327491 0.942365 0.0685434
vn -0.3275 0.942362 0.0685361
vn 0.327513 0.942355 -0.0685778
vn 0.327599 0.942326 -0.0685632
vn 0.323666 0.942205 -0.0865396
vn -0.202863 0 -0.979207
vn -0.212137 -0.000361687 -0.97724
vn -0.211767 -0.00014954 -0.97732
vn -0.202847 0.0125469 -0.97913
vn -0.211913 5.98417e-17 -0.977289
vn 0 -1 -6.12253e-17
vn -0.97866 -1.25824e-17 0.205485
vn -0.978918 0.0008039 0.20425
vn -0.978659 -0.00172271 0.205485
vn -0.978919 0 0.20425
vn 0.204343 -0 0.978899
vn 0.204278 3.70709e-05 0.978913
vn 0.204304 0 0.978907
vn 3.89607e-21 -1 -6.11838e-17
vn 0.978903 0 -0.204325
vn 0.978903 0 -0.204325
vn 1.01218e-23 -1 -6.12323e-17
vn -1.37166e-23 -1 -6.12323e-17

# Mesh 'defaultobject' with 28 faces
g defaultobject
usemtl DefaultMaterial
f  1//1 2//1 3//1
f  2//1 1//1 4//2
f  4//3 1//1 5//3
f  6//4 3//4 7//4
f  3//5 6//5 1//5
f  1//6 6//6 8//6
f  9//7 8//7 6//7
f  8//8 9//8 1//8
f  1//9 9//9 5//9
f  5//10 9//10 10//10
f  5//11 10//11 11//11
f  11//12 10//12 12//12
f  11//13 4//13 5//13
f  4//14 11//14 2//14
f  2//15 11//15 13//15
f  2//16 13//16 14//16
f  14//17 3//17 2//17
f  3//18 14//18 7//18
f  7//19 14//19 15//19
f  15//20 14//20 16//20
f  15//21 6//21 7//21
f  6//21 15//21 9//22
f  13//23 16//20 14//20
f  16//20 13//23 11//12
f  16//20 11//12 15//20
f  15//20 11//12 12//12
f  15//20 12//12 9//24
f  9//24 12//12 10//12

