# {"id":"_60703","idOriginal":"_60703","origin":[14.289636152609319,48.30576714729689],"elevation":259.99,"wof":[{"Id":85681677,"Name":"Oberösterreich","Placetype":"region","Offset":-1},{"Id":85898449,"Name":"Steeg","Placetype":"neighbourhood","Offset":-1},{"Id":102049853,"Name":"Linz","Placetype":"county","Offset":-1},{"Id":101748071,"Name":"Linz","Placetype":"locality","Offset":-1},{"Id":85632785,"Name":"Austria","Placetype":"country","Offset":-1}]}

# Attribution: City of Linz <http://geo.data.linz.gv.at/katalog/geodata/3d_geo_daten_lod2/>
# Longitude: 14.289636152609319
# Latitude: 48.30576714729689
# Elevation: 259.99

# File produced by Open Asset Import Library (http://www.assimp.sf.net)
# (assimp v3.1.0)


# 8 vertex positions
v  0 3.288 2.01332e-16
v  0.884 3.288 1.354
v  0.437 3.288 -0.136
v  0.451 3.288 1.505
v  0.437 8.3276e-18 -0.136
v  0 0 0
v  0.451 -9.21547e-17 1.505
v  0.884 -8.29086e-17 1.354

# 0 UV coordinates

# 9 vertex normals
vn -0 1 0
vn -0.297155 0 -0.954829
vn -0.297155 5.84664e-17 -0.954829
vn -0.957914 -1.75771e-17 0.287056
vn -0.957914 0 0.287056
vn 0.329282 -0 0.944232
vn 0.957826 0 -0.287348
vn 0 -1 -6.12323e-17
vn 0 -1 -6.12323e-17

# Mesh 'defaultobject' with 12 faces
g defaultobject
usemtl DefaultMaterial
f  1//1 2//1 3//1
f  2//1 1//1 4//1
f  5//2 1//2 3//2
f  1//2 5//2 6//3
f  6//4 4//4 1//4
f  4//4 6//4 7//5
f  7//6 2//6 4//6
f  2//6 7//6 8//6
f  8//7 3//7 2//7
f  3//7 8//7 5//7
f  8//8 6//8 5//8
f  6//8 8//8 7//9

