# {"id":"_46663","idOriginal":"_46663","origin":[14.287840046524511,48.30022087827159],"elevation":263.376,"wof":[{"Id":102049853,"Name":"Linz","Placetype":"county","Offset":-1},{"Id":85681677,"Name":"Oberösterreich","Placetype":"region","Offset":-1},{"Id":101748071,"Name":"Linz","Placetype":"locality","Offset":-1},{"Id":85898449,"Name":"Steeg","Placetype":"neighbourhood","Offset":-1},{"Id":85632785,"Name":"Austria","Placetype":"country","Offset":-1}]}

# Attribution: City of Linz <http://geo.data.linz.gv.at/katalog/geodata/3d_geo_daten_lod2/>
# Longitude: 14.287840046524511
# Latitude: 48.30022087827159
# Elevation: 263.376

# File produced by Open Asset Import Library (http://www.assimp.sf.net)
# (assimp v3.1.0)


# 34 vertex positions
v  3.877 15.952 6.567
v  1.354 15.966 6.983
v  1.374 15.952 7.079
v  1.039 16.978 -0.24
v  2.291 16.982 -0.531
v  3.8 16.002 6.221
v  0.709 16.967 -0.164
v  0 16.944 1.03752e-15
v  0.098 16.866 0.556
v  0.203 16.782 1.155
v  0.3 16.704 1.713
v  0.431 16.599 2.46
v  1.144 16.109 5.957
v  0.66 16.439 3.605
v  0.467 16.57 2.668
v  0.848 16.311 4.52
v  1.005 16.204 5.285
v  2.291 3.25144e-17 -0.531
v  0.709 1.00421e-17 -0.164
v  0 0 0
v  1.039 1.46958e-17 -0.24
v  0.098 -3.40452e-17 0.556
v  0.203 -7.07234e-17 1.155
v  0.431 -1.50632e-16 2.46
v  0.467 -1.63368e-16 2.668
v  0.3 -1.04891e-16 1.713
v  0.66 -2.20743e-16 3.605
v  1.354 -4.27585e-16 6.983
v  1.374 -4.33464e-16 7.079
v  1.005 -3.23613e-16 5.285
v  0.848 -2.7677e-16 4.52
v  1.144 -3.64761e-16 5.957
v  3.877 -4.02113e-16 6.567
v  3.8 -3.80926e-16 6.221

# 0 UV coordinates

# 55 vertex normals
vn 0.0283242 0.989962 0.138468
vn 0.0281643 0.990102 0.137493
vn 0.0287391 0.990119 0.137256
vn 0.554283 0.832323 -0.00305341
vn -0.00104991 0.99032 0.138798
vn -3.98924e-05 0.990333 0.138708
vn -0.0131979 0.989893 0.141199
vn -0.00978155 0.990025 0.14055
vn 0.00965022 0.990554 0.136785
vn -0.0211328 0.989526 0.142799
vn -0.666821 0.707178 0.235051
vn 0.0971175 0.988174 0.118664
vn 0.0116997 0.990628 0.136088
vn 0.792947 0.604225 -0.0784037
vn 0.679986 0.732284 -0.0371296
vn -0.226393 0 -0.974036
vn -0.224433 0.000152343 -0.97449
vn -0.225363 6.09639e-05 -0.974275
vn -0.225984 -2.74378e-05 -0.974131
vn -0.225361 5.96572e-17 -0.974275
vn 5.88795e-22 -1 -6.12291e-17
vn -0.984819 -1.06289e-17 0.173583
vn -0.984981 3.12493e-05 0.172664
vn -0.985222 0.000129112 0.171284
vn -0.984969 -2.35758e-05 0.172729
vn -0.985343 0.000304205 0.170583
vn -0.984819 -0.000193686 0.173583
vn -0.984982 -7.23471e-05 0.17266
vn -0.985079 -2.02249e-05 0.172106
vn -0.98535 0 0.170542
vn 0 1 6.12316e-17
vn -0.979439 0 0.201741
vn -0.979537 2.83643e-05 0.201264
vn -0.979582 5.41657e-05 0.201046
vn -0.979276 -0.000195821 0.202531
vn -0.979683 0.000225489 0.200551
vn -0.979001 -0.00070561 0.203856
vn -0.979439 -9.59248e-05 0.201741
vn -0.979541 1.70184e-05 0.201244
vn -0.97898 0 0.203955
vn -2.59519e-19 1 6.12725e-17
vn 2.80815e-19 -1 -6.12979e-17
vn -4.42893e-21 -1 -6.123e-17
vn 0.200405 -0 0.979713
vn 0.975924 0 -0.218109
vn 0.976109 -0.000367172 -0.21728
vn 0.975934 0 -0.218066
vn -9.58328e-20 1 6.12611e-17
vn 1.8985e-23 -1 -6.12322e-17
vn -1.00542e-23 -1 -6.12324e-17
vn 6.82652e-23 -1 -6.12323e-17
vn -1.07045e-22 -1 -6.12324e-17
vn 0 -1 -6.12323e-17
vn 0 -1 -6.12323e-17
vn 1.37587e-24 -1 -6.12323e-17

# Mesh 'defaultobject' with 64 faces
g defaultobject
usemtl DefaultMaterial
f  1//1 2//1 3//1
f  2//2 1//2 4//2
f  4//3 1//3 5//3
f  5//4 1//4 6//4
f  7//5 2//5 4//5
f  2//6 7//6 8//6
f  2//7 8//7 9//7
f  2//8 9//8 10//8
f  2//9 10//9 11//9
f  2//10 11//10 12//10
f  2//11 12//11 13//11
f  13//12 12//12 14//12
f  14//13 12//13 15//13
f  13//14 14//14 16//14
f  13//15 16//15 17//15
f  18//16 4//16 5//16
f  4//17 18//17 7//17
f  7//18 18//18 8//18
f  8//19 18//19 19//19
f  8//20 19//20 20//20
f  19//21 18//21 21//21
f  20//22 9//22 8//22
f  9//23 20//23 10//23
f  10//24 20//24 11//24
f  11//25 20//25 12//25
f  12//26 20//26 15//26
f  15//27 20//27 22//27
f  15//28 22//28 23//28
f  15//29 23//29 24//29
f  15//30 24//30 25//30
f  24//31 23//31 26//31
f  25//32 14//32 15//32
f  14//33 25//33 16//33
f  16//34 25//34 17//34
f  17//35 25//35 13//35
f  13//36 25//36 2//36
f  2//37 25//37 3//37
f  3//38 25//38 27//38
f  3//39 27//39 28//39
f  3//40 28//40 29//40
f  28//41 27//41 30//41
f  30//42 27//42 31//42
f  28//43 30//42 32//43
f  29//44 1//44 3//44
f  1//44 29//44 33//44
f  6//45 18//45 5//45
f  18//46 6//46 1//46
f  18//47 1//47 33//47
f  18//48 33//48 34//48
f  28//43 33//49 29//49
f  33//49 28//43 34//50
f  34//50 28//43 32//43
f  34//50 32//43 18//21
f  18//21 32//43 30//42
f  18//21 30//42 31//42
f  18//21 31//42 27//42
f  18//21 27//42 25//51
f  18//21 25//51 24//52
f  18//21 24//52 26//53
f  18//21 26//53 23//54
f  18//21 23//54 22//53
f  18//21 22//53 21//21
f  21//21 22//53 20//55
f  21//21 20//55 19//21

