# {"id":"_55088","idOriginal":"_55088","origin":[14.29093343050885,48.29675098889713],"elevation":262.471,"wof":[{"Id":85681677,"Name":"Oberösterreich","Placetype":"region","Offset":-1},{"Id":85898459,"Name":"Wegscheid","Placetype":"neighbourhood","Offset":-1},{"Id":102049853,"Name":"Linz","Placetype":"county","Offset":-1},{"Id":101748071,"Name":"Linz","Placetype":"locality","Offset":-1},{"Id":85632785,"Name":"Austria","Placetype":"country","Offset":-1}]}

# Attribution: City of Linz <http://geo.data.linz.gv.at/katalog/geodata/3d_geo_daten_lod2/>
# Longitude: 14.29093343050885
# Latitude: 48.29675098889713
# Elevation: 262.471

# File produced by Open Asset Import Library (http://www.assimp.sf.net)
# (assimp v3.1.0)


# 10 vertex positions
v  0 19.261 1.1794e-15
v  1.765 19.261 0.39
v  1.749 19.261 -0.062
v  1.895 19.261 4.17
v  0.146 19.261 4.23
v  0.146 -2.59013e-16 4.23
v  1.895 -2.55339e-16 4.17
v  1.749 3.7964e-18 -0.062
v  1.765 -2.38806e-17 0.39
v  0 0 0

# 0 UV coordinates

# 11 vertex normals
vn -0 1 0
vn 0.0342851 -0 0.999412
vn 0.999409 0 -0.0343712
vn 0.999374 -0.000197405 -0.0353759
vn 0.999405 0 -0.0344785
vn 0 1 6.12323e-17
vn -0.0354266 0 -0.999372
vn -0.0354266 6.11939e-17 -0.999372
vn -0.999405 -2.1122e-18 0.0344948
vn -0.999405 0 0.0344948
vn 0 -1 -6.12323e-17

# Mesh 'defaultobject' with 16 faces
g defaultobject
usemtl DefaultMaterial
f  1//1 2//1 3//1
f  2//1 1//1 4//1
f  4//1 1//1 5//1
f  6//2 4//2 5//2
f  4//2 6//2 7//2
f  7//3 2//3 4//3
f  2//4 7//4 3//4
f  3//5 7//5 8//5
f  8//6 7//6 9//6
f  8//7 1//7 3//7
f  1//7 8//7 10//8
f  10//9 5//9 1//9
f  5//9 10//9 6//10
f  10//11 7//11 6//11
f  7//11 10//11 9//11
f  9//11 10//11 8//11

