# File produced by Open Asset Import Library (http://www.assimp.sf.net)
# (assimp v3.1.0)

mtllib ID_16775.obj.mtl

# 26 vertex positions
v  17.445 6.748 -2.626
v  14.823 6.181 1.455
v  18.143 6.181 -1.945
v  13.629 9.851 -6.352
v  3.803 9.851 3.713
v  8.316 6.181 8.12
v  11.613 8.212 -8.32
v  9.865 6.79 -10.027
v  7.468 6.79 -7.573
v  6.719 6.181 -8.304
v  2.635 6.759 -2.699
v  1.924 6.181 -3.393
v  0 6.759 4.13869e-16
v  2.635 1.65266e-16 -2.699
v  1.924 2.07761e-16 -3.393
v  0 0 0
v  3.803 -2.27356e-16 3.713
v  8.316 -4.97207e-16 8.12
v  9.865 6.13977e-16 -10.027
v  7.468 4.63712e-16 -7.573
v  6.719 5.08473e-16 -8.304
v  14.823 -8.90931e-17 1.455
v  18.143 1.19097e-16 -1.945
v  17.445 1.60796e-16 -2.626
v  13.629 3.88948e-16 -6.352
v  11.613 5.09453e-16 -8.32

# 0 UV coordinates

# 39 vertex normals
vn 0.35963 0.864492 0.351168
vn 0.359848 0.864352 0.351289
vn 0.359837 0.864356 0.351292
vn 0.359838 0.864349 0.351308
vn -0.359819 0.864371 -0.351275
vn -0.359969 0.864273 -0.351359
vn -0.359591 0.86448 -0.351238
vn -0.35991 0.864322 -0.351299
vn -0.359781 0.864382 -0.351286
vn -0.359791 0.864375 -0.351293
vn -0.359809 0.864374 -0.351277
vn -0.6985 0 0.71561
vn -0.69859 -4.38131e-17 0.715523
vn -0.698639 3.73552e-05 0.715474
vn -0.698589 -9.2778e-05 0.715523
vn -0.698655 0 0.715459
vn -0.715539 0 -0.698572
vn -0.715539 4.27752e-17 -0.698572
vn -0.715366 0 -0.69875
vn -0.715507 0 -0.698606
vn 0.715537 -0 0.698575
vn 0.715474 0 0.698639
vn 0.698337 0 -0.715769
vn 0.698645 6.22524e-05 -0.715468
vn 0.698547 -2.52607e-05 -0.715564
vn 0.698337 -0.000352025 -0.715769
vn 0.698619 3.9499e-05 -0.715494
vn 0.698645 5.19231e-05 -0.715469
vn 0.698597 0 -0.715515
vn -1.05897e-19 -1 -6.11237e-17
vn 0.698455 0 -0.715654
vn 0.698455 0 -0.715654
vn -1.14239e-23 -1 -6.12323e-17
vn 0 -1 -6.12323e-17
vn -1.90937e-23 -1 -6.12324e-17
vn 0 -1 -6.12323e-17
vn 0 -1 -6.12333e-17
vn -2.94782e-23 -1 -6.12324e-17
vn -1.94076e-24 -1 -6.12323e-17

# Mesh 'defaultobject' with 48 faces
g defaultobject
usemtl DefaultMaterial
f  1//1 2//1 3//1
f  2//2 1//2 4//2
f  2//3 4//3 5//3
f  2//4 5//4 6//4
f  7//5 5//5 4//5
f  5//6 7//6 8//6
f  5//7 8//7 9//7
f  5//8 9//8 10//8
f  5//9 10//9 11//9
f  11//10 10//10 12//10
f  13//11 5//11 11//11
f  12//12 14//12 11//12
f  14//12 12//12 15//12
f  16//13 5//13 13//13
f  5//14 16//14 6//14
f  6//15 16//15 17//15
f  6//16 17//16 18//16
f  14//17 13//17 11//17
f  13//17 14//17 16//18
f  19//19 9//19 8//19
f  9//19 19//19 20//19
f  21//20 12//20 10//20
f  12//20 21//20 15//20
f  18//21 2//21 6//21
f  2//21 18//21 22//21
f  2//22 22//22 3//22
f  3//22 22//22 23//22
f  23//23 1//23 3//23
f  1//24 23//24 4//24
f  4//25 23//25 7//25
f  7//26 23//26 24//26
f  7//27 24//27 25//27
f  7//28 25//28 8//28
f  8//29 25//29 19//29
f  19//30 25//30 26//30
f  20//31 10//31 9//31
f  10//31 20//31 21//32
f  22//33 24//33 23//33
f  24//33 22//33 25//30
f  25//30 22//33 18//34
f  25//30 18//34 26//30
f  26//30 18//34 17//35
f  26//30 17//35 19//30
f  19//30 17//35 20//34
f  20//34 17//35 16//36
f  20//34 16//36 14//37
f  20//34 14//37 21//38
f  15//39 21//38 14//37

