# File produced by Open Asset Import Library (http://www.assimp.sf.net)
# (assimp v3.1.0)

mtllib ID_24634.obj.mtl

# 20 vertex positions
v  6.666 6.27 -6.779
v  10.616 9.702 -3.8
v  7.112 6.27 -7.234
v  2.428 6.259 -2.477
v  0 6.259 3.83253e-16
v  2.499 8.707 2.45
v  3.497 9.702 3.466
v  14.126 6.264 -0.36
v  5.701 7.502 5.71
v  6.965 6.264 6.948
v  7.112 4.42955e-16 -7.234
v  6.666 4.15094e-16 -6.779
v  2.428 1.51673e-16 -2.477
v  0 0 0
v  2.499 -1.50019e-16 2.45
v  5.701 -3.49637e-16 5.71
v  3.497 -2.12231e-16 3.466
v  6.965 -4.25442e-16 6.948
v  14.126 2.20436e-17 -0.36
v  10.616 2.32683e-16 -3.8

# 0 UV coordinates

# 30 vertex normals
vn -0.409344 0.819413 -0.401247
vn -0.409384 0.819417 -0.401199
vn -0.409381 0.819377 -0.401283
vn -0.409367 0.819424 -0.401201
vn -0.409142 0.819701 -0.400865
vn 0.409488 0.819339 0.401251
vn 0.409446 0.819395 0.401181
vn 0.409442 0.819408 0.401158
vn -0.714135 0 -0.700008
vn -0.712386 0.000253473 -0.701788
vn -0.714132 -0.00240676 -0.700007
vn -0.712386 -0 -0.701788
vn -0.714135 -0 -0.700008
vn -0.714135 4.28631e-17 -0.700008
vn -0.700071 0 0.714073
vn -0.713417 3.95157e-05 0.700739
vn -0.713425 0 0.700732
vn -2.14329e-19 -1 -6.10837e-17
vn -0.699721 0 0.714416
vn 0.714254 -0 0.699887
vn 0.699943 -1.24388e-05 -0.714199
vn 0.699943 0 -0.714199
vn 0.699937 1.3654e-05 -0.714205
vn 0.699949 0 -0.714193
vn -1.16977e-23 -1 -6.12324e-17
vn -2.10547e-24 -1 -6.12323e-17
vn 4.25441e-24 -1 -6.12323e-17
vn -2.26528e-22 -1 -6.12324e-17
vn 1.27288e-23 -1 -6.12323e-17
vn 0 -1 -6.12336e-17

# Mesh 'defaultobject' with 36 faces
g defaultobject
usemtl DefaultMaterial
f  1//1 2//1 3//1
f  2//2 1//2 4//2
f  2//3 4//3 5//3
f  2//4 5//4 6//4
f  2//5 6//5 7//5
f  8//6 9//6 10//6
f  9//7 8//7 7//7
f  7//8 8//8 2//8
f  11//9 1//9 3//9
f  1//10 11//10 4//10
f  4//11 11//11 12//11
f  4//12 12//12 13//12
f  4//13 13//13 5//13
f  5//13 13//13 14//14
f  5//15 15//15 6//15
f  15//15 5//15 14//15
f  6//16 9//16 7//16
f  9//17 6//17 15//17
f  9//17 15//17 16//17
f  16//18 15//18 17//18
f  16//19 10//19 9//19
f  10//19 16//19 18//19
f  18//20 8//20 10//20
f  8//20 18//20 19//20
f  8//21 3//21 2//21
f  3//22 8//22 11//22
f  11//23 8//23 20//23
f  20//24 8//22 19//24
f  16//18 19//25 18//25
f  19//25 16//18 20//26
f  20//26 16//18 17//18
f  20//26 17//18 15//18
f  20//26 15//18 11//27
f  11//27 15//18 12//28
f  12//28 15//18 14//29
f  12//28 14//29 13//30

