# File produced by Open Asset Import Library (http://www.assimp.sf.net)
# (assimp v3.1.0)

mtllib ID_24544.obj.mtl

# 16 vertex positions
v  7.427 11.179 -0.328
v  8.331 7.082 6.37
v  14.178 7.082 -1.191
v  8.278 7.139 6.329
v  6.745 11.179 -0.855
v  5.882 7.082 -7.606
v  0 7.082 4.33647e-16
v  7.96 7.138 6.084
v  6.261 7.09 4.842
v  5.882 4.65733e-16 -7.606
v  0 0 0
v  6.261 -2.96487e-16 4.842
v  7.96 -3.72538e-16 6.084
v  8.331 -3.9005e-16 6.37
v  8.278 -3.87539e-16 6.329
v  14.178 7.29277e-17 -1.191

# 0 UV coordinates

# 23 vertex normals
vn 0.512791 0.761443 0.396547
vn 0.512241 0.761695 0.396775
vn 0.396525 0.761453 -0.512794
vn 0.396444 0.761326 -0.513045
vn -0.51278 0.761448 -0.396552
vn -0.397385 0.761079 0.512683
vn -0.396416 0.761472 0.51285
vn -0.397304 0.761257 0.512481
vn -0.396922 0.760659 0.513664
vn -0.791052 0 -0.611749
vn -0.791052 3.74588e-17 -0.611749
vn -0.61176 0 0.791043
vn -0.61176 0 0.791043
vn -0.590148 0 0.807295
vn -0.590148 0 0.807295
vn -0.610313 0 0.792161
vn -0.611797 0.000105445 0.791015
vn -0.610535 0 0.791989
vn 1.95627e-20 -1 -6.12587e-17
vn 0.791062 -0 0.611736
vn 0.611713 0 -0.791079
vn -5.25025e-25 -1 -6.12323e-17
vn 0 -1 -6.12323e-17

# Mesh 'defaultobject' with 28 faces
g defaultobject
usemtl DefaultMaterial
f  1//1 2//1 3//1
f  2//2 1//2 4//2
f  5//3 3//3 6//3
f  3//4 5//4 1//4
f  5//5 6//5 7//5
f  1//6 8//6 4//6
f  8//7 1//7 9//7
f  9//8 1//8 7//8
f  7//9 1//9 5//9
f  10//10 7//10 6//10
f  7//10 10//10 11//11
f  7//12 12//12 9//12
f  12//12 7//12 11//13
f  9//14 13//14 8//14
f  13//14 9//14 12//15
f  13//16 4//16 8//16
f  4//17 13//17 2//17
f  2//18 13//18 14//18
f  14//19 13//19 15//19
f  14//20 3//20 2//20
f  3//20 14//20 16//20
f  16//21 6//21 3//21
f  6//21 16//21 10//21
f  16//22 11//22 10//22
f  11//22 16//22 12//23
f  12//23 16//22 13//19
f  13//19 16//22 15//19
f  15//19 16//22 14//19

