# File produced by Open Asset Import Library (http://www.assimp.sf.net)
# (assimp v3.1.0)

mtllib ID_24399.obj.mtl

# 16 vertex positions
v  2.396 7.196 -3.261
v  14.91 4.889 0.951
v  4.774 4.93 -6.498
v  12.488 7.196 4.248
v  14.567 5.216 1.419
v  0 4.914 3.00896e-16
v  0.168 4.915 0.123
v  10.091 4.913 7.509
v  0 0 0
v  2.396 1.99679e-16 -3.261
v  4.774 3.97888e-16 -6.498
v  10.091 -4.59794e-16 7.509
v  0.168 -7.53158e-18 0.123
v  12.488 -2.60115e-16 4.248
v  14.567 -8.68887e-17 1.419
v  14.91 -5.8232e-17 0.951

# 0 UV coordinates

# 26 vertex normals
vn 0.293263 0.870954 -0.394255
vn 0.293223 0.871042 -0.394088
vn 0.497111 0.838861 -0.221793
vn -0.293227 0.871039 0.394093
vn -0.292982 0.871576 0.393086
vn -0.293249 0.870978 0.394212
vn -0.805884 6.51197e-05 -0.592073
vn -0.805884 3.6254e-17 -0.592073
vn -0.805863 -5.98505e-05 -0.592103
vn -0.805906 0 -0.592043
vn -0.590739 -4.94061e-17 0.806863
vn -0.597086 0.000334197 0.802177
vn -0.596981 0 0.802255
vn 2.08453e-20 -1 -6.12645e-17
vn 0.805745 -0 0.592263
vn 0.805792 -4.49082e-05 0.592199
vn 0.805745 7.0791e-05 0.592263
vn 0.805807 0 0.592178
vn 0.80657 0 0.591139
vn 0.80657 0 0.591139
vn 0.592187 0 -0.8058
vn 4.22982e-24 -1 -6.12324e-17
vn 0 -1 -6.12323e-17
vn -2.39754e-24 -1 -6.12323e-17
vn 0 -1 -6.12323e-17
vn 3.62667e-24 -1 -6.12323e-17

# Mesh 'defaultobject' with 28 faces
g defaultobject
usemtl DefaultMaterial
f  1//1 2//1 3//1
f  2//2 1//2 4//2
f  2//3 4//3 5//3
f  6//4 4//4 1//4
f  4//5 6//5 7//5
f  4//6 7//6 8//6
f  3//7 6//7 1//7
f  6//8 3//8 9//8
f  9//9 3//9 10//9
f  10//10 3//10 11//10
f  9//11 7//11 6//11
f  7//12 9//12 8//12
f  8//13 9//13 12//13
f  12//14 9//14 13//14
f  12//15 4//15 8//15
f  4//16 12//16 5//16
f  5//17 12//17 14//17
f  5//18 14//18 15//18
f  5//19 15//19 2//19
f  2//19 15//19 16//20
f  2//21 11//21 3//21
f  11//21 2//21 16//21
f  13//14 14//22 12//14
f  14//22 13//14 9//14
f  14//22 9//14 10//23
f  14//22 10//23 15//24
f  15//24 10//23 11//25
f  15//24 11//25 16//26

