# File produced by Open Asset Import Library (http://www.assimp.sf.net)
# (assimp v3.1.0)

mtllib ID_29447.obj.mtl

# 16 vertex positions
v  4.591 13.354 1.669
v  11.564 7.57 -3.555
v  6.967 13.354 -5.194
v  9.177 7.57 3.338
v  2.717 8.006 -6.71
v  2.382 7.584 -6.829
v  0.288 7.928 0.104
v  0 7.565 4.63223e-16
v  2.382 4.18156e-16 -6.829
v  0 0 0
v  4.591 -1.02197e-16 1.669
v  9.177 -2.04394e-16 3.338
v  0.288 -6.36816e-18 0.104
v  11.564 2.17681e-16 -3.555
v  6.967 3.18041e-16 -5.194
v  2.717 4.10869e-16 -6.71

# 0 UV coordinates

# 25 vertex normals
vn 0.722234 0.64487 0.250041
vn 0.72225 0.644826 0.25011
vn -0.722252 0.644847 -0.250047
vn -0.72295 0.644269 -0.249522
vn -0.722202 0.644873 -0.250126
vn -0.72231 0.644742 -0.250153
vn -0.944209 0 -0.329346
vn -0.944209 2.01666e-17 -0.329346
vn -0.341893 8.71677e-05 0.939739
vn -0.341826 0.00195728 0.939761
vn -0.341825 0 0.939763
vn -0.341661 -0.000225658 0.939823
vn -0.34199 0 0.939704
vn 0 -1 -6.12198e-17
vn 0.944945 -0 0.327228
vn 0.33583 0 -0.941923
vn 0.335929 3.82209e-05 -0.941887
vn 0.33583 -8.44747e-05 -0.941923
vn 0.335229 -0.000444213 -0.942137
vn 0.335971 6.16613e-05 -0.941872
vn 0.334732 0 -0.942313
vn 0 -1 -6.12323e-17
vn 2.24983e-24 -1 -6.12323e-17
vn -6.01491e-24 -1 -6.12323e-17
vn -4.39071e-20 -1 -6.11187e-17

# Mesh 'defaultobject' with 28 faces
g defaultobject
usemtl DefaultMaterial
f  1//1 2//1 3//1
f  2//2 1//2 4//2
f  5//3 1//3 3//3
f  1//4 5//4 6//4
f  1//5 6//5 7//5
f  7//6 6//6 8//6
f  9//7 8//7 6//7
f  8//7 9//7 10//8
f  7//9 4//9 1//9
f  4//10 7//10 8//10
f  4//11 8//11 10//11
f  4//12 10//12 11//12
f  4//13 11//13 12//13
f  11//14 10//14 13//14
f  12//15 2//15 4//15
f  2//15 12//15 14//15
f  14//16 3//16 2//16
f  3//17 14//17 5//17
f  5//18 14//18 15//18
f  5//19 15//19 6//19
f  6//20 15//20 16//20
f  6//21 16//21 9//21
f  11//14 14//22 12//22
f  14//22 11//14 13//14
f  14//22 13//14 10//14
f  14//22 10//14 15//23
f  15//23 10//14 9//24
f  15//23 9//24 16//25

