# File produced by Open Asset Import Library (http://www.assimp.sf.net)
# (assimp v3.1.0)

mtllib ID_34104.obj.mtl

# 20 vertex positions
v  1.168 3.218 2.361
v  4.997 4.306 -2.365
v  0 3.216 1.96923e-16
v  6.891 4.306 1.499
v  1.907 3.219 3.856
v  9.996 3.216 -4.73
v  8.932 3.861 0.534
v  9.341 3.772 0.341
v  9.377 3.772 0.412
v  11.899 3.216 -0.848
v  1.907 -2.36112e-16 3.856
v  6.891 -9.17873e-17 1.499
v  8.932 -3.26981e-17 0.534
v  9.341 -2.08802e-17 0.341
v  9.377 -2.52277e-17 0.412
v  11.899 5.1925e-17 -0.848
v  1.168 -1.4457e-16 2.361
v  0 0 0
v  9.996 2.89629e-16 -4.73
v  4.997 1.44814e-16 -2.365

# 0 UV coordinates

# 33 vertex normals
vn -0.173727 0.981109 0.0851129
vn -0.173696 0.981112 0.0851396
vn -0.173686 0.981109 0.0851991
vn 0.173657 0.981121 -0.0851206
vn 0.173671 0.981119 -0.0851131
vn 0.173306 0.981176 -0.0851939
vn 0.169208 0.981839 -0.085796
vn 0.173742 0.981101 -0.0851703
vn 0.427517 -0 0.904007
vn 0.427517 0 0.904007
vn 0.427439 0 0.904044
vn 0.427439 0 0.904044
vn 0.426756 0 0.904367
vn 0.44693 -0 0.894569
vn 0.44693 0 0.894569
vn -0.891899 0 0.452234
vn -0.896457 0 0.443131
vn -0.896317 0.00016279 0.443413
vn -0.896457 -0.000257389 0.443131
vn -0.896317 0 0.443413
vn 0.897915 0 -0.440168
vn -0.427651 0 -0.903944
vn -0.427651 -0 -0.903944
vn -0.427791 -0 -0.903878
vn -0.427791 5.53465e-17 -0.903878
vn 0 -1 -6.12323e-17
vn 4.62228e-22 -1 -6.12323e-17
vn 0 -1 -6.12323e-17
vn 0 -1 -6.12324e-17
vn -5.44974e-24 -1 -6.12323e-17
vn 8.92654e-24 -1 -6.12323e-17
vn -2.29751e-23 -1 -6.12324e-17
vn 3.6359e-24 -1 -6.12323e-17

# Mesh 'defaultobject' with 36 faces
g defaultobject
usemtl DefaultMaterial
f  1//1 2//1 3//1
f  2//2 1//2 4//2
f  4//3 1//3 5//3
f  2//4 4//4 6//4
f  7//5 6//5 4//5
f  8//6 6//6 7//6
f  9//7 6//7 8//7
f  10//8 6//8 9//8
f  11//9 4//9 5//9
f  4//9 11//9 12//10
f  4//11 12//11 7//11
f  7//11 12//11 13//12
f  7//13 13//13 8//13
f  8//13 13//13 14//13
f  15//14 10//14 9//14
f  10//14 15//14 16//15
f  14//16 9//16 8//16
f  9//16 14//16 15//16
f  1//17 11//17 5//17
f  11//18 1//18 3//18
f  11//19 3//19 17//19
f  17//20 3//20 18//20
f  16//21 6//21 10//21
f  6//21 16//21 19//21
f  19//22 2//22 6//22
f  2//22 19//22 20//23
f  2//24 20//24 3//24
f  3//24 20//24 18//25
f  15//26 19//26 16//26
f  19//26 15//26 14//27
f  19//26 14//27 20//28
f  20//28 14//27 13//29
f  20//28 13//29 12//30
f  20//28 12//30 11//31
f  20//28 11//31 17//32
f  20//28 17//32 18//33

