# File produced by Open Asset Import Library (http://www.assimp.sf.net)
# (assimp v3.1.0)

mtllib ID_30642.obj.mtl

# 12 vertex positions
v  0 5.162 3.16081e-16
v  6.415 5.162 4.177
v  6.296 5.162 -0.08
v  6.285 5.162 4.181
v  0.337 5.162 10.319
v  6.511 5.162 10.316
v  6.415 -2.55768e-16 4.177
v  6.296 4.89859e-18 -0.08
v  6.511 -6.31673e-16 10.316
v  6.285 -2.56012e-16 4.181
v  0 0 0
v  0.337 -6.31857e-16 10.319

# 0 UV coordinates

# 13 vertex normals
vn -0 1 0
vn 0.999609 0 -0.027943
vn 0.999322 0 -0.0368129
vn -0.0127055 0 -0.999919
vn -0.0127055 6.12274e-17 -0.999919
vn -0.999467 -1.99867e-18 0.0326408
vn -0.999467 0 0.0326408
vn 0.000485951 -0 1
vn 0.0307524 -0 0.999527
vn -5.0907e-26 -1 -6.12323e-17
vn -1.67551e-23 -1 -6.12324e-17
vn 1.01925e-22 -1 -6.12323e-17
vn 6.53227e-24 -1 -6.12323e-17

# Mesh 'defaultobject' with 20 faces
g defaultobject
usemtl DefaultMaterial
f  1//1 2//1 3//1
f  2//1 1//1 4//1
f  4//1 1//1 5//1
f  4//1 5//1 6//1
f  7//2 3//2 2//2
f  3//2 7//2 8//2
f  9//3 4//3 6//3
f  4//3 9//3 10//3
f  8//4 1//4 3//4
f  1//4 8//4 11//5
f  11//6 5//6 1//6
f  5//6 11//6 12//7
f  12//8 6//8 5//8
f  6//8 12//8 9//8
f  10//9 2//9 4//9
f  2//9 10//9 7//9
f  8//10 12//10 11//10
f  12//10 8//10 10//11
f  10//11 8//10 7//12
f  12//10 10//11 9//13

