# File produced by Open Asset Import Library (http://www.assimp.sf.net)
# (assimp v3.1.0)

mtllib ID_45958.obj.mtl

# 8 vertex positions
v  0 15.627 9.56878e-16
v  6.449 6.312 1.069
v  5.241 6.312 -2.038
v  1.208 15.627 3.106
v  6.449 -6.54574e-17 1.069
v  5.241 1.24791e-16 -2.038
v  0 0 0
v  1.208 -1.90188e-16 3.106

# 0 UV coordinates

# 10 vertex normals
vn 0.797912 0.516812 -0.310228
vn 0.797892 0.516787 -0.31032
vn 0.932033 0 -0.362374
vn -0.362421 0 -0.932015
vn -0.362421 0 -0.932015
vn -0.931993 -2.21952e-17 0.362475
vn -0.931993 0 0.362475
vn 0.362266 -0 0.932075
vn 0 -1 -6.12323e-17
vn -5.64976e-24 -1 -6.12323e-17

# Mesh 'defaultobject' with 12 faces
g defaultobject
usemtl DefaultMaterial
f  1//1 2//1 3//1
f  2//2 1//2 4//2
f  5//3 3//3 2//3
f  3//3 5//3 6//3
f  3//4 7//4 1//4
f  7//4 3//4 6//5
f  7//6 4//6 1//6
f  4//6 7//6 8//7
f  8//8 2//8 4//8
f  2//8 8//8 5//8
f  8//9 6//9 5//9
f  6//9 8//9 7//10

