# File produced by Open Asset Import Library (http://www.assimp.sf.net)
# (assimp v3.1.0)

mtllib ID_45161.obj.mtl

# 8 vertex positions
v  1.421 3.031 -2.317
v  6.15 3.031 3.755
v  7.667 3.031 1.359
v  0 3.031 1.85595e-16
v  7.667 -8.32148e-17 1.359
v  1.421 1.41875e-16 -2.317
v  0 0 0
v  6.15 -2.29927e-16 3.755

# 0 UV coordinates

# 9 vertex normals
vn 0 1 0
vn 0.507213 0 -0.861821
vn -0.852453 0 -0.522804
vn -0.852453 3.20125e-17 -0.522804
vn -0.521113 -5.2261e-17 0.853488
vn -0.521113 0 0.853488
vn 0.844894 -0 0.534935
vn -5.1543e-24 -1 -6.12323e-17
vn 0 -1 -6.12323e-17

# Mesh 'defaultobject' with 12 faces
g defaultobject
usemtl DefaultMaterial
f  1//1 2//1 3//1
f  2//1 1//1 4//1
f  5//2 1//2 3//2
f  1//2 5//2 6//2
f  6//3 4//3 1//3
f  4//3 6//3 7//4
f  7//5 2//5 4//5
f  2//5 7//5 8//6
f  8//7 3//7 2//7
f  3//7 8//7 5//7
f  8//8 6//8 5//8
f  6//8 8//8 7//9

