# File produced by Open Asset Import Library (http://www.assimp.sf.net)
# (assimp v3.1.0)

mtllib ID_53041.obj.mtl

# 12 vertex positions
v  0 3.046 1.86514e-16
v  0.946 3.046 -3.317
v  0.805 3.046 -3.348
v  2.885 3.046 -5.326
v  1.346 3.046 -5.607
v  1.885 3.046 0.308
v  1.346 3.4333e-16 -5.607
v  0.946 2.03108e-16 -3.317
v  0.805 2.05006e-16 -3.348
v  0 0 0
v  2.885 3.26123e-16 -5.326
v  1.885 -1.88596e-17 0.308

# 0 UV coordinates

# 13 vertex normals
vn 0 1 0
vn -0.985085 0 -0.172067
vn -0.97229 0 -0.233779
vn -0.97229 1.43149e-17 -0.233779
vn 0.214731 0 -0.976673
vn 0.179616 0 -0.983737
vn -0.161257 -6.0431e-17 0.986913
vn -0.161257 0 0.986913
vn 0.984611 -0 0.174762
vn 0 -1 -6.12323e-17
vn -2.19659e-22 -1 -6.12323e-17
vn 1.18761e-23 -1 -6.12323e-17
vn -8.18831e-24 -1 -6.12324e-17

# Mesh 'defaultobject' with 20 faces
g defaultobject
usemtl DefaultMaterial
f  1//1 2//1 3//1
f  2//1 4//1 5//1
f  4//1 2//1 6//1
f  6//1 2//1 1//1
f  7//2 2//2 5//2
f  2//2 7//2 8//2
f  9//3 1//3 3//3
f  1//3 9//3 10//4
f  8//5 3//5 2//5
f  3//5 8//5 9//5
f  11//6 5//6 4//6
f  5//6 11//6 7//6
f  10//7 6//7 1//7
f  6//7 10//7 12//8
f  12//9 4//9 6//9
f  4//9 12//9 11//9
f  9//10 12//10 10//10
f  12//10 9//10 8//11
f  12//10 8//11 11//12
f  11//12 8//11 7//13

