# File produced by Open Asset Import Library (http://www.assimp.sf.net)
# (assimp v3.1.0)

mtllib ID_54714.obj.mtl

# 8 vertex positions
v  3.922 1.229 -0.587
v  0 1.229 7.52545e-17
v  2.193 1.229 1.676
v  1.729 1.229 -2.262
v  0 0 0
v  2.193 -1.02625e-16 1.676
v  3.922 3.59434e-17 -0.587
v  1.729 1.38508e-16 -2.262

# 0 UV coordinates

# 9 vertex normals
vn 0 1 0
vn -0.607221 -4.86511e-17 0.794533
vn -0.607221 0 0.794533
vn 0.794617 -0 0.607111
vn 0.606993 0 -0.794707
vn -0.794487 0 -0.607281
vn -0.794487 3.71852e-17 -0.607281
vn 0 -1 -6.12323e-17
vn 0 -1 -6.12323e-17

# Mesh 'defaultobject' with 12 faces
g defaultobject
usemtl DefaultMaterial
f  1//1 2//1 3//1
f  2//1 1//1 4//1
f  5//2 3//2 2//2
f  3//2 5//2 6//3
f  6//4 1//4 3//4
f  1//4 6//4 7//4
f  7//5 4//5 1//5
f  4//5 7//5 8//5
f  8//6 2//6 4//6
f  2//6 8//6 5//7
f  8//8 6//8 5//8
f  6//8 8//8 7//9

