# File produced by Open Asset Import Library (http://www.assimp.sf.net)
# (assimp v3.1.0)

mtllib ID_8833.obj.mtl

# 28 vertex positions
v  3.493 11.427 -7.991
v  11.763 9.847 -9.219
v  6.104 9.835 -12.563
v  2.621 11.946 -6.509
v  19.068 11.946 3.08
v  20.06 10.818 -0.66
v  21.62 9.867 -3.394
v  21.199 10.124 -2.656
v  20.877 10.811 -0.212
v  15.647 9.847 9.123
v  2.635 11.458 -4.631
v  0 9.847 6.02955e-16
v  1.852 11.488 -5.202
v  18.237 11.425 4.592
v  1.852 3.18531e-16 -5.202
v  2.635 2.83567e-16 -4.631
v  0 0 0
v  15.647 -5.58623e-16 9.123
v  6.104 7.69262e-16 -12.563
v  3.493 4.89308e-16 -7.991
v  2.621 3.98561e-16 -6.509
v  20.877 1.29813e-17 -0.212
v  18.237 -2.81179e-16 4.592
v  19.068 -1.88596e-16 3.08
v  20.06 4.04133e-17 -0.66
v  21.62 2.07823e-16 -3.394
v  21.199 1.62633e-16 -2.656
v  11.763 5.64501e-16 -9.219

# 0 UV coordinates

# 51 vertex normals
vn 0.145741 0.957196 -0.250071
vn 0.145863 0.957342 -0.249438
vn 0.145702 0.957245 -0.249907
vn 0.145876 0.957193 -0.250002
vn 0.145701 0.957262 -0.24984
vn -0.796245 0.261795 -0.545397
vn 0.145369 0.957232 -0.250148
vn -0.145783 0.957199 0.250035
vn -0.145516 0.957291 0.249838
vn -0.145659 0.95727 0.249833
vn -0.145729 0.95722 0.249986
vn -0.160458 0.957023 0.24158
vn -0.589214 0 0.807977
vn -0.503689 -5.28977e-17 0.863885
vn -0.503689 0 0.863885
vn -0.869154 0 -0.494541
vn -0.869154 3.02819e-17 -0.494541
vn -0.868372 0 -0.495914
vn -0.860791 0.00693272 -0.508912
vn -0.862614 0.00484395 -0.505839
vn -0.868366 -0.00364674 -0.495911
vn -0.861879 -0 -0.507115
vn 5.81269e-19 1 6.13238e-17
vn 0.868172 -0 0.496263
vn 0.877616 -0.00887458 0.479283
vn 0.875466 -0.00625812 0.483239
vn 0.87241 0 0.488774
vn 4.40696e-22 1 6.12327e-17
vn 0 1 6.13108e-17
vn 0.868538 -0 0.495623
vn 0.8686 -2.86081e-05 0.495514
vn 0.868556 0 0.495592
vn 1.00655e-19 1 6.12988e-17
vn 0.480805 0 -0.876827
vn 0.480805 0 -0.876827
vn 0.508756 0 -0.860911
vn 0.508756 0 -0.860911
vn 0.508734 0 -0.860923
vn 0.508734 0 -0.860924
vn -2.24023e-24 -1 -6.12323e-17
vn 8.43247e-25 -1 -6.12323e-17
vn 7.74609e-25 -1 -6.12323e-17
vn 4.34165e-26 -1 -6.12323e-17
vn 0 -1 -6.12323e-17
vn -2.73322e-24 -1 -6.12324e-17
vn -6.64272e-25 -1 -6.12323e-17
vn 0 -1 -6.12323e-17
vn -1.87438e-24 -1 -6.12323e-17
vn -4.36598e-23 -1 -6.12324e-17
vn 0 -1 -6.12323e-17
vn -5.84328e-19 -1 -6.16466e-17

# Mesh 'defaultobject' with 52 faces
g defaultobject
usemtl DefaultMaterial
f  1//1 2//1 3//1
f  2//2 1//2 4//2
f  2//3 4//3 5//3
f  2//4 5//4 6//4
f  2//5 6//5 7//5
f  7//6 6//6 8//6
f  6//7 5//7 9//7
f  10//8 11//8 12//8
f  11//9 4//9 13//9
f  4//10 11//10 5//10
f  5//11 11//11 10//11
f  5//12 10//12 14//12
f  15//13 11//13 13//13
f  11//13 15//13 16//13
f  17//14 10//14 12//14
f  10//14 17//14 18//15
f  16//16 12//16 11//16
f  12//16 16//16 17//17
f  19//18 1//18 3//18
f  1//19 19//19 4//19
f  4//20 19//20 13//20
f  13//21 19//21 20//21
f  13//22 20//22 15//22
f  15//23 20//23 21//23
f  18//24 14//24 10//24
f  14//25 18//25 5//25
f  5//26 18//26 9//26
f  9//27 18//27 22//27
f  22//28 18//28 23//28
f  22//28 23//28 24//29
f  25//30 8//30 6//30
f  8//31 25//31 7//31
f  7//32 25//32 26//32
f  26//33 25//33 27//33
f  9//34 25//34 6//34
f  25//34 9//34 22//35
f  26//36 2//36 7//36
f  2//36 26//36 28//37
f  2//38 28//38 3//38
f  3//38 28//38 19//39
f  17//40 23//40 18//40
f  23//40 17//40 24//41
f  24//41 17//40 22//42
f  22//42 17//40 25//43
f  25//43 17//40 27//44
f  27//44 17//40 26//45
f  26//45 17//40 28//46
f  28//46 17//40 16//47
f  28//46 16//47 19//48
f  19//48 16//47 20//49
f  20//49 16//47 15//50
f  20//49 15//50 21//51

