# {"id":"ID_47335","idOriginal":"ID_47335","origin":[14.29484982829752,48.29136411123323],"elevation":262.764}
# Longitude: 14.29484982829752
# Latitude: 48.29136411123323
# Elevation: 262.764

# File produced by Open Asset Import Library (http://www.assimp.sf.net)
# (assimp v3.1.0)

mtllib ID_47335.obj.mtl

# 8 vertex positions
v  0 4.65 2.8473e-16
v  7.246 2.542 -10.005
v  6.054 4.555 -10.66
v  1.221 2.542 0.735
v  0 0 0
v  6.054 6.52737e-16 -10.66
v  1.221 -4.50058e-17 0.735
v  7.246 6.1263e-16 -10.005

# 0 UV coordinates

# 11 vertex normals
vn 0.72265 0.559834 0.405416
vn 0.722619 0.559901 0.40538
vn -0.869555 0 -0.493836
vn -0.869555 0 -0.493836
vn -0.515733 -5.24608e-17 0.856749
vn -0.515734 0 0.856749
vn 0.872139 -0 0.489258
vn 0.48158 0 -0.876402
vn 0.48158 0 -0.876402
vn 0 -1 -6.12323e-17
vn -5.05738e-23 -1 -6.12324e-17

# Mesh 'defaultobject' with 12 faces
g defaultobject
usemtl DefaultMaterial
f  1//1 2//1 3//1
f  2//2 1//2 4//2
f  3//3 5//3 1//3
f  5//3 3//3 6//4
f  5//5 4//5 1//5
f  4//5 5//5 7//6
f  7//7 2//7 4//7
f  2//7 7//7 8//7
f  2//8 6//8 3//8
f  6//8 2//8 8//9
f  6//10 7//10 5//10
f  7//10 6//10 8//11

