# File produced by Open Asset Import Library (http://www.assimp.sf.net)
# (assimp v3.1.0)

mtllib ID_22390.obj.mtl

# 22 vertex positions
v  6.98 12.048 3.445
v  0 7.843 4.80245e-16
v  3.893 7.843 10.347
v  0.02 7.86 -0.008
v  6.826 12.048 3.036
v  13.734 7.893 6.465
v  3.902 7.822 10.372
v  9.863 7.912 -3.752
v  13.828 7.812 6.428
v  7.607 7.852 -2.96
v  9.808 7.793 -3.893
v  4.313 7.843 -1.695
v  7.607 1.81248e-16 -2.96
v  9.808 2.38377e-16 -3.893
v  0.02 4.89859e-19 -0.008
v  4.313 1.03789e-16 -1.695
v  0 0 0
v  3.893 -6.33571e-16 10.347
v  3.902 -6.35102e-16 10.372
v  13.734 -3.95867e-16 6.465
v  13.828 -3.93601e-16 6.428
v  9.863 2.29744e-16 -3.752

# 0 UV coordinates

# 37 vertex normals
vn -0.580394 0.784511 0.21837
vn -0.580192 0.78491 0.217473
vn -0.580437 0.784429 0.218551
vn 0.224128 0.784452 0.578275
vn 0.224095 0.784521 0.578194
vn 0.585504 0.780138 -0.220384
vn 0.580314 0.784559 -0.218409
vn 0.580227 0.784606 -0.218471
vn -0.223248 0.786106 -0.576366
vn -0.223854 0.78458 -0.578207
vn -0.224187 0.784496 -0.578192
vn -0.224116 0.784492 -0.578225
vn -0.390281 0 -0.920696
vn -0.390281 0 -0.920696
vn -0.358504 0 -0.933528
vn -0.362606 -0.00197855 -0.931941
vn 2.09528e-22 1 6.12329e-17
vn -0.36574 0 -0.930717
vn -0.371391 -0 -0.928477
vn -0.371391 5.68528e-17 -0.928477
vn -0.935946 -2.15626e-17 0.352144
vn -0.935946 0 0.352144
vn -0.940888 0 0.338718
vn -0.940888 0 0.338718
vn 0.369287 -0 0.929315
vn 0.369287 0 0.929315
vn 0.366267 0 0.93051
vn 0.931632 0 -0.363404
vn 0.931816 -9.68119e-06 -0.362932
vn 0.931631 0.000707899 -0.363404
vn 0.931816 0 -0.362932
vn 2.06693e-24 -1 -6.12323e-17
vn -9.43596e-22 -1 -6.12347e-17
vn 1.09163e-23 -1 -6.12323e-17
vn 0 -1 -6.12323e-17
vn -5.25176e-20 -1 -6.12224e-17
vn -5.6963e-23 -1 -6.12323e-17

# Mesh 'defaultobject' with 39 faces
g defaultobject
usemtl DefaultMaterial
f  1//1 2//1 3//1
f  2//2 1//2 4//2
f  4//3 1//3 5//3
f  6//4 3//4 7//4
f  3//5 6//5 1//5
f  8//6 6//6 9//6
f  6//7 8//7 1//7
f  1//8 8//8 5//8
f  10//9 8//9 11//9
f  8//10 10//10 5//10
f  5//11 10//11 12//11
f  5//12 12//12 4//12
f  11//13 13//13 10//13
f  13//13 11//13 14//14
f  13//15 12//15 10//15
f  12//16 13//16 15//16
f  15//17 13//17 16//17
f  15//18 4//18 12//18
f  4//19 15//19 2//19
f  2//19 15//19 17//20
f  17//21 3//21 2//21
f  3//21 17//21 18//22
f  3//23 18//23 7//23
f  7//23 18//23 19//24
f  19//25 6//25 7//25
f  6//25 19//25 20//26
f  6//27 20//27 9//27
f  9//27 20//27 21//27
f  8//28 14//28 11//28
f  14//29 8//29 9//29
f  14//30 9//30 22//30
f  22//31 9//29 21//31
f  16//32 18//32 17//32
f  18//32 20//33 19//33
f  20//33 18//32 16//32
f  20//33 16//32 13//34
f  20//33 13//34 14//35
f  20//33 14//35 22//36
f  20//33 22//36 21//37

