# File produced by Open Asset Import Library (http://www.assimp.sf.net)
# (assimp v3.1.0)

mtllib ID_28789.obj.mtl

# 16 vertex positions
v  4.443 9.741 -1.726
v  10.304 6.634 0.198
v  8.882 6.632 -3.451
v  11.723 6.632 3.82
v  7.28 9.741 5.535
v  2.468 6.638 6.279
v  0 6.629 4.05909e-16
v  2.848 6.64 7.246
v  0 0 0
v  2.468 -3.84478e-16 6.279
v  2.848 -4.4369e-16 7.246
v  7.28 -3.38921e-16 5.535
v  11.723 -2.33908e-16 3.82
v  8.882 2.11313e-16 -3.451
v  10.304 -1.2124e-17 0.198
v  4.443 1.05687e-16 -1.726

# 0 UV coordinates

# 27 vertex normals
vn 0.509186 0.837361 -0.198887
vn 0.509208 0.837313 -0.199031
vn 0.509159 0.837366 -0.198937
vn -0.509206 0.837335 0.198947
vn -0.509195 0.83734 0.198951
vn -0.509314 0.837396 0.198412
vn -0.930688 -2.23996e-17 0.365813
vn -0.930688 0 0.365813
vn -0.930716 0 0.365742
vn -0.930716 0 0.365742
vn 0.360149 -0 0.932895
vn 0.360115 1.78536e-05 0.932908
vn 0.360149 -3.4627e-05 0.932895
vn 0.360105 0 0.932912
vn 0.931095 0 -0.364777
vn 0.93175 0.0010561 -0.3631
vn 0.931424 0 -0.363936
vn 0 -1 -6.12322e-17
vn -0.362163 8.29813e-05 -0.932115
vn -0.362163 5.70756e-17 -0.932115
vn -0.362112 -7.78053e-05 -0.932135
vn -0.362213 0 -0.932095
vn -2.85756e-24 -1 -6.12323e-17
vn 0 -1 -6.12323e-17
vn -4.27806e-23 -1 -6.12323e-17
vn -6.59122e-24 -1 -6.12323e-17
vn -1.64627e-24 -1 -6.12323e-17

# Mesh 'defaultobject' with 28 faces
g defaultobject
usemtl DefaultMaterial
f  1//1 2//1 3//1
f  2//2 1//2 4//2
f  4//3 1//3 5//3
f  6//4 1//4 7//4
f  1//5 6//5 5//5
f  5//6 6//6 8//6
f  9//7 6//7 7//7
f  6//7 9//7 10//8
f  6//9 10//9 8//9
f  8//9 10//9 11//10
f  11//11 5//11 8//11
f  5//12 11//12 4//12
f  4//13 11//13 12//13
f  4//14 12//14 13//14
f  13//15 2//15 4//15
f  2//16 13//16 3//16
f  3//17 13//17 14//17
f  14//18 13//18 15//18
f  3//19 7//19 1//19
f  7//20 3//20 9//20
f  9//21 3//21 16//21
f  16//22 3//22 14//22
f  12//23 15//18 13//18
f  15//18 12//23 11//24
f  15//18 11//24 14//18
f  14//18 11//24 10//25
f  14//18 10//25 16//26
f  16//26 10//25 9//27

