# File produced by Open Asset Import Library (http://www.assimp.sf.net)
# (assimp v3.1.0)

mtllib ID_25629.obj.mtl

# 8 vertex positions
v  0 9.058 5.54643e-16
v  11.105 9.058 11.005
v  6.1 9.058 -2.278
v  4.915 9.058 13.341
v  11.105 -6.73862e-16 11.005
v  6.1 1.39487e-16 -2.278
v  0 0 0
v  4.915 -8.16901e-16 13.341

# 0 UV coordinates

# 9 vertex normals
vn -0 1 0
vn 0.935775 0 -0.352598
vn -0.349844 0 -0.936808
vn -0.349844 5.73629e-17 -0.936808
vn -0.938345 -2.11679e-17 0.345699
vn -0.938345 0 0.345699
vn 0.353077 -0 0.935594
vn 0 -1 -6.12323e-17
vn 9.00503e-24 -1 -6.12323e-17

# Mesh 'defaultobject' with 12 faces
g defaultobject
usemtl DefaultMaterial
f  1//1 2//1 3//1
f  2//1 1//1 4//1
f  5//2 3//2 2//2
f  3//2 5//2 6//2
f  6//3 1//3 3//3
f  1//3 6//3 7//4
f  7//5 4//5 1//5
f  4//5 7//5 8//6
f  8//7 2//7 4//7
f  2//7 8//7 5//7
f  5//8 7//8 6//8
f  7//8 5//8 8//9

