# File produced by Open Asset Import Library (http://www.assimp.sf.net)
# (assimp v3.1.0)

mtllib ID_24916.obj.mtl

# 18 vertex positions
v  12.25 6.715 3.982
v  8.263 9.162 7.368
v  12.813 6.74 5.536
v  12.238 6.715 3.95
v  9.389 6.716 -3.212
v  9.195 6.714 -3.71
v  4.597 9.162 -1.855
v  0 6.714 4.11114e-16
v  3.662 6.713 9.221
v  9.195 2.27172e-16 -3.71
v  9.389 1.96678e-16 -3.212
v  12.238 -2.41868e-16 3.95
v  12.813 -3.38982e-16 5.536
v  12.25 -2.43827e-16 3.982
v  4.597 1.13586e-16 -1.855
v  0 0 0
v  3.662 -5.64623e-16 9.221
v  8.263 -4.5116e-16 7.368

# 0 UV coordinates

# 32 vertex normals
vn 0.411462 0.896643 -0.163493
vn 0.416829 0.895444 -0.156313
vn 0.411383 0.896674 -0.163521
vn 0.410811 0.896916 -0.163637
vn 0.411412 0.896659 -0.16353
vn -0.411474 0.896626 0.163555
vn -0.411427 0.89666 0.16349
vn 0.931794 0 -0.362988
vn 0.929182 0.00056741 -0.369623
vn 0.931763 -0.00818418 -0.362976
vn 0.929182 0 -0.369623
vn 0.940199 0 -0.340625
vn 0.936324 -0.00275496 -0.351126
vn 0.940122 0 -0.340838
vn 4.57916e-21 1 6.12307e-17
vn -0.374136 0 -0.927374
vn -0.374191 -3.22117e-05 -0.927351
vn -0.374136 5.5693e-05 -0.927374
vn -0.374206 5.67835e-17 -0.927346
vn -0.929391 -2.26006e-17 0.369096
vn -0.929391 0 0.369096
vn 0.373579 -0 0.927598
vn 0.373516 3.71404e-05 0.927624
vn 0.373579 -6.32717e-05 0.927598
vn 0.373499 0 0.927631
vn 8.60604e-24 -1 -6.12323e-17
vn 3.2637e-24 -1 -6.12323e-17
vn -6.30434e-24 -1 -6.12323e-17
vn 1.20155e-23 -1 -6.12324e-17
vn 1.38594e-24 -1 -6.12323e-17
vn 8.74191e-24 -1 -6.12323e-17
vn 0 -1 -6.12222e-17

# Mesh 'defaultobject' with 32 faces
g defaultobject
usemtl DefaultMaterial
f  1//1 2//1 3//1
f  2//2 1//2 4//2
f  2//3 4//3 5//3
f  2//4 5//4 6//4
f  2//5 6//5 7//5
f  8//6 2//6 7//6
f  2//7 8//7 9//7
f  5//8 10//8 6//8
f  10//9 5//9 4//9
f  10//10 4//10 11//10
f  11//11 4//11 12//11
f  13//12 1//12 3//12
f  1//13 13//13 4//13
f  4//14 13//14 12//14
f  12//15 13//15 14//15
f  10//16 7//16 6//16
f  7//17 10//17 8//17
f  8//18 10//18 15//18
f  8//19 15//19 16//19
f  16//20 9//20 8//20
f  9//20 16//20 17//21
f  17//22 2//22 9//22
f  2//23 17//23 3//23
f  3//24 17//24 18//24
f  3//25 18//25 13//25
f  16//26 18//26 17//26
f  18//26 16//26 13//27
f  13//27 16//26 14//28
f  14//28 16//26 12//29
f  12//29 16//26 11//30
f  11//30 16//26 10//31
f  10//31 16//26 15//32

