# File produced by Open Asset Import Library (http://www.assimp.sf.net)
# (assimp v3.1.0)

mtllib ID_23159.obj.mtl

# 20 vertex positions
v  9.596 4.029 -3.743
v  9.943 4.029 -2.87
v  9.61 4.017 -3.748
v  13.238 4.143 5.823
v  4.286 8.524 -1.671
v  8.078 8.524 7.88
v  2.924 4.149 9.934
v  1.703 4.855 4.432
v  0.794 4.108 4.711
v  0 4.897 2.99855e-16
v  2.924 -6.08282e-16 9.934
v  0.794 -2.88466e-16 4.711
v  0 0 0
v  1.703 -2.71382e-16 4.432
v  8.078 -4.82511e-16 7.88
v  13.238 -3.56556e-16 5.823
v  9.943 1.75737e-16 -2.87
v  9.61 2.29499e-16 -3.748
v  9.596 2.29193e-16 -3.743
v  4.286 1.02319e-16 -1.671

# 0 UV coordinates

# 35 vertex normals
vn 0.583899 0.777944 -0.232088
vn 0.564778 0.794123 -0.224488
vn 0.575538 0.785209 -0.228478
vn 0.575555 0.785188 -0.22851
vn -0.575302 0.785391 0.22845
vn -0.575524 0.78522 0.228477
vn -0.575496 0.785238 0.228487
vn -0.575425 0.785271 0.228549
vn -0.925962 0 0.377618
vn -0.925961 0 0.377618
vn -0.93346 -2.1963e-17 0.358683
vn -0.93346 0 0.358683
vn 0.370209 -0 0.928948
vn 0.370272 -4.38131e-05 0.928923
vn 0.370209 0.000136665 0.928948
vn 0.370304 0 0.928911
vn 0.935081 0 -0.354434
vn 0.93501 0 -0.354622
vn 0.93501 0 -0.354622
vn -0.336345 0 -0.941739
vn -0.336345 0 -0.941739
vn -0.363513 0 -0.931589
vn -0.363336 0.000126634 -0.931658
vn -0.363513 -0.000271692 -0.931589
vn -0.363243 5.70498e-17 -0.931694
vn -0.29342 0 -0.955984
vn -0.29342 -0 -0.955983
vn 4.74131e-22 -1 -6.12325e-17
vn 4.94336e-24 -1 -6.12323e-17
vn 9.96472e-25 -1 -6.12323e-17
vn -1.12451e-24 -1 -6.12323e-17
vn -3.69707e-24 -1 -6.12323e-17
vn -9.46107e-24 -1 -6.12323e-17
vn 3.43037e-24 -1 -6.12323e-17
vn -4.95505e-24 -1 -6.12323e-17

# Mesh 'defaultobject' with 36 faces
g defaultobject
usemtl DefaultMaterial
f  1//1 2//1 3//1
f  2//2 1//2 4//2
f  4//3 1//3 5//3
f  4//4 5//4 6//4
f  7//5 8//5 9//5
f  8//6 7//6 5//6
f  5//7 7//7 6//7
f  5//8 10//8 8//8
f  9//9 11//9 7//9
f  11//9 9//9 12//10
f  13//11 8//11 10//11
f  8//11 13//11 14//12
f  11//13 6//13 7//13
f  6//14 11//14 4//14
f  4//15 11//15 15//15
f  4//16 15//16 16//16
f  16//17 2//17 4//17
f  2//17 16//17 17//17
f  2//18 17//18 3//18
f  3//18 17//18 18//19
f  3//20 19//20 1//20
f  19//20 3//20 18//21
f  19//22 5//22 1//22
f  5//23 19//23 10//23
f  10//24 19//24 20//24
f  10//25 20//25 13//25
f  14//26 9//26 8//26
f  9//26 14//26 12//27
f  17//28 19//28 18//28
f  19//28 17//28 20//29
f  20//29 17//28 16//30
f  20//29 16//30 13//31
f  13//31 16//30 15//32
f  13//31 15//32 14//33
f  14//33 15//32 11//34
f  14//33 11//34 12//35

