# File produced by Open Asset Import Library (http://www.assimp.sf.net)
# (assimp v3.1.0)

mtllib ID_39339.obj.mtl

# 12 vertex positions
v  0 2.419 1.48121e-16
v  7.094 3.228 3.149
v  5.133 2.419 -1.937
v  5.023 3.238 3.998
v  2.155 3.295 5.495
v  5.176 3.299 4.383
v  5.176 -2.68381e-16 4.383
v  5.023 -2.44807e-16 3.998
v  7.094 -1.92821e-16 3.149
v  5.133 1.18607e-16 -1.937
v  2.155 -3.36472e-16 5.495
v  0 0 0

# 0 UV coordinates

# 18 vertex normals
vn -0.0518328 0.989165 -0.137356
vn -0.0516744 0.989125 -0.137702
vn -0.0520044 0.989164 -0.137295
vn -0.0514783 0.98933 -0.136294
vn 0.929306 0 -0.36931
vn 0.929306 0 -0.36931
vn 0.933047 0 -0.359753
vn 0.933047 0 -0.359753
vn 0.379311 -0 0.925269
vn 0.379311 0 0.925269
vn 0.345432 0 0.938444
vn -0.35306 0 -0.935601
vn -0.35306 5.7289e-17 -0.935601
vn -0.930968 0 0.365102
vn 3.54053e-24 -1 -6.12323e-17
vn -4.22018e-24 -1 -6.12323e-17
vn 8.00805e-23 -1 -6.12324e-17
vn -5.57354e-24 -1 -6.12323e-17

# Mesh 'defaultobject' with 20 faces
g defaultobject
usemtl DefaultMaterial
f  1//1 2//1 3//1
f  2//2 1//2 4//2
f  4//3 1//3 5//3
f  4//4 5//4 6//4
f  7//5 4//5 6//5
f  4//5 7//5 8//6
f  9//7 3//7 2//7
f  3//7 9//7 10//8
f  8//9 2//9 4//9
f  2//9 8//9 9//10
f  5//11 7//11 6//11
f  7//11 5//11 11//11
f  10//12 1//12 3//12
f  1//12 10//12 12//13
f  1//14 11//14 5//14
f  11//14 1//14 12//14
f  9//15 12//15 10//15
f  12//15 9//15 8//16
f  12//15 8//16 7//17
f  12//15 7//17 11//18

