# File produced by Open Asset Import Library (http://www.assimp.sf.net)
# (assimp v3.1.0)

mtllib ID_35192.obj.mtl

# 54 vertex positions
v  8.113 2.597 3.407
v  6.672 2.597 3.278
v  6.818 2.597 3.773
v  3.259 2.597 1.175
v  4.286 2.597 4.099
v  1.956 2.597 -1.55
v  6.942 2.597 -3.331
v  9.829 2.597 2.922
v  9.79 2.597 2.808
v  7.625 2.597 -3.435
v  7.174 2.597 -3.414
v  7.618 2.597 -3.454
v  7.582 2.597 -3.559
v  2.835 2.597 1.331
v  0.77 2.597 0.651
v  1.201 2.597 1.931
v  0.699 2.597 0.507
v  0.617 2.597 0.373
v  0.522 2.597 0.247
v  0.238 2.597 -0.541
v  0.294 2.597 -0.668
v  0.444 2.597 -1.01
v  0.1 2.597 0.034
v  0 2.597 1.5902e-16
v  0.198 2.597 0.077
v  0.294 2.597 0.128
v  0.509 2.597 0.241
v  1.201 -1.1824e-16 1.931
v  3.259 -7.1948e-17 1.175
v  2.835 -8.15002e-17 1.331
v  4.286 -2.50991e-16 4.099
v  6.672 -2.0072e-16 3.278
v  6.818 -2.3103e-16 3.773
v  9.829 -1.78921e-16 2.922
v  8.113 -2.08619e-16 3.407
v  0 0 0
v  0.1 -2.0819e-18 0.034
v  0.198 -4.71489e-18 0.077
v  0.77 -3.98623e-17 0.651
v  7.625 2.10333e-16 -3.435
v  9.79 -1.7194e-16 2.808
v  7.618 2.11496e-16 -3.454
v  7.582 2.17926e-16 -3.559
v  0.444 6.18447e-17 -1.01
v  1.956 9.49101e-17 -1.55
v  6.942 2.03965e-16 -3.331
v  7.174 2.09047e-16 -3.414
v  0.294 4.09032e-17 -0.668
v  0.238 3.31267e-17 -0.541
v  0.509 -1.4757e-17 0.241
v  0.294 -7.83774e-18 0.128
v  0.522 -1.51244e-17 0.247
v  0.617 -2.28397e-17 0.373
v  0.699 -3.10448e-17 0.507

# 0 UV coordinates

# 66 vertex normals
vn 0 1 0
vn 0.344693 -0 0.938715
vn 0.345295 -0.000429575 0.938494
vn 0.344817 0 0.93867
vn 0 1 6.12323e-17
vn 0.325368 -0 0.945588
vn 0.271972 -0 0.962305
vn 0.27198 -4.11863e-06 0.962303
vn 0.271976 0 0.962304
vn 4.30987e-19 1 6.27517e-17
vn -0.321903 -5.79731e-17 0.946773
vn -0.321903 -1.35811e-09 0.946773
vn -0.401799 -1.67548e-09 0.915728
vn -0.943496 0 0.331385
vn -0.959149 0 0.2829
vn -0.947716 0 0.319114
vn 0.946163 0 -0.323692
vn 0.944801 -0.000194022 -0.327646
vn 0.944825 0 -0.327575
vn -6.36049e-20 1 6.12515e-17
vn 0.945945 0 -0.324326
vn -0.334873 0 -0.942263
vn -0.33685 -0.000350051 -0.941558
vn -0.336384 -0.000220525 -0.941725
vn -0.336336 -0.000103554 -0.941742
vn -0.336303 -0 -0.941754
vn 1.53346e-20 1 6.1277e-17
vn -1.30923e-20 1 6.11845e-17
vn -8.77041e-21 1 6.12082e-17
vn -0.915788 0 -0.401661
vn -0.914996 0.000282978 -0.403463
vn -0.91534 0.000114662 -0.402682
vn -0.915788 -0.000358821 -0.401661
vn -0.915275 2.46662e-17 -0.40283
vn 0 1 6.12313e-17
vn -0.401799 0 0.915728
vn -0.469155 0 0.883116
vn -0.465237 -0.00018549 0.885186
vn -0.46645 0 0.884548
vn 0 1 6.12303e-17
vn -0.798477 0 0.602026
vn -0.852967 0 0.521965
vn -0.896905 0 0.442224
vn -2.66009e-23 -1 -6.12323e-17
vn 0 -1 -6.12323e-17
vn -8.49436e-23 -1 -6.12324e-17
vn 4.75129e-24 -1 -6.12323e-17
vn 1.75966e-24 -1 -6.12323e-17
vn 1.68229e-24 -1 -6.12323e-17
vn -3.01574e-24 -1 -6.12323e-17
vn 9.05719e-23 -1 -6.12323e-17
vn -2.35396e-24 -1 -6.12323e-17
vn 1.47224e-23 -1 -6.12323e-17
vn -5.05836e-24 -1 -6.12323e-17
vn -1.07308e-23 -1 -6.12323e-17
vn 0 -1 -6.12323e-17
vn 5.13626e-24 -1 -6.12323e-17
vn 9.90638e-24 -1 -6.12323e-17
vn -5.10756e-24 -1 -6.12323e-17
vn 0 -1 -6.12323e-17
vn 7.96819e-23 -1 -6.12323e-17
vn -6.19749e-22 -1 -6.12324e-17
vn 0 -1 -6.12322e-17
vn 8.39973e-24 -1 -6.12323e-17
vn 1.64201e-23 -1 -6.12323e-17
vn -6.13018e-23 -1 -6.12326e-17

# Mesh 'defaultobject' with 100 faces
g defaultobject
usemtl DefaultMaterial
f  1//1 2//1 3//1
f  2//1 4//1 5//1
f  4//1 2//1 6//1
f  6//1 2//1 7//1
f  7//1 2//1 1//1
f  7//1 1//1 8//1
f  7//1 8//1 9//1
f  7//1 9//1 10//1
f  7//1 10//1 11//1
f  11//1 10//1 12//1
f  11//1 12//1 13//1
f  14//1 15//1 16//1
f  15//1 14//1 17//1
f  17//1 14//1 18//1
f  18//1 14//1 19//1
f  19//1 14//1 20//1
f  20//1 14//1 21//1
f  21//1 14//1 22//1
f  22//1 14//1 6//1
f  6//1 14//1 4//1
f  23//1 20//1 24//1
f  20//1 23//1 25//1
f  20//1 25//1 26//1
f  20//1 26//1 27//1
f  20//1 27//1 19//1
f  28//2 14//2 16//2
f  14//3 28//3 4//3
f  4//4 28//4 29//4
f  29//5 28//5 30//5
f  31//6 2//6 5//6
f  2//6 31//6 32//6
f  33//7 1//7 3//7
f  1//7 33//7 8//8
f  8//8 33//7 34//9
f  34//10 33//10 35//10
f  36//11 23//11 24//11
f  23//11 36//11 37//12
f  38//13 23//13 37//13
f  29//14 5//14 4//14
f  5//14 29//14 31//14
f  32//15 3//15 2//15
f  3//15 32//15 33//15
f  39//16 16//16 15//16
f  16//16 39//16 28//16
f  34//17 9//17 8//17
f  9//18 34//18 10//18
f  10//19 34//19 40//19
f  40//20 34//10 41//20
f  42//21 13//21 12//21
f  13//21 42//21 43//21
f  43//22 11//22 13//22
f  11//23 43//23 7//23
f  7//24 43//24 6//24
f  6//25 43//25 22//25
f  22//26 43//26 44//26
f  44//27 43//27 45//27
f  45//27 43//27 46//28
f  46//28 43//27 47//29
f  44//30 21//30 22//30
f  21//31 44//31 20//31
f  20//32 44//32 24//32
f  24//33 44//33 48//33
f  24//34 48//34 36//34
f  36//35 48//35 49//35
f  38//13 25//36 23//13
f  38//37 26//37 25//37
f  26//38 38//38 27//38
f  27//39 38//39 50//39
f  50//40 38//40 51//40
f  52//41 18//41 19//41
f  18//41 52//41 53//41
f  53//42 17//42 18//42
f  17//42 53//42 54//42
f  54//43 15//43 17//43
f  15//43 54//43 39//43
f  49//44 37//44 36//44
f  37//44 49//44 48//45
f  37//44 48//45 44//46
f  37//44 44//46 45//47
f  37//44 45//47 38//48
f  38//48 45//47 51//49
f  51//49 45//47 50//50
f  50//50 45//47 52//51
f  52//51 45//47 53//52
f  53//52 45//47 54//53
f  54//53 45//47 39//54
f  39//54 45//47 28//55
f  28//55 45//47 46//56
f  28//55 46//56 30//57
f  30//57 46//56 29//58
f  29//58 46//56 31//56
f  31//56 46//56 32//59
f  32//59 46//56 47//60
f  32//59 47//60 43//61
f  32//59 43//61 42//62
f  32//59 42//62 40//63
f  32//59 40//63 41//64
f  32//59 41//64 33//65
f  33//65 41//64 35//66
f  35//66 41//64 34//56

