# File produced by Open Asset Import Library (http://www.assimp.sf.net)
# (assimp v3.1.0)

mtllib ID_30802.obj.mtl

# 20 vertex positions
v  2.389 9.093 4.322
v  9.215 8.086 2.843
v  8.163 9.093 1.148
v  10.785 6.598 5.338
v  5.006 6.598 8.514
v  4.777 6.598 8.64
v  0 6.596 4.03889e-16
v  7.04 8.354 0.097
v  5.187 6.598 -2.846
v  7.374 8.338 -0.123
v  7.374 7.53158e-18 -0.123
v  9.215 -1.74084e-16 2.843
v  10.785 -3.26858e-16 5.338
v  8.163 -7.02947e-17 1.148
v  7.04 -5.93954e-18 0.097
v  5.187 1.74267e-16 -2.846
v  0 0 0
v  2.389 -2.64646e-16 4.322
v  4.777 -5.29047e-16 8.64
v  5.006 -5.21332e-16 8.514

# 0 UV coordinates

# 34 vertex normals
vn 0.217317 0.89246 0.395333
vn 0.217335 0.892399 0.39546
vn 0.217336 0.892399 0.39546
vn 0.217526 0.892404 0.395344
vn -0.217382 0.892342 -0.395564
vn -0.217422 0.892483 -0.395224
vn -0.217369 0.892405 -0.395428
vn -0.217515 0.892499 -0.395136
vn 0.849609 0 -0.527413
vn 0.849652 -1.33734e-05 -0.527344
vn 0.846958 0.00218123 -0.531655
vn 0.849633 -0.00274922 -0.527368
vn 0.846374 0 -0.532588
vn -1.00746e-19 1 6.12537e-17
vn 0.846233 0 -0.532813
vn 0.846233 0 -0.532813
vn -0.550076 0 -0.835115
vn -0.48103 0 -0.876704
vn -0.48103 5.36827e-17 -0.876704
vn -0.875196 -2.96222e-17 0.483768
vn -0.875115 -9.15169e-05 0.483915
vn -0.875196 0.000160629 0.483768
vn -0.875093 0 0.483956
vn 0.482067 -0 0.876135
vn 0.481633 1.9582e-05 0.876373
vn 0.48165 0 0.876364
vn 0 -1 -6.13479e-17
vn 0 -1 -6.12324e-17
vn -1.56347e-24 -1 -6.12323e-17
vn 2.89815e-24 -1 -6.12323e-17
vn 8.05474e-26 -1 -6.12323e-17
vn -4.74621e-23 -1 -6.12323e-17
vn 0 -1 -6.12323e-17
vn 0 -1 -6.12323e-17

# Mesh 'defaultobject' with 36 faces
g defaultobject
usemtl DefaultMaterial
f  1//1 2//1 3//1
f  2//2 1//2 4//2
f  4//2 1//2 5//3
f  5//4 1//4 6//4
f  7//5 8//5 9//5
f  8//6 7//6 3//6
f  3//7 7//7 1//7
f  3//8 10//8 8//8
f  3//9 11//9 10//9
f  11//10 3//10 2//10
f  11//11 2//11 4//11
f  11//12 4//12 12//12
f  12//13 4//13 13//13
f  11//14 12//14 14//14
f  15//15 9//15 8//15
f  9//15 15//15 16//16
f  10//17 15//17 8//17
f  15//17 10//17 11//17
f  16//18 7//18 9//18
f  7//18 16//18 17//19
f  17//20 1//20 7//20
f  1//21 17//21 6//21
f  6//22 17//22 18//22
f  6//23 18//23 19//23
f  19//24 5//24 6//24
f  5//25 19//25 4//25
f  4//26 19//26 13//26
f  13//27 19//27 20//27
f  18//28 20//27 19//27
f  20//27 18//28 13//27
f  13//27 18//28 17//29
f  13//27 17//29 15//30
f  15//30 17//29 16//31
f  13//27 15//30 12//32
f  15//30 14//33 12//32
f  14//33 15//30 11//34

