# File produced by Open Asset Import Library (http://www.assimp.sf.net)
# (assimp v3.1.0)

mtllib ID_41374.obj.mtl

# 12 vertex positions
v  4.032 2.782 -1.835
v  3.829 2.782 5.192
v  6.477 2.782 3.877
v  3.641 2.782 4.767
v  2.31 2.782 5.304
v  0 2.782 1.70348e-16
v  3.829 -3.17918e-16 5.192
v  6.477 -2.37398e-16 3.877
v  4.032 1.12361e-16 -1.835
v  0 0 0
v  2.31 -3.24776e-16 5.304
v  3.641 -2.91895e-16 4.767

# 0 UV coordinates

# 13 vertex normals
vn 0 1 -0
vn 0.444777 -0 0.895642
vn 0.91932 0 -0.393511
vn -0.414228 0 -0.910173
vn -0.414228 5.5732e-17 -0.910173
vn -0.916822 -2.44498e-17 0.399295
vn -0.916822 0 0.399295
vn -0.91452 0 0.404541
vn 0.374152 -0 0.927368
vn -8.65943e-24 -1 -6.12323e-17
vn -1.50466e-22 -1 -6.12323e-17
vn 0 -1 -6.12323e-17
vn 1.27564e-23 -1 -6.12323e-17

# Mesh 'defaultobject' with 20 faces
g defaultobject
usemtl DefaultMaterial
f  1//1 2//1 3//1
f  2//1 1//1 4//1
f  4//1 1//1 5//1
f  5//1 1//1 6//1
f  7//2 3//2 2//2
f  3//2 7//2 8//2
f  8//3 1//3 3//3
f  1//3 8//3 9//3
f  9//4 6//4 1//4
f  6//4 9//4 10//5
f  10//6 5//6 6//6
f  5//6 10//6 11//7
f  12//8 2//8 4//8
f  2//8 12//8 7//8
f  11//9 4//9 5//9
f  4//9 11//9 12//9
f  7//10 9//10 8//10
f  9//10 7//10 12//11
f  9//10 12//11 10//12
f  10//12 12//11 11//13

