# File produced by Open Asset Import Library (http://www.assimp.sf.net)
# (assimp v3.1.0)

mtllib ID_40350.obj.mtl

# 8 vertex positions
v  0 3.829 2.34459e-16
v  4.725 3.829 8.967
v  2.968 3.829 -0.593
v  1.796 3.829 9.512
v  4.725 -5.4907e-16 8.967
v  2.968 3.63108e-17 -0.593
v  0 0 0
v  1.796 -5.82442e-16 9.512

# 0 UV coordinates

# 9 vertex normals
vn -0 1 0
vn 0.983527 0 -0.180759
vn -0.195926 0 -0.980619
vn -0.195926 6.00456e-17 -0.980619
vn -0.982638 -1.13608e-17 0.185536
vn -0.982638 0 0.185536
vn 0.182931 -0 0.983126
vn -1.43975e-23 -1 -6.12323e-17
vn -1.46853e-23 -1 -6.12323e-17

# Mesh 'defaultobject' with 12 faces
g defaultobject
usemtl DefaultMaterial
f  1//1 2//1 3//1
f  2//1 1//1 4//1
f  5//2 3//2 2//2
f  3//2 5//2 6//2
f  6//3 1//3 3//3
f  1//3 6//3 7//4
f  7//5 4//5 1//5
f  4//5 7//5 8//6
f  8//7 2//7 4//7
f  2//7 8//7 5//7
f  5//8 7//8 6//8
f  7//8 5//8 8//9

