# File produced by Open Asset Import Library (http://www.assimp.sf.net)
# (assimp v3.1.0)

mtllib ID_55659.obj.mtl

# 8 vertex positions
v  1.18 3.279 -1.5
v  2.544 3.279 2.282
v  3.894 3.279 0.669
v  0 3.279 2.00781e-16
v  2.544 -1.39732e-16 2.282
v  3.894 -4.09644e-17 0.669
v  1.18 9.18485e-17 -1.5
v  0 0 0

# 0 UV coordinates

# 9 vertex normals
vn 0 1 0
vn 0.766856 -0 0.64182
vn 0.624309 0 -0.781178
vn -0.785955 0 -0.618284
vn -0.785955 3.7859e-17 -0.618284
vn -0.667735 -4.55813e-17 0.744399
vn -0.667735 0 0.744399
vn -9.21114e-25 -1 -6.12323e-17
vn -9.98043e-25 -1 -6.12323e-17

# Mesh 'defaultobject' with 12 faces
g defaultobject
usemtl DefaultMaterial
f  1//1 2//1 3//1
f  2//1 1//1 4//1
f  5//2 3//2 2//2
f  3//2 5//2 6//2
f  6//3 1//3 3//3
f  1//3 6//3 7//3
f  7//4 4//4 1//4
f  4//4 7//4 8//5
f  8//6 2//6 4//6
f  2//6 8//6 5//7
f  8//8 6//8 5//8
f  6//8 8//8 7//9

