# File produced by Open Asset Import Library (http://www.assimp.sf.net)
# (assimp v3.1.0)

mtllib ID_54156.obj.mtl

# 12 vertex positions
v  1.23 2.547 3.262
v  2.19 2.547 -0.885
v  0 2.547 1.55959e-16
v  3.425 2.547 2.257
v  3.492 2.547 2.461
v  3.504 2.547 2.457
v  2.19 5.41906e-17 -0.885
v  0 0 0
v  1.23 -1.9974e-16 3.262
v  3.492 -1.50693e-16 2.461
v  3.425 -1.38201e-16 2.257
v  3.504 -1.50448e-16 2.457

# 0 UV coordinates

# 14 vertex normals
vn 0 1 0
vn -0.374673 0 -0.927157
vn -0.374673 5.6772e-17 -0.927157
vn -0.935691 -2.1604e-17 0.35282
vn -0.935691 0 0.35282
vn 0.333801 -0 0.942644
vn 0.930687 0 -0.365817
vn 0.930069 0.00222355 -0.367378
vn 0.930687 -0.000141631 -0.365817
vn 0.930072 0 -0.367378
vn 3.31953e-24 -1 -6.12323e-17
vn -6.30515e-24 -1 -6.12323e-17
vn -1.92698e-23 -1 -6.12324e-17
vn 8.80375e-22 -1 -6.12327e-17

# Mesh 'defaultobject' with 18 faces
g defaultobject
usemtl DefaultMaterial
f  1//1 2//1 3//1
f  2//1 1//1 4//1
f  4//1 1//1 5//1
f  4//1 5//1 6//1
f  7//2 3//2 2//2
f  3//2 7//2 8//3
f  8//4 1//4 3//4
f  1//4 8//4 9//5
f  9//6 5//6 1//6
f  5//6 9//6 10//6
f  4//7 7//7 2//7
f  7//8 4//8 6//8
f  7//9 6//9 11//9
f  11//10 6//10 12//10
f  11//11 8//11 7//11
f  8//11 11//11 9//12
f  9//12 11//11 10//13
f  10//13 11//11 12//14

