# File produced by Open Asset Import Library (http://www.assimp.sf.net)
# (assimp v3.1.0)

mtllib ID_7034.obj.mtl

# 28 vertex positions
v  0 19.373 1.18625e-15
v  6.827 19.373 -10.835
v  4.479 19.373 -7.134
v  0.033 19.373 0.012
v  3.515 19.373 2.244
v  3.903 19.373 1.601
v  12.852 19.373 8.137
v  20.96 19.373 -4.788
v  9.529 19.373 5.996
v  18.075 19.373 -0.189
v  23.68 19.373 -7.609
v  10.198 19.373 -16.211
v  9.868 19.373 5.374
v  21.614 19.373 -4.371
v  9.529 -3.67149e-16 5.996
v  12.852 -4.98248e-16 8.137
v  20.96 2.9318e-16 -4.788
v  21.614 2.67647e-16 -4.371
v  0.033 -7.34788e-19 0.012
v  3.515 -1.37405e-16 2.244
v  3.903 -9.8033e-17 1.601
v  9.868 -3.29063e-16 5.374
v  18.075 1.15729e-17 -0.189
v  23.68 4.65917e-16 -7.609
v  10.198 9.92637e-16 -16.211
v  6.827 6.63452e-16 -10.835
v  4.479 4.36832e-16 -7.134
v  0 0 0

# 0 UV coordinates

# 33 vertex normals
vn 0 1 0
vn -0.541614 0 0.840627
vn -0.537626 0 0.843184
vn -0.539657 0 0.841885
vn -0.534563 0 0.845128
vn 0.847117 -0 0.531407
vn 0.847118 -7.79798e-07 0.531405
vn 0.847117 0 0.531406
vn 5.28678e-18 1 6.60847e-17
vn 0.843018 -0 0.537886
vn 0.856198 -0 0.516648
vn 0.537879 0 -0.843022
vn -0.847218 0 -0.531245
vn -0.844402 0.0017286 -0.535708
vn -0.846916 -0.000879078 -0.531726
vn -0.847218 -0.00144121 -0.531244
vn -0.844401 0.00204748 -0.535708
vn -0.846916 3.25589e-17 -0.531727
vn -0.878057 0 -0.478555
vn -0.341743 -5.75458e-17 0.939793
vn -0.341743 0 0.939793
vn 0 -1 -6.12322e-17
vn 0 -1 -6.12323e-17
vn -4.59052e-23 -1 -6.12323e-17
vn 0 -1 -6.12323e-17
vn -2.48505e-24 -1 -6.12323e-17
vn -2.38638e-23 -1 -6.12323e-17
vn 5.76512e-24 -1 -6.12323e-17
vn 0 -1 -6.12327e-17
vn 3.47312e-24 -1 -6.12323e-17
vn -5.04647e-18 -1 -6.05576e-17
vn 1.55486e-23 -1 -6.12323e-17
vn 0 -1 -6.12323e-17

# Mesh 'defaultobject' with 52 faces
g defaultobject
usemtl DefaultMaterial
f  1//1 2//1 3//1
f  2//1 1//1 4//1
f  5//1 6//1 4//1
f  7//1 8//1 9//1
f  8//1 7//1 10//1
f  2//1 11//1 12//1
f  11//1 2//1 4//1
f  11//1 4//1 6//1
f  11//1 6//1 13//1
f  11//1 13//1 9//1
f  11//1 9//1 8//1
f  11//1 8//1 14//1
f  15//2 7//2 9//2
f  7//2 15//2 16//2
f  17//3 14//3 8//3
f  14//3 17//3 18//3
f  19//4 5//4 4//4
f  5//4 19//4 20//4
f  21//5 13//5 6//5
f  13//5 21//5 22//5
f  16//6 10//6 7//6
f  10//6 16//6 8//7
f  8//7 16//6 17//8
f  17//9 16//9 23//9
f  18//10 11//10 14//10
f  11//10 18//10 24//10
f  20//11 6//11 5//11
f  6//11 20//11 21//11
f  24//12 12//12 11//12
f  12//12 24//12 25//12
f  25//13 2//13 12//13
f  2//14 25//14 3//14
f  3//15 25//15 1//15
f  1//16 25//16 26//16
f  1//17 26//17 27//17
f  1//18 27//18 28//18
f  22//19 9//19 13//19
f  9//19 22//19 15//19
f  28//20 4//20 1//20
f  4//20 28//20 19//21
f  27//22 19//22 28//22
f  19//22 27//22 20//23
f  20//23 27//22 26//24
f  20//23 26//24 21//25
f  21//25 26//24 22//26
f  22//26 26//24 25//27
f  22//26 25//27 24//28
f  22//26 24//28 17//29
f  22//26 17//29 16//30
f  16//30 17//29 23//31
f  17//29 24//28 18//32
f  16//30 15//33 22//26

