# {"id":"ID_30880","idOriginal":"ID_30880","origin":[14.371188729958163,48.24816565601649],"elevation":249.156}
# Longitude: 14.371188729958163
# Latitude: 48.24816565601649
# Elevation: 249.156

# File produced by Open Asset Import Library (http://www.assimp.sf.net)
# (assimp v3.1.0)

mtllib ID_30880.obj.mtl

# 12 vertex positions
v  2.326 5.98 -12.743
v  5.178 6.196 -10.664
v  5.457 5.98 -12.159
v  0 7.822 4.78959e-16
v  5.028 7.822 0.937
v  7.081 6.196 -10.309
v  5.457 7.44524e-16 -12.159
v  2.326 7.80284e-16 -12.743
v  7.081 6.31244e-16 -10.309
v  5.178 6.52982e-16 -10.664
v  0 0 0
v  5.028 -5.73747e-17 0.937

# 0 UV coordinates

# 17 vertex normals
vn 0.0257837 0.990064 -0.138234
vn 0.0258945 0.99004 -0.138384
vn 0.0257974 0.990036 -0.13843
vn 0.0258237 0.990036 -0.13843
vn 0.183359 0 -0.983046
vn 0.183384 0 -0.983041
vn -0.983746 0 -0.179565
vn -0.983746 0 -0.179565
vn -0.183202 -6.0196e-17 0.983075
vn -0.183202 0 0.983075
vn 0.983742 -0 0.179586
vn 0.983742 0 0.179586
vn 0.983028 -0 0.183455
vn -6.41587e-25 -1 -6.12323e-17
vn 0 -1 -6.12323e-17
vn -3.82722e-23 -1 -6.12324e-17
vn -9.05437e-25 -1 -6.12323e-17

# Mesh 'defaultobject' with 20 faces
g defaultobject
usemtl DefaultMaterial
f  1//1 2//1 3//1
f  2//2 1//2 4//2
f  2//3 4//3 5//3
f  5//4 6//4 2//4
f  7//5 1//5 3//5
f  1//5 7//5 8//5
f  9//6 2//6 6//6
f  2//6 9//6 10//6
f  1//7 11//7 4//7
f  11//7 1//7 8//8
f  11//9 5//9 4//9
f  5//9 11//9 12//10
f  12//11 6//11 5//11
f  6//11 12//11 9//12
f  10//13 3//13 2//13
f  3//13 10//13 7//13
f  7//14 11//14 8//14
f  11//14 7//14 10//15
f  11//14 10//15 9//16
f  11//14 9//16 12//17

