# {"id":"ID_28334","idOriginal":"ID_28334","origin":[14.281853992287637,48.31361962935406],"elevation":264.454,"wof":[{"Id":85681677,"Name":"Oberösterreich","Placetype":"region","Offset":-1},{"Id":85898453,"Name":"Urfahr","Placetype":"neighbourhood","Offset":-1},{"Id":102049853,"Name":"Linz","Placetype":"county","Offset":-1},{"Id":85632785,"Name":"Austria","Placetype":"country","Offset":-1},{"Id":101748071,"Name":"Linz","Placetype":"locality","Offset":-1}]}

# Attribution: City of Linz <http://geo.data.linz.gv.at/katalog/geodata/3d_geo_daten_lod2/>
# Longitude: 14.281853992287637
# Latitude: 48.31361962935406
# Elevation: 264.454

# File produced by Open Asset Import Library (http://www.assimp.sf.net)
# (assimp v3.1.0)


# 34 vertex positions
v  0.152 11.514 0.389
v  0.288 11.514 -0.112
v  0 11.514 7.05029e-16
v  0.432 11.514 0.285
v  0.268 11.514 0.687
v  0.481 11.514 0.42
v  5.616 11.514 -1.528
v  4.595 11.514 11.794
v  5.638 11.514 -1.469
v  5.656 11.514 -1.422
v  5.684 11.514 -1.346
v  9.614 11.514 9.102
v  7.117 11.514 10.872
v  9.838 11.514 9.847
v  7.955 11.514 13.14
v  9.846 11.514 9.866
v  10.745 11.514 12.097
v  0.288 6.85802e-18 -0.112
v  0 0 0
v  5.616 9.3563e-17 -1.528
v  0.481 -2.57176e-17 0.42
v  4.595 -7.22174e-16 11.794
v  0.268 -4.20666e-17 0.687
v  0.152 -2.38194e-17 0.389
v  7.117 -6.65718e-16 10.872
v  7.955 -8.04593e-16 13.14
v  10.745 -7.40728e-16 12.097
v  9.846 -6.04118e-16 9.866
v  9.838 -6.02955e-16 9.847
v  9.614 -5.57337e-16 9.102
v  5.684 8.24187e-17 -1.346
v  5.638 8.99503e-17 -1.469
v  5.656 8.70724e-17 -1.422
v  0.432 -1.74512e-17 0.285

# 0 UV coordinates

# 39 vertex normals
vn 0 1 0
vn -0.362446 0 -0.932005
vn -0.362446 5.70688e-17 -0.932005
vn -0.354693 0 -0.934983
vn -0.931419 -2.22854e-17 0.363948
vn -0.931887 4.67113e-05 0.362748
vn -0.931789 2.93403e-05 0.363001
vn -0.931779 0 0.363026
vn 0 -1 -6.1241e-17
vn 0 -1 -6.1232e-17
vn -0.938018 0 0.346587
vn 0.343357 -0 0.939205
vn 0.350167 -0 0.936687
vn 0.927527 0 -0.373755
vn 0.921646 0 -0.388032
vn 0.957649 0 -0.287937
vn 0.935975 0 -0.352066
vn 0.938323 0.00658086 -0.345697
vn 0.93384 -0.00587941 -0.357643
vn 0.936978 0.0027914 -0.349379
vn 0.935975 -3.73301e-05 -0.352066
vn 0.936642 -5.30452e-06 -0.350289
vn 0.936981 0 -0.34938
vn -2.18669e-20 1 6.12405e-17
vn 0.94007 0 -0.340982
vn 0.939996 7.86234e-06 -0.341184
vn 0.94007 -2.6738e-06 -0.340982
vn 0.939997 0 -0.341184
vn 1.10874e-23 -1 -6.12323e-17
vn 1.88199e-24 -1 -6.12324e-17
vn 3.08992e-22 -1 -6.12315e-17
vn 8.79689e-24 -1 -6.12323e-17
vn 0 -1 -6.12323e-17
vn -3.88398e-23 -1 -6.12324e-17
vn 7.10152e-23 -1 -6.12322e-17
vn 6.81252e-24 -1 -6.12323e-17
vn 0 -1 -6.12323e-17
vn -2.41042e-24 -1 -6.12323e-17
vn -4.91838e-24 -1 -6.12323e-17

# Mesh 'defaultobject' with 64 faces
g defaultobject
usemtl DefaultMaterial
f  1//1 2//1 3//1
f  2//1 1//1 4//1
f  4//1 1//1 5//1
f  4//1 5//1 6//1
f  6//1 5//1 7//1
f  7//1 5//1 8//1
f  7//1 8//1 9//1
f  9//1 8//1 10//1
f  10//1 8//1 11//1
f  11//1 8//1 12//1
f  12//1 8//1 13//1
f  12//1 13//1 14//1
f  14//1 13//1 15//1
f  14//1 15//1 16//1
f  16//1 15//1 17//1
f  18//2 3//2 2//2
f  3//2 18//2 19//3
f  20//4 6//4 7//4
f  6//4 20//4 21//4
f  19//5 1//5 3//5
f  1//6 19//6 5//6
f  5//7 19//7 8//7
f  8//8 19//8 22//8
f  22//9 19//9 23//9
f  23//9 19//9 24//10
f  25//11 15//11 13//11
f  15//11 25//11 26//11
f  22//12 13//12 8//12
f  13//12 22//12 25//12
f  26//13 17//13 15//13
f  17//13 26//13 27//13
f  27//14 16//14 17//14
f  16//14 27//14 28//14
f  16//15 28//15 29//15
f  29//16 12//16 14//16
f  12//16 29//16 30//16
f  30//17 11//17 12//17
f  11//18 30//18 10//18
f  10//19 30//19 9//19
f  9//20 30//20 7//20
f  7//21 30//21 31//21
f  7//22 31//22 32//22
f  7//23 32//23 20//23
f  32//24 31//24 33//24
f  4//25 18//25 2//25
f  18//26 4//26 6//26
f  18//25 6//27 34//27
f  34//28 6//26 21//28
f  29//15 14//15 16//15
f  26//29 28//29 27//29
f  28//29 26//29 25//30
f  28//29 25//30 29//31
f  29//31 25//30 30//32
f  30//32 25//30 22//9
f  30//32 22//9 31//33
f  31//33 22//9 23//9
f  31//33 23//9 33//34
f  33//34 23//9 32//35
f  32//35 23//9 20//36
f  20//36 23//9 21//37
f  21//37 23//9 24//10
f  21//37 24//10 34//38
f  34//38 24//10 18//39
f  18//39 24//10 19//9

