# {"id":"ID_46490","idOriginal":"ID_46490","origin":[14.290744998549753,48.373837186150155],"elevation":395.067}
# Longitude: 14.290744998549753
# Latitude: 48.373837186150155
# Elevation: 395.067

# File produced by Open Asset Import Library (http://www.assimp.sf.net)
# (assimp v3.1.0)

mtllib ID_46490.obj.mtl

# 8 vertex positions
v  0 1.348 8.25412e-17
v  4.288 0.899 4.229
v  4.205 1.348 -0.081
v  0.084 0.899 4.31
v  4.205 4.95982e-18 -0.081
v  4.288 -2.58952e-16 4.229
v  0 0 0
v  0.084 -2.63911e-16 4.31

# 0 UV coordinates

# 10 vertex normals
vn 0.00199519 0.994619 0.103577
vn 0.00199565 0.994619 0.103577
vn 0.999815 0 -0.019254
vn -0.0192592 0 -0.999815
vn -0.0192592 6.1221e-17 -0.999815
vn -0.99981 -1.19316e-18 0.0194859
vn -0.99981 0 0.0194859
vn 0.0192638 -0 0.999814
vn 0 -1 -6.12323e-17
vn -5.84127e-24 -1 -6.12323e-17

# Mesh 'defaultobject' with 12 faces
g defaultobject
usemtl DefaultMaterial
f  1//1 2//1 3//1
f  2//1 1//1 4//2
f  2//3 5//3 3//3
f  5//3 2//3 6//3
f  5//4 1//4 3//4
f  1//4 5//4 7//5
f  7//6 4//6 1//6
f  4//6 7//6 8//7
f  8//8 2//8 4//8
f  2//8 8//8 6//8
f  6//9 7//9 5//9
f  7//9 6//9 8//10

