# {"id":"ID_51135","idOriginal":"ID_51135","origin":[14.353229516288765,48.235318686946556],"elevation":293.672}
# Longitude: 14.353229516288765
# Latitude: 48.235318686946556
# Elevation: 293.672

# File produced by Open Asset Import Library (http://www.assimp.sf.net)
# (assimp v3.1.0)

mtllib ID_51135.obj.mtl

# 12 vertex positions
v  0 2.087 1.27792e-16
v  0.375 2.087 -1.708
v  0.075 2.087 -1.679
v  2.74 2.087 -5.05
v  0.435 2.087 -5.142
v  2.51 2.087 0.11
v  0.435 3.14857e-16 -5.142
v  0.375 1.04585e-16 -1.708
v  0.075 1.02809e-16 -1.679
v  0 0 0
v  2.74 3.09223e-16 -5.05
v  2.51 -6.73556e-18 0.11

# 0 UV coordinates

# 13 vertex normals
vn 0 1 0
vn -0.999847 0 -0.0174697
vn -0.999004 0 -0.0446249
vn -0.999004 2.73249e-18 -0.0446249
vn -0.0962179 0 -0.99536
vn 0.0398815 0 -0.999204
vn -0.0437827 -6.11736e-17 0.999041
vn -0.0437827 0 0.999041
vn 0.999008 -0 0.0445294
vn 0 -1 -6.12323e-17
vn 2.17925e-23 -1 -6.12323e-17
vn -4.62971e-24 -1 -6.12323e-17
vn -8.35442e-25 -1 -6.12323e-17

# Mesh 'defaultobject' with 20 faces
g defaultobject
usemtl DefaultMaterial
f  1//1 2//1 3//1
f  2//1 4//1 5//1
f  4//1 2//1 6//1
f  6//1 2//1 1//1
f  7//2 2//2 5//2
f  2//2 7//2 8//2
f  9//3 1//3 3//3
f  1//3 9//3 10//4
f  8//5 3//5 2//5
f  3//5 8//5 9//5
f  11//6 5//6 4//6
f  5//6 11//6 7//6
f  10//7 6//7 1//7
f  6//7 10//7 12//8
f  12//9 4//9 6//9
f  4//9 12//9 11//9
f  9//10 12//10 10//10
f  12//10 9//10 8//11
f  12//10 8//11 11//12
f  11//12 8//11 7//13

