# File produced by Open Asset Import Library (http://www.assimp.sf.net)
# (assimp v3.1.0)

mtllib _4137.obj.mtl

# 41 vertex positions
v  3.5 4.678 13.256
v  0.268 3.924 -0.071
v  0 3.924 2.40276e-16
v  0.492 3.912 -0.355
v  8.498 3.909 -2.475
v  9.746 4.687 11.821
v  15.278 3.906 -4.283
v  9.813 4.7 12.046
v  10.672 4.7 11.825
v  27.398 4.7 7.516
v  26.206 4.573 5.444
v  23.14 4.135 -2.007
v  21.824 3.911 -5.86
v  0.244 3.911 -0.303
v  9.746 -7.23828e-16 11.821
v  3.5 -8.11696e-16 13.256
v  9.813 -7.37605e-16 12.046
v  27.398 -4.60222e-16 7.516
v  10.672 -7.24072e-16 11.825
v  0.268 4.3475e-18 -0.071
v  0.244 1.85534e-17 -0.303
v  0 0 0
v  26.206 -3.33349e-16 5.444
v  23.14 1.22893e-16 -2.007
v  21.824 3.58822e-16 -5.86
v  15.278 2.62258e-16 -4.283
v  8.498 1.5155e-16 -2.475
v  0.492 2.17375e-17 -0.355
v  27.398 4.73 7.516
v  12.369 5.115 15.587
v  29.531 5.12 11.226
v  10.672 4.73 11.825
v  12.369 -9.54428e-16 15.587
v  29.531 -6.87394e-16 11.226
v  9.813 3.9 12.046
v  12.369 3.9 15.587
v  10.672 3.9 11.825
v  11.525 3.9 15.802
v  10.996 3.9 16.007
v  10.996 -9.80146e-16 16.007
v  11.525 -9.67593e-16 15.802

# 0 UV coordinates

# 67 vertex normals
vn -0.0140627 0.998491 -0.0530811
vn -0.0138681 0.998491 -0.0531283
vn -0.0137039 0.998492 -0.0531646
vn -0.0136491 0.998493 -0.0531473
vn -0.013729 0.998493 -0.0531403
vn -0.0144501 0.998469 -0.0533869
vn -0.0136681 0.998494 -0.0531263
vn -0.013688 0.998494 -0.053132
vn -0.0132575 0.998476 -0.053573
vn -0.0137269 0.998498 -0.0530473
vn -0.0136259 0.998481 -0.0533943
vn -0.0154214 0.998403 -0.0543497
vn 0.223913 0 0.974609
vn 0.223913 0 0.974609
vn 0.249162 -0 0.968462
vn 0.249477 -6.14733e-05 0.968381
vn 0.249462 0 0.968385
vn -2.12199e-20 1 6.10283e-17
vn -0.958411 0 0.285392
vn -0.958411 0 0.285392
vn -0.994692 0 0.102899
vn -0.966866 0 0.255283
vn -0.966866 0 0.255283
vn 0.866798 0 -0.49866
vn 0.866798 0 -0.49866
vn 0.924768 0 -0.380531
vn 0.924768 0 -0.380531
vn 0.946324 0 -0.323219
vn 0.946324 0 -0.323219
vn -0.23421 0 -0.972186
vn -0.23421 -0 -0.972186
vn -0.257663 0 -0.966235
vn -0.257663 -0 -0.966235
vn -0.255979 -0 -0.966682
vn -0.205215 0 -0.978717
vn -0.205215 -0 -0.978717
vn -0.256091 0 -0.966653
vn -0.256091 5.91904e-17 -0.966653
vn 2.66077e-24 -1 -6.12323e-17
vn 4.69503e-24 -1 -6.12323e-17
vn 0 -1 -6.12323e-17
vn 0 -1 -6.12323e-17
vn 0 -1 -6.12323e-17
vn 4.42273e-24 -1 -6.12323e-17
vn -1.3841e-24 -1 -6.12323e-17
vn 0 -1 -6.12323e-17
vn 0 -1 -6.12324e-17
vn 0 -1 -6.12324e-17
vn 7.03576e-24 -1 -6.12323e-17
vn -0.0234567 0.995559 -0.0911684
vn -0.0235148 0.995548 -0.0912762
vn -0.911549 0 0.411191
vn -0.911549 0 0.411191
vn 0.246281 0 0.969198
vn 0.246281 0 0.969198
vn 0.866932 0 -0.498427
vn 0.866932 0 -0.498427
vn -0.249477 0 -0.968381
vn 3.01497e-24 -1 -6.12323e-17
vn -0 1 0
vn 0.361341 -0 0.932434
vn 0.246856 -0 0.969052
vn 0.911549 0 -0.411191
vn -0.249162 0 -0.968462
vn -0.958178 0 0.286172
vn 5.04722e-23 -1 -6.12324e-17
vn -2.32324e-22 -1 -6.12323e-17

# Mesh 'defaultobject' with 80 faces
g defaultobject
usemtl DefaultMaterial
f  1//1 2//1 3//1
f  2//2 1//2 4//2
f  4//3 1//3 5//3
f  5//4 1//4 6//4
f  5//5 6//5 7//5
f  7//6 6//6 8//6
f  7//7 8//7 9//7
f  7//8 9//8 10//8
f  7//9 10//9 11//9
f  7//10 11//10 12//10
f  7//11 12//11 13//11
f  4//12 14//12 2//12
f  1//13 15//13 6//13
f  15//13 1//13 16//14
f  17//15 9//15 8//15
f  9//16 17//16 10//16
f  10//17 17//17 18//17
f  18//18 17//18 19//18
f  6//19 17//19 8//19
f  17//19 6//19 15//20
f  14//21 20//21 2//21
f  20//21 14//21 21//21
f  3//22 16//22 1//22
f  16//22 3//22 22//23
f  18//24 11//24 10//24
f  11//24 18//24 23//25
f  23//26 12//26 11//26
f  12//26 23//26 24//27
f  24//28 13//28 12//28
f  13//28 24//28 25//29
f  25//30 7//30 13//30
f  7//30 25//30 26//31
f  26//32 5//32 7//32
f  5//32 26//32 27//33
f  5//34 27//34 4//34
f  4//34 27//34 28//34
f  28//35 14//35 4//35
f  14//35 28//35 21//36
f  20//37 3//37 2//37
f  3//37 20//37 22//38
f  19//39 23//39 18//39
f  23//39 19//39 24//40
f  24//40 19//39 17//41
f  24//40 17//41 15//42
f  24//40 15//42 16//43
f  24//40 16//43 25//44
f  25//44 16//43 20//45
f  20//45 16//43 22//46
f  25//44 20//45 26//47
f  26//47 20//45 27//48
f  20//45 28//46 27//48
f  28//46 20//45 21//49
f  29//50 30//50 31//50
f  30//51 29//51 32//51
f  32//52 33//52 30//52
f  33//52 32//52 19//53
f  30//54 34//54 31//54
f  34//54 30//54 33//55
f  34//56 29//56 31//56
f  29//56 34//56 18//57
f  18//58 32//58 29//58
f  32//58 18//58 19//58
f  18//39 33//59 19//39
f  33//59 18//39 34//43
f  35//60 36//60 37//60
f  36//60 35//60 38//60
f  38//60 35//60 39//60
f  40//61 38//61 39//61
f  38//61 40//61 41//61
f  41//62 36//62 38//62
f  36//62 41//62 33//62
f  33//63 37//63 36//63
f  37//63 33//63 19//63
f  19//64 35//64 37//64
f  35//64 19//64 17//64
f  17//65 39//65 35//65
f  39//65 17//65 40//65
f  41//66 19//39 33//59
f  19//39 41//66 40//67
f  19//39 40//67 17//41

