# File produced by Open Asset Import Library (http://www.assimp.sf.net)
# (assimp v3.1.0)

mtllib _46115.obj.mtl

# 20 vertex positions
v  1.09 28.537 0.954
v  1.413 28.537 0.535
v  0 28.537 1.74739e-15
v  4.668 28.537 -0.664
v  2.035 28.537 -2.604
v  6.19 28.537 0.471
v  6.388 28.537 2.001
v  4.256 28.537 2.731
v  5.539 28.537 3.138
v  3.955 28.537 3.172
v  3.955 -1.94229e-16 3.172
v  5.539 -1.92147e-16 3.138
v  6.388 -1.22526e-16 2.001
v  1.09 -5.84157e-17 0.954
v  1.413 -3.27593e-17 0.535
v  6.19 -2.88404e-17 0.471
v  2.035 1.59449e-16 -2.604
v  4.668 4.06583e-17 -0.664
v  0 0 0
v  4.256 -1.67226e-16 2.731

# 0 UV coordinates

# 22 vertex normals
vn 0 1 0
vn 0.0214597 -0 0.99977
vn 0.801267 -0 0.598307
vn 0.791991 -0 0.610533
vn 0.99173 0 -0.128342
vn 0.597807 0 -0.80164
vn 0.593178 -0.000383316 -0.805071
vn 0.594881 0 -0.803814
vn -7.39872e-22 1 6.12318e-17
vn -0.787933 0 -0.615762
vn -0.787933 3.77045e-17 -0.615762
vn -0.82595 0 -0.563744
vn -0.658602 -4.60768e-17 0.752491
vn -0.658602 0 0.752491
vn -0.611297 0 0.791401
vn -1.04909e-24 -1 -6.12323e-17
vn -1.08511e-24 -1 -6.12323e-17
vn 7.77037e-24 -1 -6.12323e-17
vn 1.00858e-23 -1 -6.12323e-17
vn 3.60527e-24 -1 -6.12323e-17
vn 6.12486e-25 -1 -6.12323e-17
vn 4.32596e-24 -1 -6.12323e-17

# Mesh 'defaultobject' with 36 faces
g defaultobject
usemtl DefaultMaterial
f  1//1 2//1 3//1
f  3//1 4//1 5//1
f  4//1 3//1 6//1
f  6//1 3//1 7//1
f  7//1 3//1 2//1
f  7//1 2//1 8//1
f  7//1 8//1 9//1
f  9//1 8//1 10//1
f  11//2 9//2 10//2
f  9//2 11//2 12//2
f  12//3 7//3 9//3
f  7//3 12//3 13//3
f  14//4 2//4 1//4
f  2//4 14//4 15//4
f  13//5 6//5 7//5
f  6//5 13//5 16//5
f  16//6 4//6 6//6
f  4//7 16//7 5//7
f  5//8 16//8 17//8
f  17//9 16//9 18//9
f  17//10 3//10 5//10
f  3//10 17//10 19//11
f  20//12 10//12 8//12
f  10//12 20//12 11//12
f  19//13 1//13 3//13
f  1//13 19//13 14//14
f  15//15 8//15 2//15
f  8//15 15//15 20//15
f  16//16 15//16 18//16
f  15//16 16//16 20//17
f  20//17 16//16 13//18
f  20//17 13//18 12//19
f  20//17 12//19 11//20
f  18//16 19//21 17//21
f  19//21 18//16 15//16
f  19//21 15//16 14//22

