# File produced by Open Asset Import Library (http://www.assimp.sf.net)
# (assimp v3.1.0)

mtllib _48837.obj.mtl

# 12 vertex positions
v  0 32.17 1.96984e-15
v  1.686 32.343 0.672
v  1.495 32.343 -0.293
v  1.858 32.164 9.634
v  2.095 32.343 2.74
v  3.401 32.343 9.343
v  1.495 1.79411e-17 -0.293
v  1.686 -4.11481e-17 0.672
v  3.401 -5.72094e-16 9.343
v  2.095 -1.67777e-16 2.74
v  0 0 0
v  1.858 -5.89912e-16 9.634

# 0 UV coordinates

# 16 vertex normals
vn -0.110687 0.993614 0.0219079
vn -0.110711 0.99361 0.02197
vn -0.111121 0.993564 0.021977
vn -0.111115 0.993565 0.0219772
vn 0.98097 0 -0.194161
vn 0.980998 -4.44275e-06 -0.194018
vn 0.980996 -3.2264e-06 -0.19403
vn 0.98097 3.7273e-05 -0.194161
vn 0.980996 0 -0.194027
vn -5.86644e-19 -1 -6.11576e-17
vn -0.192328 0 -0.981331
vn -0.192328 6.00892e-17 -0.981331
vn -0.981906 -1.15955e-17 0.189369
vn -0.981906 0 0.189369
vn 0.185326 0 0.982677
vn 0 -1 -6.12323e-17

# Mesh 'defaultobject' with 20 faces
g defaultobject
usemtl DefaultMaterial
f  1//1 2//1 3//1
f  2//2 1//2 4//2
f  2//3 4//3 5//3
f  5//3 4//3 6//4
f  2//5 7//5 3//5
f  7//6 2//6 5//6
f  7//7 5//7 6//7
f  7//8 6//8 8//8
f  8//9 6//7 9//9
f  8//10 9//10 10//10
f  7//11 1//11 3//11
f  1//11 7//11 11//12
f  11//13 4//13 1//13
f  4//13 11//13 12//14
f  4//15 9//15 6//15
f  9//15 4//15 12//15
f  7//16 12//16 11//16
f  12//16 7//16 8//10
f  12//16 8//10 10//10
f  12//16 10//10 9//10

