# File produced by Open Asset Import Library (http://www.assimp.sf.net)
# (assimp v3.1.0)

mtllib _60009.obj.mtl

# 20 vertex positions
v  1.666 29.522 6.894
v  1.769 29.522 5.839
v  1.43 29.522 5.951
v  2.037 29.522 6.873
v  1.637 29.522 5.243
v  1.666 -4.22136e-16 6.894
v  2.037 -4.2085e-16 6.873
v  1.637 -3.21041e-16 5.243
v  1.769 -3.57536e-16 5.839
v  1.43 -3.64394e-16 5.951
v  0 29.522 1.8077e-15
v  0.282 29.522 -0.363
v  0.487 29.522 1.969
v  1.062 29.522 4.373
v  1.286 29.522 5.317
v  0 0 0
v  1.286 -3.25572e-16 5.317
v  0.487 -1.20566e-16 1.969
v  1.062 -2.67769e-16 4.373
v  0.282 2.22273e-17 -0.363

# 0 UV coordinates

# 20 vertex normals
vn 0 1 0
vn 0.0565131 -0 0.998402
vn 0.971185 0 -0.238327
vn -0.976341 0 0.216237
vn -0.970082 0 0.242778
vn -0.313707 0 -0.94952
vn -1.30555e-22 -1 -6.12323e-17
vn -6.95581e-23 -1 -6.12323e-17
vn 0 -1 -6.12323e-17
vn -0.970748 -1.47018e-17 0.240099
vn -0.972567 0.000528595 0.232623
vn -0.972983 0.000802159 0.230877
vn -0.971974 0 0.235087
vn 0 -1 -6.12323e-17
vn 9.22534e-21 -1 -6.12347e-17
vn 0.206291 -0 0.978491
vn 0.97201 0 -0.23494
vn -0.789704 0 -0.613489
vn -0.789704 3.75653e-17 -0.613489
vn 0 -1 -6.12323e-17

# Mesh 'defaultobject' with 36 faces
g defaultobject
usemtl DefaultMaterial
f  1//1 2//1 3//1
f  2//1 4//1 5//1
f  4//1 2//1 1//1
f  6//2 4//2 1//2
f  4//2 6//2 7//2
f  7//3 5//3 4//3
f  5//3 7//3 8//3
f  8//4 2//4 5//4
f  2//4 8//4 9//4
f  10//5 1//5 3//5
f  1//5 10//5 6//5
f  9//6 3//6 2//6
f  3//6 9//6 10//6
f  10//7 7//7 6//7
f  7//7 10//7 9//8
f  7//7 9//8 8//9
f  11//1 5//1 12//1
f  5//1 11//1 13//1
f  5//1 13//1 14//1
f  5//1 14//1 15//1
f  16//10 13//10 11//10
f  13//11 16//11 14//11
f  14//12 16//12 15//12
f  15//13 16//13 17//13
f  17//14 16//14 18//14
f  17//14 18//14 19//15
f  17//16 5//16 15//16
f  5//16 17//16 8//16
f  8//17 12//17 5//17
f  12//17 8//17 20//17
f  20//18 11//18 12//18
f  11//18 20//18 16//19
f  19//15 8//9 17//14
f  8//9 19//15 20//20
f  20//20 19//15 18//14
f  20//20 18//14 16//14

