# {"id":"_25497","idOriginal":"_25497","origin":[14.305946163081362,48.302761560087376],"elevation":260.58,"wof":[{"Id":102049853,"Name":"Linz","Placetype":"county","Offset":-1},{"Id":85632785,"Name":"Austria","Placetype":"country","Offset":-1},{"Id":101748071,"Name":"Linz","Placetype":"locality","Offset":-1},{"Id":85681677,"Name":"Oberösterreich","Placetype":"region","Offset":-1},{"Id":85898449,"Name":"Steeg","Placetype":"neighbourhood","Offset":-1}]}

# Attribution: City of Linz <http://geo.data.linz.gv.at/katalog/geodata/3d_geo_daten_lod2/>
# Longitude: 14.305946163081362
# Latitude: 48.302761560087376
# Elevation: 260.58

# File produced by Open Asset Import Library (http://www.assimp.sf.net)
# (assimp v3.1.0)


# 10 vertex positions
v  0.159 14.856 7.602
v  1.117 13.371 -0.018
v  0 13.371 8.18738e-16
v  12.337 13.371 -0.201
v  12.496 14.868 7.463
v  12.337 1.23077e-17 -0.201
v  0 0 0
v  1.117 1.10218e-18 -0.018
v  0.159 -4.65488e-16 7.602
v  12.496 -4.56977e-16 7.463

# 0 UV coordinates

# 15 vertex normals
vn -0.00308842 0.981457 -0.191656
vn -0.00312602 0.981456 -0.191661
vn -0.00311388 0.98146 -0.191643
vn -0.016308 0 -0.999867
vn -0.0161125 0.000164086 -0.99987
vn -0.0162903 6.12242e-17 -0.999867
vn 1.05464e-23 -1 -6.12312e-17
vn -0.999781 0 0.020911
vn -0.999781 0 0.020911
vn 0.0112662 0 0.999937
vn 0.0112662 0 0.999936
vn 0.999785 0 -0.0207419
vn 0.999785 0 -0.0207419
vn 1.94761e-25 -1 -6.12323e-17
vn -1.25949e-24 -1 -6.12323e-17

# Mesh 'defaultobject' with 16 faces
g defaultobject
usemtl DefaultMaterial
f  1//1 2//1 3//1
f  2//2 1//2 4//2
f  4//3 1//3 5//3
f  6//4 2//4 4//4
f  2//5 6//5 3//5
f  3//6 6//6 7//6
f  7//7 6//7 8//7
f  3//8 9//8 1//8
f  9//8 3//8 7//9
f  1//10 10//10 5//10
f  10//10 1//10 9//11
f  10//12 4//12 5//12
f  4//12 10//12 6//13
f  8//7 9//14 7//7
f  9//14 8//7 6//7
f  9//14 6//7 10//15

