# File produced by Open Asset Import Library (http://www.assimp.sf.net)
# (assimp v3.1.0)

mtllib _24172.obj.mtl

# 18 vertex positions
v  0.897 12.165 -5.286
v  9.598 8.071 1.509
v  10.404 12.165 -3.791
v  2.282 8.06 0.374
v  0.178 8.884 -1.05
v  0 8.071 4.94206e-16
v  1.794 8.068 -10.575
v  11.209 8.076 -9.085
v  1.722 8.399 -10.148
v  1.794 6.47532e-16 -10.575
v  0.178 6.4294e-17 -1.05
v  0 0 0
v  1.722 6.21386e-16 -10.148
v  0.897 3.23674e-16 -5.286
v  9.598 -9.23996e-17 1.509
v  2.282 -2.29009e-17 0.374
v  11.209 5.56296e-16 -9.085
v  10.404 2.32132e-16 -3.791

# 0 UV coordinates

# 27 vertex normals
vn -0.0942837 0.79475 0.599569
vn -0.0942011 0.794812 0.5995
vn -0.0945154 0.79475 0.599532
vn -0.0944099 0.794841 0.599429
vn 0.0942078 0.794776 -0.599547
vn 0.0946295 0.794464 -0.599894
vn 0.0942866 0.794736 -0.599587
vn -0.985903 3.33155e-05 -0.167317
vn -0.985889 0.0014876 -0.167392
vn -0.985911 0 -0.167269
vn -0.985923 -7.79662e-05 -0.167198
vn -0.985911 1.73123e-05 -0.167269
vn -0.985933 1.02343e-17 -0.167139
vn 0 -1 -6.12537e-17
vn 1.96587e-19 -1 -6.12122e-17
vn -0.161734 -6.04262e-17 0.986834
vn -0.153301 -0.00244964 0.988176
vn -0.155312 0 0.987865
vn 0 1 6.12325e-17
vn 0.988635 -1.07453e-05 0.150339
vn 0.988634 0 0.150339
vn 0.988635 0 0.150339
vn 0 1 6.11183e-17
vn 0.156313 0 -0.987708
vn 4.14867e-24 -1 -6.12323e-17
vn 0 -1 -6.12323e-17
vn 1.06479e-23 -1 -6.12323e-17

# Mesh 'defaultobject' with 32 faces
g defaultobject
usemtl DefaultMaterial
f  1//1 2//1 3//1
f  2//2 1//2 4//2
f  4//3 1//3 5//3
f  4//4 5//4 6//4
f  7//5 3//5 8//5
f  3//6 7//6 9//6
f  3//7 9//7 1//7
f  9//8 5//8 1//8
f  5//9 9//9 7//9
f  5//10 7//10 10//10
f  5//11 10//11 6//11
f  6//12 10//12 11//12
f  6//13 11//13 12//13
f  11//14 10//14 13//14
f  11//14 13//14 14//15
f  12//16 4//16 6//16
f  4//17 12//17 2//17
f  2//18 12//18 15//18
f  15//19 12//19 16//19
f  2//20 8//20 3//20
f  8//21 2//21 15//21
f  8//21 15//21 17//22
f  17//23 15//19 18//23
f  17//24 7//24 8//24
f  7//24 17//24 10//24
f  18//25 10//14 17//25
f  10//14 18//25 15//26
f  10//14 15//26 16//27
f  10//14 16//27 13//14
f  13//14 16//27 14//15
f  14//15 16//27 11//14
f  11//14 16//27 12//26

