# File produced by Open Asset Import Library (http://www.assimp.sf.net)
# (assimp v3.1.0)

mtllib _42470.obj.mtl

# 22 vertex positions
v  3.212 1.51 -0.674
v  3.369 1.415 -0.67
v  3.365 1.415 -0.706
v  3.648 1.383 1.765
v  0 3.504 2.14558e-16
v  5.547 0.427 5.301
v  5.264 0.395 1.69
v  1.388 2.954 5.205
v  0.618 3.428 5.287
v  1.004 3.193 5.296
v  0.629 3.426 5.385
v  3.365 4.323e-17 -0.706
v  3.369 4.10257e-17 -0.67
v  3.648 -1.08075e-16 1.765
v  5.547 -3.24593e-16 5.301
v  5.264 -1.03483e-16 1.69
v  0 0 0
v  3.212 4.12706e-17 -0.674
v  0.618 -3.23735e-16 5.287
v  0.629 -3.29736e-16 5.385
v  1.388 -3.18714e-16 5.205
v  1.004 -3.24286e-16 5.296

# 0 UV coordinates

# 38 vertex normals
vn 0.517913 0.853496 -0.0575452
vn 0.517995 0.854029 -0.048128
vn 0.519454 0.853125 -0.0484358
vn 0.519381 0.853178 -0.0482655
vn 0.519402 0.853165 -0.0482799
vn 0.51947 0.853118 -0.0483783
vn 0.519853 0.852878 -0.0485058
vn 0.520259 0.852848 -0.0445204
vn 0.520277 0.853013 -0.0409914
vn 0.993884 0 -0.11043
vn 0.9935 8.76605e-05 -0.113833
vn 0.993866 -0.00607072 -0.110428
vn 0.9935 0 -0.113834
vn 0.996943 0 -0.0781321
vn -0.205366 0 -0.978685
vn -0.205087 -0.000617573 -0.978743
vn -0.205336 0 -0.978692
vn -9.77998e-21 1 6.11835e-17
vn -0.0463609 0 -0.998925
vn -0.046361 0 -0.998925
vn -0.993237 -7.10908e-18 0.1161
vn -0.993238 0 0.1161
vn -0.993759 0 0.111545
vn -0.993759 0 0.111545
vn 0.230919 -0 0.972973
vn 0.230615 3.77657e-05 0.973045
vn 0.230754 0 0.973012
vn -1.21469e-20 -1 -6.12688e-17
vn -0.0230764 0 0.999734
vn -0.0230764 0 0.999734
vn 1.06196e-23 -1 -6.12321e-17
vn 1.55461e-23 -1 -6.12323e-17
vn 3.22962e-24 -1 -6.12323e-17
vn 0 -1 -6.12323e-17
vn 0 -1 -6.12323e-17
vn -9.25791e-24 -1 -6.12324e-17
vn -6.59307e-24 -1 -6.12325e-17
vn 7.90939e-24 -1 -6.12323e-17

# Mesh 'defaultobject' with 40 faces
g defaultobject
usemtl DefaultMaterial
f  1//1 2//1 3//1
f  2//2 1//2 4//2
f  4//3 1//3 5//3
f  4//4 6//4 7//4
f  6//5 4//5 5//5
f  6//6 5//6 8//6
f  8//7 5//7 9//7
f  8//8 9//8 10//8
f  10//9 9//9 11//9
f  2//10 12//10 3//10
f  12//11 2//11 4//11
f  12//12 4//12 13//12
f  13//13 4//13 14//13
f  15//14 7//14 6//14
f  7//14 15//14 16//14
f  1//15 17//15 5//15
f  17//16 1//16 3//16
f  17//17 3//17 12//17
f  17//18 12//18 18//18
f  7//19 14//19 4//19
f  14//19 7//19 16//20
f  17//21 9//21 5//21
f  9//21 17//21 19//22
f  9//23 19//23 11//23
f  11//23 19//23 20//24
f  20//25 10//25 11//25
f  10//26 20//26 8//26
f  8//27 20//27 21//27
f  21//28 20//28 22//28
f  21//29 6//29 8//29
f  6//29 21//29 15//30
f  19//31 22//28 20//28
f  22//28 19//31 17//32
f  22//28 17//32 21//28
f  21//28 17//32 15//33
f  15//33 17//32 14//34
f  14//34 17//32 13//35
f  13//35 17//32 18//36
f  13//35 18//36 12//37
f  16//38 15//33 14//34

