# {"id":"ID_40434","idOriginal":"ID_40434","origin":[14.326935359802981,48.26414989939235],"elevation":255.098}
# Longitude: 14.326935359802981
# Latitude: 48.26414989939235
# Elevation: 255.098

# File produced by Open Asset Import Library (http://www.assimp.sf.net)
# (assimp v3.1.0)

mtllib ID_40434.obj.mtl

# 24 vertex positions
v  0 1.904 1.16586e-16
v  5.661 2.917 3.013
v  2.278 2.917 -1.652
v  3.383 1.904 4.665
v  5.534 1.904 -1.957
v  5.115 2.09 -1.653
v  7.253 1.904 0.414
v  4.656 2.09 -2.285
v  3.887 2.432 -1.727
v  6.71 2.451 2.252
v  6.023 2.451 1.306
v  3.368 2.433 -2.442
v  6.71 -1.37895e-16 2.252
v  6.023 -7.99694e-17 1.306
v  7.253 -2.53502e-17 0.414
v  5.534 1.19832e-16 -1.957
v  5.115 1.01217e-16 -1.653
v  4.656 1.39916e-16 -2.285
v  3.368 1.49529e-16 -2.442
v  3.887 1.05748e-16 -1.727
v  5.661 -1.84493e-16 3.013
v  3.383 -2.85649e-16 4.665
v  2.278 1.01156e-16 -1.652
v  0 0 0

# 0 UV coordinates

# 38 vertex normals
vn -0.2742 0.94089 0.198846
vn -0.2742 0.94089 0.198846
vn 0.273761 0.941096 -0.19848
vn 0.274036 0.940901 -0.199023
vn 0.273922 0.941014 -0.198645
vn 0.274516 0.94069 -0.199358
vn 0.274181 0.940884 -0.198903
vn 0.274198 0.940868 -0.198952
vn 0.274038 0.940323 -0.20173
vn 0.274429 0.941026 -0.197885
vn 0.809143 0 -0.587612
vn 0.809606 0 -0.586973
vn 0.809124 0 -0.587638
vn 0.809274 0 -0.587431
vn 0.809274 0 -0.587431
vn 0.587075 -0 0.809532
vn 0.587208 0 0.809436
vn 0.587091 -6.41049e-05 0.809521
vn 0.587208 0.000247355 0.809436
vn 0.587072 0 0.809534
vn -0.587252 0 -0.809404
vn -0.587252 0 -0.809404
vn -0.587295 0 -0.809373
vn -0.587295 0 -0.809373
vn -0.586846 0 -0.809699
vn -0.58704 -0.000110778 -0.809558
vn -0.586846 0.000413747 -0.809699
vn -0.587072 4.95697e-17 -0.809534
vn -0.809538 -3.59475e-17 0.587067
vn -0.809538 0 0.587067
vn -1.746e-23 -1 -6.12323e-17
vn 2.50786e-24 -1 -6.12323e-17
vn 2.4042e-24 -1 -6.12323e-17
vn 0 -1 -6.12323e-17
vn 0 -1 -6.12323e-17
vn 0 -1 -6.12323e-17
vn -4.33342e-20 -1 -6.12313e-17
vn -9.21516e-24 -1 -6.12323e-17

# Mesh 'defaultobject' with 44 faces
g defaultobject
usemtl DefaultMaterial
f  1//1 2//1 3//1
f  2//1 1//1 4//2
f  5//3 6//3 7//3
f  8//4 9//4 6//4
f  10//5 3//5 2//5
f  3//6 10//6 11//6
f  3//7 11//7 7//7
f  3//8 7//8 6//8
f  3//9 6//9 9//9
f  3//10 9//10 12//10
f  13//11 11//11 10//11
f  11//11 13//11 14//11
f  15//12 5//12 7//12
f  5//12 15//12 16//12
f  17//13 8//13 6//13
f  8//13 17//13 18//13
f  9//14 19//14 12//14
f  19//14 9//14 20//15
f  14//16 7//16 11//16
f  7//16 14//16 15//16
f  2//17 13//17 10//17
f  13//18 2//18 4//18
f  13//19 4//19 21//19
f  21//20 4//20 22//20
f  5//21 17//21 6//21
f  17//21 5//21 16//22
f  8//23 20//23 9//23
f  20//23 8//23 18//24
f  19//25 3//25 12//25
f  3//26 19//26 1//26
f  1//27 19//27 23//27
f  1//28 23//28 24//28
f  24//29 4//29 1//29
f  4//29 24//29 22//30
f  15//31 17//31 16//31
f  17//31 20//32 18//32
f  20//32 17//31 24//33
f  24//33 17//31 22//34
f  22//34 17//31 14//35
f  14//35 17//31 15//31
f  22//34 14//35 13//36
f  22//34 13//36 21//37
f  20//32 23//38 19//38
f  23//38 20//32 24//33

