# {"id":"ID_49372","idOriginal":"ID_49372","origin":[14.277926163793467,48.308725589513486],"elevation":261.249,"wof":[{"Id":85681677,"Name":"Oberösterreich","Placetype":"region","Offset":-1},{"Id":102049853,"Name":"Linz","Placetype":"county","Offset":-1},{"Id":85898453,"Name":"Urfahr","Placetype":"neighbourhood","Offset":-1},{"Id":85632785,"Name":"Austria","Placetype":"country","Offset":-1},{"Id":101748071,"Name":"Linz","Placetype":"locality","Offset":-1}]}

# Attribution: City of Linz <http://geo.data.linz.gv.at/katalog/geodata/3d_geo_daten_lod2/>
# Longitude: 14.277926163793467
# Latitude: 48.308725589513486
# Elevation: 261.249

# File produced by Open Asset Import Library (http://www.assimp.sf.net)
# (assimp v3.1.0)


# 10 vertex positions
v  1.965 9.384 -1.211
v  3.232 9.052 5.335
v  5.215 9.384 4.064
v  2.924 9.054 4.805
v  0 9.059 5.54704e-16
v  5.215 -2.48848e-16 4.064
v  3.232 -3.26675e-16 5.335
v  1.965 7.41524e-17 -1.211
v  0 0 0
v  2.924 -2.94221e-16 4.805

# 0 UV coordinates

# 15 vertex normals
vn -0.11885 0.990208 0.0732252
vn -0.11992 0.990065 0.0734249
vn -0.118647 0.990232 0.0732313
vn 0.53962 0 0.841909
vn 0.53962 0 0.841909
vn 0.851381 0 -0.524548
vn -0.524653 0 -0.851316
vn -0.524653 5.21281e-17 -0.851316
vn -0.864606 0 0.50245
vn -0.864606 0 0.50245
vn -0.85426 -3.18314e-17 0.519845
vn -0.85426 0 0.519845
vn 1.60567e-23 -1 -6.12323e-17
vn 9.13175e-24 -1 -6.12323e-17
vn 4.07767e-24 -1 -6.12323e-17

# Mesh 'defaultobject' with 16 faces
g defaultobject
usemtl DefaultMaterial
f  1//1 2//1 3//1
f  2//2 1//2 4//2
f  4//3 1//3 5//3
f  2//4 6//4 3//4
f  6//4 2//4 7//5
f  6//6 1//6 3//6
f  1//6 6//6 8//6
f  8//7 5//7 1//7
f  5//7 8//7 9//8
f  10//9 2//9 4//9
f  2//9 10//9 7//10
f  9//11 4//11 5//11
f  4//11 9//11 10//12
f  10//13 6//13 7//13
f  6//13 10//13 8//14
f  8//14 10//13 9//15

