# {"id":"ID_21696","idOriginal":"ID_21696","origin":[14.302255021093844,48.28911488378495],"elevation":260.754,"wof":[{"Id":102049853,"Name":"Linz","Placetype":"county","Offset":-1},{"Id":101748071,"Name":"Linz","Placetype":"locality","Offset":-1},{"Id":85632785,"Name":"Austria","Placetype":"country","Offset":-1},{"Id":85681677,"Name":"Oberösterreich","Placetype":"region","Offset":-1},{"Id":85898459,"Name":"Wegscheid","Placetype":"neighbourhood","Offset":-1}]}

# Attribution: City of Linz <http://geo.data.linz.gv.at/katalog/geodata/3d_geo_daten_lod2/>
# Longitude: 14.302255021093844
# Latitude: 48.28911488378495
# Elevation: 260.754

# File produced by Open Asset Import Library (http://www.assimp.sf.net)
# (assimp v3.1.0)


# 10 vertex positions
v  0 0.684 4.18829e-17
v  0.946 0.684 -18.215
v  0.192 0.684 -18.226
v  6.955 0.684 -18.129
v  6.797 0.684 0.074
v  6.955 1.11008e-15 -18.129
v  0.946 1.11535e-15 -18.215
v  0.192 1.11602e-15 -18.226
v  0 0 0
v  6.797 -4.53119e-18 0.074

# 0 UV coordinates

# 11 vertex normals
vn 0 1 0
vn 0.0143105 0 -0.999898
vn 0.0145869 0 -0.999894
vn -0.999945 0 -0.0105338
vn -0.999945 6.4501e-19 -0.0105338
vn -0.0108865 -6.12287e-17 0.999941
vn -0.0108865 0 0.999941
vn 0.999962 -0 0.00867956
vn -8.85888e-23 -1 -6.12323e-17
vn 0 -1 -6.12323e-17
vn -5.34797e-26 -1 -6.12323e-17

# Mesh 'defaultobject' with 16 faces
g defaultobject
usemtl DefaultMaterial
f  1//1 2//1 3//1
f  2//1 1//1 4//1
f  4//1 1//1 5//1
f  6//2 2//2 4//2
f  2//2 6//2 7//2
f  2//3 7//3 3//3
f  3//3 7//3 8//3
f  8//4 1//4 3//4
f  1//4 8//4 9//5
f  9//6 5//6 1//6
f  5//6 9//6 10//7
f  10//8 4//8 5//8
f  4//8 10//8 6//8
f  7//9 9//9 8//9
f  9//9 7//9 6//10
f  9//9 6//10 10//11

