# {"id":"ID_3511","idOriginal":"ID_3511","origin":[14.269884611204894,48.291617153188795],"elevation":331.932}
# Longitude: 14.269884611204894
# Latitude: 48.291617153188795
# Elevation: 331.932

# File produced by Open Asset Import Library (http://www.assimp.sf.net)
# (assimp v3.1.0)

mtllib ID_3511.obj.mtl

# 138 vertex positions
v  31.775 8.532 14.777
v  32.491 8.509 12.839
v  29.194 10.105 10.178
v  36.066 10.115 -9.861
v  39.974 8.544 -9.252
v  36.247 10.115 -10.389
v  30.703 10.115 5.78
v  39.65 8.531 -8.206
v  38.653 8.49 -4.987
v  39.981 7.93 -4.575
v  38.715 7.883 -0.526
v  36.456 8.413 2.011
v  35.192 8.445 5.452
v  35.88 8.149 5.704
v  36.507 7.88 5.933
v  35.716 7.899 8.095
v  33.802 7.945 13.329
v  33.192 8.207 13.101
v  37.144 8.122 2.226
v  37.792 7.848 2.429
v  35.266 9.702 -10.688
v  35.144 9.707 -10.286
v  35.106 9.709 -10.162
v  34.952 9.644 -10.209
v  32.535 8.626 -10.946
v  30.305 8.731 -3.635
v  29.57 8.422 -3.856
v  28.752 8.078 -4.103
v  27.92 8.065 -1.773
v  25.997 8.035 3.608
v  25.845 8.033 4.034
v  26.574 10.115 9.003
v  25.572 8.43 4.798
v  23.954 10.115 7.828
v  25.068 8.435 4.581
v  24.277 8.441 4.241
v  4.618 7.854 -6.152
v  24.434 8.439 4.308
v  13.453 8.061 -1.582
v  13.593 8.061 -1.518
v  15.541 8.058 -0.626
v  24.712 7.881 3.188
v  15.452 8.058 -0.667
v  24.72 7.872 3.169
v  1.22 10.105 -2.378
v  3.401 9.078 -3.809
v  2.251 9.059 -4.386
v  3.466 9.013 -3.934
v  1.211 10.115 -2.36
v  0 8.885 5.44049e-16
v  3.193 8.781 1.677
v  2.574 8.151 2.886
v  9.363 7.897 6.406
v  2.555 8.131 2.923
v  9.5 7.893 6.473
v  12.07 7.842 7.705
v  12.144 7.841 7.74
v  19.763 8.604 9.36
v  19.227 7.913 10.661
v  22.964 8.622 10.714
v  23.704 9.447 9.214
v  23.07 8.619 10.759
v  23.794 9.45 9.247
v  25.498 9.504 9.877
v  24.296 7.801 13.101
v  24.128 7.564 13.55
v  26.508 7.636 14.438
v  26.635 7.64 14.485
v  26.456 7.368 15.005
v  31.07 7.526 16.686
v  31.273 7.815 16.137
v  2.251 2.68565e-16 -4.386
v  1.211 1.44508e-16 -2.36
v  0 0 0
v  1.22 1.4561e-16 -2.378
v  3.193 -1.02687e-16 1.677
v  2.555 -1.78982e-16 2.923
v  2.574 -1.76717e-16 2.886
v  3.401 2.33234e-16 -3.809
v  4.618 3.76701e-16 -6.152
v  3.466 2.40888e-16 -3.934
v  9.363 7.896 6.406
v  9.363 -3.92254e-16 6.406
v  12.144 -4.73938e-16 7.74
v  9.5 -3.96357e-16 6.473
v  12.07 -4.71795e-16 7.705
v  19.227 -6.52798e-16 10.661
v  19.763 -5.73135e-16 9.36
v  23.07 -6.58799e-16 10.759
v  22.964 -6.56043e-16 10.714
v  25.498 -6.04792e-16 9.877
v  23.704 -5.64195e-16 9.214
v  23.794 -5.66215e-16 9.247
v  24.128 -8.29698e-16 13.55
v  26.635 -8.8695e-16 14.485
v  26.508 -8.84072e-16 14.438
v  31.07 -1.02172e-15 16.686
v  26.456 -9.18791e-16 15.005
v  32.491 -7.86162e-16 12.839
v  33.802 -8.16166e-16 13.329
v  33.192 -8.02205e-16 13.101
v  36.456 -1.23138e-16 2.011
v  37.792 -1.48733e-16 2.429
v  37.144 -1.36303e-16 2.226
v  31.775 -9.0483e-16 14.777
v  31.273 -9.88106e-16 16.137
v  36.507 -3.63291e-16 5.933
v  35.716 -4.95676e-16 8.095
v  35.192 -3.33839e-16 5.452
v  39.981 2.80138e-16 -4.575
v  38.715 3.22082e-17 -0.526
v  38.653 3.05366e-16 -4.987
v  39.974 5.66522e-16 -9.252
v  39.65 5.02473e-16 -8.206
v  24.277 -2.59686e-16 4.241
v  24.712 -1.95209e-16 3.188
v  24.296 -8.02205e-16 13.101
v  35.266 6.54451e-16 -10.688
v  35.106 6.22243e-16 -10.162
v  35.144 6.29836e-16 -10.286
v  30.305 2.2258e-16 -3.635
v  32.535 6.70249e-16 -10.946
v  28.752 2.51236e-16 -4.103
v  27.92 1.08565e-16 -1.773
v  25.845 -2.47011e-16 4.034
v  25.572 -2.93793e-16 4.798
v  25.997 -2.20926e-16 3.608
v  35.88 -3.49269e-16 5.704
v  36.247 6.36143e-16 -10.389
v  34.952 6.25121e-16 -10.209
v  29.57 2.36112e-16 -3.856
v  15.541 3.83314e-17 -0.626
v  24.72 -1.94045e-16 3.169
v  15.452 4.0842e-17 -0.667
v  25.068 -2.80505e-16 4.581
v  24.434 -2.63789e-16 4.308
v  13.453 9.68696e-17 -1.582
v  13.593 9.29507e-17 -1.518

# 0 UV coordinates

# 228 vertex normals
vn 0.352893 0.928019 0.119364
vn 0.353899 0.927382 0.121317
vn 0.353894 0.927381 0.121344
vn 0.353342 0.927639 0.120976
vn 0.354055 0.927303 0.12147
vn 0.353569 0.92754 0.121076
vn 0.353915 0.927362 0.121423
vn 0.353864 0.927391 0.121349
vn 0.353874 0.927385 0.121366
vn 0.353905 0.927178 0.122848
vn 0.353984 0.927484 0.120287
vn 0.353914 0.927374 0.121335
vn 0.353062 0.927446 0.123248
vn 0.352449 0.928011 0.12073
vn 0.354546 0.927638 0.117408
vn 0.35685 0.927184 0.113962
vn 0.354019 0.927304 0.121562
vn 0.354171 0.927234 0.121655
vn -0.353549 0.927531 -0.121198
vn -0.355254 0.92712 -0.119343
vn -0.354304 0.927205 -0.121484
vn -0.293122 0.950274 -0.105161
vn -0.354286 0.927215 -0.121464
vn -0.353651 0.927479 -0.121302
vn -0.354147 0.927284 -0.121339
vn -0.353442 0.927545 -0.121408
vn -0.353411 0.927556 -0.121413
vn -0.354035 0.927339 -0.121245
vn -0.353906 0.927381 -0.121305
vn -0.35467 0.927313 -0.119582
vn -0.351892 0.928161 -0.121201
vn 0.184018 0.896648 -0.402691
vn 0.179241 0.897727 -0.402442
vn 0.180564 0.897382 -0.402619
vn 0.181946 0.897423 -0.401904
vn 0.179882 0.897503 -0.402654
vn 0.185628 0.896727 -0.401774
vn 0.349282 0.481054 -0.804107
vn 0.227521 0.848224 -0.478279
vn 0.17917 0.902377 -0.391936
vn 0.188435 0.893091 -0.40851
vn 0.184141 0.897319 -0.401137
vn 0.218757 0.852437 -0.474865
vn 0.168675 0.91637 -0.363063
vn 0.176616 0.907179 -0.381881
vn 0.17307 0.905947 -0.386403
vn 0.172 0.906928 -0.384574
vn 0.171088 0.90774 -0.383063
vn 0.182056 0.89537 -0.406409
vn -0.172178 0.906986 0.384358
vn -0.171988 0.907287 0.383731
vn -0.172179 0.906948 0.384448
vn -0.172778 0.900861 0.398242
vn -0.175879 0.89762 0.40416
vn -0.175876 0.897673 0.404044
vn -0.176282 0.900099 0.398429
vn -0.175842 0.897589 0.404245
vn -0.175847 0.897572 0.40428
vn -0.175949 0.897665 0.404028
vn -0.151982 0.895782 0.417703
vn -0.194973 0.896838 0.397074
vn -0.179666 0.898458 0.400616
vn -0.178747 0.896216 0.406012
vn -0.178666 0.896036 0.406446
vn -0.178798 0.896072 0.406308
vn -0.1788 0.895941 0.406597
vn -0.178709 0.895903 0.40672
vn -0.178617 0.896159 0.406196
vn -0.178598 0.896249 0.406005
vn -0.178594 0.896103 0.406329
vn -0.178578 0.895765 0.407081
vn -0.178692 0.896122 0.406244
vn 0.659878 0.536242 0.526314
vn -0.891942 0.0108755 -0.452019
vn -0.889666 -0.000352809 -0.456612
vn -0.889672 0 -0.456601
vn -0.889635 4.51759e-05 -0.456673
vn -0.889704 2.79549e-17 -0.456539
vn 4.2572e-22 1 6.12326e-17
vn -0.890116 0 -0.455734
vn -0.889609 0.000185155 -0.456723
vn -0.8901 -0 -0.455766
vn 1.43349e-19 -1 -6.11612e-17
vn -0.887217 0 -0.461353
vn -0.887438 7.49796e-06 -0.460927
vn -0.887428 0 -0.460947
vn -2.0421e-19 -1 -6.1336e-17
vn -0.464981 -5.42103e-17 0.885321
vn -0.464981 0 0.885321
vn -0.455459 0 0.890257
vn -0.455459 0 0.890257
vn -0.439327 0 0.898327
vn -0.432277 -0.000151342 0.901741
vn -0.427581 -0.00214261 0.903975
vn -0.432499 0 0.901634
vn -5.56298e-21 1 6.12447e-17
vn 2.98613e-20 1 6.11702e-17
vn -0.381249 0 0.924473
vn -0.389574 0 0.920995
vn -0.390764 0.000520882 0.920491
vn -0.389613 0 0.920979
vn -1.82025e-20 -1 -6.11903e-17
vn -0.346777 0 0.937948
vn -0.344269 0.000513688 0.938871
vn -0.34665 0 0.937994
vn -4.94752e-20 -1 -6.10948e-17
vn -0.34957 0 0.93691
vn -0.347047 -0.000895463 0.937848
vn -0.349443 0 0.936957
vn 8.84144e-20 1 6.09951e-17
vn -0.342315 0 0.939585
vn -0.350098 0 0.936713
vn -0.350115 1.67553e-06 0.936707
vn -0.350106 0 0.93671
vn -2.40965e-18 -1 -5.47972e-17
vn -0.298275 0 0.95448
vn -0.298923 6.02149e-05 0.954277
vn -0.298601 0 0.954378
vn 3.60712e-21 -1 -6.12489e-17
vn 0.924604 0 0.380929
vn 0.924604 0 0.380929
vn 0.925136 0 0.379636
vn 0.938031 0.000585544 0.346552
vn 0.938161 -0.00133318 0.346196
vn 0.938051 0 0.346496
vn 0.938074 -3.21637e-05 0.346434
vn 0.938029 0 0.346558
vn 5.75529e-19 1 6.14446e-17
vn 0.939174 -0 0.343443
vn 0.93912 0.000110693 0.34359
vn 0.939158 0 0.343486
vn -5.23073e-20 -1 -6.12519e-17
vn 0.938673 -0 0.344808
vn 0.95452 -0 0.298146
vn 0.954433 0.000114073 0.298424
vn 0.95447 0 0.298306
vn 2.7874e-20 -1 -6.12393e-17
vn 0.955232 -0 0.295858
vn 0.955225 9.11581e-06 0.29588
vn 0.95523 0 0.295864
vn -6.24598e-19 -1 -6.15229e-17
vn 0.924241 -0 0.381809
vn 0.924241 0 0.381809
vn -0.936996 0 -0.349339
vn -0.93666 0.000423973 -0.35024
vn -0.936946 -0 -0.349473
vn -4.45419e-20 -1 -6.12502e-17
vn -0.945546 0 -0.325487
vn -0.945546 -0 -0.325487
vn -0.956905 0 -0.290399
vn -0.956107 0.000118426 -0.293017
vn -0.956718 -0 -0.291017
vn -2.77594e-21 -1 -6.12331e-17
vn -0.956495 0 -0.29175
vn -0.94176 0 -0.336285
vn -0.941675 7.7889e-05 -0.336525
vn -0.94176 -0.000180859 -0.336285
vn -0.941841 -0.000352082 -0.336059
vn -0.941686 9.0818e-07 -0.336492
vn -0.941687 -7.10884e-08 -0.336491
vn -0.941687 -0 -0.336491
vn -2.06227e-20 1 6.12262e-17
vn 0.343934 0 -0.938994
vn 0.343097 8.01284e-05 -0.9393
vn 0.34352 0 -0.939145
vn 1.09887e-20 -1 -6.12582e-17
vn 0.296309 0 -0.955092
vn 0.296309 0 -0.955092
vn 0.291795 0 -0.956481
vn 0.291582 -8.58644e-05 -0.956546
vn 0.291744 0 -0.956497
vn 5.78844e-20 1 6.10423e-17
vn 0.291904 0 -0.956448
vn 0.291667 -4.12693e-06 -0.95652
vn 0.29168 0 -0.956516
vn -2.94229e-19 1 6.22457e-17
vn 0.287945 0 -0.957647
vn 0.289026 0.00010289 -0.957321
vn 0.288536 0 -0.957469
vn -9.69872e-21 -1 -6.12011e-17
vn 0.382076 0 -0.924131
vn 0.382076 0 -0.924131
vn 0.418408 0 -0.908259
vn 0.395459 0 -0.918484
vn 0.395492 2.34258e-06 -0.91847
vn 0.3925 -0.000475527 -0.919752
vn 0.395117 0 -0.918631
vn -8.63584e-21 1 6.12511e-17
vn -1.05328e-20 1 6.12572e-17
vn 0.416234 0 -0.909258
vn 0.415759 -0.000132425 -0.909475
vn 0.416201 0 -0.909273
vn 3.77524e-20 1 6.11488e-17
vn 0.459437 0 -0.888211
vn 0.459437 0 -0.888211
vn 0.448457 0 -0.893805
vn 0.448457 0 -0.893804
vn 0.921646 -0 0.388032
vn 0.921646 0 0.388032
vn -2.06392e-23 -1 -6.12325e-17
vn 1.50753e-23 -1 -6.12323e-17
vn 2.2943e-24 -1 -6.12323e-17
vn 0 -1 -6.12323e-17
vn -2.36486e-24 -1 -6.12323e-17
vn 4.39509e-24 -1 -6.12324e-17
vn 1.01535e-24 -1 -6.12323e-17
vn -8.22186e-24 -1 -6.12326e-17
vn 5.79182e-25 -1 -6.12323e-17
vn -5.28298e-23 -1 -6.12331e-17
vn -1.47318e-23 -1 -6.12323e-17
vn 4.2589e-24 -1 -6.12324e-17
vn 2.06349e-24 -1 -6.12323e-17
vn 9.09563e-25 -1 -6.12323e-17
vn 8.87257e-25 -1 -6.12323e-17
vn 0 -1 -6.12323e-17
vn 3.72165e-23 -1 -6.12324e-17
vn -5.83893e-25 -1 -6.12323e-17
vn 0 -1 -6.12326e-17
vn 0 -1 -6.12323e-17
vn 1.97662e-23 -1 -6.12323e-17
vn -4.86173e-24 -1 -6.12324e-17
vn 1.82293e-23 -1 -6.12323e-17
vn 2.95075e-24 -1 -6.12323e-17
vn 8.54907e-24 -1 -6.12323e-17
vn 1.60283e-22 -1 -6.12347e-17
vn 1.7302e-23 -1 -6.12322e-17
vn 1.04295e-23 -1 -6.12323e-17
vn -5.75565e-19 -1 -6.14415e-17

# Mesh 'defaultobject' with 268 faces
g defaultobject
usemtl DefaultMaterial
f  1//1 2//1 3//1
f  4//2 5//2 6//2
f  5//3 4//3 7//3
f  5//4 7//4 8//4
f  8//5 7//5 9//5
f  9//6 7//6 10//6
f  10//7 7//7 11//7
f  11//8 7//8 12//8
f  12//9 7//9 13//9
f  13//10 7//10 14//10
f  14//11 7//11 15//11
f  15//12 7//12 16//12
f  16//13 7//13 3//13
f  16//14 3//14 17//14
f  17//15 3//15 18//15
f  18//16 3//16 2//16
f  11//17 19//17 20//17
f  19//18 11//18 12//18
f  21//19 4//19 6//19
f  4//20 21//20 22//20
f  4//21 22//21 7//21
f  7//22 22//22 23//22
f  7//23 23//23 24//23
f  7//24 24//24 25//24
f  7//25 25//25 26//25
f  7//26 26//26 27//26
f  7//27 27//27 28//27
f  7//28 28//28 29//28
f  7//29 29//29 30//29
f  7//30 30//30 3//30
f  3//31 30//31 31//31
f  31//32 32//32 3//32
f  32//33 31//33 33//33
f  33//34 34//34 32//34
f  34//35 33//35 35//35
f  34//36 35//36 36//36
f  34//37 36//37 37//37
f  36//38 35//38 38//38
f  37//39 36//39 39//39
f  39//40 36//40 40//40
f  40//41 36//41 41//41
f  41//42 36//42 42//42
f  40//43 41//43 43//43
f  41//44 42//44 44//44
f  45//45 46//45 47//45
f  46//46 45//46 34//46
f  48//47 34//47 37//47
f  34//48 48//48 46//48
f  34//49 45//49 49//49
f  50//50 34//50 49//50
f  34//51 50//51 51//51
f  34//52 51//52 52//52
f  53//53 52//53 54//53
f  55//54 34//54 52//54
f  34//55 55//55 56//55
f  34//56 56//56 57//56
f  34//57 57//57 58//57
f  58//58 57//58 59//58
f  34//59 58//59 60//59
f  61//60 60//60 62//60
f  34//61 60//61 61//61
f  61//62 32//62 34//62
f  32//63 61//63 63//63
f  32//64 63//64 64//64
f  32//65 64//65 3//65
f  3//66 64//66 65//66
f  3//67 65//67 1//67
f  1//68 65//68 66//68
f  1//69 66//69 67//69
f  1//70 67//70 68//70
f  1//71 68//71 69//71
f  1//72 69//72 70//72
f  1//73 70//73 71//73
f  45//74 50//74 49//74
f  50//75 45//75 47//75
f  50//76 47//76 72//76
f  50//77 72//77 73//77
f  50//78 73//78 74//78
f  73//79 72//79 75//79
f  76//80 52//80 51//80
f  52//81 76//81 54//81
f  54//82 76//82 77//82
f  77//83 76//83 78//83
f  48//84 79//84 46//84
f  79//85 48//85 37//85
f  79//86 37//86 80//86
f  79//87 80//87 81//87
f  74//88 51//88 50//88
f  51//88 74//88 76//89
f  77//90 82//90 54//90
f  82//90 77//90 83//91
f  83//92 55//92 82//92
f  55//93 83//93 56//93
f  56//94 83//94 57//94
f  57//95 83//95 84//95
f  84//96 83//96 85//96
f  84//96 85//96 86//97
f  87//98 57//98 84//98
f  88//99 60//99 58//99
f  60//100 88//100 62//100
f  62//101 88//101 89//101
f  89//102 88//102 90//102
f  87//98 59//98 57//98
f  63//103 91//103 64//103
f  91//104 63//104 61//104
f  91//105 61//105 92//105
f  91//106 92//106 93//106
f  94//107 67//107 66//107
f  67//108 94//108 68//108
f  68//109 94//109 95//109
f  95//110 94//110 96//110
f  69//111 97//111 70//111
f  97//111 69//111 98//111
f  99//112 18//112 2//112
f  18//113 99//113 17//113
f  17//113 99//113 100//114
f  100//115 99//115 101//115
f  102//116 19//116 12//116
f  19//117 102//117 20//117
f  20//118 102//118 103//118
f  103//119 102//119 104//119
f  59//120 88//120 58//120
f  88//120 59//120 87//121
f  62//122 92//122 61//122
f  92//122 62//122 89//122
f  71//123 2//123 1//123
f  2//124 71//124 70//124
f  2//125 70//125 97//125
f  2//126 97//126 105//126
f  2//127 105//127 99//127
f  105//128 97//128 106//128
f  100//129 16//129 17//129
f  16//130 100//130 15//130
f  15//131 100//131 107//131
f  107//132 100//115 108//132
f  109//133 12//133 13//133
f  12//133 109//133 102//133
f  103//134 11//134 20//134
f  11//135 103//135 10//135
f  10//136 103//136 110//136
f  110//137 103//119 111//137
f  112//138 8//138 9//138
f  8//139 112//139 5//139
f  5//140 112//138 113//140
f  113//141 112//141 114//141
f  115//142 42//142 36//142
f  42//142 115//142 116//143
f  91//144 65//144 64//144
f  65//145 91//145 66//145
f  66//146 91//146 94//146
f  94//147 91//106 117//147
f  95//148 69//148 68//148
f  69//148 95//148 98//149
f  118//150 22//150 21//150
f  22//151 118//151 23//151
f  23//152 118//152 119//152
f  119//153 118//153 120//153
f  25//154 121//154 26//154
f  121//154 25//154 122//154
f  123//155 29//155 28//155
f  29//156 123//156 30//156
f  30//157 123//157 124//157
f  30//158 124//158 31//158
f  31//159 124//159 33//159
f  33//159 124//159 125//160
f  33//159 125//160 126//161
f  125//162 124//162 127//162
f  14//163 109//163 13//163
f  109//164 14//164 15//164
f  109//165 15//165 107//165
f  109//166 107//132 128//166
f  10//167 112//167 9//167
f  112//167 10//167 110//168
f  113//169 6//169 5//169
f  6//170 113//170 21//170
f  21//171 113//171 118//171
f  118//172 113//172 129//172
f  119//173 24//173 23//173
f  24//174 119//174 25//174
f  25//175 119//175 122//175
f  122//176 119//176 130//176
f  121//177 27//177 26//177
f  27//178 121//178 28//178
f  28//179 121//179 123//179
f  123//180 121//180 131//180
f  44//181 132//181 41//181
f  132//181 44//181 133//182
f  134//183 41//183 132//183
f  126//184 35//184 33//184
f  35//185 126//185 38//185
f  38//186 126//186 36//186
f  36//187 126//187 115//187
f  115//188 126//188 135//188
f  115//188 135//188 136//189
f  134//183 43//183 41//183
f  43//190 134//190 40//190
f  40//191 134//191 39//191
f  39//192 134//192 137//192
f  137//193 134//193 138//193
f  137//194 37//194 39//194
f  37//194 137//194 80//195
f  79//196 47//196 46//196
f  47//196 79//196 72//197
f  116//198 44//198 42//198
f  44//198 116//198 133//199
f  129//200 120//153 118//153
f  120//153 129//200 113//141
f  120//153 113//141 119//153
f  111//137 104//119 102//119
f  104//119 111//137 103//119
f  108//132 88//102 107//132
f  88//102 108//132 92//106
f  88//102 92//106 90//102
f  90//102 92//106 89//102
f  130//201 121//180 122//201
f  121//180 130//201 119//153
f  121//180 119//153 113//141
f  121//180 113//141 114//141
f  121//180 114//141 112//141
f  121//180 112//141 110//137
f  121//180 110//137 111//137
f  121//180 111//137 124//202
f  124//202 111//137 127//203
f  127//203 111//137 102//119
f  127//203 102//119 109//166
f  127//203 109//166 125//204
f  125//204 109//166 126//205
f  126//205 109//166 83//206
f  83//206 109//166 85//207
f  85//207 109//166 86//208
f  86//208 109//166 128//166
f  86//208 128//166 107//132
f  86//208 107//132 84//209
f  84//209 107//132 88//102
f  84//209 88//102 87//210
f  137//211 81//87 80//87
f  81//87 137//211 79//87
f  79//87 137//211 75//212
f  75//212 137//211 73//213
f  73//213 137//211 74//214
f  74//214 137//211 134//215
f  74//214 134//215 76//83
f  76//83 134//215 132//216
f  76//83 132//216 133//217
f  76//83 133//217 78//83
f  78//83 133//217 77//83
f  77//83 133//217 83//206
f  83//206 133//217 116//218
f  83//206 116//218 115//219
f  83//206 115//219 136//220
f  83//206 136//220 135//221
f  83//206 135//221 126//205
f  131//180 124//202 123//180
f  124//202 131//180 121//180
f  75//212 72//222 79//87
f  108//132 93//106 92//106
f  93//106 108//132 91//106
f  91//106 108//132 100//115
f  91//106 100//115 101//115
f  91//106 101//115 99//115
f  91//106 99//115 117//147
f  99//115 94//147 117//147
f  94//147 99//115 105//223
f  94//147 105//223 96//224
f  96//224 105//223 95//225
f  95//225 105//223 98//226
f  98//226 105//223 97//227
f  97//227 105//223 106//228

