# {"id":"ID_45959","idOriginal":"ID_45959","origin":[14.28251966841746,48.28452935594701],"elevation":282.628}
# Longitude: 14.28251966841746
# Latitude: 48.28452935594701
# Elevation: 282.628

# File produced by Open Asset Import Library (http://www.assimp.sf.net)
# (assimp v3.1.0)

mtllib ID_45959.obj.mtl

# 10 vertex positions
v  5.909 3.831 1.696
v  0.07 3.831 -0.245
v  0 3.831 2.34581e-16
v  0.842 3.831 -2.93
v  6.751 3.831 -1.234
v  0.842 1.79411e-16 -2.93
v  0 0 0
v  0.07 1.50019e-17 -0.245
v  5.909 -1.0385e-16 1.696
v  6.751 7.55607e-17 -1.234

# 0 UV coordinates

# 12 vertex normals
vn 0 1 0
vn -0.961063 0 -0.276328
vn -0.961523 -0.00121908 -0.274721
vn -0.961102 1.6912e-17 -0.276194
vn 5.56085e-21 1 6.12333e-17
vn -0.275881 -5.8856e-17 0.961192
vn -0.275881 0 0.961192
vn 0.961102 -0 0.276194
vn 0.275881 0 -0.961192
vn 2.11228e-24 -1 -6.12323e-17
vn 0 -1 -6.12323e-17
vn 2.82474e-24 -1 -6.12323e-17

# Mesh 'defaultobject' with 16 faces
g defaultobject
usemtl DefaultMaterial
f  1//1 2//1 3//1
f  2//1 1//1 4//1
f  4//1 1//1 5//1
f  6//2 2//2 4//2
f  2//3 6//3 3//3
f  3//4 6//4 7//4
f  7//5 6//5 8//5
f  7//6 1//6 3//6
f  1//6 7//6 9//7
f  9//8 5//8 1//8
f  5//8 9//8 10//8
f  10//9 4//9 5//9
f  4//9 10//9 6//9
f  8//10 9//10 7//10
f  9//10 8//10 6//11
f  9//10 6//11 10//12

