# {"id":"ID_48055","idOriginal":"ID_48055","origin":[14.303409332935017,48.330716707135856],"elevation":260.164}
# Longitude: 14.303409332935017
# Latitude: 48.330716707135856
# Elevation: 260.164

# File produced by Open Asset Import Library (http://www.assimp.sf.net)
# (assimp v3.1.0)

mtllib ID_48055.obj.mtl

# 14 vertex positions
v  2.62 8.873 1.187
v  1.392 7.906 3.802
v  5.166 7.906 2.34
v  2.566 8.873 1.208
v  0.02 7.906 0.056
v  5.181 7.898 2.334
v  3.767 7.919 -1.368
v  0 7.877 4.82327e-16
v  3.767 8.37658e-17 -1.368
v  0 0 0
v  1.392 -2.32805e-16 3.802
v  0.02 -3.42901e-18 0.056
v  5.181 -1.42916e-16 2.334
v  5.166 -1.43284e-16 2.34

# 0 UV coordinates

# 23 vertex normals
vn 0.157569 0.899848 0.406749
vn 0.158276 0.899614 0.406993
vn -0.40965 0.89982 0.150037
vn 0.413427 0.896129 -0.161342
vn 0.410263 0.899278 -0.151601
vn -0.158487 0.898746 -0.408824
vn -0.157709 0.899816 -0.406767
vn -0.158262 0.899633 -0.406957
vn -0.341342 0 -0.939939
vn -0.341342 5.75547e-17 -0.939939
vn -0.938872 -0.0165243 0.343869
vn -0.939041 0 0.343805
vn -0.939041 0 0.343805
vn 0 1 6.12284e-17
vn 0.36123 -0 0.932477
vn 0.36933 -0.00445619 0.929288
vn 0.36127 0 0.932461
vn 6.53616e-20 1 6.14011e-17
vn 0.934176 0 -0.356814
vn -3.27936e-24 -1 -6.12323e-17
vn 0 -1 -6.12327e-17
vn -3.33333e-24 -1 -6.12323e-17
vn 1.84139e-21 -1 -6.1233e-17

# Mesh 'defaultobject' with 24 faces
g defaultobject
usemtl DefaultMaterial
f  1//1 2//1 3//1
f  2//2 1//2 4//2
f  4//3 5//3 2//3
f  6//4 1//4 3//4
f  1//5 6//5 7//5
f  5//6 7//6 8//6
f  7//7 5//7 4//7
f  7//8 4//8 1//8
f  9//9 8//9 7//9
f  8//9 9//9 10//10
f  8//11 2//11 5//11
f  2//12 8//12 10//12
f  2//12 10//12 11//13
f  11//14 10//14 12//14
f  11//15 3//15 2//15
f  3//16 11//16 6//16
f  6//17 11//17 13//17
f  13//18 11//14 14//18
f  6//19 9//19 7//19
f  9//19 6//19 13//19
f  12//20 14//20 11//20
f  14//20 12//20 10//21
f  14//20 10//21 9//22
f  14//20 9//22 13//23

