# {"id":"ID_25502","idOriginal":"ID_25502","origin":[14.286757131151335,48.273005752333006],"elevation":277.345}
# Longitude: 14.286757131151335
# Latitude: 48.273005752333006
# Elevation: 277.345

# File produced by Open Asset Import Library (http://www.assimp.sf.net)
# (assimp v3.1.0)

mtllib ID_25502.obj.mtl

# 22 vertex positions
v  5.42 6.797 5.61
v  0.465 10.283 -0.438
v  0 10.283 6.29652e-16
v  8.197 10.283 -7.717
v  9.399 6.797 1.864
v  8.794 10.283 -8.279
v  13.555 6.773 -1.976
v  9.318 9.943 -7.729
v  13.935 6.952 -2.882
v  13.639 6.777 -2.066
v  14.169 6.8 -2.636
v  14.169 1.61408e-16 -2.636
v  9.318 4.73265e-16 -7.729
v  8.794 5.06943e-16 -8.279
v  13.935 1.76472e-16 -2.882
v  8.197 4.7253e-16 -7.717
v  0.465 2.68198e-17 -0.438
v  0 0 0
v  5.42 -3.43513e-16 5.61
v  9.399 -1.14137e-16 1.864
v  13.555 1.20995e-16 -1.976
v  13.639 1.26506e-16 -2.066

# 0 UV coordinates

# 40 vertex normals
vn 0.279769 0.912968 0.297015
vn 0.279683 0.912971 0.297088
vn 0.279693 0.912968 0.297089
vn 0.279676 0.912972 0.297093
vn 0.279764 0.912949 0.29708
vn 0.2835 0.912747 0.294145
vn 0.27917 0.913002 0.297475
vn 0.272821 0.915614 0.295328
vn 0.280227 0.912705 0.297391
vn 0.724559 0 -0.689213
vn 0.724067 -3.48844e-05 -0.68973
vn 0.723972 -0.000132192 -0.689829
vn 0.724101 9.43112e-06 -0.689694
vn 0.724013 0 -0.689787
vn 6.664e-20 1 6.11089e-17
vn -0.685441 0 -0.728128
vn -0.685456 -1.63316e-06 -0.728114
vn -0.685441 2.12653e-05 -0.728128
vn -0.685456 -0 -0.728114
vn -0.685658 -0 -0.727924
vn -0.685658 4.45725e-17 -0.727924
vn -0.719181 -4.25457e-17 0.694823
vn -0.719181 0 0.694823
vn 0.685467 -0 0.728103
vn 0.678637 0.00748888 0.734436
vn 0.685447 -0.00780814 0.728081
vn 0.678632 0 0.734478
vn 0.732336 0 0.680944
vn 0.731061 -0.000214774 0.682312
vn 0.732336 3.41179e-05 0.680944
vn 0.731056 0 0.682317
vn 5.31243e-24 -1 -6.12323e-17
vn 5.11304e-24 -1 -6.12323e-17
vn -9.93576e-24 -1 -6.12323e-17
vn 0 -1 -6.12323e-17
vn -3.2889e-23 -1 -6.12323e-17
vn 0 -1 -6.12322e-17
vn 0 -1 -6.12323e-17
vn 2.36881e-22 -1 -6.12322e-17
vn 2.50889e-23 -1 -6.12323e-17

# Mesh 'defaultobject' with 40 faces
g defaultobject
usemtl DefaultMaterial
f  1//1 2//1 3//1
f  2//2 1//2 4//2
f  4//3 1//3 5//3
f  4//2 5//4 6//4
f  6//5 5//5 7//5
f  6//6 7//6 8//6
f  8//7 7//7 9//7
f  9//8 7//8 10//8
f  9//9 10//9 11//9
f  12//10 9//10 11//10
f  9//11 12//11 8//11
f  8//12 12//12 6//12
f  6//13 12//13 13//13
f  6//14 13//14 14//14
f  13//15 12//15 15//15
f  14//16 4//16 6//16
f  4//17 14//17 2//17
f  2//18 14//18 16//18
f  2//17 16//19 17//19
f  2//20 17//20 3//20
f  3//20 17//20 18//21
f  18//22 1//22 3//22
f  1//22 18//22 19//23
f  19//24 5//24 1//24
f  5//25 19//25 7//25
f  7//26 19//26 20//26
f  7//27 20//27 21//27
f  10//28 12//28 11//28
f  12//29 10//29 7//29
f  12//30 7//30 22//30
f  22//31 7//31 21//31
f  17//32 19//32 18//32
f  19//32 17//32 16//33
f  19//32 16//33 20//34
f  20//34 16//33 21//35
f  21//35 16//33 14//36
f  21//35 14//36 13//37
f  21//35 13//37 15//38
f  21//35 15//38 22//39
f  22//39 15//38 12//40

