# {"id":"ID_57917","idOriginal":"ID_57917","origin":[14.304968093971713,48.33026493655387],"elevation":259.941,"wof":[{"Id":101748071,"Name":"Linz","Placetype":"locality","Offset":-1},{"Id":102049853,"Name":"Linz","Placetype":"county","Offset":-1},{"Id":85632785,"Name":"Austria","Placetype":"country","Offset":-1},{"Id":85681677,"Name":"Oberösterreich","Placetype":"region","Offset":-1},{"Id":85898419,"Name":"Furth","Placetype":"neighbourhood","Offset":-1}]}

# Attribution: City of Linz <http://geo.data.linz.gv.at/katalog/geodata/3d_geo_daten_lod2/>
# Longitude: 14.304968093971713
# Latitude: 48.33026493655387
# Elevation: 259.941

# File produced by Open Asset Import Library (http://www.assimp.sf.net)
# (assimp v3.1.0)


# 12 vertex positions
v  1.056 3.642 -0.318
v  2.276 3.642 2.939
v  2.414 3.642 2.887
v  1.607 3.642 4.051
v  2.516 3.642 3.647
v  0 3.642 2.23008e-16
v  1.607 -2.48052e-16 4.051
v  2.516 -2.23314e-16 3.647
v  2.276 -1.79962e-16 2.939
v  2.414 -1.76778e-16 2.887
v  1.056 1.94719e-17 -0.318
v  0 0 0

# 0 UV coordinates

# 13 vertex normals
vn 0 1 0
vn 0.406139 -0 0.913812
vn 0.947066 0 -0.321039
vn 0.352609 -0 0.935771
vn 0.920757 0 -0.390137
vn -0.288346 0 -0.957526
vn -0.288346 5.86316e-17 -0.957526
vn -0.929533 -2.25787e-17 0.368739
vn -0.929533 0 0.368739
vn -1.38719e-23 -1 -6.12323e-17
vn 0 -1 -6.12323e-17
vn 1.17719e-23 -1 -6.12323e-17
vn 2.45742e-23 -1 -6.12323e-17

# Mesh 'defaultobject' with 20 faces
g defaultobject
usemtl DefaultMaterial
f  1//1 2//1 3//1
f  2//1 4//1 5//1
f  4//1 2//1 6//1
f  6//1 2//1 1//1
f  7//2 5//2 4//2
f  5//2 7//2 8//2
f  8//3 2//3 5//3
f  2//3 8//3 9//3
f  9//4 3//4 2//4
f  3//4 9//4 10//4
f  10//5 1//5 3//5
f  1//5 10//5 11//5
f  11//6 6//6 1//6
f  6//6 11//6 12//7
f  12//8 4//8 6//8
f  4//8 12//8 7//9
f  10//10 12//10 11//10
f  12//10 10//10 9//11
f  12//10 9//11 7//12
f  7//12 9//11 8//13

