# {"id":"ID_18059","idOriginal":"ID_18059","origin":[14.272736919535996,48.316174073270616],"elevation":283.047}
# Longitude: 14.272736919535996
# Latitude: 48.316174073270616
# Elevation: 283.047

# File produced by Open Asset Import Library (http://www.assimp.sf.net)
# (assimp v3.1.0)

mtllib ID_18059.obj.mtl

# 16 vertex positions
v  5.44 12.003 -2.961
v  12.694 9.089 -2.632
v  10.881 9.091 -5.923
v  11.568 12.003 8.196
v  15.342 9.11 2.284
v  16.977 9.098 5.209
v  6.146 9.092 11.19
v  0 9.092 5.56724e-16
v  10.881 3.62679e-16 -5.923
v  0 0 0
v  5.44 1.81309e-16 -2.961
v  6.146 -6.8519e-16 11.19
v  16.977 -3.18959e-16 5.209
v  11.568 -5.0186e-16 8.196
v  15.342 -1.39855e-16 2.284
v  12.694 1.61164e-16 -2.632

# 0 UV coordinates

# 25 vertex normals
vn 0.372839 0.905002 -0.204846
vn 0.372841 0.905016 -0.204784
vn 0.372959 0.904972 -0.20476
vn 0.372957 0.904973 -0.204761
vn -0.372829 0.905023 0.204773
vn -0.372822 0.905026 0.204773
vn -0.478128 0 -0.87829
vn -0.478082 2.6842e-05 -0.878315
vn -0.4781 5.37807e-17 -0.878305
vn 0 -1 -6.12331e-17
vn -0.876497 -2.94777e-17 0.481407
vn -0.876497 0 0.481407
vn 0.483393 -0 0.875403
vn 0.483411 -1.05551e-05 0.875394
vn 0.483404 0 0.875397
vn -1.08845e-19 1 6.07357e-17
vn 0.872887 0 -0.487921
vn 0.880377 0.00573729 -0.474239
vn 0.875878 -0.00352707 -0.48252
vn 0.872823 -0.0121453 -0.487886
vn 0.880395 0.00390333 -0.474224
vn 0.875884 0 -0.482522
vn 5.356e-24 -1 -6.12324e-17
vn 0 -1 -6.12323e-17
vn 0 -1 -6.12323e-17

# Mesh 'defaultobject' with 28 faces
g defaultobject
usemtl DefaultMaterial
f  1//1 2//1 3//1
f  2//2 1//2 4//2
f  2//3 4//3 5//3
f  5//3 4//3 6//4
f  7//5 1//5 8//5
f  1//5 7//5 4//6
f  9//7 1//7 3//7
f  1//8 9//8 8//8
f  8//9 9//9 10//9
f  10//10 9//10 11//10
f  10//11 7//11 8//11
f  7//11 10//11 12//12
f  12//13 4//13 7//13
f  4//14 12//14 6//14
f  6//15 12//15 13//15
f  13//16 12//16 14//16
f  13//17 5//17 6//17
f  5//18 13//18 2//18
f  2//19 13//19 3//19
f  3//20 13//20 15//20
f  3//21 15//21 16//21
f  3//22 16//22 9//22
f  10//10 14//23 12//23
f  14//23 10//10 13//24
f  13//24 10//10 15//24
f  15//24 10//10 16//25
f  16//25 10//10 11//10
f  16//25 11//10 9//10

