# {"id":"_7585","idOriginal":"_7585","origin":[14.29743768075276,48.30278123280909],"elevation":260.532,"wof":[{"Id":102049853,"Name":"Linz","Placetype":"county","Offset":-1},{"Id":85898449,"Name":"Steeg","Placetype":"neighbourhood","Offset":-1},{"Id":85681677,"Name":"Oberösterreich","Placetype":"region","Offset":-1},{"Id":101748071,"Name":"Linz","Placetype":"locality","Offset":-1},{"Id":85632785,"Name":"Austria","Placetype":"country","Offset":-1}]}

# Attribution: City of Linz <http://geo.data.linz.gv.at/katalog/geodata/3d_geo_daten_lod2/>
# Longitude: 14.29743768075276
# Latitude: 48.30278123280909
# Elevation: 260.532

# File produced by Open Asset Import Library (http://www.assimp.sf.net)
# (assimp v3.1.0)


# 28 vertex positions
v  23.219 14.115 2.862
v  15.45 21.207 1.302
v  23.988 14.212 5.144
v  23.161 14.115 2.709
v  19.466 14.111 -7.016
v  19.147 14.465 -6.912
v  4.763 14.115 12.523
v  24.015 14.124 5.223
v  8.65 21.207 3.876
v  18.97 14.115 -7.2
v  0.02 14.137 -0.007
v  19.053 14.46 -6.882
v  4.604 14.115 12.104
v  0 14.115 8.64294e-16
v  4.62 14.115 12.147
v  19.053 4.21401e-16 -6.882
v  19.466 4.29606e-16 -7.016
v  19.147 4.23238e-16 -6.912
v  0.02 4.28626e-19 -0.007
v  18.97 4.40873e-16 -7.2
v  0 0 0
v  24.015 -3.19817e-16 5.223
v  23.219 -1.75247e-16 2.862
v  23.988 -3.14979e-16 5.144
v  23.161 -1.65878e-16 2.709
v  4.604 -7.41156e-16 12.104
v  4.763 -7.66813e-16 12.523
v  4.62 -7.43789e-16 12.147

# 0 UV coordinates

# 46 vertex normals
vn 0.679113 0.687176 -0.258061
vn 0.679157 0.687357 -0.25746
vn 0.679086 0.687112 -0.2583
vn 0.678497 0.687472 -0.258891
vn 0.256998 0.68806 0.67862
vn 0.257294 0.687199 0.67938
vn 0.257139 0.687325 0.679312
vn -0.257141 0.687098 -0.679541
vn -0.257242 0.687017 -0.679583
vn -0.255484 0.687771 -0.679484
vn -0.253443 0.688676 -0.679332
vn -0.673315 0.693582 0.256109
vn -0.679108 0.687095 0.25829
vn -0.679527 0.68684 0.257864
vn 0 1 0
vn -0.304309 0.00562379 -0.952557
vn -0.308617 -0 -0.951186
vn -0.308617 0 -0.951186
vn -2.26005e-20 -1 -6.13019e-17
vn -0.354873 0 -0.934915
vn -0.354873 0 -0.934915
vn -0.33035 0 -0.943858
vn -0.33035 5.77947e-17 -0.943858
vn 0.967585 0 -0.252546
vn 0.967585 0 -0.252546
vn 0.947582 0.00390683 -0.319488
vn 0.947594 0 -0.319477
vn 0 -1 -6.12394e-17
vn 0.935066 0 -0.354473
vn 0.934799 -8.70995e-06 -0.355176
vn 0.934804 0 -0.355165
vn 3.3141e-19 1 6.11451e-17
vn -0.934669 -2.17693e-17 0.35552
vn -0.937203 0.00665752 0.34872
vn -0.934684 1.67117e-05 0.355479
vn -0.934669 -2.48345e-05 0.35552
vn -0.934946 0 0.354789
vn 1.24273e-20 1 6.12261e-17
vn 0.354549 0 0.935037
vn 0.354549 0 0.935037
vn -2.87623e-23 -1 -6.12324e-17
vn 0 -1 -6.12321e-17
vn 7.942e-25 -1 -6.12323e-17
vn 0 -1 -6.12322e-17
vn -9.99144e-24 -1 -6.12324e-17
vn -1.74047e-21 -1 -6.12316e-17

# Mesh 'defaultobject' with 52 faces
g defaultobject
usemtl DefaultMaterial
f  1//1 2//1 3//1
f  2//2 1//2 4//2
f  2//3 4//3 5//3
f  2//4 5//4 6//4
f  3//5 7//5 8//5
f  7//6 3//6 2//6
f  7//7 2//7 9//7
f  9//8 10//8 11//8
f  10//9 9//9 2//9
f  10//10 2//10 12//10
f  12//11 2//11 6//11
f  13//12 11//12 14//12
f  11//13 13//13 9//13
f  9//14 13//14 7//14
f  7//15 13//15 15//15
f  5//16 12//16 6//16
f  12//17 5//17 16//17
f  16//17 5//17 17//18
f  16//19 17//19 18//19
f  10//20 19//20 11//20
f  19//20 10//20 20//21
f  19//22 14//22 11//22
f  14//22 19//22 21//23
f  16//24 10//24 12//24
f  10//24 16//24 20//25
f  8//26 1//26 3//26
f  1//27 8//27 22//27
f  1//27 22//27 23//27
f  23//28 22//28 24//28
f  23//29 4//29 1//29
f  4//30 23//30 5//30
f  5//31 23//31 17//31
f  17//32 23//32 25//32
f  21//33 13//33 14//33
f  13//34 21//34 15//34
f  15//35 21//35 7//35
f  7//36 21//36 26//36
f  7//37 26//37 27//37
f  27//38 26//38 28//38
f  7//39 22//39 8//39
f  22//39 7//39 27//40
f  28//41 22//28 27//41
f  22//28 28//41 26//42
f  22//28 26//42 21//43
f  22//28 21//43 19//44
f  22//28 19//44 16//19
f  16//19 19//44 20//45
f  22//28 16//19 24//28
f  24//28 16//19 23//28
f  23//28 16//19 25//46
f  25//46 18//19 17//19
f  18//19 25//46 16//19

