# {"id":"ID_12419","idOriginal":"ID_12419","origin":[14.381498059332086,48.2357249142319],"elevation":250.172}
# Longitude: 14.381498059332086
# Latitude: 48.2357249142319
# Elevation: 250.172

# File produced by Open Asset Import Library (http://www.assimp.sf.net)
# (assimp v3.1.0)

mtllib ID_12419.obj.mtl

# 31 vertex positions
v  10.393 2.65 -2.856
v  0.883 2.664 -4.761
v  0.858 2.65 -4.624
v  1.412 3.197 -9.989
v  0.457 2.664 -4.84
v  11.472 3.197 -8.123
v  10.411 2.66 -2.954
v  10.51 2.66 -2.936
v  15.967 2.66 -1.924
v  16.929 3.197 -7.111
v  17.891 2.66 -12.299
v  12.434 2.66 -13.311
v  2.374 2.66 -15.177
v  2.374 9.29323e-16 -15.177
v  1.412 6.1165e-16 -9.989
v  0.457 2.96365e-16 -4.84
v  0.883 2.91527e-16 -4.761
v  0.858 2.83138e-16 -4.624
v  10.393 1.7488e-16 -2.856
v  10.411 1.8088e-16 -2.954
v  15.967 1.17811e-16 -1.924
v  10.51 1.79778e-16 -2.936
v  16.929 4.35423e-16 -7.111
v  17.891 7.53097e-16 -12.299
v  12.434 8.15064e-16 -13.311
v  0.858 2.518 -4.624
v  9.535 1.947 1.768
v  10.393 2.518 -2.856
v  0 1.947 1.19219e-16
v  0 0 0
v  9.535 -1.08259e-16 1.768

# 0 UV coordinates

# 47 vertex normals
vn -0.0182361 0.994985 0.098349
vn -0.0184628 0.99486 0.0995589
vn -0.0184668 0.99486 0.0995585
vn -0.0184649 0.99486 0.0995644
vn -0.0182036 0.995001 0.098187
vn -0.0181156 0.994859 0.099636
vn -0.0184655 0.994859 0.0995711
vn -0.0184655 0.994859 0.0995711
vn 0.018462 0.994861 -0.0995528
vn 0.0184656 0.994861 -0.0995521
vn 0.0184656 0.994861 -0.0995521
vn -0.983239 0 -0.18232
vn -0.983239 -0 -0.18232
vn -0.983231 -0 -0.182363
vn -0.983231 -0 -0.182363
vn -0.983755 0 -0.179517
vn -0.983755 -0 -0.179517
vn -0.182337 0 0.983236
vn -0.182315 0 0.98324
vn -0.178887 0 0.98387
vn -0.182341 0.00013285 0.983235
vn -0.182279 0 0.983247
vn 6.74662e-21 -1 -6.12593e-17
vn 0.983546 0 0.180657
vn 0.983546 0 0.180657
vn 0.983233 -0 0.182354
vn 0.983239 0 0.18232
vn 0.983239 0 0.18232
vn 0.182376 0 -0.983229
vn 0.182341 0 -0.983235
vn -9.7999e-24 -1 -6.12322e-17
vn -1.36971e-23 -1 -6.12324e-17
vn -2.71216e-24 -1 -6.12323e-17
vn 3.61542e-24 -1 -6.12323e-17
vn 0 -1 -6.12323e-17
vn 3.93723e-24 -1 -6.12323e-17
vn -9.26778e-23 -1 -6.12323e-17
vn 0 -1 -6.12323e-17
vn -0.0219741 0.99271 0.118509
vn -0.0219741 0.99271 0.118509
vn -0.182314 -6.02061e-17 0.98324
vn -0.182314 0 0.98324
vn 0.983217 0 0.182439
vn 0.983217 0 0.182439
vn 0.182315 0 -0.98324
vn -0.983217 0 -0.18244
vn -0.983217 1.11712e-17 -0.182439

# Mesh 'defaultobject' with 57 faces
g defaultobject
usemtl DefaultMaterial
f  1//1 2//1 3//1
f  2//2 4//2 5//2
f  4//2 2//2 6//3
f  6//3 2//2 7//4
f  7//5 2//5 1//5
f  6//6 7//6 8//6
f  6//7 8//7 9//7
f  6//7 9//7 10//8
f  11//9 6//9 10//9
f  6//9 11//9 12//9
f  6//9 12//9 4//10
f  4//10 12//9 13//11
f  14//12 4//12 13//12
f  4//12 14//12 15//13
f  4//14 15//14 5//14
f  5//14 15//14 16//15
f  17//16 3//16 2//16
f  3//16 17//16 18//17
f  16//18 2//18 5//18
f  2//18 16//18 17//18
f  18//19 1//19 3//19
f  1//19 18//19 19//19
f  20//20 8//20 7//20
f  8//21 20//21 9//21
f  9//22 20//22 21//22
f  21//23 20//23 22//23
f  1//24 20//24 7//24
f  20//24 1//24 19//25
f  21//26 10//26 9//26
f  10//26 21//26 23//26
f  10//27 23//27 11//27
f  11//27 23//27 24//28
f  12//29 14//29 13//29
f  14//29 12//29 25//29
f  25//30 12//30 11//30
f  25//30 11//30 24//30
f  20//23 18//31 17//31
f  18//31 20//23 19//32
f  22//23 23//33 21//23
f  23//33 22//23 24//34
f  24//34 22//23 25//35
f  25//35 22//23 17//31
f  25//35 17//31 14//36
f  14//36 17//31 15//37
f  15//37 17//31 16//38
f  26//39 27//39 28//39
f  27//39 26//39 29//40
f  30//41 27//41 29//41
f  27//41 30//41 31//42
f  27//43 19//43 28//43
f  19//43 27//43 31//44
f  19//45 26//45 28//45
f  26//45 19//45 18//45
f  18//46 29//46 26//46
f  29//46 18//46 30//47
f  18//31 31//35 30//35
f  31//35 18//31 19//32

