# {"id":"ID_24859","idOriginal":"ID_24859","origin":[14.330280383069471,48.23641363522281],"elevation":283.078,"wof":[{"Id":102049853,"Name":"Linz","Placetype":"county","Offset":-1},{"Id":85681677,"Name":"Oberösterreich","Placetype":"region","Offset":-1},{"Id":85898417,"Name":"Ebelsberg","Placetype":"neighbourhood","Offset":-1},{"Id":101748071,"Name":"Linz","Placetype":"locality","Offset":-1},{"Id":85632785,"Name":"Austria","Placetype":"country","Offset":-1}]}

# Attribution: City of Linz <http://geo.data.linz.gv.at/katalog/geodata/3d_geo_daten_lod2/>
# Longitude: 14.330280383069471
# Latitude: 48.23641363522281
# Elevation: 283.078

# File produced by Open Asset Import Library (http://www.assimp.sf.net)
# (assimp v3.1.0)


# 12 vertex positions
v  11.446 6.961 8.147
v  5.019 8.68 -0.735
v  6.448 8.68 8.879
v  10.068 6.944 -1.474
v  1.429 6.954 9.614
v  0 6.954 4.2581e-16
v  0 0 0
v  1.429 -5.88688e-16 9.614
v  6.448 -5.43682e-16 8.879
v  11.446 -4.9886e-16 8.147
v  10.068 9.02565e-17 -1.474
v  5.019 4.50058e-17 -0.735

# 0 UV coordinates

# 20 vertex normals
vn 0.318663 0.946684 -0.0473653
vn 0.318585 0.946713 -0.0473032
vn -0.318627 0.946696 0.0473599
vn -0.318627 0.946696 0.0473599
vn -0.989133 -9.00251e-18 0.147022
vn -0.989133 0 0.147022
vn 0.144898 -0 0.989447
vn 0.14491 -7.07112e-06 0.989445
vn 0.144898 1.05334e-05 0.989447
vn 0.144912 0 0.989444
vn 0.989898 0 -0.141781
vn 0.989898 0 -0.141781
vn -0.144898 0 -0.989447
vn -0.144835 -3.71784e-05 -0.989456
vn -0.144898 5.60449e-05 -0.989447
vn -0.144823 0 -0.989458
vn 0 -1 -6.12323e-17
vn -1.82539e-23 -1 -6.12323e-17
vn -1.70783e-23 -1 -6.12323e-17
vn 6.46992e-24 -1 -6.12323e-17

# Mesh 'defaultobject' with 20 faces
g defaultobject
usemtl DefaultMaterial
f  1//1 2//1 3//1
f  2//2 1//2 4//2
f  2//3 5//3 3//3
f  5//3 2//3 6//4
f  7//5 5//5 6//5
f  5//5 7//5 8//6
f  8//7 3//7 5//7
f  3//8 8//8 1//8
f  1//9 8//9 9//9
f  1//8 9//10 10//10
f  10//11 4//11 1//11
f  4//11 10//11 11//12
f  2//13 7//13 6//13
f  7//14 2//14 4//14
f  7//15 4//15 12//15
f  12//16 4//16 11//16
f  12//17 8//17 7//17
f  8//17 12//17 9//18
f  9//18 12//17 11//19
f  9//18 11//19 10//20

