# {"id":"ID_39854","idOriginal":"ID_39854","origin":[14.290882179551291,48.35619829760724],"elevation":327.903,"wof":[{"Id":102049853,"Name":"Linz","Placetype":"county","Offset":-1},{"Id":85632785,"Name":"Austria","Placetype":"country","Offset":-1},{"Id":85681677,"Name":"Oberösterreich","Placetype":"region","Offset":-1},{"Id":85898423,"Name":"Gründberg","Placetype":"neighbourhood","Offset":-1}]}

# Attribution: City of Linz <http://geo.data.linz.gv.at/katalog/geodata/3d_geo_daten_lod2/>
# Longitude: 14.290882179551291
# Latitude: 48.35619829760724
# Elevation: 327.903

# File produced by Open Asset Import Library (http://www.assimp.sf.net)
# (assimp v3.1.0)


# 12 vertex positions
v  6.393 2.476 4.427
v  5.257 2.226 4.816
v  6.409 2.476 4.48
v  4.631 2.476 -1.588
v  1.771 1.47 5.835
v  0 1.458 8.92767e-17
v  1.771 -3.57291e-16 5.835
v  0 0 0
v  5.257 -2.94895e-16 4.816
v  6.409 -2.74321e-16 4.48
v  4.631 9.7237e-17 -1.588
v  6.393 -2.71076e-16 4.427

# 0 UV coordinates

# 18 vertex normals
vn -0.19526 0.978979 0.0589455
vn -0.195801 0.978965 0.0573567
vn -0.195557 0.979015 0.0573348
vn -0.195549 0.979016 0.0573382
vn -0.956896 0 0.290431
vn -0.956896 0 0.290431
vn 0.280571 -0 0.959833
vn 0.280571 0 0.959833
vn 0.28 0 0.96
vn 0.957329 0 -0.289001
vn 0.959672 0.000183827 -0.281121
vn 0.959652 0 -0.28119
vn -7.42128e-20 -1 -6.12255e-17
vn -0.324366 0 -0.945932
vn -0.324366 5.79216e-17 -0.945932
vn 7.47094e-23 -1 -6.12322e-17
vn -9.22202e-24 -1 -6.12323e-17
vn 0 -1 -6.12323e-17

# Mesh 'defaultobject' with 20 faces
g defaultobject
usemtl DefaultMaterial
f  1//1 2//1 3//1
f  2//2 1//2 4//2
f  2//3 4//3 5//3
f  5//3 4//3 6//4
f  6//5 7//5 5//5
f  7//5 6//5 8//6
f  7//7 2//7 5//7
f  2//7 7//7 9//8
f  2//9 9//9 3//9
f  3//9 9//9 10//9
f  10//10 1//10 3//10
f  1//11 10//11 4//11
f  4//12 10//12 11//12
f  11//13 10//13 12//13
f  11//14 6//14 4//14
f  6//14 11//14 8//15
f  9//16 12//13 10//13
f  12//13 9//16 11//13
f  11//13 9//16 7//17
f  11//13 7//17 8//18

