# {"id":"ID_2764","idOriginal":"ID_2764","origin":[14.323422716069468,48.334064520659226],"elevation":257.399}
# Longitude: 14.323422716069468
# Latitude: 48.334064520659226
# Elevation: 257.399

# File produced by Open Asset Import Library (http://www.assimp.sf.net)
# (assimp v3.1.0)

mtllib ID_2764.obj.mtl

# 28 vertex positions
v  12.833 9.382 11.751
v  27.929 15.184 -17.57
v  6.415 15.184 5.874
v  24.053 9.385 -0.482
v  25.565 9.385 -2.13
v  27.753 9.385 -4.515
v  33.47 9.387 -10.748
v  33.47 10.224 -12.605
v  7.128 9.382 -7.773
v  21.877 9.767 -22.992
v  21.45 9.384 -23.375
v  2.069 9.384 -2.255
v  0 9.384 5.74604e-16
v  0.42 9.764 0.385
v  21.45 1.43131e-15 -23.375
v  7.128 4.75959e-16 -7.773
v  2.069 1.38079e-16 -2.255
v  0 0 0
v  0.42 -2.35745e-17 0.385
v  6.415 -3.59679e-16 5.874
v  12.833 -7.19541e-16 11.751
v  24.053 2.9514e-17 -0.482
v  25.565 1.30425e-16 -2.13
v  27.753 2.76464e-16 -4.515
v  33.47 6.58125e-16 -10.748
v  33.47 7.71834e-16 -12.605
v  27.929 1.07585e-15 -17.57
v  21.877 1.40785e-15 -22.992

# 0 UV coordinates

# 51 vertex normals
vn 0.408717 0.832029 0.37507
vn 0.408706 0.832036 0.375066
vn 0.408808 0.831984 0.375071
vn 0.40884 0.831969 0.37507
vn 0.408665 0.832041 0.3751
vn 0.408755 0.832033 0.37502
vn -0.409151 0.831632 -0.375478
vn -0.408723 0.832034 -0.375053
vn -0.408712 0.832056 -0.375016
vn -0.4087 0.832074 -0.374989
vn -0.408793 0.831942 -0.375181
vn -0.408754 0.831996 -0.375103
vn -0.73668 0 -0.676242
vn -0.73668 -0 -0.676242
vn -0.737099 -0 -0.675785
vn -0.737099 -0 -0.675785
vn -0.736842 -0 -0.676065
vn -0.736842 4.1397e-17 -0.676065
vn -0.675725 -4.51377e-17 0.737154
vn -0.675278 -3.53299e-05 0.737563
vn -0.675335 8.89949e-06 0.737511
vn -0.675724 0.000990518 0.737154
vn -0.675296 -5.52248e-05 0.737547
vn -0.675339 0 0.737507
vn 0.736962 -0 0.675935
vn 0.736962 0 0.675935
vn 0.736857 0 0.676049
vn 0.736885 -9.81916e-06 0.676018
vn 0.736857 1.42212e-05 0.676049
vn 0.736953 -3.4737e-05 0.675944
vn 0.736885 9.06529e-05 0.676018
vn 0.736953 0 0.675944
vn 1 0 0
vn 0.667337 0 -0.744756
vn 0.667292 -2.9773e-05 -0.744797
vn 0.667337 6.70372e-05 -0.744756
vn 0.667277 0 -0.74481
vn 0.667711 0 -0.744421
vn 0.667711 0 -0.744421
vn 0 -1 -6.12323e-17
vn 1.44621e-23 -1 -6.12323e-17
vn 6.01916e-23 -1 -6.12323e-17
vn -1.19569e-23 -1 -6.12323e-17
vn 0 -1 -6.12323e-17
vn 1.2136e-23 -1 -6.12323e-17
vn 8.38974e-23 -1 -6.12323e-17
vn -9.19109e-24 -1 -6.12323e-17
vn 1.84586e-23 -1 -6.12323e-17
vn -4.94027e-24 -1 -6.12323e-17
vn 4.97484e-23 -1 -6.12323e-17
vn 0 -1 -6.12323e-17

# Mesh 'defaultobject' with 52 faces
g defaultobject
usemtl DefaultMaterial
f  1//1 2//1 3//1
f  2//2 1//2 4//2
f  2//3 4//3 5//3
f  2//4 5//4 6//4
f  2//5 6//5 7//5
f  2//6 7//6 8//6
f  9//7 10//7 11//7
f  10//8 9//8 2//8
f  2//9 9//9 12//9
f  2//10 12//10 13//10
f  2//11 13//11 14//11
f  2//12 14//12 3//12
f  15//13 9//13 11//13
f  9//13 15//13 16//14
f  9//15 16//15 12//15
f  12//15 16//15 17//16
f  12//17 17//17 13//17
f  13//17 17//17 18//18
f  18//19 14//19 13//19
f  14//20 18//20 3//20
f  3//21 18//21 1//21
f  1//22 18//22 19//22
f  1//23 19//23 20//23
f  1//24 20//24 21//24
f  21//25 4//25 1//25
f  4//25 21//25 22//26
f  4//27 22//27 5//27
f  5//28 22//28 6//28
f  6//29 22//29 23//29
f  6//30 23//30 7//30
f  7//31 23//31 24//31
f  7//32 24//32 25//32
f  7//33 26//33 8//33
f  26//33 7//33 25//33
f  26//34 2//34 8//34
f  2//35 26//35 10//35
f  10//36 26//36 27//36
f  10//37 27//37 28//37
f  10//38 28//38 11//38
f  11//38 28//38 15//39
f  24//40 26//40 25//40
f  26//40 24//40 27//41
f  27//41 24//40 23//42
f  27//41 23//42 28//43
f  28//43 23//42 22//44
f  28//43 22//44 21//45
f  28//43 21//45 15//46
f  15//46 21//45 16//47
f  16//47 21//45 20//48
f  16//47 20//48 19//49
f  16//47 19//49 17//50
f  17//50 19//49 18//51

