# File produced by Open Asset Import Library (http://www.assimp.sf.net)
# (assimp v3.1.0)

mtllib ID_38035.obj.mtl

# 32 vertex positions
v  0.176 19.538 -2.481
v  3.222 19.749 -3.94
v  0.917 19.744 -4.039
v  5.984 19.754 -3.823
v  0.032 19.498 -2.178
v  6.567 19.555 -2.248
v  0.013 19.269 -0.408
v  7.068 19.559 -2.248
v  7.067 19.512 -1.881
v  0.009 19.255 -0.296
v  0 19.217 1.1767e-15
v  7.038 19.273 -0.033
v  0.388 19.219 0.005
v  0.935 19.047 1.373
v  6.16 19.044 1.693
v  6.852 19.225 0.333
v  7.068 1.3765e-16 -2.248
v  7.038 2.02067e-18 -0.033
v  7.067 1.15178e-16 -1.881
v  5.984 2.34091e-16 -3.823
v  6.567 1.3765e-16 -2.248
v  0.917 2.47317e-16 -4.039
v  3.222 2.41255e-16 -3.94
v  0.032 1.33364e-16 -2.178
v  0.176 1.51917e-16 -2.481
v  0.013 2.49828e-17 -0.408
v  0 0 0
v  0.009 1.81248e-17 -0.296
v  0.388 -3.06162e-19 0.005
v  0.935 -8.4072e-17 1.373
v  6.16 -1.03666e-16 1.693
v  6.852 -2.03904e-17 0.333

# 0 UV coordinates

# 53 vertex normals
vn -0.00762842 0.991808 0.127509
vn -0.00723087 0.991706 0.128324
vn -0.00744965 0.991824 0.127396
vn -0.00727937 0.991747 0.128001
vn -0.00727667 0.991718 0.128229
vn -0.00791959 0.992001 0.125983
vn -0.00764743 0.991872 0.127006
vn -0.00834425 0.99228 0.123737
vn -0.00757282 0.991861 0.127104
vn -0.00729038 0.991729 0.128144
vn -0.00711997 0.987518 0.157343
vn -0.0073245 0.991795 0.127627
vn -0.00726296 0.991762 0.127889
vn -0.869867 0.281381 -0.405162
vn 0.999996 0 0.00272459
vn 0.999877 -0.000243291 0.0156591
vn 0.999908 0 0.0135427
vn 2.63342e-21 1 6.12324e-17
vn 0.937814 0 -0.34714
vn 0.937813 0 -0.34714
vn 0 0 -1
vn 0.0423227 0 -0.999104
vn 0.0429104 8.23373e-05 -0.999079
vn 0.0425901 0 -0.999093
vn 3.85736e-22 -1 -6.12408e-17
vn -0.903064 0 -0.429506
vn -0.90319 -2.58133e-05 -0.429242
vn -0.903085 -0 -0.429463
vn 1.16112e-19 1 6.12877e-17
vn -0.999942 0 -0.0107338
vn -0.999363 0 -0.0356915
vn -0.999538 -3.08428e-05 -0.0303953
vn -0.999493 1.95004e-18 -0.0318466
vn -4.69988e-21 1 6.12324e-17
vn -0.928523 0 0.371274
vn -0.928523 0 0.371274
vn -0.0128855 0 0.999917
vn -0.0611295 0 0.99813
vn -0.0611295 0 0.99813
vn 0.891485 0 0.45305
vn 0.89126 -1.06187e-05 0.453493
vn 0.891485 3.99434e-05 0.45305
vn 0.891259 0 0.453494
vn 1.06252e-22 -1 -6.12323e-17
vn 0 -1 -6.12323e-17
vn 5.36568e-26 -1 -6.12323e-17
vn 0 -1 -6.12323e-17
vn -4.64508e-25 -1 -6.12323e-17
vn 3.60301e-23 -1 -6.12323e-17
vn -3.65327e-23 -1 -6.12324e-17
vn -1.6502e-23 -1 -6.12323e-17
vn -3.00962e-21 -1 -6.12323e-17
vn 4.69988e-21 -1 -6.12324e-17

# Mesh 'defaultobject' with 60 faces
g defaultobject
usemtl DefaultMaterial
f  1//1 2//1 3//1
f  2//2 1//2 4//2
f  4//3 1//3 5//3
f  4//4 5//4 6//4
f  6//5 5//5 7//5
f  6//6 7//6 8//6
f  8//7 7//7 9//7
f  9//8 7//8 10//8
f  9//9 10//9 11//9
f  9//10 11//10 12//10
f  12//11 11//11 13//11
f  12//12 13//12 14//12
f  12//13 14//13 15//13
f  12//14 15//14 16//14
f  9//15 17//15 8//15
f  17//16 9//16 12//16
f  17//17 12//17 18//17
f  17//18 18//18 19//18
f  6//19 20//19 4//19
f  20//19 6//19 21//20
f  17//21 6//21 8//21
f  6//21 17//21 21//21
f  20//22 2//22 4//22
f  2//23 20//23 3//23
f  3//24 20//24 22//24
f  22//25 20//25 23//25
f  22//26 1//26 3//26
f  1//27 22//27 5//27
f  5//28 22//28 24//28
f  24//29 22//29 25//29
f  24//30 7//30 5//30
f  7//30 24//30 26//30
f  26//31 10//31 7//31
f  10//32 26//32 11//32
f  11//33 26//33 27//33
f  27//34 26//34 28//34
f  29//35 14//35 13//35
f  14//35 29//35 30//36
f  11//37 29//37 13//37
f  29//37 11//37 27//37
f  30//38 15//38 14//38
f  15//38 30//38 31//39
f  16//40 18//40 12//40
f  18//41 16//41 15//41
f  18//42 15//42 32//42
f  32//43 15//43 31//43
f  25//44 26//44 24//44
f  26//44 25//44 27//45
f  27//45 25//44 29//46
f  29//46 25//44 22//25
f  29//46 22//25 30//47
f  30//47 22//25 23//25
f  30//47 23//25 31//48
f  31//48 23//25 20//25
f  31//48 20//25 21//49
f  31//48 21//49 32//50
f  32//50 21//49 17//47
f  32//50 17//47 18//51
f  18//51 17//47 19//52
f  27//45 28//53 26//44

