# {"id":"ID_1243","idOriginal":"ID_1243","origin":[14.336532749271374,48.28858814794749],"elevation":253.391}
# Longitude: 14.336532749271374
# Latitude: 48.28858814794749
# Elevation: 253.391

# File produced by Open Asset Import Library (http://www.assimp.sf.net)
# (assimp v3.1.0)

mtllib ID_1243.obj.mtl

# 97 vertex positions
v  8.099 2.175 14.328
v  7.711 2.175 11.043
v  7.534 2.175 11.014
v  8.357 2.175 14.286
v  11.617 2.175 10.298
v  8.357 -8.74765e-16 14.286
v  7.711 -6.76189e-16 11.043
v  11.617 -6.30571e-16 10.298
v  8.099 -8.77337e-16 14.328
v  7.534 -6.74413e-16 11.014
v  70.361 4.609 -6.144
v  50.783 3.432 3.48
v  71.431 3.432 -0.116
v  50.557 3.674 2.242
v  49.606 4.609 -2.528
v  50.455 3.674 2.26
v  47.207 3.673 2.828
v  46.431 4.609 -1.975
v  47.108 3.673 2.845
v  31.912 3.432 6.767
v  47.308 3.432 4.086
v  31.901 3.445 6.7
v  30.807 4.609 0.746
v  31.773 3.445 6.724
v  27.326 3.433 7.558
v  26.291 4.609 1.533
v  27.249 3.433 7.572
v  11.715 3.433 10.279
v  10.581 4.609 4.269
v  11.617 3.433 10.298
v  7.534 3.432 11.014
v  6.507 4.609 4.979
v  2.039 3.432 11.971
v  1.011 4.609 5.936
v  1.35 4.221 7.927
v  5.502 3.457 -0.924
v  0 3.451 2.11313e-16
v  9.571 3.462 -1.608
v  25.297 3.481 -4.249
v  29.876 3.486 -5.018
v  30.269 3.487 -5.084
v  45.488 3.473 -7.809
v  48.571 3.47 -8.36
v  69.309 3.451 -12.073
v  0 0 0
v  1.011 -3.63475e-16 5.936
v  1.35 -4.85389e-16 7.927
v  2.039 -7.33012e-16 11.971
v  31.901 -4.10257e-16 6.7
v  31.912 -4.14359e-16 6.767
v  50.557 -1.37283e-16 2.242
v  50.783 -2.13089e-16 3.48
v  11.715 -6.29407e-16 10.279
v  27.249 -4.63651e-16 7.572
v  27.326 -4.62794e-16 7.558
v  31.773 -4.11726e-16 6.724
v  47.308 -2.50195e-16 4.086
v  47.108 -1.74206e-16 2.845
v  47.207 -1.73165e-16 2.828
v  50.455 -1.38385e-16 2.26
v  71.431 7.10295e-18 -0.116
v  70.361 3.76212e-16 -6.144
v  69.309 7.39258e-16 -12.073
v  48.571 5.11902e-16 -8.36
v  45.488 4.78163e-16 -7.809
v  30.269 3.11305e-16 -5.084
v  29.876 3.07264e-16 -5.018
v  25.297 2.60176e-16 -4.249
v  9.571 9.84616e-17 -1.608
v  5.502 5.65787e-17 -0.924
v  31.912 3.331 6.767
v  47.818 2.43 7.24
v  47.308 3.332 4.086
v  32.447 2.417 9.959
v  47.818 -4.43322e-16 7.24
v  32.447 -6.09813e-16 9.959
v  2.039 3.131 11.971
v  8.099 2.221 14.328
v  7.534 3.131 11.014
v  2.593 2.236 15.228
v  2.593 -9.32446e-16 15.228
v  71.431 3.228 -0.116
v  61.678 2.596 4.382
v  71.923 2.583 2.658
v  50.783 3.226 3.48
v  51.349 2.505 6.581
v  61.742 2.503 4.783
v  51.349 -4.0297e-16 6.581
v  61.742 -2.92874e-16 4.783
v  61.678 -2.6832e-16 4.382
v  71.923 -1.62756e-16 2.658
v  11.715 3.207 10.279
v  27.817 2.234 10.808
v  27.249 3.209 7.572
v  12.28 2.217 13.567
v  27.817 -6.61799e-16 10.808
v  12.28 -8.30739e-16 13.567

# 0 UV coordinates

# 164 vertex normals
vn 0 1 0
vn 0.980732 0 -0.19536
vn 0.187355 -0 0.982292
vn 0.160675 -0 0.987007
vn -0.172725 0 -0.98497
vn -0.985776 0 0.168064
vn 1.75465e-22 -1 -6.12315e-17
vn 3.7138e-22 -1 -6.12324e-17
vn 1.34061e-23 -1 -6.12323e-17
vn 0.0323923 0.982017 0.185994
vn 0.0324161 0.982007 0.186042
vn 0.0324105 0.98201 0.186029
vn 0.0328151 0.982011 0.185948
vn 0.0322337 0.982011 0.186051
vn 0.032419 0.98199 0.186131
vn 0.0319744 0.981991 0.186203
vn 0.0323053 0.98211 0.185518
vn 0.0324661 0.981988 0.186133
vn 0.0319625 0.982158 0.18532
vn 0.0323979 0.98201 0.186029
vn 0.034798 0.982011 0.185588
vn 0.0322338 0.98202 0.186004
vn 0.0324317 0.981995 0.186101
vn 0.033794 0.981994 0.185867
vn 0.0324276 0.981999 0.186085
vn 0.0324001 0.982008 0.18604
vn 0.0359395 0.982011 0.185373
vn 0.0323743 0.982019 0.185987
vn 0.0324162 0.982014 0.186005
vn 0.0323949 0.982014 0.186008
vn 0.0323883 0.982015 0.186004
vn 0.8983 0.434034 -0.0683451
vn -0.0323186 0.982005 -0.186066
vn -0.0324089 0.981992 -0.186123
vn -0.0324916 0.981992 -0.186109
vn -0.0324295 0.981999 -0.186081
vn -0.0324364 0.981999 -0.18608
vn -0.0323949 0.982014 -0.18601
vn -0.0323134 0.982014 -0.186024
vn -0.0324289 0.981998 -0.186085
vn -0.0337145 0.981995 -0.185876
vn -0.0324007 0.982015 -0.186002
vn -0.03239 0.982019 -0.185984
vn -0.0322868 0.982019 -0.186001
vn -0.0324028 0.982008 -0.186037
vn -0.0324089 0.982008 -0.186036
vn -0.0324134 0.982006 -0.186046
vn -0.985804 -1.02808e-17 0.167899
vn -0.985804 0 0.167899
vn -0.985812 0 0.167851
vn -0.985812 0 0.167851
vn -0.985795 0 0.167956
vn -0.985795 0 0.167956
vn -0.98679 0 0.162005
vn -0.98679 0 0.162005
vn -0.983742 0 0.179586
vn -0.983742 0 0.179586
vn 0.171576 -0 0.985171
vn 0.172725 0 0.98497
vn 0.172725 0 0.98497
vn 0.190333 -0 0.98172
vn 0.171676 -0 0.985153
vn 0.178885 0 0.98387
vn 0.184329 -0.000126193 0.982865
vn 0.178881 0.00726965 0.983844
vn 0.184329 0 0.982865
vn 0.184289 0 0.982872
vn 0.171555 -0 0.985175
vn 0.169241 -0 0.985575
vn 0.172263 -8.38559e-05 0.985051
vn 0.173788 -0.00151672 0.984782
vn 0.172221 0 0.985058
vn -1.55546e-21 1 6.12228e-17
vn -2.93112e-22 1 6.12307e-17
vn 0.171575 -0 0.985171
vn 0.987262 0 -0.159105
vn 0.987262 0 -0.159105
vn 0.984609 0 -0.174773
vn 0.984621 0 -0.174705
vn 0.984621 0 -0.174705
vn -0.176241 0 -0.984347
vn -0.176241 -0 -0.984347
vn -0.175934 -0 -0.984402
vn -0.175934 -0 -0.984402
vn -0.17625 -0 -0.984345
vn -0.16562 -0 -0.98619
vn -0.16562 -0 -0.98619
vn -0.165621 -0 -0.986189
vn -0.165621 -0 -0.986189
vn -0.165619 -0 -0.98619
vn -0.165619 -0 -0.98619
vn -0.165774 -0 -0.986164
vn -0.16562 -0 -0.98619
vn -0.16562 6.03867e-17 -0.98619
vn -2.50381e-24 -1 -6.12323e-17
vn -2.46271e-24 -1 -6.12323e-17
vn 1.87406e-24 -1 -6.12323e-17
vn -5.01798e-25 -1 -6.12323e-17
vn 3.76122e-23 -1 -6.12324e-17
vn -3.79353e-22 -1 -6.12322e-17
vn 1.19215e-23 -1 -6.12323e-17
vn 6.35648e-25 -1 -6.12323e-17
vn 7.90723e-22 -1 -6.12344e-17
vn 0 -1 -6.12323e-17
vn -2.26646e-24 -1 -6.12323e-17
vn -4.1773e-20 -1 -6.12236e-17
vn -1.6059e-23 -1 -6.12323e-17
vn 0 -1 -6.12323e-17
vn -5.42979e-22 -1 -6.1232e-17
vn 0 -1 -6.12323e-17
vn -1.10848e-24 -1 -6.12323e-17
vn 0 -1 -6.12313e-17
vn 0 -1 -6.12323e-17
vn -1.0623e-24 -1 -6.12323e-17
vn -7.83588e-25 -1 -6.12323e-17
vn 0 -1 -6.11716e-17
vn -2.99655e-19 -1 -6.11746e-17
vn 0.0465535 0.962377 0.267699
vn 0.0465507 0.96236 0.267761
vn 0.174187 0 0.984713
vn 0.174187 0 0.984713
vn 0.987177 0 -0.159627
vn 0.987177 0 -0.159627
vn -0.171555 0 -0.985175
vn -0.171555 -0 -0.985175
vn -0.986243 0 0.1653
vn -2.09583e-24 -1 -6.12324e-17
vn 0.0448302 0.965262 0.257411
vn 0.04474 0.965209 0.257623
vn -0.98584 0 0.167687
vn 0.161317 -0 0.986903
vn 0.161317 0 0.986903
vn 0.985776 0 -0.168064
vn 0.985776 0 -0.168064
vn -0.171576 0 -0.985171
vn 0.0382361 0.974779 0.21987
vn 0.0381755 0.97481 0.219743
vn 0.0381813 0.974824 0.219683
vn 0.0382414 0.974758 0.219963
vn -0.983748 0 0.179555
vn -0.983748 0 0.179555
vn 0.170469 -0 0.985363
vn 0.170469 0 0.985363
vn 0.165944 -0 0.986135
vn 0.165944 0 0.986135
vn 0.987502 0 -0.157604
vn 0.987502 0 -0.157604
vn 0.984633 0 -0.174635
vn 0.984633 0 -0.174635
vn -0.171575 0 -0.985171
vn -0.171575 -0 -0.985171
vn 4.23296e-24 -1 -6.12323e-17
vn -8.49844e-24 -1 -6.12324e-17
vn 0.0487217 0.958677 0.280295
vn 0.0487224 0.958681 0.280281
vn 0.174841 0 0.984597
vn 0.174841 0 0.984597
vn 0.984942 0 -0.172882
vn 0.984942 0 -0.172882
vn -0.171676 0 -0.985153
vn -0.171676 -0 -0.985154
vn -0.985555 0 0.169355
vn -0.985555 0 0.169355
vn -3.51962e-24 -1 -6.12323e-17

# Mesh 'defaultobject' with 192 faces
g defaultobject
usemtl DefaultMaterial
f  1//1 2//1 3//1
f  2//1 1//1 4//1
f  5//1 3//1 2//1
f  6//2 2//2 4//2
f  2//2 6//2 7//2
f  7//3 5//3 2//3
f  5//3 7//3 8//3
f  9//4 4//4 1//4
f  4//4 9//4 6//4
f  8//5 3//5 5//5
f  3//5 8//5 10//5
f  10//6 1//6 3//6
f  1//6 10//6 9//6
f  8//7 7//7 10//7
f  9//8 10//7 7//7
f  6//9 9//8 7//7
f  11//10 12//10 13//10
f  12//11 11//11 14//11
f  14//12 11//12 15//12
f  14//13 15//13 16//13
f  16//14 15//14 17//14
f  17//15 15//15 18//15
f  17//16 18//16 19//16
f  19//17 20//17 21//17
f  20//18 19//18 18//18
f  20//19 18//19 22//19
f  22//20 18//20 23//20
f  22//21 23//21 24//21
f  24//22 23//22 25//22
f  25//23 23//23 26//23
f  25//24 26//24 27//24
f  27//25 26//25 28//25
f  28//26 26//26 29//26
f  28//27 29//27 30//27
f  30//28 29//28 31//28
f  31//29 29//29 32//29
f  31//30 32//30 33//30
f  33//30 32//30 34//31
f  33//32 34//32 35//32
f  34//33 36//33 37//33
f  36//34 34//34 32//34
f  36//35 32//35 38//35
f  38//36 32//36 29//36
f  38//36 29//36 39//37
f  39//38 29//38 26//38
f  39//39 26//39 40//39
f  40//40 26//40 23//40
f  40//41 23//41 41//41
f  41//42 23//42 42//42
f  42//43 23//43 18//43
f  42//44 18//44 43//44
f  43//45 18//45 15//45
f  43//45 15//45 44//46
f  44//47 15//47 11//47
f  45//48 34//48 37//48
f  34//48 45//48 46//49
f  34//50 46//50 35//50
f  35//50 46//50 47//51
f  35//52 47//52 33//52
f  33//52 47//52 48//53
f  49//54 20//54 22//54
f  20//54 49//54 50//55
f  51//56 12//56 14//56
f  12//56 51//56 52//57
f  48//58 31//58 33//58
f  31//58 48//58 10//58
f  31//59 10//59 30//59
f  30//59 10//59 8//60
f  8//61 28//61 30//61
f  28//61 8//61 53//61
f  53//62 27//62 28//62
f  27//62 53//62 54//62
f  27//63 54//63 25//63
f  25//64 54//64 24//64
f  24//65 54//65 55//65
f  24//66 55//66 56//66
f  24//67 56//67 22//67
f  22//67 56//67 49//67
f  50//68 21//68 20//68
f  21//68 50//68 57//68
f  58//69 17//69 19//69
f  17//70 58//70 16//70
f  16//71 58//71 14//71
f  14//72 58//72 51//72
f  51//73 58//73 59//73
f  51//73 59//73 60//74
f  52//75 13//75 12//75
f  13//75 52//75 61//75
f  21//76 58//76 19//76
f  58//76 21//76 57//77
f  61//78 11//78 13//78
f  11//78 61//78 62//78
f  11//79 62//79 44//79
f  44//79 62//79 63//80
f  63//81 43//81 44//81
f  43//81 63//81 64//82
f  43//83 64//83 42//83
f  42//83 64//83 65//84
f  42//85 65//85 41//85
f  41//85 65//85 66//85
f  41//86 66//86 40//86
f  40//86 66//86 67//87
f  40//86 67//87 39//88
f  39//88 67//87 68//89
f  39//88 68//89 38//90
f  38//90 68//89 69//91
f  38//92 69//92 36//92
f  36//92 69//92 70//92
f  36//93 70//93 37//93
f  37//93 70//93 45//94
f  62//95 64//95 63//95
f  64//95 62//95 61//96
f  64//95 61//96 51//97
f  51//97 61//96 52//98
f  51//97 65//99 64//95
f  65//99 51//97 60//100
f  65//99 60//100 59//101
f  65//99 59//101 66//102
f  66//102 59//101 58//103
f  66//102 58//103 57//104
f  66//102 57//104 50//105
f  66//102 50//105 49//106
f  66//102 49//106 67//107
f  49//106 68//108 67//107
f  68//108 49//106 56//109
f  68//108 56//109 55//110
f  68//108 55//110 69//111
f  69//111 55//110 54//112
f  69//111 54//112 53//113
f  69//111 53//113 70//114
f  70//114 53//113 8//7
f  70//114 8//7 10//7
f  70//114 10//7 45//115
f  45//115 10//7 48//110
f  45//115 48//110 46//116
f  46//116 48//110 47//117
f  71//118 72//118 73//118
f  72//119 71//119 74//119
f  74//120 75//120 72//120
f  75//120 74//120 76//121
f  72//122 57//122 73//122
f  57//122 72//122 75//123
f  57//124 71//124 73//124
f  71//124 57//124 50//125
f  50//126 74//126 71//126
f  74//126 50//126 76//126
f  50//105 75//127 76//127
f  75//127 50//105 57//104
f  77//128 78//128 79//128
f  78//129 77//129 80//129
f  48//130 80//130 77//130
f  80//130 48//130 81//130
f  81//131 78//131 80//131
f  78//131 81//131 9//132
f  78//133 10//133 79//133
f  10//133 78//133 9//134
f  10//135 77//135 79//135
f  77//135 10//135 48//135
f  48//110 9//8 81//113
f  9//8 48//110 10//7
f  82//136 83//136 84//136
f  83//137 82//137 85//137
f  83//138 85//138 86//138
f  86//139 87//139 83//139
f  52//140 86//140 85//140
f  86//140 52//140 88//141
f  88//142 87//142 86//142
f  87//142 88//142 89//143
f  90//144 84//144 83//144
f  84//144 90//144 91//145
f  87//146 90//146 83//146
f  90//146 87//146 89//147
f  84//148 61//148 82//148
f  61//148 84//148 91//149
f  61//150 85//150 82//150
f  85//150 61//150 52//151
f  61//96 88//108 52//98
f  88//108 61//96 90//152
f  90//152 61//96 91//113
f  89//153 88//108 90//152
f  92//154 93//154 94//154
f  93//155 92//155 95//155
f  95//156 96//156 93//156
f  96//156 95//156 97//157
f  93//158 54//158 94//158
f  54//158 93//158 96//159
f  54//160 92//160 94//160
f  92//160 54//160 53//161
f  53//162 95//162 92//162
f  95//162 53//162 97//163
f  53//113 96//164 97//164
f  96//164 53//113 54//112

