# {"id":"ID_14933","idOriginal":"ID_14933","origin":[14.334042501453105,48.34303312539849],"elevation":333.405,"wof":[{"Id":85681677,"Name":"Oberösterreich","Placetype":"region","Offset":-1},{"Id":85898427,"Name":"Katzbach","Placetype":"neighbourhood","Offset":-1},{"Id":102049853,"Name":"Linz","Placetype":"county","Offset":-1},{"Id":85632785,"Name":"Austria","Placetype":"country","Offset":-1}]}

# Attribution: City of Linz <http://geo.data.linz.gv.at/katalog/geodata/3d_geo_daten_lod2/>
# Longitude: 14.334042501453105
# Latitude: 48.34303312539849
# Elevation: 333.405

# File produced by Open Asset Import Library (http://www.assimp.sf.net)
# (assimp v3.1.0)


# 22 vertex positions
v  0.099 7.42 0.995
v  7.23 6.648 -0.825
v  0 6.634 4.06215e-16
v  14.326 6.661 -1.635
v  15.15 11.834 4.897
v  0.776 11.834 6.573
v  15.97 6.692 11.391
v  6.903 6.844 12.252
v  6.947 6.649 12.497
v  1.149 9.397 9.652
v  1.528 6.887 12.824
v  1.528 -7.85244e-16 12.824
v  6.903 -7.50219e-16 12.252
v  15.97 -6.97498e-16 11.391
v  6.947 -7.65221e-16 12.497
v  0.099 -6.09262e-17 0.995
v  0 0 0
v  0.776 -4.0248e-16 6.573
v  1.149 -5.91015e-16 9.652
v  15.15 -2.99855e-16 4.897
v  14.326 1.00115e-16 -1.635
v  7.23 5.05167e-17 -0.825

# 0 UV coordinates

# 37 vertex normals
vn -0.071572 0.78614 -0.61389
vn -0.0714873 0.78634 -0.613644
vn -0.0714981 0.786303 -0.613691
vn -0.0715446 0.786375 -0.613593
vn 0.0714233 0.786637 0.613271
vn 0.0714633 0.786252 0.61376
vn 0.0715468 0.78636 0.613612
vn 0.0715953 0.786319 0.613659
vn 0.0715788 0.786303 0.61368
vn 0.105821 -0 0.994385
vn 0.105821 0 0.994385
vn 0.121665 0 0.992571
vn 0.121665 0 0.992571
vn -0.984253 0 0.176765
vn -0.984253 0 0.176765
vn -0.995087 0 0.0990086
vn -0.995087 0 0.0990086
vn -0.992715 0 0.120486
vn -0.992735 7.71743e-05 0.120324
vn -0.992715 -7.36598e-05 0.120486
vn -0.992897 0.000428921 0.118974
vn -0.992742 -0.000759118 0.120264
vn -0.992938 0 0.118639
vn 0.992122 0 -0.125276
vn 0.992132 4.64497e-05 -0.125192
vn 0.992122 -0.000119056 -0.125276
vn 0.992137 0 -0.125156
vn -0.113412 0 -0.993548
vn -0.113412 -0 -0.993548
vn -0.113372 -0 -0.993553
vn -0.113372 6.08376e-17 -0.993553
vn 6.59021e-24 -1 -6.12323e-17
vn 0 -1 -6.12323e-17
vn 1.81431e-24 -1 -6.12323e-17
vn 1.30212e-24 -1 -6.12323e-17
vn -2.35364e-24 -1 -6.12323e-17
vn -3.06607e-24 -1 -6.12323e-17

# Mesh 'defaultobject' with 40 faces
g defaultobject
usemtl DefaultMaterial
f  1//1 2//1 3//1
f  2//2 1//2 4//2
f  4//3 1//3 5//3
f  5//4 1//4 6//4
f  7//5 8//5 9//5
f  8//6 7//6 6//6
f  6//7 7//7 5//7
f  8//8 10//8 11//8
f  10//9 8//9 6//9
f  12//10 8//10 11//10
f  8//10 12//10 13//11
f  9//12 14//12 7//12
f  14//12 9//12 15//13
f  13//14 9//14 8//14
f  9//14 13//14 15//15
f  3//16 16//16 1//16
f  16//16 3//16 17//17
f  16//18 6//18 1//18
f  6//19 16//19 10//19
f  10//20 16//20 18//20
f  10//21 18//21 11//21
f  11//22 18//22 19//22
f  11//23 19//23 12//23
f  14//24 5//24 7//24
f  5//25 14//25 4//25
f  4//26 14//26 20//26
f  4//27 20//27 21//27
f  21//28 2//28 4//28
f  2//28 21//28 22//29
f  2//30 22//30 3//30
f  3//30 22//30 17//31
f  15//32 13//32 14//32
f  20//33 22//33 21//33
f  22//33 20//33 17//33
f  17//33 20//33 16//34
f  16//34 20//33 18//35
f  18//35 20//33 14//32
f  18//35 14//32 19//36
f  19//36 14//32 13//32
f  19//36 13//32 12//37

