# {"id":"ID_42870","idOriginal":"ID_42870","origin":[14.36569277578822,48.25338583077804],"elevation":250.454,"wof":[{"Id":85681677,"Name":"Oberösterreich","Placetype":"region","Offset":-1},{"Id":85898441,"Name":"Posch","Placetype":"neighbourhood","Offset":-1},{"Id":102049853,"Name":"Linz","Placetype":"county","Offset":-1},{"Id":85632785,"Name":"Austria","Placetype":"country","Offset":-1},{"Id":101748071,"Name":"Linz","Placetype":"locality","Offset":-1}]}

# Attribution: City of Linz <http://geo.data.linz.gv.at/katalog/geodata/3d_geo_daten_lod2/>
# Longitude: 14.36569277578822
# Latitude: 48.25338583077804
# Elevation: 250.454

# File produced by Open Asset Import Library (http://www.assimp.sf.net)
# (assimp v3.1.0)


# 8 vertex positions
v  0.675 4.509 -4.516
v  5.105 3.634 0.762
v  5.806 4.509 -3.931
v  0 3.667 2.24539e-16
v  5.806 2.40704e-16 -3.931
v  0.675 2.76525e-16 -4.516
v  0 0 0
v  5.105 -4.6659e-17 0.762

# 0 UV coordinates

# 11 vertex normals
vn -0.0205545 0.9834 0.180283
vn -0.0205528 0.9834 0.180281
vn 0.113279 0 -0.993563
vn -0.989013 0 -0.147826
vn -0.989013 9.05176e-18 -0.147826
vn -0.14763 -6.05614e-17 0.989043
vn -0.14763 0 0.989043
vn 0.989027 0 0.147732
vn 0.989027 0 0.147732
vn -4.32339e-24 -1 -6.12323e-17
vn 4.49239e-24 -1 -6.12323e-17

# Mesh 'defaultobject' with 12 faces
g defaultobject
usemtl DefaultMaterial
f  1//1 2//1 3//1
f  2//1 1//1 4//2
f  5//3 1//3 3//3
f  1//3 5//3 6//3
f  6//4 4//4 1//4
f  4//4 6//4 7//5
f  7//6 2//6 4//6
f  2//6 7//6 8//7
f  2//8 5//8 3//8
f  5//8 2//8 8//9
f  8//10 6//10 5//10
f  6//10 8//10 7//11

