# {"id":"ID_34646","idOriginal":"ID_34646","origin":[14.289925864119027,48.285398011424014],"elevation":263.744,"wof":[{"Id":85681677,"Name":"Oberösterreich","Placetype":"region","Offset":-1},{"Id":85898459,"Name":"Wegscheid","Placetype":"neighbourhood","Offset":-1},{"Id":102049853,"Name":"Linz","Placetype":"county","Offset":-1},{"Id":101748071,"Name":"Linz","Placetype":"locality","Offset":-1},{"Id":85632785,"Name":"Austria","Placetype":"country","Offset":-1}]}

# Attribution: City of Linz <http://geo.data.linz.gv.at/katalog/geodata/3d_geo_daten_lod2/>
# Longitude: 14.289925864119027
# Latitude: 48.285398011424014
# Elevation: 263.744

# File produced by Open Asset Import Library (http://www.assimp.sf.net)
# (assimp v3.1.0)


# 15 vertex positions
v  7.368 4.763 -1.852
v  2.662 4.135 3.921
v  10.635 4.135 -1.114
v  1.265 4.763 2.002
v  2.529 4.135 4.005
v  8.801 4.135 -4.018
v  8.106 4.135 -5.119
v  0 4.135 2.53196e-16
v  8.106 3.13448e-16 -5.119
v  0 0 0
v  2.529 -2.45236e-16 4.005
v  1.265 -1.22587e-16 2.002
v  10.635 6.82128e-17 -1.114
v  2.662 -2.40092e-16 3.921
v  8.801 2.46032e-16 -4.018

# 0 UV coordinates

# 23 vertex normals
vn 0.136851 0.966597 0.216706
vn 0.136846 0.966599 0.216702
vn 0.136859 0.966599 0.216692
vn 0.216721 0.966591 -0.136869
vn 0.21677 0.966585 -0.136835
vn -0.136864 0.966591 -0.216726
vn -0.136856 0.966594 -0.216719
vn -0.53395 0 -0.845516
vn -0.53395 5.17729e-17 -0.845516
vn -0.845379 -3.27083e-17 0.534168
vn -0.845653 0.000255835 0.533733
vn -0.845534 0 0.533921
vn 0 -1 -6.12316e-17
vn 0.533994 -0 0.845488
vn 0.533949 2.01169e-06 0.845517
vn 0.53395 0 0.845516
vn 1.32169e-18 -1 -6.07979e-17
vn 0.845617 0 -0.533791
vn 0.845503 6.72334e-05 -0.533971
vn 0.845617 -0.000177359 -0.533791
vn 0.845503 0 -0.533971
vn 0 -1 -6.12323e-17
vn -3.44977e-23 -1 -6.12324e-17

# Mesh 'defaultobject' with 26 faces
g defaultobject
usemtl DefaultMaterial
f  1//1 2//1 3//1
f  2//1 1//1 4//2
f  2//3 4//3 5//3
f  6//4 1//4 3//4
f  1//5 6//5 7//5
f  4//6 7//6 8//6
f  7//7 4//7 1//7
f  9//8 8//8 7//8
f  8//8 9//8 10//9
f  10//10 4//10 8//10
f  4//11 10//11 5//11
f  5//12 10//12 11//12
f  11//13 10//13 12//13
f  11//14 2//14 5//14
f  2//15 11//15 3//15
f  3//15 11//15 13//16
f  13//17 11//13 14//17
f  6//18 9//18 7//18
f  9//19 6//19 3//19
f  9//20 3//20 15//20
f  15//21 3//21 13//21
f  9//22 12//13 10//13
f  12//13 9//22 11//13
f  11//13 9//22 14//17
f  14//17 9//22 15//23
f  14//17 15//23 13//17

