# {"id":"ID_49900","idOriginal":"ID_49900","origin":[14.29805700846146,48.33815728342132],"elevation":272.403,"wof":[{"Id":102049853,"Name":"Linz","Placetype":"county","Offset":-1},{"Id":101748071,"Name":"Linz","Placetype":"locality","Offset":-1},{"Id":85898425,"Name":"Harbach","Placetype":"neighbourhood","Offset":-1},{"Id":85681677,"Name":"Oberösterreich","Placetype":"region","Offset":-1},{"Id":85632785,"Name":"Austria","Placetype":"country","Offset":-1}]}

# Attribution: City of Linz <http://geo.data.linz.gv.at/katalog/geodata/3d_geo_daten_lod2/>
# Longitude: 14.29805700846146
# Latitude: 48.33815728342132
# Elevation: 272.403

# File produced by Open Asset Import Library (http://www.assimp.sf.net)
# (assimp v3.1.0)


# 14 vertex positions
v  2.272 2.598 -2.303
v  3.447 2.736 -1.499
v  3.428 2.598 -3.475
v  0 2.598 1.59082e-16
v  1.975 2.736 -0.01
v  1.984 2.597 1.974
v  5.433 2.598 -1.517
v  4.628 2.598 -2.303
v  3.428 2.12782e-16 -3.475
v  4.628 1.41018e-16 -2.303
v  5.433 9.28895e-17 -1.517
v  2.272 1.41018e-16 -2.303
v  0 0 0
v  1.984 -1.20873e-16 1.974

# 0 UV coordinates

# 23 vertex normals
vn -0.0697834 0.995185 -0.0688308
vn -0.069778 0.995185 -0.0688387
vn -0.069885 0.99516 -0.0690872
vn -0.0691794 0.995143 0.070034
vn 0.0697773 0.995158 0.0692229
vn 0.0702013 0.995116 0.0693998
vn 0.0685154 0.995179 -0.0701716
vn 0.0685232 0.995179 -0.0701603
vn 0.698711 0 -0.715404
vn 0.698613 8.8745e-05 -0.7155
vn 0.698711 -5.95251e-05 -0.715404
vn 0.698613 0 -0.7155
vn -0.71195 0 -0.70223
vn -0.711882 6.14148e-05 -0.702299
vn -0.71195 -0.000120748 -0.70223
vn -0.711882 4.30034e-17 -0.702299
vn -0.705318 -4.34071e-17 0.708891
vn -0.705318 0 0.708891
vn 0.711373 0 0.702815
vn 0.711373 0 0.702815
vn -5.84704e-24 -1 -6.12323e-17
vn 0 -1 -6.12323e-17
vn 0 -1 -6.12323e-17

# Mesh 'defaultobject' with 24 faces
g defaultobject
usemtl DefaultMaterial
f  1//1 2//1 3//1
f  2//1 1//1 4//2
f  2//3 4//3 5//3
f  5//4 4//4 6//4
f  2//5 6//5 7//5
f  6//6 2//6 5//6
f  8//7 2//7 7//7
f  2//8 8//8 3//8
f  8//9 9//9 3//9
f  9//10 8//10 7//10
f  9//11 7//11 10//11
f  10//12 7//12 11//12
f  9//13 1//13 3//13
f  1//14 9//14 4//14
f  4//15 9//15 12//15
f  4//16 12//16 13//16
f  13//17 6//17 4//17
f  6//17 13//17 14//18
f  6//19 11//19 7//19
f  11//19 6//19 14//20
f  12//21 14//21 13//21
f  14//21 12//21 11//22
f  11//22 12//21 10//23
f  10//23 12//21 9//22

