# {"id":"ID_41815","idOriginal":"ID_41815","origin":[14.28863194256575,48.27841975811475],"elevation":272.38,"wof":[{"Id":102049853,"Name":"Linz","Placetype":"county","Offset":-1},{"Id":85632785,"Name":"Austria","Placetype":"country","Offset":-1},{"Id":85681677,"Name":"Oberösterreich","Placetype":"region","Offset":-1},{"Id":101748071,"Name":"Linz","Placetype":"locality","Offset":-1},{"Id":85898459,"Name":"Wegscheid","Placetype":"neighbourhood","Offset":-1}]}

# Attribution: City of Linz <http://geo.data.linz.gv.at/katalog/geodata/3d_geo_daten_lod2/>
# Longitude: 14.28863194256575
# Latitude: 48.27841975811475
# Elevation: 272.38

# File produced by Open Asset Import Library (http://www.assimp.sf.net)
# (assimp v3.1.0)


# 15 vertex positions
v  0 3.88 2.37581e-16
v  0.914 4.244 3.461
v  3.532 3.88 -0.921
v  0.847 4.244 3.479
v  3.55 3.879 -0.926
v  4.621 3.882 6.18
v  1.695 3.88 6.964
v  5.208 3.882 6.023
v  0 0 0
v  0.847 -2.13027e-16 3.479
v  1.695 -4.26422e-16 6.964
v  5.208 -3.68802e-16 6.023
v  4.621 -3.78416e-16 6.18
v  3.55 5.67011e-17 -0.926
v  3.532 5.6395e-17 -0.921

# 0 UV coordinates

# 25 vertex normals
vn -0.025526 0.99487 -0.0978913
vn -0.0262481 0.99487 -0.0977006
vn 0.0388576 0.997463 -0.0596411
vn 0.0255003 0.994888 0.0977087
vn 0.0260472 0.994948 0.0969527
vn 0.0259619 0.994939 0.0970678
vn 0.0980936 0.994892 -0.0238342
vn -0.971619 -1.44846e-17 0.236551
vn -0.971646 9.69963e-05 0.236439
vn -0.971619 -0.000115358 0.236551
vn -0.971649 0 0.23643
vn 0.258813 -0 0.965927
vn 0.25838 0.000350199 0.966043
vn 0.258741 0 0.965947
vn -6.00813e-21 -1 -6.12589e-17
vn 0.972696 0 -0.232081
vn 0.972696 0 -0.232081
vn -0.252322 0 -0.967643
vn -0.266886 0.0142096 -0.963623
vn -0.252322 -7.64151e-05 -0.967643
vn -0.267645 0 -0.963518
vn 4.87386e-24 -1 -6.12324e-17
vn -8.13382e-24 -1 -6.12323e-17
vn 0 -1 -6.12323e-17
vn 0 -1 -6.12325e-17

# Mesh 'defaultobject' with 26 faces
g defaultobject
usemtl DefaultMaterial
f  1//1 2//1 3//1
f  2//2 1//2 4//2
f  2//3 5//3 3//3
f  6//4 4//4 7//4
f  4//5 6//5 2//5
f  2//6 6//6 8//6
f  2//7 8//7 5//7
f  9//8 4//8 1//8
f  4//9 9//9 7//9
f  7//10 9//10 10//10
f  7//11 10//11 11//11
f  11//12 6//12 7//12
f  6//13 11//13 8//13
f  8//14 11//14 12//14
f  12//15 11//15 13//15
f  12//16 5//16 8//16
f  5//16 12//16 14//17
f  3//18 9//18 1//18
f  9//19 3//19 5//19
f  9//20 5//20 15//20
f  15//21 5//21 14//21
f  10//22 13//15 11//15
f  13//15 10//22 12//15
f  12//15 10//22 9//23
f  12//15 9//23 15//24
f  12//15 15//24 14//25

