# {"id":"ID_490","idOriginal":"ID_490","origin":[14.285479865142209,48.25939772801335],"elevation":264.26,"wof":[{"Id":102049853,"Name":"Linz","Placetype":"county","Offset":-1},{"Id":85632785,"Name":"Austria","Placetype":"country","Offset":-1},{"Id":101748071,"Name":"Linz","Placetype":"locality","Offset":-1},{"Id":85681677,"Name":"Oberösterreich","Placetype":"region","Offset":-1},{"Id":85898447,"Name":"Scharlinz","Placetype":"neighbourhood","Offset":-1}]}

# Attribution: City of Linz <http://geo.data.linz.gv.at/katalog/geodata/3d_geo_daten_lod2/>
# Longitude: 14.285479865142209
# Latitude: 48.25939772801335
# Elevation: 264.26

# File produced by Open Asset Import Library (http://www.assimp.sf.net)
# (assimp v3.1.0)


# 106 vertex positions
v  0.665 4.025 -1.186
v  5.913 4.628 -4.819
v  3.47 4.023 -6.19
v  3.056 4.628 0.257
v  3.056 -1.57367e-17 0.257
v  0.665 7.26216e-17 -1.186
v  5.913 2.95079e-16 -4.819
v  3.47 3.79028e-16 -6.19
v  75.639 6.758 30.993
v  85.282 6.758 32.5
v  77.569 6.758 27.816
v  84.955 6.758 36.661
v  84.955 -2.24484e-15 36.661
v  85.282 -1.99005e-15 32.5
v  77.569 -1.70324e-15 27.816
v  75.639 -1.89777e-15 30.993
v  0 4.003 2.45113e-16
v  3.056 4.003 0.257
v  0.665 4.003 -1.186
v  2.429 4.003 1.369
v  2.429 -8.38271e-17 1.369
v  0 0 0
v  67.758 11.23 43.968
v  24.661 11.23 13.289
v  22.574 11.23 16.725
v  28.456 11.23 7.042
v  30.564 11.23 3.572
v  32.425 11.23 0.508
v  32.51 11.23 0.56
v  32.559 11.23 0.479
v  75.639 11.23 30.993
v  77.569 11.23 27.816
v  73.531 11.23 34.464
v  69.84 11.23 40.542
v  73.531 -2.11031e-15 34.464
v  69.84 -2.48248e-15 40.542
v  67.758 -2.69226e-15 43.968
v  32.559 -2.93303e-17 0.479
v  32.51 -3.42901e-17 0.56
v  32.425 -3.1106e-17 0.508
v  30.564 -2.18722e-16 3.572
v  28.456 -4.31198e-16 7.042
v  24.661 -8.13717e-16 13.289
v  22.574 -1.02411e-15 16.725
v  84.672 11.187 40.28
v  73.531 11.187 34.464
v  84.6 11.187 41.197
v  84.909 11.187 37.25
v  84.955 11.187 36.661
v  75.639 11.187 30.993
v  84.6 -2.52259e-15 41.197
v  84.672 -2.46644e-15 40.28
v  84.909 -2.2809e-15 37.25
v  15.66 6.752 -9.68
v  30.564 6.752 3.572
v  32.425 6.752 0.508
v  13.802 6.752 -6.625
v  13.802 4.05664e-16 -6.625
v  15.66 5.92729e-16 -9.68
v  32.559 6.886 0.479
v  79.81 6.886 24.127
v  34.8 6.886 -3.21
v  77.569 6.886 27.816
v  78.27 6.886 26.663
v  79.81 -1.47735e-15 24.127
v  78.27 -1.63264e-15 26.663
v  34.8 1.96556e-16 -3.21
v  85.66 7.272 27.68
v  79.81 7.272 24.127
v  77.569 6.711 27.816
v  85.282 6.711 32.5
v  85.66 -1.69491e-15 27.68
v  3.056 11.187 0.257
v  6 11.187 -4.77
v  5.913 11.187 -4.819
v  6.776 11.187 -6.147
v  13.75 11.187 -6.54
v  8.72 11.187 -9.6
v  2.429 11.187 1.369
v  2.52 11.187 1.42
v  1.17 11.187 3.82
v  30.564 11.187 3.572
v  13.802 11.187 -6.625
v  28.456 11.187 7.042
v  24.661 11.187 13.289
v  22.574 11.187 16.725
v  13.75 4.00459e-16 -6.54
v  8.72 5.8783e-16 -9.6
v  6 2.92078e-16 -4.77
v  6.776 3.76395e-16 -6.147
v  2.52 -8.69499e-17 1.42
v  1.17 -2.33908e-16 3.82
v  83.81 4.003 51.27
v  83.982 4.003 49.073
v  70 4.003 42.92
v  69.84 4.003 40.542
v  68.94 4.003 44.68
v  67.758 4.003 43.968
v  68.94 -2.73586e-15 44.68
v  70 -2.62809e-15 42.92
v  83.81 -3.13938e-15 51.27
v  83.982 -3.00485e-15 49.073
v  69.84 6.645 40.542
v  84.6 6.645 41.197
v  73.531 6.645 34.464
v  83.982 6.645 49.073

# 0 UV coordinates

# 127 vertex normals
vn -0.183973 0.977465 -0.103517
vn -0.184006 0.977454 -0.103567
vn -0.516706 0 0.856163
vn -0.516706 0 0.856163
vn 0.871447 -0 0.490489
vn 0.489397 0 -0.872061
vn 0.489397 0 -0.872061
vn -0.872301 0 -0.48897
vn -0.872301 0 -0.48897
vn -1.62797e-24 -1 -6.12323e-17
vn 3.29422e-24 -1 -6.12323e-17
vn -0 1 0
vn 0.996926 -0 0.0783444
vn 0.519068 0 -0.854733
vn -0.854655 0 -0.519196
vn -0.519772 0 0.854305
vn 1.0427e-23 -1 -6.12323e-17
vn 1.10474e-23 -1 -6.12323e-17
vn 0.871073 -0 0.491154
vn 0.516706 0 -0.856163
vn -0.872243 0 -0.489074
vn -0.872243 2.99471e-17 -0.489074
vn -0.490993 -5.33434e-17 0.871163
vn -0.490993 0 0.871163
vn 7.42792e-24 -1 -6.12323e-17
vn -3.49097e-24 -1 -6.12323e-17
vn 0.854655 0 0.519196
vn 0.854721 4.19071e-05 0.519088
vn 0.854738 6.49669e-05 0.519059
vn 0.854655 -0.000147031 0.519196
vn 0.854575 -0.000301473 0.519328
vn 0.854721 7.95064e-05 0.519088
vn 0.854738 0.000112498 0.519059
vn 0.854575 0 0.519328
vn 0.51911 0 -0.854708
vn 0.52186 0 -0.853031
vn -0.855624 0 -0.517598
vn -0.854699 0 -0.519124
vn -0.854655 2.72433e-05 -0.519197
vn -0.854655 2.66522e-05 -0.519196
vn -0.854693 -7.01318e-05 -0.519134
vn -0.854699 -9.02073e-05 -0.519124
vn -0.854655 2.694e-05 -0.519197
vn -0.854655 2.60016e-05 -0.519196
vn -0.854693 -0 -0.519134
vn -0.516342 0 0.856382
vn -9.98349e-24 -1 -6.12323e-17
vn 2.60288e-23 -1 -6.12324e-17
vn 8.78532e-24 -1 -6.12323e-17
vn 6.773e-24 -1 -6.12323e-17
vn 0 -1 -6.12323e-17
vn -1.79133e-23 -1 -6.12323e-17
vn 9.84589e-21 -1 -6.12415e-17
vn 0 -1 -6.12322e-17
vn 0.996932 -0 0.0782745
vn 0.996955 -2.43278e-05 0.0779795
vn 0.996964 -6.31604e-05 0.0778701
vn 0.996951 0 0.0780249
vn 1.11174e-18 1 6.13162e-17
vn 1.54489e-18 1 6.13549e-17
vn 0.519772 0 -0.854305
vn -0.854721 0 -0.519088
vn -0.519685 0 0.854358
vn -6.03882e-24 -1 -6.12324e-17
vn -1.52216e-18 -1 -6.13461e-17
vn -1.05606e-18 -1 -6.13155e-17
vn -0.519725 0 0.854333
vn 0.854699 -0 0.519124
vn 0.519323 0 -0.854578
vn -0.854393 0 -0.519627
vn -6.02139e-24 -1 -6.12323e-17
vn -6.03761e-24 -1 -6.12323e-17
vn 0.854472 -0 0.519498
vn 0.854745 -0.000103061 0.519049
vn 0.854659 0 0.519189
vn 1.25733e-19 1 6.132e-17
vn 0.51911 0 -0.854707
vn -0.854659 0 -0.51919
vn -0.51911 0 0.854707
vn 2.16848e-23 -1 -6.12324e-17
vn -0.066971 0.991643 0.110268
vn -0.0669142 0.991695 0.109835
vn -0.066906 0.991658 0.110172
vn 0.996939 0 0.0781844
vn 0.996939 0 0.0781844
vn 0.519107 0 -0.854709
vn -0.854745 0 -0.519049
vn -0.854486 0.000214616 -0.519474
vn -0.854659 -0 -0.519189
vn -0.519068 0 0.854733
vn -3.58425e-23 -1 -6.12323e-17
vn -0.853033 0 -0.521856
vn -0.871394 0 -0.490585
vn -0.871187 0.00014933 -0.490952
vn -0.871335 -0 -0.490689
vn 7.01721e-20 -1 -6.11901e-17
vn -0.871447 0 -0.490489
vn -0.871073 0.000396931 -0.491154
vn -0.87138 -0 -0.490609
vn -0.871576 0 -0.490261
vn 0.519732 0 -0.85433
vn 0.490739 0 -0.871307
vn 0.519725 0 -0.854333
vn -0.488895 0 0.872343
vn -0.516336 0 0.856386
vn 0.854693 -0 0.519134
vn 0.854655 2.61132e-05 0.519196
vn 0.854693 -4.74149e-05 0.519134
vn 0.854655 5.4591e-07 0.519197
vn 0.854655 -3.03235e-07 0.519196
vn 0.854655 0 0.519197
vn 9.93841e-23 -1 -6.12323e-17
vn 3.07827e-24 -1 -6.12323e-17
vn 3.76369e-23 -1 -6.12323e-17
vn 0.856634 -0 0.515925
vn -0.517409 0 0.855738
vn -0.515988 0 0.856596
vn 0.996949 -0 0.0780519
vn 0.516533 0 -0.856267
vn -0.854575 0 -0.519328
vn 2.27786e-23 -1 -6.12324e-17
vn 8.40201e-23 -1 -6.12325e-17
vn 1.00369e-22 -1 -6.1232e-17
vn -0.516533 0 0.856267
vn 0.996936 -0 0.0782253
vn 0.519685 0 -0.854358
vn -0.854738 0 -0.519059

# Mesh 'defaultobject' with 228 faces
g defaultobject
usemtl DefaultMaterial
f  1//1 2//1 3//1
f  2//2 1//2 4//2
f  1//3 5//3 4//3
f  5//3 1//3 6//4
f  5//5 2//5 4//5
f  2//5 5//5 7//5
f  7//6 3//6 2//6
f  3//6 7//6 8//7
f  3//8 6//8 1//8
f  6//8 3//8 8//9
f  6//10 7//10 5//10
f  7//10 6//10 8//11
f  9//12 10//12 11//12
f  10//12 9//12 12//12
f  13//13 10//13 12//13
f  10//13 13//13 14//13
f  14//14 11//14 10//14
f  11//14 14//14 15//14
f  15//15 9//15 11//15
f  9//15 15//15 16//15
f  16//16 12//16 9//16
f  12//16 16//16 13//16
f  16//17 14//17 13//17
f  14//17 16//17 15//18
f  17//12 18//12 19//12
f  18//12 17//12 20//12
f  21//19 18//19 20//19
f  18//19 21//19 5//19
f  5//20 19//20 18//20
f  19//20 5//20 6//20
f  6//21 17//21 19//21
f  17//21 6//21 22//22
f  22//23 20//23 17//23
f  20//23 22//23 21//24
f  21//25 6//10 5//10
f  6//10 21//25 22//26
f  23//12 24//12 25//12
f  24//12 23//12 26//12
f  26//12 23//12 27//12
f  27//12 23//12 28//12
f  28//12 23//12 29//12
f  29//12 23//12 30//12
f  30//12 23//12 31//12
f  30//12 31//12 32//12
f  31//12 23//12 33//12
f  33//12 23//12 34//12
f  31//27 15//27 32//27
f  15//28 31//28 33//28
f  15//29 33//29 34//29
f  15//30 34//30 16//30
f  16//31 34//31 23//31
f  16//32 23//32 35//32
f  35//33 23//33 36//33
f  36//34 23//34 37//34
f  15//35 30//35 32//35
f  30//35 15//35 38//35
f  39//36 28//36 29//36
f  28//36 39//36 40//36
f  38//37 29//37 30//37
f  29//37 38//37 39//37
f  40//38 27//38 28//38
f  27//39 40//39 26//39
f  26//39 40//39 24//40
f  24//41 40//41 25//41
f  25//42 40//42 41//42
f  25//43 41//43 42//43
f  25//43 42//43 43//44
f  25//45 43//45 44//45
f  44//46 23//46 25//46
f  23//46 44//46 37//46
f  43//47 37//47 44//47
f  37//47 43//47 36//48
f  36//48 43//47 42//49
f  36//48 42//49 35//50
f  35//50 42//49 41//51
f  35//50 41//51 16//17
f  16//17 41//51 40//52
f  16//17 40//52 39//53
f  16//17 39//53 15//18
f  15//18 39//53 38//54
f  45//12 46//12 47//12
f  46//12 45//12 48//12
f  46//12 48//12 49//12
f  46//12 49//12 50//12
f  51//55 45//55 47//55
f  45//56 51//56 48//56
f  48//57 51//57 49//57
f  49//58 51//58 13//58
f  13//59 51//59 52//59
f  13//59 52//59 53//60
f  13//61 50//61 49//61
f  50//61 13//61 16//61
f  16//62 46//62 50//62
f  46//62 16//62 35//62
f  35//63 47//63 46//63
f  47//63 35//63 51//63
f  13//17 35//50 16//17
f  35//50 13//17 51//64
f  51//64 13//17 53//65
f  51//64 53//65 52//66
f  54//12 55//12 56//12
f  55//12 54//12 57//12
f  58//67 55//67 57//67
f  55//67 58//67 41//67
f  41//68 56//68 55//68
f  56//68 41//68 40//68
f  40//69 54//69 56//69
f  54//69 40//69 59//69
f  59//70 57//70 54//70
f  57//70 59//70 58//70
f  58//71 40//52 41//51
f  40//52 58//71 59//72
f  60//12 61//12 62//12
f  61//12 60//12 63//12
f  61//12 63//12 64//12
f  15//73 64//73 63//73
f  64//74 15//74 61//74
f  61//75 15//27 65//75
f  65//76 15//76 66//76
f  65//77 62//77 61//77
f  62//77 65//77 67//77
f  67//78 60//78 62//78
f  60//78 67//78 38//78
f  38//79 63//79 60//79
f  63//79 38//79 15//79
f  66//80 67//80 65//80
f  67//80 66//80 15//18
f  67//80 15//18 38//54
f  64//81 68//81 69//81
f  68//82 64//82 70//82
f  68//83 70//83 71//83
f  71//84 72//84 68//84
f  72//84 71//84 14//85
f  72//86 69//86 68//86
f  69//86 72//86 65//77
f  65//87 64//87 69//87
f  64//88 65//88 70//88
f  70//89 65//89 15//15
f  15//18 65//80 66//80
f  15//90 71//90 70//90
f  71//90 15//90 14//90
f  14//17 65//80 72//91
f  65//80 14//17 66//80
f  66//80 14//17 15//18
f  73//12 74//12 75//12
f  76//12 77//12 78//12
f  77//12 76//12 74//12
f  77//12 74//12 73//12
f  77//12 73//12 79//12
f  77//12 79//12 80//12
f  77//12 80//12 81//12
f  77//12 82//12 83//12
f  82//12 77//12 81//12
f  82//12 81//12 84//12
f  84//12 81//12 85//12
f  85//12 81//12 86//12
f  58//92 77//92 83//92
f  77//92 58//92 87//92
f  88//93 76//93 78//93
f  76//94 88//94 74//94
f  74//95 88//95 89//95
f  89//96 88//96 90//96
f  7//97 73//97 75//97
f  73//98 7//98 79//98
f  79//99 7//99 21//99
f  21//25 7//10 5//10
f  91//100 81//100 80//100
f  81//100 91//100 92//100
f  87//101 78//101 77//101
f  78//101 87//101 88//101
f  89//102 75//102 74//102
f  75//102 89//102 7//102
f  41//103 83//103 82//103
f  83//103 41//103 58//103
f  21//104 80//104 79//104
f  80//104 21//104 91//104
f  92//105 86//105 81//105
f  86//105 92//105 44//46
f  44//106 85//106 86//106
f  85//107 44//107 84//107
f  84//108 44//108 43//108
f  84//109 43//109 82//109
f  82//109 43//109 42//110
f  82//109 42//110 41//111
f  5//10 91//112 21//25
f  91//112 44//47 92//113
f  44//47 91//112 5//10
f  44//47 5//10 7//10
f  44//47 7//10 89//96
f  44//47 89//96 90//96
f  44//47 90//96 88//96
f  44//47 88//96 87//114
f  44//47 87//114 58//71
f  44//47 58//71 43//47
f  43//47 58//71 42//49
f  42//49 58//71 41//51
f  93//12 94//12 95//12
f  96//12 95//12 94//12
f  97//12 95//12 96//12
f  98//12 97//12 96//12
f  99//115 95//115 97//115
f  95//115 99//115 100//115
f  100//116 93//116 95//116
f  93//116 100//116 101//116
f  37//117 97//117 98//117
f  97//117 37//117 99//117
f  101//118 94//118 93//118
f  94//118 101//118 102//118
f  102//119 96//119 94//119
f  96//119 102//119 36//119
f  36//120 98//120 96//120
f  98//120 36//120 37//120
f  102//121 101//121 36//48
f  100//122 36//48 101//121
f  37//47 36//48 100//122
f  99//123 37//47 100//122
f  103//12 104//12 105//12
f  104//12 103//12 106//12
f  36//124 106//124 103//124
f  106//124 36//124 102//124
f  102//125 104//125 106//125
f  104//125 102//125 51//125
f  51//126 105//126 104//126
f  105//126 51//126 35//126
f  35//127 103//127 105//127
f  103//127 35//127 36//127
f  35//50 102//121 36//48
f  102//121 35//50 51//64

