# {"id":"ID_46227","idOriginal":"ID_46227","origin":[14.314900541610255,48.266116459738],"elevation":258.9,"wof":[{"Id":85898429,"Name":"Kleinmünchen","Placetype":"neighbourhood","Offset":-1},{"Id":85632785,"Name":"Austria","Placetype":"country","Offset":-1},{"Id":102049853,"Name":"Linz","Placetype":"county","Offset":-1},{"Id":85681677,"Name":"Oberösterreich","Placetype":"region","Offset":-1},{"Id":101748071,"Name":"Linz","Placetype":"locality","Offset":-1}]}

# Attribution: City of Linz <http://geo.data.linz.gv.at/katalog/geodata/3d_geo_daten_lod2/>
# Longitude: 14.314900541610255
# Latitude: 48.266116459738
# Elevation: 258.9

# File produced by Open Asset Import Library (http://www.assimp.sf.net)
# (assimp v3.1.0)


# 10 vertex positions
v  4.826 2.426 0.141
v  6.706 2.167 1.159
v  5.844 2.167 -1.738
v  0.862 2.167 2.897
v  1.88 2.426 1.018
v  0 2.167 1.3269e-16
v  5.844 1.06422e-16 -1.738
v  0 0 0
v  0.862 -1.7739e-16 2.897
v  6.706 -7.09683e-17 1.159

# 0 UV coordinates

# 14 vertex normals
vn 0.161867 0.985637 -0.0481635
vn 0.0481388 0.985638 0.161866
vn 0.0482205 0.985615 0.161981
vn -0.0481387 0.985638 -0.161866
vn -0.0482205 0.985615 -0.161981
vn -0.161867 0.985637 0.0481635
vn -0.28506 0 -0.95851
vn -0.28506 5.86918e-17 -0.95851
vn -0.95847 -1.7463e-17 0.285192
vn -0.95847 0 0.285192
vn 0.28506 -0 0.95851
vn 0.95847 0 -0.285192
vn 2.87274e-24 -1 -6.12323e-17
vn 0 -1 -6.12323e-17

# Mesh 'defaultobject' with 16 faces
g defaultobject
usemtl DefaultMaterial
f  1//1 2//1 3//1
f  1//2 4//2 2//2
f  4//3 1//3 5//3
f  5//4 3//4 6//4
f  3//5 5//5 1//5
f  5//6 6//6 4//6
f  7//7 6//7 3//7
f  6//7 7//7 8//8
f  8//9 4//9 6//9
f  4//9 8//9 9//10
f  9//11 2//11 4//11
f  2//11 9//11 10//11
f  10//12 3//12 2//12
f  3//12 10//12 7//12
f  7//13 9//13 8//13
f  9//13 7//13 10//14

