# {"id":"ID_24397","idOriginal":"ID_24397","origin":[14.280656461324837,48.27586430210266],"elevation":279.326,"wof":[{"Id":102049853,"Name":"Linz","Placetype":"county","Offset":-1},{"Id":101748071,"Name":"Linz","Placetype":"locality","Offset":-1},{"Id":85632785,"Name":"Austria","Placetype":"country","Offset":-1},{"Id":85681677,"Name":"Oberösterreich","Placetype":"region","Offset":-1},{"Id":85898459,"Name":"Wegscheid","Placetype":"neighbourhood","Offset":-1}]}

# Attribution: City of Linz <http://geo.data.linz.gv.at/katalog/geodata/3d_geo_daten_lod2/>
# Longitude: 14.280656461324837
# Latitude: 48.27586430210266
# Elevation: 279.326

# File produced by Open Asset Import Library (http://www.assimp.sf.net)
# (assimp v3.1.0)


# 54 vertex positions
v  1.773 6.794 3.624
v  0.02 6.794 1.323
v  0.574 6.794 2.654
v  3.375 6.794 4.39
v  0 6.794 4.16013e-16
v  5.527 6.794 4.798
v  0.842 6.794 -1.736
v  7.634 6.794 4.675
v  2.208 6.794 -3.084
v  9.649 6.794 4.042
v  3.873 6.794 -4.409
v  10.059 6.794 3.791
v  11.494 6.794 2.912
v  5.81 6.794 -5.242
v  12.353 6.794 2.346
v  13.32 6.794 1.773
v  12.679 6.794 1.105
v  12.874 6.794 1.308
v  7.373 6.794 -5.536
v  12.319 6.794 -1.576
v  8.196 6.794 -5.418
v  8.773 6.794 -5.335
v  9.349 6.794 -5.335
v  11.432 6.794 -4.234
v  10.554 6.794 -5.092
v  11.671 6.794 -4.759
v  11.77 6.794 -4.976
v  0.842 1.06299e-16 -1.736
v  0 0 0
v  2.208 1.88841e-16 -3.084
v  5.81 3.2098e-16 -5.242
v  3.873 2.69973e-16 -4.409
v  0.02 -8.10104e-17 1.323
v  0.574 -1.62511e-16 2.654
v  1.773 -2.21906e-16 3.624
v  3.375 -2.6881e-16 4.39
v  5.527 -2.93793e-16 4.798
v  7.634 -2.86261e-16 4.675
v  9.649 -2.47501e-16 4.042
v  11.494 -1.78309e-16 2.912
v  10.059 -2.32132e-16 3.791
v  12.353 -1.43651e-16 2.346
v  13.32 -1.08565e-16 1.773
v  11.432 2.59258e-16 -4.234
v  11.77 3.04692e-16 -4.976
v  11.671 2.91405e-16 -4.759
v  12.679 -6.76617e-17 1.105
v  12.874 -8.00919e-17 1.308
v  12.319 9.65022e-17 -1.576
v  10.554 3.11795e-16 -5.092
v  9.349 3.26675e-16 -5.335
v  8.773 3.26675e-16 -5.335
v  7.373 3.38982e-16 -5.536
v  8.196 3.31757e-16 -5.418

# 0 UV coordinates

# 60 vertex normals
vn 0 1 0
vn -0.899752 0 -0.436401
vn -0.899752 2.67218e-17 -0.436401
vn -0.702402 0 -0.711781
vn -0.395064 0 -0.918654
vn -0.622687 0 -0.782471
vn -0.999886 -9.25553e-19 0.0151154
vn -0.999886 0 0.0151154
vn -0.923221 0 0.384271
vn -0.628956 0 0.777441
vn -0.431376 0 0.902172
vn -0.186273 0 0.982498
vn 0.0582775 -0 0.9983
vn 0.299704 -0 0.954032
vn 0.522123 -0 0.85287
vn 0.522339 -1.79183e-05 0.852738
vn 0.522291 0 0.852767
vn -1.29246e-19 1 6.10687e-17
vn 0.550206 -0 0.835029
vn 0.509778 -0 0.860306
vn 0.910129 -0 0.414325
vn 0.90979 6.94767e-05 0.415069
vn 0.91003 0 0.414542
vn 5.14264e-20 -1 -6.12085e-17
vn 0.721697 0 -0.692209
vn 0.721175 -7.15679e-05 -0.692753
vn 0.721539 0 -0.692374
vn 0 1 6.12285e-17
vn 0.991105 0 -0.133084
vn 0.948576 0 -0.316549
vn 0.0949637 0 -0.995481
vn 0.19768 0 -0.980267
vn 0 0 -1
vn 0.142382 0 -0.989812
vn 0.141927 -3.95081e-05 -0.989877
vn 0.142114 0 -0.98985
vn -1.9922e-20 1 6.1371e-17
vn -0.184858 0 -0.982765
vn -1.122e-23 -1 -6.12324e-17
vn 2.08132e-23 -1 -6.12323e-17
vn -3.95142e-23 -1 -6.12324e-17
vn -6.50506e-24 -1 -6.12323e-17
vn 3.90255e-23 -1 -6.12323e-17
vn -2.78157e-23 -1 -6.12323e-17
vn -4.51958e-24 -1 -6.12323e-17
vn 0 -1 -6.12322e-17
vn 0 -1 -6.12323e-17
vn 3.01227e-24 -1 -6.12323e-17
vn 0 -1 -6.12323e-17
vn 6.48696e-24 -1 -6.12323e-17
vn -9.67897e-24 -1 -6.12323e-17
vn 0 -1 -6.12323e-17
vn 3.04521e-24 -1 -6.12323e-17
vn 1.15062e-23 -1 -6.12323e-17
vn 3.07737e-23 -1 -6.12322e-17
vn -1.34423e-23 -1 -6.12324e-17
vn -5.85818e-23 -1 -6.12326e-17
vn -2.71555e-23 -1 -6.12324e-17
vn 1.88718e-21 -1 -6.12293e-17
vn -4.63164e-22 -1 -6.12331e-17

# Mesh 'defaultobject' with 104 faces
g defaultobject
usemtl DefaultMaterial
f  1//1 2//1 3//1
f  2//1 1//1 4//1
f  2//1 4//1 5//1
f  5//1 4//1 6//1
f  5//1 6//1 7//1
f  7//1 6//1 8//1
f  7//1 8//1 9//1
f  9//1 8//1 10//1
f  9//1 10//1 11//1
f  11//1 10//1 12//1
f  11//1 12//1 13//1
f  11//1 13//1 14//1
f  14//1 13//1 15//1
f  14//1 15//1 16//1
f  14//1 16//1 17//1
f  17//1 16//1 18//1
f  17//1 19//1 14//1
f  19//1 17//1 20//1
f  19//1 20//1 21//1
f  21//1 20//1 22//1
f  22//1 20//1 23//1
f  23//1 20//1 24//1
f  23//1 24//1 25//1
f  25//1 24//1 26//1
f  25//1 26//1 27//1
f  28//2 5//2 7//2
f  5//2 28//2 29//3
f  30//4 7//4 9//4
f  7//4 30//4 28//4
f  31//5 11//5 14//5
f  11//5 31//5 32//5
f  32//6 9//6 11//6
f  9//6 32//6 30//6
f  29//7 2//7 5//7
f  2//7 29//7 33//8
f  33//9 3//9 2//9
f  3//9 33//9 34//9
f  34//10 1//10 3//10
f  1//10 34//10 35//10
f  35//11 4//11 1//11
f  4//11 35//11 36//11
f  36//12 6//12 4//12
f  6//12 36//12 37//12
f  37//13 8//13 6//13
f  8//13 37//13 38//13
f  38//14 10//14 8//14
f  10//14 38//14 39//14
f  39//15 12//15 10//15
f  12//16 39//16 13//16
f  13//17 39//17 40//17
f  40//18 39//18 41//18
f  40//19 15//19 13//19
f  15//19 40//19 42//19
f  42//20 16//20 15//20
f  16//20 42//20 43//20
f  44//21 26//21 24//21
f  26//22 44//22 27//22
f  27//23 44//23 45//23
f  45//24 44//24 46//24
f  43//25 18//25 16//25
f  18//26 43//26 17//26
f  17//27 43//27 47//27
f  47//28 43//28 48//28
f  47//29 20//29 17//29
f  20//29 47//29 49//29
f  49//30 24//30 20//30
f  24//30 49//30 44//30
f  45//31 25//31 27//31
f  25//31 45//31 50//31
f  50//32 23//32 25//32
f  23//32 50//32 51//32
f  51//33 22//33 23//33
f  22//33 51//33 52//33
f  52//34 21//34 22//34
f  21//35 52//35 19//35
f  19//36 52//36 53//36
f  53//37 52//37 54//37
f  53//38 14//38 19//38
f  14//38 53//38 31//38
f  31//39 30//39 32//39
f  30//39 31//39 28//40
f  28//40 31//39 53//41
f  28//40 53//41 29//42
f  29//42 53//41 54//43
f  29//42 54//43 52//44
f  29//42 52//44 33//45
f  33//45 52//44 51//46
f  33//45 51//46 50//47
f  33//45 50//47 34//48
f  34//48 50//47 45//24
f  34//48 45//24 46//24
f  34//48 46//24 44//24
f  34//48 44//24 35//49
f  35//49 44//24 49//50
f  35//49 49//50 36//51
f  36//51 49//50 47//52
f  36//51 47//52 37//53
f  37//53 47//52 38//54
f  38//54 47//52 48//55
f  38//54 48//55 43//56
f  38//54 43//56 42//57
f  38//54 42//57 39//58
f  39//58 42//57 41//59
f  40//60 41//59 42//57

